<svg width="881" height="685" viewBox="0 0 881 685" fill="none" xmlns="http://www.w3.org/2000/svg">
<path fill-rule="evenodd" clip-rule="evenodd" d="M339.828 623.543L250.635 678.436C239.278 685.426 236.721 679.455 232.834 673.139L213.616 641.913C210.153 636.286 207.738 631.425 213.364 627.962L312.067 567.216C317.694 563.753 320.123 568.606 323.586 574.232L343.762 607.016C347.219 612.669 345.461 620.053 339.828 623.543Z" fill="#6269CF" fill-opacity="0.61"/>
<path fill-rule="evenodd" clip-rule="evenodd" d="M334.645 606.843L306.447 561.026C310.06 558.817 314.766 559.919 316.98 563.493L344.059 607.492C344.269 607.833 341.546 602.596 334.645 606.843Z" fill="#434AB6"/>
<path fill-rule="evenodd" clip-rule="evenodd" d="M237.604 666.605L209.389 620.76C205.873 622.938 204.806 627.596 207 631.185L234.265 675.485C234.475 675.826 230.864 670.753 237.604 666.605Z" fill="#434AB6"/>
<path fill-rule="evenodd" clip-rule="evenodd" d="M135.764 584.114L14.3711 559.965C-1.08575 556.89 1.53699 549.47 3.2913 540.652L11.964 497.056C13.5268 489.201 15.3744 482.887 23.0326 484.41L157.368 511.134C165.026 512.658 163.197 518.976 161.634 526.831L152.529 572.601C150.939 580.475 143.449 585.619 135.764 584.114Z" fill="#6269CF" fill-opacity="0.61"/>
<path fill-rule="evenodd" clip-rule="evenodd" d="M144.799 564.975L157.525 501.009C162.43 502 165.6 506.839 164.62 511.841L152.4 573.269C152.306 573.744 154.192 566.843 144.799 564.975Z" fill="#434AB6"/>
<path fill-rule="evenodd" clip-rule="evenodd" d="M12.6949 538.734L25.4277 474.73C20.6304 473.791 15.9413 477.069 14.9323 482.068L2.62836 543.916C2.53354 544.392 3.52103 536.909 12.6949 538.734Z" fill="#434AB6"/>
<path fill-rule="evenodd" clip-rule="evenodd" d="M229.695 537.189L102.999 490.237C86.8668 484.258 91.3371 475.729 95.1685 465.39L114.11 414.279C117.523 405.069 120.909 397.754 128.902 400.716L269.107 452.675C277.099 455.637 273.732 462.959 270.319 472.169L250.433 525.829C246.986 535.057 237.721 540.133 229.695 537.189Z" fill="#6269CF" fill-opacity="0.61"/>
<path fill-rule="evenodd" clip-rule="evenodd" d="M243.694 515.522L271.486 440.529C276.603 442.445 278.993 448.729 276.837 454.595L250.147 526.613C249.941 527.171 253.497 519.155 243.694 515.522Z" fill="#434AB6"/>
<path fill-rule="evenodd" clip-rule="evenodd" d="M105.809 464.475L133.618 389.437C128.608 387.6 122.795 390.847 120.607 396.706L93.7354 469.216C93.5285 469.774 96.2349 460.927 105.809 464.475Z" fill="#434AB6"/>
<path fill-rule="evenodd" clip-rule="evenodd" d="M679.622 654.725L589.651 589.647C578.195 581.361 582.951 576.507 587.497 570.223L609.971 539.152C614.021 533.553 617.756 529.277 623.432 533.383L722.995 605.4C728.671 609.505 724.949 613.791 720.9 619.39L697.305 652.01C693.226 657.613 685.326 658.826 679.622 654.725Z" fill="#6269CF" fill-opacity="0.61"/>
<path fill-rule="evenodd" clip-rule="evenodd" d="M693.732 643.067L726.707 597.479C730.338 600.121 731.197 605.137 728.631 608.708L696.964 652.488C696.719 652.827 700.693 648.103 693.732 643.067Z" fill="#434AB6"/>
<path fill-rule="evenodd" clip-rule="evenodd" d="M595.808 572.278L628.803 526.662C625.242 524.102 620.276 524.908 617.687 528.465L585.803 572.544C585.558 572.883 589.008 567.36 595.808 572.278Z" fill="#434AB6"/>
<path fill-rule="evenodd" clip-rule="evenodd" d="M714.968 461.764L556.428 423.599C536.241 418.74 540.023 409.361 542.726 398.133L556.087 342.629C558.495 332.627 561.208 324.623 571.21 327.031L746.653 369.265C756.655 371.673 753.966 379.683 751.558 389.684L737.53 447.957C735.086 457.981 725.006 464.149 714.968 461.764Z" fill="#6269CF" fill-opacity="0.61"/>
<path fill-rule="evenodd" clip-rule="evenodd" d="M727.709 437.704L747.314 356.264C753.72 357.826 757.671 364.231 756.158 370.599L737.331 448.807C737.185 449.413 739.975 440.657 727.709 437.704Z" fill="#434AB6"/>
<path fill-rule="evenodd" clip-rule="evenodd" d="M555.177 396.223L574.794 314.734C568.528 313.245 562.215 317.182 560.664 323.546L541.708 402.289C541.562 402.895 543.196 393.339 555.177 396.223Z" fill="#434AB6"/>
<path fill-rule="evenodd" clip-rule="evenodd" d="M375.057 445.934L256.86 417.481C241.81 413.858 244.649 406.785 246.686 398.321L256.758 356.481C258.573 348.942 260.612 342.907 268.069 344.702L398.868 376.189C406.325 377.984 404.303 384.023 402.489 391.563L391.914 435.49C390.072 443.046 382.541 447.712 375.057 445.934Z" fill="#6269CF" fill-opacity="0.61"/>
<path fill-rule="evenodd" clip-rule="evenodd" d="M384.607 427.784L399.385 366.393C404.161 367.558 407.097 372.375 405.956 377.176L391.764 436.131C391.654 436.587 393.752 429.985 384.607 427.784Z" fill="#434AB6"/>
<path fill-rule="evenodd" clip-rule="evenodd" d="M255.978 396.859L270.766 335.431C266.094 334.322 261.377 337.299 260.208 342.096L245.919 401.454C245.809 401.911 247.046 394.709 255.978 396.859Z" fill="#434AB6"/>
<path fill-rule="evenodd" clip-rule="evenodd" d="M374.617 561.303L214.367 591.49C193.962 595.334 193.566 585.229 191.428 573.88L180.86 517.777C178.956 507.668 178.149 499.255 188.258 497.35L365.595 463.945C375.704 462.04 376.535 470.449 378.44 480.558L389.535 539.46C391.415 549.605 384.751 559.364 374.617 561.303Z" fill="#6269CF" fill-opacity="0.61"/>
<path fill-rule="evenodd" clip-rule="evenodd" d="M376.374 534.135L360.867 451.816C367.351 450.615 373.58 454.836 374.811 461.265L389.703 540.317C389.818 540.93 388.772 531.799 376.374 534.135Z" fill="#434AB6"/>
<path fill-rule="evenodd" clip-rule="evenodd" d="M202.002 567.033L186.486 484.665C180.161 485.876 176.016 492.055 177.21 498.495L192.204 578.089C192.319 578.701 189.892 569.315 202.002 567.033Z" fill="#434AB6"/>
<path fill-rule="evenodd" clip-rule="evenodd" d="M557.243 633.977L396.992 664.164C376.588 668.007 376.192 657.902 374.054 646.554L363.486 590.45C361.581 580.341 360.774 571.928 370.884 570.024L548.221 536.618C558.33 534.714 559.161 543.122 561.065 553.232L572.161 612.133C574.041 622.278 567.376 632.037 557.243 633.977Z" fill="#6269CF" fill-opacity="0.61"/>
<path fill-rule="evenodd" clip-rule="evenodd" d="M559 606.808L543.493 524.49C549.976 523.288 556.206 527.509 557.437 533.938L572.328 612.991C572.444 613.603 571.398 604.472 559 606.808Z" fill="#434AB6"/>
<path fill-rule="evenodd" clip-rule="evenodd" d="M384.628 639.706L369.112 557.338C362.786 558.549 358.642 564.728 359.836 571.168L374.829 650.762C374.945 651.374 372.517 641.988 384.628 639.706Z" fill="#434AB6"/>
<path fill-rule="evenodd" clip-rule="evenodd" d="M613.951 500.893L453.7 531.08C433.296 534.924 432.9 524.819 430.762 513.47L420.194 457.367C418.289 447.257 417.482 438.845 427.592 436.94L604.928 403.535C615.038 401.63 615.869 410.039 617.773 420.148L628.869 479.05C630.749 489.194 624.084 498.953 613.951 500.893Z" fill="#6269CF" fill-opacity="0.61"/>
<path fill-rule="evenodd" clip-rule="evenodd" d="M615.707 473.724L600.201 391.406C606.684 390.204 612.914 394.426 614.145 400.855L629.036 479.907C629.151 480.519 628.106 471.389 615.707 473.724Z" fill="#434AB6"/>
<path fill-rule="evenodd" clip-rule="evenodd" d="M441.336 506.623L425.82 424.255C419.494 425.466 415.35 431.645 416.544 438.085L431.537 517.678C431.652 518.291 429.225 508.904 441.336 506.623Z" fill="#434AB6"/>
<path fill-rule="evenodd" clip-rule="evenodd" d="M862.196 561.129L699.477 571.81C678.758 573.169 679.581 563.09 678.825 551.567L675.086 494.599C674.412 484.334 674.624 475.885 684.889 475.211L864.957 463.393C875.222 462.719 875.035 471.166 875.709 481.431L879.634 541.24C880.28 551.537 872.489 560.423 862.196 561.129Z" fill="#6269CF" fill-opacity="0.61"/>
<path fill-rule="evenodd" clip-rule="evenodd" d="M867.21 534.369L861.724 450.783C868.305 450.371 873.981 455.311 874.429 461.842L879.697 542.112C879.738 542.733 879.799 533.543 867.21 534.369Z" fill="#434AB6"/>
<path fill-rule="evenodd" clip-rule="evenodd" d="M690.146 546.042L684.656 462.405C678.231 462.846 673.373 468.481 673.784 475.018L679.088 555.838C679.129 556.459 677.849 546.849 690.146 546.042Z" fill="#434AB6"/>
<path fill-rule="evenodd" clip-rule="evenodd" d="M419.956 590.5C411.853 590.5 412 568.71 412 568.71C412 568.71 423.976 566.822 425.958 569.204C428.567 572.337 430.218 582.328 435.425 585.954C444.993 592.613 466.947 604.332 464.861 608.698C462.776 613.065 451.228 615.569 441.655 608.911C432.081 602.252 424.137 590.5 419.956 590.5Z" fill="#F6B89F"/>
<path fill-rule="evenodd" clip-rule="evenodd" d="M412 578.967C423.712 569.27 422.526 598.338 458.858 603.01C464.162 603.693 469.379 612.787 465.845 617H447.188L417.41 592.238V616.105H412.007L412 578.967Z" fill="#37474F"/>
<path fill-rule="evenodd" clip-rule="evenodd" d="M485.956 590.5C477.853 590.5 478 568.71 478 568.71C478 568.71 489.975 566.822 491.956 569.204C494.566 572.337 496.216 582.328 501.425 585.954C510.992 592.613 532.945 604.332 530.861 608.698C528.778 613.065 517.228 615.569 507.655 608.911C498.081 602.252 490.14 590.5 485.956 590.5Z" fill="#F6B89F"/>
<path fill-rule="evenodd" clip-rule="evenodd" d="M478 578.967C489.711 569.27 488.525 598.338 524.857 603.01C530.162 603.693 535.379 612.787 531.845 617H513.191L483.411 592.238V616.105H478.01L478 578.967Z" fill="#37474F"/>
<path fill-rule="evenodd" clip-rule="evenodd" d="M438.454 280.681L470.511 269C476.347 269 495.484 566.82 493.908 572L477.859 570.793C474.47 570.793 453.76 486.248 434.734 429.101C420.588 386.614 419 287.389 419 287.389C419.005 280.01 432.62 280.681 438.454 280.681Z" fill="#3F3E65"/>
<path fill-rule="evenodd" clip-rule="evenodd" d="M398.47 283.698L446.523 281.033C459.78 277.392 431.079 572.083 427.972 572H411.895C408.493 571.909 382.394 332.515 383.011 321.517C383.954 305.068 392.613 283.543 398.47 283.698Z" fill="#56557E"/>
<path fill-rule="evenodd" clip-rule="evenodd" d="M419.843 146.41L429.201 103.589L451.202 105.45L454.708 147.378L453.599 173.759L419.843 146.41Z" fill="#F4CA92"/>
<path fill-rule="evenodd" clip-rule="evenodd" d="M247.564 94.1171C223.059 104.278 220.58 165.966 284.838 162.765C294.088 162.305 263.005 180.827 278.981 196.839C300.502 218.414 350.547 222.573 384.814 197.016C401.998 184.202 395.348 138.651 419.057 134.828C424.096 134.011 431.296 126.45 432.551 119.546C435.478 103.451 453.254 88.03 464.238 82.8092C489.043 71.0136 476.521 42.6853 458.543 39.5525C441.261 36.5396 427.669 33.2965 415.801 48.2575C405.45 61.313 408.784 71.9576 400.88 73.6888C395.422 74.8819 388.129 68.8139 373.2 69.3083C341.6 70.353 338.792 89.5487 331.68 97.54C313.624 117.828 289.834 76.59 247.564 94.1171Z" fill="#56557E"/>
<rect x="583.791" y="210.321" width="15.3332" height="11.4975" transform="rotate(24.591 583.791 210.321)" fill="#FFDFAE"/>
<path fill-rule="evenodd" clip-rule="evenodd" d="M588.865 220.566C589.755 215.69 591.267 212.595 601.343 214.942C607.626 216.405 606.559 218.204 605.666 223.079C604.772 227.954 601.272 230.148 594.924 228.988C588.577 227.827 587.972 225.442 588.865 220.566Z" fill="#FFDFAE"/>
<path fill-rule="evenodd" clip-rule="evenodd" d="M585.751 224.914C585.751 224.914 522.536 209.795 502.529 201.462C496.894 199.114 453.903 160.511 453.903 160.511C453.903 160.511 448.926 138.718 455.011 135.291C466.763 128.685 523.821 179.744 523.821 179.744L588.877 209.29L585.751 224.914Z" fill="#FFDFAE"/>
<path fill-rule="evenodd" clip-rule="evenodd" d="M466.991 279.484L390.14 269.826C390.14 269.826 381.029 198.36 388.233 164.104C389.572 157.73 404.492 136.947 419.415 128.182C423.03 126.059 450.334 150.425 450.334 150.425L453.243 130.266C461.436 135.851 469.652 134.507 479.64 150.572C490.966 168.787 493.161 197.069 484.783 211.293C471.645 233.581 466.991 279.484 466.991 279.484Z" fill="#2FC0C4"/>
<path fill-rule="evenodd" clip-rule="evenodd" d="M475.952 95.8987C474.881 97.2145 469.455 93.5233 469.372 97.5537C468.963 117.776 459.527 128.022 451.392 125.284C443.389 122.591 439.436 116.158 434.494 113.115C434.242 112.96 438.014 103.641 438.909 96.0731C439.392 91.9869 433.334 80.9922 434.959 78.6154C439.425 72.0911 441.325 78.8279 445.791 78.5105C465.942 77.0804 454.452 54.8922 459.019 52.7565C459.246 52.6503 470.431 68.8289 470.392 82.4333C470.381 86.939 478.248 93.0724 475.952 95.8987Z" fill="#FFDFAE"/>
<path fill-rule="evenodd" clip-rule="evenodd" d="M595.694 219.225C598.451 214.347 600.629 211.274 604.056 213.854C606.193 215.465 606.825 219.083 604.067 223.959C601.309 228.836 597.658 230.633 595.35 229.326C593.041 228.018 592.936 224.108 595.694 219.225Z" fill="#FFDFAE"/>
<path fill-rule="evenodd" clip-rule="evenodd" d="M229.625 191.246C226.457 191.082 223.279 191.24 220.143 191.719C216.15 192.32 213.18 192.528 209.322 195.033C206.435 196.907 205.534 204.687 206.217 207.229C209.409 219.121 220.166 206.831 220.166 206.831L229.627 206.559L229.625 191.246Z" fill="#FFDFAE"/>
<path fill-rule="evenodd" clip-rule="evenodd" d="M221.601 207.014L221.737 191.287L302.319 178.974C302.319 178.974 405.777 128.029 417 131.5C385.487 151.383 385.962 181.562 385.962 181.562L315.705 206.146L221.601 207.014Z" fill="#FFDFAE"/>
<path fill-rule="evenodd" clip-rule="evenodd" d="M557.132 327.508L249.662 319.487C210.511 318.466 213.636 305.841 214.019 291.184L215.909 218.72C216.25 205.663 217.97 195.017 237.367 195.523L577.619 204.399C597.016 204.905 595.342 215.552 595.002 228.609L593.017 304.687C592.619 317.781 576.586 327.977 557.132 327.508Z" fill="#8186DE"/>
<path fill-rule="evenodd" clip-rule="evenodd" d="M570.746 300.286L573.52 193.963C585.952 194.312 595.846 201.304 595.666 209.613L593.002 311.717C592.982 312.508 594.535 300.906 570.746 300.286Z" fill="#434AB6"/>
<path fill-rule="evenodd" clip-rule="evenodd" d="M236.163 291.623L238.938 185.236C226.794 184.943 216.783 191.42 216.53 199.733L213.849 302.536C213.828 303.327 212.927 291.016 236.163 291.623Z" fill="#434AB6"/>
<path d="M640.804 278.768C641.409 278.55 642.2 278.173 643.174 277.636C644.149 277.099 645.103 276.496 646.036 275.825C646.969 275.155 647.779 274.464 648.466 273.753C649.214 273.053 649.644 272.363 649.755 271.685C649.917 270.698 649.617 270.015 648.855 269.637C648.156 269.269 647.282 268.999 646.233 268.827C645.185 268.656 644.116 268.607 643.027 268.682C642.01 268.705 641.08 268.774 640.238 268.89C639.406 268.943 638.723 269.053 638.189 269.219C637.665 269.323 637.372 269.37 637.311 269.36C636.632 269.249 636.071 268.808 635.627 268.039C635.255 267.218 635.125 266.468 635.236 265.79C635.357 265.05 635.798 264.488 636.557 264.106C637.326 263.662 638.266 263.341 639.375 263.143C640.546 262.955 641.763 262.87 643.027 262.887C644.352 262.914 645.601 263.024 646.773 263.216C649.487 263.661 651.668 264.651 653.316 266.188C655.036 267.674 655.724 269.465 655.38 271.562C655.208 272.61 654.856 273.598 654.325 274.524C653.793 275.45 653.143 276.325 652.374 277.149C651.678 277.922 650.924 278.653 650.114 279.344C649.376 279.983 648.689 280.503 648.053 280.906C649.4 281.19 650.635 281.772 651.757 282.653C652.951 283.482 653.92 284.528 654.663 285.789C655.478 287 656.047 288.36 656.369 289.869C656.692 291.379 656.727 292.904 656.474 294.446C655.999 297.345 654.983 299.87 653.427 302.022C651.871 304.174 649.903 305.941 647.523 307.324C645.205 308.718 642.551 309.644 639.562 310.104C636.635 310.575 633.537 310.542 630.268 310.006C628.85 309.773 627.831 309.417 627.214 308.935C626.647 308.526 626.465 307.704 626.668 306.471C626.951 304.744 628.11 304.047 630.145 304.381C632.057 304.694 634.133 304.781 636.373 304.642C638.674 304.512 640.841 304.044 642.873 303.237C644.905 302.43 646.685 301.233 648.211 299.647C649.748 297.999 650.734 295.849 651.169 293.197C651.452 291.47 650.872 289.791 649.429 288.161C648.058 286.48 646.139 285.437 643.672 285.033C643.24 284.962 642.803 284.922 642.361 284.913C641.981 284.914 641.575 284.879 641.144 284.808C640.28 284.667 639.647 284.278 639.245 283.642C638.914 282.955 638.815 282.21 638.946 281.408C639.138 280.236 639.757 279.356 640.804 278.768ZM676.709 276.483C677.499 276.296 678.265 276.263 679.005 276.384C679.992 276.546 680.707 276.822 681.149 277.211C681.643 277.292 682.146 277.311 682.66 277.268C683.235 277.236 683.831 277.27 684.448 277.372C686.915 277.776 688.993 278.623 690.682 279.913C692.37 281.203 693.705 282.721 694.686 284.465C695.728 286.219 696.401 288.103 696.704 290.116C697.008 292.129 697.008 294.06 696.704 295.911C696.351 298.069 695.647 300.044 694.593 301.835C693.55 303.564 692.264 305.031 690.737 306.238C689.209 307.444 687.485 308.301 685.565 308.81C683.645 309.319 681.636 309.401 679.539 309.057C677.134 308.663 674.872 307.975 672.752 306.995C670.705 305.962 668.955 304.662 667.502 303.094C666.11 301.536 665.078 299.72 664.405 297.646C663.803 295.521 663.714 293.163 664.139 290.573C664.867 286.132 666.373 282.737 668.658 280.388C670.943 278.04 673.627 276.738 676.709 276.483ZM678.608 283.444L677.96 283.338C676.85 283.156 675.843 283.308 674.94 283.793C674.048 284.217 673.248 284.846 672.541 285.68C671.844 286.452 671.251 287.368 670.761 288.428C670.332 289.498 670.037 290.526 669.875 291.513C669.612 293.117 669.719 294.591 670.195 295.935C670.681 297.218 671.414 298.352 672.393 299.336C673.371 300.319 674.535 301.144 675.883 301.808C677.24 302.41 678.66 302.833 680.14 303.076C681.127 303.237 682.205 303.224 683.376 303.036C684.557 302.786 685.676 302.336 686.733 301.686C687.799 300.974 688.737 300.083 689.546 299.012C690.355 297.942 690.891 296.604 691.153 295.001C691.386 293.582 691.357 292.216 691.065 290.901C690.784 289.525 690.288 288.304 689.576 287.237C688.864 286.17 687.968 285.264 686.887 284.516C685.868 283.779 684.711 283.305 683.415 283.092C682.552 282.951 681.735 282.912 680.965 282.976C680.204 282.978 679.419 283.134 678.608 283.444ZM716.12 282.943C716.911 282.756 717.676 282.723 718.416 282.844C719.403 283.006 720.118 283.282 720.561 283.671C721.054 283.752 721.558 283.771 722.072 283.729C722.647 283.696 723.243 283.731 723.86 283.832C726.327 284.236 728.405 285.083 730.093 286.374C731.782 287.664 733.116 289.181 734.097 290.925C735.14 292.679 735.812 294.563 736.116 296.576C736.419 298.589 736.419 300.521 736.116 302.371C735.762 304.53 735.058 306.504 734.005 308.295C732.961 310.024 731.676 311.492 730.148 312.698C728.62 313.904 726.896 314.762 724.976 315.27C723.056 315.779 721.048 315.861 718.951 315.517C716.545 315.123 714.283 314.436 712.164 313.455C710.116 312.423 708.366 311.122 706.913 309.554C705.522 307.996 704.49 306.18 703.816 304.107C703.214 301.981 703.126 299.623 703.551 297.033C704.278 292.592 705.785 289.197 708.07 286.849C710.355 284.5 713.038 283.198 716.12 282.943ZM718.019 289.904L717.372 289.798C716.261 289.616 715.255 289.768 714.352 290.253C713.459 290.677 712.659 291.306 711.953 292.14C711.256 292.913 710.663 293.829 710.172 294.888C709.743 295.958 709.448 296.986 709.287 297.973C709.024 299.577 709.13 301.051 709.607 302.396C710.093 303.679 710.826 304.812 711.804 305.796C712.783 306.78 713.946 307.604 715.294 308.268C716.652 308.871 718.071 309.293 719.551 309.536C720.538 309.698 721.617 309.684 722.788 309.496C723.969 309.247 725.088 308.797 726.144 308.146C727.211 307.435 728.149 306.543 728.957 305.473C729.766 304.402 730.302 303.065 730.565 301.461C730.798 300.042 730.768 298.676 730.477 297.362C730.196 295.985 729.699 294.764 728.988 293.697C728.276 292.631 727.379 291.724 726.299 290.977C725.279 290.24 724.122 289.765 722.827 289.553C721.963 289.411 721.146 289.372 720.376 289.436C719.616 289.438 718.83 289.594 718.019 289.904ZM755.532 289.403C756.322 289.216 757.088 289.183 757.828 289.305C758.815 289.466 759.53 289.742 759.973 290.131C760.466 290.212 760.969 290.231 761.483 290.189C762.058 290.157 762.654 290.191 763.271 290.292C765.738 290.696 767.816 291.544 769.505 292.834C771.193 294.124 772.528 295.641 773.509 297.385C774.551 299.139 775.224 301.023 775.527 303.036C775.831 305.049 775.831 306.981 775.527 308.831C775.174 310.99 774.47 312.965 773.416 314.755C772.373 316.484 771.087 317.952 769.56 319.158C768.032 320.364 766.308 321.222 764.388 321.73C762.468 322.239 760.459 322.321 758.362 321.978C755.957 321.583 753.695 320.896 751.575 319.915C749.528 318.883 747.778 317.583 746.325 316.014C744.933 314.456 743.901 312.641 743.228 310.567C742.626 308.441 742.537 306.084 742.962 303.493C743.69 299.052 745.196 295.658 747.482 293.309C749.767 290.96 752.45 289.658 755.532 289.403ZM757.431 296.365L756.783 296.259C755.673 296.077 754.666 296.228 753.763 296.714C752.871 297.137 752.071 297.766 751.364 298.6C750.668 299.373 750.074 300.289 749.584 301.349C749.155 302.418 748.86 303.447 748.698 304.433C748.435 306.037 748.542 307.511 749.018 308.856C749.504 310.139 750.237 311.272 751.216 312.256C752.195 313.24 753.358 314.064 754.706 314.728C756.064 315.331 757.483 315.753 758.963 315.996C759.95 316.158 761.029 316.145 762.199 315.957C763.38 315.707 764.499 315.257 765.556 314.607C766.622 313.895 767.56 313.004 768.369 311.933C769.178 310.862 769.714 309.525 769.977 307.921C770.209 306.503 770.18 305.136 769.889 303.822C769.607 302.446 769.111 301.224 768.399 300.158C767.687 299.091 766.791 298.184 765.71 297.437C764.691 296.7 763.534 296.225 762.238 296.013C761.375 295.871 760.558 295.832 759.788 295.896C759.027 295.898 758.242 296.054 757.431 296.365ZM815.173 310.39L815.913 310.511C817.023 310.693 817.836 311.143 818.351 311.861C818.877 312.517 819.084 313.184 818.973 313.863C818.812 314.85 818.099 315.524 816.836 315.887C815.574 316.25 814.053 316.445 812.276 316.47C810.57 316.444 808.782 316.341 806.911 316.161C805.041 315.981 803.422 315.81 802.055 315.65C801.68 317.551 801.233 319.505 800.715 321.51C800.206 323.453 799.636 325.577 799.005 327.88C798.834 328.928 798.42 329.715 797.763 330.241C797.117 330.705 796.486 330.887 795.869 330.786C795.191 330.675 794.645 330.332 794.233 329.757C793.83 329.122 793.715 328.279 793.887 327.231C794.271 324.887 794.748 322.749 795.318 320.815C795.96 318.831 796.474 316.856 796.859 314.893C796.366 314.812 795.836 314.757 795.271 314.728C794.716 314.637 794.192 314.551 793.698 314.47C792.465 314.268 791.103 314.076 789.613 313.895C788.132 313.652 786.76 313.332 785.495 312.935C784.23 312.538 783.17 312.047 782.316 311.464C781.523 310.891 781.203 310.141 781.354 309.216C781.456 308.6 781.896 308.038 782.675 307.533C783.517 307.037 784.4 306.865 785.325 307.017C786.908 307.403 788.497 307.759 790.09 308.083C791.684 308.408 793.282 308.701 794.886 308.964L797.846 309.45C798.006 307.702 798.053 305.873 797.986 303.962C797.981 302.062 798.155 300.032 798.509 297.873C798.681 296.825 799.059 296.063 799.643 295.589C800.289 295.125 800.921 294.943 801.538 295.044C802.524 295.206 803.164 295.944 803.455 297.259C803.818 298.522 803.991 299.975 803.975 301.619C803.959 303.263 803.819 304.887 803.556 306.491C803.355 308.104 803.189 309.312 803.058 310.114C805.113 310.324 807.117 310.463 809.07 310.529C811.094 310.544 813.128 310.498 815.173 310.39Z" fill="#FF0000"/>
<path d="M484 28.2599C487.317 25.13 494.896 19.3825 498.677 21.4312C503.404 23.9919 508.877 31.6742 507.882 37.0803C507.086 41.4051 501.414 47.9873 498.677 50.7377C496.273 52.4449 490.717 54.8349 487.732 50.7377C484 45.6162 483.502 35.6577 487.732 31.9588C491.115 28.9996 496.438 28.2599 498.677 28.2599C500.833 31.0103 504.498 37.251 501.911 40.2101C498.677 43.909 497.682 49.0305 492.707 47.0388C488.727 45.4455 491.048 39.7359 492.707 37.0803" stroke="black" stroke-width="2"/>
<path d="M375.756 30.7434C379.796 33.8688 387.848 41.4223 387.741 46.6327C387.607 53.1457 383.494 62.0707 378.534 62.4433C374.567 62.7414 366.627 57.7577 363.153 55.2286C360.696 52.7979 356.323 46.7262 358.488 41.8853C361.195 35.8342 369.338 32.3068 374.243 36.3772C378.168 39.6336 381.057 45.9063 382.012 48.6356C380.623 52.0706 376.949 58.3691 373.364 56.0831C368.882 53.2257 364.162 53.5149 363.712 46.8655C363.353 41.5461 369.132 42.7018 372.067 43.9446" stroke="black" stroke-width="2"/>
<path d="M440.235 12.7531C441.651 17.4823 443.538 27.6333 439.76 30.4036C435.038 33.8664 425.041 35.6748 420.328 32.1714C416.557 29.3688 412.955 20.7078 411.625 16.7277C411.138 13.5613 411.505 6.97094 416.868 5.94111C423.572 4.65383 433.371 8.81066 434.897 14.7043C436.117 19.4192 434.277 25.0106 433.205 27.2169C429.531 28.0581 421.784 28.7577 420.183 24.8273C418.181 19.9143 413.741 16.5437 418.036 12.5702C421.472 9.39133 425.842 14.3438 427.597 17.2173" stroke="black" stroke-width="2"/>
</svg>
