<svg width="747" height="610" viewBox="0 0 747 610" fill="none" xmlns="http://www.w3.org/2000/svg">
<path d="M536.616 62.485C536.645 61.9377 536.632 60.7649 536.579 58.9668C536.575 57.1363 536.495 55.0561 536.339 52.7261C535.75 52.6895 535.171 52.6121 534.6 52.4938C534.028 52.3756 533.437 52.2532 532.825 52.1265C532.009 51.9576 531.152 51.7802 530.254 51.5944C529.365 51.3678 528.566 51.1173 527.857 50.8429C527.156 50.5277 526.59 50.1766 526.16 49.7897C525.738 49.3619 525.586 48.8624 525.704 48.2912C525.797 47.8424 526.057 47.5132 526.483 47.3036C526.95 47.1024 527.551 47.0778 528.285 47.2298C529.867 47.8124 531.474 48.2726 533.106 48.6104C533.595 48.7118 534.085 48.8131 534.574 48.9145C535.064 49.0158 535.562 49.0763 536.069 49.0961C535.925 47.3219 535.753 45.5842 535.552 43.8832C535.359 42.1413 535.129 40.5831 534.86 39.2084C534.632 37.8422 534.374 36.7251 534.086 35.8569C533.798 34.9888 533.47 34.5167 533.103 34.4407C532.409 34.2972 531.544 34.7776 530.507 35.882C529.469 36.9864 528.365 38.4172 527.193 40.1744C526.021 41.9317 524.851 43.8809 523.685 46.0223C522.527 48.1228 521.455 50.1136 520.47 51.9947C519.526 53.8842 518.743 55.5092 518.121 56.8697C517.507 58.1894 517.175 58.9716 517.124 59.2165C516.958 59.6076 516.691 59.8714 516.322 60.0078C515.994 60.1527 515.667 60.1914 515.341 60.1238C514.851 60.0225 514.436 59.7664 514.096 59.3555C513.755 58.9446 513.644 58.4536 513.762 57.8824C516.07 52.4882 518.415 47.7398 520.796 43.6372C521.796 41.887 522.849 40.1903 523.955 38.547C525.07 36.8629 526.199 35.4159 527.343 34.206C528.495 32.9553 529.63 31.9986 530.745 31.336C531.902 30.6819 532.99 30.4604 534.01 30.6715C535.071 30.8911 535.936 31.7508 536.604 33.2507C537.313 34.759 537.885 36.6219 538.319 38.8394C538.762 41.016 539.081 43.3797 539.277 45.9306C539.481 48.4407 539.624 50.8319 539.707 53.1042C539.798 55.3356 539.838 57.3012 539.827 59.0008C539.824 60.6597 539.841 61.7058 539.879 62.1391L539.803 62.5063C539.668 63.1592 539.354 63.6474 538.862 63.9709C538.419 64.2621 537.973 64.3613 537.524 64.2684C537.197 64.2008 536.933 64.0397 536.73 63.785C536.577 63.498 536.539 63.0647 536.616 62.485ZM545.138 63.8659C545.63 62.5209 546.047 61.2244 546.39 59.9764C546.783 58.6961 547.11 57.4235 547.372 56.1586C547.887 53.6697 548.174 51.0485 548.234 48.295C548.218 48.1642 548.231 47.9968 548.274 47.7928C548.392 47.2215 548.652 46.7861 549.055 46.4864C549.498 46.1952 549.964 46.1003 550.454 46.2016C550.984 46.3114 551.334 46.5753 551.503 46.9931C551.712 47.4195 551.819 47.9309 551.823 48.5275C551.836 49.0832 551.795 49.6918 551.701 50.353C551.656 50.9819 551.635 51.5947 551.64 52.1912C552.28 51.7706 553.059 51.3999 553.976 51.0792C554.893 50.7585 555.839 50.5074 556.812 50.326C557.827 50.153 558.824 50.0616 559.805 50.0519C560.794 50.0013 561.697 50.0604 562.513 50.2293C562.962 50.3222 563.311 50.5861 563.562 51.0209C563.812 51.4556 563.891 51.8974 563.798 52.3463C563.714 52.7543 563.507 53.137 563.177 53.4943C562.857 53.8109 562.431 53.9142 561.901 53.8044C560.921 53.6018 559.863 53.5742 558.726 53.7219C557.598 53.8287 556.51 54.0503 555.461 54.3864C554.454 54.7311 553.536 55.158 552.707 55.6673C551.919 56.185 551.34 56.7245 550.968 57.2859C550.718 58.085 550.454 59.0516 550.176 60.1856C549.948 61.2873 549.647 62.3312 549.273 63.3175C548.948 64.2714 548.55 65.0614 548.08 65.6875C547.61 66.3135 547.049 66.559 546.396 66.4239C545.988 66.3394 545.61 66.1122 545.261 65.7421C544.953 65.3805 544.862 64.8937 544.988 64.2816C545.022 64.1184 545.072 63.9799 545.138 63.8659ZM581.257 70.065C581.869 70.1917 582.288 70.4274 582.514 70.7722C582.749 71.0761 582.82 71.4525 582.727 71.9013C582.609 72.4725 582.378 72.8714 582.033 73.0979C581.697 73.2836 581.316 73.375 580.891 73.3721C580.466 73.3693 580.009 73.3172 579.519 73.2159C579.03 73.1145 578.601 73.0258 578.234 72.9498C576.52 72.5951 574.865 72.0611 573.268 71.3476C571.68 70.5933 570.313 69.6935 569.168 68.648C568.023 67.6025 567.165 66.4037 566.593 65.0515C566.022 63.6994 565.906 62.2073 566.243 60.5752C566.64 58.6575 567.423 57.1387 568.591 56.0189C569.808 54.8666 571.194 54.0261 572.751 53.4972C574.356 52.9359 576.053 52.649 577.843 52.6365C579.674 52.6324 581.425 52.8035 583.098 53.1497C584.159 53.3693 584.946 53.681 585.458 54.0849C585.978 54.4479 586.162 54.9966 586.01 55.7311C585.918 56.1799 585.719 56.5218 585.415 56.7567C585.152 57.0001 584.817 57.0796 584.409 56.9951C584.123 56.936 583.858 56.8811 583.613 56.8304C583.377 56.739 583.136 56.6679 582.891 56.6172C581.463 56.3216 580.046 56.1773 578.641 56.1842C577.276 56.1996 576 56.4035 574.812 56.796C573.665 57.1969 572.664 57.8194 571.809 58.6635C571.003 59.4753 570.46 60.5544 570.181 61.9009C569.962 62.9617 570.102 63.9269 570.603 64.7965C571.104 65.666 571.818 66.4308 572.745 67.0907C573.672 67.7507 574.727 68.3093 575.909 68.7667C577.091 69.2241 578.253 69.571 579.395 69.8074C579.722 69.875 580.028 69.9383 580.313 69.9974C580.607 70.0158 580.922 70.0383 581.257 70.065ZM596.516 57.3949C597.123 57.1375 597.949 57.0531 598.994 57.1419C600.089 57.1982 601.207 57.3446 602.35 57.5811C604.716 58.0709 606.302 59.1439 607.108 60.8C607.923 62.4152 607.997 64.8345 607.33 68.0579C606.983 69.7308 606.577 71.2848 606.109 72.7198C605.651 74.1141 605.164 75.3325 604.651 76.3751C604.186 77.3852 603.687 78.1541 603.152 78.6817C602.617 79.2093 602.105 79.4224 601.616 79.3211C601.208 79.2366 600.895 79.0016 600.676 78.6161C600.458 78.2306 600.409 77.7522 600.527 77.1809C600.679 76.4465 600.9 75.6839 601.192 74.8932C601.483 74.1025 601.803 73.2753 602.152 72.4114C602.501 71.5475 602.83 70.6795 603.138 69.8072C603.455 68.894 603.702 68.0091 603.879 67.1522C604.225 65.4794 604.21 64.1146 603.833 63.0579C603.505 61.9689 602.525 61.2555 600.893 60.9177C600.077 60.7488 599.252 60.7269 598.418 60.852C597.583 60.9772 596.84 60.9722 596.187 60.8371C595.779 60.7526 595.486 60.5219 595.309 60.1448C595.132 59.7677 595.085 59.3752 595.17 58.9671C595.237 58.6407 595.366 58.327 595.556 58.0259C595.787 57.7333 596.107 57.5229 596.516 57.3949ZM596.859 46.488C596.326 48.0371 595.774 49.8802 595.204 52.0173C594.675 54.163 594.165 56.419 593.675 58.7855C593.186 61.152 592.777 63.5354 592.451 65.9357C592.133 68.2952 591.784 70.393 591.404 72.2291C591.243 73.0043 590.933 73.5783 590.473 73.9511C590.013 74.324 589.517 74.4555 588.987 74.3457C588.375 74.219 588.02 73.5711 587.921 72.4019C587.864 71.2411 587.938 69.8524 588.145 68.2358C588.352 66.6192 588.637 64.9336 589 63.1792C589.372 61.3839 589.697 59.813 589.976 58.4666C590.466 56.1 590.988 53.7828 591.542 51.5148C592.097 49.2468 592.679 47.1546 593.288 45.2383C593.481 44.5124 593.811 44.0488 594.278 43.8476C594.786 43.6549 595.264 43.605 595.713 43.6979C596.162 43.7908 596.507 44.075 596.749 44.5506C597 44.9854 597.062 45.5088 596.935 46.1208L596.859 46.488ZM618.199 63.0316C617.923 63.9531 617.639 64.9155 617.346 65.9186C617.094 66.9302 616.858 67.9665 616.639 69.0273C616.326 70.537 616.075 72.0593 615.885 73.5943C615.736 75.1378 615.513 76.6235 615.218 78.0516C615.049 78.8676 614.718 79.4374 614.226 79.761C613.774 80.093 613.324 80.2126 612.875 80.1197C612.467 80.0352 612.15 79.8206 611.923 79.4759C611.746 79.0988 611.704 78.5797 611.799 77.9184C612.056 76.057 612.28 74.3587 612.47 72.8237C612.71 71.2564 612.99 69.6975 613.311 68.147C613.437 67.535 613.577 66.7555 613.731 65.8086C613.933 64.8294 614.164 63.9198 614.423 63.0798C614.731 62.2075 615.092 61.4949 615.504 60.942C615.965 60.3567 616.523 60.1317 617.175 60.2668C617.584 60.3512 617.892 60.6066 618.102 61.033C618.352 61.4677 618.414 61.9911 618.288 62.6032L618.199 63.0316ZM618.149 48.4693C618.329 48.4215 618.481 48.4102 618.603 48.4356C618.766 48.4694 618.905 48.5193 619.019 48.5854C619.174 48.66 619.292 48.7058 619.373 48.7227C619.586 48.7241 619.774 48.7417 619.937 48.7755C620.109 48.7684 620.296 48.786 620.5 48.8283C621.847 49.107 622.754 49.7627 623.221 50.7954C623.728 51.8366 623.877 52.8673 623.666 53.8873C623.564 54.3769 623.332 54.882 622.969 55.4026C622.647 55.9316 622.211 56.3945 621.661 56.7912C621.16 57.1555 620.549 57.4334 619.829 57.6247C619.108 57.816 618.32 57.8229 617.463 57.6456C616.891 57.5274 616.391 57.2748 615.96 56.8878C615.53 56.5009 615.173 56.0654 614.89 55.5814C614.616 55.0565 614.432 54.5078 614.337 53.9351C614.252 53.3217 614.264 52.7497 614.373 52.2193C614.542 51.4033 614.985 50.6013 615.701 49.8135C616.458 49.0341 617.274 48.586 618.149 48.4693ZM618.959 51.9559L618.47 51.8545C618.249 51.8939 618.077 52.0072 617.953 52.1943C617.829 52.3814 617.746 52.577 617.704 52.781C617.628 53.1482 617.699 53.5246 617.917 53.9101C618.143 54.2548 618.379 54.4525 618.624 54.5032C619.236 54.6299 619.682 54.5307 619.962 54.2057C620.25 53.8399 620.428 53.4938 620.496 53.1674C620.427 52.4723 620.086 52.0615 619.474 51.9348C619.393 51.9179 619.221 51.9249 618.959 51.9559ZM638.593 85.3789C634.662 84.2248 631.998 82.2907 630.603 79.5766C629.207 76.8624 628.957 73.3428 629.852 69.0178L630.384 66.4473C628.793 66.1179 627.497 65.7006 626.495 65.1955C625.502 64.6495 625.111 63.8665 625.322 62.8464C625.479 62.4961 625.726 62.2281 626.063 62.0424C626.407 61.8159 626.845 61.7575 627.375 61.8673C627.865 61.9687 628.444 62.1523 629.112 62.4183C629.78 62.6843 630.523 62.9017 631.339 63.0706C631.609 61.7649 631.924 60.4473 632.284 59.1177C632.653 57.7474 633.054 56.5325 633.486 55.473C633.958 54.4221 634.45 53.5878 634.961 52.9701C635.48 52.3117 636.046 52.0458 636.658 52.1725C637.107 52.2654 637.473 52.5539 637.755 53.0379C638.047 53.4811 638.125 54.0291 637.989 54.682C637.778 55.702 637.373 57.0435 636.773 58.7065C636.174 60.3696 635.619 62.1268 635.108 63.9784C635.426 64.0867 635.744 64.1951 636.062 64.3035C636.429 64.3795 636.796 64.4555 637.163 64.5315C637.816 64.6666 638.473 64.7813 639.135 64.8757C639.837 64.9784 640.543 65.0608 641.254 65.1227C641.825 65.241 642.26 65.5013 642.56 65.9037C642.86 66.3061 642.967 66.7114 642.883 67.1194C642.764 67.6906 642.513 68.0852 642.127 68.3033C641.75 68.4805 641.284 68.5755 640.728 68.5881C640.221 68.5684 639.621 68.4867 638.928 68.3431C638.275 68.208 637.622 68.0729 636.969 67.9378L634.154 67.3551C634.02 67.7954 633.911 68.2196 633.826 68.6277C633.742 69.0357 633.658 69.4437 633.573 69.8517C633.269 71.3206 633.117 72.672 633.117 73.9059C633.166 75.1075 633.424 76.2246 633.891 77.2574C634.358 78.2902 635.063 79.2019 636.006 79.9927C636.948 80.7835 638.17 81.4618 639.669 82.0275C640.101 82.202 640.39 82.4532 640.535 82.781C640.679 83.1089 640.714 83.4564 640.638 83.8236C640.537 84.3132 640.301 84.7325 639.931 85.0814C639.61 85.3979 639.164 85.4971 638.593 85.3789ZM660.499 86.8495C661.193 86.993 661.669 87.2618 661.928 87.6558C662.195 88.0089 662.278 88.4303 662.177 88.92C662.067 89.4504 661.84 89.8289 661.495 90.0553C661.2 90.2495 660.835 90.3655 660.402 90.4035C660.009 90.4499 659.568 90.4224 659.079 90.3211C658.63 90.2282 658.222 90.1437 657.855 90.0677C656.141 89.713 654.47 89.1543 652.84 88.3916C651.26 87.5966 649.886 86.6313 648.717 85.4957C647.548 84.3602 646.666 83.0713 646.07 81.6291C645.475 80.1869 645.347 78.6498 645.685 77.0177C646.048 75.2632 646.829 73.8507 648.03 72.7801C649.279 71.6771 650.707 70.845 652.312 70.2837C653.917 69.7224 655.578 69.4067 657.295 69.3365C659.011 69.2663 660.563 69.3747 661.951 69.6619C662.644 69.8054 663.321 70.0306 663.981 70.3374C664.681 70.6526 665.275 71.0733 665.762 71.5996C666.249 72.1258 666.604 72.7738 666.828 73.5434C667.051 74.313 667.053 75.2283 666.834 76.2891C666.572 77.554 665.94 78.5508 664.938 79.2795C663.936 80.0083 662.801 80.5604 661.532 80.936C660.263 81.3116 658.966 81.5112 657.642 81.5351C656.318 81.5589 655.224 81.5025 654.358 81.366C653.91 81.2731 653.596 81.0381 653.419 80.661C653.291 80.2516 653.274 79.8224 653.367 79.3736C653.443 79.0064 653.621 78.6603 653.901 78.3353C654.189 77.9695 654.578 77.8373 655.068 77.9386C655.843 78.0991 656.676 78.1864 657.566 78.2005C658.498 78.2231 659.365 78.1472 660.167 77.9728C661.018 77.766 661.743 77.4481 662.343 77.019C662.942 76.5899 663.318 76.0082 663.47 75.2737C663.698 74.1721 662.975 73.4481 661.302 73.1019C660.201 72.8739 659.004 72.7964 657.713 72.8695C656.429 72.9017 655.214 73.1183 654.068 73.5192C652.921 73.9201 651.904 74.518 651.016 75.3129C650.177 76.0754 649.631 77.0687 649.378 78.2927C649.184 79.2312 649.296 80.1267 649.715 80.9794C650.175 81.8405 650.815 82.6538 651.636 83.4193C652.505 84.1524 653.522 84.7884 654.687 85.3274C655.893 85.8748 657.169 86.2878 658.516 86.5665C658.842 86.6341 659.168 86.7016 659.495 86.7692C659.83 86.7959 660.165 86.8227 660.499 86.8495ZM684.444 91.4226C685.057 91.5493 685.476 91.785 685.702 92.1297C685.937 92.4336 686.008 92.81 685.915 93.2588C685.797 93.8301 685.566 94.2289 685.221 94.4554C684.885 94.6411 684.504 94.7325 684.079 94.7297C683.654 94.7268 683.197 94.6748 682.707 94.5734C682.218 94.4721 681.789 94.3834 681.422 94.3074C679.708 93.9527 678.053 93.4186 676.456 92.7052C674.868 91.9509 673.501 91.051 672.356 90.0055C671.211 88.9601 670.352 87.7612 669.781 86.4091C669.21 85.0569 669.093 83.5648 669.431 81.9327C669.828 80.0151 670.611 78.4963 671.778 77.3764C672.996 76.2242 674.382 75.3836 675.938 74.8547C677.544 74.2935 679.241 74.0066 681.031 73.994C682.862 73.99 684.613 74.161 686.286 74.5073C687.347 74.7269 688.133 75.0386 688.646 75.4424C689.166 75.8055 689.35 76.3542 689.198 77.0886C689.105 77.5374 688.907 77.8793 688.603 78.1143C688.34 78.3577 688.004 78.4371 687.596 78.3527C687.311 78.2936 687.046 78.2387 686.801 78.188C686.564 78.0965 686.324 78.0255 686.079 77.9748C684.651 77.6792 683.234 77.5349 681.829 77.5418C680.464 77.5572 679.188 77.7611 678 78.1535C676.853 78.5545 675.852 79.177 674.997 80.0211C674.19 80.8329 673.648 81.912 673.369 83.2584C673.15 84.3193 673.29 85.2845 673.791 86.154C674.292 87.0236 675.006 87.7883 675.933 88.4483C676.86 89.1082 677.915 89.6669 679.097 90.1242C680.278 90.5816 681.441 90.9285 682.583 91.165C682.909 91.2325 683.215 91.2959 683.501 91.355C683.795 91.3733 684.11 91.3958 684.444 91.4226ZM705.671 99.2626C701.74 98.1085 699.077 96.1744 697.681 93.4602C696.286 90.7461 696.036 87.2265 696.931 82.9015L697.463 80.331C695.871 80.0016 694.575 79.5843 693.573 79.0791C692.58 78.5332 692.189 77.7501 692.4 76.7301C692.558 76.3798 692.805 76.1118 693.141 75.9261C693.486 75.6996 693.923 75.6412 694.454 75.751C694.943 75.8523 695.522 76.036 696.19 76.302C696.859 76.5679 697.601 76.7854 698.417 76.9543C698.687 75.6486 699.002 74.331 699.363 73.0014C699.731 71.6311 700.132 70.4162 700.564 69.3567C701.037 68.3057 701.529 67.4714 702.039 66.8538C702.559 66.1954 703.124 65.9295 703.736 66.0562C704.185 66.1491 704.551 66.4375 704.834 66.9216C705.125 67.3648 705.203 67.9128 705.068 68.5656C704.857 69.5857 704.451 70.9272 703.852 72.5902C703.252 74.2532 702.697 76.0105 702.186 77.8621C702.504 77.9704 702.822 78.0788 703.14 78.1872C703.507 78.2632 703.875 78.3392 704.242 78.4152C704.895 78.5503 705.552 78.665 706.213 78.7593C706.915 78.8621 707.621 78.9445 708.332 79.0064C708.903 79.1247 709.338 79.385 709.638 79.7874C709.938 80.1898 710.045 80.595 709.961 81.0031C709.843 81.5743 709.591 81.9689 709.205 82.187C708.828 82.3642 708.362 82.4592 707.806 82.4718C707.3 82.452 706.699 82.3704 706.006 82.2268C705.353 82.0917 704.7 81.9566 704.047 81.8215L701.232 81.2388C701.098 81.6791 700.989 82.1033 700.905 82.5113C700.82 82.9194 700.736 83.3274 700.651 83.7354C700.347 85.2043 700.195 86.5557 700.195 87.7896C700.244 88.9912 700.502 90.1083 700.97 91.1411C701.437 92.1738 702.141 93.0856 703.084 93.8764C704.027 94.6672 705.248 95.3455 706.748 95.9112C707.18 96.0857 707.468 96.3369 707.613 96.6647C707.758 96.9925 707.792 97.3401 707.716 97.7073C707.615 98.1969 707.379 98.6162 707.009 98.9651C706.688 99.2816 706.242 99.3808 705.671 99.2626Z" fill="black"/>
<path d="M25.1892 74.8026C25.769 74.7383 26.2199 74.8351 26.5419 75.0928C26.9007 75.3046 27.1054 75.6382 27.1559 76.0938C27.211 76.5907 27.1304 76.9979 26.9141 77.3153C26.6978 77.6328 26.3894 77.8766 25.9891 78.0467C25.6301 78.2123 25.2045 78.3433 24.7121 78.4399C24.2566 78.4904 23.801 78.5409 23.3455 78.5914C21.2748 78.821 19.2342 78.7538 17.2235 78.3898C15.2496 77.9799 13.453 77.2778 11.8335 76.2835C10.2555 75.2847 8.93523 73.9638 7.8727 72.3209C6.81017 70.678 6.15033 68.6969 5.89319 66.3778C5.56258 63.3961 5.90137 60.7803 6.90957 58.5305C7.95459 56.2347 9.33083 54.2795 11.0383 52.6648C12.7872 51.0455 14.6993 49.7645 16.7747 48.8217C18.8869 47.8329 20.8657 47.1524 22.7109 46.7801C23.4563 46.6974 23.9946 46.8264 24.3258 47.1669C24.6571 47.5075 24.8456 47.8849 24.8915 48.299C25.0063 49.3343 24.6151 49.9646 23.7178 50.1899C22.0474 50.6266 20.3172 51.2796 18.527 52.1488C16.7738 52.9721 15.1953 54.0484 13.7916 55.3779C12.3879 56.7073 11.2809 58.2554 10.4706 60.0222C9.65582 61.7475 9.37239 63.7283 9.62035 65.9646C9.82239 67.7867 10.3903 69.3168 11.3241 70.5548C12.2579 71.7927 13.3942 72.7777 14.733 73.5096C16.0672 74.2001 17.5234 74.6674 19.1016 74.9117C20.7212 75.1513 22.2972 75.1862 23.8294 75.0163C24.0365 74.9933 24.2643 74.9681 24.5128 74.9405C24.7612 74.913 24.9867 74.867 25.1892 74.8026ZM37.2026 57.2468C37.6766 56.9846 38.0378 56.8397 38.2863 56.8122C38.6176 56.7755 38.9604 56.8423 39.3147 57.0126C39.6 56.939 39.906 56.8632 40.2327 56.785C40.5962 56.6609 40.9022 56.585 41.1507 56.5575C42.5173 56.4059 43.7919 56.5581 44.9743 57.0139C46.1521 57.4283 47.1873 58.0681 48.0797 58.9333C49.0136 59.794 49.7795 60.841 50.3774 62.0743C50.9753 63.3075 51.3546 64.6489 51.5153 66.0984C51.6576 67.3822 51.5469 68.6521 51.1831 69.9082C50.8561 71.1182 50.3083 72.227 49.5397 73.2345C48.8124 74.2375 47.9196 75.0701 46.8611 75.7324C45.8027 76.3948 44.6523 76.7948 43.4099 76.9326C41.8776 77.1025 40.442 77.0101 39.1031 76.6555C37.7642 76.3009 36.591 75.7393 35.5835 74.9707C34.576 74.202 33.7365 73.247 33.0649 72.1058C32.4348 70.9599 32.0417 69.6829 31.8856 68.2749C31.7616 67.1568 31.7596 66.0041 31.8795 64.817C31.9948 63.5885 32.2665 62.4474 32.6947 61.3938C33.1228 60.3402 33.6936 59.4385 34.407 58.6886C35.1618 57.9342 36.0936 57.4536 37.2026 57.2468ZM38.3062 60.3943C37.4503 60.615 36.8244 61.0198 36.4286 61.6086C36.0282 62.1561 35.7427 62.7956 35.5723 63.5272C35.4433 64.2542 35.4017 65.0134 35.4476 65.8048C35.4888 66.5548 35.5439 67.2404 35.6127 67.8616C35.6954 68.6071 35.9046 69.3594 36.2403 70.1187C36.5714 70.8366 37.0406 71.4763 37.6479 72.0378C38.2919 72.5533 39.0488 72.9515 39.9183 73.2323C40.7879 73.5132 41.8232 73.5871 43.0242 73.4539C43.9353 73.3529 44.7244 73.0977 45.3917 72.6883C46.0958 72.233 46.6435 71.6901 47.0348 71.0599C47.4628 70.3836 47.7598 69.6589 47.9256 68.8859C48.0914 68.113 48.1284 67.3123 48.0366 66.4841C47.7978 64.3306 47.085 62.628 45.8982 61.3761C44.7067 60.0829 43.2344 59.4706 41.4813 59.5392L40.301 59.6701C39.9697 59.7068 39.6269 59.8287 39.2726 60.0356C38.9182 60.2426 38.5961 60.3622 38.3062 60.3943ZM61.5669 55.8029C62.1836 55.3153 62.9176 54.9405 63.7689 54.6784C64.6616 54.4117 65.5842 54.2256 66.5367 54.12C67.8711 54.0559 69.0352 54.1574 70.029 54.4245C71.0229 54.6916 71.8717 55.1634 72.5755 55.8399C73.2748 56.4751 73.8336 57.3564 74.2521 58.4838C74.666 59.5698 74.9647 60.941 75.1484 62.5976C75.3367 64.2955 75.4307 65.8991 75.4303 67.4083C75.4254 68.8761 75.3399 70.1852 75.174 71.3355C75.0035 72.4443 74.7457 73.3323 74.4004 73.9994C74.1012 74.7034 73.7031 75.0829 73.2061 75.138C72.8334 75.1793 72.4883 75.0918 72.1709 74.8755C71.8534 74.6591 71.6649 74.2818 71.6052 73.7434C71.5455 73.2051 71.5318 72.5149 71.5642 71.6728C71.6335 70.7848 71.6981 69.8553 71.7581 68.8845C71.855 67.8676 71.9104 66.8553 71.9245 65.8476C71.9753 64.794 71.9525 63.8323 71.8561 62.9626C71.7229 61.7616 71.5138 60.8206 71.2287 60.1396C70.9804 59.4125 70.6469 58.8626 70.2283 58.4898C69.8464 58.071 69.3772 57.8086 68.8204 57.7026C68.2591 57.5552 67.6218 57.4792 66.9086 57.4744C66.039 57.5708 65.1854 57.8122 64.3478 58.1985C63.5103 58.5849 62.781 58.8125 62.1598 58.8813C61.787 58.9227 61.4604 58.8122 61.1798 58.5498C60.9406 58.2829 60.8003 57.9631 60.759 57.5903C60.7268 57.3005 60.7568 57.0037 60.8489 56.7C60.9778 56.3503 61.2171 56.0513 61.5669 55.8029ZM58.7648 55.4848C59.0678 58.218 59.3962 60.9904 59.7499 63.8019C60.0989 66.572 60.5654 69.0775 61.1492 71.3185L61.1975 71.7533C61.2755 72.4573 61.1488 73.0163 60.8175 73.4304C60.5229 73.7984 60.1685 74.0054 59.7544 74.0513C59.3817 74.0926 59.0113 73.966 58.6433 73.6715C58.2752 73.3769 58.0108 72.8822 57.8499 72.1873C57.4224 70.2225 57.0295 68.1909 56.6711 66.0926C56.3126 63.9944 56.0094 61.8271 55.7615 59.5908C55.711 59.1352 55.6329 58.6199 55.5272 58.0447C55.4215 57.4695 55.3618 56.9311 55.3481 56.4296C55.3712 55.882 55.4886 55.4288 55.7004 55.07C55.949 54.6651 56.3631 54.4305 56.9429 54.3663C57.357 54.3203 57.7458 54.424 58.1093 54.6771C58.5095 54.8843 58.728 55.1535 58.7648 55.4848ZM97.1914 70.8435C93.0962 70.9622 89.9653 69.9469 87.7985 67.7976C85.6318 65.6483 84.3051 62.3788 83.8184 57.989L83.5291 55.38C81.914 55.5591 80.552 55.5634 79.4431 55.3929C78.3296 55.181 77.7155 54.5573 77.6007 53.522C77.6422 53.1401 77.7941 52.8089 78.0565 52.5282C78.3142 52.2062 78.7123 52.0154 79.2506 51.9557C79.7476 51.9006 80.355 51.8961 81.0727 51.9423C81.7905 51.9884 82.5636 51.9656 83.3918 51.8738C83.2449 50.5486 83.1371 49.1981 83.0684 47.8222C82.9951 46.405 83 45.1259 83.083 43.9848C83.2075 42.8391 83.4171 41.8935 83.7118 41.1482C84.0018 40.3614 84.4575 39.9336 85.0786 39.8647C85.5342 39.8142 85.9713 39.9754 86.3899 40.3482C86.804 40.6796 87.0477 41.1766 87.1212 41.8392C87.236 42.8745 87.2656 44.2756 87.2099 46.0425C87.1543 47.8094 87.17 49.6522 87.257 51.571C87.5929 51.5757 87.9288 51.5803 88.2647 51.585C88.6374 51.5437 89.0101 51.5024 89.3828 51.461C90.0454 51.3876 90.7057 51.2934 91.3638 51.1785C92.0632 51.059 92.7603 50.9188 93.4552 50.758C94.0349 50.6937 94.5295 50.8065 94.939 51.0965C95.3484 51.3865 95.5761 51.7385 95.6221 52.1527C95.6863 52.7324 95.5689 53.1856 95.2697 53.5123C94.966 53.7975 94.5518 54.032 94.0272 54.216C93.5395 54.3539 92.9436 54.4619 92.2395 54.54C91.5769 54.6134 90.9143 54.6869 90.2517 54.7604L87.3942 55.0772C87.4033 55.5373 87.4308 55.9745 87.4768 56.3886C87.5227 56.8027 87.5686 57.2169 87.6145 57.631C87.7798 59.1218 88.0533 60.454 88.4349 61.6274C88.8534 62.7548 89.4444 63.7373 90.2081 64.575C90.9717 65.4126 91.924 66.0616 93.065 66.522C94.2061 66.9824 95.5772 67.2495 97.1784 67.3235C97.6432 67.3559 97.9951 67.5055 98.2343 67.7724C98.4735 68.0393 98.6138 68.3592 98.6551 68.7319C98.7102 69.2288 98.6158 69.7004 98.3718 70.1467C98.1647 70.547 97.7712 70.7793 97.1914 70.8435ZM103.542 68.0014C103.593 66.5704 103.589 65.2084 103.529 63.9154C103.506 62.5764 103.424 61.265 103.281 59.9812C103.001 57.455 102.464 54.8736 101.668 52.2369C101.613 52.1172 101.574 51.9539 101.551 51.7468C101.487 51.167 101.599 50.6724 101.889 50.2629C102.221 49.8489 102.635 49.6143 103.132 49.5592C103.67 49.4995 104.084 49.6423 104.374 49.9874C104.705 50.328 104.965 50.7813 105.154 51.3473C105.338 51.8719 105.487 52.4632 105.602 53.1212C105.754 53.7332 105.924 54.3222 106.112 54.8882C106.591 54.2902 107.217 53.6967 107.99 53.1079C108.763 52.5192 109.585 51.9879 110.455 51.5142C111.366 51.0358 112.286 50.6403 113.216 50.3276C114.141 49.9736 115.017 49.7506 115.845 49.6588C116.301 49.6082 116.715 49.751 117.088 50.087C117.46 50.4229 117.672 50.8187 117.722 51.2742C117.768 51.6884 117.69 52.1163 117.487 52.558C117.28 52.9582 116.907 53.1882 116.369 53.2479C115.375 53.3581 114.361 53.6593 113.325 54.1514C112.285 54.6021 111.319 55.1494 110.426 55.7934C109.575 56.4328 108.834 57.1228 108.203 57.8635C107.614 58.5995 107.23 59.2919 107.05 59.9407C107.059 60.7781 107.107 61.7789 107.194 62.9431C107.318 64.0612 107.355 65.1471 107.304 66.2008C107.29 67.2085 107.156 68.0827 106.903 68.8235C106.65 69.5642 106.192 69.9714 105.529 70.0448C105.115 70.0907 104.685 69.9917 104.239 69.7477C103.834 69.4992 103.597 69.0643 103.528 68.4431C103.51 68.2775 103.514 68.1302 103.542 68.0014ZM130.008 50.3522L128.393 50.5313C127.73 50.982 127.247 51.5387 126.943 52.2012C126.639 52.8637 126.423 53.5585 126.294 54.2855C126.202 54.9664 126.169 55.6198 126.197 56.2456C126.224 56.8714 126.259 57.3706 126.3 57.7434C126.392 58.5716 126.583 59.347 126.872 60.0694C127.203 60.7873 127.608 61.4132 128.087 61.9471C128.602 62.4349 129.168 62.8124 129.784 63.0794C130.401 63.3464 131.082 63.4386 131.827 63.3559C133.152 63.209 134.135 62.8066 134.775 62.1487C135.456 61.4863 135.914 60.7019 136.149 59.7955C136.425 58.8845 136.549 57.9274 136.522 56.9244C136.49 55.8798 136.426 54.9228 136.329 54.0531C136.187 53.5239 135.941 53.0062 135.591 52.5C135.237 51.9523 134.809 51.4967 134.308 51.1331C133.848 50.7649 133.335 50.4864 132.769 50.2976C132.24 50.0628 131.706 49.9753 131.168 50.035C130.754 50.0809 130.367 50.1866 130.008 50.3522ZM139.655 60.2242C139.41 62.1797 138.557 63.7417 137.093 64.9101C135.63 66.0785 133.945 66.7683 132.04 66.9795C130.674 67.131 129.42 66.9766 128.279 66.5162C127.175 66.0098 126.218 65.3194 125.408 64.445C124.594 63.5291 123.934 62.4914 123.428 61.3317C122.959 60.1261 122.656 58.902 122.518 57.6597C122.408 56.6658 122.412 55.5752 122.532 54.3881C122.648 53.1596 122.919 52.0185 123.348 50.9649C123.776 49.9113 124.388 49.005 125.184 48.246C125.976 47.4455 126.993 46.9764 128.235 46.8387C128.898 46.7652 129.36 46.7768 129.622 46.8735C129.825 46.8091 130.009 46.7678 130.175 46.7494C130.34 46.731 130.527 46.7104 130.734 46.6874C132.68 46.4716 134.258 46.7158 135.468 47.4201C136.678 48.1244 137.688 49.1024 138.498 50.3541C139.344 51.5599 140.061 52.9266 140.65 54.4544C141.239 55.9822 141.903 57.4386 142.644 58.8238C142.864 59.3024 143.175 59.8339 143.575 60.4184C143.971 60.9614 144.366 61.5044 144.762 62.0475C145.157 62.5905 145.484 63.0784 145.742 63.5109C146.041 63.9389 146.204 64.2772 146.231 64.5256C146.282 64.9812 146.155 65.3516 145.852 65.6368C145.548 65.922 145.189 66.0875 144.775 66.1335C144.361 66.1794 143.907 66.0619 143.415 65.7812C142.96 65.4544 142.493 65.024 142.014 64.4902C141.577 63.9517 141.15 63.3074 140.731 62.5573C140.312 61.8072 139.954 61.0295 139.655 60.2242ZM166.145 59.8023C166.766 59.7335 167.237 59.8279 167.559 60.0856C167.877 60.302 168.061 60.6379 168.111 61.0935C168.176 61.6732 168.079 62.1241 167.821 62.4462C167.559 62.7268 167.225 62.9315 166.82 63.0602C166.415 63.189 165.964 63.2809 165.467 63.336C164.97 63.3911 164.536 63.4393 164.163 63.4806C162.424 63.6735 160.684 63.6777 158.945 63.4932C157.201 63.2674 155.623 62.8345 154.211 62.1946C152.798 61.5547 151.611 60.6802 150.65 59.571C149.688 58.4619 149.116 57.0791 148.932 55.4226C148.716 53.4762 148.99 51.7898 149.755 50.3636C150.556 48.8914 151.614 47.6631 152.93 46.6787C154.283 45.6483 155.809 44.8503 157.507 44.2847C159.246 43.7146 160.965 43.3354 162.663 43.1471C163.74 43.0277 164.584 43.0808 165.196 43.3064C165.803 43.4906 166.148 43.9554 166.231 44.7008C166.281 45.1564 166.199 45.5429 165.982 45.8603C165.807 46.1732 165.513 46.3526 165.099 46.3985C164.809 46.4306 164.54 46.4605 164.291 46.488C164.038 46.4742 163.787 46.481 163.539 46.5085C162.089 46.6693 160.697 46.9703 159.363 47.4118C158.07 47.8486 156.919 48.4373 155.911 49.1779C154.945 49.9139 154.186 50.8155 153.633 51.8829C153.118 52.9043 152.936 54.0983 153.087 55.4649C153.206 56.5417 153.639 57.416 154.384 58.088C155.129 58.7599 156.045 59.2663 157.131 59.607C158.217 59.9478 159.392 60.1528 160.657 60.2221C161.923 60.2914 163.135 60.2618 164.295 60.1332C164.626 60.0965 164.937 60.062 165.227 60.0299C165.512 59.9563 165.818 59.8805 166.145 59.8023ZM188.755 60.691C184.66 60.8097 181.529 59.7943 179.362 57.645C177.196 55.4957 175.869 52.2262 175.382 47.8364L175.093 45.2274C173.478 45.4065 172.116 45.4108 171.007 45.2403C169.893 45.0284 169.279 44.4048 169.165 43.3694C169.206 42.9875 169.358 42.6563 169.62 42.3757C169.878 42.0536 170.276 41.8628 170.814 41.8031C171.311 41.748 171.919 41.7435 172.637 41.7897C173.354 41.8359 174.127 41.813 174.956 41.7212C174.809 40.396 174.701 39.0455 174.632 37.6697C174.559 36.2524 174.564 34.9733 174.647 33.8322C174.771 32.6865 174.981 31.7409 175.276 30.9956C175.566 30.2088 176.021 29.781 176.643 29.7121C177.098 29.6616 177.535 29.8228 177.954 30.1956C178.368 30.527 178.612 31.024 178.685 31.6866C178.8 32.7219 178.829 34.123 178.774 35.8899C178.718 37.6568 178.734 39.4996 178.821 41.4184C179.157 41.4231 179.493 41.4277 179.829 41.4324C180.201 41.3911 180.574 41.3498 180.947 41.3084C181.609 41.235 182.27 41.1408 182.928 41.0259C183.627 40.9064 184.324 40.7663 185.019 40.6054C185.599 40.5411 186.093 40.6539 186.503 40.9439C186.912 41.2339 187.14 41.5859 187.186 42.0001C187.25 42.5798 187.133 43.033 186.834 43.3597C186.53 43.6449 186.116 43.8795 185.591 44.0634C185.103 44.2013 184.507 44.3093 183.803 44.3874C183.141 44.4608 182.478 44.5343 181.816 44.6078L178.958 44.9246C178.967 45.3847 178.995 45.8219 179.041 46.236C179.087 46.6501 179.132 47.0643 179.178 47.4784C179.344 48.9693 179.617 50.3014 179.999 51.4748C180.417 52.6022 181.008 53.5848 181.772 54.4224C182.536 55.26 183.488 55.909 184.629 56.3694C185.77 56.8298 187.141 57.097 188.742 57.1709C189.207 57.2033 189.559 57.3529 189.798 57.6198C190.037 57.8867 190.178 58.2066 190.219 58.5793C190.274 59.0762 190.18 59.5479 189.936 59.9941C189.729 60.3944 189.335 60.6267 188.755 60.691ZM198.464 39.3661C198.938 39.1039 199.3 38.9591 199.548 38.9315C199.879 38.8948 200.222 38.9616 200.576 39.1319C200.862 39.0583 201.168 38.9825 201.494 38.9043C201.858 38.7802 202.164 38.7043 202.412 38.6768C203.779 38.5253 205.054 38.6774 206.236 39.1332C207.414 39.5476 208.449 40.1874 209.341 41.0526C210.275 41.9133 211.041 42.9603 211.639 44.1936C212.237 45.4269 212.616 46.7682 212.777 48.2177C212.919 49.5015 212.809 50.7714 212.445 52.0275C212.118 53.2376 211.57 54.3464 210.801 55.3539C210.074 56.3568 209.181 57.1894 208.123 57.8518C207.064 58.5141 205.914 58.9142 204.672 59.0519C203.139 59.2218 201.704 59.1295 200.365 58.7749C199.026 58.4202 197.853 57.8586 196.845 57.09C195.838 56.3213 194.998 55.3664 194.327 54.2251C193.697 53.0792 193.303 51.8023 193.147 50.3942C193.023 49.2761 193.021 48.1234 193.141 46.9363C193.256 45.7078 193.528 44.5667 193.956 43.5131C194.385 42.4595 194.955 41.5578 195.669 40.808C196.423 40.0535 197.355 39.5729 198.464 39.3661ZM199.568 42.5136C198.712 42.7343 198.086 43.1391 197.69 43.728C197.29 44.2754 197.004 44.9149 196.834 45.6465C196.705 46.3735 196.663 47.1327 196.709 47.9241C196.751 48.6741 196.806 49.3598 196.874 49.9809C196.957 50.7264 197.166 51.4787 197.502 52.238C197.833 52.9559 198.302 53.5956 198.91 54.1571C199.554 54.6726 200.31 55.0708 201.18 55.3517C202.05 55.6325 203.085 55.7064 204.286 55.5732C205.197 55.4722 205.986 55.217 206.653 54.8077C207.358 54.3523 207.905 53.8095 208.296 53.1792C208.725 52.5029 209.022 51.7782 209.187 51.0053C209.353 50.2323 209.39 49.4316 209.298 48.6034C209.06 46.4499 208.347 44.7473 207.16 43.4954C205.968 42.2022 204.496 41.5899 202.743 41.6585L201.563 41.7894C201.231 41.8261 200.889 41.948 200.534 42.155C200.18 42.3619 199.858 42.4815 199.568 42.5136ZM219.208 55.1763C219.259 53.7453 219.255 52.3833 219.195 51.0904C219.172 49.7514 219.09 48.44 218.948 47.1562C218.667 44.63 218.13 42.0485 217.334 39.4118C217.279 39.2922 217.24 39.1288 217.217 38.9217C217.153 38.342 217.266 37.8473 217.556 37.4379C217.887 37.0238 218.301 36.7893 218.798 36.7342C219.337 36.6745 219.751 36.8172 220.04 37.1624C220.372 37.503 220.631 37.9562 220.82 38.5222C221.004 39.0468 221.153 39.6381 221.268 40.2962C221.42 40.9082 221.59 41.4972 221.779 42.0632C222.257 41.4651 222.883 40.8717 223.656 40.2829C224.429 39.6941 225.251 39.1628 226.121 38.6891C227.032 38.2108 227.952 37.8153 228.882 37.5026C229.807 37.1485 230.683 36.9255 231.512 36.8337C231.967 36.7832 232.381 36.9259 232.754 37.2619C233.126 37.5979 233.338 37.9937 233.389 38.4492C233.434 38.8633 233.356 39.2912 233.154 39.7329C232.946 40.1332 232.574 40.3632 232.035 40.4228C231.041 40.5331 230.027 40.8342 228.991 41.3263C227.951 41.777 226.985 42.3243 226.092 42.9683C225.241 43.6077 224.5 44.2977 223.869 45.0384C223.28 45.7745 222.896 46.4669 222.716 47.1156C222.725 47.9531 222.773 48.9539 222.86 50.118C222.984 51.2362 223.021 52.3221 222.97 53.3758C222.956 54.3835 222.822 55.2577 222.569 55.9984C222.316 56.7392 221.858 57.1463 221.195 57.2198C220.781 57.2657 220.351 57.1667 219.905 56.9227C219.5 56.6741 219.263 56.2392 219.194 55.6181C219.176 55.4524 219.18 55.3052 219.208 55.1763Z" fill="black"/>
<path fill-rule="evenodd" clip-rule="evenodd" d="M544.756 591.378C591.55 591.378 629.483 581.146 629.483 568.525C629.483 555.903 591.55 545.672 544.756 545.672C497.963 545.672 460.029 555.903 460.029 568.525C460.029 581.146 497.963 591.378 544.756 591.378Z" fill="#EAEFF4"/>
<path fill-rule="evenodd" clip-rule="evenodd" d="M541.503 545.149C541.273 544.46 542.453 538.367 541.551 537.592C538.671 535.119 533.76 540.52 533.76 540.52C533.76 540.52 527.154 549.675 523.992 551.59C508.565 560.934 506.875 561.552 508.358 565.99C509.841 570.428 542.986 549.586 541.503 545.149Z" fill="#FFDFAE"/>
<path fill-rule="evenodd" clip-rule="evenodd" d="M571.504 556.935C571.274 556.246 572.454 550.153 571.552 549.378C568.672 546.905 563.376 551.243 563.376 551.243C563.376 551.243 557.155 561.461 553.994 563.376C538.567 572.72 536.877 573.338 538.36 577.776C539.843 582.214 572.987 561.372 571.504 556.935Z" fill="#FFDFAE"/>
<path fill-rule="evenodd" clip-rule="evenodd" d="M505.756 565.801C507.989 570.188 518.407 568.472 523.993 566.144C529.734 563.751 531.283 555.657 536.412 555.668C539.203 555.673 538.706 567.832 538.706 567.832L540.927 568.125C543.498 564.49 542.027 545.05 542.027 545.05L520.164 561.793C520.164 561.793 511.722 558.593 508.57 560.934C506.469 562.491 504.969 564.25 505.756 565.801Z" fill="#37474F"/>
<path fill-rule="evenodd" clip-rule="evenodd" d="M535.757 577.587C537.99 581.974 548.408 580.258 553.994 577.93C559.735 575.537 561.284 567.443 566.413 567.454C569.204 567.459 568.707 579.618 568.707 579.618L570.928 579.911C573.499 576.276 572.028 556.836 572.028 556.836L550.165 573.579C550.165 573.579 541.723 570.379 538.571 572.72C536.47 574.277 534.97 576.036 535.757 577.587Z" fill="#37474F"/>
<path fill-rule="evenodd" clip-rule="evenodd" d="M455.092 255.362L512.725 252.982C512.725 252.982 550.691 233.605 557.159 219.064C559.685 213.386 554.746 206.154 549.65 203.764C535.34 197.059 501.782 233.264 501.782 233.264L454.525 244.417L455.092 255.362Z" fill="#F4CA92"/>
<path fill-rule="evenodd" clip-rule="evenodd" d="M532.401 541.696H541.891C552.911 494.661 550.118 454.463 550.118 454.463C566.818 409.774 587.669 337.815 572.039 318.339H537.449C537.449 318.339 531.605 356.224 531.485 380.905C531.437 390.922 530.185 415.69 528.612 443.305C525.802 492.498 532.401 541.696 532.401 541.696Z" fill="#3F3E65"/>
<path fill-rule="evenodd" clip-rule="evenodd" d="M562.356 551.798H571.974C584.584 512.854 576.83 443.471 576.83 443.471C593.53 398.781 609.158 337.815 593.53 318.339L544.397 317.59L562.356 551.798Z" fill="#56557E"/>
<path fill-rule="evenodd" clip-rule="evenodd" d="M571.629 178.528L551.029 180.748L554.529 137.368H571.629V178.528Z" fill="#FFDFAE"/>
<path fill-rule="evenodd" clip-rule="evenodd" d="M596.717 236.721C596.717 268.821 603.025 281.702 597.096 318.339C597.096 318.339 540.848 326.568 535.677 318.339C525.254 301.753 553.786 273.449 534.089 235.777C518.734 206.41 552.116 168.751 573.411 159.059C587.138 152.812 596.717 185.368 596.717 236.721Z" fill="#2FC0C4"/>
<path fill-rule="evenodd" clip-rule="evenodd" d="M471.228 268.264L534.208 263.453C534.208 263.453 574.929 226.81 576.439 208.276C577.029 201.037 568.786 194.973 562.243 194.311C543.871 192.454 520.872 245.357 520.872 245.357L469.62 255.941L471.228 268.264Z" fill="#FFDFAE"/>
<path fill-rule="evenodd" clip-rule="evenodd" d="M559.58 144.649C559.58 144.649 553.071 148.371 549.79 153.638C549.79 153.638 552.639 163.085 556.413 163.914C560.476 164.813 565.551 156.971 567.272 153.39C568.662 150.492 559.58 144.649 559.58 144.649Z" fill="#F4CA92"/>
<path fill-rule="evenodd" clip-rule="evenodd" d="M529.09 127.416C529.09 147.516 540.059 162.096 546.37 162.096C558.485 162.096 566.536 143.937 566.536 123.84C566.536 103.743 562.05 89.7838 549.936 89.7838C537.822 89.7838 529.09 98.0478 529.09 127.416Z" fill="#FFDFAE"/>
<path fill-rule="evenodd" clip-rule="evenodd" d="M609.162 208.529C660.71 199.591 632.753 288.971 603.678 288.971C582.836 288.971 564.169 248.185 579.549 203.422C586.13 184.27 576.207 165.056 565.291 152.348C557.613 143.41 559.807 116.597 559.807 116.597C542.981 121.297 527.827 120.097 527.721 114.197C527.294 90.2158 550.912 81.8068 565.313 96.5088C578.458 109.929 572.967 111.485 581.742 134.467C585.21 143.552 600.881 141.822 606.968 162.558C608.088 166.38 606.018 209.075 609.162 208.529Z" fill="#37474F"/>
<path fill-rule="evenodd" clip-rule="evenodd" d="M457.122 250.437C457.122 253.381 455.032 256.249 451.734 257.902C447.346 260.102 441.094 257.902 438.681 257.902C433.681 257.902 429.781 249.971 429.781 244.276C429.781 238.581 438.243 246.351 444.618 241.229C448.819 237.857 457.122 244.742 457.122 250.437Z" fill="#F4CA92"/>
<path fill-rule="evenodd" clip-rule="evenodd" d="M461.67 215.332C461.222 218.223 458.734 220.549 455.245 221.399C450.601 222.529 444.797 218.905 442.425 218.339C437.517 217.167 434.896 208.467 435.762 202.873C436.628 197.279 443.757 206.895 450.795 203.359C455.428 201.031 462.536 209.738 461.67 215.332Z" fill="#FFDFAE"/>
<path fill-rule="evenodd" clip-rule="evenodd" d="M432.322 268.581L517.169 263.822V219.047L432.322 223.806V268.581Z" fill="#8F97B9"/>
<path fill-rule="evenodd" clip-rule="evenodd" d="M432.322 223.86L517.169 219.031L439.643 192.231L354.796 197.06L432.322 223.86Z" fill="#E5E8F5"/>
<path fill-rule="evenodd" clip-rule="evenodd" d="M354.781 232.684L432.281 268.507L432.314 223.86L354.804 196.86L354.781 232.684Z" fill="#BBC0D6"/>
<path d="M355.281 203.731L432.781 232.231L515.281 227.731" stroke="#81879E"/>
<path d="M355.781 210.231L433.281 240.231L515.781 235.494" stroke="#81879E"/>
<path d="M355.781 218.231L433.281 247.231L515.781 242.652" stroke="#81879E"/>
<path d="M355.781 225.231L433.281 255.231L515.781 250.494" stroke="#81879E"/>
<path d="M355.781 229.231L433.281 263.231L515.781 257.862" stroke="#81879E"/>
<path d="M409.281 215.325C409.248 215.123 409.152 214.693 408.991 214.038C408.846 213.367 408.653 212.611 408.413 211.769C408.194 211.802 407.976 211.819 407.757 211.82C407.538 211.822 407.312 211.823 407.077 211.825C406.765 211.827 406.437 211.829 406.093 211.831C405.749 211.818 405.436 211.789 405.155 211.744C404.873 211.684 404.638 211.599 404.45 211.491C404.262 211.367 404.167 211.196 404.165 210.977C404.164 210.806 404.233 210.664 404.373 210.554C404.529 210.444 404.747 210.387 405.028 210.386C405.654 210.475 406.279 210.518 406.904 210.513C407.092 210.512 407.279 210.511 407.467 210.51C407.654 210.508 407.842 210.491 408.029 210.459C407.837 209.82 407.638 209.196 407.43 208.588C407.223 207.964 407.016 207.411 406.81 206.928C406.619 206.445 406.436 206.056 406.263 205.76C406.089 205.464 405.931 205.317 405.791 205.318C405.525 205.32 405.246 205.564 404.952 206.05C404.658 206.536 404.366 207.148 404.074 207.884C403.782 208.621 403.506 209.427 403.247 210.304C402.987 211.165 402.75 211.979 402.537 212.746C402.339 213.513 402.179 214.171 402.058 214.718C401.937 215.251 401.876 215.563 401.877 215.657C401.847 215.814 401.769 215.931 401.645 216.01C401.536 216.089 401.419 216.129 401.294 216.13C401.107 216.131 400.934 216.07 400.777 215.946C400.62 215.822 400.541 215.651 400.539 215.432C400.962 213.273 401.449 211.347 402 209.656C402.229 208.936 402.482 208.231 402.759 207.542C403.035 206.837 403.336 206.217 403.66 205.684C403.985 205.135 404.326 204.695 404.683 204.364C405.055 204.034 405.437 203.867 405.828 203.864C406.234 203.862 406.619 204.109 406.981 204.606C407.36 205.104 407.716 205.742 408.049 206.521C408.382 207.285 408.685 208.126 408.957 209.046C409.229 209.951 409.469 210.816 409.678 211.643C409.886 212.454 410.055 213.172 410.185 213.796C410.314 214.404 410.402 214.787 410.45 214.942L410.451 215.083C410.453 215.333 410.376 215.537 410.221 215.694C410.081 215.836 409.926 215.907 409.754 215.908C409.629 215.909 409.519 215.871 409.425 215.793C409.346 215.7 409.298 215.544 409.281 215.325ZM415.808 210.078C416.401 209.964 416.916 209.844 417.352 209.716C417.805 209.588 418.179 209.437 418.474 209.263C418.77 209.073 418.987 208.853 419.126 208.602C419.28 208.335 419.356 208.007 419.354 207.616C419.351 207.288 419.224 206.992 418.973 206.728C418.721 206.464 418.391 206.24 417.984 206.055C417.576 205.87 417.106 205.733 416.575 205.643C416.043 205.553 415.488 205.509 414.91 205.513C414.769 205.514 414.628 205.515 414.488 205.516C414.347 205.517 414.199 205.526 414.043 205.543C414.14 206.058 414.206 206.643 414.242 207.299C414.293 207.955 414.321 208.635 414.326 209.338C414.33 209.932 414.319 210.533 414.292 211.143C414.28 211.752 414.261 212.33 414.233 212.878C414.206 213.409 414.162 213.902 414.103 214.355C414.059 214.793 414.014 215.153 413.969 215.434C413.924 215.653 413.831 215.818 413.691 215.928C413.567 216.038 413.419 216.094 413.247 216.095C413.075 216.096 412.911 216.043 412.754 215.935C412.613 215.826 412.541 215.663 412.54 215.444C412.539 215.366 412.547 215.303 412.562 215.256C412.606 214.865 412.65 214.435 412.694 213.966C412.753 213.481 412.796 212.973 412.824 212.442C412.852 211.91 412.871 211.371 412.883 210.824C412.911 210.262 412.922 209.707 412.919 209.16C412.913 208.269 412.876 207.449 412.808 206.7C412.74 205.934 412.619 205.349 412.445 204.944C412.35 204.742 412.301 204.555 412.3 204.383C412.299 204.164 412.352 203.992 412.461 203.866C412.569 203.725 412.709 203.653 412.881 203.652C413.178 203.65 413.437 203.828 413.658 204.186C413.83 204.169 413.994 204.16 414.15 204.159C414.307 204.158 414.463 204.157 414.619 204.156C415.4 204.151 416.159 204.216 416.894 204.351C417.645 204.487 418.302 204.693 418.867 204.971C419.447 205.248 419.91 205.604 420.257 206.039C420.619 206.475 420.803 206.997 420.807 207.606C420.814 208.684 420.398 209.531 419.558 210.146C418.734 210.761 417.565 211.175 416.051 211.389C416.02 211.389 415.997 211.397 415.981 211.413C415.981 211.413 415.965 211.413 415.934 211.413C415.731 211.414 415.582 211.345 415.487 211.205C415.393 211.049 415.345 210.878 415.343 210.69C415.342 210.565 415.381 210.44 415.458 210.314C415.535 210.189 415.652 210.11 415.808 210.078ZM426.12 210.007C426.713 209.894 427.228 209.773 427.665 209.645C428.117 209.517 428.491 209.366 428.786 209.192C429.082 209.003 429.299 208.783 429.438 208.532C429.593 208.265 429.669 207.936 429.666 207.546C429.664 207.218 429.537 206.922 429.285 206.658C429.033 206.394 428.703 206.169 428.296 205.985C427.888 205.8 427.419 205.663 426.887 205.572C426.355 205.482 425.8 205.439 425.222 205.443C425.081 205.444 424.941 205.445 424.8 205.446C424.659 205.447 424.511 205.456 424.355 205.472C424.452 205.987 424.519 206.573 424.554 207.229C424.606 207.885 424.634 208.564 424.638 209.268C424.643 209.861 424.631 210.463 424.604 211.072C424.592 211.682 424.573 212.26 424.545 212.807C424.518 213.339 424.474 213.831 424.415 214.285C424.371 214.723 424.327 215.082 424.282 215.364C424.236 215.583 424.144 215.748 424.004 215.858C423.879 215.968 423.731 216.024 423.559 216.025C423.388 216.026 423.223 215.973 423.066 215.864C422.925 215.756 422.853 215.592 422.852 215.374C422.851 215.295 422.859 215.233 422.874 215.186C422.918 214.795 422.962 214.365 423.006 213.896C423.065 213.411 423.109 212.903 423.136 212.372C423.164 211.84 423.184 211.301 423.195 210.754C423.223 210.191 423.235 209.636 423.231 209.09C423.225 208.199 423.188 207.379 423.12 206.629C423.053 205.864 422.932 205.279 422.757 204.874C422.662 204.671 422.614 204.484 422.612 204.312C422.611 204.094 422.664 203.921 422.773 203.796C422.881 203.654 423.022 203.583 423.193 203.582C423.49 203.58 423.749 203.758 423.971 204.116C424.142 204.099 424.306 204.09 424.463 204.089C424.619 204.088 424.775 204.087 424.931 204.086C425.713 204.08 426.471 204.146 427.206 204.281C427.957 204.417 428.615 204.623 429.179 204.901C429.759 205.178 430.223 205.534 430.569 205.969C430.932 206.404 431.115 206.926 431.119 207.536C431.126 208.614 430.71 209.46 429.871 210.076C429.047 210.691 427.878 211.105 426.363 211.318C426.332 211.319 426.309 211.326 426.293 211.342C426.293 211.342 426.278 211.342 426.246 211.343C426.043 211.344 425.894 211.275 425.8 211.135C425.705 210.979 425.657 210.807 425.656 210.62C425.655 210.495 425.693 210.37 425.77 210.244C425.847 210.119 425.964 210.04 426.12 210.007ZM440.731 214.83C440.842 214.985 440.898 215.141 440.899 215.297C440.9 215.501 440.823 215.673 440.668 215.815C440.513 215.956 440.333 216.028 440.13 216.029C439.911 216.031 439.637 215.822 439.306 215.402C438.975 214.982 438.627 214.469 438.264 213.862C437.9 213.255 437.552 212.625 437.22 211.971C436.887 211.301 436.625 210.717 436.434 210.218C436.403 210.156 436.363 210.078 436.316 209.985C436.284 209.876 436.267 209.759 436.266 209.634C436.265 209.477 436.311 209.282 436.403 209.047C436.511 208.812 436.751 208.607 437.125 208.432C437.608 208.195 437.997 207.981 438.293 207.792C438.604 207.602 438.837 207.428 438.992 207.271C439.147 207.098 439.248 206.941 439.294 206.8C439.355 206.659 439.386 206.526 439.385 206.401C439.382 205.917 439.121 205.567 438.604 205.352C438.103 205.121 437.469 205.008 436.703 205.013C436.391 205.015 436.055 205.033 435.696 205.067C435.353 205.101 434.978 205.15 434.572 205.215C434.701 205.73 434.791 206.339 434.842 207.042C434.91 207.744 434.946 208.494 434.951 209.291C434.955 209.885 434.944 210.479 434.917 211.072C434.905 211.666 434.885 212.229 434.858 212.76C434.83 213.292 434.787 213.777 434.727 214.214C434.683 214.652 434.639 215.012 434.594 215.294C434.564 215.512 434.471 215.677 434.316 215.788C434.176 215.898 434.028 215.954 433.872 215.955C433.7 215.956 433.535 215.902 433.378 215.794C433.237 215.686 433.166 215.522 433.164 215.303C433.164 215.225 433.171 215.163 433.186 215.116C433.29 214.349 433.378 213.45 433.449 212.418C433.52 211.387 433.552 210.355 433.545 209.324C433.539 208.465 433.503 207.668 433.435 206.934C433.368 206.2 433.262 205.615 433.119 205.178C433.039 204.945 432.999 204.765 432.998 204.64C432.996 204.406 433.05 204.226 433.158 204.1C433.267 203.959 433.407 203.887 433.579 203.886C433.672 203.885 433.766 203.908 433.86 203.955L433.907 203.954C434.391 203.904 434.852 203.862 435.289 203.828C435.742 203.793 436.172 203.775 436.578 203.772C437.14 203.768 437.68 203.803 438.196 203.878C438.728 203.953 439.189 204.09 439.581 204.291C439.973 204.491 440.288 204.754 440.524 205.081C440.761 205.408 440.881 205.813 440.884 206.297C440.888 206.829 440.649 207.377 440.169 207.943C439.688 208.493 438.88 209.061 437.743 209.647C437.886 210.005 438.076 210.434 438.314 210.932C438.568 211.43 438.837 211.929 439.121 212.427C439.422 212.925 439.714 213.391 439.998 213.827C440.282 214.263 440.527 214.597 440.731 214.83ZM444.555 204.913C444.757 204.787 444.944 204.723 445.116 204.722C445.1 204.675 445.092 204.612 445.091 204.534C445.089 204.284 445.244 204.08 445.556 203.922C445.867 203.763 446.281 203.682 446.796 203.679C447.609 203.673 448.29 203.864 448.839 204.251C449.389 204.638 449.83 205.127 450.162 205.718C450.494 206.31 450.733 206.965 450.878 207.682C451.024 208.385 451.099 209.056 451.103 209.697C451.108 210.446 451.027 211.181 450.86 211.901C450.709 212.606 450.471 213.24 450.147 213.805C449.822 214.354 449.419 214.802 448.937 215.149C448.455 215.496 447.894 215.672 447.253 215.676C446.331 215.682 445.564 215.523 444.953 215.199C444.357 214.86 443.877 214.41 443.514 213.85C443.151 213.29 442.896 212.659 442.751 211.957C442.605 211.239 442.53 210.505 442.525 209.755C442.517 208.583 442.69 207.629 443.045 206.892C443.399 206.14 443.902 205.48 444.555 204.913ZM445.869 205.232C445.838 205.264 445.791 205.279 445.729 205.28C445.666 205.28 445.619 205.265 445.588 205.234L445.589 205.328C445.59 205.578 445.483 205.813 445.265 206.033C444.893 206.395 444.576 206.905 444.315 207.563C444.054 208.221 443.926 208.949 443.931 209.745C443.935 210.339 444.002 210.909 444.13 211.455C444.259 212.001 444.45 212.484 444.703 212.904C444.956 213.324 445.278 213.658 445.671 213.906C446.063 214.153 446.525 214.275 447.056 214.271C447.478 214.268 447.852 214.156 448.179 213.935C448.505 213.699 448.776 213.384 448.993 212.992C449.224 212.584 449.393 212.107 449.498 211.559C449.604 210.996 449.654 210.378 449.65 209.706C449.647 209.285 449.605 208.808 449.523 208.278C449.457 207.747 449.321 207.248 449.114 206.78C448.908 206.297 448.616 205.893 448.239 205.567C447.877 205.242 447.4 205.081 446.806 205.085C446.478 205.087 446.251 205.112 446.127 205.16C446.018 205.208 445.932 205.232 445.869 205.232ZM461.284 204.096C461.314 203.924 461.383 203.798 461.492 203.719C461.601 203.64 461.726 203.601 461.866 203.6C462.085 203.598 462.273 203.667 462.43 203.807C462.587 203.946 462.667 204.149 462.669 204.414C462.669 204.446 462.661 204.477 462.646 204.508C462.646 204.54 462.646 204.571 462.647 204.602C462.479 205.259 462.258 206.042 461.983 206.95C461.723 207.858 461.441 208.782 461.135 209.722C460.828 210.661 460.507 211.57 460.169 212.447C459.847 213.309 459.539 214.03 459.246 214.61C459.076 214.924 458.883 215.159 458.665 215.317C458.463 215.475 458.26 215.554 458.057 215.555C457.713 215.558 457.352 215.334 456.974 214.883C456.612 214.433 456.241 213.857 455.861 213.156C455.481 212.44 455.109 211.654 454.743 210.797C454.394 209.924 454.075 209.067 453.788 208.225C453.501 207.383 453.254 206.611 453.046 205.91C452.838 205.192 452.694 204.639 452.613 204.249C452.597 204.202 452.589 204.147 452.588 204.085C452.587 203.882 452.664 203.733 452.819 203.638C452.975 203.527 453.162 203.471 453.381 203.47C453.506 203.469 453.623 203.5 453.733 203.561C453.858 203.623 453.937 203.724 453.97 203.864C454.034 204.161 454.154 204.613 454.33 205.221C454.506 205.814 454.714 206.477 454.953 207.209C455.208 207.926 455.479 208.674 455.765 209.454C456.068 210.217 456.354 210.911 456.623 211.534C456.893 212.157 457.139 212.671 457.36 213.076C457.598 213.48 457.787 213.682 457.927 213.681C458.052 213.68 458.207 213.5 458.392 213.139C458.593 212.778 458.801 212.316 459.016 211.752C459.246 211.172 459.476 210.53 459.706 209.825C459.935 209.105 460.149 208.393 460.347 207.688C460.561 206.968 460.752 206.295 460.919 205.669C461.087 205.027 461.208 204.503 461.284 204.096ZM465.133 204.96C464.883 204.915 464.695 204.83 464.569 204.706C464.443 204.566 464.38 204.426 464.379 204.286C464.378 204.114 464.447 203.957 464.587 203.815C464.726 203.674 464.937 203.602 465.218 203.6C465.546 203.629 465.882 203.65 466.226 203.664C466.57 203.677 466.914 203.682 467.258 203.68C467.851 203.676 468.422 203.656 468.968 203.621C469.53 203.586 470.046 203.536 470.514 203.47C470.78 203.469 470.983 203.537 471.125 203.677C471.282 203.801 471.361 203.949 471.362 204.121C471.365 204.558 471 204.826 470.266 204.925C469.548 205.024 468.4 205.079 466.822 205.089C466.702 205.793 466.613 206.536 466.556 207.318C466.499 208.084 466.473 208.904 466.479 209.779C466.483 210.342 466.494 210.881 466.513 211.396C466.532 211.912 466.559 212.419 466.594 212.919C466.627 213.231 466.684 213.481 466.763 213.668C466.858 213.839 466.984 213.971 467.141 214.064C467.313 214.141 467.525 214.186 467.775 214.2C468.04 214.214 468.369 214.22 468.759 214.217C469.259 214.213 469.751 214.179 470.235 214.113C470.735 214.032 471.21 213.903 471.662 213.728C471.802 213.681 471.935 213.656 472.06 213.655C472.263 213.654 472.404 213.708 472.483 213.817C472.578 213.925 472.625 214.05 472.626 214.191C472.628 214.487 472.489 214.731 472.209 214.92C471.929 215.109 471.594 215.26 471.205 215.372C470.83 215.484 470.432 215.557 470.011 215.591C469.589 215.641 469.238 215.667 468.957 215.669C468.66 215.671 468.324 215.665 467.949 215.652C467.589 215.655 467.23 215.61 466.87 215.519C466.525 215.412 466.211 215.242 465.929 215.01C465.646 214.777 465.448 214.443 465.336 214.006C465.224 213.6 465.142 213.101 465.091 212.507C465.04 211.898 465.012 211.25 465.008 210.563C465.004 210 465.008 209.445 465.02 208.899C465.047 208.336 465.075 207.804 465.103 207.304C465.13 206.804 465.166 206.358 465.211 205.967C465.255 205.561 465.292 205.24 465.321 205.006C465.243 205.006 465.196 204.999 465.181 204.983C465.18 204.968 465.165 204.96 465.133 204.96ZM468.03 210.472C467.78 210.458 467.608 210.381 467.513 210.241C467.434 210.101 467.394 209.945 467.393 209.773C467.392 209.617 467.453 209.476 467.578 209.35C467.717 209.224 467.897 209.16 468.115 209.159C468.381 209.157 468.647 209.163 468.912 209.177C469.194 209.19 469.467 209.196 469.733 209.195C470.592 209.189 471.443 209.136 472.286 209.036C472.537 209.05 472.725 209.119 472.85 209.244C472.992 209.368 473.071 209.5 473.087 209.64C473.089 209.875 472.973 210.055 472.74 210.182C472.506 210.293 472.225 210.381 471.898 210.445C471.57 210.51 471.226 210.552 470.867 210.57C470.508 210.572 470.195 210.574 469.93 210.576C469.602 210.578 469.281 210.573 468.969 210.559C468.656 210.53 468.343 210.501 468.03 210.472ZM475.325 214.641C475.369 214.281 475.413 213.859 475.457 213.374C475.516 212.874 475.567 212.342 475.61 211.78C475.653 211.217 475.68 210.638 475.692 210.045C475.719 209.451 475.731 208.865 475.727 208.286C475.721 207.49 475.677 206.748 475.594 206.061C475.527 205.358 475.414 204.781 475.254 204.329C475.175 204.095 475.134 203.908 475.133 203.767C475.132 203.533 475.177 203.353 475.27 203.227C475.379 203.086 475.511 203.014 475.667 203.013C475.949 203.011 476.2 203.228 476.422 203.664C477.297 203.658 478.181 203.793 479.073 204.068C479.981 204.343 480.796 204.736 481.519 205.247C482.257 205.758 482.855 206.378 483.313 207.11C483.771 207.825 484.003 208.628 484.009 209.519C484.013 210.191 483.869 210.84 483.577 211.467C483.284 212.094 482.905 212.66 482.44 213.163C481.974 213.666 481.438 214.091 480.831 214.439C480.24 214.771 479.64 214.987 479.031 215.084C478.812 215.07 478.655 214.978 478.56 214.806C478.465 214.62 478.417 214.44 478.416 214.268C478.415 214.143 478.446 214.026 478.507 213.916C478.585 213.791 478.693 213.712 478.834 213.679C479.317 213.567 479.785 213.368 480.236 213.084C480.703 212.784 481.107 212.43 481.448 212.021C481.804 211.612 482.082 211.173 482.282 210.703C482.498 210.217 482.604 209.732 482.601 209.247C482.597 208.685 482.413 208.155 482.051 207.657C481.688 207.144 481.224 206.702 480.659 206.331C480.109 205.944 479.49 205.644 478.801 205.429C478.128 205.2 477.463 205.079 476.806 205.068C476.889 205.771 476.949 206.481 476.985 207.2C477.037 207.918 477.065 208.652 477.07 209.402C477.077 210.387 477.052 211.332 476.996 212.239C476.939 213.13 476.836 213.99 476.685 214.819C476.64 215.038 476.547 215.203 476.407 215.313C476.283 215.408 476.143 215.463 475.987 215.48C475.83 215.481 475.674 215.428 475.517 215.319C475.375 215.211 475.304 215.032 475.302 214.782C475.302 214.75 475.302 214.727 475.302 214.711C475.317 214.696 475.325 214.672 475.325 214.641Z" fill="#FF0000"/>
<path fill-rule="evenodd" clip-rule="evenodd" d="M358.072 225.983C354.849 229.783 353.978 235.142 355.527 235.683C355.527 235.683 366.506 241.952 370.362 243.196C374.673 244.585 375.116 242.333 375.116 242.333L370.216 240.123C369.755 236.643 373.501 233.323 370.816 231.123C362.665 224.447 361.126 222.381 358.072 225.983Z" fill="#FFDFAE"/>
<path fill-rule="evenodd" clip-rule="evenodd" d="M401.14 245.404C397.917 249.204 397.046 254.564 398.595 255.104C398.595 255.104 409.574 261.372 413.43 262.616C417.741 264.006 418.184 262.239 418.184 262.239L413.284 259.539C412.823 256.059 416.569 252.739 413.884 250.539C405.729 243.871 404.194 241.802 401.14 245.404Z" fill="#FFDFAE"/>
<path fill-rule="evenodd" clip-rule="evenodd" d="M199.727 609.706C246.52 609.706 284.454 599.474 284.454 586.853C284.454 574.232 246.52 564 199.727 564C152.934 564 115 574.232 115 586.853C115 599.474 152.934 609.706 199.727 609.706Z" fill="#EAEFF4"/>
<path fill-rule="evenodd" clip-rule="evenodd" d="M273.228 308.419C272.689 311.905 269.687 314.707 265.478 315.737C259.877 317.1 252.877 312.727 250.015 312.046C244.095 310.632 240.934 300.139 241.979 293.392C243.023 286.645 251.621 298.243 260.112 293.979C265.701 291.169 274.273 301.671 273.228 308.419Z" fill="#FFDFAE"/>
<path fill-rule="evenodd" clip-rule="evenodd" d="M348.617 258.445C349.778 261.776 348.445 265.66 345.213 268.546C340.909 272.381 332.676 271.809 329.829 272.553C323.939 274.085 316.219 266.307 313.971 259.86C311.723 253.414 324.762 259.613 330.254 251.86C333.868 246.754 346.369 251.997 348.617 258.445Z" fill="#FFDFAE"/>
<path fill-rule="evenodd" clip-rule="evenodd" d="M241.23 551.305L221.564 553.426L184.519 349.656H242.154L241.23 551.305Z" fill="#92AED9"/>
<path fill-rule="evenodd" clip-rule="evenodd" d="M324.55 268.708L239.021 276.489C239.021 276.489 153.175 206.415 176.081 185.463C182.839 179.28 217.702 192.703 217.702 192.703L242.066 256.835C269.441 250.158 324.548 256.757 324.548 256.757L324.55 268.708Z" fill="#56557E"/>
<path fill-rule="evenodd" clip-rule="evenodd" d="M155.725 558.908L137.498 559.165C137.498 559.165 131.863 370.865 147.64 354.306H200.429L155.725 558.908Z" fill="#B0C9F1"/>
<path fill-rule="evenodd" clip-rule="evenodd" d="M177.163 150.995H158.579V188.171L185.439 186.757L177.163 150.995Z" fill="#FFDFAE"/>
<path fill-rule="evenodd" clip-rule="evenodd" d="M140.235 358.95C140.235 358.95 152.353 266.903 139.22 226.51C132.114 204.654 150.826 177.31 157.328 177.31L183.886 176.555C183.886 176.555 216.094 179.491 223.199 200.098C234.671 233.36 245.812 354.29 245.812 354.29C245.81 360.889 140.235 365.549 140.235 358.95Z" fill="#F57C00"/>
<path fill-rule="evenodd" clip-rule="evenodd" d="M195.456 123C196.777 118.195 197.391 113.223 197.278 108.24C197.133 95.4175 165.447 97.7965 152.435 111.124C138.512 125.386 151.32 145.479 151.32 145.479C162.271 148.716 195.456 123 195.456 123Z" fill="#37474F"/>
<path fill-rule="evenodd" clip-rule="evenodd" d="M242.182 306.667C242.182 306.667 190.395 311.358 163.616 296.853C133.97 280.796 121.075 226.169 133.475 186.897C136.535 177.205 156.346 177.309 156.346 177.309C156.346 177.309 172.195 230.099 166.473 252.29L244.347 292.137L242.182 306.667Z" fill="#56557E"/>
<path fill-rule="evenodd" clip-rule="evenodd" d="M185.71 161.891C185.71 161.891 166.822 150.581 158.571 147.708C158.571 147.708 158.583 156.897 158.602 162.723C159.253 168.718 172.683 173.044 178.067 174.282C182.42 175.283 185.71 161.891 185.71 161.891Z" fill="#F4CA92"/>
<path fill-rule="evenodd" clip-rule="evenodd" d="M205.211 132.254C204.711 156.048 189.811 175.263 179.911 171.213C175.169 169.271 164.046 165.092 158.856 154.148C157.845 152.016 150.124 152.648 150.503 145.167C150.685 141.591 157.861 140.616 157.969 135.446C158.469 111.652 167.394 121.93 181.76 107.778C187.24 102.378 196.227 105.111 198.347 108.236C202.247 113.987 205.494 118.871 205.211 132.254Z" fill="#FFDFAE"/>
<path fill-rule="evenodd" clip-rule="evenodd" d="M164.708 581.031C162.896 579.694 162.975 552.231 162.975 552.231H139.037C135.491 555.262 140.58 592.911 140.58 592.911H188.835C190.171 586.322 170.118 585.023 164.708 581.031Z" fill="#D8984D"/>
<path fill-rule="evenodd" clip-rule="evenodd" d="M246.708 577.031C244.896 575.694 244.975 548.231 244.975 548.231H221.037C217.491 551.262 222.58 588.911 222.58 588.911H270.835C272.168 582.322 252.118 581.023 246.708 577.031Z" fill="#D8984D"/>
<path fill-rule="evenodd" clip-rule="evenodd" d="M145.781 121.231C142.781 115.25 151.379 106.265 165.398 112.5C183.336 120.477 205.743 112.651 206.15 115.25C207.596 124.488 196.842 125.768 176.281 126.731C155.721 127.694 140.781 124.731 145.781 121.231Z" fill="#FFB300"/>
<path fill-rule="evenodd" clip-rule="evenodd" d="M146.351 121.377C140.58 120.377 151.549 92.2199 172.11 91.2566C192.671 90.2934 202.325 105.057 201.985 114.519C201.645 123.981 184.651 122.268 164.083 123.751C151.176 124.68 152.333 122.415 146.351 121.377Z" fill="#F57C00"/>
<path fill-rule="evenodd" clip-rule="evenodd" d="M192.005 121.858C186.648 123.113 171.415 123.343 171.415 123.343C171.415 123.343 172.394 104.437 162.305 93.1231C162.271 93.0856 165.081 91.7019 173.765 91.2315C178.88 90.9556 184.756 92.6745 185.355 93.2034C190.841 98.0568 192.186 121.816 192.005 121.858Z" fill="#FFB300"/>
<path fill-rule="evenodd" clip-rule="evenodd" d="M166.479 108.326C167.872 110.336 169.474 112.694 171.397 123.326C171.42 123.446 172.892 113.093 170.156 105.612C168.922 102.238 162.648 92.9919 162.507 93.0325C159.706 93.8246 156.904 97.0106 156.904 97.0106C160.454 100.464 163.661 104.253 166.479 108.326Z" fill="#F7931E"/>
</svg>
