<svg width="321" height="200" viewBox="0 0 321 200" fill="none" xmlns="http://www.w3.org/2000/svg">
<path d="M21.2575 64.2973C20.7557 65.0656 20.1322 65.4911 19.3867 65.5737C18.6413 65.6564 17.8385 65.2214 16.9782 64.2687C16.118 63.3161 15.2647 62.2368 14.4183 61.0311L11.4998 56.8271C11.348 56.5924 11.2583 56.3509 11.2308 56.1024C11.1711 55.564 11.3046 55.0671 11.6314 54.6116C11.9996 54.1516 12.4115 53.8963 12.867 53.8458C13.2812 53.7999 13.7803 54.1428 14.3645 54.8745C14.9441 55.5649 15.5145 56.361 16.0757 57.263C16.6737 58.119 17.244 58.9152 17.7868 59.6515C18.325 60.3464 18.7805 60.6732 19.1532 60.6319C19.4017 60.6043 19.6111 60.4134 19.7814 60.0592C21.2452 57.3815 22.4144 55.2606 23.2891 53.6963C24.2005 52.0861 24.9025 50.8554 25.395 50.0043C25.9244 49.1071 26.2765 48.5021 26.4514 48.1893C26.6632 47.8304 26.8243 47.582 26.9347 47.444C27.0039 46.9333 27.1903 46.5353 27.4941 46.2501C27.8346 45.9189 28.1913 45.7326 28.564 45.6913C28.9367 45.6499 29.3255 45.7536 29.7303 46.0021C30.1352 46.2507 30.4135 46.681 30.5652 47.293C31.1859 49.4879 31.7053 51.9038 32.1234 54.5404C32.5783 57.131 32.9573 59.793 33.2604 62.5262C33.4257 64.0171 33.5541 65.7426 33.6457 67.7028C33.7741 69.617 33.8105 71.4575 33.7549 73.2244C33.6947 74.9499 33.5034 76.4384 33.181 77.6898C32.8586 78.9413 32.3661 79.6038 31.7035 79.6773C31.248 79.7278 30.8155 79.6081 30.406 79.3181C30.038 79.0235 29.8149 78.5242 29.7369 77.8202C29.7001 77.4889 29.6933 77.2381 29.7164 77.0679C29.993 74.6477 30.0948 72.163 30.0217 69.6138C29.9855 67.0187 29.8365 64.5408 29.5748 62.1803C29.3728 60.3581 29.1385 58.6234 28.872 56.9761C28.6055 55.3287 28.3505 53.7849 28.1069 52.3447L24.3921 59.1077C23.7201 60.2303 23.101 61.2632 22.5348 62.2063C22.01 63.1448 21.5842 63.8418 21.2575 64.2973ZM9.92729 51.7193C9.89931 53.3574 9.96788 55.2992 10.133 57.5446C10.2982 59.7901 10.5185 62.1552 10.794 64.64C11.0695 67.1248 11.4048 69.582 11.8 72.0115C12.232 74.3951 12.5513 76.5187 12.7579 78.3823C12.8497 79.2105 12.73 79.8317 12.3986 80.2457C12.1086 80.6552 11.7358 80.8852 11.2803 80.9357C10.9076 80.977 10.5372 80.8504 10.1692 80.5558C9.84255 80.2567 9.59879 79.7597 9.43791 79.0648C8.88628 76.7364 8.39222 74.1711 7.95574 71.3688C7.56067 68.5619 7.2116 65.7918 6.90854 63.0586C6.67895 60.9879 6.47924 58.9978 6.30943 57.0882C6.18103 55.1741 6.12623 53.3565 6.14503 51.6356C6.10379 50.8856 6.27416 50.3427 6.65615 50.0069C7.07954 49.6665 7.51902 49.471 7.97456 49.4205C8.4301 49.37 8.84648 49.5335 9.2237 49.9108C9.59633 50.2468 9.81708 50.7254 9.88596 51.3466L9.92729 51.7193ZM42.6956 61.4172C42.4975 62.6549 42.4466 63.7086 42.5431 64.5782C42.667 65.6964 42.9866 66.688 43.5018 67.5532C44.0583 68.4138 44.7438 69.1133 45.5581 69.6519C46.4138 70.1858 47.3777 70.5611 48.4497 70.7776C49.5218 70.9941 50.6376 71.038 51.7972 70.9095C51.9214 70.8957 52.0456 70.8819 52.1699 70.8681C52.2895 70.8129 52.4115 70.7785 52.5357 70.7647C52.867 70.728 53.1983 70.8799 53.5295 71.2204C53.8975 71.515 54.1068 71.8901 54.1573 72.3456C54.2216 72.9254 54.1042 73.3786 53.805 73.7052C53.5472 74.0273 52.9628 74.2388 52.0517 74.3398C49.8983 74.5786 48.0417 74.47 46.4819 74.0141C44.9222 73.5583 43.6087 72.8655 42.5414 71.9357C41.4695 70.9646 40.6323 69.8417 40.0298 68.567C39.4642 67.2463 39.101 65.8612 38.9403 64.4118C38.8944 63.9976 38.8438 63.5421 38.7887 63.0451C38.7705 62.5022 38.8005 62.0168 38.8788 61.5889C38.9525 61.1195 39.0976 60.7262 39.3139 60.4087C39.567 60.0453 39.9421 59.836 40.4391 59.7809C40.8532 59.735 41.3041 59.8317 41.7918 60.0711C42.3163 60.2645 42.6084 60.6303 42.6681 61.1687L42.6956 61.4172ZM56.9974 57.6934C57.457 59.9481 57.8453 62.1269 58.1623 64.2298C58.5207 66.3281 58.817 68.4333 59.0512 70.5453C59.1844 71.7463 59.3152 72.9266 59.4438 74.0861C59.5678 75.2043 59.5675 76.3362 59.443 77.4819C59.3185 78.6276 58.9847 79.7755 58.4415 80.9257C57.9028 82.1174 57.0306 83.325 55.8248 84.5487C55.2955 85.0685 54.6857 85.6182 53.9954 86.1978C53.3465 86.7728 52.6493 87.2903 51.9037 87.7503C51.1628 88.2517 50.4127 88.6702 49.6534 89.0059C48.8941 89.3417 48.1625 89.5486 47.4584 89.6266C46.9615 89.6817 46.5221 89.4999 46.1403 89.0811C45.7999 88.6577 45.5998 88.1768 45.5402 87.6384C45.4988 87.2657 45.5426 86.9045 45.6715 86.5548C45.8465 86.242 46.1364 86.0212 46.5413 85.8924C47.6273 85.4786 48.718 84.9175 49.8133 84.2091C50.9499 83.4962 51.9509 82.6935 52.8162 81.801C53.7228 80.904 54.4547 79.9424 55.0116 78.9165C55.5732 77.9319 55.861 76.9358 55.8751 75.9281C55.8753 74.7962 55.7974 73.5262 55.6413 72.1182C55.5126 71.3359 55.4024 70.5307 55.3105 69.7024C55.2141 68.8328 55.0786 67.9884 54.9039 67.1693L53.2702 58.1066C53.261 58.0238 53.2357 57.9847 53.1943 57.9893C53.1897 57.9479 53.1828 57.8858 53.1736 57.8029C53.1185 57.306 53.2406 56.8942 53.5397 56.5676C53.8757 56.1949 54.2715 55.9834 54.727 55.9329C55.1826 55.8823 55.6358 55.9998 56.0866 56.2852C56.5329 56.5291 56.8365 56.9985 56.9974 57.6934ZM85.7531 48.2166C86.2544 49.3349 86.9421 50.4324 87.8161 51.5094C88.6901 52.5863 89.6469 53.654 90.6866 54.7125C91.7216 55.7296 92.759 56.7675 93.7986 57.826C94.8383 58.8846 95.7767 59.9753 96.6139 61.0982C97.0049 61.5998 97.2947 62.1336 97.4832 62.6997C97.6671 63.2242 97.7866 63.735 97.8417 64.232C97.9565 65.2673 97.8321 66.2243 97.4684 67.1031C97.1415 67.9359 96.6352 68.6628 95.9494 69.2838C95.2637 69.9048 94.4399 70.4154 93.4782 70.8155C92.5532 71.1695 91.5317 71.4086 90.4135 71.5326C89.2954 71.6565 88.1289 71.723 86.9142 71.7319C85.7363 71.6948 84.6573 71.6049 83.6772 71.462C82.734 71.2731 81.9311 71.0268 81.2686 70.7229C80.6429 70.3731 80.3025 69.9497 80.2474 69.4527C80.1969 68.9972 80.2729 68.5486 80.4755 68.1069C80.7195 67.6606 81.0692 67.4122 81.5248 67.3617C81.6076 67.3526 81.9688 67.3964 82.6083 67.4931C83.2479 67.5899 84.014 67.6936 84.9066 67.8042C85.8361 67.8689 86.8069 67.9289 87.8192 67.9844C88.8729 68.0352 89.8346 68.0124 90.7042 67.916C91.781 67.7966 92.6001 67.4333 93.1616 66.826C93.7599 66.1728 94.0017 65.3285 93.8869 64.2932C93.8226 63.7134 93.5927 63.152 93.1971 62.6089C92.8383 62.0199 92.3277 61.3848 91.6653 60.7037C91.0028 60.0225 90.2277 59.27 89.3398 58.4462C88.4474 57.5809 87.4767 56.5776 86.4279 55.4363C84.62 53.4987 83.3044 51.8419 82.4811 50.4659C81.6578 49.09 81.1726 47.7394 81.0257 46.4141C80.8191 44.5506 81.2151 43.0184 82.2139 41.8177C83.2541 40.6124 85.0786 39.8651 87.6877 39.5758C88.5573 39.4794 89.4776 39.4612 90.4485 39.5212C91.4561 39.5353 92.3902 39.6413 93.2506 39.8394C94.1064 39.996 94.8264 40.2515 95.4107 40.606C95.9904 40.919 96.3078 41.324 96.3629 41.8209C96.4088 42.2351 96.3259 42.6216 96.1142 42.9804C95.9024 43.3393 95.5895 43.5417 95.1754 43.5876C94.9683 43.6105 94.6094 43.5874 94.0987 43.5183C93.588 43.4492 92.9737 43.3915 92.2559 43.3453C91.5749 43.2532 90.8341 43.1886 90.0335 43.1516C89.2743 43.11 88.5634 43.1259 87.9008 43.1994C85.8716 43.4244 84.9557 44.4273 85.1531 46.208C85.222 46.8292 85.422 47.4988 85.7531 48.2166ZM120.797 68.2266C116.702 68.3453 113.571 67.3299 111.404 65.1806C109.237 63.0313 107.91 59.7618 107.424 55.372L107.134 52.763C105.519 52.9421 104.157 52.9464 103.048 52.7759C101.935 52.564 101.321 51.9404 101.206 50.905C101.248 50.5231 101.399 50.1919 101.662 49.9113C101.92 49.5892 102.318 49.3984 102.856 49.3387C103.353 49.2836 103.96 49.2791 104.678 49.3253C105.396 49.3715 106.169 49.3486 106.997 49.2568C106.85 47.9316 106.742 46.5811 106.674 45.2053C106.6 43.788 106.605 42.5089 106.688 41.3678C106.813 40.2221 107.022 39.2765 107.317 38.5312C107.607 37.7444 108.063 37.3166 108.684 37.2477C109.14 37.1972 109.577 37.3584 109.995 37.7312C110.409 38.0626 110.653 38.5596 110.727 39.2222C110.841 40.2575 110.871 41.6586 110.815 43.4255C110.76 45.1924 110.775 47.0352 110.862 48.954C111.198 48.9587 111.534 48.9633 111.87 48.968C112.243 48.9267 112.615 48.8854 112.988 48.844C113.651 48.7706 114.311 48.6764 114.969 48.5615C115.669 48.442 116.366 48.3019 117.06 48.141C117.64 48.0767 118.135 48.1895 118.544 48.4795C118.954 48.7695 119.181 49.1215 119.227 49.5357C119.292 50.1154 119.174 50.5686 118.875 50.8953C118.571 51.1805 118.157 51.4151 117.633 51.599C117.145 51.7369 116.549 51.8449 115.845 51.923C115.182 51.9964 114.52 52.0699 113.857 52.1434L111 52.4602C111.009 52.9203 111.036 53.3575 111.082 53.7716C111.128 54.1857 111.174 54.5999 111.22 55.014C111.385 56.5049 111.659 57.837 112.04 59.0104C112.459 60.1378 113.05 61.1204 113.813 61.958C114.577 62.7956 115.529 63.4446 116.67 63.905C117.811 64.3654 119.183 64.6326 120.784 64.7065C121.248 64.7389 121.6 64.8885 121.84 65.1554C122.079 65.4223 122.219 65.7422 122.26 66.1149C122.316 66.6118 122.221 67.0835 121.977 67.5297C121.77 67.93 121.377 68.1623 120.797 68.2266ZM130.506 46.9017C130.98 46.6395 131.341 46.4947 131.59 46.4671C131.921 46.4304 132.264 46.4972 132.618 46.6675C132.903 46.5939 133.209 46.5181 133.536 46.4399C133.899 46.3158 134.205 46.2399 134.454 46.2124C135.821 46.0609 137.095 46.213 138.277 46.6688C139.455 47.0832 140.49 47.723 141.383 48.5882C142.317 49.4489 143.083 50.4959 143.681 51.7292C144.278 52.9625 144.658 54.3038 144.818 55.7533C144.961 57.0371 144.85 58.307 144.486 59.5631C144.159 60.7732 143.612 61.882 142.843 62.8895C142.116 63.8924 141.223 64.725 140.164 65.3874C139.106 66.0497 137.955 66.4498 136.713 66.5875C135.181 66.7574 133.745 66.6651 132.406 66.3105C131.067 65.9558 129.894 65.3942 128.887 64.6256C127.879 63.8569 127.04 62.902 126.368 61.7607C125.738 60.6148 125.345 59.3379 125.189 57.9298C125.065 56.8117 125.063 55.659 125.183 54.4719C125.298 53.2434 125.57 52.1023 125.998 51.0487C126.426 49.9951 126.997 49.0934 127.71 48.3436C128.465 47.5891 129.397 47.1085 130.506 46.9017ZM131.609 50.0492C130.754 50.2699 130.128 50.6747 129.732 51.2636C129.331 51.811 129.046 52.4505 128.876 53.1821C128.747 53.9091 128.705 54.6683 128.751 55.4597C128.792 56.2097 128.847 56.8954 128.916 57.5165C128.999 58.262 129.208 59.0143 129.543 59.7736C129.875 60.4915 130.344 61.1312 130.951 61.6927C131.595 62.2082 132.352 62.6064 133.222 62.8873C134.091 63.1681 135.126 63.242 136.327 63.1088C137.238 63.0078 138.028 62.7526 138.695 62.3433C139.399 61.8879 139.947 61.3451 140.338 60.7148C140.766 60.0385 141.063 59.3138 141.229 58.5409C141.395 57.7679 141.432 56.9673 141.34 56.139C141.101 53.9855 140.388 52.2829 139.201 51.031C138.01 49.7378 136.538 49.1255 134.785 49.1941L133.604 49.325C133.273 49.3617 132.93 49.4836 132.576 49.6906C132.221 49.8975 131.899 50.0171 131.609 50.0492ZM151.25 62.7119C151.3 61.2809 151.296 59.9189 151.237 58.626C151.214 57.287 151.131 55.9756 150.989 54.6918C150.709 52.1656 150.171 49.5841 149.376 46.9474C149.321 46.8278 149.282 46.6644 149.259 46.4573C149.194 45.8776 149.307 45.3829 149.597 44.9735C149.928 44.5594 150.343 44.3249 150.84 44.2698C151.378 44.2101 151.792 44.3528 152.082 44.698C152.413 45.0386 152.673 45.4918 152.861 46.0578C153.045 46.5824 153.195 47.1737 153.31 47.8318C153.461 48.4438 153.632 49.0328 153.82 49.5988C154.299 49.0007 154.925 48.4073 155.698 47.8185C156.471 47.2297 157.292 46.6984 158.162 46.2247C159.073 45.7464 159.994 45.3509 160.923 45.0382C161.848 44.6841 162.725 44.4611 163.553 44.3693C164.009 44.3188 164.423 44.4615 164.795 44.7975C165.168 45.1335 165.379 45.5293 165.43 45.9848C165.476 46.3989 165.398 46.8268 165.195 47.2685C164.988 47.6688 164.615 47.8988 164.077 47.9584C163.083 48.0687 162.068 48.3698 161.033 48.8619C159.993 49.3126 159.026 49.8599 158.134 50.5039C157.282 51.1433 156.541 51.8333 155.911 52.574C155.322 53.3101 154.937 54.0025 154.758 54.6512C154.767 55.4887 154.815 56.4895 154.902 57.6536C155.026 58.7718 155.062 59.8577 155.012 60.9114C154.997 61.9191 154.864 62.7933 154.611 63.534C154.357 64.2748 153.899 64.6819 153.237 64.7554C152.823 64.8013 152.392 64.7023 151.946 64.4583C151.541 64.2097 151.304 63.7748 151.236 63.1537C151.217 62.988 151.222 62.8408 151.25 62.7119ZM173.892 46.8702C173.693 48.1079 173.643 49.1616 173.739 50.0312C173.863 51.1494 174.183 52.1411 174.698 53.0062C175.254 53.8668 175.94 54.5663 176.754 55.1049C177.61 55.6388 178.574 56.0141 179.646 56.2306C180.718 56.4471 181.834 56.491 182.993 56.3625C183.117 56.3487 183.242 56.3349 183.366 56.3211C183.485 56.266 183.607 56.2315 183.732 56.2177C184.063 56.181 184.394 56.3329 184.725 56.6735C185.093 56.968 185.303 57.3431 185.353 57.7986C185.418 58.3784 185.3 58.8316 185.001 59.1582C184.743 59.4803 184.159 59.6918 183.248 59.7928C181.094 60.0316 179.238 59.923 177.678 59.4671C176.118 59.0113 174.805 58.3185 173.737 57.3887C172.665 56.4176 171.828 55.2947 171.226 54.02C170.66 52.6993 170.297 51.3142 170.136 49.8648C170.09 49.4506 170.04 48.9951 169.985 48.4982C169.966 47.9552 169.996 47.4698 170.075 47.0419C170.149 46.5725 170.294 46.1792 170.51 45.8617C170.763 45.4983 171.138 45.289 171.635 45.2339C172.049 45.188 172.5 45.2847 172.988 45.5241C173.512 45.7175 173.804 46.0833 173.864 46.6217L173.892 46.8702ZM188.193 43.1464C188.653 45.4011 189.041 47.5799 189.358 49.6828C189.717 51.7811 190.013 53.8863 190.247 55.9983C190.38 57.1993 190.511 58.3796 190.64 59.5391C190.764 60.6573 190.764 61.7892 190.639 62.9349C190.515 64.0806 190.181 65.2285 189.637 66.3787C189.099 67.5704 188.227 68.778 187.021 70.0017C186.491 70.5215 185.882 71.0712 185.191 71.6508C184.542 72.2258 183.845 72.7433 183.1 73.2033C182.359 73.7047 181.609 74.1232 180.849 74.4589C180.09 74.7947 179.358 75.0016 178.654 75.0796C178.157 75.1347 177.718 74.9529 177.336 74.5341C176.996 74.1107 176.796 73.6298 176.736 73.0914C176.695 72.7187 176.739 72.3575 176.868 72.0078C177.042 71.695 177.332 71.4742 177.737 71.3454C178.823 70.9316 179.914 70.3705 181.009 69.6621C182.146 68.9492 183.147 68.1465 184.012 67.254C184.919 66.357 185.651 65.3955 186.208 64.3695C186.769 63.3849 187.057 62.3888 187.071 61.3811C187.071 60.2492 186.993 58.9792 186.837 57.5712C186.709 56.7889 186.598 55.9837 186.507 55.1554C186.41 54.2858 186.275 53.4414 186.1 52.6223L184.466 43.5596C184.457 43.4768 184.432 43.4377 184.39 43.4423C184.386 43.4009 184.379 43.3388 184.37 43.2559C184.315 42.759 184.437 42.3472 184.736 42.0206C185.072 41.6479 185.467 41.4364 185.923 41.3859C186.379 41.3354 186.832 41.4528 187.283 41.7382C187.729 41.9821 188.032 42.4515 188.193 43.1464Z" fill="black"/>
<rect x="221" y="26" width="100" height="100" rx="50" fill="#D7E0FF"/>
<mask id="mask0" mask-type="alpha" maskUnits="userSpaceOnUse" x="221" y="26" width="100" height="100">
<rect x="221" y="26" width="100" height="100" rx="50" fill="white"/>
</mask>
<g mask="url(#mask0)">
<path fill-rule="evenodd" clip-rule="evenodd" d="M273.067 86.6411C265.618 84.7509 256.991 79.8205 254.23 70.3496C252.792 65.4144 255.368 56.6579 255.368 51.9776C255.368 49.6232 253.723 45.461 255.181 42.9852C257.068 39.7815 261.196 39.6888 261.2 39.6806C264.268 33.6527 278.446 35.8756 280.696 44.2865C282.289 50.2523 292.929 44.9232 295.575 54.131C298.997 66.0388 309.302 75.6712 316.292 65.1738C316.292 65.1738 325.505 73.2316 318.515 83.7264C317.083 85.8729 306.849 95.2409 295.576 95.6553C287.156 95.9716 277.791 87.8415 273.067 86.6411Z" fill="#694A52"/>
<rect x="259.425" y="79.041" width="17.6964" height="6.14784" fill="#5D5D7D"/>
<path fill-rule="evenodd" clip-rule="evenodd" d="M275.456 94.7528L256.588 94.5081L266.388 66.4771L274.84 66.0947L275.456 94.7528Z" fill="#FFDFAE"/>
<path fill-rule="evenodd" clip-rule="evenodd" d="M252.252 48.2889L248.049 45.121C248.049 45.121 226.999 79.3616 227.357 80.6007C229.247 87.1354 245.326 95.6874 252.252 99.1984C256.473 101.337 252.252 85.5653 252.252 85.5653L240.763 77.5939L252.252 48.2889Z" fill="#FFDFAE"/>
<path fill-rule="evenodd" clip-rule="evenodd" d="M282.584 50.9278L295.411 80.1367L281.406 91.0196L286.518 99.5403C286.518 99.5403 304.005 90.5725 308.956 83.2908C310.846 80.5115 287.79 49.3609 287.79 49.3609L282.584 50.9278Z" fill="#FFDFAE"/>
<path fill-rule="evenodd" clip-rule="evenodd" d="M273.586 68.2848C273.586 68.2848 265.339 70.5682 263.974 74.0647C263.974 74.0647 267.368 80.0358 269.791 79.7009C272.401 79.3415 274.966 73.7925 275.218 70.6193C274.055 68.8495 273.586 68.2848 273.586 68.2848Z" fill="#F4CA92"/>
<path fill-rule="evenodd" clip-rule="evenodd" d="M291.631 144.869L243.865 141.762C243.865 141.762 255.606 105.302 251.692 99.9456C251.419 99.5741 250.731 96.4719 250.731 96.4719C250.731 96.4719 250.68 93.3534 250.731 90.6779C250.731 86.9288 250.731 86.588 250.731 84.2022C255.771 80.9302 257.305 82.1892 257.305 82.1892L259.426 79.0454C259.426 79.0454 262.346 81.5628 264.341 82.3173C264.592 82.4121 265.064 82.2683 265.283 82.4843C267.405 84.5729 268.096 91.6955 268.096 91.6955C268.096 91.6955 270.661 82.4932 271.917 82.1742C274.14 81.6152 277.114 79.042 277.114 79.042L278.949 82.665C278.949 82.665 282.428 83.1797 288.223 85.5655V92.7228V98.5169L291.631 144.869Z" fill="#2FC0C4"/>
<path fill-rule="evenodd" clip-rule="evenodd" d="M279.052 59.1898C279.922 62.7447 277.837 62.4741 276.898 66.2354C275.437 72.0861 273.497 76.5325 269.305 76.48C263.511 76.4078 259.16 69.7719 256.866 59.0297C255.791 53.9984 256.378 49.8607 258.194 46.948C260.086 43.9106 258.005 52.2983 265.646 53.3821C269.498 53.9275 275.416 49.7482 275.359 53.4871C275.216 63.0098 278.302 56.1197 279.052 59.1898Z" fill="#FFDFAE"/>
<path fill-rule="evenodd" clip-rule="evenodd" d="M282.322 44.0638C281.236 43.9362 280.895 43.5953 279.532 44.277C278.85 44.9586 278.624 44.8522 278.169 45.2995C277.146 45.6403 277.35 46.4223 277.679 47.3605C277.679 47.3605 278.67 49.1019 282.769 51.1564L287.882 49.4523C287.23 47.9701 287.601 45.3508 282.322 44.0638Z" fill="#FFDFAE"/>
<path fill-rule="evenodd" clip-rule="evenodd" d="M254.316 41.3899C256.295 41.5658 254.306 43.0015 255.998 43.5736C257.241 43.9936 257.782 44.9583 257.121 45.7551C257.121 45.7551 256.257 47.711 251.602 48.35L247.605 45.2729C248.775 44.056 248.828 40.9022 254.316 41.3899Z" fill="#FFDFAE"/>
<path fill-rule="evenodd" clip-rule="evenodd" d="M251.532 45.2851C249.564 46.318 248.248 45.9741 247.709 45.121C247.169 44.2679 248.275 42.9265 250.242 41.8931C252.209 40.8597 253.588 41.4583 254.125 42.3119C254.662 43.1656 253.5 44.2515 251.532 45.2851Z" fill="#FFDFAE"/>
<path fill-rule="evenodd" clip-rule="evenodd" d="M257.835 42.9345C258.296 43.9976 257.478 45.7314 256.806 45.9787C256.135 46.2261 255.858 44.8944 255.397 43.832C254.936 42.7696 255.111 41.7057 255.782 41.4592C256.453 41.2127 257.374 41.8714 257.835 42.9345Z" fill="#FFDFAE"/>
<path fill-rule="evenodd" clip-rule="evenodd" d="M267.245 86.7245C267.827 89.0687 268.692 88.764 268.616 89.9031C268.481 90.5264 268.309 91.141 268.1 91.7435C267.428 90.6691 266.883 89.5204 266.475 88.3203C265.432 85.6911 264.096 83.1336 264.333 82.3701C264.367 82.261 265.001 82.3019 265.099 82.349C265.763 82.6523 266.422 83.4049 267.245 86.7245Z" fill="#5D5D7D"/>
</g>
<path d="M242.84 160.021H237.883L236.846 163H234.534L239.368 150.203H241.363L246.206 163H243.886L242.84 160.021ZM238.507 158.228H242.216L240.361 152.919L238.507 158.228ZM252.438 155.441C252.156 155.395 251.866 155.371 251.567 155.371C250.589 155.371 249.93 155.746 249.59 156.496V163H247.454V153.49H249.493L249.546 154.554C250.062 153.728 250.776 153.314 251.69 153.314C251.995 153.314 252.247 153.355 252.446 153.438L252.438 155.441ZM257.518 161.471C258.051 161.471 258.493 161.315 258.845 161.005C259.196 160.694 259.384 160.311 259.407 159.854H261.42C261.396 160.445 261.212 160.999 260.866 161.515C260.521 162.024 260.052 162.429 259.46 162.728C258.868 163.026 258.229 163.176 257.544 163.176C256.214 163.176 255.159 162.745 254.38 161.884C253.601 161.022 253.211 159.833 253.211 158.315V158.096C253.211 156.648 253.598 155.491 254.371 154.624C255.145 153.751 256.199 153.314 257.535 153.314C258.666 153.314 259.586 153.646 260.295 154.308C261.01 154.964 261.385 155.828 261.42 156.9H259.407C259.384 156.355 259.196 155.907 258.845 155.556C258.499 155.204 258.057 155.028 257.518 155.028C256.826 155.028 256.293 155.28 255.918 155.784C255.543 156.282 255.353 157.041 255.347 158.061V158.403C255.347 159.435 255.531 160.205 255.9 160.715C256.275 161.219 256.814 161.471 257.518 161.471ZM265.138 154.527C265.835 153.719 266.717 153.314 267.783 153.314C269.811 153.314 270.839 154.472 270.868 156.786V163H268.732V156.865C268.732 156.209 268.589 155.746 268.302 155.477C268.021 155.201 267.604 155.063 267.054 155.063C266.198 155.063 265.56 155.444 265.138 156.206V163H263.002V149.5H265.138V154.527ZM275.307 163H273.171V153.49H275.307V163ZM273.039 151.021C273.039 150.692 273.142 150.42 273.347 150.203C273.558 149.986 273.856 149.878 274.243 149.878C274.63 149.878 274.929 149.986 275.14 150.203C275.351 150.42 275.456 150.692 275.456 151.021C275.456 151.343 275.351 151.612 275.14 151.829C274.929 152.04 274.63 152.146 274.243 152.146C273.856 152.146 273.558 152.04 273.347 151.829C273.142 151.612 273.039 151.343 273.039 151.021ZM280.316 151.179V153.49H281.995V155.072H280.316V160.381C280.316 160.744 280.387 161.008 280.527 161.172C280.674 161.33 280.932 161.409 281.301 161.409C281.547 161.409 281.796 161.38 282.048 161.321V162.974C281.562 163.108 281.093 163.176 280.642 163.176C279.001 163.176 278.181 162.271 278.181 160.46V155.072H276.616V153.49H278.181V151.179H280.316ZM287.822 163.176C286.469 163.176 285.37 162.751 284.526 161.901C283.688 161.046 283.27 159.909 283.27 158.491V158.228C283.27 157.278 283.451 156.432 283.814 155.688C284.184 154.938 284.699 154.354 285.361 153.938C286.023 153.522 286.762 153.314 287.576 153.314C288.871 153.314 289.87 153.728 290.573 154.554C291.282 155.38 291.637 156.549 291.637 158.061V158.922H285.423C285.487 159.707 285.748 160.328 286.205 160.785C286.668 161.242 287.248 161.471 287.945 161.471C288.924 161.471 289.721 161.075 290.336 160.284L291.487 161.383C291.106 161.951 290.597 162.394 289.958 162.71C289.325 163.021 288.613 163.176 287.822 163.176ZM287.567 155.028C286.981 155.028 286.507 155.233 286.144 155.644C285.786 156.054 285.558 156.625 285.458 157.357H289.527V157.199C289.48 156.484 289.29 155.945 288.956 155.582C288.622 155.213 288.159 155.028 287.567 155.028ZM297.209 161.471C297.742 161.471 298.185 161.315 298.536 161.005C298.888 160.694 299.075 160.311 299.099 159.854H301.111C301.088 160.445 300.903 160.999 300.558 161.515C300.212 162.024 299.743 162.429 299.151 162.728C298.56 163.026 297.921 163.176 297.235 163.176C295.905 163.176 294.851 162.745 294.071 161.884C293.292 161.022 292.902 159.833 292.902 158.315V158.096C292.902 156.648 293.289 155.491 294.062 154.624C294.836 153.751 295.891 153.314 297.227 153.314C298.357 153.314 299.277 153.646 299.986 154.308C300.701 154.964 301.076 155.828 301.111 156.9H299.099C299.075 156.355 298.888 155.907 298.536 155.556C298.19 155.204 297.748 155.028 297.209 155.028C296.518 155.028 295.984 155.28 295.609 155.784C295.234 156.282 295.044 157.041 295.038 158.061V158.403C295.038 159.435 295.223 160.205 295.592 160.715C295.967 161.219 296.506 161.471 297.209 161.471ZM305.4 151.179V153.49H307.079V155.072H305.4V160.381C305.4 160.744 305.471 161.008 305.611 161.172C305.758 161.33 306.016 161.409 306.385 161.409C306.631 161.409 306.88 161.38 307.132 161.321V162.974C306.646 163.108 306.177 163.176 305.726 163.176C304.085 163.176 303.265 162.271 303.265 160.46V155.072H301.7V153.49H303.265V151.179H305.4ZM262.578 193.031H257.812L256.742 196H255.195L259.539 184.625H260.852L265.203 196H263.664L262.578 193.031ZM258.266 191.797H262.133L260.195 186.477L258.266 191.797ZM267.867 187.547L267.906 188.484C268.526 187.755 269.362 187.391 270.414 187.391C271.596 187.391 272.401 187.844 272.828 188.75C273.109 188.344 273.474 188.016 273.922 187.766C274.375 187.516 274.909 187.391 275.523 187.391C277.378 187.391 278.32 188.372 278.352 190.336V196H276.906V190.422C276.906 189.818 276.768 189.367 276.492 189.07C276.216 188.768 275.753 188.617 275.102 188.617C274.565 188.617 274.12 188.779 273.766 189.102C273.411 189.419 273.206 189.849 273.148 190.391V196H271.695V190.461C271.695 189.232 271.094 188.617 269.891 188.617C268.943 188.617 268.294 189.021 267.945 189.828V196H266.5V187.547H267.867ZM283.305 193.883L285.273 187.547H286.82L283.422 197.305C282.896 198.711 282.06 199.414 280.914 199.414L280.641 199.391L280.102 199.289V198.117L280.492 198.148C280.982 198.148 281.362 198.049 281.633 197.852C281.909 197.654 282.135 197.292 282.312 196.766L282.633 195.906L279.617 187.547H281.195L283.305 193.883Z" fill="black"/>
</svg>
