<svg width="68" height="16" viewBox="0 0 68 16" fill="none" xmlns="http://www.w3.org/2000/svg">
<path d="M67.3536 8.35355C67.5488 8.15829 67.5488 7.84171 67.3536 7.64645L64.1716 4.46447C63.9763 4.2692 63.6597 4.2692 63.4645 4.46447C63.2692 4.65973 63.2692 4.97631 63.4645 5.17157L66.2929 8L63.4645 10.8284C63.2692 11.0237 63.2692 11.3403 63.4645 11.5355C63.6597 11.7308 63.9763 11.7308 64.1716 11.5355L67.3536 8.35355ZM0 8.5H1.91429V7.5H0V8.5ZM4.78571 8.5H8.61429V7.5H4.78571V8.5ZM11.4857 8.5H15.3143V7.5H11.4857V8.5ZM18.1857 8.5H22.0143V7.5H18.1857V8.5ZM24.8857 8.5H28.7143V7.5H24.8857V8.5ZM31.5857 8.5H35.4143V7.5H31.5857V8.5ZM38.2857 8.5H42.1143V7.5H38.2857V8.5ZM44.9857 8.5H48.8143V7.5H44.9857V8.5ZM51.6857 8.5H55.5143V7.5H51.6857V8.5ZM58.3857 8.5H62.2143V7.5H58.3857V8.5ZM65.0857 8.5H67V7.5H65.0857V8.5ZM67.7071 8.70711C68.0976 8.31658 68.0976 7.68342 67.7071 7.29289L61.3431 0.928932C60.9526 0.538408 60.3195 0.538408 59.9289 0.928932C59.5384 1.31946 59.5384 1.95262 59.9289 2.34315L65.5858 8L59.9289 13.6569C59.5384 14.0474 59.5384 14.6805 59.9289 15.0711C60.3195 15.4616 60.9526 15.4616 61.3431 15.0711L67.7071 8.70711ZM0 9H1.91429V7H0V9ZM4.78571 9H8.61429V7H4.78571V9ZM11.4857 9H15.3143V7H11.4857V9ZM18.1857 9H22.0143V7H18.1857V9ZM24.8857 9H28.7143V7H24.8857V9ZM31.5857 9H35.4143V7H31.5857V9ZM38.2857 9H42.1143V7H38.2857V9ZM44.9857 9H48.8143V7H44.9857V9ZM51.6857 9H55.5143V7H51.6857V9ZM58.3857 9H62.2143V7H58.3857V9ZM65.0857 9H67V7H65.0857V9Z" fill="#C9D3DA"/>
</svg>
