<svg width="686" height="579" viewBox="0 0 686 579" fill="none" xmlns="http://www.w3.org/2000/svg">
<path fill-rule="evenodd" clip-rule="evenodd" d="M334.711 0.13515C401.273 2.42168 457.922 41.3998 513.073 78.7365C570.204 117.414 631.278 155.599 658.189 219.126C686.382 285.679 701.401 369.934 662.137 430.618C623.506 490.324 534.983 481.693 469.844 510.225C423.071 530.712 385.178 566.257 334.711 574.035C277.283 582.886 218.463 581.031 165.5 557.129C103.398 529.103 38.7236 491.842 12.8902 428.796C-13.5953 364.16 5.158 290.539 29.4222 225.036C52.8965 161.666 92.8094 106.251 147.218 66.1686C201.904 25.8826 266.828 -2.19676 334.711 0.13515Z" fill="#FFEA7C"/>
</svg>
