<svg width="986" height="674" viewBox="0 0 986 674" fill="none" xmlns="http://www.w3.org/2000/svg">
<rect x="752" y="10" width="24" height="66" rx="12" transform="rotate(90 752 10)" fill="#A3DCF9"/>
<rect x="366" y="608" width="24" height="287" rx="12" transform="rotate(-180 366 608)" fill="#A3DCF9"/>
<rect x="573" y="608" width="24" height="218" rx="12" transform="rotate(-180 573 608)" fill="#A3DCF9"/>
<rect x="407" y="608" width="24" height="373" rx="12" transform="rotate(-180 407 608)" fill="#FF8F87"/>
<rect x="614" y="608" width="24" height="83" rx="12" transform="rotate(-180 614 608)" fill="#FF8F87"/>
<rect x="752" y="58" width="24" height="66" rx="12" transform="rotate(90 752 58)" fill="#FF8F87"/>
<path d="M772.156 30V18.625H776.055C777.341 18.625 778.32 18.8828 778.992 19.3984C779.664 19.9141 780 20.6823 780 21.7031C780 22.224 779.859 22.6927 779.578 23.1094C779.297 23.526 778.885 23.849 778.344 24.0781C778.958 24.2448 779.432 24.5599 779.766 25.0234C780.104 25.4818 780.273 26.0339 780.273 26.6797C780.273 27.7474 779.93 28.5677 779.242 29.1406C778.56 29.7135 777.581 30 776.305 30H772.156ZM774.133 24.8672V28.4219H776.328C776.948 28.4219 777.432 28.2682 777.781 27.9609C778.13 27.6536 778.305 27.2266 778.305 26.6797C778.305 25.4974 777.701 24.8932 776.492 24.8672H774.133ZM774.133 23.4141H776.07C776.685 23.4141 777.164 23.276 777.508 23C777.857 22.7188 778.031 22.3229 778.031 21.8125C778.031 21.25 777.87 20.8438 777.547 20.5938C777.229 20.3438 776.732 20.2188 776.055 20.2188H774.133V23.4141ZM791.328 24.6094C791.328 25.724 791.135 26.7031 790.75 27.5469C790.365 28.3854 789.812 29.0312 789.094 29.4844C788.38 29.9323 787.557 30.1562 786.625 30.1562C785.703 30.1562 784.88 29.9323 784.156 29.4844C783.438 29.0312 782.88 28.388 782.484 27.5547C782.094 26.7214 781.896 25.7604 781.891 24.6719V24.0312C781.891 22.9219 782.086 21.9427 782.477 21.0938C782.872 20.2448 783.427 19.5964 784.141 19.1484C784.859 18.6953 785.682 18.4688 786.609 18.4688C787.536 18.4688 788.357 18.6927 789.07 19.1406C789.789 19.5833 790.344 20.224 790.734 21.0625C791.125 21.8958 791.323 22.8672 791.328 23.9766V24.6094ZM789.352 24.0156C789.352 22.7552 789.112 21.7891 788.633 21.1172C788.159 20.4453 787.484 20.1094 786.609 20.1094C785.755 20.1094 785.086 20.4453 784.602 21.1172C784.122 21.7839 783.878 22.7292 783.867 23.9531V24.6094C783.867 25.8594 784.109 26.8255 784.594 27.5078C785.083 28.1901 785.76 28.5312 786.625 28.5312C787.5 28.5312 788.172 28.1979 788.641 27.5312C789.115 26.8646 789.352 25.8906 789.352 24.6094V24.0156ZM801.617 18.625V26.2266C801.617 27.4349 801.229 28.3932 800.453 29.1016C799.682 29.8047 798.654 30.1562 797.367 30.1562C796.065 30.1562 795.031 29.8099 794.266 29.1172C793.5 28.4193 793.117 27.4531 793.117 26.2188V18.625H795.086V26.2344C795.086 26.9948 795.279 27.5755 795.664 27.9766C796.049 28.3776 796.617 28.5781 797.367 28.5781C798.888 28.5781 799.648 27.776 799.648 26.1719V18.625H801.617ZM812.758 30H810.781L805.711 21.9297V30H803.734V18.625H805.711L810.797 26.7266V18.625H812.758V30ZM823.773 26.2969C823.659 27.5104 823.211 28.4583 822.43 29.1406C821.648 29.8177 820.609 30.1562 819.312 30.1562C818.406 30.1562 817.607 29.9427 816.914 29.5156C816.227 29.0833 815.695 28.4714 815.32 27.6797C814.945 26.888 814.75 25.9688 814.734 24.9219V23.8594C814.734 22.7865 814.924 21.8411 815.305 21.0234C815.685 20.2057 816.229 19.5755 816.938 19.1328C817.651 18.6901 818.474 18.4688 819.406 18.4688C820.661 18.4688 821.672 18.8099 822.438 19.4922C823.203 20.1745 823.648 21.138 823.773 22.3828H821.805C821.711 21.5651 821.471 20.9766 821.086 20.6172C820.706 20.2526 820.146 20.0703 819.406 20.0703C818.547 20.0703 817.885 20.3854 817.422 21.0156C816.964 21.6406 816.729 22.5599 816.719 23.7734V24.7812C816.719 26.0104 816.938 26.9479 817.375 27.5938C817.818 28.2396 818.464 28.5625 819.312 28.5625C820.089 28.5625 820.672 28.388 821.062 28.0391C821.453 27.6901 821.701 27.1094 821.805 26.2969H823.773ZM832.195 24.9219H827.523V28.4219H832.984V30H825.547V18.625H832.93V20.2188H827.523V23.3594H832.195V24.9219ZM842.758 25.6172H840.555V30H838.578V18.625H842.578C843.891 18.625 844.904 18.9193 845.617 19.5078C846.331 20.0964 846.688 20.9479 846.688 22.0625C846.688 22.8229 846.503 23.4609 846.133 23.9766C845.768 24.487 845.258 24.8802 844.602 25.1562L847.156 29.8984V30H845.039L842.758 25.6172ZM840.555 24.0312H842.586C843.253 24.0312 843.773 23.8646 844.148 23.5312C844.523 23.1927 844.711 22.7318 844.711 22.1484C844.711 21.5391 844.536 21.0677 844.188 20.7344C843.844 20.401 843.328 20.2292 842.641 20.2188H840.555V24.0312ZM854.93 27.3516H850.523L849.602 30H847.547L851.844 18.625H853.617L857.922 30H855.859L854.93 27.3516ZM851.078 25.7578H854.375L852.727 21.0391L851.078 25.7578ZM866.5 20.2188H862.953V30H860.992V20.2188H857.477V18.625H866.5V20.2188ZM874.648 24.9219H869.977V28.4219H875.438V30H868V18.625H875.383V20.2188H869.977V23.3594H874.648V24.9219Z" fill="#333333"/>
<path d="M780.375 66.2188H776.828V76H774.867V66.2188H771.352V64.625H780.375V66.2188ZM790.734 70.6094C790.734 71.724 790.542 72.7031 790.156 73.5469C789.771 74.3854 789.219 75.0312 788.5 75.4844C787.786 75.9323 786.964 76.1562 786.031 76.1562C785.109 76.1562 784.286 75.9323 783.562 75.4844C782.844 75.0312 782.286 74.388 781.891 73.5547C781.5 72.7214 781.302 71.7604 781.297 70.6719V70.0312C781.297 68.9219 781.492 67.9427 781.883 67.0938C782.279 66.2448 782.833 65.5964 783.547 65.1484C784.266 64.6953 785.089 64.4688 786.016 64.4688C786.943 64.4688 787.763 64.6927 788.477 65.1406C789.195 65.5833 789.75 66.224 790.141 67.0625C790.531 67.8958 790.729 68.8672 790.734 69.9766V70.6094ZM788.758 70.0156C788.758 68.7552 788.518 67.7891 788.039 67.1172C787.565 66.4453 786.891 66.1094 786.016 66.1094C785.161 66.1094 784.492 66.4453 784.008 67.1172C783.529 67.7839 783.284 68.7292 783.273 69.9531V70.6094C783.273 71.8594 783.516 72.8255 784 73.5078C784.49 74.1901 785.167 74.5312 786.031 74.5312C786.906 74.5312 787.578 74.1979 788.047 73.5312C788.521 72.8646 788.758 71.8906 788.758 70.6094V70.0156ZM800.25 66.2188H796.703V76H794.742V66.2188H791.227V64.625H800.25V66.2188ZM807.18 73.3516H802.773L801.852 76H799.797L804.094 64.625H805.867L810.172 76H808.109L807.18 73.3516ZM803.328 71.7578H806.625L804.977 67.0391L803.328 71.7578ZM813.445 74.4219H818.609V76H811.469V64.625H813.445V74.4219ZM828.117 73.5234L831.008 64.625H833.18L829.086 76H827.172L823.094 64.625H825.258L828.117 73.5234ZM836.555 76H834.586V64.625H836.555V76ZM845.633 70.9219H840.961V74.4219H846.422V76H838.984V64.625H846.367V66.2188H840.961V69.3594H845.633V70.9219ZM856.953 73.1875L858.703 64.625H860.664L858.039 76H856.148L853.984 67.6953L851.773 76H849.875L847.25 64.625H849.211L850.977 73.1719L853.148 64.625H854.805L856.953 73.1875ZM868.055 73.0703C868.055 72.5703 867.878 72.1849 867.523 71.9141C867.174 71.6432 866.542 71.3698 865.625 71.0938C864.708 70.8177 863.979 70.5104 863.438 70.1719C862.401 69.5208 861.883 68.6719 861.883 67.625C861.883 66.7083 862.255 65.9531 863 65.3594C863.75 64.7656 864.721 64.4688 865.914 64.4688C866.706 64.4688 867.411 64.6146 868.031 64.9062C868.651 65.1979 869.138 65.6146 869.492 66.1562C869.846 66.6927 870.023 67.2891 870.023 67.9453H868.055C868.055 67.3516 867.867 66.888 867.492 66.5547C867.122 66.2161 866.591 66.0469 865.898 66.0469C865.253 66.0469 864.75 66.1849 864.391 66.4609C864.036 66.737 863.859 67.1224 863.859 67.6172C863.859 68.0339 864.052 68.3828 864.438 68.6641C864.823 68.9401 865.458 69.2109 866.344 69.4766C867.229 69.737 867.94 70.0365 868.477 70.375C869.013 70.7083 869.406 71.0938 869.656 71.5312C869.906 71.9635 870.031 72.4714 870.031 73.0547C870.031 74.0026 869.667 74.7578 868.938 75.3203C868.214 75.8776 867.229 76.1562 865.984 76.1562C865.161 76.1562 864.404 76.0052 863.711 75.7031C863.023 75.3958 862.487 74.974 862.102 74.4375C861.721 73.901 861.531 73.276 861.531 72.5625H863.508C863.508 73.2083 863.721 73.7083 864.148 74.0625C864.576 74.4167 865.188 74.5938 865.984 74.5938C866.672 74.5938 867.188 74.4557 867.531 74.1797C867.88 73.8984 868.055 73.5286 868.055 73.0703Z" fill="#333333"/>
<path d="M388.445 211.438L383.734 222H382.219L386.914 211.812H380.758V210.625H388.445V211.438ZM396.984 213.594C396.984 214.161 396.833 214.667 396.531 215.109C396.234 215.552 395.831 215.898 395.32 216.148C395.914 216.404 396.383 216.776 396.727 217.266C397.076 217.755 397.25 218.31 397.25 218.93C397.25 219.914 396.917 220.698 396.25 221.281C395.589 221.865 394.716 222.156 393.633 222.156C392.539 222.156 391.661 221.865 391 221.281C390.344 220.693 390.016 219.909 390.016 218.93C390.016 218.315 390.182 217.76 390.516 217.266C390.854 216.771 391.32 216.396 391.914 216.141C391.409 215.891 391.01 215.544 390.719 215.102C390.427 214.659 390.281 214.156 390.281 213.594C390.281 212.635 390.589 211.875 391.203 211.312C391.818 210.75 392.628 210.469 393.633 210.469C394.633 210.469 395.44 210.75 396.055 211.312C396.674 211.875 396.984 212.635 396.984 213.594ZM395.805 218.898C395.805 218.263 395.602 217.745 395.195 217.344C394.794 216.943 394.268 216.742 393.617 216.742C392.966 216.742 392.443 216.94 392.047 217.336C391.656 217.732 391.461 218.253 391.461 218.898C391.461 219.544 391.651 220.052 392.031 220.422C392.417 220.792 392.951 220.977 393.633 220.977C394.31 220.977 394.841 220.792 395.227 220.422C395.612 220.047 395.805 219.539 395.805 218.898ZM393.633 211.656C393.065 211.656 392.604 211.833 392.25 212.188C391.901 212.536 391.727 213.013 391.727 213.617C391.727 214.195 391.898 214.664 392.242 215.023C392.591 215.378 393.055 215.555 393.633 215.555C394.211 215.555 394.672 215.378 395.016 215.023C395.365 214.664 395.539 214.195 395.539 213.617C395.539 213.039 395.359 212.568 395 212.203C394.641 211.839 394.185 211.656 393.633 211.656ZM398.945 212.812C398.945 212.13 399.161 211.568 399.594 211.125C400.031 210.682 400.591 210.461 401.273 210.461C401.966 210.461 402.526 210.685 402.953 211.133C403.385 211.576 403.602 212.151 403.602 212.859V213.414C403.602 214.102 403.383 214.664 402.945 215.102C402.513 215.534 401.961 215.75 401.289 215.75C400.612 215.75 400.052 215.534 399.609 215.102C399.167 214.664 398.945 214.083 398.945 213.359V212.812ZM400.023 213.414C400.023 213.82 400.138 214.156 400.367 214.422C400.596 214.682 400.904 214.812 401.289 214.812C401.659 214.812 401.956 214.685 402.18 214.43C402.409 214.174 402.523 213.826 402.523 213.383V212.812C402.523 212.406 402.411 212.07 402.188 211.805C401.964 211.539 401.659 211.406 401.273 211.406C400.888 211.406 400.583 211.539 400.359 211.805C400.135 212.07 400.023 212.417 400.023 212.844V213.414ZM404.484 219.211C404.484 218.529 404.701 217.969 405.133 217.531C405.57 217.089 406.13 216.867 406.812 216.867C407.495 216.867 408.055 217.086 408.492 217.523C408.93 217.961 409.148 218.542 409.148 219.266V219.82C409.148 220.503 408.93 221.065 408.492 221.508C408.06 221.945 407.505 222.164 406.828 222.164C406.151 222.164 405.591 221.948 405.148 221.516C404.706 221.078 404.484 220.497 404.484 219.773V219.211ZM405.562 219.82C405.562 220.232 405.677 220.57 405.906 220.836C406.135 221.096 406.443 221.227 406.828 221.227C407.203 221.227 407.503 221.099 407.727 220.844C407.951 220.583 408.062 220.232 408.062 219.789V219.211C408.062 218.799 407.948 218.464 407.719 218.203C407.495 217.943 407.193 217.812 406.812 217.812C406.443 217.812 406.141 217.943 405.906 218.203C405.677 218.458 405.562 218.805 405.562 219.242V219.82ZM401.617 221.141L400.797 220.625L406.352 211.734L407.172 212.25L401.617 221.141Z" fill="#333333"/>
<path d="M595.555 512H588.102V510.961L592.039 506.586C592.622 505.924 593.023 505.388 593.242 504.977C593.466 504.56 593.578 504.13 593.578 503.688C593.578 503.094 593.398 502.607 593.039 502.227C592.68 501.846 592.201 501.656 591.602 501.656C590.883 501.656 590.323 501.862 589.922 502.273C589.526 502.68 589.328 503.247 589.328 503.977H587.883C587.883 502.93 588.219 502.083 588.891 501.438C589.568 500.792 590.471 500.469 591.602 500.469C592.659 500.469 593.495 500.747 594.109 501.305C594.724 501.857 595.031 502.594 595.031 503.516C595.031 504.635 594.318 505.969 592.891 507.516L589.844 510.82H595.555V512ZM604.539 512H597.086V510.961L601.023 506.586C601.607 505.924 602.008 505.388 602.227 504.977C602.451 504.56 602.562 504.13 602.562 503.688C602.562 503.094 602.383 502.607 602.023 502.227C601.664 501.846 601.185 501.656 600.586 501.656C599.867 501.656 599.307 501.862 598.906 502.273C598.51 502.68 598.312 503.247 598.312 503.977H596.867C596.867 502.93 597.203 502.083 597.875 501.438C598.552 500.792 599.456 500.469 600.586 500.469C601.643 500.469 602.479 500.747 603.094 501.305C603.708 501.857 604.016 502.594 604.016 503.516C604.016 504.635 603.302 505.969 601.875 507.516L598.828 510.82H604.539V512ZM605.945 502.812C605.945 502.13 606.161 501.568 606.594 501.125C607.031 500.682 607.591 500.461 608.273 500.461C608.966 500.461 609.526 500.685 609.953 501.133C610.385 501.576 610.602 502.151 610.602 502.859V503.414C610.602 504.102 610.383 504.664 609.945 505.102C609.513 505.534 608.961 505.75 608.289 505.75C607.612 505.75 607.052 505.534 606.609 505.102C606.167 504.664 605.945 504.083 605.945 503.359V502.812ZM607.023 503.414C607.023 503.82 607.138 504.156 607.367 504.422C607.596 504.682 607.904 504.812 608.289 504.812C608.659 504.812 608.956 504.685 609.18 504.43C609.409 504.174 609.523 503.826 609.523 503.383V502.812C609.523 502.406 609.411 502.07 609.188 501.805C608.964 501.539 608.659 501.406 608.273 501.406C607.888 501.406 607.583 501.539 607.359 501.805C607.135 502.07 607.023 502.417 607.023 502.844V503.414ZM611.484 509.211C611.484 508.529 611.701 507.969 612.133 507.531C612.57 507.089 613.13 506.867 613.812 506.867C614.495 506.867 615.055 507.086 615.492 507.523C615.93 507.961 616.148 508.542 616.148 509.266V509.82C616.148 510.503 615.93 511.065 615.492 511.508C615.06 511.945 614.505 512.164 613.828 512.164C613.151 512.164 612.591 511.948 612.148 511.516C611.706 511.078 611.484 510.497 611.484 509.773V509.211ZM612.562 509.82C612.562 510.232 612.677 510.57 612.906 510.836C613.135 511.096 613.443 511.227 613.828 511.227C614.203 511.227 614.503 511.099 614.727 510.844C614.951 510.583 615.062 510.232 615.062 509.789V509.211C615.062 508.799 614.948 508.464 614.719 508.203C614.495 507.943 614.193 507.812 613.812 507.812C613.443 507.812 613.141 507.943 612.906 508.203C612.677 508.458 612.562 508.805 612.562 509.242V509.82ZM608.617 511.141L607.797 510.625L613.352 501.734L614.172 502.25L608.617 511.141Z" fill="#333333"/>
<path d="M345.773 289.617V290.844H345.508C344.383 290.865 343.487 291.198 342.82 291.844C342.154 292.49 341.768 293.398 341.664 294.57C342.263 293.883 343.081 293.539 344.117 293.539C345.107 293.539 345.896 293.888 346.484 294.586C347.078 295.284 347.375 296.185 347.375 297.289C347.375 298.461 347.055 299.398 346.414 300.102C345.779 300.805 344.924 301.156 343.852 301.156C342.763 301.156 341.88 300.74 341.203 299.906C340.526 299.068 340.188 297.99 340.188 296.672V296.117C340.188 294.023 340.633 292.424 341.523 291.32C342.419 290.211 343.75 289.643 345.516 289.617H345.773ZM343.875 294.742C343.38 294.742 342.924 294.891 342.508 295.188C342.091 295.484 341.802 295.857 341.641 296.305V296.836C341.641 297.773 341.852 298.529 342.273 299.102C342.695 299.674 343.221 299.961 343.852 299.961C344.503 299.961 345.013 299.721 345.383 299.242C345.758 298.763 345.945 298.135 345.945 297.359C345.945 296.578 345.755 295.948 345.375 295.469C345 294.984 344.5 294.742 343.875 294.742ZM356.43 290.438L351.719 301H350.203L354.898 290.812H348.742V289.625H356.43V290.438ZM357.945 291.812C357.945 291.13 358.161 290.568 358.594 290.125C359.031 289.682 359.591 289.461 360.273 289.461C360.966 289.461 361.526 289.685 361.953 290.133C362.385 290.576 362.602 291.151 362.602 291.859V292.414C362.602 293.102 362.383 293.664 361.945 294.102C361.513 294.534 360.961 294.75 360.289 294.75C359.612 294.75 359.052 294.534 358.609 294.102C358.167 293.664 357.945 293.083 357.945 292.359V291.812ZM359.023 292.414C359.023 292.82 359.138 293.156 359.367 293.422C359.596 293.682 359.904 293.812 360.289 293.812C360.659 293.812 360.956 293.685 361.18 293.43C361.409 293.174 361.523 292.826 361.523 292.383V291.812C361.523 291.406 361.411 291.07 361.188 290.805C360.964 290.539 360.659 290.406 360.273 290.406C359.888 290.406 359.583 290.539 359.359 290.805C359.135 291.07 359.023 291.417 359.023 291.844V292.414ZM363.484 298.211C363.484 297.529 363.701 296.969 364.133 296.531C364.57 296.089 365.13 295.867 365.812 295.867C366.495 295.867 367.055 296.086 367.492 296.523C367.93 296.961 368.148 297.542 368.148 298.266V298.82C368.148 299.503 367.93 300.065 367.492 300.508C367.06 300.945 366.505 301.164 365.828 301.164C365.151 301.164 364.591 300.948 364.148 300.516C363.706 300.078 363.484 299.497 363.484 298.773V298.211ZM364.562 298.82C364.562 299.232 364.677 299.57 364.906 299.836C365.135 300.096 365.443 300.227 365.828 300.227C366.203 300.227 366.503 300.099 366.727 299.844C366.951 299.583 367.062 299.232 367.062 298.789V298.211C367.062 297.799 366.948 297.464 366.719 297.203C366.495 296.943 366.193 296.812 365.812 296.812C365.443 296.812 365.141 296.943 364.906 297.203C364.677 297.458 364.562 297.805 364.562 298.242V298.82ZM360.617 300.141L359.797 299.625L365.352 290.734L366.172 291.25L360.617 300.141Z" fill="#333333"/>
<path d="M553.203 373.18H554.781V374.359H553.203V377H551.75V374.359H546.57V373.508L551.664 365.625H553.203V373.18ZM548.211 373.18H551.75V367.602L551.578 367.914L548.211 373.18ZM556.75 371.297L557.328 365.625H563.156V366.961H558.555L558.211 370.062C558.768 369.734 559.401 369.57 560.109 369.57C561.146 369.57 561.969 369.914 562.578 370.602C563.188 371.284 563.492 372.208 563.492 373.375C563.492 374.547 563.174 375.471 562.539 376.148C561.909 376.82 561.026 377.156 559.891 377.156C558.885 377.156 558.065 376.878 557.43 376.32C556.794 375.763 556.432 374.992 556.344 374.008H557.711C557.799 374.659 558.031 375.151 558.406 375.484C558.781 375.812 559.276 375.977 559.891 375.977C560.562 375.977 561.089 375.747 561.469 375.289C561.854 374.831 562.047 374.198 562.047 373.391C562.047 372.63 561.839 372.021 561.422 371.562C561.01 371.099 560.461 370.867 559.773 370.867C559.143 370.867 558.648 371.005 558.289 371.281L557.906 371.594L556.75 371.297ZM564.945 367.812C564.945 367.13 565.161 366.568 565.594 366.125C566.031 365.682 566.591 365.461 567.273 365.461C567.966 365.461 568.526 365.685 568.953 366.133C569.385 366.576 569.602 367.151 569.602 367.859V368.414C569.602 369.102 569.383 369.664 568.945 370.102C568.513 370.534 567.961 370.75 567.289 370.75C566.612 370.75 566.052 370.534 565.609 370.102C565.167 369.664 564.945 369.083 564.945 368.359V367.812ZM566.023 368.414C566.023 368.82 566.138 369.156 566.367 369.422C566.596 369.682 566.904 369.812 567.289 369.812C567.659 369.812 567.956 369.685 568.18 369.43C568.409 369.174 568.523 368.826 568.523 368.383V367.812C568.523 367.406 568.411 367.07 568.188 366.805C567.964 366.539 567.659 366.406 567.273 366.406C566.888 366.406 566.583 366.539 566.359 366.805C566.135 367.07 566.023 367.417 566.023 367.844V368.414ZM570.484 374.211C570.484 373.529 570.701 372.969 571.133 372.531C571.57 372.089 572.13 371.867 572.812 371.867C573.495 371.867 574.055 372.086 574.492 372.523C574.93 372.961 575.148 373.542 575.148 374.266V374.82C575.148 375.503 574.93 376.065 574.492 376.508C574.06 376.945 573.505 377.164 572.828 377.164C572.151 377.164 571.591 376.948 571.148 376.516C570.706 376.078 570.484 375.497 570.484 374.773V374.211ZM571.562 374.82C571.562 375.232 571.677 375.57 571.906 375.836C572.135 376.096 572.443 376.227 572.828 376.227C573.203 376.227 573.503 376.099 573.727 375.844C573.951 375.583 574.062 375.232 574.062 374.789V374.211C574.062 373.799 573.948 373.464 573.719 373.203C573.495 372.943 573.193 372.812 572.812 372.812C572.443 372.812 572.141 372.943 571.906 373.203C571.677 373.458 571.562 373.805 571.562 374.242V374.82ZM567.617 376.141L566.797 375.625L572.352 366.734L573.172 367.25L567.617 376.141Z" fill="#333333"/>
<path d="M349.328 645.214L352.58 635.203H355.023L350.418 648H348.265L343.677 635.203H346.111L349.328 645.214ZM358.82 648H356.605V635.203H358.82V648ZM361.554 648V635.203H365.333C366.464 635.203 367.466 635.455 368.339 635.959C369.218 636.463 369.897 637.178 370.378 638.104C370.858 639.029 371.099 640.09 371.099 641.285V641.927C371.099 643.14 370.855 644.206 370.369 645.126C369.889 646.046 369.2 646.755 368.304 647.253C367.413 647.751 366.391 648 365.236 648H361.554ZM363.777 636.996V646.225H365.228C366.394 646.225 367.287 645.861 367.908 645.135C368.535 644.402 368.854 643.354 368.866 641.988V641.276C368.866 639.888 368.564 638.827 367.961 638.095C367.357 637.362 366.481 636.996 365.333 636.996H363.777ZM380.793 642.287H375.537V646.225H381.681V648H373.313V635.203H381.619V636.996H375.537V640.529H380.793V642.287ZM393.704 641.936C393.704 643.189 393.487 644.291 393.054 645.24C392.62 646.184 391.999 646.91 391.19 647.42C390.388 647.924 389.462 648.176 388.413 648.176C387.376 648.176 386.45 647.924 385.636 647.42C384.827 646.91 384.2 646.187 383.755 645.249C383.315 644.312 383.093 643.23 383.087 642.006V641.285C383.087 640.037 383.307 638.936 383.746 637.98C384.191 637.025 384.815 636.296 385.618 635.792C386.427 635.282 387.353 635.027 388.396 635.027C389.438 635.027 390.361 635.279 391.164 635.783C391.973 636.281 392.597 637.002 393.036 637.945C393.476 638.883 393.698 639.976 393.704 641.224V641.936ZM391.48 641.268C391.48 639.85 391.211 638.763 390.672 638.007C390.139 637.251 389.38 636.873 388.396 636.873C387.435 636.873 386.682 637.251 386.137 638.007C385.598 638.757 385.322 639.82 385.311 641.197V641.936C385.311 643.342 385.583 644.429 386.128 645.196C386.679 645.964 387.44 646.348 388.413 646.348C389.397 646.348 390.153 645.973 390.681 645.223C391.214 644.473 391.48 643.377 391.48 641.936V641.268ZM402.607 644.704C402.607 644.142 402.408 643.708 402.01 643.403C401.617 643.099 400.905 642.791 399.874 642.48C398.843 642.17 398.022 641.824 397.413 641.443C396.247 640.711 395.664 639.756 395.664 638.578C395.664 637.547 396.083 636.697 396.921 636.029C397.765 635.361 398.857 635.027 400.199 635.027C401.09 635.027 401.884 635.191 402.581 635.52C403.278 635.848 403.826 636.316 404.225 636.926C404.623 637.529 404.822 638.2 404.822 638.938H402.607C402.607 638.271 402.396 637.749 401.975 637.374C401.559 636.993 400.961 636.803 400.182 636.803C399.455 636.803 398.89 636.958 398.485 637.269C398.087 637.579 397.888 638.013 397.888 638.569C397.888 639.038 398.104 639.431 398.538 639.747C398.972 640.058 399.687 640.362 400.683 640.661C401.679 640.954 402.479 641.291 403.082 641.672C403.686 642.047 404.128 642.48 404.409 642.973C404.69 643.459 404.831 644.03 404.831 644.687C404.831 645.753 404.421 646.603 403.601 647.235C402.786 647.862 401.679 648.176 400.278 648.176C399.353 648.176 398.5 648.006 397.721 647.666C396.947 647.32 396.344 646.846 395.91 646.242C395.482 645.639 395.269 644.936 395.269 644.133H397.492C397.492 644.859 397.732 645.422 398.213 645.82C398.693 646.219 399.382 646.418 400.278 646.418C401.052 646.418 401.632 646.263 402.019 645.952C402.411 645.636 402.607 645.22 402.607 644.704Z" fill="#333333"/>
<path d="M548.297 645.021H543.34L542.303 648H539.991L544.825 635.203H546.82L551.663 648H549.343L548.297 645.021ZM543.964 643.228H547.673L545.818 637.919L543.964 643.228ZM557.824 643.069H555.346V648H553.122V635.203H557.622C559.099 635.203 560.238 635.534 561.041 636.196C561.844 636.858 562.245 637.816 562.245 639.07C562.245 639.926 562.037 640.644 561.621 641.224C561.211 641.798 560.637 642.24 559.898 642.551L562.772 647.886V648H560.391L557.824 643.069ZM555.346 641.285H557.631C558.381 641.285 558.967 641.098 559.389 640.723C559.811 640.342 560.021 639.823 560.021 639.167C560.021 638.481 559.825 637.951 559.433 637.576C559.046 637.201 558.466 637.008 557.692 636.996H555.346V641.285ZM573.161 636.996H569.171V648H566.965V636.996H563.01V635.203H573.161V636.996ZM577.195 648H574.98V635.203H577.195V648ZM589.693 643.834C589.564 645.199 589.061 646.266 588.182 647.033C587.303 647.795 586.134 648.176 584.675 648.176C583.655 648.176 582.756 647.936 581.977 647.455C581.203 646.969 580.605 646.28 580.184 645.39C579.762 644.499 579.542 643.465 579.524 642.287V641.092C579.524 639.885 579.738 638.821 580.166 637.901C580.594 636.981 581.206 636.272 582.003 635.774C582.806 635.276 583.731 635.027 584.78 635.027C586.192 635.027 587.329 635.411 588.19 636.179C589.052 636.946 589.553 638.03 589.693 639.431H587.479C587.373 638.511 587.104 637.849 586.67 637.444C586.242 637.034 585.612 636.829 584.78 636.829C583.813 636.829 583.069 637.184 582.548 637.893C582.032 638.596 581.769 639.63 581.757 640.995V642.129C581.757 643.512 582.003 644.566 582.495 645.293C582.993 646.02 583.72 646.383 584.675 646.383C585.548 646.383 586.204 646.187 586.644 645.794C587.083 645.401 587.361 644.748 587.479 643.834H589.693ZM593.912 646.225H599.722V648H591.688V635.203H593.912V646.225ZM608.906 642.287H603.65V646.225H609.794V648H601.427V635.203H609.732V636.996H603.65V640.529H608.906V642.287ZM618.293 644.704C618.293 644.142 618.094 643.708 617.695 643.403C617.303 643.099 616.591 642.791 615.56 642.48C614.528 642.17 613.708 641.824 613.099 641.443C611.933 640.711 611.35 639.756 611.35 638.578C611.35 637.547 611.769 636.697 612.606 636.029C613.45 635.361 614.543 635.027 615.885 635.027C616.775 635.027 617.569 635.191 618.267 635.52C618.964 635.848 619.512 636.316 619.91 636.926C620.309 637.529 620.508 638.2 620.508 638.938H618.293C618.293 638.271 618.082 637.749 617.66 637.374C617.244 636.993 616.646 636.803 615.867 636.803C615.141 636.803 614.575 636.958 614.171 637.269C613.772 637.579 613.573 638.013 613.573 638.569C613.573 639.038 613.79 639.431 614.224 639.747C614.657 640.058 615.372 640.362 616.368 640.661C617.364 640.954 618.164 641.291 618.768 641.672C619.371 642.047 619.813 642.48 620.095 642.973C620.376 643.459 620.517 644.03 620.517 644.687C620.517 645.753 620.106 646.603 619.286 647.235C618.472 647.862 617.364 648.176 615.964 648.176C615.038 648.176 614.186 648.006 613.406 647.666C612.633 647.32 612.029 646.846 611.596 646.242C611.168 645.639 610.954 644.936 610.954 644.133H613.178C613.178 644.859 613.418 645.422 613.898 645.82C614.379 646.219 615.067 646.418 615.964 646.418C616.737 646.418 617.317 646.263 617.704 645.952C618.097 645.636 618.293 645.22 618.293 644.704Z" fill="#333333"/>
</svg>
