<svg width="64" height="64" viewBox="0 0 64 64" fill="none" xmlns="http://www.w3.org/2000/svg">
<path d="M31.185 3.01117C15.389 3.44417 3 16.8012 3 32.6032V41.0002H10V51.0002C10 53.7612 12.239 56.0002 15 56.0002H19V62.0002H49V56.0002C55.491 49.5092 59.702 41.0882 61 32.0002C61 15.7132 47.574 2.56217 31.185 3.01117ZM56 30.0002C56 32.6562 54.521 34.9652 52.342 36.1522C52.747 36.6632 53 37.3012 53 38.0002C53 39.6502 51.65 41.0002 50 41.0002H26C24.35 41.0002 23 39.6502 23 38.0002C23 36.3502 24.35 35.0002 26 35.0002H18C14.134 35.0002 11 31.8662 11 28.0002C11 24.1342 14.134 21.0002 18 21.0002C18.008 21.0002 18.016 21.0012 18.024 21.0012C17.39 20.1632 17 19.1312 17 18.0002C17 15.2392 19.239 13.0002 22 13.0002C23.338 13.0002 24.547 13.5332 25.444 14.3892C26.528 11.2552 29.497 9.00017 33 9.00017C36.717 9.00017 39.832 11.5382 40.731 14.9732C41.672 14.3602 42.793 14.0002 44 14.0002C47.314 14.0002 50 16.6862 50 20.0002C50 21.0982 49.7 22.1242 49.185 23.0092C52.965 23.1082 56 26.1962 56 30.0002Z" fill="#F9F5EF"/>
<path d="M50 20C50 16.686 47.314 14 44 14C42.793 14 41.672 14.36 40.731 14.973C39.832 11.538 36.717 9 33 9C29.497 9 26.528 11.255 25.444 14.389C24.547 13.533 23.338 13 22 13C19.239 13 17 15.239 17 18C17 19.131 17.39 20.163 18.024 21.001C18.016 21.001 18.008 21 18 21C14.134 21 11 24.134 11 28C11 31.866 14.134 35 18 35H26C24.35 35 23 36.35 23 38C23 39.65 24.35 41 26 41H50C51.65 41 53 39.65 53 38C53 37.301 52.747 36.663 52.342 36.152C54.521 34.965 56 32.656 56 30C56 26.196 52.965 23.108 49.185 23.009C49.7 22.124 50 21.098 50 20ZM27 29C25.895 29 24.895 28.552 24.172 27.828C23.874 27.53 23.637 27.176 23.445 26.796C23.376 26.66 23.313 26.523 23.26 26.379C23.1 25.948 23 25.487 23 25C23 23.895 23.448 22.895 24.172 22.172C24.895 21.448 25.895 21 27 21C28.105 21 29.105 21.448 29.828 22.172C30.19 22.534 30.483 22.965 30.685 23.443C30.888 23.922 31 24.448 31 25C31 25.487 30.9 25.948 30.741 26.379C30.688 26.523 30.625 26.66 30.556 26.796C30.363 27.176 30.127 27.53 29.829 27.828C29.105 28.552 28.105 29 27 29ZM41 32C39.895 32 38.895 31.552 38.172 30.828C37.874 30.53 37.637 30.176 37.445 29.796C37.376 29.66 37.313 29.523 37.26 29.379C37.1 28.948 37 28.487 37 28C37 26.895 37.448 25.895 38.172 25.172C38.895 24.448 39.895 24 41 24C42.105 24 43.105 24.448 43.828 25.172C44.19 25.534 44.483 25.965 44.685 26.443C44.888 26.922 45 27.448 45 28C45 28.487 44.9 28.948 44.741 29.379C44.688 29.523 44.625 29.66 44.556 29.796C44.363 30.176 44.127 30.53 43.829 30.828C43.105 31.552 42.105 32 41 32Z" fill="#F8CF26"/>
<path d="M30.741 26.379C30.9 25.948 31 25.487 31 25C31 24.448 30.888 23.922 30.686 23.443C30.484 22.964 30.191 22.534 29.829 22.172C29.105 21.448 28.105 21 27 21C25.895 21 24.895 21.448 24.172 22.172C23.448 22.895 23 23.895 23 25C23 25.487 23.1 25.948 23.259 26.379C23.312 26.523 23.375 26.66 23.444 26.796C23.637 27.176 23.873 27.53 24.171 27.828C24.895 28.552 25.895 29 27 29C28.105 29 29.105 28.552 29.828 27.828C30.126 27.53 30.363 27.176 30.555 26.796C30.625 26.66 30.688 26.523 30.741 26.379Z" fill="#F9F5EF"/>
<path d="M44.741 29.379C44.9 28.948 45 28.487 45 28C45 27.448 44.888 26.922 44.686 26.443C44.484 25.964 44.191 25.534 43.829 25.172C43.105 24.448 42.105 24 41 24C39.895 24 38.895 24.448 38.172 25.172C37.448 25.895 37 26.895 37 28C37 28.487 37.1 28.948 37.259 29.379C37.312 29.523 37.375 29.66 37.444 29.796C37.637 30.176 37.873 30.53 38.171 30.828C38.895 31.552 39.895 32 41 32C42.105 32 43.105 31.552 43.828 30.828C44.126 30.53 44.363 30.176 44.555 29.796C44.625 29.66 44.688 29.523 44.741 29.379Z" fill="#F9F5EF"/>
<path d="M3 41.9999H9V50.9999C9 54.3089 11.691 56.9999 15 56.9999H18V61.9999H20V55.9999C20 55.4479 19.552 54.9999 19 54.9999H15C12.794 54.9999 11 53.2059 11 50.9999V40.9999C11 40.4479 10.552 39.9999 10 39.9999H4V31.9999C4 24.1889 7.136 16.9409 12.832 11.5899C18.522 6.24289 25.971 3.56389 33.798 4.05589C47.867 4.93389 59.364 16.6619 59.974 30.7569C60.32 38.7669 53.199 50.1439 48.277 55.3099C48.099 55.4959 48 55.7429 48 55.9999V61.9999H50V56.3959C55.285 50.7099 62.34 39.2069 61.971 30.6709C61.318 15.5679 48.998 2.99989 33.922 2.05989C25.534 1.53889 17.559 4.40289 11.462 10.1319C5.449 15.7819 2 23.7519 2 31.9999V40.9999C2 41.5519 2.448 41.9999 3 41.9999Z" fill="black"/>
<path d="M54 38C54 37.474 53.895 36.96 53.692 36.48C55.754 34.987 57 32.586 57 30C57 26.126 54.308 22.927 50.65 22.174C50.881 21.474 51 20.74 51 20C51 16.14 47.86 13 44 13C43.067 13 42.153 13.186 41.302 13.542C39.924 10.226 36.667 8 33 8C29.622 8 26.565 9.895 25.031 12.829C24.117 12.289 23.076 12 22 12C18.691 12 16 14.691 16 18C16 18.745 16.14 19.473 16.411 20.159C12.758 20.898 10 24.133 10 28C10 32.411 13.589 36 18 36H22.537C22.195 36.589 22 37.272 22 38C22 40.206 23.794 42 26 42H50C52.206 42 54 40.206 54 38ZM24 38C24 36.897 24.897 36 26 36C26.552 36 27 35.552 27 35C27 34.448 26.552 34 26 34H18C14.691 34 12 31.309 12 28C12 24.692 14.69 22.001 18.021 22.001C18.021 22.001 18.022 22.001 18.023 22.001C18.402 22.001 18.749 21.786 18.918 21.446C19.087 21.107 19.049 20.7 18.821 20.398C18.284 19.687 18 18.858 18 18C18 15.794 19.794 14 22 14C23.023 14 24.002 14.395 24.754 15.113C25.001 15.349 25.351 15.443 25.68 15.361C26.011 15.281 26.278 15.038 26.389 14.716C27.365 11.895 30.021 10 33 10C36.177 10 38.958 12.149 39.764 15.226C39.845 15.537 40.071 15.789 40.371 15.905C40.671 16.022 41.008 15.985 41.277 15.81C42.09 15.28 43.032 15 44 15C46.757 15 49 17.243 49 20C49 20.876 48.765 21.743 48.321 22.506C48.143 22.811 48.14 23.188 48.312 23.496C48.484 23.804 48.806 23.999 49.159 24.008C52.434 24.095 55 26.727 55 30C55 32.199 53.798 34.22 51.864 35.273C51.605 35.414 51.422 35.663 51.363 35.952C51.304 36.241 51.376 36.541 51.559 36.773C51.76 37.027 52 37.446 52 38C52 39.103 51.103 40 50 40H26C24.897 40 24 39.103 24 38Z" fill="black"/>
<path d="M31.172 27.758C31.223 27.681 31.26 27.598 31.307 27.518C31.353 27.439 31.399 27.361 31.441 27.279C31.489 27.185 31.536 27.092 31.578 26.995C31.599 26.947 31.616 26.897 31.636 26.848C31.669 26.767 31.7 26.685 31.729 26.602C31.775 26.467 31.812 26.329 31.846 26.189C31.859 26.134 31.88 26.083 31.892 26.027C31.894 26.018 31.898 26.01 31.899 26.001C31.899 26 31.9 25.999 31.9 25.998H34V23.998H31.899C31.889 23.95 31.868 23.906 31.857 23.858C31.802 23.623 31.731 23.393 31.643 23.169C31.621 23.113 31.603 23.056 31.579 23.001C31.464 22.737 31.333 22.48 31.173 22.239L32.657 20.755L31.243 19.341L29.753 20.831C29.229 20.483 28.637 20.229 28 20.099V18H26V20.101C25.999 20.101 25.998 20.102 25.997 20.102C25.988 20.104 25.98 20.107 25.971 20.109C25.687 20.169 25.415 20.258 25.15 20.364C25.068 20.397 24.991 20.435 24.911 20.472C24.716 20.562 24.528 20.664 24.348 20.778C24.316 20.798 24.279 20.812 24.247 20.833L22.757 19.343L21.343 20.757L22.827 22.241C22.776 22.318 22.739 22.401 22.692 22.481C22.646 22.56 22.6 22.638 22.558 22.72C22.51 22.814 22.463 22.907 22.421 23.004C22.4 23.052 22.383 23.102 22.363 23.151C22.33 23.232 22.299 23.314 22.27 23.397C22.224 23.532 22.187 23.67 22.153 23.81C22.14 23.865 22.119 23.916 22.107 23.972C22.105 23.981 22.101 23.989 22.1 23.998C22.1 23.999 22.099 24 22.099 24.001H20V26.001H22.101C22.111 26.049 22.132 26.093 22.143 26.141C22.198 26.376 22.269 26.606 22.357 26.83C22.379 26.886 22.397 26.943 22.421 26.998C22.536 27.262 22.667 27.519 22.827 27.76L21.343 29.244L22.757 30.658L24.247 29.168C24.771 29.516 25.363 29.77 26 29.9V32H28V29.899C28.001 29.899 28.002 29.898 28.003 29.898C28.012 29.896 28.02 29.893 28.029 29.891C28.313 29.831 28.585 29.742 28.85 29.636C28.932 29.603 29.009 29.565 29.089 29.528C29.284 29.438 29.472 29.336 29.652 29.222C29.684 29.202 29.721 29.188 29.753 29.167L30.294 29.708L31.243 30.657L32.657 29.243L31.708 28.294L31.172 27.758ZM29.939 25.6C29.931 25.637 29.915 25.671 29.906 25.708C29.868 25.865 29.825 26.02 29.764 26.166C29.757 26.183 29.745 26.198 29.738 26.215C29.271 27.264 28.222 28 27 28C25.776 28 24.724 27.261 24.258 26.207C24.252 26.193 24.242 26.18 24.236 26.165C24.174 26.019 24.131 25.863 24.093 25.706C24.084 25.67 24.068 25.636 24.061 25.6C24.021 25.406 24 25.205 24 25C24 24.795 24.021 24.594 24.061 24.4C24.068 24.364 24.084 24.331 24.093 24.295C24.131 24.137 24.174 23.981 24.236 23.834C24.243 23.818 24.253 23.804 24.26 23.789C24.726 22.738 25.777 22 27 22C28.22 22 29.268 22.735 29.737 23.783C29.745 23.801 29.757 23.817 29.765 23.835C29.827 23.981 29.869 24.137 29.908 24.294C29.917 24.33 29.933 24.364 29.94 24.4C29.979 24.594 30 24.795 30 25C30 25.205 29.979 25.406 29.939 25.6Z" fill="black"/>
<path d="M45.857 26.86C45.802 26.625 45.731 26.395 45.643 26.171C45.621 26.115 45.603 26.058 45.579 26.003C45.464 25.739 45.333 25.482 45.173 25.241L46.657 23.757L45.243 22.343L43.753 23.833C43.229 23.485 42.637 23.231 42 23.101V21H40V23.101C39.999 23.101 39.998 23.102 39.997 23.102C39.988 23.104 39.98 23.107 39.971 23.109C39.687 23.169 39.415 23.258 39.15 23.364C39.068 23.397 38.991 23.435 38.911 23.472C38.716 23.562 38.528 23.664 38.348 23.778C38.316 23.798 38.279 23.812 38.247 23.833L36.757 22.343L35.343 23.757L36.827 25.241C36.776 25.318 36.739 25.401 36.692 25.481C36.646 25.56 36.6 25.638 36.558 25.72C36.51 25.814 36.463 25.907 36.421 26.004C36.4 26.052 36.383 26.102 36.363 26.151C36.33 26.232 36.299 26.314 36.27 26.397C36.224 26.532 36.187 26.67 36.153 26.81C36.14 26.865 36.119 26.916 36.107 26.972C36.105 26.981 36.101 26.989 36.1 26.998C36.1 26.999 36.099 27 36.099 27.001H34V29.001H36.101C36.111 29.049 36.132 29.093 36.143 29.141C36.198 29.376 36.269 29.606 36.357 29.83C36.379 29.886 36.397 29.943 36.421 29.998C36.536 30.262 36.667 30.519 36.827 30.76L35.343 32.244L36.757 33.658L38.247 32.168C38.771 32.516 39.363 32.77 40 32.9V35H42V32.899C42.001 32.899 42.002 32.898 42.003 32.898C42.012 32.896 42.02 32.893 42.029 32.891C42.313 32.831 42.585 32.742 42.85 32.636C42.932 32.603 43.009 32.565 43.089 32.528C43.284 32.438 43.472 32.336 43.652 32.222C43.684 32.202 43.721 32.188 43.753 32.167L44.294 32.708L45.243 33.657L46.657 32.243L45.708 31.294L45.172 30.758C45.223 30.681 45.26 30.598 45.307 30.518C45.353 30.439 45.399 30.361 45.441 30.279C45.489 30.185 45.536 30.092 45.578 29.995C45.599 29.947 45.616 29.897 45.636 29.848C45.669 29.767 45.7 29.685 45.729 29.602C45.775 29.467 45.812 29.329 45.846 29.189C45.859 29.134 45.88 29.083 45.892 29.027C45.894 29.018 45.898 29.01 45.899 29.001C45.899 29 45.9 28.999 45.9 28.998H48V26.998H45.899C45.889 26.952 45.868 26.908 45.857 26.86ZM43.939 28.6C43.931 28.637 43.915 28.671 43.906 28.708C43.868 28.865 43.825 29.02 43.764 29.166C43.757 29.183 43.745 29.198 43.738 29.215C43.271 30.264 42.222 31 41 31C39.776 31 38.724 30.261 38.258 29.207C38.252 29.193 38.242 29.18 38.236 29.165C38.174 29.019 38.131 28.863 38.093 28.706C38.084 28.67 38.068 28.636 38.061 28.6C38.021 28.406 38 28.205 38 28C38 27.795 38.021 27.594 38.061 27.4C38.068 27.364 38.084 27.331 38.093 27.295C38.131 27.137 38.174 26.981 38.236 26.834C38.243 26.818 38.253 26.804 38.26 26.789C38.726 25.738 39.777 25 41 25C42.22 25 43.268 25.735 43.737 26.783C43.745 26.801 43.757 26.817 43.765 26.835C43.827 26.981 43.869 27.137 43.908 27.294C43.917 27.33 43.933 27.364 43.94 27.4C43.979 27.594 44 27.795 44 28C44 28.205 43.979 28.406 43.939 28.6Z" fill="black"/>
</svg>
