<svg width="907" height="187" viewBox="0 0 907 187" fill="none" xmlns="http://www.w3.org/2000/svg">
<rect width="140" height="56" rx="14" fill="#F7FAFF"/>
<rect y="131" width="140" height="56" rx="14" fill="#F7FAFF"/>
<rect x="374" width="256" height="56" rx="14" fill="#F7FAFF"/>
<rect x="374" y="131" width="288" height="56" rx="14" fill="#F7FAFF"/>
<path d="M42.6719 25.4929H44.1534C44.1087 23.8622 42.6669 22.679 40.5987 22.679C38.5554 22.679 36.9893 23.8473 36.9893 25.6023C36.9893 27.0192 38.0036 27.8494 39.6392 28.2919L40.8423 28.62C41.9311 28.9084 42.7713 29.2663 42.7713 30.1712C42.7713 31.1655 41.8217 31.8217 40.5142 31.8217C39.331 31.8217 38.3466 31.2947 38.2571 30.1861H36.7159C36.8153 32.0305 38.2422 33.169 40.5241 33.169C42.9155 33.169 44.2926 31.9112 44.2926 30.1861C44.2926 28.3516 42.657 27.6406 41.3643 27.3224L40.37 27.0639C39.5746 26.8601 38.5156 26.4872 38.5206 25.5128C38.5206 24.6477 39.3111 24.0064 40.5639 24.0064C41.7322 24.0064 42.5625 24.5533 42.6719 25.4929ZM50.8464 29.8331C50.8514 31.1307 49.8869 31.7472 49.0517 31.7472C48.1319 31.7472 47.4956 31.081 47.4956 30.0419V25.3636H46.0091V30.2209C46.0091 32.1151 47.0481 33.0994 48.5147 33.0994C49.6632 33.0994 50.4437 32.4929 50.7967 31.6776H50.8762V33H52.3379V25.3636H50.8464V29.8331ZM54.4545 33H55.9062V31.8118H56.0305C56.299 32.299 56.8459 33.1491 58.2379 33.1491C60.0874 33.1491 61.4297 31.6676 61.4297 29.1967C61.4297 26.7209 60.0675 25.2642 58.223 25.2642C56.8061 25.2642 56.294 26.1293 56.0305 26.6016H55.9411V22.8182H54.4545V33ZM55.9112 29.1818C55.9112 27.5859 56.6072 26.527 57.9048 26.527C59.2521 26.527 59.9283 27.6655 59.9283 29.1818C59.9283 30.7131 59.2322 31.8814 57.9048 31.8814C56.6271 31.8814 55.9112 30.7876 55.9112 29.1818ZM63.0989 33H64.5854V28.2919C64.5854 27.2628 65.3063 26.5469 66.1515 26.5469C66.9767 26.5469 67.5485 27.0938 67.5485 27.924V33H69.03V28.1328C69.03 27.2131 69.5918 26.5469 70.5613 26.5469C71.3468 26.5469 71.9931 26.9844 71.9931 28.0185V33H73.4796V27.8793C73.4796 26.1342 72.5051 25.2642 71.123 25.2642C70.0243 25.2642 69.199 25.7912 68.8311 26.6065H68.7516C68.4185 25.7713 67.7175 25.2642 66.6983 25.2642C65.6891 25.2642 64.9384 25.7663 64.6202 26.6065H64.5257V25.3636H63.0989V33ZM75.4719 33H76.9585V25.3636H75.4719V33ZM76.2227 24.1854C76.7347 24.1854 77.1623 23.7876 77.1623 23.3004C77.1623 22.8132 76.7347 22.4105 76.2227 22.4105C75.7056 22.4105 75.283 22.8132 75.283 23.3004C75.283 23.7876 75.7056 24.1854 76.2227 24.1854ZM82.5229 25.3636H80.9569V23.5341H79.4703V25.3636H78.3517V26.5568H79.4703V31.0661C79.4654 32.4531 80.5243 33.1243 81.6976 33.0994C82.1699 33.0945 82.4881 33.005 82.6621 32.9403L82.3936 31.7124C82.2942 31.7322 82.1103 31.777 81.8716 31.777C81.3894 31.777 80.9569 31.6179 80.9569 30.7578V26.5568H82.5229V25.3636ZM87.7319 25.3636H86.1658V23.5341H84.6793V25.3636H83.5607V26.5568H84.6793V31.0661C84.6744 32.4531 85.7333 33.1243 86.9066 33.0994C87.3789 33.0945 87.6971 33.005 87.8711 32.9403L87.6026 31.7124C87.5032 31.7322 87.3192 31.777 87.0806 31.777C86.5984 31.777 86.1658 31.6179 86.1658 30.7578V26.5568H87.7319V25.3636ZM91.5985 33.169C92.8613 33.169 93.5723 32.5277 93.8556 31.956H93.9153V33H95.367V27.929C95.367 25.7067 93.617 25.2642 92.4039 25.2642C91.0218 25.2642 89.7491 25.821 89.252 27.2131L90.649 27.5312C90.8677 26.9893 91.4245 26.4673 92.4238 26.4673C93.3833 26.4673 93.8755 26.9695 93.8755 27.8345V27.8693C93.8755 28.4112 93.3187 28.4013 91.9466 28.5604C90.4998 28.7294 89.0183 29.1072 89.0183 30.8423C89.0183 32.3438 90.1468 33.169 91.5985 33.169ZM91.9217 31.9759C91.0815 31.9759 90.475 31.598 90.475 30.8622C90.475 30.0668 91.1809 29.7834 92.041 29.669C92.5233 29.6044 93.6667 29.4751 93.8805 29.2614V30.2457C93.8805 31.1506 93.1596 31.9759 91.9217 31.9759ZM98.8335 22.8182H97.3469V33H98.8335V22.8182ZM106.556 27.228C106.247 26.0398 105.318 25.2642 103.667 25.2642C101.942 25.2642 100.719 26.174 100.719 27.5263C100.719 28.6101 101.375 29.331 102.807 29.6491L104.1 29.9325C104.835 30.0966 105.178 30.4247 105.178 30.902C105.178 31.4936 104.547 31.956 103.573 31.956C102.683 31.956 102.111 31.5732 101.932 30.8224L100.495 31.0412C100.744 32.3935 101.867 33.1541 103.583 33.1541C105.427 33.1541 106.705 32.1747 106.705 30.7926C106.705 29.7138 106.019 29.0476 104.617 28.7244L103.404 28.446C102.563 28.2472 102.2 27.9638 102.205 27.4467C102.2 26.8601 102.837 26.4425 103.682 26.4425C104.607 26.4425 105.034 26.9545 105.208 27.4666L106.556 27.228Z" fill="#2C2D53"/>
<path d="M42.6719 156.493H44.1534C44.1087 154.862 42.6669 153.679 40.5987 153.679C38.5554 153.679 36.9893 154.847 36.9893 156.602C36.9893 158.019 38.0036 158.849 39.6392 159.292L40.8423 159.62C41.9311 159.908 42.7713 160.266 42.7713 161.171C42.7713 162.165 41.8217 162.822 40.5142 162.822C39.331 162.822 38.3466 162.295 38.2571 161.186H36.7159C36.8153 163.031 38.2422 164.169 40.5241 164.169C42.9155 164.169 44.2926 162.911 44.2926 161.186C44.2926 159.352 42.657 158.641 41.3643 158.322L40.37 158.064C39.5746 157.86 38.5156 157.487 38.5206 156.513C38.5206 155.648 39.3111 155.006 40.5639 155.006C41.7322 155.006 42.5625 155.553 42.6719 156.493ZM50.8464 160.833C50.8514 162.131 49.8869 162.747 49.0517 162.747C48.1319 162.747 47.4956 162.081 47.4956 161.042V156.364H46.0091V161.221C46.0091 163.115 47.0481 164.099 48.5147 164.099C49.6632 164.099 50.4437 163.493 50.7967 162.678H50.8762V164H52.3379V156.364H50.8464V160.833ZM54.4545 164H55.9062V162.812H56.0305C56.299 163.299 56.8459 164.149 58.2379 164.149C60.0874 164.149 61.4297 162.668 61.4297 160.197C61.4297 157.721 60.0675 156.264 58.223 156.264C56.8061 156.264 56.294 157.129 56.0305 157.602H55.9411V153.818H54.4545V164ZM55.9112 160.182C55.9112 158.586 56.6072 157.527 57.9048 157.527C59.2521 157.527 59.9283 158.665 59.9283 160.182C59.9283 161.713 59.2322 162.881 57.9048 162.881C56.6271 162.881 55.9112 161.788 55.9112 160.182ZM63.0989 164H64.5854V159.292C64.5854 158.263 65.3063 157.547 66.1515 157.547C66.9767 157.547 67.5485 158.094 67.5485 158.924V164H69.03V159.133C69.03 158.213 69.5918 157.547 70.5613 157.547C71.3468 157.547 71.9931 157.984 71.9931 159.018V164H73.4796V158.879C73.4796 157.134 72.5051 156.264 71.123 156.264C70.0243 156.264 69.199 156.791 68.8311 157.607H68.7516C68.4185 156.771 67.7175 156.264 66.6983 156.264C65.6891 156.264 64.9384 156.766 64.6202 157.607H64.5257V156.364H63.0989V164ZM75.4719 164H76.9585V156.364H75.4719V164ZM76.2227 155.185C76.7347 155.185 77.1623 154.788 77.1623 154.3C77.1623 153.813 76.7347 153.411 76.2227 153.411C75.7056 153.411 75.283 153.813 75.283 154.3C75.283 154.788 75.7056 155.185 76.2227 155.185ZM82.5229 156.364H80.9569V154.534H79.4703V156.364H78.3517V157.557H79.4703V162.066C79.4654 163.453 80.5243 164.124 81.6976 164.099C82.1699 164.094 82.4881 164.005 82.6621 163.94L82.3936 162.712C82.2942 162.732 82.1103 162.777 81.8716 162.777C81.3894 162.777 80.9569 162.618 80.9569 161.758V157.557H82.5229V156.364ZM87.7319 156.364H86.1658V154.534H84.6793V156.364H83.5607V157.557H84.6793V162.066C84.6744 163.453 85.7333 164.124 86.9066 164.099C87.3789 164.094 87.6971 164.005 87.8711 163.94L87.6026 162.712C87.5032 162.732 87.3192 162.777 87.0806 162.777C86.5984 162.777 86.1658 162.618 86.1658 161.758V157.557H87.7319V156.364ZM91.5985 164.169C92.8613 164.169 93.5723 163.528 93.8556 162.956H93.9153V164H95.367V158.929C95.367 156.707 93.617 156.264 92.4039 156.264C91.0218 156.264 89.7491 156.821 89.252 158.213L90.649 158.531C90.8677 157.989 91.4245 157.467 92.4238 157.467C93.3833 157.467 93.8755 157.969 93.8755 158.835V158.869C93.8755 159.411 93.3187 159.401 91.9466 159.56C90.4998 159.729 89.0183 160.107 89.0183 161.842C89.0183 163.344 90.1468 164.169 91.5985 164.169ZM91.9217 162.976C91.0815 162.976 90.475 162.598 90.475 161.862C90.475 161.067 91.1809 160.783 92.041 160.669C92.5233 160.604 93.6667 160.475 93.8805 160.261V161.246C93.8805 162.151 93.1596 162.976 91.9217 162.976ZM98.8335 153.818H97.3469V164H98.8335V153.818ZM106.556 158.228C106.247 157.04 105.318 156.264 103.667 156.264C101.942 156.264 100.719 157.174 100.719 158.526C100.719 159.61 101.375 160.331 102.807 160.649L104.1 160.933C104.835 161.097 105.178 161.425 105.178 161.902C105.178 162.494 104.547 162.956 103.573 162.956C102.683 162.956 102.111 162.573 101.932 161.822L100.495 162.041C100.744 163.393 101.867 164.154 103.583 164.154C105.427 164.154 106.705 163.175 106.705 161.793C106.705 160.714 106.019 160.048 104.617 159.724L103.404 159.446C102.563 159.247 102.2 158.964 102.205 158.447C102.2 157.86 102.837 157.442 103.682 157.442C104.607 157.442 105.034 157.955 105.208 158.467L106.556 158.228Z" fill="#2C2D53"/>
<path d="M416.672 25.4929H418.153C418.109 23.8622 416.667 22.679 414.599 22.679C412.555 22.679 410.989 23.8473 410.989 25.6023C410.989 27.0192 412.004 27.8494 413.639 28.2919L414.842 28.62C415.931 28.9084 416.771 29.2663 416.771 30.1712C416.771 31.1655 415.822 31.8217 414.514 31.8217C413.331 31.8217 412.347 31.2947 412.257 30.1861H410.716C410.815 32.0305 412.242 33.169 414.524 33.169C416.915 33.169 418.293 31.9112 418.293 30.1861C418.293 28.3516 416.657 27.6406 415.364 27.3224L414.37 27.0639C413.575 26.8601 412.516 26.4872 412.521 25.5128C412.521 24.6477 413.311 24.0064 414.564 24.0064C415.732 24.0064 416.562 24.5533 416.672 25.4929ZM424.846 29.8331C424.851 31.1307 423.887 31.7472 423.052 31.7472C422.132 31.7472 421.496 31.081 421.496 30.0419V25.3636H420.009V30.2209C420.009 32.1151 421.048 33.0994 422.515 33.0994C423.663 33.0994 424.444 32.4929 424.797 31.6776H424.876V33H426.338V25.3636H424.846V29.8331ZM428.455 33H429.906V31.8118H430.031C430.299 32.299 430.846 33.1491 432.238 33.1491C434.087 33.1491 435.43 31.6676 435.43 29.1967C435.43 26.7209 434.067 25.2642 432.223 25.2642C430.806 25.2642 430.294 26.1293 430.031 26.6016H429.941V22.8182H428.455V33ZM429.911 29.1818C429.911 27.5859 430.607 26.527 431.905 26.527C433.252 26.527 433.928 27.6655 433.928 29.1818C433.928 30.7131 433.232 31.8814 431.905 31.8814C430.627 31.8814 429.911 30.7876 429.911 29.1818ZM437.099 33H438.585V28.2919C438.585 27.2628 439.306 26.5469 440.151 26.5469C440.977 26.5469 441.548 27.0938 441.548 27.924V33H443.03V28.1328C443.03 27.2131 443.592 26.5469 444.561 26.5469C445.347 26.5469 445.993 26.9844 445.993 28.0185V33H447.48V27.8793C447.48 26.1342 446.505 25.2642 445.123 25.2642C444.024 25.2642 443.199 25.7912 442.831 26.6065H442.752C442.419 25.7713 441.718 25.2642 440.698 25.2642C439.689 25.2642 438.938 25.7663 438.62 26.6065H438.526V25.3636H437.099V33ZM449.472 33H450.958V25.3636H449.472V33ZM450.223 24.1854C450.735 24.1854 451.162 23.7876 451.162 23.3004C451.162 22.8132 450.735 22.4105 450.223 22.4105C449.706 22.4105 449.283 22.8132 449.283 23.3004C449.283 23.7876 449.706 24.1854 450.223 24.1854ZM456.523 25.3636H454.957V23.5341H453.47V25.3636H452.352V26.5568H453.47V31.0661C453.465 32.4531 454.524 33.1243 455.698 33.0994C456.17 33.0945 456.488 33.005 456.662 32.9403L456.394 31.7124C456.294 31.7322 456.11 31.777 455.872 31.777C455.389 31.777 454.957 31.6179 454.957 30.7578V26.5568H456.523V25.3636ZM461.732 25.3636H460.166V23.5341H458.679V25.3636H457.561V26.5568H458.679V31.0661C458.674 32.4531 459.733 33.1243 460.907 33.0994C461.379 33.0945 461.697 33.005 461.871 32.9403L461.603 31.7124C461.503 31.7322 461.319 31.777 461.081 31.777C460.598 31.777 460.166 31.6179 460.166 30.7578V26.5568H461.732V25.3636ZM465.599 33.169C466.861 33.169 467.572 32.5277 467.856 31.956H467.915V33H469.367V27.929C469.367 25.7067 467.617 25.2642 466.404 25.2642C465.022 25.2642 463.749 25.821 463.252 27.2131L464.649 27.5312C464.868 26.9893 465.425 26.4673 466.424 26.4673C467.383 26.4673 467.876 26.9695 467.876 27.8345V27.8693C467.876 28.4112 467.319 28.4013 465.947 28.5604C464.5 28.7294 463.018 29.1072 463.018 30.8423C463.018 32.3438 464.147 33.169 465.599 33.169ZM465.922 31.9759C465.081 31.9759 464.475 31.598 464.475 30.8622C464.475 30.0668 465.181 29.7834 466.041 29.669C466.523 29.6044 467.667 29.4751 467.881 29.2614V30.2457C467.881 31.1506 467.16 31.9759 465.922 31.9759ZM472.833 22.8182H471.347V33H472.833V22.8182ZM480.556 27.228C480.247 26.0398 479.318 25.2642 477.667 25.2642C475.942 25.2642 474.719 26.174 474.719 27.5263C474.719 28.6101 475.375 29.331 476.807 29.6491L478.1 29.9325C478.835 30.0966 479.178 30.4247 479.178 30.902C479.178 31.4936 478.547 31.956 477.573 31.956C476.683 31.956 476.111 31.5732 475.932 30.8224L474.495 31.0412C474.744 32.3935 475.867 33.1541 477.583 33.1541C479.427 33.1541 480.705 32.1747 480.705 30.7926C480.705 29.7138 480.019 29.0476 478.617 28.7244L477.404 28.446C476.563 28.2472 476.2 27.9638 476.205 27.4467C476.2 26.8601 476.837 26.4425 477.682 26.4425C478.607 26.4425 479.034 26.9545 479.208 27.4666L480.556 27.228ZM487.531 28.4659C487.531 27.2479 488.276 26.5518 489.311 26.5518C490.32 26.5518 490.931 27.2131 490.931 28.3217V33H492.418V28.1428C492.418 26.2536 491.379 25.2642 489.818 25.2642C488.669 25.2642 487.919 25.7962 487.566 26.6065H487.471V25.3636H486.044V33H487.531V28.4659ZM497.703 33.1541C499.368 33.1541 500.546 32.3338 500.884 31.0909L499.477 30.8374C499.209 31.5582 498.563 31.9261 497.718 31.9261C496.445 31.9261 495.59 31.1009 495.55 29.6293H500.979V29.1023C500.979 26.343 499.328 25.2642 497.598 25.2642C495.47 25.2642 494.068 26.8849 494.068 29.2315C494.068 31.603 495.45 33.1541 497.703 33.1541ZM495.555 28.5156C495.615 27.4318 496.4 26.4922 497.608 26.4922C498.762 26.4922 499.517 27.3473 499.522 28.5156H495.555ZM505.919 33.1541C507.585 33.1541 508.763 32.3338 509.101 31.0909L507.694 30.8374C507.426 31.5582 506.779 31.9261 505.934 31.9261C504.662 31.9261 503.806 31.1009 503.767 29.6293H509.196V29.1023C509.196 26.343 507.545 25.2642 505.815 25.2642C503.687 25.2642 502.285 26.8849 502.285 29.2315C502.285 31.603 503.667 33.1541 505.919 33.1541ZM503.772 28.5156C503.831 27.4318 504.617 26.4922 505.825 26.4922C506.978 26.4922 507.734 27.3473 507.739 28.5156H503.772ZM513.704 33.1491C515.096 33.1491 515.643 32.299 515.911 31.8118H516.035V33H517.487V22.8182H516.001V26.6016H515.911C515.643 26.1293 515.135 25.2642 513.714 25.2642C511.869 25.2642 510.512 26.7209 510.512 29.1967C510.512 31.6676 511.849 33.1491 513.704 33.1491ZM514.032 31.8814C512.704 31.8814 512.013 30.7131 512.013 29.1818C512.013 27.6655 512.689 26.527 514.032 26.527C515.329 26.527 516.025 27.5859 516.025 29.1818C516.025 30.7876 515.314 31.8814 514.032 31.8814ZM526.53 33.1541C528.335 33.1541 529.503 32.0703 529.667 30.5838H528.221C528.032 31.4091 527.39 31.8963 526.54 31.8963C525.282 31.8963 524.472 30.8473 524.472 29.1818C524.472 27.5462 525.297 26.517 526.54 26.517C527.485 26.517 528.062 27.1136 528.221 27.8295H529.667C529.508 26.2884 528.251 25.2642 526.515 25.2642C524.363 25.2642 522.971 26.8849 522.971 29.2166C522.971 31.5185 524.313 33.1541 526.53 33.1541ZM534.474 33.1541C536.626 33.1541 538.033 31.5781 538.033 29.2166C538.033 26.8402 536.626 25.2642 534.474 25.2642C532.321 25.2642 530.914 26.8402 530.914 29.2166C530.914 31.5781 532.321 33.1541 534.474 33.1541ZM534.479 31.9062C533.072 31.9062 532.415 30.6783 532.415 29.2116C532.415 27.75 533.072 26.5071 534.479 26.5071C535.876 26.5071 536.532 27.75 536.532 29.2116C536.532 30.6783 535.876 31.9062 534.479 31.9062ZM544.192 28.0533H539.678V29.3409H544.192V28.0533ZM546.173 33H547.66V28.3366C547.66 27.3374 548.43 26.6165 549.484 26.6165C549.792 26.6165 550.14 26.6712 550.26 26.706V25.2841C550.111 25.2642 549.817 25.2493 549.628 25.2493C548.733 25.2493 547.968 25.7564 547.689 26.5767H547.61V25.3636H546.173V33ZM554.564 33.1541C556.229 33.1541 557.408 32.3338 557.746 31.0909L556.339 30.8374C556.07 31.5582 555.424 31.9261 554.579 31.9261C553.306 31.9261 552.451 31.1009 552.411 29.6293H557.84V29.1023C557.84 26.343 556.19 25.2642 554.46 25.2642C552.332 25.2642 550.93 26.8849 550.93 29.2315C550.93 31.603 552.312 33.1541 554.564 33.1541ZM552.416 28.5156C552.476 27.4318 553.261 26.4922 554.469 26.4922C555.623 26.4922 556.379 27.3473 556.384 28.5156H552.416ZM565.79 25.3636H564.194L562.265 31.2401H562.185L560.251 25.3636H558.656L561.43 33H563.021L565.79 25.3636ZM567.187 33H568.673V25.3636H567.187V33ZM567.938 24.1854C568.45 24.1854 568.877 23.7876 568.877 23.3004C568.877 22.8132 568.45 22.4105 567.938 22.4105C567.42 22.4105 566.998 22.8132 566.998 23.3004C566.998 23.7876 567.42 24.1854 567.938 24.1854ZM573.964 33.1541C575.63 33.1541 576.808 32.3338 577.146 31.0909L575.739 30.8374C575.471 31.5582 574.824 31.9261 573.979 31.9261C572.706 31.9261 571.851 31.1009 571.812 29.6293H577.241V29.1023C577.241 26.343 575.59 25.2642 573.86 25.2642C571.732 25.2642 570.33 26.8849 570.33 29.2315C570.33 31.603 571.712 33.1541 573.964 33.1541ZM571.817 28.5156C571.876 27.4318 572.662 26.4922 573.87 26.4922C575.023 26.4922 575.779 27.3473 575.784 28.5156H571.817ZM580.532 33H582.043L583.594 27.4865H583.709L585.26 33H586.776L589.018 25.3636H587.482L585.996 30.9467H585.921L584.43 25.3636H582.893L581.392 30.9716H581.317L579.821 25.3636H578.285L580.532 33Z" fill="#2C2D53"/>
<path d="M396.672 156.493H398.153C398.109 154.862 396.667 153.679 394.599 153.679C392.555 153.679 390.989 154.847 390.989 156.602C390.989 158.019 392.004 158.849 393.639 159.292L394.842 159.62C395.931 159.908 396.771 160.266 396.771 161.171C396.771 162.165 395.822 162.822 394.514 162.822C393.331 162.822 392.347 162.295 392.257 161.186H390.716C390.815 163.031 392.242 164.169 394.524 164.169C396.915 164.169 398.293 162.911 398.293 161.186C398.293 159.352 396.657 158.641 395.364 158.322L394.37 158.064C393.575 157.86 392.516 157.487 392.521 156.513C392.521 155.648 393.311 155.006 394.564 155.006C395.732 155.006 396.562 155.553 396.672 156.493ZM404.846 160.833C404.851 162.131 403.887 162.747 403.052 162.747C402.132 162.747 401.496 162.081 401.496 161.042V156.364H400.009V161.221C400.009 163.115 401.048 164.099 402.515 164.099C403.663 164.099 404.444 163.493 404.797 162.678H404.876V164H406.338V156.364H404.846V160.833ZM408.455 164H409.906V162.812H410.031C410.299 163.299 410.846 164.149 412.238 164.149C414.087 164.149 415.43 162.668 415.43 160.197C415.43 157.721 414.067 156.264 412.223 156.264C410.806 156.264 410.294 157.129 410.031 157.602H409.941V153.818H408.455V164ZM409.911 160.182C409.911 158.586 410.607 157.527 411.905 157.527C413.252 157.527 413.928 158.665 413.928 160.182C413.928 161.713 413.232 162.881 411.905 162.881C410.627 162.881 409.911 161.788 409.911 160.182ZM417.099 164H418.585V159.292C418.585 158.263 419.306 157.547 420.151 157.547C420.977 157.547 421.548 158.094 421.548 158.924V164H423.03V159.133C423.03 158.213 423.592 157.547 424.561 157.547C425.347 157.547 425.993 157.984 425.993 159.018V164H427.48V158.879C427.48 157.134 426.505 156.264 425.123 156.264C424.024 156.264 423.199 156.791 422.831 157.607H422.752C422.419 156.771 421.718 156.264 420.698 156.264C419.689 156.264 418.938 156.766 418.62 157.607H418.526V156.364H417.099V164ZM429.472 164H430.958V156.364H429.472V164ZM430.223 155.185C430.735 155.185 431.162 154.788 431.162 154.3C431.162 153.813 430.735 153.411 430.223 153.411C429.706 153.411 429.283 153.813 429.283 154.3C429.283 154.788 429.706 155.185 430.223 155.185ZM436.523 156.364H434.957V154.534H433.47V156.364H432.352V157.557H433.47V162.066C433.465 163.453 434.524 164.124 435.698 164.099C436.17 164.094 436.488 164.005 436.662 163.94L436.394 162.712C436.294 162.732 436.11 162.777 435.872 162.777C435.389 162.777 434.957 162.618 434.957 161.758V157.557H436.523V156.364ZM441.732 156.364H440.166V154.534H438.679V156.364H437.561V157.557H438.679V162.066C438.674 163.453 439.733 164.124 440.907 164.099C441.379 164.094 441.697 164.005 441.871 163.94L441.603 162.712C441.503 162.732 441.319 162.777 441.081 162.777C440.598 162.777 440.166 162.618 440.166 161.758V157.557H441.732V156.364ZM445.599 164.169C446.861 164.169 447.572 163.528 447.856 162.956H447.915V164H449.367V158.929C449.367 156.707 447.617 156.264 446.404 156.264C445.022 156.264 443.749 156.821 443.252 158.213L444.649 158.531C444.868 157.989 445.425 157.467 446.424 157.467C447.383 157.467 447.876 157.969 447.876 158.835V158.869C447.876 159.411 447.319 159.401 445.947 159.56C444.5 159.729 443.018 160.107 443.018 161.842C443.018 163.344 444.147 164.169 445.599 164.169ZM445.922 162.976C445.081 162.976 444.475 162.598 444.475 161.862C444.475 161.067 445.181 160.783 446.041 160.669C446.523 160.604 447.667 160.475 447.881 160.261V161.246C447.881 162.151 447.16 162.976 445.922 162.976ZM452.833 153.818H451.347V164H452.833V153.818ZM460.556 158.228C460.247 157.04 459.318 156.264 457.667 156.264C455.942 156.264 454.719 157.174 454.719 158.526C454.719 159.61 455.375 160.331 456.807 160.649L458.1 160.933C458.835 161.097 459.178 161.425 459.178 161.902C459.178 162.494 458.547 162.956 457.573 162.956C456.683 162.956 456.111 162.573 455.932 161.822L454.495 162.041C454.744 163.393 455.867 164.154 457.583 164.154C459.427 164.154 460.705 163.175 460.705 161.793C460.705 160.714 460.019 160.048 458.617 159.724L457.404 159.446C456.563 159.247 456.2 158.964 456.205 158.447C456.2 157.86 456.837 157.442 457.682 157.442C458.607 157.442 459.034 157.955 459.208 158.467L460.556 158.228ZM468.267 164.169C469.529 164.169 470.24 163.528 470.524 162.956H470.583V164H472.035V158.929C472.035 156.707 470.285 156.264 469.072 156.264C467.69 156.264 466.417 156.821 465.92 158.213L467.317 158.531C467.536 157.989 468.093 157.467 469.092 157.467C470.051 157.467 470.544 157.969 470.544 158.835V158.869C470.544 159.411 469.987 159.401 468.615 159.56C467.168 159.729 465.686 160.107 465.686 161.842C465.686 163.344 466.815 164.169 468.267 164.169ZM468.59 162.976C467.749 162.976 467.143 162.598 467.143 161.862C467.143 161.067 467.849 160.783 468.709 160.669C469.191 160.604 470.335 160.475 470.548 160.261V161.246C470.548 162.151 469.828 162.976 468.59 162.976ZM475.67 164H477.182L478.733 158.487H478.847L480.398 164H481.915L484.157 156.364H482.621L481.134 161.947H481.06L479.568 156.364H478.032L476.531 161.972H476.456L474.96 156.364H473.423L475.67 164ZM487.79 164.169C489.053 164.169 489.764 163.528 490.047 162.956H490.107V164H491.558V158.929C491.558 156.707 489.808 156.264 488.595 156.264C487.213 156.264 485.941 156.821 485.443 158.213L486.84 158.531C487.059 157.989 487.616 157.467 488.615 157.467C489.575 157.467 490.067 157.969 490.067 158.835V158.869C490.067 159.411 489.51 159.401 488.138 159.56C486.691 159.729 485.21 160.107 485.21 161.842C485.21 163.344 486.338 164.169 487.79 164.169ZM488.113 162.976C487.273 162.976 486.666 162.598 486.666 161.862C486.666 161.067 487.372 160.783 488.232 160.669C488.715 160.604 489.858 160.475 490.072 160.261V161.246C490.072 162.151 489.351 162.976 488.113 162.976ZM493.538 164H495.025V156.364H493.538V164ZM494.289 155.185C494.801 155.185 495.229 154.788 495.229 154.3C495.229 153.813 494.801 153.411 494.289 153.411C493.772 153.411 493.349 153.813 493.349 154.3C493.349 154.788 493.772 155.185 494.289 155.185ZM500.589 156.364H499.023V154.534H497.537V156.364H496.418V157.557H497.537V162.066C497.532 163.453 498.591 164.124 499.764 164.099C500.236 164.094 500.555 164.005 500.729 163.94L500.46 162.712C500.361 162.732 500.177 162.777 499.938 162.777C499.456 162.777 499.023 162.618 499.023 161.758V157.557H500.589V156.364ZM502.234 164H503.72V156.364H502.234V164ZM502.984 155.185C503.496 155.185 503.924 154.788 503.924 154.3C503.924 153.813 503.496 153.411 502.984 153.411C502.467 153.411 502.045 153.813 502.045 154.3C502.045 154.788 502.467 155.185 502.984 155.185ZM507.206 159.466C507.206 158.248 507.952 157.552 508.986 157.552C509.996 157.552 510.607 158.213 510.607 159.322V164H512.094V159.143C512.094 157.254 511.055 156.264 509.493 156.264C508.345 156.264 507.594 156.796 507.241 157.607H507.147V156.364H505.72V164H507.206V159.466ZM517.289 167.023C519.233 167.023 520.734 166.133 520.734 164.169V156.364H519.278V157.602H519.168C518.905 157.129 518.378 156.264 516.956 156.264C515.111 156.264 513.754 157.721 513.754 160.152C513.754 162.588 515.141 163.886 516.946 163.886C518.348 163.886 518.89 163.095 519.158 162.608H519.253V164.109C519.253 165.308 518.432 165.825 517.304 165.825C516.066 165.825 515.584 165.203 515.32 164.766L514.042 165.293C514.445 166.227 515.464 167.023 517.289 167.023ZM517.274 162.653C515.947 162.653 515.256 161.634 515.256 160.132C515.256 158.665 515.932 157.527 517.274 157.527C518.572 157.527 519.268 158.586 519.268 160.132C519.268 161.708 518.557 162.653 517.274 162.653ZM529.65 164.154C531.454 164.154 532.623 163.07 532.787 161.584H531.34C531.151 162.409 530.51 162.896 529.659 162.896C528.402 162.896 527.591 161.847 527.591 160.182C527.591 158.546 528.417 157.517 529.659 157.517C530.604 157.517 531.181 158.114 531.34 158.83H532.787C532.627 157.288 531.37 156.264 529.635 156.264C527.482 156.264 526.09 157.885 526.09 160.217C526.09 162.518 527.432 164.154 529.65 164.154ZM537.593 164.154C539.746 164.154 541.153 162.578 541.153 160.217C541.153 157.84 539.746 156.264 537.593 156.264C535.44 156.264 534.033 157.84 534.033 160.217C534.033 162.578 535.44 164.154 537.593 164.154ZM537.598 162.906C536.191 162.906 535.535 161.678 535.535 160.212C535.535 158.75 536.191 157.507 537.598 157.507C538.995 157.507 539.651 158.75 539.651 160.212C539.651 161.678 538.995 162.906 537.598 162.906ZM544.298 159.466C544.298 158.248 545.044 157.552 546.078 157.552C547.087 157.552 547.699 158.213 547.699 159.322V164H549.185V159.143C549.185 157.254 548.146 156.264 546.585 156.264C545.437 156.264 544.686 156.796 544.333 157.607H544.239V156.364H542.812V164H544.298V159.466ZM556.901 158.228C556.593 157.04 555.663 156.264 554.013 156.264C552.288 156.264 551.065 157.174 551.065 158.526C551.065 159.61 551.721 160.331 553.153 160.649L554.445 160.933C555.181 161.097 555.524 161.425 555.524 161.902C555.524 162.494 554.893 162.956 553.918 162.956C553.028 162.956 552.457 162.573 552.278 161.822L550.841 162.041C551.089 163.393 552.213 164.154 553.928 164.154C555.773 164.154 557.05 163.175 557.05 161.793C557.05 160.714 556.364 160.048 554.962 159.724L553.749 159.446C552.909 159.247 552.546 158.964 552.551 158.447C552.546 157.86 553.183 157.442 554.028 157.442C554.952 157.442 555.38 157.955 555.554 158.467L556.901 158.228ZM563.522 160.833C563.527 162.131 562.563 162.747 561.727 162.747C560.808 162.747 560.171 162.081 560.171 161.042V156.364H558.685V161.221C558.685 163.115 559.724 164.099 561.191 164.099C562.339 164.099 563.119 163.493 563.472 162.678H563.552V164H565.014V156.364H563.522V160.833ZM568.498 153.818H567.011V164H568.498V153.818ZM574.062 156.364H572.496V154.534H571.009V156.364H569.891V157.557H571.009V162.066C571.004 163.453 572.063 164.124 573.237 164.099C573.709 164.094 574.027 164.005 574.201 163.94L573.933 162.712C573.833 162.732 573.649 162.777 573.411 162.777C572.928 162.777 572.496 162.618 572.496 161.758V157.557H574.062V156.364ZM577.929 164.169C579.191 164.169 579.902 163.528 580.186 162.956H580.245V164H581.697V158.929C581.697 156.707 579.947 156.264 578.734 156.264C577.352 156.264 576.079 156.821 575.582 158.213L576.979 158.531C577.198 157.989 577.755 157.467 578.754 157.467C579.713 157.467 580.206 157.969 580.206 158.835V158.869C580.206 159.411 579.649 159.401 578.277 159.56C576.83 159.729 575.348 160.107 575.348 161.842C575.348 163.344 576.477 164.169 577.929 164.169ZM578.252 162.976C577.412 162.976 576.805 162.598 576.805 161.862C576.805 161.067 577.511 160.783 578.371 160.669C578.853 160.604 579.997 160.475 580.211 160.261V161.246C580.211 162.151 579.49 162.976 578.252 162.976ZM585.164 159.466C585.164 158.248 585.909 157.552 586.943 157.552C587.953 157.552 588.564 158.213 588.564 159.322V164H590.051V159.143C590.051 157.254 589.012 156.264 587.45 156.264C586.302 156.264 585.551 156.796 585.198 157.607H585.104V156.364H583.677V164H585.164V159.466ZM595.609 156.364H594.043V154.534H592.556V156.364H591.438V157.557H592.556V162.066C592.551 163.453 593.61 164.124 594.784 164.099C595.256 164.094 595.574 164.005 595.748 163.94L595.48 162.712C595.38 162.732 595.196 162.777 594.958 162.777C594.475 162.777 594.043 162.618 594.043 161.758V157.557H595.609V156.364ZM600.958 164H602.445V159.337C602.445 158.337 603.215 157.616 604.269 157.616C604.578 157.616 604.926 157.671 605.045 157.706V156.284C604.896 156.264 604.602 156.249 604.414 156.249C603.519 156.249 602.753 156.756 602.475 157.577H602.395V156.364H600.958V164ZM609.349 164.154C611.015 164.154 612.193 163.334 612.531 162.091L611.124 161.837C610.855 162.558 610.209 162.926 609.364 162.926C608.091 162.926 607.236 162.101 607.196 160.629H612.625V160.102C612.625 157.343 610.975 156.264 609.245 156.264C607.117 156.264 605.715 157.885 605.715 160.232C605.715 162.603 607.097 164.154 609.349 164.154ZM607.201 159.516C607.261 158.432 608.047 157.492 609.255 157.492C610.408 157.492 611.164 158.347 611.169 159.516H607.201ZM620.575 156.364H618.979L617.05 162.24H616.971L615.037 156.364H613.441L616.215 164H617.806L620.575 156.364ZM621.972 164H623.458V156.364H621.972V164ZM622.723 155.185C623.235 155.185 623.662 154.788 623.662 154.3C623.662 153.813 623.235 153.411 622.723 153.411C622.206 153.411 621.783 153.813 621.783 154.3C621.783 154.788 622.206 155.185 622.723 155.185ZM628.749 164.154C630.415 164.154 631.593 163.334 631.931 162.091L630.524 161.837C630.256 162.558 629.61 162.926 628.764 162.926C627.492 162.926 626.637 162.101 626.597 160.629H632.026V160.102C632.026 157.343 630.375 156.264 628.645 156.264C626.517 156.264 625.115 157.885 625.115 160.232C625.115 162.603 626.497 164.154 628.749 164.154ZM626.602 159.516C626.661 158.432 627.447 157.492 628.655 157.492C629.808 157.492 630.564 158.347 630.569 159.516H626.602ZM635.317 164H636.828L638.379 158.487H638.494L640.045 164H641.561L643.803 156.364H642.267L640.781 161.947H640.706L639.215 156.364H637.678L636.177 161.972H636.102L634.606 156.364H633.07L635.317 164Z" fill="#2C2D53"/>
<path d="M140 26.5C139.167 26.5 138.5 27.1667 138.5 28C138.5 28.8333 139.167 29.5 140 29.5C140.833 29.5 141.5 28.8333 141.5 28C141.5 27.1667 140.833 26.5 140 26.5Z" fill="white"/>
<path d="M374.354 28.3536C374.549 28.1583 374.549 27.8417 374.354 27.6464L371.172 24.4645C370.976 24.2692 370.66 24.2692 370.464 24.4645C370.269 24.6597 370.269 24.9763 370.464 25.1716L373.293 28L370.464 30.8284C370.269 31.0237 370.269 31.3403 370.464 31.5355C370.66 31.7308 370.976 31.7308 371.172 31.5355L374.354 28.3536ZM139 28C139 27.4428 139.443 27 140 27V26C138.891 26 138 26.8905 138 28H139ZM140 27C140.557 27 141 27.4428 141 28H142C142 26.8905 141.109 26 140 26V27ZM141 28C141 28.5572 140.557 29 140 29V30C141.109 30 142 29.1095 142 28H141ZM140 29C139.443 29 139 28.5572 139 28H138C138 29.1095 138.891 30 140 30V29ZM141.5 28.5H374V27.5H141.5V28.5Z" fill="#3447D3"/>
<path d="M140 157.5C139.167 157.5 138.5 158.167 138.5 159C138.5 159.833 139.167 160.5 140 160.5C140.833 160.5 141.5 159.833 141.5 159C141.5 158.167 140.833 157.5 140 157.5Z" fill="white"/>
<path d="M374.354 159.354C374.549 159.158 374.549 158.842 374.354 158.646L371.172 155.464C370.976 155.269 370.66 155.269 370.464 155.464C370.269 155.66 370.269 155.976 370.464 156.172L373.293 159L370.464 161.828C370.269 162.024 370.269 162.34 370.464 162.536C370.66 162.731 370.976 162.731 371.172 162.536L374.354 159.354ZM139 159C139 158.443 139.443 158 140 158V157C138.891 157 138 157.891 138 159H139ZM140 158C140.557 158 141 158.443 141 159H142C142 157.891 141.109 157 140 157V158ZM141 159C141 159.557 140.557 160 140 160V161C141.109 161 142 160.109 142 159H141ZM140 160C139.443 160 139 159.557 139 159H138C138 160.109 138.891 161 140 161V160ZM141.5 159.5H374V158.5H141.5V159.5Z" fill="#3447D3"/>
<rect x="218" y="14" width="76" height="28" rx="14" fill="#D6D9F4"/>
<path d="M240.119 32H241.655V27.5604H245.98V26.2429H241.655V23.1406H246.433V21.8182H240.119V32ZM248.202 32H249.689V24.3636H248.202V32ZM248.953 23.1854C249.465 23.1854 249.893 22.7876 249.893 22.3004C249.893 21.8132 249.465 21.4105 248.953 21.4105C248.436 21.4105 248.013 21.8132 248.013 22.3004C248.013 22.7876 248.436 23.1854 248.953 23.1854ZM253.175 21.8182H251.689V32H253.175V21.8182ZM258.74 24.3636H257.174V22.5341H255.687V24.3636H254.569V25.5568H255.687V30.0661C255.682 31.4531 256.741 32.1243 257.914 32.0994C258.387 32.0945 258.705 32.005 258.879 31.9403L258.61 30.7124C258.511 30.7322 258.327 30.777 258.088 30.777C257.606 30.777 257.174 30.6179 257.174 29.7578V25.5568H258.74V24.3636ZM263.593 32.1541C265.259 32.1541 266.437 31.3338 266.775 30.0909L265.368 29.8374C265.1 30.5582 264.453 30.9261 263.608 30.9261C262.335 30.9261 261.48 30.1009 261.441 28.6293H266.869V28.1023C266.869 25.343 265.219 24.2642 263.489 24.2642C261.361 24.2642 259.959 25.8849 259.959 28.2315C259.959 30.603 261.341 32.1541 263.593 32.1541ZM261.445 27.5156C261.505 26.4318 262.291 25.4922 263.499 25.4922C264.652 25.4922 265.408 26.3473 265.413 27.5156H261.445ZM268.519 32H270.005V27.3366C270.005 26.3374 270.776 25.6165 271.83 25.6165C272.138 25.6165 272.486 25.6712 272.605 25.706V24.2841C272.456 24.2642 272.163 24.2493 271.974 24.2493C271.079 24.2493 270.314 24.7564 270.035 25.5767H269.956V24.3636H268.519V32Z" fill="#3447D3"/>
<rect x="218" y="145" width="76" height="28" rx="14" fill="#D6D9F4"/>
<path d="M240.119 163H241.655V158.56H245.98V157.243H241.655V154.141H246.433V152.818H240.119V163ZM248.202 163H249.689V155.364H248.202V163ZM248.953 154.185C249.465 154.185 249.893 153.788 249.893 153.3C249.893 152.813 249.465 152.411 248.953 152.411C248.436 152.411 248.013 152.813 248.013 153.3C248.013 153.788 248.436 154.185 248.953 154.185ZM253.175 152.818H251.689V163H253.175V152.818ZM258.74 155.364H257.174V153.534H255.687V155.364H254.569V156.557H255.687V161.066C255.682 162.453 256.741 163.124 257.914 163.099C258.387 163.094 258.705 163.005 258.879 162.94L258.61 161.712C258.511 161.732 258.327 161.777 258.088 161.777C257.606 161.777 257.174 161.618 257.174 160.758V156.557H258.74V155.364ZM263.593 163.154C265.259 163.154 266.437 162.334 266.775 161.091L265.368 160.837C265.1 161.558 264.453 161.926 263.608 161.926C262.335 161.926 261.48 161.101 261.441 159.629H266.869V159.102C266.869 156.343 265.219 155.264 263.489 155.264C261.361 155.264 259.959 156.885 259.959 159.232C259.959 161.603 261.341 163.154 263.593 163.154ZM261.445 158.516C261.505 157.432 262.291 156.492 263.499 156.492C264.652 156.492 265.408 157.347 265.413 158.516H261.445ZM268.519 163H270.005V158.337C270.005 157.337 270.776 156.616 271.83 156.616C272.138 156.616 272.486 156.671 272.605 156.706V155.284C272.456 155.264 272.163 155.249 271.974 155.249C271.079 155.249 270.314 155.756 270.035 156.577H269.956V155.364H268.519V163Z" fill="#3447D3"/>
<rect x="674" y="14" width="233" height="28" rx="14" fill="#D6D9F4"/>
<path d="M701.672 25.4929H703.153C703.109 23.8622 701.667 22.679 699.599 22.679C697.555 22.679 695.989 23.8473 695.989 25.6023C695.989 27.0192 697.004 27.8494 698.639 28.2919L699.842 28.62C700.931 28.9084 701.771 29.2663 701.771 30.1712C701.771 31.1655 700.822 31.8217 699.514 31.8217C698.331 31.8217 697.347 31.2947 697.257 30.1861H695.716C695.815 32.0305 697.242 33.169 699.524 33.169C701.915 33.169 703.293 31.9112 703.293 30.1861C703.293 28.3516 701.657 27.6406 700.364 27.3224L699.37 27.0639C698.575 26.8601 697.516 26.4872 697.521 25.5128C697.521 24.6477 698.311 24.0064 699.564 24.0064C700.732 24.0064 701.562 24.5533 701.672 25.4929ZM708.3 33.1541C709.966 33.1541 711.144 32.3338 711.482 31.0909L710.075 30.8374C709.807 31.5582 709.16 31.9261 708.315 31.9261C707.042 31.9261 706.187 31.1009 706.148 29.6293H711.577V29.1023C711.577 26.343 709.926 25.2642 708.196 25.2642C706.068 25.2642 704.666 26.8849 704.666 29.2315C704.666 31.603 706.048 33.1541 708.3 33.1541ZM706.153 28.5156C706.212 27.4318 706.998 26.4922 708.206 26.4922C709.359 26.4922 710.115 27.3473 710.12 28.5156H706.153ZM714.712 28.4659C714.712 27.2479 715.458 26.5518 716.492 26.5518C717.501 26.5518 718.113 27.2131 718.113 28.3217V33H719.599V28.1428C719.599 26.2536 718.56 25.2642 716.999 25.2642C715.851 25.2642 715.1 25.7962 714.747 26.6065H714.653V25.3636H713.226V33H714.712V28.4659ZM724.452 33.1491C725.844 33.1491 726.391 32.299 726.659 31.8118H726.783V33H728.235V22.8182H726.749V26.6016H726.659C726.391 26.1293 725.884 25.2642 724.462 25.2642C722.617 25.2642 721.26 26.7209 721.26 29.1967C721.26 31.6676 722.597 33.1491 724.452 33.1491ZM724.78 31.8814C723.452 31.8814 722.761 30.7131 722.761 29.1818C722.761 27.6655 723.438 26.527 724.78 26.527C726.077 26.527 726.773 27.5859 726.773 29.1818C726.773 30.7876 726.062 31.8814 724.78 31.8814ZM737.626 25.3636H736.06V23.5341H734.574V25.3636H733.455V26.5568H734.574V31.0661C734.569 32.4531 735.628 33.1243 736.801 33.0994C737.273 33.0945 737.592 33.005 737.766 32.9403L737.497 31.7124C737.398 31.7322 737.214 31.777 736.975 31.777C736.493 31.777 736.06 31.6179 736.06 30.7578V26.5568H737.626V25.3636ZM742.405 33.1541C744.558 33.1541 745.965 31.5781 745.965 29.2166C745.965 26.8402 744.558 25.2642 742.405 25.2642C740.253 25.2642 738.846 26.8402 738.846 29.2166C738.846 31.5781 740.253 33.1541 742.405 33.1541ZM742.41 31.9062C741.003 31.9062 740.347 30.6783 740.347 29.2116C740.347 27.75 741.003 26.5071 742.41 26.5071C743.807 26.5071 744.464 27.75 744.464 29.2116C744.464 30.6783 743.807 31.9062 742.41 31.9062ZM754.546 33.1541C756.351 33.1541 757.519 32.0703 757.683 30.5838H756.236C756.047 31.4091 755.406 31.8963 754.556 31.8963C753.298 31.8963 752.488 30.8473 752.488 29.1818C752.488 27.5462 753.313 26.517 754.556 26.517C755.501 26.517 756.077 27.1136 756.236 27.8295H757.683C757.524 26.2884 756.266 25.2642 754.531 25.2642C752.378 25.2642 750.986 26.8849 750.986 29.2166C750.986 31.5185 752.329 33.1541 754.546 33.1541ZM762.489 33.1541C764.642 33.1541 766.049 31.5781 766.049 29.2166C766.049 26.8402 764.642 25.2642 762.489 25.2642C760.337 25.2642 758.93 26.8402 758.93 29.2166C758.93 31.5781 760.337 33.1541 762.489 33.1541ZM762.494 31.9062C761.087 31.9062 760.431 30.6783 760.431 29.2116C760.431 27.75 761.087 26.5071 762.494 26.5071C763.891 26.5071 764.548 27.75 764.548 29.2116C764.548 30.6783 763.891 31.9062 762.494 31.9062ZM769.195 28.4659C769.195 27.2479 769.941 26.5518 770.975 26.5518C771.984 26.5518 772.595 27.2131 772.595 28.3217V33H774.082V28.1428C774.082 26.2536 773.043 25.2642 771.482 25.2642C770.333 25.2642 769.583 25.7962 769.23 26.6065H769.135V25.3636H767.708V33H769.195V28.4659ZM781.798 27.228C781.49 26.0398 780.56 25.2642 778.909 25.2642C777.184 25.2642 775.961 26.174 775.961 27.5263C775.961 28.6101 776.617 29.331 778.049 29.6491L779.342 29.9325C780.078 30.0966 780.421 30.4247 780.421 30.902C780.421 31.4936 779.789 31.956 778.815 31.956C777.925 31.956 777.353 31.5732 777.174 30.8224L775.737 31.0412C775.986 32.3935 777.11 33.1541 778.825 33.1541C780.669 33.1541 781.947 32.1747 781.947 30.7926C781.947 29.7138 781.261 29.0476 779.859 28.7244L778.646 28.446C777.806 28.2472 777.443 27.9638 777.448 27.4467C777.443 26.8601 778.079 26.4425 778.924 26.4425C779.849 26.4425 780.276 26.9545 780.45 27.4666L781.798 27.228ZM788.419 29.8331C788.424 31.1307 787.459 31.7472 786.624 31.7472C785.704 31.7472 785.068 31.081 785.068 30.0419V25.3636H783.581V30.2209C783.581 32.1151 784.62 33.0994 786.087 33.0994C787.235 33.0994 788.016 32.4929 788.369 31.6776H788.449V33H789.91V25.3636H788.419V29.8331ZM793.394 22.8182H791.907V33H793.394V22.8182ZM798.958 25.3636H797.392V23.5341H795.906V25.3636H794.787V26.5568H795.906V31.0661C795.901 32.4531 796.96 33.1243 798.133 33.0994C798.605 33.0945 798.924 33.005 799.098 32.9403L798.829 31.7124C798.73 31.7322 798.546 31.777 798.307 31.777C797.825 31.777 797.392 31.6179 797.392 30.7578V26.5568H798.958V25.3636ZM802.825 33.169C804.088 33.169 804.799 32.5277 805.082 31.956H805.142V33H806.594V27.929C806.594 25.7067 804.844 25.2642 803.631 25.2642C802.248 25.2642 800.976 25.821 800.479 27.2131L801.876 27.5312C802.094 26.9893 802.651 26.4673 803.65 26.4673C804.61 26.4673 805.102 26.9695 805.102 27.8345V27.8693C805.102 28.4112 804.545 28.4013 803.173 28.5604C801.726 28.7294 800.245 29.1072 800.245 30.8423C800.245 32.3438 801.373 33.169 802.825 33.169ZM803.148 31.9759C802.308 31.9759 801.702 31.598 801.702 30.8622C801.702 30.0668 802.407 29.7834 803.268 29.669C803.75 29.6044 804.893 29.4751 805.107 29.2614V30.2457C805.107 31.1506 804.386 31.9759 803.148 31.9759ZM810.06 28.4659C810.06 27.2479 810.806 26.5518 811.84 26.5518C812.849 26.5518 813.461 27.2131 813.461 28.3217V33H814.947V28.1428C814.947 26.2536 813.908 25.2642 812.347 25.2642C811.199 25.2642 810.448 25.7962 810.095 26.6065H810V25.3636H808.574V33H810.06V28.4659ZM820.505 25.3636H818.939V23.5341H817.453V25.3636H816.334V26.5568H817.453V31.0661C817.448 32.4531 818.507 33.1243 819.68 33.0994C820.152 33.0945 820.471 33.005 820.645 32.9403L820.376 31.7124C820.277 31.7322 820.093 31.777 819.854 31.777C819.372 31.777 818.939 31.6179 818.939 30.7578V26.5568H820.505V25.3636ZM829.419 25.3636H827.853V23.5341H826.367V25.3636H825.248V26.5568H826.367V31.0661C826.362 32.4531 827.421 33.1243 828.594 33.0994C829.066 33.0945 829.385 33.005 829.559 32.9403L829.29 31.7124C829.191 31.7322 829.007 31.777 828.768 31.777C828.286 31.777 827.853 31.6179 827.853 30.7578V26.5568H829.419V25.3636ZM834.198 33.1541C836.351 33.1541 837.758 31.5781 837.758 29.2166C837.758 26.8402 836.351 25.2642 834.198 25.2642C832.046 25.2642 830.639 26.8402 830.639 29.2166C830.639 31.5781 832.046 33.1541 834.198 33.1541ZM834.203 31.9062C832.796 31.9062 832.14 30.6783 832.14 29.2116C832.14 27.75 832.796 26.5071 834.203 26.5071C835.6 26.5071 836.257 27.75 836.257 29.2116C836.257 30.6783 835.6 31.9062 834.203 31.9062ZM843.122 33H844.609V28.3366C844.609 27.3374 845.379 26.6165 846.433 26.6165C846.742 26.6165 847.09 26.6712 847.209 26.706V25.2841C847.06 25.2642 846.767 25.2493 846.578 25.2493C845.683 25.2493 844.917 25.7564 844.639 26.5767H844.559V25.3636H843.122V33ZM851.513 33.1541C853.179 33.1541 854.357 32.3338 854.695 31.0909L853.288 30.8374C853.02 31.5582 852.373 31.9261 851.528 31.9261C850.255 31.9261 849.4 31.1009 849.36 29.6293H854.789V29.1023C854.789 26.343 853.139 25.2642 851.409 25.2642C849.281 25.2642 847.879 26.8849 847.879 29.2315C847.879 31.603 849.261 33.1541 851.513 33.1541ZM849.365 28.5156C849.425 27.4318 850.211 26.4922 851.419 26.4922C852.572 26.4922 853.328 27.3473 853.333 28.5156H849.365ZM862.739 25.3636H861.143L859.214 31.2401H859.135L857.201 25.3636H855.605L858.379 33H859.97L862.739 25.3636ZM864.136 33H865.623V25.3636H864.136V33ZM864.887 24.1854C865.399 24.1854 865.826 23.7876 865.826 23.3004C865.826 22.8132 865.399 22.4105 864.887 22.4105C864.37 22.4105 863.947 22.8132 863.947 23.3004C863.947 23.7876 864.37 24.1854 864.887 24.1854ZM870.914 33.1541C872.579 33.1541 873.757 32.3338 874.095 31.0909L872.688 30.8374C872.42 31.5582 871.774 31.9261 870.928 31.9261C869.656 31.9261 868.801 31.1009 868.761 29.6293H874.19V29.1023C874.19 26.343 872.539 25.2642 870.809 25.2642C868.681 25.2642 867.279 26.8849 867.279 29.2315C867.279 31.603 868.661 33.1541 870.914 33.1541ZM868.766 28.5156C868.825 27.4318 869.611 26.4922 870.819 26.4922C871.972 26.4922 872.728 27.3473 872.733 28.5156H868.766ZM877.481 33H878.992L880.544 27.4865H880.658L882.209 33H883.725L885.968 25.3636H884.431L882.945 30.9467H882.87L881.379 25.3636H879.843L878.341 30.9716H878.267L876.77 25.3636H875.234L877.481 33Z" fill="#3447D3"/>
<rect x="742" y="145" width="144" height="28" rx="14" fill="#D6D9F4"/>
<path d="M769.672 156.493H771.153C771.109 154.862 769.667 153.679 767.599 153.679C765.555 153.679 763.989 154.847 763.989 156.602C763.989 158.019 765.004 158.849 766.639 159.292L767.842 159.62C768.931 159.908 769.771 160.266 769.771 161.171C769.771 162.165 768.822 162.822 767.514 162.822C766.331 162.822 765.347 162.295 765.257 161.186H763.716C763.815 163.031 765.242 164.169 767.524 164.169C769.915 164.169 771.293 162.911 771.293 161.186C771.293 159.352 769.657 158.641 768.364 158.322L767.37 158.064C766.575 157.86 765.516 157.487 765.521 156.513C765.521 155.648 766.311 155.006 767.564 155.006C768.732 155.006 769.562 155.553 769.672 156.493ZM776.3 164.154C777.966 164.154 779.144 163.334 779.482 162.091L778.075 161.837C777.807 162.558 777.16 162.926 776.315 162.926C775.042 162.926 774.187 162.101 774.148 160.629H779.577V160.102C779.577 157.343 777.926 156.264 776.196 156.264C774.068 156.264 772.666 157.885 772.666 160.232C772.666 162.603 774.048 164.154 776.3 164.154ZM774.153 159.516C774.212 158.432 774.998 157.492 776.206 157.492C777.359 157.492 778.115 158.347 778.12 159.516H774.153ZM782.712 159.466C782.712 158.248 783.458 157.552 784.492 157.552C785.501 157.552 786.113 158.213 786.113 159.322V164H787.599V159.143C787.599 157.254 786.56 156.264 784.999 156.264C783.851 156.264 783.1 156.796 782.747 157.607H782.653V156.364H781.226V164H782.712V159.466ZM792.452 164.149C793.844 164.149 794.391 163.299 794.659 162.812H794.783V164H796.235V153.818H794.749V157.602H794.659C794.391 157.129 793.884 156.264 792.462 156.264C790.617 156.264 789.26 157.721 789.26 160.197C789.26 162.668 790.597 164.149 792.452 164.149ZM792.78 162.881C791.452 162.881 790.761 161.713 790.761 160.182C790.761 158.665 791.438 157.527 792.78 157.527C794.077 157.527 794.773 158.586 794.773 160.182C794.773 161.788 794.062 162.881 792.78 162.881ZM802.062 164H803.548V159.337C803.548 158.337 804.319 157.616 805.373 157.616C805.681 157.616 806.029 157.671 806.148 157.706V156.284C805.999 156.264 805.706 156.249 805.517 156.249C804.622 156.249 803.857 156.756 803.578 157.577H803.499V156.364H802.062V164ZM810.453 164.154C812.118 164.154 813.296 163.334 813.634 162.091L812.227 161.837C811.959 162.558 811.313 162.926 810.468 162.926C809.195 162.926 808.34 162.101 808.3 160.629H813.729V160.102C813.729 157.343 812.078 156.264 810.348 156.264C808.22 156.264 806.818 157.885 806.818 160.232C806.818 162.603 808.2 164.154 810.453 164.154ZM808.305 159.516C808.365 158.432 809.15 157.492 810.358 157.492C811.512 157.492 812.267 158.347 812.272 159.516H808.305ZM815.378 164H816.865V159.292C816.865 158.263 817.586 157.547 818.431 157.547C819.256 157.547 819.828 158.094 819.828 158.924V164H821.309V159.133C821.309 158.213 821.871 157.547 822.841 157.547C823.626 157.547 824.272 157.984 824.272 159.018V164H825.759V158.879C825.759 157.134 824.784 156.264 823.402 156.264C822.304 156.264 821.478 156.791 821.11 157.607H821.031C820.698 156.771 819.997 156.264 818.978 156.264C817.968 156.264 817.218 156.766 816.9 157.607H816.805V156.364H815.378V164ZM827.751 164H829.238V156.364H827.751V164ZM828.502 155.185C829.014 155.185 829.442 154.788 829.442 154.3C829.442 153.813 829.014 153.411 828.502 153.411C827.985 153.411 827.562 153.813 827.562 154.3C827.562 154.788 827.985 155.185 828.502 155.185ZM832.724 159.466C832.724 158.248 833.47 157.552 834.504 157.552C835.513 157.552 836.125 158.213 836.125 159.322V164H837.611V159.143C837.611 157.254 836.572 156.264 835.011 156.264C833.863 156.264 833.112 156.796 832.759 157.607H832.664V156.364H831.238V164H832.724V159.466ZM842.463 164.149C843.855 164.149 844.402 163.299 844.671 162.812H844.795V164H846.247V153.818H844.76V157.602H844.671C844.402 157.129 843.895 156.264 842.473 156.264C840.629 156.264 839.272 157.721 839.272 160.197C839.272 162.668 840.609 164.149 842.463 164.149ZM842.792 162.881C841.464 162.881 840.773 161.713 840.773 160.182C840.773 158.665 841.449 157.527 842.792 157.527C844.089 157.527 844.785 158.586 844.785 160.182C844.785 161.788 844.074 162.881 842.792 162.881ZM851.66 164.154C853.325 164.154 854.503 163.334 854.841 162.091L853.434 161.837C853.166 162.558 852.52 162.926 851.675 162.926C850.402 162.926 849.547 162.101 849.507 160.629H854.936V160.102C854.936 157.343 853.285 156.264 851.555 156.264C849.427 156.264 848.025 157.885 848.025 160.232C848.025 162.603 849.407 164.154 851.66 164.154ZM849.512 159.516C849.572 158.432 850.357 157.492 851.565 157.492C852.719 157.492 853.474 158.347 853.479 159.516H849.512ZM856.585 164H858.072V159.337C858.072 158.337 858.842 157.616 859.896 157.616C860.205 157.616 860.553 157.671 860.672 157.706V156.284C860.523 156.264 860.229 156.249 860.04 156.249C859.146 156.249 858.38 156.756 858.102 157.577H858.022V156.364H856.585V164Z" fill="#3447D3"/>
<path d="M630 26.5C629.167 26.5 628.5 27.1667 628.5 28C628.5 28.8333 629.167 29.5 630 29.5C630.833 29.5 631.5 28.8333 631.5 28C631.5 27.1667 630.833 26.5 630 26.5Z" fill="white"/>
<path d="M674.354 28.3536C674.549 28.1583 674.549 27.8417 674.354 27.6464L671.172 24.4645C670.976 24.2692 670.66 24.2692 670.464 24.4645C670.269 24.6597 670.269 24.9763 670.464 25.1716L673.293 28L670.464 30.8284C670.269 31.0237 670.269 31.3403 670.464 31.5355C670.66 31.7308 670.976 31.7308 671.172 31.5355L674.354 28.3536ZM629 28C629 27.4428 629.443 27 630 27V26C628.891 26 628 26.8905 628 28H629ZM630 27C630.557 27 631 27.4428 631 28H632C632 26.8905 631.109 26 630 26V27ZM631 28C631 28.5572 630.557 29 630 29V30C631.109 30 632 29.1095 632 28H631ZM630 29C629.443 29 629 28.5572 629 28H628C628 29.1095 628.891 30 630 30V29ZM631.5 28.5H674V27.5H631.5V28.5Z" fill="#3447D3"/>
<path d="M662 157.5C661.167 157.5 660.5 158.167 660.5 159C660.5 159.833 661.167 160.5 662 160.5C662.833 160.5 663.5 159.833 663.5 159C663.5 158.167 662.833 157.5 662 157.5Z" fill="white"/>
<path d="M742.354 159.354C742.549 159.158 742.549 158.842 742.354 158.646L739.172 155.464C738.976 155.269 738.66 155.269 738.464 155.464C738.269 155.66 738.269 155.976 738.464 156.172L741.293 159L738.464 161.828C738.269 162.024 738.269 162.34 738.464 162.536C738.66 162.731 738.976 162.731 739.172 162.536L742.354 159.354ZM661 159C661 158.443 661.443 158 662 158V157C660.891 157 660 157.891 660 159H661ZM662 158C662.557 158 663 158.443 663 159H664C664 157.891 663.109 157 662 157V158ZM663 159C663 159.557 662.557 160 662 160V161C663.109 161 664 160.109 664 159H663ZM662 160C661.443 160 661 159.557 661 159H660C660 160.109 660.891 161 662 161V160ZM663.5 159.5H742V158.5H663.5V159.5Z" fill="#3447D3"/>
</svg>
