<svg width="160" height="160" viewBox="0 0 160 160" fill="none" xmlns="http://www.w3.org/2000/svg">
<path d="M79.353 38.1465C77.6277 38.1465 76.2297 39.5468 76.2297 41.2769V53.77C76.2297 55.4951 77.6277 56.8906 79.353 56.8906C81.0784 56.8906 82.4763 55.4948 82.4763 53.77V41.2769C82.4763 39.5468 81.0784 38.1465 79.353 38.1465Z" fill="black"/>
<path d="M58.7061 75.1371H71.4216" stroke="black" stroke-width="4" stroke-linecap="round" stroke-linejoin="round"/>
<path fill-rule="evenodd" clip-rule="evenodd" d="M25.3351 83.2104C23.0131 84.7446 20.5595 87.642 20.5595 94.2103V152.008H9V94.2103C9 84.0172 13.1932 77.378 18.9628 73.5659C24.3351 70.0163 30.3951 69.3572 33.853 69.3572H58.7061V80.9168H33.853C31.5311 80.9168 28.0545 81.4137 25.3351 83.2104Z" fill="#B2CEFF" stroke="black"/>
<path d="M100.32 75.1371H87.6048" stroke="black" stroke-width="4" stroke-linecap="round" stroke-linejoin="round"/>
<path fill-rule="evenodd" clip-rule="evenodd" d="M133.691 83.2105C136.013 84.7447 138.467 87.6421 138.467 94.2104V152.008H150.026V94.2104C150.026 84.0173 145.833 77.3781 140.064 73.566C134.691 70.0164 128.631 69.3574 125.173 69.3574H100.32V80.9169H125.173C127.495 80.9169 130.972 81.4138 133.691 83.2105Z" fill="#B2CEFF" stroke="black"/>
<path d="M54.5822 24.853C54.5822 11.4032 65.4854 0.5 78.9352 0.5C92.385 0.5 103.288 11.4032 103.288 24.853C103.288 33.0217 99.2668 40.2511 93.0936 44.6697C92.3349 45.2128 90.701 46.5704 89.0441 48.435C87.3893 50.2971 85.6813 52.6985 84.8179 55.3299C83.6492 58.8914 82.9454 62.8463 82.3278 66.3174C82.1471 67.3327 81.9738 68.3066 81.7984 69.2171C81.4069 71.2494 81.0091 72.9468 80.5077 74.1302C79.9885 75.3557 79.4627 75.793 78.9352 75.793C78.3958 75.793 77.8381 75.3396 77.2649 74.1135C76.7112 72.929 76.2427 71.2305 75.7794 69.2005C75.5246 68.0839 75.2726 66.8715 75.0091 65.6042C74.3244 62.3105 73.5626 58.6459 72.4745 55.3299C71.6156 52.7123 70.0623 50.3169 68.5521 48.4524C67.044 46.5906 65.5506 45.2236 64.7768 44.6697C58.6035 40.2511 54.5822 33.0217 54.5822 24.853Z" fill="#EB5959" stroke="black"/>
<path d="M69.1095 15.0274L88.7607 34.6786" stroke="white" stroke-width="3"/>
<path d="M88.7607 15.0274L69.1095 34.6786" stroke="white" stroke-width="3"/>
<path d="M60.5132 54.0081L67.5132 62.0081" stroke="black" stroke-width="3"/>
<path d="M97.5132 94.0081L91.5132 85.0081" stroke="black" stroke-width="3"/>
<path d="M78.9849 101.977L79.0361 91.3198" stroke="black" stroke-width="3"/>
<path d="M91.5132 62.0081L97.5132 54.0081" stroke="black" stroke-width="3"/>
<path d="M67.5132 85.0081L60.5132 94.0081" stroke="black" stroke-width="3"/>
</svg>
