<svg width="88" height="81" viewBox="0 0 88 81" fill="none" xmlns="http://www.w3.org/2000/svg">
<path d="M43.998 80.0891C66.0894 80.0891 83.998 62.1805 83.998 40.0891C83.998 17.9977 66.0894 0.0891113 43.998 0.0891113C21.9067 0.0891113 3.99805 17.9977 3.99805 40.0891C3.99805 62.1805 21.9067 80.0891 43.998 80.0891Z" fill="#C7F0FF"/>
<path d="M81.9366 52.7939H6.05859C8.72422 60.7456 13.8209 67.6588 20.6287 72.5567C27.4364 77.4546 35.611 80.0898 43.9976 80.0898C52.3842 80.0898 60.5588 77.4546 67.3665 72.5567C74.1743 67.6588 79.271 60.7456 81.9366 52.7939V52.7939Z" fill="#B89558"/>
<path d="M5 52.7939H83" stroke="#45413C" stroke-linecap="round" stroke-linejoin="round"/>
<path d="M0.5 52.7939H3" stroke="#45413C" stroke-linecap="round" stroke-linejoin="round"/>
<path d="M85 52.7939H87.5" stroke="#45413C" stroke-linecap="round" stroke-linejoin="round"/>
<path d="M60.0684 64.7559H67.2244" stroke="#947746" stroke-linecap="round" stroke-linejoin="round"/>
<path d="M55.8936 64.7559H57.6826" stroke="#947746" stroke-linecap="round" stroke-linejoin="round"/>
<path d="M52.9111 64.7559H53.5081" stroke="#947746" stroke-linecap="round" stroke-linejoin="round"/>
<path d="M23.1143 60.7559H30.2713" stroke="#947746" stroke-linecap="round" stroke-linejoin="round"/>
<path d="M18.9404 60.7559H20.7294" stroke="#947746" stroke-linecap="round" stroke-linejoin="round"/>
<path d="M15.958 60.7559H16.554" stroke="#947746" stroke-linecap="round" stroke-linejoin="round"/>
<path d="M51.3316 77.127C51.8645 76.3944 52.1361 75.5041 52.1029 74.5989C52.0697 73.6936 51.7337 72.8256 51.1486 72.134C52.0026 71.9151 52.7623 71.4244 53.3129 70.7358C53.8634 70.0472 54.175 69.1982 54.2006 68.317C54.2248 67.66 54.0855 67.0072 53.7953 66.4173C53.505 65.8274 53.0729 65.3187 52.5376 64.937C52.0979 64.6189 51.599 64.3922 51.0702 64.2702C50.5415 64.1481 49.9936 64.1333 49.459 64.2265C48.9245 64.3197 48.414 64.5191 47.9577 64.8129C47.5015 65.1067 47.1087 65.4889 46.8026 65.937C46.729 66.0629 46.6168 66.1618 46.4826 66.2189C46.3484 66.276 46.1994 66.2883 46.0576 66.254L35.6006 62.959C35.7654 61.9237 35.5189 60.865 34.9136 60.009C34.5502 59.4916 34.0711 59.0662 33.5143 58.7665C32.9576 58.4669 32.3386 58.3013 31.7066 58.283C31.0493 58.2587 30.3962 58.398 29.806 58.6882C29.2157 58.9784 28.7067 59.4106 28.3246 59.946C27.7944 60.6794 27.5245 61.569 27.5581 62.4733C27.5916 63.3777 27.9265 64.2449 28.5096 64.937C27.6568 65.1581 26.8987 65.6499 26.3491 66.3385C25.7996 67.0271 25.4881 67.8754 25.4616 68.756C25.4251 69.7625 25.7713 70.7455 26.4306 71.507C26.6371 71.7447 26.8722 71.956 27.1306 72.136C27.6072 72.4805 28.153 72.7174 28.7302 72.8302C29.3074 72.943 29.9022 72.9291 30.4735 72.7894C31.0448 72.6497 31.5789 72.3875 32.0389 72.0211C32.4989 71.6546 32.8738 71.1926 33.1376 70.667L43.5906 73.967C43.7248 74.0195 43.8382 74.1143 43.9138 74.2369C43.9894 74.3596 44.023 74.5035 44.0096 74.647C43.9841 75.7191 44.3849 76.7575 45.1241 77.5344C45.8634 78.3113 46.8806 78.7632 47.9526 78.791C48.6096 78.8153 49.2624 78.676 49.8522 78.3856C50.442 78.0951 50.9504 77.6626 51.3316 77.127V77.127Z" fill="#947746"/>
<path d="M49.3272 69.7411C49.2575 69.664 49.2093 69.57 49.1874 69.4684C49.1655 69.3669 49.1706 69.2614 49.2023 69.1624C49.234 69.0635 49.2912 68.9746 49.368 68.9047C49.4449 68.8348 49.5387 68.7863 49.6402 68.7641C50.3687 68.5818 51.0174 68.1657 51.487 67.5797C51.9566 66.9936 52.2212 66.2698 52.2402 65.5191C52.2597 64.9657 52.142 64.4162 51.8978 63.9193C51.6535 63.4224 51.2902 62.9936 50.8402 62.6711C50.4678 62.4003 50.0448 62.207 49.5963 62.1027C49.1478 61.9984 48.6829 61.9852 48.2292 62.0639C47.7755 62.1427 47.3422 62.3117 46.955 62.5609C46.5679 62.8102 46.2347 63.1346 45.9752 63.5151C45.8279 63.7527 45.6072 63.9359 45.3465 64.0369C45.0858 64.138 44.7992 64.1514 44.5302 64.0751L33.5302 60.6041C33.6917 60.0963 33.7328 59.558 33.6505 59.0317C33.5681 58.5053 33.3645 58.0053 33.0557 57.5712C32.7468 57.1371 32.3413 56.7807 31.8711 56.5302C31.4008 56.2798 30.8788 56.1421 30.3462 56.1281C29.7927 56.1085 29.243 56.2261 28.746 56.4704C28.2489 56.7147 27.8199 57.078 27.4972 57.5281C27.1777 57.9674 26.9668 58.4762 26.8819 59.0127C26.797 59.5493 26.8405 60.0983 27.0089 60.6148C27.1772 61.1313 27.4656 61.6005 27.8503 61.9841C28.235 62.3676 28.7052 62.6544 29.2222 62.8211C28.7145 62.6596 28.1762 62.6185 27.6498 62.7008C27.1235 62.7832 26.6235 62.9868 26.1893 63.2956C25.7552 63.6045 25.3988 64.01 25.1484 64.4802C24.8979 64.9505 24.7603 65.4725 24.7462 66.0051C24.7267 66.5585 24.8443 67.1083 25.0886 67.6053C25.3328 68.1024 25.6961 68.5313 26.1462 68.8541C26.5856 69.1736 27.0945 69.3844 27.6311 69.4693C28.1677 69.5542 28.7168 69.5107 29.2334 69.3424C29.7499 69.1741 30.2193 68.8857 30.6029 68.501C30.9865 68.1163 31.2734 67.6461 31.4402 67.1291V67.1291L42.4402 70.6001C42.7033 70.6914 42.9292 70.8666 43.0831 71.0988C43.237 71.3309 43.3105 71.6071 43.2922 71.8851C43.2718 72.7953 43.6132 73.6766 44.2416 74.3355C44.87 74.9944 45.734 75.3773 46.6442 75.4001C47.1977 75.4194 47.7473 75.3017 48.2444 75.0575C48.7414 74.8132 49.1704 74.45 49.4932 74.0001C49.948 73.3747 50.1789 72.6144 50.1488 71.8418C50.1186 71.0691 49.8293 70.3291 49.3272 69.7411V69.7411Z" fill="white"/>
<path d="M49.4931 74C49.8268 73.531 50.042 72.9882 50.1201 72.418C49.4982 72.8965 48.7293 73.144 47.9451 73.118C47.0356 73.0933 46.1728 72.7093 45.5459 72.0499C44.9189 71.3905 44.5788 70.5096 44.6001 69.6C44.6181 69.322 44.5445 69.0457 44.3906 68.8135C44.2368 68.5812 44.0111 68.4058 43.7481 68.314L32.7481 64.844C32.5812 65.3609 32.2941 65.831 31.9105 66.2156C31.5268 66.6002 31.0575 66.8884 30.5409 67.0567C30.0244 67.2249 29.4753 67.2683 28.9388 67.1833C28.4022 67.0984 27.8934 66.8875 27.4541 66.568C27.0041 66.2454 26.6408 65.8166 26.3965 65.3197C26.1523 64.8228 26.0346 64.2733 26.0541 63.72C26.0541 63.603 26.0681 63.489 26.0831 63.377C25.6813 63.6894 25.3537 64.0869 25.1238 64.5409C24.8938 64.9949 24.7672 65.4942 24.7531 66.003C24.7335 66.5564 24.851 67.1062 25.0953 67.6033C25.3396 68.1003 25.7029 68.5293 26.1531 68.852C26.5924 69.1715 27.1012 69.3824 27.6377 69.4673C28.1743 69.5521 28.7233 69.5086 29.2398 69.3403C29.7563 69.172 30.2256 68.8836 30.6091 68.4989C30.9926 68.1142 31.2794 67.644 31.4461 67.127V67.127L42.4461 70.598C42.7092 70.6893 42.935 70.8645 43.089 71.0967C43.2429 71.3288 43.3163 71.605 43.2981 71.883C43.2771 72.7926 43.6175 73.6734 44.2446 74.3326C44.8717 74.9918 45.7346 75.3756 46.6441 75.4C47.1975 75.4193 47.7472 75.3016 48.2442 75.0574C48.7412 74.8131 49.1702 74.4499 49.4931 74V74Z" fill="#E0E0E0"/>
<path d="M49.3272 69.7411C49.2575 69.664 49.2093 69.57 49.1874 69.4684C49.1655 69.3669 49.1706 69.2614 49.2023 69.1624C49.234 69.0635 49.2912 68.9746 49.368 68.9047C49.4449 68.8348 49.5387 68.7863 49.6402 68.7641C50.3687 68.5818 51.0174 68.1657 51.487 67.5797C51.9566 66.9936 52.2212 66.2698 52.2402 65.5191C52.2597 64.9657 52.142 64.4162 51.8978 63.9193C51.6535 63.4224 51.2902 62.9936 50.8402 62.6711C50.4678 62.4003 50.0448 62.207 49.5963 62.1027C49.1478 61.9984 48.6829 61.9852 48.2292 62.0639C47.7755 62.1427 47.3422 62.3117 46.955 62.5609C46.5679 62.8102 46.2347 63.1346 45.9752 63.5151C45.8279 63.7527 45.6072 63.9359 45.3465 64.0369C45.0858 64.138 44.7992 64.1514 44.5302 64.0751L33.5302 60.6041C33.6917 60.0963 33.7328 59.558 33.6505 59.0317C33.5681 58.5053 33.3645 58.0053 33.0557 57.5712C32.7468 57.1371 32.3413 56.7807 31.8711 56.5302C31.4008 56.2798 30.8788 56.1421 30.3462 56.1281C29.7927 56.1085 29.243 56.2261 28.746 56.4704C28.2489 56.7147 27.8199 57.078 27.4972 57.5281C27.1777 57.9674 26.9668 58.4762 26.8819 59.0127C26.797 59.5493 26.8405 60.0983 27.0089 60.6148C27.1772 61.1313 27.4656 61.6005 27.8503 61.9841C28.235 62.3676 28.7052 62.6544 29.2222 62.8211C28.7145 62.6596 28.1762 62.6185 27.6498 62.7008C27.1235 62.7832 26.6235 62.9868 26.1893 63.2956C25.7552 63.6045 25.3988 64.01 25.1484 64.4802C24.8979 64.9505 24.7603 65.4725 24.7462 66.0051C24.7267 66.5585 24.8443 67.1083 25.0886 67.6053C25.3328 68.1024 25.6961 68.5313 26.1462 68.8541C26.5856 69.1736 27.0945 69.3844 27.6311 69.4693C28.1677 69.5542 28.7168 69.5107 29.2334 69.3424C29.7499 69.1741 30.2193 68.8857 30.6029 68.501C30.9865 68.1163 31.2734 67.6461 31.4402 67.1291V67.1291L42.4402 70.6001C42.7033 70.6914 42.9292 70.8666 43.0831 71.0988C43.237 71.3309 43.3105 71.6071 43.2922 71.8851C43.2718 72.7953 43.6132 73.6766 44.2416 74.3355C44.87 74.9944 45.734 75.3773 46.6442 75.4001C47.1977 75.4194 47.7473 75.3017 48.2444 75.0575C48.7414 74.8132 49.1704 74.45 49.4932 74.0001C49.948 73.3747 50.1789 72.6144 50.1488 71.8418C50.1186 71.0691 49.8293 70.3291 49.3272 69.7411V69.7411Z" stroke="#45413C" stroke-linecap="round" stroke-linejoin="round"/>
<path d="M9.59895 52.815C9.59777 52.5857 9.65494 52.3598 9.76508 52.1587C9.87522 51.9575 10.0347 51.7877 10.2285 51.6651C10.2239 51.6316 10.2215 51.5978 10.2214 51.5639C10.2215 51.4532 10.247 51.344 10.2959 51.2446C10.3448 51.1452 10.4158 51.0584 10.5034 50.9907C10.5911 50.923 10.693 50.8763 10.8015 50.8541C10.91 50.832 11.0222 50.8349 11.1293 50.8628C11.1754 50.7153 11.2673 50.5863 11.3918 50.4947C11.5164 50.4031 11.6669 50.3537 11.8214 50.3537H11.8381C11.8278 50.3031 11.8228 50.2516 11.8232 50.1999C11.8232 50.1048 11.842 50.0105 11.8784 49.9226C11.9149 49.8347 11.9683 49.7548 12.0356 49.6875C12.1029 49.6202 12.1828 49.5668 12.2708 49.5305C12.3587 49.4941 12.453 49.4754 12.5482 49.4754C12.5944 49.4754 12.6404 49.4798 12.6858 49.4885C12.7209 49.312 12.8205 49.1548 12.965 49.0476C13.1096 48.9404 13.2889 48.8909 13.468 48.9085C13.6471 48.9262 13.8132 49.0099 13.934 49.1432C14.0549 49.2766 14.1218 49.4502 14.1217 49.6301C14.3135 49.6306 14.4972 49.707 14.6327 49.8426C14.7682 49.9782 14.8445 50.162 14.8449 50.3537C14.8449 50.3668 14.8449 50.3794 14.8449 50.3924C15.0133 50.3351 15.1969 50.3417 15.3607 50.4109C15.5246 50.4801 15.6573 50.6072 15.7335 50.7679C15.8161 50.6589 15.9278 50.5755 16.0557 50.5272C16.1836 50.479 16.3226 50.4679 16.4566 50.4953C16.5905 50.5226 16.714 50.5873 16.8128 50.6819C16.9116 50.7765 16.9816 50.897 17.0148 51.0297C17.1248 50.9643 17.2502 50.9293 17.3782 50.9281C17.5062 50.9269 17.6323 50.9597 17.7435 51.023C17.8547 51.0863 17.9472 51.1779 18.0116 51.2886C18.0759 51.3993 18.1098 51.525 18.1098 51.653C18.1097 51.7168 18.1013 51.7803 18.0846 51.8419C18.2246 51.9635 18.338 52.1127 18.4176 52.2802C18.4973 52.4476 18.5417 52.6297 18.5479 52.815H9.59895Z" fill="#BF8256"/>
<path d="M24.6279 38.126C24.6279 38.126 26.407 36.3374 24.7376 32.9893C23.2536 30.0153 19.6725 29.0965 18.5226 27.1075C18.4993 27.0675 18.4639 27.036 18.4214 27.0177C18.379 26.9994 18.3318 26.9951 18.2867 27.0057C18.2417 27.0162 18.2013 27.0409 18.1713 27.0761C18.1414 27.1114 18.1236 27.1553 18.1205 27.2014C17.6816 33.9544 23.7483 34.0101 22.9667 35.6988L24.6279 38.126Z" fill="#FF8A14"/>
<path d="M18.1877 27.0598C19.0507 33.1791 25.0612 33.4309 24.1856 35.3296L23.0613 35.8387L22.9655 35.6989C23.7485 34.007 17.6773 33.954 18.1225 27.1934C18.1277 27.1425 18.1508 27.0952 18.1877 27.0598V27.0598Z" fill="white"/>
<path d="M24.6279 38.126C24.6279 38.126 26.407 36.3374 24.7376 32.9893C23.2536 30.0153 19.6725 29.0965 18.5226 27.1075C18.4993 27.0675 18.4639 27.036 18.4214 27.0177C18.379 26.9994 18.3318 26.9951 18.2867 27.0057C18.2417 27.0162 18.2013 27.0409 18.1713 27.0761C18.1414 27.1114 18.1236 27.1553 18.1205 27.2014C17.6816 33.9544 23.7483 34.0101 22.9667 35.6988L24.6279 38.126Z" stroke="#45413C" stroke-linecap="round" stroke-linejoin="round"/>
<path d="M26.4707 32.217C26.3476 31.5848 26.0724 30.9921 25.6689 30.4901C25.3173 30.0406 24.8741 29.6712 24.3687 29.4062" stroke="#8CA4B8" stroke-linecap="round" stroke-linejoin="round"/>
<path d="M28.2559 33.2938C28.2386 31.9196 27.7553 30.592 26.8851 29.5283C26.2526 28.7164 25.4319 28.0706 24.494 27.6467" stroke="#8CA4B8" stroke-linecap="round" stroke-linejoin="round"/>
<path d="M16.6429 31.137C16.6701 31.6433 16.8198 32.1354 17.0791 32.5711C17.3037 32.9606 17.6087 33.2979 17.9736 33.5605" stroke="#8CA4B8" stroke-linecap="round" stroke-linejoin="round"/>
<path d="M15.372 30.0999C15.2335 31.1736 15.4637 32.2626 16.025 33.1885C16.4288 33.8917 16.9978 34.4861 17.6826 34.9204" stroke="#8CA4B8" stroke-linecap="round" stroke-linejoin="round"/>
<path d="M24.3457 49.1745C23.3422 48.407 22.232 47.7902 21.0502 47.3438Z" fill="#BF8256"/>
<path d="M24.3457 49.1745C23.3422 48.407 22.232 47.7902 21.0502 47.3438" stroke="#8CA4B8" stroke-linecap="round" stroke-linejoin="round"/>
<path d="M24.2207 50.6748C22.2266 49.29 19.9082 48.4447 17.4907 48.2212" stroke="#8CA4B8" stroke-linecap="round" stroke-linejoin="round"/>
<path d="M41.0277 51.7042C40.978 51.7241 40.9237 51.7297 40.8709 51.7204C40.8181 51.7111 40.769 51.6873 40.7291 51.6516C40.3571 51.3211 39.9454 51.0382 39.5036 50.8093V50.8093L38.8493 52.815H34.1344L34.0602 51.6718C33.9833 51.4829 33.8679 51.3119 33.7213 51.1699C33.5747 51.028 33.4003 50.918 33.2089 50.8471C31.625 50.2624 27.2349 48.3975 23.9933 44.7503C23.5858 45.85 23.0278 46.8879 22.3352 47.8344C22.1356 48.7338 21.7029 50.2143 22.579 51.1075C22.7624 51.2949 22.9827 51.442 23.2261 51.5396C23.4345 51.6234 23.6131 51.7675 23.739 51.9535C23.8649 52.1395 23.9323 52.3588 23.9326 52.5834V52.8137H20.6286L19.8987 50.6047C19.8247 50.3826 19.8219 50.143 19.8906 49.9193C20.8853 46.6921 17.781 44.2951 17.9833 41.023C18.0345 40.1975 18.2508 39.3906 18.6194 38.6502C18.988 37.9098 19.5015 37.2509 20.1294 36.7125L20.2148 36.6392C21.4377 35.5911 23.0214 35.062 24.6287 35.1644C26.2359 35.2668 27.7397 35.9926 28.8197 37.1874C31.9596 41.6094 34.8459 42.8538 37.027 44.3379C37.7255 44.8135 38.3193 45.427 38.7717 46.1407C39.2242 46.8544 39.5257 47.6532 39.6579 48.4879C40.2005 48.7517 40.6441 49.1828 40.9234 49.7177C41.2026 50.2526 41.3027 50.8631 41.2089 51.4591C41.2045 51.5128 41.1852 51.5642 41.1532 51.6075C41.1212 51.6507 41.0777 51.6843 41.0277 51.7042V51.7042Z" fill="#FF8A14"/>
<path d="M30.5109 52.8149L29.7473 49.4623L32.124 49.1223L31.7966 52.8149H30.5109Z" fill="#FF8A14" stroke="#45413C" stroke-linecap="round" stroke-linejoin="round"/>
<path d="M36.3073 45.8421C33.8276 44.1553 31.7 43.9007 28.1319 38.8756C27.0411 37.6694 25.5656 36.8792 23.9571 36.6398C22.3486 36.4004 20.7068 36.7267 19.3121 37.5629C19.5568 37.2543 19.8306 36.97 20.1296 36.7138L20.2151 36.6409C21.4378 35.5926 23.0216 35.0632 24.6289 35.1656C26.2362 35.2679 27.74 35.9938 28.82 37.1887C31.9594 41.6108 34.8462 42.8551 37.0273 44.3392C38.3406 45.2332 39.2599 46.598 39.5947 48.151C38.552 47.3085 37.4537 46.5371 36.3073 45.8421V45.8421Z" fill="#FFAA54"/>
<path d="M34.1342 52.8151L34.0604 51.6719C33.9835 51.4829 33.868 51.312 33.7215 51.17C33.5749 51.028 33.4004 50.9181 33.2091 50.8471C31.6252 50.2625 27.2355 48.3975 23.994 44.7503C24.1582 44.2974 24.282 43.8309 24.3641 43.3562C27.6344 46.8415 32.8143 49.6073 34.3478 50.1757C34.5391 50.2467 34.7137 50.3567 34.8603 50.4987C35.0069 50.6406 35.1224 50.8115 35.1996 51.0005L35.3516 52.8146L34.1342 52.8151Z" fill="white"/>
<path d="M41.0277 51.7042C40.978 51.7241 40.9237 51.7297 40.8709 51.7204C40.8181 51.7111 40.769 51.6873 40.7291 51.6516C40.3571 51.3211 39.9454 51.0382 39.5036 50.8093V50.8093L38.8493 52.815H34.1344L34.0602 51.6718C33.9833 51.4829 33.8679 51.3119 33.7213 51.1699C33.5747 51.028 33.4003 50.918 33.2089 50.8471C31.625 50.2624 27.2349 48.3975 23.9933 44.7503C23.5858 45.85 23.0278 46.8879 22.3352 47.8344C22.1356 48.7338 21.7029 50.2143 22.579 51.1075C22.7624 51.2949 22.9827 51.442 23.2261 51.5396C23.4345 51.6234 23.6131 51.7675 23.739 51.9535C23.8649 52.1395 23.9323 52.3588 23.9326 52.5834V52.8137H20.6286L19.8987 50.6047C19.8247 50.3826 19.8219 50.143 19.8906 49.9193C20.8853 46.6921 17.781 44.2951 17.9833 41.023C18.0345 40.1975 18.2508 39.3906 18.6194 38.6502C18.988 37.9098 19.5015 37.2509 20.1294 36.7125L20.2148 36.6392C21.4377 35.5911 23.0214 35.062 24.6287 35.1644C26.2359 35.2668 27.7397 35.9926 28.8197 37.1874C31.9596 41.6094 34.8459 42.8538 37.027 44.3379C37.7255 44.8135 38.3193 45.427 38.7717 46.1407C39.2242 46.8544 39.5257 47.6532 39.6579 48.4879C40.2005 48.7517 40.6441 49.1828 40.9234 49.7177C41.2026 50.2526 41.3027 50.8631 41.2089 51.4591C41.2045 51.5128 41.1852 51.5642 41.1532 51.6075C41.1212 51.6507 41.0777 51.6843 41.0277 51.7042V51.7042Z" stroke="#45413C" stroke-linecap="round" stroke-linejoin="round"/>
<path d="M16.8857 52.5542C16.9027 52.4925 16.9113 52.4288 16.9113 52.3649C16.9113 52.2369 16.8774 52.1111 16.8131 52.0005C16.7487 51.8898 16.6562 51.7982 16.545 51.7349C16.4338 51.6716 16.3077 51.6388 16.1797 51.64C16.0517 51.6412 15.9263 51.6762 15.8163 51.7416C15.7832 51.6088 15.7132 51.4882 15.6144 51.3935C15.5156 51.2989 15.3921 51.2342 15.2581 51.2069C15.124 51.1795 14.985 51.1907 14.857 51.2391C14.7291 51.2875 14.6174 51.3711 14.535 51.4803C14.4588 51.3194 14.326 51.1923 14.1621 51.1229C13.9982 51.0536 13.8145 51.047 13.6459 51.1043C13.6459 51.0917 13.6459 51.0787 13.6459 51.0656C13.6459 50.8734 13.5696 50.689 13.4336 50.553C13.2977 50.4171 13.1133 50.3407 12.921 50.3407C12.9211 50.1486 12.845 49.9643 12.7093 49.8283C12.5736 49.6923 12.3895 49.6157 12.1974 49.6153C12.1673 49.6152 12.1373 49.617 12.1075 49.6207C12.2333 49.5247 12.3872 49.4728 12.5455 49.4732C12.5918 49.4732 12.638 49.4775 12.6835 49.4862C12.7182 49.3093 12.8175 49.1517 12.9621 49.0441C13.1068 48.9365 13.2863 48.8867 13.4657 48.9044C13.6451 48.9221 13.8114 49.006 13.9323 49.1398C14.0531 49.2736 14.1197 49.4476 14.119 49.6279C14.2144 49.6278 14.3088 49.6465 14.397 49.6829C14.4851 49.7193 14.5651 49.7728 14.6326 49.8402C14.7 49.9076 14.7534 49.9877 14.7899 50.0758C14.8263 50.1639 14.845 50.2584 14.8449 50.3537C14.8449 50.3668 14.8449 50.3794 14.8449 50.3924C15.0133 50.3351 15.1969 50.3416 15.3607 50.4109C15.5246 50.4801 15.6573 50.6072 15.7335 50.7679C15.8161 50.6589 15.9278 50.5755 16.0557 50.5272C16.1836 50.479 16.3226 50.4679 16.4566 50.4953C16.5905 50.5226 16.714 50.5873 16.8128 50.6819C16.9116 50.7764 16.9816 50.897 17.0148 51.0297C17.1248 50.9643 17.2502 50.9293 17.3782 50.9281C17.5062 50.9269 17.6323 50.9596 17.7435 51.023C17.8547 51.0863 17.9472 51.1779 18.0116 51.2886C18.0759 51.3992 18.1098 51.525 18.1098 51.653C18.11 51.7168 18.1015 51.7803 18.0846 51.8418C18.2244 51.9637 18.3376 52.1129 18.4173 52.2803C18.497 52.4478 18.5414 52.6297 18.5479 52.815H17.1088C17.0486 52.7169 16.9733 52.6289 16.8857 52.5542Z" fill="#DEA47A"/>
<path d="M9.59895 52.815C9.59777 52.5857 9.65494 52.3598 9.76508 52.1587C9.87522 51.9575 10.0347 51.7877 10.2285 51.6651C10.2239 51.6316 10.2215 51.5978 10.2214 51.5639C10.2215 51.4532 10.247 51.344 10.2959 51.2446C10.3448 51.1452 10.4158 51.0584 10.5034 50.9907C10.5911 50.923 10.693 50.8763 10.8015 50.8541C10.91 50.832 11.0222 50.8349 11.1293 50.8628C11.1754 50.7153 11.2673 50.5863 11.3918 50.4947C11.5164 50.4031 11.6669 50.3537 11.8214 50.3537H11.8381C11.8278 50.3031 11.8228 50.2516 11.8232 50.1999C11.8232 50.1048 11.842 50.0105 11.8784 49.9226C11.9149 49.8347 11.9683 49.7548 12.0356 49.6875C12.1029 49.6202 12.1828 49.5668 12.2708 49.5305C12.3587 49.4941 12.453 49.4754 12.5482 49.4754C12.5944 49.4754 12.6404 49.4798 12.6858 49.4885C12.7209 49.312 12.8205 49.1548 12.965 49.0476C13.1096 48.9404 13.2889 48.8909 13.468 48.9085C13.6471 48.9262 13.8132 49.0099 13.934 49.1432C14.0549 49.2766 14.1218 49.4502 14.1217 49.6301C14.3135 49.6306 14.4972 49.707 14.6327 49.8426C14.7682 49.9782 14.8445 50.162 14.8449 50.3537C14.8449 50.3668 14.8449 50.3794 14.8449 50.3924C15.0133 50.3351 15.1969 50.3417 15.3607 50.4109C15.5246 50.4801 15.6573 50.6072 15.7335 50.7679C15.8161 50.6589 15.9278 50.5755 16.0557 50.5272C16.1836 50.479 16.3226 50.4679 16.4566 50.4953C16.5905 50.5226 16.714 50.5873 16.8128 50.6819C16.9116 50.7765 16.9816 50.897 17.0148 51.0297C17.1248 50.9643 17.2502 50.9293 17.3782 50.9281C17.5062 50.9269 17.6323 50.9597 17.7435 51.023C17.8547 51.0863 17.9472 51.1779 18.0116 51.2886C18.0759 51.3993 18.1098 51.525 18.1098 51.653C18.1097 51.7168 18.1013 51.7803 18.0846 51.8419C18.2246 51.9635 18.338 52.1127 18.4176 52.2802C18.4973 52.4476 18.5417 52.6297 18.5479 52.815H9.59895Z" stroke="#45413C" stroke-linecap="round" stroke-linejoin="round"/>
<path d="M24.2693 41.1089C24.564 42.3218 24.4675 43.5968 23.9936 44.7516" stroke="#45413C" stroke-linecap="round" stroke-linejoin="round"/>
<path d="M39.5029 50.8097C39.0793 50.5912 38.6337 50.4181 38.1736 50.2935Z" fill="#F0D5A8"/>
<path d="M39.5029 50.8097C39.0793 50.5912 38.6337 50.4181 38.1736 50.2935" stroke="#45413C" stroke-linecap="round" stroke-linejoin="round"/>
<path d="M25.8246 49.7984C25.5551 49.7984 25.3366 49.5799 25.3366 49.3105C25.3366 49.041 25.5551 48.8225 25.8246 48.8225C26.094 48.8225 26.3125 49.041 26.3125 49.3105C26.3125 49.5799 26.094 49.7984 25.8246 49.7984Z" fill="#BF8256" stroke="#45413C" stroke-linecap="round" stroke-linejoin="round"/>
<path d="M15.157 48.5764C14.6898 48.5764 14.3111 48.1976 14.3111 47.7304C14.3111 47.2633 14.6898 46.8845 15.157 46.8845C15.6242 46.8845 16.0029 47.2633 16.0029 47.7304C16.0029 48.1976 15.6242 48.5764 15.157 48.5764Z" fill="#BF8256" stroke="#45413C" stroke-linecap="round" stroke-linejoin="round"/>
<path d="M16.7717 46.0171C16.4747 46.0171 16.2338 45.7763 16.2338 45.4793C16.2338 45.1822 16.4747 44.9414 16.7717 44.9414C17.0688 44.9414 17.3096 45.1822 17.3096 45.4793C17.3096 45.7763 17.0688 46.0171 16.7717 46.0171Z" fill="#BF8256" stroke="#45413C" stroke-linecap="round" stroke-linejoin="round"/>
<path d="M29.9405 45.0857L29.7907 46.5095C29.7155 47.2212 29.4341 47.8955 28.9812 48.4496L27.1671 50.6716L26.2703 50.6829C25.9627 50.6866 25.6666 50.8001 25.4353 51.0029C25.2039 51.2056 25.0525 51.4843 25.0084 51.7887L27.0654 52.0864C27.2304 52.1105 27.3986 52.1006 27.5597 52.0574C27.7207 52.0143 27.8713 51.9388 28.0022 51.8355L30.2849 50.3249C30.3403 50.273 30.4069 50.2347 30.4795 50.213C30.5522 50.1913 30.6289 50.1868 30.7036 50.1999L32.2327 50.4612L33.3857 48.4725" fill="#FF8A14"/>
<path d="M29.9405 45.0857L29.7907 46.5095C29.7155 47.2212 29.4341 47.8955 28.9812 48.4496L27.1671 50.6716L26.2703 50.6829C25.9627 50.6866 25.6666 50.8001 25.4353 51.0029C25.2039 51.2056 25.0525 51.4843 25.0084 51.7887L27.0654 52.0864C27.2304 52.1105 27.3986 52.1006 27.5597 52.0574C27.7207 52.0143 27.8713 51.9388 28.0022 51.8355L30.2849 50.3249C30.3403 50.273 30.4069 50.2347 30.4795 50.213C30.5522 50.1913 30.6289 50.1868 30.7036 50.1999L32.2327 50.4612L33.3857 48.4725" stroke="#45413C" stroke-linecap="round" stroke-linejoin="round"/>
<path d="M32.293 50.0845C32.2581 50.1397 32.2347 50.2014 32.224 50.2659C32.2133 50.3304 32.2157 50.3964 32.231 50.4599C32.2462 50.5234 32.2741 50.5833 32.3128 50.6359C32.3516 50.6885 32.4005 50.7328 32.4567 50.7662L32.8291 50.9866C32.939 51.0519 33.0702 51.0713 33.1944 51.0408C33.3185 51.0103 33.4257 50.9322 33.4928 50.8234C34.7626 48.7944 36.2661 46.9216 37.9725 45.2433C38.0211 45.1948 38.059 45.1366 38.0836 45.0726C38.1083 45.0085 38.1191 44.9399 38.1155 44.8714C38.1119 44.8028 38.0939 44.7358 38.0627 44.6746C38.0314 44.6135 37.9877 44.5596 37.9342 44.5165L37.6069 44.253C37.5136 44.178 37.396 44.14 37.2765 44.1461C37.157 44.1523 37.0439 44.2022 36.9588 44.2863C35.1907 46.0376 33.6256 47.9826 32.293 50.0845V50.0845Z" fill="#FF6242" stroke="#45413C" stroke-linecap="round" stroke-linejoin="round"/>
<path opacity="0.15" d="M57.0339 62.996C62.3565 62.996 66.6713 62.3487 66.6713 61.5503C66.6713 60.7518 62.3565 60.1045 57.0339 60.1045C51.7113 60.1045 47.3965 60.7518 47.3965 61.5503C47.3965 62.3487 51.7113 62.996 57.0339 62.996Z" fill="#45413C"/>
<path d="M49.8196 28.923C49.5516 28.3483 49.125 27.8621 48.5902 27.5215C48.0553 27.1808 47.4343 26.9999 46.8002 27H44.1441C43.5348 27 42.9356 27.1553 42.403 27.4511C41.8703 27.7469 41.4219 28.1736 41.0998 28.6908L39.3047 31.5766C39.0697 31.9537 38.6977 32.2251 38.2668 32.3338L35.3747 33.0637C35.1072 33.1183 34.8567 33.2357 34.6437 33.4064C34.4307 33.5771 34.2615 33.796 34.15 34.0451C34.0385 34.2942 33.9879 34.5663 34.0024 34.8388C34.017 35.1113 34.0963 35.3765 34.2337 35.6123L35.0374 36.9899C35.7603 38.2289 36.9763 40.0011 38.9624 39.394L43.8425 37.6339C47.5002 38.9276 41.8991 44.2194 48.8645 49.2872L48.6099 57.6551L47.5504 58.0592C47.1234 58.222 46.757 58.5126 46.5013 58.8915C46.2456 59.2703 46.1131 59.7188 46.1218 60.1757C46.1302 60.3421 46.2028 60.4987 46.3244 60.6126C46.4459 60.7266 46.6069 60.7889 46.7734 60.7866H49.9717C50.526 60.7865 51.0602 60.5792 51.4695 60.2053C51.8787 59.8315 52.1335 59.3182 52.1836 58.7662L53.2272 51.1517C53.2538 50.9327 53.3637 50.7323 53.534 50.5921C53.7044 50.452 53.9222 50.3828 54.1423 50.3989C55.5346 51.8199 57.9101 53.5921 60.1576 53.1288C59.394 55.1588 59.9171 56.6739 61.4265 57.7964L59.5079 57.8511C59.2125 57.8449 58.9187 57.8977 58.6439 58.0064C58.3691 58.1152 58.1188 58.2778 57.9077 58.4846C57.6966 58.6914 57.5289 58.9383 57.4144 59.2107C57.3 59.4832 57.2411 59.7758 57.2413 60.0713C57.2413 60.2607 57.3165 60.4423 57.4504 60.5762C57.5843 60.7101 57.7659 60.7853 57.9552 60.7853H66.2277C67.1109 60.7851 67.9578 60.4343 68.5824 59.8098C69.2069 59.1854 69.558 58.3385 69.5583 57.4553V53.3948C70.5504 45.1631 57.1815 40.0081 52.7366 35.1821L49.8196 28.923Z" fill="#FFDA8F"/>
<path d="M35.7685 35.7071L39.2155 34.5884C39.6464 34.4797 40.0184 34.2083 40.2534 33.8311L41.6044 32.0004C41.9264 31.4831 42.3748 31.0565 42.9075 30.7606C43.4401 30.4648 44.0394 30.3096 44.6486 30.3096H45.0845C45.7186 30.3096 46.3395 30.4905 46.8742 30.8311C47.409 31.1718 47.8354 31.658 48.1033 32.2326L51.0222 37.2706C54.8333 41.41 66.8481 47.0181 69.5582 53.7257V53.3948C70.5503 45.1631 57.1814 40.0081 52.7365 35.1821L49.8176 28.923C49.5496 28.3483 49.123 27.8621 48.5882 27.5215C48.0533 27.1808 47.4323 26.9999 46.7982 27H44.144C43.5347 26.9999 42.9355 27.1551 42.4028 27.4509C41.8702 27.7468 41.4217 28.1735 41.0998 28.6908L39.3046 31.5759C39.0701 31.9536 38.6979 32.2254 38.2668 32.3338L35.3752 33.0637C35.1078 33.1182 34.8571 33.2356 34.6441 33.4062C34.431 33.5769 34.2617 33.7958 34.1501 34.0449C34.0385 34.294 33.9879 34.5661 34.0024 34.8387C34.017 35.1112 34.0962 35.3764 34.2336 35.6123L34.6988 36.4096C34.9516 36.0464 35.3348 35.7948 35.7685 35.7071V35.7071Z" fill="#FFE9BD"/>
<path d="M49.8196 28.923C49.5516 28.3483 49.125 27.8621 48.5902 27.5215C48.0553 27.1808 47.4343 26.9999 46.8002 27H44.1441C43.5348 27 42.9356 27.1553 42.403 27.4511C41.8703 27.7469 41.4219 28.1736 41.0998 28.6908L39.3047 31.5766C39.0697 31.9537 38.6977 32.2251 38.2668 32.3338L35.3747 33.0637C35.1072 33.1183 34.8567 33.2357 34.6437 33.4064C34.4307 33.5771 34.2615 33.796 34.15 34.0451C34.0385 34.2942 33.9879 34.5663 34.0024 34.8388C34.017 35.1113 34.0963 35.3765 34.2337 35.6123L35.0374 36.9899C35.7603 38.2289 36.9763 40.0011 38.9624 39.394L43.8425 37.6339C47.5002 38.9276 41.8991 44.2194 48.8645 49.2872L48.6099 57.6551L47.5504 58.0592C47.1234 58.222 46.757 58.5126 46.5013 58.8915C46.2456 59.2703 46.1131 59.7188 46.1218 60.1757C46.1302 60.3421 46.2028 60.4987 46.3244 60.6126C46.4459 60.7266 46.6069 60.7889 46.7734 60.7866H49.9717C50.526 60.7865 51.0602 60.5792 51.4695 60.2053C51.8787 59.8315 52.1335 59.3182 52.1836 58.7662L53.2272 51.1517C53.2538 50.9327 53.3637 50.7323 53.534 50.5921C53.7044 50.452 53.9222 50.3828 54.1423 50.3989C55.5346 51.8199 57.9101 53.5921 60.1576 53.1288C59.394 55.1588 59.9171 56.6739 61.4265 57.7964L59.5079 57.8511C59.2125 57.8449 58.9187 57.8977 58.6439 58.0064C58.3691 58.1152 58.1188 58.2778 57.9077 58.4846C57.6966 58.6914 57.5289 58.9383 57.4144 59.2107C57.3 59.4832 57.2411 59.7758 57.2413 60.0713C57.2413 60.2607 57.3165 60.4423 57.4504 60.5762C57.5843 60.7101 57.7659 60.7853 57.9552 60.7853H66.2277C67.1109 60.7851 67.9578 60.4343 68.5824 59.8098C69.2069 59.1854 69.558 58.3385 69.5583 57.4553V53.3948C70.5504 45.1631 57.1815 40.0081 52.7366 35.1821L49.8196 28.923Z" stroke="#45413C" stroke-linecap="round" stroke-linejoin="round"/>
<path d="M42.7915 31.9296C42.6384 31.8109 42.4569 31.7342 42.2651 31.7072C42.0732 31.6801 41.8776 31.7036 41.6977 31.7754C41.5177 31.8471 41.3596 31.9646 41.2389 32.1162C41.1183 32.2678 41.0393 32.4482 41.0098 32.6397" stroke="#45413C" stroke-linecap="round" stroke-linejoin="round"/>
<path d="M35.4385 37.6372L35.5263 37.6341C35.5263 37.6341 37.9253 37.5373 38.4255 36.6204" stroke="#45413C" stroke-linecap="round" stroke-linejoin="round"/>
<path d="M69.5576 54.9298C69.5576 54.9298 77.3636 55.4707 77.8797 48.7707C77.8887 48.6506 77.9424 48.5382 78.0301 48.4557C78.1178 48.3732 78.2333 48.3266 78.3537 48.325C78.4741 48.3234 78.5907 48.367 78.6806 48.4471C78.7705 48.5272 78.8271 48.6381 78.8393 48.7579C79.2968 53.2289 75.9891 57.0374 69.5576 57.4555V54.9298Z" fill="#FFDA8F"/>
<path d="M71.5303 54.8318C70.8772 54.9253 70.2168 54.9581 69.5576 54.9298V57.4554C70.2197 57.4147 70.8786 57.332 71.5303 57.2079V54.8318Z" fill="#FFBE3D"/>
<path d="M69.5576 54.9298C69.5576 54.9298 77.3636 55.4707 77.8797 48.7707C77.8887 48.6506 77.9424 48.5382 78.0301 48.4557C78.1178 48.3732 78.2333 48.3266 78.3537 48.325C78.4741 48.3234 78.5907 48.367 78.6806 48.4471C78.7705 48.5272 78.8271 48.6381 78.8393 48.7579C79.2968 53.2289 75.9891 57.0374 69.5576 57.4555V54.9298Z" stroke="#45413C" stroke-linecap="round" stroke-linejoin="round"/>
<path d="M44.5625 29.7999C44.7671 30.4777 44.789 31.1975 44.6261 31.8865C44.5687 32.2064 44.5821 32.535 44.6652 32.8492C44.7483 33.1635 44.8992 33.4557 45.1072 33.7054C45.3153 33.9551 45.5755 34.1563 45.8695 34.2947C46.1636 34.4332 46.4844 34.5056 46.8094 34.5069H47.7639C48.3529 34.5069 48.9178 34.2729 49.3343 33.8565C49.7508 33.44 49.9848 32.8751 49.9848 32.2861V29.2819L49.8174 28.923C49.5493 28.3483 49.1228 27.8621 48.5879 27.5215C48.0531 27.1808 47.4321 26.9999 46.798 27H44.9723C44.684 27.3994 44.4962 27.8624 44.4249 28.3498C44.3535 28.8372 44.4008 29.3346 44.5625 29.7999V29.7999Z" fill="#BF8256" stroke="#45413C" stroke-linecap="round" stroke-linejoin="round"/>
<path d="M52.7379 35.182L52.3606 34.3745L44.6475 38.1022C45.1941 38.6246 45.2558 39.3895 45.2138 40.3224L53.7752 36.1862C53.4119 35.87 53.0657 35.5348 52.7379 35.182Z" fill="#FF6242" stroke="#45413C" stroke-linecap="round" stroke-linejoin="round"/>
<path d="M60.1582 53.13C60.4274 52.4005 60.9107 51.7693 61.5447 51.3191C62.1788 50.8688 62.934 50.6206 63.7115 50.6069" fill="#FFDA8F"/>
<path d="M60.1582 53.13C60.4274 52.4005 60.9107 51.7693 61.5447 51.3191C62.1788 50.8688 62.934 50.6206 63.7115 50.6069" stroke="#45413C" stroke-linecap="round" stroke-linejoin="round"/>
<path d="M34.0427 35.1268C33.992 34.9036 33.9864 34.6726 34.0262 34.4473C34.0659 34.2219 34.1503 34.0068 34.2744 33.8145C34.3985 33.6222 34.5597 33.4566 34.7486 33.3275C34.9376 33.1983 35.1504 33.1083 35.3746 33.0625L35.85 32.9429C35.9503 33.1509 36.0029 33.3788 36.004 33.6098C36.0065 33.85 35.9534 34.0875 35.8487 34.3038C35.744 34.52 35.5906 34.709 35.4006 34.856C35.2106 35.003 34.9891 35.1039 34.7535 35.1509C34.5179 35.1979 34.2746 35.1896 34.0427 35.1268V35.1268Z" fill="#656769" stroke="#45413C" stroke-linecap="round" stroke-linejoin="round"/>
</svg>
