<svg width="32" height="32" viewBox="0 0 32 32" fill="none" xmlns="http://www.w3.org/2000/svg">
<rect y="17.5" width="32" height="5.375" fill="#FFF06C" fill-opacity="0.75"/>
<path d="M7.91786 9.125C8.95372 9.125 9.81694 9.36852 10.5075 9.85555C11.1981 10.3426 11.5434 11.0992 11.5434 12.1255C11.5434 13.4126 10.7751 14.4128 9.23858 15.1259C7.70205 15.8391 5.92382 16.3087 3.90389 16.5349C3.90389 18.1699 4.1456 19.3962 4.629 20.2137C5.1124 21.0312 5.85477 21.44 6.8561 21.44C7.65026 21.44 8.41852 21.1791 9.16089 20.6573C9.90326 20.118 10.5507 19.3266 11.1031 18.283L11.9577 18.7787C11.2326 20.1528 10.4212 21.1617 9.52344 21.8053C8.6257 22.4315 7.58983 22.7445 6.41586 22.7445C4.82754 22.7445 3.62766 22.2488 2.81624 21.2574C2.02208 20.2485 1.625 18.8657 1.625 17.1089C1.625 15.7 1.85807 14.3954 2.32421 13.1952C2.80761 11.9776 3.52408 10.9949 4.47362 10.2469C5.42316 9.49897 6.57124 9.125 7.91786 9.125ZM7.55531 10.0121C6.45039 10.0121 5.5958 10.5513 4.99155 11.6297C4.3873 12.7082 4.03338 14.0301 3.92979 15.5956C5.43179 15.3869 6.71798 14.9694 7.78837 14.3432C8.85876 13.717 9.39396 12.9343 9.39396 11.995C9.39396 11.421 9.22995 10.9514 8.90193 10.5861C8.59117 10.2034 8.14229 10.0121 7.55531 10.0121Z" fill="#394988"/>
<path d="M22.3568 9.125C23.3754 9.125 24.1523 9.55985 24.6875 10.4296C25.2399 11.2819 25.5162 12.369 25.5162 13.6909C25.5162 14.8389 25.3004 16.013 24.8688 17.2132C24.5062 18.1699 24.0055 19.0744 23.3668 19.9267C22.728 20.7616 21.9942 21.44 21.1655 21.9618C20.3541 22.4836 19.5168 22.7445 18.6536 22.7445C17.6177 22.7445 16.8754 22.3967 16.4265 21.7009C15.9776 21.0051 15.7532 20.1093 15.7532 19.0135C15.7532 18.0742 15.7963 17.0828 15.8827 16.0391C15.9862 14.9955 16.0467 14.378 16.0639 14.1867C16.202 13.0387 16.2711 12.1864 16.2711 11.6297C16.2711 11.2645 16.2193 10.9775 16.1157 10.7687C16.0121 10.56 15.8222 10.4556 15.546 10.4556C15.2352 10.4556 14.9159 10.6644 14.5878 11.0818C14.2771 11.4993 14.0095 12.1429 13.785 13.0126L13.0599 12.8299C13.1463 12.3255 13.3189 11.795 13.5779 11.2384C13.8368 10.6644 14.1994 10.1686 14.6655 9.75119C15.1489 9.33373 15.7186 9.125 16.3747 9.125C17.048 9.125 17.5573 9.35982 17.9026 9.82946C18.2479 10.2817 18.4205 10.934 18.4205 11.7863C18.4205 12.5342 18.3256 14.0736 18.1357 16.4044C17.9975 18.1786 17.9285 19.257 17.9285 19.6397C17.9285 20.1441 18.0062 20.5529 18.1615 20.866C18.3169 21.1791 18.6363 21.3356 19.1197 21.3356C19.6894 21.3356 20.2937 21.1182 20.9325 20.6833C21.5885 20.2485 22.1755 19.6658 22.6934 18.9352C23.2286 18.2047 23.6257 17.4307 23.8847 16.6131C23.9883 16.3 24.0746 15.9 24.1436 15.413C24.23 14.9085 24.2731 14.4041 24.2731 13.8997C24.2731 13.1691 24.1695 12.5342 23.9624 11.995C23.7725 11.4384 23.4531 11.0644 23.0042 10.8731C22.8143 11.308 22.469 11.5254 21.9683 11.5254C21.6921 11.5254 21.4418 11.4384 21.2173 11.2645C21.0102 11.0731 20.898 10.7948 20.8807 10.4296C20.8807 10.0991 21.0015 9.80337 21.2432 9.54246C21.4849 9.26415 21.8561 9.125 22.3568 9.125Z" fill="#394988"/>
<path d="M29.0284 19.5875C29.4255 19.5875 29.7449 19.7354 29.9866 20.0311C30.2455 20.3268 30.375 20.692 30.375 21.1269C30.375 21.6139 30.2196 22.0314 29.9089 22.3793C29.5981 22.7098 29.2356 22.875 28.8212 22.875C28.4241 22.875 28.0875 22.7272 27.8112 22.4315C27.5523 22.1184 27.4228 21.7357 27.4228 21.2834C27.4228 20.8138 27.5868 20.4137 27.9148 20.0833C28.2429 19.7528 28.614 19.5875 29.0284 19.5875Z" fill="#394988"/>
</svg>
