<svg width="205" height="210" viewBox="0 0 205 210" fill="none" xmlns="http://www.w3.org/2000/svg">
<g clip-path="url(#clip0)">
<rect width="205" height="210" fill="white"/>
<path opacity="0.3" fill-rule="evenodd" clip-rule="evenodd" d="M82.0612 196.051C82.0612 196.051 118.925 217.077 153.279 199.533C194.935 178.249 150.857 133.304 183.377 102.133C215.898 70.9618 165.352 -22.204 76.7566 5.76918C-11.8392 33.7424 -27.8772 137.838 82.0612 196.051Z" fill="#FFCFEA"/>
<path d="M117.995 205.35C146.389 200.833 168.886 193.894 168.243 189.853C167.6 185.811 144.061 186.197 115.667 190.715C87.2721 195.232 64.7752 202.171 65.4182 206.212C66.0612 210.254 89.6006 209.868 117.995 205.35Z" fill="#EFEEFF"/>
<path d="M131.349 36.5868L155.915 180.39C156.054 181.199 156.111 182.02 156.085 182.84C156.085 183.243 156.037 183.638 155.985 184.032L155.894 184.626C155.681 185.781 155.299 186.899 154.762 187.943C154.495 188.462 154.193 188.962 153.856 189.439C153.518 189.911 153.148 190.36 152.75 190.783C152.486 191.061 152.2 191.329 151.909 191.59C151.618 191.847 151.312 192.089 150.994 192.314V192.314C150.513 192.657 150.008 192.964 149.481 193.233V193.233C149.126 193.411 148.761 193.575 148.393 193.718C147.625 194.016 146.829 194.235 146.017 194.373L87.0508 204.458C86.1918 204.603 85.3198 204.657 84.4494 204.618L84.0158 204.592L83.5519 204.549C82.9087 204.47 82.2724 204.343 81.6485 204.167C81.332 204.072 81.0328 203.972 80.738 203.864C80.5993 203.812 80.4605 203.76 80.3044 203.699C80.0139 203.582 79.7321 203.448 79.4373 203.305C78.5729 202.863 77.765 202.318 77.0309 201.683C76.7345 201.432 76.4523 201.164 76.1855 200.881C75.7787 200.459 75.4047 200.007 75.0668 199.528C74.6032 198.886 74.208 198.197 73.8875 197.473V197.473C73.4765 196.541 73.1851 195.561 73.0204 194.555L48.4627 50.7256C47.9273 47.5571 48.6699 44.3056 50.5278 41.6837C52.3857 39.0618 55.2074 37.2835 58.3742 36.7385L117.34 26.6622C120.514 26.1208 123.773 26.8621 126.4 28.7233C129.027 30.5845 130.807 33.4131 131.349 36.5868V36.5868Z" fill="#292929"/>
<path d="M128.719 37.0201L153.286 180.819C153.395 181.455 153.44 182.1 153.42 182.744C153.413 183.045 153.388 183.344 153.346 183.642L153.26 184.18C153.097 185.062 152.805 185.915 152.393 186.712C152.182 187.118 151.943 187.509 151.677 187.882C151.416 188.258 151.126 188.613 150.81 188.944C150.654 189.109 150.463 189.291 150.242 189.491L150.155 189.573C149.969 189.734 149.782 189.89 149.579 190.037L149.44 190.132C149.104 190.372 148.752 190.59 148.386 190.783L148.265 190.848C147.97 190.995 147.693 191.117 147.398 191.229C146.793 191.455 146.169 191.625 145.533 191.737L86.5673 201.813C85.9015 201.925 85.2259 201.969 84.5512 201.943C84.3214 201.943 84.0916 201.917 83.8704 201.891C83.3604 201.829 82.8559 201.728 82.3616 201.588C82.1188 201.514 81.8803 201.436 81.6722 201.353L81.3774 201.241L81.3124 201.215C81.1346 201.141 80.9265 201.046 80.675 200.92C80.0009 200.568 79.3696 200.141 78.7933 199.645C78.5505 199.437 78.338 199.238 78.1429 199.034C77.8282 198.7 77.5384 198.343 77.2758 197.967C76.942 197.507 76.6517 197.016 76.4086 196.502L76.3436 196.363C76.02 195.634 75.7871 194.868 75.6499 194.082L51.0879 50.2788C50.6694 47.8063 51.2488 45.2688 52.6989 43.2229C54.1489 41.177 56.3513 39.7899 58.8229 39.3658L117.789 29.2895C119.661 28.9657 121.586 29.2122 123.316 29.997C125.045 30.7818 126.499 32.0686 127.488 33.6903C128.107 34.7114 128.525 35.8417 128.719 37.0201V37.0201Z" fill="#F8F8F8"/>
<path opacity="0.2" d="M148.847 140.554C148.817 140.007 148.795 139.357 148.782 138.616L150.72 149.954C150.085 148.853 149.513 147.716 149.007 146.55C148.621 145.414 148.687 142.813 148.847 140.554Z" fill="#292929"/>
<path d="M137.571 72.9814L134.67 56.0026C135.306 55.8946 135.959 56.0436 136.485 56.4168C137.011 56.79 137.367 57.3569 137.475 57.9927V57.9927L139.556 70.1762C139.611 70.4908 139.603 70.8132 139.533 71.1248C139.462 71.4363 139.331 71.7309 139.147 71.9916C138.962 72.2523 138.728 72.474 138.457 72.6438C138.187 72.8137 137.886 72.9284 137.571 72.9814V72.9814Z" fill="#292929"/>
<path d="M54.4309 78.4484L53.0434 78.6868C52.7761 78.7321 52.5017 78.6693 52.2806 78.5124C52.0595 78.3555 51.9097 78.1173 51.8641 77.85L50.7455 71.3768C50.7225 71.2443 50.7259 71.1087 50.7556 70.9776C50.7853 70.8465 50.8406 70.7226 50.9184 70.6129C50.9962 70.5033 51.0949 70.4102 51.2088 70.3389C51.3228 70.2676 51.4497 70.2195 51.5823 70.1975L52.9697 69.959L54.4178 78.4484H54.4309Z" fill="#292929"/>
<path d="M56.1833 88.6891L54.7915 88.9232C54.5248 88.9685 54.251 88.9064 54.03 88.7504C53.809 88.5944 53.6588 88.3572 53.6122 88.0908L52.5066 81.6175C52.4613 81.3497 52.5239 81.0748 52.6807 80.853C52.8375 80.6312 53.0758 80.4805 53.3434 80.4338L54.7308 80.1997L56.1833 88.6891V88.6891Z" fill="#292929"/>
<path d="M97.7125 36.422L80.1744 39.418C79.4727 39.5381 78.7541 39.5187 78.0598 39.3609C77.3655 39.2032 76.7091 38.9102 76.1281 38.4987C75.5471 38.0872 75.0529 37.5653 74.6736 36.9627C74.2944 36.3601 74.0376 35.6887 73.918 34.9869L102.144 30.1655C102.264 30.8673 102.244 31.5859 102.087 32.2801C101.929 32.9744 101.636 33.6308 101.224 34.2118C100.813 34.7929 100.291 35.2871 99.6883 35.6663C99.0858 36.0455 98.4144 36.3023 97.7125 36.422Z" fill="#292929"/>
<path d="M137.068 140.946L137.002 140.958L136.955 140.965C136.916 140.954 136.879 140.936 136.845 140.912L134.406 139.078C134.022 138.798 133.722 138.419 133.538 137.981C133.354 137.544 133.293 137.064 133.361 136.594C133.397 136.23 133.557 135.889 133.814 135.628C134.07 135.368 134.409 135.203 134.772 135.161C134.991 135.115 135.218 135.115 135.437 135.161C135.656 135.207 135.864 135.298 136.046 135.428C136.127 135.488 136.201 135.557 136.268 135.632C136.311 135.537 136.362 135.446 136.42 135.36C136.558 135.187 136.729 135.042 136.924 134.937C137.119 134.831 137.334 134.766 137.555 134.745C137.914 134.679 138.286 134.737 138.608 134.911C138.929 135.084 139.182 135.363 139.325 135.699C139.528 136.128 139.61 136.604 139.562 137.076C139.514 137.547 139.338 137.997 139.053 138.376L137.278 140.824C137.254 140.858 137.222 140.887 137.186 140.908C137.15 140.929 137.11 140.942 137.068 140.946V140.946ZM134.891 135.724L134.863 135.729C134.624 135.75 134.4 135.857 134.233 136.029C134.066 136.201 133.966 136.428 133.952 136.668C133.9 137.029 133.947 137.397 134.089 137.733C134.231 138.069 134.461 138.36 134.755 138.575L136.961 140.227L138.571 138C138.791 137.707 138.927 137.361 138.965 136.997C139.003 136.633 138.941 136.266 138.786 135.935C138.7 135.711 138.536 135.525 138.326 135.411C138.115 135.296 137.87 135.26 137.635 135.31C137.493 135.32 137.354 135.36 137.228 135.426C137.102 135.492 136.99 135.583 136.9 135.694C136.735 135.969 136.672 136.293 136.722 136.61C136.73 136.649 136.73 136.689 136.723 136.727C136.715 136.766 136.7 136.803 136.678 136.835C136.656 136.868 136.628 136.896 136.596 136.918C136.563 136.94 136.526 136.955 136.488 136.963C136.45 136.971 136.41 136.972 136.372 136.965C136.333 136.958 136.296 136.943 136.264 136.922C136.231 136.901 136.203 136.873 136.181 136.84C136.159 136.808 136.144 136.772 136.136 136.733L136.126 136.677C136.077 136.366 135.92 136.082 135.683 135.875C135.568 135.797 135.439 135.744 135.303 135.718C135.166 135.692 135.026 135.694 134.891 135.724V135.724Z" fill="#F8BED7"/>
<path d="M63.4994 74.7194L72.9868 129.519C73.2907 131.275 74.9604 132.452 76.716 132.148L134.845 122.084C136.6 121.78 137.777 120.111 137.473 118.355L127.986 63.5551C127.682 61.7994 126.012 60.6226 124.257 60.9265L66.1279 70.9902C64.3723 71.2941 63.1954 72.9638 63.4994 74.7194Z" fill="#BFB9FF"/>
<path d="M111.15 89.0468C111.046 88.4344 110.815 87.8507 110.47 87.3337C110.126 86.8167 109.677 86.3779 109.152 86.0458L104.811 83.3189L100.688 84.0198L96.1756 84.7863L92.0524 85.4872L88.8589 89.4926C88.4718 89.978 88.1917 90.5398 88.037 91.141C87.8822 91.7423 87.8563 92.3694 87.961 92.9814L91.4104 113.313C91.4194 113.359 91.4275 113.401 91.4357 113.443C91.8309 115.787 97.3376 116.759 103.742 115.67C110.147 114.58 115.019 111.818 114.648 109.5C114.639 109.453 114.63 109.411 114.622 109.369L111.15 89.0468Z" fill="#FFCFEA"/>
<path d="M86.8102 80.8275L87.8206 86.7766C87.9898 87.7726 88.9344 88.4429 89.9304 88.2738L107.735 85.2497C108.732 85.0806 109.402 84.136 109.233 83.14L108.222 77.1909C108.053 76.1949 107.108 75.5245 106.112 75.6937L88.3074 78.7178C87.3114 78.8869 86.6411 79.8315 86.8102 80.8275Z" fill="#FBF4A3"/>
<path d="M88.2066 94.4653L90.9375 110.527L114.129 106.584L111.398 90.5223L88.2066 94.4653Z" fill="#A3DCF9"/>
<path d="M98.5844 104.985L98.2615 104.767C97.9745 104.573 97.7285 104.325 97.5376 104.036C97.3466 103.747 97.2145 103.423 97.1487 103.083C97.0829 102.743 97.0848 102.393 97.1541 102.054C97.2235 101.714 97.3591 101.392 97.553 101.105L100.389 96.9026C100.781 96.3245 101.386 95.9253 102.071 95.7926C102.757 95.66 103.467 95.8047 104.046 96.1951V96.1951L104.374 96.4124C104.661 96.606 104.906 96.8541 105.097 97.1427C105.288 97.4313 105.42 97.7547 105.486 98.0944C105.552 98.4341 105.55 98.7834 105.48 99.1223C105.411 99.4612 105.275 99.7832 105.081 100.07V100.07L102.245 104.272C101.854 104.851 101.248 105.252 100.562 105.385C99.876 105.519 99.1648 105.375 98.5844 104.985Z" fill="#FDE1B2"/>
<path d="M104.045 96.1906C103.758 95.9968 103.437 95.8613 103.098 95.7919C102.76 95.7225 102.411 95.7205 102.072 95.7862C101.732 95.8518 101.409 95.9837 101.121 96.1744C100.833 96.365 100.585 96.6107 100.392 96.8972L98.964 99.0222L103.656 102.189L105.09 100.068C105.48 99.4899 105.625 98.7804 105.492 98.0955C105.36 97.4107 104.961 96.8064 104.383 96.4155L104.045 96.1906Z" fill="#BFB9FF"/>
<path d="M122.386 48.1636V57.2079C122.386 58.6772 122.969 60.0864 124.007 61.1261C125.045 62.1658 126.453 62.7511 127.922 62.7533H132.323V70.1978L140.457 62.7533H154.566C157.235 62.7522 159.794 61.691 161.682 59.8031C163.569 57.9152 164.629 55.3551 164.629 52.6858C164.629 50.0164 163.569 47.4563 161.682 45.5684C159.794 43.6805 157.235 42.6193 154.566 42.6182H127.922C126.452 42.6182 125.041 43.2024 124.001 44.2424C122.961 45.2823 122.377 46.6928 122.377 48.1636H122.386Z" fill="#F8BED7"/>
<path d="M136.615 52.4037C136.615 52.7407 136.515 53.0701 136.328 53.3503C136.141 53.6305 135.874 53.8489 135.563 53.9779C135.252 54.1069 134.909 54.1406 134.579 54.0749C134.248 54.0091 133.944 53.8468 133.706 53.6085C133.468 53.3702 133.306 53.0666 133.24 52.7361C133.174 52.4055 133.208 52.0629 133.337 51.7516C133.466 51.4402 133.684 51.1741 133.964 50.9869C134.245 50.7996 134.574 50.6997 134.911 50.6997C135.363 50.6997 135.796 50.8792 136.116 51.1988C136.435 51.5183 136.615 51.9517 136.615 52.4037V52.4037Z" fill="white"/>
<path d="M145.12 52.4037C145.121 52.7417 145.021 53.0724 144.834 53.3539C144.647 53.6354 144.38 53.855 144.068 53.985C143.756 54.115 143.412 54.1494 143.081 54.084C142.749 54.0186 142.444 53.8562 142.205 53.6175C141.966 53.3787 141.803 53.0744 141.736 52.7429C141.67 52.4114 141.704 52.0677 141.833 51.7553C141.962 51.4429 142.181 51.1758 142.462 50.9879C142.743 50.8 143.073 50.6997 143.411 50.6997C143.636 50.6991 143.858 50.7428 144.065 50.8282C144.272 50.9135 144.46 51.039 144.619 51.1972C144.778 51.3555 144.904 51.5436 144.99 51.7506C145.075 51.9576 145.12 52.1795 145.12 52.4037V52.4037Z" fill="white"/>
<path d="M153.617 52.4037C153.617 52.7407 153.517 53.0701 153.33 53.3503C153.142 53.6305 152.876 53.8489 152.565 53.9779C152.254 54.1069 151.911 54.1406 151.581 54.0749C151.25 54.0091 150.946 53.8468 150.708 53.6085C150.47 53.3702 150.307 53.0666 150.242 52.7361C150.176 52.4055 150.21 52.0629 150.339 51.7516C150.468 51.4402 150.686 51.1741 150.966 50.9869C151.246 50.7996 151.576 50.6997 151.913 50.6997C152.365 50.6997 152.798 50.8792 153.118 51.1988C153.437 51.5183 153.617 51.9517 153.617 52.4037V52.4037Z" fill="white"/>
<path d="M123.677 78.8469C123.677 78.8469 129.093 79.3139 129.695 84.6334C129.993 87.2712 129.41 87.4094 130.1 88.8091C130.79 90.2087 132.332 90.8774 131.68 92.39C131.027 93.9026 130.996 95.0526 132.56 96.3562C133.924 97.4903 132.95 100.614 130.933 100.225C128.916 99.8352 128.093 96.8922 126.808 97.4884C125.523 98.0846 126.313 94.589 124.357 95.5059C122.402 96.4229 120.837 99.4189 119.565 99.7076C117.915 100.078 116.931 99.5019 116.918 97.5692C116.906 95.6366 119.421 92.1629 117.693 90.7165C115.966 89.2701 115.438 88.0051 116.216 85.2595C116.683 83.6066 116.004 79.7011 121.785 78.7688L123.677 78.8469Z" fill="#805A43"/>
<path d="M134.46 108.906C135.044 110.106 136.064 110.787 137.267 110.203C138.89 109.418 138.859 107.796 138.273 106.596C138.273 106.596 133.826 99.0014 132.598 97.1228C130.946 94.5965 129.033 93.9251 127.565 94.0105C126.735 94.0543 126.507 94.8176 127.462 95.9006C128.87 97.4973 129.13 98.4947 130.462 100.626C131.867 102.863 134.46 108.906 134.46 108.906Z" fill="#FDE1B2"/>
<path d="M116.909 110.622C116.611 111.925 115.766 112.816 114.463 112.516C112.709 112.113 112.376 110.525 112.677 109.228C112.677 109.228 115.03 100.505 116.074 98.5193C117.538 95.7461 119.488 95.1165 120.948 94.8678C121.767 94.725 121.634 95.5693 120.949 96.838C119.93 98.7092 119.793 99.2924 118.965 101.662C118.089 104.158 116.909 110.622 116.909 110.622Z" fill="#FDE1B2"/>
<path d="M99.4988 105.376C101.402 105.94 112.712 107.179 114.934 107.899C117 108.569 117.104 109.52 116.584 111.073C116.116 112.471 114.908 112.933 112.651 111.994L98.6796 107.408L99.4988 105.376Z" fill="#FDE1B2"/>
<path d="M99.0707 104.626C99.0707 104.626 97.8632 103.201 97.3342 103.617C96.8052 104.033 97.7694 104.856 97.7694 104.856C97.7694 104.856 94.9338 103.48 94.606 105.108C94.2991 106.626 95.2063 107.044 98.313 107.497C99.216 107.631 100.932 106.296 99.0707 104.626Z" fill="#FDE1B2"/>
<path d="M108.787 166.803C108.787 166.803 103.335 140.752 102.433 134.206C102.008 131.167 103.93 129.904 105.79 129.693C107.65 129.483 109.159 131.552 109.37 133.412L112.183 166.073L108.787 166.803Z" fill="#FDE1B2"/>
<path d="M130.031 133.454L128.162 133.666L131.858 166.333L133.726 166.121L130.031 133.454Z" fill="#805A43"/>
<path d="M139.829 128.283L117.46 130.814C116.817 130.886 116.354 131.467 116.427 132.11L116.81 135.495C116.883 136.139 117.463 136.601 118.107 136.529L140.475 133.998C141.119 133.925 141.581 133.345 141.509 132.701L141.126 129.316C141.053 128.673 140.472 128.21 139.829 128.283Z" fill="#C0F8DD"/>
<path d="M142.563 166.048L140.75 166.254L140.068 160.231C140.033 159.924 139.879 159.644 139.638 159.452C139.397 159.26 139.09 159.171 138.783 159.205L125.399 160.719C125.247 160.736 125.1 160.782 124.966 160.856C124.832 160.93 124.713 161.03 124.618 161.149C124.522 161.269 124.451 161.406 124.409 161.553C124.366 161.701 124.354 161.855 124.371 162.007L125.024 167.777L123.199 167.983L122.546 162.213C122.458 161.422 122.686 160.628 123.183 160.006C123.679 159.384 124.402 158.984 125.193 158.894L138.577 157.38C139.365 157.295 140.155 157.526 140.775 158.022C141.394 158.517 141.792 159.238 141.882 160.026L142.563 166.048Z" fill="#805A43"/>
<path d="M142.01 168.242C143.353 168.09 144.318 166.877 144.166 165.533C144.014 164.188 142.802 163.221 141.459 163.373C140.116 163.525 139.151 164.738 139.303 166.083C139.455 167.427 140.667 168.394 142.01 168.242Z" fill="#292929"/>
<path d="M140.326 165.967C140.357 166.244 140.47 166.505 140.65 166.718C140.83 166.93 141.068 167.085 141.336 167.162C141.603 167.239 141.888 167.235 142.153 167.15C142.418 167.065 142.652 166.904 142.826 166.686C142.999 166.469 143.104 166.204 143.127 165.927C143.151 165.649 143.091 165.371 142.956 165.128C142.822 164.884 142.618 164.686 142.37 164.558C142.123 164.431 141.843 164.379 141.567 164.411C141.383 164.431 141.205 164.488 141.043 164.577C140.881 164.666 140.738 164.787 140.623 164.931C140.508 165.076 140.422 165.242 140.371 165.42C140.32 165.598 140.305 165.784 140.326 165.967Z" fill="#292929"/>
<path d="M122.023 168.038C122.078 168.519 122.274 168.974 122.587 169.344C122.9 169.714 123.315 169.983 123.781 170.117C124.246 170.251 124.741 170.244 125.203 170.096C125.665 169.949 126.072 169.668 126.374 169.289C126.676 168.91 126.859 168.45 126.899 167.967C126.94 167.484 126.836 167 126.602 166.576C126.367 166.152 126.012 165.808 125.581 165.585C125.151 165.363 124.664 165.274 124.182 165.328C123.537 165.401 122.947 165.728 122.542 166.236C122.137 166.744 121.95 167.392 122.023 168.038V168.038Z" fill="#292929"/>
<path d="M123.059 167.922C123.089 168.199 123.202 168.461 123.381 168.674C123.561 168.887 123.8 169.043 124.068 169.12C124.336 169.198 124.621 169.194 124.886 169.11C125.152 169.026 125.387 168.864 125.562 168.647C125.736 168.429 125.841 168.164 125.865 167.886C125.889 167.608 125.83 167.33 125.696 167.085C125.561 166.841 125.357 166.642 125.109 166.514C124.862 166.385 124.582 166.333 124.304 166.364V166.364C124.121 166.384 123.943 166.44 123.781 166.529C123.619 166.618 123.476 166.738 123.361 166.882C123.245 167.026 123.159 167.192 123.108 167.369C123.056 167.546 123.04 167.732 123.061 167.916L123.059 167.922Z" fill="#292929"/>
<path d="M130.422 166.871C130.481 167.4 130.697 167.901 131.04 168.308C131.384 168.716 131.841 169.013 132.353 169.16C132.866 169.308 133.41 169.301 133.918 169.139C134.427 168.978 134.875 168.669 135.208 168.252C135.541 167.836 135.742 167.33 135.788 166.798C135.833 166.267 135.719 165.734 135.462 165.267C135.204 164.801 134.814 164.421 134.34 164.176C133.866 163.931 133.331 163.832 132.801 163.891V163.891C132.091 163.971 131.443 164.33 130.997 164.888C130.551 165.446 130.346 166.158 130.424 166.868L130.422 166.871Z" fill="#292929"/>
<path d="M131.563 166.742C131.597 167.046 131.721 167.333 131.919 167.567C132.116 167.801 132.379 167.971 132.673 168.056C132.968 168.141 133.281 168.136 133.572 168.043C133.864 167.95 134.122 167.772 134.313 167.533C134.503 167.293 134.619 167.002 134.645 166.697C134.67 166.392 134.605 166.086 134.456 165.818C134.308 165.55 134.084 165.332 133.812 165.192C133.539 165.051 133.232 164.995 132.927 165.029V165.029C132.725 165.052 132.53 165.114 132.352 165.213C132.174 165.311 132.017 165.444 131.89 165.603C131.764 165.762 131.669 165.944 131.613 166.14C131.557 166.335 131.54 166.54 131.563 166.742V166.742Z" fill="#292929"/>
<path d="M107.294 167.306C105.945 168.246 103.025 169.244 102.836 170.871C102.647 172.498 107.196 172.098 112.034 168.347C112.448 168.022 112.872 167.123 112.174 165.894C112.174 165.894 109.947 167.017 108.629 166.017C108.24 166.501 107.792 166.935 107.294 167.306V167.306Z" fill="#805A43"/>
<path d="M115.249 166.363L109.811 134.041C109.601 132.181 111.247 130.497 113.11 130.287C114.973 130.076 116.591 131.665 116.802 133.528L118.705 165.594L115.249 166.363Z" fill="#FDE1B2"/>
<path d="M113.798 166.817C112.451 167.755 109.528 168.75 109.342 170.383C109.157 172.015 113.198 171.06 118.523 168.05C119.01 167.775 119.161 166.428 118.68 165.45C118.68 165.45 116.407 166.386 115.158 165.603C114.745 166.051 114.289 166.457 113.798 166.817V166.817Z" fill="#805A43"/>
<path d="M117.207 136.447C109.234 132.237 101.53 135.374 101.936 133.063C102.613 129.207 104.467 126.777 108.11 125.031C109.591 124.321 119.946 120.734 120.027 120.026C120.302 117.73 120.146 114.92 119.482 111.74C118.494 107.018 117.936 106.438 117.694 104.445C117.162 100.111 119.513 96.244 120.162 95.6058C121.48 94.3212 122.378 94.1918 122.378 94.1918L125.568 93.8058C125.568 93.8058 127.815 93.2956 128.954 94.341C129.742 95.0617 131.231 96.6325 131.017 100.62C130.274 114.49 135.357 119.305 136.42 122.574C137.479 125.886 135.574 129.09 133.252 129.353C133.252 129.353 124.574 130.298 121.439 131.374C118.037 132.535 119.315 137.561 117.207 136.447Z" fill="#A3DCF9"/>
<path d="M117.844 85.5263C118.585 89.6167 119.393 90.978 120.862 91.9834C121.601 92.4869 122.988 92.33 123.843 92.2333C126.808 91.8979 128.296 89.2861 128.207 84.3177C128.137 80.6773 124.867 78.5038 122.261 78.8682C118.979 79.3203 117.112 81.3403 117.844 85.5263Z" fill="#FDE1B2"/>
<path d="M122.227 91.8617L125.249 91.5198C125.204 91.9267 125.248 92.3386 125.377 92.727C125.507 93.1154 125.719 93.4711 125.999 93.7697C126.781 94.5301 121.648 95.1581 122.152 94.205C122.339 93.8447 122.442 93.4473 122.455 93.0418C122.468 92.6363 122.39 92.2331 122.227 91.8617V91.8617Z" fill="#FDE1B2"/>
<path d="M127.441 86.8146C127.441 86.8146 127.228 90.3395 125.707 91.6107C125.707 91.6107 127.918 91.0267 128.2 86.8317L127.441 86.8146Z" fill="#805A43"/>
<path d="M127.148 86.9588C127.227 87.6595 126.441 88.6834 127.465 88.6511C128.036 88.6338 128.509 87.801 128.43 87.0976C128.35 86.3942 128.087 85.5642 127.169 85.668C126.6 85.7323 127.068 86.2554 127.148 86.9588Z" fill="#FDE1B2"/>
<path d="M128.401 86.3781C128.401 86.3781 127.401 85.2362 125.021 85.6975C121.513 86.3726 118.086 86.5822 117.327 83.4651C116.568 80.3479 121.025 78.7166 122.177 78.742C123.329 78.7675 129.127 79.0243 128.401 86.3781Z" fill="#805A43"/>
<path d="M121.487 113.978C123.332 113.241 132.964 107.197 135.163 106.384C137.2 105.625 137.873 106.308 138.426 107.851C138.923 109.239 138.263 110.346 135.912 111.013L122.106 116.079L121.487 113.978Z" fill="#FDE1B2"/>
<path d="M120.693 113.657C120.693 113.657 118.859 113.288 118.702 113.94C118.545 114.593 119.812 114.65 119.812 114.65C119.812 114.65 116.736 115.332 117.488 116.811C118.186 118.187 119.165 117.957 121.876 116.386C122.666 115.921 123.185 113.812 120.693 113.657Z" fill="#FDE1B2"/>
<path d="M120.22 101.242C120.164 101.249 120.109 101.233 120.065 101.199C120.021 101.165 119.992 101.115 119.985 101.06C119.974 100.967 119.959 100.835 119.927 100.677C119.693 99.2705 119.13 95.9169 121.422 94.525C121.654 94.4146 121.895 94.3213 122.141 94.246C119.598 95.6774 120.115 99.284 120.34 100.608C120.359 100.779 120.391 100.917 120.402 101.013C120.409 101.068 120.393 101.123 120.358 101.166C120.324 101.209 120.274 101.236 120.22 101.242V101.242Z" fill="#292929"/>
<path d="M128.938 101.614L128.916 101.616C128.888 101.616 128.86 101.611 128.835 101.6C128.809 101.589 128.786 101.574 128.766 101.554C128.746 101.534 128.731 101.51 128.72 101.485C128.71 101.459 128.705 101.431 128.705 101.403C128.699 101.346 128.756 95.7067 125.993 93.7374C125.936 93.6994 126.26 93.6376 126.367 93.6951C129.334 95.4716 129.128 101.155 129.126 101.411C129.125 101.462 129.105 101.511 129.07 101.548C129.035 101.585 128.988 101.608 128.938 101.614V101.614Z" fill="#292929"/>
<path d="M118.862 101.229C118.832 100.957 118.882 100.682 119.008 100.439C119.133 100.196 119.328 99.996 119.567 99.8636C119.806 99.7312 120.079 99.6728 120.352 99.6956C120.624 99.7185 120.884 99.8216 121.098 99.992C121.312 100.162 121.47 100.392 121.553 100.653C121.637 100.913 121.641 101.193 121.565 101.456C121.489 101.718 121.338 101.953 121.129 102.129C120.92 102.306 120.663 102.416 120.392 102.447C120.027 102.488 119.662 102.383 119.375 102.155C119.088 101.926 118.904 101.593 118.862 101.229V101.229Z" fill="#292929"/>
<path d="M119.449 101.162C119.432 101.004 119.462 100.845 119.535 100.704C119.608 100.564 119.721 100.448 119.86 100.372C119.999 100.295 120.157 100.262 120.315 100.275C120.473 100.289 120.623 100.349 120.747 100.448C120.871 100.547 120.963 100.68 121.011 100.831C121.059 100.983 121.061 101.144 121.017 101.297C120.973 101.449 120.885 101.585 120.764 101.687C120.643 101.789 120.494 101.853 120.337 101.871C120.232 101.883 120.125 101.874 120.024 101.845C119.923 101.816 119.828 101.767 119.746 101.701C119.663 101.635 119.595 101.553 119.544 101.461C119.493 101.368 119.461 101.267 119.449 101.162V101.162Z" fill="#E8E8E8"/>
<path d="M127.385 109.272C127.178 109.304 126.967 109.267 126.783 109.168C126.241 108.856 126.176 108.034 126.137 107.538L126.128 107.461C126.098 107.075 125.935 104.65 126.729 102.94C126.88 102.562 127.129 102.231 127.451 101.982C127.773 101.733 128.155 101.574 128.559 101.523L129.284 101.441C130.952 101.252 132.158 103.008 132.781 106.522C132.929 107.359 132.817 107.998 132.464 108.366C132.154 108.68 131.679 108.806 131.043 108.722L131.081 108.439C131.623 108.512 132.019 108.419 132.261 108.17C132.629 107.786 132.594 107.083 132.507 106.561C132.091 104.232 131.205 101.496 129.315 101.71L128.589 101.792C126.034 102.081 126.357 106.878 126.402 107.424L126.411 107.507C126.46 107.941 126.507 108.676 126.918 108.91C127.159 109.05 127.513 109.007 127.976 108.791L128.096 109.041C127.874 109.158 127.633 109.236 127.385 109.272V109.272Z" fill="#292929"/>
<path d="M126.305 105.997C126.285 106.001 126.265 106.003 126.244 106.004C126.154 105.996 126.07 105.953 126.01 105.885C125.951 105.816 125.92 105.727 125.925 105.636C126.092 103.035 127.024 101.508 128.56 101.334L129.286 101.252C130.305 101.136 131.712 101.648 132.61 104.738C132.631 104.825 132.618 104.917 132.573 104.994C132.528 105.072 132.455 105.129 132.369 105.154C132.283 105.179 132.191 105.17 132.112 105.129C132.032 105.088 131.971 105.018 131.942 104.933C131.516 103.482 130.732 101.787 129.364 101.941L128.638 102.023C127.149 102.192 126.717 104.105 126.619 105.678C126.613 105.759 126.579 105.837 126.521 105.895C126.463 105.954 126.387 105.99 126.305 105.997V105.997Z" fill="#BFB9FF"/>
<path d="M127.831 108.913C127.823 108.869 127.824 108.823 127.833 108.778C127.843 108.734 127.861 108.692 127.887 108.654C127.913 108.617 127.947 108.585 127.985 108.561C128.023 108.536 128.066 108.519 128.111 108.512L128.318 108.474C128.409 108.459 128.502 108.479 128.578 108.531C128.653 108.584 128.705 108.664 128.723 108.754V108.754C128.738 108.844 128.718 108.937 128.665 109.011C128.612 109.086 128.532 109.137 128.442 109.153L128.23 109.191C128.14 109.205 128.049 109.184 127.974 109.132C127.9 109.081 127.849 109.002 127.831 108.913V108.913Z" fill="#BFB9FF"/>
<path d="M131.38 108.512C131.375 108.42 131.334 108.333 131.266 108.272C131.197 108.21 131.107 108.178 131.015 108.183V108.183L130.799 108.193C130.754 108.196 130.709 108.207 130.668 108.227C130.627 108.247 130.591 108.274 130.56 108.308C130.53 108.342 130.507 108.382 130.492 108.425C130.477 108.468 130.47 108.513 130.473 108.559V108.559C130.475 108.604 130.486 108.648 130.506 108.689C130.525 108.73 130.552 108.767 130.586 108.797C130.62 108.828 130.659 108.851 130.702 108.866C130.745 108.881 130.79 108.888 130.836 108.885V108.885L131.049 108.875C131.094 108.873 131.139 108.861 131.181 108.842C131.222 108.822 131.26 108.795 131.29 108.761C131.321 108.727 131.345 108.687 131.36 108.644C131.376 108.6 131.383 108.555 131.38 108.509L131.38 108.512Z" fill="#BFB9FF"/>
</g>
<defs>
<clipPath id="clip0">
<rect width="205" height="210" fill="white"/>
</clipPath>
</defs>
</svg>
