<svg width="64" height="64" viewBox="0 0 64 64" fill="none" xmlns="http://www.w3.org/2000/svg">
<path d="M41 3V11L53 7L41 3Z" fill="#F4462D"/>
<path d="M23.114 41.886L18 47L12.737 42.175L3 61H33L26.416 48.272L23.114 41.886Z" fill="#06AAE9"/>
<path d="M47 40L42 35L37 40L32.045 35.045L26.416 48.272L33 61H61L50.552 36.448L47 40Z" fill="#F4462D"/>
<path d="M23.1143 41.886L18.0003 32L12.7373 42.175L18.0003 47L23.1143 41.886Z" fill="#F9F5EF"/>
<path d="M41.9999 35L46.9999 40L50.5519 36.448L40.9999 14L32.0449 35.045L36.9999 40L41.9999 35Z" fill="#F9F5EF"/>
<path d="M17 8C16.09 8 15.26 8.316 14.588 8.828C13.717 6.589 11.547 5 9 5C5.686 5 3 7.686 3 11C3 11.341 3.035 11.674 3.09 12H21C21 9.791 19.209 8 17 8Z" fill="#F9F5EF"/>
<path d="M58 17C56.577 17 55.392 17.993 55.084 19.323C54.771 19.12 54.4 19 54 19C52.895 19 52 19.895 52 21V22H61V20C61 18.343 59.657 17 58 17Z" fill="#F9F5EF"/>
<path d="M20 28H29V26C29 24.343 27.657 23 26 23C24.577 23 23.392 23.993 23.084 25.323C22.771 25.12 22.4 25 22 25C20.895 25 20 25.895 20 27V28Z" fill="#F9F5EF"/>
<path d="M53.3165 7.94799C53.7255 7.81199 54.0005 7.43099 54.0005 6.99999C54.0005 6.56899 53.7255 6.18799 53.3165 6.05199L41.3165 2.05199C41.0115 1.94699 40.6765 1.99999 40.4155 2.18799C40.1545 2.37599 40.0005 2.67899 40.0005 2.99999V13.797L26.3285 45.924L18.8885 31.541C18.7175 31.209 18.3745 31 18.0005 31C17.6265 31 17.2835 31.209 17.1115 31.541L11.8475 41.717C11.8475 41.718 11.8475 41.718 11.8465 41.719L2.11148 60.541C1.95148 60.851 1.96448 61.222 2.14548 61.52C2.32748 61.818 2.65148 62 3.00048 62H33.0005H61.0005C61.3365 62 61.6495 61.832 61.8345 61.552C62.0205 61.272 62.0525 60.917 61.9205 60.609L51.4745 36.06C51.4735 36.059 51.4745 36.057 51.4735 36.056L42.0005 13.797V11.721L53.3165 7.94799ZM42.0005 4.38799L49.8385 6.99999L42.0005 9.61199V4.38799ZM49.3685 36.218L47.0005 38.586L42.7075 34.293C42.3165 33.902 41.6845 33.902 41.2935 34.293L37.0005 38.586L33.2295 34.815L41.0005 16.554L49.3685 36.218ZM21.8895 41.696L17.9705 45.616L13.9775 41.956L18.0005 34.177L21.8895 41.696ZM4.64448 60L13.0255 43.797L17.3255 47.738C17.5165 47.913 17.7585 48 18.0005 48C18.2565 48 18.5135 47.902 18.7075 47.707L22.8535 43.561L25.5275 48.73V48.731L28.4785 54.436L31.3565 60H4.64448ZM33.6095 60L27.5215 48.23L32.3855 36.799L36.2935 40.707C36.6845 41.098 37.3165 41.098 37.7075 40.707L42.0005 36.414L46.2935 40.707C46.4885 40.902 46.7445 41 47.0005 41C47.2565 41 47.5125 40.902 47.7075 40.707L50.2125 38.202L59.4875 60H33.6095Z" fill="black"/>
<path d="M17 7C16.311 7 15.639 7.144 15.013 7.421C13.768 5.312 11.514 4 9 4C5.141 4 2 7.141 2 11C2 11.368 2.034 11.75 2.104 12.165C2.185 12.647 2.602 13 3.09 13H21C21.553 13 22 12.553 22 12C22 9.243 19.757 7 17 7ZM4 11C4 8.243 6.243 6 9 6C11.075 6 12.902 7.252 13.656 9.19C13.769 9.483 14.014 9.705 14.316 9.791C14.62 9.874 14.943 9.813 15.194 9.623C15.729 9.216 16.354 9 17 9C18.304 9 19.416 9.836 19.829 11H4Z" fill="black"/>
<path d="M58 16C56.517 16 55.203 16.802 54.514 18.045C54.345 18.015 54.173 18 54 18C52.346 18 51 19.346 51 21V22C51 22.553 51.447 23 52 23H61C61.553 23 62 22.553 62 22V20C62 17.794 60.206 16 58 16ZM60 21H53C53 20.448 53.448 20 54 20C54.192 20 54.375 20.055 54.542 20.163C54.815 20.339 55.158 20.371 55.46 20.249C55.762 20.127 55.984 19.865 56.059 19.548C56.27 18.637 57.067 18 58 18C59.103 18 60 18.897 60 20V21Z" fill="black"/>
<path d="M26 22C24.517 22 23.203 22.802 22.514 24.045C22.345 24.015 22.173 24 22 24C20.346 24 19 25.346 19 27V28C19 28.553 19.447 29 20 29H29C29.553 29 30 28.553 30 28V26C30 23.794 28.206 22 26 22ZM28 27H21C21 26.448 21.448 26 22 26C22.192 26 22.375 26.055 22.542 26.163C22.816 26.339 23.158 26.37 23.46 26.249C23.762 26.127 23.984 25.865 24.059 25.548C24.27 24.637 25.067 24 26 24C27.103 24 28 24.897 28 26V27Z" fill="black"/>
</svg>
