<svg width="1440" height="1024" viewBox="0 0 1440 1024" fill="none" xmlns="http://www.w3.org/2000/svg">
<g clip-path="url(#clip0)">
<rect y="-5" width="1440" height="1035" fill="#F3F5F8"/>
<path d="M447.999 545.528C410.5 785.339 126.812 767.863 -2.88527 772.503L-57.6818 1069.09C271.977 1071.93 901.276 1072.42 781.199 1051.63C661.121 1030.84 640.546 953.326 645.268 917.166C670.04 801.19 469.773 406.278 447.999 545.528Z" fill="url(#paint0_linear)"/>
<path d="M447.999 545.528C410.5 785.339 126.812 767.863 -2.88527 772.503L-57.6818 1069.09C271.977 1071.93 901.276 1072.42 781.199 1051.63C661.121 1030.84 640.546 953.326 645.268 917.166C670.04 801.19 469.773 406.278 447.999 545.528Z" fill="url(#paint1_linear)"/>
<path d="M447.999 545.528C410.5 785.339 126.812 767.863 -2.88527 772.503L-57.6818 1069.09C271.977 1071.93 901.276 1072.42 781.199 1051.63C661.121 1030.84 640.546 953.326 645.268 917.166C670.04 801.19 469.773 406.278 447.999 545.528Z" fill="url(#paint2_linear)"/>
<path d="M1189 -25.5C962.829 108 1059.67 272.47 938.5 389C900 426.025 874.597 444.025 791 460.5C718.776 474.733 662.98 529.975 626 548.472L664.479 766C761.227 659.811 944.327 632.08 1023.78 631.488C1504.52 568.449 1416.74 441.78 1546 401.53L1568 -25.5H1189Z" fill="url(#paint3_linear)"/>
<path d="M1189 -25.5C962.829 108 1059.67 272.47 938.5 389C900 426.025 874.597 444.025 791 460.5C718.776 474.733 662.98 529.975 626 548.472L664.479 766C761.227 659.811 944.327 632.08 1023.78 631.488C1504.52 568.449 1416.74 441.78 1546 401.53L1568 -25.5H1189Z" fill="url(#paint4_linear)"/>
<path d="M1189 -25.5C962.829 108 1059.67 272.47 938.5 389C900 426.025 874.597 444.025 791 460.5C718.776 474.733 662.98 529.975 626 548.472L664.479 766C761.227 659.811 944.327 632.08 1023.78 631.488C1504.52 568.449 1416.74 441.78 1546 401.53L1568 -25.5H1189Z" fill="url(#paint5_linear)"/>
<path d="M1058.12 897.638C1053.81 894.681 1050.63 890.81 1048.81 885.89C1046.15 878.813 1047.43 872.095 1050.66 865.543C1051.88 863.083 1053.04 860.595 1053.7 857.913C1054.81 853.435 1053.67 849.399 1051.38 845.529C1049.36 842.101 1046.54 839.336 1044.14 836.213C1041.32 832.536 1039.3 828.527 1039.38 823.745C1039.46 819.681 1040.98 816.17 1043.42 813.019C1045.52 810.254 1048.09 808.015 1050.96 806.053C1051.35 805.804 1051.93 805.666 1051.6 804.919C1050.38 802.155 1051.19 799.501 1052.26 796.93C1055.83 788.526 1062.19 782.887 1070.4 779.431C1076.92 776.694 1083.72 776.252 1090.63 778.187C1100.53 780.951 1108.71 786.425 1115.4 794.083C1119.27 798.533 1120.85 803.841 1120.24 809.785C1119.8 814.097 1118.83 818.299 1118.39 822.584C1117.64 829.882 1118.36 836.931 1123.28 842.903C1125.66 845.805 1128.7 847.934 1131.91 849.814C1136.83 852.661 1142.03 854.955 1147.03 857.692C1148.66 858.577 1150.24 859.627 1151.84 860.595C1153.03 861.59 1154.27 862.502 1155.38 863.581C1157.59 865.709 1159.61 867.976 1160.8 870.879C1160.24 871.376 1159.55 871.127 1158.94 871.155C1157.67 871.21 1157.28 871.874 1157.95 872.952C1159.05 874.721 1160.27 876.38 1162.26 877.265C1162.62 877.43 1162.92 877.596 1163.03 877.983C1163.06 878.232 1163.09 878.481 1163.12 878.73C1163.06 878.896 1163.09 879.034 1163.26 879.117C1163.56 879.504 1163.48 880.001 1163.5 880.444C1163.92 886.912 1163.09 893.243 1161.46 899.491C1160.85 901.868 1160.13 904.218 1159.47 906.595C1159.33 906.816 1159.16 907.038 1159.05 907.286C1156.95 912.484 1154.47 917.459 1151.31 922.076C1149.52 924.702 1147.55 927.19 1145.65 929.761C1145.59 929.789 1145.56 929.817 1145.54 929.872C1145.26 929.872 1145.07 929.982 1145.12 930.286C1144.96 930.452 1144.82 930.591 1144.68 930.756C1144.43 930.729 1144.29 930.839 1144.32 931.116C1144.15 931.282 1143.99 931.448 1143.82 931.613C1143.55 931.558 1143.49 931.724 1143.49 931.945C1136.39 938.607 1128.56 944.302 1120.24 949.389C1119.88 949.61 1119.55 949.831 1119.19 950.052C1118.91 950.025 1118.72 950.108 1118.64 950.384C1118.36 950.495 1118.06 950.633 1117.78 950.743C1117.28 949.251 1117.42 947.647 1117.15 946.127C1116.37 941.897 1115.62 937.668 1114.52 933.493C1113.72 930.452 1112.89 927.411 1111.98 924.398C1111.06 921.413 1110.07 918.482 1109.1 915.524C1109.82 913.838 1110.48 912.152 1111.23 910.493C1114.21 903.858 1116.07 896.892 1117.17 889.732C1117.78 884.452 1117.89 879.227 1116.84 873.975C1115.71 868.446 1113.91 863.249 1111.12 858.328C1108.63 853.96 1104.93 850.532 1102.11 846.441C1101.75 845.916 1101.22 846.054 1100.72 846.082C1100.39 845.778 1100.17 845.363 1099.95 844.976C1098.04 841.465 1096.94 837.678 1096.25 833.808C1095.78 831.209 1094.2 829.882 1091.96 828.97C1088.48 827.56 1084.75 826.869 1081.26 825.431C1077.03 823.69 1074.63 821.285 1075.21 816.944C1075.37 815.728 1075.26 814.539 1075.1 813.378C1074.21 806.771 1068.08 801.159 1061.36 801.657C1057.21 801.961 1052.71 805.555 1054.95 811.25C1055.77 813.378 1057.02 815.175 1058.48 816.889C1060.86 819.709 1062.11 822.833 1060.39 826.537C1060.14 827.062 1060.2 827.615 1060.58 828.085C1063.82 832.038 1067.36 835.66 1071.92 838.12C1073.16 838.811 1074.49 839.088 1075.9 838.728C1077.25 838.369 1078.64 838.424 1080.02 838.314C1081.79 838.175 1082.89 839.032 1083.53 840.58C1085.6 845.612 1083.39 851.334 1078.89 854.209C1077.92 854.845 1076.7 855.177 1076.07 856.282C1075.43 856.421 1075.15 857.001 1074.66 857.333C1068.63 861.701 1063.57 866.926 1060.7 873.92C1059.48 876.905 1058.7 880.029 1059.09 883.291C1059.62 887.769 1060.2 892.22 1060.34 896.726C1059.73 897.169 1058.98 897.528 1058.12 897.638Z" fill="#3D325C"/>
<path d="M1117.25 889.733C1116.15 896.92 1114.27 903.859 1111.31 910.493C1110.56 912.152 1109.87 913.866 1109.18 915.525C1107.86 916.962 1107.19 918.787 1106.2 920.418C1101.58 927.992 1096.16 934.986 1090.11 941.483C1084.44 947.565 1078.28 953.094 1071.81 958.318C1071.14 958.844 1070.31 959.286 1070.12 960.226C1070.04 960.253 1069.93 960.281 1069.84 960.309C1069.54 960.309 1069.37 960.447 1069.32 960.751C1069.21 960.779 1069.13 960.806 1069.02 960.834C1068.55 960.834 1068.27 961.083 1068.21 961.553C1064.7 963.35 1061.5 965.672 1059.42 968.989C1058.18 970.979 1056.49 970.51 1055.03 970.592C1050.16 970.869 1045.3 970.703 1040.43 970.15C1039.99 970.095 1039.63 969.957 1039.27 969.735C1038.77 968.132 1037.69 966.86 1037.06 965.285C1036.12 962.935 1036.67 961.415 1039.08 960.779C1039.46 960.668 1039.8 960.419 1040.15 960.253C1040.4 961 1040.98 960.889 1041.54 960.751C1042.14 960.585 1042.45 960.143 1042.45 959.507C1042.45 958.401 1042.48 957.295 1042.42 956.19C1042.37 954.918 1042.81 954.393 1044.16 954.393C1045.71 954.393 1047.01 955.112 1048.42 955.443C1050.38 955.913 1052.21 957.074 1054.42 956.162C1057.82 954.725 1060.17 952.015 1062.63 949.5C1065.64 946.431 1068.13 942.865 1070.87 939.548C1073.71 936.12 1076.34 932.498 1079.02 928.96C1082.45 924.426 1085.68 919.754 1088.92 915.055C1089.94 913.562 1090.44 911.986 1090.47 910.3C1090.52 904.495 1090.83 898.689 1090.25 892.912C1089.94 890.064 1090.14 887.217 1089.91 884.37C1089.64 881.08 1089.17 877.818 1089.42 874.473C1089.97 866.511 1097.1 860.153 1105.12 861.314C1105.26 861.591 1105.51 861.673 1105.78 861.756C1107.77 862.42 1109.13 863.885 1110.37 865.488C1113.69 869.746 1114.77 874.887 1115.98 879.919C1116.67 882.739 1116.81 885.696 1116.9 888.627C1116.87 889.069 1116.76 889.511 1117.25 889.733Z" fill="#F7D0C6"/>
<path d="M1070.12 960.253C1070.34 959.313 1071.15 958.871 1071.81 958.345C1078.25 953.121 1084.44 947.592 1090.11 941.51C1096.16 935.013 1101.58 928.047 1106.2 920.445C1107.19 918.814 1107.86 916.989 1109.18 915.552C1110.15 918.51 1111.15 921.468 1112.06 924.426C1112.97 927.439 1113.8 930.48 1114.6 933.521C1115.71 937.667 1116.46 941.925 1117.23 946.154C1117.51 947.675 1117.37 949.278 1117.86 950.771C1115.18 952.623 1112.2 953.95 1109.32 955.47C1109.07 955.609 1108.83 955.774 1108.58 955.553C1108.36 955.36 1108.33 955.083 1108.41 954.779C1109.18 952.291 1109.21 949.72 1109.35 947.177C1109.54 943.113 1108.94 939.105 1108.8 935.069C1108.77 934.129 1108.27 933.244 1108.27 932.249C1108.24 931.254 1107.61 931.779 1107.28 932.083C1105.87 933.327 1104.49 934.571 1103.13 935.87C1099.54 939.354 1095.58 942.422 1091.69 945.546C1086.38 949.776 1080.85 953.701 1075.13 957.378C1073.5 958.428 1071.95 959.617 1070.12 960.253Z" fill="#FFE7E4"/>
<path d="M1108.41 954.779C1108.33 955.083 1108.36 955.36 1108.58 955.553C1100.5 959.469 1067.94 969.188 1059.04 970.343L1057.52 970.481C1057.84 970.389 1058.6 970.094 1059.04 969.652C1059.59 969.099 1059.59 968.546 1060.14 967.993C1060.51 967.394 1061.66 965.892 1063.32 964.676C1064.98 963.459 1068.55 961.22 1070.12 960.253C1071.95 959.617 1073.5 958.428 1075.13 957.378C1080.85 953.701 1086.38 949.775 1091.69 945.546C1095.58 942.422 1099.54 939.354 1103.13 935.87C1104.49 934.571 1105.87 933.327 1107.28 932.083C1107.61 931.779 1108.24 931.254 1108.27 932.249C1108.27 933.244 1108.77 934.129 1108.8 935.069C1108.94 939.105 1109.54 943.113 1109.35 947.177C1109.21 949.72 1109.18 952.291 1108.41 954.779Z" fill="white"/>
<path d="M1163.09 878.757C1163.06 878.508 1163.03 878.26 1163.01 878.011C1164.83 878.094 1166.68 878.177 1168.51 878.287C1168.54 878.978 1169.09 879.421 1169.39 879.946C1170.58 881.992 1171.27 884.258 1172.19 886.415C1172.99 889.124 1173.07 891.888 1172.66 894.68C1171.96 893.547 1171.58 892.331 1170.78 891.308C1169.37 889.456 1167.54 888.212 1165.41 887.437C1164.97 887.272 1164.06 886.857 1164.14 887.88C1164.42 891.695 1166.27 895.786 1171 897.168C1171.22 897.583 1171.6 897.555 1171.99 897.445H1172.07L1172.13 897.5C1171.85 898.689 1171.49 899.85 1171.16 901.011C1170.89 902.006 1169.97 902.78 1170.22 903.941C1169.2 905.6 1167.9 907.065 1166.46 908.364C1165.55 908.641 1164.86 909.138 1163.67 908.364C1162.48 907.59 1161.18 906.374 1159.47 906.65C1160.13 904.273 1160.85 901.923 1161.46 899.546C1163.09 893.298 1163.92 886.968 1163.5 880.499C1163.48 880.056 1163.56 879.559 1163.26 879.172C1163.45 878.923 1163.34 878.812 1163.09 878.757Z" fill="#FFD0CC"/>
<path d="M1159.44 906.623C1161.16 906.346 1162.45 907.563 1163.64 908.337C1164.83 909.083 1165.52 908.613 1166.44 908.337C1165.61 910.106 1164.14 911.377 1162.87 912.787C1157.84 918.399 1152.47 923.762 1147 928.932C1146.61 929.291 1146.28 929.789 1145.65 929.789C1147.53 927.218 1149.52 924.73 1151.31 922.103C1154.47 917.487 1156.95 912.483 1159.05 907.314C1159.14 907.093 1159.3 906.871 1159.44 906.623Z" fill="#FF9088"/>
<path d="M1170.19 903.913C1169.97 902.78 1170.86 901.978 1171.13 900.983C1171.46 899.822 1171.82 898.661 1172.1 897.472C1172.38 897.5 1172.65 897.527 1172.93 897.555C1173.12 898.716 1172.71 899.794 1172.4 900.872C1172.38 900.955 1172.35 901.038 1172.32 901.094C1172.24 901.259 1172.16 901.425 1172.1 901.619C1171.49 902.393 1171.19 903.443 1170.19 903.913Z" fill="#FF9088"/>
<path d="M1068.21 961.58C1068.27 961.11 1068.55 960.861 1069.02 960.861C1068.88 961.248 1068.63 961.524 1068.21 961.58Z" fill="#FFD0CC"/>
<path d="M1118.69 950.412C1118.78 950.136 1118.97 950.053 1119.25 950.08C1119.19 950.44 1119 950.523 1118.69 950.412Z" fill="#FFD0CC"/>
<path d="M1143.52 931.973C1143.52 931.752 1143.57 931.586 1143.85 931.641C1143.9 931.918 1143.77 932.028 1143.52 931.973Z" fill="#FF9088"/>
<path d="M1001.01 954.393C1001.4 954.365 1001.65 954.503 1001.56 954.945C1001.12 955.028 1000.95 954.835 1001.01 954.393Z" fill="#FF9088"/>
<path d="M1069.29 960.778C1069.35 960.474 1069.51 960.336 1069.82 960.336C1069.74 960.585 1069.57 960.723 1069.29 960.778Z" fill="#FFD0CC"/>
<path d="M1144.32 931.143C1144.29 930.894 1144.4 930.756 1144.68 930.784C1144.74 931.088 1144.62 931.226 1144.32 931.143Z" fill="#FF9088"/>
<path d="M1145.12 930.341C1145.07 930.009 1145.26 929.926 1145.54 929.926C1145.54 930.203 1145.43 930.369 1145.12 930.341Z" fill="#FF9088"/>
<path d="M1172.1 901.619C1172.18 901.453 1172.27 901.287 1172.32 901.094C1172.35 901.315 1172.27 901.481 1172.1 901.619Z" fill="#FFD0CC"/>
<path d="M1105.06 861.341C1097.05 860.18 1089.91 866.538 1089.36 874.5C1089.11 877.845 1089.58 881.107 1089.86 884.396C1090.11 887.244 1089.91 890.091 1090.19 892.939C1090.8 898.716 1090.5 904.522 1090.41 910.327C1090.38 911.986 1089.89 913.589 1088.86 915.082C1085.63 919.754 1082.4 924.426 1078.97 928.987C1076.29 932.553 1073.66 936.147 1070.81 939.575C1068.08 942.892 1065.59 946.431 1062.57 949.527C1060.11 952.042 1057.76 954.751 1054.36 956.189C1052.15 957.129 1050.33 955.968 1048.37 955.47C1046.96 955.138 1045.66 954.42 1044.11 954.42C1042.75 954.42 1042.28 954.945 1042.37 956.217C1042.42 957.322 1042.39 958.428 1042.39 959.534C1042.39 960.17 1042.09 960.612 1041.48 960.778C1040.96 960.916 1040.35 961.027 1040.1 960.28C1037.94 955.443 1036.84 950.356 1036.78 945.048C1036.73 935.926 1039.74 927.881 1045.52 920.887C1045.66 920.721 1045.77 920.5 1045.9 920.307C1046.62 920.002 1047.26 919.643 1047.2 918.703C1047.23 918.676 1047.26 918.62 1047.29 918.593C1047.62 918.648 1047.81 918.51 1047.76 918.15C1048.34 917.487 1048.95 916.851 1049.53 916.188C1050.11 916.243 1050.74 916.188 1051.3 916.381C1055.11 917.625 1058.98 918.316 1062.99 918.15C1065.92 918.012 1068.66 917.349 1070.62 914.888C1072.47 913.23 1073.24 911.129 1073.58 908.641C1073.94 905.876 1073.38 904.3 1070.98 902.863C1069.98 902.282 1068.88 902.227 1067.85 901.84C1067.08 901.536 1066.25 901.26 1066.11 900.264C1065.81 898.163 1064.59 897.058 1062.52 896.726C1061.77 896.615 1061.05 896.726 1060.34 896.615C1060.22 892.109 1059.62 887.631 1059.09 883.18C1058.7 879.918 1059.48 876.794 1060.69 873.809C1063.57 866.787 1068.63 861.59 1074.65 857.222C1075.12 856.89 1075.43 856.31 1076.04 856.171C1076.26 856.393 1076.31 856.614 1076.12 856.89C1075.4 857.83 1074.68 858.77 1073.96 859.738C1073.13 860.843 1072.33 861.977 1072.44 863.47C1072.5 864.133 1072.69 864.714 1073.41 864.797C1074.35 864.907 1075.32 865.045 1076.23 864.548C1081.65 861.617 1086.76 858.272 1091.49 854.347C1092.96 853.131 1094.5 852.025 1096 850.864C1096.33 851.223 1096.63 851.638 1097.05 851.942C1100.12 854.347 1102.41 857.388 1104.73 860.456C1105.09 860.76 1105.23 861.009 1105.06 861.341Z" fill="#FEFEFE"/>
<path d="M1060.42 896.671C1061.14 896.782 1061.88 896.671 1062.6 896.782C1064.7 897.086 1065.89 898.219 1066.2 900.32C1066.33 901.288 1067.14 901.592 1067.94 901.896C1068.96 902.283 1070.07 902.338 1071.06 902.919C1073.47 904.357 1073.99 905.905 1073.66 908.697C1073.36 911.185 1072.58 913.286 1070.7 914.944C1068.27 915.58 1065.86 916.382 1063.29 916.05C1059.87 915.608 1056.58 914.917 1054.59 911.682C1054.45 911.461 1054.25 911.378 1054.01 911.378C1053.95 909.968 1053.15 908.724 1053.12 907.259C1053.04 904.052 1054.48 901.564 1056.52 899.298C1057.05 898.717 1057.57 898.192 1058.1 897.639C1058.98 897.528 1059.73 897.169 1060.42 896.671Z" fill="#F7D0C6"/>
<path d="M1054.03 911.349C1054.28 911.349 1054.47 911.432 1054.61 911.653C1056.63 914.888 1059.92 915.606 1063.32 916.021C1065.89 916.353 1068.3 915.551 1070.73 914.915C1068.77 917.376 1066.03 918.039 1063.1 918.177C1059.09 918.343 1055.19 917.652 1051.41 916.408C1050.85 916.215 1050.22 916.27 1049.64 916.215C1051.49 914.971 1052.79 913.174 1054.03 911.349Z" fill="#FFD0CC"/>
<path d="M1047.84 918.178C1047.9 918.538 1047.73 918.676 1047.37 918.621C1047.54 918.482 1047.68 918.344 1047.84 918.178Z" fill="#FFD0CC"/>
<path d="M1096.14 850.892C1094.64 852.053 1093.09 853.159 1091.63 854.375C1086.9 858.301 1081.76 861.646 1076.37 864.576C1075.46 865.074 1074.49 864.963 1073.55 864.825C1072.86 864.742 1072.64 864.162 1072.58 863.498C1072.47 862.005 1073.3 860.872 1074.1 859.766C1074.79 858.798 1075.51 857.859 1076.26 856.919C1076.48 856.642 1076.43 856.421 1076.18 856.2C1076.81 855.094 1078 854.762 1079 854.127C1083.47 851.252 1085.71 845.557 1083.64 840.498C1083 838.95 1081.87 838.093 1080.13 838.231C1078.75 838.342 1077.37 838.286 1076.01 838.646C1074.6 839.033 1073.27 838.729 1072.03 838.038C1067.5 835.55 1063.93 831.956 1060.7 828.003C1060.31 827.533 1060.25 826.98 1060.5 826.455C1062.22 822.778 1060.97 819.654 1058.59 816.807C1057.13 815.093 1055.91 813.296 1055.06 811.167C1052.82 805.5 1057.32 801.906 1061.47 801.575C1068.16 801.077 1074.32 806.716 1075.21 813.296C1075.37 814.484 1075.49 815.673 1075.32 816.862C1074.74 821.202 1077.14 823.607 1081.37 825.349C1084.86 826.786 1088.59 827.45 1092.07 828.887C1094.34 829.799 1095.91 831.126 1096.36 833.725C1097.05 837.623 1098.15 841.383 1100.06 844.893C1100.28 845.308 1100.5 845.695 1100.84 845.999C1099.4 847.796 1097.71 849.289 1096.14 850.892Z" fill="#F7D0C6"/>
<path d="M1096.13 850.892C1097.71 849.288 1099.4 847.796 1100.81 846.054C1101.3 846.026 1101.83 845.888 1102.19 846.413C1104.98 850.532 1108.71 853.933 1111.2 858.301C1113.99 863.221 1115.79 868.418 1116.92 873.947C1118 879.2 1117.86 884.424 1117.26 889.705C1116.76 889.483 1116.84 889.041 1116.84 888.626C1116.76 885.696 1116.62 882.738 1115.93 879.918C1114.71 874.86 1113.61 869.745 1110.32 865.488C1109.07 863.885 1107.72 862.42 1105.73 861.756C1105.48 861.673 1105.2 861.59 1105.06 861.314C1105.23 860.982 1105.06 860.733 1104.87 860.457C1102.55 857.416 1100.23 854.347 1097.19 851.942C1096.77 851.666 1096.47 851.251 1096.13 850.892Z" fill="#FDE9E8"/>
<path d="M1168.54 878.259C1166.71 878.176 1164.86 878.093 1163.04 877.983C1162.92 877.596 1162.62 877.43 1162.26 877.264C1160.27 876.379 1159.05 874.721 1157.95 872.952C1157.29 871.873 1157.67 871.238 1158.94 871.155C1159.58 871.127 1160.24 871.376 1160.8 870.878C1162.04 871.846 1163.59 872.122 1164.97 872.841C1165.61 873.173 1165.47 872.316 1165.33 871.929C1164.75 870.187 1164.22 868.418 1164.31 866.538C1164.33 865.709 1164.36 864.879 1164.39 864.05C1165.11 863.552 1164.72 862.391 1165.58 862.004C1166.63 861.562 1167.26 860.705 1167.98 859.903C1169.61 859.046 1171.38 858.963 1173.21 859.019C1174.15 859.046 1174.45 859.406 1174.18 860.318C1173.07 863.939 1170.47 865.902 1166.66 866.04C1164.83 866.096 1164.58 866.4 1165 868.28C1165.61 870.989 1166.66 873.532 1168.04 875.937C1168.01 876.269 1168.15 876.518 1168.48 876.628C1168.54 876.766 1168.59 876.905 1168.65 877.015C1168.56 877.43 1168.54 877.845 1168.54 878.259Z" fill="#E57D77"/>
<path d="M1163.09 878.757C1163.31 878.812 1163.45 878.923 1163.23 879.144C1163.06 879.061 1163.06 878.923 1163.09 878.757Z" fill="#E57D77"/>
<path d="M1172.93 897.555C1172.66 897.528 1172.38 897.5 1172.1 897.472L1172.05 897.417H1171.97C1171.74 897.002 1171.38 896.975 1171 897.14C1166.27 895.758 1164.45 891.667 1164.14 887.852C1164.06 886.829 1165 887.244 1165.41 887.41C1167.57 888.184 1169.37 889.455 1170.78 891.28C1171.58 892.303 1171.94 893.547 1172.66 894.653C1173.07 891.86 1172.99 889.096 1172.19 886.387C1172.35 885.889 1173.4 887.106 1173.15 885.862C1174.18 882.904 1176.42 881.328 1179.29 880.471C1180.29 880.167 1180.31 880.913 1180.42 881.549C1181 885.336 1179.4 888.571 1175.72 890.091C1173.93 890.838 1173.24 891.75 1173.38 893.574C1173.49 894.929 1173.24 896.256 1172.93 897.555Z" fill="#E57D77"/>
<path d="M1169.06 854.126C1165.83 852.826 1164.55 849.675 1164.69 846.441C1164.72 845.777 1164.91 845.114 1165.05 844.312C1168.26 846.081 1169.97 848.652 1170.14 852.191C1170.03 852.771 1170.97 852.882 1170.69 853.518C1170.36 853.573 1170.25 853.794 1170.25 854.098C1170.17 854.153 1170.14 854.236 1170.14 854.319C1169.67 854.817 1169.36 854.402 1169.06 854.126Z" fill="#E57D77"/>
<path d="M1173.24 844.589C1173.26 845.971 1173.82 845.086 1174.09 844.755C1175.23 843.4 1176.64 842.792 1178.41 842.792C1179.54 842.792 1179.68 843.29 1179.4 844.147C1178.82 846.026 1177.66 847.326 1175.7 847.796C1175.23 847.713 1174.73 847.63 1174.43 848.155C1174.01 848.072 1173.62 848.017 1173.21 848.21C1172.6 847.796 1172.93 847.132 1172.85 846.607C1172.85 845.943 1172.85 845.308 1172.85 844.644C1172.99 844.644 1173.13 844.617 1173.24 844.589Z" fill="#E57D77"/>
<path d="M1169.06 854.126C1169.37 854.402 1169.67 854.817 1170.14 854.347C1169.67 856.006 1168.31 857.139 1167.62 858.66C1167.43 859.074 1167.13 859.406 1167.13 859.904C1166.96 859.959 1166.77 859.987 1166.79 860.208C1166.79 860.235 1166.85 860.291 1166.88 860.291C1167.1 860.291 1167.13 860.097 1167.18 859.931C1167.46 859.931 1167.71 859.931 1167.98 859.931C1167.29 860.761 1166.63 861.59 1165.58 862.032C1164.72 862.392 1165.11 863.58 1164.39 864.078C1164.36 862.198 1165.27 860.65 1166.16 859.102C1167.1 857.416 1168.29 855.895 1169.06 854.126Z" fill="#FF9088"/>
<path d="M1173.18 885.862C1173.43 887.106 1172.35 885.889 1172.21 886.387C1171.33 884.203 1170.61 881.964 1169.42 879.891C1169.12 879.365 1168.56 878.923 1168.54 878.232C1168.56 877.817 1168.59 877.43 1168.59 877.016C1169.09 877.071 1169.23 877.458 1169.39 877.845C1170.5 880.25 1171.97 882.462 1172.71 885.033C1172.79 885.337 1173.02 885.613 1173.18 885.862Z" fill="#FF9088"/>
<path d="M1173.24 844.589C1173.1 844.616 1172.99 844.644 1172.85 844.671C1172.74 844.478 1172.52 844.284 1172.49 844.091C1172.19 841.658 1171.11 839.778 1168.73 838.783C1168.43 838.673 1168.21 838.313 1168.4 837.982C1168.59 837.65 1168.98 837.76 1169.28 837.899C1171.11 838.645 1172.16 840.055 1172.93 841.824C1173.35 842.736 1173.4 843.649 1173.24 844.589Z" fill="#FF9088"/>
<path d="M1172.85 846.635C1172.93 847.188 1172.63 847.823 1173.21 848.238C1172.63 850.118 1172.05 852.025 1170.67 853.518C1170.97 852.882 1170 852.744 1170.11 852.191C1171.49 851.003 1171.74 849.233 1172.32 847.658C1172.49 847.271 1172.32 846.773 1172.85 846.635Z" fill="#FF9088"/>
<path d="M1174.42 848.183C1174.73 847.658 1175.23 847.741 1175.7 847.823C1175.42 848.459 1174.92 848.293 1174.42 848.183Z" fill="#FF9088"/>
<path d="M1170.22 854.098C1170.22 853.794 1170.36 853.573 1170.66 853.518C1170.72 853.849 1170.58 854.043 1170.22 854.098Z" fill="#FF9088"/>
<path d="M1168.42 876.628C1168.09 876.518 1167.95 876.269 1167.98 875.937C1168.37 876.02 1168.51 876.269 1168.42 876.628Z" fill="#FF9088"/>
<path d="M1170.97 897.14C1171.36 897.002 1171.72 897.002 1171.94 897.417C1171.58 897.527 1171.22 897.555 1170.97 897.14Z" fill="#FF9088"/>
<path d="M1167.15 859.932C1167.1 860.098 1167.07 860.291 1166.85 860.291C1166.82 860.291 1166.77 860.236 1166.77 860.208C1166.77 859.987 1166.96 859.96 1167.1 859.904C1167.1 859.877 1167.15 859.932 1167.15 859.932Z" fill="#FFD0CC"/>
<circle cx="309" cy="338" r="18" fill="url(#paint6_linear)"/>
<circle cx="1206.5" cy="729.5" r="14.5" fill="url(#paint7_linear)"/>
<circle cx="322" cy="409" r="5" fill="url(#paint8_linear)"/>
<circle cx="1240.5" cy="798.5" r="6.5" fill="url(#paint9_linear)"/>
<circle cx="1207" cy="829" r="4" fill="url(#paint10_linear)"/>
</g>
<defs>
<linearGradient id="paint0_linear" x1="-62.8837" y1="871.939" x2="790.757" y2="849.419" gradientUnits="userSpaceOnUse">
<stop stop-color="#FFD5DC"/>
<stop offset="1" stop-color="#FFDBC7"/>
</linearGradient>
<linearGradient id="paint1_linear" x1="312" y1="640.12" x2="420.797" y2="978.154" gradientUnits="userSpaceOnUse">
<stop stop-color="#F3F5F8"/>
<stop offset="1" stop-color="white" stop-opacity="0"/>
</linearGradient>
<linearGradient id="paint2_linear" x1="362" y1="1286.72" x2="302.799" y2="933.323" gradientUnits="userSpaceOnUse">
<stop stop-color="#F3F5F8"/>
<stop offset="1" stop-color="white" stop-opacity="0"/>
</linearGradient>
<linearGradient id="paint3_linear" x1="1296.14" y1="322.51" x2="1033.68" y2="569.808" gradientUnits="userSpaceOnUse">
<stop stop-color="#FFD5DC"/>
<stop offset="1" stop-color="#FFDBC7"/>
</linearGradient>
<linearGradient id="paint4_linear" x1="969.813" y1="140.496" x2="1152.5" y2="618.809" gradientUnits="userSpaceOnUse">
<stop stop-color="#F3F5F8"/>
<stop offset="1" stop-color="white" stop-opacity="0"/>
</linearGradient>
<linearGradient id="paint5_linear" x1="625" y1="697.634" x2="882.158" y2="659" gradientUnits="userSpaceOnUse">
<stop stop-color="#F3F5F8"/>
<stop offset="1" stop-color="white" stop-opacity="0"/>
</linearGradient>
<linearGradient id="paint6_linear" x1="291" y1="338" x2="327" y2="338" gradientUnits="userSpaceOnUse">
<stop stop-color="#FFD5DC"/>
<stop offset="1" stop-color="#FFDBC7"/>
</linearGradient>
<linearGradient id="paint7_linear" x1="1192" y1="729.5" x2="1221" y2="729.5" gradientUnits="userSpaceOnUse">
<stop stop-color="#FFD5DC"/>
<stop offset="1" stop-color="#FFDBC7"/>
</linearGradient>
<linearGradient id="paint8_linear" x1="317" y1="409" x2="327" y2="409" gradientUnits="userSpaceOnUse">
<stop stop-color="#FFD5DC"/>
<stop offset="1" stop-color="#FFDBC7"/>
</linearGradient>
<linearGradient id="paint9_linear" x1="1234" y1="798.5" x2="1247" y2="798.5" gradientUnits="userSpaceOnUse">
<stop stop-color="#FFD5DC"/>
<stop offset="1" stop-color="#FFDBC7"/>
</linearGradient>
<linearGradient id="paint10_linear" x1="1203" y1="829" x2="1211" y2="829" gradientUnits="userSpaceOnUse">
<stop stop-color="#FFD5DC"/>
<stop offset="1" stop-color="#FFDBC7"/>
</linearGradient>
<clipPath id="clip0">
<rect width="1440" height="1024" fill="white"/>
</clipPath>
</defs>
</svg>
