<svg width="2467" height="900" viewBox="0 0 2467 900" fill="none" xmlns="http://www.w3.org/2000/svg">
<rect x="1938.5" y="176.5" width="528" height="45" rx="22.5" fill="white" fill-opacity="0.69" stroke="#737AE1"/>
<rect x="1938.5" y="106.5" width="162" height="45" rx="22.5" fill="white" fill-opacity="0.69" stroke="#737AE1"/>
<rect x="119.5" y="175.5" width="220" height="45" rx="22.5" fill="white" fill-opacity="0.69" stroke="#737AE1"/>
<rect x="0.5" y="236.5" width="339" height="45" rx="22.5" fill="white" fill-opacity="0.69" stroke="#737AE1"/>
<rect x="1938.5" y="236.5" width="279" height="45" rx="22.5" fill="white" fill-opacity="0.69" stroke="#737AE1"/>
<rect x="1938.5" y="585.5" width="279" height="45" rx="22.5" fill="white" fill-opacity="0.69" stroke="#737AE1"/>
<g clip-path="url(#clip0)">
<rect width="1461" height="900" transform="translate(401)" fill="white"/>
<rect x="435.5" y="377.5" width="1393" height="63" fill="#F5F9FF"/>
<rect x="435.5" y="377.5" width="1393" height="63" stroke="white"/>
<rect x="435.5" y="505.5" width="1393" height="63" fill="#F5F9FF"/>
<rect x="435.5" y="505.5" width="1393" height="63" stroke="white"/>
<rect x="435.5" y="761.5" width="1393" height="63" fill="#F5F9FF"/>
<rect x="435.5" y="761.5" width="1393" height="63" stroke="white"/>
<rect x="435.5" y="441.5" width="1393" height="63" fill="#F5F9FF"/>
<rect x="435.5" y="441.5" width="1393" height="63" stroke="white"/>
<rect x="435.5" y="697.5" width="1393" height="63" fill="#F5F9FF"/>
<rect x="435.5" y="697.5" width="1393" height="63" stroke="white"/>
<rect x="435.5" y="569.5" width="1393" height="63" fill="#F5F9FF"/>
<rect x="435.5" y="569.5" width="1393" height="63" stroke="white"/>
<rect x="435.5" y="825.5" width="1393" height="63" fill="#F5F9FF"/>
<rect x="435.5" y="825.5" width="1393" height="63" stroke="white"/>
<rect x="435.5" y="633.5" width="1393" height="63" fill="#F5F9FF"/>
<rect x="435.5" y="633.5" width="1393" height="63" stroke="white"/>
<rect width="1396" height="64" transform="translate(433 889)" fill="white"/>
<path d="M923.727 606.614C922.318 601.182 918.068 597.636 910.523 597.636C902.636 597.636 897.045 601.795 897.045 607.977C897.045 612.932 900.045 616.227 906.591 617.682L912.5 618.977C915.864 619.727 917.432 621.227 917.432 623.409C917.432 626.114 914.545 628.227 910.091 628.227C906.023 628.227 903.409 626.477 902.591 623.045L896.023 624.045C897.159 630.227 902.295 633.705 910.136 633.705C918.568 633.705 924.409 629.227 924.409 622.909C924.409 617.977 921.273 614.932 914.864 613.455L909.318 612.182C905.477 611.273 903.818 609.977 903.841 607.614C903.818 604.932 906.727 603.023 910.591 603.023C914.818 603.023 916.773 605.364 917.568 607.705L923.727 606.614ZM953.994 618.523C954.017 624.455 949.608 627.273 945.79 627.273C941.585 627.273 938.676 624.227 938.676 619.477V598.091H931.881V620.295C931.881 628.955 936.631 633.455 943.335 633.455C948.585 633.455 952.153 630.682 953.767 626.955H954.131V633H960.812V598.091H953.994V618.523ZM970.489 633H977.125V627.568H977.693C978.92 629.795 981.42 633.682 987.784 633.682C996.239 633.682 1002.38 626.909 1002.38 615.614C1002.38 604.295 996.148 597.636 987.716 597.636C981.239 597.636 978.898 601.591 977.693 603.75H977.284V586.455H970.489V633ZM977.148 615.545C977.148 608.25 980.33 603.409 986.261 603.409C992.42 603.409 995.511 608.614 995.511 615.545C995.511 622.545 992.33 627.886 986.261 627.886C980.42 627.886 977.148 622.886 977.148 615.545ZM1010.01 633H1016.8V611.477C1016.8 606.773 1020.1 603.5 1023.96 603.5C1027.73 603.5 1030.35 606 1030.35 609.795V633H1037.12V610.75C1037.12 606.545 1039.69 603.5 1044.12 603.5C1047.71 603.5 1050.66 605.5 1050.66 610.227V633H1057.46V609.591C1057.46 601.614 1053.01 597.636 1046.69 597.636C1041.66 597.636 1037.89 600.045 1036.21 603.773H1035.85C1034.32 599.955 1031.12 597.636 1026.46 597.636C1021.85 597.636 1018.41 599.932 1016.96 603.773H1016.53V598.091H1010.01V633ZM1066.57 633H1073.36V598.091H1066.57V633ZM1070 592.705C1072.34 592.705 1074.3 590.886 1074.3 588.659C1074.3 586.432 1072.34 584.591 1070 584.591C1067.64 584.591 1065.7 586.432 1065.7 588.659C1065.7 590.886 1067.64 592.705 1070 592.705ZM1098.8 598.091H1091.64V589.727H1084.85V598.091H1079.73V603.545H1084.85V624.159C1084.82 630.5 1089.66 633.568 1095.03 633.455C1097.19 633.432 1098.64 633.023 1099.44 632.727L1098.21 627.114C1097.76 627.205 1096.91 627.409 1095.82 627.409C1093.62 627.409 1091.64 626.682 1091.64 622.75V603.545H1098.8V598.091ZM1122.61 598.091H1115.45V589.727H1108.66V598.091H1103.55V603.545H1108.66V624.159C1108.64 630.5 1113.48 633.568 1118.84 633.455C1121 633.432 1122.45 633.023 1123.25 632.727L1122.02 627.114C1121.57 627.205 1120.73 627.409 1119.64 627.409C1117.43 627.409 1115.45 626.682 1115.45 622.75V603.545H1122.61V598.091ZM1140.29 633.773C1146.06 633.773 1149.31 630.841 1150.61 628.227H1150.88V633H1157.52V609.818C1157.52 599.659 1149.52 597.636 1143.97 597.636C1137.65 597.636 1131.84 600.182 1129.56 606.545L1135.95 608C1136.95 605.523 1139.49 603.136 1144.06 603.136C1148.45 603.136 1150.7 605.432 1150.7 609.386V609.545C1150.7 612.023 1148.15 611.977 1141.88 612.705C1135.27 613.477 1128.49 615.205 1128.49 623.136C1128.49 630 1133.65 633.773 1140.29 633.773ZM1141.77 628.318C1137.93 628.318 1135.15 626.591 1135.15 623.227C1135.15 619.591 1138.38 618.295 1142.31 617.773C1144.52 617.477 1149.74 616.886 1150.72 615.909V620.409C1150.72 624.545 1147.43 628.318 1141.77 628.318ZM1173.36 586.455H1166.57V633H1173.36V586.455ZM1215.74 598.091H1208.58V589.727H1201.78V598.091H1196.67V603.545H1201.78V624.159C1201.76 630.5 1206.6 633.568 1211.97 633.455C1214.12 633.432 1215.58 633.023 1216.38 632.727L1215.15 627.114C1214.69 627.205 1213.85 627.409 1212.76 627.409C1210.56 627.409 1208.58 626.682 1208.58 622.75V603.545H1215.74V598.091ZM1233.41 633.773C1239.19 633.773 1242.44 630.841 1243.73 628.227H1244.01V633H1250.64V609.818C1250.64 599.659 1242.64 597.636 1237.1 597.636C1230.78 597.636 1224.96 600.182 1222.69 606.545L1229.07 608C1230.07 605.523 1232.62 603.136 1237.19 603.136C1241.57 603.136 1243.82 605.432 1243.82 609.386V609.545C1243.82 612.023 1241.28 611.977 1235.01 612.705C1228.39 613.477 1221.62 615.205 1221.62 623.136C1221.62 630 1226.78 633.773 1233.41 633.773ZM1234.89 628.318C1231.05 628.318 1228.28 626.591 1228.28 623.227C1228.28 619.591 1231.51 618.295 1235.44 617.773C1237.64 617.477 1242.87 616.886 1243.85 615.909V620.409C1243.85 624.545 1240.55 628.318 1234.89 628.318ZM1260.24 633H1266.88V627.568H1267.44C1268.67 629.795 1271.17 633.682 1277.53 633.682C1285.99 633.682 1292.12 626.909 1292.12 615.614C1292.12 604.295 1285.9 597.636 1277.47 597.636C1270.99 597.636 1268.65 601.591 1267.44 603.75H1267.03V586.455H1260.24V633ZM1266.9 615.545C1266.9 608.25 1270.08 603.409 1276.01 603.409C1282.17 603.409 1285.26 608.614 1285.26 615.545C1285.26 622.545 1282.08 627.886 1276.01 627.886C1270.17 627.886 1266.9 622.886 1266.9 615.545ZM1306.55 586.455H1299.76V633H1306.55V586.455ZM1330.74 633.705C1338.35 633.705 1343.74 629.955 1345.28 624.273L1338.85 623.114C1337.62 626.409 1334.67 628.091 1330.81 628.091C1324.99 628.091 1321.08 624.318 1320.9 617.591H1345.72V615.182C1345.72 602.568 1338.17 597.636 1330.26 597.636C1320.53 597.636 1314.12 605.045 1314.12 615.773C1314.12 626.614 1320.44 633.705 1330.74 633.705ZM1320.92 612.5C1321.19 607.545 1324.78 603.25 1330.31 603.25C1335.58 603.25 1339.03 607.159 1339.06 612.5H1320.92Z" fill="#B9C5D9"/>
<rect width="1394" height="64" transform="translate(435 296)" fill="#EBF2FC"/>
<g filter="url(#filter0_d)">
<circle cx="1725" cy="196" r="18" fill="#D0DDF3"/>
</g>
<rect x="1718" y="189" width="10" height="2" rx="1" fill="#B9C5D9"/>
<rect x="1718" y="192" width="10" height="2" rx="1" fill="#B9C5D9"/>
<rect x="1718" y="195" width="10" height="2" rx="1" fill="#B9C5D9"/>
<rect x="1718" y="198" width="10" height="2" rx="1" fill="#B9C5D9"/>
<rect x="1729" y="195" width="3" height="2" rx="1" fill="#B9C5D9"/>
<rect x="1729" y="198" width="3" height="2" rx="1" fill="#B9C5D9"/>
<rect x="1729" y="192" width="3" height="2" rx="1" fill="#B9C5D9"/>
<rect x="1729" y="189" width="3" height="2" rx="1" fill="#B9C5D9"/>
<path d="M1725 197V203" stroke="#98A9C6" stroke-width="2" stroke-linecap="round" stroke-linejoin="round"/>
<path d="M1722 201L1725 203L1728 201" stroke="#98A9C6" stroke-width="2" stroke-linecap="round" stroke-linejoin="round"/>
<g filter="url(#filter1_d)">
<circle cx="1664" cy="196" r="18" fill="#D0DDF3"/>
</g>
<path d="M1660.57 191.974C1661.2 191.324 1662 190.866 1662.86 190.65C1663.73 190.434 1664.64 190.468 1665.49 190.748C1665.67 190.809 1665.88 190.792 1666.05 190.7C1666.22 190.608 1666.35 190.449 1666.41 190.258C1666.47 190.068 1666.45 189.86 1666.36 189.682C1666.28 189.504 1666.12 189.37 1665.93 189.309C1664.79 188.933 1663.56 188.899 1662.4 189.213C1661.24 189.526 1660.19 190.174 1659.37 191.079C1658.55 191.985 1658 193.111 1657.79 194.325C1657.57 195.54 1657.69 196.794 1658.14 197.938C1658.16 197.971 1658.16 198.006 1658.15 198.039C1658.14 198.072 1658.12 198.101 1658.09 198.12L1657.27 198.677C1657.17 198.743 1657.09 198.837 1657.05 198.947C1657 199.057 1656.99 199.179 1657.01 199.297C1657.03 199.414 1657.09 199.523 1657.17 199.608C1657.25 199.693 1657.36 199.751 1657.47 199.775L1660.06 200.324C1660.1 200.333 1660.14 200.337 1660.18 200.337C1660.32 200.337 1660.45 200.289 1660.55 200.2C1660.66 200.112 1660.73 199.99 1660.76 199.853L1661.29 197.189C1661.32 197.072 1661.31 196.951 1661.26 196.84C1661.22 196.729 1661.14 196.634 1661.05 196.567C1660.95 196.5 1660.84 196.464 1660.72 196.463C1660.61 196.462 1660.49 196.497 1660.39 196.562L1659.61 197.095C1659.59 197.108 1659.57 197.116 1659.54 197.119C1659.52 197.122 1659.5 197.119 1659.48 197.111C1659.46 197.104 1659.44 197.091 1659.42 197.074C1659.4 197.057 1659.39 197.037 1659.39 197.015C1659.12 196.143 1659.08 195.212 1659.29 194.323C1659.5 193.434 1659.95 192.622 1660.57 191.974Z" fill="#98A9C6"/>
<path d="M1670.99 192.108C1670.97 191.99 1670.92 191.881 1670.84 191.794C1670.76 191.707 1670.66 191.647 1670.54 191.62L1667.96 191.016C1667.88 190.998 1667.81 190.995 1667.73 191.008C1667.65 191.022 1667.58 191.05 1667.52 191.092C1667.45 191.135 1667.39 191.19 1667.35 191.254C1667.3 191.319 1667.27 191.393 1667.25 191.47L1666.67 194.122C1666.64 194.239 1666.65 194.361 1666.69 194.473C1666.73 194.584 1666.8 194.681 1666.9 194.75C1666.99 194.819 1667.11 194.858 1667.22 194.861C1667.34 194.865 1667.45 194.832 1667.55 194.769L1668.4 194.221C1668.42 194.208 1668.44 194.2 1668.46 194.197C1668.49 194.195 1668.51 194.197 1668.53 194.205C1668.55 194.213 1668.57 194.225 1668.59 194.242C1668.6 194.259 1668.61 194.279 1668.62 194.301C1668.89 195.17 1668.93 196.099 1668.73 196.988C1668.52 197.877 1668.08 198.691 1667.46 199.341C1666.83 199.992 1666.05 200.453 1665.19 200.676C1664.32 200.898 1663.42 200.873 1662.57 200.603C1662.48 200.571 1662.38 200.558 1662.28 200.565C1662.18 200.573 1662.09 200.6 1662 200.646C1661.91 200.692 1661.83 200.756 1661.77 200.833C1661.71 200.91 1661.66 201 1661.63 201.096C1661.6 201.193 1661.59 201.294 1661.6 201.395C1661.61 201.495 1661.64 201.592 1661.69 201.681C1661.74 201.769 1661.8 201.848 1661.88 201.91C1661.95 201.973 1662.04 202.02 1662.14 202.047C1663.28 202.41 1664.5 202.433 1665.65 202.113C1666.8 201.794 1667.84 201.145 1668.65 200.243C1669.46 199.34 1670.01 198.22 1670.22 197.012C1670.44 195.804 1670.32 194.558 1669.87 193.419C1669.86 193.386 1669.86 193.35 1669.87 193.317C1669.88 193.284 1669.9 193.256 1669.93 193.237L1670.72 192.726C1670.82 192.662 1670.9 192.569 1670.95 192.459C1671 192.349 1671.01 192.226 1670.99 192.108Z" fill="#98A9C6"/>
<rect x="537.852" y="176" width="706.986" height="40" rx="6" fill="#EBF2FC"/>
<path d="M561.262 200.882C559.592 202.18 557.491 202.792 555.386 202.594C553.281 202.396 551.33 201.403 549.931 199.817C548.532 198.23 547.79 196.17 547.857 194.056C547.923 191.941 548.792 189.931 550.287 188.436C551.782 186.94 553.791 186.07 555.904 186.004C558.017 185.938 560.076 186.68 561.662 188.08C563.248 189.479 564.24 191.431 564.438 193.537C564.636 195.643 564.024 197.746 562.727 199.417L567.546 204.22C567.954 204.627 567.955 205.287 567.547 205.695C567.14 206.102 566.48 206.102 566.073 205.694L561.273 200.882H561.262ZM556.172 200.55C556.99 200.55 557.801 200.388 558.557 200.075C559.313 199.761 560 199.302 560.579 198.723C561.158 198.144 561.617 197.456 561.93 196.7C562.244 195.943 562.405 195.132 562.405 194.313C562.405 193.494 562.244 192.683 561.93 191.926C561.617 191.17 561.158 190.482 560.579 189.903C560 189.324 559.313 188.865 558.557 188.551C557.801 188.238 556.99 188.077 556.172 188.077C554.518 188.077 552.933 188.734 551.764 189.903C550.595 191.073 549.938 192.659 549.938 194.313C549.938 195.967 550.595 197.553 551.764 198.723C552.933 199.892 554.518 200.55 556.172 200.55Z" fill="#B9C5D9"/>
<path d="M1730.8 253.106C1731.43 252.513 1730.43 251.573 1729.8 252.216L1725.2 256.519C1724.93 256.766 1724.93 257.211 1725.2 257.459L1729.8 261.811C1730.43 262.404 1731.43 261.465 1730.8 260.871L1726.72 257.013L1730.8 253.106Z" fill="#98A9C6"/>
<path d="M1781.2 253.106C1780.57 252.513 1781.57 251.573 1782.2 252.216L1786.8 256.519C1787.07 256.766 1787.07 257.211 1786.8 257.459L1782.2 261.811C1781.57 262.404 1780.57 261.465 1781.2 260.871L1785.28 257.013L1781.2 253.106Z" fill="#98A9C6"/>
<path d="M1608.15 253.273H1606.87L1604.69 254.696V255.957L1606.78 254.594H1606.83V262H1608.15V253.273ZM1614.98 257.087H1611.12V258.19H1614.98V257.087ZM1616.91 262H1622.66V260.871H1618.73V260.807L1620.46 258.991C1622.06 257.376 1622.52 256.605 1622.52 255.629C1622.52 254.227 1621.38 253.153 1619.73 253.153C1618.1 253.153 1616.91 254.21 1616.91 255.804H1618.16C1618.16 254.866 1618.76 254.253 1619.71 254.253C1620.59 254.253 1621.27 254.798 1621.27 255.668C1621.27 256.439 1620.81 256.993 1619.87 257.986L1616.91 261.045V262ZM1627.91 262.145C1629.93 262.145 1631.11 260.5 1631.11 257.641C1631.11 254.803 1629.91 253.153 1627.91 253.153C1625.91 253.153 1624.72 254.798 1624.71 257.641C1624.71 260.496 1625.89 262.141 1627.91 262.145ZM1627.91 261.007C1626.73 261.007 1626.02 259.822 1626.02 257.641C1626.02 255.467 1626.74 254.27 1627.91 254.27C1629.08 254.27 1629.8 255.467 1629.8 257.641C1629.8 259.822 1629.09 261.007 1627.91 261.007ZM1639.77 262.132C1641.62 262.132 1642.82 260.781 1642.82 258.757C1642.82 256.72 1641.62 255.369 1639.77 255.369C1637.92 255.369 1636.72 256.72 1636.72 258.757C1636.72 260.781 1637.92 262.132 1639.77 262.132ZM1639.77 261.062C1638.57 261.062 1638.01 260.01 1638.01 258.753C1638.01 257.5 1638.57 256.435 1639.77 256.435C1640.97 256.435 1641.53 257.5 1641.53 258.753C1641.53 260.01 1640.97 261.062 1639.77 261.062ZM1647.96 255.455H1646.55V254.866C1646.55 254.287 1646.79 253.972 1647.41 253.972C1647.67 253.972 1647.86 254.031 1647.98 254.07L1648.28 253.038C1648.1 252.97 1647.73 252.864 1647.21 252.864C1646.18 252.864 1645.27 253.469 1645.27 254.696V255.455H1644.26V256.477H1645.27V262H1646.55V256.477H1647.96V255.455ZM1653.93 262H1655.3L1659.1 254.44V253.273H1653.33V254.402H1657.74V254.466L1653.93 262ZM1661.71 262H1663.09L1666.88 254.44V253.273H1661.11V254.402H1665.52V254.466L1661.71 262ZM1671.82 262.119C1673.65 262.136 1674.86 260.824 1674.85 259.149C1674.86 257.479 1673.64 256.281 1672.13 256.281C1671.21 256.281 1670.41 256.724 1669.97 257.462H1669.9C1669.91 255.48 1670.66 254.304 1671.93 254.304C1672.77 254.304 1673.3 254.815 1673.48 255.54H1674.78C1674.58 254.159 1673.49 253.153 1671.93 253.153C1669.91 253.153 1668.64 254.896 1668.64 257.93C1668.64 261.143 1670.27 262.107 1671.82 262.119ZM1671.82 261.011C1670.81 261.011 1670.06 260.159 1670.06 259.179C1670.07 258.203 1670.84 257.351 1671.85 257.351C1672.85 257.351 1673.58 258.156 1673.58 259.166C1673.58 260.197 1672.82 261.011 1671.82 261.011Z" fill="#98A9C6"/>
<path d="M1419.96 262H1421.28V258.697H1423.07C1423.1 258.697 1423.12 258.697 1423.15 258.697L1424.92 262H1426.42L1424.49 258.467C1425.56 258.071 1426.09 257.18 1426.09 256.009C1426.09 254.402 1425.09 253.273 1423.07 253.273H1419.96V262ZM1421.28 257.564V254.402H1422.93C1424.23 254.402 1424.77 255.02 1424.77 256.009C1424.77 256.993 1424.23 257.564 1422.95 257.564H1421.28ZM1430.87 262.132C1432.71 262.132 1433.92 260.781 1433.92 258.757C1433.92 256.72 1432.71 255.369 1430.87 255.369C1429.02 255.369 1427.81 256.72 1427.81 258.757C1427.81 260.781 1429.02 262.132 1430.87 262.132ZM1430.87 261.062C1429.66 261.062 1429.1 260.01 1429.1 258.753C1429.1 257.5 1429.66 256.435 1430.87 256.435C1432.07 256.435 1432.63 257.5 1432.63 258.753C1432.63 260.01 1432.07 261.062 1430.87 261.062ZM1437.16 262H1438.45L1439.78 257.274H1439.88L1441.21 262H1442.51L1444.43 255.455H1443.12L1441.84 260.24H1441.78L1440.5 255.455H1439.18L1437.9 260.261H1437.83L1436.55 255.455H1435.23L1437.16 262ZM1451.15 257.053C1450.88 256.034 1450.09 255.369 1448.67 255.369C1447.19 255.369 1446.14 256.149 1446.14 257.308C1446.14 258.237 1446.71 258.855 1447.93 259.128L1449.04 259.371C1449.67 259.511 1449.97 259.793 1449.97 260.202C1449.97 260.709 1449.43 261.105 1448.59 261.105C1447.83 261.105 1447.34 260.777 1447.18 260.134L1445.95 260.321C1446.17 261.48 1447.13 262.132 1448.6 262.132C1450.18 262.132 1451.28 261.293 1451.28 260.108C1451.28 259.183 1450.69 258.612 1449.49 258.335L1448.45 258.097C1447.73 257.926 1447.41 257.683 1447.42 257.24C1447.41 256.737 1447.96 256.379 1448.68 256.379C1449.48 256.379 1449.84 256.818 1449.99 257.257L1451.15 257.053ZM1457.05 264.455H1458.33V260.982H1458.4C1458.63 261.399 1459.1 262.128 1460.29 262.128C1461.88 262.128 1463.03 260.858 1463.03 258.74C1463.03 256.618 1461.86 255.369 1460.28 255.369C1459.07 255.369 1458.63 256.111 1458.4 256.516H1458.3V255.455H1457.05V264.455ZM1458.3 258.727C1458.3 257.359 1458.9 256.452 1460.01 256.452C1461.16 256.452 1461.74 257.428 1461.74 258.727C1461.74 260.04 1461.15 261.041 1460.01 261.041C1458.91 261.041 1458.3 260.104 1458.3 258.727ZM1467.88 262.132C1469.31 262.132 1470.32 261.429 1470.61 260.364L1469.4 260.146C1469.17 260.764 1468.62 261.08 1467.89 261.08C1466.8 261.08 1466.07 260.372 1466.03 259.111H1470.69V258.659C1470.69 256.294 1469.27 255.369 1467.79 255.369C1465.97 255.369 1464.76 256.759 1464.76 258.77C1464.76 260.803 1465.95 262.132 1467.88 262.132ZM1466.04 258.156C1466.09 257.227 1466.76 256.422 1467.8 256.422C1468.79 256.422 1469.43 257.155 1469.44 258.156H1466.04ZM1472.7 262H1473.98V258.003C1473.98 257.146 1474.64 256.528 1475.54 256.528C1475.8 256.528 1476.1 256.575 1476.2 256.605V255.386C1476.08 255.369 1475.82 255.357 1475.66 255.357C1474.9 255.357 1474.24 255.791 1474 256.494H1473.93V255.455H1472.7V262ZM1481.68 264.455H1482.96V260.982H1483.03C1483.26 261.399 1483.73 262.128 1484.93 262.128C1486.51 262.128 1487.66 260.858 1487.66 258.74C1487.66 256.618 1486.49 255.369 1484.91 255.369C1483.7 255.369 1483.26 256.111 1483.03 256.516H1482.93V255.455H1481.68V264.455ZM1482.93 258.727C1482.93 257.359 1483.53 256.452 1484.64 256.452C1485.79 256.452 1486.37 257.428 1486.37 258.727C1486.37 260.04 1485.78 261.041 1484.64 261.041C1483.54 261.041 1482.93 260.104 1482.93 258.727ZM1491.59 262.145C1492.68 262.145 1493.29 261.595 1493.53 261.105H1493.58V262H1494.82V257.653C1494.82 255.749 1493.32 255.369 1492.28 255.369C1491.1 255.369 1490.01 255.847 1489.58 257.04L1490.78 257.312C1490.97 256.848 1491.44 256.401 1492.3 256.401C1493.12 256.401 1493.55 256.831 1493.55 257.572V257.602C1493.55 258.067 1493.07 258.058 1491.89 258.195C1490.65 258.339 1489.38 258.663 1489.38 260.151C1489.38 261.438 1490.35 262.145 1491.59 262.145ZM1491.87 261.122C1491.15 261.122 1490.63 260.798 1490.63 260.168C1490.63 259.486 1491.24 259.243 1491.97 259.145C1492.39 259.089 1493.37 258.979 1493.55 258.795V259.639C1493.55 260.415 1492.93 261.122 1491.87 261.122ZM1499.86 264.591C1501.53 264.591 1502.82 263.828 1502.82 262.145V255.455H1501.57V256.516H1501.48C1501.25 256.111 1500.8 255.369 1499.58 255.369C1498 255.369 1496.84 256.618 1496.84 258.702C1496.84 260.79 1498.02 261.902 1499.57 261.902C1500.77 261.902 1501.24 261.224 1501.47 260.807H1501.55V262.094C1501.55 263.121 1500.85 263.564 1499.88 263.564C1498.82 263.564 1498.4 263.031 1498.18 262.656L1497.08 263.108C1497.43 263.909 1498.3 264.591 1499.86 264.591ZM1499.85 260.845C1498.71 260.845 1498.12 259.972 1498.12 258.685C1498.12 257.428 1498.7 256.452 1499.85 256.452C1500.96 256.452 1501.56 257.359 1501.56 258.685C1501.56 260.036 1500.95 260.845 1499.85 260.845ZM1507.95 262.132C1509.38 262.132 1510.39 261.429 1510.68 260.364L1509.47 260.146C1509.24 260.764 1508.69 261.08 1507.96 261.08C1506.87 261.08 1506.14 260.372 1506.1 259.111H1510.76V258.659C1510.76 256.294 1509.34 255.369 1507.86 255.369C1506.03 255.369 1504.83 256.759 1504.83 258.77C1504.83 260.803 1506.02 262.132 1507.95 262.132ZM1506.11 258.156C1506.16 257.227 1506.83 256.422 1507.87 256.422C1508.86 256.422 1509.5 257.155 1509.51 258.156H1506.11ZM1513.61 257.317C1514.07 257.317 1514.46 256.938 1514.46 256.464C1514.46 256 1514.07 255.616 1513.61 255.616C1513.14 255.616 1512.76 256 1512.76 256.464C1512.76 256.938 1513.14 257.317 1513.61 257.317ZM1513.61 262.081C1514.07 262.081 1514.46 261.702 1514.46 261.229C1514.46 260.764 1514.07 260.381 1513.61 260.381C1513.14 260.381 1512.76 260.764 1512.76 261.229C1512.76 261.702 1513.14 262.081 1513.61 262.081ZM1520.53 262H1526.27V260.871H1522.34V260.807L1524.08 258.991C1525.67 257.376 1526.13 256.605 1526.13 255.629C1526.13 254.227 1524.99 253.153 1523.34 253.153C1521.71 253.153 1520.52 254.21 1520.52 255.804H1521.78C1521.77 254.866 1522.38 254.253 1523.32 254.253C1524.2 254.253 1524.88 254.798 1524.88 255.668C1524.88 256.439 1524.42 256.993 1523.48 257.986L1520.53 261.045V262ZM1531.52 262.145C1533.54 262.145 1534.72 260.5 1534.72 257.641C1534.72 254.803 1533.52 253.153 1531.52 253.153C1529.52 253.153 1528.33 254.798 1528.32 257.641C1528.32 260.496 1529.5 262.141 1531.52 262.145ZM1531.52 261.007C1530.34 261.007 1529.63 259.822 1529.63 257.641C1529.64 255.467 1530.35 254.27 1531.52 254.27C1532.7 254.27 1533.41 255.467 1533.41 257.641C1533.41 259.822 1532.7 261.007 1531.52 261.007Z" fill="#98A9C6"/>
<path d="M1550 260L1546 255H1554L1550 260Z" fill="#98A9C6"/>
<path d="M538.959 262H540.276V258.195H543.983V257.065H540.276V254.406H544.371V253.273H538.959V262ZM546.488 262H547.762V255.455H546.488V262ZM547.131 254.445C547.57 254.445 547.937 254.104 547.937 253.686C547.937 253.268 547.57 252.923 547.131 252.923C546.688 252.923 546.326 253.268 546.326 253.686C546.326 254.104 546.688 254.445 547.131 254.445ZM551.35 253.273H550.076V262H551.35V253.273ZM556.72 255.455H555.377V253.886H554.103V255.455H553.144V256.477H554.103V260.342C554.099 261.531 555.007 262.107 556.012 262.085C556.417 262.081 556.69 262.004 556.839 261.949L556.609 260.896C556.524 260.913 556.366 260.952 556.162 260.952C555.748 260.952 555.377 260.815 555.377 260.078V256.477H556.72V255.455ZM561.48 262.132C562.907 262.132 563.917 261.429 564.207 260.364L563.001 260.146C562.771 260.764 562.217 261.08 561.493 261.08C560.402 261.08 559.669 260.372 559.635 259.111H564.288V258.659C564.288 256.294 562.873 255.369 561.39 255.369C559.567 255.369 558.365 256.759 558.365 258.77C558.365 260.803 559.55 262.132 561.48 262.132ZM559.639 258.156C559.69 257.227 560.363 256.422 561.399 256.422C562.388 256.422 563.035 257.155 563.04 258.156H559.639ZM566.302 262H567.576V258.003C567.576 257.146 568.237 256.528 569.14 256.528C569.404 256.528 569.702 256.575 569.805 256.605V255.386C569.677 255.369 569.425 255.357 569.263 255.357C568.496 255.357 567.84 255.791 567.602 256.494H567.533V255.455H566.302V262ZM576.412 257.053C576.148 256.034 575.351 255.369 573.936 255.369C572.458 255.369 571.409 256.149 571.409 257.308C571.409 258.237 571.972 258.855 573.199 259.128L574.307 259.371C574.938 259.511 575.232 259.793 575.232 260.202C575.232 260.709 574.691 261.105 573.855 261.105C573.093 261.105 572.602 260.777 572.449 260.134L571.218 260.321C571.431 261.48 572.394 262.132 573.864 262.132C575.445 262.132 576.54 261.293 576.54 260.108C576.54 259.183 575.952 258.612 574.75 258.335L573.71 258.097C572.99 257.926 572.679 257.683 572.683 257.24C572.679 256.737 573.225 256.379 573.949 256.379C574.742 256.379 575.108 256.818 575.257 257.257L576.412 257.053Z" fill="#98A9C6"/>
<rect x="764" y="244" width="132" height="28" rx="14" fill="#EBF2FD"/>
<path d="M886 254L878 262" stroke="#98A9C6" stroke-width="1.5" stroke-linecap="round" stroke-linejoin="round"/>
<path d="M886 262L878 254" stroke="#98A9C6" stroke-width="1.5" stroke-linecap="round" stroke-linejoin="round"/>
<path d="M779.784 262C782.443 262 783.982 260.351 783.982 257.624C783.982 254.909 782.443 253.273 779.874 253.273H776.959V262H779.784ZM778.276 260.849V254.423H779.793C781.702 254.423 782.686 255.565 782.686 257.624C782.686 259.69 781.702 260.849 779.712 260.849H778.276ZM790.263 259.286C790.267 260.398 789.441 260.926 788.725 260.926C787.936 260.926 787.391 260.355 787.391 259.464V255.455H786.117V259.618C786.117 261.241 787.007 262.085 788.264 262.085C789.249 262.085 789.918 261.565 790.22 260.866H790.289V262H791.541V255.455H790.263V259.286ZM796.674 262.132C798.102 262.132 799.112 261.429 799.402 260.364L798.196 260.146C797.966 260.764 797.412 261.08 796.687 261.08C795.596 261.08 794.863 260.372 794.829 259.111H799.483V258.659C799.483 256.294 798.068 255.369 796.585 255.369C794.761 255.369 793.559 256.759 793.559 258.77C793.559 260.803 794.744 262.132 796.674 262.132ZM794.834 258.156C794.885 257.227 795.558 256.422 796.593 256.422C797.582 256.422 798.23 257.155 798.234 258.156H794.834ZM805.272 262H806.546V255.455H805.272V262ZM805.916 254.445C806.355 254.445 806.721 254.104 806.721 253.686C806.721 253.268 806.355 252.923 805.916 252.923C805.472 252.923 805.11 253.268 805.11 253.686C805.11 254.104 805.472 254.445 805.916 254.445ZM810.135 258.114C810.135 257.07 810.774 256.473 811.66 256.473C812.525 256.473 813.049 257.04 813.049 257.99V262H814.324V257.837C814.324 256.217 813.433 255.369 812.095 255.369C811.11 255.369 810.467 255.825 810.164 256.52H810.083V255.455H808.86V262H810.135V258.114ZM823.702 253.273H822.419L820.242 254.696V255.957L822.33 254.594H822.381V262H823.702V253.273ZM829.544 262.119C831.299 262.119 832.552 260.879 832.548 259.179C832.552 257.491 831.376 256.264 829.787 256.264C829.139 256.264 828.538 256.511 828.197 256.844H828.146L828.423 254.402H832.126V253.273H827.328L826.838 257.67L828.044 257.849C828.372 257.555 828.96 257.355 829.488 257.355C830.524 257.364 831.274 258.139 831.274 259.205C831.274 260.253 830.545 261.011 829.544 261.011C828.7 261.011 828.031 260.474 827.963 259.724H826.684C826.735 261.114 827.941 262.119 829.544 262.119ZM840.947 262.128C842.141 262.128 842.609 261.399 842.839 260.982H842.946V262H844.19V253.273H842.916V256.516H842.839C842.609 256.111 842.175 255.369 840.956 255.369C839.375 255.369 838.212 256.618 838.212 258.74C838.212 260.858 839.358 262.128 840.947 262.128ZM841.229 261.041C840.091 261.041 839.499 260.04 839.499 258.727C839.499 257.428 840.078 256.452 841.229 256.452C842.341 256.452 842.938 257.359 842.938 258.727C842.938 260.104 842.328 261.041 841.229 261.041ZM848.514 262.145C849.596 262.145 850.205 261.595 850.448 261.105H850.5V262H851.744V257.653C851.744 255.749 850.244 255.369 849.204 255.369C848.019 255.369 846.928 255.847 846.502 257.04L847.7 257.312C847.887 256.848 848.365 256.401 849.221 256.401C850.044 256.401 850.465 256.831 850.465 257.572V257.602C850.465 258.067 849.988 258.058 848.812 258.195C847.572 258.339 846.302 258.663 846.302 260.151C846.302 261.438 847.269 262.145 848.514 262.145ZM848.791 261.122C848.071 261.122 847.551 260.798 847.551 260.168C847.551 259.486 848.156 259.243 848.893 259.145C849.306 259.089 850.286 258.979 850.47 258.795V259.639C850.47 260.415 849.852 261.122 848.791 261.122ZM854.612 264.455C855.664 264.455 856.329 263.905 856.709 262.874L859.414 255.467L858.038 255.455L856.38 260.534H856.312L854.655 255.455H853.291L855.686 262.085L855.528 262.52C855.204 263.389 854.748 263.462 854.049 263.27L853.743 264.314C853.896 264.382 854.228 264.455 854.612 264.455ZM866.12 257.053C865.856 256.034 865.059 255.369 863.644 255.369C862.165 255.369 861.117 256.149 861.117 257.308C861.117 258.237 861.68 258.855 862.907 259.128L864.015 259.371C864.646 259.511 864.94 259.793 864.94 260.202C864.94 260.709 864.398 261.105 863.563 261.105C862.8 261.105 862.31 260.777 862.157 260.134L860.925 260.321C861.138 261.48 862.101 262.132 863.572 262.132C865.153 262.132 866.248 261.293 866.248 260.108C866.248 259.183 865.66 258.612 864.458 258.335L863.418 258.097C862.698 257.926 862.387 257.683 862.391 257.24C862.387 256.737 862.932 256.379 863.657 256.379C864.45 256.379 864.816 256.818 864.965 257.257L866.12 257.053Z" fill="#98A9C6"/>
<rect x="600" y="244" width="132" height="28" rx="14" fill="#EBF2FD"/>
<path d="M722 254L714 262" stroke="#98A9C6" stroke-width="1.5" stroke-linecap="round" stroke-linejoin="round"/>
<path d="M722 262L714 254" stroke="#98A9C6" stroke-width="1.5" stroke-linecap="round" stroke-linejoin="round"/>
<path d="M613.696 262L614.497 259.69H617.906L618.703 262H620.101L616.96 253.273H615.439L612.298 262H613.696ZM614.881 258.582L616.168 254.858H616.236L617.523 258.582H614.881ZM622.458 262H623.753L625.083 257.274H625.181L626.51 262H627.81L629.732 255.455H628.415L627.141 260.24H627.077L625.799 255.455H624.482L623.195 260.261H623.131L621.848 255.455H620.531L622.458 262ZM633.446 262.145C634.528 262.145 635.138 261.595 635.38 261.105H635.432V262H636.676V257.653C636.676 255.749 635.176 255.369 634.136 255.369C632.951 255.369 631.861 255.847 631.434 257.04L632.632 257.312C632.819 256.848 633.297 256.401 634.153 256.401C634.976 256.401 635.397 256.831 635.397 257.572V257.602C635.397 258.067 634.92 258.058 633.744 258.195C632.504 258.339 631.234 258.663 631.234 260.151C631.234 261.438 632.201 262.145 633.446 262.145ZM633.723 261.122C633.003 261.122 632.483 260.798 632.483 260.168C632.483 259.486 633.088 259.243 633.825 259.145C634.238 259.089 635.218 258.979 635.402 258.795V259.639C635.402 260.415 634.784 261.122 633.723 261.122ZM638.973 262H640.247V255.455H638.973V262ZM639.616 254.445C640.055 254.445 640.422 254.104 640.422 253.686C640.422 253.268 640.055 252.923 639.616 252.923C639.173 252.923 638.811 253.268 638.811 253.686C638.811 254.104 639.173 254.445 639.616 254.445ZM645.617 255.455H644.274V253.886H643V255.455H642.041V256.477H643V260.342C642.996 261.531 643.904 262.107 644.909 262.085C645.314 262.081 645.587 262.004 645.736 261.949L645.506 260.896C645.421 260.913 645.263 260.952 645.058 260.952C644.645 260.952 644.274 260.815 644.274 260.078V256.477H645.617V255.455ZM647.626 262H648.9V255.455H647.626V262ZM648.27 254.445C648.708 254.445 649.075 254.104 649.075 253.686C649.075 253.268 648.708 252.923 648.27 252.923C647.826 252.923 647.464 253.268 647.464 253.686C647.464 254.104 647.826 254.445 648.27 254.445ZM652.488 258.114C652.488 257.07 653.128 256.473 654.014 256.473C654.879 256.473 655.403 257.04 655.403 257.99V262H656.677V257.837C656.677 256.217 655.787 255.369 654.449 255.369C653.464 255.369 652.821 255.825 652.518 256.52H652.437V255.455H651.214V262H652.488V258.114ZM661.731 264.591C663.397 264.591 664.684 263.828 664.684 262.145V255.455H663.435V256.516H663.341C663.115 256.111 662.664 255.369 661.445 255.369C659.864 255.369 658.701 256.618 658.701 258.702C658.701 260.79 659.89 261.902 661.437 261.902C662.638 261.902 663.103 261.224 663.333 260.807H663.414V262.094C663.414 263.121 662.711 263.564 661.743 263.564C660.682 263.564 660.269 263.031 660.043 262.656L658.948 263.108C659.293 263.909 660.167 264.591 661.731 264.591ZM661.718 260.845C660.58 260.845 659.988 259.972 659.988 258.685C659.988 257.428 660.567 256.452 661.718 256.452C662.83 256.452 663.427 257.359 663.427 258.685C663.427 260.036 662.817 260.845 661.718 260.845ZM678.119 256.111C677.821 254.244 676.359 253.153 674.514 253.153C672.255 253.153 670.589 254.845 670.589 257.636C670.589 260.428 672.247 262.119 674.514 262.119C676.432 262.119 677.834 260.918 678.119 259.192L676.79 259.188C676.564 260.304 675.626 260.918 674.523 260.918C673.027 260.918 671.898 259.771 671.898 257.636C671.898 255.518 673.023 254.355 674.527 254.355C675.639 254.355 676.572 254.982 676.79 256.111H678.119ZM682.95 262.132C684.795 262.132 686.001 260.781 686.001 258.757C686.001 256.72 684.795 255.369 682.95 255.369C681.104 255.369 679.898 256.72 679.898 258.757C679.898 260.781 681.104 262.132 682.95 262.132ZM682.954 261.062C681.748 261.062 681.185 260.01 681.185 258.753C681.185 257.5 681.748 256.435 682.954 256.435C684.151 256.435 684.714 257.5 684.714 258.753C684.714 260.01 684.151 261.062 682.954 261.062ZM689.297 258.114C689.297 257.07 689.936 256.473 690.823 256.473C691.688 256.473 692.212 257.04 692.212 257.99V262H693.486V257.837C693.486 256.217 692.595 255.369 691.257 255.369C690.273 255.369 689.629 255.825 689.327 256.52H689.246V255.455H688.023V262H689.297V258.114ZM696.634 262.081C697.099 262.081 697.487 261.702 697.487 261.229C697.487 260.764 697.099 260.381 696.634 260.381C696.166 260.381 695.782 260.764 695.782 261.229C695.782 261.702 696.166 262.081 696.634 262.081ZM700.633 262.081C701.097 262.081 701.485 261.702 701.485 261.229C701.485 260.764 701.097 260.381 700.633 260.381C700.164 260.381 699.78 260.764 699.78 261.229C699.78 261.702 700.164 262.081 700.633 262.081ZM704.631 262.081C705.096 262.081 705.483 261.702 705.483 261.229C705.483 260.764 705.096 260.381 704.631 260.381C704.162 260.381 703.779 260.764 703.779 261.229C703.779 261.702 704.162 262.081 704.631 262.081Z" fill="#98A9C6"/>
<rect x="928" y="244" width="96" height="28" rx="14" fill="#EBF2FD"/>
<path d="M1014 254L1006 262" stroke="#98A9C6" stroke-width="1.5" stroke-linecap="round" stroke-linejoin="round"/>
<path d="M1014 262L1006 254" stroke="#98A9C6" stroke-width="1.5" stroke-linecap="round" stroke-linejoin="round"/>
<path d="M940.959 253.273V262H942.212V255.68H942.293L944.866 261.987H945.906L948.48 255.685H948.561V262H949.814V253.273H948.216L945.438 260.057H945.335L942.557 253.273H940.959ZM952.226 262H953.5V255.455H952.226V262ZM952.87 254.445C953.308 254.445 953.675 254.104 953.675 253.686C953.675 253.268 953.308 252.923 952.87 252.923C952.426 252.923 952.064 253.268 952.064 253.686C952.064 254.104 952.426 254.445 952.87 254.445ZM957.088 253.273H955.814V262H957.088V253.273ZM960.677 253.273H959.403V262H960.677V253.273ZM964.41 262H965.705L967.035 257.274H967.133L968.462 262H969.762L971.684 255.455H970.367L969.093 260.24H969.029L967.751 255.455H966.434L965.147 260.261H965.083L963.801 255.455H962.484L964.41 262ZM976.051 262.132C977.896 262.132 979.102 260.781 979.102 258.757C979.102 256.72 977.896 255.369 976.051 255.369C974.206 255.369 973 256.72 973 258.757C973 260.781 974.206 262.132 976.051 262.132ZM976.055 261.062C974.849 261.062 974.287 260.01 974.287 258.753C974.287 257.5 974.849 256.435 976.055 256.435C977.253 256.435 977.815 257.5 977.815 258.753C977.815 260.01 977.253 261.062 976.055 261.062ZM981.125 262H982.399V258.003C982.399 257.146 983.059 256.528 983.963 256.528C984.227 256.528 984.525 256.575 984.627 256.605V255.386C984.5 255.369 984.248 255.357 984.086 255.357C983.319 255.357 982.663 255.791 982.424 256.494H982.356V255.455H981.125V262ZM986.33 262H987.604V259.678L988.239 259.043L990.463 262H992.027L989.198 258.263L991.848 255.455H990.323L987.715 258.224H987.604V253.273H986.33V262Z" fill="#98A9C6"/>
<rect x="1056" y="244" width="84" height="28" rx="14" fill="#EBF2FD"/>
<path d="M1130 254L1122 262" stroke="#98A9C6" stroke-width="1.5" stroke-linecap="round" stroke-linejoin="round"/>
<path d="M1130 262L1122 254" stroke="#98A9C6" stroke-width="1.5" stroke-linecap="round" stroke-linejoin="round"/>
<path d="M1068.96 262H1070.28V258.697H1072.07C1072.1 258.697 1072.12 258.697 1072.15 258.697L1073.92 262H1075.42L1073.49 258.467C1074.56 258.071 1075.09 257.18 1075.09 256.009C1075.09 254.402 1074.09 253.273 1072.07 253.273H1068.96V262ZM1070.28 257.564V254.402H1071.93C1073.23 254.402 1073.77 255.02 1073.77 256.009C1073.77 256.993 1073.23 257.564 1071.95 257.564H1070.28ZM1079.93 262.132C1081.36 262.132 1082.37 261.429 1082.66 260.364L1081.45 260.146C1081.22 260.764 1080.67 261.08 1079.94 261.08C1078.85 261.08 1078.12 260.372 1078.08 259.111H1082.74V258.659C1082.74 256.294 1081.32 255.369 1079.84 255.369C1078.02 255.369 1076.81 256.759 1076.81 258.77C1076.81 260.803 1078 262.132 1079.93 262.132ZM1078.09 258.156C1078.14 257.227 1078.81 256.422 1079.85 256.422C1080.84 256.422 1081.49 257.155 1081.49 258.156H1078.09ZM1090.15 255.455H1088.78L1087.13 260.491H1087.06L1085.4 255.455H1084.04L1086.41 262H1087.78L1090.15 255.455ZM1092.38 262.081C1092.84 262.081 1093.23 261.702 1093.23 261.229C1093.23 260.764 1092.84 260.381 1092.38 260.381C1091.91 260.381 1091.53 260.764 1091.53 261.229C1091.53 261.702 1091.91 262.081 1092.38 262.081ZM1098.23 262.145C1100.25 262.145 1101.43 260.5 1101.43 257.641C1101.43 254.803 1100.23 253.153 1098.23 253.153C1096.23 253.153 1095.03 254.798 1095.03 257.641C1095.03 260.496 1096.21 262.141 1098.23 262.145ZM1098.23 261.007C1097.05 261.007 1096.34 259.822 1096.34 257.641C1096.34 255.467 1097.05 254.27 1098.23 254.27C1099.4 254.27 1100.12 255.467 1100.12 257.641C1100.12 259.822 1099.41 261.007 1098.23 261.007Z" fill="#98A9C6"/>
<path d="M1202.21 256.111C1201.91 254.244 1200.45 253.153 1198.6 253.153C1196.34 253.153 1194.68 254.845 1194.68 257.636C1194.68 260.428 1196.34 262.119 1198.6 262.119C1200.52 262.119 1201.92 260.918 1202.21 259.192L1200.88 259.188C1200.65 260.304 1199.71 260.918 1198.61 260.918C1197.12 260.918 1195.99 259.771 1195.99 257.636C1195.99 255.518 1197.11 254.355 1198.62 254.355C1199.73 254.355 1200.66 254.982 1200.88 256.111H1202.21ZM1205.55 253.273H1204.28V262H1205.55V253.273ZM1210.69 262.132C1212.12 262.132 1213.13 261.429 1213.42 260.364L1212.21 260.146C1211.98 260.764 1211.43 261.08 1210.7 261.08C1209.61 261.08 1208.88 260.372 1208.84 259.111H1213.5V258.659C1213.5 256.294 1212.08 255.369 1210.6 255.369C1208.78 255.369 1207.57 256.759 1207.57 258.77C1207.57 260.803 1208.76 262.132 1210.69 262.132ZM1208.85 258.156C1208.9 257.227 1209.57 256.422 1210.61 256.422C1211.6 256.422 1212.25 257.155 1212.25 258.156H1208.85ZM1217.42 262.145C1218.5 262.145 1219.11 261.595 1219.35 261.105H1219.4V262H1220.65V257.653C1220.65 255.749 1219.15 255.369 1218.11 255.369C1216.92 255.369 1215.83 255.847 1215.41 257.04L1216.6 257.312C1216.79 256.848 1217.27 256.401 1218.12 256.401C1218.95 256.401 1219.37 256.831 1219.37 257.572V257.602C1219.37 258.067 1218.89 258.058 1217.72 258.195C1216.48 258.339 1215.21 258.663 1215.21 260.151C1215.21 261.438 1216.17 262.145 1217.42 262.145ZM1217.69 261.122C1216.97 261.122 1216.45 260.798 1216.45 260.168C1216.45 259.486 1217.06 259.243 1217.8 259.145C1218.21 259.089 1219.19 258.979 1219.37 258.795V259.639C1219.37 260.415 1218.75 261.122 1217.69 261.122ZM1222.94 262H1224.22V258.003C1224.22 257.146 1224.88 256.528 1225.78 256.528C1226.05 256.528 1226.34 256.575 1226.45 256.605V255.386C1226.32 255.369 1226.07 255.357 1225.91 255.357C1225.14 255.357 1224.48 255.791 1224.24 256.494H1224.18V255.455H1222.94V262ZM1233.83 262.145C1234.91 262.145 1235.52 261.595 1235.76 261.105H1235.82V262H1237.06V257.653C1237.06 255.749 1235.56 255.369 1234.52 255.369C1233.34 255.369 1232.24 255.847 1231.82 257.04L1233.02 257.312C1233.2 256.848 1233.68 256.401 1234.54 256.401C1235.36 256.401 1235.78 256.831 1235.78 257.572V257.602C1235.78 258.067 1235.3 258.058 1234.13 258.195C1232.89 258.339 1231.62 258.663 1231.62 260.151C1231.62 261.438 1232.59 262.145 1233.83 262.145ZM1234.11 261.122C1233.39 261.122 1232.87 260.798 1232.87 260.168C1232.87 259.486 1233.47 259.243 1234.21 259.145C1234.62 259.089 1235.6 258.979 1235.79 258.795V259.639C1235.79 260.415 1235.17 261.122 1234.11 261.122ZM1240.63 253.273H1239.36V262H1240.63V253.273ZM1244.22 253.273H1242.95V262H1244.22V253.273Z" fill="#98A9C6"/>
<rect x="1588.5" y="172.5" width="216" height="47" stroke="#737AE1" stroke-dasharray="6 4"/>
<rect x="1402.5" y="232.5" width="402" height="47" stroke="#737AE1" stroke-dasharray="6 4"/>
<rect x="531.5" y="232.5" width="793" height="47" stroke="#737AE1" stroke-dasharray="6 4"/>
<path d="M660 102H1603V150H660V102Z" fill="#D0DDF3"/>
<path d="M824 102H1031V150H824V102Z" fill="#EAF2FF"/>
<path d="M1023 102H1230V150H1023V102Z" fill="#EAF2FF"/>
<path d="M1225 102H1419V150H1225V102Z" fill="#EAF2FF"/>
<path d="M1419 102H1603V150H1419V102Z" fill="#EAF2FF"/>
<rect x="401" width="1461" height="70" fill="#D0DDF3"/>
<path d="M737.827 133L739.162 129.151H744.844L746.172 133H748.501L743.267 118.455H740.732L735.497 133H737.827ZM739.801 127.304L741.946 121.097H742.06L744.205 127.304H739.801ZM752.555 118.455H750.431V133H752.555V118.455ZM757.536 118.455H755.412V133H757.536V118.455Z" fill="#596F96"/>
<path d="M874.233 125.727C874.233 121.075 871.449 118.256 867.685 118.256C863.906 118.256 861.129 121.075 861.129 125.727C861.129 130.372 863.906 133.199 867.685 133.199C871.449 133.199 874.233 130.379 874.233 125.727ZM872.06 125.727C872.06 129.271 870.185 131.196 867.685 131.196C865.178 131.196 863.31 129.271 863.31 125.727C863.31 122.183 865.178 120.259 867.685 120.259C870.185 120.259 872.06 122.183 872.06 125.727ZM886.131 122.091H883.851L881.096 130.486H880.982L878.219 122.091H875.939L879.902 133H882.175L886.131 122.091ZM892.438 133.22C894.817 133.22 896.5 132.048 896.983 130.273L894.973 129.911C894.59 130.94 893.667 131.466 892.459 131.466C890.641 131.466 889.419 130.287 889.363 128.185H897.118V127.432C897.118 123.49 894.76 121.949 892.289 121.949C889.249 121.949 887.246 124.264 887.246 127.616C887.246 131.004 889.221 133.22 892.438 133.22ZM889.37 126.594C889.455 125.045 890.577 123.703 892.303 123.703C893.951 123.703 895.03 124.925 895.037 126.594H889.37ZM899.474 133H901.598V126.338C901.598 124.911 902.699 123.881 904.205 123.881C904.645 123.881 905.142 123.959 905.312 124.009V121.977C905.099 121.949 904.68 121.928 904.411 121.928C903.132 121.928 902.038 122.652 901.641 123.824H901.527V122.091H899.474V133ZM910.843 133.213C912.832 133.213 913.613 131.999 913.997 131.303H914.174V133H916.248V118.455H914.125V123.859H913.997C913.613 123.185 912.889 121.949 910.858 121.949C908.223 121.949 906.284 124.03 906.284 127.567C906.284 131.097 908.194 133.213 910.843 133.213ZM911.312 131.402C909.416 131.402 908.429 129.733 908.429 127.545C908.429 125.379 909.395 123.753 911.312 123.753C913.166 123.753 914.16 125.266 914.16 127.545C914.16 129.839 913.145 131.402 911.312 131.402ZM926.19 128.476C926.197 130.33 924.819 131.21 923.626 131.21C922.312 131.21 921.403 130.259 921.403 128.774V122.091H919.279V129.03C919.279 131.736 920.763 133.142 922.859 133.142C924.499 133.142 925.614 132.276 926.119 131.111H926.232V133H928.32V122.091H926.19V128.476ZM935.875 133.22C938.255 133.22 939.938 132.048 940.421 130.273L938.411 129.911C938.027 130.94 937.104 131.466 935.897 131.466C934.078 131.466 932.857 130.287 932.8 128.185H940.556V127.432C940.556 123.49 938.198 121.949 935.726 121.949C932.686 121.949 930.684 124.264 930.684 127.616C930.684 131.004 932.658 133.22 935.875 133.22ZM932.807 126.594C932.892 125.045 934.015 123.703 935.74 123.703C937.388 123.703 938.468 124.925 938.475 126.594H932.807Z" fill="#596F96"/>
<path d="M1050.31 133C1054.74 133 1057.3 130.251 1057.3 125.706C1057.3 121.182 1054.74 118.455 1050.46 118.455H1045.6V133H1050.31ZM1047.79 131.082V120.372H1050.32C1053.5 120.372 1055.14 122.276 1055.14 125.706C1055.14 129.151 1053.5 131.082 1050.19 131.082H1047.79ZM1066.77 128.476C1066.78 130.33 1065.4 131.21 1064.21 131.21C1062.89 131.21 1061.98 130.259 1061.98 128.774V122.091H1059.86V129.03C1059.86 131.736 1061.35 133.142 1063.44 133.142C1065.08 133.142 1066.2 132.276 1066.7 131.111H1066.81V133H1068.9V122.091H1066.77V128.476ZM1076.46 133.22C1078.84 133.22 1080.52 132.048 1081 130.273L1078.99 129.911C1078.61 130.94 1077.69 131.466 1076.48 131.466C1074.66 131.466 1073.44 130.287 1073.38 128.185H1081.14V127.432C1081.14 123.49 1078.78 121.949 1076.31 121.949C1073.27 121.949 1071.27 124.264 1071.27 127.616C1071.27 131.004 1073.24 133.22 1076.46 133.22ZM1073.39 126.594C1073.47 125.045 1074.6 123.703 1076.32 123.703C1077.97 123.703 1079.05 124.925 1079.06 126.594H1073.39ZM1096.89 122.276H1099.01C1098.94 119.946 1096.88 118.256 1093.93 118.256C1091.01 118.256 1088.77 119.925 1088.77 122.432C1088.77 124.456 1090.22 125.642 1092.56 126.274L1094.28 126.743C1095.83 127.155 1097.03 127.666 1097.03 128.959C1097.03 130.379 1095.68 131.317 1093.81 131.317C1092.12 131.317 1090.71 130.564 1090.58 128.98H1088.38C1088.52 131.615 1090.56 133.241 1093.82 133.241C1097.24 133.241 1099.21 131.445 1099.21 128.98C1099.21 126.359 1096.87 125.344 1095.02 124.889L1093.6 124.52C1092.47 124.229 1090.95 123.696 1090.96 122.304C1090.96 121.068 1092.09 120.152 1093.88 120.152C1095.55 120.152 1096.73 120.933 1096.89 122.276ZM1106.25 133.22C1109.33 133.22 1111.34 130.969 1111.34 127.595C1111.34 124.2 1109.33 121.949 1106.25 121.949C1103.18 121.949 1101.17 124.2 1101.17 127.595C1101.17 130.969 1103.18 133.22 1106.25 133.22ZM1106.26 131.438C1104.25 131.438 1103.31 129.683 1103.31 127.588C1103.31 125.5 1104.25 123.724 1106.26 123.724C1108.26 123.724 1109.19 125.5 1109.19 127.588C1109.19 129.683 1108.26 131.438 1106.26 131.438ZM1118.3 133.22C1121.38 133.22 1123.39 130.969 1123.39 127.595C1123.39 124.2 1121.38 121.949 1118.3 121.949C1115.23 121.949 1113.22 124.2 1113.22 127.595C1113.22 130.969 1115.23 133.22 1118.3 133.22ZM1118.31 131.438C1116.3 131.438 1115.36 129.683 1115.36 127.588C1115.36 125.5 1116.3 123.724 1118.31 123.724C1120.31 123.724 1121.24 125.5 1121.24 127.588C1121.24 129.683 1120.31 131.438 1118.31 131.438ZM1127.88 126.523C1127.88 124.783 1128.95 123.788 1130.43 123.788C1131.87 123.788 1132.74 124.733 1132.74 126.317V133H1134.86V126.061C1134.86 123.362 1133.38 121.949 1131.15 121.949C1129.51 121.949 1128.44 122.709 1127.93 123.866H1127.8V122.091H1125.76V133H1127.88V126.523Z" fill="#596F96"/>
<path d="M1249.95 118.455V127.844C1249.95 129.818 1248.59 131.239 1246.37 131.239C1244.16 131.239 1242.79 129.818 1242.79 127.844V118.455H1240.6V128.021C1240.6 131.075 1242.88 133.241 1246.37 133.241C1249.86 133.241 1252.15 131.075 1252.15 128.021V118.455H1249.95ZM1257.3 126.523C1257.3 124.783 1258.36 123.788 1259.84 123.788C1261.28 123.788 1262.16 124.733 1262.16 126.317V133H1264.28V126.061C1264.28 123.362 1262.79 121.949 1260.56 121.949C1258.92 121.949 1257.85 122.709 1257.35 123.866H1257.21V122.091H1255.17V133H1257.3V126.523ZM1271.21 133.213C1273.2 133.213 1273.98 131.999 1274.36 131.303H1274.54V133H1276.62V118.455H1274.49V123.859H1274.36C1273.98 123.185 1273.26 121.949 1271.22 121.949C1268.59 121.949 1266.65 124.03 1266.65 127.567C1266.65 131.097 1268.56 133.213 1271.21 133.213ZM1271.68 131.402C1269.78 131.402 1268.8 129.733 1268.8 127.545C1268.8 125.379 1269.76 123.753 1271.68 123.753C1273.53 123.753 1274.53 125.266 1274.53 127.545C1274.53 129.839 1273.51 131.402 1271.68 131.402ZM1284.35 133.22C1286.73 133.22 1288.41 132.048 1288.89 130.273L1286.88 129.911C1286.5 130.94 1285.58 131.466 1284.37 131.466C1282.55 131.466 1281.33 130.287 1281.27 128.185H1289.03V127.432C1289.03 123.49 1286.67 121.949 1284.2 121.949C1281.16 121.949 1279.16 124.264 1279.16 127.616C1279.16 131.004 1281.13 133.22 1284.35 133.22ZM1281.28 126.594C1281.37 125.045 1282.49 123.703 1284.21 123.703C1285.86 123.703 1286.94 124.925 1286.95 126.594H1281.28ZM1291.38 133H1293.51V126.338C1293.51 124.911 1294.61 123.881 1296.11 123.881C1296.56 123.881 1297.05 123.959 1297.22 124.009V121.977C1297.01 121.949 1296.59 121.928 1296.32 121.928C1295.04 121.928 1293.95 122.652 1293.55 123.824H1293.44V122.091H1291.38V133ZM1304.52 133H1306.72V127.496H1309.7C1309.75 127.496 1309.79 127.496 1309.84 127.496L1312.8 133H1315.3L1312.07 127.112C1313.86 126.452 1314.74 124.967 1314.74 123.014C1314.74 120.337 1313.08 118.455 1309.71 118.455H1304.52V133ZM1306.72 125.607V120.337H1309.47C1311.64 120.337 1312.54 121.366 1312.54 123.014C1312.54 124.655 1311.64 125.607 1309.5 125.607H1306.72ZM1321.81 133.22C1324.19 133.22 1325.87 132.048 1326.35 130.273L1324.34 129.911C1323.96 130.94 1323.04 131.466 1321.83 131.466C1320.01 131.466 1318.79 130.287 1318.73 128.185H1326.49V127.432C1326.49 123.49 1324.13 121.949 1321.66 121.949C1318.62 121.949 1316.62 124.264 1316.62 127.616C1316.62 131.004 1318.59 133.22 1321.81 133.22ZM1318.74 126.594C1318.83 125.045 1319.95 123.703 1321.67 123.703C1323.32 123.703 1324.4 124.925 1324.41 126.594H1318.74ZM1337.85 122.091H1335.57L1332.81 130.486H1332.7L1329.93 122.091H1327.65L1331.62 133H1333.89L1337.85 122.091ZM1339.84 133H1341.97V122.091H1339.84V133ZM1340.91 120.408C1341.65 120.408 1342.26 119.839 1342.26 119.143C1342.26 118.447 1341.65 117.872 1340.91 117.872C1340.18 117.872 1339.57 118.447 1339.57 119.143C1339.57 119.839 1340.18 120.408 1340.91 120.408ZM1349.52 133.22C1351.9 133.22 1353.59 132.048 1354.07 130.273L1352.06 129.911C1351.68 130.94 1350.75 131.466 1349.55 131.466C1347.73 131.466 1346.51 130.287 1346.45 128.185H1354.2V127.432C1354.2 123.49 1351.85 121.949 1349.37 121.949C1346.33 121.949 1344.33 124.264 1344.33 127.616C1344.33 131.004 1346.31 133.22 1349.52 133.22ZM1346.46 126.594C1346.54 125.045 1347.66 123.703 1349.39 123.703C1351.04 123.703 1352.12 124.925 1352.12 126.594H1346.46ZM1358.91 133H1361.06L1363.28 125.124H1363.44L1365.66 133H1367.83L1371.03 122.091H1368.83L1366.71 130.067H1366.6L1364.47 122.091H1362.28L1360.13 130.102H1360.03L1357.89 122.091H1355.7L1358.91 133Z" fill="#596F96"/>
<path d="M1487.34 118.455H1485.16V129.136H1485.03L1477.63 118.455H1475.6V133H1477.79V122.332H1477.93L1485.32 133H1487.34V118.455ZM1495.07 133.22C1497.45 133.22 1499.13 132.048 1499.62 130.273L1497.61 129.911C1497.22 130.94 1496.3 131.466 1495.09 131.466C1493.27 131.466 1492.05 130.287 1492 128.185H1499.75V127.432C1499.75 123.49 1497.39 121.949 1494.92 121.949C1491.88 121.949 1489.88 124.264 1489.88 127.616C1489.88 131.004 1491.85 133.22 1495.07 133.22ZM1492 126.594C1492.09 125.045 1493.21 123.703 1494.94 123.703C1496.58 123.703 1497.66 124.925 1497.67 126.594H1492ZM1504.45 133H1506.61L1508.83 125.124H1508.99L1511.21 133H1513.37L1516.58 122.091H1514.38L1512.26 130.067H1512.15L1510.02 122.091H1507.83L1505.68 130.102H1505.57L1503.44 122.091H1501.24L1504.45 133ZM1523.88 133H1526.01V122.091H1523.88V133ZM1524.96 120.408C1525.69 120.408 1526.3 119.839 1526.3 119.143C1526.3 118.447 1525.69 117.872 1524.96 117.872C1524.22 117.872 1523.61 118.447 1523.61 119.143C1523.61 119.839 1524.22 120.408 1524.96 120.408ZM1530.99 126.523C1530.99 124.783 1532.05 123.788 1533.53 123.788C1534.97 123.788 1535.85 124.733 1535.85 126.317V133H1537.97V126.061C1537.97 123.362 1536.49 121.949 1534.26 121.949C1532.62 121.949 1531.54 122.709 1531.04 123.866H1530.9V122.091H1528.87V133H1530.99V126.523Z" fill="#596F96"/>
</g>
<path d="M1804 198L1938 198" stroke="#737AE1"/>
<path d="M1604 128L1938 128" stroke="#737AE1"/>
<path d="M340 197L539 197" stroke="#737AE1"/>
<path d="M340 258L531 258" stroke="#737AE1"/>
<path d="M1804 258L1938 258" stroke="#737AE1"/>
<path d="M1804 607L1938 607" stroke="#737AE1"/>
<path d="M1993.43 192.545H1989.85V188.364H1986.45V192.545H1983.9V195.273H1986.45V205.58C1986.44 208.75 1988.86 210.284 1991.55 210.227C1992.62 210.216 1993.35 210.011 1993.75 209.864L1993.14 207.057C1992.91 207.102 1992.49 207.205 1991.94 207.205C1990.84 207.205 1989.85 206.841 1989.85 204.875V195.273H1993.43V192.545ZM2002.27 210.386C2005.16 210.386 2006.78 208.92 2007.43 207.614H2007.57V210H2010.88V198.409C2010.88 193.33 2006.88 192.318 2004.11 192.318C2000.95 192.318 1998.04 193.591 1996.91 196.773L2000.1 197.5C2000.6 196.261 2001.87 195.068 2004.16 195.068C2006.35 195.068 2007.47 196.216 2007.47 198.193V198.273C2007.47 199.511 2006.2 199.489 2003.07 199.852C1999.76 200.239 1996.37 201.102 1996.37 205.068C1996.37 208.5 1998.95 210.386 2002.27 210.386ZM2003.01 207.659C2001.09 207.659 1999.7 206.795 1999.7 205.114C1999.7 203.295 2001.32 202.648 2003.28 202.386C2004.38 202.239 2007 201.943 2007.49 201.455V203.705C2007.49 205.773 2005.84 207.659 2003.01 207.659ZM2015.68 210H2019V207.284H2019.28C2019.9 208.398 2021.15 210.341 2024.33 210.341C2028.56 210.341 2031.62 206.955 2031.62 201.307C2031.62 195.648 2028.51 192.318 2024.3 192.318C2021.06 192.318 2019.89 194.295 2019.28 195.375H2019.08V186.727H2015.68V210ZM2019.01 201.273C2019.01 197.625 2020.6 195.205 2023.57 195.205C2026.65 195.205 2028.19 197.807 2028.19 201.273C2028.19 204.773 2026.6 207.443 2023.57 207.443C2020.65 207.443 2019.01 204.943 2019.01 201.273ZM2038.84 186.727H2035.44V210H2038.84V186.727ZM2050.93 210.352C2054.74 210.352 2057.43 208.477 2058.2 205.636L2054.99 205.057C2054.38 206.705 2052.9 207.545 2050.97 207.545C2048.06 207.545 2046.1 205.659 2046.01 202.295H2058.42V201.091C2058.42 194.784 2054.65 192.318 2050.69 192.318C2045.83 192.318 2042.62 196.023 2042.62 201.386C2042.62 206.807 2045.78 210.352 2050.93 210.352ZM2046.02 199.75C2046.16 197.273 2047.95 195.125 2050.72 195.125C2053.35 195.125 2055.08 197.08 2055.09 199.75H2046.02ZM2078.01 210.352C2082.14 210.352 2084.81 207.875 2085.18 204.477H2081.88C2081.44 206.364 2079.98 207.477 2078.03 207.477C2075.16 207.477 2073.31 205.08 2073.31 201.273C2073.31 197.534 2075.19 195.182 2078.03 195.182C2080.19 195.182 2081.51 196.545 2081.88 198.182H2085.18C2084.82 194.659 2081.94 192.318 2077.98 192.318C2073.06 192.318 2069.88 196.023 2069.88 201.352C2069.88 206.614 2072.94 210.352 2078.01 210.352ZM2096.17 210.352C2101.09 210.352 2104.3 206.75 2104.3 201.352C2104.3 195.92 2101.09 192.318 2096.17 192.318C2091.25 192.318 2088.03 195.92 2088.03 201.352C2088.03 206.75 2091.25 210.352 2096.17 210.352ZM2096.18 207.5C2092.96 207.5 2091.46 204.693 2091.46 201.341C2091.46 198 2092.96 195.159 2096.18 195.159C2099.37 195.159 2100.87 198 2100.87 201.341C2100.87 204.693 2099.37 207.5 2096.18 207.5ZM2111.49 199.636C2111.49 196.852 2113.2 195.261 2115.56 195.261C2117.87 195.261 2119.27 196.773 2119.27 199.307V210H2122.66V198.898C2122.66 194.58 2120.29 192.318 2116.72 192.318C2114.1 192.318 2112.38 193.534 2111.57 195.386H2111.36V192.545H2108.1V210H2111.49V199.636ZM2135.37 192.545H2131.79V188.364H2128.39V192.545H2125.84V195.273H2128.39V205.58C2128.38 208.75 2130.8 210.284 2133.48 210.227C2134.56 210.216 2135.29 210.011 2135.69 209.864L2135.07 207.057C2134.85 207.102 2134.43 207.205 2133.88 207.205C2132.78 207.205 2131.79 206.841 2131.79 204.875V195.273H2135.37V192.545ZM2139.13 210H2142.53V199.341C2142.53 197.057 2144.29 195.409 2146.7 195.409C2147.4 195.409 2148.2 195.534 2148.47 195.614V192.364C2148.13 192.318 2147.46 192.284 2147.03 192.284C2144.98 192.284 2143.23 193.443 2142.59 195.318H2142.41V192.545H2139.13V210ZM2158.14 210.352C2163.06 210.352 2166.27 206.75 2166.27 201.352C2166.27 195.92 2163.06 192.318 2158.14 192.318C2153.22 192.318 2150 195.92 2150 201.352C2150 206.75 2153.22 210.352 2158.14 210.352ZM2158.15 207.5C2154.93 207.5 2153.43 204.693 2153.43 201.341C2153.43 198 2154.93 195.159 2158.15 195.159C2161.34 195.159 2162.84 198 2162.84 201.341C2162.84 204.693 2161.34 207.5 2158.15 207.5ZM2173.46 186.727H2170.07V210H2173.46V186.727ZM2180.27 197.511C2181.51 197.511 2182.55 196.5 2182.55 195.239C2182.55 194 2181.51 192.977 2180.27 192.977C2179.02 192.977 2178 194 2178 195.239C2178 196.5 2179.02 197.511 2180.27 197.511ZM2180.27 210.216C2181.51 210.216 2182.55 209.205 2182.55 207.943C2182.55 206.705 2181.51 205.682 2180.27 205.682C2179.02 205.682 2178 206.705 2178 207.943C2178 209.205 2179.02 210.216 2180.27 210.216ZM2195.57 210H2198.96V199.341C2198.96 197.057 2200.72 195.409 2203.13 195.409C2203.84 195.409 2204.63 195.534 2204.91 195.614V192.364C2204.57 192.318 2203.89 192.284 2203.46 192.284C2201.42 192.284 2199.67 193.443 2199.03 195.318H2198.85V192.545H2195.57V210ZM2214.74 210.352C2218.55 210.352 2221.24 208.477 2222.02 205.636L2218.8 205.057C2218.19 206.705 2216.71 207.545 2214.78 207.545C2211.87 207.545 2209.91 205.659 2209.82 202.295H2222.23V201.091C2222.23 194.784 2218.46 192.318 2214.51 192.318C2209.64 192.318 2206.44 196.023 2206.44 201.386C2206.44 206.807 2209.6 210.352 2214.74 210.352ZM2209.84 199.75C2209.97 197.273 2211.77 195.125 2214.53 195.125C2217.16 195.125 2218.89 197.08 2218.9 199.75H2209.84ZM2234.31 192.545H2230.55V190.977C2230.55 189.432 2231.18 188.591 2232.84 188.591C2233.55 188.591 2234.05 188.75 2234.37 188.852L2235.16 186.102C2234.68 185.92 2233.7 185.636 2232.32 185.636C2229.56 185.636 2227.14 187.25 2227.14 190.523V192.545H2224.45V195.273H2227.14V210H2230.55V195.273H2234.31V192.545ZM2237.82 210H2241.21V199.341C2241.21 197.057 2242.97 195.409 2245.38 195.409C2246.09 195.409 2246.88 195.534 2247.16 195.614V192.364C2246.82 192.318 2246.14 192.284 2245.71 192.284C2243.67 192.284 2241.92 193.443 2241.28 195.318H2241.1V192.545H2237.82V210ZM2256.99 210.352C2260.8 210.352 2263.49 208.477 2264.27 205.636L2261.05 205.057C2260.44 206.705 2258.96 207.545 2257.03 207.545C2254.12 207.545 2252.16 205.659 2252.07 202.295H2264.48V201.091C2264.48 194.784 2260.71 192.318 2256.76 192.318C2251.89 192.318 2248.69 196.023 2248.69 201.386C2248.69 206.807 2251.85 210.352 2256.99 210.352ZM2252.09 199.75C2252.22 197.273 2254.02 195.125 2256.78 195.125C2259.41 195.125 2261.14 197.08 2261.15 199.75H2252.09ZM2281.33 196.807C2280.63 194.091 2278.5 192.318 2274.73 192.318C2270.79 192.318 2267.99 194.398 2267.99 197.489C2267.99 199.966 2269.49 201.614 2272.76 202.341L2275.72 202.989C2277.4 203.364 2278.18 204.114 2278.18 205.205C2278.18 206.557 2276.74 207.614 2274.51 207.614C2272.48 207.614 2271.17 206.739 2270.76 205.023L2267.48 205.523C2268.05 208.614 2270.62 210.352 2274.54 210.352C2278.75 210.352 2281.67 208.114 2281.67 204.955C2281.67 202.489 2280.11 200.966 2276.9 200.227L2274.13 199.591C2272.21 199.136 2271.38 198.489 2271.39 197.307C2271.38 195.966 2272.83 195.011 2274.76 195.011C2276.88 195.011 2277.86 196.182 2278.25 197.352L2281.33 196.807ZM2288.81 199.636C2288.81 196.852 2290.57 195.261 2292.99 195.261C2295.33 195.261 2296.73 196.75 2296.73 199.307V210H2300.12V198.898C2300.12 194.545 2297.74 192.318 2294.15 192.318C2291.43 192.318 2289.8 193.5 2288.98 195.386H2288.76V186.727H2285.41V210H2288.81V199.636ZM2309.08 206.818H2305.81L2305.69 208.091C2305.43 211.17 2304.7 214.273 2304.4 215.682H2306.81C2307.35 214.193 2308.56 210.784 2308.91 208.057L2309.08 206.818ZM2329.49 210.352C2333.3 210.352 2335.99 208.477 2336.77 205.636L2333.55 205.057C2332.94 206.705 2331.46 207.545 2329.53 207.545C2326.62 207.545 2324.66 205.659 2324.57 202.295H2336.98V201.091C2336.98 194.784 2333.21 192.318 2329.26 192.318C2324.39 192.318 2321.19 196.023 2321.19 201.386C2321.19 206.807 2324.35 210.352 2329.49 210.352ZM2324.59 199.75C2324.72 197.273 2326.52 195.125 2329.28 195.125C2331.91 195.125 2333.64 197.08 2333.65 199.75H2324.59ZM2343.03 192.545H2339.3L2344.66 201.273L2339.23 210H2342.96L2346.88 203.477L2350.81 210H2354.53L2349.04 201.273L2354.48 192.545H2350.77L2346.88 199.341L2343.03 192.545ZM2357.97 216.545H2361.37V207.284H2361.57C2362.19 208.398 2363.44 210.341 2366.62 210.341C2370.85 210.341 2373.91 206.955 2373.91 201.307C2373.91 195.648 2370.8 192.318 2366.59 192.318C2363.35 192.318 2362.18 194.295 2361.57 195.375H2361.29V192.545H2357.97V216.545ZM2361.3 201.273C2361.3 197.625 2362.89 195.205 2365.86 195.205C2368.94 195.205 2370.48 197.807 2370.48 201.273C2370.48 204.773 2368.89 207.443 2365.86 207.443C2362.94 207.443 2361.3 204.943 2361.3 201.273ZM2385.07 210.352C2389.99 210.352 2393.21 206.75 2393.21 201.352C2393.21 195.92 2389.99 192.318 2385.07 192.318C2380.15 192.318 2376.94 195.92 2376.94 201.352C2376.94 206.75 2380.15 210.352 2385.07 210.352ZM2385.09 207.5C2381.87 207.5 2380.37 204.693 2380.37 201.341C2380.37 198 2381.87 195.159 2385.09 195.159C2388.28 195.159 2389.78 198 2389.78 201.341C2389.78 204.693 2388.28 207.5 2385.09 207.5ZM2397 210H2400.4V199.341C2400.4 197.057 2402.16 195.409 2404.57 195.409C2405.28 195.409 2406.07 195.534 2406.34 195.614V192.364C2406 192.318 2405.33 192.284 2404.9 192.284C2402.86 192.284 2401.11 193.443 2400.47 195.318H2400.29V192.545H2397V210ZM2418.46 192.545H2414.88V188.364H2411.49V192.545H2408.93V195.273H2411.49V205.58C2411.47 208.75 2413.89 210.284 2416.58 210.227C2417.66 210.216 2418.38 210.011 2418.78 209.864L2418.17 207.057C2417.94 207.102 2417.52 207.205 2416.97 207.205C2415.87 207.205 2414.88 206.841 2414.88 204.875V195.273H2418.46V192.545Z" fill="#737AE1"/>
<path d="M1993.43 122.545H1989.85V118.364H1986.45V122.545H1983.9V125.273H1986.45V135.58C1986.44 138.75 1988.86 140.284 1991.55 140.227C1992.62 140.216 1993.35 140.011 1993.75 139.864L1993.14 137.057C1992.91 137.102 1992.49 137.205 1991.94 137.205C1990.84 137.205 1989.85 136.841 1989.85 134.875V125.273H1993.43V122.545ZM2002.27 140.386C2005.16 140.386 2006.78 138.92 2007.43 137.614H2007.57V140H2010.88V128.409C2010.88 123.33 2006.88 122.318 2004.11 122.318C2000.95 122.318 1998.04 123.591 1996.91 126.773L2000.1 127.5C2000.6 126.261 2001.87 125.068 2004.16 125.068C2006.35 125.068 2007.47 126.216 2007.47 128.193V128.273C2007.47 129.511 2006.2 129.489 2003.07 129.852C1999.76 130.239 1996.37 131.102 1996.37 135.068C1996.37 138.5 1998.95 140.386 2002.27 140.386ZM2003.01 137.659C2001.09 137.659 1999.7 136.795 1999.7 135.114C1999.7 133.295 2001.32 132.648 2003.28 132.386C2004.38 132.239 2007 131.943 2007.49 131.455V133.705C2007.49 135.773 2005.84 137.659 2003.01 137.659ZM2015.68 140H2019V137.284H2019.28C2019.9 138.398 2021.15 140.341 2024.33 140.341C2028.56 140.341 2031.62 136.955 2031.62 131.307C2031.62 125.648 2028.51 122.318 2024.3 122.318C2021.06 122.318 2019.89 124.295 2019.28 125.375H2019.08V116.727H2015.68V140ZM2019.01 131.273C2019.01 127.625 2020.6 125.205 2023.57 125.205C2026.65 125.205 2028.19 127.807 2028.19 131.273C2028.19 134.773 2026.6 137.443 2023.57 137.443C2020.65 137.443 2019.01 134.943 2019.01 131.273ZM2048.52 126.807C2047.82 124.091 2045.69 122.318 2041.92 122.318C2037.97 122.318 2035.18 124.398 2035.18 127.489C2035.18 129.966 2036.68 131.614 2039.95 132.341L2042.91 132.989C2044.59 133.364 2045.37 134.114 2045.37 135.205C2045.37 136.557 2043.93 137.614 2041.7 137.614C2039.67 137.614 2038.36 136.739 2037.95 135.023L2034.67 135.523C2035.24 138.614 2037.8 140.352 2041.72 140.352C2045.94 140.352 2048.86 138.114 2048.86 134.955C2048.86 132.489 2047.29 130.966 2044.09 130.227L2041.32 129.591C2039.39 129.136 2038.57 128.489 2038.58 127.307C2038.57 125.966 2040.02 125.011 2041.95 125.011C2044.07 125.011 2045.04 126.182 2045.44 127.352L2048.52 126.807Z" fill="#737AE1"/>
<path d="M155.364 195.807C154.659 193.091 152.534 191.318 148.761 191.318C144.818 191.318 142.023 193.398 142.023 196.489C142.023 198.966 143.523 200.614 146.795 201.341L149.75 201.989C151.432 202.364 152.216 203.114 152.216 204.205C152.216 205.557 150.773 206.614 148.545 206.614C146.511 206.614 145.205 205.739 144.795 204.023L141.511 204.523C142.08 207.614 144.648 209.352 148.568 209.352C152.784 209.352 155.705 207.114 155.705 203.955C155.705 201.489 154.136 199.966 150.932 199.227L148.159 198.591C146.239 198.136 145.409 197.489 145.42 196.307C145.409 194.966 146.864 194.011 148.795 194.011C150.909 194.011 151.886 195.182 152.284 196.352L155.364 195.807ZM166.963 209.352C170.77 209.352 173.463 207.477 174.236 204.636L171.02 204.057C170.406 205.705 168.929 206.545 166.997 206.545C164.088 206.545 162.134 204.659 162.043 201.295H174.452V200.091C174.452 193.784 170.679 191.318 166.724 191.318C161.861 191.318 158.656 195.023 158.656 200.386C158.656 205.807 161.815 209.352 166.963 209.352ZM162.054 198.75C162.19 196.273 163.986 194.125 166.747 194.125C169.384 194.125 171.111 196.08 171.122 198.75H162.054ZM183.301 209.386C186.188 209.386 187.812 207.92 188.46 206.614H188.597V209H191.915V197.409C191.915 192.33 187.915 191.318 185.142 191.318C181.983 191.318 179.074 192.591 177.938 195.773L181.131 196.5C181.631 195.261 182.903 194.068 185.188 194.068C187.381 194.068 188.506 195.216 188.506 197.193V197.273C188.506 198.511 187.233 198.489 184.097 198.852C180.79 199.239 177.403 200.102 177.403 204.068C177.403 207.5 179.983 209.386 183.301 209.386ZM184.04 206.659C182.119 206.659 180.733 205.795 180.733 204.114C180.733 202.295 182.347 201.648 184.312 201.386C185.415 201.239 188.028 200.943 188.517 200.455V202.705C188.517 204.773 186.869 206.659 184.04 206.659ZM196.44 209H199.838V198.341C199.838 196.057 201.599 194.409 204.009 194.409C204.713 194.409 205.509 194.534 205.781 194.614V191.364C205.44 191.318 204.77 191.284 204.338 191.284C202.293 191.284 200.543 192.443 199.906 194.318H199.724V191.545H196.44V209ZM215.449 209.352C219.574 209.352 222.244 206.875 222.619 203.477H219.312C218.881 205.364 217.415 206.477 215.472 206.477C212.597 206.477 210.744 204.08 210.744 200.273C210.744 196.534 212.631 194.182 215.472 194.182C217.631 194.182 218.949 195.545 219.312 197.182H222.619C222.256 193.659 219.381 191.318 215.415 191.318C210.494 191.318 207.312 195.023 207.312 200.352C207.312 205.614 210.381 209.352 215.449 209.352ZM229.651 198.636C229.651 195.852 231.412 194.261 233.832 194.261C236.173 194.261 237.571 195.75 237.571 198.307V209H240.969V197.898C240.969 193.545 238.582 191.318 234.991 191.318C232.276 191.318 230.639 192.5 229.821 194.386H229.605V185.727H226.253V209H229.651V198.636ZM262.278 191.545H258.517V189.977C258.517 188.432 259.153 187.591 260.812 187.591C261.517 187.591 262.017 187.75 262.335 187.852L263.131 185.102C262.653 184.92 261.665 184.636 260.29 184.636C257.528 184.636 255.108 186.25 255.108 189.523V191.545H252.415V194.273H255.108V209H258.517V194.273H262.278V191.545ZM265.784 209H269.182V191.545H265.784V209ZM267.5 188.852C268.67 188.852 269.648 187.943 269.648 186.83C269.648 185.716 268.67 184.795 267.5 184.795C266.318 184.795 265.352 185.716 265.352 186.83C265.352 187.943 266.318 188.852 267.5 188.852ZM281.276 209.352C285.082 209.352 287.776 207.477 288.548 204.636L285.332 204.057C284.719 205.705 283.241 206.545 281.31 206.545C278.401 206.545 276.446 204.659 276.355 201.295H288.764V200.091C288.764 193.784 284.991 191.318 281.037 191.318C276.173 191.318 272.969 195.023 272.969 200.386C272.969 205.807 276.128 209.352 281.276 209.352ZM276.366 198.75C276.503 196.273 278.298 194.125 281.06 194.125C283.696 194.125 285.423 196.08 285.435 198.75H276.366ZM295.932 185.727H292.534V209H295.932V185.727ZM307.037 209.341C310.219 209.341 311.469 207.398 312.082 206.284H312.366V209H315.685V185.727H312.287V194.375H312.082C311.469 193.295 310.31 191.318 307.06 191.318C302.844 191.318 299.741 194.648 299.741 200.307C299.741 205.955 302.798 209.341 307.037 209.341ZM307.787 206.443C304.753 206.443 303.173 203.773 303.173 200.273C303.173 196.807 304.719 194.205 307.787 194.205C310.753 194.205 312.344 196.625 312.344 200.273C312.344 203.943 310.719 206.443 307.787 206.443Z" fill="#737AE1"/>
<path d="M42.5909 252.545H38.8295V250.977C38.8295 249.432 39.4659 248.591 41.125 248.591C41.8295 248.591 42.3295 248.75 42.6477 248.852L43.4432 246.102C42.9659 245.92 41.9773 245.636 40.6023 245.636C37.8409 245.636 35.4205 247.25 35.4205 250.523V252.545H32.7273V255.273H35.4205V270H38.8295V255.273H42.5909V252.545ZM46.0966 270H49.4943V252.545H46.0966V270ZM47.8125 249.852C48.983 249.852 49.9602 248.943 49.9602 247.83C49.9602 246.716 48.983 245.795 47.8125 245.795C46.6307 245.795 45.6648 246.716 45.6648 247.83C45.6648 248.943 46.6307 249.852 47.8125 249.852ZM57.4631 246.727H54.0653V270H57.4631V246.727ZM70.1818 252.545H66.6023V248.364H63.2045V252.545H60.6477V255.273H63.2045V265.58C63.1932 268.75 65.6136 270.284 68.2955 270.227C69.375 270.216 70.1023 270.011 70.5 269.864L69.8864 267.057C69.6591 267.102 69.2386 267.205 68.6932 267.205C67.5909 267.205 66.6023 266.841 66.6023 264.875V255.273H70.1818V252.545ZM81.2756 270.352C85.0824 270.352 87.7756 268.477 88.5483 265.636L85.3324 265.057C84.7188 266.705 83.2415 267.545 81.3097 267.545C78.4006 267.545 76.446 265.659 76.3551 262.295H88.7642V261.091C88.7642 254.784 84.9915 252.318 81.0369 252.318C76.1733 252.318 72.9688 256.023 72.9688 261.386C72.9688 266.807 76.1278 270.352 81.2756 270.352ZM76.3665 259.75C76.5028 257.273 78.2983 255.125 81.0597 255.125C83.696 255.125 85.4233 257.08 85.4347 259.75H76.3665ZM92.5341 270H95.9318V259.341C95.9318 257.057 97.6932 255.409 100.102 255.409C100.807 255.409 101.602 255.534 101.875 255.614V252.364C101.534 252.318 100.864 252.284 100.432 252.284C98.3864 252.284 96.6364 253.443 96 255.318H95.8182V252.545H92.5341V270ZM117.895 256.807C117.19 254.091 115.065 252.318 111.293 252.318C107.349 252.318 104.554 254.398 104.554 257.489C104.554 259.966 106.054 261.614 109.327 262.341L112.281 262.989C113.963 263.364 114.747 264.114 114.747 265.205C114.747 266.557 113.304 267.614 111.077 267.614C109.043 267.614 107.736 266.739 107.327 265.023L104.043 265.523C104.611 268.614 107.179 270.352 111.099 270.352C115.315 270.352 118.236 268.114 118.236 264.955C118.236 262.489 116.668 260.966 113.463 260.227L110.69 259.591C108.77 259.136 107.94 258.489 107.952 257.307C107.94 255.966 109.395 255.011 111.327 255.011C113.44 255.011 114.418 256.182 114.815 257.352L117.895 256.807ZM131.429 260.341C131.429 266.045 132.952 270.795 135.838 274.841H138.952C136.713 271.841 134.952 265.75 134.952 260.341C134.952 254.943 136.713 248.852 138.952 245.852H135.838C132.952 249.898 131.429 254.648 131.429 260.341ZM149.605 270.352C153.73 270.352 156.401 267.875 156.776 264.477H153.469C153.037 266.364 151.571 267.477 149.628 267.477C146.753 267.477 144.901 265.08 144.901 261.273C144.901 257.534 146.787 255.182 149.628 255.182C151.787 255.182 153.105 256.545 153.469 258.182H156.776C156.412 254.659 153.537 252.318 149.571 252.318C144.651 252.318 141.469 256.023 141.469 261.352C141.469 266.614 144.537 270.352 149.605 270.352ZM167.761 270.352C172.682 270.352 175.898 266.75 175.898 261.352C175.898 255.92 172.682 252.318 167.761 252.318C162.841 252.318 159.625 255.92 159.625 261.352C159.625 266.75 162.841 270.352 167.761 270.352ZM167.773 267.5C164.557 267.5 163.057 264.693 163.057 261.341C163.057 258 164.557 255.159 167.773 255.159C170.966 255.159 172.466 258 172.466 261.341C172.466 264.693 170.966 267.5 167.773 267.5ZM183.088 259.636C183.088 256.852 184.793 255.261 187.156 255.261C189.463 255.261 190.861 256.773 190.861 259.307V270H194.259V258.898C194.259 254.58 191.884 252.318 188.315 252.318C185.69 252.318 183.974 253.534 183.168 255.386H182.952V252.545H179.69V270H183.088V259.636ZM205.349 270.341C208.531 270.341 209.781 268.398 210.395 267.284H210.679V270H213.997V246.727H210.599V255.375H210.395C209.781 254.295 208.622 252.318 205.372 252.318C201.156 252.318 198.054 255.648 198.054 261.307C198.054 266.955 201.111 270.341 205.349 270.341ZM206.099 267.443C203.065 267.443 201.486 264.773 201.486 261.273C201.486 257.807 203.031 255.205 206.099 255.205C209.065 255.205 210.656 257.625 210.656 261.273C210.656 264.943 209.031 267.443 206.099 267.443ZM218.847 270H222.244V252.545H218.847V270ZM220.562 249.852C221.733 249.852 222.71 248.943 222.71 247.83C222.71 246.716 221.733 245.795 220.562 245.795C219.381 245.795 218.415 246.716 218.415 247.83C218.415 248.943 219.381 249.852 220.562 249.852ZM234.963 252.545H231.384V248.364H227.986V252.545H225.429V255.273H227.986V265.58C227.974 268.75 230.395 270.284 233.077 270.227C234.156 270.216 234.884 270.011 235.281 269.864L234.668 267.057C234.44 267.102 234.02 267.205 233.474 267.205C232.372 267.205 231.384 266.841 231.384 264.875V255.273H234.963V252.545ZM238.722 270H242.119V252.545H238.722V270ZM240.438 249.852C241.608 249.852 242.585 248.943 242.585 247.83C242.585 246.716 241.608 245.795 240.438 245.795C239.256 245.795 238.29 246.716 238.29 247.83C238.29 248.943 239.256 249.852 240.438 249.852ZM254.043 270.352C258.963 270.352 262.179 266.75 262.179 261.352C262.179 255.92 258.963 252.318 254.043 252.318C249.122 252.318 245.906 255.92 245.906 261.352C245.906 266.75 249.122 270.352 254.043 270.352ZM254.054 267.5C250.838 267.5 249.338 264.693 249.338 261.341C249.338 258 250.838 255.159 254.054 255.159C257.247 255.159 258.747 258 258.747 261.341C258.747 264.693 257.247 267.5 254.054 267.5ZM269.369 259.636C269.369 256.852 271.074 255.261 273.438 255.261C275.744 255.261 277.142 256.773 277.142 259.307V270H280.54V258.898C280.54 254.58 278.165 252.318 274.597 252.318C271.972 252.318 270.256 253.534 269.449 255.386H269.233V252.545H265.972V270H269.369V259.636ZM290.176 270.386C293.062 270.386 294.688 268.92 295.335 267.614H295.472V270H298.79V258.409C298.79 253.33 294.79 252.318 292.017 252.318C288.858 252.318 285.949 253.591 284.812 256.773L288.006 257.5C288.506 256.261 289.778 255.068 292.062 255.068C294.256 255.068 295.381 256.216 295.381 258.193V258.273C295.381 259.511 294.108 259.489 290.972 259.852C287.665 260.239 284.278 261.102 284.278 265.068C284.278 268.5 286.858 270.386 290.176 270.386ZM290.915 267.659C288.994 267.659 287.608 266.795 287.608 265.114C287.608 263.295 289.222 262.648 291.188 262.386C292.29 262.239 294.903 261.943 295.392 261.455V263.705C295.392 265.773 293.744 267.659 290.915 267.659ZM306.713 246.727H303.315V270H306.713V246.727ZM317.818 260.352C317.818 254.648 316.295 249.898 313.409 245.852H310.295C312.534 248.852 314.295 254.943 314.295 260.352C314.295 265.75 312.534 271.841 310.295 274.841H313.409C316.295 270.795 317.818 266.045 317.818 260.352Z" fill="#737AE1"/>
<path d="M1993.05 252.545H1989.47V248.364H1986.07V252.545H1983.51V255.273H1986.07V265.58C1986.06 268.75 1988.48 270.284 1991.16 270.227C1992.24 270.216 1992.97 270.011 1993.37 269.864L1992.75 267.057C1992.52 267.102 1992.1 267.205 1991.56 267.205C1990.46 267.205 1989.47 266.841 1989.47 264.875V255.273H1993.05V252.545ZM2001.89 270.386C2004.77 270.386 2006.4 268.92 2007.04 267.614H2007.18V270H2010.5V258.409C2010.5 253.33 2006.5 252.318 2003.73 252.318C2000.57 252.318 1997.66 253.591 1996.52 256.773L1999.71 257.5C2000.21 256.261 2001.49 255.068 2003.77 255.068C2005.96 255.068 2007.09 256.216 2007.09 258.193V258.273C2007.09 259.511 2005.82 259.489 2002.68 259.852C1999.37 260.239 1995.99 261.102 1995.99 265.068C1995.99 268.5 1998.57 270.386 2001.89 270.386ZM2002.62 267.659C2000.7 267.659 1999.32 266.795 1999.32 265.114C1999.32 263.295 2000.93 262.648 2002.9 262.386C2004 262.239 2006.61 261.943 2007.1 261.455V263.705C2007.1 265.773 2005.45 267.659 2002.62 267.659ZM2015.3 270H2018.62V267.284H2018.9C2019.51 268.398 2020.76 270.341 2023.94 270.341C2028.17 270.341 2031.24 266.955 2031.24 261.307C2031.24 255.648 2028.13 252.318 2023.91 252.318C2020.67 252.318 2019.5 254.295 2018.9 255.375H2018.69V246.727H2015.3V270ZM2018.63 261.273C2018.63 257.625 2020.22 255.205 2023.18 255.205C2026.26 255.205 2027.81 257.807 2027.81 261.273C2027.81 264.773 2026.22 267.443 2023.18 267.443C2020.26 267.443 2018.63 264.943 2018.63 261.273ZM2038.45 246.727H2035.06V270H2038.45V246.727ZM2050.55 270.352C2054.35 270.352 2057.05 268.477 2057.82 265.636L2054.6 265.057C2053.99 266.705 2052.51 267.545 2050.58 267.545C2047.67 267.545 2045.72 265.659 2045.63 262.295H2058.04V261.091C2058.04 254.784 2054.26 252.318 2050.31 252.318C2045.44 252.318 2042.24 256.023 2042.24 261.386C2042.24 266.807 2045.4 270.352 2050.55 270.352ZM2045.64 259.75C2045.77 257.273 2047.57 255.125 2050.33 255.125C2052.97 255.125 2054.69 257.08 2054.71 259.75H2045.64ZM2077.63 270.352C2081.75 270.352 2084.42 267.875 2084.8 264.477H2081.49C2081.06 266.364 2079.59 267.477 2077.65 267.477C2074.77 267.477 2072.92 265.08 2072.92 261.273C2072.92 257.534 2074.81 255.182 2077.65 255.182C2079.81 255.182 2081.13 256.545 2081.49 258.182H2084.8C2084.43 254.659 2081.56 252.318 2077.59 252.318C2072.67 252.318 2069.49 256.023 2069.49 261.352C2069.49 266.614 2072.56 270.352 2077.63 270.352ZM2095.78 270.352C2100.7 270.352 2103.92 266.75 2103.92 261.352C2103.92 255.92 2100.7 252.318 2095.78 252.318C2090.86 252.318 2087.65 255.92 2087.65 261.352C2087.65 266.75 2090.86 270.352 2095.78 270.352ZM2095.79 267.5C2092.58 267.5 2091.08 264.693 2091.08 261.341C2091.08 258 2092.58 255.159 2095.79 255.159C2098.99 255.159 2100.49 258 2100.49 261.341C2100.49 264.693 2098.99 267.5 2095.79 267.5ZM2111.11 259.636C2111.11 256.852 2112.81 255.261 2115.18 255.261C2117.48 255.261 2118.88 256.773 2118.88 259.307V270H2122.28V258.898C2122.28 254.58 2119.91 252.318 2116.34 252.318C2113.71 252.318 2112 253.534 2111.19 255.386H2110.97V252.545H2107.71V270H2111.11V259.636ZM2134.98 252.545H2131.41V248.364H2128.01V252.545H2125.45V255.273H2128.01V265.58C2128 268.75 2130.42 270.284 2133.1 270.227C2134.18 270.216 2134.91 270.011 2135.3 269.864L2134.69 267.057C2134.46 267.102 2134.04 267.205 2133.5 267.205C2132.39 267.205 2131.41 266.841 2131.41 264.875V255.273H2134.98V252.545ZM2138.74 270H2142.14V259.341C2142.14 257.057 2143.9 255.409 2146.31 255.409C2147.02 255.409 2147.81 255.534 2148.08 255.614V252.364C2147.74 252.318 2147.07 252.284 2146.64 252.284C2144.6 252.284 2142.85 253.443 2142.21 255.318H2142.03V252.545H2138.74V270ZM2157.75 270.352C2162.67 270.352 2165.89 266.75 2165.89 261.352C2165.89 255.92 2162.67 252.318 2157.75 252.318C2152.83 252.318 2149.62 255.92 2149.62 261.352C2149.62 266.75 2152.83 270.352 2157.75 270.352ZM2157.76 267.5C2154.55 267.5 2153.05 264.693 2153.05 261.341C2153.05 258 2154.55 255.159 2157.76 255.159C2160.96 255.159 2162.46 258 2162.46 261.341C2162.46 264.693 2160.96 267.5 2157.76 267.5ZM2173.08 246.727H2169.68V270H2173.08V246.727Z" fill="#737AE1"/>
<path d="M1993.05 601.545H1989.47V597.364H1986.07V601.545H1983.51V604.273H1986.07V614.58C1986.06 617.75 1988.48 619.284 1991.16 619.227C1992.24 619.216 1992.97 619.011 1993.37 618.864L1992.75 616.057C1992.52 616.102 1992.1 616.205 1991.56 616.205C1990.46 616.205 1989.47 615.841 1989.47 613.875V604.273H1993.05V601.545ZM2001.89 619.386C2004.77 619.386 2006.4 617.92 2007.04 616.614H2007.18V619H2010.5V607.409C2010.5 602.33 2006.5 601.318 2003.73 601.318C2000.57 601.318 1997.66 602.591 1996.52 605.773L1999.71 606.5C2000.21 605.261 2001.49 604.068 2003.77 604.068C2005.96 604.068 2007.09 605.216 2007.09 607.193V607.273C2007.09 608.511 2005.82 608.489 2002.68 608.852C1999.37 609.239 1995.99 610.102 1995.99 614.068C1995.99 617.5 1998.57 619.386 2001.89 619.386ZM2002.62 616.659C2000.7 616.659 1999.32 615.795 1999.32 614.114C1999.32 612.295 2000.93 611.648 2002.9 611.386C2004 611.239 2006.61 610.943 2007.1 610.455V612.705C2007.1 614.773 2005.45 616.659 2002.62 616.659ZM2015.3 619H2018.62V616.284H2018.9C2019.51 617.398 2020.76 619.341 2023.94 619.341C2028.17 619.341 2031.24 615.955 2031.24 610.307C2031.24 604.648 2028.13 601.318 2023.91 601.318C2020.67 601.318 2019.5 603.295 2018.9 604.375H2018.69V595.727H2015.3V619ZM2018.63 610.273C2018.63 606.625 2020.22 604.205 2023.18 604.205C2026.26 604.205 2027.81 606.807 2027.81 610.273C2027.81 613.773 2026.22 616.443 2023.18 616.443C2020.26 616.443 2018.63 613.943 2018.63 610.273ZM2038.45 595.727H2035.06V619H2038.45V595.727ZM2050.55 619.352C2054.35 619.352 2057.05 617.477 2057.82 614.636L2054.6 614.057C2053.99 615.705 2052.51 616.545 2050.58 616.545C2047.67 616.545 2045.72 614.659 2045.63 611.295H2058.04V610.091C2058.04 603.784 2054.26 601.318 2050.31 601.318C2045.44 601.318 2042.24 605.023 2042.24 610.386C2042.24 615.807 2045.4 619.352 2050.55 619.352ZM2045.64 608.75C2045.77 606.273 2047.57 604.125 2050.33 604.125C2052.97 604.125 2054.69 606.08 2054.71 608.75H2045.64ZM2077.63 619.352C2081.75 619.352 2084.42 616.875 2084.8 613.477H2081.49C2081.06 615.364 2079.59 616.477 2077.65 616.477C2074.77 616.477 2072.92 614.08 2072.92 610.273C2072.92 606.534 2074.81 604.182 2077.65 604.182C2079.81 604.182 2081.13 605.545 2081.49 607.182H2084.8C2084.43 603.659 2081.56 601.318 2077.59 601.318C2072.67 601.318 2069.49 605.023 2069.49 610.352C2069.49 615.614 2072.56 619.352 2077.63 619.352ZM2095.78 619.352C2100.7 619.352 2103.92 615.75 2103.92 610.352C2103.92 604.92 2100.7 601.318 2095.78 601.318C2090.86 601.318 2087.65 604.92 2087.65 610.352C2087.65 615.75 2090.86 619.352 2095.78 619.352ZM2095.79 616.5C2092.58 616.5 2091.08 613.693 2091.08 610.341C2091.08 607 2092.58 604.159 2095.79 604.159C2098.99 604.159 2100.49 607 2100.49 610.341C2100.49 613.693 2098.99 616.5 2095.79 616.5ZM2111.11 608.636C2111.11 605.852 2112.81 604.261 2115.18 604.261C2117.48 604.261 2118.88 605.773 2118.88 608.307V619H2122.28V607.898C2122.28 603.58 2119.91 601.318 2116.34 601.318C2113.71 601.318 2112 602.534 2111.19 604.386H2110.97V601.545H2107.71V619H2111.11V608.636ZM2134.98 601.545H2131.41V597.364H2128.01V601.545H2125.45V604.273H2128.01V614.58C2128 617.75 2130.42 619.284 2133.1 619.227C2134.18 619.216 2134.91 619.011 2135.3 618.864L2134.69 616.057C2134.46 616.102 2134.04 616.205 2133.5 616.205C2132.39 616.205 2131.41 615.841 2131.41 613.875V604.273H2134.98V601.545ZM2146.08 619.352C2149.89 619.352 2152.58 617.477 2153.35 614.636L2150.14 614.057C2149.52 615.705 2148.04 616.545 2146.11 616.545C2143.2 616.545 2141.25 614.659 2141.16 611.295H2153.57V610.091C2153.57 603.784 2149.79 601.318 2145.84 601.318C2140.98 601.318 2137.77 605.023 2137.77 610.386C2137.77 615.807 2140.93 619.352 2146.08 619.352ZM2141.17 608.75C2141.31 606.273 2143.1 604.125 2145.86 604.125C2148.5 604.125 2150.23 606.08 2150.24 608.75H2141.17ZM2160.73 608.636C2160.73 605.852 2162.44 604.261 2164.8 604.261C2167.11 604.261 2168.51 605.773 2168.51 608.307V619H2171.91V607.898C2171.91 603.58 2169.53 601.318 2165.96 601.318C2163.34 601.318 2161.62 602.534 2160.81 604.386H2160.6V601.545H2157.34V619H2160.73V608.636ZM2184.61 601.545H2181.03V597.364H2177.63V601.545H2175.08V604.273H2177.63V614.58C2177.62 617.75 2180.04 619.284 2182.72 619.227C2183.8 619.216 2184.53 619.011 2184.93 618.864L2184.31 616.057C2184.09 616.102 2183.67 616.205 2183.12 616.205C2182.02 616.205 2181.03 615.841 2181.03 613.875V604.273H2184.61V601.545Z" fill="#737AE1"/>
<defs>
<filter id="filter0_d" x="1703" y="174" width="48" height="48" filterUnits="userSpaceOnUse" color-interpolation-filters="sRGB">
<feFlood flood-opacity="0" result="BackgroundImageFix"/>
<feColorMatrix in="SourceAlpha" type="matrix" values="0 0 0 0 0 0 0 0 0 0 0 0 0 0 0 0 0 0 127 0"/>
<feOffset dx="2" dy="2"/>
<feGaussianBlur stdDeviation="3"/>
<feColorMatrix type="matrix" values="0 0 0 0 0.921569 0 0 0 0 0.94902 0 0 0 0 0.988235 0 0 0 1 0"/>
<feBlend mode="normal" in2="BackgroundImageFix" result="effect1_dropShadow"/>
<feBlend mode="normal" in="SourceGraphic" in2="effect1_dropShadow" result="shape"/>
</filter>
<filter id="filter1_d" x="1642" y="174" width="48" height="48" filterUnits="userSpaceOnUse" color-interpolation-filters="sRGB">
<feFlood flood-opacity="0" result="BackgroundImageFix"/>
<feColorMatrix in="SourceAlpha" type="matrix" values="0 0 0 0 0 0 0 0 0 0 0 0 0 0 0 0 0 0 127 0"/>
<feOffset dx="2" dy="2"/>
<feGaussianBlur stdDeviation="3"/>
<feColorMatrix type="matrix" values="0 0 0 0 0.921569 0 0 0 0 0.94902 0 0 0 0 0.988235 0 0 0 1 0"/>
<feBlend mode="normal" in2="BackgroundImageFix" result="effect1_dropShadow"/>
<feBlend mode="normal" in="SourceGraphic" in2="effect1_dropShadow" result="shape"/>
</filter>
<clipPath id="clip0">
<rect width="1461" height="900" fill="white" transform="translate(401)"/>
</clipPath>
</defs>
</svg>
