<svg width="80" height="81" viewBox="0 0 80 81" fill="none" xmlns="http://www.w3.org/2000/svg">
<path d="M40 80C62.0914 80 80 62.0914 80 40C80 17.9086 62.0914 0 40 0C17.9086 0 0 17.9086 0 40C0 62.0914 17.9086 80 40 80Z" fill="#009FD9"/>
<path d="M40.0648 45.017C30.2768 45.017 22.3418 42.947 22.3418 40.394V58.887C22.3418 61.44 30.2768 63.511 40.0648 63.511C49.8528 63.511 57.7878 61.44 57.7878 58.887V40.394C57.7878 42.947 49.8528 45.017 40.0648 45.017Z" fill="#E8F4FA"/>
<path d="M32.3594 53.4929V63.0479C33.1044 63.1419 33.8734 63.2239 34.6714 63.2909V51.1819C34.0584 51.1819 33.4705 51.4253 33.0369 51.8587C32.6033 52.2921 32.3596 52.8799 32.3594 53.4929V53.4929Z" fill="#C0DCEB"/>
<path d="M47.77 53.4929V63.0479C47.026 63.1419 46.2557 63.2229 45.459 63.2909V51.1819C46.0719 51.1819 46.6597 51.4254 47.0931 51.8588C47.5265 52.2922 47.77 52.88 47.77 53.4929V53.4929Z" fill="#C0DCEB"/>
<path d="M40.0648 45.017C30.2768 45.017 22.3418 42.947 22.3418 40.394V42.706C22.3418 45.259 30.2768 47.329 40.0648 47.329C40.5878 47.329 41.1018 47.32 41.6138 47.309C41.6315 47.9337 41.8922 48.5268 42.3403 48.9623C42.7885 49.3978 43.3889 49.6413 44.0138 49.641H46.9078C47.5458 49.6408 48.1576 49.3872 48.6088 48.936C49.06 48.4849 49.3135 47.8731 49.3138 47.235V46.644C54.3908 45.831 57.7898 44.374 57.7898 42.706V40.394C57.7878 42.947 49.8528 45.017 40.0648 45.017Z" fill="#C0DCEB"/>
<path d="M16.1777 52.7231C16.1775 51.2337 16.7241 49.7961 17.7137 48.6831L22.3417 43.4761V58.8871H18.4867C17.8743 58.8871 17.287 58.6438 16.854 58.2108C16.421 57.7778 16.1777 57.1905 16.1777 56.5781V52.7231Z" fill="#FF6242" stroke="#45413C" stroke-linecap="round" stroke-linejoin="round"/>
<path d="M63.9482 52.7231C63.9484 51.2337 63.4018 49.7961 62.4122 48.6831L57.7842 43.4761V58.8871H61.6392C62.2516 58.8871 62.8389 58.6438 63.2719 58.2108C63.7049 57.7778 63.9482 57.1905 63.9482 56.5781V52.7231Z" fill="#FF6242" stroke="#45413C" stroke-linecap="round" stroke-linejoin="round"/>
<path d="M40.0648 45.017C30.2768 45.017 22.3418 42.947 22.3418 40.394V58.887C22.3418 61.44 30.2768 63.511 40.0648 63.511C49.8528 63.511 57.7878 61.44 57.7878 58.887V40.394C57.7878 42.947 49.8528 45.017 40.0648 45.017Z" stroke="#45413C" stroke-miterlimit="10"/>
<path d="M40.0648 10.342C29.2768 10.342 22.3418 25.753 22.3418 30.377V35.771C22.3418 38.324 30.2768 40.394 40.0648 40.394C49.8528 40.394 57.7878 38.324 57.7878 35.771V30.377C57.7878 25.753 50.8528 10.342 40.0648 10.342Z" fill="#E8F4FA"/>
<path d="M40.0648 10.342C29.2768 10.342 22.3418 25.753 22.3418 30.377V33.459C22.3418 28.836 29.2768 13.425 40.0648 13.425C50.8528 13.425 57.7878 28.836 57.7878 33.459V30.377C57.7878 25.753 50.8528 10.342 40.0648 10.342Z" fill="white"/>
<path d="M40.0648 10.342C29.2768 10.342 22.3418 25.753 22.3418 30.377V35.771C22.3418 38.324 30.2768 40.394 40.0648 40.394C49.8528 40.394 57.7878 38.324 57.7878 35.771V30.377C57.7878 25.753 50.8528 10.342 40.0648 10.342Z" stroke="#45413C" stroke-linecap="round" stroke-linejoin="round"/>
<path d="M74.1777 38.452C76.4078 38.452 78.2157 36.6441 78.2157 34.414C78.2157 32.1839 76.4078 30.376 74.1777 30.376C71.9475 30.376 70.1396 32.1839 70.1396 34.414C70.1396 36.6441 71.9475 38.452 74.1777 38.452Z" fill="#FFF48C" stroke="#B58B00" stroke-linecap="round" stroke-linejoin="round"/>
<path d="M15.411 25.3599C17.6412 25.3599 19.449 23.5521 19.449 21.3219C19.449 19.0918 17.6412 17.2839 15.411 17.2839C13.1809 17.2839 11.373 19.0918 11.373 21.3219C11.373 23.5521 13.1809 25.3599 15.411 25.3599Z" fill="#FFF48C" stroke="#B58B00" stroke-linecap="round" stroke-linejoin="round"/>
<path d="M57.7841 10.13C60.0142 10.13 61.8221 8.32208 61.8221 6.09195C61.8221 3.86183 60.0142 2.05396 57.7841 2.05396C55.554 2.05396 53.7461 3.86183 53.7461 6.09195C53.7461 8.32208 55.554 10.13 57.7841 10.13Z" fill="#FFF48C" stroke="#B58B00" stroke-linecap="round" stroke-linejoin="round"/>
<path d="M36.2089 79.6859C38.439 79.6859 40.2469 77.878 40.2469 75.6479C40.2469 73.4177 38.439 71.6099 36.2089 71.6099C33.9788 71.6099 32.1709 73.4177 32.1709 75.6479C32.1709 77.878 33.9788 79.6859 36.2089 79.6859Z" fill="#FFF48C" stroke="#B58B00" stroke-linecap="round" stroke-linejoin="round"/>
<path d="M5.58195 46.158C7.81207 46.158 9.61995 44.3502 9.61995 42.12C9.61995 39.8899 7.81207 38.082 5.58195 38.082C3.35182 38.082 1.54395 39.8899 1.54395 42.12C1.54395 44.3502 3.35182 46.158 5.58195 46.158Z" fill="#FFF48C" stroke="#B58B00" stroke-linecap="round" stroke-linejoin="round"/>
<path d="M40.0654 26.5239C40.9165 26.5239 41.6064 25.3164 41.6064 23.8269C41.6064 22.3374 40.9165 21.1299 40.0654 21.1299C39.2143 21.1299 38.5244 22.3374 38.5244 23.8269C38.5244 25.3164 39.2143 26.5239 40.0654 26.5239Z" fill="#87898C"/>
<path d="M40.0654 26.5239C40.9165 26.5239 41.6064 25.3164 41.6064 23.8269C41.6064 22.3374 40.9165 21.1299 40.0654 21.1299C39.2143 21.1299 38.5244 22.3374 38.5244 23.8269C38.5244 25.3164 39.2143 26.5239 40.0654 26.5239Z" stroke="#45413C" stroke-linecap="round" stroke-linejoin="round"/>
<path d="M33.1632 24.2C32.8632 25.658 31.9382 26.7 31.1042 26.526C30.2702 26.352 29.8422 25.026 30.1452 23.572C30.4482 22.118 31.3702 21.072 32.2032 21.245C33.0362 21.418 33.4662 22.739 33.1632 24.2Z" fill="#87898C"/>
<path d="M33.1632 24.2C32.8632 25.658 31.9382 26.7 31.1042 26.526C30.2702 26.352 29.8422 25.026 30.1452 23.572C30.4482 22.118 31.3702 21.072 32.2032 21.245C33.0362 21.418 33.4662 22.739 33.1632 24.2Z" stroke="#45413C" stroke-linecap="round" stroke-linejoin="round"/>
<path d="M46.9674 24.2C47.2674 25.658 48.1924 26.7 49.0264 26.526C49.8604 26.352 50.2884 25.026 49.9854 23.572C49.6824 22.118 48.7604 21.072 47.9264 21.245C47.0924 21.418 46.6644 22.739 46.9674 24.2Z" fill="#87898C" stroke="#45413C" stroke-linecap="round" stroke-linejoin="round"/>
<path d="M22.3418 35.771C22.3418 38.324 30.2768 40.394 40.0648 40.394C49.8528 40.394 57.7878 38.324 57.7878 35.771V40.394C57.7878 42.947 49.8528 45.017 40.0648 45.017C30.2768 45.017 22.3418 42.947 22.3418 40.394V35.771Z" fill="#656769"/>
<path d="M40.0648 40.394C30.2768 40.394 22.3418 38.324 22.3418 35.771V37.312C22.3418 39.865 30.2768 41.935 40.0648 41.935C49.8528 41.935 57.7878 39.865 57.7878 37.312V35.771C57.7878 38.324 49.8528 40.394 40.0648 40.394Z" fill="#87898C"/>
<path d="M22.3418 35.771C22.3418 38.324 30.2768 40.394 40.0648 40.394C49.8528 40.394 57.7878 38.324 57.7878 35.771V40.394C57.7878 42.947 49.8528 45.017 40.0648 45.017C30.2768 45.017 22.3418 42.947 22.3418 40.394V35.771Z" stroke="#45413C" stroke-linecap="round" stroke-linejoin="round"/>
<path d="M47.77 45.786C47.7764 46.0936 47.7213 46.3994 47.608 46.6855C47.4947 46.9715 47.3255 47.2321 47.1102 47.4519C46.8949 47.6717 46.638 47.8463 46.3543 47.9655C46.0707 48.0847 45.7661 48.1461 45.4585 48.1461C45.1508 48.1461 44.8463 48.0847 44.5626 47.9655C44.279 47.8463 44.022 47.6717 43.8067 47.4519C43.5915 47.2321 43.4222 46.9715 43.3089 46.6855C43.1956 46.3994 43.1406 46.0936 43.147 45.786V38.851C43.1406 38.5435 43.1956 38.2377 43.3089 37.9516C43.4222 37.6656 43.5915 37.405 43.8067 37.1852C44.022 36.9654 44.279 36.7908 44.5626 36.6716C44.8463 36.5524 45.1508 36.491 45.4585 36.491C45.7661 36.491 46.0707 36.5524 46.3543 36.6716C46.638 36.7908 46.8949 36.9654 47.1102 37.1852C47.3255 37.405 47.4947 37.6656 47.608 37.9516C47.7213 38.2377 47.7764 38.5435 47.77 38.851V45.786Z" fill="#F0F0F0" stroke="#45413C" stroke-miterlimit="10"/>
<path d="M45.4589 51.9519V61.1999C45.4589 62.6305 44.8906 64.0025 43.879 65.014C42.8675 66.0256 41.4955 66.5939 40.0649 66.5939C38.6343 66.5939 37.2623 66.0256 36.2508 65.014C35.2392 64.0025 34.6709 62.6305 34.6709 61.1999V51.9519" fill="#F0F0F0"/>
<path d="M45.4589 51.9519V61.1999C45.4589 62.6305 44.8906 64.0025 43.879 65.014C42.8675 66.0256 41.4955 66.5939 40.0649 66.5939C38.6343 66.5939 37.2623 66.0256 36.2508 65.014C35.2392 64.0025 34.6709 62.6305 34.6709 61.1999V51.9519" stroke="#45413C" stroke-linecap="round" stroke-linejoin="round"/>
<path d="M26.9632 38.8758C25.2782 29.5838 25.5632 28.8538 23.8832 28.8538C23.6793 28.8496 23.4766 28.8867 23.2874 28.963C23.0982 29.0392 22.9264 29.153 22.7823 29.2975C22.6383 29.442 22.5251 29.6142 22.4494 29.8036C22.3738 29.9931 22.3373 30.1959 22.3422 30.3998V35.7748C22.3422 36.9678 24.1002 38.0548 26.9632 38.8758Z" fill="#87898C"/>
<path d="M23.8832 31.1468C24.5427 31.121 25.1901 31.3289 25.7112 31.7338C25.2232 29.1548 24.9472 28.8538 23.8832 28.8538C23.6793 28.8496 23.4766 28.8867 23.2874 28.963C23.0982 29.0392 22.9264 29.153 22.7823 29.2975C22.6383 29.442 22.5251 29.6142 22.4494 29.8036C22.3738 29.9931 22.3373 30.1959 22.3422 30.3998V32.6918C22.3373 32.4879 22.3738 32.2852 22.4494 32.0958C22.5251 31.9064 22.6384 31.7343 22.7824 31.5899C22.9264 31.4454 23.0982 31.3317 23.2874 31.2556C23.4766 31.1795 23.6793 31.1425 23.8832 31.1468V31.1468Z" fill="#656769"/>
<path d="M26.9632 38.8758C25.2782 29.5838 25.5632 28.8538 23.8832 28.8538C23.6793 28.8496 23.4766 28.8867 23.2874 28.963C23.0982 29.0392 22.9264 29.153 22.7823 29.2975C22.6383 29.442 22.5251 29.6142 22.4494 29.8036C22.3738 29.9931 22.3373 30.1959 22.3422 30.3998V35.7748C22.3422 36.9678 24.1002 38.0548 26.9632 38.8758Z" stroke="#45413C" stroke-linecap="round" stroke-linejoin="round"/>
<path d="M53.167 38.8758C54.852 29.5838 54.567 28.8538 56.247 28.8538C56.4509 28.8496 56.6537 28.8867 56.8429 28.963C57.0321 29.0392 57.2039 29.153 57.3479 29.2975C57.4919 29.442 57.6052 29.6142 57.6808 29.8036C57.7564 29.9931 57.7929 30.1959 57.788 30.3998V35.7748C57.788 36.9678 56.029 38.0548 53.167 38.8758Z" fill="#87898C"/>
<path d="M56.2469 31.1468C55.5875 31.121 54.9401 31.3289 54.4189 31.7338C54.9069 29.1548 55.1829 28.8538 56.2469 28.8538C56.4509 28.8496 56.6536 28.8867 56.8428 28.963C57.032 29.0392 57.2038 29.153 57.3478 29.2975C57.4919 29.442 57.6051 29.6142 57.6807 29.8036C57.7564 29.9931 57.7929 30.1959 57.7879 30.3998V32.6918C57.7929 32.4879 57.7564 32.2852 57.6807 32.0958C57.6051 31.9064 57.4918 31.7343 57.3478 31.5899C57.2038 31.4454 57.032 31.3317 56.8427 31.2556C56.6535 31.1795 56.4509 31.1425 56.2469 31.1468V31.1468Z" fill="#656769"/>
<path d="M53.167 38.8758C54.852 29.5838 54.567 28.8538 56.247 28.8538C56.4509 28.8496 56.6537 28.8867 56.8429 28.963C57.0321 29.0392 57.2039 29.153 57.3479 29.2975C57.4919 29.442 57.6052 29.6142 57.6808 29.8036C57.7564 29.9931 57.7929 30.1959 57.788 30.3998V35.7748C57.788 36.9678 56.029 38.0548 53.167 38.8758Z" stroke="#45413C" stroke-linecap="round" stroke-linejoin="round"/>
</svg>
