<svg width="555" height="151" viewBox="0 0 555 151" fill="none" xmlns="http://www.w3.org/2000/svg">
<path d="M1.15625 69V57.625H5.05469C6.34115 57.625 7.32031 57.8828 7.99219 58.3984C8.66406 58.9141 9 59.6823 9 60.7031C9 61.224 8.85938 61.6927 8.57812 62.1094C8.29688 62.526 7.88542 62.849 7.34375 63.0781C7.95833 63.2448 8.43229 63.5599 8.76562 64.0234C9.10417 64.4818 9.27344 65.0339 9.27344 65.6797C9.27344 66.7474 8.92969 67.5677 8.24219 68.1406C7.5599 68.7135 6.58073 69 5.30469 69H1.15625ZM3.13281 63.8672V67.4219H5.32812C5.94792 67.4219 6.43229 67.2682 6.78125 66.9609C7.13021 66.6536 7.30469 66.2266 7.30469 65.6797C7.30469 64.4974 6.70052 63.8932 5.49219 63.8672H3.13281ZM3.13281 62.4141H5.07031C5.6849 62.4141 6.16406 62.276 6.50781 62C6.85677 61.7188 7.03125 61.3229 7.03125 60.8125C7.03125 60.25 6.86979 59.8438 6.54688 59.5938C6.22917 59.3438 5.73177 59.2188 5.05469 59.2188H3.13281V62.4141ZM14.7891 69.1562C13.5859 69.1562 12.6094 68.7786 11.8594 68.0234C11.1146 67.263 10.7422 66.2526 10.7422 64.9922V64.7578C10.7422 63.9141 10.9036 63.1615 11.2266 62.5C11.5547 61.8333 12.013 61.3151 12.6016 60.9453C13.1901 60.5755 13.8464 60.3906 14.5703 60.3906C15.7214 60.3906 16.6094 60.7578 17.2344 61.4922C17.8646 62.2266 18.1797 63.2656 18.1797 64.6094V65.375H12.6562C12.7135 66.0729 12.9453 66.625 13.3516 67.0312C13.763 67.4375 14.2786 67.6406 14.8984 67.6406C15.7682 67.6406 16.4766 67.2891 17.0234 66.5859L18.0469 67.5625C17.7083 68.0677 17.2552 68.4609 16.6875 68.7422C16.125 69.0182 15.4922 69.1562 14.7891 69.1562ZM14.5625 61.9141C14.0417 61.9141 13.6198 62.0964 13.2969 62.4609C12.9792 62.8255 12.776 63.3333 12.6875 63.9844H16.3047V63.8438C16.263 63.2083 16.0938 62.7292 15.7969 62.4062C15.5 62.0781 15.0885 61.9141 14.5625 61.9141ZM20.3281 69V61.9531H19.0391V60.5469H20.3281V59.7734C20.3281 58.8359 20.5885 58.112 21.1094 57.6016C21.6302 57.0911 22.3594 56.8359 23.2969 56.8359C23.6302 56.8359 23.9844 56.8828 24.3594 56.9766L24.3125 58.4609C24.1042 58.4193 23.862 58.3984 23.5859 58.3984C22.6797 58.3984 22.2266 58.8646 22.2266 59.7969V60.5469H23.9453V61.9531H22.2266V69H20.3281ZM24.9766 64.6953C24.9766 63.8672 25.1406 63.1224 25.4688 62.4609C25.7969 61.7943 26.2578 61.2839 26.8516 60.9297C27.4453 60.5703 28.1276 60.3906 28.8984 60.3906C30.0391 60.3906 30.9635 60.7578 31.6719 61.4922C32.3854 62.2266 32.7708 63.2005 32.8281 64.4141L32.8359 64.8594C32.8359 65.6927 32.6745 66.4375 32.3516 67.0938C32.0339 67.75 31.5755 68.2578 30.9766 68.6172C30.3828 68.9766 29.6953 69.1562 28.9141 69.1562C27.7214 69.1562 26.7656 68.7604 26.0469 67.9688C25.3333 67.1719 24.9766 66.112 24.9766 64.7891V64.6953ZM26.875 64.8594C26.875 65.7292 27.0547 66.4115 27.4141 66.9062C27.7734 67.3958 28.2734 67.6406 28.9141 67.6406C29.5547 67.6406 30.0521 67.3906 30.4062 66.8906C30.7656 66.3906 30.9453 65.6589 30.9453 64.6953C30.9453 63.8411 30.7604 63.1641 30.3906 62.6641C30.026 62.1641 29.5286 61.9141 28.8984 61.9141C28.2786 61.9141 27.7865 62.1615 27.4219 62.6562C27.0573 63.1458 26.875 63.8802 26.875 64.8594ZM38.8672 62.2812C38.6172 62.2396 38.3594 62.2188 38.0938 62.2188C37.224 62.2188 36.638 62.5521 36.3359 63.2188V69H34.4375V60.5469H36.25L36.2969 61.4922C36.7552 60.7578 37.3906 60.3906 38.2031 60.3906C38.474 60.3906 38.6979 60.4271 38.875 60.5L38.8672 62.2812ZM43.6328 69.1562C42.4297 69.1562 41.4531 68.7786 40.7031 68.0234C39.9583 67.263 39.5859 66.2526 39.5859 64.9922V64.7578C39.5859 63.9141 39.7474 63.1615 40.0703 62.5C40.3984 61.8333 40.8568 61.3151 41.4453 60.9453C42.0339 60.5755 42.6901 60.3906 43.4141 60.3906C44.5651 60.3906 45.4531 60.7578 46.0781 61.4922C46.7083 62.2266 47.0234 63.2656 47.0234 64.6094V65.375H41.5C41.5573 66.0729 41.7891 66.625 42.1953 67.0312C42.6068 67.4375 43.1224 67.6406 43.7422 67.6406C44.612 67.6406 45.3203 67.2891 45.8672 66.5859L46.8906 67.5625C46.5521 68.0677 46.099 68.4609 45.5312 68.7422C44.9688 69.0182 44.3359 69.1562 43.6328 69.1562ZM43.4062 61.9141C42.8854 61.9141 42.4635 62.0964 42.1406 62.4609C41.8229 62.8255 41.6198 63.3333 41.5312 63.9844H45.1484V63.8438C45.1068 63.2083 44.9375 62.7292 44.6406 62.4062C44.3438 62.0781 43.9323 61.9141 43.4062 61.9141Z" fill="#979797"/>
<path d="M391.117 64.7227C391.117 67.2617 390.684 69.1484 389.816 70.3828C388.949 71.6172 387.594 72.2344 385.75 72.2344C383.93 72.2344 382.582 71.6328 381.707 70.4297C380.832 69.2188 380.379 67.4141 380.348 65.0156V62.1211C380.348 59.6133 380.781 57.75 381.648 56.5312C382.516 55.3125 383.875 54.7031 385.727 54.7031C387.562 54.7031 388.914 55.293 389.781 56.4727C390.648 57.6445 391.094 59.457 391.117 61.9102V64.7227ZM388.949 61.7578C388.949 59.9219 388.691 58.5859 388.176 57.75C387.66 56.9062 386.844 56.4844 385.727 56.4844C384.617 56.4844 383.809 56.9023 383.301 57.7383C382.793 58.5742 382.531 59.8594 382.516 61.5938V65.0625C382.516 66.9062 382.781 68.2695 383.312 69.1523C383.852 70.0273 384.664 70.4648 385.75 70.4648C386.82 70.4648 387.613 70.0508 388.129 69.2227C388.652 68.3945 388.926 67.0898 388.949 65.3086V61.7578Z" fill="#9B9B9B" fill-opacity="0.63"/>
<path d="M400.504 73.4648H398.641L405.766 54.9375H407.617L400.504 73.4648ZM422.816 72H420.637V57.5508L416.266 59.1562V57.1875L422.477 54.8555H422.816V72ZM439.516 59.3906C439.516 60.2422 439.289 61 438.836 61.6641C438.391 62.3281 437.785 62.8477 437.02 63.2227C437.91 63.6055 438.613 64.1641 439.129 64.8984C439.652 65.6328 439.914 66.4648 439.914 67.3945C439.914 68.8711 439.414 70.0469 438.414 70.9219C437.422 71.7969 436.113 72.2344 434.488 72.2344C432.848 72.2344 431.531 71.7969 430.539 70.9219C429.555 70.0391 429.062 68.8633 429.062 67.3945C429.062 66.4727 429.312 65.6406 429.812 64.8984C430.32 64.1562 431.02 63.5938 431.91 63.2109C431.152 62.8359 430.555 62.3164 430.117 61.6523C429.68 60.9883 429.461 60.2344 429.461 59.3906C429.461 57.9531 429.922 56.8125 430.844 55.9688C431.766 55.125 432.98 54.7031 434.488 54.7031C435.988 54.7031 437.199 55.125 438.121 55.9688C439.051 56.8125 439.516 57.9531 439.516 59.3906ZM437.746 67.3477C437.746 66.3945 437.441 65.6172 436.832 65.0156C436.23 64.4141 435.441 64.1133 434.465 64.1133C433.488 64.1133 432.703 64.4102 432.109 65.0039C431.523 65.5977 431.23 66.3789 431.23 67.3477C431.23 68.3164 431.516 69.0781 432.086 69.6328C432.664 70.1875 433.465 70.4648 434.488 70.4648C435.504 70.4648 436.301 70.1875 436.879 69.6328C437.457 69.0703 437.746 68.3086 437.746 67.3477ZM434.488 56.4844C433.637 56.4844 432.945 56.75 432.414 57.2812C431.891 57.8047 431.629 58.5195 431.629 59.4258C431.629 60.293 431.887 60.9961 432.402 61.5352C432.926 62.0664 433.621 62.332 434.488 62.332C435.355 62.332 436.047 62.0664 436.562 61.5352C437.086 60.9961 437.348 60.293 437.348 59.4258C437.348 58.5586 437.078 57.8516 436.539 57.3047C436 56.7578 435.316 56.4844 434.488 56.4844Z" fill="#979797"/>
<path d="M381.543 136H379.363V121.551L374.992 123.156V121.188L381.203 118.855H381.543V136ZM398.242 123.391C398.242 124.242 398.016 125 397.562 125.664C397.117 126.328 396.512 126.848 395.746 127.223C396.637 127.605 397.34 128.164 397.855 128.898C398.379 129.633 398.641 130.465 398.641 131.395C398.641 132.871 398.141 134.047 397.141 134.922C396.148 135.797 394.84 136.234 393.215 136.234C391.574 136.234 390.258 135.797 389.266 134.922C388.281 134.039 387.789 132.863 387.789 131.395C387.789 130.473 388.039 129.641 388.539 128.898C389.047 128.156 389.746 127.594 390.637 127.211C389.879 126.836 389.281 126.316 388.844 125.652C388.406 124.988 388.188 124.234 388.188 123.391C388.188 121.953 388.648 120.812 389.57 119.969C390.492 119.125 391.707 118.703 393.215 118.703C394.715 118.703 395.926 119.125 396.848 119.969C397.777 120.812 398.242 121.953 398.242 123.391ZM396.473 131.348C396.473 130.395 396.168 129.617 395.559 129.016C394.957 128.414 394.168 128.113 393.191 128.113C392.215 128.113 391.43 128.41 390.836 129.004C390.25 129.598 389.957 130.379 389.957 131.348C389.957 132.316 390.242 133.078 390.812 133.633C391.391 134.188 392.191 134.465 393.215 134.465C394.23 134.465 395.027 134.188 395.605 133.633C396.184 133.07 396.473 132.309 396.473 131.348ZM393.215 120.484C392.363 120.484 391.672 120.75 391.141 121.281C390.617 121.805 390.355 122.52 390.355 123.426C390.355 124.293 390.613 124.996 391.129 125.535C391.652 126.066 392.348 126.332 393.215 126.332C394.082 126.332 394.773 126.066 395.289 125.535C395.812 124.996 396.074 124.293 396.074 123.426C396.074 122.559 395.805 121.852 395.266 121.305C394.727 120.758 394.043 120.484 393.215 120.484Z" fill="#FF8F87"/>
<path d="M407.98 137.465H406.117L413.242 118.938H415.094L407.98 137.465ZM430.293 136H428.113V121.551L423.742 123.156V121.188L429.953 118.855H430.293V136ZM446.992 123.391C446.992 124.242 446.766 125 446.312 125.664C445.867 126.328 445.262 126.848 444.496 127.223C445.387 127.605 446.09 128.164 446.605 128.898C447.129 129.633 447.391 130.465 447.391 131.395C447.391 132.871 446.891 134.047 445.891 134.922C444.898 135.797 443.59 136.234 441.965 136.234C440.324 136.234 439.008 135.797 438.016 134.922C437.031 134.039 436.539 132.863 436.539 131.395C436.539 130.473 436.789 129.641 437.289 128.898C437.797 128.156 438.496 127.594 439.387 127.211C438.629 126.836 438.031 126.316 437.594 125.652C437.156 124.988 436.938 124.234 436.938 123.391C436.938 121.953 437.398 120.812 438.32 119.969C439.242 119.125 440.457 118.703 441.965 118.703C443.465 118.703 444.676 119.125 445.598 119.969C446.527 120.812 446.992 121.953 446.992 123.391ZM445.223 131.348C445.223 130.395 444.918 129.617 444.309 129.016C443.707 128.414 442.918 128.113 441.941 128.113C440.965 128.113 440.18 128.41 439.586 129.004C439 129.598 438.707 130.379 438.707 131.348C438.707 132.316 438.992 133.078 439.562 133.633C440.141 134.188 440.941 134.465 441.965 134.465C442.98 134.465 443.777 134.188 444.355 133.633C444.934 133.07 445.223 132.309 445.223 131.348ZM441.965 120.484C441.113 120.484 440.422 120.75 439.891 121.281C439.367 121.805 439.105 122.52 439.105 123.426C439.105 124.293 439.363 124.996 439.879 125.535C440.402 126.066 441.098 126.332 441.965 126.332C442.832 126.332 443.523 126.066 444.039 125.535C444.562 124.996 444.824 124.293 444.824 123.426C444.824 122.559 444.555 121.852 444.016 121.305C443.477 120.758 442.793 120.484 441.965 120.484Z" fill="black"/>
<path d="M7.52344 130.352H3.11719L2.19531 133H0.140625L4.4375 121.625H6.21094L10.5156 133H8.45312L7.52344 130.352ZM3.67188 128.758H6.96875L5.32031 124.039L3.67188 128.758ZM12.2969 133V125.953H11.0078V124.547H12.2969V123.773C12.2969 122.836 12.5573 122.112 13.0781 121.602C13.599 121.091 14.3281 120.836 15.2656 120.836C15.599 120.836 15.9531 120.883 16.3281 120.977L16.2812 122.461C16.0729 122.419 15.8307 122.398 15.5547 122.398C14.6484 122.398 14.1953 122.865 14.1953 123.797V124.547H15.9141V125.953H14.1953V133H12.2969ZM19.6797 122.492V124.547H21.1719V125.953H19.6797V130.672C19.6797 130.995 19.7422 131.229 19.8672 131.375C19.9974 131.516 20.2266 131.586 20.5547 131.586C20.7734 131.586 20.9948 131.56 21.2188 131.508V132.977C20.7865 133.096 20.3698 133.156 19.9688 133.156C18.5104 133.156 17.7812 132.352 17.7812 130.742V125.953H16.3906V124.547H17.7812V122.492H19.6797ZM26.3516 133.156C25.1484 133.156 24.1719 132.779 23.4219 132.023C22.6771 131.263 22.3047 130.253 22.3047 128.992V128.758C22.3047 127.914 22.4661 127.161 22.7891 126.5C23.1172 125.833 23.5755 125.315 24.1641 124.945C24.7526 124.576 25.4089 124.391 26.1328 124.391C27.2839 124.391 28.1719 124.758 28.7969 125.492C29.4271 126.227 29.7422 127.266 29.7422 128.609V129.375H24.2188C24.276 130.073 24.5078 130.625 24.9141 131.031C25.3255 131.438 25.8411 131.641 26.4609 131.641C27.3307 131.641 28.0391 131.289 28.5859 130.586L29.6094 131.562C29.2708 132.068 28.8177 132.461 28.25 132.742C27.6875 133.018 27.0547 133.156 26.3516 133.156ZM26.125 125.914C25.6042 125.914 25.1823 126.096 24.8594 126.461C24.5417 126.826 24.3385 127.333 24.25 127.984H27.8672V127.844C27.8255 127.208 27.6562 126.729 27.3594 126.406C27.0625 126.078 26.651 125.914 26.125 125.914ZM35.6484 126.281C35.3984 126.24 35.1406 126.219 34.875 126.219C34.0052 126.219 33.4193 126.552 33.1172 127.219V133H31.2188V124.547H33.0312L33.0781 125.492C33.5365 124.758 34.1719 124.391 34.9844 124.391C35.2552 124.391 35.4792 124.427 35.6562 124.5L35.6484 126.281Z" fill="black"/>
<path d="M71.4375 17V5.625H74.6172C75.5495 5.625 76.3854 5.83854 77.125 6.26562C77.8646 6.6875 78.4401 7.29427 78.8516 8.08594C79.2682 8.8776 79.4766 9.77865 79.4766 10.7891V11.8359C79.4766 12.8516 79.2708 13.7526 78.8594 14.5391C78.4479 15.3255 77.8672 15.9323 77.1172 16.3594C76.3724 16.7865 75.5156 17 74.5469 17H71.4375ZM72.3984 6.44531V16.1875H74.5547C75.7526 16.1875 76.7135 15.7917 77.4375 15C78.1615 14.2031 78.5234 13.1276 78.5234 11.7734V10.7734C78.5234 9.46615 78.1667 8.41927 77.4531 7.63281C76.7396 6.84635 75.7995 6.45052 74.6328 6.44531H72.3984ZM81.1875 12.6484C81.1875 11.8359 81.3438 11.1042 81.6562 10.4531C81.974 9.80208 82.4193 9.29688 82.9922 8.9375C83.5703 8.57292 84.224 8.39062 84.9531 8.39062C86.0781 8.39062 86.9896 8.78646 87.6875 9.57812C88.3854 10.3646 88.7344 11.4089 88.7344 12.7109V12.9062C88.7344 13.724 88.5755 14.4609 88.2578 15.1172C87.9453 15.7682 87.5026 16.2708 86.9297 16.625C86.3568 16.9792 85.7031 17.1562 84.9688 17.1562C83.849 17.1562 82.9375 16.763 82.2344 15.9766C81.5365 15.1849 81.1875 14.138 81.1875 12.8359V12.6484ZM82.125 12.9062C82.125 13.9167 82.3854 14.7474 82.9062 15.3984C83.4323 16.0443 84.1198 16.3672 84.9688 16.3672C85.8125 16.3672 86.4948 16.0443 87.0156 15.3984C87.5417 14.7474 87.8047 13.8906 87.8047 12.8281V12.6484C87.8047 12.0026 87.6849 11.4115 87.4453 10.875C87.2057 10.3385 86.8698 9.92448 86.4375 9.63281C86.0052 9.33594 85.5104 9.1875 84.9531 9.1875C84.1198 9.1875 83.4401 9.51562 82.9141 10.1719C82.388 10.8229 82.125 11.6771 82.125 12.7344V12.9062ZM97.2422 15.6562L99.7109 8.54688H100.719L97.1094 18.4375L96.9219 18.875C96.4583 19.901 95.7422 20.4141 94.7734 20.4141C94.5495 20.4141 94.3099 20.3776 94.0547 20.3047L94.0469 19.5312L94.5312 19.5781C94.9896 19.5781 95.3594 19.4635 95.6406 19.2344C95.9271 19.0104 96.1693 18.6224 96.3672 18.0703L96.7812 16.9297L93.5938 8.54688H94.6172L97.2422 15.6562ZM101.531 12.6484C101.531 11.8359 101.688 11.1042 102 10.4531C102.318 9.80208 102.763 9.29688 103.336 8.9375C103.914 8.57292 104.568 8.39062 105.297 8.39062C106.422 8.39062 107.333 8.78646 108.031 9.57812C108.729 10.3646 109.078 11.4089 109.078 12.7109V12.9062C109.078 13.724 108.919 14.4609 108.602 15.1172C108.289 15.7682 107.846 16.2708 107.273 16.625C106.701 16.9792 106.047 17.1562 105.312 17.1562C104.193 17.1562 103.281 16.763 102.578 15.9766C101.88 15.1849 101.531 14.138 101.531 12.8359V12.6484ZM102.469 12.9062C102.469 13.9167 102.729 14.7474 103.25 15.3984C103.776 16.0443 104.464 16.3672 105.312 16.3672C106.156 16.3672 106.839 16.0443 107.359 15.3984C107.885 14.7474 108.148 13.8906 108.148 12.8281V12.6484C108.148 12.0026 108.029 11.4115 107.789 10.875C107.549 10.3385 107.214 9.92448 106.781 9.63281C106.349 9.33594 105.854 9.1875 105.297 9.1875C104.464 9.1875 103.784 9.51562 103.258 10.1719C102.732 10.8229 102.469 11.6771 102.469 12.7344V12.9062ZM116.453 15.9297C115.891 16.7474 114.992 17.1562 113.758 17.1562C112.857 17.1562 112.172 16.8958 111.703 16.375C111.234 15.849 110.995 15.0729 110.984 14.0469V8.54688H111.914V13.9297C111.914 15.5391 112.565 16.3438 113.867 16.3438C115.221 16.3438 116.078 15.7839 116.438 14.6641V8.54688H117.375V17H116.469L116.453 15.9297ZM125.156 6.38281V8.54688H126.906V9.3125H125.156V14.9453C125.156 15.4141 125.24 15.763 125.406 15.9922C125.578 16.2214 125.862 16.3359 126.258 16.3359C126.414 16.3359 126.667 16.3099 127.016 16.2578L127.055 17.0234C126.81 17.112 126.477 17.1562 126.055 17.1562C125.414 17.1562 124.948 16.9714 124.656 16.6016C124.365 16.2266 124.219 15.6771 124.219 14.9531V9.3125H122.664V8.54688H124.219V6.38281H125.156ZM129.773 9.97656C130.081 9.47135 130.474 9.08073 130.953 8.80469C131.432 8.52865 131.956 8.39062 132.523 8.39062C133.43 8.39062 134.104 8.64583 134.547 9.15625C134.99 9.66667 135.214 10.4323 135.219 11.4531V17H134.289V11.4453C134.284 10.6901 134.122 10.1276 133.805 9.75781C133.492 9.38802 132.99 9.20312 132.297 9.20312C131.719 9.20312 131.206 9.38542 130.758 9.75C130.315 10.1094 129.987 10.5964 129.773 11.2109V17H128.844V5H129.773V9.97656ZM138.672 17H137.734V8.54688H138.672V17ZM137.57 6.10156C137.57 5.92448 137.628 5.77604 137.742 5.65625C137.857 5.53125 138.013 5.46875 138.211 5.46875C138.409 5.46875 138.565 5.53125 138.68 5.65625C138.799 5.77604 138.859 5.92448 138.859 6.10156C138.859 6.27865 138.799 6.42708 138.68 6.54688C138.565 6.66667 138.409 6.72656 138.211 6.72656C138.013 6.72656 137.857 6.66667 137.742 6.54688C137.628 6.42708 137.57 6.27865 137.57 6.10156ZM142.109 8.54688L142.141 9.99219C142.458 9.47135 142.854 9.07552 143.328 8.80469C143.802 8.52865 144.326 8.39062 144.898 8.39062C145.805 8.39062 146.479 8.64583 146.922 9.15625C147.365 9.66667 147.589 10.4323 147.594 11.4531V17H146.664V11.4453C146.659 10.6901 146.497 10.1276 146.18 9.75781C145.867 9.38802 145.365 9.20312 144.672 9.20312C144.094 9.20312 143.581 9.38542 143.133 9.75C142.69 10.1094 142.362 10.5964 142.148 11.2109V17H141.219V8.54688H142.109ZM152.023 12.7422L150.953 13.7734V17H150.016V5H150.953V12.6797L151.836 11.7266L155.07 8.54688H156.25L152.664 12.1094L156.562 17H155.445L152.023 12.7422ZM163.203 6.38281V8.54688H164.953V9.3125H163.203V14.9453C163.203 15.4141 163.286 15.763 163.453 15.9922C163.625 16.2214 163.909 16.3359 164.305 16.3359C164.461 16.3359 164.714 16.3099 165.062 16.2578L165.102 17.0234C164.857 17.112 164.523 17.1562 164.102 17.1562C163.461 17.1562 162.995 16.9714 162.703 16.6016C162.411 16.2266 162.266 15.6771 162.266 14.9531V9.3125H160.711V8.54688H162.266V6.38281H163.203ZM167.82 9.97656C168.128 9.47135 168.521 9.08073 169 8.80469C169.479 8.52865 170.003 8.39062 170.57 8.39062C171.477 8.39062 172.151 8.64583 172.594 9.15625C173.036 9.66667 173.26 10.4323 173.266 11.4531V17H172.336V11.4453C172.331 10.6901 172.169 10.1276 171.852 9.75781C171.539 9.38802 171.036 9.20312 170.344 9.20312C169.766 9.20312 169.253 9.38542 168.805 9.75C168.362 10.1094 168.034 10.5964 167.82 11.2109V17H166.891V5H167.82V9.97656ZM178.945 17.1562C178.227 17.1562 177.576 16.9792 176.992 16.625C176.414 16.2708 175.964 15.7786 175.641 15.1484C175.318 14.513 175.156 13.8021 175.156 13.0156V12.6797C175.156 11.8672 175.312 11.1354 175.625 10.4844C175.943 9.83333 176.383 9.32292 176.945 8.95312C177.508 8.57812 178.117 8.39062 178.773 8.39062C179.799 8.39062 180.612 8.74219 181.211 9.44531C181.815 10.1432 182.117 11.099 182.117 12.3125V12.8359H176.086V13.0156C176.086 13.974 176.359 14.7734 176.906 15.4141C177.458 16.0495 178.151 16.3672 178.984 16.3672C179.484 16.3672 179.924 16.276 180.305 16.0938C180.69 15.9115 181.039 15.6198 181.352 15.2188L181.938 15.6641C181.25 16.6589 180.253 17.1562 178.945 17.1562ZM178.773 9.1875C178.07 9.1875 177.477 9.44531 176.992 9.96094C176.513 10.4766 176.221 11.1693 176.117 12.0391H181.188V11.9375C181.161 11.125 180.93 10.4635 180.492 9.95312C180.055 9.44271 179.482 9.1875 178.773 9.1875ZM194.625 12.8594C194.625 14.1771 194.333 15.224 193.75 16C193.167 16.7708 192.385 17.1562 191.406 17.1562C190.25 17.1562 189.365 16.75 188.75 15.9375V20.25H187.82V8.54688H188.688L188.734 9.74219C189.344 8.84115 190.227 8.39062 191.383 8.39062C192.393 8.39062 193.185 8.77344 193.758 9.53906C194.336 10.3047 194.625 11.3672 194.625 12.7266V12.8594ZM193.688 12.6953C193.688 11.6172 193.466 10.7656 193.023 10.1406C192.581 9.51562 191.964 9.20312 191.172 9.20312C190.599 9.20312 190.107 9.34115 189.695 9.61719C189.284 9.89323 188.969 10.2943 188.75 10.8203V14.875C188.974 15.3594 189.294 15.7292 189.711 15.9844C190.128 16.2396 190.62 16.3672 191.188 16.3672C191.974 16.3672 192.586 16.0547 193.023 15.4297C193.466 14.7995 193.688 13.888 193.688 12.6953ZM200.609 9.34375C200.411 9.30729 200.201 9.28906 199.977 9.28906C199.393 9.28906 198.898 9.45312 198.492 9.78125C198.091 10.1042 197.805 10.5755 197.633 11.1953V17H196.703V8.54688H197.617L197.633 9.89062C198.128 8.89062 198.922 8.39062 200.016 8.39062C200.276 8.39062 200.482 8.42448 200.633 8.49219L200.609 9.34375ZM201.422 12.6484C201.422 11.8359 201.578 11.1042 201.891 10.4531C202.208 9.80208 202.654 9.29688 203.227 8.9375C203.805 8.57292 204.458 8.39062 205.188 8.39062C206.312 8.39062 207.224 8.78646 207.922 9.57812C208.62 10.3646 208.969 11.4089 208.969 12.7109V12.9062C208.969 13.724 208.81 14.4609 208.492 15.1172C208.18 15.7682 207.737 16.2708 207.164 16.625C206.591 16.9792 205.938 17.1562 205.203 17.1562C204.083 17.1562 203.172 16.763 202.469 15.9766C201.771 15.1849 201.422 14.138 201.422 12.8359V12.6484ZM202.359 12.9062C202.359 13.9167 202.62 14.7474 203.141 15.3984C203.667 16.0443 204.354 16.3672 205.203 16.3672C206.047 16.3672 206.729 16.0443 207.25 15.3984C207.776 14.7474 208.039 13.8906 208.039 12.8281V12.6484C208.039 12.0026 207.919 11.4115 207.68 10.875C207.44 10.3385 207.104 9.92448 206.672 9.63281C206.24 9.33594 205.745 9.1875 205.188 9.1875C204.354 9.1875 203.674 9.51562 203.148 10.1719C202.622 10.8229 202.359 11.6771 202.359 12.7344V12.9062ZM214.031 16.3672C214.682 16.3672 215.227 16.1849 215.664 15.8203C216.107 15.4505 216.346 14.974 216.383 14.3906H217.281C217.255 14.9062 217.094 15.3776 216.797 15.8047C216.5 16.2266 216.104 16.5573 215.609 16.7969C215.12 17.0365 214.594 17.1562 214.031 17.1562C212.922 17.1562 212.042 16.7708 211.391 16C210.745 15.2292 210.422 14.1927 210.422 12.8906V12.6094C210.422 11.776 210.568 11.0391 210.859 10.3984C211.151 9.75781 211.568 9.26302 212.109 8.91406C212.656 8.5651 213.294 8.39062 214.023 8.39062C214.951 8.39062 215.714 8.66667 216.312 9.21875C216.917 9.77083 217.24 10.4974 217.281 11.3984H216.383C216.341 10.737 216.102 10.2031 215.664 9.79688C215.232 9.39062 214.685 9.1875 214.023 9.1875C213.18 9.1875 212.523 9.49219 212.055 10.1016C211.591 10.7109 211.359 11.5651 211.359 12.6641V12.9375C211.359 14.0156 211.591 14.8568 212.055 15.4609C212.523 16.0651 213.182 16.3672 214.031 16.3672ZM222.43 17.1562C221.711 17.1562 221.06 16.9792 220.477 16.625C219.898 16.2708 219.448 15.7786 219.125 15.1484C218.802 14.513 218.641 13.8021 218.641 13.0156V12.6797C218.641 11.8672 218.797 11.1354 219.109 10.4844C219.427 9.83333 219.867 9.32292 220.43 8.95312C220.992 8.57812 221.602 8.39062 222.258 8.39062C223.284 8.39062 224.096 8.74219 224.695 9.44531C225.299 10.1432 225.602 11.099 225.602 12.3125V12.8359H219.57V13.0156C219.57 13.974 219.844 14.7734 220.391 15.4141C220.943 16.0495 221.635 16.3672 222.469 16.3672C222.969 16.3672 223.409 16.276 223.789 16.0938C224.174 15.9115 224.523 15.6198 224.836 15.2188L225.422 15.6641C224.734 16.6589 223.737 17.1562 222.43 17.1562ZM222.258 9.1875C221.555 9.1875 220.961 9.44531 220.477 9.96094C219.997 10.4766 219.706 11.1693 219.602 12.0391H224.672V11.9375C224.646 11.125 224.414 10.4635 223.977 9.95312C223.539 9.44271 222.966 9.1875 222.258 9.1875ZM232.484 14.8516C232.484 14.388 232.297 14.0156 231.922 13.7344C231.552 13.4531 230.992 13.2344 230.242 13.0781C229.492 12.9167 228.909 12.7344 228.492 12.5312C228.081 12.3229 227.773 12.0703 227.57 11.7734C227.372 11.4766 227.273 11.1172 227.273 10.6953C227.273 10.0286 227.552 9.47917 228.109 9.04688C228.667 8.60938 229.38 8.39062 230.25 8.39062C231.193 8.39062 231.948 8.625 232.516 9.09375C233.089 9.55729 233.375 10.1641 233.375 10.9141H232.438C232.438 10.4193 232.229 10.0078 231.812 9.67969C231.401 9.35156 230.88 9.1875 230.25 9.1875C229.635 9.1875 229.141 9.32552 228.766 9.60156C228.396 9.8724 228.211 10.2266 228.211 10.6641C228.211 11.0859 228.365 11.4141 228.672 11.6484C228.984 11.8776 229.549 12.0885 230.367 12.2812C231.19 12.474 231.805 12.6797 232.211 12.8984C232.622 13.1172 232.927 13.3802 233.125 13.6875C233.323 13.9948 233.422 14.3672 233.422 14.8047C233.422 15.5182 233.133 16.0885 232.555 16.5156C231.982 16.9427 231.232 17.1562 230.305 17.1562C229.32 17.1562 228.521 16.9193 227.906 16.4453C227.297 15.9661 226.992 15.362 226.992 14.6328H227.93C227.966 15.1797 228.195 15.6068 228.617 15.9141C229.044 16.2161 229.607 16.3672 230.305 16.3672C230.956 16.3672 231.482 16.224 231.883 15.9375C232.284 15.651 232.484 15.2891 232.484 14.8516ZM240.594 14.8516C240.594 14.388 240.406 14.0156 240.031 13.7344C239.661 13.4531 239.102 13.2344 238.352 13.0781C237.602 12.9167 237.018 12.7344 236.602 12.5312C236.19 12.3229 235.883 12.0703 235.68 11.7734C235.482 11.4766 235.383 11.1172 235.383 10.6953C235.383 10.0286 235.661 9.47917 236.219 9.04688C236.776 8.60938 237.49 8.39062 238.359 8.39062C239.302 8.39062 240.057 8.625 240.625 9.09375C241.198 9.55729 241.484 10.1641 241.484 10.9141H240.547C240.547 10.4193 240.339 10.0078 239.922 9.67969C239.51 9.35156 238.99 9.1875 238.359 9.1875C237.745 9.1875 237.25 9.32552 236.875 9.60156C236.505 9.8724 236.32 10.2266 236.32 10.6641C236.32 11.0859 236.474 11.4141 236.781 11.6484C237.094 11.8776 237.659 12.0885 238.477 12.2812C239.299 12.474 239.914 12.6797 240.32 12.8984C240.732 13.1172 241.036 13.3802 241.234 13.6875C241.432 13.9948 241.531 14.3672 241.531 14.8047C241.531 15.5182 241.242 16.0885 240.664 16.5156C240.091 16.9427 239.341 17.1562 238.414 17.1562C237.43 17.1562 236.63 16.9193 236.016 16.4453C235.406 15.9661 235.102 15.362 235.102 14.6328H236.039C236.076 15.1797 236.305 15.6068 236.727 15.9141C237.154 16.2161 237.716 16.3672 238.414 16.3672C239.065 16.3672 239.591 16.224 239.992 15.9375C240.393 15.651 240.594 15.2891 240.594 14.8516ZM247.016 12.6484C247.016 11.8359 247.172 11.1042 247.484 10.4531C247.802 9.80208 248.247 9.29688 248.82 8.9375C249.398 8.57292 250.052 8.39062 250.781 8.39062C251.906 8.39062 252.818 8.78646 253.516 9.57812C254.214 10.3646 254.562 11.4089 254.562 12.7109V12.9062C254.562 13.724 254.404 14.4609 254.086 15.1172C253.773 15.7682 253.331 16.2708 252.758 16.625C252.185 16.9792 251.531 17.1562 250.797 17.1562C249.677 17.1562 248.766 16.763 248.062 15.9766C247.365 15.1849 247.016 14.138 247.016 12.8359V12.6484ZM247.953 12.9062C247.953 13.9167 248.214 14.7474 248.734 15.3984C249.26 16.0443 249.948 16.3672 250.797 16.3672C251.641 16.3672 252.323 16.0443 252.844 15.3984C253.37 14.7474 253.633 13.8906 253.633 12.8281V12.6484C253.633 12.0026 253.513 11.4115 253.273 10.875C253.034 10.3385 252.698 9.92448 252.266 9.63281C251.833 9.33594 251.339 9.1875 250.781 9.1875C249.948 9.1875 249.268 9.51562 248.742 10.1719C248.216 10.8229 247.953 11.6771 247.953 12.7344V12.9062ZM257.172 17V9.3125H255.773V8.54688H257.172V7.52344C257.172 6.65885 257.391 5.99479 257.828 5.53125C258.271 5.06771 258.885 4.83594 259.672 4.83594C260.026 4.83594 260.357 4.88021 260.664 4.96875L260.594 5.75C260.333 5.6875 260.049 5.65625 259.742 5.65625C259.227 5.65625 258.826 5.81771 258.539 6.14062C258.253 6.45833 258.109 6.91146 258.109 7.5V8.54688H260.125V9.3125H258.109V17H257.172ZM266.25 17V9.3125H264.844V8.54688H266.25V7.67969C266.25 6.77865 266.495 6.08073 266.984 5.58594C267.474 5.08594 268.164 4.83594 269.055 4.83594C269.753 4.83594 270.471 4.98958 271.211 5.29688L271.055 6.10156C270.419 5.82552 269.773 5.6875 269.117 5.6875C267.831 5.6875 267.188 6.35677 267.188 7.69531V8.54688H269.164V9.3125H267.188V17H266.25ZM271.719 17H270.781V8.54688H271.719V17ZM275.172 8.54688L275.203 9.99219C275.521 9.47135 275.917 9.07552 276.391 8.80469C276.865 8.52865 277.388 8.39062 277.961 8.39062C278.867 8.39062 279.542 8.64583 279.984 9.15625C280.427 9.66667 280.651 10.4323 280.656 11.4531V17H279.727V11.4453C279.721 10.6901 279.56 10.1276 279.242 9.75781C278.93 9.38802 278.427 9.20312 277.734 9.20312C277.156 9.20312 276.643 9.38542 276.195 9.75C275.753 10.1094 275.424 10.5964 275.211 11.2109V17H274.281V8.54688H275.172ZM282.703 12.6953C282.703 11.3828 282.995 10.3385 283.578 9.5625C284.167 8.78125 284.964 8.39062 285.969 8.39062C287.109 8.39062 287.979 8.84115 288.578 9.74219V5H289.508V17H288.633L288.594 15.875C287.995 16.7292 287.115 17.1562 285.953 17.1562C284.979 17.1562 284.193 16.7656 283.594 15.9844C283 15.1979 282.703 14.138 282.703 12.8047V12.6953ZM283.648 12.8594C283.648 13.9375 283.865 14.7891 284.297 15.4141C284.729 16.0339 285.339 16.3438 286.125 16.3438C287.276 16.3438 288.094 15.8359 288.578 14.8203V10.8516C288.094 9.7526 287.281 9.20312 286.141 9.20312C285.354 9.20312 284.742 9.51302 284.305 10.1328C283.867 10.7474 283.648 11.6562 283.648 12.8594ZM293.016 17H292.078V8.54688H293.016V17ZM291.914 6.10156C291.914 5.92448 291.971 5.77604 292.086 5.65625C292.201 5.53125 292.357 5.46875 292.555 5.46875C292.753 5.46875 292.909 5.53125 293.023 5.65625C293.143 5.77604 293.203 5.92448 293.203 6.10156C293.203 6.27865 293.143 6.42708 293.023 6.54688C292.909 6.66667 292.753 6.72656 292.555 6.72656C292.357 6.72656 292.201 6.66667 292.086 6.54688C291.971 6.42708 291.914 6.27865 291.914 6.10156ZM296.453 8.54688L296.484 9.99219C296.802 9.47135 297.198 9.07552 297.672 8.80469C298.146 8.52865 298.669 8.39062 299.242 8.39062C300.148 8.39062 300.823 8.64583 301.266 9.15625C301.708 9.66667 301.932 10.4323 301.938 11.4531V17H301.008V11.4453C301.003 10.6901 300.841 10.1276 300.523 9.75781C300.211 9.38802 299.708 9.20312 299.016 9.20312C298.438 9.20312 297.924 9.38542 297.477 9.75C297.034 10.1094 296.706 10.5964 296.492 11.2109V17H295.562V8.54688H296.453ZM303.984 12.6953C303.984 11.3724 304.276 10.3255 304.859 9.55469C305.448 8.77865 306.245 8.39062 307.25 8.39062C308.401 8.39062 309.276 8.84896 309.875 9.76562L309.922 8.54688H310.797V16.8281C310.797 17.9167 310.492 18.7786 309.883 19.4141C309.273 20.0495 308.448 20.3672 307.406 20.3672C306.818 20.3672 306.255 20.2344 305.719 19.9688C305.188 19.7083 304.768 19.3594 304.461 18.9219L304.984 18.3594C305.646 19.1719 306.432 19.5781 307.344 19.5781C308.125 19.5781 308.734 19.3464 309.172 18.8828C309.609 18.4245 309.836 17.7865 309.852 16.9688V15.9062C309.253 16.7396 308.38 17.1562 307.234 17.1562C306.255 17.1562 305.469 16.7656 304.875 15.9844C304.281 15.2031 303.984 14.1484 303.984 12.8203V12.6953ZM304.93 12.8594C304.93 13.9375 305.146 14.7891 305.578 15.4141C306.01 16.0339 306.62 16.3438 307.406 16.3438C308.557 16.3438 309.372 15.8281 309.852 14.7969V10.8672C309.633 10.3255 309.318 9.91406 308.906 9.63281C308.495 9.34635 308 9.20312 307.422 9.20312C306.635 9.20312 306.023 9.51302 305.586 10.1328C305.148 10.7474 304.93 11.6562 304.93 12.8594ZM318.172 17H317.234V8.54688H318.172V17ZM317.07 6.10156C317.07 5.92448 317.128 5.77604 317.242 5.65625C317.357 5.53125 317.513 5.46875 317.711 5.46875C317.909 5.46875 318.065 5.53125 318.18 5.65625C318.299 5.77604 318.359 5.92448 318.359 6.10156C318.359 6.27865 318.299 6.42708 318.18 6.54688C318.065 6.66667 317.909 6.72656 317.711 6.72656C317.513 6.72656 317.357 6.66667 317.242 6.54688C317.128 6.42708 317.07 6.27865 317.07 6.10156ZM321.609 8.54688L321.641 9.99219C321.958 9.47135 322.354 9.07552 322.828 8.80469C323.302 8.52865 323.826 8.39062 324.398 8.39062C325.305 8.39062 325.979 8.64583 326.422 9.15625C326.865 9.66667 327.089 10.4323 327.094 11.4531V17H326.164V11.4453C326.159 10.6901 325.997 10.1276 325.68 9.75781C325.367 9.38802 324.865 9.20312 324.172 9.20312C323.594 9.20312 323.081 9.38542 322.633 9.75C322.19 10.1094 321.862 10.5964 321.648 11.2109V17H320.719V8.54688H321.609ZM330.188 17V9.3125H328.789V8.54688H330.188V7.52344C330.188 6.65885 330.406 5.99479 330.844 5.53125C331.286 5.06771 331.901 4.83594 332.688 4.83594C333.042 4.83594 333.372 4.88021 333.68 4.96875L333.609 5.75C333.349 5.6875 333.065 5.65625 332.758 5.65625C332.242 5.65625 331.841 5.81771 331.555 6.14062C331.268 6.45833 331.125 6.91146 331.125 7.5V8.54688H333.141V9.3125H331.125V17H330.188ZM334.297 12.6484C334.297 11.8359 334.453 11.1042 334.766 10.4531C335.083 9.80208 335.529 9.29688 336.102 8.9375C336.68 8.57292 337.333 8.39062 338.062 8.39062C339.188 8.39062 340.099 8.78646 340.797 9.57812C341.495 10.3646 341.844 11.4089 341.844 12.7109V12.9062C341.844 13.724 341.685 14.4609 341.367 15.1172C341.055 15.7682 340.612 16.2708 340.039 16.625C339.466 16.9792 338.812 17.1562 338.078 17.1562C336.958 17.1562 336.047 16.763 335.344 15.9766C334.646 15.1849 334.297 14.138 334.297 12.8359V12.6484ZM335.234 12.9062C335.234 13.9167 335.495 14.7474 336.016 15.3984C336.542 16.0443 337.229 16.3672 338.078 16.3672C338.922 16.3672 339.604 16.0443 340.125 15.3984C340.651 14.7474 340.914 13.8906 340.914 12.8281V12.6484C340.914 12.0026 340.794 11.4115 340.555 10.875C340.315 10.3385 339.979 9.92448 339.547 9.63281C339.115 9.33594 338.62 9.1875 338.062 9.1875C337.229 9.1875 336.549 9.51562 336.023 10.1719C335.497 10.8229 335.234 11.6771 335.234 12.7344V12.9062ZM347.688 9.34375C347.49 9.30729 347.279 9.28906 347.055 9.28906C346.471 9.28906 345.977 9.45312 345.57 9.78125C345.169 10.1042 344.883 10.5755 344.711 11.1953V17H343.781V8.54688H344.695L344.711 9.89062C345.206 8.89062 346 8.39062 347.094 8.39062C347.354 8.39062 347.56 8.42448 347.711 8.49219L347.688 9.34375ZM350.023 8.54688L350.055 9.92188C350.367 9.41146 350.758 9.02865 351.227 8.77344C351.695 8.51823 352.216 8.39062 352.789 8.39062C354.122 8.39062 354.969 8.9375 355.328 10.0312C355.63 9.50521 356.034 9.10156 356.539 8.82031C357.044 8.53385 357.602 8.39062 358.211 8.39062C360.023 8.39062 360.948 9.38021 360.984 11.3594V17H360.047V11.4297C360.042 10.6745 359.878 10.1146 359.555 9.75C359.237 9.38542 358.716 9.20312 357.992 9.20312C357.32 9.21354 356.753 9.43229 356.289 9.85938C355.826 10.2812 355.568 10.7969 355.516 11.4062V17H354.578V11.3594C354.573 10.6354 354.401 10.0964 354.062 9.74219C353.729 9.38281 353.214 9.20312 352.516 9.20312C351.927 9.20312 351.422 9.3724 351 9.71094C350.578 10.0443 350.266 10.5417 350.062 11.2031V17H349.125V8.54688H350.023ZM368.695 17C368.602 16.7344 368.542 16.3411 368.516 15.8203C368.188 16.2474 367.768 16.5781 367.258 16.8125C366.753 17.0417 366.216 17.1562 365.648 17.1562C364.836 17.1562 364.177 16.9297 363.672 16.4766C363.172 16.0234 362.922 15.4505 362.922 14.7578C362.922 13.9349 363.263 13.2839 363.945 12.8047C364.633 12.3255 365.589 12.0859 366.812 12.0859H368.508V11.125C368.508 10.5208 368.32 10.0469 367.945 9.70312C367.576 9.35417 367.034 9.17969 366.32 9.17969C365.669 9.17969 365.13 9.34635 364.703 9.67969C364.276 10.013 364.062 10.4141 364.062 10.8828L363.125 10.875C363.125 10.2031 363.438 9.6224 364.062 9.13281C364.688 8.63802 365.456 8.39062 366.367 8.39062C367.31 8.39062 368.052 8.6276 368.594 9.10156C369.141 9.57031 369.422 10.2266 369.438 11.0703V15.0703C369.438 15.888 369.523 16.5 369.695 16.9062V17H368.695ZM365.758 16.3281C366.383 16.3281 366.94 16.1771 367.43 15.875C367.924 15.5729 368.284 15.1693 368.508 14.6641V12.8047H366.836C365.904 12.8151 365.174 12.987 364.648 13.3203C364.122 13.6484 363.859 14.1016 363.859 14.6797C363.859 15.1536 364.034 15.5469 364.383 15.8594C364.737 16.1719 365.195 16.3281 365.758 16.3281ZM373.391 6.38281V8.54688H375.141V9.3125H373.391V14.9453C373.391 15.4141 373.474 15.763 373.641 15.9922C373.812 16.2214 374.096 16.3359 374.492 16.3359C374.648 16.3359 374.901 16.3099 375.25 16.2578L375.289 17.0234C375.044 17.112 374.711 17.1562 374.289 17.1562C373.648 17.1562 373.182 16.9714 372.891 16.6016C372.599 16.2266 372.453 15.6771 372.453 14.9531V9.3125H370.898V8.54688H372.453V6.38281H373.391ZM378.125 17H377.188V8.54688H378.125V17ZM377.023 6.10156C377.023 5.92448 377.081 5.77604 377.195 5.65625C377.31 5.53125 377.466 5.46875 377.664 5.46875C377.862 5.46875 378.018 5.53125 378.133 5.65625C378.253 5.77604 378.312 5.92448 378.312 6.10156C378.312 6.27865 378.253 6.42708 378.133 6.54688C378.018 6.66667 377.862 6.72656 377.664 6.72656C377.466 6.72656 377.31 6.66667 377.195 6.54688C377.081 6.42708 377.023 6.27865 377.023 6.10156ZM380.156 12.6484C380.156 11.8359 380.312 11.1042 380.625 10.4531C380.943 9.80208 381.388 9.29688 381.961 8.9375C382.539 8.57292 383.193 8.39062 383.922 8.39062C385.047 8.39062 385.958 8.78646 386.656 9.57812C387.354 10.3646 387.703 11.4089 387.703 12.7109V12.9062C387.703 13.724 387.544 14.4609 387.227 15.1172C386.914 15.7682 386.471 16.2708 385.898 16.625C385.326 16.9792 384.672 17.1562 383.938 17.1562C382.818 17.1562 381.906 16.763 381.203 15.9766C380.505 15.1849 380.156 14.138 380.156 12.8359V12.6484ZM381.094 12.9062C381.094 13.9167 381.354 14.7474 381.875 15.3984C382.401 16.0443 383.089 16.3672 383.938 16.3672C384.781 16.3672 385.464 16.0443 385.984 15.3984C386.51 14.7474 386.773 13.8906 386.773 12.8281V12.6484C386.773 12.0026 386.654 11.4115 386.414 10.875C386.174 10.3385 385.839 9.92448 385.406 9.63281C384.974 9.33594 384.479 9.1875 383.922 9.1875C383.089 9.1875 382.409 9.51562 381.883 10.1719C381.357 10.8229 381.094 11.6771 381.094 12.7344V12.9062ZM390.531 8.54688L390.562 9.99219C390.88 9.47135 391.276 9.07552 391.75 8.80469C392.224 8.52865 392.747 8.39062 393.32 8.39062C394.227 8.39062 394.901 8.64583 395.344 9.15625C395.786 9.66667 396.01 10.4323 396.016 11.4531V17H395.086V11.4453C395.081 10.6901 394.919 10.1276 394.602 9.75781C394.289 9.38802 393.786 9.20312 393.094 9.20312C392.516 9.20312 392.003 9.38542 391.555 9.75C391.112 10.1094 390.784 10.5964 390.57 11.2109V17H389.641V8.54688H390.531ZM403.375 17H402.438V8.54688H403.375V17ZM402.273 6.10156C402.273 5.92448 402.331 5.77604 402.445 5.65625C402.56 5.53125 402.716 5.46875 402.914 5.46875C403.112 5.46875 403.268 5.53125 403.383 5.65625C403.503 5.77604 403.562 5.92448 403.562 6.10156C403.562 6.27865 403.503 6.42708 403.383 6.54688C403.268 6.66667 403.112 6.72656 402.914 6.72656C402.716 6.72656 402.56 6.66667 402.445 6.54688C402.331 6.42708 402.273 6.27865 402.273 6.10156ZM410.984 14.8516C410.984 14.388 410.797 14.0156 410.422 13.7344C410.052 13.4531 409.492 13.2344 408.742 13.0781C407.992 12.9167 407.409 12.7344 406.992 12.5312C406.581 12.3229 406.273 12.0703 406.07 11.7734C405.872 11.4766 405.773 11.1172 405.773 10.6953C405.773 10.0286 406.052 9.47917 406.609 9.04688C407.167 8.60938 407.88 8.39062 408.75 8.39062C409.693 8.39062 410.448 8.625 411.016 9.09375C411.589 9.55729 411.875 10.1641 411.875 10.9141H410.938C410.938 10.4193 410.729 10.0078 410.312 9.67969C409.901 9.35156 409.38 9.1875 408.75 9.1875C408.135 9.1875 407.641 9.32552 407.266 9.60156C406.896 9.8724 406.711 10.2266 406.711 10.6641C406.711 11.0859 406.865 11.4141 407.172 11.6484C407.484 11.8776 408.049 12.0885 408.867 12.2812C409.69 12.474 410.305 12.6797 410.711 12.8984C411.122 13.1172 411.427 13.3802 411.625 13.6875C411.823 13.9948 411.922 14.3672 411.922 14.8047C411.922 15.5182 411.633 16.0885 411.055 16.5156C410.482 16.9427 409.732 17.1562 408.805 17.1562C407.82 17.1562 407.021 16.9193 406.406 16.4453C405.797 15.9661 405.492 15.362 405.492 14.6328H406.43C406.466 15.1797 406.695 15.6068 407.117 15.9141C407.544 16.2161 408.107 16.3672 408.805 16.3672C409.456 16.3672 409.982 16.224 410.383 15.9375C410.784 15.651 410.984 15.2891 410.984 14.8516ZM417.547 12.6953C417.547 11.3724 417.839 10.3255 418.422 9.55469C419.01 8.77865 419.812 8.39062 420.828 8.39062C421.969 8.39062 422.836 8.82552 423.43 9.69531L423.477 8.54688H424.352V20.25H423.414V15.9531C422.799 16.7552 421.932 17.1562 420.812 17.1562C419.823 17.1562 419.031 16.7656 418.438 15.9844C417.844 15.2031 417.547 14.1484 417.547 12.8203V12.6953ZM418.492 12.8594C418.492 13.9531 418.711 14.8125 419.148 15.4375C419.591 16.0573 420.203 16.3672 420.984 16.3672C422.104 16.3672 422.914 15.8802 423.414 14.9062V10.7656C423.18 10.2604 422.854 9.8724 422.438 9.60156C422.026 9.32552 421.547 9.1875 421 9.1875C420.214 9.1875 419.599 9.5 419.156 10.125C418.714 10.7448 418.492 11.6562 418.492 12.8594ZM432.281 15.9297C431.719 16.7474 430.82 17.1562 429.586 17.1562C428.685 17.1562 428 16.8958 427.531 16.375C427.062 15.849 426.823 15.0729 426.812 14.0469V8.54688H427.742V13.9297C427.742 15.5391 428.393 16.3438 429.695 16.3438C431.049 16.3438 431.906 15.7839 432.266 14.6641V8.54688H433.203V17H432.297L432.281 15.9297ZM436.688 17H435.75V8.54688H436.688V17ZM435.586 6.10156C435.586 5.92448 435.643 5.77604 435.758 5.65625C435.872 5.53125 436.029 5.46875 436.227 5.46875C436.424 5.46875 436.581 5.53125 436.695 5.65625C436.815 5.77604 436.875 5.92448 436.875 6.10156C436.875 6.27865 436.815 6.42708 436.695 6.54688C436.581 6.66667 436.424 6.72656 436.227 6.72656C436.029 6.72656 435.872 6.66667 435.758 6.54688C435.643 6.42708 435.586 6.27865 435.586 6.10156ZM442.359 16.3672C443.01 16.3672 443.555 16.1849 443.992 15.8203C444.435 15.4505 444.674 14.974 444.711 14.3906H445.609C445.583 14.9062 445.422 15.3776 445.125 15.8047C444.828 16.2266 444.432 16.5573 443.938 16.7969C443.448 17.0365 442.922 17.1562 442.359 17.1562C441.25 17.1562 440.37 16.7708 439.719 16C439.073 15.2292 438.75 14.1927 438.75 12.8906V12.6094C438.75 11.776 438.896 11.0391 439.188 10.3984C439.479 9.75781 439.896 9.26302 440.438 8.91406C440.984 8.5651 441.622 8.39062 442.352 8.39062C443.279 8.39062 444.042 8.66667 444.641 9.21875C445.245 9.77083 445.568 10.4974 445.609 11.3984H444.711C444.669 10.737 444.43 10.2031 443.992 9.79688C443.56 9.39062 443.013 9.1875 442.352 9.1875C441.508 9.1875 440.852 9.49219 440.383 10.1016C439.919 10.7109 439.688 11.5651 439.688 12.6641V12.9375C439.688 14.0156 439.919 14.8568 440.383 15.4609C440.852 16.0651 441.51 16.3672 442.359 16.3672ZM449.492 12.7422L448.422 13.7734V17H447.484V5H448.422V12.6797L449.305 11.7266L452.539 8.54688H453.719L450.133 12.1094L454.031 17H452.914L449.492 12.7422ZM464.555 17C464.461 16.7344 464.401 16.3411 464.375 15.8203C464.047 16.2474 463.628 16.5781 463.117 16.8125C462.612 17.0417 462.076 17.1562 461.508 17.1562C460.695 17.1562 460.036 16.9297 459.531 16.4766C459.031 16.0234 458.781 15.4505 458.781 14.7578C458.781 13.9349 459.122 13.2839 459.805 12.8047C460.492 12.3255 461.448 12.0859 462.672 12.0859H464.367V11.125C464.367 10.5208 464.18 10.0469 463.805 9.70312C463.435 9.35417 462.893 9.17969 462.18 9.17969C461.529 9.17969 460.99 9.34635 460.562 9.67969C460.135 10.013 459.922 10.4141 459.922 10.8828L458.984 10.875C458.984 10.2031 459.297 9.6224 459.922 9.13281C460.547 8.63802 461.315 8.39062 462.227 8.39062C463.169 8.39062 463.911 8.6276 464.453 9.10156C465 9.57031 465.281 10.2266 465.297 11.0703V15.0703C465.297 15.888 465.383 16.5 465.555 16.9062V17H464.555ZM461.617 16.3281C462.242 16.3281 462.799 16.1771 463.289 15.875C463.784 15.5729 464.143 15.1693 464.367 14.6641V12.8047H462.695C461.763 12.8151 461.034 12.987 460.508 13.3203C459.982 13.6484 459.719 14.1016 459.719 14.6797C459.719 15.1536 459.893 15.5469 460.242 15.8594C460.596 16.1719 461.055 16.3281 461.617 16.3281ZM468.688 8.54688L468.719 9.99219C469.036 9.47135 469.432 9.07552 469.906 8.80469C470.38 8.52865 470.904 8.39062 471.477 8.39062C472.383 8.39062 473.057 8.64583 473.5 9.15625C473.943 9.66667 474.167 10.4323 474.172 11.4531V17H473.242V11.4453C473.237 10.6901 473.076 10.1276 472.758 9.75781C472.445 9.38802 471.943 9.20312 471.25 9.20312C470.672 9.20312 470.159 9.38542 469.711 9.75C469.268 10.1094 468.94 10.5964 468.727 11.2109V17H467.797V8.54688H468.688ZM476.219 12.6953C476.219 11.3828 476.51 10.3385 477.094 9.5625C477.682 8.78125 478.479 8.39062 479.484 8.39062C480.625 8.39062 481.495 8.84115 482.094 9.74219V5H483.023V17H482.148L482.109 15.875C481.51 16.7292 480.63 17.1562 479.469 17.1562C478.495 17.1562 477.708 16.7656 477.109 15.9844C476.516 15.1979 476.219 14.138 476.219 12.8047V12.6953ZM477.164 12.8594C477.164 13.9375 477.38 14.7891 477.812 15.4141C478.245 16.0339 478.854 16.3438 479.641 16.3438C480.792 16.3438 481.609 15.8359 482.094 14.8203V10.8516C481.609 9.7526 480.797 9.20312 479.656 9.20312C478.87 9.20312 478.258 9.51302 477.82 10.1328C477.383 10.7474 477.164 11.6562 477.164 12.8594ZM492.648 17.1562C491.93 17.1562 491.279 16.9792 490.695 16.625C490.117 16.2708 489.667 15.7786 489.344 15.1484C489.021 14.513 488.859 13.8021 488.859 13.0156V12.6797C488.859 11.8672 489.016 11.1354 489.328 10.4844C489.646 9.83333 490.086 9.32292 490.648 8.95312C491.211 8.57812 491.82 8.39062 492.477 8.39062C493.503 8.39062 494.315 8.74219 494.914 9.44531C495.518 10.1432 495.82 11.099 495.82 12.3125V12.8359H489.789V13.0156C489.789 13.974 490.062 14.7734 490.609 15.4141C491.161 16.0495 491.854 16.3672 492.688 16.3672C493.188 16.3672 493.628 16.276 494.008 16.0938C494.393 15.9115 494.742 15.6198 495.055 15.2188L495.641 15.6641C494.953 16.6589 493.956 17.1562 492.648 17.1562ZM492.477 9.1875C491.773 9.1875 491.18 9.44531 490.695 9.96094C490.216 10.4766 489.924 11.1693 489.82 12.0391H494.891V11.9375C494.865 11.125 494.633 10.4635 494.195 9.95312C493.758 9.44271 493.185 9.1875 492.477 9.1875ZM498.312 17V9.3125H496.914V8.54688H498.312V7.52344C498.312 6.65885 498.531 5.99479 498.969 5.53125C499.411 5.06771 500.026 4.83594 500.812 4.83594C501.167 4.83594 501.497 4.88021 501.805 4.96875L501.734 5.75C501.474 5.6875 501.19 5.65625 500.883 5.65625C500.367 5.65625 499.966 5.81771 499.68 6.14062C499.393 6.45833 499.25 6.91146 499.25 7.5V8.54688H502.852V7.67969C502.852 6.77865 503.096 6.08073 503.586 5.58594C504.076 5.08594 504.766 4.83594 505.656 4.83594C506.354 4.83594 507.073 4.98958 507.812 5.29688L507.656 6.10156C507.005 5.82552 506.357 5.6875 505.711 5.6875C504.424 5.6875 503.781 6.36198 503.781 7.71094V8.54688H505.766V9.3125H503.781V17H502.852V9.3125H499.25V17H498.312ZM508.32 17H507.383V8.54688H508.32V17ZM514.016 16.3672C514.667 16.3672 515.211 16.1849 515.648 15.8203C516.091 15.4505 516.331 14.974 516.367 14.3906H517.266C517.24 14.9062 517.078 15.3776 516.781 15.8047C516.484 16.2266 516.089 16.5573 515.594 16.7969C515.104 17.0365 514.578 17.1562 514.016 17.1562C512.906 17.1562 512.026 16.7708 511.375 16C510.729 15.2292 510.406 14.1927 510.406 12.8906V12.6094C510.406 11.776 510.552 11.0391 510.844 10.3984C511.135 9.75781 511.552 9.26302 512.094 8.91406C512.641 8.5651 513.279 8.39062 514.008 8.39062C514.935 8.39062 515.698 8.66667 516.297 9.21875C516.901 9.77083 517.224 10.4974 517.266 11.3984H516.367C516.326 10.737 516.086 10.2031 515.648 9.79688C515.216 9.39062 514.669 9.1875 514.008 9.1875C513.164 9.1875 512.508 9.49219 512.039 10.1016C511.576 10.7109 511.344 11.5651 511.344 12.6641V12.9375C511.344 14.0156 511.576 14.8568 512.039 15.4609C512.508 16.0651 513.167 16.3672 514.016 16.3672ZM520.188 17H519.25V8.54688H520.188V17ZM519.086 6.10156C519.086 5.92448 519.143 5.77604 519.258 5.65625C519.372 5.53125 519.529 5.46875 519.727 5.46875C519.924 5.46875 520.081 5.53125 520.195 5.65625C520.315 5.77604 520.375 5.92448 520.375 6.10156C520.375 6.27865 520.315 6.42708 520.195 6.54688C520.081 6.66667 519.924 6.72656 519.727 6.72656C519.529 6.72656 519.372 6.66667 519.258 6.54688C519.143 6.42708 519.086 6.27865 519.086 6.10156ZM526.008 17.1562C525.289 17.1562 524.638 16.9792 524.055 16.625C523.477 16.2708 523.026 15.7786 522.703 15.1484C522.38 14.513 522.219 13.8021 522.219 13.0156V12.6797C522.219 11.8672 522.375 11.1354 522.688 10.4844C523.005 9.83333 523.445 9.32292 524.008 8.95312C524.57 8.57812 525.18 8.39062 525.836 8.39062C526.862 8.39062 527.674 8.74219 528.273 9.44531C528.878 10.1432 529.18 11.099 529.18 12.3125V12.8359H523.148V13.0156C523.148 13.974 523.422 14.7734 523.969 15.4141C524.521 16.0495 525.214 16.3672 526.047 16.3672C526.547 16.3672 526.987 16.276 527.367 16.0938C527.753 15.9115 528.102 15.6198 528.414 15.2188L529 15.6641C528.312 16.6589 527.315 17.1562 526.008 17.1562ZM525.836 9.1875C525.133 9.1875 524.539 9.44531 524.055 9.96094C523.576 10.4766 523.284 11.1693 523.18 12.0391H528.25V11.9375C528.224 11.125 527.992 10.4635 527.555 9.95312C527.117 9.44271 526.544 9.1875 525.836 9.1875ZM531.891 8.54688L531.922 9.99219C532.24 9.47135 532.635 9.07552 533.109 8.80469C533.583 8.52865 534.107 8.39062 534.68 8.39062C535.586 8.39062 536.26 8.64583 536.703 9.15625C537.146 9.66667 537.37 10.4323 537.375 11.4531V17H536.445V11.4453C536.44 10.6901 536.279 10.1276 535.961 9.75781C535.648 9.38802 535.146 9.20312 534.453 9.20312C533.875 9.20312 533.362 9.38542 532.914 9.75C532.471 10.1094 532.143 10.5964 531.93 11.2109V17H531V8.54688H531.891ZM541.25 6.38281V8.54688H543V9.3125H541.25V14.9453C541.25 15.4141 541.333 15.763 541.5 15.9922C541.672 16.2214 541.956 16.3359 542.352 16.3359C542.508 16.3359 542.76 16.3099 543.109 16.2578L543.148 17.0234C542.904 17.112 542.57 17.1562 542.148 17.1562C541.508 17.1562 541.042 16.9714 540.75 16.6016C540.458 16.2266 540.312 15.6771 540.312 14.9531V9.3125H538.758V8.54688H540.312V6.38281H541.25ZM546.656 13.8438C546.667 13.2292 546.75 12.7344 546.906 12.3594C547.062 11.9844 547.398 11.5443 547.914 11.0391C548.43 10.5286 548.76 10.1693 548.906 9.96094C549.057 9.7474 549.172 9.51562 549.25 9.26562C549.333 9.01042 549.375 8.72135 549.375 8.39844C549.375 7.7474 549.201 7.23698 548.852 6.86719C548.508 6.49219 548.026 6.30469 547.406 6.30469C546.781 6.30469 546.276 6.48438 545.891 6.84375C545.51 7.19792 545.315 7.67969 545.305 8.28906H544.375C544.385 7.4349 544.674 6.7526 545.242 6.24219C545.81 5.72656 546.531 5.46875 547.406 5.46875C548.302 5.46875 549.008 5.73177 549.523 6.25781C550.044 6.77865 550.305 7.48698 550.305 8.38281C550.305 8.94531 550.177 9.47396 549.922 9.96875C549.667 10.4583 549.182 11.0312 548.469 11.6875C547.88 12.1823 547.586 12.901 547.586 13.8438H546.656ZM546.531 16.4531C546.531 16.276 546.586 16.1276 546.695 16.0078C546.81 15.8828 546.969 15.8203 547.172 15.8203C547.37 15.8203 547.526 15.8828 547.641 16.0078C547.76 16.1276 547.82 16.276 547.82 16.4531C547.82 16.625 547.76 16.7708 547.641 16.8906C547.526 17.0052 547.37 17.0625 547.172 17.0625C546.969 17.0625 546.81 17.0052 546.695 16.8906C546.586 16.7708 546.531 16.625 546.531 16.4531Z" fill="black"/>
<path d="M475.773 66.8281L479.25 60.625H480.359L476.25 67.7188V72H475.289V67.7188L471.188 60.625H472.328L475.773 66.8281ZM484.555 72.1562C483.836 72.1562 483.185 71.9792 482.602 71.625C482.023 71.2708 481.573 70.7786 481.25 70.1484C480.927 69.513 480.766 68.8021 480.766 68.0156V67.6797C480.766 66.8672 480.922 66.1354 481.234 65.4844C481.552 64.8333 481.992 64.3229 482.555 63.9531C483.117 63.5781 483.727 63.3906 484.383 63.3906C485.409 63.3906 486.221 63.7422 486.82 64.4453C487.424 65.1432 487.727 66.099 487.727 67.3125V67.8359H481.695V68.0156C481.695 68.974 481.969 69.7734 482.516 70.4141C483.068 71.0495 483.76 71.3672 484.594 71.3672C485.094 71.3672 485.534 71.276 485.914 71.0938C486.299 70.9115 486.648 70.6198 486.961 70.2188L487.547 70.6641C486.859 71.6589 485.862 72.1562 484.555 72.1562ZM484.383 64.1875C483.68 64.1875 483.086 64.4453 482.602 64.9609C482.122 65.4766 481.831 66.1693 481.727 67.0391H486.797V66.9375C486.771 66.125 486.539 65.4635 486.102 64.9531C485.664 64.4427 485.091 64.1875 484.383 64.1875ZM494.609 69.8516C494.609 69.388 494.422 69.0156 494.047 68.7344C493.677 68.4531 493.117 68.2344 492.367 68.0781C491.617 67.9167 491.034 67.7344 490.617 67.5312C490.206 67.3229 489.898 67.0703 489.695 66.7734C489.497 66.4766 489.398 66.1172 489.398 65.6953C489.398 65.0286 489.677 64.4792 490.234 64.0469C490.792 63.6094 491.505 63.3906 492.375 63.3906C493.318 63.3906 494.073 63.625 494.641 64.0938C495.214 64.5573 495.5 65.1641 495.5 65.9141H494.562C494.562 65.4193 494.354 65.0078 493.938 64.6797C493.526 64.3516 493.005 64.1875 492.375 64.1875C491.76 64.1875 491.266 64.3255 490.891 64.6016C490.521 64.8724 490.336 65.2266 490.336 65.6641C490.336 66.0859 490.49 66.4141 490.797 66.6484C491.109 66.8776 491.674 67.0885 492.492 67.2812C493.315 67.474 493.93 67.6797 494.336 67.8984C494.747 68.1172 495.052 68.3802 495.25 68.6875C495.448 68.9948 495.547 69.3672 495.547 69.8047C495.547 70.5182 495.258 71.0885 494.68 71.5156C494.107 71.9427 493.357 72.1562 492.43 72.1562C491.445 72.1562 490.646 71.9193 490.031 71.4453C489.422 70.9661 489.117 70.362 489.117 69.6328H490.055C490.091 70.1797 490.32 70.6068 490.742 70.9141C491.169 71.2161 491.732 71.3672 492.43 71.3672C493.081 71.3672 493.607 71.224 494.008 70.9375C494.409 70.651 494.609 70.2891 494.609 69.8516Z" fill="#979797"/>
<path d="M475.773 130.828L479.25 124.625H480.359L476.25 131.719V136H475.289V131.719L471.188 124.625H472.328L475.773 130.828ZM484.555 136.156C483.836 136.156 483.185 135.979 482.602 135.625C482.023 135.271 481.573 134.779 481.25 134.148C480.927 133.513 480.766 132.802 480.766 132.016V131.68C480.766 130.867 480.922 130.135 481.234 129.484C481.552 128.833 481.992 128.323 482.555 127.953C483.117 127.578 483.727 127.391 484.383 127.391C485.409 127.391 486.221 127.742 486.82 128.445C487.424 129.143 487.727 130.099 487.727 131.312V131.836H481.695V132.016C481.695 132.974 481.969 133.773 482.516 134.414C483.068 135.049 483.76 135.367 484.594 135.367C485.094 135.367 485.534 135.276 485.914 135.094C486.299 134.911 486.648 134.62 486.961 134.219L487.547 134.664C486.859 135.659 485.862 136.156 484.555 136.156ZM484.383 128.188C483.68 128.188 483.086 128.445 482.602 128.961C482.122 129.477 481.831 130.169 481.727 131.039H486.797V130.938C486.771 130.125 486.539 129.464 486.102 128.953C485.664 128.443 485.091 128.188 484.383 128.188ZM494.609 133.852C494.609 133.388 494.422 133.016 494.047 132.734C493.677 132.453 493.117 132.234 492.367 132.078C491.617 131.917 491.034 131.734 490.617 131.531C490.206 131.323 489.898 131.07 489.695 130.773C489.497 130.477 489.398 130.117 489.398 129.695C489.398 129.029 489.677 128.479 490.234 128.047C490.792 127.609 491.505 127.391 492.375 127.391C493.318 127.391 494.073 127.625 494.641 128.094C495.214 128.557 495.5 129.164 495.5 129.914H494.562C494.562 129.419 494.354 129.008 493.938 128.68C493.526 128.352 493.005 128.188 492.375 128.188C491.76 128.188 491.266 128.326 490.891 128.602C490.521 128.872 490.336 129.227 490.336 129.664C490.336 130.086 490.49 130.414 490.797 130.648C491.109 130.878 491.674 131.089 492.492 131.281C493.315 131.474 493.93 131.68 494.336 131.898C494.747 132.117 495.052 132.38 495.25 132.688C495.448 132.995 495.547 133.367 495.547 133.805C495.547 134.518 495.258 135.089 494.68 135.516C494.107 135.943 493.357 136.156 492.43 136.156C491.445 136.156 490.646 135.919 490.031 135.445C489.422 134.966 489.117 134.362 489.117 133.633H490.055C490.091 134.18 490.32 134.607 490.742 134.914C491.169 135.216 491.732 135.367 492.43 135.367C493.081 135.367 493.607 135.224 494.008 134.938C494.409 134.651 494.609 134.289 494.609 133.852Z" fill="black"/>
</svg>
