<svg width="297" height="846" viewBox="0 0 297 846" fill="none" xmlns="http://www.w3.org/2000/svg">
<rect width="281" height="830" transform="translate(8 8)" fill="white"/>
<g filter="url(#filter0_d)">
<path d="M8 8H289V838H8V8Z" fill="white"/>
</g>
<path d="M41.3366 43.8182H39.8153V51.2955H39.7209L34.5405 43.8182H33.1186V54H34.6548V46.5327H34.7493L39.9247 54H41.3366V43.8182ZM46.6749 54.1541C48.8276 54.1541 50.2346 52.5781 50.2346 50.2166C50.2346 47.8402 48.8276 46.2642 46.6749 46.2642C44.5222 46.2642 43.1152 47.8402 43.1152 50.2166C43.1152 52.5781 44.5222 54.1541 46.6749 54.1541ZM46.6799 52.9062C45.2729 52.9062 44.6167 51.6783 44.6167 50.2116C44.6167 48.75 45.2729 47.5071 46.6799 47.5071C48.0769 47.5071 48.7331 48.75 48.7331 50.2116C48.7331 51.6783 48.0769 52.9062 46.6799 52.9062ZM55.4585 46.3636H53.8924V44.5341H52.4059V46.3636H51.2873V47.5568H52.4059V52.0661C52.4009 53.4531 53.4599 54.1243 54.6332 54.0994C55.1055 54.0945 55.4237 54.005 55.5977 53.9403L55.3292 52.7124C55.2298 52.7322 55.0458 52.777 54.8072 52.777C54.3249 52.777 53.8924 52.6179 53.8924 51.7578V47.5568H55.4585V46.3636ZM57.1028 54H58.5893V46.3636H57.1028V54ZM57.8535 45.1854C58.3656 45.1854 58.7931 44.7876 58.7931 44.3004C58.7931 43.8132 58.3656 43.4105 57.8535 43.4105C57.3365 43.4105 56.9139 43.8132 56.9139 44.3004C56.9139 44.7876 57.3365 45.1854 57.8535 45.1854ZM64.2234 46.3636H62.5778V45.6776C62.5778 45.0014 62.8562 44.6335 63.582 44.6335C63.8903 44.6335 64.109 44.7031 64.2482 44.7479L64.5962 43.5447C64.3874 43.4652 63.9549 43.3409 63.3533 43.3409C62.1452 43.3409 61.0863 44.0469 61.0863 45.4787V46.3636H59.908V47.5568H61.0863V54H62.5778V47.5568H64.2234V46.3636ZM65.7571 54H67.2436V46.3636H65.7571V54ZM66.5078 45.1854C67.0199 45.1854 67.4474 44.7876 67.4474 44.3004C67.4474 43.8132 67.0199 43.4105 66.5078 43.4105C65.9908 43.4105 65.5682 43.8132 65.5682 44.3004C65.5682 44.7876 65.9908 45.1854 66.5078 45.1854ZM72.46 54.1541C74.2647 54.1541 75.4331 53.0703 75.5971 51.5838H74.1504C73.9615 52.4091 73.3201 52.8963 72.47 52.8963C71.2122 52.8963 70.4018 51.8473 70.4018 50.1818C70.4018 48.5462 71.2271 47.517 72.47 47.517C73.4146 47.517 73.9913 48.1136 74.1504 48.8295H75.5971C75.438 47.2884 74.1802 46.2642 72.4451 46.2642C70.2924 46.2642 68.9004 47.8849 68.9004 50.2166C68.9004 52.5185 70.2427 54.1541 72.46 54.1541ZM79.4091 54.169C80.6719 54.169 81.3828 53.5277 81.6662 52.956H81.7259V54H83.1776V48.929C83.1776 46.7067 81.4276 46.2642 80.2145 46.2642C78.8324 46.2642 77.5597 46.821 77.0625 48.2131L78.4595 48.5312C78.6783 47.9893 79.2351 47.4673 80.2344 47.4673C81.1939 47.4673 81.6861 47.9695 81.6861 48.8345V48.8693C81.6861 49.4112 81.1293 49.4013 79.7571 49.5604C78.3104 49.7294 76.8288 50.1072 76.8288 51.8423C76.8288 53.3438 77.9574 54.169 79.4091 54.169ZM79.7322 52.9759C78.892 52.9759 78.2855 52.598 78.2855 51.8622C78.2855 51.0668 78.9915 50.7834 79.8516 50.669C80.3338 50.6044 81.4773 50.4751 81.6911 50.2614V51.2457C81.6911 52.1506 80.9702 52.9759 79.7322 52.9759ZM88.7221 46.3636H87.1561V44.5341H85.6696V46.3636H84.551V47.5568H85.6696V52.0661C85.6646 53.4531 86.7235 54.1243 87.8968 54.0994C88.3691 54.0945 88.6873 54.005 88.8613 53.9403L88.5929 52.7124C88.4934 52.7322 88.3095 52.777 88.0708 52.777C87.5886 52.777 87.1561 52.6179 87.1561 51.7578V47.5568H88.7221V46.3636ZM90.3665 54H91.853V46.3636H90.3665V54ZM91.1172 45.1854C91.6293 45.1854 92.0568 44.7876 92.0568 44.3004C92.0568 43.8132 91.6293 43.4105 91.1172 43.4105C90.6001 43.4105 90.1776 43.8132 90.1776 44.3004C90.1776 44.7876 90.6001 45.1854 91.1172 45.1854ZM97.0694 54.1541C99.2221 54.1541 100.629 52.5781 100.629 50.2166C100.629 47.8402 99.2221 46.2642 97.0694 46.2642C94.9167 46.2642 93.5098 47.8402 93.5098 50.2166C93.5098 52.5781 94.9167 54.1541 97.0694 54.1541ZM97.0744 52.9062C95.6674 52.9062 95.0112 51.6783 95.0112 50.2116C95.0112 48.75 95.6674 47.5071 97.0744 47.5071C98.4714 47.5071 99.1277 48.75 99.1277 50.2116C99.1277 51.6783 98.4714 52.9062 97.0744 52.9062ZM103.775 49.4659C103.775 48.2479 104.521 47.5518 105.555 47.5518C106.564 47.5518 107.175 48.2131 107.175 49.3217V54H108.662V49.1428C108.662 47.2536 107.623 46.2642 106.062 46.2642C104.913 46.2642 104.163 46.7962 103.81 47.6065H103.715V46.3636H102.288V54H103.775V49.4659ZM116.378 48.228C116.07 47.0398 115.14 46.2642 113.489 46.2642C111.764 46.2642 110.541 47.174 110.541 48.5263C110.541 49.6101 111.197 50.331 112.629 50.6491L113.922 50.9325C114.658 51.0966 115.001 51.4247 115.001 51.902C115.001 52.4936 114.369 52.956 113.395 52.956C112.505 52.956 111.933 52.5732 111.754 51.8224L110.317 52.0412C110.566 53.3935 111.69 54.1541 113.405 54.1541C115.249 54.1541 116.527 53.1747 116.527 51.7926C116.527 50.7138 115.841 50.0476 114.439 49.7244L113.226 49.446C112.386 49.2472 112.023 48.9638 112.028 48.4467C112.023 47.8601 112.659 47.4425 113.504 47.4425C114.429 47.4425 114.857 47.9545 115.031 48.4666L116.378 48.228Z" fill="#98A9C6"/>
<path d="M32.2855 127.273L35.4517 132.574V136H36.7642V132.574L39.9304 127.273H38.4347L36.1548 131.24H36.0611L33.7812 127.273H32.2855ZM42.7621 136.132C44.6072 136.132 45.8132 134.781 45.8132 132.757C45.8132 130.72 44.6072 129.369 42.7621 129.369C40.9169 129.369 39.7109 130.72 39.7109 132.757C39.7109 134.781 40.9169 136.132 42.7621 136.132ZM42.7663 135.062C41.5604 135.062 40.9979 134.01 40.9979 132.753C40.9979 131.5 41.5604 130.435 42.7663 130.435C43.9638 130.435 44.5263 131.5 44.5263 132.753C44.5263 134.01 43.9638 135.062 42.7663 135.062ZM51.3817 133.286C51.386 134.398 50.5593 134.926 49.8434 134.926C49.055 134.926 48.5096 134.355 48.5096 133.464V129.455H47.2354V133.618C47.2354 135.241 48.1261 136.085 49.3832 136.085C50.3675 136.085 51.0366 135.565 51.3391 134.866H51.4073V136H52.6602V129.455H51.3817V133.286ZM58.8221 132.114C58.8221 131.07 59.4826 130.473 60.3903 130.473C61.2681 130.473 61.7923 131.031 61.7923 131.99V136H63.0664V131.837C63.0664 130.205 62.1715 129.369 60.8249 129.369C59.8065 129.369 59.1928 129.812 58.886 130.52H58.805V127.273H57.5479V136H58.8221V132.114ZM66.6715 136.145C67.7539 136.145 68.3633 135.595 68.6062 135.105H68.6573V136H69.9016V131.653C69.9016 129.749 68.4016 129.369 67.3619 129.369C66.1772 129.369 65.0863 129.847 64.6602 131.04L65.8576 131.312C66.0451 130.848 66.5224 130.401 67.3789 130.401C68.2013 130.401 68.6232 130.831 68.6232 131.572V131.602C68.6232 132.067 68.146 132.058 66.9698 132.195C65.7298 132.339 64.4599 132.663 64.4599 134.151C64.4599 135.438 65.4272 136.145 66.6715 136.145ZM66.9485 135.122C66.2283 135.122 65.7085 134.798 65.7085 134.168C65.7085 133.486 66.3136 133.243 67.0508 133.145C67.4641 133.089 68.4442 132.979 68.6275 132.795V133.639C68.6275 134.415 68.0096 135.122 66.9485 135.122ZM76.9638 129.455H75.5959L73.9425 134.491H73.8743L72.2166 129.455H70.8487L73.2266 136H74.5902L76.9638 129.455ZM80.7479 136.132C82.1754 136.132 83.1854 135.429 83.4751 134.364L82.2692 134.146C82.0391 134.764 81.4851 135.08 80.7607 135.08C79.6697 135.08 78.9368 134.372 78.9027 133.111H83.5561V132.659C83.5561 130.294 82.1413 129.369 80.6584 129.369C78.8345 129.369 77.6328 130.759 77.6328 132.77C77.6328 134.803 78.8175 136.132 80.7479 136.132ZM78.907 132.156C78.9581 131.227 79.6314 130.422 80.6669 130.422C81.6555 130.422 82.3033 131.155 82.3075 132.156H78.907ZM100.178 132.114C100.178 131.07 100.817 130.473 101.703 130.473C102.568 130.473 103.092 131.04 103.092 131.99V136H104.366V131.837C104.366 130.217 103.476 129.369 102.138 129.369C101.153 129.369 100.51 129.825 100.207 130.52H100.126V129.455H98.9034V136H100.178V132.114ZM108.896 136.132C110.324 136.132 111.334 135.429 111.624 134.364L110.418 134.146C110.188 134.764 109.634 135.08 108.909 135.08C107.818 135.08 107.085 134.372 107.051 133.111H111.705V132.659C111.705 130.294 110.29 129.369 108.807 129.369C106.983 129.369 105.781 130.759 105.781 132.77C105.781 134.803 106.966 136.132 108.896 136.132ZM107.055 132.156C107.107 131.227 107.78 130.422 108.815 130.422C109.804 130.422 110.452 131.155 110.456 132.156H107.055ZM114.526 136H115.821L117.151 131.274H117.249L118.578 136H119.878L121.8 129.455H120.483L119.209 134.24H119.145L117.866 129.455H116.55L115.263 134.261H115.199L113.916 129.455H112.599L114.526 136ZM131.089 131.053C130.825 130.034 130.028 129.369 128.614 129.369C127.135 129.369 126.087 130.149 126.087 131.308C126.087 132.237 126.649 132.855 127.876 133.128L128.984 133.371C129.615 133.511 129.909 133.793 129.909 134.202C129.909 134.709 129.368 135.105 128.533 135.105C127.77 135.105 127.28 134.777 127.126 134.134L125.895 134.321C126.108 135.48 127.071 136.132 128.541 136.132C130.122 136.132 131.217 135.293 131.217 134.108C131.217 133.183 130.629 132.612 129.428 132.335L128.388 132.097C127.668 131.926 127.357 131.683 127.361 131.24C127.357 130.737 127.902 130.379 128.626 130.379C129.419 130.379 129.786 130.818 129.935 131.257L131.089 131.053ZM136.765 133.286C136.769 134.398 135.942 134.926 135.226 134.926C134.438 134.926 133.892 134.355 133.892 133.464V129.455H132.618V133.618C132.618 135.241 133.509 136.085 134.766 136.085C135.75 136.085 136.419 135.565 136.722 134.866H136.79V136H138.043V129.455H136.765V133.286ZM139.857 136H141.102V134.982H141.208C141.438 135.399 141.907 136.128 143.1 136.128C144.685 136.128 145.836 134.858 145.836 132.74C145.836 130.618 144.668 129.369 143.087 129.369C141.873 129.369 141.434 130.111 141.208 130.516H141.131V127.273H139.857V136ZM141.106 132.727C141.106 131.359 141.702 130.452 142.815 130.452C143.969 130.452 144.549 131.428 144.549 132.727C144.549 134.04 143.952 135.041 142.815 135.041C141.719 135.041 141.106 134.104 141.106 132.727ZM147.267 136H148.541V131.964C148.541 131.082 149.159 130.469 149.883 130.469C150.591 130.469 151.081 130.938 151.081 131.649V136H152.35V131.828C152.35 131.04 152.832 130.469 153.663 130.469C154.336 130.469 154.89 130.844 154.89 131.73V136H156.164V131.611C156.164 130.115 155.329 129.369 154.145 129.369C153.203 129.369 152.495 129.821 152.18 130.52H152.112C151.826 129.804 151.225 129.369 150.352 129.369C149.487 129.369 148.843 129.8 148.571 130.52H148.49V129.455H147.267V136ZM157.872 136H159.146V129.455H157.872V136ZM158.516 128.445C158.955 128.445 159.321 128.104 159.321 127.686C159.321 127.268 158.955 126.923 158.516 126.923C158.072 126.923 157.71 127.268 157.71 127.686C157.71 128.104 158.072 128.445 158.516 128.445ZM163.916 129.455H162.574V127.886H161.299V129.455H160.341V130.477H161.299V134.342C161.295 135.531 162.203 136.107 163.208 136.085C163.613 136.081 163.886 136.004 164.035 135.949L163.805 134.896C163.72 134.913 163.562 134.952 163.358 134.952C162.944 134.952 162.574 134.815 162.574 134.078V130.477H163.916V129.455ZM168.381 129.455H167.038V127.886H165.764V129.455H164.805V130.477H165.764V134.342C165.76 135.531 166.668 136.107 167.673 136.085C168.078 136.081 168.351 136.004 168.5 135.949L168.27 134.896C168.185 134.913 168.027 134.952 167.822 134.952C167.409 134.952 167.038 134.815 167.038 134.078V130.477H168.381V129.455ZM171.695 136.145C172.777 136.145 173.387 135.595 173.63 135.105H173.681V136H174.925V131.653C174.925 129.749 173.425 129.369 172.385 129.369C171.201 129.369 170.11 129.847 169.684 131.04L170.881 131.312C171.069 130.848 171.546 130.401 172.402 130.401C173.225 130.401 173.647 130.831 173.647 131.572V131.602C173.647 132.067 173.169 132.058 171.993 132.195C170.753 132.339 169.483 132.663 169.483 134.151C169.483 135.438 170.451 136.145 171.695 136.145ZM171.972 135.122C171.252 135.122 170.732 134.798 170.732 134.168C170.732 133.486 171.337 133.243 172.074 133.145C172.488 133.089 173.468 132.979 173.651 132.795V133.639C173.651 134.415 173.033 135.122 171.972 135.122ZM177.896 127.273H176.622V136H177.896V127.273ZM184.515 131.053C184.251 130.034 183.454 129.369 182.039 129.369C180.561 129.369 179.512 130.149 179.512 131.308C179.512 132.237 180.075 132.855 181.302 133.128L182.41 133.371C183.041 133.511 183.335 133.793 183.335 134.202C183.335 134.709 182.794 135.105 181.958 135.105C181.196 135.105 180.706 134.777 180.552 134.134L179.321 134.321C179.534 135.48 180.497 136.132 181.967 136.132C183.548 136.132 184.643 135.293 184.643 134.108C184.643 133.183 184.055 132.612 182.853 132.335L181.814 132.097C181.093 131.926 180.782 131.683 180.787 131.24C180.782 130.737 181.328 130.379 182.052 130.379C182.845 130.379 183.211 130.818 183.36 131.257L184.515 131.053ZM189.22 136H190.494V129.455H189.22V136ZM189.863 128.445C190.302 128.445 190.669 128.104 190.669 127.686C190.669 127.268 190.302 126.923 189.863 126.923C189.42 126.923 189.058 127.268 189.058 127.686C189.058 128.104 189.42 128.445 189.863 128.445ZM193.482 132.114C193.482 131.07 194.121 130.473 195.008 130.473C195.873 130.473 196.397 131.04 196.397 131.99V136H197.671V131.837C197.671 130.217 196.781 129.369 195.442 129.369C194.458 129.369 193.815 129.825 193.512 130.52H193.431V129.455H192.208V136H193.482V132.114ZM200.219 136.081C200.684 136.081 201.072 135.702 201.072 135.229C201.072 134.764 200.684 134.381 200.219 134.381C199.751 134.381 199.367 134.764 199.367 135.229C199.367 135.702 199.751 136.081 200.219 136.081Z" fill="#98A9C6"/>
<path d="M91.0774 136.119C92.8928 136.119 94.1754 135.088 94.1839 133.673C94.1754 132.574 93.4041 131.649 92.4283 131.474V131.423C93.2763 131.219 93.8516 130.422 93.8601 129.48C93.8516 128.146 92.6754 127.153 91.0774 127.153C89.4624 127.153 88.2862 128.146 88.2947 129.48C88.2862 130.418 88.8615 131.219 89.7266 131.423V131.474C88.7337 131.649 87.9624 132.574 87.9709 133.673C87.9624 135.088 89.245 136.119 91.0774 136.119ZM91.0774 135.041C89.9865 135.041 89.2962 134.462 89.3047 133.588C89.2962 132.68 90.0462 132.033 91.0774 132.033C92.0916 132.033 92.8416 132.68 92.8501 133.588C92.8416 134.462 92.1555 135.041 91.0774 135.041ZM91.0774 130.98C90.1953 130.98 89.5689 130.422 89.5774 129.591C89.5689 128.773 90.174 128.232 91.0774 128.232C91.9638 128.232 92.5689 128.773 92.5774 129.591C92.5689 130.422 91.9467 130.98 91.0774 130.98Z" fill="#3447D3"/>
<path d="M32.2855 207.273L35.4517 212.574V216H36.7642V212.574L39.9304 207.273H38.4347L36.1548 211.24H36.0611L33.7812 207.273H32.2855ZM42.7621 216.132C44.6072 216.132 45.8132 214.781 45.8132 212.757C45.8132 210.72 44.6072 209.369 42.7621 209.369C40.9169 209.369 39.7109 210.72 39.7109 212.757C39.7109 214.781 40.9169 216.132 42.7621 216.132ZM42.7663 215.062C41.5604 215.062 40.9979 214.01 40.9979 212.753C40.9979 211.5 41.5604 210.435 42.7663 210.435C43.9638 210.435 44.5263 211.5 44.5263 212.753C44.5263 214.01 43.9638 215.062 42.7663 215.062ZM51.3817 213.286C51.386 214.398 50.5593 214.926 49.8434 214.926C49.055 214.926 48.5096 214.355 48.5096 213.464V209.455H47.2354V213.618C47.2354 215.241 48.1261 216.085 49.3832 216.085C50.3675 216.085 51.0366 215.565 51.3391 214.866H51.4073V216H52.6602V209.455H51.3817V213.286ZM58.8221 212.114C58.8221 211.07 59.4826 210.473 60.3903 210.473C61.2681 210.473 61.7923 211.031 61.7923 211.99V216H63.0664V211.837C63.0664 210.205 62.1715 209.369 60.8249 209.369C59.8065 209.369 59.1928 209.812 58.886 210.52H58.805V207.273H57.5479V216H58.8221V212.114ZM66.6715 216.145C67.7539 216.145 68.3633 215.595 68.6062 215.105H68.6573V216H69.9016V211.653C69.9016 209.749 68.4016 209.369 67.3619 209.369C66.1772 209.369 65.0863 209.847 64.6602 211.04L65.8576 211.312C66.0451 210.848 66.5224 210.401 67.3789 210.401C68.2013 210.401 68.6232 210.831 68.6232 211.572V211.602C68.6232 212.067 68.146 212.058 66.9698 212.195C65.7298 212.339 64.4599 212.663 64.4599 214.151C64.4599 215.438 65.4272 216.145 66.6715 216.145ZM66.9485 215.122C66.2283 215.122 65.7085 214.798 65.7085 214.168C65.7085 213.486 66.3136 213.243 67.0508 213.145C67.4641 213.089 68.4442 212.979 68.6275 212.795V213.639C68.6275 214.415 68.0096 215.122 66.9485 215.122ZM76.9638 209.455H75.5959L73.9425 214.491H73.8743L72.2166 209.455H70.8487L73.2266 216H74.5902L76.9638 209.455ZM80.7479 216.132C82.1754 216.132 83.1854 215.429 83.4751 214.364L82.2692 214.146C82.0391 214.764 81.4851 215.08 80.7607 215.08C79.6697 215.08 78.9368 214.372 78.9027 213.111H83.5561V212.659C83.5561 210.294 82.1413 209.369 80.6584 209.369C78.8345 209.369 77.6328 210.759 77.6328 212.77C77.6328 214.803 78.8175 216.132 80.7479 216.132ZM78.907 212.156C78.9581 211.227 79.6314 210.422 80.6669 210.422C81.6555 210.422 82.3033 211.155 82.3075 212.156H78.907ZM105.422 216.132C107.267 216.132 108.473 214.781 108.473 212.757C108.473 210.72 107.267 209.369 105.422 209.369C103.577 209.369 102.371 210.72 102.371 212.757C102.371 214.781 103.577 216.132 105.422 216.132ZM105.426 215.062C104.221 215.062 103.658 214.01 103.658 212.753C103.658 211.5 104.221 210.435 105.426 210.435C106.624 210.435 107.186 211.5 107.186 212.753C107.186 214.01 106.624 215.062 105.426 215.062ZM115.261 209.455H113.893L112.239 214.491H112.171L110.513 209.455H109.146L111.523 216H112.887L115.261 209.455ZM119.045 216.132C120.472 216.132 121.482 215.429 121.772 214.364L120.566 214.146C120.336 214.764 119.782 215.08 119.058 215.08C117.967 215.08 117.234 214.372 117.2 213.111H121.853V212.659C121.853 210.294 120.438 209.369 118.955 209.369C117.131 209.369 115.93 210.759 115.93 212.77C115.93 214.803 117.114 216.132 119.045 216.132ZM117.204 212.156C117.255 211.227 117.928 210.422 118.964 210.422C119.952 210.422 120.6 211.155 120.604 212.156H117.204ZM123.267 216H124.541V212.003C124.541 211.146 125.201 210.528 126.105 210.528C126.369 210.528 126.667 210.575 126.77 210.605V209.386C126.642 209.369 126.39 209.357 126.228 209.357C125.461 209.357 124.805 209.791 124.566 210.494H124.498V209.455H123.267V216ZM130.088 216.128C131.281 216.128 131.75 215.399 131.98 214.982H132.087V216H133.331V207.273H132.057V210.516H131.98C131.75 210.111 131.315 209.369 130.097 209.369C128.516 209.369 127.352 210.618 127.352 212.74C127.352 214.858 128.499 216.128 130.088 216.128ZM130.369 215.041C129.232 215.041 128.639 214.04 128.639 212.727C128.639 211.428 129.219 210.452 130.369 210.452C131.482 210.452 132.078 211.359 132.078 212.727C132.078 214.104 131.469 215.041 130.369 215.041ZM139.296 213.286C139.3 214.398 138.473 214.926 137.757 214.926C136.969 214.926 136.424 214.355 136.424 213.464V209.455H135.15V213.618C135.15 215.241 136.04 216.085 137.297 216.085C138.282 216.085 138.951 215.565 139.253 214.866H139.321V216H140.574V209.455H139.296V213.286ZM145.107 216.132C146.535 216.132 147.545 215.429 147.835 214.364L146.629 214.146C146.398 214.764 145.844 215.08 145.12 215.08C144.029 215.08 143.296 214.372 143.262 213.111H147.915V212.659C147.915 210.294 146.501 209.369 145.018 209.369C143.194 209.369 141.992 210.759 141.992 212.77C141.992 214.803 143.177 216.132 145.107 216.132ZM143.266 212.156C143.317 211.227 143.991 210.422 145.026 210.422C146.015 210.422 146.663 211.155 146.667 212.156H143.266ZM157.41 211.053C157.146 210.034 156.349 209.369 154.934 209.369C153.455 209.369 152.407 210.149 152.407 211.308C152.407 212.237 152.969 212.855 154.197 213.128L155.305 213.371C155.935 213.511 156.229 213.793 156.229 214.202C156.229 214.709 155.688 215.105 154.853 215.105C154.09 215.105 153.6 214.777 153.447 214.134L152.215 214.321C152.428 215.48 153.391 216.132 154.862 216.132C156.442 216.132 157.538 215.293 157.538 214.108C157.538 213.183 156.95 212.612 155.748 212.335L154.708 212.097C153.988 211.926 153.677 211.683 153.681 211.24C153.677 210.737 154.222 210.379 154.947 210.379C155.739 210.379 156.106 210.818 156.255 211.257L157.41 211.053ZM163.085 213.286C163.089 214.398 162.262 214.926 161.547 214.926C160.758 214.926 160.213 214.355 160.213 213.464V209.455H158.939V213.618C158.939 215.241 159.829 216.085 161.086 216.085C162.071 216.085 162.74 215.565 163.042 214.866H163.11V216H164.363V209.455H163.085V213.286ZM166.178 216H167.422V214.982H167.528C167.759 215.399 168.227 216.128 169.42 216.128C171.006 216.128 172.156 214.858 172.156 212.74C172.156 210.618 170.989 209.369 169.408 209.369C168.193 209.369 167.754 210.111 167.528 210.516H167.452V207.273H166.178V216ZM167.426 212.727C167.426 211.359 168.023 210.452 169.135 210.452C170.29 210.452 170.869 211.428 170.869 212.727C170.869 214.04 170.273 215.041 169.135 215.041C168.04 215.041 167.426 214.104 167.426 212.727ZM173.587 216H174.861V211.964C174.861 211.082 175.479 210.469 176.203 210.469C176.911 210.469 177.401 210.938 177.401 211.649V216H178.671V211.828C178.671 211.04 179.152 210.469 179.983 210.469C180.657 210.469 181.211 210.844 181.211 211.73V216H182.485V211.611C182.485 210.115 181.65 209.369 180.465 209.369C179.523 209.369 178.816 209.821 178.5 210.52H178.432C178.147 209.804 177.546 209.369 176.672 209.369C175.807 209.369 175.164 209.8 174.891 210.52H174.81V209.455H173.587V216ZM184.192 216H185.467V209.455H184.192V216ZM184.836 208.445C185.275 208.445 185.641 208.104 185.641 207.686C185.641 207.268 185.275 206.923 184.836 206.923C184.393 206.923 184.031 207.268 184.031 207.686C184.031 208.104 184.393 208.445 184.836 208.445ZM190.236 209.455H188.894V207.886H187.62V209.455H186.661V210.477H187.62V214.342C187.615 215.531 188.523 216.107 189.529 216.085C189.934 216.081 190.206 216.004 190.355 215.949L190.125 214.896C190.04 214.913 189.882 214.952 189.678 214.952C189.265 214.952 188.894 214.815 188.894 214.078V210.477H190.236V209.455ZM194.701 209.455H193.359V207.886H192.085V209.455H191.126V210.477H192.085V214.342C192.08 215.531 192.988 216.107 193.994 216.085C194.398 216.081 194.671 216.004 194.82 215.949L194.59 214.896C194.505 214.913 194.347 214.952 194.143 214.952C193.729 214.952 193.359 214.815 193.359 214.078V210.477H194.701V209.455ZM198.015 216.145C199.098 216.145 199.707 215.595 199.95 215.105H200.001V216H201.245V211.653C201.245 209.749 199.745 209.369 198.706 209.369C197.521 209.369 196.43 209.847 196.004 211.04L197.201 211.312C197.389 210.848 197.866 210.401 198.723 210.401C199.545 210.401 199.967 210.831 199.967 211.572V211.602C199.967 212.067 199.49 212.058 198.314 212.195C197.074 212.339 195.804 212.663 195.804 214.151C195.804 215.438 196.771 216.145 198.015 216.145ZM198.292 215.122C197.572 215.122 197.052 214.798 197.052 214.168C197.052 213.486 197.657 213.243 198.395 213.145C198.808 213.089 199.788 212.979 199.971 212.795V213.639C199.971 214.415 199.353 215.122 198.292 215.122ZM204.217 207.273H202.942V216H204.217V207.273ZM210.836 211.053C210.571 210.034 209.775 209.369 208.36 209.369C206.881 209.369 205.833 210.149 205.833 211.308C205.833 212.237 206.395 212.855 207.623 213.128L208.73 213.371C209.361 213.511 209.655 213.793 209.655 214.202C209.655 214.709 209.114 215.105 208.279 215.105C207.516 215.105 207.026 214.777 206.873 214.134L205.641 214.321C205.854 215.48 206.817 216.132 208.287 216.132C209.868 216.132 210.963 215.293 210.963 214.108C210.963 213.183 210.375 212.612 209.174 212.335L208.134 212.097C207.414 211.926 207.103 211.683 207.107 211.24C207.103 210.737 207.648 210.379 208.373 210.379C209.165 210.379 209.532 210.818 209.681 211.257L210.836 211.053ZM213.204 216.081C213.668 216.081 214.056 215.702 214.056 215.229C214.056 214.764 213.668 214.381 213.204 214.381C212.735 214.381 212.352 214.764 212.352 215.229C212.352 215.702 212.735 216.081 213.204 216.081Z" fill="#98A9C6"/>
<path d="M91.4396 207.273H90.157L87.9794 208.696V209.957L90.0675 208.594H90.1186V216H91.4396V207.273ZM97.1115 207.273H95.8288L93.6513 208.696V209.957L95.7393 208.594H95.7905V216H97.1115V207.273Z" fill="#D30000"/>
<path d="M32.2855 287.273L35.4517 292.574V296H36.7642V292.574L39.9304 287.273H38.4347L36.1548 291.24H36.0611L33.7812 287.273H32.2855ZM42.7621 296.132C44.6072 296.132 45.8132 294.781 45.8132 292.757C45.8132 290.72 44.6072 289.369 42.7621 289.369C40.9169 289.369 39.7109 290.72 39.7109 292.757C39.7109 294.781 40.9169 296.132 42.7621 296.132ZM42.7663 295.062C41.5604 295.062 40.9979 294.01 40.9979 292.753C40.9979 291.5 41.5604 290.435 42.7663 290.435C43.9638 290.435 44.5263 291.5 44.5263 292.753C44.5263 294.01 43.9638 295.062 42.7663 295.062ZM51.3817 293.286C51.386 294.398 50.5593 294.926 49.8434 294.926C49.055 294.926 48.5096 294.355 48.5096 293.464V289.455H47.2354V293.618C47.2354 295.241 48.1261 296.085 49.3832 296.085C50.3675 296.085 51.0366 295.565 51.3391 294.866H51.4073V296H52.6602V289.455H51.3817V293.286ZM58.8221 292.114C58.8221 291.07 59.4826 290.473 60.3903 290.473C61.2681 290.473 61.7923 291.031 61.7923 291.99V296H63.0664V291.837C63.0664 290.205 62.1715 289.369 60.8249 289.369C59.8065 289.369 59.1928 289.812 58.886 290.52H58.805V287.273H57.5479V296H58.8221V292.114ZM66.6715 296.145C67.7539 296.145 68.3633 295.595 68.6062 295.105H68.6573V296H69.9016V291.653C69.9016 289.749 68.4016 289.369 67.3619 289.369C66.1772 289.369 65.0863 289.847 64.6602 291.04L65.8576 291.312C66.0451 290.848 66.5224 290.401 67.3789 290.401C68.2013 290.401 68.6232 290.831 68.6232 291.572V291.602C68.6232 292.067 68.146 292.058 66.9698 292.195C65.7298 292.339 64.4599 292.663 64.4599 294.151C64.4599 295.438 65.4272 296.145 66.6715 296.145ZM66.9485 295.122C66.2283 295.122 65.7085 294.798 65.7085 294.168C65.7085 293.486 66.3136 293.243 67.0508 293.145C67.4641 293.089 68.4442 292.979 68.6275 292.795V293.639C68.6275 294.415 68.0096 295.122 66.9485 295.122ZM76.9638 289.455H75.5959L73.9425 294.491H73.8743L72.2166 289.455H70.8487L73.2266 296H74.5902L76.9638 289.455ZM80.7479 296.132C82.1754 296.132 83.1854 295.429 83.4751 294.364L82.2692 294.146C82.0391 294.764 81.4851 295.08 80.7607 295.08C79.6697 295.08 78.9368 294.372 78.9027 293.111H83.5561V292.659C83.5561 290.294 82.1413 289.369 80.6584 289.369C78.8345 289.369 77.6328 290.759 77.6328 292.77C77.6328 294.803 78.8175 296.132 80.7479 296.132ZM78.907 292.156C78.9581 291.227 79.6314 290.422 80.6669 290.422C81.6555 290.422 82.3033 291.155 82.3075 292.156H78.907ZM109.257 291.053C108.993 290.034 108.196 289.369 106.782 289.369C105.303 289.369 104.255 290.149 104.255 291.308C104.255 292.237 104.817 292.855 106.044 293.128L107.152 293.371C107.783 293.511 108.077 293.793 108.077 294.202C108.077 294.709 107.536 295.105 106.701 295.105C105.938 295.105 105.448 294.777 105.294 294.134L104.063 294.321C104.276 295.48 105.239 296.132 106.709 296.132C108.29 296.132 109.385 295.293 109.385 294.108C109.385 293.183 108.797 292.612 107.596 292.335L106.556 292.097C105.836 291.926 105.525 291.683 105.529 291.24C105.525 290.737 106.07 290.379 106.794 290.379C107.587 290.379 107.953 290.818 108.103 291.257L109.257 291.053ZM114.933 293.286C114.937 294.398 114.11 294.926 113.394 294.926C112.606 294.926 112.06 294.355 112.06 293.464V289.455H110.786V293.618C110.786 295.241 111.677 296.085 112.934 296.085C113.918 296.085 114.587 295.565 114.89 294.866H114.958V296H116.211V289.455H114.933V293.286ZM118.025 296H119.27V294.982H119.376C119.606 295.399 120.075 296.128 121.268 296.128C122.853 296.128 124.004 294.858 124.004 292.74C124.004 290.618 122.836 289.369 121.255 289.369C120.041 289.369 119.602 290.111 119.376 290.516H119.299V287.273H118.025V296ZM119.274 292.727C119.274 291.359 119.87 290.452 120.983 290.452C122.137 290.452 122.717 291.428 122.717 292.727C122.717 294.04 122.12 295.041 120.983 295.041C119.887 295.041 119.274 294.104 119.274 292.727ZM125.435 296H126.709V291.964C126.709 291.082 127.327 290.469 128.051 290.469C128.759 290.469 129.249 290.938 129.249 291.649V296H130.518V291.828C130.518 291.04 131 290.469 131.831 290.469C132.504 290.469 133.058 290.844 133.058 291.73V296H134.332V291.611C134.332 290.115 133.497 289.369 132.312 289.369C131.371 289.369 130.663 289.821 130.348 290.52H130.28C129.994 289.804 129.393 289.369 128.52 289.369C127.655 289.369 127.011 289.8 126.739 290.52H126.658V289.455H125.435V296ZM136.04 296H137.314V289.455H136.04V296ZM136.684 288.445C137.123 288.445 137.489 288.104 137.489 287.686C137.489 287.268 137.123 286.923 136.684 286.923C136.24 286.923 135.878 287.268 135.878 287.686C135.878 288.104 136.24 288.445 136.684 288.445ZM142.084 289.455H140.741V287.886H139.467V289.455H138.509V290.477H139.467V294.342C139.463 295.531 140.371 296.107 141.376 296.085C141.781 296.081 142.054 296.004 142.203 295.949L141.973 294.896C141.888 294.913 141.73 294.952 141.526 294.952C141.112 294.952 140.741 294.815 140.741 294.078V290.477H142.084V289.455ZM146.549 289.455H145.206V287.886H143.932V289.455H142.973V290.477H143.932V294.342C143.928 295.531 144.836 296.107 145.841 296.085C146.246 296.081 146.519 296.004 146.668 295.949L146.438 294.896C146.353 294.913 146.195 294.952 145.99 294.952C145.577 294.952 145.206 294.815 145.206 294.078V290.477H146.549V289.455ZM149.863 296.145C150.945 296.145 151.555 295.595 151.798 295.105H151.849V296H153.093V291.653C153.093 289.749 151.593 289.369 150.553 289.369C149.369 289.369 148.278 289.847 147.852 291.04L149.049 291.312C149.237 290.848 149.714 290.401 150.57 290.401C151.393 290.401 151.815 290.831 151.815 291.572V291.602C151.815 292.067 151.337 292.058 150.161 292.195C148.921 292.339 147.651 292.663 147.651 294.151C147.651 295.438 148.619 296.145 149.863 296.145ZM150.14 295.122C149.42 295.122 148.9 294.798 148.9 294.168C148.9 293.486 149.505 293.243 150.242 293.145C150.656 293.089 151.636 292.979 151.819 292.795V293.639C151.819 294.415 151.201 295.122 150.14 295.122ZM156.064 287.273H154.79V296H156.064V287.273ZM162.683 291.053C162.419 290.034 161.622 289.369 160.207 289.369C158.729 289.369 157.68 290.149 157.68 291.308C157.68 292.237 158.243 292.855 159.47 293.128L160.578 293.371C161.209 293.511 161.503 293.793 161.503 294.202C161.503 294.709 160.962 295.105 160.126 295.105C159.364 295.105 158.874 294.777 158.72 294.134L157.489 294.321C157.702 295.48 158.665 296.132 160.135 296.132C161.716 296.132 162.811 295.293 162.811 294.108C162.811 293.183 162.223 292.612 161.021 292.335L159.982 292.097C159.261 291.926 158.95 291.683 158.955 291.24C158.95 290.737 159.496 290.379 160.22 290.379C161.013 290.379 161.379 290.818 161.528 291.257L162.683 291.053ZM169.838 296.128C171.031 296.128 171.5 295.399 171.73 294.982H171.837V296H173.081V287.273H171.807V290.516H171.73C171.5 290.111 171.065 289.369 169.847 289.369C168.266 289.369 167.102 290.618 167.102 292.74C167.102 294.858 168.249 296.128 169.838 296.128ZM170.119 295.041C168.982 295.041 168.389 294.04 168.389 292.727C168.389 291.428 168.969 290.452 170.119 290.452C171.232 290.452 171.828 291.359 171.828 292.727C171.828 294.104 171.219 295.041 170.119 295.041ZM179.046 293.286C179.05 294.398 178.223 294.926 177.507 294.926C176.719 294.926 176.174 294.355 176.174 293.464V289.455H174.9V293.618C174.9 295.241 175.79 296.085 177.047 296.085C178.032 296.085 178.701 295.565 179.003 294.866H179.071V296H180.324V289.455H179.046V293.286ZM184.857 296.132C186.285 296.132 187.295 295.429 187.585 294.364L186.379 294.146C186.148 294.764 185.594 295.08 184.87 295.08C183.779 295.08 183.046 294.372 183.012 293.111H187.665V292.659C187.665 290.294 186.251 289.369 184.768 289.369C182.944 289.369 181.742 290.759 181.742 292.77C181.742 294.803 182.927 296.132 184.857 296.132ZM183.016 292.156C183.067 291.227 183.741 290.422 184.776 290.422C185.765 290.422 186.413 291.155 186.417 292.156H183.016ZM192.255 296H193.529V289.455H192.255V296ZM192.898 288.445C193.337 288.445 193.704 288.104 193.704 287.686C193.704 287.268 193.337 286.923 192.898 286.923C192.455 286.923 192.093 287.268 192.093 287.686C192.093 288.104 192.455 288.445 192.898 288.445ZM196.517 292.114C196.517 291.07 197.157 290.473 198.043 290.473C198.908 290.473 199.432 291.04 199.432 291.99V296H200.706V291.837C200.706 290.217 199.816 289.369 198.478 289.369C197.493 289.369 196.85 289.825 196.547 290.52H196.466V289.455H195.243V296H196.517V292.114ZM208.885 287.273H207.602L205.425 288.696V289.957L207.513 288.594H207.564V296H208.885V287.273ZM214.126 296.119C215.882 296.119 217.135 294.879 217.131 293.179C217.135 291.491 215.959 290.264 214.369 290.264C213.722 290.264 213.121 290.511 212.78 290.844H212.729L213.006 288.402H216.709V287.273H211.911L211.42 291.67L212.626 291.849C212.955 291.555 213.543 291.355 214.071 291.355C215.107 291.364 215.857 292.139 215.857 293.205C215.857 294.253 215.128 295.011 214.126 295.011C213.283 295.011 212.614 294.474 212.545 293.724H211.267C211.318 295.114 212.524 296.119 214.126 296.119ZM224.33 296.128C225.523 296.128 225.992 295.399 226.222 294.982H226.329V296H227.573V287.273H226.299V290.516H226.222C225.992 290.111 225.558 289.369 224.339 289.369C222.758 289.369 221.594 290.618 221.594 292.74C221.594 294.858 222.741 296.128 224.33 296.128ZM224.612 295.041C223.474 295.041 222.881 294.04 222.881 292.727C222.881 291.428 223.461 290.452 224.612 290.452C225.724 290.452 226.32 291.359 226.32 292.727C226.32 294.104 225.711 295.041 224.612 295.041ZM231.297 296.145C232.379 296.145 232.988 295.595 233.231 295.105H233.282V296H234.527V291.653C234.527 289.749 233.027 289.369 231.987 289.369C230.802 289.369 229.711 289.847 229.285 291.04L230.483 291.312C230.67 290.848 231.147 290.401 232.004 290.401C232.826 290.401 233.248 290.831 233.248 291.572V291.602C233.248 292.067 232.771 292.058 231.595 292.195C230.355 292.339 229.085 292.663 229.085 294.151C229.085 295.438 230.052 296.145 231.297 296.145ZM231.574 295.122C230.853 295.122 230.333 294.798 230.333 294.168C230.333 293.486 230.939 293.243 231.676 293.145C232.089 293.089 233.069 292.979 233.252 292.795V293.639C233.252 294.415 232.635 295.122 231.574 295.122ZM236.795 298.455C237.847 298.455 238.512 297.905 238.891 296.874L241.597 289.467L240.221 289.455L238.563 294.534H238.495L236.837 289.455H235.474L237.869 296.085L237.711 296.52C237.387 297.389 236.931 297.462 236.232 297.27L235.925 298.314C236.079 298.382 236.411 298.455 236.795 298.455ZM247.703 291.053C247.439 290.034 246.642 289.369 245.227 289.369C243.748 289.369 242.7 290.149 242.7 291.308C242.7 292.237 243.262 292.855 244.49 293.128L245.598 293.371C246.228 293.511 246.522 293.793 246.522 294.202C246.522 294.709 245.981 295.105 245.146 295.105C244.383 295.105 243.893 294.777 243.74 294.134L242.508 294.321C242.721 295.48 243.684 296.132 245.154 296.132C246.735 296.132 247.831 295.293 247.831 294.108C247.831 293.183 247.243 292.612 246.041 292.335L245.001 292.097C244.281 291.926 243.97 291.683 243.974 291.24C243.97 290.737 244.515 290.379 245.24 290.379C246.032 290.379 246.399 290.818 246.548 291.257L247.703 291.053ZM250.071 296.081C250.536 296.081 250.923 295.702 250.923 295.229C250.923 294.764 250.536 294.381 250.071 294.381C249.602 294.381 249.219 294.764 249.219 295.229C249.219 295.702 249.602 296.081 250.071 296.081Z" fill="#98A9C6"/>
<path d="M88.1286 296H93.8729V294.871H89.9439V294.807L91.6783 292.991C93.2763 291.376 93.7322 290.605 93.7322 289.629C93.7322 288.227 92.5902 287.153 90.9453 287.153C89.3132 287.153 88.12 288.21 88.12 289.804H89.3771C89.3729 288.866 89.978 288.253 90.9197 288.253C91.8061 288.253 92.4794 288.798 92.4794 289.668C92.4794 290.439 92.0192 290.993 91.0817 291.986L88.1286 295.045V296ZM98.799 287.273H97.5163L95.3388 288.696V289.957L97.4268 288.594H97.478V296H98.799V287.273Z" fill="#FF9536"/>
<path d="M153.959 168H155.276V164.697H157.065C157.095 164.697 157.121 164.697 157.151 164.697L158.923 168H160.423L158.489 164.467C159.558 164.071 160.091 163.18 160.091 162.009C160.091 160.402 159.094 159.273 157.07 159.273H153.959V168ZM155.276 163.564V160.402H156.929C158.229 160.402 158.766 161.02 158.766 162.009C158.766 162.993 158.229 163.564 156.946 163.564H155.276ZM164.33 168.132C165.757 168.132 166.767 167.429 167.057 166.364L165.851 166.146C165.621 166.764 165.067 167.08 164.343 167.08C163.252 167.08 162.519 166.372 162.485 165.111H167.138V164.659C167.138 162.294 165.723 161.369 164.24 161.369C162.417 161.369 161.215 162.759 161.215 164.77C161.215 166.803 162.4 168.132 164.33 168.132ZM162.489 164.156C162.54 163.227 163.213 162.422 164.249 162.422C165.238 162.422 165.885 163.155 165.89 164.156H162.489ZM173.952 161.455H172.584L170.931 166.491H170.863L169.205 161.455H167.837L170.215 168H171.578L173.952 161.455ZM175.15 168H176.424V161.455H175.15V168ZM175.793 160.445C176.232 160.445 176.598 160.104 176.598 159.686C176.598 159.268 176.232 158.923 175.793 158.923C175.35 158.923 174.988 159.268 174.988 159.686C174.988 160.104 175.35 160.445 175.793 160.445ZM180.959 168.132C182.386 168.132 183.396 167.429 183.686 166.364L182.48 166.146C182.25 166.764 181.696 167.08 180.972 167.08C179.881 167.08 179.148 166.372 179.114 165.111H183.767V164.659C183.767 162.294 182.352 161.369 180.869 161.369C179.045 161.369 177.844 162.759 177.844 164.77C177.844 166.803 179.028 168.132 180.959 168.132ZM179.118 164.156C179.169 163.227 179.842 162.422 180.878 162.422C181.866 162.422 182.514 163.155 182.518 164.156H179.118ZM186.588 168H187.884L189.213 163.274H189.311L190.641 168H191.94L193.862 161.455H192.545L191.271 166.24H191.207L189.929 161.455H188.612L187.325 166.261H187.261L185.979 161.455H184.662L186.588 168Z" fill="#3447D3"/>
<path d="M153.959 248H155.276V244.697H157.065C157.095 244.697 157.121 244.697 157.151 244.697L158.923 248H160.423L158.489 244.467C159.558 244.071 160.091 243.18 160.091 242.009C160.091 240.402 159.094 239.273 157.07 239.273H153.959V248ZM155.276 243.564V240.402H156.929C158.229 240.402 158.766 241.02 158.766 242.009C158.766 242.993 158.229 243.564 156.946 243.564H155.276ZM164.33 248.132C165.757 248.132 166.767 247.429 167.057 246.364L165.851 246.146C165.621 246.764 165.067 247.08 164.343 247.08C163.252 247.08 162.519 246.372 162.485 245.111H167.138V244.659C167.138 242.294 165.723 241.369 164.24 241.369C162.417 241.369 161.215 242.759 161.215 244.77C161.215 246.803 162.4 248.132 164.33 248.132ZM162.489 244.156C162.54 243.227 163.213 242.422 164.249 242.422C165.238 242.422 165.885 243.155 165.89 244.156H162.489ZM173.952 241.455H172.584L170.931 246.491H170.863L169.205 241.455H167.837L170.215 248H171.578L173.952 241.455ZM175.15 248H176.424V241.455H175.15V248ZM175.793 240.445C176.232 240.445 176.598 240.104 176.598 239.686C176.598 239.268 176.232 238.923 175.793 238.923C175.35 238.923 174.988 239.268 174.988 239.686C174.988 240.104 175.35 240.445 175.793 240.445ZM180.959 248.132C182.386 248.132 183.396 247.429 183.686 246.364L182.48 246.146C182.25 246.764 181.696 247.08 180.972 247.08C179.881 247.08 179.148 246.372 179.114 245.111H183.767V244.659C183.767 242.294 182.352 241.369 180.869 241.369C179.045 241.369 177.844 242.759 177.844 244.77C177.844 246.803 179.028 248.132 180.959 248.132ZM179.118 244.156C179.169 243.227 179.842 242.422 180.878 242.422C181.866 242.422 182.514 243.155 182.518 244.156H179.118ZM186.588 248H187.884L189.213 243.274H189.311L190.641 248H191.94L193.862 241.455H192.545L191.271 246.24H191.207L189.929 241.455H188.612L187.325 246.261H187.261L185.979 241.455H184.662L186.588 248Z" fill="#3447D3"/>
<path d="M153.959 328H155.276V324.697H157.065C157.095 324.697 157.121 324.697 157.151 324.697L158.923 328H160.423L158.489 324.467C159.558 324.071 160.091 323.18 160.091 322.009C160.091 320.402 159.094 319.273 157.07 319.273H153.959V328ZM155.276 323.564V320.402H156.929C158.229 320.402 158.766 321.02 158.766 322.009C158.766 322.993 158.229 323.564 156.946 323.564H155.276ZM164.33 328.132C165.757 328.132 166.767 327.429 167.057 326.364L165.851 326.146C165.621 326.764 165.067 327.08 164.343 327.08C163.252 327.08 162.519 326.372 162.485 325.111H167.138V324.659C167.138 322.294 165.723 321.369 164.24 321.369C162.417 321.369 161.215 322.759 161.215 324.77C161.215 326.803 162.4 328.132 164.33 328.132ZM162.489 324.156C162.54 323.227 163.213 322.422 164.249 322.422C165.238 322.422 165.885 323.155 165.89 324.156H162.489ZM173.952 321.455H172.584L170.931 326.491H170.863L169.205 321.455H167.837L170.215 328H171.578L173.952 321.455ZM175.15 328H176.424V321.455H175.15V328ZM175.793 320.445C176.232 320.445 176.598 320.104 176.598 319.686C176.598 319.268 176.232 318.923 175.793 318.923C175.35 318.923 174.988 319.268 174.988 319.686C174.988 320.104 175.35 320.445 175.793 320.445ZM180.959 328.132C182.386 328.132 183.396 327.429 183.686 326.364L182.48 326.146C182.25 326.764 181.696 327.08 180.972 327.08C179.881 327.08 179.148 326.372 179.114 325.111H183.767V324.659C183.767 322.294 182.352 321.369 180.869 321.369C179.045 321.369 177.844 322.759 177.844 324.77C177.844 326.803 179.028 328.132 180.959 328.132ZM179.118 324.156C179.169 323.227 179.842 322.422 180.878 322.422C181.866 322.422 182.514 323.155 182.518 324.156H179.118ZM186.588 328H187.884L189.213 323.274H189.311L190.641 328H191.94L193.862 321.455H192.545L191.271 326.24H191.207L189.929 321.455H188.612L187.325 326.261H187.261L185.979 321.455H184.662L186.588 328Z" fill="#3447D3"/>
<path d="M222.784 168C225.443 168 226.982 166.351 226.982 163.624C226.982 160.909 225.443 159.273 222.874 159.273H219.959V168H222.784ZM221.276 166.849V160.423H222.793C224.702 160.423 225.686 161.565 225.686 163.624C225.686 165.69 224.702 166.849 222.712 166.849H221.276ZM228.517 168H229.791V161.455H228.517V168ZM229.16 160.445C229.599 160.445 229.966 160.104 229.966 159.686C229.966 159.268 229.599 158.923 229.16 158.923C228.717 158.923 228.355 159.268 228.355 159.686C228.355 160.104 228.717 160.445 229.16 160.445ZM236.41 163.053C236.146 162.034 235.349 161.369 233.934 161.369C232.455 161.369 231.407 162.149 231.407 163.308C231.407 164.237 231.969 164.855 233.197 165.128L234.305 165.371C234.935 165.511 235.229 165.793 235.229 166.202C235.229 166.709 234.688 167.105 233.853 167.105C233.09 167.105 232.6 166.777 232.447 166.134L231.215 166.321C231.428 167.48 232.391 168.132 233.862 168.132C235.442 168.132 236.538 167.293 236.538 166.108C236.538 165.183 235.95 164.612 234.748 164.335L233.708 164.097C232.988 163.926 232.677 163.683 232.681 163.24C232.677 162.737 233.222 162.379 233.947 162.379C234.739 162.379 235.106 162.818 235.255 163.257L236.41 163.053ZM237.939 168H239.213V163.964C239.213 163.082 239.831 162.469 240.555 162.469C241.262 162.469 241.752 162.938 241.752 163.649V168H243.022V163.828C243.022 163.04 243.504 162.469 244.335 162.469C245.008 162.469 245.562 162.844 245.562 163.73V168H246.836V163.611C246.836 162.115 246.001 161.369 244.816 161.369C243.875 161.369 243.167 161.821 242.852 162.52H242.784C242.498 161.804 241.897 161.369 241.024 161.369C240.159 161.369 239.515 161.8 239.243 162.52H239.162V161.455H237.939V168ZM248.544 168H249.818V161.455H248.544V168ZM249.188 160.445C249.626 160.445 249.993 160.104 249.993 159.686C249.993 159.268 249.626 158.923 249.188 158.923C248.744 158.923 248.382 159.268 248.382 159.686C248.382 160.104 248.744 160.445 249.188 160.445ZM256.437 163.053C256.173 162.034 255.376 161.369 253.961 161.369C252.483 161.369 251.434 162.149 251.434 163.308C251.434 164.237 251.997 164.855 253.224 165.128L254.332 165.371C254.963 165.511 255.257 165.793 255.257 166.202C255.257 166.709 254.716 167.105 253.88 167.105C253.118 167.105 252.627 166.777 252.474 166.134L251.243 166.321C251.456 167.48 252.419 168.132 253.889 168.132C255.47 168.132 256.565 167.293 256.565 166.108C256.565 165.183 255.977 164.612 254.775 164.335L253.735 164.097C253.015 163.926 252.704 163.683 252.708 163.24C252.704 162.737 253.25 162.379 253.974 162.379C254.767 162.379 255.133 162.818 255.282 163.257L256.437 163.053ZM262.871 163.053C262.607 162.034 261.81 161.369 260.395 161.369C258.916 161.369 257.868 162.149 257.868 163.308C257.868 164.237 258.43 164.855 259.658 165.128L260.766 165.371C261.396 165.511 261.69 165.793 261.69 166.202C261.69 166.709 261.149 167.105 260.314 167.105C259.551 167.105 259.061 166.777 258.908 166.134L257.676 166.321C257.889 167.48 258.852 168.132 260.322 168.132C261.903 168.132 262.999 167.293 262.999 166.108C262.999 165.183 262.411 164.612 261.209 164.335L260.169 164.097C259.449 163.926 259.138 163.683 259.142 163.24C259.138 162.737 259.683 162.379 260.408 162.379C261.2 162.379 261.567 162.818 261.716 163.257L262.871 163.053Z" fill="#3447D3"/>
<path d="M222.784 248C225.443 248 226.982 246.351 226.982 243.624C226.982 240.909 225.443 239.273 222.874 239.273H219.959V248H222.784ZM221.276 246.849V240.423H222.793C224.702 240.423 225.686 241.565 225.686 243.624C225.686 245.69 224.702 246.849 222.712 246.849H221.276ZM228.517 248H229.791V241.455H228.517V248ZM229.16 240.445C229.599 240.445 229.966 240.104 229.966 239.686C229.966 239.268 229.599 238.923 229.16 238.923C228.717 238.923 228.355 239.268 228.355 239.686C228.355 240.104 228.717 240.445 229.16 240.445ZM236.41 243.053C236.146 242.034 235.349 241.369 233.934 241.369C232.455 241.369 231.407 242.149 231.407 243.308C231.407 244.237 231.969 244.855 233.197 245.128L234.305 245.371C234.935 245.511 235.229 245.793 235.229 246.202C235.229 246.709 234.688 247.105 233.853 247.105C233.09 247.105 232.6 246.777 232.447 246.134L231.215 246.321C231.428 247.48 232.391 248.132 233.862 248.132C235.442 248.132 236.538 247.293 236.538 246.108C236.538 245.183 235.95 244.612 234.748 244.335L233.708 244.097C232.988 243.926 232.677 243.683 232.681 243.24C232.677 242.737 233.222 242.379 233.947 242.379C234.739 242.379 235.106 242.818 235.255 243.257L236.41 243.053ZM237.939 248H239.213V243.964C239.213 243.082 239.831 242.469 240.555 242.469C241.262 242.469 241.752 242.938 241.752 243.649V248H243.022V243.828C243.022 243.04 243.504 242.469 244.335 242.469C245.008 242.469 245.562 242.844 245.562 243.73V248H246.836V243.611C246.836 242.115 246.001 241.369 244.816 241.369C243.875 241.369 243.167 241.821 242.852 242.52H242.784C242.498 241.804 241.897 241.369 241.024 241.369C240.159 241.369 239.515 241.8 239.243 242.52H239.162V241.455H237.939V248ZM248.544 248H249.818V241.455H248.544V248ZM249.188 240.445C249.626 240.445 249.993 240.104 249.993 239.686C249.993 239.268 249.626 238.923 249.188 238.923C248.744 238.923 248.382 239.268 248.382 239.686C248.382 240.104 248.744 240.445 249.188 240.445ZM256.437 243.053C256.173 242.034 255.376 241.369 253.961 241.369C252.483 241.369 251.434 242.149 251.434 243.308C251.434 244.237 251.997 244.855 253.224 245.128L254.332 245.371C254.963 245.511 255.257 245.793 255.257 246.202C255.257 246.709 254.716 247.105 253.88 247.105C253.118 247.105 252.627 246.777 252.474 246.134L251.243 246.321C251.456 247.48 252.419 248.132 253.889 248.132C255.47 248.132 256.565 247.293 256.565 246.108C256.565 245.183 255.977 244.612 254.775 244.335L253.735 244.097C253.015 243.926 252.704 243.683 252.708 243.24C252.704 242.737 253.25 242.379 253.974 242.379C254.767 242.379 255.133 242.818 255.282 243.257L256.437 243.053ZM262.871 243.053C262.607 242.034 261.81 241.369 260.395 241.369C258.916 241.369 257.868 242.149 257.868 243.308C257.868 244.237 258.43 244.855 259.658 245.128L260.766 245.371C261.396 245.511 261.69 245.793 261.69 246.202C261.69 246.709 261.149 247.105 260.314 247.105C259.551 247.105 259.061 246.777 258.908 246.134L257.676 246.321C257.889 247.48 258.852 248.132 260.322 248.132C261.903 248.132 262.999 247.293 262.999 246.108C262.999 245.183 262.411 244.612 261.209 244.335L260.169 244.097C259.449 243.926 259.138 243.683 259.142 243.24C259.138 242.737 259.683 242.379 260.408 242.379C261.2 242.379 261.567 242.818 261.716 243.257L262.871 243.053Z" fill="#3447D3"/>
<path d="M222.784 328C225.443 328 226.982 326.351 226.982 323.624C226.982 320.909 225.443 319.273 222.874 319.273H219.959V328H222.784ZM221.276 326.849V320.423H222.793C224.702 320.423 225.686 321.565 225.686 323.624C225.686 325.69 224.702 326.849 222.712 326.849H221.276ZM228.517 328H229.791V321.455H228.517V328ZM229.16 320.445C229.599 320.445 229.966 320.104 229.966 319.686C229.966 319.268 229.599 318.923 229.16 318.923C228.717 318.923 228.355 319.268 228.355 319.686C228.355 320.104 228.717 320.445 229.16 320.445ZM236.41 323.053C236.146 322.034 235.349 321.369 233.934 321.369C232.455 321.369 231.407 322.149 231.407 323.308C231.407 324.237 231.969 324.855 233.197 325.128L234.305 325.371C234.935 325.511 235.229 325.793 235.229 326.202C235.229 326.709 234.688 327.105 233.853 327.105C233.09 327.105 232.6 326.777 232.447 326.134L231.215 326.321C231.428 327.48 232.391 328.132 233.862 328.132C235.442 328.132 236.538 327.293 236.538 326.108C236.538 325.183 235.95 324.612 234.748 324.335L233.708 324.097C232.988 323.926 232.677 323.683 232.681 323.24C232.677 322.737 233.222 322.379 233.947 322.379C234.739 322.379 235.106 322.818 235.255 323.257L236.41 323.053ZM237.939 328H239.213V323.964C239.213 323.082 239.831 322.469 240.555 322.469C241.262 322.469 241.752 322.938 241.752 323.649V328H243.022V323.828C243.022 323.04 243.504 322.469 244.335 322.469C245.008 322.469 245.562 322.844 245.562 323.73V328H246.836V323.611C246.836 322.115 246.001 321.369 244.816 321.369C243.875 321.369 243.167 321.821 242.852 322.52H242.784C242.498 321.804 241.897 321.369 241.024 321.369C240.159 321.369 239.515 321.8 239.243 322.52H239.162V321.455H237.939V328ZM248.544 328H249.818V321.455H248.544V328ZM249.188 320.445C249.626 320.445 249.993 320.104 249.993 319.686C249.993 319.268 249.626 318.923 249.188 318.923C248.744 318.923 248.382 319.268 248.382 319.686C248.382 320.104 248.744 320.445 249.188 320.445ZM256.437 323.053C256.173 322.034 255.376 321.369 253.961 321.369C252.483 321.369 251.434 322.149 251.434 323.308C251.434 324.237 251.997 324.855 253.224 325.128L254.332 325.371C254.963 325.511 255.257 325.793 255.257 326.202C255.257 326.709 254.716 327.105 253.88 327.105C253.118 327.105 252.627 326.777 252.474 326.134L251.243 326.321C251.456 327.48 252.419 328.132 253.889 328.132C255.47 328.132 256.565 327.293 256.565 326.108C256.565 325.183 255.977 324.612 254.775 324.335L253.735 324.097C253.015 323.926 252.704 323.683 252.708 323.24C252.704 322.737 253.25 322.379 253.974 322.379C254.767 322.379 255.133 322.818 255.282 323.257L256.437 323.053ZM262.871 323.053C262.607 322.034 261.81 321.369 260.395 321.369C258.916 321.369 257.868 322.149 257.868 323.308C257.868 324.237 258.43 324.855 259.658 325.128L260.766 325.371C261.396 325.511 261.69 325.793 261.69 326.202C261.69 326.709 261.149 327.105 260.314 327.105C259.551 327.105 259.061 326.777 258.908 326.134L257.676 326.321C257.889 327.48 258.852 328.132 260.322 328.132C261.903 328.132 262.999 327.293 262.999 326.108C262.999 325.183 262.411 324.612 261.209 324.335L260.169 324.097C259.449 323.926 259.138 323.683 259.142 323.24C259.138 322.737 259.683 322.379 260.408 322.379C261.2 322.379 261.567 322.818 261.716 323.257L262.871 323.053Z" fill="#3447D3"/>
<path d="M251 54L241 44" stroke="#98A9C6" stroke-width="1.5" stroke-linecap="round" stroke-linejoin="round"/>
<path d="M251 44L241 54" stroke="#98A9C6" stroke-width="1.5" stroke-linecap="round" stroke-linejoin="round"/>
<path d="M289 88L8 88" stroke="#D9E5F8" stroke-width="1.5"/>
<defs>
<filter id="filter0_d" x="0" y="0" width="297" height="846" filterUnits="userSpaceOnUse" color-interpolation-filters="sRGB">
<feFlood flood-opacity="0" result="BackgroundImageFix"/>
<feColorMatrix in="SourceAlpha" type="matrix" values="0 0 0 0 0 0 0 0 0 0 0 0 0 0 0 0 0 0 127 0"/>
<feOffset/>
<feGaussianBlur stdDeviation="4"/>
<feColorMatrix type="matrix" values="0 0 0 0 0.385 0 0 0 0 0.445978 0 0 0 0 0.55 0 0 0 0.19 0"/>
<feBlend mode="normal" in2="BackgroundImageFix" result="effect1_dropShadow"/>
<feBlend mode="normal" in="SourceGraphic" in2="effect1_dropShadow" result="shape"/>
</filter>
</defs>
</svg>
