<svg width="1518" height="663" viewBox="0 0 1518 663" fill="none" xmlns="http://www.w3.org/2000/svg">
<path fill-rule="evenodd" clip-rule="evenodd" d="M235.086 590.554L215.637 593L179 358H236L235.086 590.554Z" fill="#92AED9"/>
<path fill-rule="evenodd" clip-rule="evenodd" d="M150.233 599.703L131.98 600C131.98 600 126.337 382.157 142.136 363H195L150.233 599.703Z" fill="#B0C9F1"/>
<path fill-rule="evenodd" clip-rule="evenodd" d="M181.367 192H153V237L194 235.288L181.367 192Z" fill="#FFDFAE"/>
<path fill-rule="evenodd" clip-rule="evenodd" d="M189.674 163.677C190.996 158.871 191.61 153.899 191.496 148.917C191.351 136.094 159.665 138.473 146.653 151.801C132.73 166.063 145.538 186.156 145.538 186.156C156.489 189.393 189.674 163.677 189.674 163.677Z" fill="#37474F"/>
<path fill-rule="evenodd" clip-rule="evenodd" d="M179.928 202.567C179.928 202.567 161.041 191.257 152.79 188.385C152.79 188.385 152.802 197.573 152.82 203.4C153.472 209.394 166.902 213.72 172.286 214.958C176.639 215.959 179.928 202.567 179.928 202.567Z" fill="#F4CA92"/>
<path fill-rule="evenodd" clip-rule="evenodd" d="M199.429 172.93C198.929 196.724 184.029 215.939 174.129 211.889C169.387 209.947 158.264 205.768 153.074 194.824C152.063 192.692 144.342 193.324 144.721 185.843C144.903 182.267 152.079 181.292 152.187 176.122C152.687 152.328 161.612 162.606 175.978 148.454C181.458 143.054 190.445 145.787 192.565 148.912C196.465 154.663 199.712 159.547 199.429 172.93Z" fill="#FFDFAE"/>
<path fill-rule="evenodd" clip-rule="evenodd" d="M158.927 621.707C157.115 620.37 157.194 592.907 157.194 592.907H133.256C129.71 595.938 134.799 633.587 134.799 633.587H183.054C184.39 626.998 164.337 625.699 158.927 621.707Z" fill="#D8984D"/>
<path fill-rule="evenodd" clip-rule="evenodd" d="M240.927 617.707C239.115 616.37 239.194 588.907 239.194 588.907H215.256C211.71 591.938 216.799 629.587 216.799 629.587H265.054C266.387 622.998 246.337 621.699 240.927 617.707Z" fill="#D8984D"/>
<rect width="16.2027" height="19.1835" transform="matrix(0.993609 -0.112879 0.101792 0.994806 61.9888 100.171)" fill="#FFDFAE"/>
<path fill-rule="evenodd" clip-rule="evenodd" d="M332.238 148.992C335.992 152.704 334.147 159.195 328.805 165.07C323.463 170.945 316.645 173.982 312.891 170.27C309.138 166.559 311.495 159.256 316.837 153.382C322.179 147.507 328.483 145.281 332.238 148.992Z" fill="#FFDFAE"/>
<path fill-rule="evenodd" clip-rule="evenodd" d="M241.98 371.254L127.816 383.361L124.28 259.579C123.919 256.052 86.2496 236.432 73.6077 214.652C64.4297 198.843 60.7631 112.641 60.7631 112.641L80.4626 112.779L99.8465 196.488C109.972 197.639 152.143 213.18 155.357 212.815C155.357 212.815 165.452 229.219 174.947 228.041C187.639 226.467 187.269 213.303 187.269 213.303L228.122 219.066L277.098 207.409L311.199 161.49L327.52 169.873C327.52 169.873 304.185 217.023 293.459 231.217C282.973 245.098 223.668 253.603 223.668 253.603L241.98 371.254Z" fill="#56557E"/>
<path d="M127.816 383.361L241.98 371.254L223.668 253.603L216 217.356L187.269 213.303C187.269 213.303 187.639 226.467 174.947 228.041C165.452 229.219 155.357 212.815 155.357 212.815C153.646 213.009 140.896 208.696 127.816 204.446C130.645 232.104 126.638 252.725 124.28 259.579L127.816 383.361Z" fill="#F57C00"/>
<path fill-rule="evenodd" clip-rule="evenodd" d="M307.245 152.134C309.324 148.869 306.517 143.048 300.977 139.131C295.436 135.214 289.26 134.686 287.181 137.951C285.102 141.215 287.909 147.037 293.449 150.953C298.99 154.87 305.166 155.399 307.245 152.134Z" fill="white"/>
<path fill-rule="evenodd" clip-rule="evenodd" d="M338.426 159.152L334.789 164.864C334.118 165.781 332.872 165.96 331.992 165.264L312.922 151.785C311.978 151.191 311.662 149.909 312.212 148.907L315.849 143.195C316.52 142.277 317.767 142.098 318.646 142.794L332.968 155.928L337.709 156.273C338.656 156.865 338.975 158.148 338.426 159.152Z" fill="#37474F"/>
<path fill-rule="evenodd" clip-rule="evenodd" d="M333.138 106.746C339.193 106.058 343.572 100.328 342.919 93.9479C342.267 87.5678 336.829 82.9534 330.774 83.6413C324.719 84.3291 320.339 90.0589 320.992 96.4389C321.645 102.819 327.083 107.433 333.138 106.746Z" fill="white"/>
<path fill-rule="evenodd" clip-rule="evenodd" d="M349.997 110.641C332.295 115.889 312.416 144.76 312.416 144.76L292.849 130.93C292.849 130.93 315.011 99.5782 307.394 80.5254C307.311 80.3109 350.142 110.596 349.997 110.641Z" fill="white"/>
<path fill-rule="evenodd" clip-rule="evenodd" d="M285.847 132.629L292 122.965C293.153 121.155 295.48 120.671 297.199 121.886L317.552 136.274C318.377 136.858 318.949 137.762 319.141 138.79C319.333 139.817 319.13 140.882 318.576 141.752L312.423 151.415C311.87 152.285 311.011 152.887 310.036 153.089C309.061 153.291 308.05 153.077 307.225 152.494L286.871 138.106C285.153 136.891 284.695 134.439 285.847 132.629Z" fill="#FF6369"/>
<path fill-rule="evenodd" clip-rule="evenodd" d="M306.555 79.493C306.865 79.0052 307.346 78.6673 307.893 78.5536C308.44 78.4399 309.007 78.5599 309.47 78.887L350.657 108.003C351.62 108.684 351.877 110.058 351.231 111.073C350.921 111.561 350.44 111.899 349.893 112.013C349.346 112.126 348.779 112.006 348.316 111.679L307.129 82.5635C306.166 81.8826 305.909 80.5079 306.555 79.493Z" fill="#FF6369"/>
<path fill-rule="evenodd" clip-rule="evenodd" d="M335.459 155.493C336.845 153.008 334.38 148.772 329.954 146.033C325.527 143.293 320.816 143.087 319.431 145.572C318.045 148.058 320.51 152.293 324.937 155.033C329.363 157.772 334.074 157.978 335.459 155.493Z" fill="#FFDFAE"/>
<path fill-rule="evenodd" clip-rule="evenodd" d="M59.883 98.2309C60.2758 92.514 61.5507 88.7694 72.7477 90.2269C79.7306 91.135 85.6885 94.5177 85.2955 100.233C84.9026 105.949 78.6069 108.905 71.5894 108.351C64.5718 107.797 59.4914 103.946 59.883 98.2309Z" fill="#FFDFAE"/>
<path d="M25.1892 74.8026C25.769 74.7383 26.2199 74.8351 26.5419 75.0928C26.9007 75.3046 27.1054 75.6382 27.1559 76.0938C27.211 76.5907 27.1304 76.9979 26.9141 77.3153C26.6978 77.6328 26.3894 77.8766 25.9891 78.0467C25.6301 78.2123 25.2045 78.3433 24.7121 78.4399C24.2566 78.4904 23.801 78.5409 23.3455 78.5914C21.2748 78.821 19.2342 78.7538 17.2235 78.3898C15.2496 77.9799 13.453 77.2778 11.8335 76.2835C10.2555 75.2847 8.93523 73.9638 7.8727 72.3209C6.81017 70.678 6.15033 68.6969 5.89319 66.3778C5.56258 63.3961 5.90137 60.7803 6.90957 58.5305C7.95459 56.2347 9.33083 54.2795 11.0383 52.6648C12.7872 51.0455 14.6993 49.7645 16.7747 48.8217C18.8869 47.8329 20.8657 47.1524 22.7109 46.7801C23.4563 46.6974 23.9946 46.8264 24.3258 47.1669C24.6571 47.5075 24.8456 47.8849 24.8915 48.299C25.0063 49.3343 24.6151 49.9646 23.7178 50.1899C22.0474 50.6266 20.3172 51.2796 18.527 52.1488C16.7738 52.9721 15.1953 54.0484 13.7916 55.3779C12.3879 56.7073 11.2809 58.2554 10.4706 60.0222C9.65582 61.7475 9.37239 63.7283 9.62035 65.9646C9.82239 67.7867 10.3903 69.3168 11.3241 70.5548C12.2579 71.7927 13.3942 72.7777 14.733 73.5096C16.0672 74.2001 17.5234 74.6674 19.1016 74.9117C20.7212 75.1513 22.2972 75.1862 23.8294 75.0163C24.0365 74.9933 24.2643 74.9681 24.5128 74.9405C24.7612 74.913 24.9867 74.867 25.1892 74.8026ZM37.2026 57.2468C37.6766 56.9846 38.0378 56.8397 38.2863 56.8122C38.6176 56.7755 38.9604 56.8423 39.3147 57.0126C39.6 56.939 39.906 56.8632 40.2327 56.785C40.5962 56.6609 40.9022 56.585 41.1507 56.5575C42.5173 56.4059 43.7919 56.5581 44.9743 57.0139C46.1521 57.4283 47.1873 58.0681 48.0797 58.9333C49.0136 59.794 49.7795 60.841 50.3774 62.0743C50.9753 63.3075 51.3546 64.6489 51.5153 66.0984C51.6576 67.3822 51.5469 68.6521 51.1831 69.9082C50.8561 71.1182 50.3083 72.227 49.5397 73.2345C48.8124 74.2375 47.9196 75.0701 46.8611 75.7324C45.8027 76.3948 44.6523 76.7948 43.4099 76.9326C41.8776 77.1025 40.442 77.0101 39.1031 76.6555C37.7642 76.3009 36.591 75.7393 35.5835 74.9707C34.576 74.202 33.7365 73.247 33.0649 72.1058C32.4348 70.9599 32.0417 69.6829 31.8856 68.2749C31.7616 67.1568 31.7596 66.0041 31.8795 64.817C31.9948 63.5885 32.2665 62.4474 32.6947 61.3938C33.1228 60.3402 33.6936 59.4385 34.407 58.6886C35.1618 57.9342 36.0936 57.4536 37.2026 57.2468ZM38.3062 60.3943C37.4503 60.615 36.8244 61.0198 36.4286 61.6086C36.0282 62.1561 35.7427 62.7956 35.5723 63.5272C35.4433 64.2542 35.4017 65.0134 35.4476 65.8048C35.4888 66.5548 35.5439 67.2404 35.6127 67.8616C35.6954 68.6071 35.9046 69.3594 36.2403 70.1187C36.5714 70.8366 37.0406 71.4763 37.6479 72.0378C38.2919 72.5533 39.0488 72.9515 39.9183 73.2323C40.7879 73.5132 41.8232 73.5871 43.0242 73.4539C43.9353 73.3529 44.7244 73.0977 45.3917 72.6883C46.0958 72.233 46.6435 71.6901 47.0348 71.0599C47.4628 70.3836 47.7598 69.6589 47.9256 68.8859C48.0914 68.113 48.1284 67.3123 48.0366 66.4841C47.7978 64.3306 47.085 62.628 45.8982 61.3761C44.7067 60.0829 43.2344 59.4706 41.4813 59.5392L40.301 59.6701C39.9697 59.7068 39.6269 59.8287 39.2726 60.0356C38.9182 60.2426 38.5961 60.3622 38.3062 60.3943ZM61.5669 55.8029C62.1836 55.3153 62.9176 54.9405 63.7689 54.6784C64.6616 54.4117 65.5842 54.2256 66.5367 54.12C67.8711 54.0559 69.0352 54.1574 70.029 54.4245C71.0229 54.6916 71.8717 55.1634 72.5755 55.8399C73.2748 56.4751 73.8336 57.3564 74.2521 58.4838C74.666 59.5698 74.9647 60.941 75.1484 62.5976C75.3367 64.2955 75.4307 65.8991 75.4303 67.4083C75.4254 68.8761 75.3399 70.1852 75.174 71.3355C75.0035 72.4443 74.7457 73.3323 74.4004 73.9994C74.1012 74.7034 73.7031 75.0829 73.2061 75.138C72.8334 75.1793 72.4883 75.0918 72.1709 74.8755C71.8534 74.6591 71.6649 74.2818 71.6052 73.7434C71.5455 73.2051 71.5318 72.5149 71.5642 71.6728C71.6335 70.7848 71.6981 69.8553 71.7581 68.8845C71.855 67.8676 71.9104 66.8553 71.9245 65.8476C71.9753 64.794 71.9525 63.8323 71.8561 62.9626C71.7229 61.7616 71.5138 60.8206 71.2287 60.1396C70.9804 59.4125 70.6469 58.8626 70.2283 58.4898C69.8464 58.071 69.3772 57.8086 68.8204 57.7026C68.2591 57.5552 67.6218 57.4792 66.9086 57.4744C66.039 57.5708 65.1854 57.8122 64.3478 58.1985C63.5103 58.5849 62.781 58.8125 62.1598 58.8813C61.787 58.9227 61.4604 58.8122 61.1798 58.5498C60.9406 58.2829 60.8003 57.9631 60.759 57.5903C60.7268 57.3005 60.7568 57.0037 60.8489 56.7C60.9778 56.3503 61.2171 56.0513 61.5669 55.8029ZM58.7648 55.4848C59.0678 58.218 59.3962 60.9904 59.7499 63.8019C60.0989 66.572 60.5654 69.0775 61.1492 71.3185L61.1975 71.7533C61.2755 72.4573 61.1488 73.0163 60.8175 73.4304C60.5229 73.7984 60.1685 74.0054 59.7544 74.0513C59.3817 74.0926 59.0113 73.966 58.6433 73.6715C58.2752 73.3769 58.0108 72.8822 57.8499 72.1873C57.4224 70.2225 57.0295 68.1909 56.6711 66.0926C56.3126 63.9944 56.0094 61.8271 55.7615 59.5908C55.711 59.1352 55.6329 58.6199 55.5272 58.0447C55.4215 57.4695 55.3618 56.9311 55.3481 56.4296C55.3712 55.882 55.4886 55.4288 55.7004 55.07C55.949 54.6651 56.3631 54.4305 56.9429 54.3663C57.357 54.3203 57.7458 54.424 58.1093 54.6771C58.5095 54.8843 58.728 55.1535 58.7648 55.4848ZM97.1914 70.8435C93.0962 70.9622 89.9653 69.9469 87.7985 67.7976C85.6318 65.6483 84.3051 62.3788 83.8184 57.989L83.5291 55.38C81.914 55.5591 80.552 55.5634 79.4431 55.3929C78.3296 55.181 77.7155 54.5573 77.6007 53.522C77.6422 53.1401 77.7941 52.8089 78.0565 52.5282C78.3142 52.2062 78.7123 52.0154 79.2506 51.9557C79.7476 51.9006 80.355 51.8961 81.0727 51.9423C81.7905 51.9884 82.5636 51.9656 83.3918 51.8738C83.2449 50.5486 83.1371 49.1981 83.0684 47.8222C82.9951 46.405 83 45.1259 83.083 43.9848C83.2075 42.8391 83.4171 41.8935 83.7118 41.1482C84.0018 40.3614 84.4575 39.9336 85.0786 39.8647C85.5342 39.8142 85.9713 39.9754 86.3899 40.3482C86.804 40.6796 87.0477 41.1766 87.1212 41.8392C87.236 42.8745 87.2656 44.2756 87.2099 46.0425C87.1543 47.8094 87.17 49.6522 87.257 51.571C87.5929 51.5757 87.9288 51.5803 88.2647 51.585C88.6374 51.5437 89.0101 51.5024 89.3828 51.461C90.0454 51.3876 90.7057 51.2934 91.3638 51.1785C92.0632 51.059 92.7603 50.9188 93.4552 50.758C94.0349 50.6937 94.5295 50.8065 94.939 51.0965C95.3484 51.3865 95.5761 51.7385 95.6221 52.1527C95.6863 52.7324 95.5689 53.1856 95.2697 53.5123C94.966 53.7975 94.5518 54.032 94.0272 54.216C93.5395 54.3539 92.9436 54.4619 92.2395 54.54C91.5769 54.6134 90.9143 54.6869 90.2517 54.7604L87.3942 55.0772C87.4033 55.5373 87.4308 55.9745 87.4768 56.3886C87.5227 56.8027 87.5686 57.2169 87.6145 57.631C87.7798 59.1218 88.0533 60.454 88.4349 61.6274C88.8534 62.7548 89.4444 63.7373 90.2081 64.575C90.9717 65.4126 91.924 66.0616 93.065 66.522C94.2061 66.9824 95.5772 67.2495 97.1784 67.3235C97.6432 67.3559 97.9951 67.5055 98.2343 67.7724C98.4735 68.0393 98.6138 68.3592 98.6551 68.7319C98.7102 69.2288 98.6158 69.7004 98.3718 70.1467C98.1647 70.547 97.7712 70.7793 97.1914 70.8435ZM103.542 68.0014C103.593 66.5704 103.589 65.2084 103.529 63.9154C103.506 62.5764 103.424 61.265 103.281 59.9812C103.001 57.455 102.464 54.8736 101.668 52.2369C101.613 52.1172 101.574 51.9539 101.551 51.7468C101.487 51.167 101.599 50.6724 101.889 50.2629C102.221 49.8489 102.635 49.6143 103.132 49.5592C103.67 49.4995 104.084 49.6423 104.374 49.9874C104.705 50.328 104.965 50.7813 105.154 51.3473C105.338 51.8719 105.487 52.4632 105.602 53.1212C105.754 53.7332 105.924 54.3222 106.112 54.8882C106.591 54.2902 107.217 53.6967 107.99 53.1079C108.763 52.5192 109.585 51.9879 110.455 51.5142C111.366 51.0358 112.286 50.6403 113.216 50.3276C114.141 49.9736 115.017 49.7506 115.845 49.6588C116.301 49.6082 116.715 49.751 117.088 50.087C117.46 50.4229 117.672 50.8187 117.722 51.2742C117.768 51.6884 117.69 52.1163 117.487 52.558C117.28 52.9582 116.907 53.1882 116.369 53.2479C115.375 53.3581 114.361 53.6593 113.325 54.1514C112.285 54.6021 111.319 55.1494 110.426 55.7934C109.575 56.4328 108.834 57.1228 108.203 57.8635C107.614 58.5995 107.23 59.2919 107.05 59.9407C107.059 60.7781 107.107 61.7789 107.194 62.9431C107.318 64.0612 107.355 65.1471 107.304 66.2008C107.29 67.2085 107.156 68.0827 106.903 68.8235C106.65 69.5642 106.192 69.9714 105.529 70.0448C105.115 70.0907 104.685 69.9917 104.239 69.7477C103.834 69.4992 103.597 69.0643 103.528 68.4431C103.51 68.2775 103.514 68.1302 103.542 68.0014ZM130.008 50.3522L128.393 50.5313C127.73 50.982 127.247 51.5387 126.943 52.2012C126.639 52.8637 126.423 53.5585 126.294 54.2855C126.202 54.9664 126.169 55.6198 126.197 56.2456C126.224 56.8714 126.259 57.3706 126.3 57.7434C126.392 58.5716 126.583 59.347 126.872 60.0694C127.203 60.7873 127.608 61.4132 128.087 61.9471C128.602 62.4349 129.168 62.8124 129.784 63.0794C130.401 63.3464 131.082 63.4386 131.827 63.3559C133.152 63.209 134.135 62.8066 134.775 62.1487C135.456 61.4863 135.914 60.7019 136.149 59.7955C136.425 58.8845 136.549 57.9274 136.522 56.9244C136.49 55.8798 136.426 54.9228 136.329 54.0531C136.187 53.5239 135.941 53.0062 135.591 52.5C135.237 51.9523 134.809 51.4967 134.308 51.1331C133.848 50.7649 133.335 50.4864 132.769 50.2976C132.24 50.0628 131.706 49.9753 131.168 50.035C130.754 50.0809 130.367 50.1866 130.008 50.3522ZM139.655 60.2242C139.41 62.1797 138.557 63.7417 137.093 64.9101C135.63 66.0785 133.945 66.7683 132.04 66.9795C130.674 67.131 129.42 66.9766 128.279 66.5162C127.175 66.0098 126.218 65.3194 125.408 64.445C124.594 63.5291 123.934 62.4914 123.428 61.3317C122.959 60.1261 122.656 58.902 122.518 57.6597C122.408 56.6658 122.412 55.5752 122.532 54.3881C122.648 53.1596 122.919 52.0185 123.348 50.9649C123.776 49.9113 124.388 49.005 125.184 48.246C125.976 47.4455 126.993 46.9764 128.235 46.8387C128.898 46.7652 129.36 46.7768 129.622 46.8735C129.825 46.8091 130.009 46.7678 130.175 46.7494C130.34 46.731 130.527 46.7104 130.734 46.6874C132.68 46.4716 134.258 46.7158 135.468 47.4201C136.678 48.1244 137.688 49.1024 138.498 50.3541C139.344 51.5599 140.061 52.9266 140.65 54.4544C141.239 55.9822 141.903 57.4386 142.644 58.8238C142.864 59.3024 143.175 59.8339 143.575 60.4184C143.971 60.9614 144.366 61.5044 144.762 62.0475C145.157 62.5905 145.484 63.0784 145.742 63.5109C146.041 63.9389 146.204 64.2772 146.231 64.5256C146.282 64.9812 146.155 65.3516 145.852 65.6368C145.548 65.922 145.189 66.0875 144.775 66.1335C144.361 66.1794 143.907 66.0619 143.415 65.7812C142.96 65.4544 142.493 65.024 142.014 64.4902C141.577 63.9517 141.15 63.3074 140.731 62.5573C140.312 61.8072 139.954 61.0295 139.655 60.2242ZM166.145 59.8023C166.766 59.7335 167.237 59.8279 167.559 60.0856C167.877 60.302 168.061 60.6379 168.111 61.0935C168.176 61.6732 168.079 62.1241 167.821 62.4462C167.559 62.7268 167.225 62.9315 166.82 63.0602C166.415 63.189 165.964 63.2809 165.467 63.336C164.97 63.3911 164.536 63.4393 164.163 63.4806C162.424 63.6735 160.684 63.6777 158.945 63.4932C157.201 63.2674 155.623 62.8345 154.211 62.1946C152.798 61.5547 151.611 60.6802 150.65 59.571C149.688 58.4619 149.116 57.0791 148.932 55.4226C148.716 53.4762 148.99 51.7898 149.755 50.3636C150.556 48.8914 151.614 47.6631 152.93 46.6787C154.283 45.6483 155.809 44.8503 157.507 44.2847C159.246 43.7146 160.965 43.3354 162.663 43.1471C163.74 43.0277 164.584 43.0808 165.196 43.3064C165.803 43.4906 166.148 43.9554 166.231 44.7008C166.281 45.1564 166.199 45.5429 165.982 45.8603C165.807 46.1732 165.513 46.3526 165.099 46.3985C164.809 46.4306 164.54 46.4605 164.291 46.488C164.038 46.4742 163.787 46.481 163.539 46.5085C162.089 46.6693 160.697 46.9703 159.363 47.4118C158.07 47.8486 156.919 48.4373 155.911 49.1779C154.945 49.9139 154.186 50.8155 153.633 51.8829C153.118 52.9043 152.936 54.0983 153.087 55.4649C153.206 56.5417 153.639 57.416 154.384 58.088C155.129 58.7599 156.045 59.2663 157.131 59.607C158.217 59.9478 159.392 60.1528 160.657 60.2221C161.923 60.2914 163.135 60.2618 164.295 60.1332C164.626 60.0965 164.937 60.062 165.227 60.0299C165.512 59.9563 165.818 59.8805 166.145 59.8023ZM188.755 60.691C184.66 60.8097 181.529 59.7943 179.362 57.645C177.196 55.4957 175.869 52.2262 175.382 47.8364L175.093 45.2274C173.478 45.4065 172.116 45.4108 171.007 45.2403C169.893 45.0284 169.279 44.4048 169.165 43.3694C169.206 42.9875 169.358 42.6563 169.62 42.3757C169.878 42.0536 170.276 41.8628 170.814 41.8031C171.311 41.748 171.919 41.7435 172.637 41.7897C173.354 41.8359 174.127 41.813 174.956 41.7212C174.809 40.396 174.701 39.0455 174.632 37.6697C174.559 36.2524 174.564 34.9733 174.647 33.8322C174.771 32.6865 174.981 31.7409 175.276 30.9956C175.566 30.2088 176.021 29.781 176.643 29.7121C177.098 29.6616 177.535 29.8228 177.954 30.1956C178.368 30.527 178.612 31.024 178.685 31.6866C178.8 32.7219 178.829 34.123 178.774 35.8899C178.718 37.6568 178.734 39.4996 178.821 41.4184C179.157 41.4231 179.493 41.4277 179.829 41.4324C180.201 41.3911 180.574 41.3498 180.947 41.3084C181.609 41.235 182.27 41.1408 182.928 41.0259C183.627 40.9064 184.324 40.7663 185.019 40.6054C185.599 40.5411 186.093 40.6539 186.503 40.9439C186.912 41.2339 187.14 41.5859 187.186 42.0001C187.25 42.5798 187.133 43.033 186.834 43.3597C186.53 43.6449 186.116 43.8795 185.591 44.0634C185.103 44.2013 184.507 44.3093 183.803 44.3874C183.141 44.4608 182.478 44.5343 181.816 44.6078L178.958 44.9246C178.967 45.3847 178.995 45.8219 179.041 46.236C179.087 46.6501 179.132 47.0643 179.178 47.4784C179.344 48.9693 179.617 50.3014 179.999 51.4748C180.417 52.6022 181.008 53.5848 181.772 54.4224C182.536 55.26 183.488 55.909 184.629 56.3694C185.77 56.8298 187.141 57.097 188.742 57.1709C189.207 57.2033 189.559 57.3529 189.798 57.6198C190.037 57.8867 190.178 58.2066 190.219 58.5793C190.274 59.0762 190.18 59.5479 189.936 59.9941C189.729 60.3944 189.335 60.6267 188.755 60.691ZM198.464 39.3661C198.938 39.1039 199.3 38.9591 199.548 38.9315C199.879 38.8948 200.222 38.9616 200.576 39.1319C200.862 39.0583 201.168 38.9825 201.494 38.9043C201.858 38.7802 202.164 38.7043 202.412 38.6768C203.779 38.5253 205.054 38.6774 206.236 39.1332C207.414 39.5476 208.449 40.1874 209.341 41.0526C210.275 41.9133 211.041 42.9603 211.639 44.1936C212.237 45.4269 212.616 46.7682 212.777 48.2177C212.919 49.5015 212.809 50.7714 212.445 52.0275C212.118 53.2376 211.57 54.3464 210.801 55.3539C210.074 56.3568 209.181 57.1894 208.123 57.8518C207.064 58.5141 205.914 58.9142 204.672 59.0519C203.139 59.2218 201.704 59.1295 200.365 58.7749C199.026 58.4202 197.853 57.8586 196.845 57.09C195.838 56.3213 194.998 55.3664 194.327 54.2251C193.697 53.0792 193.303 51.8023 193.147 50.3942C193.023 49.2761 193.021 48.1234 193.141 46.9363C193.256 45.7078 193.528 44.5667 193.956 43.5131C194.385 42.4595 194.955 41.5578 195.669 40.808C196.423 40.0535 197.355 39.5729 198.464 39.3661ZM199.568 42.5136C198.712 42.7343 198.086 43.1391 197.69 43.728C197.29 44.2754 197.004 44.9149 196.834 45.6465C196.705 46.3735 196.663 47.1327 196.709 47.9241C196.751 48.6741 196.806 49.3598 196.874 49.9809C196.957 50.7264 197.166 51.4787 197.502 52.238C197.833 52.9559 198.302 53.5956 198.91 54.1571C199.554 54.6726 200.31 55.0708 201.18 55.3517C202.05 55.6325 203.085 55.7064 204.286 55.5732C205.197 55.4722 205.986 55.217 206.653 54.8077C207.358 54.3523 207.905 53.8095 208.296 53.1792C208.725 52.5029 209.022 51.7782 209.187 51.0053C209.353 50.2323 209.39 49.4316 209.298 48.6034C209.06 46.4499 208.347 44.7473 207.16 43.4954C205.968 42.2022 204.496 41.5899 202.743 41.6585L201.563 41.7894C201.231 41.8261 200.889 41.948 200.534 42.155C200.18 42.3619 199.858 42.4815 199.568 42.5136ZM219.208 55.1763C219.259 53.7453 219.255 52.3833 219.195 51.0904C219.172 49.7514 219.09 48.44 218.948 47.1562C218.667 44.63 218.13 42.0485 217.334 39.4118C217.279 39.2922 217.24 39.1288 217.217 38.9217C217.153 38.342 217.266 37.8473 217.556 37.4379C217.887 37.0238 218.301 36.7893 218.798 36.7342C219.337 36.6745 219.751 36.8172 220.04 37.1624C220.372 37.503 220.631 37.9562 220.82 38.5222C221.004 39.0468 221.153 39.6381 221.268 40.2962C221.42 40.9082 221.59 41.4972 221.779 42.0632C222.257 41.4651 222.883 40.8717 223.656 40.2829C224.429 39.6941 225.251 39.1628 226.121 38.6891C227.032 38.2108 227.952 37.8153 228.882 37.5026C229.807 37.1485 230.683 36.9255 231.512 36.8337C231.967 36.7832 232.381 36.9259 232.754 37.2619C233.126 37.5979 233.338 37.9937 233.389 38.4492C233.434 38.8633 233.356 39.2912 233.154 39.7329C232.946 40.1332 232.574 40.3632 232.035 40.4228C231.041 40.5331 230.027 40.8342 228.991 41.3263C227.951 41.777 226.985 42.3243 226.092 42.9683C225.241 43.6077 224.5 44.2977 223.869 45.0384C223.28 45.7745 222.896 46.4669 222.716 47.1156C222.725 47.9531 222.773 48.9539 222.86 50.118C222.984 51.2362 223.021 52.3221 222.97 53.3758C222.956 54.3835 222.822 55.2577 222.569 55.9984C222.316 56.7392 221.858 57.1463 221.195 57.2198C220.781 57.2657 220.351 57.1667 219.905 56.9227C219.5 56.6741 219.263 56.2392 219.194 55.6181C219.176 55.4524 219.18 55.3052 219.208 55.1763Z" fill="black"/>
<path fill-rule="evenodd" clip-rule="evenodd" d="M140 161.907C137 155.926 145.597 146.941 159.617 153.176C177.554 161.153 199.962 153.327 200.369 155.926C201.815 165.164 191.06 166.444 170.5 167.407C149.94 168.37 135 165.407 140 161.907Z" fill="#FFB300"/>
<path fill-rule="evenodd" clip-rule="evenodd" d="M140.57 162.053C134.799 161.053 145.767 132.896 166.329 131.933C186.89 130.97 196.544 145.733 196.204 155.195C195.864 164.657 178.87 162.945 158.302 164.427C145.394 165.356 146.552 163.091 140.57 162.053Z" fill="#F57C00"/>
<path fill-rule="evenodd" clip-rule="evenodd" d="M186.223 162.534C180.867 163.79 165.633 164.02 165.633 164.02C165.633 164.02 166.612 145.114 156.523 133.799C156.49 133.762 159.3 132.378 167.983 131.908C173.099 131.632 178.975 133.351 179.573 133.88C185.06 138.733 186.405 162.492 186.223 162.534Z" fill="#FFB300"/>
<path fill-rule="evenodd" clip-rule="evenodd" d="M160.697 149.002C162.091 151.012 163.692 153.37 165.616 164.002C165.638 164.123 167.111 153.77 164.375 146.289C163.14 142.914 156.866 133.668 156.725 133.709C153.924 134.501 151.123 137.687 151.123 137.687C154.673 141.14 157.879 144.929 160.697 149.002Z" fill="#F7931E"/>
<path fill-rule="evenodd" clip-rule="evenodd" d="M920.109 204.9L956.429 199.98L943.354 156.07L922.476 169.037L920.109 204.9Z" fill="#F4CA92"/>
<path fill-rule="evenodd" clip-rule="evenodd" d="M934.897 593.232C937.741 591.41 944.793 584.04 944.793 584.04L967.298 585.516C972.307 590.399 969.839 613.382 969.839 613.382L897.621 608.645C896.275 598.652 926.409 598.676 934.897 593.232Z" fill="#814C74"/>
<path fill-rule="evenodd" clip-rule="evenodd" d="M909.341 209.741C909.341 209.741 894.714 206.117 880.11 202.164L839.69 139.083C842.575 136.405 840.394 126.804 838.841 120.65C836.645 111.961 836.07 109.182 825.832 107.129C815.83 105.124 816.198 112.561 814.264 117.219C811.583 123.675 815.157 140.329 821.218 143.995C837.05 160.954 857.434 232.081 875.803 236.165C890.943 239.533 907.615 243.613 907.615 243.613L909.341 209.741Z" fill="#FFDFAE"/>
<path fill-rule="evenodd" clip-rule="evenodd" d="M948.546 144.028C950.645 166.23 921.909 170.611 913.639 170.446C903.383 170.242 889.735 138.718 895.73 116.062C900.393 116.368 902.12 105.637 903.165 102.019C921.026 108.931 935.051 106.037 935.818 107.465C940.519 116.211 938.157 131.278 940.912 137.215C941.368 138.199 943.727 123.588 945.286 123.975C946.626 124.309 957.458 119.569 956.714 132.65C956.307 139.942 948.1 139.35 948.546 144.028Z" fill="#FFDFAE"/>
<path fill-rule="evenodd" clip-rule="evenodd" d="M965.129 272.036C962.595 310.668 969.17 326.672 959.145 370.301C959.145 370.301 890.795 375.763 885.225 365.452C873.985 344.666 910.563 312.857 889.831 265.956C873.668 229.39 916.819 186.708 943.216 176.723C960.223 170.288 969.183 210.228 965.129 272.036Z" fill="#2FC0C4"/>
<path fill-rule="evenodd" clip-rule="evenodd" d="M994.397 248.16C1069.66 246.319 1014.86 355.182 973.244 349.788C943.411 345.921 923.438 290.413 952.856 236.148C965.442 212.93 954.418 186.573 940.895 168.332C931.384 155.503 938.958 121.695 938.958 121.695C914.096 124.567 892.604 120.23 893.428 112.685C896.785 82.0052 931.98 75.657 950.161 97.0902C966.757 116.653 958.641 117.619 967.398 148.574C970.86 160.811 993.577 161.512 998.86 189.1C999.832 194.177 989.815 248.274 994.397 248.16Z" fill="#4F3B37"/>
<path fill-rule="evenodd" clip-rule="evenodd" d="M803.942 468.698C806.786 466.876 813.839 459.506 813.839 459.506L836.343 460.982C841.353 465.865 838.885 488.848 838.885 488.848L766.667 484.111C765.321 474.125 795.453 474.149 803.942 468.698Z" fill="#814C74"/>
<path fill-rule="evenodd" clip-rule="evenodd" d="M812.471 460.216L837.96 462.756C837.96 462.756 868.248 376.136 872.066 375.381C896.73 370.507 974.194 342.74 974.194 342.74L903.445 319.671L833.467 340.471L812.471 460.216Z" fill="#3F3E65"/>
<path fill-rule="evenodd" clip-rule="evenodd" d="M959.746 348.773L988.803 278.346C988.803 278.346 971.488 214.58 952.349 202.883C944.875 198.313 933.866 203.892 929.597 210.577C917.609 229.349 962.067 282.873 962.067 282.873L945.602 343.81L959.746 348.773Z" fill="#FFDFAE"/>
<path fill-rule="evenodd" clip-rule="evenodd" d="M953.23 342.387C956.616 343.375 959.005 346.714 959.479 351.021C960.104 356.752 954.859 363.125 953.812 365.874C951.642 371.56 940.826 373.332 934.272 371.421C927.718 369.509 940.334 362.49 937.209 353.517C935.149 347.611 946.674 340.475 953.23 342.387Z" fill="#FFDFAE"/>
<path fill-rule="evenodd" clip-rule="evenodd" d="M943.504 584.781C943.504 584.781 968.652 587.097 968.767 586.457C976.158 544.906 968.244 451.561 968.244 451.561L998.149 351.11L923.907 322.23L929.653 451.337L943.504 584.781Z" fill="#56557E"/>
<path fill-rule="evenodd" clip-rule="evenodd" d="M842.226 123.758C845.908 117.061 840.029 114.486 837.988 113.364C835.947 112.242 833.008 114.521 830.783 122.229C828.666 129.574 830.825 135.706 832.866 136.829C834.907 137.952 838.539 130.455 842.226 123.758Z" fill="#FFE0B2"/>
<path d="M913.835 52.2544C913.863 51.7071 913.851 50.5344 913.797 48.7362C913.793 46.9057 913.713 44.8255 913.557 42.4955C912.969 42.4589 912.389 42.3815 911.818 42.2632C911.247 42.145 910.655 42.0226 910.043 41.8959C909.227 41.727 908.37 41.5496 907.473 41.3638C906.584 41.1373 905.784 40.8867 905.075 40.6123C904.375 40.2971 903.809 39.946 903.379 39.5591C902.957 39.1313 902.805 38.6318 902.923 38.0606C903.016 37.6118 903.275 37.2826 903.702 37.073C904.169 36.8718 904.77 36.8472 905.504 36.9992C907.086 37.5818 908.692 38.0421 910.324 38.3799C910.814 38.4812 911.304 38.5825 911.793 38.6839C912.283 38.7852 912.781 38.8458 913.287 38.8655C913.144 37.0913 912.972 35.3536 912.771 33.6526C912.578 31.9107 912.347 30.3525 912.079 28.9778C911.851 27.6116 911.593 26.4945 911.305 25.6263C911.016 24.7582 910.688 24.2861 910.321 24.2101C909.628 24.0666 908.762 24.547 907.725 25.6514C906.688 26.7558 905.584 28.1866 904.411 29.9438C903.239 31.7011 902.07 33.6503 900.903 35.7917C899.745 37.8922 898.674 39.883 897.689 41.7641C896.744 43.6536 895.961 45.2786 895.339 46.6391C894.726 47.9588 894.394 48.7411 894.343 48.9859C894.177 49.377 893.91 49.6408 893.541 49.7772C893.213 49.9221 892.886 49.9608 892.56 49.8932C892.07 49.7919 891.655 49.5358 891.314 49.1249C890.974 48.7141 890.863 48.223 890.981 47.6518C893.289 42.2576 895.633 37.5092 898.014 33.4066C899.015 31.6564 900.068 29.9597 901.174 28.3164C902.289 26.6323 903.418 25.1853 904.562 23.9754C905.714 22.7247 906.848 21.768 907.964 21.1054C909.121 20.4513 910.209 20.2298 911.229 20.4409C912.29 20.6605 913.154 21.5202 913.823 23.0201C914.532 24.5284 915.103 26.3913 915.538 28.6088C915.981 30.7854 916.3 33.1492 916.496 35.7C916.699 38.2101 916.843 40.6013 916.926 42.8736C917.017 45.1051 917.057 47.0706 917.045 48.7702C917.042 50.4291 917.06 51.4752 917.098 51.9085L917.022 52.2757C916.887 52.9286 916.573 53.4168 916.081 53.7403C915.637 54.0316 915.191 54.1307 914.742 54.0378C914.416 53.9703 914.152 53.8091 913.949 53.5545C913.796 53.2674 913.758 52.8341 913.835 52.2544ZM922.357 53.6353C922.848 52.2903 923.265 50.9938 923.609 49.7458C924.002 48.4655 924.329 47.1929 924.591 45.928C925.106 43.4391 925.393 40.8179 925.452 38.0645C925.437 37.9336 925.45 37.7662 925.492 37.5622C925.611 36.9909 925.871 36.5555 926.273 36.2558C926.717 35.9646 927.183 35.8697 927.673 35.971C928.203 36.0808 928.553 36.3447 928.721 36.7625C928.931 37.1889 929.038 37.7003 929.042 38.2969C929.055 38.8526 929.014 39.4612 928.92 40.1224C928.875 40.7514 928.854 41.3641 928.858 41.9607C929.498 41.54 930.277 41.1693 931.195 40.8486C932.112 40.5279 933.058 40.2768 934.031 40.0954C935.046 39.9224 936.043 39.831 937.024 39.8213C938.013 39.7707 938.916 39.8299 939.732 39.9988C940.18 40.0917 940.53 40.3555 940.78 40.7903C941.031 41.225 941.11 41.6668 941.017 42.1157C940.932 42.5237 940.725 42.9064 940.396 43.2637C940.075 43.5803 939.65 43.6836 939.119 43.5739C938.14 43.3712 937.082 43.3437 935.945 43.4913C934.817 43.5981 933.728 43.8197 932.68 44.1558C931.673 44.5005 930.755 44.9274 929.926 45.4367C929.138 45.9544 928.558 46.4939 928.187 47.0553C927.936 47.8544 927.672 48.821 927.395 49.955C927.167 51.0567 926.866 52.1006 926.492 53.0869C926.166 54.0408 925.769 54.8308 925.299 55.4569C924.829 56.0829 924.268 56.3284 923.615 56.1933C923.207 56.1088 922.828 55.8816 922.479 55.5115C922.171 55.1499 922.081 54.6631 922.207 54.0511C922.241 53.8878 922.291 53.7493 922.357 53.6353ZM958.475 59.8345C959.087 59.9611 959.507 60.1968 959.733 60.5416C959.968 60.8455 960.039 61.2219 959.946 61.6707C959.828 62.2419 959.596 62.6408 959.252 62.8673C958.915 63.053 958.535 63.1444 958.11 63.1415C957.685 63.1387 957.228 63.0866 956.738 62.9853C956.248 62.8839 955.82 62.7952 955.453 62.7192C953.739 62.3645 952.084 61.8305 950.487 61.117C948.899 60.3627 947.532 59.4629 946.387 58.4174C945.241 57.3719 944.383 56.1731 943.812 54.8209C943.241 53.4688 943.124 51.9767 943.462 50.3446C943.859 48.4269 944.641 46.9081 945.809 45.7883C947.026 44.636 948.413 43.7955 949.969 43.2666C951.575 42.7053 953.272 42.4184 955.062 42.4059C956.892 42.4018 958.644 42.5729 960.317 42.9191C961.378 43.1387 962.164 43.4504 962.676 43.8543C963.197 44.2173 963.381 44.766 963.229 45.5005C963.136 45.9493 962.938 46.2912 962.634 46.5261C962.371 46.7695 962.035 46.849 961.627 46.7645C961.342 46.7054 961.076 46.6505 960.832 46.5998C960.595 46.5084 960.355 46.4373 960.11 46.3866C958.682 46.0911 957.265 45.9467 955.859 45.9537C954.495 45.969 953.218 46.1729 952.031 46.5654C950.884 46.9663 949.883 47.5888 949.028 48.4329C948.221 49.2447 947.679 50.3238 947.4 51.6703C947.181 52.7311 947.321 53.6963 947.822 54.5659C948.323 55.4354 949.037 56.2002 949.964 56.8601C950.891 57.5201 951.946 58.0787 953.127 58.5361C954.309 58.9935 955.471 59.3404 956.614 59.5768C956.94 59.6444 957.246 59.7077 957.532 59.7668C957.826 59.7852 958.14 59.8077 958.475 59.8345ZM973.735 47.1643C974.341 46.9069 975.167 46.8226 976.213 46.9113C977.307 46.9676 978.426 47.1141 979.568 47.3505C981.935 47.8403 983.521 48.9133 984.327 50.5694C985.142 52.1846 985.215 54.604 984.548 57.8273C984.202 59.5002 983.795 61.0542 983.328 62.4892C982.869 63.8835 982.383 65.1019 981.869 66.1445C981.405 67.1547 980.905 67.9235 980.371 68.4511C979.836 68.9787 979.324 69.1918 978.834 69.0905C978.426 69.006 978.113 68.771 977.895 68.3855C977.677 68 977.627 67.5216 977.745 66.9504C977.897 66.2159 978.119 65.4534 978.41 64.6627C978.702 63.872 979.022 63.0447 979.371 62.1808C979.72 61.317 980.048 60.4489 980.357 59.5766C980.673 58.6635 980.92 57.7785 981.098 56.9216C981.444 55.2488 981.429 53.884 981.052 52.8273C980.724 51.7383 979.744 51.0249 978.112 50.6871C977.296 50.5182 976.471 50.4963 975.636 50.6215C974.802 50.7466 974.058 50.7416 973.405 50.6065C972.997 50.5221 972.705 50.2913 972.528 49.9142C972.35 49.5371 972.304 49.1446 972.388 48.7365C972.456 48.4101 972.585 48.0964 972.775 47.7953C973.005 47.5027 973.326 47.2923 973.735 47.1643ZM974.078 36.2574C973.544 37.8065 972.993 39.6496 972.423 41.7868C971.893 43.9324 971.384 46.1884 970.894 48.5549C970.404 50.9214 969.996 53.3048 969.67 55.7051C969.351 58.0646 969.002 60.1624 968.622 61.9985C968.462 62.7737 968.152 63.3477 967.691 63.7206C967.231 64.0934 966.736 64.2249 966.206 64.1151C965.594 63.9884 965.238 63.3405 965.14 62.1713C965.082 61.0105 965.157 59.6218 965.364 58.0052C965.571 56.3886 965.856 54.7031 966.219 52.9486C966.591 51.1533 966.916 49.5824 967.195 48.236C967.684 45.8695 968.207 43.5522 968.761 41.2842C969.316 39.0162 969.898 36.924 970.507 35.0078C970.7 34.2818 971.03 33.8182 971.497 33.617C972.005 33.4243 972.483 33.3744 972.932 33.4673C973.381 33.5602 973.726 33.8444 973.968 34.32C974.219 34.7548 974.28 35.2782 974.154 35.8902L974.078 36.2574ZM995.418 52.801C995.142 53.7225 994.857 54.6849 994.565 55.6881C994.313 56.6997 994.077 57.7359 993.857 58.7967C993.545 60.3064 993.294 61.8287 993.104 63.3637C992.954 64.9072 992.732 66.3929 992.436 67.821C992.267 68.6371 991.937 69.2069 991.444 69.5304C990.993 69.8624 990.542 69.982 990.094 69.8891C989.686 69.8046 989.368 69.5901 989.142 69.2453C988.965 68.8682 988.923 68.3491 989.017 67.6878C989.275 65.8264 989.499 64.1282 989.689 62.5932C989.928 61.0258 990.208 59.4669 990.529 57.9164C990.656 57.3044 990.796 56.5249 990.949 55.578C991.152 54.5988 991.383 53.6892 991.642 52.8492C991.95 51.9769 992.31 51.2643 992.723 50.7114C993.184 50.1261 993.741 49.9011 994.394 50.0362C994.802 50.1206 995.111 50.376 995.321 50.8024C995.571 51.2371 995.633 51.7605 995.506 52.3726L995.418 52.801ZM995.368 38.2387C995.548 38.1909 995.699 38.1796 995.822 38.205C995.985 38.2388 996.124 38.2887 996.238 38.3549C996.392 38.4294 996.51 38.4752 996.592 38.4921C996.805 38.4935 996.992 38.5111 997.156 38.5449C997.327 38.5378 997.515 38.5554 997.719 38.5977C999.066 38.8764 999.972 39.5321 1000.44 40.5648C1000.95 41.6061 1001.1 42.6367 1000.88 43.6567C1000.78 44.1464 1000.55 44.6514 1000.19 45.172C999.866 45.701 999.429 46.1639 998.879 46.5606C998.378 46.925 997.768 47.2028 997.047 47.3941C996.327 47.5854 995.538 47.5924 994.681 47.415C994.11 47.2968 993.609 47.0442 993.179 46.6572C992.748 46.2703 992.392 45.8348 992.109 45.3508C991.835 44.8259 991.65 44.2772 991.556 43.7045C991.47 43.0911 991.482 42.5192 991.592 41.9887C991.761 41.1727 992.204 40.3707 992.92 39.5829C993.677 38.8035 994.493 38.3554 995.368 38.2387ZM996.178 41.7253L995.689 41.6239C995.468 41.6633 995.295 41.7766 995.171 41.9637C995.048 42.1508 994.965 42.3464 994.922 42.5504C994.846 42.9176 994.917 43.294 995.135 43.6795C995.362 44.0242 995.598 44.2219 995.842 44.2726C996.454 44.3993 996.9 44.3001 997.18 43.9751C997.469 43.6093 997.647 43.2632 997.715 42.9368C997.646 42.2418 997.305 41.8309 996.693 41.7042C996.612 41.6873 996.44 41.6943 996.178 41.7253ZM1015.81 75.1483C1011.88 73.9943 1009.22 72.0601 1007.82 69.346C1006.43 66.6318 1006.18 63.1122 1007.07 58.7872L1007.6 56.2167C1006.01 55.8873 1004.72 55.4701 1003.71 54.9649C1002.72 54.4189 1002.33 53.6359 1002.54 52.6158C1002.7 52.2655 1002.94 51.9975 1003.28 51.8118C1003.63 51.5853 1004.06 51.5269 1004.59 51.6367C1005.08 51.7381 1005.66 51.9217 1006.33 52.1877C1007 52.4537 1007.74 52.6711 1008.56 52.84C1008.83 51.5343 1009.14 50.2167 1009.5 48.8872C1009.87 47.5168 1010.27 46.3019 1010.7 45.2425C1011.18 44.1915 1011.67 43.3572 1012.18 42.7395C1012.7 42.0811 1013.26 41.8152 1013.88 41.9419C1014.33 42.0348 1014.69 42.3233 1014.97 42.8073C1015.27 43.2505 1015.34 43.7985 1015.21 44.4514C1015 45.4714 1014.59 46.813 1013.99 48.476C1013.39 50.139 1012.84 51.8962 1012.33 53.7478C1012.64 53.8562 1012.96 53.9645 1013.28 54.0729C1013.65 54.1489 1014.01 54.2249 1014.38 54.3009C1015.03 54.436 1015.69 54.5507 1016.35 54.6451C1017.06 54.7478 1017.76 54.8302 1018.47 54.8921C1019.04 55.0104 1019.48 55.2707 1019.78 55.6731C1020.08 56.0755 1020.19 56.4808 1020.1 56.8888C1019.98 57.46 1019.73 57.8547 1019.35 58.0727C1018.97 58.25 1018.5 58.3449 1017.95 58.3575C1017.44 58.3378 1016.84 58.2561 1016.15 58.1126C1015.49 57.9774 1014.84 57.8423 1014.19 57.7072L1011.37 57.1245C1011.24 57.5649 1011.13 57.9891 1011.05 58.3971C1010.96 58.8051 1010.88 59.2131 1010.79 59.6211C1010.49 61.09 1010.34 62.4414 1010.34 63.6753C1010.38 64.8769 1010.64 65.994 1011.11 67.0268C1011.58 68.0596 1012.28 68.9714 1013.22 69.7621C1014.17 70.5529 1015.39 71.2312 1016.89 71.7969C1017.32 71.9714 1017.61 72.2226 1017.75 72.5504C1017.9 72.8783 1017.93 73.2258 1017.86 73.593C1017.76 74.0826 1017.52 74.5019 1017.15 74.8508C1016.83 75.1674 1016.38 75.2665 1015.81 75.1483ZM1037.72 76.6189C1038.41 76.7624 1038.89 77.0312 1039.15 77.4252C1039.41 77.7784 1039.5 78.1998 1039.4 78.6894C1039.29 79.2198 1039.06 79.5983 1038.71 79.8248C1038.42 80.0189 1038.05 80.1349 1037.62 80.1729C1037.23 80.2193 1036.79 80.1918 1036.3 80.0905C1035.85 79.9976 1035.44 79.9131 1035.07 79.8371C1033.36 79.4824 1031.69 78.9237 1030.06 78.161C1028.48 77.366 1027.1 76.4007 1025.94 75.2651C1024.77 74.1296 1023.88 72.8408 1023.29 71.3985C1022.69 69.9563 1022.57 68.4192 1022.9 66.7871C1023.27 65.0326 1024.05 63.6201 1025.25 62.5495C1026.5 61.4465 1027.93 60.6144 1029.53 60.0531C1031.14 59.4919 1032.8 59.1761 1034.51 59.1059C1036.23 59.0357 1037.78 59.1441 1039.17 59.4313C1039.86 59.5748 1040.54 59.8 1041.2 60.1068C1041.9 60.422 1042.49 60.8427 1042.98 61.369C1043.47 61.8952 1043.82 62.5432 1044.05 63.3128C1044.27 64.0825 1044.27 64.9977 1044.05 66.0585C1043.79 67.3234 1043.16 68.3202 1042.16 69.0489C1041.16 69.7777 1040.02 70.3298 1038.75 70.7054C1037.48 71.081 1036.18 71.2807 1034.86 71.3045C1033.54 71.3283 1032.44 71.2719 1031.58 71.1354C1031.13 71.0425 1030.82 70.8075 1030.64 70.4304C1030.51 70.021 1030.49 69.5918 1030.59 69.143C1030.66 68.7758 1030.84 68.4297 1031.12 68.1047C1031.41 67.7389 1031.8 67.6067 1032.29 67.708C1033.06 67.8685 1033.89 67.9558 1034.79 67.9699C1035.72 67.9925 1036.58 67.9166 1037.39 67.7422C1038.24 67.5354 1038.96 67.2175 1039.56 66.7884C1040.16 66.3593 1040.54 65.7776 1040.69 65.0431C1040.92 63.9415 1040.19 63.2175 1038.52 62.8713C1037.42 62.6433 1036.22 62.5658 1034.93 62.6389C1033.65 62.6711 1032.43 62.8877 1031.29 63.2886C1030.14 63.6895 1029.12 64.2874 1028.23 65.0823C1027.4 65.8448 1026.85 66.8381 1026.6 68.0621C1026.4 69.0006 1026.51 69.8961 1026.93 70.7488C1027.39 71.6099 1028.03 72.4232 1028.85 73.1887C1029.72 73.9218 1030.74 74.5578 1031.91 75.0968C1033.11 75.6442 1034.39 76.0572 1035.73 76.3359C1036.06 76.4035 1036.39 76.471 1036.71 76.5386C1037.05 76.5654 1037.38 76.5921 1037.72 76.6189ZM1061.66 81.192C1062.28 81.3187 1062.69 81.5544 1062.92 81.8991C1063.16 82.203 1063.23 82.5794 1063.13 83.0282C1063.02 83.5995 1062.78 83.9983 1062.44 84.2248C1062.1 84.4105 1061.72 84.5019 1061.3 84.4991C1060.87 84.4963 1060.42 84.4442 1059.93 84.3428C1059.44 84.2415 1059.01 84.1528 1058.64 84.0768C1056.93 83.7221 1055.27 83.188 1053.67 82.4746C1052.09 81.7203 1050.72 80.8204 1049.57 79.7749C1048.43 78.7295 1047.57 77.5307 1047 76.1785C1046.43 74.8263 1046.31 73.3342 1046.65 71.7022C1047.05 69.7845 1047.83 68.2657 1049 67.1458C1050.21 65.9936 1051.6 65.153 1053.16 64.6241C1054.76 64.0629 1056.46 63.776 1058.25 63.7634C1060.08 63.7594 1061.83 63.9305 1063.5 64.2767C1064.57 64.4963 1065.35 64.808 1065.86 65.2118C1066.38 65.5749 1066.57 66.1236 1066.42 66.858C1066.32 67.3069 1066.13 67.6487 1065.82 67.8837C1065.56 68.1271 1065.22 68.2065 1064.82 68.1221C1064.53 68.063 1064.26 68.0081 1064.02 67.9574C1063.78 67.8659 1063.54 67.7949 1063.3 67.7442C1061.87 67.4486 1060.45 67.3043 1059.05 67.3112C1057.68 67.3266 1056.41 67.5305 1055.22 67.923C1054.07 68.3239 1053.07 68.9464 1052.22 69.7905C1051.41 70.6023 1050.87 71.6814 1050.59 73.0278C1050.37 74.0887 1050.51 75.0539 1051.01 75.9234C1051.51 76.793 1052.22 77.5577 1053.15 78.2177C1054.08 78.8776 1055.13 79.4363 1056.32 79.8937C1057.5 80.351 1058.66 80.6979 1059.8 80.9344C1060.13 81.002 1060.43 81.0653 1060.72 81.1244C1061.01 81.1427 1061.33 81.1653 1061.66 81.192ZM1082.89 89.032C1078.96 87.8779 1076.3 85.9438 1074.9 83.2296C1073.5 80.5155 1073.25 76.9959 1074.15 72.6709L1074.68 70.1004C1073.09 69.771 1071.79 69.3537 1070.79 68.8486C1069.8 68.3026 1069.41 67.5196 1069.62 66.4995C1069.78 66.1492 1070.02 65.8812 1070.36 65.6955C1070.7 65.469 1071.14 65.4106 1071.67 65.5204C1072.16 65.6217 1072.74 65.8054 1073.41 66.0714C1074.08 66.3373 1074.82 66.5548 1075.64 66.7237C1075.91 65.418 1076.22 64.1004 1076.58 62.7708C1076.95 61.4005 1077.35 60.1856 1077.78 59.1261C1078.26 58.0752 1078.75 57.2409 1079.26 56.6232C1079.78 55.9648 1080.34 55.6989 1080.95 55.8256C1081.4 55.9185 1081.77 56.207 1082.05 56.691C1082.34 57.1342 1082.42 57.6822 1082.29 58.3351C1082.08 59.3551 1081.67 60.6966 1081.07 62.3596C1080.47 64.0226 1079.92 65.7799 1079.4 67.6315C1079.72 67.7398 1080.04 67.8482 1080.36 67.9566C1080.73 68.0326 1081.09 68.1086 1081.46 68.1846C1082.11 68.3197 1082.77 68.4344 1083.43 68.5287C1084.13 68.6315 1084.84 68.7139 1085.55 68.7758C1086.12 68.8941 1086.56 69.1544 1086.86 69.5568C1087.16 69.9592 1087.26 70.3644 1087.18 70.7725C1087.06 71.3437 1086.81 71.7383 1086.42 71.9564C1086.05 72.1336 1085.58 72.2286 1085.02 72.2412C1084.52 72.2215 1083.92 72.1398 1083.22 71.9962C1082.57 71.8611 1081.92 71.726 1081.27 71.5909L1078.45 71.0082C1078.32 71.4485 1078.21 71.8727 1078.12 72.2808C1078.04 72.6888 1077.95 73.0968 1077.87 73.5048C1077.57 74.9737 1077.41 76.3251 1077.41 77.559C1077.46 78.7606 1077.72 79.8777 1078.19 80.9105C1078.66 81.9433 1079.36 82.855 1080.3 83.6458C1081.25 84.4366 1082.47 85.1149 1083.97 85.6806C1084.4 85.8551 1084.69 86.1063 1084.83 86.4341C1084.98 86.762 1085.01 87.1095 1084.93 87.4767C1084.83 87.9663 1084.6 88.3856 1084.23 88.7345C1083.91 89.051 1083.46 89.1502 1082.89 89.032Z" fill="black"/>
<path d="M1303.64 64.0884C1304.21 64.2066 1304.61 64.4381 1304.84 64.7828C1305.11 65.0952 1305.2 65.4758 1305.11 65.9246C1305.01 66.4142 1304.81 66.7765 1304.5 67.0114C1304.2 67.2464 1303.83 67.3828 1303.4 67.4208C1303 67.4672 1302.56 67.4601 1302.06 67.3996C1301.61 67.3067 1301.16 67.2138 1300.71 67.1209C1298.67 66.6986 1296.75 66.0034 1294.95 65.0353C1293.2 64.0348 1291.71 62.8113 1290.48 61.3648C1289.29 59.9268 1288.44 58.2623 1287.94 56.3712C1287.44 54.4802 1287.42 52.3923 1287.9 50.1073C1288.5 47.1696 1289.64 44.787 1291.29 42.9594C1292.99 41.0995 1294.91 39.666 1297.03 38.6587C1299.2 37.6599 1301.41 37.0333 1303.68 36.7788C1305.99 36.492 1308.08 36.457 1309.95 36.6738C1310.69 36.8258 1311.16 37.115 1311.37 37.5413C1311.58 37.9676 1311.64 38.3848 1311.56 38.7928C1311.34 39.8129 1310.78 40.2912 1309.85 40.2278C1308.13 40.1264 1306.28 40.2121 1304.31 40.4849C1302.39 40.7253 1300.56 41.2605 1298.81 42.0905C1297.06 42.9205 1295.53 44.0502 1294.22 45.4796C1292.91 46.8682 1292.02 48.6641 1291.57 50.8674C1291.2 52.6627 1291.26 54.2934 1291.77 55.7595C1292.27 57.2256 1293.05 58.5138 1294.1 59.624C1295.15 60.6933 1296.39 61.5883 1297.82 62.3088C1299.28 63.0377 1300.77 63.5584 1302.28 63.8709C1302.48 63.9131 1302.71 63.9595 1302.95 64.0102C1303.2 64.0609 1303.43 64.0869 1303.64 64.0884ZM1320.49 51.1102C1321.03 51.0076 1321.42 50.9816 1321.66 51.0322C1321.99 51.0998 1322.29 51.2694 1322.58 51.5409C1322.87 51.5592 1323.18 51.5818 1323.52 51.6085C1323.9 51.6029 1324.22 51.6255 1324.46 51.6762C1325.81 51.9548 1326.97 52.4938 1327.96 53.293C1328.95 54.0515 1329.74 54.9802 1330.32 56.0791C1330.94 57.1864 1331.34 58.4189 1331.53 59.7767C1331.72 61.1345 1331.66 62.5274 1331.37 63.9554C1331.11 65.2203 1330.61 66.3937 1329.87 67.4756C1329.19 68.5251 1328.32 69.4101 1327.28 70.1304C1326.28 70.8591 1325.17 71.3747 1323.96 71.6771C1322.75 71.9795 1321.53 72.004 1320.31 71.7507C1318.8 71.4382 1317.46 70.9063 1316.3 70.1548C1315.13 69.4034 1314.19 68.5064 1313.47 67.4638C1312.75 66.4211 1312.25 65.2533 1311.96 63.9603C1311.72 62.6757 1311.74 61.3397 1312.03 59.9525C1312.25 58.8508 1312.61 57.7541 1313.09 56.6623C1313.58 55.5297 1314.19 54.5287 1314.93 53.6593C1315.66 52.7898 1316.48 52.1089 1317.39 51.6165C1318.34 51.1326 1319.38 50.9638 1320.49 51.1102ZM1320.57 54.4448C1319.69 54.3899 1318.97 54.5811 1318.41 55.0187C1317.86 55.4154 1317.39 55.9352 1317 56.5782C1316.65 57.2296 1316.38 57.9387 1316.18 58.7055C1315.99 59.4315 1315.83 60.1005 1315.7 60.7125C1315.55 61.447 1315.51 62.2271 1315.6 63.053C1315.69 63.8381 1315.94 64.5916 1316.34 65.3134C1316.8 66.0029 1317.39 66.6157 1318.13 67.1518C1318.87 67.6879 1319.83 68.0784 1321.02 68.3233C1321.91 68.5091 1322.74 68.5106 1323.51 68.3277C1324.32 68.1125 1325 67.7658 1325.57 67.2874C1326.19 66.7767 1326.69 66.1795 1327.09 65.4957C1327.49 64.812 1327.77 64.0621 1327.94 63.246C1328.38 61.1243 1328.23 59.2847 1327.49 57.7271C1326.75 56.1287 1325.54 55.091 1323.85 54.6139L1322.69 54.3732C1322.37 54.3056 1322 54.3155 1321.6 54.4027C1321.2 54.4899 1320.86 54.5039 1320.57 54.4448ZM1344.11 57.2747C1344.85 57.0018 1345.66 56.8724 1346.55 56.8865C1347.48 56.9091 1348.42 57.0175 1349.36 57.2117C1350.65 57.5636 1351.72 58.0202 1352.58 58.5817C1353.45 59.1431 1354.11 59.8544 1354.57 60.7155C1355.04 61.5358 1355.3 62.5468 1355.34 63.7484C1355.4 64.9091 1355.26 66.3055 1354.92 67.9376C1354.58 69.6105 1354.17 71.1645 1353.7 72.5996C1353.24 73.9938 1352.76 75.2123 1352.25 76.2548C1351.74 77.2565 1351.22 78.0212 1350.69 78.5488C1350.18 79.1256 1349.69 79.3633 1349.2 79.262C1348.83 79.186 1348.53 78.996 1348.29 78.6921C1348.06 78.3882 1348 77.971 1348.11 77.4406C1348.22 76.9101 1348.42 76.2496 1348.71 75.4589C1349.05 74.6358 1349.4 73.7719 1349.75 72.8673C1350.16 71.9303 1350.53 70.9848 1350.85 70.0309C1351.23 69.0446 1351.5 68.1231 1351.68 67.2662C1351.93 66.083 1352.02 65.1234 1351.96 64.3876C1351.95 63.6193 1351.8 62.9932 1351.52 62.5092C1351.28 61.9928 1350.92 61.5981 1350.42 61.3251C1349.93 61.0113 1349.35 60.7419 1348.67 60.5167C1347.82 60.3394 1346.93 60.3048 1346.01 60.4131C1345.1 60.5213 1344.33 60.5121 1343.72 60.3855C1343.35 60.3095 1343.08 60.1033 1342.89 59.767C1342.75 59.4392 1342.71 59.0917 1342.79 58.7244C1342.85 58.4388 1342.97 58.1659 1343.15 57.9056C1343.38 57.613 1343.7 57.4027 1344.11 57.2747ZM1341.54 56.1053C1340.99 58.7982 1340.44 61.5361 1339.91 64.3191C1339.38 67.0613 1339.05 69.5882 1338.91 71.8998L1338.82 72.3283C1338.68 73.0219 1338.39 73.5143 1337.94 73.8055C1337.55 74.0644 1337.15 74.1516 1336.74 74.0671C1336.37 73.9911 1336.06 73.7561 1335.8 73.3622C1335.54 72.9682 1335.45 72.4159 1335.51 71.7054C1335.71 69.7047 1335.96 67.6512 1336.27 65.545C1336.58 63.4388 1336.96 61.284 1337.42 59.0807C1337.51 58.6319 1337.6 58.1176 1337.67 57.538C1337.75 56.9583 1337.86 56.4279 1338 55.9467C1338.19 55.4332 1338.45 55.0385 1338.76 54.7628C1339.12 54.4547 1339.59 54.3597 1340.16 54.478C1340.57 54.5624 1340.9 54.7812 1341.17 55.1344C1341.49 55.4552 1341.61 55.7788 1341.54 56.1053ZM1366.15 64.262C1365.35 64.4364 1364.87 64.9113 1364.71 65.6865C1364.61 66.1761 1364.85 66.8437 1365.44 67.6894C1366.07 68.5435 1366.78 69.4349 1367.57 70.3635C1368.41 71.2598 1369.2 72.1273 1369.97 72.9659C1370.73 73.8046 1371.23 74.4617 1371.47 74.9372C1371.91 75.9207 1372.03 76.8613 1371.85 77.759C1371.65 78.6974 1371.29 79.41 1370.77 79.8968C1370.28 80.392 1369.66 80.731 1368.9 80.9139C1368.18 81.1052 1367.35 81.1691 1366.43 81.1058C1365.55 81.0508 1364.64 80.9262 1363.7 80.732C1363.05 80.5969 1362.26 80.4118 1361.33 80.1768C1360.4 79.9417 1359.5 79.6497 1358.64 79.3007C1357.81 78.9601 1357.12 78.5837 1356.57 78.1714C1356.03 77.7183 1355.81 77.247 1355.91 76.7574C1355.99 76.3493 1356.2 75.9463 1356.54 75.5481C1356.88 75.15 1357.27 74.9973 1357.72 75.0902C1357.76 75.0987 1357.8 75.1275 1357.83 75.1768C1357.87 75.1852 1357.93 75.1979 1358.01 75.2148C1358.86 75.6454 1359.96 76.0654 1361.33 76.475C1362.69 76.8845 1364.02 77.2244 1365.33 77.4946C1366.02 77.6382 1366.61 77.6544 1367.1 77.5433C1367.6 77.3914 1367.9 77.091 1367.99 76.6422C1368.08 76.2342 1367.96 75.7636 1367.65 75.2303C1367.34 74.6562 1366.93 74.0814 1366.41 73.5059C1365.93 72.9389 1365.41 72.3838 1364.84 71.8406C1364.31 71.306 1363.86 70.829 1363.48 70.4096C1362.36 69.2418 1361.57 68.2069 1361.12 67.3049C1360.72 66.3707 1360.61 65.4343 1360.81 64.4959C1361.03 63.435 1361.47 62.6331 1362.13 62.09C1362.85 61.5146 1363.68 61.1116 1364.62 60.8809C1365.56 60.6503 1366.55 60.5793 1367.6 60.668C1368.69 60.7244 1369.73 60.8539 1370.71 61.0566C1371.28 61.1748 1371.85 61.3134 1372.41 61.4725C1372.97 61.6315 1373.46 61.8391 1373.88 62.0952C1374.3 62.3105 1374.62 62.5905 1374.85 62.9352C1375.09 63.2391 1375.16 63.6155 1375.06 64.0643C1374.97 64.5132 1374.79 64.8797 1374.52 65.1639C1374.29 65.4565 1373.97 65.5606 1373.56 65.4761C1373.19 65.4001 1372.65 65.2249 1371.95 64.9505C1371.28 64.6845 1370.47 64.4544 1369.53 64.2602C1368.27 63.9984 1367.14 63.999 1366.15 64.262ZM1400 69.0976L1399.8 70.0769C1399.4 71.9946 1398.84 73.9847 1398.11 76.0473C1397.43 78.1183 1396.54 79.9755 1395.43 81.6187C1394.37 83.2297 1393.09 84.4958 1391.58 85.4173C1390.08 86.298 1388.33 86.5314 1386.33 86.1176C1384.9 85.822 1383.58 85.2288 1382.36 84.3381C1381.19 83.4151 1380.39 82.2289 1379.97 80.7797C1379.63 79.7315 1379.35 78.5242 1379.12 77.158C1378.93 75.8003 1378.8 74.3898 1378.72 72.9265C1378.69 71.4309 1378.72 69.9275 1378.82 68.4164C1378.96 66.9138 1379.18 65.4688 1379.46 64.0816C1379.57 63.5511 1379.82 63.1769 1380.21 62.9588C1380.64 62.7084 1381.1 62.6339 1381.59 62.7352C1382.08 62.8366 1382.5 63.0927 1382.84 63.5036C1383.19 63.8736 1383.32 64.3689 1383.23 64.9894C1382.97 66.8916 1382.76 68.8065 1382.62 70.734C1382.52 72.67 1382.55 74.4435 1382.73 76.0545C1382.96 77.6332 1383.38 78.9762 1384 80.0835C1384.67 81.1993 1385.61 81.8839 1386.83 82.1372C1387.85 82.3484 1388.82 82.1874 1389.74 81.6542C1390.67 81.0802 1391.52 80.2361 1392.31 79.1218C1393.13 78.016 1393.86 76.6562 1394.49 75.0424C1395.13 73.3879 1395.66 71.5813 1396.06 69.6228L1396.35 68.2152C1396.47 67.644 1396.72 67.2493 1397.11 67.0313C1397.54 66.7809 1397.98 66.7021 1398.43 66.795C1398.88 66.8879 1399.28 67.1398 1399.62 67.5506C1399.97 67.9207 1400.09 68.4364 1400 69.0976ZM1408.02 86.459C1408.45 86.6743 1408.74 86.9909 1408.91 87.4088C1409.09 87.7859 1409.13 88.1785 1409.05 88.5865C1408.95 89.0761 1408.71 89.4954 1408.34 89.8443C1407.98 90.1524 1407.53 90.2515 1407 90.1417C1406.72 90.0826 1406.45 89.9623 1406.19 89.7808C1404.6 89.0265 1403.47 88.1977 1402.81 87.2944C1402.15 86.3502 1401.77 85.314 1401.66 84.1856C1401.56 83.0572 1401.65 81.7993 1401.93 80.4121C1402.23 78.984 1402.56 77.3723 1402.93 75.577C1403.23 74.149 1403.55 72.6843 1403.91 71.1831C1404.26 69.6819 1404.63 68.2053 1405.02 66.7533C1405.41 65.2605 1405.81 63.8332 1406.22 62.4712C1406.63 61.1093 1407.02 59.8698 1407.37 58.7527C1407.54 58.1491 1407.8 57.734 1408.14 57.5075C1408.53 57.2895 1408.92 57.2227 1409.33 57.3071C1409.78 57.4 1410.18 57.6519 1410.52 58.0628C1410.9 58.4821 1411.02 59.0386 1410.87 59.7322C1410.51 60.8901 1410.08 62.3132 1409.61 64.0016C1409.18 65.6576 1408.73 67.4156 1408.26 69.2756C1407.83 71.144 1407.4 73.0124 1406.97 74.8809C1406.54 76.7493 1406.17 78.4384 1405.86 79.9481C1405.69 80.7641 1405.54 81.4985 1405.4 82.1514C1405.32 82.7718 1405.33 83.348 1405.43 83.8798C1405.58 84.3793 1405.85 84.8387 1406.23 85.258C1406.61 85.6773 1407.21 86.0777 1408.02 86.459ZM1429.27 94.1766C1425.34 93.0225 1422.68 91.0884 1421.28 88.3743C1419.89 85.6601 1419.64 82.1405 1420.53 77.8155L1421.07 75.245C1419.47 74.9156 1418.18 74.4984 1417.18 73.9932C1416.18 73.4472 1415.79 72.6642 1416 71.6441C1416.16 71.2938 1416.41 71.0258 1416.74 70.8401C1417.09 70.6136 1417.53 70.5552 1418.06 70.665C1418.55 70.7664 1419.12 70.95 1419.79 71.216C1420.46 71.482 1421.2 71.6994 1422.02 71.8683C1422.29 70.5626 1422.61 69.245 1422.97 67.9154C1423.33 66.5451 1423.73 65.3302 1424.17 64.2708C1424.64 63.2198 1425.13 62.3855 1425.64 61.7678C1426.16 61.1094 1426.73 60.8435 1427.34 60.9702C1427.79 61.0631 1428.15 61.3516 1428.44 61.8356C1428.73 62.2788 1428.81 62.8268 1428.67 63.4797C1428.46 64.4997 1428.05 65.8412 1427.45 67.5043C1426.86 69.1673 1426.3 70.9245 1425.79 72.7761C1426.11 72.8845 1426.42 72.9928 1426.74 73.1012C1427.11 73.1772 1427.48 73.2532 1427.84 73.3292C1428.5 73.4643 1429.15 73.579 1429.82 73.6734C1430.52 73.7761 1431.22 73.8585 1431.93 73.9204C1432.51 74.0387 1432.94 74.299 1433.24 74.7014C1433.54 75.1038 1433.65 75.5091 1433.56 75.9171C1433.45 76.4883 1433.19 76.8829 1432.81 77.101C1432.43 77.2782 1431.96 77.3732 1431.41 77.3858C1430.9 77.3661 1430.3 77.2844 1429.61 77.1408C1428.96 77.0057 1428.3 76.8706 1427.65 76.7355L1424.83 76.1528C1424.7 76.5932 1424.59 77.0173 1424.51 77.4254C1424.42 77.8334 1424.34 78.2414 1424.25 78.6494C1423.95 80.1183 1423.8 81.4697 1423.8 82.7036C1423.85 83.9052 1424.11 85.0223 1424.57 86.0551C1425.04 87.0879 1425.74 87.9996 1426.69 88.7904C1427.63 89.5812 1428.85 90.2595 1430.35 90.8252C1430.78 90.9997 1431.07 91.2509 1431.22 91.5787C1431.36 91.9066 1431.4 92.2541 1431.32 92.6213C1431.22 93.1109 1430.98 93.5302 1430.61 93.8791C1430.29 94.1956 1429.85 94.2948 1429.27 94.1766ZM1445.89 80.5104L1444.3 80.1811C1443.53 80.4047 1442.9 80.7846 1442.4 81.3206C1441.91 81.8566 1441.49 82.4503 1441.14 83.1017C1440.84 83.7208 1440.61 84.3321 1440.44 84.9357C1440.27 85.5393 1440.15 86.0247 1440.08 86.3919C1439.91 87.2079 1439.85 88.0043 1439.9 88.7809C1439.99 89.566 1440.18 90.2864 1440.47 90.9421C1440.81 91.5654 1441.23 92.0994 1441.74 92.544C1442.24 92.9887 1442.86 93.287 1443.6 93.439C1444.9 93.7093 1445.96 93.6306 1446.77 93.2029C1447.62 92.7837 1448.3 92.1794 1448.81 91.3902C1449.35 90.6093 1449.77 89.7377 1450.05 88.7754C1450.34 87.7722 1450.58 86.8422 1450.75 85.9854C1450.78 85.4381 1450.71 84.8696 1450.53 84.2801C1450.37 83.6498 1450.1 83.0841 1449.74 82.5832C1449.41 82.0907 1449.01 81.6672 1448.53 81.3126C1448.1 80.9257 1447.62 80.6773 1447.09 80.5675C1446.68 80.4831 1446.28 80.464 1445.89 80.5104ZM1452.01 92.8825C1451.17 94.6665 1449.88 95.8877 1448.12 96.546C1446.37 97.2043 1444.55 97.3393 1442.68 96.9508C1441.33 96.6721 1440.19 96.1373 1439.24 95.3466C1438.35 94.5234 1437.65 93.5708 1437.15 92.4888C1436.66 91.366 1436.36 90.175 1436.23 88.9157C1436.16 87.6241 1436.25 86.3662 1436.51 85.1422C1436.71 84.1629 1437.05 83.1274 1437.53 82.0357C1438.02 80.9031 1438.63 79.902 1439.37 79.0326C1440.1 78.1631 1440.96 77.4907 1441.95 77.0152C1442.95 76.4989 1444.07 76.3674 1445.29 76.6208C1445.94 76.7559 1446.38 76.91 1446.6 77.0831C1446.81 77.0845 1447 77.1021 1447.16 77.1359C1447.32 77.1697 1447.51 77.2077 1447.71 77.2499C1449.63 77.6468 1451.06 78.3673 1451.99 79.4113C1452.92 80.4554 1453.58 81.6978 1453.96 83.1386C1454.39 84.547 1454.65 86.0687 1454.74 87.7036C1454.83 89.3385 1455.01 90.9291 1455.28 92.4754C1455.35 92.9988 1455.48 93.6003 1455.68 94.2799C1455.88 94.9187 1456.09 95.5575 1456.3 96.1963C1456.51 96.8351 1456.67 97.4 1456.78 97.891C1456.93 98.3905 1456.98 98.7627 1456.93 99.0075C1456.84 99.4563 1456.6 99.7693 1456.23 99.9466C1455.85 100.124 1455.46 100.17 1455.05 100.086C1454.64 100.001 1454.25 99.7495 1453.86 99.3302C1453.53 98.8785 1453.22 98.3248 1452.93 97.6691C1452.68 97.0219 1452.48 96.2769 1452.31 95.4341C1452.14 94.5913 1452.04 93.7408 1452.01 92.8825ZM1470.92 83.5219C1471.66 83.249 1472.47 83.1196 1473.36 83.1338C1474.3 83.1564 1475.23 83.2648 1476.17 83.459C1477.46 83.8108 1478.53 84.2675 1479.4 84.8289C1480.26 85.3904 1480.92 86.1017 1481.38 86.9628C1481.85 87.7831 1482.11 88.794 1482.16 89.9956C1482.21 91.1564 1482.07 92.5528 1481.74 94.1849C1481.39 95.8577 1480.98 97.4117 1480.52 98.8468C1480.06 100.241 1479.57 101.46 1479.06 102.502C1478.55 103.504 1478.03 104.268 1477.5 104.796C1477 105.373 1476.5 105.611 1476.01 105.509C1475.64 105.433 1475.34 105.243 1475.11 104.939C1474.87 104.635 1474.81 104.218 1474.92 103.688C1475.03 103.157 1475.23 102.497 1475.52 101.706C1475.86 100.883 1476.21 100.019 1476.57 99.1145C1476.97 98.1775 1477.34 97.232 1477.66 96.2781C1478.04 95.2919 1478.31 94.3703 1478.49 93.5135C1478.74 92.3302 1478.83 91.3707 1478.77 90.6348C1478.76 89.8666 1478.61 89.2405 1478.33 88.7565C1478.09 88.2401 1477.73 87.8454 1477.23 87.5724C1476.74 87.2586 1476.16 86.9891 1475.49 86.7639C1474.63 86.5866 1473.74 86.5521 1472.83 86.6603C1471.91 86.7686 1471.15 86.7594 1470.53 86.6327C1470.17 86.5567 1469.89 86.3506 1469.7 86.0143C1469.56 85.6864 1469.53 85.3389 1469.6 84.9717C1469.66 84.6861 1469.78 84.4131 1469.96 84.1529C1470.19 83.8602 1470.51 83.6499 1470.92 83.5219ZM1468.36 82.3525C1467.8 85.0454 1467.25 87.7834 1466.72 90.5663C1466.2 93.3085 1465.86 95.8354 1465.73 98.1471L1465.64 98.5755C1465.49 99.2691 1465.2 99.7616 1464.76 100.053C1464.36 100.312 1463.96 100.399 1463.55 100.314C1463.19 100.238 1462.87 100.003 1462.61 99.6094C1462.36 99.2154 1462.26 98.6632 1462.32 97.9527C1462.52 95.952 1462.78 93.8985 1463.08 91.7922C1463.39 89.686 1463.77 87.5313 1464.23 85.328C1464.32 84.8791 1464.41 84.3649 1464.49 83.7852C1464.56 83.2055 1464.67 82.6751 1464.82 82.1939C1465.01 81.6804 1465.26 81.2858 1465.57 81.01C1465.93 80.7019 1466.4 80.607 1466.97 80.7252C1467.38 80.8097 1467.72 81.0285 1467.98 81.3817C1468.3 81.7025 1468.42 82.0261 1468.36 82.3525ZM1500.15 108.846C1496.22 107.692 1493.55 105.758 1492.16 103.043C1490.76 100.329 1490.51 96.8096 1491.41 92.4846L1491.94 89.9141C1490.35 89.5847 1489.05 89.1674 1488.05 88.6622C1487.06 88.1163 1486.66 87.3332 1486.88 86.3132C1487.03 85.9629 1487.28 85.6949 1487.62 85.5092C1487.96 85.2827 1488.4 85.2243 1488.93 85.3341C1489.42 85.4354 1490 85.6191 1490.67 85.8851C1491.33 86.151 1492.08 86.3685 1492.89 86.5374C1493.16 85.2317 1493.48 83.9141 1493.84 82.5845C1494.21 81.2141 1494.61 79.9992 1495.04 78.9398C1495.51 77.8888 1496 77.0545 1496.51 76.4369C1497.03 75.7785 1497.6 75.5126 1498.21 75.6393C1498.66 75.7322 1499.03 76.0206 1499.31 76.5047C1499.6 76.9479 1499.68 77.4959 1499.54 78.1487C1499.33 79.1688 1498.93 80.5103 1498.33 82.1733C1497.73 83.8363 1497.17 85.5936 1496.66 87.4452C1496.98 87.5535 1497.3 87.6619 1497.62 87.7702C1497.98 87.8463 1498.35 87.9223 1498.72 87.9983C1499.37 88.1334 1500.03 88.2481 1500.69 88.3424C1501.39 88.4452 1502.1 88.5276 1502.81 88.5895C1503.38 88.7077 1503.81 88.9681 1504.11 89.3705C1504.41 89.7729 1504.52 90.1781 1504.44 90.5862C1504.32 91.1574 1504.07 91.552 1503.68 91.7701C1503.3 91.9473 1502.84 92.0423 1502.28 92.0549C1501.78 92.0351 1501.18 91.9535 1500.48 91.8099C1499.83 91.6748 1499.18 91.5397 1498.52 91.4046L1495.71 90.8218C1495.57 91.2622 1495.46 91.6864 1495.38 92.0944C1495.3 92.5025 1495.21 92.9105 1495.13 93.3185C1494.82 94.7874 1494.67 96.1388 1494.67 97.3727C1494.72 98.5742 1494.98 99.6914 1495.45 100.724C1495.91 101.757 1496.62 102.669 1497.56 103.46C1498.5 104.25 1499.72 104.929 1501.22 105.494C1501.66 105.669 1501.94 105.92 1502.09 106.248C1502.23 106.576 1502.27 106.923 1502.19 107.29C1502.09 107.78 1501.85 108.199 1501.48 108.548C1501.16 108.865 1500.72 108.964 1500.15 108.846Z" fill="black"/>
<path fill-rule="evenodd" clip-rule="evenodd" d="M1082.16 663H552.203L490.633 314.869H1020.59L1082.16 663Z" fill="#E5E8F5"/>
<path fill-rule="evenodd" clip-rule="evenodd" d="M429 638.02H958.961L1020.53 314H490.574L429 638.02Z" fill="#56557E"/>
<path fill-rule="evenodd" clip-rule="evenodd" d="M1082.16 657.781H552.203L490.633 314H1020.59L1082.16 657.781Z" fill="white"/>
<path fill-rule="evenodd" clip-rule="evenodd" d="M727.902 622.406L684.633 365.239H678.291L721.561 622.406H727.902Z" fill="#E5E8F5"/>
<path fill-rule="evenodd" clip-rule="evenodd" d="M882.062 622.406L838.792 365.239H832.45L875.72 622.406H882.062Z" fill="#E5E8F5"/>
<path fill-rule="evenodd" clip-rule="evenodd" d="M1026.24 345.529L1020.59 314H490.633L496.28 345.529H1026.24Z" fill="#8F97B9"/>
<path fill-rule="evenodd" clip-rule="evenodd" d="M1011.11 521.093L1010.04 515.006H562.221L563.283 521.093H1011.11Z" fill="#E5E8F5"/>
<path d="M713.543 460.295C714.105 460.059 714.526 459.941 714.808 459.941C715.183 459.94 715.558 460.056 715.934 460.29C716.262 460.242 716.613 460.194 716.988 460.147C717.41 460.052 717.761 460.004 718.042 460.004C719.589 460 720.996 460.325 722.263 460.979C723.53 461.585 724.61 462.426 725.503 463.502C726.443 464.579 727.173 465.842 727.692 467.294C728.21 468.746 728.472 470.293 728.475 471.933C728.479 473.386 728.201 474.793 727.641 476.154C727.129 477.468 726.381 478.641 725.399 479.675C724.464 480.708 723.364 481.531 722.1 482.143C720.836 482.755 719.501 483.063 718.094 483.066C716.36 483.07 714.766 482.792 713.311 482.233C711.857 481.674 710.613 480.903 709.579 479.921C708.546 478.939 707.723 477.769 707.11 476.411C706.545 475.053 706.26 473.577 706.257 471.983C706.254 470.718 706.392 469.428 706.67 468.115C706.948 466.755 707.391 465.512 707.997 464.386C708.604 463.259 709.352 462.32 710.241 461.568C711.177 460.816 712.277 460.392 713.543 460.295ZM714.395 463.949C713.411 464.092 712.662 464.469 712.147 465.08C711.633 465.643 711.236 466.324 710.957 467.121C710.724 467.919 710.585 468.763 710.541 469.653C710.496 470.497 710.474 471.271 710.475 471.974C710.477 472.818 710.62 473.685 710.903 474.575C711.186 475.418 711.633 476.19 712.244 476.892C712.902 477.547 713.7 478.084 714.639 478.504C715.577 478.923 716.726 479.132 718.085 479.129C719.117 479.126 720.03 478.937 720.826 478.56C721.669 478.136 722.348 477.596 722.862 476.938C723.423 476.234 723.843 475.459 724.122 474.615C724.401 473.771 724.54 472.88 724.538 471.942C724.532 469.505 723.942 467.514 722.767 465.97C721.591 464.379 720.019 463.515 718.05 463.379L716.714 463.382C716.339 463.383 715.941 463.477 715.519 463.666C715.098 463.854 714.723 463.949 714.395 463.949ZM752.499 461.754C752.639 461.191 752.872 460.792 753.2 460.557C753.574 460.275 753.972 460.134 754.394 460.133C754.91 460.131 755.356 460.318 755.731 460.692C756.154 461.066 756.366 461.605 756.368 462.308C756.369 462.636 756.346 462.87 756.299 463.011C755.508 465.497 754.67 467.937 753.784 470.329C752.946 472.675 752.083 474.763 751.197 476.593C750.31 478.423 749.4 479.902 748.465 481.029C747.577 482.156 746.711 482.72 745.867 482.722C744.93 482.724 743.944 482.164 742.91 481.041C741.876 479.872 740.841 478.327 739.806 476.408C738.77 474.488 737.734 472.287 736.697 469.805C735.707 467.276 734.787 464.653 733.937 461.937C733.843 461.656 733.796 461.445 733.795 461.304C733.794 460.742 734.027 460.272 734.495 459.896C735.01 459.473 735.548 459.261 736.111 459.26C736.533 459.259 736.932 459.375 737.307 459.609C737.683 459.842 737.918 460.287 738.013 460.943C738.438 462.442 739.005 464.152 739.712 466.072C740.466 467.945 741.22 469.725 741.974 471.411C742.728 473.05 743.434 474.454 744.093 475.625C744.799 476.748 745.316 477.309 745.644 477.309C745.925 477.308 746.346 476.791 746.906 475.759C747.513 474.679 748.143 473.366 748.796 471.817C749.448 470.269 750.101 468.603 750.753 466.821C751.405 464.991 751.987 463.302 752.499 461.754ZM779.258 479.413C780.055 479.411 780.641 479.597 781.017 479.971C781.393 480.298 781.581 480.743 781.583 481.306C781.584 481.915 781.421 482.384 781.094 482.713C780.813 482.995 780.438 483.207 779.97 483.348C779.549 483.49 779.056 483.561 778.494 483.563C777.978 483.564 777.51 483.565 777.088 483.566C775.119 483.57 773.15 483.34 771.18 482.876C769.257 482.365 767.521 481.619 765.972 480.638C764.423 479.657 763.154 478.441 762.167 476.99C761.179 475.539 760.683 473.876 760.679 472.001C760.674 469.986 761.209 468.25 762.284 466.795C763.406 465.292 764.786 464.047 766.424 463.059C768.063 462.071 769.819 461.34 771.693 460.867C773.567 460.394 775.301 460.156 776.894 460.152C777.691 460.15 778.488 460.242 779.286 460.428C780.13 460.614 780.88 460.94 781.538 461.407C782.195 461.875 782.736 462.506 783.159 463.302C783.583 464.098 783.796 465.105 783.799 466.324C783.802 467.777 783.336 469.02 782.401 470.054C781.466 471.087 780.343 471.957 779.032 472.663C777.721 473.369 776.339 473.888 774.887 474.219C773.435 474.551 772.216 474.741 771.232 474.79C770.716 474.791 770.318 474.605 770.035 474.23C769.8 473.809 769.682 473.34 769.681 472.825C769.68 472.403 769.796 471.981 770.029 471.558C770.263 471.089 770.661 470.854 771.223 470.853C772.114 470.851 773.051 470.755 774.035 470.565C775.066 470.375 776.003 470.092 776.846 469.715C777.735 469.291 778.461 468.774 779.022 468.163C779.583 467.552 779.862 466.825 779.861 465.981C779.858 464.716 778.895 464.085 776.973 464.09C775.708 464.092 774.372 464.283 772.967 464.661C771.561 464.992 770.274 465.511 769.103 466.217C767.933 466.922 766.951 467.815 766.156 468.895C765.409 469.928 765.036 471.148 765.039 472.554C765.042 473.632 765.372 474.592 766.03 475.435C766.735 476.277 767.628 477.025 768.707 477.679C769.834 478.285 771.1 478.751 772.507 479.076C773.961 479.401 775.462 479.562 777.008 479.558C777.383 479.557 777.758 479.557 778.133 479.556C778.508 479.508 778.883 479.46 779.258 479.413ZM789.526 480.374C789.757 478.779 789.917 477.256 790.008 475.802C790.145 474.302 790.212 472.825 790.209 471.372C790.202 468.513 789.914 465.56 789.345 462.515C789.298 462.374 789.274 462.187 789.273 461.952C789.272 461.296 789.458 460.757 789.832 460.334C790.253 459.911 790.745 459.699 791.307 459.698C791.917 459.696 792.363 459.906 792.645 460.328C792.974 460.749 793.209 461.287 793.352 461.943C793.493 462.552 793.589 463.232 793.637 463.982C793.733 464.685 793.851 465.364 793.994 466.02C794.602 465.409 795.374 464.821 796.31 464.257C797.246 463.692 798.229 463.198 799.26 462.774C800.337 462.349 801.414 462.019 802.492 461.782C803.569 461.498 804.577 461.355 805.514 461.353C806.03 461.352 806.476 461.562 806.852 461.983C807.228 462.404 807.416 462.872 807.417 463.388C807.418 463.857 807.279 464.326 806.999 464.795C806.718 465.218 806.273 465.43 805.664 465.431C804.539 465.434 803.368 465.647 802.15 466.072C800.932 466.45 799.785 466.944 798.708 467.556C797.678 468.168 796.766 468.85 795.97 469.601C795.222 470.353 794.708 471.081 794.428 471.785C794.337 472.722 794.269 473.847 794.225 475.16C794.228 476.426 794.137 477.645 793.952 478.817C793.814 479.942 793.558 480.904 793.185 481.701C792.812 482.499 792.25 482.899 791.5 482.901C791.032 482.902 790.562 482.739 790.093 482.412C789.67 482.084 789.458 481.569 789.457 480.866C789.456 480.679 789.479 480.514 789.526 480.374ZM829.112 449.066C829.064 448.925 829.041 448.738 829.04 448.503C829.039 447.847 829.225 447.331 829.599 446.955C829.973 446.579 830.395 446.391 830.863 446.39C831.379 446.389 831.872 446.598 832.341 447.019C832.811 447.393 833.094 447.979 833.189 448.775C833.429 451.025 833.598 453.485 833.698 456.157C833.798 458.829 833.851 461.571 833.857 464.383C833.863 467.196 833.776 469.961 833.595 472.681C833.413 475.353 833.208 477.885 832.979 480.276C832.887 480.932 832.653 481.401 832.279 481.684C831.905 481.966 831.53 482.107 831.155 482.108C830.874 482.109 830.545 482.016 830.17 481.829C829.467 482.112 828.507 482.348 827.289 482.539C826.07 482.729 824.875 482.825 823.703 482.828C822.157 482.831 820.68 482.694 819.273 482.416C817.866 482.138 816.623 481.649 815.543 480.948C814.51 480.247 813.688 479.311 813.076 478.141C812.463 476.924 812.155 475.401 812.151 473.573C812.148 472.073 812.355 470.549 812.774 469.001C813.192 467.406 813.845 465.975 814.733 464.707C815.667 463.393 816.837 462.336 818.241 461.535C819.692 460.688 821.402 460.263 823.371 460.258C823.887 460.257 824.426 460.279 824.989 460.325C825.551 460.371 826.067 460.487 826.536 460.673C827.005 460.859 827.381 461.14 827.663 461.514C827.992 461.889 828.157 462.38 828.159 462.99C828.16 463.458 828.043 463.857 827.81 464.186C827.576 464.468 827.295 464.609 826.967 464.61C826.404 464.611 825.865 464.518 825.349 464.332C824.833 464.146 824.317 464.053 823.802 464.054C821.739 464.059 819.983 464.86 818.534 466.457C817.084 468.007 816.363 470.376 816.37 473.563C816.374 475.204 816.939 476.515 818.066 477.497C819.24 478.432 821.163 478.896 823.835 478.89C824.679 478.888 825.593 478.792 826.577 478.603C827.561 478.413 828.521 478.27 829.459 478.174C829.594 476.065 829.683 473.674 829.724 471.002C829.764 468.33 829.782 465.658 829.776 462.986C829.77 460.314 829.694 457.76 829.548 455.322C829.448 452.885 829.303 450.8 829.112 449.066ZM863.171 461.645L863.174 462.77C863.179 464.973 863.02 467.294 862.697 469.732C862.422 472.17 861.864 474.422 861.025 476.486C860.233 478.503 859.112 480.193 857.662 481.556C856.211 482.872 854.338 483.532 852.041 483.537C850.4 483.541 848.806 483.193 847.257 482.494C845.756 481.747 844.605 480.625 843.804 479.126C843.193 478.05 842.604 476.785 842.038 475.333C841.519 473.881 841.047 472.359 840.622 470.766C840.243 469.127 839.934 467.463 839.696 465.776C839.505 464.089 839.407 462.449 839.404 460.855C839.402 460.246 839.589 459.776 839.963 459.447C840.384 459.071 840.876 458.883 841.438 458.882C842.001 458.88 842.517 459.067 842.987 459.441C843.456 459.768 843.715 460.283 843.764 460.986C843.909 463.142 844.125 465.297 844.411 467.453C844.744 469.609 845.194 471.553 845.76 473.286C846.373 474.972 847.15 476.353 848.09 477.429C849.076 478.505 850.273 479.041 851.679 479.038C852.851 479.036 853.881 478.635 854.77 477.836C855.659 476.99 856.406 475.864 857.013 474.456C857.666 473.048 858.154 471.383 858.478 469.46C858.802 467.491 858.961 465.381 858.956 463.131L858.952 461.514C858.951 460.858 859.137 460.365 859.511 460.036C859.932 459.66 860.401 459.472 860.916 459.47C861.432 459.469 861.925 459.656 862.394 460.03C862.864 460.357 863.123 460.895 863.171 461.645ZM886.414 479.171C887.211 479.169 887.797 479.355 888.173 479.729C888.549 480.057 888.737 480.502 888.739 481.064C888.74 481.673 888.577 482.143 888.25 482.471C887.969 482.753 887.594 482.965 887.126 483.107C886.704 483.248 886.212 483.32 885.65 483.321C885.134 483.322 884.666 483.323 884.244 483.324C882.275 483.329 880.306 483.099 878.336 482.634C876.413 482.123 874.677 481.377 873.128 480.396C871.579 479.415 870.31 478.199 869.323 476.748C868.335 475.298 867.839 473.635 867.835 471.76C867.83 469.744 868.365 468.008 869.44 466.553C870.562 465.05 871.942 463.805 873.58 462.817C875.219 461.829 876.975 461.098 878.849 460.625C880.723 460.152 882.457 459.914 884.05 459.91C884.847 459.909 885.644 460.001 886.442 460.186C887.286 460.372 888.036 460.698 888.694 461.166C889.351 461.633 889.892 462.265 890.315 463.06C890.739 463.856 890.952 464.864 890.955 466.082C890.958 467.536 890.492 468.779 889.557 469.812C888.622 470.846 887.499 471.715 886.188 472.421C884.877 473.127 883.495 473.646 882.043 473.978C880.591 474.309 879.372 474.499 878.388 474.548C877.872 474.549 877.473 474.363 877.191 473.988C876.956 473.567 876.838 473.099 876.837 472.583C876.836 472.161 876.952 471.739 877.185 471.317C877.419 470.847 877.817 470.612 878.379 470.611C879.27 470.609 880.207 470.513 881.191 470.323C882.222 470.133 883.159 469.85 884.002 469.473C884.891 469.049 885.617 468.532 886.178 467.921C886.739 467.311 887.018 466.584 887.017 465.74C887.014 464.474 886.051 463.843 884.129 463.848C882.864 463.851 881.528 464.041 880.123 464.419C878.717 464.751 877.43 465.269 876.259 465.975C875.089 466.681 874.107 467.574 873.312 468.653C872.564 469.686 872.192 470.906 872.195 472.312C872.198 473.39 872.528 474.351 873.186 475.193C873.891 476.035 874.784 476.783 875.863 477.437C876.99 478.044 878.256 478.51 879.663 478.834C881.117 479.159 882.617 479.32 884.164 479.317C884.539 479.316 884.914 479.315 885.289 479.314C885.664 479.266 886.039 479.219 886.414 479.171Z" fill="#FF0000"/>
<path d="M602.581 391.698L573.409 432.643M572.339 392.504L603.651 431.837" stroke="#FF0000" stroke-width="4" stroke-linecap="round" stroke-linejoin="round"/>
<path d="M788.788 391.698L759.616 432.643M758.546 392.504L789.858 431.837" stroke="#FF0000" stroke-width="4" stroke-linecap="round" stroke-linejoin="round"/>
<path d="M957.58 391.698L928.408 432.643M927.338 392.504L958.65 431.837" stroke="#FF0000" stroke-width="4" stroke-linecap="round" stroke-linejoin="round"/>
<path d="M1288.5 133L1298.5 147.5H1332L1348.5 133L1354.5 104C1353.17 102.333 1349.6 97.5 1346 91.5C1341.5 84 1328 80 1317.5 79C1307 78 1298.5 85 1293.5 87.5C1288.5 90 1284.5 103.5 1284 107C1283.6 109.8 1286.83 125.5 1288.5 133Z" fill="#37474F"/>
<path fill-rule="evenodd" clip-rule="evenodd" d="M1328.97 188.98H1300.47L1301.64 151.63H1330.27L1328.97 188.98Z" fill="#A97763"/>
<path fill-rule="evenodd" clip-rule="evenodd" d="M1301.68 148.995C1301.57 151.495 1300.2 166.426 1308.38 172.141C1320.83 178.418 1334.12 164.905 1333.09 157.482C1332.99 154.361 1323.51 160.544 1324.12 157.482C1325.27 150.719 1313.88 151.353 1309.37 152.961C1304.87 154.569 1303.83 142.741 1301.68 148.995Z" fill="#976250"/>
<path fill-rule="evenodd" clip-rule="evenodd" d="M1329.76 169.278C1329.76 169.278 1329.98 187.747 1321.31 187.664C1309.73 187.553 1301.06 172.724 1301.06 172.724C1301.06 172.724 1267.23 179.042 1258.12 188.992C1254.92 192.486 1266.32 310.218 1266.32 310.218L1370.3 309.496C1370.3 309.496 1380.52 199.453 1369.01 183.761C1363.18 175.805 1332 169.278 1329.76 169.278Z" fill="#7D5C69"/>
<path d="M1317 184.5C1328.58 184.611 1329.21 170 1329.21 170V230L1320.76 257L1303.5 263L1300.5 214.5V173.446C1300.5 173.446 1305.42 184.389 1317 184.5Z" fill="white"/>
<path fill-rule="evenodd" clip-rule="evenodd" d="M1287.86 179.395C1288.95 176.243 1301.2 172.137 1301.2 172.137C1299.04 174.261 1303.71 190.771 1306.39 216.39C1311.23 262.786 1306.32 305.878 1306.32 305.878C1306.32 305.878 1294.83 236.642 1286.51 204.3C1285.75 201.342 1295.34 203.466 1295.34 203.466C1295.34 203.466 1288.98 196.17 1288.94 194.344C1288.75 186.457 1286.55 183.185 1287.86 179.395Z" fill="#64485D"/>
<path fill-rule="evenodd" clip-rule="evenodd" d="M1341.48 178.896C1340.69 175.647 1329.16 168.933 1329.16 168.933C1330.61 174.153 1323.08 191.646 1319.87 217.178C1314.23 261.993 1322.31 311.685 1322.31 311.685C1322.31 311.685 1336 250.437 1340.75 207.213C1341.08 204.177 1332.03 205.462 1332.03 205.462C1332.03 205.462 1339.03 198.861 1339.24 197.052C1340.14 189.218 1342.44 182.807 1341.48 178.896Z" fill="#64485D"/>
<path fill-rule="evenodd" clip-rule="evenodd" d="M1286.49 124.161C1286.97 130.473 1293.15 132.53 1294.28 138.147C1297.32 153.194 1310.45 168.347 1322.73 168.347C1333.13 168.347 1348.31 148.608 1348.31 126.337C1348.37 121.008 1348.01 115.683 1347.23 110.41C1345.75 101.21 1324.23 126.355 1304.64 105.551C1300.06 100.687 1300.68 121.63 1294.75 121.63C1294.5 121.627 1285.57 112.189 1286.49 124.161Z" fill="#A97763"/>
<path fill-rule="evenodd" clip-rule="evenodd" d="M1287.41 303.02L1272.77 306.159L1245.3 270.343C1245.3 270.343 1247.3 205.212 1258.12 188.99C1262.31 182.713 1277.21 179.061 1277.21 179.061L1268.14 251.603L1287.41 303.02Z" fill="#64485D"/>
<path fill-rule="evenodd" clip-rule="evenodd" d="M1340.71 298.591L1355.36 301.729L1382.81 265.916C1382.81 265.916 1380.81 200.785 1370 184.563C1365.81 178.286 1350.91 174.635 1350.91 174.635L1359.98 247.175L1340.71 298.591Z" fill="#64485D"/>
<path fill-rule="evenodd" clip-rule="evenodd" d="M1264.17 232.962H1379.22C1381.02 232.962 1382.75 233.678 1384.03 234.954C1385.3 236.229 1386.02 237.959 1386.02 239.762V302.804C1386.02 306.56 1382.97 309.604 1379.22 309.604H1264.17C1260.42 309.604 1257.37 306.56 1257.37 302.804V239.762C1257.37 236.007 1260.42 232.962 1264.17 232.962Z" fill="#D8D6DD"/>
<path fill-rule="evenodd" clip-rule="evenodd" d="M1321.7 283.381C1328.38 283.381 1333.79 277.966 1333.79 271.285C1333.79 264.605 1328.38 259.189 1321.7 259.189C1315.02 259.189 1309.6 264.605 1309.6 271.285C1309.6 277.966 1315.02 283.381 1321.7 283.381Z" fill="white"/>
<path fill-rule="evenodd" clip-rule="evenodd" d="M1265.44 307.275H1377.96V312.338H1265.44V307.275Z" fill="#BFBFBF"/>
<path fill-rule="evenodd" clip-rule="evenodd" d="M1097 312.231H1470.43V324.525H1097V312.231Z" fill="#F9B25F"/>
<path fill-rule="evenodd" clip-rule="evenodd" d="M1097 323.51H1470.43V340.598H1097V323.51Z" fill="#D8984D"/>
</svg>
