<svg width="64" height="64" viewBox="0 0 64 64" fill="none" xmlns="http://www.w3.org/2000/svg">
<path d="M61 3H41V23H61V3Z" fill="#F8CF26"/>
<path d="M13 61C18.5228 61 23 56.5228 23 51C23 45.4772 18.5228 41 13 41C7.47715 41 3 45.4772 3 51C3 56.5228 7.47715 61 13 61Z" fill="#06AAE9"/>
<path d="M40 43.062V55.187L50.5 61.249L61 55.187V43.062L50.5 37L40 43.062Z" fill="#E7E7E7"/>
<path d="M14 3L3 23H24.5L14 3Z" fill="#F4462D"/>
<path d="M61 2H41C40.448 2 40 2.447 40 3V23C40 23.553 40.448 24 41 24H61C61.552 24 62 23.553 62 23V3C62 2.447 61.552 2 61 2ZM60 22H42V4H60V22Z" fill="#383838"/>
<path d="M13 62C19.065 62 24 57.065 24 51C24 44.935 19.065 40 13 40C6.935 40 2 44.935 2 51C2 57.065 6.935 62 13 62ZM13 42C17.962 42 22 46.037 22 51C22 55.963 17.962 60 13 60C8.038 60 4 55.963 4 51C4 46.037 8.038 42 13 42Z" fill="#383838"/>
<path d="M61.5 42.196L51 36.134C50.69 35.956 50.31 35.956 50 36.134L39.5 42.196C39.19 42.375 39 42.705 39 43.062V55.186C39 55.543 39.19 55.874 39.5 56.052L50 62.115C50.155 62.204 50.327 62.249 50.5 62.249C50.673 62.249 50.845 62.204 51 62.115L61.5 56.053C61.81 55.874 62 55.544 62 55.187V43.062C62 42.705 61.81 42.375 61.5 42.196ZM60 54.609L50.5 60.094L41 54.609V43.64L50.5 38.155L60 43.64V54.609Z" fill="#383838"/>
<path d="M14.0099 2.00024C13.6409 1.95924 13.3019 2.19524 13.1239 2.51924L2.12386 22.5192C1.95386 22.8292 1.95886 23.2062 2.13886 23.5092C2.31886 23.8132 2.64586 24.0002 2.99986 24.0002H24.4999C24.8499 24.0002 25.1749 23.8172 25.3559 23.5182C25.5369 23.2192 25.5479 22.8452 25.3849 22.5362L14.8849 2.53624C14.7139 2.20924 14.3779 2.00424 14.0099 2.00024ZM4.69086 22.0002L13.9789 5.11224L22.8459 22.0002H4.69086Z" fill="#383838"/>
<path d="M31.707 7.29297L30.293 8.70697L33.586 12H26V14H33.586L30.293 17.293L31.707 18.707L36.707 13.707C37.098 13.316 37.098 12.684 36.707 12.293L31.707 7.29297Z" fill="#383838"/>
<path d="M31.707 55.707L36.707 50.707C37.098 50.316 37.098 49.684 36.707 49.293L31.707 44.293L30.293 45.707L33.586 49H26V51H33.586L30.293 54.293L31.707 55.707Z" fill="#383838"/>
<path d="M52 29V26H50V28H13C12.448 28 12 28.447 12 29V34.586L8.70697 31.293L7.29297 32.707L12.293 37.707C12.488 37.902 12.744 38 13 38C13.256 38 13.512 37.902 13.707 37.707L18.707 32.707L17.293 31.293L14 34.586V30H51C51.552 30 52 29.553 52 29Z" fill="#383838"/>
</svg>
