<svg width="157" height="157" viewBox="0 0 157 157" fill="none" xmlns="http://www.w3.org/2000/svg">
<path fill-rule="evenodd" clip-rule="evenodd" d="M40.079 0.770996H117.221C138.94 0.770996 156.546 18.3774 156.546 40.096V117.238C156.546 138.957 138.94 156.563 117.221 156.563H40.079C18.3604 156.563 0.754028 138.957 0.754028 117.238V40.096C0.754028 18.3774 18.3604 0.770996 40.079 0.770996Z" fill="#D1D2F4"/>
<mask id="mask0" mask-type="alpha" maskUnits="userSpaceOnUse" x="0" y="0" width="157" height="157">
<rect x="0.754028" y="0.770996" width="155.791" height="155.791" rx="24.569" fill="white"/>
</mask>
<g mask="url(#mask0)">
<path fill-rule="evenodd" clip-rule="evenodd" d="M42.827 81.9179C27.271 20.4979 61.757 46.7879 85.798 30.2609C88.181 28.6219 101.392 34.7349 105.358 37.0769C118.241 44.6769 118.758 73.9839 110.827 80.8089C92.157 96.8839 46.286 95.5769 42.827 81.9179Z" fill="#37474F"/>
<path fill-rule="evenodd" clip-rule="evenodd" d="M108.437 144.188L45.88 146.893L62.049 128.547L64.343 101.74L91.626 101.377L92.975 127.835L108.437 144.188Z" fill="#FFDFAE"/>
<path fill-rule="evenodd" clip-rule="evenodd" d="M64.572 118.985L64.386 104.921L91.668 104.558L91.832 116.789C91.832 116.789 90.132 122.212 79.445 122.353C68.478 122.5 64.572 118.985 64.572 118.985Z" fill="#FFE082"/>
<path fill-rule="evenodd" clip-rule="evenodd" d="M109.642 92.038C107.297 109.683 98.474 116.922 91.832 116.789C86.627 116.684 68.965 119.757 62.832 115.498C53.618 109.092 50.446 103.336 48.763 94.214C48.463 92.584 40.637 94.771 39.894 85.688C39.201 77.188 46.174 82.458 46.161 81.415C45.968 66.876 56.08 58.544 62.648 60.949C72.893 64.697 106.613 60.19 109.637 78.667C110.008 80.934 112.589 75.751 114.305 79.652C118.37 88.883 110.067 88.841 109.642 92.038Z" fill="#FFDFAE"/>
<path fill-rule="evenodd" clip-rule="evenodd" d="M131.184 174.62C131.02 162.353 96.4731 130.364 96.4731 130.364C96.4731 130.364 85.4951 142.097 80.4931 142.507C74.5251 142.998 59.3161 131.315 59.3161 131.315C59.3161 131.315 16.1011 162.59 16.2821 176.146L131.184 174.62Z" fill="#455A64"/>
<path fill-rule="evenodd" clip-rule="evenodd" d="M92.142 122.352H67.683C55.277 122.352 48.707 106.566 46.783 97.745C42.794 79.445 44.535 66.145 44.535 66.145C44.535 66.145 49.45 103.172 64.876 111.694C71.492 115.35 87.176 112.356 94.591 111.786C106.965 110.837 111.176 52.511 111.176 65.945L109.55 95.009C109.55 108.444 104.548 122.352 92.142 122.352Z" fill="#455A64"/>
</g>
</svg>
