<svg width="64" height="64" viewBox="0 0 64 64" fill="none" xmlns="http://www.w3.org/2000/svg">
<g clip-path="url(#clip0)">
<path d="M32 4.98706C22.626 4.98706 15 12.6131 15 21.9871V27.9871C15 28.5391 15.447 28.9871 16 28.9871H24C24.553 28.9871 25 28.5391 25 27.9871V21.9871C25 18.1271 28.141 14.9871 32 14.9871C35.859 14.9871 39 18.1271 39 21.9871V25.9161L28.465 36.4511C27.521 37.3961 27 38.6521 27 39.9871V47.9871C27 48.5391 27.447 48.9871 28 48.9871H36C36.553 48.9871 37 48.5391 37 47.9871V42.0581L47.535 31.5231C48.479 30.5771 49 29.3221 49 27.9871V21.9871C49 12.6131 41.374 4.98706 32 4.98706ZM47 27.9871C47 28.7881 46.688 29.5411 46.121 30.1091L35.293 40.9371C35.105 41.1241 35 41.3781 35 41.6441V46.9871H29V39.9871C29 39.1861 29.312 38.4331 29.879 37.8651L40.707 27.0371C40.895 26.8501 41 26.5951 41 26.3301V21.9871C41 17.0251 36.963 12.9871 32 12.9871C27.037 12.9871 23 17.0251 23 21.9871V26.9871H17V21.9871C17 13.7161 23.729 6.98706 32 6.98706C40.271 6.98706 47 13.7161 47 21.9871V27.9871Z" fill="black"/>
<path d="M47 27.9871C47 28.7881 46.688 29.5411 46.121 30.1091L35.293 40.9371C35.105 41.1241 35 41.3781 35 41.6441V46.9871H29V39.9871C29 39.1861 29.312 38.4331 29.879 37.8651L40.707 27.0371C40.895 26.8501 41 26.5951 41 26.3301V21.9871C41 17.0251 36.963 12.9871 32 12.9871C27.037 12.9871 23 17.0251 23 21.9871V26.9871H17V21.9871C17 13.7161 23.729 6.98706 32 6.98706C40.271 6.98706 47 13.7161 47 21.9871V27.9871Z" fill="#06AAE9"/>
<path d="M28 58.9871H36C36.553 58.9871 37 58.5391 37 57.9871V51.9871C37 51.4351 36.553 50.9871 36 50.9871H28C27.447 50.9871 27 51.4351 27 51.9871V57.9871C27 58.5391 27.447 58.9871 28 58.9871ZM29 52.9871H35V56.9871H29V52.9871Z" fill="black"/>
<path d="M10.4019 11.1661L8.96291 9.7771C8.48791 10.2691 8.02891 10.7761 7.58691 11.2981L9.11191 12.5921C9.52691 12.1031 9.95691 11.6271 10.4019 11.1661Z" fill="black"/>
<path d="M61.9312 29.9379L63.9272 29.8029C63.8802 29.1159 63.8132 28.4369 63.7242 27.7639L61.7422 28.0249C61.8242 28.6569 61.8882 29.2939 61.9312 29.9379Z" fill="black"/>
<path d="M16.381 6.36689L15.338 4.66089C14.755 5.01689 14.184 5.39189 13.626 5.78389L14.774 7.42089C15.299 7.05289 15.835 6.70189 16.381 6.36689Z" fill="black"/>
<path d="M7.91467 14.096L6.30767 12.905C5.90267 13.452 5.51167 14.013 5.13867 14.588L6.81667 15.677C7.16567 15.137 7.53267 14.61 7.91467 14.096Z" fill="black"/>
<path d="M13.2367 8.57589L11.9867 7.01489C11.4527 7.44289 10.9327 7.88689 10.4287 8.34789L11.7787 9.82489C12.2517 9.39389 12.7377 8.97689 13.2367 8.57589Z" fill="black"/>
<path d="M2 32.051L0 32.054C0.001 32.742 0.024 33.426 0.068 34.103L2.064 33.972C2.022 33.337 2.001 32.697 2 32.051Z" fill="black"/>
<path d="M2.25158 35.886L0.267578 36.141C0.354578 36.816 0.465578 37.497 0.596578 38.167L2.55958 37.781C2.43658 37.156 2.33358 36.524 2.25158 35.886Z" fill="black"/>
<path d="M2.23257 28.213L0.24857 27.967C0.16457 28.641 0.10157 29.321 0.0595703 30.006L2.05557 30.129C2.09557 29.484 2.15457 28.846 2.23257 28.213Z" fill="black"/>
<path d="M4.15863 20.7909L2.30363 20.0439C2.04863 20.6779 1.81363 21.3209 1.59863 21.9739L3.49863 22.5989C3.69963 21.9869 3.91963 21.3839 4.15863 20.7909Z" fill="black"/>
<path d="M5.82084 17.322L4.07684 16.344C3.74284 16.939 3.42784 17.546 3.13184 18.165L4.93484 19.029C5.21284 18.45 5.50884 17.88 5.82084 17.322Z" fill="black"/>
<path d="M2.98869 39.656L1.05469 40.164C1.22769 40.822 1.42469 41.484 1.64069 42.13L3.53669 41.496C3.33569 40.891 3.15269 40.277 2.98869 39.656Z" fill="black"/>
<path d="M57.0884 15.5301L58.7584 14.4301C58.3824 13.8591 57.9894 13.3011 57.5794 12.7561L55.9814 13.9581C56.3664 14.4701 56.7354 14.9951 57.0884 15.5301Z" fill="black"/>
<path d="M46.7088 3.56105C46.1068 3.24905 45.4828 2.95105 44.8558 2.67505L44.0508 4.50605C44.6398 4.76405 45.2188 5.04105 45.7858 5.33605L46.7088 3.56105Z" fill="black"/>
<path d="M19.7791 4.58088L18.9631 2.75488C18.3381 3.03388 17.7251 3.33288 17.1211 3.64988L18.0531 5.42088C18.6171 5.12288 19.1931 4.84288 19.7791 4.58088Z" fill="black"/>
<path d="M56.2945 11.158C55.8495 10.64 55.3875 10.136 54.9105 9.64697L53.4785 11.043C53.9255 11.502 54.3585 11.976 54.7765 12.462L56.2945 11.158Z" fill="black"/>
<path d="M58.9838 18.865L60.7828 17.989C60.4828 17.374 60.1648 16.771 59.8278 16.178L58.0898 17.166C58.4048 17.722 58.7038 18.288 58.9838 18.865Z" fill="black"/>
<path d="M39.0184 0.758977C38.3534 0.610977 37.6824 0.482977 37.0034 0.375977L36.6924 2.35198C37.3284 2.45198 37.9584 2.57198 38.5804 2.71098L39.0184 0.758977Z" fill="black"/>
<path d="M60.4406 22.4179L62.3366 21.7799C62.1176 21.1299 61.8786 20.4889 61.6206 19.8589L59.7686 20.6169C60.0126 21.2079 60.2356 21.8089 60.4406 22.4179Z" fill="black"/>
<path d="M42.9514 1.911C42.3134 1.678 41.6584 1.463 41.0024 1.271L40.4414 3.191C41.0574 3.371 41.6664 3.571 42.2654 3.79L42.9514 1.911Z" fill="black"/>
<path d="M27.1182 2.38196L26.7962 0.407959C26.1182 0.518959 25.4472 0.650959 24.7842 0.803959L25.2332 2.75296C25.8552 2.60996 26.4832 2.48596 27.1182 2.38196Z" fill="black"/>
<path d="M34.9682 0.123C34.2922 0.061 33.6102 0.02 32.9232 0L32.8662 1.999C33.5112 2.018 34.1512 2.056 34.7862 2.114L34.9682 0.123Z" fill="black"/>
<path d="M23.3764 3.2451L22.8024 1.3291C22.1454 1.5261 21.4964 1.7441 20.8584 1.9811L21.5554 3.8551C22.1524 3.6331 22.7604 3.4291 23.3764 3.2451Z" fill="black"/>
<path d="M30.9421 2.0051L30.8721 0.00610352C30.1851 0.0301035 29.5041 0.0761035 28.8291 0.142104L29.0241 2.1321C29.6581 2.0701 30.2991 2.0281 30.9421 2.0051Z" fill="black"/>
<path d="M61.4281 26.1289L63.3911 25.7409C63.2571 25.0669 63.1031 24.4009 62.9291 23.7429L60.9951 24.2559C61.1591 24.8739 61.3041 25.4979 61.4281 26.1289Z" fill="black"/>
<path d="M2.95629 24.4409L1.02129 23.9399C0.850289 24.5989 0.700289 25.2659 0.571289 25.9399L2.53629 26.3159C2.65629 25.6839 2.79729 25.0589 2.95629 24.4409Z" fill="black"/>
<path d="M51.868 6.8999L50.626 8.4669C51.129 8.8649 51.618 9.2799 52.094 9.7089L53.434 8.2249C52.927 7.7669 52.404 7.3249 51.868 6.8999Z" fill="black"/>
<path d="M52.1729 54.1911L53.5209 55.67C54.0249 55.21 54.5159 54.735 54.9909 54.244L53.5549 52.8521C53.1069 53.3131 52.6469 53.7601 52.1729 54.1911Z" fill="black"/>
<path d="M49.1729 56.59L50.3209 58.228C50.8799 57.836 51.4259 57.427 51.9599 57.001L50.7119 55.439C50.2119 55.838 49.6979 56.222 49.1729 56.59Z" fill="black"/>
<path d="M45.8926 58.5829L46.8186 60.3549C47.4246 60.0389 48.0196 59.7019 48.6026 59.3479L47.5636 57.6389C47.0176 57.9709 46.4596 58.2859 45.8926 58.5829Z" fill="black"/>
<path d="M54.8477 51.429L56.3687 52.728C56.8067 52.214 57.2377 51.674 57.6487 51.124L56.0447 49.928C55.6627 50.441 55.2637 50.942 54.8477 51.429Z" fill="black"/>
<path d="M48.4988 4.56299L47.4658 6.27599C48.0158 6.60799 48.5548 6.95599 49.0798 7.32099L50.2208 5.67799C49.6598 5.28899 49.0858 4.91699 48.4988 4.56299Z" fill="black"/>
<path d="M59.0381 45.0009L60.8391 45.8699C61.1361 45.2559 61.4131 44.6299 61.6711 43.9939L59.8171 43.2419C59.5751 43.8379 59.3151 44.4249 59.0381 45.0009Z" fill="black"/>
<path d="M62.0005 31.855V31.986C62.0005 32.632 61.9795 33.273 61.9395 33.908L63.9355 34.033C63.9785 33.356 64.0005 32.674 64.0005 31.987V31.856H62.0005V31.855Z" fill="black"/>
<path d="M57.1494 48.35L58.8254 49.443C59.1984 48.871 59.5534 48.286 59.8894 47.689L58.1474 46.707C57.8324 47.265 57.4994 47.813 57.1494 48.35Z" fill="black"/>
<path d="M61.4531 37.72L63.4161 38.099C63.5461 37.432 63.6541 36.756 63.7411 36.075L61.7571 35.823C61.6761 36.461 61.5731 37.094 61.4531 37.72Z" fill="black"/>
<path d="M60.4814 41.438L62.3794 42.065C62.5934 41.418 62.7874 40.763 62.9614 40.1L61.0254 39.594C60.8644 40.216 60.6824 40.831 60.4814 41.438Z" fill="black"/>
<path d="M42.3877 60.1399L43.0787 62.0169C43.7117 61.7839 44.3497 61.5249 44.9757 61.2469L44.1637 59.4189C43.5817 59.6779 42.9887 59.9189 42.3877 60.1399Z" fill="black"/>
<path d="M15.4424 59.376C16.0264 59.73 16.6234 60.066 17.2314 60.382L18.1554 58.609C17.5864 58.312 17.0264 57.998 16.4794 57.666L15.4424 59.376Z" fill="black"/>
<path d="M12.0791 57.031C12.6131 57.456 13.1611 57.865 13.7231 58.257L14.8681 56.616C14.3421 56.249 13.8271 55.866 13.3261 55.467L12.0791 57.031Z" fill="black"/>
<path d="M38.7051 61.2351L39.1481 63.1851C39.8091 63.0351 40.4771 62.8591 41.1321 62.6641L40.5621 60.7471C39.9511 60.9291 39.3321 61.0921 38.7051 61.2351Z" fill="black"/>
<path d="M5.87965 46.752L4.13965 47.736C4.47665 48.331 4.83165 48.915 5.20465 49.486L6.87865 48.391C6.52865 47.857 6.19465 47.311 5.87965 46.752Z" fill="black"/>
<path d="M4.20356 43.2981L2.35156 44.0531C2.60956 44.6871 2.88756 45.3101 3.18556 45.9241L4.98456 45.0511C4.70656 44.4771 4.44556 43.8921 4.20356 43.2981Z" fill="black"/>
<path d="M7.98188 49.9651L6.37988 51.1631C6.78888 51.7101 7.21688 52.2441 7.65988 52.7631L9.18088 51.4641C8.76688 50.9781 8.36588 50.4781 7.98188 49.9651Z" fill="black"/>
<path d="M9.04102 54.279C9.51802 54.769 10.009 55.244 10.517 55.703L11.859 54.221C11.384 53.79 10.922 53.345 10.477 52.886L9.04102 54.279Z" fill="black"/>
<path d="M34.9111 61.8481L35.1041 63.8381C35.7881 63.7721 36.4651 63.6851 37.1361 63.5761L36.8181 61.6011C36.1881 61.7041 35.5521 61.7861 34.9111 61.8481Z" fill="black"/>
<path d="M31.0698 61.9729L31.0088 63.9719C31.3368 63.9819 31.6668 63.9869 31.9988 63.9869C32.3528 63.9869 32.7068 63.9819 33.0588 63.9699L32.9928 61.9709C32.3548 61.9909 31.7088 61.9919 31.0698 61.9729Z" fill="black"/>
<path d="M22.9326 62.6829C23.5846 62.8759 24.2526 63.0499 24.9166 63.1999L25.3576 61.2489C24.7296 61.1069 24.1106 60.9459 23.4986 60.7649L22.9326 62.6829Z" fill="black"/>
<path d="M19.083 61.2719C19.707 61.5469 20.342 61.8039 20.985 62.0399L21.674 60.1619C21.07 59.9399 20.474 59.6999 19.889 59.4419L19.083 61.2719Z" fill="black"/>
<path d="M26.9316 63.588C27.6016 63.694 28.2796 63.78 28.9636 63.845L29.1516 61.854C28.5096 61.793 27.8736 61.713 27.2446 61.613L26.9316 63.588Z" fill="black"/>
<rect x="29" y="53" width="6" height="4" fill="#F4462D"/>
</g>
<defs>
<clipPath id="clip0">
<rect width="64" height="63.987" fill="white"/>
</clipPath>
</defs>
</svg>
