<svg width="342" height="270" viewBox="0 0 342 270" fill="none" xmlns="http://www.w3.org/2000/svg">
<path fill-rule="evenodd" clip-rule="evenodd" d="M3.81395 0C1.70756 0 0 1.64019 0 3.66347V264.991C0 267.014 1.70756 268.654 3.81395 268.654H159.835C161.941 268.654 163.648 267.014 163.648 264.991V3.66346C163.648 1.64019 161.941 0 159.835 0H3.81395Z" fill="#F3F5F8"/>
<path fill-rule="evenodd" clip-rule="evenodd" d="M9.34545 7.14502C8.29229 7.14502 7.43848 7.96515 7.43848 8.97681V9.60034C7.43848 10.612 8.29229 11.4321 9.34545 11.4321H9.99465C11.0479 11.4321 11.9016 10.612 11.9016 9.60034V8.97675C11.9016 7.96515 11.0479 7.14502 9.99465 7.14502H9.34545ZM72.5731 7.14502C71.5198 7.14502 70.6661 7.96515 70.6661 8.97681V9.60034C70.6661 10.612 71.5198 11.4321 72.5731 11.4321H91.0752C92.1279 11.4321 92.9822 10.612 92.9822 9.60034V8.97675C92.9822 7.96515 92.1279 7.14502 91.0752 7.14502H72.5731ZM145.471 7.14502C144.418 7.14502 143.564 7.96515 143.564 8.97681V9.60034C143.564 10.612 144.418 11.4321 145.471 11.4321H154.303C155.356 11.4321 156.21 10.612 156.21 9.60034V8.97675C156.21 7.96515 155.356 7.14502 154.303 7.14502H145.471ZM127.943 8.97681C127.943 7.96515 128.797 7.14502 129.85 7.14502H138.682C139.735 7.14502 140.589 7.96515 140.589 8.97675V9.60034C140.589 10.612 139.735 11.4321 138.682 11.4321H129.85C128.797 11.4321 127.943 10.612 127.943 9.60034V8.97681ZM14.1332 8.97681C14.1332 7.96515 14.987 7.14502 16.0401 7.14502H16.6893C17.7426 7.14502 18.5963 7.96515 18.5963 8.97675V9.60034C18.5963 10.612 17.7426 11.4321 16.6893 11.4321H16.0401C14.987 11.4321 14.1332 10.612 14.1332 9.60034V8.97681ZM22.7349 7.14502C21.6817 7.14502 20.8279 7.96515 20.8279 8.97681V9.60034C20.8279 10.612 21.6817 11.4321 22.7349 11.4321H23.384C24.4373 11.4321 25.291 10.612 25.291 9.60034V8.97675C25.291 7.96515 24.4373 7.14502 23.384 7.14502H22.7349Z" fill="#C7D3DC"/>
<path d="M149.941 25H13.0588C11.3695 25 10 26.0745 10 27.4V43.6C10 44.9255 11.3695 46 13.0588 46H149.941C151.631 46 153 44.9255 153 43.6V27.4C153 26.0745 151.631 25 149.941 25Z" fill="white"/>
<path fill-rule="evenodd" clip-rule="evenodd" d="M138 34.3482C138 32.3751 139.665 30.7756 141.719 30.7756C143.774 30.7756 145.438 32.3751 145.438 34.3482C145.438 35.1471 145.166 35.8847 144.704 36.4797L147.757 39.4104C147.97 39.6138 147.97 39.9438 147.757 40.1472C147.546 40.3505 147.202 40.3505 146.991 40.1472L143.937 37.2162C143.318 37.6588 142.551 37.9207 141.719 37.9207C139.665 37.9207 138 36.3213 138 34.3482ZM141.719 36.9681C140.215 36.9681 138.992 35.7928 138.992 34.3482C138.992 32.9036 140.215 31.7283 141.719 31.7283C143.223 31.7283 144.447 32.9036 144.447 34.3482C144.447 35.7928 143.223 36.9681 141.719 36.9681Z" fill="#72808A"/>
<path d="M46.403 51.2886H12.0774C10.6732 51.2886 9.53479 52.382 9.53479 53.7309V65.9424C9.53479 67.2913 10.6732 68.3847 12.0774 68.3847H46.403C47.8073 68.3847 48.9456 67.2913 48.9456 65.9424V53.7309C48.9456 52.382 47.8073 51.2886 46.403 51.2886Z" fill="#E0E7EC"/>
<path d="M19.9917 61.8254L21.7993 56.8124H22.7119L20.3654 62.8896H19.6267L17.2845 56.8124H18.1927L19.9917 61.8254ZM24.3109 62.8896H23.5071V58.3734H24.3109V62.8896ZM23.4419 57.1756C23.4419 57.0503 23.481 56.9446 23.5592 56.8584C23.6403 56.7721 23.7591 56.729 23.9155 56.729C24.0719 56.729 24.1907 56.7721 24.2718 56.8584C24.3529 56.9446 24.3935 57.0503 24.3935 57.1756C24.3935 57.3008 24.3529 57.4051 24.2718 57.4886C24.1907 57.5721 24.0719 57.6138 23.9155 57.6138C23.7591 57.6138 23.6403 57.5721 23.5592 57.4886C23.481 57.4051 23.4419 57.3008 23.4419 57.1756ZM25.406 60.5939C25.406 59.9011 25.5769 59.3446 25.9187 58.9244C26.2606 58.5015 26.7081 58.29 27.2614 58.29C27.8118 58.29 28.2478 58.4708 28.5693 58.8326V56.4785H29.3732V62.8896H28.6346L28.5955 62.4054C28.2739 62.784 27.8263 62.9732 27.2527 62.9732C26.7081 62.9732 26.2634 62.7589 25.9187 62.3303C25.5769 61.9017 25.406 61.3424 25.406 60.6524V60.5939ZM26.2098 60.6816C26.2098 61.1934 26.3199 61.5945 26.5401 61.884C26.7602 62.1728 27.0644 62.3175 27.4526 62.3175C27.9625 62.3175 28.3347 62.0977 28.5693 61.6581V59.5839C28.3289 59.1582 27.9595 58.9453 27.4613 58.9453C27.0673 58.9453 26.7602 59.0914 26.5401 59.3835C26.3199 59.6757 26.2098 60.1084 26.2098 60.6816ZM32.5758 62.9732C31.9385 62.9732 31.4199 62.773 31.0201 62.3718C30.6203 61.9688 30.4204 61.4303 30.4204 60.7567V60.6148C30.4204 60.1668 30.5088 59.7675 30.6855 59.4169C30.8651 59.0635 31.1143 58.7881 31.4329 58.5905C31.7545 58.3902 32.1021 58.29 32.4758 58.29C33.087 58.29 33.5621 58.4833 33.901 58.8702C34.24 59.257 34.4094 59.8107 34.4094 60.5314V60.8528H31.2244C31.2359 61.2978 31.3706 61.658 31.6284 61.934C31.8892 62.2063 32.2194 62.3425 32.6192 62.3425C32.9031 62.3425 33.1435 62.2869 33.3405 62.1758C33.5375 62.0647 33.7098 61.9169 33.8576 61.7332L34.3486 62.1007C33.9546 62.682 33.3637 62.9732 32.5758 62.9732ZM32.4758 58.9244C32.1513 58.9244 31.879 59.0385 31.6589 59.2667C31.4387 59.492 31.3025 59.8093 31.2504 60.2183H33.6056V60.1599C33.5824 59.7675 33.4724 59.4642 33.2754 59.25C33.0784 59.0329 32.8118 58.9244 32.4758 58.9244ZM35.1308 60.5898C35.1308 60.1474 35.2206 59.7494 35.4002 59.396C35.5827 59.0426 35.8347 58.77 36.1563 58.578C36.4807 58.386 36.8501 58.29 37.2643 58.29C37.9046 58.29 38.4217 58.5028 38.8156 58.9286C39.2125 59.3543 39.4109 59.9206 39.4109 60.6273V60.6816C39.4109 61.1214 39.3226 61.5164 39.1459 61.8669C38.9721 62.2149 38.7215 62.486 38.3941 62.6808C38.0697 62.8755 37.696 62.9732 37.273 62.9732C36.6357 62.9732 36.1186 62.7601 35.7218 62.3346C35.3278 61.909 35.1308 61.3454 35.1308 60.6441V60.5898ZM35.939 60.6816C35.939 61.1824 36.0592 61.5848 36.2997 61.8876C36.543 62.1911 36.8675 62.3425 37.273 62.3425C37.6815 62.3425 38.0059 62.1899 38.2464 61.884C38.4868 61.575 38.6071 61.1433 38.6071 60.5898C38.6071 60.0945 38.484 59.6938 38.2377 59.3877C37.9944 59.0788 37.6699 58.9244 37.2643 58.9244C36.8675 58.9244 36.5474 59.076 36.304 59.3794C36.0607 59.6826 35.939 60.1168 35.939 60.6816Z" fill="#333333"/>
<path d="M74.7858 61.3033H72.1351L71.5401 62.8896H70.6794L73.0956 56.8124H73.826L76.2459 62.8896H75.3903L74.7858 61.3033ZM72.3875 60.6441H74.5385L73.4605 57.8016L72.3875 60.6441ZM79.2443 59.0663C79.1229 59.0468 78.9907 59.0371 78.8489 59.0371C78.322 59.0371 77.9641 59.2527 77.7753 59.6841V62.8896H76.9718V58.3734H77.7537L77.767 58.8952C78.0308 58.4917 78.404 58.29 78.8877 58.29C79.0447 58.29 79.1629 58.3095 79.2443 58.3484V59.0663ZM81.2956 57.2799V58.3734H82.1728V58.9703H81.2956V61.771C81.2956 61.9517 81.3344 62.0885 81.4125 62.1801C81.4907 62.2692 81.6242 62.3138 81.8124 62.3138C81.9052 62.3138 82.0323 62.2967 82.195 62.2637V62.8896C81.9834 62.9451 81.7774 62.9732 81.5778 62.9732C81.2187 62.9732 80.9479 62.8688 80.7654 62.66C80.583 62.4512 80.4915 62.1551 80.4915 61.771V58.9703H79.6352V58.3734H80.4915V57.2799H81.2956ZM83.9895 62.8896H83.1854V58.3734H83.9895V62.8896ZM83.1206 57.1756C83.1206 57.0503 83.1593 56.9446 83.2375 56.8584C83.3189 56.7721 83.4378 56.729 83.5941 56.729C83.7505 56.729 83.8694 56.7721 83.9501 56.8584C84.0315 56.9446 84.0721 57.0503 84.0721 57.1756C84.0721 57.3008 84.0315 57.4051 83.9501 57.4886C83.8694 57.5721 83.7505 57.6138 83.5941 57.6138C83.4378 57.6138 83.3189 57.5721 83.2375 57.4886C83.1593 57.4051 83.1206 57.3008 83.1206 57.1756ZM87.1659 62.3425C87.4526 62.3425 87.703 62.2595 87.9179 62.0922C88.1321 61.9255 88.251 61.7167 88.2738 61.4663H89.0341C89.0201 61.7252 88.9273 61.9713 88.7563 62.2051C88.5853 62.439 88.3565 62.6252 88.0698 62.7644C87.7857 62.9036 87.4844 62.9732 87.1659 62.9732C86.5258 62.9732 86.016 62.7687 85.6365 62.3596C85.2596 61.9475 85.0714 61.3857 85.0714 60.6732V60.5439C85.0714 60.1043 85.1553 59.7133 85.3238 59.371C85.4916 59.0288 85.7319 58.763 86.0446 58.5738C86.3605 58.3846 86.733 58.29 87.1614 58.29C87.689 58.29 88.1264 58.4416 88.4741 58.7449C88.8243 59.0483 89.0112 59.442 89.0341 59.9261H88.2738C88.251 59.634 88.1346 59.3946 87.9261 59.2082C87.7208 59.019 87.4659 58.9244 87.1614 58.9244C86.7534 58.9244 86.4362 59.0663 86.2099 59.3501C85.9867 59.6312 85.8755 60.0389 85.8755 60.5731V60.7192C85.8755 61.2398 85.9867 61.6403 86.2099 61.9212C86.433 62.2021 86.7514 62.3425 87.1659 62.3425ZM90.8114 62.8896H90.0079V56.4785H90.8114V62.8896ZM94.0533 62.9732C93.4157 62.9732 92.8976 62.773 92.4978 62.3718C92.098 61.9688 91.8977 61.4303 91.8977 60.7567V60.6148C91.8977 60.1668 91.9861 59.7675 92.1628 59.4169C92.3427 59.0635 92.5919 58.7881 92.9103 58.5905C93.232 58.3902 93.5797 58.29 93.9535 58.29C94.5643 58.29 95.0398 58.4833 95.3786 58.8702C95.7174 59.257 95.8871 59.8107 95.8871 60.5314V60.8528H92.7019C92.7133 61.2978 92.8481 61.658 93.1061 61.934C93.3668 62.2063 93.6967 62.3425 94.0965 62.3425C94.3806 62.3425 94.6209 62.2869 94.818 62.1758C95.015 62.0647 95.1873 61.9169 95.3354 61.7332L95.8261 62.1007C95.432 62.682 94.8408 62.9732 94.0533 62.9732ZM93.9535 58.9244C93.6286 58.9244 93.3566 59.0385 93.1366 59.2667C92.9161 59.492 92.78 59.8093 92.7279 60.2183H95.083V60.1599C95.0601 59.7675 94.9495 59.4642 94.7525 59.25C94.5561 59.0329 94.2891 58.9244 93.9535 58.9244Z" fill="#72808A"/>
<path d="M129.52 60.0472C129.52 60.6343 129.423 61.1409 129.229 61.5665C129.034 61.9896 128.762 62.3206 128.412 62.5599L129.542 63.411L128.973 63.9166L127.638 62.8982C127.43 62.9482 127.209 62.9733 126.978 62.9733C126.48 62.9733 126.038 62.856 125.653 62.6222C125.267 62.3859 124.967 62.0507 124.753 61.6166C124.541 61.18 124.433 60.6747 124.427 60.1015V59.6632C124.427 59.0789 124.533 58.5627 124.744 58.1147C124.956 57.6667 125.254 57.3244 125.639 57.0879C126.028 56.8486 126.471 56.729 126.969 56.729C127.479 56.729 127.926 56.8472 128.312 57.0838C128.7 57.3203 128.999 57.6611 129.207 58.1063C129.416 58.5488 129.52 59.0664 129.52 59.659V60.0472ZM128.685 59.6548C128.685 58.9397 128.537 58.3888 128.238 58.002C127.942 57.6124 127.519 57.4177 126.969 57.4177C126.445 57.4177 126.031 57.611 125.726 57.9978C125.425 58.3818 125.27 58.9161 125.262 59.6006V60.0472C125.262 60.7428 125.412 61.2911 125.714 61.6917C126.017 62.0922 126.439 62.2925 126.978 62.2925C127.516 62.2925 127.934 62.105 128.23 61.7295C128.524 61.351 128.677 60.8096 128.685 60.1056V59.6548ZM130.51 61.2575C130.51 60.9654 130.595 60.697 130.763 60.4521C130.934 60.2072 131.258 59.922 131.736 59.5964C131.455 59.2681 131.267 59.0037 131.171 58.8034C131.075 58.6031 131.028 58.4041 131.028 58.2065C131.028 57.7446 131.169 57.3829 131.454 57.1213C131.737 56.8597 132.123 56.729 132.609 56.729C133.044 56.729 133.403 56.8514 133.687 57.0963C133.971 57.3384 134.113 57.6444 134.113 58.0145C134.113 58.2594 134.048 58.4862 133.917 58.6949C133.79 58.9008 133.565 59.1178 133.244 59.346L132.779 59.6757L134.187 61.2911C134.384 60.9293 134.482 60.5272 134.482 60.0847H135.208C135.208 60.7944 135.03 61.3827 134.673 61.8504L135.577 62.8896H134.613L134.191 62.4097C133.977 62.5935 133.725 62.7339 133.435 62.831C133.148 62.9256 132.856 62.9733 132.557 62.9733C131.94 62.9733 131.445 62.8157 131.071 62.5013C130.697 62.1868 130.51 61.7723 130.51 61.2575ZM132.557 62.3425C132.983 62.3425 133.373 62.1868 133.726 61.8754L132.183 60.1015L132.04 60.2017C131.557 60.5439 131.314 60.8959 131.314 61.2575C131.314 61.586 131.424 61.8492 131.645 62.0464C131.868 62.2442 132.172 62.3425 132.557 62.3425ZM131.832 58.1815C131.832 58.4486 132.002 58.7825 132.344 59.1832L132.857 58.8368C133.054 58.7032 133.189 58.5766 133.261 58.4569C133.334 58.3345 133.369 58.1871 133.369 58.0145C133.369 57.8281 133.298 57.6737 133.153 57.5512C133.008 57.426 132.825 57.3634 132.605 57.3634C132.368 57.3634 132.179 57.4413 132.04 57.5971C131.901 57.7502 131.832 57.945 131.832 58.1815ZM139.835 61.3033H137.185L136.59 62.8896H135.729L138.145 56.8125H138.876L141.296 62.8896H140.44L139.835 61.3033ZM137.437 60.6441H139.588L138.51 57.8017L137.437 60.6441Z" fill="#72808A"/>
<path d="M18.1369 35.2536C18.0152 35.2341 17.8834 35.2244 17.7415 35.2244C17.2142 35.2244 16.8565 35.44 16.6682 35.8713V39.0769H15.8643V34.5607H16.6464L16.6595 35.0825C16.9231 34.679 17.2968 34.4773 17.7806 34.4773C17.937 34.4773 18.0558 34.4967 18.1369 34.5357V35.2536ZM21.6088 39.0769C21.5624 38.9879 21.5248 38.8292 21.4958 38.6011C21.1221 38.9739 20.676 39.1603 20.1574 39.1603C19.694 39.1603 19.313 39.0351 19.0146 38.7847C18.7191 38.5315 18.5714 38.2115 18.5714 37.8247C18.5714 37.3544 18.7568 36.9899 19.1276 36.7312C19.5013 36.4696 20.0257 36.3388 20.7006 36.3388H21.4828V35.9841C21.4828 35.7141 21.3987 35.4999 21.2307 35.3412C21.0627 35.1799 20.815 35.0992 20.4877 35.0992C20.2009 35.0992 19.9604 35.1687 19.7664 35.3078C19.5723 35.447 19.4752 35.6153 19.4752 35.8129H18.667C18.667 35.5875 18.7496 35.3705 18.9147 35.1618C19.0827 34.9503 19.3087 34.7834 19.5926 34.6609C19.8793 34.5385 20.1937 34.4773 20.5355 34.4773C21.0772 34.4773 21.5016 34.6081 21.8087 34.8696C22.1158 35.1284 22.2751 35.4859 22.2866 35.9423V38.0209C22.2866 38.4355 22.3417 38.7652 22.4518 39.0101V39.0769H21.6088ZM20.2748 38.4883C20.5268 38.4883 20.7658 38.4258 20.9917 38.3005C21.2177 38.1753 21.3814 38.0125 21.4828 37.8122V36.8856H20.8527C19.8678 36.8856 19.3753 37.1625 19.3753 37.7162C19.3753 37.9583 19.4593 38.1475 19.6274 38.2839C19.7954 38.4202 20.0112 38.4883 20.2748 38.4883ZM27.7096 38.0125L28.6135 34.5607H29.4173L28.0486 39.0769H27.3968L26.254 35.6543L25.1416 39.0769H24.4898L23.1253 34.5607H23.9249L24.8504 37.9416L25.9454 34.5607H26.5929L27.7096 38.0125ZM32.8414 39.0769V35.1576H32.0984V34.5607H32.8414V34.0974C32.8414 33.6133 32.9762 33.239 33.2456 32.9747C33.515 32.7103 33.8959 32.5781 34.3884 32.5781C34.5738 32.5781 34.7578 32.6018 34.9403 32.6491L34.8968 33.2752C34.7606 33.2501 34.6158 33.2376 34.4622 33.2376C34.2016 33.2376 34.0002 33.3114 33.8582 33.4588C33.7163 33.6035 33.6454 33.8122 33.6454 34.0849V34.5607H34.6491V35.1576H33.6454V39.0769H32.8414ZM35.327 36.7771C35.327 36.3346 35.4168 35.9367 35.5964 35.5833C35.7789 35.2299 36.0309 34.9572 36.3525 34.7653C36.6769 34.5733 37.0463 34.4773 37.4605 34.4773C38.1007 34.4773 38.6179 34.6901 39.0118 35.1159C39.4087 35.5416 39.6071 36.1079 39.6071 36.8146V36.8689C39.6071 37.3085 39.5188 37.7037 39.3421 38.0543C39.1683 38.4021 38.9177 38.6734 38.5903 38.8682C38.2659 39.063 37.8922 39.1603 37.4692 39.1603C36.8319 39.1603 36.3148 38.9475 35.918 38.5217C35.524 38.096 35.327 37.5325 35.327 36.8314V36.7771ZM36.1352 36.8689C36.1352 37.3698 36.2554 37.7718 36.4959 38.0752C36.7392 38.3784 37.0637 38.5301 37.4692 38.5301C37.8777 38.5301 38.2021 38.377 38.4426 38.0709C38.683 37.7621 38.8032 37.3308 38.8032 36.7771C38.8032 36.2818 38.6802 35.8811 38.4339 35.575C38.1906 35.2661 37.8661 35.1117 37.4605 35.1117C37.0637 35.1117 36.7436 35.2633 36.5002 35.5667C36.2569 35.8699 36.1352 36.3041 36.1352 36.8689ZM40.4023 36.7771C40.4023 36.3346 40.4921 35.9367 40.6717 35.5833C40.8542 35.2299 41.1063 34.9572 41.4279 34.7653C41.7523 34.5733 42.1216 34.4773 42.5359 34.4773C43.1761 34.4773 43.6932 34.6901 44.0871 35.1159C44.484 35.5416 44.6825 36.1079 44.6825 36.8146V36.8689C44.6825 37.3085 44.5941 37.7037 44.4174 38.0543C44.2436 38.4021 43.993 38.6734 43.6657 38.8682C43.3412 39.063 42.9675 39.1603 42.5446 39.1603C41.9073 39.1603 41.3902 38.9475 40.9933 38.5217C40.5993 38.096 40.4023 37.5325 40.4023 36.8314V36.7771ZM41.2106 36.8689C41.2106 37.3698 41.3308 37.7718 41.5712 38.0752C41.8145 38.3784 42.139 38.5301 42.5446 38.5301C42.9531 38.5301 43.2775 38.377 43.5179 38.0709C43.7584 37.7621 43.8786 37.3308 43.8786 36.7771C43.8786 36.2818 43.7554 35.8811 43.5093 35.575C43.2659 35.2661 42.9414 35.1117 42.5359 35.1117C42.139 35.1117 41.8189 35.2633 41.5756 35.5667C41.3322 35.8699 41.2106 36.3041 41.2106 36.8689ZM45.4951 36.7812C45.4951 36.0884 45.666 35.5319 46.0078 35.1117C46.3496 34.6888 46.7972 34.4773 47.3505 34.4773C47.9009 34.4773 48.3369 34.6581 48.6585 35.0199V32.6658H49.4623V39.0769H48.7236L48.6845 38.5927C48.363 38.9711 47.9154 39.1603 47.3418 39.1603C46.7972 39.1603 46.3525 38.9461 46.0078 38.5176C45.666 38.0891 45.4951 37.5297 45.4951 36.8397V36.7812ZM46.2989 36.8689C46.2989 37.3809 46.409 37.7816 46.6292 38.0709C46.8493 38.3604 47.1535 38.5051 47.5417 38.5051C48.0515 38.5051 48.4238 38.2853 48.6585 37.8456V35.7711C48.418 35.3454 48.0486 35.1325 47.5504 35.1325C47.1564 35.1325 46.8493 35.2787 46.6292 35.5708C46.409 35.863 46.2989 36.2957 46.2989 36.8689Z" fill="#333333"/>
<path fill-rule="evenodd" clip-rule="evenodd" d="M20.3412 260.717C20.3412 260.042 20.9104 259.496 21.6125 259.496H139.209C139.912 259.496 140.481 260.042 140.481 260.717V263.159C140.481 263.834 139.912 264.38 139.209 264.38H21.6125C20.9104 264.38 20.3412 263.834 20.3412 263.159V260.717Z" fill="#E0E7EC"/>
<path d="M117.597 251.558H21.6125C20.9104 251.558 20.3412 252.105 20.3412 252.779V255.222C20.3412 255.896 20.9104 256.443 21.6125 256.443H117.597C118.299 256.443 118.868 255.896 118.868 255.222V252.779C118.868 252.105 118.299 251.558 117.597 251.558Z" fill="#94A2AB"/>
<path fill-rule="evenodd" clip-rule="evenodd" d="M20.3408 153.866C20.3408 153.191 20.91 152.645 21.6121 152.645H139.209C139.911 152.645 140.48 153.191 140.48 153.866V156.308C140.48 156.983 139.911 157.529 139.209 157.529H21.6121C20.91 157.529 20.3408 156.983 20.3408 156.308V153.866ZM20.3408 161.803C20.3408 161.129 20.91 160.582 21.6121 160.582H95.3486C96.051 160.582 96.6199 161.129 96.6199 161.803V164.246C96.6199 164.92 96.051 165.467 95.3486 165.467H21.6121C20.91 165.467 20.3408 164.92 20.3408 164.246V161.803Z" fill="#E0E7EC"/>
<path d="M37.8256 171.398H27.0107C25.6834 171.398 24.6074 172.475 24.6074 173.803C24.6074 175.131 25.6834 176.207 27.0107 176.207H37.8256C39.153 176.207 40.229 175.131 40.229 173.803C40.229 172.475 39.153 171.398 37.8256 171.398Z" fill="#E0E7EC"/>
<path d="M72.0722 171.398H50.4424C49.1151 171.398 48.0391 172.475 48.0391 173.803C48.0391 175.131 49.1151 176.207 50.4424 176.207H72.0722C73.3995 176.207 74.4755 175.131 74.4755 173.803C74.4755 172.475 73.3995 171.398 72.0722 171.398Z" fill="#E0E7EC"/>
<path d="M22.4929 174.764H21.5635L21.2819 176.208H20.7785L21.0601 174.764H20.2188V174.281H21.1517L21.3946 173.034H20.4863V172.545H21.4896L21.7783 171.08H22.2818L21.9931 172.545H22.9225L23.2111 171.08H23.7181L23.4294 172.545H24.1476V173.034H23.3343L23.0914 174.281H23.8836V174.764H22.9999L22.7183 176.208H22.2113L22.4929 174.764ZM21.6551 174.281H22.5845L22.8274 173.034H21.898L21.6551 174.281Z" fill="#72808A"/>
<path d="M45.9253 174.764H44.9964L44.7147 176.208H44.2112L44.4929 174.764H43.6514V174.281H44.5843L44.827 173.034H43.9192V172.545H44.9219L45.2109 171.08H45.7144L45.4254 172.545H46.3549L46.6439 171.08H47.1504L46.862 172.545H47.58V173.034H46.7671L46.5243 174.281H47.3162V174.764H46.4324L46.1506 176.208H45.6441L45.9253 174.764ZM45.0878 174.281H46.0173L46.26 173.034H45.3305L45.0878 174.281Z" fill="#72808A"/>
<path d="M117.597 144.707H21.6121C20.91 144.707 20.3408 145.254 20.3408 145.928V148.371C20.3408 149.045 20.91 149.592 21.6121 149.592H117.597C118.299 149.592 118.868 149.045 118.868 148.371V145.928C118.868 145.254 118.299 144.707 117.597 144.707Z" fill="#94A2AB"/>
<path d="M141.116 77.5435H22.8835C21.4792 77.5435 20.3408 78.6369 20.3408 79.9858V136.159C20.3408 137.508 21.4792 138.601 22.8835 138.601H141.116C142.52 138.601 143.659 137.508 143.659 136.159V79.9858C143.659 78.6369 142.52 77.5435 141.116 77.5435Z" fill="#E0E7EC"/>
<path fill-rule="evenodd" clip-rule="evenodd" d="M87.6405 107.984C88.109 108.209 88.109 108.852 87.6405 109.076L77.8348 113.786C77.4121 113.989 76.915 113.694 76.915 113.24V103.821C76.915 103.367 77.4121 103.072 77.8348 103.275L87.6405 107.984Z" fill="white"/>
<path d="M141.116 184.395H22.8838C21.4796 184.395 20.3412 185.488 20.3412 186.837V243.01C20.3412 244.359 21.4796 245.452 22.8838 245.452H141.116C142.521 245.452 143.659 244.359 143.659 243.01V186.837C143.659 185.488 142.521 184.395 141.116 184.395Z" fill="#E0E7EC"/>
<path fill-rule="evenodd" clip-rule="evenodd" d="M87.6403 214.835C88.1088 215.06 88.1088 215.702 87.6403 215.927L77.8346 220.637C77.4119 220.84 76.9148 220.544 76.9148 220.091V210.672C76.9148 210.218 77.4119 209.923 77.8346 210.125L87.6403 214.835Z" fill="white"/>
<path fill-rule="evenodd" clip-rule="evenodd" d="M184.752 1C182.68 1 181 2.6423 181 4.66818V266.332C181 268.358 182.68 270 184.752 270H338.248C340.32 270 342 268.358 342 266.332V4.66818C342 2.6423 340.32 1 338.248 1H184.752Z" fill="#F3F5F8"/>
<path fill-rule="evenodd" clip-rule="evenodd" d="M189.732 8.03442C188.748 8.03442 187.95 8.84186 187.95 9.83788V10.4518C187.95 11.4478 188.748 12.2551 189.732 12.2551H190.338C191.322 12.2551 192.12 11.4478 192.12 10.4518V9.83782C192.12 8.84186 191.322 8.03442 190.338 8.03442H189.732ZM248.806 8.03442C247.822 8.03442 247.024 8.84186 247.024 9.83788V10.4518C247.024 11.4478 247.822 12.2551 248.806 12.2551H266.093C267.076 12.2551 267.875 11.4478 267.875 10.4518V9.83782C267.875 8.84186 267.076 8.03442 266.093 8.03442H248.806ZM316.916 8.03442C315.932 8.03442 315.134 8.84186 315.134 9.83788V10.4518C315.134 11.4478 315.932 12.2551 316.916 12.2551H325.167C326.152 12.2551 326.949 11.4478 326.949 10.4518V9.83782C326.949 8.84186 326.152 8.03442 325.167 8.03442H316.916ZM300.539 9.83788C300.539 8.84186 301.337 8.03442 302.321 8.03442H310.572C311.556 8.03442 312.354 8.84186 312.354 9.83782V10.4518C312.354 11.4478 311.556 12.2551 310.572 12.2551H302.321C301.337 12.2551 300.539 11.4478 300.539 10.4518V9.83788ZM194.205 9.83788C194.205 8.84186 195.003 8.03442 195.986 8.03442H196.593C197.577 8.03442 198.375 8.84186 198.375 9.83782V10.4518C198.375 11.4478 197.577 12.2551 196.593 12.2551H195.986C195.003 12.2551 194.205 11.4478 194.205 10.4518V9.83788ZM202.241 8.03442C201.257 8.03442 200.46 8.84186 200.46 9.83788V10.4518C200.46 11.4478 201.257 12.2551 202.242 12.2551H202.848C203.832 12.2551 204.63 11.4478 204.63 10.4518V9.83782C204.63 8.84186 203.832 8.03442 202.848 8.03442H202.241Z" fill="#C7D3DC"/>
<path d="M277.213 51.4951H241.578C240.266 51.4951 239.203 52.5717 239.203 53.8996V65.9223C239.203 67.2503 240.266 68.3268 241.578 68.3268H277.213C278.525 68.3268 279.588 67.2503 279.588 65.9223V53.8996C279.588 52.5717 278.525 51.4951 277.213 51.4951Z" fill="#E0E7EC"/>
<path d="M199.678 61.8688L201.367 56.9335H202.22L200.028 62.9166H199.337L197.149 56.9335H197.998L199.678 61.8688ZM203.714 62.9166H202.963V58.4703H203.714V62.9166ZM202.902 57.291C202.902 57.1677 202.938 57.0636 203.012 56.9787C203.087 56.8938 203.198 56.8513 203.344 56.8513C203.491 56.8513 203.602 56.8938 203.677 56.9787C203.753 57.0636 203.791 57.1677 203.791 57.291C203.791 57.4143 203.753 57.517 203.677 57.5992C203.602 57.6814 203.491 57.7225 203.344 57.7225C203.198 57.7225 203.087 57.6814 203.012 57.5992C202.938 57.517 202.902 57.4143 202.902 57.291ZM204.737 60.6565C204.737 59.9744 204.897 59.4264 205.216 59.0128C205.535 58.5964 205.954 58.3882 206.471 58.3882C206.985 58.3882 207.392 58.5662 207.693 58.9224V56.6047H208.444V62.9166H207.754L207.717 62.4399C207.417 62.8126 206.998 62.999 206.462 62.999C205.954 62.999 205.538 62.788 205.216 62.366C204.897 61.944 204.737 61.3933 204.737 60.714V60.6565ZM205.488 60.7428C205.488 61.2467 205.591 61.6416 205.797 61.9265C206.002 62.2109 206.287 62.3534 206.649 62.3534C207.126 62.3534 207.473 62.1369 207.693 61.7041V59.662C207.468 59.2429 207.123 59.0333 206.657 59.0333C206.289 59.0333 206.002 59.1772 205.797 59.4648C205.591 59.7524 205.488 60.1785 205.488 60.7428ZM211.436 62.999C210.84 62.999 210.356 62.8018 209.982 62.4069C209.609 62.0101 209.422 61.4799 209.422 60.8167V60.677C209.422 60.236 209.505 59.8428 209.67 59.4977C209.838 59.1497 210.07 58.8786 210.368 58.684C210.669 58.4868 210.993 58.3882 211.342 58.3882C211.914 58.3882 212.357 58.5786 212.674 58.9594C212.991 59.3402 213.149 59.8854 213.149 60.5949V60.9113H210.173C210.184 61.3495 210.31 61.7041 210.551 61.9758C210.794 62.2439 211.103 62.378 211.476 62.378C211.742 62.378 211.966 62.3233 212.15 62.2139C212.334 62.1045 212.495 61.959 212.634 61.7781L213.092 62.14C212.724 62.7122 212.172 62.999 211.436 62.999ZM211.342 59.0128C211.039 59.0128 210.785 59.1251 210.579 59.3497C210.373 59.5716 210.246 59.884 210.198 60.2867H212.398V60.2291C212.376 59.8428 212.274 59.5443 212.09 59.3333C211.905 59.1196 211.656 59.0128 211.342 59.0128ZM213.823 60.6524C213.823 60.2168 213.907 59.8251 214.075 59.4771C214.245 59.1292 214.481 58.8607 214.781 58.6717C215.084 58.4827 215.429 58.3882 215.816 58.3882C216.415 58.3882 216.898 58.5977 217.266 59.0169C217.637 59.4361 217.822 59.9936 217.822 60.6894V60.7428C217.822 61.1757 217.74 61.5647 217.574 61.9097C217.412 62.2524 217.178 62.5193 216.872 62.711C216.569 62.9028 216.22 62.999 215.825 62.999C215.229 62.999 214.746 62.7892 214.375 62.3702C214.007 61.9512 213.823 61.3964 213.823 60.7058V60.6524ZM214.578 60.7428C214.578 61.2358 214.691 61.632 214.915 61.9302C215.143 62.2289 215.446 62.378 215.825 62.378C216.206 62.378 216.509 62.2277 216.734 61.9265C216.959 61.6224 217.071 61.1974 217.071 60.6524C217.071 60.1648 216.956 59.7703 216.726 59.4689C216.499 59.1648 216.195 59.0128 215.816 59.0128C215.446 59.0128 215.147 59.1621 214.919 59.4607C214.692 59.7593 214.578 60.1867 214.578 60.7428Z" fill="#72808A"/>
<path d="M250.873 61.3549H248.397L247.841 62.9166H247.037L249.294 56.9335H249.976L252.237 62.9166H251.438L250.873 61.3549ZM248.632 60.7058H250.642L249.635 57.9074L248.632 60.7058ZM255.039 59.1525C254.925 59.1333 254.802 59.1237 254.669 59.1237C254.177 59.1237 253.843 59.336 253.666 59.7607V62.9166H252.916V58.4703H253.646L253.659 58.984C253.905 58.5868 254.254 58.3882 254.706 58.3882C254.852 58.3882 254.963 58.4073 255.039 58.4457V59.1525ZM256.955 57.3937V58.4703H257.775V59.058H256.955V61.8153C256.955 61.9933 256.992 62.1279 257.065 62.2181C257.138 62.3059 257.262 62.3497 257.438 62.3497C257.525 62.3497 257.644 62.3329 257.796 62.3005V62.9166C257.598 62.9713 257.406 62.999 257.219 62.999C256.884 62.999 256.631 62.8962 256.46 62.6906C256.29 62.485 256.204 62.1935 256.204 61.8153V59.058H255.404V58.4703H256.204V57.3937H256.955ZM259.472 62.9166H258.721V58.4703H259.472V62.9166ZM258.661 57.291C258.661 57.1677 258.697 57.0636 258.77 56.9787C258.846 56.8938 258.957 56.8513 259.103 56.8513C259.249 56.8513 259.36 56.8938 259.436 56.9787C259.512 57.0636 259.55 57.1677 259.55 57.291C259.55 57.4143 259.512 57.517 259.436 57.5992C259.36 57.6814 259.249 57.7225 259.103 57.7225C258.957 57.7225 258.846 57.6814 258.77 57.5992C258.697 57.517 258.661 57.4143 258.661 57.291ZM262.44 62.378C262.708 62.378 262.942 62.2962 263.143 62.1315C263.343 61.9674 263.454 61.7618 263.475 61.5154H264.186C264.173 61.7703 264.086 62.0125 263.926 62.2427C263.766 62.473 263.553 62.6563 263.285 62.7934C263.019 62.9304 262.738 62.999 262.44 62.999C261.842 62.999 261.366 62.7976 261.011 62.3948C260.659 61.9891 260.483 61.436 260.483 60.7346V60.6072C260.483 60.1744 260.562 59.7895 260.719 59.4525C260.876 59.1155 261.1 58.8539 261.393 58.6676C261.688 58.4813 262.036 58.3882 262.436 58.3882C262.929 58.3882 263.338 58.5375 263.662 58.8361C263.99 59.1347 264.164 59.5223 264.186 59.999H263.475C263.454 59.7114 263.345 59.4757 263.15 59.2922C262.959 59.1059 262.72 59.0128 262.436 59.0128C262.055 59.0128 261.758 59.1525 261.547 59.4319C261.338 59.7086 261.235 60.11 261.235 60.636V60.7798C261.235 61.2924 261.338 61.6867 261.547 61.9632C261.755 62.2397 262.053 62.378 262.44 62.378ZM265.846 62.9166H265.096V56.6047H265.846V62.9166ZM268.875 62.999C268.279 62.999 267.795 62.8018 267.422 62.4069C267.048 62.0101 266.861 61.4799 266.861 60.8167V60.677C266.861 60.236 266.944 59.8428 267.109 59.4977C267.277 59.1497 267.51 58.8786 267.807 58.684C268.108 58.4868 268.433 58.3882 268.782 58.3882C269.353 58.3882 269.797 58.5786 270.113 58.9594C270.43 59.3402 270.589 59.8854 270.589 60.5949V60.9113H267.612C267.623 61.3495 267.749 61.7041 267.99 61.9758C268.234 62.2439 268.542 62.378 268.916 62.378C269.181 62.378 269.405 62.3233 269.59 62.2139C269.774 62.1045 269.935 61.959 270.073 61.7781L270.532 62.14C270.163 62.7122 269.611 62.999 268.875 62.999ZM268.782 59.0128C268.478 59.0128 268.224 59.1251 268.019 59.3497C267.813 59.5716 267.686 59.884 267.637 60.2867H269.837V60.2291C269.816 59.8428 269.713 59.5443 269.528 59.3333C269.345 59.1196 269.095 59.0128 268.782 59.0128Z" fill="#333333"/>
<path d="M302.012 60.1182C302.012 60.6962 301.922 61.195 301.74 61.614C301.559 62.0306 301.304 62.3564 300.977 62.592L302.033 63.43L301.501 63.9277L300.254 62.925C300.06 62.9743 299.854 62.999 299.637 62.999C299.172 62.999 298.759 62.8836 298.399 62.6533C298.039 62.4207 297.759 62.0907 297.559 61.6633C297.361 61.2334 297.259 60.736 297.254 60.1716V59.7401C297.254 59.1648 297.353 58.6566 297.55 58.2156C297.748 57.7745 298.027 57.4375 298.387 57.2047C298.749 56.9691 299.163 56.8513 299.629 56.8513C300.105 56.8513 300.523 56.9677 300.883 57.2006C301.246 57.4335 301.525 57.769 301.72 58.2074C301.915 58.6429 302.012 59.1525 302.012 59.736V60.1182ZM301.233 59.7319C301.233 59.0278 301.094 58.4854 300.815 58.1046C300.538 57.7211 300.143 57.5293 299.629 57.5293C299.139 57.5293 298.752 57.7197 298.468 58.1005C298.186 58.4786 298.042 59.0046 298.034 59.6785V60.1182C298.034 60.803 298.175 61.3429 298.456 61.7372C298.74 62.1315 299.134 62.3287 299.637 62.3287C300.14 62.3287 300.531 62.1442 300.807 61.7745C301.082 61.4018 301.225 60.8688 301.233 60.1757V59.7319ZM302.938 61.3098C302.938 61.0222 303.017 60.7579 303.173 60.5168C303.333 60.2757 303.636 59.9949 304.083 59.6744C303.82 59.3511 303.644 59.0908 303.555 58.8936C303.466 58.6964 303.421 58.5005 303.421 58.306C303.421 57.8512 303.554 57.4951 303.819 57.2375C304.084 56.98 304.444 56.8513 304.899 56.8513C305.305 56.8513 305.641 56.9718 305.905 57.2129C306.171 57.4512 306.303 57.7526 306.303 58.1169C306.303 58.3581 306.243 58.5813 306.121 58.7868C306.002 58.9895 305.792 59.2032 305.492 59.4278L305.057 59.7524L306.373 61.3429C306.557 60.9866 306.648 60.5908 306.648 60.1551H307.327C307.327 60.8538 307.16 61.433 306.827 61.8935L307.672 62.9166H306.771L306.376 62.4441C306.176 62.6251 305.941 62.7633 305.67 62.8589C305.402 62.9521 305.129 62.999 304.85 62.999C304.273 62.999 303.811 62.8439 303.462 62.5343C303.112 62.2247 302.938 61.8165 302.938 61.3098ZM304.85 62.378C305.248 62.378 305.612 62.2247 305.942 61.9181L304.501 60.1716L304.367 60.2703C303.915 60.6072 303.689 60.9537 303.689 61.3098C303.689 61.6332 303.792 61.8923 303.998 62.0865C304.206 62.2812 304.49 62.378 304.85 62.378ZM304.172 58.2814C304.172 58.5443 304.332 58.873 304.651 59.2676L305.13 58.9265C305.315 58.795 305.44 58.6703 305.508 58.5525C305.576 58.432 305.609 58.2868 305.609 58.1169C305.609 57.9334 305.542 57.7814 305.407 57.6608C305.271 57.5376 305.101 57.4759 304.895 57.4759C304.673 57.4759 304.497 57.5526 304.367 57.706C304.237 57.8567 304.172 58.0485 304.172 58.2814ZM311.65 61.3549H309.174L308.618 62.9166H307.814L310.071 56.9335H310.754L313.015 62.9166H312.215L311.65 61.3549ZM309.41 60.7058H311.419L310.412 57.9074L309.41 60.7058Z" fill="#72808A"/>
<path d="M327.048 27H194.952C193.322 27 192 28.0745 192 29.4V45.6C192 46.9255 193.322 48 194.952 48H327.048C328.678 48 330 46.9255 330 45.6V29.4C330 28.0745 328.678 27 327.048 27Z" fill="white"/>
<path fill-rule="evenodd" clip-rule="evenodd" d="M315 36.019C315 34.0764 316.556 32.5017 318.475 32.5017C320.394 32.5017 321.95 34.0764 321.95 36.019C321.95 36.8055 321.695 37.5317 321.264 38.1175L324.116 41.0029C324.315 41.2032 324.315 41.528 324.116 41.7283C323.919 41.9284 323.598 41.9284 323.4 41.7283L320.547 38.8426C319.969 39.2784 319.252 39.5363 318.475 39.5363C316.556 39.5363 315 37.9616 315 36.019ZM318.475 38.5983C317.07 38.5983 315.926 37.4412 315.926 36.019C315.926 34.5968 317.07 33.4397 318.475 33.4397C319.88 33.4397 321.023 34.5968 321.023 36.019C321.023 37.4412 319.88 38.5983 318.475 38.5983Z" fill="#72808A"/>
<path d="M199.727 36.9105C199.614 36.8913 199.49 36.8817 199.358 36.8817C198.865 36.8817 198.531 37.094 198.355 37.5186V40.6746H197.604V36.2283H198.335L198.347 36.742C198.593 36.3447 198.942 36.1461 199.394 36.1461C199.54 36.1461 199.651 36.1653 199.727 36.2037V36.9105ZM202.971 40.6746C202.928 40.5869 202.893 40.4308 202.866 40.2061C202.516 40.5732 202.1 40.7568 201.615 40.7568C201.182 40.7568 200.826 40.6335 200.547 40.3869C200.271 40.1376 200.133 39.8226 200.133 39.4418C200.133 38.9788 200.306 38.6199 200.653 38.3651C201.002 38.1076 201.492 37.9789 202.123 37.9789H202.853V37.6296C202.853 37.3638 202.775 37.1529 202.618 36.9967C202.461 36.8379 202.229 36.7584 201.924 36.7584C201.656 36.7584 201.431 36.8269 201.25 36.9638C201.068 37.1008 200.978 37.2666 200.978 37.4611H200.223C200.223 37.2392 200.3 37.0255 200.454 36.8201C200.611 36.6118 200.822 36.4475 201.087 36.3269C201.355 36.2064 201.649 36.1461 201.968 36.1461C202.474 36.1461 202.871 36.2749 203.158 36.5324C203.445 36.7872 203.594 37.1392 203.604 37.5885V39.6349C203.604 40.0431 203.656 40.3678 203.759 40.6088V40.6746H202.971ZM201.725 40.0951C201.96 40.0951 202.183 40.0335 202.395 39.9102C202.606 39.7869 202.759 39.6267 202.853 39.4295V38.5172H202.265C201.344 38.5172 200.884 38.7898 200.884 39.335C200.884 39.5733 200.963 39.7596 201.12 39.8938C201.277 40.0281 201.478 40.0951 201.725 40.0951ZM208.671 39.6267L209.516 36.2283H210.267L208.988 40.6746H208.379L207.311 37.3049L206.272 40.6746H205.663L204.388 36.2283H205.135L206 39.5568L207.023 36.2283H207.628L208.671 39.6267ZM213.466 40.6746V36.816H212.772V36.2283H213.466V35.7722C213.466 35.2955 213.592 34.927 213.844 34.6668C214.095 34.4065 214.451 34.2764 214.911 34.2764C215.084 34.2764 215.256 34.2997 215.427 34.3463L215.386 34.9626C215.259 34.938 215.124 34.9257 214.98 34.9257C214.737 34.9257 214.549 34.9983 214.416 35.1434C214.283 35.2859 214.217 35.4914 214.217 35.7598V36.2283H215.155V36.816H214.217V40.6746H213.466ZM215.788 38.4104C215.788 37.9748 215.872 37.583 216.04 37.2351C216.21 36.8871 216.446 36.6187 216.746 36.4297C217.049 36.2406 217.395 36.1461 217.782 36.1461C218.38 36.1461 218.863 36.3557 219.231 36.7749C219.602 37.194 219.787 37.7515 219.787 38.4473V38.5008C219.787 38.9336 219.705 39.3226 219.54 39.6678C219.377 40.0103 219.143 40.2773 218.837 40.4691C218.534 40.6609 218.185 40.7568 217.79 40.7568C217.194 40.7568 216.711 40.5472 216.34 40.128C215.972 39.7089 215.788 39.1541 215.788 38.4638V38.4104ZM216.543 38.5008C216.543 38.9939 216.656 39.3897 216.88 39.6884C217.108 39.9869 217.411 40.1363 217.79 40.1363C218.171 40.1363 218.474 39.9856 218.699 39.6842C218.924 39.3802 219.036 38.9555 219.036 38.4104C219.036 37.9227 218.921 37.5282 218.691 37.2268C218.464 36.9228 218.161 36.7708 217.782 36.7708C217.411 36.7708 217.112 36.92 216.884 37.2187C216.657 37.5172 216.543 37.9447 216.543 38.5008ZM220.53 38.4104C220.53 37.9748 220.614 37.583 220.782 37.2351C220.952 36.8871 221.188 36.6187 221.488 36.4297C221.791 36.2406 222.137 36.1461 222.524 36.1461C223.122 36.1461 223.605 36.3557 223.973 36.7749C224.344 37.194 224.529 37.7515 224.529 38.4473V38.5008C224.529 38.9336 224.447 39.3226 224.282 39.6678C224.119 40.0103 223.885 40.2773 223.579 40.4691C223.276 40.6609 222.927 40.7568 222.532 40.7568C221.936 40.7568 221.453 40.5472 221.082 40.128C220.714 39.7089 220.53 39.1541 220.53 38.4638V38.4104ZM221.285 38.5008C221.285 38.9939 221.398 39.3897 221.622 39.6884C221.85 39.9869 222.153 40.1363 222.532 40.1363C222.913 40.1363 223.216 39.9856 223.441 39.6842C223.666 39.3802 223.778 38.9555 223.778 38.4104C223.778 37.9227 223.663 37.5282 223.433 37.2268C223.206 36.9228 222.902 36.7708 222.524 36.7708C222.153 36.7708 221.854 36.92 221.626 37.2187C221.399 37.5172 221.285 37.9447 221.285 38.5008ZM225.288 38.4144C225.288 37.7323 225.448 37.1844 225.767 36.7708C226.087 36.3544 226.505 36.1461 227.022 36.1461C227.536 36.1461 227.944 36.3242 228.244 36.6804V34.3627H228.995V40.6746H228.305L228.268 40.1979C227.968 40.5705 227.55 40.7568 227.014 40.7568C226.505 40.7568 226.089 40.5458 225.767 40.1239C225.448 39.7021 225.288 39.1514 225.288 38.472V38.4144ZM226.039 38.5008C226.039 39.0048 226.142 39.3993 226.348 39.6842C226.554 39.9691 226.838 40.1116 227.201 40.1116C227.677 40.1116 228.025 39.8952 228.244 39.4623V37.42C228.019 37.0009 227.674 36.7913 227.209 36.7913C226.841 36.7913 226.554 36.9351 226.348 37.2228C226.142 37.5104 226.039 37.9364 226.039 38.5008Z" fill="#333333"/>
<path fill-rule="evenodd" clip-rule="evenodd" d="M217.822 81.5518C217.166 81.5518 216.634 82.0898 216.634 82.754V85.1585C216.634 85.8228 217.166 86.3608 217.822 86.3608H292.654C293.31 86.3608 293.842 85.8228 293.842 85.1585V82.754C293.842 82.0898 293.31 81.5518 292.654 81.5518H217.822ZM217.822 89.3665C217.166 89.3665 216.634 89.9045 216.634 90.5687V92.9733C216.634 93.6375 217.166 94.1755 217.822 94.1755H281.37C282.026 94.1755 282.558 93.6375 282.558 92.9733V90.5687C282.558 89.9045 282.026 89.3665 281.37 89.3665H217.822Z" fill="#E0E7EC"/>
<path d="M208.32 78.5459H195.254C193.942 78.5459 192.878 79.6224 192.878 80.9504V94.1753C192.878 95.5033 193.942 96.5799 195.254 96.5799H208.32C209.632 96.5799 210.695 95.5033 210.695 94.1753V80.9504C210.695 79.6224 209.632 78.5459 208.32 78.5459Z" fill="#E0E7EC"/>
<path d="M234.451 101.99H223.761C222.449 101.99 221.385 103.067 221.385 104.395C221.385 105.722 222.449 106.799 223.761 106.799H234.451C235.763 106.799 236.827 105.722 236.827 104.395C236.827 103.067 235.763 101.99 234.451 101.99Z" fill="#E0E7EC"/>
<path d="M234.451 177.733H223.761C222.449 177.733 221.385 178.809 221.385 180.137C221.385 181.465 222.449 182.542 223.761 182.542H234.451C235.763 182.542 236.827 181.465 236.827 180.137C236.827 178.809 235.763 177.733 234.451 177.733Z" fill="#E0E7EC"/>
<path d="M234.451 254.677H223.761C222.449 254.677 221.385 255.754 221.385 257.082C221.385 258.41 222.449 259.487 223.761 259.487H234.451C235.763 259.487 236.827 258.41 236.827 257.082C236.827 255.754 235.763 254.677 234.451 254.677Z" fill="#E0E7EC"/>
<path d="M234.451 139.861H223.761C222.449 139.861 221.385 140.938 221.385 142.266C221.385 143.594 222.449 144.67 223.761 144.67H234.451C235.763 144.67 236.827 143.594 236.827 142.266C236.827 140.938 235.763 139.861 234.451 139.861Z" fill="#E0E7EC"/>
<path d="M234.451 215.604H223.761C222.449 215.604 221.385 216.681 221.385 218.009C221.385 219.337 222.449 220.413 223.761 220.413H234.451C235.763 220.413 236.827 219.337 236.827 218.009C236.827 216.681 235.763 215.604 234.451 215.604Z" fill="#E0E7EC"/>
<path d="M268.304 101.99H246.923C245.611 101.99 244.548 103.067 244.548 104.395C244.548 105.722 245.611 106.799 246.923 106.799H268.304C269.616 106.799 270.68 105.722 270.68 104.395C270.68 103.067 269.616 101.99 268.304 101.99Z" fill="#E0E7EC"/>
<path d="M268.304 177.733H246.923C245.611 177.733 244.548 178.809 244.548 180.137C244.548 181.465 245.611 182.542 246.923 182.542H268.304C269.616 182.542 270.68 181.465 270.68 180.137C270.68 178.809 269.616 177.733 268.304 177.733Z" fill="#E0E7EC"/>
<path d="M268.304 254.677H246.923C245.611 254.677 244.548 255.754 244.548 257.082C244.548 258.41 245.611 259.487 246.923 259.487H268.304C269.616 259.487 270.68 258.41 270.68 257.082C270.68 255.754 269.616 254.677 268.304 254.677Z" fill="#E0E7EC"/>
<path d="M268.304 139.861H246.923C245.611 139.861 244.548 140.938 244.548 142.266C244.548 143.594 245.611 144.67 246.923 144.67H268.304C269.616 144.67 270.68 143.594 270.68 142.266C270.68 140.938 269.616 139.861 268.304 139.861Z" fill="#E0E7EC"/>
<path d="M268.304 215.604H246.923C245.611 215.604 244.548 216.681 244.548 218.009C244.548 219.337 245.611 220.413 246.923 220.413H268.304C269.616 220.413 270.68 219.337 270.68 218.009C270.68 216.681 269.616 215.604 268.304 215.604Z" fill="#E0E7EC"/>
<path fill-rule="evenodd" clip-rule="evenodd" d="M217.822 159.098C217.166 159.098 216.634 159.636 216.634 160.3V162.704C216.634 163.369 217.166 163.907 217.822 163.907H292.654C293.31 163.907 293.842 163.369 293.842 162.704V160.3C293.842 159.636 293.31 159.098 292.654 159.098H217.822ZM217.822 166.912C217.166 166.912 216.634 167.45 216.634 168.115V170.519C216.634 171.183 217.166 171.721 217.822 171.721H281.37C282.026 171.721 282.558 171.183 282.558 170.519V168.115C282.558 167.45 282.026 166.912 281.37 166.912H217.822Z" fill="#E0E7EC"/>
<path d="M208.32 156.092H195.254C193.942 156.092 192.878 157.169 192.878 158.497V171.721C192.878 173.049 193.942 174.126 195.254 174.126H208.32C209.632 174.126 210.695 173.049 210.695 171.721V158.497C210.695 157.169 209.632 156.092 208.32 156.092Z" fill="#E0E7EC"/>
<path fill-rule="evenodd" clip-rule="evenodd" d="M217.822 236.042C217.166 236.042 216.634 236.58 216.634 237.245V239.649C216.634 240.314 217.166 240.852 217.822 240.852H292.654C293.31 240.852 293.842 240.314 293.842 239.649V237.245C293.842 236.58 293.31 236.042 292.654 236.042H217.822ZM217.822 243.857C217.166 243.857 216.634 244.395 216.634 245.059V247.464C216.634 248.128 217.166 248.666 217.822 248.666H281.37C282.026 248.666 282.558 248.128 282.558 247.464V245.059C282.558 244.395 282.026 243.857 281.37 243.857H217.822Z" fill="#E0E7EC"/>
<path d="M208.32 233.037H195.254C193.942 233.037 192.878 234.113 192.878 235.441V248.666C192.878 249.994 193.942 251.071 195.254 251.071H208.32C209.632 251.071 210.695 249.994 210.695 248.666V235.441C210.695 234.113 209.632 233.037 208.32 233.037Z" fill="#E0E7EC"/>
<path fill-rule="evenodd" clip-rule="evenodd" d="M217.822 120.024C217.166 120.024 216.634 120.562 216.634 121.226V123.631C216.634 124.295 217.166 124.833 217.822 124.833H280.776C281.432 124.833 281.964 124.295 281.964 123.631V121.226C281.964 120.562 281.432 120.024 280.776 120.024H217.822ZM217.822 127.839C217.166 127.839 216.634 128.377 216.634 129.041V131.446C216.634 132.11 217.166 132.648 217.822 132.648H286.715C287.371 132.648 287.903 132.11 287.903 131.446V129.041C287.903 128.377 287.371 127.839 286.715 127.839H217.822Z" fill="#E0E7EC"/>
<path d="M208.32 117.018H195.254C193.942 117.018 192.878 118.095 192.878 119.423V132.648C192.878 133.976 193.942 135.052 195.254 135.052H208.32C209.632 135.052 210.695 133.976 210.695 132.648V119.423C210.695 118.095 209.632 117.018 208.32 117.018Z" fill="#E0E7EC"/>
<path fill-rule="evenodd" clip-rule="evenodd" d="M217.822 197.57C217.166 197.57 216.634 198.108 216.634 198.772V201.177C216.634 201.841 217.166 202.379 217.822 202.379H280.776C281.432 202.379 281.964 201.841 281.964 201.177V198.772C281.964 198.108 281.432 197.57 280.776 197.57H217.822ZM217.822 205.385C217.166 205.385 216.634 205.923 216.634 206.587V208.992C216.634 209.656 217.166 210.194 217.822 210.194H286.715C287.371 210.194 287.903 209.656 287.903 208.992V206.587C287.903 205.923 287.371 205.385 286.715 205.385H217.822Z" fill="#E0E7EC"/>
<path d="M208.32 194.564H195.254C193.942 194.564 192.878 195.641 192.878 196.969V210.194C192.878 211.522 193.942 212.598 195.254 212.598H208.32C209.632 212.598 210.695 211.522 210.695 210.194V196.969C210.695 195.641 209.632 194.564 208.32 194.564Z" fill="#E0E7EC"/>
<path d="M219.296 105.355H218.378L218.099 106.799H217.602L217.88 105.355H217.048V104.873H217.971L218.211 103.626H217.313V103.136H218.305L218.59 101.671H219.088L218.802 103.136H219.721L220.006 101.671H220.507L220.222 103.136H220.932V103.626H220.128L219.888 104.873H220.671V105.355H219.798L219.519 106.799H219.018L219.296 105.355ZM218.468 104.873H219.387L219.627 103.626H218.708L218.468 104.873Z" fill="#72808A"/>
<path d="M219.296 181.098H218.378L218.099 182.542H217.602L217.88 181.098H217.048V180.615H217.971L218.211 179.368H217.313V178.879H218.305L218.59 177.414H219.088L218.802 178.879H219.721L220.006 177.414H220.507L220.222 178.879H220.932V179.368H220.128L219.888 180.615H220.671V181.098H219.798L219.519 182.542H219.018L219.296 181.098ZM218.468 180.615H219.387L219.627 179.368H218.708L218.468 180.615Z" fill="#72808A"/>
<path d="M219.296 258.043H218.378L218.099 259.487H217.602L217.88 258.043H217.048V257.56H217.971L218.211 256.313H217.313V255.823H218.305L218.59 254.358H219.088L218.802 255.823H219.721L220.006 254.358H220.507L220.222 255.823H220.932V256.313H220.128L219.888 257.56H220.671V258.043H219.798L219.519 259.487H219.018L219.296 258.043ZM218.468 257.56H219.387L219.627 256.313H218.708L218.468 257.56Z" fill="#72808A"/>
<path d="M219.296 143.227H218.378L218.099 144.671H217.602L217.88 143.227H217.048V142.744H217.971L218.211 141.497H217.313V141.007H218.305L218.59 139.542H219.088L218.802 141.007H219.721L220.006 139.542H220.507L220.222 141.007H220.932V141.497H220.128L219.888 142.744H220.671V143.227H219.798L219.519 144.671H219.018L219.296 143.227ZM218.468 142.744H219.387L219.627 141.497H218.708L218.468 142.744Z" fill="#72808A"/>
<path d="M219.296 218.969H218.378L218.099 220.413H217.602L217.88 218.969H217.048V218.487H217.971L218.211 217.24H217.313V216.75H218.305L218.59 215.285H219.088L218.802 216.75H219.721L220.006 215.285H220.507L220.222 216.75H220.932V217.24H220.128L219.888 218.487H220.671V218.969H219.798L219.519 220.413H219.018L219.296 218.969ZM218.468 218.487H219.387L219.627 217.24H218.708L218.468 218.487Z" fill="#72808A"/>
<path d="M242.458 105.355H241.54L241.262 106.799H240.764L241.043 105.355H240.211V104.873H241.133L241.373 103.626H240.475V103.136H241.467L241.752 101.671H242.25L241.964 103.136H242.883L243.169 101.671H243.669L243.384 103.136H244.094V103.626H243.291L243.051 104.873H243.833V105.355H242.96L242.681 106.799H242.18L242.458 105.355ZM241.631 104.873H242.549L242.789 103.626H241.87L241.631 104.873Z" fill="#72808A"/>
<path d="M242.458 181.098H241.54L241.262 182.542H240.764L241.043 181.098H240.211V180.615H241.133L241.373 179.368H240.475V178.879H241.467L241.752 177.414H242.25L241.964 178.879H242.883L243.169 177.414H243.669L243.384 178.879H244.094V179.368H243.291L243.051 180.615H243.833V181.098H242.96L242.681 182.542H242.18L242.458 181.098ZM241.631 180.615H242.549L242.789 179.368H241.87L241.631 180.615Z" fill="#72808A"/>
<path d="M242.458 258.043H241.54L241.262 259.487H240.764L241.043 258.043H240.211V257.56H241.133L241.373 256.313H240.475V255.823H241.467L241.752 254.358H242.25L241.964 255.823H242.883L243.169 254.358H243.669L243.384 255.823H244.094V256.313H243.291L243.051 257.56H243.833V258.043H242.96L242.681 259.487H242.18L242.458 258.043ZM241.631 257.56H242.549L242.789 256.313H241.87L241.631 257.56Z" fill="#72808A"/>
<path d="M242.458 143.227H241.54L241.262 144.671H240.764L241.043 143.227H240.211V142.744H241.133L241.373 141.497H240.475V141.007H241.467L241.752 139.542H242.25L241.964 141.007H242.883L243.169 139.542H243.669L243.384 141.007H244.094V141.497H243.291L243.051 142.744H243.833V143.227H242.96L242.681 144.671H242.18L242.458 143.227ZM241.631 142.744H242.549L242.789 141.497H241.87L241.631 142.744Z" fill="#72808A"/>
<path d="M242.458 218.969H241.54L241.262 220.413H240.764L241.043 218.969H240.211V218.487H241.133L241.373 217.24H240.475V216.75H241.467L241.752 215.285H242.25L241.964 216.75H242.883L243.169 215.285H243.669L243.384 216.75H244.094V217.24H243.291L243.051 218.487H243.833V218.969H242.96L242.681 220.413H242.18L242.458 218.969ZM241.631 218.487H242.549L242.789 217.24H241.87L241.631 218.487Z" fill="#72808A"/>
</svg>
