<svg width="164" height="270" viewBox="0 0 164 270" fill="none" xmlns="http://www.w3.org/2000/svg">
<g clip-path="url(#clip0)">
<path fill-rule="evenodd" clip-rule="evenodd" d="M3.82215 0C1.71123 0 0 3.19913 0 7.14545V516.855C0 520.801 1.71123 524 3.82215 524H160.178C162.289 524 164 520.801 164 516.855V7.14544C164 3.19913 162.289 0 160.178 0H3.82215Z" fill="#F3F5F8"/>
<path fill-rule="evenodd" clip-rule="evenodd" d="M9.34545 7.14502C8.29229 7.14502 7.43848 7.96515 7.43848 8.97681V9.60034C7.43848 10.612 8.29229 11.4321 9.34545 11.4321H9.99465C11.0479 11.4321 11.9016 10.612 11.9016 9.60034V8.97675C11.9016 7.96515 11.0479 7.14502 9.99465 7.14502H9.34545ZM72.5731 7.14502C71.5198 7.14502 70.6661 7.96515 70.6661 8.97681V9.60034C70.6661 10.612 71.5198 11.4321 72.5731 11.4321H91.0752C92.1279 11.4321 92.9822 10.612 92.9822 9.60034V8.97675C92.9822 7.96515 92.1279 7.14502 91.0752 7.14502H72.5731ZM145.471 7.14502C144.418 7.14502 143.564 7.96515 143.564 8.97681V9.60034C143.564 10.612 144.418 11.4321 145.471 11.4321H154.303C155.356 11.4321 156.21 10.612 156.21 9.60034V8.97675C156.21 7.96515 155.356 7.14502 154.303 7.14502H145.471ZM127.943 8.97681C127.943 7.96515 128.797 7.14502 129.85 7.14502H138.682C139.735 7.14502 140.589 7.96515 140.589 8.97675V9.60034C140.589 10.612 139.735 11.4321 138.682 11.4321H129.85C128.797 11.4321 127.943 10.612 127.943 9.60034V8.97681ZM14.1332 8.97681C14.1332 7.96515 14.987 7.14502 16.0401 7.14502H16.6893C17.7426 7.14502 18.5963 7.96515 18.5963 8.97675V9.60034C18.5963 10.612 17.7426 11.4321 16.6893 11.4321H16.0401C14.987 11.4321 14.1332 10.612 14.1332 9.60034V8.97681ZM22.7349 7.14502C21.6817 7.14502 20.8279 7.96515 20.8279 8.97681V9.60034C20.8279 10.612 21.6817 11.4321 22.7349 11.4321H23.384C24.4373 11.4321 25.291 10.612 25.291 9.60034V8.97675C25.291 7.96515 24.4373 7.14502 23.384 7.14502H22.7349Z" fill="#C7D3DC"/>
<path d="M148.963 25H13.0374C11.3599 25 10 26.0745 10 27.4V43.6C10 44.9255 11.3599 46 13.0374 46H148.963C150.64 46 152 44.9255 152 43.6V27.4C152 26.0745 150.64 25 148.963 25Z" fill="white"/>
<path fill-rule="evenodd" clip-rule="evenodd" d="M136 34.3482C136 32.3751 137.665 30.7756 139.719 30.7756C141.774 30.7756 143.438 32.3751 143.438 34.3482C143.438 35.1471 143.166 35.8847 142.704 36.4797L145.757 39.4104C145.97 39.6138 145.97 39.9438 145.757 40.1472C145.546 40.3505 145.202 40.3505 144.991 40.1472L141.937 37.2162C141.318 37.6588 140.551 37.9207 139.719 37.9207C137.665 37.9207 136 36.3213 136 34.3482ZM139.719 36.9681C138.215 36.9681 136.992 35.7928 136.992 34.3482C136.992 32.9036 138.215 31.7283 139.719 31.7283C141.223 31.7283 142.447 32.9036 142.447 34.3482C142.447 35.7928 141.223 36.9681 139.719 36.9681Z" fill="#72808A"/>
<path d="M16.7071 60.3468L18.5148 55.3339H19.4273L17.0808 61.4111H16.3421L14 55.3339H14.9082L16.7071 60.3468ZM21.0264 61.4111H20.2225V56.8949H21.0264V61.4111ZM20.1573 55.697C20.1573 55.5718 20.1965 55.4661 20.2747 55.3798C20.3558 55.2936 20.4746 55.2505 20.6309 55.2505C20.7874 55.2505 20.9062 55.2936 20.9873 55.3798C21.0684 55.4661 21.109 55.5718 21.109 55.697C21.109 55.8223 21.0684 55.9266 20.9873 56.0101C20.9062 56.0935 20.7874 56.1353 20.6309 56.1353C20.4746 56.1353 20.3558 56.0935 20.2747 56.0101C20.1965 55.9266 20.1573 55.8223 20.1573 55.697ZM22.1214 59.1154C22.1214 58.4226 22.2924 57.8661 22.6342 57.4459C22.976 57.023 23.4236 56.8115 23.9769 56.8115C24.5273 56.8115 24.9633 56.9923 25.2848 57.3541V55H26.0887V61.4111H25.35L25.3109 60.9269C24.9893 61.3054 24.5418 61.4947 23.9681 61.4947C23.4236 61.4947 22.9789 61.2804 22.6342 60.8518C22.2924 60.4232 22.1214 59.8639 22.1214 59.1739V59.1154ZM22.9253 59.2031C22.9253 59.7149 23.0354 60.116 23.2556 60.4054C23.4757 60.6943 23.7799 60.839 24.1681 60.839C24.6779 60.839 25.0502 60.6192 25.2848 60.1795V58.1053C25.0444 57.6796 24.675 57.4667 24.1768 57.4667C23.7828 57.4667 23.4757 57.6128 23.2556 57.905C23.0354 58.1972 22.9253 58.6299 22.9253 59.2031ZM29.2912 61.4947C28.6539 61.4947 28.1353 61.2945 27.7356 60.8933C27.3358 60.4903 27.1359 59.9518 27.1359 59.2782V59.1363C27.1359 58.6883 27.2242 58.289 27.401 57.9384C27.5806 57.585 27.8297 57.3096 28.1484 57.112C28.4699 56.9117 28.8176 56.8115 29.1912 56.8115C29.8025 56.8115 30.2776 57.0048 30.6165 57.3916C30.9554 57.7784 31.1249 58.3322 31.1249 59.0528V59.3742H27.9398C27.9514 59.8193 28.0861 60.1795 28.3439 60.4555C28.6046 60.7278 28.9349 60.864 29.3346 60.864C29.6185 60.864 29.859 60.8084 30.056 60.6973C30.253 60.5862 30.4253 60.4384 30.5731 60.2546L31.0641 60.6222C30.6701 61.2035 30.0792 61.4947 29.2912 61.4947ZM29.1912 57.4459C28.8668 57.4459 28.5945 57.56 28.3743 57.7881C28.1541 58.0135 28.018 58.3308 27.9659 58.7398H30.321V58.6814C30.2978 58.289 30.1878 57.9857 29.9908 57.7715C29.7938 57.5544 29.5273 57.4459 29.1912 57.4459ZM31.8462 59.1113C31.8462 58.6688 31.9361 58.2709 32.1156 57.9175C32.2981 57.5641 32.5502 57.2914 32.8718 57.0995C33.1962 56.9074 33.5656 56.8115 33.9798 56.8115C34.62 56.8115 35.1371 57.0243 35.5311 57.4501C35.9279 57.8758 36.1264 58.4421 36.1264 59.1488V59.2031C36.1264 59.6428 36.038 60.0379 35.8613 60.3884C35.6875 60.7364 35.437 61.0075 35.1096 61.2023C34.7852 61.397 34.4114 61.4947 33.9885 61.4947C33.3512 61.4947 32.8341 61.2816 32.4372 60.8561C32.0432 60.4305 31.8462 59.8669 31.8462 59.1655V59.1113ZM32.6545 59.2031C32.6545 59.7039 32.7747 60.1063 33.0152 60.4091C33.2585 60.7126 33.5829 60.864 33.9885 60.864C34.397 60.864 34.7214 60.7113 34.9619 60.4054C35.2023 60.0965 35.3225 59.6648 35.3225 59.1113C35.3225 58.616 35.1994 58.2153 34.9532 57.9092C34.7098 57.6003 34.3854 57.4459 33.9798 57.4459C33.5829 57.4459 33.2628 57.5975 33.0195 57.9009C32.7762 58.2041 32.6545 58.6382 32.6545 59.2031Z" fill="#333333"/>
<path d="M18.1369 35.2536C18.0152 35.2341 17.8834 35.2244 17.7415 35.2244C17.2142 35.2244 16.8565 35.44 16.6682 35.8713V39.0769H15.8643V34.5607H16.6464L16.6595 35.0825C16.9231 34.679 17.2968 34.4773 17.7806 34.4773C17.937 34.4773 18.0558 34.4967 18.1369 34.5357V35.2536ZM21.6088 39.0769C21.5624 38.9879 21.5248 38.8292 21.4958 38.6011C21.1221 38.9739 20.676 39.1603 20.1574 39.1603C19.694 39.1603 19.313 39.0351 19.0146 38.7847C18.7191 38.5315 18.5714 38.2115 18.5714 37.8247C18.5714 37.3544 18.7568 36.9899 19.1276 36.7312C19.5013 36.4696 20.0257 36.3388 20.7006 36.3388H21.4828V35.9841C21.4828 35.7141 21.3987 35.4999 21.2307 35.3412C21.0627 35.1799 20.815 35.0992 20.4877 35.0992C20.2009 35.0992 19.9604 35.1687 19.7664 35.3078C19.5723 35.447 19.4752 35.6153 19.4752 35.8129H18.667C18.667 35.5875 18.7496 35.3705 18.9147 35.1618C19.0827 34.9503 19.3087 34.7834 19.5926 34.6609C19.8793 34.5385 20.1937 34.4773 20.5355 34.4773C21.0772 34.4773 21.5016 34.6081 21.8087 34.8696C22.1158 35.1284 22.2751 35.4859 22.2866 35.9423V38.0209C22.2866 38.4355 22.3417 38.7652 22.4518 39.0101V39.0769H21.6088ZM20.2748 38.4883C20.5268 38.4883 20.7658 38.4258 20.9917 38.3005C21.2177 38.1753 21.3814 38.0125 21.4828 37.8122V36.8856H20.8527C19.8678 36.8856 19.3753 37.1625 19.3753 37.7162C19.3753 37.9583 19.4593 38.1475 19.6274 38.2839C19.7954 38.4202 20.0112 38.4883 20.2748 38.4883ZM27.7096 38.0125L28.6135 34.5607H29.4173L28.0486 39.0769H27.3968L26.254 35.6543L25.1416 39.0769H24.4898L23.1253 34.5607H23.9249L24.8504 37.9416L25.9454 34.5607H26.5929L27.7096 38.0125ZM32.8414 39.0769V35.1576H32.0984V34.5607H32.8414V34.0974C32.8414 33.6133 32.9762 33.239 33.2456 32.9747C33.515 32.7103 33.8959 32.5781 34.3884 32.5781C34.5738 32.5781 34.7578 32.6018 34.9403 32.6491L34.8968 33.2752C34.7606 33.2501 34.6158 33.2376 34.4622 33.2376C34.2016 33.2376 34.0002 33.3114 33.8582 33.4588C33.7163 33.6035 33.6454 33.8122 33.6454 34.0849V34.5607H34.6491V35.1576H33.6454V39.0769H32.8414ZM35.327 36.7771C35.327 36.3346 35.4168 35.9367 35.5964 35.5833C35.7789 35.2299 36.0309 34.9572 36.3525 34.7653C36.6769 34.5733 37.0463 34.4773 37.4605 34.4773C38.1007 34.4773 38.6179 34.6901 39.0118 35.1159C39.4087 35.5416 39.6071 36.1079 39.6071 36.8146V36.8689C39.6071 37.3085 39.5188 37.7037 39.3421 38.0543C39.1683 38.4021 38.9177 38.6734 38.5903 38.8682C38.2659 39.063 37.8922 39.1603 37.4692 39.1603C36.8319 39.1603 36.3148 38.9475 35.918 38.5217C35.524 38.096 35.327 37.5325 35.327 36.8314V36.7771ZM36.1352 36.8689C36.1352 37.3698 36.2554 37.7718 36.4959 38.0752C36.7392 38.3784 37.0637 38.5301 37.4692 38.5301C37.8777 38.5301 38.2021 38.377 38.4426 38.0709C38.683 37.7621 38.8032 37.3308 38.8032 36.7771C38.8032 36.2818 38.6802 35.8811 38.4339 35.575C38.1906 35.2661 37.8661 35.1117 37.4605 35.1117C37.0637 35.1117 36.7436 35.2633 36.5002 35.5667C36.2569 35.8699 36.1352 36.3041 36.1352 36.8689ZM40.4023 36.7771C40.4023 36.3346 40.4921 35.9367 40.6717 35.5833C40.8542 35.2299 41.1063 34.9572 41.4279 34.7653C41.7523 34.5733 42.1216 34.4773 42.5359 34.4773C43.1761 34.4773 43.6932 34.6901 44.0871 35.1159C44.484 35.5416 44.6825 36.1079 44.6825 36.8146V36.8689C44.6825 37.3085 44.5941 37.7037 44.4174 38.0543C44.2436 38.4021 43.993 38.6734 43.6657 38.8682C43.3412 39.063 42.9675 39.1603 42.5446 39.1603C41.9073 39.1603 41.3902 38.9475 40.9933 38.5217C40.5993 38.096 40.4023 37.5325 40.4023 36.8314V36.7771ZM41.2106 36.8689C41.2106 37.3698 41.3308 37.7718 41.5712 38.0752C41.8145 38.3784 42.139 38.5301 42.5446 38.5301C42.9531 38.5301 43.2775 38.377 43.5179 38.0709C43.7584 37.7621 43.8786 37.3308 43.8786 36.7771C43.8786 36.2818 43.7554 35.8811 43.5093 35.575C43.2659 35.2661 42.9414 35.1117 42.5359 35.1117C42.139 35.1117 41.8189 35.2633 41.5756 35.5667C41.3322 35.8699 41.2106 36.3041 41.2106 36.8689ZM45.4951 36.7812C45.4951 36.0884 45.666 35.5319 46.0078 35.1117C46.3496 34.6888 46.7972 34.4773 47.3505 34.4773C47.9009 34.4773 48.3369 34.6581 48.6585 35.0199V32.6658H49.4623V39.0769H48.7236L48.6845 38.5927C48.363 38.9711 47.9154 39.1603 47.3418 39.1603C46.7972 39.1603 46.3525 38.9461 46.0078 38.5176C45.666 38.0891 45.4951 37.5297 45.4951 36.8397V36.7812ZM46.2989 36.8689C46.2989 37.3809 46.409 37.7816 46.6292 38.0709C46.8493 38.3604 47.1535 38.5051 47.5417 38.5051C48.0515 38.5051 48.4238 38.2853 48.6585 37.8456V35.7711C48.418 35.3454 48.0486 35.1325 47.5504 35.1325C47.1564 35.1325 46.8493 35.2787 46.6292 35.5708C46.409 35.863 46.2989 36.2957 46.2989 36.8689Z" fill="#333333"/>
<path fill-rule="evenodd" clip-rule="evenodd" d="M78 87.25C78 86.5594 78.3411 86 78.7619 86H149.238C149.659 86 150 86.5594 150 87.25V89.75C150 90.4406 149.659 91 149.238 91H78.7619C78.3411 91 78 90.4406 78 89.75V87.25Z" fill="#E0E7EC"/>
<path fill-rule="evenodd" clip-rule="evenodd" d="M78 98.25C78 97.5594 78.3411 97 78.7619 97H149.238C149.659 97 150 97.5594 150 98.25V100.75C150 101.441 149.659 102 149.238 102H78.7619C78.3411 102 78 101.441 78 100.75V98.25Z" fill="#E0E7EC"/>
<path fill-rule="evenodd" clip-rule="evenodd" d="M78 109.25C78 108.559 78.3411 108 78.7619 108H149.238C149.659 108 150 108.559 150 109.25V111.75C150 112.441 149.659 113 149.238 113H78.7619C78.3411 113 78 112.441 78 111.75V109.25Z" fill="#E0E7EC"/>
<path fill-rule="evenodd" clip-rule="evenodd" d="M78 120.25C78 119.559 78.2606 119 78.582 119H132.418C132.74 119 133 119.559 133 120.25V122.75C133 123.441 132.74 124 132.418 124H78.582C78.2606 124 78 123.441 78 122.75V120.25Z" fill="#E0E7EC"/>
<path d="M149.071 69H78.929C78.4159 69 78 69.5596 78 70.25V72.75C78 73.4404 78.4159 74 78.929 74H149.071C149.584 74 150 73.4404 150 72.75V70.25C150 69.5596 149.584 69 149.071 69Z" fill="#94A2AB"/>
<path d="M71.7423 69H13.2577C12.5631 69 12 69.985 12 71.2V121.8C12 123.015 12.5631 124 13.2577 124H71.7423C72.4369 124 73 123.015 73 121.8V71.2C73 69.985 72.4369 69 71.7423 69Z" fill="#E0E7EC"/>
<path fill-rule="evenodd" clip-rule="evenodd" d="M46.7145 95.9353C47.0952 96.1682 47.0952 96.8322 46.7145 97.0644L38.7473 101.932C38.4039 102.143 38 101.837 38 101.368V91.6322C38 91.1626 38.4039 90.8578 38.7473 91.0673L46.7145 95.9353Z" fill="white"/>
<path fill-rule="evenodd" clip-rule="evenodd" d="M78 175.25C78 174.559 78.3411 174 78.7619 174H149.238C149.659 174 150 174.559 150 175.25V177.75C150 178.441 149.659 179 149.238 179H78.7619C78.3411 179 78 178.441 78 177.75V175.25Z" fill="#E0E7EC"/>
<path fill-rule="evenodd" clip-rule="evenodd" d="M78 186.25C78 185.559 78.3411 185 78.7619 185H149.238C149.659 185 150 185.559 150 186.25V188.75C150 189.441 149.659 190 149.238 190H78.7619C78.3411 190 78 189.441 78 188.75V186.25Z" fill="#E0E7EC"/>
<path fill-rule="evenodd" clip-rule="evenodd" d="M78 197.25C78 196.559 78.3411 196 78.7619 196H149.238C149.659 196 150 196.559 150 197.25V199.75C150 200.441 149.659 201 149.238 201H78.7619C78.3411 201 78 200.441 78 199.75V197.25Z" fill="#E0E7EC"/>
<path fill-rule="evenodd" clip-rule="evenodd" d="M78 208.25C78 207.559 78.2606 207 78.582 207H132.418C132.74 207 133 207.559 133 208.25V210.75C133 211.441 132.74 212 132.418 212H78.582C78.2606 212 78 211.441 78 210.75V208.25Z" fill="#E0E7EC"/>
<path d="M149.071 157H78.929C78.4159 157 78 157.56 78 158.25V160.75C78 161.44 78.4159 162 78.929 162H149.071C149.584 162 150 161.44 150 160.75V158.25C150 157.56 149.584 157 149.071 157Z" fill="#94A2AB"/>
<path d="M71.7423 157H13.2577C12.5631 157 12 157.985 12 159.2V209.8C12 211.015 12.5631 212 13.2577 212H71.7423C72.4369 212 73 211.015 73 209.8V159.2C73 157.985 72.4369 157 71.7423 157Z" fill="#E0E7EC"/>
<path fill-rule="evenodd" clip-rule="evenodd" d="M46.7145 183.935C47.0952 184.168 47.0952 184.832 46.7145 185.064L38.7473 189.932C38.4039 190.143 38 189.837 38 189.368V179.632C38 179.163 38.4039 178.858 38.7473 179.067L46.7145 183.935Z" fill="white"/>
<path d="M149.071 269H78.929C78.4159 269 78 269.56 78 270.25V272.75C78 273.44 78.4159 274 78.929 274H149.071C149.584 274 150 273.44 150 272.75V270.25C150 269.56 149.584 269 149.071 269Z" fill="#94A2AB"/>
<path d="M71.7423 269H13.2577C12.5631 269 12 269.985 12 271.2V321.8C12 323.015 12.5631 324 13.2577 324H71.7423C72.4369 324 73 323.015 73 321.8V271.2C73 269.985 72.4369 269 71.7423 269Z" fill="#E0E7EC"/>
<path fill-rule="evenodd" clip-rule="evenodd" d="M37.7846 222C36.799 222 36 222.554 36 223.238V225.714C36 226.398 36.799 226.952 37.7846 226.952H150.215C151.201 226.952 152 226.398 152 225.714V223.238C152 222.554 151.201 222 150.215 222H37.7846ZM37.7846 230.048C36.799 230.048 36 230.602 36 231.286V233.762C36 234.446 36.799 235 37.7846 235H133.262C134.248 235 135.046 234.446 135.046 233.762V231.286C135.046 230.602 134.248 230.048 133.262 230.048H37.7846Z" fill="#E0E7EC"/>
<path fill-rule="evenodd" clip-rule="evenodd" d="M37.7846 136C36.799 136 36 136.554 36 137.238V139.714C36 140.398 36.799 140.952 37.7846 140.952H150.215C151.201 140.952 152 140.398 152 139.714V137.238C152 136.554 151.201 136 150.215 136H37.7846ZM37.7846 144.048C36.799 144.048 36 144.602 36 145.286V147.762C36 148.446 36.799 149 37.7846 149H133.262C134.248 149 135.046 148.446 135.046 147.762V145.286C135.046 144.602 134.248 144.048 133.262 144.048H37.7846Z" fill="#E0E7EC"/>
<path fill-rule="evenodd" clip-rule="evenodd" d="M37.7846 248C36.799 248 36 248.554 36 249.238V251.714C36 252.398 36.799 252.952 37.7846 252.952H150.215C151.201 252.952 152 252.398 152 251.714V249.238C152 248.554 151.201 248 150.215 248H37.7846ZM37.7846 256.048C36.799 256.048 36 256.602 36 257.286V259.762C36 260.446 36.799 261 37.7846 261H133.262C134.248 261 135.046 260.446 135.046 259.762V257.286C135.046 256.602 134.248 256.048 133.262 256.048H37.7846Z" fill="#E0E7EC"/>
<path d="M27.4415 219H14.3756C13.0636 219 12 220.077 12 221.405V234.629C12 235.957 13.0636 237.034 14.3756 237.034H27.4415C28.7536 237.034 29.8172 235.957 29.8172 234.629V221.405C29.8172 220.077 28.7536 219 27.4415 219Z" fill="#E0E7EC"/>
<path d="M27.4415 133H14.3756C13.0636 133 12 134.077 12 135.405V148.629C12 149.957 13.0636 151.034 14.3756 151.034H27.4415C28.7536 151.034 29.8172 149.957 29.8172 148.629V135.405C29.8172 134.077 28.7536 133 27.4415 133Z" fill="#E0E7EC"/>
<path d="M27.4415 245H14.3756C13.0636 245 12 246.077 12 247.405V260.629C12 261.957 13.0636 263.034 14.3756 263.034H27.4415C28.7536 263.034 29.8172 261.957 29.8172 260.629V247.405C29.8172 246.077 28.7536 245 27.4415 245Z" fill="#E0E7EC"/>
<path d="M137.273 61V55.3633H136.457L134.527 60.0273H134.465L132.535 55.3633H131.719V61H132.375V56.6953H132.422L134.199 60.9609H134.793L136.57 56.6953H136.617V61H137.273ZM140.355 61.0742C141.555 61.0742 142.297 60.2461 142.297 58.8945C142.297 57.5391 141.555 56.7148 140.355 56.7148C139.156 56.7148 138.414 57.5391 138.414 58.8945C138.414 60.2461 139.156 61.0742 140.355 61.0742ZM140.355 60.4688C139.559 60.4688 139.109 59.8906 139.109 58.8945C139.109 57.8945 139.559 57.3203 140.355 57.3203C141.152 57.3203 141.602 57.8945 141.602 58.8945C141.602 59.8906 141.152 60.4688 140.355 60.4688ZM143.352 61H144.023V58.3906C144.023 57.7969 144.488 57.3672 145.129 57.3672C145.262 57.3672 145.504 57.3906 145.559 57.4062V56.7344C145.473 56.7227 145.332 56.7148 145.223 56.7148C144.664 56.7148 144.18 57.0039 144.055 57.4141H143.992V56.7891H143.352V61ZM147.961 57.3086C148.629 57.3086 149.074 57.8008 149.09 58.5469H146.77C146.82 57.8008 147.289 57.3086 147.961 57.3086ZM149.07 59.9102C148.895 60.2812 148.527 60.4805 147.984 60.4805C147.27 60.4805 146.805 59.9531 146.77 59.1211V59.0898H149.797V58.832C149.797 57.5234 149.105 56.7148 147.969 56.7148C146.812 56.7148 146.07 57.5742 146.07 58.8984C146.07 60.2305 146.801 61.0742 147.969 61.0742C148.891 61.0742 149.539 60.6328 149.742 59.9102H149.07Z" fill="black"/>
</g>
<defs>
<clipPath id="clip0">
<rect width="164" height="270" fill="white"/>
</clipPath>
</defs>
</svg>
