<svg width="164" height="456" viewBox="0 0 164 456" fill="none" xmlns="http://www.w3.org/2000/svg">
<g clip-path="url(#clip0)">
<path fill-rule="evenodd" clip-rule="evenodd" d="M3.82215 0C1.71123 0 0 3.19913 0 7.14545V516.855C0 520.801 1.71123 524 3.82215 524H160.178C162.289 524 164 520.801 164 516.855V7.14544C164 3.19913 162.289 0 160.178 0H3.82215Z" fill="#F3F5F8"/>
<path fill-rule="evenodd" clip-rule="evenodd" d="M9.34545 7.14502C8.29229 7.14502 7.43848 7.96515 7.43848 8.97681V9.60034C7.43848 10.612 8.29229 11.4321 9.34545 11.4321H9.99465C11.0479 11.4321 11.9016 10.612 11.9016 9.60034V8.97675C11.9016 7.96515 11.0479 7.14502 9.99465 7.14502H9.34545ZM72.5731 7.14502C71.5198 7.14502 70.6661 7.96515 70.6661 8.97681V9.60034C70.6661 10.612 71.5198 11.4321 72.5731 11.4321H91.0752C92.1279 11.4321 92.9822 10.612 92.9822 9.60034V8.97675C92.9822 7.96515 92.1279 7.14502 91.0752 7.14502H72.5731ZM145.471 7.14502C144.418 7.14502 143.564 7.96515 143.564 8.97681V9.60034C143.564 10.612 144.418 11.4321 145.471 11.4321H154.303C155.356 11.4321 156.21 10.612 156.21 9.60034V8.97675C156.21 7.96515 155.356 7.14502 154.303 7.14502H145.471ZM127.943 8.97681C127.943 7.96515 128.797 7.14502 129.85 7.14502H138.682C139.735 7.14502 140.589 7.96515 140.589 8.97675V9.60034C140.589 10.612 139.735 11.4321 138.682 11.4321H129.85C128.797 11.4321 127.943 10.612 127.943 9.60034V8.97681ZM14.1332 8.97681C14.1332 7.96515 14.987 7.14502 16.0401 7.14502H16.6893C17.7426 7.14502 18.5963 7.96515 18.5963 8.97675V9.60034C18.5963 10.612 17.7426 11.4321 16.6893 11.4321H16.0401C14.987 11.4321 14.1332 10.612 14.1332 9.60034V8.97681ZM22.7349 7.14502C21.6817 7.14502 20.8279 7.96515 20.8279 8.97681V9.60034C20.8279 10.612 21.6817 11.4321 22.7349 11.4321H23.384C24.4373 11.4321 25.291 10.612 25.291 9.60034V8.97675C25.291 7.96515 24.4373 7.14502 23.384 7.14502H22.7349Z" fill="#C7D3DC"/>
<path d="M148.963 25H13.0374C11.3599 25 10 26.0745 10 27.4V43.6C10 44.9255 11.3599 46 13.0374 46H148.963C150.64 46 152 44.9255 152 43.6V27.4C152 26.0745 150.64 25 148.963 25Z" fill="white"/>
<path fill-rule="evenodd" clip-rule="evenodd" d="M136 34.3482C136 32.3751 137.665 30.7756 139.719 30.7756C141.774 30.7756 143.438 32.3751 143.438 34.3482C143.438 35.1471 143.166 35.8847 142.704 36.4797L145.757 39.4104C145.97 39.6138 145.97 39.9438 145.757 40.1472C145.546 40.3505 145.202 40.3505 144.991 40.1472L141.937 37.2162C141.318 37.6588 140.551 37.9207 139.719 37.9207C137.665 37.9207 136 36.3213 136 34.3482ZM139.719 36.9681C138.215 36.9681 136.992 35.7928 136.992 34.3482C136.992 32.9036 138.215 31.7283 139.719 31.7283C141.223 31.7283 142.447 32.9036 142.447 34.3482C142.447 35.7928 141.223 36.9681 139.719 36.9681Z" fill="#72808A"/>
<path d="M16.7071 60.3468L18.5148 55.3339H19.4273L17.0808 61.4111H16.3421L14 55.3339H14.9082L16.7071 60.3468ZM21.0264 61.4111H20.2225V56.8949H21.0264V61.4111ZM20.1573 55.697C20.1573 55.5718 20.1965 55.4661 20.2747 55.3798C20.3558 55.2936 20.4746 55.2505 20.6309 55.2505C20.7874 55.2505 20.9062 55.2936 20.9873 55.3798C21.0684 55.4661 21.109 55.5718 21.109 55.697C21.109 55.8223 21.0684 55.9266 20.9873 56.0101C20.9062 56.0935 20.7874 56.1353 20.6309 56.1353C20.4746 56.1353 20.3558 56.0935 20.2747 56.0101C20.1965 55.9266 20.1573 55.8223 20.1573 55.697ZM22.1214 59.1154C22.1214 58.4226 22.2924 57.8661 22.6342 57.4459C22.976 57.023 23.4236 56.8115 23.9769 56.8115C24.5273 56.8115 24.9633 56.9923 25.2848 57.3541V55H26.0887V61.4111H25.35L25.3109 60.9269C24.9893 61.3054 24.5418 61.4947 23.9681 61.4947C23.4236 61.4947 22.9789 61.2804 22.6342 60.8518C22.2924 60.4232 22.1214 59.8639 22.1214 59.1739V59.1154ZM22.9253 59.2031C22.9253 59.7149 23.0354 60.116 23.2556 60.4054C23.4757 60.6943 23.7799 60.839 24.1681 60.839C24.6779 60.839 25.0502 60.6192 25.2848 60.1795V58.1053C25.0444 57.6796 24.675 57.4667 24.1768 57.4667C23.7828 57.4667 23.4757 57.6128 23.2556 57.905C23.0354 58.1972 22.9253 58.6299 22.9253 59.2031ZM29.2912 61.4947C28.6539 61.4947 28.1353 61.2945 27.7356 60.8933C27.3358 60.4903 27.1359 59.9518 27.1359 59.2782V59.1363C27.1359 58.6883 27.2242 58.289 27.401 57.9384C27.5806 57.585 27.8297 57.3096 28.1484 57.112C28.4699 56.9117 28.8176 56.8115 29.1912 56.8115C29.8025 56.8115 30.2776 57.0048 30.6165 57.3916C30.9554 57.7784 31.1249 58.3322 31.1249 59.0528V59.3742H27.9398C27.9514 59.8193 28.0861 60.1795 28.3439 60.4555C28.6046 60.7278 28.9349 60.864 29.3346 60.864C29.6185 60.864 29.859 60.8084 30.056 60.6973C30.253 60.5862 30.4253 60.4384 30.5731 60.2546L31.0641 60.6222C30.6701 61.2035 30.0792 61.4947 29.2912 61.4947ZM29.1912 57.4459C28.8668 57.4459 28.5945 57.56 28.3743 57.7881C28.1541 58.0135 28.018 58.3308 27.9659 58.7398H30.321V58.6814C30.2978 58.289 30.1878 57.9857 29.9908 57.7715C29.7938 57.5544 29.5273 57.4459 29.1912 57.4459ZM31.8462 59.1113C31.8462 58.6688 31.9361 58.2709 32.1156 57.9175C32.2981 57.5641 32.5502 57.2914 32.8718 57.0995C33.1962 56.9074 33.5656 56.8115 33.9798 56.8115C34.62 56.8115 35.1371 57.0243 35.5311 57.4501C35.9279 57.8758 36.1264 58.4421 36.1264 59.1488V59.2031C36.1264 59.6428 36.038 60.0379 35.8613 60.3884C35.6875 60.7364 35.437 61.0075 35.1096 61.2023C34.7852 61.397 34.4114 61.4947 33.9885 61.4947C33.3512 61.4947 32.8341 61.2816 32.4372 60.8561C32.0432 60.4305 31.8462 59.8669 31.8462 59.1655V59.1113ZM32.6545 59.2031C32.6545 59.7039 32.7747 60.1063 33.0152 60.4091C33.2585 60.7126 33.5829 60.864 33.9885 60.864C34.397 60.864 34.7214 60.7113 34.9619 60.4054C35.2023 60.0965 35.3225 59.6648 35.3225 59.1113C35.3225 58.616 35.1994 58.2153 34.9532 57.9092C34.7098 57.6003 34.3854 57.4459 33.9798 57.4459C33.5829 57.4459 33.2628 57.5975 33.0195 57.9009C32.7762 58.2041 32.6545 58.6382 32.6545 59.2031Z" fill="#333333"/>
<path d="M16.1064 266.825H13.4557L12.8607 268.411H12L14.4161 262.334H15.1465L17.5665 268.411H16.7109L16.1064 266.825ZM13.708 266.166H15.8591L14.781 263.323L13.708 266.166ZM20.5649 264.588C20.4435 264.568 20.3112 264.559 20.1695 264.559C19.6425 264.559 19.2846 264.774 19.0959 265.206V268.411H18.2924V263.895H19.0742L19.0876 264.417C19.3514 264.013 19.7245 263.811 20.2083 263.811C20.3653 263.811 20.4835 263.831 20.5649 263.87V264.588ZM22.6161 262.801V263.895H23.4934V264.492H22.6161V267.292C22.6161 267.473 22.6549 267.61 22.7331 267.702C22.8113 267.791 22.9448 267.835 23.1329 267.835C23.2257 267.835 23.3529 267.818 23.5156 267.785V268.411C23.3039 268.467 23.098 268.495 22.8984 268.495C22.5392 268.495 22.2684 268.39 22.086 268.181C21.9036 267.973 21.812 267.677 21.812 267.292V264.492H20.9558V263.895H21.812V262.801H22.6161ZM25.3101 268.411H24.506V263.895H25.3101V268.411ZM24.4411 262.697C24.4411 262.572 24.4799 262.466 24.5581 262.38C24.6394 262.294 24.7583 262.25 24.9147 262.25C25.0711 262.25 25.1899 262.294 25.2706 262.38C25.352 262.466 25.3927 262.572 25.3927 262.697C25.3927 262.822 25.352 262.927 25.2706 263.01C25.1899 263.094 25.0711 263.135 24.9147 263.135C24.7583 263.135 24.6394 263.094 24.5581 263.01C24.4799 262.927 24.4411 262.822 24.4411 262.697ZM28.4865 267.864C28.7731 267.864 29.0236 267.781 29.2384 267.614C29.4527 267.447 29.5715 267.238 29.5944 266.988H30.3547C30.3407 267.247 30.2479 267.493 30.0769 267.727C29.9059 267.96 29.677 268.147 29.3904 268.286C29.1062 268.425 28.8049 268.495 28.4865 268.495C27.8463 268.495 27.3365 268.29 26.9571 267.881C26.5801 267.469 26.392 266.907 26.392 266.195V266.065C26.392 265.626 26.4759 265.235 26.6443 264.892C26.8121 264.55 27.0524 264.284 27.3652 264.095C27.6811 263.906 28.0536 263.811 28.482 263.811C29.0096 263.811 29.4469 263.963 29.7946 264.266C30.1449 264.57 30.3318 264.963 30.3547 265.448H29.5944C29.5715 265.155 29.4552 264.916 29.2467 264.73C29.0414 264.54 28.7865 264.446 28.482 264.446C28.0739 264.446 27.7567 264.588 27.5304 264.872C27.3073 265.153 27.1961 265.56 27.1961 266.095V266.241C27.1961 266.761 27.3073 267.162 27.5304 267.443C27.7535 267.724 28.072 267.864 28.4865 267.864ZM32.132 268.411H31.3285V262H32.132V268.411ZM35.3738 268.495C34.7363 268.495 34.2182 268.294 33.8184 267.893C33.4185 267.49 33.2183 266.952 33.2183 266.278V266.136C33.2183 265.688 33.3067 265.289 33.4834 264.938C33.6633 264.585 33.9124 264.31 34.2309 264.112C34.5525 263.912 34.9002 263.811 35.274 263.811C35.8849 263.811 36.3604 264.005 36.6992 264.392C37.038 264.778 37.2077 265.332 37.2077 266.053V266.374H34.0224C34.0338 266.819 34.1686 267.18 34.4267 267.456C34.6873 267.728 35.0172 267.864 35.417 267.864C35.7012 267.864 35.9415 267.808 36.1385 267.697C36.3356 267.586 36.5078 267.438 36.6559 267.255L37.1467 267.622C36.7526 268.203 36.1614 268.495 35.3738 268.495ZM35.274 264.446C34.9492 264.446 34.6771 264.56 34.4572 264.788C34.2366 265.014 34.1006 265.331 34.0485 265.74H36.4036V265.681C36.3807 265.289 36.2701 264.986 36.073 264.771C35.8766 264.554 35.6096 264.446 35.274 264.446Z" fill="#333333"/>
<path d="M19.0929 363.318C19.0929 363.905 18.9956 364.412 18.8018 364.837C18.6073 365.261 18.3352 365.592 17.985 365.831L19.1145 366.682L18.5456 367.188L17.2114 366.169C17.0029 366.219 16.7823 366.244 16.5509 366.244C16.0525 366.244 15.6108 366.127 15.2256 365.893C14.8403 365.657 14.5403 365.322 14.3261 364.888C14.1144 364.451 14.0057 363.946 14 363.372V362.934C14 362.35 14.1055 361.834 14.3172 361.386C14.5289 360.938 14.827 360.595 15.2122 360.359C15.6006 360.12 16.0437 360 16.542 360C17.0518 360 17.4993 360.118 17.8845 360.355C18.2729 360.591 18.5717 360.932 18.7802 361.377C18.9887 361.82 19.0929 362.337 19.0929 362.93V363.318ZM18.2583 362.926C18.2583 362.211 18.1095 361.66 17.8108 361.273C17.5152 360.883 17.0925 360.689 16.542 360.689C16.0176 360.689 15.6038 360.882 15.2993 361.269C14.998 361.653 14.8429 362.187 14.8346 362.872V363.318C14.8346 364.014 14.9853 364.562 15.2866 364.963C15.5904 365.363 16.0119 365.563 16.5509 365.563C17.0893 365.563 17.5069 365.376 17.8025 365.001C18.0975 364.622 18.25 364.081 18.2583 363.377V362.926ZM20.0833 364.529C20.0833 364.236 20.1678 363.968 20.3356 363.723C20.5066 363.478 20.8308 363.193 21.3088 362.867C21.0279 362.539 20.8397 362.275 20.7437 362.074C20.6484 361.874 20.6007 361.675 20.6007 361.478C20.6007 361.016 20.7424 360.654 21.0266 360.392C21.3101 360.131 21.6959 360 22.1822 360C22.617 360 22.9761 360.122 23.2597 360.367C23.5438 360.609 23.6855 360.915 23.6855 361.286C23.6855 361.53 23.6207 361.757 23.4904 361.966C23.3626 362.172 23.1382 362.389 22.8166 362.617L22.3519 362.947L23.7599 364.562C23.957 364.2 24.0549 363.798 24.0549 363.356H24.7808C24.7808 364.065 24.6028 364.654 24.2462 365.121L25.1501 366.161H24.1858L23.7637 365.681C23.5495 365.864 23.2978 366.005 23.0079 366.102C22.7213 366.197 22.4289 366.244 22.1301 366.244C21.5129 366.244 21.0177 366.087 20.6439 365.772C20.2702 365.458 20.0833 365.043 20.0833 364.529ZM22.1301 365.614C22.556 365.614 22.9456 365.458 23.2991 365.146L21.7563 363.372L21.6133 363.473C21.1296 363.815 20.8874 364.167 20.8874 364.529C20.8874 364.857 20.9973 365.12 21.2179 365.317C21.441 365.515 21.7449 365.614 22.1301 365.614ZM21.4048 361.453C21.4048 361.72 21.5752 362.053 21.9171 362.454L22.4301 362.108C22.6272 361.974 22.7619 361.848 22.8344 361.728C22.9069 361.606 22.9425 361.458 22.9425 361.286C22.9425 361.099 22.8706 360.945 22.7257 360.822C22.5808 360.697 22.3983 360.634 22.1778 360.634C21.9407 360.634 21.7519 360.712 21.6133 360.868C21.4741 361.021 21.4048 361.216 21.4048 361.453ZM29.4084 364.574H26.7577L26.1627 366.161H25.302L27.7182 360.083H28.4485L30.8685 366.161H30.0129L29.4084 364.574ZM27.0101 363.915H29.1611L28.083 361.073L27.0101 363.915Z" fill="#333333"/>
<path d="M18.1369 35.2536C18.0152 35.2341 17.8834 35.2244 17.7415 35.2244C17.2142 35.2244 16.8565 35.44 16.6682 35.8713V39.0769H15.8643V34.5607H16.6464L16.6595 35.0825C16.9231 34.679 17.2968 34.4773 17.7806 34.4773C17.937 34.4773 18.0558 34.4967 18.1369 34.5357V35.2536ZM21.6088 39.0769C21.5624 38.9879 21.5248 38.8292 21.4958 38.6011C21.1221 38.9739 20.676 39.1603 20.1574 39.1603C19.694 39.1603 19.313 39.0351 19.0146 38.7847C18.7191 38.5315 18.5714 38.2115 18.5714 37.8247C18.5714 37.3544 18.7568 36.9899 19.1276 36.7312C19.5013 36.4696 20.0257 36.3388 20.7006 36.3388H21.4828V35.9841C21.4828 35.7141 21.3987 35.4999 21.2307 35.3412C21.0627 35.1799 20.815 35.0992 20.4877 35.0992C20.2009 35.0992 19.9604 35.1687 19.7664 35.3078C19.5723 35.447 19.4752 35.6153 19.4752 35.8129H18.667C18.667 35.5875 18.7496 35.3705 18.9147 35.1618C19.0827 34.9503 19.3087 34.7834 19.5926 34.6609C19.8793 34.5385 20.1937 34.4773 20.5355 34.4773C21.0772 34.4773 21.5016 34.6081 21.8087 34.8696C22.1158 35.1284 22.2751 35.4859 22.2866 35.9423V38.0209C22.2866 38.4355 22.3417 38.7652 22.4518 39.0101V39.0769H21.6088ZM20.2748 38.4883C20.5268 38.4883 20.7658 38.4258 20.9917 38.3005C21.2177 38.1753 21.3814 38.0125 21.4828 37.8122V36.8856H20.8527C19.8678 36.8856 19.3753 37.1625 19.3753 37.7162C19.3753 37.9583 19.4593 38.1475 19.6274 38.2839C19.7954 38.4202 20.0112 38.4883 20.2748 38.4883ZM27.7096 38.0125L28.6135 34.5607H29.4173L28.0486 39.0769H27.3968L26.254 35.6543L25.1416 39.0769H24.4898L23.1253 34.5607H23.9249L24.8504 37.9416L25.9454 34.5607H26.5929L27.7096 38.0125ZM32.8414 39.0769V35.1576H32.0984V34.5607H32.8414V34.0974C32.8414 33.6133 32.9762 33.239 33.2456 32.9747C33.515 32.7103 33.8959 32.5781 34.3884 32.5781C34.5738 32.5781 34.7578 32.6018 34.9403 32.6491L34.8968 33.2752C34.7606 33.2501 34.6158 33.2376 34.4622 33.2376C34.2016 33.2376 34.0002 33.3114 33.8582 33.4588C33.7163 33.6035 33.6454 33.8122 33.6454 34.0849V34.5607H34.6491V35.1576H33.6454V39.0769H32.8414ZM35.327 36.7771C35.327 36.3346 35.4168 35.9367 35.5964 35.5833C35.7789 35.2299 36.0309 34.9572 36.3525 34.7653C36.6769 34.5733 37.0463 34.4773 37.4605 34.4773C38.1007 34.4773 38.6179 34.6901 39.0118 35.1159C39.4087 35.5416 39.6071 36.1079 39.6071 36.8146V36.8689C39.6071 37.3085 39.5188 37.7037 39.3421 38.0543C39.1683 38.4021 38.9177 38.6734 38.5903 38.8682C38.2659 39.063 37.8922 39.1603 37.4692 39.1603C36.8319 39.1603 36.3148 38.9475 35.918 38.5217C35.524 38.096 35.327 37.5325 35.327 36.8314V36.7771ZM36.1352 36.8689C36.1352 37.3698 36.2554 37.7718 36.4959 38.0752C36.7392 38.3784 37.0637 38.5301 37.4692 38.5301C37.8777 38.5301 38.2021 38.377 38.4426 38.0709C38.683 37.7621 38.8032 37.3308 38.8032 36.7771C38.8032 36.2818 38.6802 35.8811 38.4339 35.575C38.1906 35.2661 37.8661 35.1117 37.4605 35.1117C37.0637 35.1117 36.7436 35.2633 36.5002 35.5667C36.2569 35.8699 36.1352 36.3041 36.1352 36.8689ZM40.4023 36.7771C40.4023 36.3346 40.4921 35.9367 40.6717 35.5833C40.8542 35.2299 41.1063 34.9572 41.4279 34.7653C41.7523 34.5733 42.1216 34.4773 42.5359 34.4773C43.1761 34.4773 43.6932 34.6901 44.0871 35.1159C44.484 35.5416 44.6825 36.1079 44.6825 36.8146V36.8689C44.6825 37.3085 44.5941 37.7037 44.4174 38.0543C44.2436 38.4021 43.993 38.6734 43.6657 38.8682C43.3412 39.063 42.9675 39.1603 42.5446 39.1603C41.9073 39.1603 41.3902 38.9475 40.9933 38.5217C40.5993 38.096 40.4023 37.5325 40.4023 36.8314V36.7771ZM41.2106 36.8689C41.2106 37.3698 41.3308 37.7718 41.5712 38.0752C41.8145 38.3784 42.139 38.5301 42.5446 38.5301C42.9531 38.5301 43.2775 38.377 43.5179 38.0709C43.7584 37.7621 43.8786 37.3308 43.8786 36.7771C43.8786 36.2818 43.7554 35.8811 43.5093 35.575C43.2659 35.2661 42.9414 35.1117 42.5359 35.1117C42.139 35.1117 41.8189 35.2633 41.5756 35.5667C41.3322 35.8699 41.2106 36.3041 41.2106 36.8689ZM45.4951 36.7812C45.4951 36.0884 45.666 35.5319 46.0078 35.1117C46.3496 34.6888 46.7972 34.4773 47.3505 34.4773C47.9009 34.4773 48.3369 34.6581 48.6585 35.0199V32.6658H49.4623V39.0769H48.7236L48.6845 38.5927C48.363 38.9711 47.9154 39.1603 47.3418 39.1603C46.7972 39.1603 46.3525 38.9461 46.0078 38.5176C45.666 38.0891 45.4951 37.5297 45.4951 36.8397V36.7812ZM46.2989 36.8689C46.2989 37.3809 46.409 37.7816 46.6292 38.0709C46.8493 38.3604 47.1535 38.5051 47.5417 38.5051C48.0515 38.5051 48.4238 38.2853 48.6585 37.8456V35.7711C48.418 35.3454 48.0486 35.1325 47.5504 35.1325C47.1564 35.1325 46.8493 35.2787 46.6292 35.5708C46.409 35.863 46.2989 36.2957 46.2989 36.8689Z" fill="#333333"/>
<path fill-rule="evenodd" clip-rule="evenodd" d="M78 87.25C78 86.5594 78.3411 86 78.7619 86H149.238C149.659 86 150 86.5594 150 87.25V89.75C150 90.4406 149.659 91 149.238 91H78.7619C78.3411 91 78 90.4406 78 89.75V87.25Z" fill="#E0E7EC"/>
<path fill-rule="evenodd" clip-rule="evenodd" d="M78 98.25C78 97.5594 78.3411 97 78.7619 97H149.238C149.659 97 150 97.5594 150 98.25V100.75C150 101.441 149.659 102 149.238 102H78.7619C78.3411 102 78 101.441 78 100.75V98.25Z" fill="#E0E7EC"/>
<path fill-rule="evenodd" clip-rule="evenodd" d="M78 109.25C78 108.559 78.3411 108 78.7619 108H149.238C149.659 108 150 108.559 150 109.25V111.75C150 112.441 149.659 113 149.238 113H78.7619C78.3411 113 78 112.441 78 111.75V109.25Z" fill="#E0E7EC"/>
<path fill-rule="evenodd" clip-rule="evenodd" d="M78 120.25C78 119.559 78.2606 119 78.582 119H132.418C132.74 119 133 119.559 133 120.25V122.75C133 123.441 132.74 124 132.418 124H78.582C78.2606 124 78 123.441 78 122.75V120.25Z" fill="#E0E7EC"/>
<path d="M149.071 69H78.929C78.4159 69 78 69.5596 78 70.25V72.75C78 73.4404 78.4159 74 78.929 74H149.071C149.584 74 150 73.4404 150 72.75V70.25C150 69.5596 149.584 69 149.071 69Z" fill="#94A2AB"/>
<path d="M71.7423 69H13.2577C12.5631 69 12 69.985 12 71.2V121.8C12 123.015 12.5631 124 13.2577 124H71.7423C72.4369 124 73 123.015 73 121.8V71.2C73 69.985 72.4369 69 71.7423 69Z" fill="#E0E7EC"/>
<path fill-rule="evenodd" clip-rule="evenodd" d="M46.7145 95.9353C47.0952 96.1682 47.0952 96.8322 46.7145 97.0644L38.7473 101.932C38.4039 102.143 38 101.837 38 101.368V91.6322C38 91.1626 38.4039 90.8578 38.7473 91.0673L46.7145 95.9353Z" fill="white"/>
<path fill-rule="evenodd" clip-rule="evenodd" d="M78 151.25C78 150.559 78.3411 150 78.7619 150H149.238C149.659 150 150 150.559 150 151.25V153.75C150 154.441 149.659 155 149.238 155H78.7619C78.3411 155 78 154.441 78 153.75V151.25Z" fill="#E0E7EC"/>
<path fill-rule="evenodd" clip-rule="evenodd" d="M78 162.25C78 161.559 78.3411 161 78.7619 161H149.238C149.659 161 150 161.559 150 162.25V164.75C150 165.441 149.659 166 149.238 166H78.7619C78.3411 166 78 165.441 78 164.75V162.25Z" fill="#E0E7EC"/>
<path fill-rule="evenodd" clip-rule="evenodd" d="M78 173.25C78 172.559 78.3411 172 78.7619 172H149.238C149.659 172 150 172.559 150 173.25V175.75C150 176.441 149.659 177 149.238 177H78.7619C78.3411 177 78 176.441 78 175.75V173.25Z" fill="#E0E7EC"/>
<path fill-rule="evenodd" clip-rule="evenodd" d="M78 184.25C78 183.559 78.2606 183 78.582 183H132.418C132.74 183 133 183.559 133 184.25V186.75C133 187.441 132.74 188 132.418 188H78.582C78.2606 188 78 187.441 78 186.75V184.25Z" fill="#E0E7EC"/>
<path d="M149.071 133H78.929C78.4159 133 78 133.56 78 134.25V136.75C78 137.44 78.4159 138 78.929 138H149.071C149.584 138 150 137.44 150 136.75V134.25C150 133.56 149.584 133 149.071 133Z" fill="#94A2AB"/>
<path d="M71.7423 133H13.2577C12.5631 133 12 133.985 12 135.2V185.8C12 187.015 12.5631 188 13.2577 188H71.7423C72.4369 188 73 187.015 73 185.8V135.2C73 133.985 72.4369 133 71.7423 133Z" fill="#E0E7EC"/>
<path fill-rule="evenodd" clip-rule="evenodd" d="M46.7145 159.935C47.0952 160.168 47.0952 160.832 46.7145 161.064L38.7473 165.932C38.4039 166.143 38 165.837 38 165.368V155.632C38 155.163 38.4039 154.858 38.7473 155.067L46.7145 159.935Z" fill="white"/>
<path fill-rule="evenodd" clip-rule="evenodd" d="M78 215.25C78 214.559 78.3411 214 78.7619 214H149.238C149.659 214 150 214.559 150 215.25V217.75C150 218.441 149.659 219 149.238 219H78.7619C78.3411 219 78 218.441 78 217.75V215.25Z" fill="#E0E7EC"/>
<path fill-rule="evenodd" clip-rule="evenodd" d="M78 226.25C78 225.559 78.3411 225 78.7619 225H149.238C149.659 225 150 225.559 150 226.25V228.75C150 229.441 149.659 230 149.238 230H78.7619C78.3411 230 78 229.441 78 228.75V226.25Z" fill="#E0E7EC"/>
<path fill-rule="evenodd" clip-rule="evenodd" d="M78 237.25C78 236.559 78.3411 236 78.7619 236H149.238C149.659 236 150 236.559 150 237.25V239.75C150 240.441 149.659 241 149.238 241H78.7619C78.3411 241 78 240.441 78 239.75V237.25Z" fill="#E0E7EC"/>
<path fill-rule="evenodd" clip-rule="evenodd" d="M78 248.25C78 247.559 78.2606 247 78.582 247H132.418C132.74 247 133 247.559 133 248.25V250.75C133 251.441 132.74 252 132.418 252H78.582C78.2606 252 78 251.441 78 250.75V248.25Z" fill="#E0E7EC"/>
<path d="M149.071 197H78.929C78.4159 197 78 197.56 78 198.25V200.75C78 201.44 78.4159 202 78.929 202H149.071C149.584 202 150 201.44 150 200.75V198.25C150 197.56 149.584 197 149.071 197Z" fill="#94A2AB"/>
<path d="M71.7423 197H13.2577C12.5631 197 12 197.985 12 199.2V249.8C12 251.015 12.5631 252 13.2577 252H71.7423C72.4369 252 73 251.015 73 249.8V199.2C73 197.985 72.4369 197 71.7423 197Z" fill="#E0E7EC"/>
<path fill-rule="evenodd" clip-rule="evenodd" d="M46.7145 223.935C47.0952 224.168 47.0952 224.832 46.7145 225.064L38.7473 229.932C38.4039 230.143 38 229.837 38 229.368V219.632C38 219.163 38.4039 218.858 38.7473 219.067L46.7145 223.935Z" fill="white"/>
<path fill-rule="evenodd" clip-rule="evenodd" d="M37.7846 282C36.799 282 36 282.554 36 283.238V285.714C36 286.398 36.799 286.952 37.7846 286.952H150.215C151.201 286.952 152 286.398 152 285.714V283.238C152 282.554 151.201 282 150.215 282H37.7846ZM37.7846 290.048C36.799 290.048 36 290.602 36 291.286V293.762C36 294.446 36.799 295 37.7846 295H133.262C134.248 295 135.046 294.446 135.046 293.762V291.286C135.046 290.602 134.248 290.048 133.262 290.048H37.7846Z" fill="#E0E7EC"/>
<path fill-rule="evenodd" clip-rule="evenodd" d="M37.7846 376C36.799 376 36 376.554 36 377.238V379.714C36 380.398 36.799 380.952 37.7846 380.952H150.215C151.201 380.952 152 380.398 152 379.714V377.238C152 376.554 151.201 376 150.215 376H37.7846ZM37.7846 384.048C36.799 384.048 36 384.602 36 385.286V387.762C36 388.446 36.799 389 37.7846 389H133.262C134.248 389 135.046 388.446 135.046 387.762V385.286C135.046 384.602 134.248 384.048 133.262 384.048H37.7846Z" fill="#E0E7EC"/>
<path fill-rule="evenodd" clip-rule="evenodd" d="M37.7846 307C36.799 307 36 307.554 36 308.238V310.714C36 311.398 36.799 311.952 37.7846 311.952H150.215C151.201 311.952 152 311.398 152 310.714V308.238C152 307.554 151.201 307 150.215 307H37.7846ZM37.7846 315.048C36.799 315.048 36 315.602 36 316.286V318.762C36 319.446 36.799 320 37.7846 320H133.262C134.248 320 135.046 319.446 135.046 318.762V316.286C135.046 315.602 134.248 315.048 133.262 315.048H37.7846Z" fill="#E0E7EC"/>
<path fill-rule="evenodd" clip-rule="evenodd" d="M37.7846 401C36.799 401 36 401.554 36 402.238V404.714C36 405.398 36.799 405.952 37.7846 405.952H150.215C151.201 405.952 152 405.398 152 404.714V402.238C152 401.554 151.201 401 150.215 401H37.7846ZM37.7846 409.048C36.799 409.048 36 409.602 36 410.286V412.762C36 413.446 36.799 414 37.7846 414H133.262C134.248 414 135.046 413.446 135.046 412.762V410.286C135.046 409.602 134.248 409.048 133.262 409.048H37.7846Z" fill="#E0E7EC"/>
<path fill-rule="evenodd" clip-rule="evenodd" d="M37.7846 334C36.799 334 36 334.554 36 335.238V337.714C36 338.398 36.799 338.952 37.7846 338.952H150.215C151.201 338.952 152 338.398 152 337.714V335.238C152 334.554 151.201 334 150.215 334H37.7846ZM37.7846 342.048C36.799 342.048 36 342.602 36 343.286V345.762C36 346.446 36.799 347 37.7846 347H133.262C134.248 347 135.046 346.446 135.046 345.762V343.286C135.046 342.602 134.248 342.048 133.262 342.048H37.7846Z" fill="#E0E7EC"/>
<path fill-rule="evenodd" clip-rule="evenodd" d="M37.7846 428C36.799 428 36 428.554 36 429.238V431.714C36 432.398 36.799 432.952 37.7846 432.952H150.215C151.201 432.952 152 432.398 152 431.714V429.238C152 428.554 151.201 428 150.215 428H37.7846ZM37.7846 436.048C36.799 436.048 36 436.602 36 437.286V439.762C36 440.446 36.799 441 37.7846 441H133.262C134.248 441 135.046 440.446 135.046 439.762V437.286C135.046 436.602 134.248 436.048 133.262 436.048H37.7846Z" fill="#E0E7EC"/>
<path d="M27.4415 279H14.3756C13.0636 279 12 280.077 12 281.405V294.629C12 295.957 13.0636 297.034 14.3756 297.034H27.4415C28.7536 297.034 29.8172 295.957 29.8172 294.629V281.405C29.8172 280.077 28.7536 279 27.4415 279Z" fill="#E0E7EC"/>
<path d="M27.4415 373H14.3756C13.0636 373 12 374.077 12 375.405V388.629C12 389.957 13.0636 391.034 14.3756 391.034H27.4415C28.7536 391.034 29.8172 389.957 29.8172 388.629V375.405C29.8172 374.077 28.7536 373 27.4415 373Z" fill="#E0E7EC"/>
<path d="M27.4415 304H14.3756C13.0636 304 12 305.077 12 306.405V319.629C12 320.957 13.0636 322.034 14.3756 322.034H27.4415C28.7536 322.034 29.8172 320.957 29.8172 319.629V306.405C29.8172 305.077 28.7536 304 27.4415 304Z" fill="#E0E7EC"/>
<path d="M27.4415 398H14.3756C13.0636 398 12 399.077 12 400.405V413.629C12 414.957 13.0636 416.034 14.3756 416.034H27.4415C28.7536 416.034 29.8172 414.957 29.8172 413.629V400.405C29.8172 399.077 28.7536 398 27.4415 398Z" fill="#E0E7EC"/>
<path d="M27.4415 331H14.3756C13.0636 331 12 332.077 12 333.405V346.629C12 347.957 13.0636 349.034 14.3756 349.034H27.4415C28.7536 349.034 29.8172 347.957 29.8172 346.629V333.405C29.8172 332.077 28.7536 331 27.4415 331Z" fill="#E0E7EC"/>
<path d="M27.4415 425H14.3756C13.0636 425 12 426.077 12 427.405V440.629C12 441.957 13.0636 443.034 14.3756 443.034H27.4415C28.7536 443.034 29.8172 441.957 29.8172 440.629V427.405C29.8172 426.077 28.7536 425 27.4415 425Z" fill="#E0E7EC"/>
<path d="M137.273 61V55.3633H136.457L134.527 60.0273H134.465L132.535 55.3633H131.719V61H132.375V56.6953H132.422L134.199 60.9609H134.793L136.57 56.6953H136.617V61H137.273ZM140.355 61.0742C141.555 61.0742 142.297 60.2461 142.297 58.8945C142.297 57.5391 141.555 56.7148 140.355 56.7148C139.156 56.7148 138.414 57.5391 138.414 58.8945C138.414 60.2461 139.156 61.0742 140.355 61.0742ZM140.355 60.4688C139.559 60.4688 139.109 59.8906 139.109 58.8945C139.109 57.8945 139.559 57.3203 140.355 57.3203C141.152 57.3203 141.602 57.8945 141.602 58.8945C141.602 59.8906 141.152 60.4688 140.355 60.4688ZM143.352 61H144.023V58.3906C144.023 57.7969 144.488 57.3672 145.129 57.3672C145.262 57.3672 145.504 57.3906 145.559 57.4062V56.7344C145.473 56.7227 145.332 56.7148 145.223 56.7148C144.664 56.7148 144.18 57.0039 144.055 57.4141H143.992V56.7891H143.352V61ZM147.961 57.3086C148.629 57.3086 149.074 57.8008 149.09 58.5469H146.77C146.82 57.8008 147.289 57.3086 147.961 57.3086ZM149.07 59.9102C148.895 60.2812 148.527 60.4805 147.984 60.4805C147.27 60.4805 146.805 59.9531 146.77 59.1211V59.0898H149.797V58.832C149.797 57.5234 149.105 56.7148 147.969 56.7148C146.812 56.7148 146.07 57.5742 146.07 58.8984C146.07 60.2305 146.801 61.0742 147.969 61.0742C148.891 61.0742 149.539 60.6328 149.742 59.9102H149.07Z" fill="black"/>
<path d="M137.273 268V262.363H136.457L134.527 267.027H134.465L132.535 262.363H131.719V268H132.375V263.695H132.422L134.199 267.961H134.793L136.57 263.695H136.617V268H137.273ZM140.355 268.074C141.555 268.074 142.297 267.246 142.297 265.895C142.297 264.539 141.555 263.715 140.355 263.715C139.156 263.715 138.414 264.539 138.414 265.895C138.414 267.246 139.156 268.074 140.355 268.074ZM140.355 267.469C139.559 267.469 139.109 266.891 139.109 265.895C139.109 264.895 139.559 264.32 140.355 264.32C141.152 264.32 141.602 264.895 141.602 265.895C141.602 266.891 141.152 267.469 140.355 267.469ZM143.352 268H144.023V265.391C144.023 264.797 144.488 264.367 145.129 264.367C145.262 264.367 145.504 264.391 145.559 264.406V263.734C145.473 263.723 145.332 263.715 145.223 263.715C144.664 263.715 144.18 264.004 144.055 264.414H143.992V263.789H143.352V268ZM147.961 264.309C148.629 264.309 149.074 264.801 149.09 265.547H146.77C146.82 264.801 147.289 264.309 147.961 264.309ZM149.07 266.91C148.895 267.281 148.527 267.48 147.984 267.48C147.27 267.48 146.805 266.953 146.77 266.121V266.09H149.797V265.832C149.797 264.523 149.105 263.715 147.969 263.715C146.812 263.715 146.07 264.574 146.07 265.898C146.07 267.23 146.801 268.074 147.969 268.074C148.891 268.074 149.539 267.633 149.742 266.91H149.07Z" fill="black"/>
<path d="M137.273 367V361.363H136.457L134.527 366.027H134.465L132.535 361.363H131.719V367H132.375V362.695H132.422L134.199 366.961H134.793L136.57 362.695H136.617V367H137.273ZM140.355 367.074C141.555 367.074 142.297 366.246 142.297 364.895C142.297 363.539 141.555 362.715 140.355 362.715C139.156 362.715 138.414 363.539 138.414 364.895C138.414 366.246 139.156 367.074 140.355 367.074ZM140.355 366.469C139.559 366.469 139.109 365.891 139.109 364.895C139.109 363.895 139.559 363.32 140.355 363.32C141.152 363.32 141.602 363.895 141.602 364.895C141.602 365.891 141.152 366.469 140.355 366.469ZM143.352 367H144.023V364.391C144.023 363.797 144.488 363.367 145.129 363.367C145.262 363.367 145.504 363.391 145.559 363.406V362.734C145.473 362.723 145.332 362.715 145.223 362.715C144.664 362.715 144.18 363.004 144.055 363.414H143.992V362.789H143.352V367ZM147.961 363.309C148.629 363.309 149.074 363.801 149.09 364.547H146.77C146.82 363.801 147.289 363.309 147.961 363.309ZM149.07 365.91C148.895 366.281 148.527 366.48 147.984 366.48C147.27 366.48 146.805 365.953 146.77 365.121V365.09H149.797V364.832C149.797 363.523 149.105 362.715 147.969 362.715C146.812 362.715 146.07 363.574 146.07 364.898C146.07 366.23 146.801 367.074 147.969 367.074C148.891 367.074 149.539 366.633 149.742 365.91H149.07Z" fill="black"/>
</g>
<defs>
<clipPath id="clip0">
<rect width="164" height="456" fill="white"/>
</clipPath>
</defs>
</svg>
