<svg width="341" height="363" viewBox="0 0 341 363" fill="none" xmlns="http://www.w3.org/2000/svg">
<path fill-rule="evenodd" clip-rule="evenodd" d="M12.5403 136.265C12.5403 136.265 -16.9796 197.577 14.9172 250.571C53.6089 314.827 120.583 239.307 174.072 287.847C227.56 336.387 370.944 245.142 316.314 106.549C261.684 -32.0434 93.3881 -46.0823 12.5403 136.265Z" fill="#DBE5F5"/>
<path d="M205.323 225.032C209.776 225.294 213.356 228.083 217.286 229.826C226.106 233.573 234.576 238.018 241.999 244.119C241.999 245.601 241.999 246.995 241.999 248.477C240.602 257.977 234.14 263.816 226.717 268.523C215.19 275.931 207.855 285.867 205.585 299.463C205.148 301.904 203.664 303.124 201.48 303.995C197.9 305.39 194.058 305.041 190.478 306C183.754 306 177.117 306 170.393 306C167.249 304.954 163.844 305.303 160.613 304.083C158.08 303.124 156.509 301.729 155.985 298.94C153.627 285.954 146.816 275.931 135.464 268.959C131.621 266.605 128.216 263.555 125.159 260.33C122.802 257.541 120.968 254.404 119.833 251.005C117.911 245.427 118.523 243.248 123.325 239.936C129.787 235.404 136.861 232.092 143.934 228.78C146.728 227.472 149.61 226.601 152.142 224.945C153.452 224.161 154.849 223.899 156.247 224.596C158.08 226.775 159.303 229.303 160.351 232.005C160.613 233.486 159.827 234.532 158.779 235.404C152.492 240.546 146.292 245.775 138.433 248.303C144.807 249.261 148.999 254.927 155.111 256.495C160.351 258.064 165.59 258.5 171.004 257.803C172.664 258.849 172.751 260.679 173.362 262.248C174.672 265.56 176.942 268.087 180.697 268C184.19 268 186.461 265.56 187.771 262.422C188.469 260.766 188.556 258.674 190.478 257.628C196.765 258.674 202.878 257.628 208.728 255.449C213.356 253.009 217.461 249.697 222.787 248.041C214.142 245.252 207.506 239.674 200.956 234.183C200.345 233.661 200.258 232.963 200.52 232.179C202.354 229.913 203.052 226.95 205.323 225.032Z" fill="#BFB9FF"/>
<path d="M158.255 234.619C159.653 234.271 160.264 233.399 159.827 231.918C160.439 229.913 162.272 229.129 163.582 227.908C166.639 224.945 169.258 221.895 169.433 217.188C169.52 214.225 171.441 212.482 174.672 212.83C178.427 212.046 182.27 211.174 186.024 212.83C188.993 212.482 191.613 213.528 191.788 216.578C192.137 222.766 195.892 226.688 199.734 230.785C200.171 232.005 199.822 233.486 200.608 234.619C201.393 240.633 204.45 245.688 207.855 250.569C208.991 252.225 210.999 253.794 209.515 256.321C203.315 258.587 197.027 260.505 190.303 258.151C188.208 254.927 189.343 251.789 190.653 248.739C192.574 244.468 193.884 240.11 193.447 235.404C192.923 229.826 189.168 227.298 184.016 229.216C182.532 229.739 181.047 230.349 179.388 230C177.816 229.303 177.467 228.344 178.864 227.037C177.379 227.647 176.419 229.041 174.672 229.129C168.647 229.477 167.948 230.349 167.774 236.101C167.599 240.72 168.996 244.904 170.83 249.087C172.14 252.051 173.188 255.101 171.092 258.151C165.503 260.33 160.177 259.11 154.85 257.193C152.667 256.147 152.667 254.055 152.405 252.051C151.968 245.427 153.715 239.587 158.255 234.619Z" fill="#292929"/>
<path d="M199.298 231.133C195.019 227.385 190.915 223.725 191.177 217.275C191.351 214.137 188.208 213.963 186.199 212.83C193.534 210.215 196.853 211.61 199.21 218.67C200.258 221.807 201.743 224.422 205.41 225.119C204.625 227.908 203.926 230.697 201.044 232.179C200.87 232.179 200.695 232.179 200.52 232.092C199.996 231.83 199.647 231.482 199.298 231.133Z" fill="#FDE1B2"/>
<path d="M174.759 212.83C171.616 214.05 170.568 216.055 170.218 219.541C169.607 225.555 164.804 228.954 159.914 231.917C158.342 229.826 156.509 227.821 156.334 225.032C160.526 224.248 162.01 221.023 162.796 217.362C163.582 213.614 165.678 211.61 169.607 211.697C171.266 212.307 173.362 211.087 174.759 212.83Z" fill="#FDE1B2"/>
<path d="M179.213 229.303C180.785 228.954 182.269 228.431 183.841 228.257C185.675 228.082 186.81 224.771 189.081 226.775C191.962 229.215 195.368 231.133 195.019 236.014C194.757 240.11 194.407 244.119 192.486 247.693C190.74 251.004 190.128 254.404 190.478 258.064C189.954 259.72 189.604 261.376 188.993 262.945C187.509 266.605 184.889 269.046 180.872 269.046C176.681 269.046 173.974 266.431 172.576 262.596C172.052 261.115 171.79 259.546 171.354 258.064C171.703 254.578 171.266 251.266 169.433 248.041C166.726 243.16 166.551 237.757 166.988 232.353C167.337 228.431 170.131 227.124 175.633 228.344C177.117 227.472 177.99 228.78 179.213 229.303Z" fill="#FDE1B2"/>
<path d="M179.213 229.303C177.991 229.041 176.768 228.692 175.633 228.431C176.855 227.211 178.34 226.514 180.174 226.862C179.912 227.734 177.903 227.908 179.213 229.303Z" fill="#FDE1B2"/>
<path d="M200.957 231.917C199.734 232.528 200.433 233.835 199.996 234.619C199.21 233.573 199.298 232.353 199.298 231.133C199.996 231.046 200.608 231.307 200.957 231.917Z" fill="#A49D99"/>
<path d="M204.498 300C204.498 307.843 207.086 330.943 201.711 339.257C196.93 346.652 177.979 346.619 172.492 346.619C160.836 346.619 148.998 336.592 148.998 321.772C148.998 306.952 160.836 292.951 172.492 292.951C184.148 292.951 204.498 285.18 204.498 300Z" fill="#BFB9FF"/>
<path d="M169.18 299.418C164.454 299.315 160.119 300.854 158.999 301.398C161.287 300.758 166.199 299.856 170.531 300.287C175.587 300.79 180.654 302.274 181.563 302.739C180.538 302.031 174.298 299.531 169.18 299.418Z" fill="#8C82F8"/>
<path d="M185.272 338.358C190.699 334.413 193.726 327.932 194.332 326C192.528 329.119 188.094 334.987 182.718 338.016C176.444 341.551 168.986 343.376 167.411 343.356C169.406 343.7 179.394 342.631 185.272 338.358Z" fill="#8C82F8"/>
<path d="M106.87 155.855C104.567 154.387 104.951 151.574 105.43 150.351L116.226 138.425C124.863 136.896 142.281 134.206 142.857 135.673C143.433 137.141 142.857 140.5 141 144C130.444 149.198 109.173 157.323 106.87 155.855Z" fill="white" stroke="white"/>
<path d="M106.869 139.343C113.779 131.27 126.543 127.417 132.061 126.5H137.857C140.618 126.5 142.857 128.739 142.857 131.5V136.591C137.338 137.508 124.862 139.343 119.104 139.343C113.346 139.343 107.109 146.682 104.71 150.351C102.551 150.045 99.9594 147.416 106.869 139.343Z" fill="url(#paint0_linear)"/>
<path d="M120.543 132.004L120.31 131.913L120.056 132.561L120.665 132.223L120.543 132.004ZM127.021 129.252L127.098 129.49L127.021 129.252ZM120.776 132.096C120.926 131.713 121.314 131.335 121.902 130.969C122.482 130.608 123.222 130.28 124.021 129.983C125.626 129.386 127.395 128.937 128.536 128.573L128.384 128.097C127.291 128.445 125.461 128.913 123.846 129.514C123.035 129.816 122.259 130.158 121.637 130.545C121.022 130.928 120.52 131.378 120.31 131.913L120.776 132.096ZM128.536 128.573C129.945 128.124 131.986 127.896 133.559 127.781C134.342 127.724 135.002 127.696 135.4 127.682C135.499 127.678 135.582 127.675 135.647 127.673C135.71 127.671 135.758 127.67 135.784 127.669C135.787 127.669 135.812 127.668 135.83 127.666C135.833 127.666 135.841 127.664 135.847 127.663C135.855 127.661 135.883 127.653 135.901 127.645C135.957 127.611 136.047 127.408 135.988 127.257C135.944 127.216 135.874 127.18 135.856 127.175C135.847 127.173 135.834 127.171 135.829 127.17C135.825 127.17 135.82 127.169 135.818 127.169C135.813 127.168 135.809 127.168 135.807 127.168C135.8 127.168 135.793 127.168 135.789 127.168C135.768 127.167 135.724 127.167 135.658 127.167V127.667C135.726 127.667 135.766 127.667 135.783 127.668C135.788 127.668 135.787 127.668 135.783 127.668C135.782 127.668 135.779 127.667 135.775 127.667C135.773 127.667 135.768 127.666 135.765 127.666C135.76 127.665 135.747 127.663 135.739 127.661C135.721 127.656 135.65 127.62 135.606 127.579C135.547 127.429 135.638 127.226 135.693 127.191C135.711 127.183 135.739 127.175 135.747 127.173C135.752 127.172 135.76 127.171 135.764 127.17C135.777 127.169 135.788 127.169 135.766 127.169C135.742 127.17 135.697 127.172 135.631 127.174C135.566 127.176 135.482 127.178 135.382 127.182C134.98 127.196 134.314 127.225 133.523 127.283C131.949 127.398 129.855 127.628 128.384 128.097L128.536 128.573ZM135.658 127.167C135.113 127.167 133.775 127.358 132.169 127.679C130.554 128.002 128.644 128.463 126.944 129.014L127.098 129.49C128.774 128.946 130.665 128.489 132.267 128.169C133.877 127.847 135.169 127.667 135.658 127.667V127.167ZM126.944 129.014C125.093 129.615 123.464 130.307 122.298 130.849C121.714 131.12 121.246 131.354 120.924 131.52C120.762 131.603 120.637 131.669 120.552 131.715C120.51 131.737 120.477 131.755 120.455 131.767C120.444 131.773 120.436 131.778 120.43 131.781C120.428 131.782 120.425 131.784 120.424 131.784C120.423 131.785 120.423 131.785 120.422 131.785C120.422 131.786 120.422 131.786 120.422 131.786C120.422 131.786 120.422 131.786 120.421 131.786C120.421 131.786 120.421 131.786 120.543 132.004C120.665 132.223 120.665 132.223 120.665 132.223C120.665 132.223 120.665 132.223 120.665 132.223C120.665 132.223 120.665 132.223 120.665 132.223C120.665 132.222 120.666 132.222 120.666 132.222C120.667 132.221 120.669 132.22 120.672 132.219C120.677 132.216 120.685 132.212 120.695 132.206C120.716 132.194 120.747 132.177 120.789 132.155C120.871 132.111 120.994 132.046 121.153 131.964C121.47 131.801 121.932 131.57 122.508 131.302C123.662 130.767 125.272 130.083 127.098 129.49L126.944 129.014Z" fill="#FFC9C9"/>
<path d="M104.706 149.434C103.554 147.966 110.464 139.343 124.142 138.426C124.142 138.426 114 141.089 110.464 143.93C107.936 145.961 104.706 149.434 104.706 149.434Z" stroke="#F06344"/>
<path d="M110.823 127.684C108.4 126.424 108.536 123.588 108.907 122.327L118.617 109.503C127.087 107.224 144.203 103.018 144.905 104.43C145.607 105.842 144.616 109.367 144.033 110.953C133.973 117.055 113.246 128.945 110.823 127.684Z" fill="white" stroke="white"/>
<path d="M109.377 111.236C115.553 102.589 127.931 97.6337 133.347 96.2368L139.121 95.7294C141.872 95.4877 144.297 97.5217 144.539 100.273L144.985 105.344C139.568 106.741 127.301 109.661 121.565 110.165C115.829 110.669 110.258 118.525 108.189 122.391C106.012 122.275 103.2 119.882 109.377 111.236Z" fill="url(#paint1_linear)"/>
<path d="M122.357 102.728L122.117 102.657L121.92 103.326L122.497 102.935L122.357 102.728ZM128.569 99.4193L128.666 99.6494L128.569 99.4193ZM122.596 102.798C122.712 102.405 123.066 101.994 123.619 101.578C124.166 101.167 124.875 100.776 125.644 100.41C127.191 99.6742 128.914 99.072 130.019 98.6101L129.826 98.1488C128.767 98.5917 126.985 99.2184 125.429 99.9582C124.647 100.33 123.905 100.738 123.319 101.178C122.74 101.613 122.279 102.106 122.117 102.657L122.596 102.798ZM130.019 98.6101C131.383 98.0396 133.396 97.6337 134.953 97.3818C135.728 97.2565 136.383 97.1703 136.778 97.1213C136.877 97.109 136.959 97.0991 137.023 97.0914C137.087 97.0839 137.134 97.0784 137.159 97.0752C137.163 97.0747 137.188 97.0719 137.205 97.0681C137.208 97.0673 137.216 97.0652 137.221 97.0638C137.23 97.0611 137.257 97.0504 137.274 97.0413C137.327 97.0017 137.399 96.7915 137.327 96.6468C137.279 96.6096 137.206 96.5801 137.188 96.5767C137.179 96.5755 137.165 96.5743 137.16 96.5741C137.157 96.574 137.152 96.5739 137.149 96.5739C137.145 96.5739 137.141 96.574 137.139 96.5741C137.132 96.5744 137.125 96.575 137.12 96.5753C137.1 96.5768 137.056 96.5807 136.99 96.5865L137.034 97.0846C137.102 97.0786 137.141 97.0751 137.158 97.0739C137.163 97.0735 137.162 97.0736 137.159 97.0737C137.158 97.0738 137.155 97.0739 137.151 97.0739C137.149 97.0739 137.144 97.0738 137.14 97.0737C137.136 97.0735 137.122 97.0723 137.114 97.0712C137.095 97.0677 137.022 97.0383 136.974 97.0011C136.903 96.8564 136.975 96.6463 137.027 96.6067C137.045 96.5976 137.071 96.587 137.08 96.5843C137.085 96.5829 137.093 96.5809 137.096 96.5802C137.109 96.5771 137.119 96.5763 137.098 96.579C137.074 96.582 137.029 96.5872 136.964 96.595C136.899 96.6027 136.816 96.6127 136.716 96.6251C136.318 96.6746 135.656 96.7616 134.873 96.8883C133.315 97.1404 131.25 97.5534 129.826 98.1488L130.019 98.6101ZM136.99 96.5865C136.447 96.6342 135.131 96.9406 133.559 97.4012C131.979 97.8643 130.116 98.4907 128.471 99.1892L128.666 99.6494C130.289 98.9607 132.132 98.3405 133.7 97.881C135.276 97.4192 136.547 97.1273 137.034 97.0846L136.99 96.5865ZM128.471 99.1892C126.68 99.9495 125.118 100.782 124.004 101.423C123.446 101.744 123 102.018 122.693 102.212C122.54 102.309 122.421 102.386 122.341 102.439C122.3 102.465 122.269 102.485 122.249 102.499C122.238 102.506 122.23 102.512 122.225 102.515C122.222 102.517 122.22 102.518 122.219 102.519C122.218 102.52 122.217 102.52 122.217 102.52C122.217 102.521 122.217 102.521 122.217 102.521C122.217 102.521 122.216 102.521 122.216 102.521C122.216 102.521 122.216 102.521 122.357 102.728C122.497 102.935 122.497 102.935 122.497 102.935C122.497 102.935 122.497 102.935 122.497 102.935C122.497 102.935 122.497 102.935 122.497 102.935C122.497 102.934 122.498 102.934 122.498 102.934C122.5 102.933 122.501 102.932 122.504 102.93C122.509 102.927 122.516 102.922 122.526 102.915C122.546 102.902 122.575 102.882 122.615 102.857C122.693 102.805 122.809 102.73 122.96 102.635C123.262 102.444 123.702 102.174 124.253 101.857C125.355 101.222 126.899 100.4 128.666 99.6494L128.471 99.1892Z" fill="#FFC9C9"/>
<path d="M108.105 121.477C106.829 120.116 112.957 110.921 126.502 108.81C126.502 108.81 116.632 112.351 113.359 115.49C111.019 117.734 108.105 121.477 108.105 121.477Z" stroke="#F06344"/>
<path d="M162.047 133.789C161.766 133.914 161.625 134.125 161.625 134.422C161.625 134.609 161.766 134.836 162.047 135.102C162.344 135.367 162.672 135.641 163.031 135.922C163.406 136.188 163.766 136.445 164.109 136.695C164.453 136.945 164.688 137.148 164.812 137.305C165.047 137.633 165.164 137.969 165.164 138.312C165.164 138.672 165.086 138.961 164.93 139.18C164.789 139.398 164.586 139.57 164.32 139.695C164.07 139.82 163.773 139.906 163.43 139.953C163.102 140 162.758 140.023 162.398 140.023C162.148 140.023 161.844 140.016 161.484 140C161.125 139.984 160.773 139.945 160.43 139.883C160.102 139.82 159.82 139.734 159.586 139.625C159.352 139.5 159.234 139.344 159.234 139.156C159.234 139 159.281 138.836 159.375 138.664C159.469 138.492 159.602 138.406 159.773 138.406C159.789 138.406 159.805 138.414 159.82 138.43C159.836 138.43 159.859 138.43 159.891 138.43C160.234 138.523 160.672 138.594 161.203 138.641C161.734 138.688 162.25 138.711 162.75 138.711C163.016 138.711 163.234 138.672 163.406 138.594C163.578 138.5 163.664 138.367 163.664 138.195C163.664 138.039 163.586 137.875 163.43 137.703C163.273 137.516 163.078 137.336 162.844 137.164C162.625 136.992 162.391 136.828 162.141 136.672C161.906 136.516 161.703 136.375 161.531 136.25C161.031 135.906 160.664 135.586 160.43 135.289C160.211 134.977 160.102 134.641 160.102 134.281C160.102 133.875 160.203 133.547 160.406 133.297C160.625 133.031 160.898 132.82 161.227 132.664C161.555 132.508 161.914 132.406 162.305 132.359C162.711 132.297 163.102 132.266 163.477 132.266C163.695 132.266 163.914 132.273 164.133 132.289C164.352 132.305 164.547 132.344 164.719 132.406C164.891 132.453 165.031 132.531 165.141 132.641C165.25 132.734 165.305 132.867 165.305 133.039C165.305 133.211 165.266 133.359 165.188 133.484C165.125 133.609 165.016 133.672 164.859 133.672C164.719 133.672 164.508 133.648 164.227 133.602C163.961 133.555 163.648 133.531 163.289 133.531C162.805 133.531 162.391 133.617 162.047 133.789ZM169.922 133.695H169.312C169.047 133.836 168.844 134.023 168.703 134.258C168.562 134.492 168.453 134.742 168.375 135.008C168.312 135.258 168.273 135.5 168.258 135.734C168.242 135.969 168.234 136.156 168.234 136.297C168.234 136.609 168.273 136.906 168.352 137.188C168.445 137.469 168.57 137.719 168.727 137.938C168.898 138.141 169.094 138.305 169.312 138.43C169.531 138.555 169.781 138.617 170.062 138.617C170.562 138.617 170.945 138.508 171.211 138.289C171.492 138.07 171.695 137.797 171.82 137.469C171.961 137.141 172.047 136.789 172.078 136.414C172.109 136.023 172.125 135.664 172.125 135.336C172.094 135.133 172.023 134.93 171.914 134.727C171.805 134.508 171.664 134.32 171.492 134.164C171.336 134.008 171.156 133.883 170.953 133.789C170.766 133.68 170.57 133.625 170.367 133.625C170.211 133.625 170.062 133.648 169.922 133.695ZM173.109 137.773C172.938 138.492 172.555 139.039 171.961 139.414C171.367 139.789 170.711 139.977 169.992 139.977C169.477 139.977 169.016 139.867 168.609 139.648C168.219 139.414 167.891 139.117 167.625 138.758C167.359 138.383 167.156 137.969 167.016 137.516C166.891 137.047 166.828 136.578 166.828 136.109C166.828 135.734 166.875 135.328 166.969 134.891C167.062 134.438 167.211 134.023 167.414 133.648C167.617 133.273 167.883 132.961 168.211 132.711C168.539 132.445 168.938 132.312 169.406 132.312C169.656 132.312 169.828 132.336 169.922 132.383C170 132.367 170.07 132.359 170.133 132.359C170.195 132.359 170.266 132.359 170.344 132.359C171.078 132.359 171.656 132.516 172.078 132.828C172.5 133.141 172.836 133.547 173.086 134.047C173.352 134.531 173.562 135.07 173.719 135.664C173.875 136.258 174.062 136.828 174.281 137.375C174.344 137.562 174.438 137.773 174.562 138.008C174.688 138.227 174.812 138.445 174.938 138.664C175.062 138.883 175.164 139.078 175.242 139.25C175.336 139.422 175.383 139.555 175.383 139.648C175.383 139.82 175.32 139.953 175.195 140.047C175.07 140.141 174.93 140.188 174.773 140.188C174.617 140.188 174.453 140.125 174.281 140C174.125 139.859 173.969 139.68 173.812 139.461C173.672 139.242 173.539 138.984 173.414 138.688C173.289 138.391 173.188 138.086 173.109 137.773ZM179.484 138.758C179.656 138.805 179.789 138.898 179.883 139.039C179.977 139.164 180.023 139.305 180.023 139.461C180.023 139.648 179.969 139.82 179.859 139.977C179.75 140.117 179.594 140.188 179.391 140.188C179.281 140.188 179.172 140.164 179.062 140.117C178.422 139.961 177.945 139.742 177.633 139.461C177.32 139.164 177.102 138.812 176.977 138.406C176.852 138 176.789 137.531 176.789 137C176.789 136.453 176.789 135.836 176.789 135.148C176.789 134.602 176.797 134.039 176.812 133.461C176.828 132.883 176.852 132.312 176.883 131.75C176.914 131.172 176.953 130.617 177 130.086C177.047 129.555 177.094 129.07 177.141 128.633C177.156 128.398 177.219 128.227 177.328 128.117C177.453 128.008 177.594 127.953 177.75 127.953C177.922 127.953 178.086 128.016 178.242 128.141C178.414 128.266 178.5 128.461 178.5 128.727C178.453 129.18 178.406 129.734 178.359 130.391C178.328 131.031 178.297 131.711 178.266 132.43C178.25 133.148 178.234 133.867 178.219 134.586C178.203 135.305 178.195 135.953 178.195 136.531C178.195 136.844 178.195 137.125 178.195 137.375C178.211 137.609 178.258 137.82 178.336 138.008C178.43 138.18 178.562 138.328 178.734 138.453C178.906 138.578 179.156 138.68 179.484 138.758ZM187.453 133.273C187.594 132.945 187.859 132.719 188.25 132.594C188.641 132.469 189.047 132.406 189.469 132.406C190.375 132.484 190.984 132.805 191.297 133.367C191.609 133.93 191.766 134.727 191.766 135.758C191.766 136.398 191.734 137 191.672 137.562C191.609 138.109 191.523 138.586 191.414 138.992C191.32 139.398 191.195 139.727 191.039 139.977C190.898 140.211 190.742 140.328 190.57 140.328C190.43 140.328 190.305 140.266 190.195 140.141C190.102 140.016 190.055 139.844 190.055 139.625C190.055 139.344 190.078 139.039 190.125 138.711C190.172 138.367 190.227 138.023 190.289 137.68C190.352 137.336 190.406 136.992 190.453 136.648C190.5 136.305 190.523 135.969 190.523 135.641C190.523 134.984 190.422 134.484 190.219 134.141C190.016 133.781 189.664 133.602 189.164 133.602C188.883 133.633 188.625 133.734 188.391 133.906C188.156 134.062 188 134.289 187.922 134.586C187.938 134.742 187.945 134.906 187.945 135.078C187.961 135.25 187.969 135.43 187.969 135.617C187.969 136.258 187.938 136.867 187.875 137.445C187.828 138.023 187.75 138.531 187.641 138.969C187.531 139.391 187.398 139.734 187.242 140C187.102 140.25 186.938 140.375 186.75 140.375C186.594 140.375 186.461 140.312 186.352 140.188C186.258 140.062 186.211 139.891 186.211 139.672C186.211 139.391 186.234 139.094 186.281 138.781C186.344 138.453 186.398 138.125 186.445 137.797C186.508 137.453 186.562 137.117 186.609 136.789C186.672 136.445 186.703 136.109 186.703 135.781C186.703 135.172 186.633 134.68 186.492 134.305C186.367 133.914 186.062 133.719 185.578 133.719C185.266 133.719 184.977 133.789 184.711 133.93C184.445 134.055 184.258 134.117 184.148 134.117C184.023 134.117 183.914 134.055 183.82 133.93C183.742 133.805 183.703 133.672 183.703 133.531C183.703 133.359 183.766 133.211 183.891 133.086C184.031 132.945 184.203 132.836 184.406 132.758C184.609 132.664 184.836 132.594 185.086 132.547C185.336 132.5 185.578 132.477 185.812 132.477C186.141 132.477 186.445 132.547 186.727 132.688C187.023 132.812 187.266 133.008 187.453 133.273ZM183.094 132.664C183.078 132.945 183.07 133.234 183.07 133.531C183.07 133.812 183.07 134.102 183.07 134.398C183.07 135.195 183.086 135.984 183.117 136.766C183.164 137.531 183.234 138.227 183.328 138.852C183.328 139.117 183.266 139.312 183.141 139.438C183.031 139.547 182.891 139.602 182.719 139.602C182.562 139.602 182.422 139.547 182.297 139.438C182.172 139.328 182.094 139.164 182.062 138.945C181.969 138.258 181.898 137.539 181.852 136.789C181.805 136.039 181.781 135.266 181.781 134.469C181.781 134.266 181.773 134.031 181.758 133.766C181.742 133.5 181.75 133.25 181.781 133.016C181.812 132.781 181.875 132.586 181.969 132.43C182.078 132.258 182.25 132.172 182.484 132.172C182.641 132.172 182.781 132.227 182.906 132.336C183.031 132.43 183.094 132.539 183.094 132.664ZM195.891 132.43C196.078 132.352 196.219 132.312 196.312 132.312C196.438 132.312 196.562 132.352 196.688 132.43C196.797 132.414 196.914 132.398 197.039 132.383C197.18 132.352 197.297 132.336 197.391 132.336C197.906 132.336 198.375 132.445 198.797 132.664C199.219 132.867 199.578 133.148 199.875 133.508C200.188 133.867 200.43 134.289 200.602 134.773C200.773 135.258 200.859 135.773 200.859 136.32C200.859 136.805 200.766 137.273 200.578 137.727C200.406 138.164 200.156 138.555 199.828 138.898C199.516 139.242 199.148 139.516 198.727 139.719C198.305 139.922 197.859 140.023 197.391 140.023C196.812 140.023 196.281 139.93 195.797 139.742C195.312 139.555 194.898 139.297 194.555 138.969C194.211 138.641 193.938 138.25 193.734 137.797C193.547 137.344 193.453 136.852 193.453 136.32C193.453 135.898 193.5 135.469 193.594 135.031C193.688 134.578 193.836 134.164 194.039 133.789C194.242 133.414 194.492 133.102 194.789 132.852C195.102 132.602 195.469 132.461 195.891 132.43ZM196.172 133.648C195.844 133.695 195.594 133.82 195.422 134.023C195.25 134.211 195.117 134.438 195.023 134.703C194.945 134.969 194.898 135.25 194.883 135.547C194.867 135.828 194.859 136.086 194.859 136.32C194.859 136.602 194.906 136.891 195 137.188C195.094 137.469 195.242 137.727 195.445 137.961C195.664 138.18 195.93 138.359 196.242 138.5C196.555 138.641 196.938 138.711 197.391 138.711C197.734 138.711 198.039 138.648 198.305 138.523C198.586 138.383 198.812 138.203 198.984 137.984C199.172 137.75 199.312 137.492 199.406 137.211C199.5 136.93 199.547 136.633 199.547 136.32C199.547 135.508 199.352 134.844 198.961 134.328C198.57 133.797 198.047 133.508 197.391 133.461H196.945C196.82 133.461 196.688 133.492 196.547 133.555C196.406 133.617 196.281 133.648 196.172 133.648ZM205.031 132.898C205.281 132.742 205.57 132.633 205.898 132.57C206.242 132.508 206.594 132.477 206.953 132.477C207.453 132.508 207.883 132.594 208.242 132.734C208.602 132.875 208.898 133.086 209.133 133.367C209.367 133.633 209.539 133.984 209.648 134.422C209.758 134.844 209.812 135.367 209.812 135.992C209.812 136.633 209.781 137.234 209.719 137.797C209.656 138.344 209.57 138.828 209.461 139.25C209.352 139.656 209.219 139.977 209.062 140.211C208.922 140.461 208.758 140.586 208.57 140.586C208.43 140.586 208.305 140.539 208.195 140.445C208.086 140.352 208.031 140.203 208.031 140C208.031 139.797 208.055 139.539 208.102 139.227C208.164 138.898 208.227 138.555 208.289 138.195C208.367 137.82 208.43 137.445 208.477 137.07C208.539 136.68 208.57 136.32 208.57 135.992C208.57 135.539 208.531 135.18 208.453 134.914C208.391 134.633 208.289 134.414 208.148 134.258C208.023 134.086 207.859 133.969 207.656 133.906C207.453 133.828 207.219 133.773 206.953 133.742C206.625 133.742 206.297 133.797 205.969 133.906C205.641 134.016 205.359 134.07 205.125 134.07C204.984 134.07 204.867 134.016 204.773 133.906C204.695 133.797 204.656 133.672 204.656 133.531C204.656 133.422 204.68 133.312 204.727 133.203C204.789 133.078 204.891 132.977 205.031 132.898ZM204 132.664C204 133.695 204.008 134.742 204.023 135.805C204.039 136.852 204.109 137.805 204.234 138.664V138.828C204.234 139.094 204.164 139.297 204.023 139.438C203.898 139.562 203.758 139.625 203.602 139.625C203.461 139.625 203.328 139.562 203.203 139.438C203.078 139.312 203 139.117 202.969 138.852C202.891 138.102 202.828 137.328 202.781 136.531C202.734 135.734 202.711 134.914 202.711 134.07C202.711 133.898 202.703 133.703 202.688 133.484C202.672 133.266 202.672 133.062 202.688 132.875C202.719 132.672 202.781 132.508 202.875 132.383C202.984 132.242 203.148 132.172 203.367 132.172C203.523 132.172 203.664 132.227 203.789 132.336C203.93 132.43 204 132.539 204 132.664Z" fill="black"/>
<defs>
<linearGradient id="paint0_linear" x1="106.868" y1="144.847" x2="141.581" y2="134.782" gradientUnits="userSpaceOnUse">
<stop stop-color="#F76748"/>
<stop offset="0.515625" stop-color="#F78A7D"/>
</linearGradient>
<linearGradient id="paint1_linear" x1="109.858" y1="116.719" x2="143.556" y2="103.653" gradientUnits="userSpaceOnUse">
<stop stop-color="#F76748"/>
<stop offset="0.515625" stop-color="#F78A7D"/>
</linearGradient>
</defs>
</svg>
