<svg width="64" height="64" viewBox="0 0 64 64" fill="none" xmlns="http://www.w3.org/2000/svg">
<path d="M3 47V51H54C55.65 51 57 52.35 57 54C57 55.65 55.65 57 54 57H3V61H54C57.866 61 61 57.866 61 54C61 50.134 57.866 47 54 47H13H3Z" fill="#06AAE9"/>
<path d="M13 33V37H54C55.65 37 57 38.35 57 40C57 41.65 55.65 43 54 43H13V47H54C57.866 47 61 43.866 61 40C61 36.134 57.866 33 54 33H23H13Z" fill="#F4462D"/>
<path d="M27 19H23V23H54C55.65 23 57 24.35 57 26C57 27.65 55.65 29 54 29H23V33H54C57.866 33 61 29.866 61 26C61 22.134 57.866 19 54 19H43H27Z" fill="#F8CF26"/>
<path d="M27 11L33 7L27 3V11Z" fill="#F4462D"/>
<path d="M57 54C57 52.35 55.65 51 54 51H3C4.65 51 6 52.35 6 54C6 55.65 4.65 57 3 57H54C55.65 57 57 55.65 57 54Z" fill="#F9F5EF"/>
<path d="M57 26C57 24.35 55.65 23 54 23H23C24.65 23 26 24.35 26 26C26 27.65 24.65 29 23 29H54C55.65 29 57 27.65 57 26Z" fill="#F9F5EF"/>
<path d="M57 40C57 38.35 55.65 37 54 37H13C14.65 37 16 38.35 16 40C16 41.65 14.65 43 13 43H54C55.65 43 57 41.65 57 40Z" fill="#F9F5EF"/>
<path d="M55 9L61 7L49 3L37 7L43 9V19H54H55V9Z" fill="#06AAE9"/>
<path d="M61.316 6.05107L49.316 2.05107C49.11 1.98307 48.889 1.98307 48.683 2.05107L36.683 6.05107C36.275 6.18807 36 6.56907 36 7.00007C36 7.43107 36.275 7.81207 36.684 7.94907L42 9.72107V18.0001H28V11.5351L33.555 7.83207C33.833 7.64607 34 7.33407 34 7.00007C34 6.66607 33.833 6.35407 33.555 6.16807L27.555 2.16807C27.247 1.96207 26.852 1.94307 26.529 2.11807C26.203 2.29207 26 2.63107 26 3.00007V18.0001H23C22.448 18.0001 22 18.4481 22 19.0001V23.0001C22 23.5521 22.448 24.0001 23 24.0001C24.103 24.0001 25 24.8971 25 26.0001C25 27.1031 24.103 28.0001 23 28.0001C22.448 28.0001 22 28.4481 22 29.0001V32.0001H13C12.448 32.0001 12 32.4481 12 33.0001V37.0001C12 37.5521 12.448 38.0001 13 38.0001C14.103 38.0001 15 38.8971 15 40.0001C15 41.1031 14.103 42.0001 13 42.0001C12.448 42.0001 12 42.4481 12 43.0001V46.0001H6V45.0001H4V46.0001H3C2.448 46.0001 2 46.4481 2 47.0001V51.0001C2 51.5521 2.448 52.0001 3 52.0001C4.103 52.0001 5 52.8971 5 54.0001C5 55.1031 4.103 56.0001 3 56.0001C2.448 56.0001 2 56.4481 2 57.0001V61.0001C2 61.5521 2.448 62.0001 3 62.0001H54C58.411 62.0001 62 58.4111 62 54.0001C62 50.9901 60.327 48.3651 57.864 47.0001C60.327 45.6351 62 43.0101 62 40.0001C62 36.9901 60.327 34.3651 57.864 33.0001C60.327 31.6351 62 29.0101 62 26.0001C62 22.2811 59.445 19.1551 56 18.2631V9.72107L60 8.38807V13.0001H62V7.00007C62 6.56907 61.725 6.18807 61.316 6.05107ZM28 4.86907L31.197 7.00007L28 9.13107V4.86907ZM60 54.0001C60 57.3091 57.309 60.0001 54 60.0001H4V58.0001H54C56.206 58.0001 58 56.2061 58 54.0001C58 51.7941 56.206 50.0001 54 50.0001H4V48.0001H13H54C57.309 48.0001 60 50.6911 60 54.0001ZM6.463 52.0001H54C55.103 52.0001 56 52.8971 56 54.0001C56 55.1031 55.103 56.0001 54 56.0001H6.463C6.805 55.4111 7 54.7281 7 54.0001C7 53.2721 6.805 52.5891 6.463 52.0001ZM60 40.0001C60 43.3091 57.309 46.0001 54 46.0001H14V44.0001H54C56.206 44.0001 58 42.2061 58 40.0001C58 37.7941 56.206 36.0001 54 36.0001H14V34.0001H23H54C57.309 34.0001 60 36.6911 60 40.0001ZM16.463 38.0001H54C55.103 38.0001 56 38.8971 56 40.0001C56 41.1031 55.103 42.0001 54 42.0001H16.463C16.805 41.4111 17 40.7281 17 40.0001C17 39.2721 16.805 38.5891 16.463 38.0001ZM60 26.0001C60 29.3091 57.309 32.0001 54 32.0001H24V30.0001H54C56.206 30.0001 58 28.2061 58 26.0001C58 23.7941 56.206 22.0001 54 22.0001H24V20.0001H43H54C57.309 20.0001 60 22.6911 60 26.0001ZM26.463 24.0001H54C55.103 24.0001 56 24.8971 56 26.0001C56 27.1031 55.103 28.0001 54 28.0001H26.463C26.805 27.4111 27 26.7281 27 26.0001C27 25.2721 26.805 24.5891 26.463 24.0001ZM54 18.0001H44V10.3881L48.684 11.9491C48.787 11.9831 48.893 12.0001 49 12.0001C49.107 12.0001 49.213 11.9831 49.316 11.9491L54 10.3881V18.0001ZM54.684 8.05107L49 9.94607L43.316 8.05107L40.162 7.00007L49 4.05407L57.838 7.00007L54.684 8.05107Z" fill="black"/>
<path d="M6 37.0898H4V39.0668H6V37.0898Z" fill="black"/>
<path d="M10.1133 32.1232L11.8523 32.8182L12.5943 30.9602L10.7353 30.2192L10.1133 32.1232Z" fill="black"/>
<path d="M6 41.0449H4V43.0229H6V41.0449Z" fill="black"/>
<path d="M8.58206 31.9341L8.30106 29.9541C7.48906 30.0701 6.70706 30.3901 6.03906 30.8801L7.22306 32.4921C7.62506 32.1961 8.09506 32.0031 8.58206 31.9341Z" fill="black"/>
<path d="M6 34.9082C6 34.4532 6.096 34.0202 6.286 33.6222L4.479 32.7642C4.161 33.4332 4 34.1542 4 34.9082V35.1132H6V34.9082Z" fill="black"/>
<path d="M21.9038 14.7842L21.2428 15.7392L20.6738 16.3542L22.1188 17.6922L23.4788 16.2262L21.9998 14.8572L21.9038 14.7842Z" fill="black"/>
<path d="M17.9107 16.0598C18.3807 15.8738 18.8767 15.8078 19.3757 15.8708L19.6267 13.8868C18.7907 13.7808 17.9597 13.8918 17.1777 14.1998L17.9107 16.0598Z" fill="black"/>
<path d="M16 24.0249H14V26.0189H16V24.0249Z" fill="black"/>
<path d="M16 28.0132H14V30.0072H16V28.0132Z" fill="black"/>
<path d="M16.6977 16.924L15.1757 15.627C14.6337 16.263 14.2607 17.034 14.0977 17.856L16.0597 18.245C16.1577 17.75 16.3727 17.306 16.6977 16.924Z" fill="black"/>
<path d="M16 20.0381H14V22.0321H16V20.0381Z" fill="black"/>
</svg>
