<svg width="205" height="210" viewBox="0 0 205 210" fill="none" xmlns="http://www.w3.org/2000/svg">
<g clip-path="url(#clip0)">
<rect width="205" height="210" fill="white"/>
<path opacity="0.3" fill-rule="evenodd" clip-rule="evenodd" d="M37.497 165.51C37.497 165.51 58.5656 200.692 95.9516 202.161C141.288 203.935 125.562 145.168 167.913 134.278C210.263 123.389 212.125 20.8981 123.966 2.5438C35.8074 -15.8105 -27.4847 64.3752 37.497 165.51Z" fill="#FFCFEA"/>
<g clip-path="url(#clip1)">
<path opacity="0.246" d="M148.129 206.168C148.784 202.054 125.866 194.99 96.9391 190.39C68.0127 185.79 44.0323 185.397 43.3773 189.511C42.7224 193.626 65.6409 200.69 94.5673 205.289C123.494 209.889 147.474 210.282 148.129 206.168Z" fill="#BFB9FF"/>
<path d="M80.9508 33.4144L55.9237 179.834C55.7848 180.66 55.7262 181.497 55.7489 182.334C55.7628 182.738 55.7972 183.142 55.852 183.543L55.9461 184.148C56.163 185.324 56.5511 186.462 57.0979 187.525C57.3702 188.054 57.6787 188.563 58.0212 189.048C58.3663 189.528 58.7421 189.984 59.1462 190.415C59.4196 190.697 59.7064 190.975 60.0022 191.239C60.3025 191.499 60.6118 191.745 60.9345 191.974C61.4254 192.322 61.9406 192.635 62.4762 192.91C62.8348 193.093 63.2068 193.259 63.5833 193.407C64.3666 193.707 65.1771 193.93 66.0035 194.074L126.097 204.332C126.969 204.482 127.854 204.537 128.737 204.498L129.163 204.471L129.638 204.426C130.294 204.346 130.943 204.215 131.579 204.037C131.895 203.944 132.205 203.841 132.506 203.728L132.928 203.562C133.223 203.441 133.51 203.302 133.793 203.159C134.672 202.708 135.495 202.154 136.244 201.51C136.54 201.25 136.831 200.982 137.105 200.691C137.518 200.26 137.899 199.798 138.243 199.311C138.715 198.658 139.117 197.959 139.444 197.223V197.223C139.867 196.275 140.168 195.277 140.341 194.254L165.368 47.8293C165.919 44.6027 165.165 41.2896 163.272 38.6184C161.379 35.9472 158.503 34.1366 155.275 33.5846L95.2033 23.3222C91.9743 22.7719 88.6588 23.5259 85.986 25.4185C83.3132 27.3111 81.502 30.1873 80.9508 33.4144V33.4144Z" fill="#292929"/>
<path d="M83.6261 33.8712L58.599 180.313C58.4873 180.96 58.4422 181.615 58.4645 182.271C58.4697 182.578 58.4952 182.885 58.5407 183.189L58.6304 183.736C58.7992 184.635 59.1013 185.505 59.5268 186.316C59.7386 186.719 59.9767 187.108 60.2394 187.48C60.5107 187.862 60.8103 188.223 61.1358 188.56C61.2926 188.726 61.4854 188.914 61.7095 189.115L61.7991 189.196C61.9823 189.365 62.1738 189.525 62.3728 189.675L62.5162 189.774C62.8565 190.02 63.2145 190.24 63.5874 190.432L63.7129 190.5C64.0132 190.652 64.2955 190.773 64.5689 190.889C65.1848 191.12 65.821 191.293 66.4693 191.404L126.563 201.667C127.241 201.784 127.929 201.827 128.616 201.797C128.849 201.797 129.064 201.77 129.306 201.743C129.827 201.681 130.343 201.577 130.848 201.434C131.09 201.362 131.336 201.282 131.547 201.197L131.847 201.085L131.914 201.053C132.136 200.965 132.353 200.864 132.564 200.753C133.25 200.395 133.894 199.961 134.483 199.458C134.714 199.261 134.935 199.051 135.146 198.831C135.866 198.071 136.462 197.202 136.912 196.256L136.974 196.117C137.304 195.376 137.537 194.596 137.669 193.796L162.696 47.3722C163.122 44.8552 162.532 42.272 161.055 40.1894C159.578 38.1068 157.334 36.6948 154.817 36.2632L94.7458 26.0052C92.228 25.5779 89.6434 26.166 87.5588 27.6406C85.4743 29.1152 84.06 31.3558 83.6261 33.8712V33.8712Z" fill="#F8F8F8"/>
<path opacity="0.2" d="M63.1216 139.291C63.153 138.735 63.1754 138.072 63.1889 137.32L61.2168 148.863C61.862 147.741 62.444 146.583 62.9603 145.396C63.3547 144.227 63.2695 141.598 63.1216 139.291Z" fill="#292929"/>
<path d="M74.6138 70.491L77.5674 53.2048C76.9202 53.0943 76.2557 53.2451 75.7196 53.6238C75.1835 54.0026 74.8196 54.5784 74.7079 55.225L72.588 67.6331C72.4776 68.2805 72.629 68.9453 73.0089 69.4812C73.3887 70.0171 73.966 70.3803 74.6138 70.491V70.491Z" fill="#292929"/>
<path d="M160.788 67.4312L162.186 67.6686C162.462 67.7157 162.709 67.8705 162.871 68.0989C163.033 68.3273 163.098 68.6108 163.051 68.887L161.931 75.4494C161.882 75.7258 161.727 75.972 161.497 76.134C161.268 76.296 160.984 76.3607 160.707 76.3139L159.309 76.072L160.788 67.4312V67.4312Z" fill="#292929"/>
<path d="M159.004 77.8369L160.407 78.0788C160.543 78.1021 160.674 78.1521 160.791 78.226C160.909 78.2999 161.01 78.3962 161.09 78.5094C161.17 78.6226 161.227 78.7505 161.257 78.8857C161.288 79.0209 161.291 79.1607 161.267 79.2972L160.147 85.8551C160.1 86.1312 159.945 86.3774 159.716 86.5395C159.488 86.7016 159.204 86.7664 158.928 86.7197L157.529 86.4822L159.004 77.8369Z" fill="#292929"/>
<path d="M115.219 33.2623L133.089 36.3128C134.532 36.5595 136.014 36.2234 137.209 35.3784C138.404 34.5333 139.214 33.2485 139.462 31.8065L110.706 26.897C110.584 27.6111 110.604 28.3424 110.764 29.0489C110.925 29.7554 111.224 30.4233 111.643 31.0144C112.062 31.6055 112.593 32.1083 113.207 32.494C113.821 32.8797 114.504 33.1408 115.219 33.2623V33.2623Z" fill="#292929"/>
<path d="M94.3609 42.5871L87.4062 82.0073L142.826 91.774L149.781 52.3537L94.3609 42.5871Z" fill="white"/>
<path fill-rule="evenodd" clip-rule="evenodd" d="M122.198 70.728L115.65 64.9585L114.072 73.9174L122.198 70.728Z" fill="#F8BED7"/>
<path d="M86.9348 92.5074L80.5918 130.76L134.925 139.759L141.268 101.507L86.9348 92.5074Z" fill="white"/>
<path d="M86.9367 92.5017L85.5488 100.872L139.882 109.871L141.27 101.501L86.9367 92.5017Z" fill="#AFE9FF"/>
<path d="M106.195 111.842L105.912 113.547L132.225 117.906L132.508 116.2L106.195 111.842Z" fill="#BFB9FF"/>
<path d="M105.619 115.341L105.336 117.046L131.649 121.405L131.932 119.699L105.619 115.341Z" fill="#BFB9FF"/>
<path d="M105.038 118.84L104.758 120.533L125.447 123.96L125.727 122.267L105.038 118.84Z" fill="#BFB9FF"/>
<path d="M104.457 122.332L104.174 124.042L118.231 126.366L118.514 124.656L104.457 122.332Z" fill="#BFB9FF"/>
<path d="M88.66 108.869L86.584 121.388L101.078 123.789L103.154 111.269L88.66 108.869Z" fill="#FBF4A3"/>
<path d="M91.8325 97.7799C91.8054 97.9415 91.731 98.0915 91.6187 98.2109C91.5063 98.3303 91.3611 98.4137 91.2013 98.4506C91.0416 98.4875 90.8744 98.4762 90.7211 98.4181C90.5677 98.3601 90.435 98.2579 90.3398 98.1245C90.2445 97.9911 90.191 97.8325 90.1859 97.6687C90.1809 97.5049 90.2246 97.3432 90.3114 97.2042C90.3983 97.0652 90.5244 96.9551 90.6739 96.8877C90.8234 96.8203 90.9895 96.7988 91.1512 96.8258V96.8258C91.2587 96.8437 91.3615 96.8826 91.4539 96.9402C91.5463 96.9979 91.6264 97.0732 91.6896 97.1618C91.7529 97.2504 91.7981 97.3506 91.8226 97.4566C91.8471 97.5627 91.8505 97.6725 91.8325 97.7799V97.7799Z" fill="white"/>
<path d="M94.9438 98.295C94.9168 98.4567 94.8424 98.6067 94.73 98.726C94.6177 98.8454 94.4724 98.9288 94.3127 98.9657C94.1529 99.0026 93.9858 98.9913 93.8324 98.9333C93.6791 98.8752 93.5464 98.7731 93.4511 98.6397C93.3559 98.5062 93.3023 98.3476 93.2973 98.1838C93.2922 98.02 93.3359 97.8584 93.4227 97.7194C93.5096 97.5803 93.6357 97.4702 93.7852 97.4028C93.9347 97.3355 94.1008 97.3139 94.2626 97.3409C94.479 97.3782 94.6719 97.4993 94.7995 97.678C94.927 97.8566 94.9789 98.0784 94.9438 98.295V98.295Z" fill="white"/>
<path d="M98.0572 98.8099C98.0303 98.9715 97.9562 99.1214 97.8441 99.2408C97.732 99.3602 97.5871 99.4438 97.4275 99.481C97.268 99.5182 97.101 99.5073 96.9477 99.4497C96.7943 99.3921 96.6615 99.2904 96.5659 99.1574C96.4703 99.0244 96.4163 98.8661 96.4106 98.7025C96.405 98.5388 96.448 98.3772 96.5342 98.238C96.6204 98.0987 96.7459 97.9881 96.8949 97.9201C97.0439 97.8521 97.2098 97.8297 97.3715 97.8558C97.5887 97.8921 97.7827 98.0128 97.9112 98.1915C98.0397 98.3703 98.0922 98.5926 98.0572 98.8099Z" fill="white"/>
<path d="M132.551 149.365L126.277 187.481L72.1035 178.558L78.3782 140.438L132.547 149.361L132.551 149.365Z" fill="url(#paint0_linear)"/>
<path d="M78.3982 140.436L77.0176 148.78L131.168 157.73L132.548 149.386L78.3982 140.436Z" fill="#AFE9FF"/>
<path d="M97.611 159.697L97.3301 161.398L123.553 165.723L123.834 164.022L97.611 159.697Z" fill="#BFB9FF"/>
<path d="M97.0374 163.184L96.7559 164.885L122.982 169.22L123.264 167.518L97.0374 163.184Z" fill="#BFB9FF"/>
<path d="M96.4606 166.672L96.1797 168.374L122.403 172.699L122.684 170.997L96.4606 166.672Z" fill="#BFB9FF"/>
<path d="M95.8864 170.162L95.6055 171.864L121.829 176.188L122.11 174.487L95.8864 170.162Z" fill="#BFB9FF"/>
<path d="M83.1782 145.656C83.1541 145.798 83.0886 145.929 82.99 146.033C82.8914 146.137 82.7641 146.21 82.6242 146.242C82.4843 146.274 82.3381 146.263 82.204 146.212C82.0699 146.161 81.9539 146.072 81.8707 145.955C81.7875 145.838 81.7409 145.699 81.7366 145.556C81.7324 145.412 81.7708 145.271 81.8469 145.149C81.923 145.028 82.0334 144.931 82.1643 144.873C82.2951 144.814 82.4405 144.795 82.5821 144.819V144.819C82.6763 144.834 82.7665 144.868 82.8475 144.919C82.9285 144.97 82.9987 145.036 83.0541 145.114C83.1095 145.191 83.1489 145.279 83.1702 145.373C83.1915 145.466 83.1942 145.562 83.1782 145.656V145.656Z" fill="white"/>
<path d="M85.9068 146.104C85.8829 146.245 85.8176 146.376 85.7193 146.481C85.621 146.585 85.494 146.658 85.3543 146.69C85.2146 146.722 85.0686 146.712 84.9344 146.662C84.8003 146.611 84.6842 146.522 84.6007 146.406C84.5172 146.289 84.4701 146.151 84.4653 146.007C84.4604 145.864 84.4981 145.723 84.5735 145.601C84.649 145.479 84.7588 145.382 84.8892 145.323C85.0196 145.263 85.1647 145.244 85.3062 145.267C85.4968 145.298 85.667 145.404 85.7796 145.561C85.8922 145.718 85.9379 145.914 85.9068 146.104V146.104Z" fill="white"/>
<path d="M88.6373 146.556C88.6133 146.698 88.5481 146.829 88.4498 146.933C88.3514 147.037 88.2244 147.11 88.0848 147.142C87.9451 147.174 87.799 147.165 87.6649 147.114C87.5308 147.063 87.4147 146.974 87.3312 146.858C87.2477 146.741 87.2006 146.603 87.1957 146.46C87.1909 146.316 87.2286 146.175 87.304 146.053C87.3795 145.931 87.4893 145.835 87.6197 145.775C87.7501 145.716 87.8951 145.696 88.0367 145.719V145.719C88.1313 145.734 88.222 145.768 88.3035 145.818C88.385 145.869 88.4557 145.935 88.5116 146.012C88.5674 146.09 88.6073 146.178 88.6288 146.272C88.6504 146.365 88.6533 146.462 88.6373 146.556V146.556Z" fill="white"/>
<path d="M94.1528 42.546L92.6973 50.8726L148.318 60.5846L149.774 52.258L94.1528 42.546Z" fill="#F8BED7"/>
<path d="M98.843 48.0131C98.8197 48.1549 98.7548 48.2865 98.6566 48.3914C98.5584 48.4963 98.4313 48.5697 98.2913 48.6023C98.1513 48.6349 98.0048 48.6253 97.8703 48.5746C97.7359 48.5239 97.6194 48.4345 97.5358 48.3177C97.4523 48.2008 97.4052 48.0618 97.4007 47.9182C97.3963 47.7747 97.4345 47.633 97.5106 47.5112C97.5868 47.3893 97.6974 47.2928 97.8284 47.2339C97.9595 47.1749 98.1051 47.1562 98.2469 47.18C98.4363 47.2118 98.6054 47.3173 98.7171 47.4735C98.8288 47.6297 98.8741 47.8237 98.843 48.0131V48.0131Z" fill="white"/>
<path d="M101.573 48.4655C101.549 48.6068 101.484 48.7378 101.385 48.842C101.287 48.9463 101.16 49.0191 101.02 49.0514C100.881 49.0836 100.735 49.0738 100.6 49.0232C100.466 48.9726 100.35 48.8835 100.267 48.767C100.183 48.6506 100.136 48.512 100.131 48.3688C100.126 48.2256 100.164 48.0842 100.24 47.9624C100.315 47.8406 100.425 47.7438 100.555 47.6843C100.686 47.6247 100.831 47.6051 100.972 47.6279V47.6279C101.067 47.6431 101.158 47.6769 101.239 47.7273C101.321 47.7777 101.391 47.8438 101.447 47.9216C101.503 47.9995 101.543 48.0877 101.564 48.181C101.586 48.2744 101.589 48.3711 101.573 48.4655V48.4655Z" fill="white"/>
<path d="M104.302 48.9133C104.279 49.0549 104.214 49.1865 104.116 49.2914C104.018 49.3964 103.892 49.4699 103.752 49.5028C103.612 49.5357 103.466 49.5265 103.331 49.4762C103.197 49.426 103.08 49.3371 102.996 49.2207C102.912 49.1042 102.865 48.9656 102.86 48.8222C102.855 48.6788 102.892 48.5371 102.968 48.415C103.043 48.293 103.153 48.196 103.284 48.1364C103.414 48.0768 103.56 48.0572 103.701 48.0801C103.796 48.0954 103.886 48.129 103.967 48.1791C104.048 48.2293 104.119 48.2949 104.175 48.3723C104.23 48.4497 104.27 48.5373 104.292 48.6301C104.314 48.7229 104.317 48.8192 104.302 48.9133V48.9133Z" fill="white"/>
<path d="M80.9111 163.959C80.9111 180.475 66.8647 193.864 49.5376 193.864C32.2104 193.864 18.1641 180.475 18.1641 163.959C18.1641 147.443 32.2104 134.05 49.5376 134.05C66.8647 134.05 80.9111 147.439 80.9111 163.959Z" fill="#A3DCF9"/>
<path d="M80.204 192.314L82.9425 155.896C82.9425 152.832 79.953 150.395 76.8829 150.395C73.8128 150.395 71.4688 153.28 71.4688 156.348L73.8442 192.444L80.204 192.314Z" fill="#FDE1B2"/>
<path d="M92.4028 192.856C92.4028 192.856 95.1189 167.238 95.4012 156.42C95.5357 151.399 92.1698 149.701 89.1265 149.701C86.0833 149.701 83.9902 153.343 83.9902 156.42L86.164 192.61L92.4028 192.856Z" fill="#FDE1B2"/>
<path d="M94.9216 137.338C94.7871 130.789 90.2066 129.275 83.9543 127.111C80.1267 125.767 66.9723 120.84 50.1606 119.863C49.9006 119.863 43.6797 127.478 43.6797 131.331V131.716C43.6797 133.555 44.4105 135.32 45.7115 136.621C47.0125 137.922 48.7772 138.653 50.6177 138.655H79.9654C82.8786 144.151 83.2954 150.803 83.9991 157.853C84.1784 159.569 85.7919 160.77 87.9074 161.204C90.964 161.84 95.1188 160.366 95.3698 155.547C95.6028 151.376 94.9754 140.178 94.9216 137.338Z" fill="#FDE1B2"/>
<path d="M82.9019 156.85C83.7131 145.817 83.2515 133.028 77.7477 130.847C70.3973 127.935 62.1819 123.926 48.27 120.894L39.965 120.401C39.965 120.401 39.8261 121.915 37.4282 129.225C35.3621 135.555 39.8888 139.819 45.6929 139.68C51.376 139.546 63.7999 137.311 68.4118 140.711C71.9167 143.295 70.2539 161.101 72.9296 162.66C76.1342 164.541 82.3461 164.367 82.9019 156.85Z" fill="#FDE1B2"/>
<path d="M82.7719 157.795H96.137C96.1101 152.716 95.6888 139.174 95.644 136.827C95.5095 130.278 90.9335 128.764 84.6812 126.605C73.5214 122.861 61.9191 120.595 50.1703 119.863C49.9148 119.863 43.6895 127.478 43.6895 131.331V131.716C43.6906 133.553 44.4206 135.316 45.7194 136.616C47.0182 137.917 48.7799 138.65 50.6185 138.655H79.9662C82.1802 142.816 82.2071 152.644 82.7719 157.795Z" fill="#F8BED7"/>
<path d="M67.8862 140.894C69.7238 142.238 69.9613 151.502 70.3243 156.689H83.1964C83.5908 146.78 82.5869 132.778 77.7464 130.86C70.396 127.949 62.1807 123.94 48.2688 120.907L39.9638 120.401C39.9638 120.401 39.4035 122.121 37.0057 129.436C34.9395 135.765 39.8876 139.819 45.6917 139.685C51.3703 139.551 63.2698 137.485 67.8862 140.894Z" fill="#FFCFEA"/>
<path d="M95.2623 193.479C97.8931 194.903 103.388 196.108 104.065 199.033C104.742 201.958 96.4141 202.146 86.899 196.345C86.0788 195.848 85.1286 194.298 86.1415 191.929C86.1415 191.929 90.3994 193.501 92.5776 191.44C93.3853 192.227 94.287 192.912 95.2623 193.479Z" fill="#805A43"/>
<path d="M82.9362 193.34C85.5671 194.764 91.0575 195.965 91.7342 198.894C92.411 201.824 84.8948 200.924 74.6312 196.552C73.6945 196.153 73.1477 193.752 73.82 191.884C73.82 191.884 78.1271 193.107 80.2246 191.436C81.0653 192.156 81.9733 192.794 82.9362 193.34V193.34Z" fill="#674531"/>
<path d="M53.7765 53.0971C53.7765 53.0971 41.0747 50.3154 40.1515 75.7183C39.5867 91.3113 31.5551 102.658 36.2029 107.702C40.8506 112.745 62.0098 100.087 62.0098 100.087C62.0098 100.087 72.0897 51.9549 53.7765 53.0971Z" fill="#805A43"/>
<path d="M67.8643 122.381C66.8917 125.091 40.9234 122.73 39.9598 121.01C38.5166 118.421 43.6798 109.758 41.5644 91.6426C40.7935 85.013 42.64 82.173 43.8053 80.8292C45.504 78.8806 50.9271 78.8403 50.9271 78.8403L56.3054 78.8851C56.3054 78.8851 57.8248 78.9299 60.2495 80.8202C61.4507 81.7654 65.3006 88.3054 65.5113 94.5318C65.6233 97.887 72.1221 100.212 72.5972 108.261C73.2112 118.663 67.8643 122.381 67.8643 122.381Z" fill="#BFB9FF"/>
<path d="M62.2038 63.9239C61.7556 70.867 60.6575 73.2725 58.4031 75.221C57.2737 76.1931 54.9341 76.1931 53.473 76.1931C48.4981 76.1931 45.5266 72.1347 44.7467 63.8701C44.1775 57.8139 48.0633 53.6973 53.5985 53.6973C59.1337 53.6973 62.6654 56.8418 62.2038 63.9239Z" fill="#FDE1B2"/>
<path d="M56.0984 75.0869H51.0428C51.2759 75.9335 51.5493 77.6223 50.5319 78.8586C49.3755 80.2652 57.5819 80.4219 56.5466 78.8989C56.1826 78.3412 55.9527 77.7068 55.8749 77.0455C55.7972 76.3841 55.8737 75.7138 56.0984 75.0869V75.0869Z" fill="#FDE1B2"/>
<path d="M56.9539 59.3145C55.6154 61.4705 53.8036 63.2938 51.6558 64.6465C49.508 65.9992 47.0805 66.8458 44.5569 67.1222C44.5569 67.1222 42.2442 53.5136 52.9964 53.1822C52.9964 53.1822 63.4617 52.7656 62.4084 64.0045C62.4308 64.0045 59.2352 64.4211 56.9539 59.3145Z" fill="#805A43"/>
<path d="M46.5086 67.8794C46.5086 67.8794 47.5215 73.7027 50.2734 75.4944C50.2734 75.4944 46.4952 74.9435 45.2402 68.0272L46.5086 67.8794Z" fill="#805A43"/>
<path d="M47.0284 68.0542C47.0284 69.2368 48.5209 70.7822 46.8177 70.921C45.8631 71.0017 44.9219 69.7116 44.9219 68.529C44.9219 67.3464 45.2042 65.9175 46.7415 65.9175C47.7007 65.9175 47.0284 66.8761 47.0284 68.0542Z" fill="#FDE1B2"/>
<path d="M47.0144 103.558C47.0144 105.798 45.9702 107.558 43.7337 107.558C40.7218 107.558 39.5879 105.104 39.5879 102.873C39.5879 102.873 40.1795 91.6204 40.6546 87.898C41.3 82.9034 43.1555 80.6861 45.4234 79.7319C46.7097 79.1989 48.4352 80.0007 47.7898 82.3211C46.8352 85.7523 47.1803 87.45 46.7231 91.6204C46.2391 96.0058 47.0144 103.558 47.0144 103.558Z" fill="#FDE1B2"/>
<path d="M69.3471 98.7026C66.0843 99.2939 48.681 99.491 44.8579 100.284C41.3082 101.027 39.3317 102.403 39.9188 105.059C40.4432 107.464 42.3749 108.445 46.2921 107.299L70.3421 102.206L69.3471 98.7026Z" fill="#FDE1B2"/>
<path d="M70.1946 97.5379C70.1946 97.5379 72.4356 95.3878 73.2602 96.1941C74.0849 97.0004 72.3101 98.1695 72.3101 98.1695C72.3101 98.1695 77.2805 96.3778 77.5315 99.164C77.7646 101.735 76.1869 102.273 70.9386 102.461C69.4103 102.501 66.7973 99.9748 70.1946 97.5379Z" fill="#FDE1B2"/>
</g>
</g>
<defs>
<linearGradient id="paint0_linear" x1="93.4802" y1="168.756" x2="17.5666" y2="238.773" gradientUnits="userSpaceOnUse">
<stop stop-color="white"/>
<stop offset="1" stop-color="#D9B7B3"/>
</linearGradient>
<clipPath id="clip0">
<rect width="205" height="210" fill="white"/>
</clipPath>
<clipPath id="clip1">
<rect width="186" height="211" fill="white" transform="translate(18.002 -2)"/>
</clipPath>
</defs>
</svg>
