<svg width="817" height="299" viewBox="0 0 817 299" fill="none" xmlns="http://www.w3.org/2000/svg">
<path d="M6.88477 3.39453H4.14258V11H3.02344V3.39453H0.287109V2.46875H6.88477V3.39453ZM12.9727 7.05664H9.27539V10.0801H13.5703V11H8.15039V2.46875H13.5117V3.39453H9.27539V6.13672H12.9727V7.05664ZM17.7539 5.73828L19.7988 2.46875H21.123L18.4277 6.69922L21.1875 11H19.8516L17.7539 7.67188L15.6445 11H14.3145L17.0801 6.69922L14.3789 2.46875H15.6973L17.7539 5.73828ZM28.3887 3.39453H25.6465V11H24.5273V3.39453H21.791V2.46875H28.3887V3.39453ZM38.6719 8.29297C38.5664 9.19531 38.2324 9.89258 37.6699 10.3848C37.1113 10.873 36.3672 11.1172 35.4375 11.1172C34.4297 11.1172 33.6211 10.7559 33.0117 10.0332C32.4062 9.31055 32.1035 8.34375 32.1035 7.13281V6.3125C32.1035 5.51953 32.2441 4.82227 32.5254 4.2207C32.8105 3.61914 33.2129 3.1582 33.7324 2.83789C34.252 2.51367 34.8535 2.35156 35.5371 2.35156C36.4434 2.35156 37.1699 2.60547 37.7168 3.11328C38.2637 3.61719 38.582 4.31641 38.6719 5.21094H37.541C37.4434 4.53125 37.2305 4.03906 36.9023 3.73438C36.5781 3.42969 36.123 3.27734 35.5371 3.27734C34.8184 3.27734 34.2539 3.54297 33.8438 4.07422C33.4375 4.60547 33.2344 5.36133 33.2344 6.3418V7.16797C33.2344 8.09375 33.4277 8.83008 33.8145 9.37695C34.2012 9.92383 34.7422 10.1973 35.4375 10.1973C36.0625 10.1973 36.541 10.0566 36.873 9.77539C37.209 9.49023 37.4316 8.99609 37.541 8.29297H38.6719ZM46.7754 7.00977C46.7754 7.8457 46.6348 8.57617 46.3535 9.20117C46.0723 9.82227 45.6738 10.2969 45.1582 10.625C44.6426 10.9531 44.041 11.1172 43.3535 11.1172C42.6816 11.1172 42.0859 10.9531 41.5664 10.625C41.0469 10.293 40.6426 9.82227 40.3535 9.21289C40.0684 8.59961 39.9219 7.89062 39.9141 7.08594V6.4707C39.9141 5.65039 40.0566 4.92578 40.3418 4.29688C40.627 3.66797 41.0293 3.1875 41.5488 2.85547C42.0723 2.51953 42.6699 2.35156 43.3418 2.35156C44.0254 2.35156 44.627 2.51758 45.1465 2.84961C45.6699 3.17773 46.0723 3.65625 46.3535 4.28516C46.6348 4.91016 46.7754 5.63867 46.7754 6.4707V7.00977ZM45.6562 6.45898C45.6562 5.44727 45.4531 4.67188 45.0469 4.13281C44.6406 3.58984 44.0723 3.31836 43.3418 3.31836C42.6309 3.31836 42.0703 3.58984 41.6602 4.13281C41.2539 4.67188 41.0449 5.42188 41.0332 6.38281V7.00977C41.0332 7.99023 41.2383 8.76172 41.6484 9.32422C42.0625 9.88281 42.6309 10.1621 43.3535 10.1621C44.0801 10.1621 44.6426 9.89844 45.041 9.37109C45.4395 8.83984 45.6445 8.08008 45.6562 7.0918V6.45898ZM49.5938 10.0801H53.6367V11H48.4629V2.46875H49.5938V10.0801ZM61.0957 7.00977C61.0957 7.8457 60.9551 8.57617 60.6738 9.20117C60.3926 9.82227 59.9941 10.2969 59.4785 10.625C58.9629 10.9531 58.3613 11.1172 57.6738 11.1172C57.002 11.1172 56.4062 10.9531 55.8867 10.625C55.3672 10.293 54.9629 9.82227 54.6738 9.21289C54.3887 8.59961 54.2422 7.89062 54.2344 7.08594V6.4707C54.2344 5.65039 54.377 4.92578 54.6621 4.29688C54.9473 3.66797 55.3496 3.1875 55.8691 2.85547C56.3926 2.51953 56.9902 2.35156 57.6621 2.35156C58.3457 2.35156 58.9473 2.51758 59.4668 2.84961C59.9902 3.17773 60.3926 3.65625 60.6738 4.28516C60.9551 4.91016 61.0957 5.63867 61.0957 6.4707V7.00977ZM59.9766 6.45898C59.9766 5.44727 59.7734 4.67188 59.3672 4.13281C58.9609 3.58984 58.3926 3.31836 57.6621 3.31836C56.9512 3.31836 56.3906 3.58984 55.9805 4.13281C55.5742 4.67188 55.3652 5.42188 55.3535 6.38281V7.00977C55.3535 7.99023 55.5586 8.76172 55.9688 9.32422C56.3828 9.88281 56.9512 10.1621 57.6738 10.1621C58.4004 10.1621 58.9629 9.89844 59.3613 9.37109C59.7598 8.83984 59.9648 8.08008 59.9766 7.0918V6.45898ZM65.9121 7.54883H63.9082V11H62.7773V2.46875H65.6016C66.5625 2.46875 67.3008 2.6875 67.8164 3.125C68.3359 3.5625 68.5957 4.19922 68.5957 5.03516C68.5957 5.56641 68.4512 6.0293 68.1621 6.42383C67.877 6.81836 67.4785 7.11328 66.9668 7.30859L68.9707 10.9297V11H67.7637L65.9121 7.54883ZM63.9082 6.62891H65.6367C66.1953 6.62891 66.6387 6.48438 66.9668 6.19531C67.2988 5.90625 67.4648 5.51953 67.4648 5.03516C67.4648 4.50781 67.3066 4.10352 66.9902 3.82227C66.6777 3.54102 66.2246 3.39844 65.6309 3.39453H63.9082V6.62891ZM72.6914 7.19727C71.7266 6.91992 71.0234 6.58008 70.582 6.17773C70.1445 5.77148 69.9258 5.27148 69.9258 4.67773C69.9258 4.00586 70.1934 3.45117 70.7285 3.01367C71.2676 2.57227 71.9668 2.35156 72.8262 2.35156C73.4121 2.35156 73.9336 2.46484 74.3906 2.69141C74.8516 2.91797 75.207 3.23047 75.457 3.62891C75.7109 4.02734 75.8379 4.46289 75.8379 4.93555H74.707C74.707 4.41992 74.543 4.01562 74.2148 3.72266C73.8867 3.42578 73.4238 3.27734 72.8262 3.27734C72.2715 3.27734 71.8379 3.40039 71.5254 3.64648C71.2168 3.88867 71.0625 4.22656 71.0625 4.66016C71.0625 5.00781 71.209 5.30273 71.502 5.54492C71.7988 5.7832 72.3008 6.00195 73.0078 6.20117C73.7188 6.40039 74.2734 6.62109 74.6719 6.86328C75.0742 7.10156 75.3711 7.38086 75.5625 7.70117C75.7578 8.02148 75.8555 8.39844 75.8555 8.83203C75.8555 9.52344 75.5859 10.0781 75.0469 10.4961C74.5078 10.9102 73.7871 11.1172 72.8848 11.1172C72.2988 11.1172 71.752 11.0059 71.2441 10.7832C70.7363 10.5566 70.3438 10.248 70.0664 9.85742C69.793 9.4668 69.6562 9.02344 69.6562 8.52734H70.7871C70.7871 9.04297 70.9766 9.45117 71.3555 9.75195C71.7383 10.0488 72.248 10.1973 72.8848 10.1973C73.4785 10.1973 73.9336 10.0762 74.25 9.83398C74.5664 9.5918 74.7246 9.26172 74.7246 8.84375C74.7246 8.42578 74.5781 8.10352 74.2852 7.87695C73.9922 7.64648 73.4609 7.41992 72.6914 7.19727Z" fill="black"/>
<line y1="16.5" x2="262" y2="16.5" stroke="#D8D8D8"/>
<path d="M317.99 11V2.46875H320.398C321.141 2.46875 321.797 2.63281 322.367 2.96094C322.938 3.28906 323.377 3.75586 323.686 4.36133C323.998 4.9668 324.156 5.66211 324.16 6.44727V6.99219C324.16 7.79688 324.004 8.50195 323.691 9.10742C323.383 9.71289 322.939 10.1777 322.361 10.502C321.787 10.8262 321.117 10.9922 320.352 11H317.99ZM319.115 3.39453V10.0801H320.299C321.166 10.0801 321.84 9.81055 322.32 9.27148C322.805 8.73242 323.047 7.96484 323.047 6.96875V6.4707C323.047 5.50195 322.818 4.75 322.361 4.21484C321.908 3.67578 321.264 3.40234 320.428 3.39453H319.115ZM331.871 2.46875V8.26953C331.867 9.07422 331.613 9.73242 331.109 10.2441C330.609 10.7559 329.93 11.043 329.07 11.1055L328.771 11.1172C327.838 11.1172 327.094 10.8652 326.539 10.3613C325.984 9.85742 325.703 9.16406 325.695 8.28125V2.46875H326.809V8.24609C326.809 8.86328 326.979 9.34375 327.318 9.6875C327.658 10.0273 328.143 10.1973 328.771 10.1973C329.408 10.1973 329.895 10.0273 330.23 9.6875C330.57 9.34766 330.74 8.86914 330.74 8.25195V2.46875H331.871ZM338.469 7.05664H334.771V10.0801H339.066V11H333.646V2.46875H339.008V3.39453H334.771V6.13672H338.469V7.05664ZM343.443 11V2.46875H345.852C346.594 2.46875 347.25 2.63281 347.82 2.96094C348.391 3.28906 348.83 3.75586 349.139 4.36133C349.451 4.9668 349.609 5.66211 349.613 6.44727V6.99219C349.613 7.79688 349.457 8.50195 349.145 9.10742C348.836 9.71289 348.393 10.1777 347.814 10.502C347.24 10.8262 346.57 10.9922 345.805 11H343.443ZM344.568 3.39453V10.0801H345.752C346.619 10.0801 347.293 9.81055 347.773 9.27148C348.258 8.73242 348.5 7.96484 348.5 6.96875V6.4707C348.5 5.50195 348.271 4.75 347.814 4.21484C347.361 3.67578 346.717 3.40234 345.881 3.39453H344.568ZM355.9 8.77344H352.326L351.523 11H350.363L353.621 2.46875H354.605L357.869 11H356.715L355.9 8.77344ZM352.666 7.84766H355.566L354.113 3.85742L352.666 7.84766ZM364.15 3.39453H361.408V11H360.289V3.39453H357.553V2.46875H364.15V3.39453ZM370.238 7.05664H366.541V10.0801H370.836V11H365.416V2.46875H370.777V3.39453H366.541V6.13672H370.238V7.05664ZM376.344 10.0801H380.387V11H375.213V2.46875H376.344V10.0801ZM386.498 8.77344H382.924L382.121 11H380.961L384.219 2.46875H385.203L388.467 11H387.312L386.498 8.77344ZM383.264 7.84766H386.164L384.711 3.85742L383.264 7.84766ZM389.615 11V2.46875H392.404C393.33 2.46875 394.025 2.66016 394.49 3.04297C394.959 3.42578 395.193 3.99219 395.193 4.74219C395.193 5.14062 395.08 5.49414 394.854 5.80273C394.627 6.10742 394.318 6.34375 393.928 6.51172C394.389 6.64062 394.752 6.88672 395.018 7.25C395.287 7.60938 395.422 8.03906 395.422 8.53906C395.422 9.30469 395.174 9.90625 394.678 10.3438C394.182 10.7812 393.48 11 392.574 11H389.615ZM390.74 7.00977V10.0801H392.598C393.121 10.0801 393.533 9.94531 393.834 9.67578C394.139 9.40234 394.291 9.02734 394.291 8.55078C394.291 7.52344 393.732 7.00977 392.615 7.00977H390.74ZM390.74 6.10742H392.439C392.932 6.10742 393.324 5.98438 393.617 5.73828C393.914 5.49219 394.062 5.1582 394.062 4.73633C394.062 4.26758 393.926 3.92773 393.652 3.7168C393.379 3.50195 392.963 3.39453 392.404 3.39453H390.74V6.10742ZM401.914 7.05664H398.217V10.0801H402.512V11H397.092V2.46875H402.453V3.39453H398.217V6.13672H401.914V7.05664ZM405.043 10.0801H409.086V11H403.912V2.46875H405.043V10.0801ZM412.883 7.19727C411.918 6.91992 411.215 6.58008 410.773 6.17773C410.336 5.77148 410.117 5.27148 410.117 4.67773C410.117 4.00586 410.385 3.45117 410.92 3.01367C411.459 2.57227 412.158 2.35156 413.018 2.35156C413.604 2.35156 414.125 2.46484 414.582 2.69141C415.043 2.91797 415.398 3.23047 415.648 3.62891C415.902 4.02734 416.029 4.46289 416.029 4.93555H414.898C414.898 4.41992 414.734 4.01562 414.406 3.72266C414.078 3.42578 413.615 3.27734 413.018 3.27734C412.463 3.27734 412.029 3.40039 411.717 3.64648C411.408 3.88867 411.254 4.22656 411.254 4.66016C411.254 5.00781 411.4 5.30273 411.693 5.54492C411.99 5.7832 412.492 6.00195 413.199 6.20117C413.91 6.40039 414.465 6.62109 414.863 6.86328C415.266 7.10156 415.562 7.38086 415.754 7.70117C415.949 8.02148 416.047 8.39844 416.047 8.83203C416.047 9.52344 415.777 10.0781 415.238 10.4961C414.699 10.9102 413.979 11.1172 413.076 11.1172C412.49 11.1172 411.943 11.0059 411.436 10.7832C410.928 10.5566 410.535 10.248 410.258 9.85742C409.984 9.4668 409.848 9.02344 409.848 8.52734H410.979C410.979 9.04297 411.168 9.45117 411.547 9.75195C411.93 10.0488 412.439 10.1973 413.076 10.1973C413.67 10.1973 414.125 10.0762 414.441 9.83398C414.758 9.5918 414.916 9.26172 414.916 8.84375C414.916 8.42578 414.77 8.10352 414.477 7.87695C414.184 7.64648 413.652 7.41992 412.883 7.19727Z" fill="black"/>
<path d="M594.119 7.54883H592.115V11H590.984V2.46875H593.809C594.77 2.46875 595.508 2.6875 596.023 3.125C596.543 3.5625 596.803 4.19922 596.803 5.03516C596.803 5.56641 596.658 6.0293 596.369 6.42383C596.084 6.81836 595.686 7.11328 595.174 7.30859L597.178 10.9297V11H595.971L594.119 7.54883ZM592.115 6.62891H593.844C594.402 6.62891 594.846 6.48438 595.174 6.19531C595.506 5.90625 595.672 5.51953 595.672 5.03516C595.672 4.50781 595.514 4.10352 595.197 3.82227C594.885 3.54102 594.432 3.39844 593.838 3.39453H592.115V6.62891ZM603.207 7.05664H599.51V10.0801H603.805V11H598.385V2.46875H603.746V3.39453H599.51V6.13672H603.207V7.05664ZM608.029 9.50586L610.467 2.46875H611.697L608.533 11H607.537L604.379 2.46875H605.604L608.029 9.50586ZM614.053 11H612.928V2.46875H614.053V11ZM620.938 7.05664H617.24V10.0801H621.535V11H616.115V2.46875H621.477V3.39453H617.24V6.13672H620.938V7.05664ZM624.775 8.31055L624.939 9.43555L625.18 8.42188L626.867 2.46875H627.816L629.463 8.42188L629.697 9.45312L629.879 8.30469L631.203 2.46875H632.334L630.266 11H629.24L627.482 4.7832L627.348 4.13281L627.213 4.7832L625.391 11H624.365L622.303 2.46875H623.428L624.775 8.31055ZM639.078 7.19727C638.113 6.91992 637.41 6.58008 636.969 6.17773C636.531 5.77148 636.312 5.27148 636.312 4.67773C636.312 4.00586 636.58 3.45117 637.115 3.01367C637.654 2.57227 638.354 2.35156 639.213 2.35156C639.799 2.35156 640.32 2.46484 640.777 2.69141C641.238 2.91797 641.594 3.23047 641.844 3.62891C642.098 4.02734 642.225 4.46289 642.225 4.93555H641.094C641.094 4.41992 640.93 4.01562 640.602 3.72266C640.273 3.42578 639.811 3.27734 639.213 3.27734C638.658 3.27734 638.225 3.40039 637.912 3.64648C637.604 3.88867 637.449 4.22656 637.449 4.66016C637.449 5.00781 637.596 5.30273 637.889 5.54492C638.186 5.7832 638.688 6.00195 639.395 6.20117C640.105 6.40039 640.66 6.62109 641.059 6.86328C641.461 7.10156 641.758 7.38086 641.949 7.70117C642.145 8.02148 642.242 8.39844 642.242 8.83203C642.242 9.52344 641.973 10.0781 641.434 10.4961C640.895 10.9102 640.174 11.1172 639.271 11.1172C638.686 11.1172 638.139 11.0059 637.631 10.7832C637.123 10.5566 636.73 10.248 636.453 9.85742C636.18 9.4668 636.043 9.02344 636.043 8.52734H637.174C637.174 9.04297 637.363 9.45117 637.742 9.75195C638.125 10.0488 638.635 10.1973 639.271 10.1973C639.865 10.1973 640.32 10.0762 640.637 9.83398C640.953 9.5918 641.111 9.26172 641.111 8.84375C641.111 8.42578 640.965 8.10352 640.672 7.87695C640.379 7.64648 639.848 7.41992 639.078 7.19727ZM649.584 3.39453H646.842V11H645.723V3.39453H642.986V2.46875H649.584V3.39453ZM655.092 8.77344H651.518L650.715 11H649.555L652.812 2.46875H653.797L657.061 11H655.906L655.092 8.77344ZM651.857 7.84766H654.758L653.305 3.85742L651.857 7.84766ZM663.342 3.39453H660.6V11H659.48V3.39453H656.744V2.46875H663.342V3.39453ZM670.613 2.46875V8.26953C670.609 9.07422 670.355 9.73242 669.852 10.2441C669.352 10.7559 668.672 11.043 667.812 11.1055L667.514 11.1172C666.58 11.1172 665.836 10.8652 665.281 10.3613C664.727 9.85742 664.445 9.16406 664.438 8.28125V2.46875H665.551V8.24609C665.551 8.86328 665.721 9.34375 666.061 9.6875C666.4 10.0273 666.885 10.1973 667.514 10.1973C668.15 10.1973 668.637 10.0273 668.973 9.6875C669.312 9.34766 669.482 8.86914 669.482 8.25195V2.46875H670.613ZM674.902 7.19727C673.938 6.91992 673.234 6.58008 672.793 6.17773C672.355 5.77148 672.137 5.27148 672.137 4.67773C672.137 4.00586 672.404 3.45117 672.939 3.01367C673.479 2.57227 674.178 2.35156 675.037 2.35156C675.623 2.35156 676.145 2.46484 676.602 2.69141C677.062 2.91797 677.418 3.23047 677.668 3.62891C677.922 4.02734 678.049 4.46289 678.049 4.93555H676.918C676.918 4.41992 676.754 4.01562 676.426 3.72266C676.098 3.42578 675.635 3.27734 675.037 3.27734C674.482 3.27734 674.049 3.40039 673.736 3.64648C673.428 3.88867 673.273 4.22656 673.273 4.66016C673.273 5.00781 673.42 5.30273 673.713 5.54492C674.01 5.7832 674.512 6.00195 675.219 6.20117C675.93 6.40039 676.484 6.62109 676.883 6.86328C677.285 7.10156 677.582 7.38086 677.773 7.70117C677.969 8.02148 678.066 8.39844 678.066 8.83203C678.066 9.52344 677.797 10.0781 677.258 10.4961C676.719 10.9102 675.998 11.1172 675.096 11.1172C674.51 11.1172 673.963 11.0059 673.455 10.7832C672.947 10.5566 672.555 10.248 672.277 9.85742C672.004 9.4668 671.867 9.02344 671.867 8.52734H672.998C672.998 9.04297 673.188 9.45117 673.566 9.75195C673.949 10.0488 674.459 10.1973 675.096 10.1973C675.689 10.1973 676.145 10.0762 676.461 9.83398C676.777 9.5918 676.936 9.26172 676.936 8.84375C676.936 8.42578 676.789 8.10352 676.496 7.87695C676.203 7.64648 675.672 7.41992 674.902 7.19727ZM683.621 10.0801H687.664V11H682.49V2.46875H683.621V10.0801ZM693.775 8.77344H690.201L689.398 11H688.238L691.496 2.46875H692.48L695.744 11H694.59L693.775 8.77344ZM690.541 7.84766H693.441L691.988 3.85742L690.541 7.84766ZM696.893 11V2.46875H699.682C700.607 2.46875 701.303 2.66016 701.768 3.04297C702.236 3.42578 702.471 3.99219 702.471 4.74219C702.471 5.14062 702.357 5.49414 702.131 5.80273C701.904 6.10742 701.596 6.34375 701.205 6.51172C701.666 6.64062 702.029 6.88672 702.295 7.25C702.564 7.60938 702.699 8.03906 702.699 8.53906C702.699 9.30469 702.451 9.90625 701.955 10.3438C701.459 10.7812 700.758 11 699.852 11H696.893ZM698.018 7.00977V10.0801H699.875C700.398 10.0801 700.811 9.94531 701.111 9.67578C701.416 9.40234 701.568 9.02734 701.568 8.55078C701.568 7.52344 701.01 7.00977 699.893 7.00977H698.018ZM698.018 6.10742H699.717C700.209 6.10742 700.602 5.98438 700.895 5.73828C701.191 5.49219 701.34 5.1582 701.34 4.73633C701.34 4.26758 701.203 3.92773 700.93 3.7168C700.656 3.50195 700.24 3.39453 699.682 3.39453H698.018V6.10742ZM709.191 7.05664H705.494V10.0801H709.789V11H704.369V2.46875H709.73V3.39453H705.494V6.13672H709.191V7.05664ZM712.32 10.0801H716.363V11H711.189V2.46875H712.32V10.0801ZM720.16 7.19727C719.195 6.91992 718.492 6.58008 718.051 6.17773C717.613 5.77148 717.395 5.27148 717.395 4.67773C717.395 4.00586 717.662 3.45117 718.197 3.01367C718.736 2.57227 719.436 2.35156 720.295 2.35156C720.881 2.35156 721.402 2.46484 721.859 2.69141C722.32 2.91797 722.676 3.23047 722.926 3.62891C723.18 4.02734 723.307 4.46289 723.307 4.93555H722.176C722.176 4.41992 722.012 4.01562 721.684 3.72266C721.355 3.42578 720.893 3.27734 720.295 3.27734C719.74 3.27734 719.307 3.40039 718.994 3.64648C718.686 3.88867 718.531 4.22656 718.531 4.66016C718.531 5.00781 718.678 5.30273 718.971 5.54492C719.268 5.7832 719.77 6.00195 720.477 6.20117C721.188 6.40039 721.742 6.62109 722.141 6.86328C722.543 7.10156 722.84 7.38086 723.031 7.70117C723.227 8.02148 723.324 8.39844 723.324 8.83203C723.324 9.52344 723.055 10.0781 722.516 10.4961C721.977 10.9102 721.256 11.1172 720.354 11.1172C719.768 11.1172 719.221 11.0059 718.713 10.7832C718.205 10.5566 717.812 10.248 717.535 9.85742C717.262 9.4668 717.125 9.02344 717.125 8.52734H718.256C718.256 9.04297 718.445 9.45117 718.824 9.75195C719.207 10.0488 719.717 10.1973 720.354 10.1973C720.947 10.1973 721.402 10.0762 721.719 9.83398C722.035 9.5918 722.193 9.26172 722.193 8.84375C722.193 8.42578 722.047 8.10352 721.754 7.87695C721.461 7.64648 720.93 7.41992 720.16 7.19727Z" fill="black"/>
<line x1="316" y1="16.5" x2="535" y2="16.5" stroke="#D8D8D8"/>
<line x1="590" y1="16.5" x2="817" y2="16.5" stroke="#D8D8D8"/>
<path d="M83.1816 81.1904H89.2461V82.5703H81.4854V69.7734H83.1816V81.1904ZM92.6826 82.5703H91.0566V73.0605H92.6826V82.5703ZM90.9248 70.5381C90.9248 70.2744 91.0039 70.0518 91.1621 69.8701C91.3262 69.6885 91.5664 69.5977 91.8828 69.5977C92.1992 69.5977 92.4395 69.6885 92.6035 69.8701C92.7676 70.0518 92.8496 70.2744 92.8496 70.5381C92.8496 70.8018 92.7676 71.0215 92.6035 71.1973C92.4395 71.373 92.1992 71.4609 91.8828 71.4609C91.5664 71.4609 91.3262 71.373 91.1621 71.1973C91.0039 71.0215 90.9248 70.8018 90.9248 70.5381ZM96.8311 73.0605L96.8838 74.2559C97.6104 73.3418 98.5596 72.8848 99.7314 72.8848C101.741 72.8848 102.755 74.0186 102.772 76.2861V82.5703H101.146V76.2773C101.141 75.5918 100.982 75.085 100.672 74.7568C100.367 74.4287 99.8896 74.2646 99.2393 74.2646C98.7119 74.2646 98.249 74.4053 97.8506 74.6865C97.4521 74.9678 97.1416 75.3369 96.9189 75.7939V82.5703H95.293V73.0605H96.8311ZM107.879 78.167L106.859 79.2305V82.5703H105.233V69.0703H106.859V77.2354L107.729 76.1895L110.691 73.0605H112.669L108.969 77.0332L113.1 82.5703H111.192L107.879 78.167ZM114.673 83.6689H113.275L118.619 69.7734H120.008L114.673 83.6689ZM135.898 78.5098C135.74 79.8633 135.239 80.9092 134.396 81.6475C133.558 82.3799 132.441 82.7461 131.047 82.7461C129.535 82.7461 128.322 82.2041 127.408 81.1201C126.5 80.0361 126.046 78.5859 126.046 76.7695V75.5391C126.046 74.3496 126.257 73.3037 126.679 72.4014C127.106 71.499 127.71 70.8076 128.489 70.3271C129.269 69.8408 130.171 69.5977 131.196 69.5977C132.556 69.5977 133.646 69.9785 134.466 70.7402C135.286 71.4961 135.764 72.5449 135.898 73.8867H134.202C134.056 72.8672 133.736 72.1289 133.244 71.6719C132.758 71.2148 132.075 70.9863 131.196 70.9863C130.118 70.9863 129.271 71.3848 128.656 72.1816C128.047 72.9785 127.742 74.1123 127.742 75.583V76.8223C127.742 78.2109 128.032 79.3154 128.612 80.1357C129.192 80.9561 130.004 81.3662 131.047 81.3662C131.984 81.3662 132.702 81.1553 133.2 80.7334C133.704 80.3057 134.038 79.5645 134.202 78.5098H135.898ZM146.788 71.1621H142.675V82.5703H140.996V71.1621H136.892V69.7734H146.788V71.1621ZM155.05 79.2305H149.688L148.484 82.5703H146.744L151.631 69.7734H153.107L158.003 82.5703H156.271L155.05 79.2305ZM150.198 77.8418H154.549L152.369 71.8564L150.198 77.8418ZM172.681 71.1621H168.567V82.5703H166.889V71.1621H162.784V69.7734H172.681V71.1621ZM177.392 82.7461C176.103 82.7461 175.054 82.3242 174.245 81.4805C173.437 80.6309 173.032 79.4971 173.032 78.0791V77.7803C173.032 76.8369 173.211 75.9961 173.568 75.2578C173.932 74.5137 174.436 73.9336 175.08 73.5176C175.73 73.0957 176.434 72.8848 177.189 72.8848C178.426 72.8848 179.387 73.292 180.072 74.1064C180.758 74.9209 181.101 76.0869 181.101 77.6045V78.2812H174.658C174.682 79.2188 174.954 79.9775 175.476 80.5576C176.003 81.1318 176.671 81.4189 177.479 81.4189C178.054 81.4189 178.54 81.3018 178.938 81.0674C179.337 80.833 179.686 80.5225 179.984 80.1357L180.978 80.9092C180.181 82.1338 178.985 82.7461 177.392 82.7461ZM177.189 74.2207C176.533 74.2207 175.982 74.4609 175.537 74.9414C175.092 75.416 174.816 76.084 174.711 76.9453H179.475V76.8223C179.428 75.9961 179.205 75.3574 178.807 74.9062C178.408 74.4492 177.869 74.2207 177.189 74.2207ZM186.181 76.5322L188.29 73.0605H190.188L187.077 77.7627L190.285 82.5703H188.404L186.207 79.0107L184.01 82.5703H182.12L185.328 77.7627L182.217 73.0605H184.098L186.181 76.5322ZM194.126 70.7578V73.0605H195.901V74.3174H194.126V80.2148C194.126 80.5957 194.205 80.8828 194.363 81.0762C194.521 81.2637 194.791 81.3574 195.172 81.3574C195.359 81.3574 195.617 81.3223 195.945 81.252V82.5703C195.518 82.6875 195.102 82.7461 194.697 82.7461C193.971 82.7461 193.423 82.5264 193.054 82.0869C192.685 81.6475 192.5 81.0234 192.5 80.2148V74.3174H190.769V73.0605H192.5V70.7578H194.126Z" fill="black"/>
<rect x="0.5" y="52.5" width="49" height="49" rx="24.5" fill="#3447D3" stroke="#EFEFEF"/>
<path d="M83.665 150.203L87.8486 160.645L92.0322 150.203H94.2207V163H92.5332V158.017L92.6914 152.638L88.4902 163H87.1982L83.0059 152.664L83.1729 158.017V163H81.4854V150.203H83.665ZM102.816 163C102.723 162.812 102.646 162.479 102.588 161.998C101.832 162.783 100.93 163.176 99.8809 163.176C98.9434 163.176 98.1729 162.912 97.5693 162.385C96.9717 161.852 96.6729 161.178 96.6729 160.363C96.6729 159.373 97.0479 158.605 97.7979 158.061C98.5537 157.51 99.6143 157.234 100.979 157.234H102.562V156.487C102.562 155.919 102.392 155.468 102.052 155.134C101.712 154.794 101.211 154.624 100.549 154.624C99.9688 154.624 99.4824 154.771 99.0898 155.063C98.6973 155.356 98.501 155.711 98.501 156.127H96.8662C96.8662 155.652 97.0332 155.195 97.3672 154.756C97.707 154.311 98.1641 153.959 98.7383 153.701C99.3184 153.443 99.9541 153.314 100.646 153.314C101.741 153.314 102.6 153.59 103.221 154.141C103.842 154.686 104.164 155.438 104.188 156.399V160.776C104.188 161.649 104.299 162.344 104.521 162.859V163H102.816ZM100.118 161.761C100.628 161.761 101.111 161.629 101.568 161.365C102.025 161.102 102.356 160.759 102.562 160.337V158.386H101.287C99.2949 158.386 98.2988 158.969 98.2988 160.135C98.2988 160.645 98.4688 161.043 98.8086 161.33C99.1484 161.617 99.585 161.761 100.118 161.761ZM108.503 163H106.877V153.49H108.503V163ZM106.745 150.968C106.745 150.704 106.824 150.481 106.982 150.3C107.146 150.118 107.387 150.027 107.703 150.027C108.02 150.027 108.26 150.118 108.424 150.3C108.588 150.481 108.67 150.704 108.67 150.968C108.67 151.231 108.588 151.451 108.424 151.627C108.26 151.803 108.02 151.891 107.703 151.891C107.387 151.891 107.146 151.803 106.982 151.627C106.824 151.451 106.745 151.231 106.745 150.968ZM112.651 153.49L112.704 154.686C113.431 153.771 114.38 153.314 115.552 153.314C117.562 153.314 118.575 154.448 118.593 156.716V163H116.967V156.707C116.961 156.021 116.803 155.515 116.492 155.187C116.188 154.858 115.71 154.694 115.06 154.694C114.532 154.694 114.069 154.835 113.671 155.116C113.272 155.397 112.962 155.767 112.739 156.224V163H111.113V153.49H112.651ZM127.461 161.62H133.525V163H125.765V150.203H127.461V161.62ZM141.066 163C140.973 162.812 140.896 162.479 140.838 161.998C140.082 162.783 139.18 163.176 138.131 163.176C137.193 163.176 136.423 162.912 135.819 162.385C135.222 161.852 134.923 161.178 134.923 160.363C134.923 159.373 135.298 158.605 136.048 158.061C136.804 157.51 137.864 157.234 139.229 157.234H140.812V156.487C140.812 155.919 140.642 155.468 140.302 155.134C139.962 154.794 139.461 154.624 138.799 154.624C138.219 154.624 137.732 154.771 137.34 155.063C136.947 155.356 136.751 155.711 136.751 156.127H135.116C135.116 155.652 135.283 155.195 135.617 154.756C135.957 154.311 136.414 153.959 136.988 153.701C137.568 153.443 138.204 153.314 138.896 153.314C139.991 153.314 140.85 153.59 141.471 154.141C142.092 154.686 142.414 155.438 142.438 156.399V160.776C142.438 161.649 142.549 162.344 142.771 162.859V163H141.066ZM138.368 161.761C138.878 161.761 139.361 161.629 139.818 161.365C140.275 161.102 140.606 160.759 140.812 160.337V158.386H139.537C137.545 158.386 136.549 158.969 136.549 160.135C136.549 160.645 136.719 161.043 137.059 161.33C137.398 161.617 137.835 161.761 138.368 161.761ZM153.037 158.351C153.037 159.804 152.703 160.973 152.035 161.857C151.367 162.736 150.471 163.176 149.346 163.176C148.145 163.176 147.216 162.751 146.56 161.901L146.48 163H144.986V149.5H146.612V154.536C147.269 153.722 148.174 153.314 149.328 153.314C150.482 153.314 151.388 153.751 152.044 154.624C152.706 155.497 153.037 156.692 153.037 158.21V158.351ZM151.411 158.166C151.411 157.059 151.197 156.203 150.77 155.6C150.342 154.996 149.727 154.694 148.924 154.694C147.852 154.694 147.081 155.192 146.612 156.188V160.302C147.11 161.298 147.887 161.796 148.941 161.796C149.721 161.796 150.327 161.494 150.761 160.891C151.194 160.287 151.411 159.379 151.411 158.166ZM159.04 163.176C157.751 163.176 156.702 162.754 155.894 161.91C155.085 161.061 154.681 159.927 154.681 158.509V158.21C154.681 157.267 154.859 156.426 155.217 155.688C155.58 154.943 156.084 154.363 156.729 153.947C157.379 153.525 158.082 153.314 158.838 153.314C160.074 153.314 161.035 153.722 161.721 154.536C162.406 155.351 162.749 156.517 162.749 158.034V158.711H156.307C156.33 159.648 156.603 160.407 157.124 160.987C157.651 161.562 158.319 161.849 159.128 161.849C159.702 161.849 160.188 161.731 160.587 161.497C160.985 161.263 161.334 160.952 161.633 160.565L162.626 161.339C161.829 162.563 160.634 163.176 159.04 163.176ZM158.838 154.65C158.182 154.65 157.631 154.891 157.186 155.371C156.74 155.846 156.465 156.514 156.359 157.375H161.123V157.252C161.076 156.426 160.854 155.787 160.455 155.336C160.057 154.879 159.518 154.65 158.838 154.65ZM166.405 163H164.779V149.5H166.405V163ZM169.341 164.099H167.943L173.287 150.203H174.676L169.341 164.099ZM189.644 151.592H185.53V163H183.852V151.592H179.747V150.203H189.644V151.592ZM194.354 163.176C193.065 163.176 192.017 162.754 191.208 161.91C190.399 161.061 189.995 159.927 189.995 158.509V158.21C189.995 157.267 190.174 156.426 190.531 155.688C190.895 154.943 191.398 154.363 192.043 153.947C192.693 153.525 193.396 153.314 194.152 153.314C195.389 153.314 196.35 153.722 197.035 154.536C197.721 155.351 198.063 156.517 198.063 158.034V158.711H191.621C191.645 159.648 191.917 160.407 192.438 160.987C192.966 161.562 193.634 161.849 194.442 161.849C195.017 161.849 195.503 161.731 195.901 161.497C196.3 161.263 196.648 160.952 196.947 160.565L197.94 161.339C197.144 162.563 195.948 163.176 194.354 163.176ZM194.152 154.65C193.496 154.65 192.945 154.891 192.5 155.371C192.055 155.846 191.779 156.514 191.674 157.375H196.438V157.252C196.391 156.426 196.168 155.787 195.77 155.336C195.371 154.879 194.832 154.65 194.152 154.65ZM203.144 156.962L205.253 153.49H207.151L204.04 158.192L207.248 163H205.367L203.17 159.44L200.973 163H199.083L202.291 158.192L199.18 153.49H201.061L203.144 156.962ZM211.089 151.188V153.49H212.864V154.747H211.089V160.645C211.089 161.025 211.168 161.312 211.326 161.506C211.484 161.693 211.754 161.787 212.135 161.787C212.322 161.787 212.58 161.752 212.908 161.682V163C212.48 163.117 212.064 163.176 211.66 163.176C210.934 163.176 210.386 162.956 210.017 162.517C209.647 162.077 209.463 161.453 209.463 160.645V154.747H207.731V153.49H209.463V151.188H211.089Z" fill="black"/>
<rect x="0.5" y="132.5" width="49" height="49" rx="24.5" fill="#2C2D53" stroke="#EFEFEF"/>
<path d="M81.4854 243V230.203H85.0977C86.2109 230.203 87.1953 230.449 88.0508 230.941C88.9062 231.434 89.5654 232.134 90.0283 233.042C90.4971 233.95 90.7344 234.993 90.7402 236.171V236.988C90.7402 238.195 90.5059 239.253 90.0371 240.161C89.5742 241.069 88.9092 241.767 88.042 242.253C87.1807 242.739 86.1758 242.988 85.0273 243H81.4854ZM83.1729 231.592V241.62H84.9482C86.249 241.62 87.2598 241.216 87.9805 240.407C88.707 239.599 89.0703 238.447 89.0703 236.953V236.206C89.0703 234.753 88.7275 233.625 88.042 232.822C87.3623 232.014 86.3955 231.604 85.1416 231.592H83.1729ZM94.8096 243H93.1836V233.49H94.8096V243ZM93.0518 230.968C93.0518 230.704 93.1309 230.481 93.2891 230.3C93.4531 230.118 93.6934 230.027 94.0098 230.027C94.3262 230.027 94.5664 230.118 94.7305 230.3C94.8945 230.481 94.9766 230.704 94.9766 230.968C94.9766 231.231 94.8945 231.451 94.7305 231.627C94.5664 231.803 94.3262 231.891 94.0098 231.891C93.6934 231.891 93.4531 231.803 93.2891 231.627C93.1309 231.451 93.0518 231.231 93.0518 230.968ZM102.957 240.478C102.957 240.038 102.79 239.698 102.456 239.458C102.128 239.212 101.551 239.001 100.725 238.825C99.9043 238.649 99.251 238.438 98.7646 238.192C98.2842 237.946 97.9268 237.653 97.6924 237.313C97.4639 236.974 97.3496 236.569 97.3496 236.101C97.3496 235.321 97.6777 234.662 98.334 234.123C98.9961 233.584 99.8398 233.314 100.865 233.314C101.943 233.314 102.816 233.593 103.484 234.149C104.158 234.706 104.495 235.418 104.495 236.285H102.86C102.86 235.84 102.67 235.456 102.289 235.134C101.914 234.812 101.439 234.65 100.865 234.65C100.273 234.65 99.8105 234.779 99.4766 235.037C99.1426 235.295 98.9756 235.632 98.9756 236.048C98.9756 236.44 99.1309 236.736 99.4414 236.936C99.752 237.135 100.312 237.325 101.12 237.507C101.935 237.688 102.594 237.905 103.098 238.157C103.602 238.409 103.974 238.714 104.214 239.071C104.46 239.423 104.583 239.854 104.583 240.363C104.583 241.213 104.243 241.896 103.563 242.411C102.884 242.921 102.002 243.176 100.918 243.176C100.156 243.176 99.4824 243.041 98.8965 242.771C98.3105 242.502 97.8506 242.127 97.5166 241.646C97.1885 241.16 97.0244 240.636 97.0244 240.073H98.6504C98.6797 240.618 98.8965 241.052 99.3008 241.374C99.7109 241.69 100.25 241.849 100.918 241.849C101.533 241.849 102.025 241.726 102.395 241.479C102.77 241.228 102.957 240.894 102.957 240.478ZM110.516 241.849C111.096 241.849 111.603 241.673 112.036 241.321C112.47 240.97 112.71 240.53 112.757 240.003H114.295C114.266 240.548 114.078 241.066 113.732 241.559C113.387 242.051 112.924 242.443 112.344 242.736C111.77 243.029 111.16 243.176 110.516 243.176C109.221 243.176 108.189 242.745 107.422 241.884C106.66 241.017 106.279 239.833 106.279 238.333V238.061C106.279 237.135 106.449 236.312 106.789 235.591C107.129 234.87 107.615 234.311 108.248 233.912C108.887 233.514 109.64 233.314 110.507 233.314C111.573 233.314 112.458 233.634 113.161 234.272C113.87 234.911 114.248 235.74 114.295 236.76H112.757C112.71 236.145 112.476 235.641 112.054 235.248C111.638 234.85 111.122 234.65 110.507 234.65C109.681 234.65 109.039 234.949 108.582 235.547C108.131 236.139 107.905 236.997 107.905 238.122V238.43C107.905 239.525 108.131 240.369 108.582 240.961C109.033 241.553 109.678 241.849 110.516 241.849ZM120.72 234.949C120.474 234.908 120.207 234.888 119.92 234.888C118.854 234.888 118.13 235.342 117.749 236.25V243H116.123V233.49H117.705L117.731 234.589C118.265 233.739 119.021 233.314 119.999 233.314C120.315 233.314 120.556 233.355 120.72 233.438V234.949ZM123.989 243H122.363V233.49H123.989V243ZM122.231 230.968C122.231 230.704 122.311 230.481 122.469 230.3C122.633 230.118 122.873 230.027 123.189 230.027C123.506 230.027 123.746 230.118 123.91 230.3C124.074 230.481 124.156 230.704 124.156 230.968C124.156 231.231 124.074 231.451 123.91 231.627C123.746 231.803 123.506 231.891 123.189 231.891C122.873 231.891 122.633 231.803 122.469 231.627C122.311 231.451 122.231 231.231 122.231 230.968ZM134.633 238.351C134.633 239.798 134.302 240.964 133.64 241.849C132.978 242.733 132.081 243.176 130.95 243.176C129.796 243.176 128.888 242.81 128.226 242.077V246.656H126.6V233.49H128.085L128.164 234.545C128.826 233.725 129.746 233.314 130.924 233.314C132.066 233.314 132.969 233.745 133.631 234.606C134.299 235.468 134.633 236.666 134.633 238.201V238.351ZM133.007 238.166C133.007 237.094 132.778 236.247 132.321 235.626C131.864 235.005 131.237 234.694 130.44 234.694C129.456 234.694 128.718 235.131 128.226 236.004V240.548C128.712 241.415 129.456 241.849 130.458 241.849C131.237 241.849 131.855 241.541 132.312 240.926C132.775 240.305 133.007 239.385 133.007 238.166ZM138.913 231.188V233.49H140.688V234.747H138.913V240.645C138.913 241.025 138.992 241.312 139.15 241.506C139.309 241.693 139.578 241.787 139.959 241.787C140.146 241.787 140.404 241.752 140.732 241.682V243C140.305 243.117 139.889 243.176 139.484 243.176C138.758 243.176 138.21 242.956 137.841 242.517C137.472 242.077 137.287 241.453 137.287 240.645V234.747H135.556V233.49H137.287V231.188H138.913ZM144.362 243H142.736V233.49H144.362V243ZM142.604 230.968C142.604 230.704 142.684 230.481 142.842 230.3C143.006 230.118 143.246 230.027 143.562 230.027C143.879 230.027 144.119 230.118 144.283 230.3C144.447 230.481 144.529 230.704 144.529 230.968C144.529 231.231 144.447 231.451 144.283 231.627C144.119 231.803 143.879 231.891 143.562 231.891C143.246 231.891 143.006 231.803 142.842 231.627C142.684 231.451 142.604 231.231 142.604 230.968ZM150.11 240.794L152.466 233.49H154.127L150.717 243H149.478L146.032 233.49H147.693L150.11 240.794ZM159.515 243.176C158.226 243.176 157.177 242.754 156.368 241.91C155.56 241.061 155.155 239.927 155.155 238.509V238.21C155.155 237.267 155.334 236.426 155.691 235.688C156.055 234.943 156.559 234.363 157.203 233.947C157.854 233.525 158.557 233.314 159.312 233.314C160.549 233.314 161.51 233.722 162.195 234.536C162.881 235.351 163.224 236.517 163.224 238.034V238.711H156.781C156.805 239.648 157.077 240.407 157.599 240.987C158.126 241.562 158.794 241.849 159.603 241.849C160.177 241.849 160.663 241.731 161.062 241.497C161.46 241.263 161.809 240.952 162.107 240.565L163.101 241.339C162.304 242.563 161.108 243.176 159.515 243.176ZM159.312 234.65C158.656 234.65 158.105 234.891 157.66 235.371C157.215 235.846 156.939 236.514 156.834 237.375H161.598V237.252C161.551 236.426 161.328 235.787 160.93 235.336C160.531 234.879 159.992 234.65 159.312 234.65ZM179.668 243H177.972L171.529 233.139V243H169.833V230.203H171.529L177.989 240.108V230.203H179.668V243ZM181.979 238.157C181.979 237.226 182.161 236.388 182.524 235.644C182.894 234.899 183.403 234.325 184.054 233.921C184.71 233.517 185.457 233.314 186.295 233.314C187.59 233.314 188.636 233.763 189.433 234.659C190.235 235.556 190.637 236.748 190.637 238.236V238.351C190.637 239.276 190.458 240.108 190.101 240.847C189.749 241.579 189.242 242.15 188.58 242.561C187.924 242.971 187.168 243.176 186.312 243.176C185.023 243.176 183.978 242.728 183.175 241.831C182.378 240.935 181.979 239.748 181.979 238.271V238.157ZM183.614 238.351C183.614 239.405 183.857 240.252 184.344 240.891C184.836 241.529 185.492 241.849 186.312 241.849C187.139 241.849 187.795 241.526 188.281 240.882C188.768 240.231 189.011 239.323 189.011 238.157C189.011 237.114 188.762 236.271 188.264 235.626C187.771 234.976 187.115 234.65 186.295 234.65C185.492 234.65 184.845 234.97 184.353 235.608C183.86 236.247 183.614 237.161 183.614 238.351ZM194.882 231.188V233.49H196.657V234.747H194.882V240.645C194.882 241.025 194.961 241.312 195.119 241.506C195.277 241.693 195.547 241.787 195.928 241.787C196.115 241.787 196.373 241.752 196.701 241.682V243C196.273 243.117 195.857 243.176 195.453 243.176C194.727 243.176 194.179 242.956 193.81 242.517C193.44 242.077 193.256 241.453 193.256 240.645V234.747H191.524V233.49H193.256V231.188H194.882ZM202.511 243.176C201.222 243.176 200.173 242.754 199.364 241.91C198.556 241.061 198.151 239.927 198.151 238.509V238.21C198.151 237.267 198.33 236.426 198.688 235.688C199.051 234.943 199.555 234.363 200.199 233.947C200.85 233.525 201.553 233.314 202.309 233.314C203.545 233.314 204.506 233.722 205.191 234.536C205.877 235.351 206.22 236.517 206.22 238.034V238.711H199.777C199.801 239.648 200.073 240.407 200.595 240.987C201.122 241.562 201.79 241.849 202.599 241.849C203.173 241.849 203.659 241.731 204.058 241.497C204.456 241.263 204.805 240.952 205.104 240.565L206.097 241.339C205.3 242.563 204.104 243.176 202.511 243.176ZM202.309 234.65C201.652 234.65 201.102 234.891 200.656 235.371C200.211 235.846 199.936 236.514 199.83 237.375H204.594V237.252C204.547 236.426 204.324 235.787 203.926 235.336C203.527 234.879 202.988 234.65 202.309 234.65ZM213.646 240.478C213.646 240.038 213.479 239.698 213.146 239.458C212.817 239.212 212.24 239.001 211.414 238.825C210.594 238.649 209.94 238.438 209.454 238.192C208.974 237.946 208.616 237.653 208.382 237.313C208.153 236.974 208.039 236.569 208.039 236.101C208.039 235.321 208.367 234.662 209.023 234.123C209.686 233.584 210.529 233.314 211.555 233.314C212.633 233.314 213.506 233.593 214.174 234.149C214.848 234.706 215.185 235.418 215.185 236.285H213.55C213.55 235.84 213.359 235.456 212.979 235.134C212.604 234.812 212.129 234.65 211.555 234.65C210.963 234.65 210.5 234.779 210.166 235.037C209.832 235.295 209.665 235.632 209.665 236.048C209.665 236.44 209.82 236.736 210.131 236.936C210.441 237.135 211.001 237.325 211.81 237.507C212.624 237.688 213.283 237.905 213.787 238.157C214.291 238.409 214.663 238.714 214.903 239.071C215.149 239.423 215.272 239.854 215.272 240.363C215.272 241.213 214.933 241.896 214.253 242.411C213.573 242.921 212.691 243.176 211.607 243.176C210.846 243.176 210.172 243.041 209.586 242.771C209 242.502 208.54 242.127 208.206 241.646C207.878 241.16 207.714 240.636 207.714 240.073H209.34C209.369 240.618 209.586 241.052 209.99 241.374C210.4 241.69 210.939 241.849 211.607 241.849C212.223 241.849 212.715 241.726 213.084 241.479C213.459 241.228 213.646 240.894 213.646 240.478Z" fill="black"/>
<rect x="0.5" y="212.5" width="49" height="49" rx="24.5" fill="#B9C5D9" stroke="#EFEFEF"/>
<path d="M387.936 279.76H384.066V280.864H387.936V279.76Z" fill="#9A9A9A"/>
<circle cx="318.5" cy="200.5" r="2.5" fill="#D30000"/>
<path d="M334.215 206.139C336.293 206.139 337.819 204.896 337.814 203.206C337.819 201.918 337.039 200.994 335.686 200.785V200.705C336.75 200.432 337.441 199.597 337.436 198.453C337.441 196.957 336.213 195.679 334.255 195.679C332.385 195.679 330.884 196.808 330.834 198.463H332.321C332.355 197.528 333.235 196.962 334.235 196.962C335.274 196.962 335.955 197.593 335.95 198.533C335.955 199.517 335.164 200.163 334.036 200.163H333.176V201.416H334.036C335.448 201.416 336.263 202.132 336.263 203.156C336.263 204.146 335.403 204.817 334.205 204.817C333.101 204.817 332.241 204.25 332.181 203.345H330.62C330.685 205.006 332.157 206.139 334.215 206.139ZM346.277 206.149C347.669 206.149 348.216 205.299 348.485 204.812H348.609V206H350.06V195.818H348.574V199.602H348.485C348.216 199.129 347.709 198.264 346.287 198.264C344.443 198.264 343.085 199.721 343.085 202.197C343.085 204.668 344.423 206.149 346.277 206.149ZM346.605 204.881C345.278 204.881 344.587 203.713 344.587 202.182C344.587 200.665 345.263 199.527 346.605 199.527C347.903 199.527 348.599 200.586 348.599 202.182C348.599 203.788 347.888 204.881 346.605 204.881ZM354.404 206.169C355.667 206.169 356.378 205.528 356.662 204.956H356.721V206H358.173V200.929C358.173 198.707 356.423 198.264 355.21 198.264C353.828 198.264 352.555 198.821 352.058 200.213L353.455 200.531C353.674 199.989 354.23 199.467 355.23 199.467C356.189 199.467 356.681 199.969 356.681 200.835V200.869C356.681 201.411 356.125 201.401 354.752 201.56C353.306 201.729 351.824 202.107 351.824 203.842C351.824 205.344 352.953 206.169 354.404 206.169ZM354.728 204.976C353.887 204.976 353.281 204.598 353.281 203.862C353.281 203.067 353.987 202.783 354.847 202.669C355.329 202.604 356.473 202.475 356.686 202.261V203.246C356.686 204.151 355.966 204.976 354.728 204.976ZM360.819 208.864C362.047 208.864 362.823 208.222 363.265 207.019L366.422 198.379L364.816 198.364L362.882 204.29H362.803L360.869 198.364H359.278L362.072 206.099L361.888 206.607C361.51 207.621 360.978 207.705 360.163 207.482L359.805 208.7C359.984 208.779 360.372 208.864 360.819 208.864ZM373.545 200.228C373.237 199.04 372.307 198.264 370.657 198.264C368.931 198.264 367.708 199.174 367.708 200.526C367.708 201.61 368.365 202.331 369.796 202.649L371.089 202.933C371.825 203.097 372.168 203.425 372.168 203.902C372.168 204.494 371.537 204.956 370.562 204.956C369.672 204.956 369.1 204.573 368.921 203.822L367.485 204.041C367.733 205.393 368.857 206.154 370.572 206.154C372.416 206.154 373.694 205.175 373.694 203.793C373.694 202.714 373.008 202.048 371.606 201.724L370.393 201.446C369.553 201.247 369.19 200.964 369.195 200.447C369.19 199.86 369.826 199.442 370.671 199.442C371.596 199.442 372.024 199.955 372.198 200.467L373.545 200.228ZM382.25 206.154C384.403 206.154 385.81 204.578 385.81 202.217C385.81 199.84 384.403 198.264 382.25 198.264C380.098 198.264 378.691 199.84 378.691 202.217C378.691 204.578 380.098 206.154 382.25 206.154ZM382.255 204.906C380.848 204.906 380.192 203.678 380.192 202.212C380.192 200.75 380.848 199.507 382.255 199.507C383.652 199.507 384.309 200.75 384.309 202.212C384.309 203.678 383.652 204.906 382.255 204.906ZM393.728 198.364H392.133L390.204 204.24H390.124L388.19 198.364H386.594L389.368 206H390.959L393.728 198.364ZM398.143 206.154C399.809 206.154 400.987 205.334 401.325 204.091L399.918 203.837C399.65 204.558 399.003 204.926 398.158 204.926C396.885 204.926 396.03 204.101 395.991 202.629H401.42V202.102C401.42 199.343 399.769 198.264 398.039 198.264C395.911 198.264 394.509 199.885 394.509 202.232C394.509 204.603 395.891 206.154 398.143 206.154ZM395.996 201.516C396.055 200.432 396.841 199.492 398.049 199.492C399.202 199.492 399.958 200.347 399.963 201.516H395.996ZM403.069 206H404.555V201.337C404.555 200.337 405.326 199.616 406.38 199.616C406.688 199.616 407.036 199.671 407.155 199.706V198.284C407.006 198.264 406.713 198.249 406.524 198.249C405.629 198.249 404.864 198.756 404.585 199.577H404.506V198.364H403.069V206ZM411.027 206.149C412.419 206.149 412.966 205.299 413.235 204.812H413.359V206H414.81V195.818H413.324V199.602H413.235C412.966 199.129 412.459 198.264 411.037 198.264C409.193 198.264 407.835 199.721 407.835 202.197C407.835 204.668 409.173 206.149 411.027 206.149ZM411.355 204.881C410.028 204.881 409.337 203.713 409.337 202.182C409.337 200.665 410.013 199.527 411.355 199.527C412.653 199.527 413.349 200.586 413.349 202.182C413.349 203.788 412.638 204.881 411.355 204.881ZM421.769 202.833C421.774 204.131 420.81 204.747 419.975 204.747C419.055 204.747 418.419 204.081 418.419 203.042V198.364H416.932V203.221C416.932 205.115 417.971 206.099 419.438 206.099C420.586 206.099 421.367 205.493 421.72 204.678H421.799V206H423.261V198.364H421.769V202.833ZM428.549 206.154C430.215 206.154 431.393 205.334 431.731 204.091L430.324 203.837C430.056 204.558 429.41 204.926 428.564 204.926C427.292 204.926 426.437 204.101 426.397 202.629H431.826V202.102C431.826 199.343 430.175 198.264 428.445 198.264C426.317 198.264 424.915 199.885 424.915 202.232C424.915 204.603 426.297 206.154 428.549 206.154ZM426.402 201.516C426.461 200.432 427.247 199.492 428.455 199.492C429.608 199.492 430.364 200.347 430.369 201.516H426.402Z" fill="#D30000"/>
<path d="M333.475 227C336.134 227 337.672 225.351 337.672 222.624C337.672 219.909 336.134 218.273 333.564 218.273H330.649V227H333.475ZM331.966 225.849V219.423H333.483C335.392 219.423 336.377 220.565 336.377 222.624C336.377 224.69 335.392 225.849 333.402 225.849H331.966ZM343.354 224.286C343.358 225.398 342.531 225.926 341.815 225.926C341.027 225.926 340.481 225.355 340.481 224.464V220.455H339.207V224.618C339.207 226.241 340.098 227.085 341.355 227.085C342.339 227.085 343.008 226.565 343.311 225.866H343.379V227H344.632V220.455H343.354V224.286ZM349.165 227.132C350.593 227.132 351.603 226.429 351.892 225.364L350.686 225.146C350.456 225.764 349.902 226.08 349.178 226.08C348.087 226.08 347.354 225.372 347.32 224.111H351.973V223.659C351.973 221.294 350.559 220.369 349.076 220.369C347.252 220.369 346.05 221.759 346.05 223.77C346.05 225.803 347.235 227.132 349.165 227.132ZM347.324 223.156C347.375 222.227 348.049 221.422 349.084 221.422C350.073 221.422 350.72 222.155 350.725 223.156H347.324ZM355.837 227.128C357.03 227.128 357.499 226.399 357.729 225.982H357.836V227H359.08V218.273H357.806V221.516H357.729C357.499 221.111 357.065 220.369 355.846 220.369C354.265 220.369 353.102 221.618 353.102 223.74C353.102 225.858 354.248 227.128 355.837 227.128ZM356.119 226.041C354.981 226.041 354.388 225.04 354.388 223.727C354.388 222.428 354.968 221.452 356.119 221.452C357.231 221.452 357.827 222.359 357.827 223.727C357.827 225.104 357.218 226.041 356.119 226.041ZM366.832 227.132C368.677 227.132 369.883 225.781 369.883 223.757C369.883 221.72 368.677 220.369 366.832 220.369C364.986 220.369 363.78 221.72 363.78 223.757C363.78 225.781 364.986 227.132 366.832 227.132ZM366.836 226.062C365.63 226.062 365.067 225.01 365.067 223.753C365.067 222.5 365.63 221.435 366.836 221.435C368.033 221.435 368.596 222.5 368.596 223.753C368.596 225.01 368.033 226.062 366.836 226.062ZM372.579 223.114C372.579 222.07 373.218 221.473 374.105 221.473C374.97 221.473 375.494 222.04 375.494 222.99V227H376.768V222.837C376.768 221.217 375.877 220.369 374.539 220.369C373.555 220.369 372.912 220.825 372.609 221.52H372.528V220.455H371.305V227H372.579V223.114ZM379.316 222.317C379.781 222.317 380.169 221.938 380.169 221.464C380.169 221 379.781 220.616 379.316 220.616C378.848 220.616 378.464 221 378.464 221.464C378.464 221.938 378.848 222.317 379.316 222.317ZM379.316 227.081C379.781 227.081 380.169 226.702 380.169 226.229C380.169 225.764 379.781 225.381 379.316 225.381C378.848 225.381 378.464 225.764 378.464 226.229C378.464 226.702 378.848 227.081 379.316 227.081ZM388.072 227.145C390.088 227.145 391.268 225.5 391.268 222.641C391.268 219.803 390.071 218.153 388.072 218.153C386.07 218.153 384.876 219.798 384.872 222.641C384.872 225.496 386.053 227.141 388.072 227.145ZM388.072 226.007C386.892 226.007 386.18 224.822 386.18 222.641C386.185 220.467 386.896 219.27 388.072 219.27C389.244 219.27 389.96 220.467 389.96 222.641C389.96 224.822 389.249 226.007 388.072 226.007ZM395.661 227.119C397.416 227.119 398.669 225.879 398.665 224.179C398.669 222.491 397.493 221.264 395.904 221.264C395.256 221.264 394.655 221.511 394.314 221.844H394.263L394.54 219.402H398.243V218.273H393.445L392.955 222.67L394.161 222.849C394.489 222.555 395.077 222.355 395.605 222.355C396.641 222.364 397.391 223.139 397.391 224.205C397.391 225.253 396.662 226.011 395.661 226.011C394.817 226.011 394.148 225.474 394.08 224.724H392.801C392.853 226.114 394.059 227.119 395.661 227.119ZM403.562 217.864H402.425L399.612 228.312H400.75L403.562 217.864ZM407.666 227.145C409.682 227.145 410.862 225.5 410.862 222.641C410.862 219.803 409.665 218.153 407.666 218.153C405.663 218.153 404.47 219.798 404.466 222.641C404.466 225.496 405.646 227.141 407.666 227.145ZM407.666 226.007C406.486 226.007 405.774 224.822 405.774 222.641C405.778 220.467 406.49 219.27 407.666 219.27C408.838 219.27 409.554 220.467 409.554 222.641C409.554 224.822 408.842 226.007 407.666 226.007ZM412.374 227H418.118V225.871H414.189V225.807L415.924 223.991C417.522 222.376 417.978 221.605 417.978 220.629C417.978 219.227 416.836 218.153 415.191 218.153C413.559 218.153 412.365 219.21 412.365 220.804H413.622C413.618 219.866 414.223 219.253 415.165 219.253C416.051 219.253 416.725 219.798 416.725 220.668C416.725 221.439 416.265 221.993 415.327 222.986L412.374 226.045V227ZM423.074 217.864H421.936L419.124 228.312H420.262L423.074 217.864ZM424.14 227H429.884V225.871H425.955V225.807L427.689 223.991C429.287 222.376 429.743 221.605 429.743 220.629C429.743 219.227 428.601 218.153 426.956 218.153C425.324 218.153 424.131 219.21 424.131 220.804H425.388C425.384 219.866 425.989 219.253 426.931 219.253C427.817 219.253 428.49 219.798 428.49 220.668C428.49 221.439 428.03 221.993 427.093 222.986L424.14 226.045V227ZM434.537 227.145C436.553 227.145 437.733 225.5 437.733 222.641C437.733 219.803 436.536 218.153 434.537 218.153C432.534 218.153 431.341 219.798 431.337 222.641C431.337 225.496 432.517 227.141 434.537 227.145ZM434.537 226.007C433.357 226.007 432.645 224.822 432.645 222.641C432.649 220.467 433.361 219.27 434.537 219.27C435.709 219.27 436.425 220.467 436.425 222.641C436.425 224.822 435.713 226.007 434.537 226.007ZM439.245 227H444.989V225.871H441.06V225.807L442.795 223.991C444.393 222.376 444.849 221.605 444.849 220.629C444.849 219.227 443.707 218.153 442.062 218.153C440.43 218.153 439.236 219.21 439.236 220.804H440.494C440.489 219.866 441.094 219.253 442.036 219.253C442.923 219.253 443.596 219.798 443.596 220.668C443.596 221.439 443.136 221.993 442.198 222.986L439.245 226.045V227ZM449.643 227.145C451.658 227.145 452.839 225.5 452.839 222.641C452.839 219.803 451.641 218.153 449.643 218.153C447.64 218.153 446.447 219.798 446.442 222.641C446.442 225.496 447.623 227.141 449.643 227.145ZM449.643 226.007C448.462 226.007 447.751 224.822 447.751 222.641C447.755 220.467 448.467 219.27 449.643 219.27C450.815 219.27 451.53 220.467 451.53 222.641C451.53 224.822 450.819 226.007 449.643 226.007Z" fill="#B9C5D9"/>
<circle cx="319.5" cy="131.5" r="2.5" fill="#FF9536"/>
<path d="M335.105 137C338.208 137 340.002 135.076 340.002 131.894C340.002 128.727 338.208 126.818 335.21 126.818H331.809V137H335.105ZM333.345 135.658V128.161H335.115C337.343 128.161 338.491 129.493 338.491 131.894C338.491 134.305 337.343 135.658 335.021 135.658H333.345ZM346.631 133.833C346.636 135.131 345.671 135.747 344.836 135.747C343.916 135.747 343.28 135.081 343.28 134.042V129.364H341.793V134.221C341.793 136.115 342.832 137.099 344.299 137.099C345.448 137.099 346.228 136.493 346.581 135.678H346.661V137H348.122V129.364H346.631V133.833ZM353.411 137.154C355.076 137.154 356.255 136.334 356.593 135.091L355.186 134.837C354.917 135.558 354.271 135.926 353.426 135.926C352.153 135.926 351.298 135.101 351.258 133.629H356.687V133.102C356.687 130.343 355.037 129.264 353.306 129.264C351.179 129.264 349.777 130.885 349.777 133.232C349.777 135.603 351.159 137.154 353.411 137.154ZM351.263 132.516C351.323 131.432 352.108 130.492 353.316 130.492C354.47 130.492 355.225 131.347 355.23 132.516H351.263ZM362.041 137H363.528V129.364H362.041V137ZM362.792 128.185C363.304 128.185 363.732 127.788 363.732 127.3C363.732 126.813 363.304 126.411 362.792 126.411C362.275 126.411 361.853 126.813 361.853 127.3C361.853 127.788 362.275 128.185 362.792 128.185ZM367.014 132.466C367.014 131.248 367.76 130.552 368.794 130.552C369.803 130.552 370.415 131.213 370.415 132.322V137H371.901V132.143C371.901 130.254 370.862 129.264 369.301 129.264C368.153 129.264 367.402 129.796 367.049 130.607H366.955V129.364H365.528V137H367.014V132.466ZM381.443 126.818H379.947L377.406 128.479V129.95L379.842 128.359H379.902V137H381.443V126.818ZM387.742 137.169C390.094 137.169 391.471 135.25 391.471 131.914C391.471 128.603 390.074 126.679 387.742 126.679C385.405 126.679 384.013 128.598 384.008 131.914C384.008 135.245 385.386 137.164 387.742 137.169ZM387.742 135.842C386.365 135.842 385.535 134.46 385.535 131.914C385.54 129.379 386.37 127.982 387.742 127.982C389.109 127.982 389.945 129.379 389.945 131.914C389.945 134.46 389.114 135.842 387.742 135.842ZM399.818 137.149C401.21 137.149 401.757 136.299 402.026 135.812H402.15V137H403.601V126.818H402.115V130.602H402.026C401.757 130.129 401.25 129.264 399.828 129.264C397.984 129.264 396.626 130.721 396.626 133.197C396.626 135.668 397.964 137.149 399.818 137.149ZM400.146 135.881C398.819 135.881 398.128 134.713 398.128 133.182C398.128 131.665 398.804 130.527 400.146 130.527C401.444 130.527 402.14 131.586 402.14 133.182C402.14 134.788 401.429 135.881 400.146 135.881ZM407.945 137.169C409.208 137.169 409.919 136.528 410.203 135.956H410.262V137H411.714V131.929C411.714 129.707 409.964 129.264 408.751 129.264C407.369 129.264 406.096 129.821 405.599 131.213L406.996 131.531C407.215 130.989 407.771 130.467 408.771 130.467C409.73 130.467 410.222 130.969 410.222 131.835V131.869C410.222 132.411 409.666 132.401 408.293 132.56C406.847 132.729 405.365 133.107 405.365 134.842C405.365 136.344 406.494 137.169 407.945 137.169ZM408.269 135.976C407.428 135.976 406.822 135.598 406.822 134.862C406.822 134.067 407.528 133.783 408.388 133.669C408.87 133.604 410.014 133.475 410.227 133.261V134.246C410.227 135.151 409.507 135.976 408.269 135.976ZM414.36 139.864C415.588 139.864 416.364 139.222 416.806 138.019L419.963 129.379L418.357 129.364L416.423 135.29H416.344L414.41 129.364H412.819L415.613 137.099L415.429 137.607C415.051 138.621 414.519 138.705 413.704 138.482L413.346 139.7C413.525 139.779 413.913 139.864 414.36 139.864ZM427.086 131.228C426.778 130.04 425.848 129.264 424.198 129.264C422.472 129.264 421.249 130.174 421.249 131.526C421.249 132.61 421.906 133.331 423.337 133.649L424.63 133.933C425.366 134.097 425.709 134.425 425.709 134.902C425.709 135.494 425.078 135.956 424.103 135.956C423.213 135.956 422.641 135.573 422.462 134.822L421.026 135.041C421.274 136.393 422.398 137.154 424.113 137.154C425.957 137.154 427.235 136.175 427.235 134.793C427.235 133.714 426.549 133.048 425.147 132.724L423.934 132.446C423.094 132.247 422.731 131.964 422.736 131.447C422.731 130.86 423.367 130.442 424.212 130.442C425.137 130.442 425.565 130.955 425.739 131.467L427.086 131.228Z" fill="#FF9536"/>
<path d="M334.475 158C337.134 158 338.672 156.351 338.672 153.624C338.672 150.909 337.134 149.273 334.564 149.273H331.649V158H334.475ZM332.966 156.849V150.423H334.483C336.392 150.423 337.377 151.565 337.377 153.624C337.377 155.69 336.392 156.849 334.402 156.849H332.966ZM344.354 155.286C344.358 156.398 343.531 156.926 342.815 156.926C342.027 156.926 341.481 156.355 341.481 155.464V151.455H340.207V155.618C340.207 157.241 341.098 158.085 342.355 158.085C343.339 158.085 344.008 157.565 344.311 156.866H344.379V158H345.632V151.455H344.354V155.286ZM350.165 158.132C351.593 158.132 352.603 157.429 352.892 156.364L351.686 156.146C351.456 156.764 350.902 157.08 350.178 157.08C349.087 157.08 348.354 156.372 348.32 155.111H352.973V154.659C352.973 152.294 351.559 151.369 350.076 151.369C348.252 151.369 347.05 152.759 347.05 154.77C347.05 156.803 348.235 158.132 350.165 158.132ZM348.324 154.156C348.375 153.227 349.049 152.422 350.084 152.422C351.073 152.422 351.72 153.155 351.725 154.156H348.324ZM360.32 158.132C362.165 158.132 363.371 156.781 363.371 154.757C363.371 152.72 362.165 151.369 360.32 151.369C358.475 151.369 357.269 152.72 357.269 154.757C357.269 156.781 358.475 158.132 360.32 158.132ZM360.324 157.062C359.118 157.062 358.556 156.01 358.556 154.753C358.556 153.5 359.118 152.435 360.324 152.435C361.522 152.435 362.084 153.5 362.084 154.753C362.084 156.01 361.522 157.062 360.324 157.062ZM366.067 154.114C366.067 153.07 366.707 152.473 367.593 152.473C368.458 152.473 368.982 153.04 368.982 153.99V158H370.256V153.837C370.256 152.217 369.366 151.369 368.028 151.369C367.043 151.369 366.4 151.825 366.097 152.52H366.016V151.455H364.793V158H366.067V154.114ZM372.805 153.317C373.269 153.317 373.657 152.938 373.657 152.464C373.657 152 373.269 151.616 372.805 151.616C372.336 151.616 371.952 152 371.952 152.464C371.952 152.938 372.336 153.317 372.805 153.317ZM372.805 158.081C373.269 158.081 373.657 157.702 373.657 157.229C373.657 156.764 373.269 156.381 372.805 156.381C372.336 156.381 371.952 156.764 371.952 157.229C371.952 157.702 372.336 158.081 372.805 158.081ZM381.561 158.145C383.576 158.145 384.757 156.5 384.757 153.641C384.757 150.803 383.559 149.153 381.561 149.153C379.558 149.153 378.365 150.798 378.36 153.641C378.36 156.496 379.541 158.141 381.561 158.145ZM381.561 157.007C380.38 157.007 379.669 155.822 379.669 153.641C379.673 151.467 380.385 150.27 381.561 150.27C382.733 150.27 383.448 151.467 383.448 153.641C383.448 155.822 382.737 157.007 381.561 157.007ZM389.149 158.119C390.905 158.119 392.158 156.879 392.153 155.179C392.158 153.491 390.981 152.264 389.392 152.264C388.744 152.264 388.143 152.511 387.802 152.844H387.751L388.028 150.402H391.731V149.273H386.933L386.443 153.67L387.649 153.849C387.977 153.555 388.565 153.355 389.094 153.355C390.129 153.364 390.879 154.139 390.879 155.205C390.879 156.253 390.151 157.011 389.149 157.011C388.305 157.011 387.636 156.474 387.568 155.724H386.29C386.341 157.114 387.547 158.119 389.149 158.119ZM397.051 148.864H395.913L393.1 159.312H394.238L397.051 148.864ZM401.427 149.273H400.144L397.967 150.696V151.957L400.055 150.594H400.106V158H401.427V149.273ZM406.669 158.119C408.424 158.119 409.677 156.879 409.673 155.179C409.677 153.491 408.501 152.264 406.912 152.264C406.264 152.264 405.663 152.511 405.322 152.844H405.271L405.548 150.402H409.251V149.273H404.453L403.963 153.67L405.169 153.849C405.497 153.555 406.085 153.355 406.613 153.355C407.649 153.364 408.399 154.139 408.399 155.205C408.399 156.253 407.67 157.011 406.669 157.011C405.825 157.011 405.156 156.474 405.088 155.724H403.809C403.86 157.114 405.066 158.119 406.669 158.119ZM414.57 148.864H413.432L410.62 159.312H411.758L414.57 148.864ZM415.636 158H421.38V156.871H417.451V156.807L419.185 154.991C420.783 153.376 421.239 152.605 421.239 151.629C421.239 150.227 420.097 149.153 418.452 149.153C416.82 149.153 415.627 150.21 415.627 151.804H416.884C416.88 150.866 417.485 150.253 418.427 150.253C419.313 150.253 419.986 150.798 419.986 151.668C419.986 152.439 419.526 152.993 418.589 153.986L415.636 157.045V158ZM426.033 158.145C428.049 158.145 429.229 156.5 429.229 153.641C429.229 150.803 428.032 149.153 426.033 149.153C424.03 149.153 422.837 150.798 422.833 153.641C422.833 156.496 424.013 158.141 426.033 158.145ZM426.033 157.007C424.853 157.007 424.141 155.822 424.141 153.641C424.146 151.467 424.857 150.27 426.033 150.27C427.205 150.27 427.921 151.467 427.921 153.641C427.921 155.822 427.209 157.007 426.033 157.007ZM430.741 158H436.485V156.871H432.556V156.807L434.291 154.991C435.889 153.376 436.345 152.605 436.345 151.629C436.345 150.227 435.203 149.153 433.558 149.153C431.926 149.153 430.733 150.21 430.733 151.804H431.99C431.985 150.866 432.59 150.253 433.532 150.253C434.419 150.253 435.092 150.798 435.092 151.668C435.092 152.439 434.632 152.993 433.694 153.986L430.741 157.045V158ZM441.139 158.145C443.154 158.145 444.335 156.5 444.335 153.641C444.335 150.803 443.137 149.153 441.139 149.153C439.136 149.153 437.943 150.798 437.938 153.641C437.938 156.496 439.119 158.141 441.139 158.145ZM441.139 157.007C439.958 157.007 439.247 155.822 439.247 153.641C439.251 151.467 439.963 150.27 441.139 150.27C442.311 150.27 443.027 151.467 443.027 153.641C443.027 155.822 442.315 157.007 441.139 157.007Z" fill="#B9C5D9"/>
<path d="M335.105 68C338.208 68 340.002 66.076 340.002 62.8942C340.002 59.7273 338.208 57.8182 335.21 57.8182H331.809V68H335.105ZM333.345 66.6577V59.1605H335.115C337.343 59.1605 338.491 60.4929 338.491 62.8942C338.491 65.3054 337.343 66.6577 335.021 66.6577H333.345ZM346.631 64.8331C346.636 66.1307 345.671 66.7472 344.836 66.7472C343.916 66.7472 343.28 66.081 343.28 65.0419V60.3636H341.793V65.2209C341.793 67.1151 342.833 68.0994 344.299 68.0994C345.448 68.0994 346.228 67.4929 346.581 66.6776H346.661V68H348.122V60.3636H346.631V64.8331ZM353.411 68.1541C355.076 68.1541 356.255 67.3338 356.593 66.0909L355.186 65.8374C354.917 66.5582 354.271 66.9261 353.426 66.9261C352.153 66.9261 351.298 66.1009 351.258 64.6293H356.687V64.1023C356.687 61.343 355.037 60.2642 353.306 60.2642C351.179 60.2642 349.777 61.8849 349.777 64.2315C349.777 66.603 351.159 68.1541 353.411 68.1541ZM351.263 63.5156C351.323 62.4318 352.108 61.4922 353.316 61.4922C354.47 61.4922 355.225 62.3473 355.23 63.5156H351.263ZM362.041 68H363.528V60.3636H362.041V68ZM362.792 59.1854C363.304 59.1854 363.732 58.7876 363.732 58.3004C363.732 57.8132 363.304 57.4105 362.792 57.4105C362.275 57.4105 361.853 57.8132 361.853 58.3004C361.853 58.7876 362.275 59.1854 362.792 59.1854ZM367.014 63.4659C367.014 62.2479 367.76 61.5518 368.794 61.5518C369.803 61.5518 370.415 62.2131 370.415 63.3217V68H371.901V63.1428C371.901 61.2536 370.862 60.2642 369.301 60.2642C368.153 60.2642 367.402 60.7962 367.049 61.6065H366.955V60.3636H365.528V68H367.014V63.4659ZM377.58 68H384.282V66.6825H379.698V66.608L381.722 64.4901C383.586 62.6058 384.118 61.706 384.118 60.5675C384.118 58.9318 382.785 57.679 380.866 57.679C378.962 57.679 377.57 58.9119 377.57 60.7713H379.037C379.032 59.6776 379.738 58.9616 380.837 58.9616C381.871 58.9616 382.656 59.598 382.656 60.6122C382.656 61.5121 382.119 62.1584 381.026 63.3168L377.58 66.8864V68ZM389.721 68.1392C391.849 68.1591 393.261 66.6278 393.256 64.674C393.261 62.7251 391.844 61.3281 390.079 61.3281C389.005 61.3281 388.075 61.8452 387.553 62.7053H387.479C387.484 60.3935 388.359 59.0213 389.85 59.0213C390.829 59.0213 391.446 59.6179 391.655 60.4631H393.171C392.937 58.8523 391.67 57.679 389.85 57.679C387.484 57.679 386.007 59.7124 386.007 63.2521C386.002 67.0007 387.911 68.1243 389.721 68.1392ZM389.716 66.8466C388.533 66.8466 387.668 65.8523 387.668 64.7088C387.673 63.5703 388.577 62.576 389.751 62.576C390.914 62.576 391.769 63.5156 391.764 64.6939C391.769 65.897 390.879 66.8466 389.716 66.8466ZM401.65 68.1491C403.042 68.1491 403.589 67.299 403.858 66.8118H403.982V68H405.434V57.8182H403.947V61.6016H403.858C403.589 61.1293 403.082 60.2642 401.66 60.2642C399.816 60.2642 398.458 61.7209 398.458 64.1967C398.458 66.6676 399.796 68.1491 401.65 68.1491ZM401.978 66.8814C400.651 66.8814 399.96 65.7131 399.96 64.1818C399.96 62.6655 400.636 61.527 401.978 61.527C403.276 61.527 403.972 62.5859 403.972 64.1818C403.972 65.7876 403.261 66.8814 401.978 66.8814ZM409.777 68.169C411.04 68.169 411.751 67.5277 412.035 66.956H412.094V68H413.546V62.929C413.546 60.7067 411.796 60.2642 410.583 60.2642C409.201 60.2642 407.928 60.821 407.431 62.2131L408.828 62.5312C409.047 61.9893 409.603 61.4673 410.603 61.4673C411.562 61.4673 412.054 61.9695 412.054 62.8345V62.8693C412.054 63.4112 411.498 63.4013 410.125 63.5604C408.679 63.7294 407.197 64.1072 407.197 65.8423C407.197 67.3438 408.326 68.169 409.777 68.169ZM410.101 66.9759C409.26 66.9759 408.654 66.598 408.654 65.8622C408.654 65.0668 409.36 64.7834 410.22 64.669C410.702 64.6044 411.846 64.4751 412.059 64.2614V65.2457C412.059 66.1506 411.339 66.9759 410.101 66.9759ZM416.192 70.8636C417.42 70.8636 418.196 70.2223 418.638 69.0192L421.795 60.3786L420.189 60.3636L418.255 66.2898H418.176L416.242 60.3636H414.651L417.445 68.0994L417.261 68.6065C416.883 69.6207 416.351 69.7053 415.536 69.4815L415.178 70.6996C415.357 70.7791 415.745 70.8636 416.192 70.8636ZM428.918 62.228C428.61 61.0398 427.68 60.2642 426.03 60.2642C424.304 60.2642 423.081 61.174 423.081 62.5263C423.081 63.6101 423.738 64.331 425.17 64.6491L426.462 64.9325C427.198 65.0966 427.541 65.4247 427.541 65.902C427.541 66.4936 426.91 66.956 425.935 66.956C425.045 66.956 424.473 66.5732 424.295 65.8224L422.858 66.0412C423.106 67.3935 424.23 68.1541 425.945 68.1541C427.79 68.1541 429.067 67.1747 429.067 65.7926C429.067 64.7138 428.381 64.0476 426.979 63.7244L425.766 63.446C424.926 63.2472 424.563 62.9638 424.568 62.4467C424.563 61.8601 425.199 61.4425 426.045 61.4425C426.969 61.4425 427.397 61.9545 427.571 62.4666L428.918 62.228Z" fill="#2C2D53"/>
<path d="M334.475 89C337.134 89 338.672 87.3509 338.672 84.6236C338.672 81.9091 337.134 80.2727 334.564 80.2727H331.649V89H334.475ZM332.966 87.8494V81.4233H334.483C336.392 81.4233 337.377 82.5653 337.377 84.6236C337.377 86.6903 336.392 87.8494 334.402 87.8494H332.966ZM344.354 86.2855C344.358 87.3977 343.531 87.9261 342.815 87.9261C342.027 87.9261 341.481 87.3551 341.481 86.4645V82.4545H340.207V86.6179C340.207 88.2415 341.098 89.0852 342.355 89.0852C343.339 89.0852 344.008 88.5653 344.311 87.8665H344.379V89H345.632V82.4545H344.354V86.2855ZM350.165 89.1321C351.593 89.1321 352.603 88.429 352.892 87.3636L351.686 87.1463C351.456 87.7642 350.902 88.0795 350.178 88.0795C349.087 88.0795 348.354 87.3722 348.32 86.1108H352.973V85.6591C352.973 83.294 351.559 82.3693 350.076 82.3693C348.252 82.3693 347.05 83.7585 347.05 85.7699C347.05 87.8026 348.235 89.1321 350.165 89.1321ZM348.324 85.1562C348.375 84.2273 349.049 83.4219 350.084 83.4219C351.073 83.4219 351.72 84.1548 351.725 85.1562H348.324ZM360.32 89.1321C362.165 89.1321 363.371 87.7812 363.371 85.7571C363.371 83.7202 362.165 82.3693 360.32 82.3693C358.475 82.3693 357.269 83.7202 357.269 85.7571C357.269 87.7812 358.475 89.1321 360.32 89.1321ZM360.324 88.0625C359.118 88.0625 358.556 87.0099 358.556 85.7528C358.556 84.5 359.118 83.4347 360.324 83.4347C361.522 83.4347 362.084 84.5 362.084 85.7528C362.084 87.0099 361.522 88.0625 360.324 88.0625ZM366.067 85.1136C366.067 84.0696 366.707 83.473 367.593 83.473C368.458 83.473 368.982 84.0398 368.982 84.9901V89H370.256V84.8366C370.256 83.2173 369.366 82.3693 368.028 82.3693C367.043 82.3693 366.4 82.8253 366.097 83.5199H366.016V82.4545H364.793V89H366.067V85.1136ZM372.805 84.3168C373.269 84.3168 373.657 83.9375 373.657 83.4645C373.657 83 373.269 82.6165 372.805 82.6165C372.336 82.6165 371.952 83 371.952 83.4645C371.952 83.9375 372.336 84.3168 372.805 84.3168ZM372.805 89.081C373.269 89.081 373.657 88.7017 373.657 88.2287C373.657 87.7642 373.269 87.3807 372.805 87.3807C372.336 87.3807 371.952 87.7642 371.952 88.2287C371.952 88.7017 372.336 89.081 372.805 89.081ZM381.561 89.1449C383.576 89.1449 384.757 87.5 384.757 84.6406C384.757 81.8026 383.559 80.1534 381.561 80.1534C379.558 80.1534 378.365 81.7983 378.36 84.6406C378.36 87.4957 379.541 89.1406 381.561 89.1449ZM381.561 88.0071C380.38 88.0071 379.669 86.8224 379.669 84.6406C379.673 82.4673 380.385 81.2699 381.561 81.2699C382.733 81.2699 383.448 82.4673 383.448 84.6406C383.448 86.8224 382.737 88.0071 381.561 88.0071ZM389.149 89.1193C390.905 89.1193 392.158 87.8793 392.153 86.179C392.158 84.4915 390.981 83.2642 389.392 83.2642C388.744 83.2642 388.143 83.5114 387.803 83.8438H387.751L388.028 81.402H391.731V80.2727H386.933L386.443 84.6705L387.649 84.8494C387.977 84.5554 388.565 84.3551 389.094 84.3551C390.129 84.3636 390.879 85.1392 390.879 86.2045C390.879 87.2528 390.151 88.0114 389.149 88.0114C388.305 88.0114 387.636 87.4744 387.568 86.7244H386.29C386.341 88.1136 387.547 89.1193 389.149 89.1193ZM397.051 79.8636H395.913L393.1 90.3125H394.238L397.051 79.8636ZM401.154 89.1193C402.936 89.1193 404.244 88.054 404.24 86.6051C404.244 85.5014 403.575 84.7088 402.416 84.5298V84.4616C403.328 84.2273 403.92 83.5114 403.916 82.5312C403.92 81.2486 402.867 80.1534 401.189 80.1534C399.586 80.1534 398.299 81.1207 398.257 82.5398H399.531C399.561 81.7386 400.315 81.2528 401.171 81.2528C402.062 81.2528 402.646 81.794 402.642 82.5994C402.646 83.4432 401.968 83.9972 401.001 83.9972H400.264V85.071H401.001C402.211 85.071 402.91 85.6847 402.91 86.5625C402.91 87.4105 402.173 87.9858 401.146 87.9858C400.2 87.9858 399.463 87.5 399.412 86.7244H398.073C398.129 88.1477 399.39 89.1193 401.154 89.1193ZM409.162 80.2727H407.879L405.701 81.696V82.9574L407.789 81.5938H407.841V89H409.162V80.2727ZM414.863 79.8636H413.725L410.913 90.3125H412.051L414.863 79.8636ZM415.929 89H421.673V87.8707H417.744V87.8068L419.478 85.9915C421.076 84.3764 421.532 83.6051 421.532 82.6293C421.532 81.2273 420.39 80.1534 418.745 80.1534C417.113 80.1534 415.92 81.2102 415.92 82.804H417.177C417.173 81.8665 417.778 81.2528 418.72 81.2528C419.606 81.2528 420.279 81.7983 420.279 82.6676C420.279 83.4389 419.819 83.9929 418.882 84.9858L415.929 88.0455V89ZM426.326 89.1449C428.342 89.1449 429.522 87.5 429.522 84.6406C429.522 81.8026 428.325 80.1534 426.326 80.1534C424.323 80.1534 423.13 81.7983 423.126 84.6406C423.126 87.4957 424.306 89.1406 426.326 89.1449ZM426.326 88.0071C425.146 88.0071 424.434 86.8224 424.434 84.6406C424.439 82.4673 425.15 81.2699 426.326 81.2699C427.498 81.2699 428.214 82.4673 428.214 84.6406C428.214 86.8224 427.502 88.0071 426.326 88.0071ZM431.034 89H436.778V87.8707H432.849V87.8068L434.584 85.9915C436.182 84.3764 436.638 83.6051 436.638 82.6293C436.638 81.2273 435.496 80.1534 433.851 80.1534C432.219 80.1534 431.026 81.2102 431.026 82.804H432.283C432.278 81.8665 432.883 81.2528 433.825 81.2528C434.712 81.2528 435.385 81.7983 435.385 82.6676C435.385 83.4389 434.925 83.9929 433.987 84.9858L431.034 88.0455V89ZM441.432 89.1449C443.447 89.1449 444.628 87.5 444.628 84.6406C444.628 81.8026 443.43 80.1534 441.432 80.1534C439.429 80.1534 438.236 81.7983 438.231 84.6406C438.231 87.4957 439.412 89.1406 441.432 89.1449ZM441.432 88.0071C440.251 88.0071 439.54 86.8224 439.54 84.6406C439.544 82.4673 440.256 81.2699 441.432 81.2699C442.604 81.2699 443.32 82.4673 443.32 84.6406C443.32 86.8224 442.608 88.0071 441.432 88.0071Z" fill="#B9C5D9"/>
<rect x="590" y="118" width="44" height="19" rx="9.5" fill="#6DC9FD" fill-opacity="0.31"/>
<path d="M611.594 132L612.395 129.69H615.804L616.601 132H617.999L614.858 123.273H613.337L610.196 132H611.594ZM612.779 128.582L614.066 124.858H614.134L615.421 128.582H612.779ZM626.098 126.111C625.799 124.244 624.338 123.153 622.493 123.153C620.234 123.153 618.568 124.845 618.568 127.636C618.568 130.428 620.226 132.119 622.493 132.119C624.41 132.119 625.812 130.918 626.098 129.192L624.768 129.188C624.542 130.304 623.605 130.918 622.501 130.918C621.005 130.918 619.876 129.771 619.876 127.636C619.876 125.518 621.001 124.355 622.505 124.355C623.618 124.355 624.551 124.982 624.768 126.111H626.098Z" fill="#00A3FF"/>
<circle cx="601" cy="128" r="3" fill="#00A3FF"/>
<path d="M591.696 154L592.497 151.69H595.906L596.703 154H598.101L594.96 145.273H593.439L590.298 154H591.696ZM592.881 150.582L594.168 146.858H594.236L595.523 150.582H592.881ZM599.858 154H601.153L602.483 149.274H602.581L603.91 154H605.21L607.132 147.455H605.815L604.541 152.24H604.477L603.199 147.455H601.882L600.595 152.261H600.531L599.248 147.455H597.931L599.858 154ZM610.246 154.145C611.328 154.145 611.938 153.595 612.18 153.105H612.232V154H613.476V149.653C613.476 147.749 611.976 147.369 610.936 147.369C609.751 147.369 608.661 147.847 608.234 149.04L609.432 149.312C609.619 148.848 610.097 148.401 610.953 148.401C611.776 148.401 612.197 148.831 612.197 149.572V149.602C612.197 150.067 611.72 150.058 610.544 150.195C609.304 150.339 608.034 150.663 608.034 152.151C608.034 153.438 609.001 154.145 610.246 154.145ZM610.523 153.122C609.803 153.122 609.283 152.798 609.283 152.168C609.283 151.486 609.888 151.243 610.625 151.145C611.038 151.089 612.018 150.979 612.202 150.795V151.639C612.202 152.415 611.584 153.122 610.523 153.122ZM615.173 154H616.447V147.455H615.173V154ZM615.816 146.445C616.255 146.445 616.622 146.104 616.622 145.686C616.622 145.268 616.255 144.923 615.816 144.923C615.373 144.923 615.011 145.268 615.011 145.686C615.011 146.104 615.373 146.445 615.816 146.445ZM621.217 147.455H619.874V145.886H618.6V147.455H617.641V148.477H618.6V152.342C618.596 153.531 619.504 154.107 620.509 154.085C620.914 154.081 621.187 154.004 621.336 153.949L621.106 152.896C621.021 152.913 620.863 152.952 620.658 152.952C620.245 152.952 619.874 152.815 619.874 152.078V148.477H621.217V147.455ZM622.626 154H623.9V147.455H622.626V154ZM623.27 146.445C623.708 146.445 624.075 146.104 624.075 145.686C624.075 145.268 623.708 144.923 623.27 144.923C622.826 144.923 622.464 145.268 622.464 145.686C622.464 146.104 622.826 146.445 623.27 146.445ZM626.888 150.114C626.888 149.07 627.528 148.473 628.414 148.473C629.279 148.473 629.803 149.04 629.803 149.99V154H631.077V149.837C631.077 148.217 630.187 147.369 628.849 147.369C627.864 147.369 627.221 147.825 626.918 148.52H626.837V147.455H625.614V154H626.888V150.114ZM635.531 156.591C637.197 156.591 638.484 155.828 638.484 154.145V147.455H637.235V148.516H637.141C636.915 148.111 636.464 147.369 635.245 147.369C633.664 147.369 632.501 148.618 632.501 150.702C632.501 152.79 633.69 153.902 635.237 153.902C636.438 153.902 636.903 153.224 637.133 152.807H637.214V154.094C637.214 155.121 636.511 155.564 635.543 155.564C634.482 155.564 634.069 155.031 633.843 154.656L632.748 155.108C633.093 155.909 633.967 156.591 635.531 156.591ZM635.518 152.845C634.38 152.845 633.788 151.972 633.788 150.685C633.788 149.428 634.367 148.452 635.518 148.452C636.63 148.452 637.227 149.359 637.227 150.685C637.227 152.036 636.617 152.845 635.518 152.845ZM646.125 154.132C647.672 154.132 648.674 153.203 648.814 151.929H647.574C647.412 152.636 646.863 153.054 646.134 153.054C645.056 153.054 644.361 152.155 644.361 150.727C644.361 149.325 645.069 148.443 646.134 148.443C646.944 148.443 647.438 148.955 647.574 149.568H648.814C648.678 148.247 647.6 147.369 646.113 147.369C644.267 147.369 643.074 148.759 643.074 150.757C643.074 152.73 644.225 154.132 646.125 154.132ZM652.934 154.132C654.779 154.132 655.985 152.781 655.985 150.757C655.985 148.72 654.779 147.369 652.934 147.369C651.089 147.369 649.883 148.72 649.883 150.757C649.883 152.781 651.089 154.132 652.934 154.132ZM652.938 153.062C651.732 153.062 651.17 152.01 651.17 150.753C651.17 149.5 651.732 148.435 652.938 148.435C654.136 148.435 654.698 149.5 654.698 150.753C654.698 152.01 654.136 153.062 652.938 153.062ZM658.681 150.114C658.681 149.07 659.321 148.473 660.207 148.473C661.072 148.473 661.596 149.04 661.596 149.99V154H662.87V149.837C662.87 148.217 661.98 147.369 660.642 147.369C659.657 147.369 659.014 147.825 658.711 148.52H658.63V147.455H657.407V154H658.681V150.114ZM669.484 149.053C669.22 148.034 668.423 147.369 667.008 147.369C665.529 147.369 664.481 148.149 664.481 149.308C664.481 150.237 665.044 150.855 666.271 151.128L667.379 151.371C668.01 151.511 668.304 151.793 668.304 152.202C668.304 152.709 667.762 153.105 666.927 153.105C666.164 153.105 665.674 152.777 665.521 152.134L664.289 152.321C664.502 153.48 665.466 154.132 666.936 154.132C668.517 154.132 669.612 153.293 669.612 152.108C669.612 151.183 669.024 150.612 667.822 150.335L666.782 150.097C666.062 149.926 665.751 149.683 665.755 149.24C665.751 148.737 666.297 148.379 667.021 148.379C667.814 148.379 668.18 148.818 668.329 149.257L669.484 149.053ZM675.159 151.286C675.163 152.398 674.337 152.926 673.621 152.926C672.832 152.926 672.287 152.355 672.287 151.464V147.455H671.013V151.618C671.013 153.241 671.903 154.085 673.161 154.085C674.145 154.085 674.814 153.565 675.116 152.866H675.185V154H676.438V147.455H675.159V151.286ZM679.424 145.273H678.15V154H679.424V145.273ZM684.193 147.455H682.851V145.886H681.577V147.455H680.618V148.477H681.577V152.342C681.572 153.531 682.48 154.107 683.486 154.085C683.891 154.081 684.163 154.004 684.312 153.949L684.082 152.896C683.997 152.913 683.839 152.952 683.635 152.952C683.222 152.952 682.851 152.815 682.851 152.078V148.477H684.193V147.455ZM687.507 154.145C688.59 154.145 689.199 153.595 689.442 153.105H689.493V154H690.738V149.653C690.738 147.749 689.238 147.369 688.198 147.369C687.013 147.369 685.922 147.847 685.496 149.04L686.694 149.312C686.881 148.848 687.358 148.401 688.215 148.401C689.037 148.401 689.459 148.831 689.459 149.572V149.602C689.459 150.067 688.982 150.058 687.806 150.195C686.566 150.339 685.296 150.663 685.296 152.151C685.296 153.438 686.263 154.145 687.507 154.145ZM687.784 153.122C687.064 153.122 686.544 152.798 686.544 152.168C686.544 151.486 687.15 151.243 687.887 151.145C688.3 151.089 689.28 150.979 689.463 150.795V151.639C689.463 152.415 688.846 153.122 687.784 153.122ZM693.709 150.114C693.709 149.07 694.348 148.473 695.234 148.473C696.099 148.473 696.624 149.04 696.624 149.99V154H697.898V149.837C697.898 148.217 697.007 147.369 695.669 147.369C694.685 147.369 694.041 147.825 693.739 148.52H693.658V147.455H692.435V154H693.709V150.114ZM702.662 147.455H701.32V145.886H700.045V147.455H699.087V148.477H700.045V152.342C700.041 153.531 700.949 154.107 701.955 154.085C702.359 154.081 702.632 154.004 702.781 153.949L702.551 152.896C702.466 152.913 702.308 152.952 702.104 152.952C701.69 152.952 701.32 152.815 701.32 152.078V148.477H702.662V147.455ZM707.247 154H708.521V150.003C708.521 149.146 709.182 148.528 710.085 148.528C710.349 148.528 710.648 148.575 710.75 148.605V147.386C710.622 147.369 710.371 147.357 710.209 147.357C709.442 147.357 708.786 147.791 708.547 148.494H708.479V147.455H707.247V154ZM714.439 154.132C715.867 154.132 716.877 153.429 717.167 152.364L715.961 152.146C715.73 152.764 715.176 153.08 714.452 153.08C713.361 153.08 712.628 152.372 712.594 151.111H717.248V150.659C717.248 148.294 715.833 147.369 714.35 147.369C712.526 147.369 711.324 148.759 711.324 150.77C711.324 152.803 712.509 154.132 714.439 154.132ZM712.598 150.156C712.65 149.227 713.323 148.422 714.358 148.422C715.347 148.422 715.995 149.155 715.999 150.156H712.598ZM724.061 147.455H722.694L721.04 152.491H720.972L719.314 147.455H717.946L720.324 154H721.688L724.061 147.455ZM725.259 154H726.533V147.455H725.259V154ZM725.902 146.445C726.341 146.445 726.708 146.104 726.708 145.686C726.708 145.268 726.341 144.923 725.902 144.923C725.459 144.923 725.097 145.268 725.097 145.686C725.097 146.104 725.459 146.445 725.902 146.445ZM731.068 154.132C732.496 154.132 733.506 153.429 733.795 152.364L732.589 152.146C732.359 152.764 731.805 153.08 731.081 153.08C729.99 153.08 729.257 152.372 729.223 151.111H733.876V150.659C733.876 148.294 732.462 147.369 730.979 147.369C729.155 147.369 727.953 148.759 727.953 150.77C727.953 152.803 729.138 154.132 731.068 154.132ZM729.227 150.156C729.278 149.227 729.952 148.422 730.987 148.422C731.976 148.422 732.624 149.155 732.628 150.156H729.227ZM736.697 154H737.993L739.322 149.274H739.42L740.75 154H742.05L743.972 147.455H742.655L741.381 152.24H741.317L740.038 147.455H738.722L737.435 152.261H737.371L736.088 147.455H734.771L736.697 154Z" fill="#B9C5D9"/>
<rect x="590" y="52" width="44" height="19" rx="9.5" fill="#7BFE88" fill-opacity="0.44"/>
<path d="M616.469 57.2727V62.9062C616.469 64.0909 615.651 64.9432 614.321 64.9432C612.996 64.9432 612.174 64.0909 612.174 62.9062V57.2727H610.857V63.0128C610.857 64.8452 612.229 66.1449 614.321 66.1449C616.414 66.1449 617.79 64.8452 617.79 63.0128V57.2727H616.469ZM619.705 66H621.021V62.6974H622.811C622.841 62.6974 622.867 62.6974 622.896 62.6974L624.669 66H626.169L624.234 62.4673C625.304 62.071 625.837 61.1804 625.837 60.0085C625.837 58.402 624.84 57.2727 622.815 57.2727H619.705V66ZM621.021 61.5639V58.402H622.675C623.975 58.402 624.511 59.0199 624.511 60.0085C624.511 60.9929 623.975 61.5639 622.692 61.5639H621.021Z" fill="#27A927"/>
<circle cx="601" cy="62" r="3" fill="#27A927"/>
<path d="M596.571 79.2727V84.9062C596.571 86.0909 595.753 86.9432 594.423 86.9432C593.098 86.9432 592.276 86.0909 592.276 84.9062V79.2727H590.959V85.0128C590.959 86.8452 592.331 88.1449 594.423 88.1449C596.516 88.1449 597.892 86.8452 597.892 85.0128V79.2727H596.571ZM600.978 84.1136C600.978 83.0696 601.618 82.473 602.504 82.473C603.369 82.473 603.893 83.0398 603.893 83.9901V88H605.167V83.8366C605.167 82.2173 604.277 81.3693 602.939 81.3693C601.954 81.3693 601.311 81.8253 601.008 82.5199H600.927V81.4545H599.704V88H600.978V84.1136ZM609.326 88.1278C610.52 88.1278 610.988 87.3991 611.218 86.9815H611.325V88H612.569V79.2727H611.295V82.5156H611.218C610.988 82.1108 610.554 81.3693 609.335 81.3693C607.754 81.3693 606.591 82.6179 606.591 84.7401C606.591 86.858 607.737 88.1278 609.326 88.1278ZM609.608 87.0412C608.47 87.0412 607.877 86.0398 607.877 84.7273C607.877 83.4276 608.457 82.4517 609.608 82.4517C610.72 82.4517 611.316 83.3594 611.316 84.7273C611.316 86.1037 610.707 87.0412 609.608 87.0412ZM617.209 88.1321C618.636 88.1321 619.646 87.429 619.936 86.3636L618.73 86.1463C618.5 86.7642 617.946 87.0795 617.222 87.0795C616.131 87.0795 615.398 86.3722 615.364 85.1108H620.017V84.6591C620.017 82.294 618.602 81.3693 617.119 81.3693C615.295 81.3693 614.094 82.7585 614.094 84.7699C614.094 86.8026 615.278 88.1321 617.209 88.1321ZM615.368 84.1562C615.419 83.2273 616.092 82.4219 617.128 82.4219C618.116 82.4219 618.764 83.1548 618.768 84.1562H615.368ZM621.431 88H622.705V84.0028C622.705 83.1463 623.365 82.5284 624.269 82.5284C624.533 82.5284 624.831 82.5753 624.934 82.6051V81.3864C624.806 81.3693 624.554 81.3565 624.392 81.3565C623.625 81.3565 622.969 81.7912 622.73 82.4943H622.662V81.4545H621.431V88ZM629.212 88H630.486V84.0028C630.486 83.1463 631.147 82.5284 632.05 82.5284C632.314 82.5284 632.613 82.5753 632.715 82.6051V81.3864C632.587 81.3693 632.336 81.3565 632.174 81.3565C631.407 81.3565 630.75 81.7912 630.512 82.4943H630.444V81.4545H629.212V88ZM636.404 88.1321C637.832 88.1321 638.842 87.429 639.131 86.3636L637.925 86.1463C637.695 86.7642 637.141 87.0795 636.417 87.0795C635.326 87.0795 634.593 86.3722 634.559 85.1108H639.212V84.6591C639.212 82.294 637.798 81.3693 636.315 81.3693C634.491 81.3693 633.289 82.7585 633.289 84.7699C633.289 86.8026 634.474 88.1321 636.404 88.1321ZM634.563 84.1562C634.614 83.2273 635.288 82.4219 636.323 82.4219C637.312 82.4219 637.96 83.1548 637.964 84.1562H634.563ZM646.026 81.4545H644.658L643.005 86.4915H642.937L641.279 81.4545H639.911L642.289 88H643.653L646.026 81.4545ZM647.224 88H648.498V81.4545H647.224V88ZM647.867 80.4446C648.306 80.4446 648.673 80.1037 648.673 79.6861C648.673 79.2685 648.306 78.9233 647.867 78.9233C647.424 78.9233 647.062 79.2685 647.062 79.6861C647.062 80.1037 647.424 80.4446 647.867 80.4446ZM653.033 88.1321C654.461 88.1321 655.471 87.429 655.76 86.3636L654.554 86.1463C654.324 86.7642 653.77 87.0795 653.046 87.0795C651.955 87.0795 651.222 86.3722 651.188 85.1108H655.841V84.6591C655.841 82.294 654.426 81.3693 652.944 81.3693C651.12 81.3693 649.918 82.7585 649.918 84.7699C649.918 86.8026 651.103 88.1321 653.033 88.1321ZM651.192 84.1562C651.243 83.2273 651.917 82.4219 652.952 82.4219C653.941 82.4219 654.588 83.1548 654.593 84.1562H651.192ZM658.662 88H659.958L661.287 83.2741H661.385L662.715 88H664.015L665.936 81.4545H664.62L663.346 86.2401H663.282L662.003 81.4545H660.686L659.4 86.2614H659.336L658.053 81.4545H656.736L658.662 88Z" fill="#B9C5D9"/>
<path d="M592.696 222L593.497 219.69H596.906L597.703 222H599.101L595.96 213.273H594.439L591.298 222H592.696ZM593.881 218.582L595.168 214.858H595.236L596.523 218.582H593.881ZM600.858 222H602.153L603.483 217.274H603.581L604.91 222H606.21L608.132 215.455H606.815L605.541 220.24H605.477L604.199 215.455H602.882L601.595 220.261H601.531L600.248 215.455H598.931L600.858 222ZM611.246 222.145C612.328 222.145 612.938 221.595 613.18 221.105H613.232V222H614.476V217.653C614.476 215.749 612.976 215.369 611.936 215.369C610.751 215.369 609.661 215.847 609.234 217.04L610.432 217.312C610.619 216.848 611.097 216.401 611.953 216.401C612.776 216.401 613.197 216.831 613.197 217.572V217.602C613.197 218.067 612.72 218.058 611.544 218.195C610.304 218.339 609.034 218.663 609.034 220.151C609.034 221.438 610.001 222.145 611.246 222.145ZM611.523 221.122C610.803 221.122 610.283 220.798 610.283 220.168C610.283 219.486 610.888 219.243 611.625 219.145C612.038 219.089 613.018 218.979 613.202 218.795V219.639C613.202 220.415 612.584 221.122 611.523 221.122ZM616.173 222H617.447V215.455H616.173V222ZM616.816 214.445C617.255 214.445 617.622 214.104 617.622 213.686C617.622 213.268 617.255 212.923 616.816 212.923C616.373 212.923 616.011 213.268 616.011 213.686C616.011 214.104 616.373 214.445 616.816 214.445ZM622.217 215.455H620.874V213.886H619.6V215.455H618.641V216.477H619.6V220.342C619.596 221.531 620.504 222.107 621.509 222.085C621.914 222.081 622.187 222.004 622.336 221.949L622.106 220.896C622.021 220.913 621.863 220.952 621.658 220.952C621.245 220.952 620.874 220.815 620.874 220.078V216.477H622.217V215.455ZM623.626 222H624.9V215.455H623.626V222ZM624.27 214.445C624.708 214.445 625.075 214.104 625.075 213.686C625.075 213.268 624.708 212.923 624.27 212.923C623.826 212.923 623.464 213.268 623.464 213.686C623.464 214.104 623.826 214.445 624.27 214.445ZM627.888 218.114C627.888 217.07 628.528 216.473 629.414 216.473C630.279 216.473 630.803 217.04 630.803 217.99V222H632.077V217.837C632.077 216.217 631.187 215.369 629.849 215.369C628.864 215.369 628.221 215.825 627.918 216.52H627.837V215.455H626.614V222H627.888V218.114ZM636.531 224.591C638.197 224.591 639.484 223.828 639.484 222.145V215.455H638.235V216.516H638.141C637.915 216.111 637.464 215.369 636.245 215.369C634.664 215.369 633.501 216.618 633.501 218.702C633.501 220.79 634.69 221.902 636.237 221.902C637.438 221.902 637.903 221.224 638.133 220.807H638.214V222.094C638.214 223.121 637.511 223.564 636.543 223.564C635.482 223.564 635.069 223.031 634.843 222.656L633.748 223.108C634.093 223.909 634.967 224.591 636.531 224.591ZM636.518 220.845C635.38 220.845 634.788 219.972 634.788 218.685C634.788 217.428 635.367 216.452 636.518 216.452C637.63 216.452 638.227 217.359 638.227 218.685C638.227 220.036 637.617 220.845 636.518 220.845ZM644.368 222H645.642V218.003C645.642 217.146 646.303 216.528 647.206 216.528C647.471 216.528 647.769 216.575 647.871 216.605V215.386C647.743 215.369 647.492 215.357 647.33 215.357C646.563 215.357 645.907 215.791 645.668 216.494H645.6V215.455H644.368V222ZM651.56 222.132C652.988 222.132 653.998 221.429 654.288 220.364L653.082 220.146C652.852 220.764 652.298 221.08 651.573 221.08C650.482 221.08 649.749 220.372 649.715 219.111H654.369V218.659C654.369 216.294 652.954 215.369 651.471 215.369C649.647 215.369 648.445 216.759 648.445 218.77C648.445 220.803 649.63 222.132 651.56 222.132ZM649.719 218.156C649.771 217.227 650.444 216.422 651.479 216.422C652.468 216.422 653.116 217.155 653.12 218.156H649.719ZM660.687 217.053C660.423 216.034 659.626 215.369 658.211 215.369C656.733 215.369 655.684 216.149 655.684 217.308C655.684 218.237 656.247 218.855 657.474 219.128L658.582 219.371C659.213 219.511 659.507 219.793 659.507 220.202C659.507 220.709 658.966 221.105 658.13 221.105C657.368 221.105 656.877 220.777 656.724 220.134L655.493 220.321C655.706 221.48 656.669 222.132 658.139 222.132C659.72 222.132 660.815 221.293 660.815 220.108C660.815 219.183 660.227 218.612 659.025 218.335L657.985 218.097C657.265 217.926 656.954 217.683 656.958 217.24C656.954 216.737 657.5 216.379 658.224 216.379C659.017 216.379 659.383 216.818 659.532 217.257L660.687 217.053ZM666.362 219.286C666.366 220.398 665.54 220.926 664.824 220.926C664.036 220.926 663.49 220.355 663.49 219.464V215.455H662.216V219.618C662.216 221.241 663.107 222.085 664.364 222.085C665.348 222.085 666.017 221.565 666.32 220.866H666.388V222H667.641V215.455H666.362V219.286ZM669.455 222H670.699V220.982H670.806C671.036 221.399 671.505 222.128 672.698 222.128C674.283 222.128 675.434 220.858 675.434 218.74C675.434 216.618 674.266 215.369 672.685 215.369C671.471 215.369 671.032 216.111 670.806 216.516H670.729V213.273H669.455V222ZM670.703 218.727C670.703 217.359 671.3 216.452 672.412 216.452C673.567 216.452 674.147 217.428 674.147 218.727C674.147 220.04 673.55 221.041 672.412 221.041C671.317 221.041 670.703 220.104 670.703 218.727ZM676.864 222H678.138V217.964C678.138 217.082 678.756 216.469 679.481 216.469C680.188 216.469 680.678 216.938 680.678 217.649V222H681.948V217.828C681.948 217.04 682.43 216.469 683.261 216.469C683.934 216.469 684.488 216.844 684.488 217.73V222H685.762V217.611C685.762 216.115 684.927 215.369 683.742 215.369C682.8 215.369 682.093 215.821 681.778 216.52H681.71C681.424 215.804 680.823 215.369 679.95 215.369C679.085 215.369 678.441 215.8 678.168 216.52H678.087V215.455H676.864V222ZM687.47 222H688.744V215.455H687.47V222ZM688.113 214.445C688.552 214.445 688.919 214.104 688.919 213.686C688.919 213.268 688.552 212.923 688.113 212.923C687.67 212.923 687.308 213.268 687.308 213.686C687.308 214.104 687.67 214.445 688.113 214.445ZM695.363 217.053C695.099 216.034 694.302 215.369 692.887 215.369C691.408 215.369 690.36 216.149 690.36 217.308C690.36 218.237 690.923 218.855 692.15 219.128L693.258 219.371C693.888 219.511 694.183 219.793 694.183 220.202C694.183 220.709 693.641 221.105 692.806 221.105C692.043 221.105 691.553 220.777 691.4 220.134L690.168 220.321C690.381 221.48 691.344 222.132 692.815 222.132C694.396 222.132 695.491 221.293 695.491 220.108C695.491 219.183 694.903 218.612 693.701 218.335L692.661 218.097C691.941 217.926 691.63 217.683 691.634 217.24C691.63 216.737 692.175 216.379 692.9 216.379C693.692 216.379 694.059 216.818 694.208 217.257L695.363 217.053ZM701.797 217.053C701.532 216.034 700.735 215.369 699.321 215.369C697.842 215.369 696.794 216.149 696.794 217.308C696.794 218.237 697.356 218.855 698.583 219.128L699.691 219.371C700.322 219.511 700.616 219.793 700.616 220.202C700.616 220.709 700.075 221.105 699.24 221.105C698.477 221.105 697.987 220.777 697.833 220.134L696.602 220.321C696.815 221.48 697.778 222.132 699.248 222.132C700.829 222.132 701.924 221.293 701.924 220.108C701.924 219.183 701.336 218.612 700.135 218.335L699.095 218.097C698.375 217.926 698.064 217.683 698.068 217.24C698.064 216.737 698.609 216.379 699.333 216.379C700.126 216.379 700.493 216.818 700.642 217.257L701.797 217.053ZM703.325 222H704.599V215.455H703.325V222ZM703.969 214.445C704.408 214.445 704.774 214.104 704.774 213.686C704.774 213.268 704.408 212.923 703.969 212.923C703.526 212.923 703.163 213.268 703.163 213.686C703.163 214.104 703.526 214.445 703.969 214.445ZM709.071 222.132C710.916 222.132 712.122 220.781 712.122 218.757C712.122 216.72 710.916 215.369 709.071 215.369C707.225 215.369 706.02 216.72 706.02 218.757C706.02 220.781 707.225 222.132 709.071 222.132ZM709.075 221.062C707.869 221.062 707.306 220.01 707.306 218.753C707.306 217.5 707.869 216.435 709.075 216.435C710.272 216.435 710.835 217.5 710.835 218.753C710.835 220.01 710.272 221.062 709.075 221.062ZM714.818 218.114C714.818 217.07 715.457 216.473 716.344 216.473C717.209 216.473 717.733 217.04 717.733 217.99V222H719.007V217.837C719.007 216.217 718.116 215.369 716.778 215.369C715.794 215.369 715.151 215.825 714.848 216.52H714.767V215.455H713.544V222H714.818V218.114Z" fill="#B9C5D9"/>
<rect x="591" y="186" width="44" height="19" rx="9.5" fill="#E0E0E0" fill-opacity="0.44"/>
<path d="M612.594 200L613.395 197.69H616.804L617.601 200H618.999L615.858 191.273H614.337L611.196 200H612.594ZM613.779 196.582L615.066 192.858H615.134L616.421 196.582H613.779ZM624.949 193.565H626.219C626.181 192.168 624.945 191.153 623.172 191.153C621.421 191.153 620.078 192.155 620.078 193.659C620.078 194.874 620.948 195.585 622.35 195.964L623.381 196.246C624.314 196.493 625.034 196.8 625.034 197.575C625.034 198.428 624.22 198.99 623.1 198.99C622.085 198.99 621.242 198.538 621.165 197.588H619.844C619.929 199.169 621.152 200.145 623.108 200.145C625.158 200.145 626.338 199.067 626.338 197.588C626.338 196.016 624.936 195.406 623.828 195.134L622.976 194.912C622.294 194.737 621.386 194.418 621.391 193.582C621.391 192.841 622.068 192.291 623.142 192.291C624.144 192.291 624.855 192.76 624.949 193.565Z" fill="#939393"/>
<circle cx="602" cy="196" r="3" fill="#939393"/>
</svg>
