<svg width="771" height="299" viewBox="0 0 771 299" fill="none" xmlns="http://www.w3.org/2000/svg">
<path d="M8.03223 4.12695H4.83301V13H3.52734V4.12695H0.334961V3.04688H8.03223V4.12695ZM15.1348 8.39941H10.8213V11.9268H15.832V13H9.50879V3.04688H15.7637V4.12695H10.8213V7.32617H15.1348V8.39941ZM20.7129 6.86133L23.0986 3.04688H24.6436L21.499 7.98242L24.7188 13H23.1602L20.7129 9.11719L18.252 13H16.7002L19.9268 7.98242L16.7754 3.04688H18.3135L20.7129 6.86133ZM33.1201 4.12695H29.9209V13H28.6152V4.12695H25.4229V3.04688H33.1201V4.12695ZM45.1172 9.8418C44.9941 10.8945 44.6045 11.708 43.9482 12.2822C43.2965 12.8519 42.4284 13.1367 41.3438 13.1367C40.168 13.1367 39.2246 12.7152 38.5137 11.8721C37.8073 11.029 37.4541 9.90104 37.4541 8.48828V7.53125C37.4541 6.60612 37.6182 5.79264 37.9463 5.09082C38.279 4.389 38.7484 3.85124 39.3545 3.47754C39.9606 3.09928 40.6624 2.91016 41.46 2.91016C42.5173 2.91016 43.3649 3.20638 44.0029 3.79883C44.641 4.38672 45.0124 5.20247 45.1172 6.24609H43.7979C43.6839 5.45312 43.4355 4.87891 43.0527 4.52344C42.6745 4.16797 42.1436 3.99023 41.46 3.99023C40.6214 3.99023 39.9629 4.30013 39.4844 4.91992C39.0104 5.53971 38.7734 6.42155 38.7734 7.56543V8.5293C38.7734 9.60938 38.999 10.4684 39.4502 11.1064C39.9014 11.7445 40.5326 12.0635 41.3438 12.0635C42.0729 12.0635 42.6312 11.8994 43.0186 11.5713C43.4105 11.2386 43.6702 10.6621 43.7979 9.8418H45.1172ZM54.5713 8.34473C54.5713 9.31999 54.4072 10.1722 54.0791 10.9014C53.751 11.626 53.2861 12.1797 52.6846 12.5625C52.083 12.9453 51.3812 13.1367 50.5791 13.1367C49.7952 13.1367 49.1003 12.9453 48.4941 12.5625C47.888 12.1751 47.4163 11.626 47.0791 10.915C46.7464 10.1995 46.5755 9.3724 46.5664 8.43359V7.71582C46.5664 6.75879 46.7327 5.91341 47.0654 5.17969C47.3981 4.44596 47.8675 3.88542 48.4736 3.49805C49.0843 3.10612 49.7816 2.91016 50.5654 2.91016C51.363 2.91016 52.0648 3.10384 52.6709 3.49121C53.2816 3.87402 53.751 4.43229 54.0791 5.16602C54.4072 5.89518 54.5713 6.74512 54.5713 7.71582V8.34473ZM53.2656 7.70215C53.2656 6.52181 53.0286 5.61719 52.5547 4.98828C52.0807 4.35482 51.4176 4.03809 50.5654 4.03809C49.736 4.03809 49.082 4.35482 48.6035 4.98828C48.1296 5.61719 47.8857 6.49219 47.8721 7.61328V8.34473C47.8721 9.48861 48.1113 10.3887 48.5898 11.0449C49.0729 11.6966 49.736 12.0225 50.5791 12.0225C51.4268 12.0225 52.083 11.7148 52.5479 11.0996C53.0127 10.4798 53.252 9.59342 53.2656 8.44043V7.70215ZM57.8594 11.9268H62.5762V13H56.54V3.04688H57.8594V11.9268ZM71.2783 8.34473C71.2783 9.31999 71.1143 10.1722 70.7861 10.9014C70.458 11.626 69.9932 12.1797 69.3916 12.5625C68.79 12.9453 68.0882 13.1367 67.2861 13.1367C66.5023 13.1367 65.8073 12.9453 65.2012 12.5625C64.5951 12.1751 64.1234 11.626 63.7861 10.915C63.4535 10.1995 63.2826 9.3724 63.2734 8.43359V7.71582C63.2734 6.75879 63.4398 5.91341 63.7725 5.17969C64.1051 4.44596 64.5745 3.88542 65.1807 3.49805C65.7913 3.10612 66.4886 2.91016 67.2725 2.91016C68.07 2.91016 68.7718 3.10384 69.3779 3.49121C69.9886 3.87402 70.458 4.43229 70.7861 5.16602C71.1143 5.89518 71.2783 6.74512 71.2783 7.71582V8.34473ZM69.9727 7.70215C69.9727 6.52181 69.7357 5.61719 69.2617 4.98828C68.7878 4.35482 68.1247 4.03809 67.2725 4.03809C66.443 4.03809 65.7891 4.35482 65.3105 4.98828C64.8366 5.61719 64.5928 6.49219 64.5791 7.61328V8.34473C64.5791 9.48861 64.8184 10.3887 65.2969 11.0449C65.7799 11.6966 66.443 12.0225 67.2861 12.0225C68.1338 12.0225 68.79 11.7148 69.2549 11.0996C69.7197 10.4798 69.959 9.59342 69.9727 8.44043V7.70215ZM76.8975 8.97363H74.5596V13H73.2402V3.04688H76.5352C77.6562 3.04688 78.5176 3.30208 79.1191 3.8125C79.7253 4.32292 80.0283 5.06576 80.0283 6.04102C80.0283 6.66081 79.8597 7.20085 79.5225 7.66113C79.1898 8.12142 78.7249 8.46549 78.1279 8.69336L80.4658 12.918V13H79.0576L76.8975 8.97363ZM74.5596 7.90039H76.5762C77.2279 7.90039 77.7451 7.73177 78.1279 7.39453C78.5153 7.05729 78.709 6.60612 78.709 6.04102C78.709 5.42578 78.5244 4.9541 78.1553 4.62598C77.7907 4.29785 77.262 4.13151 76.5693 4.12695H74.5596V7.90039ZM84.8066 8.56348C83.681 8.23991 82.8607 7.84342 82.3457 7.37402C81.8353 6.90007 81.5801 6.31673 81.5801 5.62402C81.5801 4.84017 81.8923 4.19303 82.5166 3.68262C83.1455 3.16764 83.9613 2.91016 84.9639 2.91016C85.6475 2.91016 86.2559 3.04232 86.7891 3.30664C87.3268 3.57096 87.7415 3.93555 88.0332 4.40039C88.3294 4.86523 88.4775 5.37337 88.4775 5.9248H87.1582C87.1582 5.32324 86.9668 4.85156 86.584 4.50977C86.2012 4.16341 85.6611 3.99023 84.9639 3.99023C84.3167 3.99023 83.8109 4.13379 83.4463 4.4209C83.0863 4.70345 82.9062 5.09766 82.9062 5.60352C82.9062 6.00911 83.0771 6.35319 83.4189 6.63574C83.7653 6.91374 84.3509 7.16895 85.1758 7.40137C86.0052 7.63379 86.6523 7.89128 87.1172 8.17383C87.5866 8.45182 87.9329 8.77767 88.1562 9.15137C88.3841 9.52507 88.498 9.96484 88.498 10.4707C88.498 11.2773 88.1836 11.9245 87.5547 12.4121C86.9258 12.8952 86.085 13.1367 85.0322 13.1367C84.3486 13.1367 83.7106 13.0068 83.1182 12.7471C82.5257 12.4827 82.0677 12.1227 81.7441 11.667C81.4251 11.2113 81.2656 10.694 81.2656 10.1152H82.585C82.585 10.7168 82.806 11.193 83.248 11.5439C83.6947 11.8903 84.2894 12.0635 85.0322 12.0635C85.7249 12.0635 86.2559 11.9222 86.625 11.6396C86.9941 11.3571 87.1787 10.972 87.1787 10.4844C87.1787 9.99674 87.0078 9.62077 86.666 9.35645C86.3242 9.08757 85.7044 8.82324 84.8066 8.56348Z" fill="black"/>
<line y1="16.5" x2="200" y2="16.5" stroke="#D8D8D8"/>
<path d="M272.155 13V3.04688H274.965C275.831 3.04688 276.596 3.23828 277.262 3.62109C277.927 4.00391 278.44 4.5485 278.8 5.25488C279.164 5.96126 279.349 6.77246 279.354 7.68848V8.32422C279.354 9.26302 279.171 10.0856 278.807 10.792C278.447 11.4984 277.929 12.0407 277.255 12.4189C276.585 12.7972 275.803 12.9909 274.91 13H272.155ZM273.468 4.12695V11.9268H274.849C275.86 11.9268 276.646 11.6123 277.207 10.9834C277.772 10.3545 278.055 9.45898 278.055 8.29688V7.71582C278.055 6.58561 277.788 5.70833 277.255 5.08398C276.726 4.45508 275.974 4.13607 274.999 4.12695H273.468ZM288.35 3.04688V9.81445C288.345 10.7533 288.049 11.5212 287.461 12.1182C286.878 12.7152 286.085 13.0501 285.082 13.123L284.733 13.1367C283.644 13.1367 282.776 12.8428 282.129 12.2549C281.482 11.667 281.154 10.8581 281.145 9.82812V3.04688H282.443V9.78711C282.443 10.5072 282.642 11.0677 283.038 11.4688C283.435 11.8652 284 12.0635 284.733 12.0635C285.476 12.0635 286.044 11.8652 286.436 11.4688C286.832 11.0723 287.03 10.514 287.03 9.79395V3.04688H288.35ZM296.047 8.39941H291.733V11.9268H296.744V13H290.421V3.04688H296.676V4.12695H291.733V7.32617H296.047V8.39941ZM301.851 13V3.04688H304.66C305.526 3.04688 306.292 3.23828 306.957 3.62109C307.622 4.00391 308.135 4.5485 308.495 5.25488C308.86 5.96126 309.044 6.77246 309.049 7.68848V8.32422C309.049 9.26302 308.867 10.0856 308.502 10.792C308.142 11.4984 307.625 12.0407 306.95 12.4189C306.28 12.7972 305.499 12.9909 304.605 13H301.851ZM303.163 4.12695V11.9268H304.544C305.556 11.9268 306.342 11.6123 306.902 10.9834C307.467 10.3545 307.75 9.45898 307.75 8.29688V7.71582C307.75 6.58561 307.483 5.70833 306.95 5.08398C306.422 4.45508 305.67 4.13607 304.694 4.12695H303.163ZM316.384 10.4023H312.214L311.277 13H309.924L313.725 3.04688H314.873L318.681 13H317.334L316.384 10.4023ZM312.61 9.32227H315.994L314.299 4.66699L312.61 9.32227ZM326.009 4.12695H322.81V13H321.504V4.12695H318.312V3.04688H326.009V4.12695ZM333.111 8.39941H328.798V11.9268H333.809V13H327.485V3.04688H333.74V4.12695H328.798V7.32617H333.111V8.39941ZM340.234 11.9268H344.951V13H338.915V3.04688H340.234V11.9268ZM352.081 10.4023H347.911L346.975 13H345.621L349.422 3.04688H350.57L354.378 13H353.031L352.081 10.4023ZM348.308 9.32227H351.691L349.996 4.66699L348.308 9.32227ZM355.718 13V3.04688H358.972C360.052 3.04688 360.863 3.27018 361.405 3.7168C361.952 4.16341 362.226 4.82422 362.226 5.69922C362.226 6.16406 362.093 6.5765 361.829 6.93652C361.565 7.29199 361.205 7.56771 360.749 7.76367C361.287 7.91406 361.711 8.20117 362.021 8.625C362.335 9.04427 362.492 9.54557 362.492 10.1289C362.492 11.0221 362.203 11.724 361.624 12.2344C361.045 12.7448 360.227 13 359.17 13H355.718ZM357.03 8.34473V11.9268H359.197C359.808 11.9268 360.289 11.7695 360.64 11.4551C360.995 11.1361 361.173 10.6986 361.173 10.1426C361.173 8.94401 360.521 8.34473 359.218 8.34473H357.03ZM357.03 7.29199H359.013C359.587 7.29199 360.045 7.14844 360.387 6.86133C360.733 6.57422 360.906 6.18457 360.906 5.69238C360.906 5.14551 360.747 4.74902 360.428 4.50293C360.109 4.25228 359.623 4.12695 358.972 4.12695H357.03V7.29199ZM370.066 8.39941H365.753V11.9268H370.764V13H364.44V3.04688H370.695V4.12695H365.753V7.32617H370.066V8.39941ZM373.717 11.9268H378.434V13H372.397V3.04688H373.717V11.9268ZM382.863 8.56348C381.738 8.23991 380.917 7.84342 380.402 7.37402C379.892 6.90007 379.637 6.31673 379.637 5.62402C379.637 4.84017 379.949 4.19303 380.573 3.68262C381.202 3.16764 382.018 2.91016 383.021 2.91016C383.704 2.91016 384.312 3.04232 384.846 3.30664C385.383 3.57096 385.798 3.93555 386.09 4.40039C386.386 4.86523 386.534 5.37337 386.534 5.9248H385.215C385.215 5.32324 385.023 4.85156 384.641 4.50977C384.258 4.16341 383.718 3.99023 383.021 3.99023C382.373 3.99023 381.868 4.13379 381.503 4.4209C381.143 4.70345 380.963 5.09766 380.963 5.60352C380.963 6.00911 381.134 6.35319 381.476 6.63574C381.822 6.91374 382.408 7.16895 383.232 7.40137C384.062 7.63379 384.709 7.89128 385.174 8.17383C385.643 8.45182 385.99 8.77767 386.213 9.15137C386.441 9.52507 386.555 9.96484 386.555 10.4707C386.555 11.2773 386.24 11.9245 385.611 12.4121C384.982 12.8952 384.142 13.1367 383.089 13.1367C382.405 13.1367 381.767 13.0068 381.175 12.7471C380.582 12.4827 380.124 12.1227 379.801 11.667C379.482 11.2113 379.322 10.694 379.322 10.1152H380.642C380.642 10.7168 380.863 11.193 381.305 11.5439C381.751 11.8903 382.346 12.0635 383.089 12.0635C383.782 12.0635 384.312 11.9222 384.682 11.6396C385.051 11.3571 385.235 10.972 385.235 10.4844C385.235 9.99674 385.064 9.62077 384.723 9.35645C384.381 9.08757 383.761 8.82324 382.863 8.56348Z" fill="black"/>
<path d="M548.806 8.97363H546.468V13H545.148V3.04688H548.443C549.564 3.04688 550.426 3.30208 551.027 3.8125C551.633 4.32292 551.937 5.06576 551.937 6.04102C551.937 6.66081 551.768 7.20085 551.431 7.66113C551.098 8.12142 550.633 8.46549 550.036 8.69336L552.374 12.918V13H550.966L548.806 8.97363ZM546.468 7.90039H548.484C549.136 7.90039 549.653 7.73177 550.036 7.39453C550.424 7.05729 550.617 6.60612 550.617 6.04102C550.617 5.42578 550.433 4.9541 550.063 4.62598C549.699 4.29785 549.17 4.13151 548.478 4.12695H546.468V7.90039ZM559.408 8.39941H555.095V11.9268H560.105V13H553.782V3.04688H560.037V4.12695H555.095V7.32617H559.408V8.39941ZM565.034 11.2568L567.878 3.04688H569.313L565.622 13H564.46L560.775 3.04688H562.204L565.034 11.2568ZM572.062 13H570.749V3.04688H572.062V13ZM580.094 8.39941H575.78V11.9268H580.791V13H574.468V3.04688H580.723V4.12695H575.78V7.32617H580.094V8.39941ZM584.571 9.8623L584.763 11.1748L585.043 9.99219L587.012 3.04688H588.119L590.04 9.99219L590.313 11.1953L590.525 9.85547L592.07 3.04688H593.39L590.977 13H589.78L587.729 5.74707L587.572 4.98828L587.415 5.74707L585.289 13H584.093L581.687 3.04688H582.999L584.571 9.8623ZM601.258 8.56348C600.132 8.23991 599.312 7.84342 598.797 7.37402C598.286 6.90007 598.031 6.31673 598.031 5.62402C598.031 4.84017 598.343 4.19303 598.968 3.68262C599.597 3.16764 600.412 2.91016 601.415 2.91016C602.099 2.91016 602.707 3.04232 603.24 3.30664C603.778 3.57096 604.193 3.93555 604.484 4.40039C604.781 4.86523 604.929 5.37337 604.929 5.9248H603.609C603.609 5.32324 603.418 4.85156 603.035 4.50977C602.652 4.16341 602.112 3.99023 601.415 3.99023C600.768 3.99023 600.262 4.13379 599.897 4.4209C599.537 4.70345 599.357 5.09766 599.357 5.60352C599.357 6.00911 599.528 6.35319 599.87 6.63574C600.216 6.91374 600.802 7.16895 601.627 7.40137C602.456 7.63379 603.104 7.89128 603.568 8.17383C604.038 8.45182 604.384 8.77767 604.607 9.15137C604.835 9.52507 604.949 9.96484 604.949 10.4707C604.949 11.2773 604.635 11.9245 604.006 12.4121C603.377 12.8952 602.536 13.1367 601.483 13.1367C600.8 13.1367 600.162 13.0068 599.569 12.7471C598.977 12.4827 598.519 12.1227 598.195 11.667C597.876 11.2113 597.717 10.694 597.717 10.1152H599.036C599.036 10.7168 599.257 11.193 599.699 11.5439C600.146 11.8903 600.741 12.0635 601.483 12.0635C602.176 12.0635 602.707 11.9222 603.076 11.6396C603.445 11.3571 603.63 10.972 603.63 10.4844C603.63 9.99674 603.459 9.62077 603.117 9.35645C602.775 9.08757 602.156 8.82324 601.258 8.56348ZM613.515 4.12695H610.315V13H609.01V4.12695H605.817V3.04688H613.515V4.12695ZM619.94 10.4023H615.771L614.834 13H613.48L617.281 3.04688H618.43L622.237 13H620.891L619.94 10.4023ZM616.167 9.32227H619.551L617.855 4.66699L616.167 9.32227ZM629.565 4.12695H626.366V13H625.061V4.12695H621.868V3.04688H629.565V4.12695ZM638.049 3.04688V9.81445C638.044 10.7533 637.748 11.5212 637.16 12.1182C636.577 12.7152 635.784 13.0501 634.781 13.123L634.433 13.1367C633.343 13.1367 632.475 12.8428 631.828 12.2549C631.181 11.667 630.853 10.8581 630.844 9.82812V3.04688H632.143V9.78711C632.143 10.5072 632.341 11.0677 632.737 11.4688C633.134 11.8652 633.699 12.0635 634.433 12.0635C635.175 12.0635 635.743 11.8652 636.135 11.4688C636.531 11.0723 636.729 10.514 636.729 9.79395V3.04688H638.049ZM643.053 8.56348C641.927 8.23991 641.107 7.84342 640.592 7.37402C640.081 6.90007 639.826 6.31673 639.826 5.62402C639.826 4.84017 640.138 4.19303 640.763 3.68262C641.392 3.16764 642.207 2.91016 643.21 2.91016C643.894 2.91016 644.502 3.04232 645.035 3.30664C645.573 3.57096 645.988 3.93555 646.279 4.40039C646.576 4.86523 646.724 5.37337 646.724 5.9248H645.404C645.404 5.32324 645.213 4.85156 644.83 4.50977C644.447 4.16341 643.907 3.99023 643.21 3.99023C642.563 3.99023 642.057 4.13379 641.692 4.4209C641.332 4.70345 641.152 5.09766 641.152 5.60352C641.152 6.00911 641.323 6.35319 641.665 6.63574C642.011 6.91374 642.597 7.16895 643.422 7.40137C644.251 7.63379 644.898 7.89128 645.363 8.17383C645.833 8.45182 646.179 8.77767 646.402 9.15137C646.63 9.52507 646.744 9.96484 646.744 10.4707C646.744 11.2773 646.43 11.9245 645.801 12.4121C645.172 12.8952 644.331 13.1367 643.278 13.1367C642.595 13.1367 641.957 13.0068 641.364 12.7471C640.772 12.4827 640.314 12.1227 639.99 11.667C639.671 11.2113 639.512 10.694 639.512 10.1152H640.831C640.831 10.7168 641.052 11.193 641.494 11.5439C641.941 11.8903 642.535 12.0635 643.278 12.0635C643.971 12.0635 644.502 11.9222 644.871 11.6396C645.24 11.3571 645.425 10.972 645.425 10.4844C645.425 9.99674 645.254 9.62077 644.912 9.35645C644.57 9.08757 643.951 8.82324 643.053 8.56348ZM653.225 11.9268H657.941V13H651.905V3.04688H653.225V11.9268ZM665.071 10.4023H660.901L659.965 13H658.611L662.412 3.04688H663.561L667.368 13H666.021L665.071 10.4023ZM661.298 9.32227H664.682L662.986 4.66699L661.298 9.32227ZM668.708 13V3.04688H671.962C673.042 3.04688 673.853 3.27018 674.396 3.7168C674.942 4.16341 675.216 4.82422 675.216 5.69922C675.216 6.16406 675.084 6.5765 674.819 6.93652C674.555 7.29199 674.195 7.56771 673.739 7.76367C674.277 7.91406 674.701 8.20117 675.011 8.625C675.325 9.04427 675.482 9.54557 675.482 10.1289C675.482 11.0221 675.193 11.724 674.614 12.2344C674.035 12.7448 673.217 13 672.16 13H668.708ZM670.021 8.34473V11.9268H672.188C672.798 11.9268 673.279 11.7695 673.63 11.4551C673.985 11.1361 674.163 10.6986 674.163 10.1426C674.163 8.94401 673.511 8.34473 672.208 8.34473H670.021ZM670.021 7.29199H672.003C672.577 7.29199 673.035 7.14844 673.377 6.86133C673.723 6.57422 673.896 6.18457 673.896 5.69238C673.896 5.14551 673.737 4.74902 673.418 4.50293C673.099 4.25228 672.614 4.12695 671.962 4.12695H670.021V7.29199ZM683.057 8.39941H678.743V11.9268H683.754V13H677.431V3.04688H683.686V4.12695H678.743V7.32617H683.057V8.39941ZM686.707 11.9268H691.424V13H685.388V3.04688H686.707V11.9268ZM695.854 8.56348C694.728 8.23991 693.908 7.84342 693.393 7.37402C692.882 6.90007 692.627 6.31673 692.627 5.62402C692.627 4.84017 692.939 4.19303 693.563 3.68262C694.192 3.16764 695.008 2.91016 696.011 2.91016C696.694 2.91016 697.303 3.04232 697.836 3.30664C698.374 3.57096 698.788 3.93555 699.08 4.40039C699.376 4.86523 699.524 5.37337 699.524 5.9248H698.205C698.205 5.32324 698.014 4.85156 697.631 4.50977C697.248 4.16341 696.708 3.99023 696.011 3.99023C695.364 3.99023 694.858 4.13379 694.493 4.4209C694.133 4.70345 693.953 5.09766 693.953 5.60352C693.953 6.00911 694.124 6.35319 694.466 6.63574C694.812 6.91374 695.398 7.16895 696.223 7.40137C697.052 7.63379 697.699 7.89128 698.164 8.17383C698.633 8.45182 698.98 8.77767 699.203 9.15137C699.431 9.52507 699.545 9.96484 699.545 10.4707C699.545 11.2773 699.23 11.9245 698.602 12.4121C697.973 12.8952 697.132 13.1367 696.079 13.1367C695.396 13.1367 694.757 13.0068 694.165 12.7471C693.573 12.4827 693.115 12.1227 692.791 11.667C692.472 11.2113 692.312 10.694 692.312 10.1152H693.632C693.632 10.7168 693.853 11.193 694.295 11.5439C694.742 11.8903 695.336 12.0635 696.079 12.0635C696.772 12.0635 697.303 11.9222 697.672 11.6396C698.041 11.3571 698.226 10.972 698.226 10.4844C698.226 9.99674 698.055 9.62077 697.713 9.35645C697.371 9.08757 696.751 8.82324 695.854 8.56348Z" fill="black"/>
<line x1="270" y1="16.5" x2="489" y2="16.5" stroke="#D8D8D8"/>
<line x1="544" y1="16.5" x2="771" y2="16.5" stroke="#D8D8D8"/>
<path d="M66.4746 74.4971H71.1914V75.5703H65.1553V65.6172H66.4746V74.4971ZM73.8643 75.5703H72.5996V68.1738H73.8643V75.5703ZM72.4971 66.2119C72.4971 66.0068 72.5586 65.8337 72.6816 65.6924C72.8092 65.5511 72.9961 65.4805 73.2422 65.4805C73.4883 65.4805 73.6751 65.5511 73.8027 65.6924C73.9303 65.8337 73.9941 66.0068 73.9941 66.2119C73.9941 66.417 73.9303 66.5879 73.8027 66.7246C73.6751 66.8613 73.4883 66.9297 73.2422 66.9297C72.9961 66.9297 72.8092 66.8613 72.6816 66.7246C72.5586 66.5879 72.4971 66.417 72.4971 66.2119ZM77.0908 68.1738L77.1318 69.1035C77.6969 68.3926 78.4352 68.0371 79.3467 68.0371C80.9098 68.0371 81.6982 68.9189 81.7119 70.6826V75.5703H80.4473V70.6758C80.4427 70.1426 80.3197 69.7484 80.0781 69.4932C79.8411 69.238 79.4697 69.1104 78.9639 69.1104C78.5537 69.1104 78.1937 69.2197 77.8838 69.4385C77.5739 69.6572 77.3324 69.9443 77.1592 70.2998V75.5703H75.8945V68.1738H77.0908ZM85.6836 72.1455L84.8906 72.9727V75.5703H83.626V65.0703H84.8906V71.4209L85.5674 70.6074L87.8711 68.1738H89.4092L86.5312 71.2637L89.7441 75.5703H88.2607L85.6836 72.1455ZM90.9678 76.4248H89.8809L94.0371 65.6172H95.1172L90.9678 76.4248ZM107.477 72.4121C107.354 73.4648 106.964 74.2783 106.308 74.8525C105.656 75.4222 104.788 75.707 103.703 75.707C102.527 75.707 101.584 75.2855 100.873 74.4424C100.167 73.5993 99.8135 72.4714 99.8135 71.0586V70.1016C99.8135 69.1764 99.9775 68.363 100.306 67.6611C100.638 66.9593 101.108 66.4215 101.714 66.0479C102.32 65.6696 103.022 65.4805 103.819 65.4805C104.877 65.4805 105.724 65.7767 106.362 66.3691C107 66.957 107.372 67.7728 107.477 68.8164H106.157C106.043 68.0234 105.795 67.4492 105.412 67.0938C105.034 66.7383 104.503 66.5605 103.819 66.5605C102.981 66.5605 102.322 66.8704 101.844 67.4902C101.37 68.11 101.133 68.9919 101.133 70.1357V71.0996C101.133 72.1797 101.358 73.0387 101.81 73.6768C102.261 74.3148 102.892 74.6338 103.703 74.6338C104.432 74.6338 104.991 74.4697 105.378 74.1416C105.77 73.8089 106.03 73.2324 106.157 72.4121H107.477ZM115.946 66.6973H112.747V75.5703H111.441V66.6973H108.249V65.6172H115.946V66.6973ZM122.372 72.9727H118.202L117.266 75.5703H115.912L119.713 65.6172H120.861L124.669 75.5703H123.322L122.372 72.9727ZM118.599 71.8926H121.982L120.287 67.2373L118.599 71.8926ZM136.085 66.6973H132.886V75.5703H131.58V66.6973H128.388V65.6172H136.085V66.6973ZM139.749 75.707C138.746 75.707 137.931 75.3789 137.302 74.7227C136.673 74.0618 136.358 73.18 136.358 72.0771V71.8447C136.358 71.111 136.497 70.457 136.775 69.8828C137.058 69.304 137.45 68.8529 137.951 68.5293C138.457 68.2012 139.004 68.0371 139.592 68.0371C140.553 68.0371 141.301 68.3538 141.834 68.9873C142.367 69.6208 142.634 70.5277 142.634 71.708V72.2344H137.623C137.641 72.9635 137.853 73.5537 138.259 74.0049C138.669 74.4515 139.188 74.6748 139.817 74.6748C140.264 74.6748 140.642 74.5837 140.952 74.4014C141.262 74.2191 141.533 73.9775 141.766 73.6768L142.538 74.2783C141.918 75.2308 140.989 75.707 139.749 75.707ZM139.592 69.0762C139.081 69.0762 138.653 69.263 138.307 69.6367C137.96 70.0059 137.746 70.5254 137.664 71.1953H141.369V71.0996C141.333 70.457 141.16 69.9603 140.85 69.6094C140.54 69.2539 140.12 69.0762 139.592 69.0762ZM146.585 70.874L148.226 68.1738H149.702L147.282 71.8311L149.777 75.5703H148.314L146.605 72.8018L144.896 75.5703H143.427L145.922 71.8311L143.502 68.1738H144.965L146.585 70.874ZM152.765 66.3828V68.1738H154.146V69.1514H152.765V73.7383C152.765 74.0345 152.826 74.2578 152.949 74.4082C153.072 74.554 153.282 74.627 153.578 74.627C153.724 74.627 153.924 74.5996 154.18 74.5449V75.5703C153.847 75.6615 153.523 75.707 153.209 75.707C152.644 75.707 152.218 75.5361 151.931 75.1943C151.644 74.8525 151.5 74.3672 151.5 73.7383V69.1514H150.153V68.1738H151.5V66.3828H152.765Z" fill="black"/>
<rect x="6.5" y="49.5" width="39" height="39" rx="19.5" fill="#3447D3" stroke="#EFEFEF"/>
<path d="M66.8506 134.047L70.1045 142.168L73.3584 134.047H75.0605V144H73.748V140.124L73.8711 135.94L70.6035 144H69.5986L66.3379 135.961L66.4678 140.124V144H65.1553V134.047H66.8506ZM81.7461 144C81.6732 143.854 81.6139 143.594 81.5684 143.221C80.9805 143.831 80.2786 144.137 79.4629 144.137C78.7337 144.137 78.1344 143.932 77.665 143.521C77.2002 143.107 76.9678 142.583 76.9678 141.949C76.9678 141.179 77.2594 140.582 77.8428 140.158C78.4307 139.73 79.2555 139.516 80.3174 139.516H81.5479V138.935C81.5479 138.493 81.4157 138.142 81.1514 137.882C80.887 137.618 80.4974 137.485 79.9824 137.485C79.5312 137.485 79.153 137.599 78.8477 137.827C78.5423 138.055 78.3896 138.331 78.3896 138.654H77.1182C77.1182 138.285 77.248 137.93 77.5078 137.588C77.7721 137.242 78.1276 136.968 78.5742 136.768C79.0254 136.567 79.5199 136.467 80.0576 136.467C80.9098 136.467 81.5775 136.681 82.0605 137.109C82.5436 137.533 82.7943 138.119 82.8125 138.866V142.271C82.8125 142.95 82.8991 143.49 83.0723 143.891V144H81.7461ZM79.6475 143.036C80.0439 143.036 80.4199 142.934 80.7754 142.729C81.1309 142.523 81.3883 142.257 81.5479 141.929V140.411H80.5566C79.0072 140.411 78.2324 140.865 78.2324 141.771C78.2324 142.168 78.3646 142.478 78.6289 142.701C78.8932 142.924 79.2327 143.036 79.6475 143.036ZM86.1689 144H84.9043V136.604H86.1689V144ZM84.8018 134.642C84.8018 134.437 84.8633 134.263 84.9863 134.122C85.1139 133.981 85.3008 133.91 85.5469 133.91C85.793 133.91 85.9798 133.981 86.1074 134.122C86.235 134.263 86.2988 134.437 86.2988 134.642C86.2988 134.847 86.235 135.018 86.1074 135.154C85.9798 135.291 85.793 135.359 85.5469 135.359C85.3008 135.359 85.1139 135.291 84.9863 135.154C84.8633 135.018 84.8018 134.847 84.8018 134.642ZM89.3955 136.604L89.4365 137.533C90.0016 136.822 90.7399 136.467 91.6514 136.467C93.2145 136.467 94.0029 137.349 94.0166 139.112V144H92.752V139.105C92.7474 138.572 92.6243 138.178 92.3828 137.923C92.1458 137.668 91.7744 137.54 91.2686 137.54C90.8584 137.54 90.4984 137.649 90.1885 137.868C89.8786 138.087 89.637 138.374 89.4639 138.729V144H88.1992V136.604H89.3955ZM100.914 142.927H105.631V144H99.5947V134.047H100.914V142.927ZM111.496 144C111.423 143.854 111.364 143.594 111.318 143.221C110.73 143.831 110.029 144.137 109.213 144.137C108.484 144.137 107.884 143.932 107.415 143.521C106.95 143.107 106.718 142.583 106.718 141.949C106.718 141.179 107.009 140.582 107.593 140.158C108.181 139.73 109.006 139.516 110.067 139.516H111.298V138.935C111.298 138.493 111.166 138.142 110.901 137.882C110.637 137.618 110.247 137.485 109.732 137.485C109.281 137.485 108.903 137.599 108.598 137.827C108.292 138.055 108.14 138.331 108.14 138.654H106.868C106.868 138.285 106.998 137.93 107.258 137.588C107.522 137.242 107.878 136.968 108.324 136.768C108.775 136.567 109.27 136.467 109.808 136.467C110.66 136.467 111.327 136.681 111.811 137.109C112.294 137.533 112.544 138.119 112.562 138.866V142.271C112.562 142.95 112.649 143.49 112.822 143.891V144H111.496ZM109.397 143.036C109.794 143.036 110.17 142.934 110.525 142.729C110.881 142.523 111.138 142.257 111.298 141.929V140.411H110.307C108.757 140.411 107.982 140.865 107.982 141.771C107.982 142.168 108.115 142.478 108.379 142.701C108.643 142.924 108.983 143.036 109.397 143.036ZM120.807 140.384C120.807 141.514 120.547 142.423 120.027 143.111C119.508 143.795 118.811 144.137 117.936 144.137C117.001 144.137 116.279 143.806 115.769 143.146L115.707 144H114.545V133.5H115.81V137.417C116.32 136.784 117.024 136.467 117.922 136.467C118.82 136.467 119.524 136.806 120.034 137.485C120.549 138.164 120.807 139.094 120.807 140.274V140.384ZM119.542 140.24C119.542 139.379 119.376 138.714 119.043 138.244C118.71 137.775 118.232 137.54 117.607 137.54C116.773 137.54 116.174 137.927 115.81 138.702V141.901C116.197 142.676 116.801 143.063 117.621 143.063C118.227 143.063 118.699 142.829 119.036 142.359C119.373 141.89 119.542 141.184 119.542 140.24ZM125.476 144.137C124.473 144.137 123.657 143.809 123.028 143.152C122.399 142.492 122.085 141.61 122.085 140.507V140.274C122.085 139.541 122.224 138.887 122.502 138.312C122.785 137.734 123.176 137.283 123.678 136.959C124.184 136.631 124.73 136.467 125.318 136.467C126.28 136.467 127.027 136.784 127.561 137.417C128.094 138.05 128.36 138.957 128.36 140.138V140.664H123.35C123.368 141.393 123.58 141.983 123.985 142.435C124.396 142.881 124.915 143.104 125.544 143.104C125.991 143.104 126.369 143.013 126.679 142.831C126.989 142.649 127.26 142.407 127.492 142.106L128.265 142.708C127.645 143.66 126.715 144.137 125.476 144.137ZM125.318 137.506C124.808 137.506 124.38 137.693 124.033 138.066C123.687 138.436 123.473 138.955 123.391 139.625H127.096V139.529C127.059 138.887 126.886 138.39 126.576 138.039C126.266 137.684 125.847 137.506 125.318 137.506ZM131.204 144H129.939V133.5H131.204V144ZM133.487 144.854H132.4L136.557 134.047H137.637L133.487 144.854ZM149.278 135.127H146.079V144H144.773V135.127H141.581V134.047H149.278V135.127ZM152.942 144.137C151.94 144.137 151.124 143.809 150.495 143.152C149.866 142.492 149.552 141.61 149.552 140.507V140.274C149.552 139.541 149.691 138.887 149.969 138.312C150.251 137.734 150.643 137.283 151.145 136.959C151.65 136.631 152.197 136.467 152.785 136.467C153.747 136.467 154.494 136.784 155.027 137.417C155.561 138.05 155.827 138.957 155.827 140.138V140.664H150.816C150.835 141.393 151.047 141.983 151.452 142.435C151.862 142.881 152.382 143.104 153.011 143.104C153.457 143.104 153.836 143.013 154.146 142.831C154.455 142.649 154.727 142.407 154.959 142.106L155.731 142.708C155.112 143.66 154.182 144.137 152.942 144.137ZM152.785 137.506C152.275 137.506 151.846 137.693 151.5 138.066C151.154 138.436 150.939 138.955 150.857 139.625H154.562V139.529C154.526 138.887 154.353 138.39 154.043 138.039C153.733 137.684 153.314 137.506 152.785 137.506ZM159.778 139.304L161.419 136.604H162.896L160.476 140.261L162.971 144H161.508L159.799 141.231L158.09 144H156.62L159.115 140.261L156.695 136.604H158.158L159.778 139.304ZM165.958 134.812V136.604H167.339V137.581H165.958V142.168C165.958 142.464 166.02 142.688 166.143 142.838C166.266 142.984 166.475 143.057 166.771 143.057C166.917 143.057 167.118 143.029 167.373 142.975V144C167.04 144.091 166.717 144.137 166.402 144.137C165.837 144.137 165.411 143.966 165.124 143.624C164.837 143.282 164.693 142.797 164.693 142.168V137.581H163.347V136.604H164.693V134.812H165.958Z" fill="black"/>
<rect x="6.5" y="117.5" width="39" height="39" rx="19.5" fill="#2C2D53" stroke="#EFEFEF"/>
<path d="M65.1553 212V202.047H67.9648C68.8307 202.047 69.5964 202.238 70.2617 202.621C70.9271 203.004 71.4398 203.549 71.7998 204.255C72.1644 204.961 72.349 205.772 72.3535 206.688V207.324C72.3535 208.263 72.1712 209.086 71.8066 209.792C71.4466 210.498 70.9294 211.041 70.2549 211.419C69.585 211.797 68.8034 211.991 67.9102 212H65.1553ZM66.4678 203.127V210.927H67.8486C68.8604 210.927 69.6465 210.612 70.207 209.983C70.7721 209.354 71.0547 208.459 71.0547 207.297V206.716C71.0547 205.586 70.7881 204.708 70.2549 204.084C69.7262 203.455 68.9743 203.136 67.999 203.127H66.4678ZM75.5186 212H74.2539V204.604H75.5186V212ZM74.1514 202.642C74.1514 202.437 74.2129 202.263 74.3359 202.122C74.4635 201.981 74.6504 201.91 74.8965 201.91C75.1426 201.91 75.3294 201.981 75.457 202.122C75.5846 202.263 75.6484 202.437 75.6484 202.642C75.6484 202.847 75.5846 203.018 75.457 203.154C75.3294 203.291 75.1426 203.359 74.8965 203.359C74.6504 203.359 74.4635 203.291 74.3359 203.154C74.2129 203.018 74.1514 202.847 74.1514 202.642ZM81.8555 210.038C81.8555 209.696 81.7256 209.432 81.4658 209.245C81.2106 209.054 80.7617 208.89 80.1191 208.753C79.4811 208.616 78.973 208.452 78.5947 208.261C78.221 208.069 77.943 207.841 77.7607 207.577C77.583 207.313 77.4941 206.998 77.4941 206.634C77.4941 206.028 77.7493 205.515 78.2598 205.096C78.7747 204.676 79.431 204.467 80.2285 204.467C81.0671 204.467 81.7461 204.683 82.2656 205.116C82.7897 205.549 83.0518 206.103 83.0518 206.777H81.7803C81.7803 206.431 81.6322 206.132 81.3359 205.882C81.0443 205.631 80.6751 205.506 80.2285 205.506C79.7682 205.506 79.4082 205.606 79.1484 205.807C78.8887 206.007 78.7588 206.269 78.7588 206.593C78.7588 206.898 78.8796 207.128 79.1211 207.283C79.3626 207.438 79.7979 207.586 80.4268 207.728C81.0602 207.869 81.5729 208.037 81.9648 208.233C82.3568 208.429 82.6462 208.666 82.833 208.944C83.0244 209.218 83.1201 209.553 83.1201 209.949C83.1201 210.61 82.8558 211.141 82.3271 211.542C81.7985 211.938 81.1126 212.137 80.2695 212.137C79.6771 212.137 79.153 212.032 78.6973 211.822C78.2415 211.613 77.8838 211.321 77.624 210.947C77.3688 210.569 77.2412 210.161 77.2412 209.724H78.5059C78.5286 210.147 78.6973 210.485 79.0117 210.735C79.3307 210.981 79.75 211.104 80.2695 211.104C80.748 211.104 81.1309 211.009 81.418 210.817C81.7096 210.621 81.8555 210.362 81.8555 210.038ZM87.7344 211.104C88.1855 211.104 88.5798 210.968 88.917 210.694C89.2542 210.421 89.4411 210.079 89.4775 209.669H90.6738C90.651 210.093 90.5052 210.496 90.2363 210.879C89.9674 211.262 89.6074 211.567 89.1562 211.795C88.7096 212.023 88.2357 212.137 87.7344 212.137C86.7272 212.137 85.9251 211.802 85.3281 211.132C84.7357 210.457 84.4395 209.537 84.4395 208.37V208.158C84.4395 207.438 84.5716 206.798 84.8359 206.237C85.1003 205.677 85.4785 205.242 85.9707 204.932C86.4674 204.622 87.0531 204.467 87.7275 204.467C88.557 204.467 89.2451 204.715 89.792 205.212C90.3434 205.709 90.6374 206.354 90.6738 207.146H89.4775C89.4411 206.668 89.2588 206.276 88.9307 205.971C88.6071 205.661 88.2061 205.506 87.7275 205.506C87.085 205.506 86.5859 205.738 86.2305 206.203C85.8796 206.663 85.7041 207.331 85.7041 208.206V208.445C85.7041 209.298 85.8796 209.954 86.2305 210.414C86.5814 210.874 87.0827 211.104 87.7344 211.104ZM95.6709 205.738C95.4795 205.706 95.2721 205.69 95.0488 205.69C94.2194 205.69 93.6566 206.044 93.3604 206.75V212H92.0957V204.604H93.3262L93.3467 205.458C93.7614 204.797 94.3493 204.467 95.1104 204.467C95.3564 204.467 95.5433 204.499 95.6709 204.562V205.738ZM98.2139 212H96.9492V204.604H98.2139V212ZM96.8467 202.642C96.8467 202.437 96.9082 202.263 97.0312 202.122C97.1589 201.981 97.3457 201.91 97.5918 201.91C97.8379 201.91 98.0247 201.981 98.1523 202.122C98.2799 202.263 98.3438 202.437 98.3438 202.642C98.3438 202.847 98.2799 203.018 98.1523 203.154C98.0247 203.291 97.8379 203.359 97.5918 203.359C97.3457 203.359 97.1589 203.291 97.0312 203.154C96.9082 203.018 96.8467 202.847 96.8467 202.642ZM106.492 208.384C106.492 209.509 106.235 210.416 105.72 211.104C105.205 211.793 104.507 212.137 103.628 212.137C102.73 212.137 102.024 211.852 101.509 211.282V214.844H100.244V204.604H101.399L101.461 205.424C101.976 204.786 102.691 204.467 103.607 204.467C104.496 204.467 105.198 204.802 105.713 205.472C106.232 206.142 106.492 207.074 106.492 208.268V208.384ZM105.228 208.24C105.228 207.406 105.05 206.748 104.694 206.265C104.339 205.782 103.851 205.54 103.231 205.54C102.466 205.54 101.892 205.88 101.509 206.559V210.093C101.887 210.767 102.466 211.104 103.245 211.104C103.851 211.104 104.332 210.865 104.688 210.387C105.048 209.904 105.228 209.188 105.228 208.24ZM109.821 202.812V204.604H111.202V205.581H109.821V210.168C109.821 210.464 109.883 210.688 110.006 210.838C110.129 210.984 110.339 211.057 110.635 211.057C110.781 211.057 110.981 211.029 111.236 210.975V212C110.904 212.091 110.58 212.137 110.266 212.137C109.701 212.137 109.274 211.966 108.987 211.624C108.7 211.282 108.557 210.797 108.557 210.168V205.581H107.21V204.604H108.557V202.812H109.821ZM114.06 212H112.795V204.604H114.06V212ZM112.692 202.642C112.692 202.437 112.754 202.263 112.877 202.122C113.005 201.981 113.191 201.91 113.438 201.91C113.684 201.91 113.87 201.981 113.998 202.122C114.126 202.263 114.189 202.437 114.189 202.642C114.189 202.847 114.126 203.018 113.998 203.154C113.87 203.291 113.684 203.359 113.438 203.359C113.191 203.359 113.005 203.291 112.877 203.154C112.754 203.018 112.692 202.847 112.692 202.642ZM118.53 210.284L120.362 204.604H121.654L119.002 212H118.038L115.358 204.604H116.65L118.53 210.284ZM125.845 212.137C124.842 212.137 124.026 211.809 123.397 211.152C122.769 210.492 122.454 209.61 122.454 208.507V208.274C122.454 207.541 122.593 206.887 122.871 206.312C123.154 205.734 123.546 205.283 124.047 204.959C124.553 204.631 125.1 204.467 125.688 204.467C126.649 204.467 127.396 204.784 127.93 205.417C128.463 206.05 128.729 206.957 128.729 208.138V208.664H123.719C123.737 209.393 123.949 209.983 124.354 210.435C124.765 210.881 125.284 211.104 125.913 211.104C126.36 211.104 126.738 211.013 127.048 210.831C127.358 210.649 127.629 210.407 127.861 210.106L128.634 210.708C128.014 211.66 127.084 212.137 125.845 212.137ZM125.688 205.506C125.177 205.506 124.749 205.693 124.402 206.066C124.056 206.436 123.842 206.955 123.76 207.625H127.465V207.529C127.428 206.887 127.255 206.39 126.945 206.039C126.635 205.684 126.216 205.506 125.688 205.506ZM141.52 212H140.2L135.189 204.33V212H133.87V202.047H135.189L140.214 209.751V202.047H141.52V212ZM143.317 208.233C143.317 207.509 143.459 206.857 143.741 206.278C144.028 205.7 144.425 205.253 144.931 204.938C145.441 204.624 146.022 204.467 146.674 204.467C147.681 204.467 148.494 204.815 149.114 205.513C149.739 206.21 150.051 207.137 150.051 208.295V208.384C150.051 209.104 149.912 209.751 149.634 210.325C149.36 210.895 148.966 211.339 148.451 211.658C147.941 211.977 147.353 212.137 146.688 212.137C145.685 212.137 144.871 211.788 144.247 211.091C143.627 210.394 143.317 209.471 143.317 208.322V208.233ZM144.589 208.384C144.589 209.204 144.778 209.863 145.156 210.359C145.539 210.856 146.049 211.104 146.688 211.104C147.33 211.104 147.84 210.854 148.219 210.353C148.597 209.847 148.786 209.14 148.786 208.233C148.786 207.422 148.592 206.766 148.205 206.265C147.822 205.759 147.312 205.506 146.674 205.506C146.049 205.506 145.546 205.754 145.163 206.251C144.78 206.748 144.589 207.459 144.589 208.384ZM153.353 202.812V204.604H154.733V205.581H153.353V210.168C153.353 210.464 153.414 210.688 153.537 210.838C153.66 210.984 153.87 211.057 154.166 211.057C154.312 211.057 154.512 211.029 154.768 210.975V212C154.435 212.091 154.111 212.137 153.797 212.137C153.232 212.137 152.806 211.966 152.519 211.624C152.231 211.282 152.088 210.797 152.088 210.168V205.581H150.741V204.604H152.088V202.812H153.353ZM159.286 212.137C158.284 212.137 157.468 211.809 156.839 211.152C156.21 210.492 155.896 209.61 155.896 208.507V208.274C155.896 207.541 156.035 206.887 156.312 206.312C156.595 205.734 156.987 205.283 157.488 204.959C157.994 204.631 158.541 204.467 159.129 204.467C160.09 204.467 160.838 204.784 161.371 205.417C161.904 206.05 162.171 206.957 162.171 208.138V208.664H157.16C157.178 209.393 157.39 209.983 157.796 210.435C158.206 210.881 158.726 211.104 159.354 211.104C159.801 211.104 160.179 211.013 160.489 210.831C160.799 210.649 161.07 210.407 161.303 210.106L162.075 210.708C161.455 211.66 160.526 212.137 159.286 212.137ZM159.129 205.506C158.618 205.506 158.19 205.693 157.844 206.066C157.497 206.436 157.283 206.955 157.201 207.625H160.906V207.529C160.87 206.887 160.697 206.39 160.387 206.039C160.077 205.684 159.658 205.506 159.129 205.506ZM167.947 210.038C167.947 209.696 167.817 209.432 167.558 209.245C167.302 209.054 166.854 208.89 166.211 208.753C165.573 208.616 165.065 208.452 164.687 208.261C164.313 208.069 164.035 207.841 163.853 207.577C163.675 207.313 163.586 206.998 163.586 206.634C163.586 206.028 163.841 205.515 164.352 205.096C164.867 204.676 165.523 204.467 166.32 204.467C167.159 204.467 167.838 204.683 168.357 205.116C168.882 205.549 169.144 206.103 169.144 206.777H167.872C167.872 206.431 167.724 206.132 167.428 205.882C167.136 205.631 166.767 205.506 166.32 205.506C165.86 205.506 165.5 205.606 165.24 205.807C164.98 206.007 164.851 206.269 164.851 206.593C164.851 206.898 164.971 207.128 165.213 207.283C165.454 207.438 165.89 207.586 166.519 207.728C167.152 207.869 167.665 208.037 168.057 208.233C168.449 208.429 168.738 208.666 168.925 208.944C169.116 209.218 169.212 209.553 169.212 209.949C169.212 210.61 168.948 211.141 168.419 211.542C167.89 211.938 167.204 212.137 166.361 212.137C165.769 212.137 165.245 212.032 164.789 211.822C164.333 211.613 163.976 211.321 163.716 210.947C163.461 210.569 163.333 210.161 163.333 209.724H164.598C164.62 210.147 164.789 210.485 165.104 210.735C165.423 210.981 165.842 211.104 166.361 211.104C166.84 211.104 167.223 211.009 167.51 210.817C167.801 210.621 167.947 210.362 167.947 210.038Z" fill="black"/>
<rect x="6.5" y="185.5" width="39" height="39" rx="19.5" fill="#839ABF" stroke="#EFEFEF"/>
<path d="M341.936 279.76H338.066V280.864H341.936V279.76Z" fill="#9A9A9A"/>
<circle cx="272.5" cy="200.5" r="2.5" fill="#D30000"/>
<path d="M288.215 206.139C290.293 206.139 291.819 204.896 291.814 203.206C291.819 201.918 291.039 200.994 289.686 200.785V200.705C290.75 200.432 291.441 199.597 291.436 198.453C291.441 196.957 290.213 195.679 288.255 195.679C286.385 195.679 284.884 196.808 284.834 198.463H286.321C286.355 197.528 287.235 196.962 288.235 196.962C289.274 196.962 289.955 197.593 289.95 198.533C289.955 199.517 289.164 200.163 288.036 200.163H287.176V201.416H288.036C289.448 201.416 290.263 202.132 290.263 203.156C290.263 204.146 289.403 204.817 288.205 204.817C287.101 204.817 286.241 204.25 286.181 203.345H284.62C284.685 205.006 286.157 206.139 288.215 206.139ZM300.277 206.149C301.669 206.149 302.216 205.299 302.485 204.812H302.609V206H304.06V195.818H302.574V199.602H302.485C302.216 199.129 301.709 198.264 300.287 198.264C298.443 198.264 297.085 199.721 297.085 202.197C297.085 204.668 298.423 206.149 300.277 206.149ZM300.605 204.881C299.278 204.881 298.587 203.713 298.587 202.182C298.587 200.665 299.263 199.527 300.605 199.527C301.903 199.527 302.599 200.586 302.599 202.182C302.599 203.788 301.888 204.881 300.605 204.881ZM308.404 206.169C309.667 206.169 310.378 205.528 310.662 204.956H310.721V206H312.173V200.929C312.173 198.707 310.423 198.264 309.21 198.264C307.828 198.264 306.555 198.821 306.058 200.213L307.455 200.531C307.674 199.989 308.23 199.467 309.23 199.467C310.189 199.467 310.681 199.969 310.681 200.835V200.869C310.681 201.411 310.125 201.401 308.752 201.56C307.306 201.729 305.824 202.107 305.824 203.842C305.824 205.344 306.953 206.169 308.404 206.169ZM308.728 204.976C307.887 204.976 307.281 204.598 307.281 203.862C307.281 203.067 307.987 202.783 308.847 202.669C309.329 202.604 310.473 202.475 310.686 202.261V203.246C310.686 204.151 309.966 204.976 308.728 204.976ZM314.819 208.864C316.047 208.864 316.823 208.222 317.265 207.019L320.422 198.379L318.816 198.364L316.882 204.29H316.803L314.869 198.364H313.278L316.072 206.099L315.888 206.607C315.51 207.621 314.978 207.705 314.163 207.482L313.805 208.7C313.984 208.779 314.372 208.864 314.819 208.864ZM327.545 200.228C327.237 199.04 326.307 198.264 324.657 198.264C322.931 198.264 321.708 199.174 321.708 200.526C321.708 201.61 322.365 202.331 323.796 202.649L325.089 202.933C325.825 203.097 326.168 203.425 326.168 203.902C326.168 204.494 325.537 204.956 324.562 204.956C323.672 204.956 323.1 204.573 322.921 203.822L321.485 204.041C321.733 205.393 322.857 206.154 324.572 206.154C326.416 206.154 327.694 205.175 327.694 203.793C327.694 202.714 327.008 202.048 325.606 201.724L324.393 201.446C323.553 201.247 323.19 200.964 323.195 200.447C323.19 199.86 323.826 199.442 324.671 199.442C325.596 199.442 326.024 199.955 326.198 200.467L327.545 200.228ZM336.25 206.154C338.403 206.154 339.81 204.578 339.81 202.217C339.81 199.84 338.403 198.264 336.25 198.264C334.098 198.264 332.691 199.84 332.691 202.217C332.691 204.578 334.098 206.154 336.25 206.154ZM336.255 204.906C334.848 204.906 334.192 203.678 334.192 202.212C334.192 200.75 334.848 199.507 336.255 199.507C337.652 199.507 338.309 200.75 338.309 202.212C338.309 203.678 337.652 204.906 336.255 204.906ZM347.728 198.364H346.133L344.204 204.24H344.124L342.19 198.364H340.594L343.368 206H344.959L347.728 198.364ZM352.143 206.154C353.809 206.154 354.987 205.334 355.325 204.091L353.918 203.837C353.65 204.558 353.003 204.926 352.158 204.926C350.885 204.926 350.03 204.101 349.991 202.629H355.42V202.102C355.42 199.343 353.769 198.264 352.039 198.264C349.911 198.264 348.509 199.885 348.509 202.232C348.509 204.603 349.891 206.154 352.143 206.154ZM349.996 201.516C350.055 200.432 350.841 199.492 352.049 199.492C353.202 199.492 353.958 200.347 353.963 201.516H349.996ZM357.069 206H358.555V201.337C358.555 200.337 359.326 199.616 360.38 199.616C360.688 199.616 361.036 199.671 361.155 199.706V198.284C361.006 198.264 360.713 198.249 360.524 198.249C359.629 198.249 358.864 198.756 358.585 199.577H358.506V198.364H357.069V206ZM365.027 206.149C366.419 206.149 366.966 205.299 367.235 204.812H367.359V206H368.81V195.818H367.324V199.602H367.235C366.966 199.129 366.459 198.264 365.037 198.264C363.193 198.264 361.835 199.721 361.835 202.197C361.835 204.668 363.173 206.149 365.027 206.149ZM365.355 204.881C364.028 204.881 363.337 203.713 363.337 202.182C363.337 200.665 364.013 199.527 365.355 199.527C366.653 199.527 367.349 200.586 367.349 202.182C367.349 203.788 366.638 204.881 365.355 204.881ZM375.769 202.833C375.774 204.131 374.81 204.747 373.975 204.747C373.055 204.747 372.419 204.081 372.419 203.042V198.364H370.932V203.221C370.932 205.115 371.971 206.099 373.438 206.099C374.586 206.099 375.367 205.493 375.72 204.678H375.799V206H377.261V198.364H375.769V202.833ZM382.549 206.154C384.215 206.154 385.393 205.334 385.731 204.091L384.324 203.837C384.056 204.558 383.41 204.926 382.564 204.926C381.292 204.926 380.437 204.101 380.397 202.629H385.826V202.102C385.826 199.343 384.175 198.264 382.445 198.264C380.317 198.264 378.915 199.885 378.915 202.232C378.915 204.603 380.297 206.154 382.549 206.154ZM380.402 201.516C380.461 200.432 381.247 199.492 382.455 199.492C383.608 199.492 384.364 200.347 384.369 201.516H380.402Z" fill="#D30000"/>
<path d="M287.475 227C290.134 227 291.672 225.351 291.672 222.624C291.672 219.909 290.134 218.273 287.564 218.273H284.649V227H287.475ZM285.966 225.849V219.423H287.483C289.392 219.423 290.377 220.565 290.377 222.624C290.377 224.69 289.392 225.849 287.402 225.849H285.966ZM297.354 224.286C297.358 225.398 296.531 225.926 295.815 225.926C295.027 225.926 294.481 225.355 294.481 224.464V220.455H293.207V224.618C293.207 226.241 294.098 227.085 295.355 227.085C296.339 227.085 297.008 226.565 297.311 225.866H297.379V227H298.632V220.455H297.354V224.286ZM303.165 227.132C304.593 227.132 305.603 226.429 305.892 225.364L304.686 225.146C304.456 225.764 303.902 226.08 303.178 226.08C302.087 226.08 301.354 225.372 301.32 224.111H305.973V223.659C305.973 221.294 304.559 220.369 303.076 220.369C301.252 220.369 300.05 221.759 300.05 223.77C300.05 225.803 301.235 227.132 303.165 227.132ZM301.324 223.156C301.375 222.227 302.049 221.422 303.084 221.422C304.073 221.422 304.72 222.155 304.725 223.156H301.324ZM309.837 227.128C311.03 227.128 311.499 226.399 311.729 225.982H311.836V227H313.08V218.273H311.806V221.516H311.729C311.499 221.111 311.065 220.369 309.846 220.369C308.265 220.369 307.102 221.618 307.102 223.74C307.102 225.858 308.248 227.128 309.837 227.128ZM310.119 226.041C308.981 226.041 308.388 225.04 308.388 223.727C308.388 222.428 308.968 221.452 310.119 221.452C311.231 221.452 311.827 222.359 311.827 223.727C311.827 225.104 311.218 226.041 310.119 226.041ZM320.832 227.132C322.677 227.132 323.883 225.781 323.883 223.757C323.883 221.72 322.677 220.369 320.832 220.369C318.986 220.369 317.78 221.72 317.78 223.757C317.78 225.781 318.986 227.132 320.832 227.132ZM320.836 226.062C319.63 226.062 319.067 225.01 319.067 223.753C319.067 222.5 319.63 221.435 320.836 221.435C322.033 221.435 322.596 222.5 322.596 223.753C322.596 225.01 322.033 226.062 320.836 226.062ZM326.579 223.114C326.579 222.07 327.218 221.473 328.105 221.473C328.97 221.473 329.494 222.04 329.494 222.99V227H330.768V222.837C330.768 221.217 329.877 220.369 328.539 220.369C327.555 220.369 326.912 220.825 326.609 221.52H326.528V220.455H325.305V227H326.579V223.114ZM333.316 222.317C333.781 222.317 334.169 221.938 334.169 221.464C334.169 221 333.781 220.616 333.316 220.616C332.848 220.616 332.464 221 332.464 221.464C332.464 221.938 332.848 222.317 333.316 222.317ZM333.316 227.081C333.781 227.081 334.169 226.702 334.169 226.229C334.169 225.764 333.781 225.381 333.316 225.381C332.848 225.381 332.464 225.764 332.464 226.229C332.464 226.702 332.848 227.081 333.316 227.081ZM342.072 227.145C344.088 227.145 345.268 225.5 345.268 222.641C345.268 219.803 344.071 218.153 342.072 218.153C340.07 218.153 338.876 219.798 338.872 222.641C338.872 225.496 340.053 227.141 342.072 227.145ZM342.072 226.007C340.892 226.007 340.18 224.822 340.18 222.641C340.185 220.467 340.896 219.27 342.072 219.27C343.244 219.27 343.96 220.467 343.96 222.641C343.96 224.822 343.249 226.007 342.072 226.007ZM349.661 227.119C351.416 227.119 352.669 225.879 352.665 224.179C352.669 222.491 351.493 221.264 349.904 221.264C349.256 221.264 348.655 221.511 348.314 221.844H348.263L348.54 219.402H352.243V218.273H347.445L346.955 222.67L348.161 222.849C348.489 222.555 349.077 222.355 349.605 222.355C350.641 222.364 351.391 223.139 351.391 224.205C351.391 225.253 350.662 226.011 349.661 226.011C348.817 226.011 348.148 225.474 348.08 224.724H346.801C346.853 226.114 348.059 227.119 349.661 227.119ZM357.562 217.864H356.425L353.612 228.312H354.75L357.562 217.864ZM361.666 227.145C363.682 227.145 364.862 225.5 364.862 222.641C364.862 219.803 363.665 218.153 361.666 218.153C359.663 218.153 358.47 219.798 358.466 222.641C358.466 225.496 359.646 227.141 361.666 227.145ZM361.666 226.007C360.486 226.007 359.774 224.822 359.774 222.641C359.778 220.467 360.49 219.27 361.666 219.27C362.838 219.27 363.554 220.467 363.554 222.641C363.554 224.822 362.842 226.007 361.666 226.007ZM366.374 227H372.118V225.871H368.189V225.807L369.924 223.991C371.522 222.376 371.978 221.605 371.978 220.629C371.978 219.227 370.836 218.153 369.191 218.153C367.559 218.153 366.365 219.21 366.365 220.804H367.622C367.618 219.866 368.223 219.253 369.165 219.253C370.051 219.253 370.725 219.798 370.725 220.668C370.725 221.439 370.265 221.993 369.327 222.986L366.374 226.045V227ZM377.074 217.864H375.936L373.124 228.312H374.262L377.074 217.864ZM378.14 227H383.884V225.871H379.955V225.807L381.689 223.991C383.287 222.376 383.743 221.605 383.743 220.629C383.743 219.227 382.601 218.153 380.956 218.153C379.324 218.153 378.131 219.21 378.131 220.804H379.388C379.384 219.866 379.989 219.253 380.931 219.253C381.817 219.253 382.49 219.798 382.49 220.668C382.49 221.439 382.03 221.993 381.093 222.986L378.14 226.045V227ZM388.537 227.145C390.553 227.145 391.733 225.5 391.733 222.641C391.733 219.803 390.536 218.153 388.537 218.153C386.534 218.153 385.341 219.798 385.337 222.641C385.337 225.496 386.517 227.141 388.537 227.145ZM388.537 226.007C387.357 226.007 386.645 224.822 386.645 222.641C386.649 220.467 387.361 219.27 388.537 219.27C389.709 219.27 390.425 220.467 390.425 222.641C390.425 224.822 389.713 226.007 388.537 226.007ZM393.245 227H398.989V225.871H395.06V225.807L396.795 223.991C398.393 222.376 398.849 221.605 398.849 220.629C398.849 219.227 397.707 218.153 396.062 218.153C394.43 218.153 393.236 219.21 393.236 220.804H394.494C394.489 219.866 395.094 219.253 396.036 219.253C396.923 219.253 397.596 219.798 397.596 220.668C397.596 221.439 397.136 221.993 396.198 222.986L393.245 226.045V227ZM403.643 227.145C405.658 227.145 406.839 225.5 406.839 222.641C406.839 219.803 405.641 218.153 403.643 218.153C401.64 218.153 400.447 219.798 400.442 222.641C400.442 225.496 401.623 227.141 403.643 227.145ZM403.643 226.007C402.462 226.007 401.751 224.822 401.751 222.641C401.755 220.467 402.467 219.27 403.643 219.27C404.815 219.27 405.53 220.467 405.53 222.641C405.53 224.822 404.819 226.007 403.643 226.007Z" fill="#839ABF"/>
<circle cx="273.5" cy="131.5" r="2.5" fill="#FF9536"/>
<path d="M289.105 137C292.208 137 294.002 135.076 294.002 131.894C294.002 128.727 292.208 126.818 289.21 126.818H285.809V137H289.105ZM287.345 135.658V128.161H289.115C291.343 128.161 292.491 129.493 292.491 131.894C292.491 134.305 291.343 135.658 289.021 135.658H287.345ZM300.631 133.833C300.636 135.131 299.671 135.747 298.836 135.747C297.916 135.747 297.28 135.081 297.28 134.042V129.364H295.793V134.221C295.793 136.115 296.832 137.099 298.299 137.099C299.448 137.099 300.228 136.493 300.581 135.678H300.661V137H302.122V129.364H300.631V133.833ZM307.411 137.154C309.076 137.154 310.255 136.334 310.593 135.091L309.186 134.837C308.917 135.558 308.271 135.926 307.426 135.926C306.153 135.926 305.298 135.101 305.258 133.629H310.687V133.102C310.687 130.343 309.037 129.264 307.306 129.264C305.179 129.264 303.777 130.885 303.777 133.232C303.777 135.603 305.159 137.154 307.411 137.154ZM305.263 132.516C305.323 131.432 306.108 130.492 307.316 130.492C308.47 130.492 309.225 131.347 309.23 132.516H305.263ZM316.041 137H317.528V129.364H316.041V137ZM316.792 128.185C317.304 128.185 317.732 127.788 317.732 127.3C317.732 126.813 317.304 126.411 316.792 126.411C316.275 126.411 315.853 126.813 315.853 127.3C315.853 127.788 316.275 128.185 316.792 128.185ZM321.014 132.466C321.014 131.248 321.76 130.552 322.794 130.552C323.803 130.552 324.415 131.213 324.415 132.322V137H325.901V132.143C325.901 130.254 324.862 129.264 323.301 129.264C322.153 129.264 321.402 129.796 321.049 130.607H320.955V129.364H319.528V137H321.014V132.466ZM335.443 126.818H333.947L331.406 128.479V129.95L333.842 128.359H333.902V137H335.443V126.818ZM341.742 137.169C344.094 137.169 345.471 135.25 345.471 131.914C345.471 128.603 344.074 126.679 341.742 126.679C339.405 126.679 338.013 128.598 338.008 131.914C338.008 135.245 339.386 137.164 341.742 137.169ZM341.742 135.842C340.365 135.842 339.535 134.46 339.535 131.914C339.54 129.379 340.37 127.982 341.742 127.982C343.109 127.982 343.945 129.379 343.945 131.914C343.945 134.46 343.114 135.842 341.742 135.842ZM353.818 137.149C355.21 137.149 355.757 136.299 356.026 135.812H356.15V137H357.601V126.818H356.115V130.602H356.026C355.757 130.129 355.25 129.264 353.828 129.264C351.984 129.264 350.626 130.721 350.626 133.197C350.626 135.668 351.964 137.149 353.818 137.149ZM354.146 135.881C352.819 135.881 352.128 134.713 352.128 133.182C352.128 131.665 352.804 130.527 354.146 130.527C355.444 130.527 356.14 131.586 356.14 133.182C356.14 134.788 355.429 135.881 354.146 135.881ZM361.945 137.169C363.208 137.169 363.919 136.528 364.203 135.956H364.262V137H365.714V131.929C365.714 129.707 363.964 129.264 362.751 129.264C361.369 129.264 360.096 129.821 359.599 131.213L360.996 131.531C361.215 130.989 361.771 130.467 362.771 130.467C363.73 130.467 364.222 130.969 364.222 131.835V131.869C364.222 132.411 363.666 132.401 362.293 132.56C360.847 132.729 359.365 133.107 359.365 134.842C359.365 136.344 360.494 137.169 361.945 137.169ZM362.269 135.976C361.428 135.976 360.822 135.598 360.822 134.862C360.822 134.067 361.528 133.783 362.388 133.669C362.87 133.604 364.014 133.475 364.227 133.261V134.246C364.227 135.151 363.507 135.976 362.269 135.976ZM368.36 139.864C369.588 139.864 370.364 139.222 370.806 138.019L373.963 129.379L372.357 129.364L370.423 135.29H370.344L368.41 129.364H366.819L369.613 137.099L369.429 137.607C369.051 138.621 368.519 138.705 367.704 138.482L367.346 139.7C367.525 139.779 367.913 139.864 368.36 139.864ZM381.086 131.228C380.778 130.04 379.848 129.264 378.198 129.264C376.472 129.264 375.249 130.174 375.249 131.526C375.249 132.61 375.906 133.331 377.337 133.649L378.63 133.933C379.366 134.097 379.709 134.425 379.709 134.902C379.709 135.494 379.078 135.956 378.103 135.956C377.213 135.956 376.641 135.573 376.462 134.822L375.026 135.041C375.274 136.393 376.398 137.154 378.113 137.154C379.957 137.154 381.235 136.175 381.235 134.793C381.235 133.714 380.549 133.048 379.147 132.724L377.934 132.446C377.094 132.247 376.731 131.964 376.736 131.447C376.731 130.86 377.367 130.442 378.212 130.442C379.137 130.442 379.565 130.955 379.739 131.467L381.086 131.228Z" fill="#FF9536"/>
<path d="M288.475 158C291.134 158 292.672 156.351 292.672 153.624C292.672 150.909 291.134 149.273 288.564 149.273H285.649V158H288.475ZM286.966 156.849V150.423H288.483C290.392 150.423 291.377 151.565 291.377 153.624C291.377 155.69 290.392 156.849 288.402 156.849H286.966ZM298.354 155.286C298.358 156.398 297.531 156.926 296.815 156.926C296.027 156.926 295.481 156.355 295.481 155.464V151.455H294.207V155.618C294.207 157.241 295.098 158.085 296.355 158.085C297.339 158.085 298.008 157.565 298.311 156.866H298.379V158H299.632V151.455H298.354V155.286ZM304.165 158.132C305.593 158.132 306.603 157.429 306.892 156.364L305.686 156.146C305.456 156.764 304.902 157.08 304.178 157.08C303.087 157.08 302.354 156.372 302.32 155.111H306.973V154.659C306.973 152.294 305.559 151.369 304.076 151.369C302.252 151.369 301.05 152.759 301.05 154.77C301.05 156.803 302.235 158.132 304.165 158.132ZM302.324 154.156C302.375 153.227 303.049 152.422 304.084 152.422C305.073 152.422 305.72 153.155 305.725 154.156H302.324ZM314.32 158.132C316.165 158.132 317.371 156.781 317.371 154.757C317.371 152.72 316.165 151.369 314.32 151.369C312.475 151.369 311.269 152.72 311.269 154.757C311.269 156.781 312.475 158.132 314.32 158.132ZM314.324 157.062C313.118 157.062 312.556 156.01 312.556 154.753C312.556 153.5 313.118 152.435 314.324 152.435C315.522 152.435 316.084 153.5 316.084 154.753C316.084 156.01 315.522 157.062 314.324 157.062ZM320.067 154.114C320.067 153.07 320.707 152.473 321.593 152.473C322.458 152.473 322.982 153.04 322.982 153.99V158H324.256V153.837C324.256 152.217 323.366 151.369 322.028 151.369C321.043 151.369 320.4 151.825 320.097 152.52H320.016V151.455H318.793V158H320.067V154.114ZM326.805 153.317C327.269 153.317 327.657 152.938 327.657 152.464C327.657 152 327.269 151.616 326.805 151.616C326.336 151.616 325.952 152 325.952 152.464C325.952 152.938 326.336 153.317 326.805 153.317ZM326.805 158.081C327.269 158.081 327.657 157.702 327.657 157.229C327.657 156.764 327.269 156.381 326.805 156.381C326.336 156.381 325.952 156.764 325.952 157.229C325.952 157.702 326.336 158.081 326.805 158.081ZM335.561 158.145C337.576 158.145 338.757 156.5 338.757 153.641C338.757 150.803 337.559 149.153 335.561 149.153C333.558 149.153 332.365 150.798 332.36 153.641C332.36 156.496 333.541 158.141 335.561 158.145ZM335.561 157.007C334.38 157.007 333.669 155.822 333.669 153.641C333.673 151.467 334.385 150.27 335.561 150.27C336.733 150.27 337.448 151.467 337.448 153.641C337.448 155.822 336.737 157.007 335.561 157.007ZM343.149 158.119C344.905 158.119 346.158 156.879 346.153 155.179C346.158 153.491 344.981 152.264 343.392 152.264C342.744 152.264 342.143 152.511 341.802 152.844H341.751L342.028 150.402H345.731V149.273H340.933L340.443 153.67L341.649 153.849C341.977 153.555 342.565 153.355 343.094 153.355C344.129 153.364 344.879 154.139 344.879 155.205C344.879 156.253 344.151 157.011 343.149 157.011C342.305 157.011 341.636 156.474 341.568 155.724H340.29C340.341 157.114 341.547 158.119 343.149 158.119ZM351.051 148.864H349.913L347.1 159.312H348.238L351.051 148.864ZM355.427 149.273H354.144L351.967 150.696V151.957L354.055 150.594H354.106V158H355.427V149.273ZM360.669 158.119C362.424 158.119 363.677 156.879 363.673 155.179C363.677 153.491 362.501 152.264 360.912 152.264C360.264 152.264 359.663 152.511 359.322 152.844H359.271L359.548 150.402H363.251V149.273H358.453L357.963 153.67L359.169 153.849C359.497 153.555 360.085 153.355 360.613 153.355C361.649 153.364 362.399 154.139 362.399 155.205C362.399 156.253 361.67 157.011 360.669 157.011C359.825 157.011 359.156 156.474 359.088 155.724H357.809C357.86 157.114 359.066 158.119 360.669 158.119ZM368.57 148.864H367.432L364.62 159.312H365.758L368.57 148.864ZM369.636 158H375.38V156.871H371.451V156.807L373.185 154.991C374.783 153.376 375.239 152.605 375.239 151.629C375.239 150.227 374.097 149.153 372.452 149.153C370.82 149.153 369.627 150.21 369.627 151.804H370.884C370.88 150.866 371.485 150.253 372.427 150.253C373.313 150.253 373.986 150.798 373.986 151.668C373.986 152.439 373.526 152.993 372.589 153.986L369.636 157.045V158ZM380.033 158.145C382.049 158.145 383.229 156.5 383.229 153.641C383.229 150.803 382.032 149.153 380.033 149.153C378.03 149.153 376.837 150.798 376.833 153.641C376.833 156.496 378.013 158.141 380.033 158.145ZM380.033 157.007C378.853 157.007 378.141 155.822 378.141 153.641C378.146 151.467 378.857 150.27 380.033 150.27C381.205 150.27 381.921 151.467 381.921 153.641C381.921 155.822 381.209 157.007 380.033 157.007ZM384.741 158H390.485V156.871H386.556V156.807L388.291 154.991C389.889 153.376 390.345 152.605 390.345 151.629C390.345 150.227 389.203 149.153 387.558 149.153C385.926 149.153 384.733 150.21 384.733 151.804H385.99C385.985 150.866 386.59 150.253 387.532 150.253C388.419 150.253 389.092 150.798 389.092 151.668C389.092 152.439 388.632 152.993 387.694 153.986L384.741 157.045V158ZM395.139 158.145C397.154 158.145 398.335 156.5 398.335 153.641C398.335 150.803 397.137 149.153 395.139 149.153C393.136 149.153 391.943 150.798 391.938 153.641C391.938 156.496 393.119 158.141 395.139 158.145ZM395.139 157.007C393.958 157.007 393.247 155.822 393.247 153.641C393.251 151.467 393.963 150.27 395.139 150.27C396.311 150.27 397.027 151.467 397.027 153.641C397.027 155.822 396.315 157.007 395.139 157.007Z" fill="#839ABF"/>
<path d="M289.105 68C292.208 68 294.002 66.076 294.002 62.8942C294.002 59.7273 292.208 57.8182 289.21 57.8182H285.809V68H289.105ZM287.345 66.6577V59.1605H289.115C291.343 59.1605 292.491 60.4929 292.491 62.8942C292.491 65.3054 291.343 66.6577 289.021 66.6577H287.345ZM300.631 64.8331C300.636 66.1307 299.671 66.7472 298.836 66.7472C297.916 66.7472 297.28 66.081 297.28 65.0419V60.3636H295.793V65.2209C295.793 67.1151 296.833 68.0994 298.299 68.0994C299.448 68.0994 300.228 67.4929 300.581 66.6776H300.661V68H302.122V60.3636H300.631V64.8331ZM307.411 68.1541C309.076 68.1541 310.255 67.3338 310.593 66.0909L309.186 65.8374C308.917 66.5582 308.271 66.9261 307.426 66.9261C306.153 66.9261 305.298 66.1009 305.258 64.6293H310.687V64.1023C310.687 61.343 309.037 60.2642 307.306 60.2642C305.179 60.2642 303.777 61.8849 303.777 64.2315C303.777 66.603 305.159 68.1541 307.411 68.1541ZM305.263 63.5156C305.323 62.4318 306.108 61.4922 307.316 61.4922C308.47 61.4922 309.225 62.3473 309.23 63.5156H305.263ZM316.041 68H317.528V60.3636H316.041V68ZM316.792 59.1854C317.304 59.1854 317.732 58.7876 317.732 58.3004C317.732 57.8132 317.304 57.4105 316.792 57.4105C316.275 57.4105 315.853 57.8132 315.853 58.3004C315.853 58.7876 316.275 59.1854 316.792 59.1854ZM321.014 63.4659C321.014 62.2479 321.76 61.5518 322.794 61.5518C323.803 61.5518 324.415 62.2131 324.415 63.3217V68H325.901V63.1428C325.901 61.2536 324.862 60.2642 323.301 60.2642C322.153 60.2642 321.402 60.7962 321.049 61.6065H320.955V60.3636H319.528V68H321.014V63.4659ZM331.58 68H338.282V66.6825H333.698V66.608L335.722 64.4901C337.586 62.6058 338.118 61.706 338.118 60.5675C338.118 58.9318 336.785 57.679 334.866 57.679C332.962 57.679 331.57 58.9119 331.57 60.7713H333.037C333.032 59.6776 333.738 58.9616 334.837 58.9616C335.871 58.9616 336.656 59.598 336.656 60.6122C336.656 61.5121 336.119 62.1584 335.026 63.3168L331.58 66.8864V68ZM343.721 68.1392C345.849 68.1591 347.261 66.6278 347.256 64.674C347.261 62.7251 345.844 61.3281 344.079 61.3281C343.005 61.3281 342.075 61.8452 341.553 62.7053H341.479C341.484 60.3935 342.359 59.0213 343.85 59.0213C344.829 59.0213 345.446 59.6179 345.655 60.4631H347.171C346.937 58.8523 345.67 57.679 343.85 57.679C341.484 57.679 340.007 59.7124 340.007 63.2521C340.002 67.0007 341.911 68.1243 343.721 68.1392ZM343.716 66.8466C342.533 66.8466 341.668 65.8523 341.668 64.7088C341.673 63.5703 342.577 62.576 343.751 62.576C344.914 62.576 345.769 63.5156 345.764 64.6939C345.769 65.897 344.879 66.8466 343.716 66.8466ZM355.65 68.1491C357.042 68.1491 357.589 67.299 357.858 66.8118H357.982V68H359.434V57.8182H357.947V61.6016H357.858C357.589 61.1293 357.082 60.2642 355.66 60.2642C353.816 60.2642 352.458 61.7209 352.458 64.1967C352.458 66.6676 353.796 68.1491 355.65 68.1491ZM355.978 66.8814C354.651 66.8814 353.96 65.7131 353.96 64.1818C353.96 62.6655 354.636 61.527 355.978 61.527C357.276 61.527 357.972 62.5859 357.972 64.1818C357.972 65.7876 357.261 66.8814 355.978 66.8814ZM363.777 68.169C365.04 68.169 365.751 67.5277 366.035 66.956H366.094V68H367.546V62.929C367.546 60.7067 365.796 60.2642 364.583 60.2642C363.201 60.2642 361.928 60.821 361.431 62.2131L362.828 62.5312C363.047 61.9893 363.603 61.4673 364.603 61.4673C365.562 61.4673 366.054 61.9695 366.054 62.8345V62.8693C366.054 63.4112 365.498 63.4013 364.125 63.5604C362.679 63.7294 361.197 64.1072 361.197 65.8423C361.197 67.3438 362.326 68.169 363.777 68.169ZM364.101 66.9759C363.26 66.9759 362.654 66.598 362.654 65.8622C362.654 65.0668 363.36 64.7834 364.22 64.669C364.702 64.6044 365.846 64.4751 366.059 64.2614V65.2457C366.059 66.1506 365.339 66.9759 364.101 66.9759ZM370.192 70.8636C371.42 70.8636 372.196 70.2223 372.638 69.0192L375.795 60.3786L374.189 60.3636L372.255 66.2898H372.176L370.242 60.3636H368.651L371.445 68.0994L371.261 68.6065C370.883 69.6207 370.351 69.7053 369.536 69.4815L369.178 70.6996C369.357 70.7791 369.745 70.8636 370.192 70.8636ZM382.918 62.228C382.61 61.0398 381.68 60.2642 380.03 60.2642C378.304 60.2642 377.081 61.174 377.081 62.5263C377.081 63.6101 377.738 64.331 379.17 64.6491L380.462 64.9325C381.198 65.0966 381.541 65.4247 381.541 65.902C381.541 66.4936 380.91 66.956 379.935 66.956C379.045 66.956 378.473 66.5732 378.295 65.8224L376.858 66.0412C377.106 67.3935 378.23 68.1541 379.945 68.1541C381.79 68.1541 383.067 67.1747 383.067 65.7926C383.067 64.7138 382.381 64.0476 380.979 63.7244L379.766 63.446C378.926 63.2472 378.563 62.9638 378.568 62.4467C378.563 61.8601 379.199 61.4425 380.045 61.4425C380.969 61.4425 381.397 61.9545 381.571 62.4666L382.918 62.228Z" fill="#2C2D53"/>
<path d="M288.475 89C291.134 89 292.672 87.3509 292.672 84.6236C292.672 81.9091 291.134 80.2727 288.564 80.2727H285.649V89H288.475ZM286.966 87.8494V81.4233H288.483C290.392 81.4233 291.377 82.5653 291.377 84.6236C291.377 86.6903 290.392 87.8494 288.402 87.8494H286.966ZM298.354 86.2855C298.358 87.3977 297.531 87.9261 296.815 87.9261C296.027 87.9261 295.481 87.3551 295.481 86.4645V82.4545H294.207V86.6179C294.207 88.2415 295.098 89.0852 296.355 89.0852C297.339 89.0852 298.008 88.5653 298.311 87.8665H298.379V89H299.632V82.4545H298.354V86.2855ZM304.165 89.1321C305.593 89.1321 306.603 88.429 306.892 87.3636L305.686 87.1463C305.456 87.7642 304.902 88.0795 304.178 88.0795C303.087 88.0795 302.354 87.3722 302.32 86.1108H306.973V85.6591C306.973 83.294 305.559 82.3693 304.076 82.3693C302.252 82.3693 301.05 83.7585 301.05 85.7699C301.05 87.8026 302.235 89.1321 304.165 89.1321ZM302.324 85.1562C302.375 84.2273 303.049 83.4219 304.084 83.4219C305.073 83.4219 305.72 84.1548 305.725 85.1562H302.324ZM314.32 89.1321C316.165 89.1321 317.371 87.7812 317.371 85.7571C317.371 83.7202 316.165 82.3693 314.32 82.3693C312.475 82.3693 311.269 83.7202 311.269 85.7571C311.269 87.7812 312.475 89.1321 314.32 89.1321ZM314.324 88.0625C313.118 88.0625 312.556 87.0099 312.556 85.7528C312.556 84.5 313.118 83.4347 314.324 83.4347C315.522 83.4347 316.084 84.5 316.084 85.7528C316.084 87.0099 315.522 88.0625 314.324 88.0625ZM320.067 85.1136C320.067 84.0696 320.707 83.473 321.593 83.473C322.458 83.473 322.982 84.0398 322.982 84.9901V89H324.256V84.8366C324.256 83.2173 323.366 82.3693 322.028 82.3693C321.043 82.3693 320.4 82.8253 320.097 83.5199H320.016V82.4545H318.793V89H320.067V85.1136ZM326.805 84.3168C327.269 84.3168 327.657 83.9375 327.657 83.4645C327.657 83 327.269 82.6165 326.805 82.6165C326.336 82.6165 325.952 83 325.952 83.4645C325.952 83.9375 326.336 84.3168 326.805 84.3168ZM326.805 89.081C327.269 89.081 327.657 88.7017 327.657 88.2287C327.657 87.7642 327.269 87.3807 326.805 87.3807C326.336 87.3807 325.952 87.7642 325.952 88.2287C325.952 88.7017 326.336 89.081 326.805 89.081ZM335.561 89.1449C337.576 89.1449 338.757 87.5 338.757 84.6406C338.757 81.8026 337.559 80.1534 335.561 80.1534C333.558 80.1534 332.365 81.7983 332.36 84.6406C332.36 87.4957 333.541 89.1406 335.561 89.1449ZM335.561 88.0071C334.38 88.0071 333.669 86.8224 333.669 84.6406C333.673 82.4673 334.385 81.2699 335.561 81.2699C336.733 81.2699 337.448 82.4673 337.448 84.6406C337.448 86.8224 336.737 88.0071 335.561 88.0071ZM343.149 89.1193C344.905 89.1193 346.158 87.8793 346.153 86.179C346.158 84.4915 344.981 83.2642 343.392 83.2642C342.744 83.2642 342.143 83.5114 341.803 83.8438H341.751L342.028 81.402H345.731V80.2727H340.933L340.443 84.6705L341.649 84.8494C341.977 84.5554 342.565 84.3551 343.094 84.3551C344.129 84.3636 344.879 85.1392 344.879 86.2045C344.879 87.2528 344.151 88.0114 343.149 88.0114C342.305 88.0114 341.636 87.4744 341.568 86.7244H340.29C340.341 88.1136 341.547 89.1193 343.149 89.1193ZM351.051 79.8636H349.913L347.1 90.3125H348.238L351.051 79.8636ZM355.154 89.1193C356.936 89.1193 358.244 88.054 358.24 86.6051C358.244 85.5014 357.575 84.7088 356.416 84.5298V84.4616C357.328 84.2273 357.92 83.5114 357.916 82.5312C357.92 81.2486 356.867 80.1534 355.189 80.1534C353.586 80.1534 352.299 81.1207 352.257 82.5398H353.531C353.561 81.7386 354.315 81.2528 355.171 81.2528C356.062 81.2528 356.646 81.794 356.642 82.5994C356.646 83.4432 355.968 83.9972 355.001 83.9972H354.264V85.071H355.001C356.211 85.071 356.91 85.6847 356.91 86.5625C356.91 87.4105 356.173 87.9858 355.146 87.9858C354.2 87.9858 353.463 87.5 353.412 86.7244H352.073C352.129 88.1477 353.39 89.1193 355.154 89.1193ZM363.162 80.2727H361.879L359.701 81.696V82.9574L361.789 81.5938H361.841V89H363.162V80.2727ZM368.863 79.8636H367.725L364.913 90.3125H366.051L368.863 79.8636ZM369.929 89H375.673V87.8707H371.744V87.8068L373.478 85.9915C375.076 84.3764 375.532 83.6051 375.532 82.6293C375.532 81.2273 374.39 80.1534 372.745 80.1534C371.113 80.1534 369.92 81.2102 369.92 82.804H371.177C371.173 81.8665 371.778 81.2528 372.72 81.2528C373.606 81.2528 374.279 81.7983 374.279 82.6676C374.279 83.4389 373.819 83.9929 372.882 84.9858L369.929 88.0455V89ZM380.326 89.1449C382.342 89.1449 383.522 87.5 383.522 84.6406C383.522 81.8026 382.325 80.1534 380.326 80.1534C378.323 80.1534 377.13 81.7983 377.126 84.6406C377.126 87.4957 378.306 89.1406 380.326 89.1449ZM380.326 88.0071C379.146 88.0071 378.434 86.8224 378.434 84.6406C378.439 82.4673 379.15 81.2699 380.326 81.2699C381.498 81.2699 382.214 82.4673 382.214 84.6406C382.214 86.8224 381.502 88.0071 380.326 88.0071ZM385.034 89H390.778V87.8707H386.849V87.8068L388.584 85.9915C390.182 84.3764 390.638 83.6051 390.638 82.6293C390.638 81.2273 389.496 80.1534 387.851 80.1534C386.219 80.1534 385.026 81.2102 385.026 82.804H386.283C386.278 81.8665 386.883 81.2528 387.825 81.2528C388.712 81.2528 389.385 81.7983 389.385 82.6676C389.385 83.4389 388.925 83.9929 387.987 84.9858L385.034 88.0455V89ZM395.432 89.1449C397.447 89.1449 398.628 87.5 398.628 84.6406C398.628 81.8026 397.43 80.1534 395.432 80.1534C393.429 80.1534 392.236 81.7983 392.231 84.6406C392.231 87.4957 393.412 89.1406 395.432 89.1449ZM395.432 88.0071C394.251 88.0071 393.54 86.8224 393.54 84.6406C393.544 82.4673 394.256 81.2699 395.432 81.2699C396.604 81.2699 397.32 82.4673 397.32 84.6406C397.32 86.8224 396.608 88.0071 395.432 88.0071Z" fill="#839ABF"/>
<rect x="544" y="122" width="44" height="19" rx="9.5" fill="#71D9F3"/>
<path d="M559.415 136L560.293 133.528H563.821L564.699 136H565.807L562.603 127.273H561.512L558.307 136H559.415ZM560.625 132.591L562.023 128.653H562.091L563.489 132.591H560.625ZM573.779 130C573.455 128.21 572.023 127.153 570.268 127.153C568.035 127.153 566.415 128.875 566.415 131.636C566.415 134.398 568.035 136.119 570.268 136.119C572.023 136.119 573.455 135.062 573.779 133.273H572.722C572.467 134.483 571.427 135.131 570.268 135.131C568.682 135.131 567.438 133.903 567.438 131.636C567.438 129.369 568.682 128.142 570.268 128.142C571.427 128.142 572.467 128.79 572.722 130H573.779Z" fill="#050428"/>
<path d="M545.696 158L546.497 155.69H549.906L550.703 158H552.101L548.96 149.273H547.439L544.298 158H545.696ZM546.881 154.582L548.168 150.858H548.236L549.523 154.582H546.881ZM553.858 158H555.153L556.483 153.274H556.581L557.91 158H559.21L561.132 151.455H559.815L558.541 156.24H558.477L557.199 151.455H555.882L554.595 156.261H554.531L553.248 151.455H551.931L553.858 158ZM564.246 158.145C565.328 158.145 565.938 157.595 566.18 157.105H566.232V158H567.476V153.653C567.476 151.749 565.976 151.369 564.936 151.369C563.751 151.369 562.661 151.847 562.234 153.04L563.432 153.312C563.619 152.848 564.097 152.401 564.953 152.401C565.776 152.401 566.197 152.831 566.197 153.572V153.602C566.197 154.067 565.72 154.058 564.544 154.195C563.304 154.339 562.034 154.663 562.034 156.151C562.034 157.438 563.001 158.145 564.246 158.145ZM564.523 157.122C563.803 157.122 563.283 156.798 563.283 156.168C563.283 155.486 563.888 155.243 564.625 155.145C565.038 155.089 566.018 154.979 566.202 154.795V155.639C566.202 156.415 565.584 157.122 564.523 157.122ZM569.173 158H570.447V151.455H569.173V158ZM569.816 150.445C570.255 150.445 570.622 150.104 570.622 149.686C570.622 149.268 570.255 148.923 569.816 148.923C569.373 148.923 569.011 149.268 569.011 149.686C569.011 150.104 569.373 150.445 569.816 150.445ZM575.217 151.455H573.874V149.886H572.6V151.455H571.641V152.477H572.6V156.342C572.596 157.531 573.504 158.107 574.509 158.085C574.914 158.081 575.187 158.004 575.336 157.949L575.106 156.896C575.021 156.913 574.863 156.952 574.658 156.952C574.245 156.952 573.874 156.815 573.874 156.078V152.477H575.217V151.455ZM576.626 158H577.9V151.455H576.626V158ZM577.27 150.445C577.708 150.445 578.075 150.104 578.075 149.686C578.075 149.268 577.708 148.923 577.27 148.923C576.826 148.923 576.464 149.268 576.464 149.686C576.464 150.104 576.826 150.445 577.27 150.445ZM580.888 154.114C580.888 153.07 581.528 152.473 582.414 152.473C583.279 152.473 583.803 153.04 583.803 153.99V158H585.077V153.837C585.077 152.217 584.187 151.369 582.849 151.369C581.864 151.369 581.221 151.825 580.918 152.52H580.837V151.455H579.614V158H580.888V154.114ZM589.531 160.591C591.197 160.591 592.484 159.828 592.484 158.145V151.455H591.235V152.516H591.141C590.915 152.111 590.464 151.369 589.245 151.369C587.664 151.369 586.501 152.618 586.501 154.702C586.501 156.79 587.69 157.902 589.237 157.902C590.438 157.902 590.903 157.224 591.133 156.807H591.214V158.094C591.214 159.121 590.511 159.564 589.543 159.564C588.482 159.564 588.069 159.031 587.843 158.656L586.748 159.108C587.093 159.909 587.967 160.591 589.531 160.591ZM589.518 156.845C588.38 156.845 587.788 155.972 587.788 154.685C587.788 153.428 588.367 152.452 589.518 152.452C590.63 152.452 591.227 153.359 591.227 154.685C591.227 156.036 590.617 156.845 589.518 156.845ZM600.125 158.132C601.672 158.132 602.674 157.203 602.814 155.929H601.574C601.412 156.636 600.863 157.054 600.134 157.054C599.056 157.054 598.361 156.155 598.361 154.727C598.361 153.325 599.069 152.443 600.134 152.443C600.944 152.443 601.438 152.955 601.574 153.568H602.814C602.678 152.247 601.6 151.369 600.113 151.369C598.267 151.369 597.074 152.759 597.074 154.757C597.074 156.73 598.225 158.132 600.125 158.132ZM606.934 158.132C608.779 158.132 609.985 156.781 609.985 154.757C609.985 152.72 608.779 151.369 606.934 151.369C605.089 151.369 603.883 152.72 603.883 154.757C603.883 156.781 605.089 158.132 606.934 158.132ZM606.938 157.062C605.732 157.062 605.17 156.01 605.17 154.753C605.17 153.5 605.732 152.435 606.938 152.435C608.136 152.435 608.698 153.5 608.698 154.753C608.698 156.01 608.136 157.062 606.938 157.062ZM612.681 154.114C612.681 153.07 613.321 152.473 614.207 152.473C615.072 152.473 615.596 153.04 615.596 153.99V158H616.87V153.837C616.87 152.217 615.98 151.369 614.642 151.369C613.657 151.369 613.014 151.825 612.711 152.52H612.63V151.455H611.407V158H612.681V154.114ZM623.484 153.053C623.22 152.034 622.423 151.369 621.008 151.369C619.529 151.369 618.481 152.149 618.481 153.308C618.481 154.237 619.044 154.855 620.271 155.128L621.379 155.371C622.01 155.511 622.304 155.793 622.304 156.202C622.304 156.709 621.762 157.105 620.927 157.105C620.164 157.105 619.674 156.777 619.521 156.134L618.289 156.321C618.502 157.48 619.466 158.132 620.936 158.132C622.517 158.132 623.612 157.293 623.612 156.108C623.612 155.183 623.024 154.612 621.822 154.335L620.782 154.097C620.062 153.926 619.751 153.683 619.755 153.24C619.751 152.737 620.297 152.379 621.021 152.379C621.814 152.379 622.18 152.818 622.329 153.257L623.484 153.053ZM629.159 155.286C629.163 156.398 628.337 156.926 627.621 156.926C626.832 156.926 626.287 156.355 626.287 155.464V151.455H625.013V155.618C625.013 157.241 625.903 158.085 627.161 158.085C628.145 158.085 628.814 157.565 629.116 156.866H629.185V158H630.438V151.455H629.159V155.286ZM633.424 149.273H632.15V158H633.424V149.273ZM638.193 151.455H636.851V149.886H635.577V151.455H634.618V152.477H635.577V156.342C635.572 157.531 636.48 158.107 637.486 158.085C637.891 158.081 638.163 158.004 638.312 157.949L638.082 156.896C637.997 156.913 637.839 156.952 637.635 156.952C637.222 156.952 636.851 156.815 636.851 156.078V152.477H638.193V151.455ZM641.507 158.145C642.59 158.145 643.199 157.595 643.442 157.105H643.493V158H644.738V153.653C644.738 151.749 643.238 151.369 642.198 151.369C641.013 151.369 639.922 151.847 639.496 153.04L640.694 153.312C640.881 152.848 641.358 152.401 642.215 152.401C643.037 152.401 643.459 152.831 643.459 153.572V153.602C643.459 154.067 642.982 154.058 641.806 154.195C640.566 154.339 639.296 154.663 639.296 156.151C639.296 157.438 640.263 158.145 641.507 158.145ZM641.784 157.122C641.064 157.122 640.544 156.798 640.544 156.168C640.544 155.486 641.15 155.243 641.887 155.145C642.3 155.089 643.28 154.979 643.463 154.795V155.639C643.463 156.415 642.846 157.122 641.784 157.122ZM647.709 154.114C647.709 153.07 648.348 152.473 649.234 152.473C650.099 152.473 650.624 153.04 650.624 153.99V158H651.898V153.837C651.898 152.217 651.007 151.369 649.669 151.369C648.685 151.369 648.041 151.825 647.739 152.52H647.658V151.455H646.435V158H647.709V154.114ZM656.662 151.455H655.32V149.886H654.045V151.455H653.087V152.477H654.045V156.342C654.041 157.531 654.949 158.107 655.955 158.085C656.359 158.081 656.632 158.004 656.781 157.949L656.551 156.896C656.466 156.913 656.308 156.952 656.104 156.952C655.69 156.952 655.32 156.815 655.32 156.078V152.477H656.662V151.455ZM661.247 158H662.521V154.003C662.521 153.146 663.182 152.528 664.085 152.528C664.349 152.528 664.648 152.575 664.75 152.605V151.386C664.622 151.369 664.371 151.357 664.209 151.357C663.442 151.357 662.786 151.791 662.547 152.494H662.479V151.455H661.247V158ZM668.439 158.132C669.867 158.132 670.877 157.429 671.167 156.364L669.961 156.146C669.73 156.764 669.176 157.08 668.452 157.08C667.361 157.08 666.628 156.372 666.594 155.111H671.248V154.659C671.248 152.294 669.833 151.369 668.35 151.369C666.526 151.369 665.324 152.759 665.324 154.77C665.324 156.803 666.509 158.132 668.439 158.132ZM666.598 154.156C666.65 153.227 667.323 152.422 668.358 152.422C669.347 152.422 669.995 153.155 669.999 154.156H666.598ZM678.061 151.455H676.694L675.04 156.491H674.972L673.314 151.455H671.946L674.324 158H675.688L678.061 151.455ZM679.259 158H680.533V151.455H679.259V158ZM679.902 150.445C680.341 150.445 680.708 150.104 680.708 149.686C680.708 149.268 680.341 148.923 679.902 148.923C679.459 148.923 679.097 149.268 679.097 149.686C679.097 150.104 679.459 150.445 679.902 150.445ZM685.068 158.132C686.496 158.132 687.506 157.429 687.795 156.364L686.589 156.146C686.359 156.764 685.805 157.08 685.081 157.08C683.99 157.08 683.257 156.372 683.223 155.111H687.876V154.659C687.876 152.294 686.462 151.369 684.979 151.369C683.155 151.369 681.953 152.759 681.953 154.77C681.953 156.803 683.138 158.132 685.068 158.132ZM683.227 154.156C683.278 153.227 683.952 152.422 684.987 152.422C685.976 152.422 686.624 153.155 686.628 154.156H683.227ZM690.697 158H691.993L693.322 153.274H693.42L694.75 158H696.05L697.972 151.455H696.655L695.381 156.24H695.317L694.038 151.455H692.722L691.435 156.261H691.371L690.088 151.455H688.771L690.697 158Z" fill="#839ABF"/>
<rect x="544" y="53" width="44" height="19" rx="9.5" fill="#ABFFC0"/>
<path d="M564.784 58.2727V63.9659C564.784 65.2443 563.906 66.1648 562.449 66.1648C560.992 66.1648 560.114 65.2443 560.114 63.9659V58.2727H559.057V64.0511C559.057 65.8409 560.395 67.1534 562.449 67.1534C564.503 67.1534 565.841 65.8409 565.841 64.0511V58.2727H564.784ZM567.952 67H569.008V63.5909H570.918C570.994 63.5909 571.067 63.5909 571.139 63.5866L572.98 67H574.207L572.234 63.3949C573.346 63.0156 573.866 62.108 573.866 60.9489C573.866 59.4062 572.946 58.2727 570.9 58.2727H567.952V67ZM569.008 62.6364V59.2102H570.866C572.281 59.2102 572.827 59.9006 572.827 60.9489C572.827 61.9972 572.281 62.6364 570.883 62.6364H569.008Z" fill="#071D07"/>
<path d="M550.571 80.2727V85.9062C550.571 87.0909 549.753 87.9432 548.423 87.9432C547.098 87.9432 546.276 87.0909 546.276 85.9062V80.2727H544.959V86.0128C544.959 87.8452 546.331 89.1449 548.423 89.1449C550.516 89.1449 551.892 87.8452 551.892 86.0128V80.2727H550.571ZM554.978 85.1136C554.978 84.0696 555.618 83.473 556.504 83.473C557.369 83.473 557.893 84.0398 557.893 84.9901V89H559.167V84.8366C559.167 83.2173 558.277 82.3693 556.939 82.3693C555.954 82.3693 555.311 82.8253 555.008 83.5199H554.927V82.4545H553.704V89H554.978V85.1136ZM563.326 89.1278C564.52 89.1278 564.988 88.3991 565.218 87.9815H565.325V89H566.569V80.2727H565.295V83.5156H565.218C564.988 83.1108 564.554 82.3693 563.335 82.3693C561.754 82.3693 560.591 83.6179 560.591 85.7401C560.591 87.858 561.737 89.1278 563.326 89.1278ZM563.608 88.0412C562.47 88.0412 561.877 87.0398 561.877 85.7273C561.877 84.4276 562.457 83.4517 563.608 83.4517C564.72 83.4517 565.316 84.3594 565.316 85.7273C565.316 87.1037 564.707 88.0412 563.608 88.0412ZM571.209 89.1321C572.636 89.1321 573.646 88.429 573.936 87.3636L572.73 87.1463C572.5 87.7642 571.946 88.0795 571.222 88.0795C570.131 88.0795 569.398 87.3722 569.364 86.1108H574.017V85.6591C574.017 83.294 572.602 82.3693 571.119 82.3693C569.295 82.3693 568.094 83.7585 568.094 85.7699C568.094 87.8026 569.278 89.1321 571.209 89.1321ZM569.368 85.1562C569.419 84.2273 570.092 83.4219 571.128 83.4219C572.116 83.4219 572.764 84.1548 572.768 85.1562H569.368ZM575.431 89H576.705V85.0028C576.705 84.1463 577.365 83.5284 578.269 83.5284C578.533 83.5284 578.831 83.5753 578.934 83.6051V82.3864C578.806 82.3693 578.554 82.3565 578.392 82.3565C577.625 82.3565 576.969 82.7912 576.73 83.4943H576.662V82.4545H575.431V89ZM583.212 89H584.486V85.0028C584.486 84.1463 585.147 83.5284 586.05 83.5284C586.314 83.5284 586.613 83.5753 586.715 83.6051V82.3864C586.587 82.3693 586.336 82.3565 586.174 82.3565C585.407 82.3565 584.75 82.7912 584.512 83.4943H584.444V82.4545H583.212V89ZM590.404 89.1321C591.832 89.1321 592.842 88.429 593.131 87.3636L591.925 87.1463C591.695 87.7642 591.141 88.0795 590.417 88.0795C589.326 88.0795 588.593 87.3722 588.559 86.1108H593.212V85.6591C593.212 83.294 591.798 82.3693 590.315 82.3693C588.491 82.3693 587.289 83.7585 587.289 85.7699C587.289 87.8026 588.474 89.1321 590.404 89.1321ZM588.563 85.1562C588.614 84.2273 589.288 83.4219 590.323 83.4219C591.312 83.4219 591.96 84.1548 591.964 85.1562H588.563ZM600.026 82.4545H598.658L597.005 87.4915H596.937L595.279 82.4545H593.911L596.289 89H597.653L600.026 82.4545ZM601.224 89H602.498V82.4545H601.224V89ZM601.867 81.4446C602.306 81.4446 602.673 81.1037 602.673 80.6861C602.673 80.2685 602.306 79.9233 601.867 79.9233C601.424 79.9233 601.062 80.2685 601.062 80.6861C601.062 81.1037 601.424 81.4446 601.867 81.4446ZM607.033 89.1321C608.461 89.1321 609.471 88.429 609.76 87.3636L608.554 87.1463C608.324 87.7642 607.77 88.0795 607.046 88.0795C605.955 88.0795 605.222 87.3722 605.188 86.1108H609.841V85.6591C609.841 83.294 608.426 82.3693 606.944 82.3693C605.12 82.3693 603.918 83.7585 603.918 85.7699C603.918 87.8026 605.103 89.1321 607.033 89.1321ZM605.192 85.1562C605.243 84.2273 605.917 83.4219 606.952 83.4219C607.941 83.4219 608.588 84.1548 608.593 85.1562H605.192ZM612.662 89H613.958L615.287 84.2741H615.385L616.715 89H618.015L619.936 82.4545H618.62L617.346 87.2401H617.282L616.003 82.4545H614.686L613.4 87.2614H613.336L612.053 82.4545H610.736L612.662 89Z" fill="#839ABF"/>
<path d="M545.696 227L546.497 224.69H549.906L550.703 227H552.101L548.96 218.273H547.439L544.298 227H545.696ZM546.881 223.582L548.168 219.858H548.236L549.523 223.582H546.881ZM553.858 227H555.153L556.483 222.274H556.581L557.91 227H559.21L561.132 220.455H559.815L558.541 225.24H558.477L557.199 220.455H555.882L554.595 225.261H554.531L553.248 220.455H551.931L553.858 227ZM564.246 227.145C565.328 227.145 565.938 226.595 566.18 226.105H566.232V227H567.476V222.653C567.476 220.749 565.976 220.369 564.936 220.369C563.751 220.369 562.661 220.847 562.234 222.04L563.432 222.312C563.619 221.848 564.097 221.401 564.953 221.401C565.776 221.401 566.197 221.831 566.197 222.572V222.602C566.197 223.067 565.72 223.058 564.544 223.195C563.304 223.339 562.034 223.663 562.034 225.151C562.034 226.438 563.001 227.145 564.246 227.145ZM564.523 226.122C563.803 226.122 563.283 225.798 563.283 225.168C563.283 224.486 563.888 224.243 564.625 224.145C565.038 224.089 566.018 223.979 566.202 223.795V224.639C566.202 225.415 565.584 226.122 564.523 226.122ZM569.173 227H570.447V220.455H569.173V227ZM569.816 219.445C570.255 219.445 570.622 219.104 570.622 218.686C570.622 218.268 570.255 217.923 569.816 217.923C569.373 217.923 569.011 218.268 569.011 218.686C569.011 219.104 569.373 219.445 569.816 219.445ZM575.217 220.455H573.874V218.886H572.6V220.455H571.641V221.477H572.6V225.342C572.596 226.531 573.504 227.107 574.509 227.085C574.914 227.081 575.187 227.004 575.336 226.949L575.106 225.896C575.021 225.913 574.863 225.952 574.658 225.952C574.245 225.952 573.874 225.815 573.874 225.078V221.477H575.217V220.455ZM576.626 227H577.9V220.455H576.626V227ZM577.27 219.445C577.708 219.445 578.075 219.104 578.075 218.686C578.075 218.268 577.708 217.923 577.27 217.923C576.826 217.923 576.464 218.268 576.464 218.686C576.464 219.104 576.826 219.445 577.27 219.445ZM580.888 223.114C580.888 222.07 581.528 221.473 582.414 221.473C583.279 221.473 583.803 222.04 583.803 222.99V227H585.077V222.837C585.077 221.217 584.187 220.369 582.849 220.369C581.864 220.369 581.221 220.825 580.918 221.52H580.837V220.455H579.614V227H580.888V223.114ZM589.531 229.591C591.197 229.591 592.484 228.828 592.484 227.145V220.455H591.235V221.516H591.141C590.915 221.111 590.464 220.369 589.245 220.369C587.664 220.369 586.501 221.618 586.501 223.702C586.501 225.79 587.69 226.902 589.237 226.902C590.438 226.902 590.903 226.224 591.133 225.807H591.214V227.094C591.214 228.121 590.511 228.564 589.543 228.564C588.482 228.564 588.069 228.031 587.843 227.656L586.748 228.108C587.093 228.909 587.967 229.591 589.531 229.591ZM589.518 225.845C588.38 225.845 587.788 224.972 587.788 223.685C587.788 222.428 588.367 221.452 589.518 221.452C590.63 221.452 591.227 222.359 591.227 223.685C591.227 225.036 590.617 225.845 589.518 225.845ZM597.368 227H598.642V223.003C598.642 222.146 599.303 221.528 600.206 221.528C600.471 221.528 600.769 221.575 600.871 221.605V220.386C600.743 220.369 600.492 220.357 600.33 220.357C599.563 220.357 598.907 220.791 598.668 221.494H598.6V220.455H597.368V227ZM604.56 227.132C605.988 227.132 606.998 226.429 607.288 225.364L606.082 225.146C605.852 225.764 605.298 226.08 604.573 226.08C603.482 226.08 602.749 225.372 602.715 224.111H607.369V223.659C607.369 221.294 605.954 220.369 604.471 220.369C602.647 220.369 601.445 221.759 601.445 223.77C601.445 225.803 602.63 227.132 604.56 227.132ZM602.719 223.156C602.771 222.227 603.444 221.422 604.479 221.422C605.468 221.422 606.116 222.155 606.12 223.156H602.719ZM613.687 222.053C613.423 221.034 612.626 220.369 611.211 220.369C609.733 220.369 608.684 221.149 608.684 222.308C608.684 223.237 609.247 223.855 610.474 224.128L611.582 224.371C612.213 224.511 612.507 224.793 612.507 225.202C612.507 225.709 611.966 226.105 611.13 226.105C610.368 226.105 609.877 225.777 609.724 225.134L608.493 225.321C608.706 226.48 609.669 227.132 611.139 227.132C612.72 227.132 613.815 226.293 613.815 225.108C613.815 224.183 613.227 223.612 612.025 223.335L610.985 223.097C610.265 222.926 609.954 222.683 609.958 222.24C609.954 221.737 610.5 221.379 611.224 221.379C612.017 221.379 612.383 221.818 612.532 222.257L613.687 222.053ZM619.362 224.286C619.366 225.398 618.54 225.926 617.824 225.926C617.036 225.926 616.49 225.355 616.49 224.464V220.455H615.216V224.618C615.216 226.241 616.107 227.085 617.364 227.085C618.348 227.085 619.017 226.565 619.32 225.866H619.388V227H620.641V220.455H619.362V224.286ZM622.455 227H623.699V225.982H623.806C624.036 226.399 624.505 227.128 625.698 227.128C627.283 227.128 628.434 225.858 628.434 223.74C628.434 221.618 627.266 220.369 625.685 220.369C624.471 220.369 624.032 221.111 623.806 221.516H623.729V218.273H622.455V227ZM623.703 223.727C623.703 222.359 624.3 221.452 625.412 221.452C626.567 221.452 627.147 222.428 627.147 223.727C627.147 225.04 626.55 226.041 625.412 226.041C624.317 226.041 623.703 225.104 623.703 223.727ZM629.864 227H631.138V222.964C631.138 222.082 631.756 221.469 632.481 221.469C633.188 221.469 633.678 221.938 633.678 222.649V227H634.948V222.828C634.948 222.04 635.43 221.469 636.261 221.469C636.934 221.469 637.488 221.844 637.488 222.73V227H638.762V222.611C638.762 221.115 637.927 220.369 636.742 220.369C635.8 220.369 635.093 220.821 634.778 221.52H634.71C634.424 220.804 633.823 220.369 632.95 220.369C632.085 220.369 631.441 220.8 631.168 221.52H631.087V220.455H629.864V227ZM640.47 227H641.744V220.455H640.47V227ZM641.113 219.445C641.552 219.445 641.919 219.104 641.919 218.686C641.919 218.268 641.552 217.923 641.113 217.923C640.67 217.923 640.308 218.268 640.308 218.686C640.308 219.104 640.67 219.445 641.113 219.445ZM648.363 222.053C648.099 221.034 647.302 220.369 645.887 220.369C644.408 220.369 643.36 221.149 643.36 222.308C643.36 223.237 643.923 223.855 645.15 224.128L646.258 224.371C646.888 224.511 647.183 224.793 647.183 225.202C647.183 225.709 646.641 226.105 645.806 226.105C645.043 226.105 644.553 225.777 644.4 225.134L643.168 225.321C643.381 226.48 644.344 227.132 645.815 227.132C647.396 227.132 648.491 226.293 648.491 225.108C648.491 224.183 647.903 223.612 646.701 223.335L645.661 223.097C644.941 222.926 644.63 222.683 644.634 222.24C644.63 221.737 645.175 221.379 645.9 221.379C646.692 221.379 647.059 221.818 647.208 222.257L648.363 222.053ZM654.797 222.053C654.532 221.034 653.735 220.369 652.321 220.369C650.842 220.369 649.794 221.149 649.794 222.308C649.794 223.237 650.356 223.855 651.583 224.128L652.691 224.371C653.322 224.511 653.616 224.793 653.616 225.202C653.616 225.709 653.075 226.105 652.24 226.105C651.477 226.105 650.987 225.777 650.833 225.134L649.602 225.321C649.815 226.48 650.778 227.132 652.248 227.132C653.829 227.132 654.924 226.293 654.924 225.108C654.924 224.183 654.336 223.612 653.135 223.335L652.095 223.097C651.375 222.926 651.064 222.683 651.068 222.24C651.064 221.737 651.609 221.379 652.333 221.379C653.126 221.379 653.493 221.818 653.642 222.257L654.797 222.053ZM656.325 227H657.599V220.455H656.325V227ZM656.969 219.445C657.408 219.445 657.774 219.104 657.774 218.686C657.774 218.268 657.408 217.923 656.969 217.923C656.526 217.923 656.163 218.268 656.163 218.686C656.163 219.104 656.526 219.445 656.969 219.445ZM662.071 227.132C663.916 227.132 665.122 225.781 665.122 223.757C665.122 221.72 663.916 220.369 662.071 220.369C660.225 220.369 659.02 221.72 659.02 223.757C659.02 225.781 660.225 227.132 662.071 227.132ZM662.075 226.062C660.869 226.062 660.306 225.01 660.306 223.753C660.306 222.5 660.869 221.435 662.075 221.435C663.272 221.435 663.835 222.5 663.835 223.753C663.835 225.01 663.272 226.062 662.075 226.062ZM667.818 223.114C667.818 222.07 668.457 221.473 669.344 221.473C670.209 221.473 670.733 222.04 670.733 222.99V227H672.007V222.837C672.007 221.217 671.116 220.369 669.778 220.369C668.794 220.369 668.151 220.825 667.848 221.52H667.767V220.455H666.544V227H667.818V223.114Z" fill="#839ABF"/>
<rect x="544" y="191" width="44" height="19" rx="9.5" fill="#E0E0E0" fill-opacity="0.44"/>
<path d="M559.415 205L560.292 202.528H563.821L564.699 205H565.807L562.602 196.273H561.511L558.307 205H559.415ZM560.625 201.591L562.022 197.653H562.091L563.488 201.591H560.625ZM571.939 198.455H572.961C572.915 197.138 571.7 196.153 570.013 196.153C568.342 196.153 567.03 197.125 567.03 198.591C567.03 199.767 567.882 200.466 569.245 200.858L570.319 201.165C571.24 201.42 572.058 201.744 572.058 202.614C572.058 203.568 571.138 204.199 569.927 204.199C568.888 204.199 567.967 203.739 567.882 202.75H566.791C566.893 204.182 568.052 205.153 569.927 205.153C571.939 205.153 573.081 204.045 573.081 202.631C573.081 200.994 571.53 200.466 570.626 200.227L569.74 199.989C569.092 199.818 568.052 199.477 568.052 198.54C568.052 197.705 568.819 197.091 569.978 197.091C571.035 197.091 571.836 197.594 571.939 198.455Z" fill="#2F3239"/>
</svg>
