<svg width="817" height="325" viewBox="0 0 817 325" fill="none" xmlns="http://www.w3.org/2000/svg">
<path d="M11.9727 6.1543H7.61719V18H4.6875V6.1543H0.390625V3.78125H11.9727V6.1543ZM22.207 11.8379H16.582V15.6465H23.1836V18H13.6523V3.78125H23.1641V6.1543H16.582V9.54297H22.207V11.8379ZM29.9902 8.68359L32.6562 3.78125H36.0254L31.8848 10.832L36.1328 18H32.7246L29.9902 13.0195L27.2559 18H23.8477L28.0957 10.832L23.9551 3.78125H27.3242L29.9902 8.68359ZM48.3203 6.1543H43.9648V18H41.0352V6.1543H36.7383V3.78125H48.3203V6.1543ZM65.5566 13.2637C65.446 14.7936 64.8796 15.998 63.8574 16.877C62.8418 17.7559 61.5007 18.1953 59.834 18.1953C58.0111 18.1953 56.5755 17.5833 55.5273 16.3594C54.4857 15.1289 53.9648 13.4427 53.9648 11.3008V10.4316C53.9648 9.06445 54.2057 7.86003 54.6875 6.81836C55.1693 5.77669 55.8561 4.97917 56.748 4.42578C57.6465 3.86589 58.6882 3.58594 59.873 3.58594C61.5137 3.58594 62.8353 4.02539 63.8379 4.9043C64.8405 5.7832 65.4199 7.01693 65.5762 8.60547H62.6465C62.5749 7.6875 62.3177 7.02344 61.875 6.61328C61.4388 6.19661 60.7715 5.98828 59.873 5.98828C58.8965 5.98828 58.1641 6.33984 57.6758 7.04297C57.194 7.73958 56.9466 8.82357 56.9336 10.2949V11.3691C56.9336 12.9056 57.1647 14.0286 57.627 14.7383C58.0957 15.4479 58.8314 15.8027 59.834 15.8027C60.7389 15.8027 61.4128 15.5977 61.8555 15.1875C62.3047 14.7708 62.5618 14.1296 62.627 13.2637H65.5566ZM79.1602 11.2129C79.1602 12.6126 78.9128 13.8398 78.418 14.8945C77.9232 15.9492 77.2135 16.763 76.2891 17.3359C75.3711 17.9089 74.3164 18.1953 73.125 18.1953C71.9466 18.1953 70.8952 17.9121 69.9707 17.3457C69.0462 16.7793 68.3301 15.972 67.8223 14.9238C67.3145 13.8691 67.0573 12.6582 67.0508 11.291V10.5879C67.0508 9.18815 67.3014 7.95768 67.8027 6.89648C68.3105 5.82878 69.0234 5.01172 69.9414 4.44531C70.8659 3.8724 71.9206 3.58594 73.1055 3.58594C74.2904 3.58594 75.3418 3.8724 76.2598 4.44531C77.1842 5.01172 77.8971 5.82878 78.3984 6.89648C78.9062 7.95768 79.1602 9.1849 79.1602 10.5781V11.2129ZM76.1914 10.5684C76.1914 9.07747 75.9245 7.94466 75.3906 7.16992C74.8568 6.39518 74.0951 6.00781 73.1055 6.00781C72.1224 6.00781 71.3639 6.39193 70.8301 7.16016C70.2962 7.92188 70.026 9.04167 70.0195 10.5195V11.2129C70.0195 12.6647 70.2865 13.791 70.8203 14.5918C71.3542 15.3926 72.1224 15.793 73.125 15.793C74.1081 15.793 74.8633 15.4089 75.3906 14.6406C75.918 13.8659 76.1849 12.7396 76.1914 11.2617V10.5684ZM84.2188 15.6465H90.4395V18H81.2891V3.78125H84.2188V15.6465ZM103.184 11.2129C103.184 12.6126 102.936 13.8398 102.441 14.8945C101.947 15.9492 101.237 16.763 100.312 17.3359C99.3945 17.9089 98.3398 18.1953 97.1484 18.1953C95.9701 18.1953 94.9186 17.9121 93.9941 17.3457C93.0697 16.7793 92.3535 15.972 91.8457 14.9238C91.3379 13.8691 91.0807 12.6582 91.0742 11.291V10.5879C91.0742 9.18815 91.3249 7.95768 91.8262 6.89648C92.334 5.82878 93.0469 5.01172 93.9648 4.44531C94.8893 3.8724 95.944 3.58594 97.1289 3.58594C98.3138 3.58594 99.3652 3.8724 100.283 4.44531C101.208 5.01172 101.921 5.82878 102.422 6.89648C102.93 7.95768 103.184 9.1849 103.184 10.5781V11.2129ZM100.215 10.5684C100.215 9.07747 99.9479 7.94466 99.4141 7.16992C98.8802 6.39518 98.1185 6.00781 97.1289 6.00781C96.1458 6.00781 95.3874 6.39193 94.8535 7.16016C94.3197 7.92188 94.0495 9.04167 94.043 10.5195V11.2129C94.043 12.6647 94.3099 13.791 94.8438 14.5918C95.3776 15.3926 96.1458 15.793 97.1484 15.793C98.1315 15.793 98.8867 15.4089 99.4141 14.6406C99.9414 13.8659 100.208 12.7396 100.215 11.2617V10.5684ZM110.576 12.7949H108.242V18H105.312V3.78125H110.596C112.275 3.78125 113.571 4.1556 114.482 4.9043C115.394 5.65299 115.85 6.71094 115.85 8.07812C115.85 9.04818 115.638 9.85872 115.215 10.5098C114.798 11.1543 114.163 11.6686 113.311 12.0527L116.387 17.8633V18H113.242L110.576 12.7949ZM108.242 10.4219H110.605C111.341 10.4219 111.911 10.2363 112.314 9.86523C112.718 9.48763 112.92 8.97005 112.92 8.3125C112.92 7.64193 112.728 7.11458 112.344 6.73047C111.966 6.34635 111.383 6.1543 110.596 6.1543H108.242V10.4219ZM125.459 14.2695C125.459 13.7161 125.264 13.293 124.873 13C124.482 12.7005 123.779 12.388 122.764 12.0625C121.748 11.7305 120.944 11.4049 120.352 11.0859C118.737 10.2135 117.93 9.03841 117.93 7.56055C117.93 6.79232 118.145 6.10872 118.574 5.50977C119.01 4.9043 119.632 4.43229 120.439 4.09375C121.253 3.75521 122.165 3.58594 123.174 3.58594C124.189 3.58594 125.094 3.77148 125.889 4.14258C126.683 4.50716 127.298 5.02474 127.734 5.69531C128.177 6.36589 128.398 7.1276 128.398 7.98047H125.469C125.469 7.32943 125.264 6.82487 124.854 6.4668C124.443 6.10221 123.867 5.91992 123.125 5.91992C122.409 5.91992 121.852 6.07292 121.455 6.37891C121.058 6.67839 120.859 7.07552 120.859 7.57031C120.859 8.03255 121.09 8.41992 121.553 8.73242C122.021 9.04492 122.708 9.33789 123.613 9.61133C125.28 10.1126 126.494 10.7344 127.256 11.4766C128.018 12.2188 128.398 13.1432 128.398 14.25C128.398 15.4805 127.933 16.4473 127.002 17.1504C126.071 17.847 124.818 18.1953 123.242 18.1953C122.148 18.1953 121.152 17.9967 120.254 17.5996C119.355 17.196 118.669 16.6458 118.193 15.9492C117.725 15.2526 117.49 14.4453 117.49 13.5273H120.43C120.43 15.0964 121.367 15.8809 123.242 15.8809C123.939 15.8809 124.482 15.7409 124.873 15.4609C125.264 15.1745 125.459 14.7773 125.459 14.2695Z" fill="black"/>
<line y1="42.5" x2="262" y2="42.5" stroke="#D8D8D8"/>
<path d="M317.27 18V3.78125H321.645C322.895 3.78125 324.011 4.06445 324.994 4.63086C325.984 5.19076 326.755 5.99154 327.309 7.0332C327.862 8.06836 328.139 9.24674 328.139 10.5684V11.2227C328.139 12.5443 327.865 13.7194 327.318 14.748C326.778 15.7767 326.013 16.5742 325.023 17.1406C324.034 17.707 322.917 17.9935 321.674 18H317.27ZM320.199 6.1543V15.6465H321.615C322.761 15.6465 323.637 15.2721 324.242 14.5234C324.848 13.7747 325.157 12.7038 325.17 11.3105V10.5586C325.17 9.11328 324.87 8.01953 324.271 7.27734C323.673 6.52865 322.797 6.1543 321.645 6.1543H320.199ZM341.039 3.78125V13.1465C341.039 14.7025 340.551 15.9329 339.574 16.8379C338.604 17.7428 337.276 18.1953 335.59 18.1953C333.93 18.1953 332.611 17.7559 331.635 16.877C330.658 15.998 330.16 14.7904 330.141 13.2539V3.78125H333.07V13.166C333.07 14.097 333.292 14.7773 333.734 15.207C334.184 15.6302 334.802 15.8418 335.59 15.8418C337.237 15.8418 338.074 14.9759 338.1 13.2441V3.78125H341.039ZM351.996 11.8379H346.371V15.6465H352.973V18H343.441V3.78125H352.953V6.1543H346.371V9.54297H351.996V11.8379ZM359.672 18V3.78125H364.047C365.297 3.78125 366.413 4.06445 367.396 4.63086C368.386 5.19076 369.158 5.99154 369.711 7.0332C370.264 8.06836 370.541 9.24674 370.541 10.5684V11.2227C370.541 12.5443 370.268 13.7194 369.721 14.748C369.18 15.7767 368.415 16.5742 367.426 17.1406C366.436 17.707 365.32 17.9935 364.076 18H359.672ZM362.602 6.1543V15.6465H364.018C365.163 15.6465 366.039 15.2721 366.645 14.5234C367.25 13.7747 367.559 12.7038 367.572 11.3105V10.5586C367.572 9.11328 367.273 8.01953 366.674 7.27734C366.075 6.52865 365.199 6.1543 364.047 6.1543H362.602ZM380.492 15.0703H375.355L374.379 18H371.264L376.557 3.78125H379.271L384.594 18H381.479L380.492 15.0703ZM376.146 12.6973H379.701L377.914 7.375L376.146 12.6973ZM395.453 6.1543H391.098V18H388.168V6.1543H383.871V3.78125H395.453V6.1543ZM405.688 11.8379H400.062V15.6465H406.664V18H397.133V3.78125H406.645V6.1543H400.062V9.54297H405.688V11.8379ZM416.293 15.6465H422.514V18H413.363V3.78125H416.293V15.6465ZM432.426 15.0703H427.289L426.312 18H423.197L428.49 3.78125H431.205L436.527 18H433.412L432.426 15.0703ZM428.08 12.6973H431.635L429.848 7.375L428.08 12.6973ZM437.855 18V3.78125H442.836C444.561 3.78125 445.87 4.11328 446.762 4.77734C447.654 5.4349 448.1 6.40169 448.1 7.67773C448.1 8.37435 447.921 8.98958 447.562 9.52344C447.204 10.0508 446.706 10.4382 446.068 10.6855C446.798 10.8678 447.37 11.2357 447.787 11.7891C448.21 12.3424 448.422 13.0195 448.422 13.8203C448.422 15.1875 447.986 16.2227 447.113 16.9258C446.241 17.6289 444.997 17.987 443.383 18H437.855ZM440.785 11.8086V15.6465H443.295C443.985 15.6465 444.522 15.4837 444.906 15.1582C445.297 14.8262 445.492 14.3704 445.492 13.791C445.492 12.4889 444.818 11.8281 443.471 11.8086H440.785ZM440.785 9.73828H442.953C444.431 9.71224 445.17 9.12305 445.17 7.9707C445.17 7.32617 444.981 6.86393 444.604 6.58398C444.232 6.29753 443.643 6.1543 442.836 6.1543H440.785V9.73828ZM459.184 11.8379H453.559V15.6465H460.16V18H450.629V3.78125H460.141V6.1543H453.559V9.54297H459.184V11.8379ZM464.809 15.6465H471.029V18H461.879V3.78125H464.809V15.6465ZM480.092 14.2695C480.092 13.7161 479.896 13.293 479.506 13C479.115 12.7005 478.412 12.388 477.396 12.0625C476.381 11.7305 475.577 11.4049 474.984 11.0859C473.37 10.2135 472.562 9.03841 472.562 7.56055C472.562 6.79232 472.777 6.10872 473.207 5.50977C473.643 4.9043 474.265 4.43229 475.072 4.09375C475.886 3.75521 476.798 3.58594 477.807 3.58594C478.822 3.58594 479.727 3.77148 480.521 4.14258C481.316 4.50716 481.931 5.02474 482.367 5.69531C482.81 6.36589 483.031 7.1276 483.031 7.98047H480.102C480.102 7.32943 479.896 6.82487 479.486 6.4668C479.076 6.10221 478.5 5.91992 477.758 5.91992C477.042 5.91992 476.485 6.07292 476.088 6.37891C475.691 6.67839 475.492 7.07552 475.492 7.57031C475.492 8.03255 475.723 8.41992 476.186 8.73242C476.654 9.04492 477.341 9.33789 478.246 9.61133C479.913 10.1126 481.127 10.7344 481.889 11.4766C482.65 12.2188 483.031 13.1432 483.031 14.25C483.031 15.4805 482.566 16.4473 481.635 17.1504C480.704 17.847 479.451 18.1953 477.875 18.1953C476.781 18.1953 475.785 17.9967 474.887 17.5996C473.988 17.196 473.301 16.6458 472.826 15.9492C472.357 15.2526 472.123 14.4453 472.123 13.5273H475.062C475.062 15.0964 476 15.8809 477.875 15.8809C478.572 15.8809 479.115 15.7409 479.506 15.4609C479.896 15.1745 480.092 14.7773 480.092 14.2695Z" fill="black"/>
<path d="M596.533 12.7949H594.199V18H591.27V3.78125H596.553C598.232 3.78125 599.528 4.1556 600.439 4.9043C601.351 5.65299 601.807 6.71094 601.807 8.07812C601.807 9.04818 601.595 9.85872 601.172 10.5098C600.755 11.1543 600.12 11.6686 599.268 12.0527L602.344 17.8633V18H599.199L596.533 12.7949ZM594.199 10.4219H596.562C597.298 10.4219 597.868 10.2363 598.271 9.86523C598.675 9.48763 598.877 8.97005 598.877 8.3125C598.877 7.64193 598.685 7.11458 598.301 6.73047C597.923 6.34635 597.34 6.1543 596.553 6.1543H594.199V10.4219ZM612.598 11.8379H606.973V15.6465H613.574V18H604.043V3.78125H613.555V6.1543H606.973V9.54297H612.598V11.8379ZM620.547 14.4746L623.77 3.78125H627.031L622.08 18H619.023L614.092 3.78125H617.344L620.547 14.4746ZM631.494 18H628.564V3.78125H631.494V18ZM642.773 11.8379H637.148V15.6465H643.75V18H634.219V3.78125H643.73V6.1543H637.148V9.54297H642.773V11.8379ZM656.543 13.8984L658.457 3.78125H661.377L658.223 18H655.273L652.959 8.48828L650.645 18H647.695L644.541 3.78125H647.461L649.385 13.8789L651.729 3.78125H654.209L656.543 13.8984ZM675.322 14.2695C675.322 13.7161 675.127 13.293 674.736 13C674.346 12.7005 673.643 12.388 672.627 12.0625C671.611 11.7305 670.807 11.4049 670.215 11.0859C668.6 10.2135 667.793 9.03841 667.793 7.56055C667.793 6.79232 668.008 6.10872 668.438 5.50977C668.874 4.9043 669.495 4.43229 670.303 4.09375C671.117 3.75521 672.028 3.58594 673.037 3.58594C674.053 3.58594 674.958 3.77148 675.752 4.14258C676.546 4.50716 677.161 5.02474 677.598 5.69531C678.04 6.36589 678.262 7.1276 678.262 7.98047H675.332C675.332 7.32943 675.127 6.82487 674.717 6.4668C674.307 6.10221 673.73 5.91992 672.988 5.91992C672.272 5.91992 671.715 6.07292 671.318 6.37891C670.921 6.67839 670.723 7.07552 670.723 7.57031C670.723 8.03255 670.954 8.41992 671.416 8.73242C671.885 9.04492 672.572 9.33789 673.477 9.61133C675.143 10.1126 676.357 10.7344 677.119 11.4766C677.881 12.2188 678.262 13.1432 678.262 14.25C678.262 15.4805 677.796 16.4473 676.865 17.1504C675.934 17.847 674.681 18.1953 673.105 18.1953C672.012 18.1953 671.016 17.9967 670.117 17.5996C669.219 17.196 668.532 16.6458 668.057 15.9492C667.588 15.2526 667.354 14.4453 667.354 13.5273H670.293C670.293 15.0964 671.23 15.8809 673.105 15.8809C673.802 15.8809 674.346 15.7409 674.736 15.4609C675.127 15.1745 675.322 14.7773 675.322 14.2695ZM690.957 6.1543H686.602V18H683.672V6.1543H679.375V3.78125H690.957V6.1543ZM699.492 15.0703H694.355L693.379 18H690.264L695.557 3.78125H698.271L703.594 18H700.479L699.492 15.0703ZM695.146 12.6973H698.701L696.914 7.375L695.146 12.6973ZM714.453 6.1543H710.098V18H707.168V6.1543H702.871V3.78125H714.453V6.1543ZM726.895 3.78125V13.1465C726.895 14.7025 726.406 15.9329 725.43 16.8379C724.46 17.7428 723.132 18.1953 721.445 18.1953C719.785 18.1953 718.467 17.7559 717.49 16.877C716.514 15.998 716.016 14.7904 715.996 13.2539V3.78125H718.926V13.166C718.926 14.097 719.147 14.7773 719.59 15.207C720.039 15.6302 720.658 15.8418 721.445 15.8418C723.092 15.8418 723.929 14.9759 723.955 13.2441V3.78125H726.895ZM736.67 14.2695C736.67 13.7161 736.475 13.293 736.084 13C735.693 12.7005 734.99 12.388 733.975 12.0625C732.959 11.7305 732.155 11.4049 731.562 11.0859C729.948 10.2135 729.141 9.03841 729.141 7.56055C729.141 6.79232 729.355 6.10872 729.785 5.50977C730.221 4.9043 730.843 4.43229 731.65 4.09375C732.464 3.75521 733.376 3.58594 734.385 3.58594C735.4 3.58594 736.305 3.77148 737.1 4.14258C737.894 4.50716 738.509 5.02474 738.945 5.69531C739.388 6.36589 739.609 7.1276 739.609 7.98047H736.68C736.68 7.32943 736.475 6.82487 736.064 6.4668C735.654 6.10221 735.078 5.91992 734.336 5.91992C733.62 5.91992 733.063 6.07292 732.666 6.37891C732.269 6.67839 732.07 7.07552 732.07 7.57031C732.07 8.03255 732.301 8.41992 732.764 8.73242C733.232 9.04492 733.919 9.33789 734.824 9.61133C736.491 10.1126 737.705 10.7344 738.467 11.4766C739.229 12.2188 739.609 13.1432 739.609 14.25C739.609 15.4805 739.144 16.4473 738.213 17.1504C737.282 17.847 736.029 18.1953 734.453 18.1953C733.359 18.1953 732.363 17.9967 731.465 17.5996C730.566 17.196 729.88 16.6458 729.404 15.9492C728.936 15.2526 728.701 14.4453 728.701 13.5273H731.641C731.641 15.0964 732.578 15.8809 734.453 15.8809C735.15 15.8809 735.693 15.7409 736.084 15.4609C736.475 15.1745 736.67 14.7773 736.67 14.2695ZM749.512 15.6465H755.732V18H746.582V3.78125H749.512V15.6465ZM765.645 15.0703H760.508L759.531 18H756.416L761.709 3.78125H764.424L769.746 18H766.631L765.645 15.0703ZM761.299 12.6973H764.854L763.066 7.375L761.299 12.6973ZM771.074 18V3.78125H776.055C777.78 3.78125 779.089 4.11328 779.98 4.77734C780.872 5.4349 781.318 6.40169 781.318 7.67773C781.318 8.37435 781.139 8.98958 780.781 9.52344C780.423 10.0508 779.925 10.4382 779.287 10.6855C780.016 10.8678 780.589 11.2357 781.006 11.7891C781.429 12.3424 781.641 13.0195 781.641 13.8203C781.641 15.1875 781.204 16.2227 780.332 16.9258C779.46 17.6289 778.216 17.987 776.602 18H771.074ZM774.004 11.8086V15.6465H776.514C777.204 15.6465 777.741 15.4837 778.125 15.1582C778.516 14.8262 778.711 14.3704 778.711 13.791C778.711 12.4889 778.037 11.8281 776.689 11.8086H774.004ZM774.004 9.73828H776.172C777.65 9.71224 778.389 9.12305 778.389 7.9707C778.389 7.32617 778.2 6.86393 777.822 6.58398C777.451 6.29753 776.862 6.1543 776.055 6.1543H774.004V9.73828ZM792.402 11.8379H786.777V15.6465H793.379V18H783.848V3.78125H793.359V6.1543H786.777V9.54297H792.402V11.8379ZM798.027 15.6465H804.248V18H795.098V3.78125H798.027V15.6465ZM813.311 14.2695C813.311 13.7161 813.115 13.293 812.725 13C812.334 12.7005 811.631 12.388 810.615 12.0625C809.6 11.7305 808.796 11.4049 808.203 11.0859C806.589 10.2135 805.781 9.03841 805.781 7.56055C805.781 6.79232 805.996 6.10872 806.426 5.50977C806.862 4.9043 807.484 4.43229 808.291 4.09375C809.105 3.75521 810.016 3.58594 811.025 3.58594C812.041 3.58594 812.946 3.77148 813.74 4.14258C814.535 4.50716 815.15 5.02474 815.586 5.69531C816.029 6.36589 816.25 7.1276 816.25 7.98047H813.32C813.32 7.32943 813.115 6.82487 812.705 6.4668C812.295 6.10221 811.719 5.91992 810.977 5.91992C810.26 5.91992 809.704 6.07292 809.307 6.37891C808.91 6.67839 808.711 7.07552 808.711 7.57031C808.711 8.03255 808.942 8.41992 809.404 8.73242C809.873 9.04492 810.56 9.33789 811.465 9.61133C813.132 10.1126 814.346 10.7344 815.107 11.4766C815.869 12.2188 816.25 13.1432 816.25 14.25C816.25 15.4805 815.785 16.4473 814.854 17.1504C813.923 17.847 812.669 18.1953 811.094 18.1953C810 18.1953 809.004 17.9967 808.105 17.5996C807.207 17.196 806.52 16.6458 806.045 15.9492C805.576 15.2526 805.342 14.4453 805.342 13.5273H808.281C808.281 15.0964 809.219 15.8809 811.094 15.8809C811.79 15.8809 812.334 15.7409 812.725 15.4609C813.115 15.1745 813.311 14.7773 813.311 14.2695Z" fill="black"/>
<line x1="316" y1="42.5" x2="535" y2="42.5" stroke="#D8D8D8"/>
<line x1="590" y1="42.5" x2="817" y2="42.5" stroke="#D8D8D8"/>
<path d="M83.1816 107.19H89.2461V108.57H81.4854V95.7734H83.1816V107.19ZM92.6826 108.57H91.0566V99.0605H92.6826V108.57ZM90.9248 96.5381C90.9248 96.2744 91.0039 96.0518 91.1621 95.8701C91.3262 95.6885 91.5664 95.5977 91.8828 95.5977C92.1992 95.5977 92.4395 95.6885 92.6035 95.8701C92.7676 96.0518 92.8496 96.2744 92.8496 96.5381C92.8496 96.8018 92.7676 97.0215 92.6035 97.1973C92.4395 97.373 92.1992 97.4609 91.8828 97.4609C91.5664 97.4609 91.3262 97.373 91.1621 97.1973C91.0039 97.0215 90.9248 96.8018 90.9248 96.5381ZM96.8311 99.0605L96.8838 100.256C97.6104 99.3418 98.5596 98.8848 99.7314 98.8848C101.741 98.8848 102.755 100.019 102.772 102.286V108.57H101.146V102.277C101.141 101.592 100.982 101.085 100.672 100.757C100.367 100.429 99.8896 100.265 99.2393 100.265C98.7119 100.265 98.249 100.405 97.8506 100.687C97.4521 100.968 97.1416 101.337 96.9189 101.794V108.57H95.293V99.0605H96.8311ZM107.879 104.167L106.859 105.23V108.57H105.233V95.0703H106.859V103.235L107.729 102.189L110.691 99.0605H112.669L108.969 103.033L113.1 108.57H111.192L107.879 104.167ZM114.673 109.669H113.275L118.619 95.7734H120.008L114.673 109.669ZM135.898 104.51C135.74 105.863 135.239 106.909 134.396 107.647C133.558 108.38 132.441 108.746 131.047 108.746C129.535 108.746 128.322 108.204 127.408 107.12C126.5 106.036 126.046 104.586 126.046 102.77V101.539C126.046 100.35 126.257 99.3037 126.679 98.4014C127.106 97.499 127.71 96.8076 128.489 96.3271C129.269 95.8408 130.171 95.5977 131.196 95.5977C132.556 95.5977 133.646 95.9785 134.466 96.7402C135.286 97.4961 135.764 98.5449 135.898 99.8867H134.202C134.056 98.8672 133.736 98.1289 133.244 97.6719C132.758 97.2148 132.075 96.9863 131.196 96.9863C130.118 96.9863 129.271 97.3848 128.656 98.1816C128.047 98.9785 127.742 100.112 127.742 101.583V102.822C127.742 104.211 128.032 105.315 128.612 106.136C129.192 106.956 130.004 107.366 131.047 107.366C131.984 107.366 132.702 107.155 133.2 106.733C133.704 106.306 134.038 105.564 134.202 104.51H135.898ZM146.788 97.1621H142.675V108.57H140.996V97.1621H136.892V95.7734H146.788V97.1621ZM155.05 105.23H149.688L148.484 108.57H146.744L151.631 95.7734H153.107L158.003 108.57H156.271L155.05 105.23ZM150.198 103.842H154.549L152.369 97.8564L150.198 103.842ZM172.681 97.1621H168.567V108.57H166.889V97.1621H162.784V95.7734H172.681V97.1621ZM177.392 108.746C176.103 108.746 175.054 108.324 174.245 107.48C173.437 106.631 173.032 105.497 173.032 104.079V103.78C173.032 102.837 173.211 101.996 173.568 101.258C173.932 100.514 174.436 99.9336 175.08 99.5176C175.73 99.0957 176.434 98.8848 177.189 98.8848C178.426 98.8848 179.387 99.292 180.072 100.106C180.758 100.921 181.101 102.087 181.101 103.604V104.281H174.658C174.682 105.219 174.954 105.978 175.476 106.558C176.003 107.132 176.671 107.419 177.479 107.419C178.054 107.419 178.54 107.302 178.938 107.067C179.337 106.833 179.686 106.522 179.984 106.136L180.978 106.909C180.181 108.134 178.985 108.746 177.392 108.746ZM177.189 100.221C176.533 100.221 175.982 100.461 175.537 100.941C175.092 101.416 174.816 102.084 174.711 102.945H179.475V102.822C179.428 101.996 179.205 101.357 178.807 100.906C178.408 100.449 177.869 100.221 177.189 100.221ZM186.181 102.532L188.29 99.0605H190.188L187.077 103.763L190.285 108.57H188.404L186.207 105.011L184.01 108.57H182.12L185.328 103.763L182.217 99.0605H184.098L186.181 102.532ZM194.126 96.7578V99.0605H195.901V100.317H194.126V106.215C194.126 106.596 194.205 106.883 194.363 107.076C194.521 107.264 194.791 107.357 195.172 107.357C195.359 107.357 195.617 107.322 195.945 107.252V108.57C195.518 108.688 195.102 108.746 194.697 108.746C193.971 108.746 193.423 108.526 193.054 108.087C192.685 107.647 192.5 107.023 192.5 106.215V100.317H190.769V99.0605H192.5V96.7578H194.126Z" fill="black"/>
<rect x="0.5" y="78.5" width="49" height="49" rx="24.5" fill="#3447D3" stroke="#EFEFEF"/>
<path d="M83.665 176.203L87.8486 186.645L92.0322 176.203H94.2207V189H92.5332V184.017L92.6914 178.638L88.4902 189H87.1982L83.0059 178.664L83.1729 184.017V189H81.4854V176.203H83.665ZM102.816 189C102.723 188.812 102.646 188.479 102.588 187.998C101.832 188.783 100.93 189.176 99.8809 189.176C98.9434 189.176 98.1729 188.912 97.5693 188.385C96.9717 187.852 96.6729 187.178 96.6729 186.363C96.6729 185.373 97.0479 184.605 97.7979 184.061C98.5537 183.51 99.6143 183.234 100.979 183.234H102.562V182.487C102.562 181.919 102.392 181.468 102.052 181.134C101.712 180.794 101.211 180.624 100.549 180.624C99.9688 180.624 99.4824 180.771 99.0898 181.063C98.6973 181.356 98.501 181.711 98.501 182.127H96.8662C96.8662 181.652 97.0332 181.195 97.3672 180.756C97.707 180.311 98.1641 179.959 98.7383 179.701C99.3184 179.443 99.9541 179.314 100.646 179.314C101.741 179.314 102.6 179.59 103.221 180.141C103.842 180.686 104.164 181.438 104.188 182.399V186.776C104.188 187.649 104.299 188.344 104.521 188.859V189H102.816ZM100.118 187.761C100.628 187.761 101.111 187.629 101.568 187.365C102.025 187.102 102.356 186.759 102.562 186.337V184.386H101.287C99.2949 184.386 98.2988 184.969 98.2988 186.135C98.2988 186.645 98.4688 187.043 98.8086 187.33C99.1484 187.617 99.585 187.761 100.118 187.761ZM108.503 189H106.877V179.49H108.503V189ZM106.745 176.968C106.745 176.704 106.824 176.481 106.982 176.3C107.146 176.118 107.387 176.027 107.703 176.027C108.02 176.027 108.26 176.118 108.424 176.3C108.588 176.481 108.67 176.704 108.67 176.968C108.67 177.231 108.588 177.451 108.424 177.627C108.26 177.803 108.02 177.891 107.703 177.891C107.387 177.891 107.146 177.803 106.982 177.627C106.824 177.451 106.745 177.231 106.745 176.968ZM112.651 179.49L112.704 180.686C113.431 179.771 114.38 179.314 115.552 179.314C117.562 179.314 118.575 180.448 118.593 182.716V189H116.967V182.707C116.961 182.021 116.803 181.515 116.492 181.187C116.188 180.858 115.71 180.694 115.06 180.694C114.532 180.694 114.069 180.835 113.671 181.116C113.272 181.397 112.962 181.767 112.739 182.224V189H111.113V179.49H112.651ZM127.461 187.62H133.525V189H125.765V176.203H127.461V187.62ZM141.066 189C140.973 188.812 140.896 188.479 140.838 187.998C140.082 188.783 139.18 189.176 138.131 189.176C137.193 189.176 136.423 188.912 135.819 188.385C135.222 187.852 134.923 187.178 134.923 186.363C134.923 185.373 135.298 184.605 136.048 184.061C136.804 183.51 137.864 183.234 139.229 183.234H140.812V182.487C140.812 181.919 140.642 181.468 140.302 181.134C139.962 180.794 139.461 180.624 138.799 180.624C138.219 180.624 137.732 180.771 137.34 181.063C136.947 181.356 136.751 181.711 136.751 182.127H135.116C135.116 181.652 135.283 181.195 135.617 180.756C135.957 180.311 136.414 179.959 136.988 179.701C137.568 179.443 138.204 179.314 138.896 179.314C139.991 179.314 140.85 179.59 141.471 180.141C142.092 180.686 142.414 181.438 142.438 182.399V186.776C142.438 187.649 142.549 188.344 142.771 188.859V189H141.066ZM138.368 187.761C138.878 187.761 139.361 187.629 139.818 187.365C140.275 187.102 140.606 186.759 140.812 186.337V184.386H139.537C137.545 184.386 136.549 184.969 136.549 186.135C136.549 186.645 136.719 187.043 137.059 187.33C137.398 187.617 137.835 187.761 138.368 187.761ZM153.037 184.351C153.037 185.804 152.703 186.973 152.035 187.857C151.367 188.736 150.471 189.176 149.346 189.176C148.145 189.176 147.216 188.751 146.56 187.901L146.48 189H144.986V175.5H146.612V180.536C147.269 179.722 148.174 179.314 149.328 179.314C150.482 179.314 151.388 179.751 152.044 180.624C152.706 181.497 153.037 182.692 153.037 184.21V184.351ZM151.411 184.166C151.411 183.059 151.197 182.203 150.77 181.6C150.342 180.996 149.727 180.694 148.924 180.694C147.852 180.694 147.081 181.192 146.612 182.188V186.302C147.11 187.298 147.887 187.796 148.941 187.796C149.721 187.796 150.327 187.494 150.761 186.891C151.194 186.287 151.411 185.379 151.411 184.166ZM159.04 189.176C157.751 189.176 156.702 188.754 155.894 187.91C155.085 187.061 154.681 185.927 154.681 184.509V184.21C154.681 183.267 154.859 182.426 155.217 181.688C155.58 180.943 156.084 180.363 156.729 179.947C157.379 179.525 158.082 179.314 158.838 179.314C160.074 179.314 161.035 179.722 161.721 180.536C162.406 181.351 162.749 182.517 162.749 184.034V184.711H156.307C156.33 185.648 156.603 186.407 157.124 186.987C157.651 187.562 158.319 187.849 159.128 187.849C159.702 187.849 160.188 187.731 160.587 187.497C160.985 187.263 161.334 186.952 161.633 186.565L162.626 187.339C161.829 188.563 160.634 189.176 159.04 189.176ZM158.838 180.65C158.182 180.65 157.631 180.891 157.186 181.371C156.74 181.846 156.465 182.514 156.359 183.375H161.123V183.252C161.076 182.426 160.854 181.787 160.455 181.336C160.057 180.879 159.518 180.65 158.838 180.65ZM166.405 189H164.779V175.5H166.405V189ZM169.341 190.099H167.943L173.287 176.203H174.676L169.341 190.099ZM189.644 177.592H185.53V189H183.852V177.592H179.747V176.203H189.644V177.592ZM194.354 189.176C193.065 189.176 192.017 188.754 191.208 187.91C190.399 187.061 189.995 185.927 189.995 184.509V184.21C189.995 183.267 190.174 182.426 190.531 181.688C190.895 180.943 191.398 180.363 192.043 179.947C192.693 179.525 193.396 179.314 194.152 179.314C195.389 179.314 196.35 179.722 197.035 180.536C197.721 181.351 198.063 182.517 198.063 184.034V184.711H191.621C191.645 185.648 191.917 186.407 192.438 186.987C192.966 187.562 193.634 187.849 194.442 187.849C195.017 187.849 195.503 187.731 195.901 187.497C196.3 187.263 196.648 186.952 196.947 186.565L197.94 187.339C197.144 188.563 195.948 189.176 194.354 189.176ZM194.152 180.65C193.496 180.65 192.945 180.891 192.5 181.371C192.055 181.846 191.779 182.514 191.674 183.375H196.438V183.252C196.391 182.426 196.168 181.787 195.77 181.336C195.371 180.879 194.832 180.65 194.152 180.65ZM203.144 182.962L205.253 179.49H207.151L204.04 184.192L207.248 189H205.367L203.17 185.44L200.973 189H199.083L202.291 184.192L199.18 179.49H201.061L203.144 182.962ZM211.089 177.188V179.49H212.864V180.747H211.089V186.645C211.089 187.025 211.168 187.312 211.326 187.506C211.484 187.693 211.754 187.787 212.135 187.787C212.322 187.787 212.58 187.752 212.908 187.682V189C212.48 189.117 212.064 189.176 211.66 189.176C210.934 189.176 210.386 188.956 210.017 188.517C209.647 188.077 209.463 187.453 209.463 186.645V180.747H207.731V179.49H209.463V177.188H211.089Z" fill="black"/>
<rect x="0.5" y="158.5" width="49" height="49" rx="24.5" fill="#2C2D53" stroke="#EFEFEF"/>
<path d="M81.4854 269V256.203H85.0977C86.2109 256.203 87.1953 256.449 88.0508 256.941C88.9062 257.434 89.5654 258.134 90.0283 259.042C90.4971 259.95 90.7344 260.993 90.7402 262.171V262.988C90.7402 264.195 90.5059 265.253 90.0371 266.161C89.5742 267.069 88.9092 267.767 88.042 268.253C87.1807 268.739 86.1758 268.988 85.0273 269H81.4854ZM83.1729 257.592V267.62H84.9482C86.249 267.62 87.2598 267.216 87.9805 266.407C88.707 265.599 89.0703 264.447 89.0703 262.953V262.206C89.0703 260.753 88.7275 259.625 88.042 258.822C87.3623 258.014 86.3955 257.604 85.1416 257.592H83.1729ZM94.8096 269H93.1836V259.49H94.8096V269ZM93.0518 256.968C93.0518 256.704 93.1309 256.481 93.2891 256.3C93.4531 256.118 93.6934 256.027 94.0098 256.027C94.3262 256.027 94.5664 256.118 94.7305 256.3C94.8945 256.481 94.9766 256.704 94.9766 256.968C94.9766 257.231 94.8945 257.451 94.7305 257.627C94.5664 257.803 94.3262 257.891 94.0098 257.891C93.6934 257.891 93.4531 257.803 93.2891 257.627C93.1309 257.451 93.0518 257.231 93.0518 256.968ZM102.957 266.478C102.957 266.038 102.79 265.698 102.456 265.458C102.128 265.212 101.551 265.001 100.725 264.825C99.9043 264.649 99.251 264.438 98.7646 264.192C98.2842 263.946 97.9268 263.653 97.6924 263.313C97.4639 262.974 97.3496 262.569 97.3496 262.101C97.3496 261.321 97.6777 260.662 98.334 260.123C98.9961 259.584 99.8398 259.314 100.865 259.314C101.943 259.314 102.816 259.593 103.484 260.149C104.158 260.706 104.495 261.418 104.495 262.285H102.86C102.86 261.84 102.67 261.456 102.289 261.134C101.914 260.812 101.439 260.65 100.865 260.65C100.273 260.65 99.8105 260.779 99.4766 261.037C99.1426 261.295 98.9756 261.632 98.9756 262.048C98.9756 262.44 99.1309 262.736 99.4414 262.936C99.752 263.135 100.312 263.325 101.12 263.507C101.935 263.688 102.594 263.905 103.098 264.157C103.602 264.409 103.974 264.714 104.214 265.071C104.46 265.423 104.583 265.854 104.583 266.363C104.583 267.213 104.243 267.896 103.563 268.411C102.884 268.921 102.002 269.176 100.918 269.176C100.156 269.176 99.4824 269.041 98.8965 268.771C98.3105 268.502 97.8506 268.127 97.5166 267.646C97.1885 267.16 97.0244 266.636 97.0244 266.073H98.6504C98.6797 266.618 98.8965 267.052 99.3008 267.374C99.7109 267.69 100.25 267.849 100.918 267.849C101.533 267.849 102.025 267.726 102.395 267.479C102.77 267.228 102.957 266.894 102.957 266.478ZM110.516 267.849C111.096 267.849 111.603 267.673 112.036 267.321C112.47 266.97 112.71 266.53 112.757 266.003H114.295C114.266 266.548 114.078 267.066 113.732 267.559C113.387 268.051 112.924 268.443 112.344 268.736C111.77 269.029 111.16 269.176 110.516 269.176C109.221 269.176 108.189 268.745 107.422 267.884C106.66 267.017 106.279 265.833 106.279 264.333V264.061C106.279 263.135 106.449 262.312 106.789 261.591C107.129 260.87 107.615 260.311 108.248 259.912C108.887 259.514 109.64 259.314 110.507 259.314C111.573 259.314 112.458 259.634 113.161 260.272C113.87 260.911 114.248 261.74 114.295 262.76H112.757C112.71 262.145 112.476 261.641 112.054 261.248C111.638 260.85 111.122 260.65 110.507 260.65C109.681 260.65 109.039 260.949 108.582 261.547C108.131 262.139 107.905 262.997 107.905 264.122V264.43C107.905 265.525 108.131 266.369 108.582 266.961C109.033 267.553 109.678 267.849 110.516 267.849ZM120.72 260.949C120.474 260.908 120.207 260.888 119.92 260.888C118.854 260.888 118.13 261.342 117.749 262.25V269H116.123V259.49H117.705L117.731 260.589C118.265 259.739 119.021 259.314 119.999 259.314C120.315 259.314 120.556 259.355 120.72 259.438V260.949ZM123.989 269H122.363V259.49H123.989V269ZM122.231 256.968C122.231 256.704 122.311 256.481 122.469 256.3C122.633 256.118 122.873 256.027 123.189 256.027C123.506 256.027 123.746 256.118 123.91 256.3C124.074 256.481 124.156 256.704 124.156 256.968C124.156 257.231 124.074 257.451 123.91 257.627C123.746 257.803 123.506 257.891 123.189 257.891C122.873 257.891 122.633 257.803 122.469 257.627C122.311 257.451 122.231 257.231 122.231 256.968ZM134.633 264.351C134.633 265.798 134.302 266.964 133.64 267.849C132.978 268.733 132.081 269.176 130.95 269.176C129.796 269.176 128.888 268.81 128.226 268.077V272.656H126.6V259.49H128.085L128.164 260.545C128.826 259.725 129.746 259.314 130.924 259.314C132.066 259.314 132.969 259.745 133.631 260.606C134.299 261.468 134.633 262.666 134.633 264.201V264.351ZM133.007 264.166C133.007 263.094 132.778 262.247 132.321 261.626C131.864 261.005 131.237 260.694 130.44 260.694C129.456 260.694 128.718 261.131 128.226 262.004V266.548C128.712 267.415 129.456 267.849 130.458 267.849C131.237 267.849 131.855 267.541 132.312 266.926C132.775 266.305 133.007 265.385 133.007 264.166ZM138.913 257.188V259.49H140.688V260.747H138.913V266.645C138.913 267.025 138.992 267.312 139.15 267.506C139.309 267.693 139.578 267.787 139.959 267.787C140.146 267.787 140.404 267.752 140.732 267.682V269C140.305 269.117 139.889 269.176 139.484 269.176C138.758 269.176 138.21 268.956 137.841 268.517C137.472 268.077 137.287 267.453 137.287 266.645V260.747H135.556V259.49H137.287V257.188H138.913ZM144.362 269H142.736V259.49H144.362V269ZM142.604 256.968C142.604 256.704 142.684 256.481 142.842 256.3C143.006 256.118 143.246 256.027 143.562 256.027C143.879 256.027 144.119 256.118 144.283 256.3C144.447 256.481 144.529 256.704 144.529 256.968C144.529 257.231 144.447 257.451 144.283 257.627C144.119 257.803 143.879 257.891 143.562 257.891C143.246 257.891 143.006 257.803 142.842 257.627C142.684 257.451 142.604 257.231 142.604 256.968ZM150.11 266.794L152.466 259.49H154.127L150.717 269H149.478L146.032 259.49H147.693L150.11 266.794ZM159.515 269.176C158.226 269.176 157.177 268.754 156.368 267.91C155.56 267.061 155.155 265.927 155.155 264.509V264.21C155.155 263.267 155.334 262.426 155.691 261.688C156.055 260.943 156.559 260.363 157.203 259.947C157.854 259.525 158.557 259.314 159.312 259.314C160.549 259.314 161.51 259.722 162.195 260.536C162.881 261.351 163.224 262.517 163.224 264.034V264.711H156.781C156.805 265.648 157.077 266.407 157.599 266.987C158.126 267.562 158.794 267.849 159.603 267.849C160.177 267.849 160.663 267.731 161.062 267.497C161.46 267.263 161.809 266.952 162.107 266.565L163.101 267.339C162.304 268.563 161.108 269.176 159.515 269.176ZM159.312 260.65C158.656 260.65 158.105 260.891 157.66 261.371C157.215 261.846 156.939 262.514 156.834 263.375H161.598V263.252C161.551 262.426 161.328 261.787 160.93 261.336C160.531 260.879 159.992 260.65 159.312 260.65ZM179.668 269H177.972L171.529 259.139V269H169.833V256.203H171.529L177.989 266.108V256.203H179.668V269ZM181.979 264.157C181.979 263.226 182.161 262.388 182.524 261.644C182.894 260.899 183.403 260.325 184.054 259.921C184.71 259.517 185.457 259.314 186.295 259.314C187.59 259.314 188.636 259.763 189.433 260.659C190.235 261.556 190.637 262.748 190.637 264.236V264.351C190.637 265.276 190.458 266.108 190.101 266.847C189.749 267.579 189.242 268.15 188.58 268.561C187.924 268.971 187.168 269.176 186.312 269.176C185.023 269.176 183.978 268.728 183.175 267.831C182.378 266.935 181.979 265.748 181.979 264.271V264.157ZM183.614 264.351C183.614 265.405 183.857 266.252 184.344 266.891C184.836 267.529 185.492 267.849 186.312 267.849C187.139 267.849 187.795 267.526 188.281 266.882C188.768 266.231 189.011 265.323 189.011 264.157C189.011 263.114 188.762 262.271 188.264 261.626C187.771 260.976 187.115 260.65 186.295 260.65C185.492 260.65 184.845 260.97 184.353 261.608C183.86 262.247 183.614 263.161 183.614 264.351ZM194.882 257.188V259.49H196.657V260.747H194.882V266.645C194.882 267.025 194.961 267.312 195.119 267.506C195.277 267.693 195.547 267.787 195.928 267.787C196.115 267.787 196.373 267.752 196.701 267.682V269C196.273 269.117 195.857 269.176 195.453 269.176C194.727 269.176 194.179 268.956 193.81 268.517C193.44 268.077 193.256 267.453 193.256 266.645V260.747H191.524V259.49H193.256V257.188H194.882ZM202.511 269.176C201.222 269.176 200.173 268.754 199.364 267.91C198.556 267.061 198.151 265.927 198.151 264.509V264.21C198.151 263.267 198.33 262.426 198.688 261.688C199.051 260.943 199.555 260.363 200.199 259.947C200.85 259.525 201.553 259.314 202.309 259.314C203.545 259.314 204.506 259.722 205.191 260.536C205.877 261.351 206.22 262.517 206.22 264.034V264.711H199.777C199.801 265.648 200.073 266.407 200.595 266.987C201.122 267.562 201.79 267.849 202.599 267.849C203.173 267.849 203.659 267.731 204.058 267.497C204.456 267.263 204.805 266.952 205.104 266.565L206.097 267.339C205.3 268.563 204.104 269.176 202.511 269.176ZM202.309 260.65C201.652 260.65 201.102 260.891 200.656 261.371C200.211 261.846 199.936 262.514 199.83 263.375H204.594V263.252C204.547 262.426 204.324 261.787 203.926 261.336C203.527 260.879 202.988 260.65 202.309 260.65ZM213.646 266.478C213.646 266.038 213.479 265.698 213.146 265.458C212.817 265.212 212.24 265.001 211.414 264.825C210.594 264.649 209.94 264.438 209.454 264.192C208.974 263.946 208.616 263.653 208.382 263.313C208.153 262.974 208.039 262.569 208.039 262.101C208.039 261.321 208.367 260.662 209.023 260.123C209.686 259.584 210.529 259.314 211.555 259.314C212.633 259.314 213.506 259.593 214.174 260.149C214.848 260.706 215.185 261.418 215.185 262.285H213.55C213.55 261.84 213.359 261.456 212.979 261.134C212.604 260.812 212.129 260.65 211.555 260.65C210.963 260.65 210.5 260.779 210.166 261.037C209.832 261.295 209.665 261.632 209.665 262.048C209.665 262.44 209.82 262.736 210.131 262.936C210.441 263.135 211.001 263.325 211.81 263.507C212.624 263.688 213.283 263.905 213.787 264.157C214.291 264.409 214.663 264.714 214.903 265.071C215.149 265.423 215.272 265.854 215.272 266.363C215.272 267.213 214.933 267.896 214.253 268.411C213.573 268.921 212.691 269.176 211.607 269.176C210.846 269.176 210.172 269.041 209.586 268.771C209 268.502 208.54 268.127 208.206 267.646C207.878 267.16 207.714 266.636 207.714 266.073H209.34C209.369 266.618 209.586 267.052 209.99 267.374C210.4 267.69 210.939 267.849 211.607 267.849C212.223 267.849 212.715 267.726 213.084 267.479C213.459 267.228 213.646 266.894 213.646 266.478Z" fill="black"/>
<rect x="0.5" y="238.5" width="49" height="49" rx="24.5" fill="#B9C5D9" stroke="#EFEFEF"/>
<path d="M387.936 305.76H384.066V306.864H387.936V305.76Z" fill="#9A9A9A"/>
<circle cx="318.5" cy="226.5" r="2.5" fill="#D30000"/>
<path d="M334.215 232.139C336.293 232.139 337.819 230.896 337.814 229.206C337.819 227.918 337.039 226.994 335.686 226.785V226.705C336.75 226.432 337.441 225.597 337.436 224.453C337.441 222.957 336.213 221.679 334.255 221.679C332.385 221.679 330.884 222.808 330.834 224.463H332.321C332.355 223.528 333.235 222.962 334.235 222.962C335.274 222.962 335.955 223.593 335.95 224.533C335.955 225.517 335.164 226.163 334.036 226.163H333.176V227.416H334.036C335.448 227.416 336.263 228.132 336.263 229.156C336.263 230.146 335.403 230.817 334.205 230.817C333.101 230.817 332.241 230.25 332.181 229.345H330.62C330.685 231.006 332.157 232.139 334.215 232.139ZM346.277 232.149C347.669 232.149 348.216 231.299 348.485 230.812H348.609V232H350.06V221.818H348.574V225.602H348.485C348.216 225.129 347.709 224.264 346.287 224.264C344.443 224.264 343.085 225.721 343.085 228.197C343.085 230.668 344.423 232.149 346.277 232.149ZM346.605 230.881C345.278 230.881 344.587 229.713 344.587 228.182C344.587 226.665 345.263 225.527 346.605 225.527C347.903 225.527 348.599 226.586 348.599 228.182C348.599 229.788 347.888 230.881 346.605 230.881ZM354.404 232.169C355.667 232.169 356.378 231.528 356.662 230.956H356.721V232H358.173V226.929C358.173 224.707 356.423 224.264 355.21 224.264C353.828 224.264 352.555 224.821 352.058 226.213L353.455 226.531C353.674 225.989 354.23 225.467 355.23 225.467C356.189 225.467 356.681 225.969 356.681 226.835V226.869C356.681 227.411 356.125 227.401 354.752 227.56C353.306 227.729 351.824 228.107 351.824 229.842C351.824 231.344 352.953 232.169 354.404 232.169ZM354.728 230.976C353.887 230.976 353.281 230.598 353.281 229.862C353.281 229.067 353.987 228.783 354.847 228.669C355.329 228.604 356.473 228.475 356.686 228.261V229.246C356.686 230.151 355.966 230.976 354.728 230.976ZM360.819 234.864C362.047 234.864 362.823 234.222 363.265 233.019L366.422 224.379L364.816 224.364L362.882 230.29H362.803L360.869 224.364H359.278L362.072 232.099L361.888 232.607C361.51 233.621 360.978 233.705 360.163 233.482L359.805 234.7C359.984 234.779 360.372 234.864 360.819 234.864ZM373.545 226.228C373.237 225.04 372.307 224.264 370.657 224.264C368.931 224.264 367.708 225.174 367.708 226.526C367.708 227.61 368.365 228.331 369.796 228.649L371.089 228.933C371.825 229.097 372.168 229.425 372.168 229.902C372.168 230.494 371.537 230.956 370.562 230.956C369.672 230.956 369.1 230.573 368.921 229.822L367.485 230.041C367.733 231.393 368.857 232.154 370.572 232.154C372.416 232.154 373.694 231.175 373.694 229.793C373.694 228.714 373.008 228.048 371.606 227.724L370.393 227.446C369.553 227.247 369.19 226.964 369.195 226.447C369.19 225.86 369.826 225.442 370.671 225.442C371.596 225.442 372.024 225.955 372.198 226.467L373.545 226.228ZM382.25 232.154C384.403 232.154 385.81 230.578 385.81 228.217C385.81 225.84 384.403 224.264 382.25 224.264C380.098 224.264 378.691 225.84 378.691 228.217C378.691 230.578 380.098 232.154 382.25 232.154ZM382.255 230.906C380.848 230.906 380.192 229.678 380.192 228.212C380.192 226.75 380.848 225.507 382.255 225.507C383.652 225.507 384.309 226.75 384.309 228.212C384.309 229.678 383.652 230.906 382.255 230.906ZM393.728 224.364H392.133L390.204 230.24H390.124L388.19 224.364H386.594L389.368 232H390.959L393.728 224.364ZM398.143 232.154C399.809 232.154 400.987 231.334 401.325 230.091L399.918 229.837C399.65 230.558 399.003 230.926 398.158 230.926C396.885 230.926 396.03 230.101 395.991 228.629H401.42V228.102C401.42 225.343 399.769 224.264 398.039 224.264C395.911 224.264 394.509 225.885 394.509 228.232C394.509 230.603 395.891 232.154 398.143 232.154ZM395.996 227.516C396.055 226.432 396.841 225.492 398.049 225.492C399.202 225.492 399.958 226.347 399.963 227.516H395.996ZM403.069 232H404.555V227.337C404.555 226.337 405.326 225.616 406.38 225.616C406.688 225.616 407.036 225.671 407.155 225.706V224.284C407.006 224.264 406.713 224.249 406.524 224.249C405.629 224.249 404.864 224.756 404.585 225.577H404.506V224.364H403.069V232ZM411.027 232.149C412.419 232.149 412.966 231.299 413.235 230.812H413.359V232H414.81V221.818H413.324V225.602H413.235C412.966 225.129 412.459 224.264 411.037 224.264C409.193 224.264 407.835 225.721 407.835 228.197C407.835 230.668 409.173 232.149 411.027 232.149ZM411.355 230.881C410.028 230.881 409.337 229.713 409.337 228.182C409.337 226.665 410.013 225.527 411.355 225.527C412.653 225.527 413.349 226.586 413.349 228.182C413.349 229.788 412.638 230.881 411.355 230.881ZM421.769 228.833C421.774 230.131 420.81 230.747 419.975 230.747C419.055 230.747 418.419 230.081 418.419 229.042V224.364H416.932V229.221C416.932 231.115 417.971 232.099 419.438 232.099C420.586 232.099 421.367 231.493 421.72 230.678H421.799V232H423.261V224.364H421.769V228.833ZM428.549 232.154C430.215 232.154 431.393 231.334 431.731 230.091L430.324 229.837C430.056 230.558 429.41 230.926 428.564 230.926C427.292 230.926 426.437 230.101 426.397 228.629H431.826V228.102C431.826 225.343 430.175 224.264 428.445 224.264C426.317 224.264 424.915 225.885 424.915 228.232C424.915 230.603 426.297 232.154 428.549 232.154ZM426.402 227.516C426.461 226.432 427.247 225.492 428.455 225.492C429.608 225.492 430.364 226.347 430.369 227.516H426.402Z" fill="#D30000"/>
<path d="M333.475 253C336.134 253 337.672 251.351 337.672 248.624C337.672 245.909 336.134 244.273 333.564 244.273H330.649V253H333.475ZM331.966 251.849V245.423H333.483C335.392 245.423 336.377 246.565 336.377 248.624C336.377 250.69 335.392 251.849 333.402 251.849H331.966ZM343.354 250.286C343.358 251.398 342.531 251.926 341.815 251.926C341.027 251.926 340.481 251.355 340.481 250.464V246.455H339.207V250.618C339.207 252.241 340.098 253.085 341.355 253.085C342.339 253.085 343.008 252.565 343.311 251.866H343.379V253H344.632V246.455H343.354V250.286ZM349.165 253.132C350.593 253.132 351.603 252.429 351.892 251.364L350.686 251.146C350.456 251.764 349.902 252.08 349.178 252.08C348.087 252.08 347.354 251.372 347.32 250.111H351.973V249.659C351.973 247.294 350.559 246.369 349.076 246.369C347.252 246.369 346.05 247.759 346.05 249.77C346.05 251.803 347.235 253.132 349.165 253.132ZM347.324 249.156C347.375 248.227 348.049 247.422 349.084 247.422C350.073 247.422 350.72 248.155 350.725 249.156H347.324ZM355.837 253.128C357.03 253.128 357.499 252.399 357.729 251.982H357.836V253H359.08V244.273H357.806V247.516H357.729C357.499 247.111 357.065 246.369 355.846 246.369C354.265 246.369 353.102 247.618 353.102 249.74C353.102 251.858 354.248 253.128 355.837 253.128ZM356.119 252.041C354.981 252.041 354.388 251.04 354.388 249.727C354.388 248.428 354.968 247.452 356.119 247.452C357.231 247.452 357.827 248.359 357.827 249.727C357.827 251.104 357.218 252.041 356.119 252.041ZM366.832 253.132C368.677 253.132 369.883 251.781 369.883 249.757C369.883 247.72 368.677 246.369 366.832 246.369C364.986 246.369 363.78 247.72 363.78 249.757C363.78 251.781 364.986 253.132 366.832 253.132ZM366.836 252.062C365.63 252.062 365.067 251.01 365.067 249.753C365.067 248.5 365.63 247.435 366.836 247.435C368.033 247.435 368.596 248.5 368.596 249.753C368.596 251.01 368.033 252.062 366.836 252.062ZM372.579 249.114C372.579 248.07 373.218 247.473 374.105 247.473C374.97 247.473 375.494 248.04 375.494 248.99V253H376.768V248.837C376.768 247.217 375.877 246.369 374.539 246.369C373.555 246.369 372.912 246.825 372.609 247.52H372.528V246.455H371.305V253H372.579V249.114ZM379.316 248.317C379.781 248.317 380.169 247.938 380.169 247.464C380.169 247 379.781 246.616 379.316 246.616C378.848 246.616 378.464 247 378.464 247.464C378.464 247.938 378.848 248.317 379.316 248.317ZM379.316 253.081C379.781 253.081 380.169 252.702 380.169 252.229C380.169 251.764 379.781 251.381 379.316 251.381C378.848 251.381 378.464 251.764 378.464 252.229C378.464 252.702 378.848 253.081 379.316 253.081ZM388.072 253.145C390.088 253.145 391.268 251.5 391.268 248.641C391.268 245.803 390.071 244.153 388.072 244.153C386.07 244.153 384.876 245.798 384.872 248.641C384.872 251.496 386.053 253.141 388.072 253.145ZM388.072 252.007C386.892 252.007 386.18 250.822 386.18 248.641C386.185 246.467 386.896 245.27 388.072 245.27C389.244 245.27 389.96 246.467 389.96 248.641C389.96 250.822 389.249 252.007 388.072 252.007ZM395.661 253.119C397.416 253.119 398.669 251.879 398.665 250.179C398.669 248.491 397.493 247.264 395.904 247.264C395.256 247.264 394.655 247.511 394.314 247.844H394.263L394.54 245.402H398.243V244.273H393.445L392.955 248.67L394.161 248.849C394.489 248.555 395.077 248.355 395.605 248.355C396.641 248.364 397.391 249.139 397.391 250.205C397.391 251.253 396.662 252.011 395.661 252.011C394.817 252.011 394.148 251.474 394.08 250.724H392.801C392.853 252.114 394.059 253.119 395.661 253.119ZM403.562 243.864H402.425L399.612 254.312H400.75L403.562 243.864ZM407.666 253.145C409.682 253.145 410.862 251.5 410.862 248.641C410.862 245.803 409.665 244.153 407.666 244.153C405.663 244.153 404.47 245.798 404.466 248.641C404.466 251.496 405.646 253.141 407.666 253.145ZM407.666 252.007C406.486 252.007 405.774 250.822 405.774 248.641C405.778 246.467 406.49 245.27 407.666 245.27C408.838 245.27 409.554 246.467 409.554 248.641C409.554 250.822 408.842 252.007 407.666 252.007ZM412.374 253H418.118V251.871H414.189V251.807L415.924 249.991C417.522 248.376 417.978 247.605 417.978 246.629C417.978 245.227 416.836 244.153 415.191 244.153C413.559 244.153 412.365 245.21 412.365 246.804H413.622C413.618 245.866 414.223 245.253 415.165 245.253C416.051 245.253 416.725 245.798 416.725 246.668C416.725 247.439 416.265 247.993 415.327 248.986L412.374 252.045V253ZM423.074 243.864H421.936L419.124 254.312H420.262L423.074 243.864ZM424.14 253H429.884V251.871H425.955V251.807L427.689 249.991C429.287 248.376 429.743 247.605 429.743 246.629C429.743 245.227 428.601 244.153 426.956 244.153C425.324 244.153 424.131 245.21 424.131 246.804H425.388C425.384 245.866 425.989 245.253 426.931 245.253C427.817 245.253 428.49 245.798 428.49 246.668C428.49 247.439 428.03 247.993 427.093 248.986L424.14 252.045V253ZM434.537 253.145C436.553 253.145 437.733 251.5 437.733 248.641C437.733 245.803 436.536 244.153 434.537 244.153C432.534 244.153 431.341 245.798 431.337 248.641C431.337 251.496 432.517 253.141 434.537 253.145ZM434.537 252.007C433.357 252.007 432.645 250.822 432.645 248.641C432.649 246.467 433.361 245.27 434.537 245.27C435.709 245.27 436.425 246.467 436.425 248.641C436.425 250.822 435.713 252.007 434.537 252.007ZM439.245 253H444.989V251.871H441.06V251.807L442.795 249.991C444.393 248.376 444.849 247.605 444.849 246.629C444.849 245.227 443.707 244.153 442.062 244.153C440.43 244.153 439.236 245.21 439.236 246.804H440.494C440.489 245.866 441.094 245.253 442.036 245.253C442.923 245.253 443.596 245.798 443.596 246.668C443.596 247.439 443.136 247.993 442.198 248.986L439.245 252.045V253ZM449.643 253.145C451.658 253.145 452.839 251.5 452.839 248.641C452.839 245.803 451.641 244.153 449.643 244.153C447.64 244.153 446.447 245.798 446.442 248.641C446.442 251.496 447.623 253.141 449.643 253.145ZM449.643 252.007C448.462 252.007 447.751 250.822 447.751 248.641C447.755 246.467 448.467 245.27 449.643 245.27C450.815 245.27 451.53 246.467 451.53 248.641C451.53 250.822 450.819 252.007 449.643 252.007Z" fill="#B9C5D9"/>
<circle cx="319.5" cy="157.5" r="2.5" fill="#FF9536"/>
<path d="M335.105 163C338.208 163 340.002 161.076 340.002 157.894C340.002 154.727 338.208 152.818 335.21 152.818H331.809V163H335.105ZM333.345 161.658V154.161H335.115C337.343 154.161 338.491 155.493 338.491 157.894C338.491 160.305 337.343 161.658 335.021 161.658H333.345ZM346.631 159.833C346.636 161.131 345.671 161.747 344.836 161.747C343.916 161.747 343.28 161.081 343.28 160.042V155.364H341.793V160.221C341.793 162.115 342.832 163.099 344.299 163.099C345.448 163.099 346.228 162.493 346.581 161.678H346.661V163H348.122V155.364H346.631V159.833ZM353.411 163.154C355.076 163.154 356.255 162.334 356.593 161.091L355.186 160.837C354.917 161.558 354.271 161.926 353.426 161.926C352.153 161.926 351.298 161.101 351.258 159.629H356.687V159.102C356.687 156.343 355.037 155.264 353.306 155.264C351.179 155.264 349.777 156.885 349.777 159.232C349.777 161.603 351.159 163.154 353.411 163.154ZM351.263 158.516C351.323 157.432 352.108 156.492 353.316 156.492C354.47 156.492 355.225 157.347 355.23 158.516H351.263ZM362.041 163H363.528V155.364H362.041V163ZM362.792 154.185C363.304 154.185 363.732 153.788 363.732 153.3C363.732 152.813 363.304 152.411 362.792 152.411C362.275 152.411 361.853 152.813 361.853 153.3C361.853 153.788 362.275 154.185 362.792 154.185ZM367.014 158.466C367.014 157.248 367.76 156.552 368.794 156.552C369.803 156.552 370.415 157.213 370.415 158.322V163H371.901V158.143C371.901 156.254 370.862 155.264 369.301 155.264C368.153 155.264 367.402 155.796 367.049 156.607H366.955V155.364H365.528V163H367.014V158.466ZM381.443 152.818H379.947L377.406 154.479V155.95L379.842 154.359H379.902V163H381.443V152.818ZM387.742 163.169C390.094 163.169 391.471 161.25 391.471 157.914C391.471 154.603 390.074 152.679 387.742 152.679C385.405 152.679 384.013 154.598 384.008 157.914C384.008 161.245 385.386 163.164 387.742 163.169ZM387.742 161.842C386.365 161.842 385.535 160.46 385.535 157.914C385.54 155.379 386.37 153.982 387.742 153.982C389.109 153.982 389.945 155.379 389.945 157.914C389.945 160.46 389.114 161.842 387.742 161.842ZM399.818 163.149C401.21 163.149 401.757 162.299 402.026 161.812H402.15V163H403.601V152.818H402.115V156.602H402.026C401.757 156.129 401.25 155.264 399.828 155.264C397.984 155.264 396.626 156.721 396.626 159.197C396.626 161.668 397.964 163.149 399.818 163.149ZM400.146 161.881C398.819 161.881 398.128 160.713 398.128 159.182C398.128 157.665 398.804 156.527 400.146 156.527C401.444 156.527 402.14 157.586 402.14 159.182C402.14 160.788 401.429 161.881 400.146 161.881ZM407.945 163.169C409.208 163.169 409.919 162.528 410.203 161.956H410.262V163H411.714V157.929C411.714 155.707 409.964 155.264 408.751 155.264C407.369 155.264 406.096 155.821 405.599 157.213L406.996 157.531C407.215 156.989 407.771 156.467 408.771 156.467C409.73 156.467 410.222 156.969 410.222 157.835V157.869C410.222 158.411 409.666 158.401 408.293 158.56C406.847 158.729 405.365 159.107 405.365 160.842C405.365 162.344 406.494 163.169 407.945 163.169ZM408.269 161.976C407.428 161.976 406.822 161.598 406.822 160.862C406.822 160.067 407.528 159.783 408.388 159.669C408.87 159.604 410.014 159.475 410.227 159.261V160.246C410.227 161.151 409.507 161.976 408.269 161.976ZM414.36 165.864C415.588 165.864 416.364 165.222 416.806 164.019L419.963 155.379L418.357 155.364L416.423 161.29H416.344L414.41 155.364H412.819L415.613 163.099L415.429 163.607C415.051 164.621 414.519 164.705 413.704 164.482L413.346 165.7C413.525 165.779 413.913 165.864 414.36 165.864ZM427.086 157.228C426.778 156.04 425.848 155.264 424.198 155.264C422.472 155.264 421.249 156.174 421.249 157.526C421.249 158.61 421.906 159.331 423.337 159.649L424.63 159.933C425.366 160.097 425.709 160.425 425.709 160.902C425.709 161.494 425.078 161.956 424.103 161.956C423.213 161.956 422.641 161.573 422.462 160.822L421.026 161.041C421.274 162.393 422.398 163.154 424.113 163.154C425.957 163.154 427.235 162.175 427.235 160.793C427.235 159.714 426.549 159.048 425.147 158.724L423.934 158.446C423.094 158.247 422.731 157.964 422.736 157.447C422.731 156.86 423.367 156.442 424.212 156.442C425.137 156.442 425.565 156.955 425.739 157.467L427.086 157.228Z" fill="#FF9536"/>
<path d="M334.475 184C337.134 184 338.672 182.351 338.672 179.624C338.672 176.909 337.134 175.273 334.564 175.273H331.649V184H334.475ZM332.966 182.849V176.423H334.483C336.392 176.423 337.377 177.565 337.377 179.624C337.377 181.69 336.392 182.849 334.402 182.849H332.966ZM344.354 181.286C344.358 182.398 343.531 182.926 342.815 182.926C342.027 182.926 341.481 182.355 341.481 181.464V177.455H340.207V181.618C340.207 183.241 341.098 184.085 342.355 184.085C343.339 184.085 344.008 183.565 344.311 182.866H344.379V184H345.632V177.455H344.354V181.286ZM350.165 184.132C351.593 184.132 352.603 183.429 352.892 182.364L351.686 182.146C351.456 182.764 350.902 183.08 350.178 183.08C349.087 183.08 348.354 182.372 348.32 181.111H352.973V180.659C352.973 178.294 351.559 177.369 350.076 177.369C348.252 177.369 347.05 178.759 347.05 180.77C347.05 182.803 348.235 184.132 350.165 184.132ZM348.324 180.156C348.375 179.227 349.049 178.422 350.084 178.422C351.073 178.422 351.72 179.155 351.725 180.156H348.324ZM360.32 184.132C362.165 184.132 363.371 182.781 363.371 180.757C363.371 178.72 362.165 177.369 360.32 177.369C358.475 177.369 357.269 178.72 357.269 180.757C357.269 182.781 358.475 184.132 360.32 184.132ZM360.324 183.062C359.118 183.062 358.556 182.01 358.556 180.753C358.556 179.5 359.118 178.435 360.324 178.435C361.522 178.435 362.084 179.5 362.084 180.753C362.084 182.01 361.522 183.062 360.324 183.062ZM366.067 180.114C366.067 179.07 366.707 178.473 367.593 178.473C368.458 178.473 368.982 179.04 368.982 179.99V184H370.256V179.837C370.256 178.217 369.366 177.369 368.028 177.369C367.043 177.369 366.4 177.825 366.097 178.52H366.016V177.455H364.793V184H366.067V180.114ZM372.805 179.317C373.269 179.317 373.657 178.938 373.657 178.464C373.657 178 373.269 177.616 372.805 177.616C372.336 177.616 371.952 178 371.952 178.464C371.952 178.938 372.336 179.317 372.805 179.317ZM372.805 184.081C373.269 184.081 373.657 183.702 373.657 183.229C373.657 182.764 373.269 182.381 372.805 182.381C372.336 182.381 371.952 182.764 371.952 183.229C371.952 183.702 372.336 184.081 372.805 184.081ZM381.561 184.145C383.576 184.145 384.757 182.5 384.757 179.641C384.757 176.803 383.559 175.153 381.561 175.153C379.558 175.153 378.365 176.798 378.36 179.641C378.36 182.496 379.541 184.141 381.561 184.145ZM381.561 183.007C380.38 183.007 379.669 181.822 379.669 179.641C379.673 177.467 380.385 176.27 381.561 176.27C382.733 176.27 383.448 177.467 383.448 179.641C383.448 181.822 382.737 183.007 381.561 183.007ZM389.149 184.119C390.905 184.119 392.158 182.879 392.153 181.179C392.158 179.491 390.981 178.264 389.392 178.264C388.744 178.264 388.143 178.511 387.802 178.844H387.751L388.028 176.402H391.731V175.273H386.933L386.443 179.67L387.649 179.849C387.977 179.555 388.565 179.355 389.094 179.355C390.129 179.364 390.879 180.139 390.879 181.205C390.879 182.253 390.151 183.011 389.149 183.011C388.305 183.011 387.636 182.474 387.568 181.724H386.29C386.341 183.114 387.547 184.119 389.149 184.119ZM397.051 174.864H395.913L393.1 185.312H394.238L397.051 174.864ZM401.427 175.273H400.144L397.967 176.696V177.957L400.055 176.594H400.106V184H401.427V175.273ZM406.669 184.119C408.424 184.119 409.677 182.879 409.673 181.179C409.677 179.491 408.501 178.264 406.912 178.264C406.264 178.264 405.663 178.511 405.322 178.844H405.271L405.548 176.402H409.251V175.273H404.453L403.963 179.67L405.169 179.849C405.497 179.555 406.085 179.355 406.613 179.355C407.649 179.364 408.399 180.139 408.399 181.205C408.399 182.253 407.67 183.011 406.669 183.011C405.825 183.011 405.156 182.474 405.088 181.724H403.809C403.86 183.114 405.066 184.119 406.669 184.119ZM414.57 174.864H413.432L410.62 185.312H411.758L414.57 174.864ZM415.636 184H421.38V182.871H417.451V182.807L419.185 180.991C420.783 179.376 421.239 178.605 421.239 177.629C421.239 176.227 420.097 175.153 418.452 175.153C416.82 175.153 415.627 176.21 415.627 177.804H416.884C416.88 176.866 417.485 176.253 418.427 176.253C419.313 176.253 419.986 176.798 419.986 177.668C419.986 178.439 419.526 178.993 418.589 179.986L415.636 183.045V184ZM426.033 184.145C428.049 184.145 429.229 182.5 429.229 179.641C429.229 176.803 428.032 175.153 426.033 175.153C424.03 175.153 422.837 176.798 422.833 179.641C422.833 182.496 424.013 184.141 426.033 184.145ZM426.033 183.007C424.853 183.007 424.141 181.822 424.141 179.641C424.146 177.467 424.857 176.27 426.033 176.27C427.205 176.27 427.921 177.467 427.921 179.641C427.921 181.822 427.209 183.007 426.033 183.007ZM430.741 184H436.485V182.871H432.556V182.807L434.291 180.991C435.889 179.376 436.345 178.605 436.345 177.629C436.345 176.227 435.203 175.153 433.558 175.153C431.926 175.153 430.733 176.21 430.733 177.804H431.99C431.985 176.866 432.59 176.253 433.532 176.253C434.419 176.253 435.092 176.798 435.092 177.668C435.092 178.439 434.632 178.993 433.694 179.986L430.741 183.045V184ZM441.139 184.145C443.154 184.145 444.335 182.5 444.335 179.641C444.335 176.803 443.137 175.153 441.139 175.153C439.136 175.153 437.943 176.798 437.938 179.641C437.938 182.496 439.119 184.141 441.139 184.145ZM441.139 183.007C439.958 183.007 439.247 181.822 439.247 179.641C439.251 177.467 439.963 176.27 441.139 176.27C442.311 176.27 443.027 177.467 443.027 179.641C443.027 181.822 442.315 183.007 441.139 183.007Z" fill="#B9C5D9"/>
<path d="M335.105 94C338.208 94 340.002 92.076 340.002 88.8942C340.002 85.7273 338.208 83.8182 335.21 83.8182H331.809V94H335.105ZM333.345 92.6577V85.1605H335.115C337.343 85.1605 338.491 86.4929 338.491 88.8942C338.491 91.3054 337.343 92.6577 335.021 92.6577H333.345ZM346.631 90.8331C346.636 92.1307 345.671 92.7472 344.836 92.7472C343.916 92.7472 343.28 92.081 343.28 91.0419V86.3636H341.793V91.2209C341.793 93.1151 342.833 94.0994 344.299 94.0994C345.448 94.0994 346.228 93.4929 346.581 92.6776H346.661V94H348.122V86.3636H346.631V90.8331ZM353.411 94.1541C355.076 94.1541 356.255 93.3338 356.593 92.0909L355.186 91.8374C354.917 92.5582 354.271 92.9261 353.426 92.9261C352.153 92.9261 351.298 92.1009 351.258 90.6293H356.687V90.1023C356.687 87.343 355.037 86.2642 353.306 86.2642C351.179 86.2642 349.777 87.8849 349.777 90.2315C349.777 92.603 351.159 94.1541 353.411 94.1541ZM351.263 89.5156C351.323 88.4318 352.108 87.4922 353.316 87.4922C354.47 87.4922 355.225 88.3473 355.23 89.5156H351.263ZM362.041 94H363.528V86.3636H362.041V94ZM362.792 85.1854C363.304 85.1854 363.732 84.7876 363.732 84.3004C363.732 83.8132 363.304 83.4105 362.792 83.4105C362.275 83.4105 361.853 83.8132 361.853 84.3004C361.853 84.7876 362.275 85.1854 362.792 85.1854ZM367.014 89.4659C367.014 88.2479 367.76 87.5518 368.794 87.5518C369.803 87.5518 370.415 88.2131 370.415 89.3217V94H371.901V89.1428C371.901 87.2536 370.862 86.2642 369.301 86.2642C368.153 86.2642 367.402 86.7962 367.049 87.6065H366.955V86.3636H365.528V94H367.014V89.4659ZM377.58 94H384.282V92.6825H379.698V92.608L381.722 90.4901C383.586 88.6058 384.118 87.706 384.118 86.5675C384.118 84.9318 382.785 83.679 380.866 83.679C378.962 83.679 377.57 84.9119 377.57 86.7713H379.037C379.032 85.6776 379.738 84.9616 380.837 84.9616C381.871 84.9616 382.656 85.598 382.656 86.6122C382.656 87.5121 382.119 88.1584 381.026 89.3168L377.58 92.8864V94ZM389.721 94.1392C391.849 94.1591 393.261 92.6278 393.256 90.674C393.261 88.7251 391.844 87.3281 390.079 87.3281C389.005 87.3281 388.075 87.8452 387.553 88.7053H387.479C387.484 86.3935 388.359 85.0213 389.85 85.0213C390.829 85.0213 391.446 85.6179 391.655 86.4631H393.171C392.937 84.8523 391.67 83.679 389.85 83.679C387.484 83.679 386.007 85.7124 386.007 89.2521C386.002 93.0007 387.911 94.1243 389.721 94.1392ZM389.716 92.8466C388.533 92.8466 387.668 91.8523 387.668 90.7088C387.673 89.5703 388.577 88.576 389.751 88.576C390.914 88.576 391.769 89.5156 391.764 90.6939C391.769 91.897 390.879 92.8466 389.716 92.8466ZM401.65 94.1491C403.042 94.1491 403.589 93.299 403.858 92.8118H403.982V94H405.434V83.8182H403.947V87.6016H403.858C403.589 87.1293 403.082 86.2642 401.66 86.2642C399.816 86.2642 398.458 87.7209 398.458 90.1967C398.458 92.6676 399.796 94.1491 401.65 94.1491ZM401.978 92.8814C400.651 92.8814 399.96 91.7131 399.96 90.1818C399.96 88.6655 400.636 87.527 401.978 87.527C403.276 87.527 403.972 88.5859 403.972 90.1818C403.972 91.7876 403.261 92.8814 401.978 92.8814ZM409.777 94.169C411.04 94.169 411.751 93.5277 412.035 92.956H412.094V94H413.546V88.929C413.546 86.7067 411.796 86.2642 410.583 86.2642C409.201 86.2642 407.928 86.821 407.431 88.2131L408.828 88.5312C409.047 87.9893 409.603 87.4673 410.603 87.4673C411.562 87.4673 412.054 87.9695 412.054 88.8345V88.8693C412.054 89.4112 411.498 89.4013 410.125 89.5604C408.679 89.7294 407.197 90.1072 407.197 91.8423C407.197 93.3438 408.326 94.169 409.777 94.169ZM410.101 92.9759C409.26 92.9759 408.654 92.598 408.654 91.8622C408.654 91.0668 409.36 90.7834 410.22 90.669C410.702 90.6044 411.846 90.4751 412.059 90.2614V91.2457C412.059 92.1506 411.339 92.9759 410.101 92.9759ZM416.192 96.8636C417.42 96.8636 418.196 96.2223 418.638 95.0192L421.795 86.3786L420.189 86.3636L418.255 92.2898H418.176L416.242 86.3636H414.651L417.445 94.0994L417.261 94.6065C416.883 95.6207 416.351 95.7053 415.536 95.4815L415.178 96.6996C415.357 96.7791 415.745 96.8636 416.192 96.8636ZM428.918 88.228C428.61 87.0398 427.68 86.2642 426.03 86.2642C424.304 86.2642 423.081 87.174 423.081 88.5263C423.081 89.6101 423.738 90.331 425.17 90.6491L426.462 90.9325C427.198 91.0966 427.541 91.4247 427.541 91.902C427.541 92.4936 426.91 92.956 425.935 92.956C425.045 92.956 424.473 92.5732 424.295 91.8224L422.858 92.0412C423.106 93.3935 424.23 94.1541 425.945 94.1541C427.79 94.1541 429.067 93.1747 429.067 91.7926C429.067 90.7138 428.381 90.0476 426.979 89.7244L425.766 89.446C424.926 89.2472 424.563 88.9638 424.568 88.4467C424.563 87.8601 425.199 87.4425 426.045 87.4425C426.969 87.4425 427.397 87.9545 427.571 88.4666L428.918 88.228Z" fill="#2C2D53"/>
<path d="M334.475 115C337.134 115 338.672 113.351 338.672 110.624C338.672 107.909 337.134 106.273 334.564 106.273H331.649V115H334.475ZM332.966 113.849V107.423H334.483C336.392 107.423 337.377 108.565 337.377 110.624C337.377 112.69 336.392 113.849 334.402 113.849H332.966ZM344.354 112.286C344.358 113.398 343.531 113.926 342.815 113.926C342.027 113.926 341.481 113.355 341.481 112.464V108.455H340.207V112.618C340.207 114.241 341.098 115.085 342.355 115.085C343.339 115.085 344.008 114.565 344.311 113.866H344.379V115H345.632V108.455H344.354V112.286ZM350.165 115.132C351.593 115.132 352.603 114.429 352.892 113.364L351.686 113.146C351.456 113.764 350.902 114.08 350.178 114.08C349.087 114.08 348.354 113.372 348.32 112.111H352.973V111.659C352.973 109.294 351.559 108.369 350.076 108.369C348.252 108.369 347.05 109.759 347.05 111.77C347.05 113.803 348.235 115.132 350.165 115.132ZM348.324 111.156C348.375 110.227 349.049 109.422 350.084 109.422C351.073 109.422 351.72 110.155 351.725 111.156H348.324ZM360.32 115.132C362.165 115.132 363.371 113.781 363.371 111.757C363.371 109.72 362.165 108.369 360.32 108.369C358.475 108.369 357.269 109.72 357.269 111.757C357.269 113.781 358.475 115.132 360.32 115.132ZM360.324 114.062C359.118 114.062 358.556 113.01 358.556 111.753C358.556 110.5 359.118 109.435 360.324 109.435C361.522 109.435 362.084 110.5 362.084 111.753C362.084 113.01 361.522 114.062 360.324 114.062ZM366.067 111.114C366.067 110.07 366.707 109.473 367.593 109.473C368.458 109.473 368.982 110.04 368.982 110.99V115H370.256V110.837C370.256 109.217 369.366 108.369 368.028 108.369C367.043 108.369 366.4 108.825 366.097 109.52H366.016V108.455H364.793V115H366.067V111.114ZM372.805 110.317C373.269 110.317 373.657 109.938 373.657 109.464C373.657 109 373.269 108.616 372.805 108.616C372.336 108.616 371.952 109 371.952 109.464C371.952 109.938 372.336 110.317 372.805 110.317ZM372.805 115.081C373.269 115.081 373.657 114.702 373.657 114.229C373.657 113.764 373.269 113.381 372.805 113.381C372.336 113.381 371.952 113.764 371.952 114.229C371.952 114.702 372.336 115.081 372.805 115.081ZM381.561 115.145C383.576 115.145 384.757 113.5 384.757 110.641C384.757 107.803 383.559 106.153 381.561 106.153C379.558 106.153 378.365 107.798 378.36 110.641C378.36 113.496 379.541 115.141 381.561 115.145ZM381.561 114.007C380.38 114.007 379.669 112.822 379.669 110.641C379.673 108.467 380.385 107.27 381.561 107.27C382.733 107.27 383.448 108.467 383.448 110.641C383.448 112.822 382.737 114.007 381.561 114.007ZM389.149 115.119C390.905 115.119 392.158 113.879 392.153 112.179C392.158 110.491 390.981 109.264 389.392 109.264C388.744 109.264 388.143 109.511 387.803 109.844H387.751L388.028 107.402H391.731V106.273H386.933L386.443 110.67L387.649 110.849C387.977 110.555 388.565 110.355 389.094 110.355C390.129 110.364 390.879 111.139 390.879 112.205C390.879 113.253 390.151 114.011 389.149 114.011C388.305 114.011 387.636 113.474 387.568 112.724H386.29C386.341 114.114 387.547 115.119 389.149 115.119ZM397.051 105.864H395.913L393.1 116.312H394.238L397.051 105.864ZM401.154 115.119C402.936 115.119 404.244 114.054 404.24 112.605C404.244 111.501 403.575 110.709 402.416 110.53V110.462C403.328 110.227 403.92 109.511 403.916 108.531C403.92 107.249 402.867 106.153 401.189 106.153C399.586 106.153 398.299 107.121 398.257 108.54H399.531C399.561 107.739 400.315 107.253 401.171 107.253C402.062 107.253 402.646 107.794 402.642 108.599C402.646 109.443 401.968 109.997 401.001 109.997H400.264V111.071H401.001C402.211 111.071 402.91 111.685 402.91 112.562C402.91 113.411 402.173 113.986 401.146 113.986C400.2 113.986 399.463 113.5 399.412 112.724H398.073C398.129 114.148 399.39 115.119 401.154 115.119ZM409.162 106.273H407.879L405.701 107.696V108.957L407.789 107.594H407.841V115H409.162V106.273ZM414.863 105.864H413.725L410.913 116.312H412.051L414.863 105.864ZM415.929 115H421.673V113.871H417.744V113.807L419.478 111.991C421.076 110.376 421.532 109.605 421.532 108.629C421.532 107.227 420.39 106.153 418.745 106.153C417.113 106.153 415.92 107.21 415.92 108.804H417.177C417.173 107.866 417.778 107.253 418.72 107.253C419.606 107.253 420.279 107.798 420.279 108.668C420.279 109.439 419.819 109.993 418.882 110.986L415.929 114.045V115ZM426.326 115.145C428.342 115.145 429.522 113.5 429.522 110.641C429.522 107.803 428.325 106.153 426.326 106.153C424.323 106.153 423.13 107.798 423.126 110.641C423.126 113.496 424.306 115.141 426.326 115.145ZM426.326 114.007C425.146 114.007 424.434 112.822 424.434 110.641C424.439 108.467 425.15 107.27 426.326 107.27C427.498 107.27 428.214 108.467 428.214 110.641C428.214 112.822 427.502 114.007 426.326 114.007ZM431.034 115H436.778V113.871H432.849V113.807L434.584 111.991C436.182 110.376 436.638 109.605 436.638 108.629C436.638 107.227 435.496 106.153 433.851 106.153C432.219 106.153 431.026 107.21 431.026 108.804H432.283C432.278 107.866 432.883 107.253 433.825 107.253C434.712 107.253 435.385 107.798 435.385 108.668C435.385 109.439 434.925 109.993 433.987 110.986L431.034 114.045V115ZM441.432 115.145C443.447 115.145 444.628 113.5 444.628 110.641C444.628 107.803 443.43 106.153 441.432 106.153C439.429 106.153 438.236 107.798 438.231 110.641C438.231 113.496 439.412 115.141 441.432 115.145ZM441.432 114.007C440.251 114.007 439.54 112.822 439.54 110.641C439.544 108.467 440.256 107.27 441.432 107.27C442.604 107.27 443.32 108.467 443.32 110.641C443.32 112.822 442.608 114.007 441.432 114.007Z" fill="#B9C5D9"/>
<rect x="590" y="144" width="44" height="19" rx="9.5" fill="#6DC9FD" fill-opacity="0.31"/>
<path d="M611.594 158L612.395 155.69H615.804L616.601 158H617.999L614.858 149.273H613.337L610.196 158H611.594ZM612.779 154.582L614.066 150.858H614.134L615.421 154.582H612.779ZM626.098 152.111C625.799 150.244 624.338 149.153 622.493 149.153C620.234 149.153 618.568 150.845 618.568 153.636C618.568 156.428 620.226 158.119 622.493 158.119C624.41 158.119 625.812 156.918 626.098 155.192L624.768 155.188C624.542 156.304 623.605 156.918 622.501 156.918C621.005 156.918 619.876 155.771 619.876 153.636C619.876 151.518 621.001 150.355 622.505 150.355C623.618 150.355 624.551 150.982 624.768 152.111H626.098Z" fill="#00A3FF"/>
<circle cx="601" cy="154" r="3" fill="#00A3FF"/>
<path d="M591.696 180L592.497 177.69H595.906L596.703 180H598.101L594.96 171.273H593.439L590.298 180H591.696ZM592.881 176.582L594.168 172.858H594.236L595.523 176.582H592.881ZM599.858 180H601.153L602.483 175.274H602.581L603.91 180H605.21L607.132 173.455H605.815L604.541 178.24H604.477L603.199 173.455H601.882L600.595 178.261H600.531L599.248 173.455H597.931L599.858 180ZM610.246 180.145C611.328 180.145 611.938 179.595 612.18 179.105H612.232V180H613.476V175.653C613.476 173.749 611.976 173.369 610.936 173.369C609.751 173.369 608.661 173.847 608.234 175.04L609.432 175.312C609.619 174.848 610.097 174.401 610.953 174.401C611.776 174.401 612.197 174.831 612.197 175.572V175.602C612.197 176.067 611.72 176.058 610.544 176.195C609.304 176.339 608.034 176.663 608.034 178.151C608.034 179.438 609.001 180.145 610.246 180.145ZM610.523 179.122C609.803 179.122 609.283 178.798 609.283 178.168C609.283 177.486 609.888 177.243 610.625 177.145C611.038 177.089 612.018 176.979 612.202 176.795V177.639C612.202 178.415 611.584 179.122 610.523 179.122ZM615.173 180H616.447V173.455H615.173V180ZM615.816 172.445C616.255 172.445 616.622 172.104 616.622 171.686C616.622 171.268 616.255 170.923 615.816 170.923C615.373 170.923 615.011 171.268 615.011 171.686C615.011 172.104 615.373 172.445 615.816 172.445ZM621.217 173.455H619.874V171.886H618.6V173.455H617.641V174.477H618.6V178.342C618.596 179.531 619.504 180.107 620.509 180.085C620.914 180.081 621.187 180.004 621.336 179.949L621.106 178.896C621.021 178.913 620.863 178.952 620.658 178.952C620.245 178.952 619.874 178.815 619.874 178.078V174.477H621.217V173.455ZM622.626 180H623.9V173.455H622.626V180ZM623.27 172.445C623.708 172.445 624.075 172.104 624.075 171.686C624.075 171.268 623.708 170.923 623.27 170.923C622.826 170.923 622.464 171.268 622.464 171.686C622.464 172.104 622.826 172.445 623.27 172.445ZM626.888 176.114C626.888 175.07 627.528 174.473 628.414 174.473C629.279 174.473 629.803 175.04 629.803 175.99V180H631.077V175.837C631.077 174.217 630.187 173.369 628.849 173.369C627.864 173.369 627.221 173.825 626.918 174.52H626.837V173.455H625.614V180H626.888V176.114ZM635.531 182.591C637.197 182.591 638.484 181.828 638.484 180.145V173.455H637.235V174.516H637.141C636.915 174.111 636.464 173.369 635.245 173.369C633.664 173.369 632.501 174.618 632.501 176.702C632.501 178.79 633.69 179.902 635.237 179.902C636.438 179.902 636.903 179.224 637.133 178.807H637.214V180.094C637.214 181.121 636.511 181.564 635.543 181.564C634.482 181.564 634.069 181.031 633.843 180.656L632.748 181.108C633.093 181.909 633.967 182.591 635.531 182.591ZM635.518 178.845C634.38 178.845 633.788 177.972 633.788 176.685C633.788 175.428 634.367 174.452 635.518 174.452C636.63 174.452 637.227 175.359 637.227 176.685C637.227 178.036 636.617 178.845 635.518 178.845ZM646.125 180.132C647.672 180.132 648.674 179.203 648.814 177.929H647.574C647.412 178.636 646.863 179.054 646.134 179.054C645.056 179.054 644.361 178.155 644.361 176.727C644.361 175.325 645.069 174.443 646.134 174.443C646.944 174.443 647.438 174.955 647.574 175.568H648.814C648.678 174.247 647.6 173.369 646.113 173.369C644.267 173.369 643.074 174.759 643.074 176.757C643.074 178.73 644.225 180.132 646.125 180.132ZM652.934 180.132C654.779 180.132 655.985 178.781 655.985 176.757C655.985 174.72 654.779 173.369 652.934 173.369C651.089 173.369 649.883 174.72 649.883 176.757C649.883 178.781 651.089 180.132 652.934 180.132ZM652.938 179.062C651.732 179.062 651.17 178.01 651.17 176.753C651.17 175.5 651.732 174.435 652.938 174.435C654.136 174.435 654.698 175.5 654.698 176.753C654.698 178.01 654.136 179.062 652.938 179.062ZM658.681 176.114C658.681 175.07 659.321 174.473 660.207 174.473C661.072 174.473 661.596 175.04 661.596 175.99V180H662.87V175.837C662.87 174.217 661.98 173.369 660.642 173.369C659.657 173.369 659.014 173.825 658.711 174.52H658.63V173.455H657.407V180H658.681V176.114ZM669.484 175.053C669.22 174.034 668.423 173.369 667.008 173.369C665.529 173.369 664.481 174.149 664.481 175.308C664.481 176.237 665.044 176.855 666.271 177.128L667.379 177.371C668.01 177.511 668.304 177.793 668.304 178.202C668.304 178.709 667.762 179.105 666.927 179.105C666.164 179.105 665.674 178.777 665.521 178.134L664.289 178.321C664.502 179.48 665.466 180.132 666.936 180.132C668.517 180.132 669.612 179.293 669.612 178.108C669.612 177.183 669.024 176.612 667.822 176.335L666.782 176.097C666.062 175.926 665.751 175.683 665.755 175.24C665.751 174.737 666.297 174.379 667.021 174.379C667.814 174.379 668.18 174.818 668.329 175.257L669.484 175.053ZM675.159 177.286C675.163 178.398 674.337 178.926 673.621 178.926C672.832 178.926 672.287 178.355 672.287 177.464V173.455H671.013V177.618C671.013 179.241 671.903 180.085 673.161 180.085C674.145 180.085 674.814 179.565 675.116 178.866H675.185V180H676.438V173.455H675.159V177.286ZM679.424 171.273H678.15V180H679.424V171.273ZM684.193 173.455H682.851V171.886H681.577V173.455H680.618V174.477H681.577V178.342C681.572 179.531 682.48 180.107 683.486 180.085C683.891 180.081 684.163 180.004 684.312 179.949L684.082 178.896C683.997 178.913 683.839 178.952 683.635 178.952C683.222 178.952 682.851 178.815 682.851 178.078V174.477H684.193V173.455ZM687.507 180.145C688.59 180.145 689.199 179.595 689.442 179.105H689.493V180H690.738V175.653C690.738 173.749 689.238 173.369 688.198 173.369C687.013 173.369 685.922 173.847 685.496 175.04L686.694 175.312C686.881 174.848 687.358 174.401 688.215 174.401C689.037 174.401 689.459 174.831 689.459 175.572V175.602C689.459 176.067 688.982 176.058 687.806 176.195C686.566 176.339 685.296 176.663 685.296 178.151C685.296 179.438 686.263 180.145 687.507 180.145ZM687.784 179.122C687.064 179.122 686.544 178.798 686.544 178.168C686.544 177.486 687.15 177.243 687.887 177.145C688.3 177.089 689.28 176.979 689.463 176.795V177.639C689.463 178.415 688.846 179.122 687.784 179.122ZM693.709 176.114C693.709 175.07 694.348 174.473 695.234 174.473C696.099 174.473 696.624 175.04 696.624 175.99V180H697.898V175.837C697.898 174.217 697.007 173.369 695.669 173.369C694.685 173.369 694.041 173.825 693.739 174.52H693.658V173.455H692.435V180H693.709V176.114ZM702.662 173.455H701.32V171.886H700.045V173.455H699.087V174.477H700.045V178.342C700.041 179.531 700.949 180.107 701.955 180.085C702.359 180.081 702.632 180.004 702.781 179.949L702.551 178.896C702.466 178.913 702.308 178.952 702.104 178.952C701.69 178.952 701.32 178.815 701.32 178.078V174.477H702.662V173.455ZM707.247 180H708.521V176.003C708.521 175.146 709.182 174.528 710.085 174.528C710.349 174.528 710.648 174.575 710.75 174.605V173.386C710.622 173.369 710.371 173.357 710.209 173.357C709.442 173.357 708.786 173.791 708.547 174.494H708.479V173.455H707.247V180ZM714.439 180.132C715.867 180.132 716.877 179.429 717.167 178.364L715.961 178.146C715.73 178.764 715.176 179.08 714.452 179.08C713.361 179.08 712.628 178.372 712.594 177.111H717.248V176.659C717.248 174.294 715.833 173.369 714.35 173.369C712.526 173.369 711.324 174.759 711.324 176.77C711.324 178.803 712.509 180.132 714.439 180.132ZM712.598 176.156C712.65 175.227 713.323 174.422 714.358 174.422C715.347 174.422 715.995 175.155 715.999 176.156H712.598ZM724.061 173.455H722.694L721.04 178.491H720.972L719.314 173.455H717.946L720.324 180H721.688L724.061 173.455ZM725.259 180H726.533V173.455H725.259V180ZM725.902 172.445C726.341 172.445 726.708 172.104 726.708 171.686C726.708 171.268 726.341 170.923 725.902 170.923C725.459 170.923 725.097 171.268 725.097 171.686C725.097 172.104 725.459 172.445 725.902 172.445ZM731.068 180.132C732.496 180.132 733.506 179.429 733.795 178.364L732.589 178.146C732.359 178.764 731.805 179.08 731.081 179.08C729.99 179.08 729.257 178.372 729.223 177.111H733.876V176.659C733.876 174.294 732.462 173.369 730.979 173.369C729.155 173.369 727.953 174.759 727.953 176.77C727.953 178.803 729.138 180.132 731.068 180.132ZM729.227 176.156C729.278 175.227 729.952 174.422 730.987 174.422C731.976 174.422 732.624 175.155 732.628 176.156H729.227ZM736.697 180H737.993L739.322 175.274H739.42L740.75 180H742.05L743.972 173.455H742.655L741.381 178.24H741.317L740.038 173.455H738.722L737.435 178.261H737.371L736.088 173.455H734.771L736.697 180Z" fill="#B9C5D9"/>
<rect x="590" y="78" width="44" height="19" rx="9.5" fill="#7BFE88" fill-opacity="0.44"/>
<path d="M616.469 83.2727V88.9062C616.469 90.0909 615.651 90.9432 614.321 90.9432C612.996 90.9432 612.174 90.0909 612.174 88.9062V83.2727H610.857V89.0128C610.857 90.8452 612.229 92.1449 614.321 92.1449C616.414 92.1449 617.79 90.8452 617.79 89.0128V83.2727H616.469ZM619.705 92H621.021V88.6974H622.811C622.841 88.6974 622.867 88.6974 622.896 88.6974L624.669 92H626.169L624.234 88.4673C625.304 88.071 625.837 87.1804 625.837 86.0085C625.837 84.402 624.84 83.2727 622.815 83.2727H619.705V92ZM621.021 87.5639V84.402H622.675C623.975 84.402 624.511 85.0199 624.511 86.0085C624.511 86.9929 623.975 87.5639 622.692 87.5639H621.021Z" fill="#27A927"/>
<circle cx="601" cy="88" r="3" fill="#27A927"/>
<path d="M596.571 105.273V110.906C596.571 112.091 595.753 112.943 594.423 112.943C593.098 112.943 592.276 112.091 592.276 110.906V105.273H590.959V111.013C590.959 112.845 592.331 114.145 594.423 114.145C596.516 114.145 597.892 112.845 597.892 111.013V105.273H596.571ZM600.978 110.114C600.978 109.07 601.618 108.473 602.504 108.473C603.369 108.473 603.893 109.04 603.893 109.99V114H605.167V109.837C605.167 108.217 604.277 107.369 602.939 107.369C601.954 107.369 601.311 107.825 601.008 108.52H600.927V107.455H599.704V114H600.978V110.114ZM609.326 114.128C610.52 114.128 610.988 113.399 611.218 112.982H611.325V114H612.569V105.273H611.295V108.516H611.218C610.988 108.111 610.554 107.369 609.335 107.369C607.754 107.369 606.591 108.618 606.591 110.74C606.591 112.858 607.737 114.128 609.326 114.128ZM609.608 113.041C608.47 113.041 607.877 112.04 607.877 110.727C607.877 109.428 608.457 108.452 609.608 108.452C610.72 108.452 611.316 109.359 611.316 110.727C611.316 112.104 610.707 113.041 609.608 113.041ZM617.209 114.132C618.636 114.132 619.646 113.429 619.936 112.364L618.73 112.146C618.5 112.764 617.946 113.08 617.222 113.08C616.131 113.08 615.398 112.372 615.364 111.111H620.017V110.659C620.017 108.294 618.602 107.369 617.119 107.369C615.295 107.369 614.094 108.759 614.094 110.77C614.094 112.803 615.278 114.132 617.209 114.132ZM615.368 110.156C615.419 109.227 616.092 108.422 617.128 108.422C618.116 108.422 618.764 109.155 618.768 110.156H615.368ZM621.431 114H622.705V110.003C622.705 109.146 623.365 108.528 624.269 108.528C624.533 108.528 624.831 108.575 624.934 108.605V107.386C624.806 107.369 624.554 107.357 624.392 107.357C623.625 107.357 622.969 107.791 622.73 108.494H622.662V107.455H621.431V114ZM629.212 114H630.486V110.003C630.486 109.146 631.147 108.528 632.05 108.528C632.314 108.528 632.613 108.575 632.715 108.605V107.386C632.587 107.369 632.336 107.357 632.174 107.357C631.407 107.357 630.75 107.791 630.512 108.494H630.444V107.455H629.212V114ZM636.404 114.132C637.832 114.132 638.842 113.429 639.131 112.364L637.925 112.146C637.695 112.764 637.141 113.08 636.417 113.08C635.326 113.08 634.593 112.372 634.559 111.111H639.212V110.659C639.212 108.294 637.798 107.369 636.315 107.369C634.491 107.369 633.289 108.759 633.289 110.77C633.289 112.803 634.474 114.132 636.404 114.132ZM634.563 110.156C634.614 109.227 635.288 108.422 636.323 108.422C637.312 108.422 637.96 109.155 637.964 110.156H634.563ZM646.026 107.455H644.658L643.005 112.491H642.937L641.279 107.455H639.911L642.289 114H643.653L646.026 107.455ZM647.224 114H648.498V107.455H647.224V114ZM647.867 106.445C648.306 106.445 648.673 106.104 648.673 105.686C648.673 105.268 648.306 104.923 647.867 104.923C647.424 104.923 647.062 105.268 647.062 105.686C647.062 106.104 647.424 106.445 647.867 106.445ZM653.033 114.132C654.461 114.132 655.471 113.429 655.76 112.364L654.554 112.146C654.324 112.764 653.77 113.08 653.046 113.08C651.955 113.08 651.222 112.372 651.188 111.111H655.841V110.659C655.841 108.294 654.426 107.369 652.944 107.369C651.12 107.369 649.918 108.759 649.918 110.77C649.918 112.803 651.103 114.132 653.033 114.132ZM651.192 110.156C651.243 109.227 651.917 108.422 652.952 108.422C653.941 108.422 654.588 109.155 654.593 110.156H651.192ZM658.662 114H659.958L661.287 109.274H661.385L662.715 114H664.015L665.936 107.455H664.62L663.346 112.24H663.282L662.003 107.455H660.686L659.4 112.261H659.336L658.053 107.455H656.736L658.662 114Z" fill="#B9C5D9"/>
<path d="M592.696 248L593.497 245.69H596.906L597.703 248H599.101L595.96 239.273H594.439L591.298 248H592.696ZM593.881 244.582L595.168 240.858H595.236L596.523 244.582H593.881ZM600.858 248H602.153L603.483 243.274H603.581L604.91 248H606.21L608.132 241.455H606.815L605.541 246.24H605.477L604.199 241.455H602.882L601.595 246.261H601.531L600.248 241.455H598.931L600.858 248ZM611.246 248.145C612.328 248.145 612.938 247.595 613.18 247.105H613.232V248H614.476V243.653C614.476 241.749 612.976 241.369 611.936 241.369C610.751 241.369 609.661 241.847 609.234 243.04L610.432 243.312C610.619 242.848 611.097 242.401 611.953 242.401C612.776 242.401 613.197 242.831 613.197 243.572V243.602C613.197 244.067 612.72 244.058 611.544 244.195C610.304 244.339 609.034 244.663 609.034 246.151C609.034 247.438 610.001 248.145 611.246 248.145ZM611.523 247.122C610.803 247.122 610.283 246.798 610.283 246.168C610.283 245.486 610.888 245.243 611.625 245.145C612.038 245.089 613.018 244.979 613.202 244.795V245.639C613.202 246.415 612.584 247.122 611.523 247.122ZM616.173 248H617.447V241.455H616.173V248ZM616.816 240.445C617.255 240.445 617.622 240.104 617.622 239.686C617.622 239.268 617.255 238.923 616.816 238.923C616.373 238.923 616.011 239.268 616.011 239.686C616.011 240.104 616.373 240.445 616.816 240.445ZM622.217 241.455H620.874V239.886H619.6V241.455H618.641V242.477H619.6V246.342C619.596 247.531 620.504 248.107 621.509 248.085C621.914 248.081 622.187 248.004 622.336 247.949L622.106 246.896C622.021 246.913 621.863 246.952 621.658 246.952C621.245 246.952 620.874 246.815 620.874 246.078V242.477H622.217V241.455ZM623.626 248H624.9V241.455H623.626V248ZM624.27 240.445C624.708 240.445 625.075 240.104 625.075 239.686C625.075 239.268 624.708 238.923 624.27 238.923C623.826 238.923 623.464 239.268 623.464 239.686C623.464 240.104 623.826 240.445 624.27 240.445ZM627.888 244.114C627.888 243.07 628.528 242.473 629.414 242.473C630.279 242.473 630.803 243.04 630.803 243.99V248H632.077V243.837C632.077 242.217 631.187 241.369 629.849 241.369C628.864 241.369 628.221 241.825 627.918 242.52H627.837V241.455H626.614V248H627.888V244.114ZM636.531 250.591C638.197 250.591 639.484 249.828 639.484 248.145V241.455H638.235V242.516H638.141C637.915 242.111 637.464 241.369 636.245 241.369C634.664 241.369 633.501 242.618 633.501 244.702C633.501 246.79 634.69 247.902 636.237 247.902C637.438 247.902 637.903 247.224 638.133 246.807H638.214V248.094C638.214 249.121 637.511 249.564 636.543 249.564C635.482 249.564 635.069 249.031 634.843 248.656L633.748 249.108C634.093 249.909 634.967 250.591 636.531 250.591ZM636.518 246.845C635.38 246.845 634.788 245.972 634.788 244.685C634.788 243.428 635.367 242.452 636.518 242.452C637.63 242.452 638.227 243.359 638.227 244.685C638.227 246.036 637.617 246.845 636.518 246.845ZM644.368 248H645.642V244.003C645.642 243.146 646.303 242.528 647.206 242.528C647.471 242.528 647.769 242.575 647.871 242.605V241.386C647.743 241.369 647.492 241.357 647.33 241.357C646.563 241.357 645.907 241.791 645.668 242.494H645.6V241.455H644.368V248ZM651.56 248.132C652.988 248.132 653.998 247.429 654.288 246.364L653.082 246.146C652.852 246.764 652.298 247.08 651.573 247.08C650.482 247.08 649.749 246.372 649.715 245.111H654.369V244.659C654.369 242.294 652.954 241.369 651.471 241.369C649.647 241.369 648.445 242.759 648.445 244.77C648.445 246.803 649.63 248.132 651.56 248.132ZM649.719 244.156C649.771 243.227 650.444 242.422 651.479 242.422C652.468 242.422 653.116 243.155 653.12 244.156H649.719ZM660.687 243.053C660.423 242.034 659.626 241.369 658.211 241.369C656.733 241.369 655.684 242.149 655.684 243.308C655.684 244.237 656.247 244.855 657.474 245.128L658.582 245.371C659.213 245.511 659.507 245.793 659.507 246.202C659.507 246.709 658.966 247.105 658.13 247.105C657.368 247.105 656.877 246.777 656.724 246.134L655.493 246.321C655.706 247.48 656.669 248.132 658.139 248.132C659.72 248.132 660.815 247.293 660.815 246.108C660.815 245.183 660.227 244.612 659.025 244.335L657.985 244.097C657.265 243.926 656.954 243.683 656.958 243.24C656.954 242.737 657.5 242.379 658.224 242.379C659.017 242.379 659.383 242.818 659.532 243.257L660.687 243.053ZM666.362 245.286C666.366 246.398 665.54 246.926 664.824 246.926C664.036 246.926 663.49 246.355 663.49 245.464V241.455H662.216V245.618C662.216 247.241 663.107 248.085 664.364 248.085C665.348 248.085 666.017 247.565 666.32 246.866H666.388V248H667.641V241.455H666.362V245.286ZM669.455 248H670.699V246.982H670.806C671.036 247.399 671.505 248.128 672.698 248.128C674.283 248.128 675.434 246.858 675.434 244.74C675.434 242.618 674.266 241.369 672.685 241.369C671.471 241.369 671.032 242.111 670.806 242.516H670.729V239.273H669.455V248ZM670.703 244.727C670.703 243.359 671.3 242.452 672.412 242.452C673.567 242.452 674.147 243.428 674.147 244.727C674.147 246.04 673.55 247.041 672.412 247.041C671.317 247.041 670.703 246.104 670.703 244.727ZM676.864 248H678.138V243.964C678.138 243.082 678.756 242.469 679.481 242.469C680.188 242.469 680.678 242.938 680.678 243.649V248H681.948V243.828C681.948 243.04 682.43 242.469 683.261 242.469C683.934 242.469 684.488 242.844 684.488 243.73V248H685.762V243.611C685.762 242.115 684.927 241.369 683.742 241.369C682.8 241.369 682.093 241.821 681.778 242.52H681.71C681.424 241.804 680.823 241.369 679.95 241.369C679.085 241.369 678.441 241.8 678.168 242.52H678.087V241.455H676.864V248ZM687.47 248H688.744V241.455H687.47V248ZM688.113 240.445C688.552 240.445 688.919 240.104 688.919 239.686C688.919 239.268 688.552 238.923 688.113 238.923C687.67 238.923 687.308 239.268 687.308 239.686C687.308 240.104 687.67 240.445 688.113 240.445ZM695.363 243.053C695.099 242.034 694.302 241.369 692.887 241.369C691.408 241.369 690.36 242.149 690.36 243.308C690.36 244.237 690.923 244.855 692.15 245.128L693.258 245.371C693.888 245.511 694.183 245.793 694.183 246.202C694.183 246.709 693.641 247.105 692.806 247.105C692.043 247.105 691.553 246.777 691.4 246.134L690.168 246.321C690.381 247.48 691.344 248.132 692.815 248.132C694.396 248.132 695.491 247.293 695.491 246.108C695.491 245.183 694.903 244.612 693.701 244.335L692.661 244.097C691.941 243.926 691.63 243.683 691.634 243.24C691.63 242.737 692.175 242.379 692.9 242.379C693.692 242.379 694.059 242.818 694.208 243.257L695.363 243.053ZM701.797 243.053C701.532 242.034 700.735 241.369 699.321 241.369C697.842 241.369 696.794 242.149 696.794 243.308C696.794 244.237 697.356 244.855 698.583 245.128L699.691 245.371C700.322 245.511 700.616 245.793 700.616 246.202C700.616 246.709 700.075 247.105 699.24 247.105C698.477 247.105 697.987 246.777 697.833 246.134L696.602 246.321C696.815 247.48 697.778 248.132 699.248 248.132C700.829 248.132 701.924 247.293 701.924 246.108C701.924 245.183 701.336 244.612 700.135 244.335L699.095 244.097C698.375 243.926 698.064 243.683 698.068 243.24C698.064 242.737 698.609 242.379 699.333 242.379C700.126 242.379 700.493 242.818 700.642 243.257L701.797 243.053ZM703.325 248H704.599V241.455H703.325V248ZM703.969 240.445C704.408 240.445 704.774 240.104 704.774 239.686C704.774 239.268 704.408 238.923 703.969 238.923C703.526 238.923 703.163 239.268 703.163 239.686C703.163 240.104 703.526 240.445 703.969 240.445ZM709.071 248.132C710.916 248.132 712.122 246.781 712.122 244.757C712.122 242.72 710.916 241.369 709.071 241.369C707.225 241.369 706.02 242.72 706.02 244.757C706.02 246.781 707.225 248.132 709.071 248.132ZM709.075 247.062C707.869 247.062 707.306 246.01 707.306 244.753C707.306 243.5 707.869 242.435 709.075 242.435C710.272 242.435 710.835 243.5 710.835 244.753C710.835 246.01 710.272 247.062 709.075 247.062ZM714.818 244.114C714.818 243.07 715.457 242.473 716.344 242.473C717.209 242.473 717.733 243.04 717.733 243.99V248H719.007V243.837C719.007 242.217 718.116 241.369 716.778 241.369C715.794 241.369 715.151 241.825 714.848 242.52H714.767V241.455H713.544V248H714.818V244.114Z" fill="#B9C5D9"/>
<rect x="591" y="212" width="44" height="19" rx="9.5" fill="#E0E0E0" fill-opacity="0.44"/>
<path d="M612.594 226L613.395 223.69H616.804L617.601 226H618.999L615.858 217.273H614.337L611.196 226H612.594ZM613.779 222.582L615.066 218.858H615.134L616.421 222.582H613.779ZM624.949 219.565H626.219C626.181 218.168 624.945 217.153 623.172 217.153C621.421 217.153 620.078 218.155 620.078 219.659C620.078 220.874 620.948 221.585 622.35 221.964L623.381 222.246C624.314 222.493 625.034 222.8 625.034 223.575C625.034 224.428 624.22 224.99 623.1 224.99C622.085 224.99 621.242 224.538 621.165 223.588H619.844C619.929 225.169 621.152 226.145 623.108 226.145C625.158 226.145 626.338 225.067 626.338 223.588C626.338 222.016 624.936 221.406 623.828 221.134L622.976 220.912C622.294 220.737 621.386 220.418 621.391 219.582C621.391 218.841 622.068 218.291 623.142 218.291C624.144 218.291 624.855 218.76 624.949 219.565Z" fill="#939393"/>
<circle cx="602" cy="222" r="3" fill="#939393"/>
</svg>
