<svg width="509" height="470" viewBox="0 0 509 470" fill="none" xmlns="http://www.w3.org/2000/svg">
<rect x="164" y="31" width="24" height="284" rx="12" transform="rotate(-90 164 31)" fill="#7490FF"/>
<rect x="164" y="80" width="24" height="284" rx="12" transform="rotate(-90 164 80)" fill="#7490FF"/>
<rect x="164" y="129" width="24" height="284" rx="12" transform="rotate(-90 164 129)" fill="#7490FF"/>
<rect x="164" y="176" width="24" height="284" rx="12" transform="rotate(-90 164 176)" fill="#7490FF"/>
<rect x="164" y="225" width="24" height="267" rx="12" transform="rotate(-90 164 225)" fill="#7490FF"/>
<rect x="164" y="274" width="24" height="134" rx="12" transform="rotate(-90 164 274)" fill="#7490FF"/>
<rect x="164" y="323" width="24" height="96" rx="12" transform="rotate(-90 164 323)" fill="#7490FF"/>
<rect x="164" y="372" width="24" height="73" rx="12" transform="rotate(-90 164 372)" fill="#7490FF"/>
<rect x="164" y="464" width="24" height="10" rx="5" transform="rotate(-90 164 464)" fill="#7490FF"/>
<rect x="164" y="421" width="24" height="41" rx="12" transform="rotate(-90 164 421)" fill="#7490FF"/>
<path d="M7.10156 21.0703C7.10156 20.5703 6.92448 20.1849 6.57031 19.9141C6.22135 19.6432 5.58854 19.3698 4.67188 19.0938C3.75521 18.8177 3.02604 18.5104 2.48438 18.1719C1.44792 17.5208 0.929688 16.6719 0.929688 15.625C0.929688 14.7083 1.30208 13.9531 2.04688 13.3594C2.79688 12.7656 3.76823 12.4688 4.96094 12.4688C5.7526 12.4688 6.45833 12.6146 7.07812 12.9062C7.69792 13.1979 8.1849 13.6146 8.53906 14.1562C8.89323 14.6927 9.07031 15.2891 9.07031 15.9453H7.10156C7.10156 15.3516 6.91406 14.888 6.53906 14.5547C6.16927 14.2161 5.63802 14.0469 4.94531 14.0469C4.29948 14.0469 3.79688 14.1849 3.4375 14.4609C3.08333 14.737 2.90625 15.1224 2.90625 15.6172C2.90625 16.0339 3.09896 16.3828 3.48438 16.6641C3.86979 16.9401 4.50521 17.2109 5.39062 17.4766C6.27604 17.737 6.98698 18.0365 7.52344 18.375C8.0599 18.7083 8.45312 19.0938 8.70312 19.5312C8.95312 19.9635 9.07812 20.4714 9.07812 21.0547C9.07812 22.0026 8.71354 22.7578 7.98438 23.3203C7.26042 23.8776 6.27604 24.1562 5.03125 24.1562C4.20833 24.1562 3.45052 24.0052 2.75781 23.7031C2.07031 23.3958 1.53385 22.974 1.14844 22.4375C0.768229 21.901 0.578125 21.276 0.578125 20.5625H2.55469C2.55469 21.2083 2.76823 21.7083 3.19531 22.0625C3.6224 22.4167 4.23438 22.5938 5.03125 22.5938C5.71875 22.5938 6.23438 22.4557 6.57812 22.1797C6.92708 21.8984 7.10156 21.5286 7.10156 21.0703ZM15.75 23.1719C15.1927 23.8281 14.401 24.1562 13.375 24.1562C12.4583 24.1562 11.763 23.888 11.2891 23.3516C10.8203 22.8151 10.5859 22.0391 10.5859 21.0234V15.5469H12.4844V21C12.4844 22.0729 12.9297 22.6094 13.8203 22.6094C14.7422 22.6094 15.3646 22.2786 15.6875 21.6172V15.5469H17.5859V24H15.7969L15.75 23.1719ZM26.9375 19.8594C26.9375 21.1719 26.6432 22.2161 26.0547 22.9922C25.4714 23.7682 24.6667 24.1562 23.6406 24.1562C22.651 24.1562 21.8802 23.7995 21.3281 23.0859L21.2344 24H19.5156V12H21.4141V16.3594C21.9609 15.7135 22.6979 15.3906 23.625 15.3906C24.6562 15.3906 25.4661 15.7734 26.0547 16.5391C26.6432 17.3047 26.9375 18.375 26.9375 19.75V19.8594ZM25.0391 19.6953C25.0391 18.7786 24.8776 18.0911 24.5547 17.6328C24.2318 17.1745 23.763 16.9453 23.1484 16.9453C22.3255 16.9453 21.7474 17.3047 21.4141 18.0234V21.5078C21.7526 22.2422 22.3359 22.6094 23.1641 22.6094C23.7578 22.6094 24.2161 22.388 24.5391 21.9453C24.862 21.5026 25.0286 20.8333 25.0391 19.9375V19.6953ZM30.3203 15.5469L30.375 16.4297C30.9688 15.737 31.7812 15.3906 32.8125 15.3906C33.9427 15.3906 34.7161 15.8229 35.1328 16.6875C35.7474 15.8229 36.612 15.3906 37.7266 15.3906C38.6589 15.3906 39.3516 15.6484 39.8047 16.1641C40.263 16.6797 40.4974 17.4401 40.5078 18.4453V24H38.6094V18.5C38.6094 17.9635 38.4922 17.5703 38.2578 17.3203C38.0234 17.0703 37.6354 16.9453 37.0938 16.9453C36.6615 16.9453 36.3073 17.0625 36.0312 17.2969C35.7604 17.526 35.5703 17.8281 35.4609 18.2031L35.4688 24H33.5703V18.4375C33.5443 17.4427 33.0365 16.9453 32.0469 16.9453C31.2865 16.9453 30.7474 17.2552 30.4297 17.875V24H28.5312V15.5469H30.3203ZM44.4766 24H42.5781V15.5469H44.4766V24ZM42.4609 13.3516C42.4609 13.0599 42.5521 12.8177 42.7344 12.625C42.9219 12.4323 43.1875 12.3359 43.5312 12.3359C43.875 12.3359 44.1406 12.4323 44.3281 12.625C44.5156 12.8177 44.6094 13.0599 44.6094 13.3516C44.6094 13.638 44.5156 13.8776 44.3281 14.0703C44.1406 14.2578 43.875 14.3516 43.5312 14.3516C43.1875 14.3516 42.9219 14.2578 42.7344 14.0703C42.5521 13.8776 42.4609 13.638 42.4609 13.3516ZM48.9297 13.4922V15.5469H50.4219V16.9531H48.9297V21.6719C48.9297 21.9948 48.9922 22.2292 49.1172 22.375C49.2474 22.5156 49.4766 22.5859 49.8047 22.5859C50.0234 22.5859 50.2448 22.5599 50.4688 22.5078V23.9766C50.0365 24.0964 49.6198 24.1562 49.2188 24.1562C47.7604 24.1562 47.0312 23.3516 47.0312 21.7422V16.9531H45.6406V15.5469H47.0312V13.4922H48.9297ZM54.2578 13.4922V15.5469H55.75V16.9531H54.2578V21.6719C54.2578 21.9948 54.3203 22.2292 54.4453 22.375C54.5755 22.5156 54.8047 22.5859 55.1328 22.5859C55.3516 22.5859 55.5729 22.5599 55.7969 22.5078V23.9766C55.3646 24.0964 54.9479 24.1562 54.5469 24.1562C53.0885 24.1562 52.3594 23.3516 52.3594 21.7422V16.9531H50.9688V15.5469H52.3594V13.4922H54.2578ZM62.2578 24C62.1745 23.8385 62.1016 23.5755 62.0391 23.2109C61.4349 23.8411 60.6953 24.1562 59.8203 24.1562C58.9714 24.1562 58.2786 23.9141 57.7422 23.4297C57.2057 22.9453 56.9375 22.3464 56.9375 21.6328C56.9375 20.7318 57.2708 20.0417 57.9375 19.5625C58.6094 19.0781 59.5677 18.8359 60.8125 18.8359H61.9766V18.2812C61.9766 17.8438 61.8542 17.4948 61.6094 17.2344C61.3646 16.9688 60.9922 16.8359 60.4922 16.8359C60.0599 16.8359 59.7057 16.9453 59.4297 17.1641C59.1536 17.3776 59.0156 17.651 59.0156 17.9844H57.1172C57.1172 17.5208 57.2708 17.0885 57.5781 16.6875C57.8854 16.2812 58.3021 15.9635 58.8281 15.7344C59.3594 15.5052 59.9505 15.3906 60.6016 15.3906C61.5911 15.3906 62.3802 15.6406 62.9688 16.1406C63.5573 16.6354 63.8594 17.3333 63.875 18.2344V22.0469C63.875 22.8073 63.9818 23.4141 64.1953 23.8672V24H62.2578ZM60.1719 22.6328C60.5469 22.6328 60.8984 22.5417 61.2266 22.3594C61.5599 22.1771 61.8099 21.9323 61.9766 21.625V20.0312H60.9531C60.25 20.0312 59.7214 20.1536 59.3672 20.3984C59.013 20.6432 58.8359 20.9896 58.8359 21.4375C58.8359 21.8021 58.9557 22.0938 59.1953 22.3125C59.4401 22.526 59.7656 22.6328 60.1719 22.6328ZM67.8828 24H65.9844V12H67.8828V24ZM83.1484 24H81.1719L76.1016 15.9297V24H74.125V12.625H76.1016L81.1875 20.7266V12.625H83.1484V24ZM90.3516 24C90.2682 23.8385 90.1953 23.5755 90.1328 23.2109C89.5286 23.8411 88.7891 24.1562 87.9141 24.1562C87.0651 24.1562 86.3724 23.9141 85.8359 23.4297C85.2995 22.9453 85.0312 22.3464 85.0312 21.6328C85.0312 20.7318 85.3646 20.0417 86.0312 19.5625C86.7031 19.0781 87.6615 18.8359 88.9062 18.8359H90.0703V18.2812C90.0703 17.8438 89.9479 17.4948 89.7031 17.2344C89.4583 16.9688 89.0859 16.8359 88.5859 16.8359C88.1536 16.8359 87.7995 16.9453 87.5234 17.1641C87.2474 17.3776 87.1094 17.651 87.1094 17.9844H85.2109C85.2109 17.5208 85.3646 17.0885 85.6719 16.6875C85.9792 16.2812 86.3958 15.9635 86.9219 15.7344C87.4531 15.5052 88.0443 15.3906 88.6953 15.3906C89.6849 15.3906 90.474 15.6406 91.0625 16.1406C91.651 16.6354 91.9531 17.3333 91.9688 18.2344V22.0469C91.9688 22.8073 92.0755 23.4141 92.2891 23.8672V24H90.3516ZM88.2656 22.6328C88.6406 22.6328 88.9922 22.5417 89.3203 22.3594C89.6536 22.1771 89.9036 21.9323 90.0703 21.625V20.0312H89.0469C88.3438 20.0312 87.8151 20.1536 87.4609 20.3984C87.1068 20.6432 86.9297 20.9896 86.9297 21.4375C86.9297 21.8021 87.0495 22.0938 87.2891 22.3125C87.5339 22.526 87.8594 22.6328 88.2656 22.6328ZM95.7422 15.5469L95.7969 16.4297C96.3906 15.737 97.2031 15.3906 98.2344 15.3906C99.3646 15.3906 100.138 15.8229 100.555 16.6875C101.169 15.8229 102.034 15.3906 103.148 15.3906C104.081 15.3906 104.773 15.6484 105.227 16.1641C105.685 16.6797 105.919 17.4401 105.93 18.4453V24H104.031V18.5C104.031 17.9635 103.914 17.5703 103.68 17.3203C103.445 17.0703 103.057 16.9453 102.516 16.9453C102.083 16.9453 101.729 17.0625 101.453 17.2969C101.182 17.526 100.992 17.8281 100.883 18.2031L100.891 24H98.9922V18.4375C98.9661 17.4427 98.4583 16.9453 97.4688 16.9453C96.7083 16.9453 96.1693 17.2552 95.8516 17.875V24H93.9531V15.5469H95.7422ZM111.602 24.1562C110.398 24.1562 109.422 23.7786 108.672 23.0234C107.927 22.263 107.555 21.2526 107.555 19.9922V19.7578C107.555 18.9141 107.716 18.1615 108.039 17.5C108.367 16.8333 108.826 16.3151 109.414 15.9453C110.003 15.5755 110.659 15.3906 111.383 15.3906C112.534 15.3906 113.422 15.7578 114.047 16.4922C114.677 17.2266 114.992 18.2656 114.992 19.6094V20.375H109.469C109.526 21.0729 109.758 21.625 110.164 22.0312C110.576 22.4375 111.091 22.6406 111.711 22.6406C112.581 22.6406 113.289 22.2891 113.836 21.5859L114.859 22.5625C114.521 23.0677 114.068 23.4609 113.5 23.7422C112.938 24.0182 112.305 24.1562 111.602 24.1562ZM111.375 16.9141C110.854 16.9141 110.432 17.0964 110.109 17.4609C109.792 17.8255 109.589 18.3333 109.5 18.9844H113.117V18.8438C113.076 18.2083 112.906 17.7292 112.609 17.4062C112.312 17.0781 111.901 16.9141 111.375 16.9141Z" fill="#333333"/>
<path d="M7.10156 70.0703C7.10156 69.5703 6.92448 69.1849 6.57031 68.9141C6.22135 68.6432 5.58854 68.3698 4.67188 68.0938C3.75521 67.8177 3.02604 67.5104 2.48438 67.1719C1.44792 66.5208 0.929688 65.6719 0.929688 64.625C0.929688 63.7083 1.30208 62.9531 2.04688 62.3594C2.79688 61.7656 3.76823 61.4688 4.96094 61.4688C5.7526 61.4688 6.45833 61.6146 7.07812 61.9062C7.69792 62.1979 8.1849 62.6146 8.53906 63.1562C8.89323 63.6927 9.07031 64.2891 9.07031 64.9453H7.10156C7.10156 64.3516 6.91406 63.888 6.53906 63.5547C6.16927 63.2161 5.63802 63.0469 4.94531 63.0469C4.29948 63.0469 3.79688 63.1849 3.4375 63.4609C3.08333 63.737 2.90625 64.1224 2.90625 64.6172C2.90625 65.0339 3.09896 65.3828 3.48438 65.6641C3.86979 65.9401 4.50521 66.2109 5.39062 66.4766C6.27604 66.737 6.98698 67.0365 7.52344 67.375C8.0599 67.7083 8.45312 68.0938 8.70312 68.5312C8.95312 68.9635 9.07812 69.4714 9.07812 70.0547C9.07812 71.0026 8.71354 71.7578 7.98438 72.3203C7.26042 72.8776 6.27604 73.1562 5.03125 73.1562C4.20833 73.1562 3.45052 73.0052 2.75781 72.7031C2.07031 72.3958 1.53385 71.974 1.14844 71.4375C0.768229 70.901 0.578125 70.276 0.578125 69.5625H2.55469C2.55469 70.2083 2.76823 70.7083 3.19531 71.0625C3.6224 71.4167 4.23438 71.5938 5.03125 71.5938C5.71875 71.5938 6.23438 71.4557 6.57812 71.1797C6.92708 70.8984 7.10156 70.5286 7.10156 70.0703ZM15.75 72.1719C15.1927 72.8281 14.401 73.1562 13.375 73.1562C12.4583 73.1562 11.763 72.888 11.2891 72.3516C10.8203 71.8151 10.5859 71.0391 10.5859 70.0234V64.5469H12.4844V70C12.4844 71.0729 12.9297 71.6094 13.8203 71.6094C14.7422 71.6094 15.3646 71.2786 15.6875 70.6172V64.5469H17.5859V73H15.7969L15.75 72.1719ZM26.9375 68.8594C26.9375 70.1719 26.6432 71.2161 26.0547 71.9922C25.4714 72.7682 24.6667 73.1562 23.6406 73.1562C22.651 73.1562 21.8802 72.7995 21.3281 72.0859L21.2344 73H19.5156V61H21.4141V65.3594C21.9609 64.7135 22.6979 64.3906 23.625 64.3906C24.6562 64.3906 25.4661 64.7734 26.0547 65.5391C26.6432 66.3047 26.9375 67.375 26.9375 68.75V68.8594ZM25.0391 68.6953C25.0391 67.7786 24.8776 67.0911 24.5547 66.6328C24.2318 66.1745 23.763 65.9453 23.1484 65.9453C22.3255 65.9453 21.7474 66.3047 21.4141 67.0234V70.5078C21.7526 71.2422 22.3359 71.6094 23.1641 71.6094C23.7578 71.6094 24.2161 71.388 24.5391 70.9453C24.862 70.5026 25.0286 69.8333 25.0391 68.9375V68.6953ZM30.3203 64.5469L30.375 65.4297C30.9688 64.737 31.7812 64.3906 32.8125 64.3906C33.9427 64.3906 34.7161 64.8229 35.1328 65.6875C35.7474 64.8229 36.612 64.3906 37.7266 64.3906C38.6589 64.3906 39.3516 64.6484 39.8047 65.1641C40.263 65.6797 40.4974 66.4401 40.5078 67.4453V73H38.6094V67.5C38.6094 66.9635 38.4922 66.5703 38.2578 66.3203C38.0234 66.0703 37.6354 65.9453 37.0938 65.9453C36.6615 65.9453 36.3073 66.0625 36.0312 66.2969C35.7604 66.526 35.5703 66.8281 35.4609 67.2031L35.4688 73H33.5703V67.4375C33.5443 66.4427 33.0365 65.9453 32.0469 65.9453C31.2865 65.9453 30.7474 66.2552 30.4297 66.875V73H28.5312V64.5469H30.3203ZM44.4766 73H42.5781V64.5469H44.4766V73ZM42.4609 62.3516C42.4609 62.0599 42.5521 61.8177 42.7344 61.625C42.9219 61.4323 43.1875 61.3359 43.5312 61.3359C43.875 61.3359 44.1406 61.4323 44.3281 61.625C44.5156 61.8177 44.6094 62.0599 44.6094 62.3516C44.6094 62.638 44.5156 62.8776 44.3281 63.0703C44.1406 63.2578 43.875 63.3516 43.5312 63.3516C43.1875 63.3516 42.9219 63.2578 42.7344 63.0703C42.5521 62.8776 42.4609 62.638 42.4609 62.3516ZM48.9297 62.4922V64.5469H50.4219V65.9531H48.9297V70.6719C48.9297 70.9948 48.9922 71.2292 49.1172 71.375C49.2474 71.5156 49.4766 71.5859 49.8047 71.5859C50.0234 71.5859 50.2448 71.5599 50.4688 71.5078V72.9766C50.0365 73.0964 49.6198 73.1562 49.2188 73.1562C47.7604 73.1562 47.0312 72.3516 47.0312 70.7422V65.9531H45.6406V64.5469H47.0312V62.4922H48.9297ZM54.2578 62.4922V64.5469H55.75V65.9531H54.2578V70.6719C54.2578 70.9948 54.3203 71.2292 54.4453 71.375C54.5755 71.5156 54.8047 71.5859 55.1328 71.5859C55.3516 71.5859 55.5729 71.5599 55.7969 71.5078V72.9766C55.3646 73.0964 54.9479 73.1562 54.5469 73.1562C53.0885 73.1562 52.3594 72.3516 52.3594 70.7422V65.9531H50.9688V64.5469H52.3594V62.4922H54.2578ZM62.2578 73C62.1745 72.8385 62.1016 72.5755 62.0391 72.2109C61.4349 72.8411 60.6953 73.1562 59.8203 73.1562C58.9714 73.1562 58.2786 72.9141 57.7422 72.4297C57.2057 71.9453 56.9375 71.3464 56.9375 70.6328C56.9375 69.7318 57.2708 69.0417 57.9375 68.5625C58.6094 68.0781 59.5677 67.8359 60.8125 67.8359H61.9766V67.2812C61.9766 66.8438 61.8542 66.4948 61.6094 66.2344C61.3646 65.9688 60.9922 65.8359 60.4922 65.8359C60.0599 65.8359 59.7057 65.9453 59.4297 66.1641C59.1536 66.3776 59.0156 66.651 59.0156 66.9844H57.1172C57.1172 66.5208 57.2708 66.0885 57.5781 65.6875C57.8854 65.2812 58.3021 64.9635 58.8281 64.7344C59.3594 64.5052 59.9505 64.3906 60.6016 64.3906C61.5911 64.3906 62.3802 64.6406 62.9688 65.1406C63.5573 65.6354 63.8594 66.3333 63.875 67.2344V71.0469C63.875 71.8073 63.9818 72.4141 64.1953 72.8672V73H62.2578ZM60.1719 71.6328C60.5469 71.6328 60.8984 71.5417 61.2266 71.3594C61.5599 71.1771 61.8099 70.9323 61.9766 70.625V69.0312H60.9531C60.25 69.0312 59.7214 69.1536 59.3672 69.3984C59.013 69.6432 58.8359 69.9896 58.8359 70.4375C58.8359 70.8021 58.9557 71.0938 59.1953 71.3125C59.4401 71.526 59.7656 71.6328 60.1719 71.6328ZM67.8828 73H65.9844V61H67.8828V73ZM83.1484 73H81.1719L76.1016 64.9297V73H74.125V61.625H76.1016L81.1875 69.7266V61.625H83.1484V73ZM90.4219 72.1719C89.8646 72.8281 89.0729 73.1562 88.0469 73.1562C87.1302 73.1562 86.4349 72.888 85.9609 72.3516C85.4922 71.8151 85.2578 71.0391 85.2578 70.0234V64.5469H87.1562V70C87.1562 71.0729 87.6016 71.6094 88.4922 71.6094C89.4141 71.6094 90.0365 71.2786 90.3594 70.6172V64.5469H92.2578V73H90.4688L90.4219 72.1719ZM95.9766 64.5469L96.0312 65.4297C96.625 64.737 97.4375 64.3906 98.4688 64.3906C99.599 64.3906 100.372 64.8229 100.789 65.6875C101.404 64.8229 102.268 64.3906 103.383 64.3906C104.315 64.3906 105.008 64.6484 105.461 65.1641C105.919 65.6797 106.154 66.4401 106.164 67.4453V73H104.266V67.5C104.266 66.9635 104.148 66.5703 103.914 66.3203C103.68 66.0703 103.292 65.9453 102.75 65.9453C102.318 65.9453 101.964 66.0625 101.688 66.2969C101.417 66.526 101.227 66.8281 101.117 67.2031L101.125 73H99.2266V67.4375C99.2005 66.4427 98.6927 65.9453 97.7031 65.9453C96.9427 65.9453 96.4036 66.2552 96.0859 66.875V73H94.1875V64.5469H95.9766ZM115.531 68.8594C115.531 70.1719 115.237 71.2161 114.648 71.9922C114.065 72.7682 113.26 73.1562 112.234 73.1562C111.245 73.1562 110.474 72.7995 109.922 72.0859L109.828 73H108.109V61H110.008V65.3594C110.555 64.7135 111.292 64.3906 112.219 64.3906C113.25 64.3906 114.06 64.7734 114.648 65.5391C115.237 66.3047 115.531 67.375 115.531 68.75V68.8594ZM113.633 68.6953C113.633 67.7786 113.471 67.0911 113.148 66.6328C112.826 66.1745 112.357 65.9453 111.742 65.9453C110.919 65.9453 110.341 66.3047 110.008 67.0234V70.5078C110.346 71.2422 110.93 71.6094 111.758 71.6094C112.352 71.6094 112.81 71.388 113.133 70.9453C113.456 70.5026 113.622 69.8333 113.633 68.9375V68.6953ZM120.852 73.1562C119.648 73.1562 118.672 72.7786 117.922 72.0234C117.177 71.263 116.805 70.2526 116.805 68.9922V68.7578C116.805 67.9141 116.966 67.1615 117.289 66.5C117.617 65.8333 118.076 65.3151 118.664 64.9453C119.253 64.5755 119.909 64.3906 120.633 64.3906C121.784 64.3906 122.672 64.7578 123.297 65.4922C123.927 66.2266 124.242 67.2656 124.242 68.6094V69.375H118.719C118.776 70.0729 119.008 70.625 119.414 71.0312C119.826 71.4375 120.341 71.6406 120.961 71.6406C121.831 71.6406 122.539 71.2891 123.086 70.5859L124.109 71.5625C123.771 72.0677 123.318 72.4609 122.75 72.7422C122.188 73.0182 121.555 73.1562 120.852 73.1562ZM120.625 65.9141C120.104 65.9141 119.682 66.0964 119.359 66.4609C119.042 66.8255 118.839 67.3333 118.75 67.9844H122.367V67.8438C122.326 67.2083 122.156 66.7292 121.859 66.4062C121.562 66.0781 121.151 65.9141 120.625 65.9141ZM130.148 66.2812C129.898 66.2396 129.641 66.2188 129.375 66.2188C128.505 66.2188 127.919 66.5521 127.617 67.2188V73H125.719V64.5469H127.531L127.578 65.4922C128.036 64.7578 128.672 64.3906 129.484 64.3906C129.755 64.3906 129.979 64.4271 130.156 64.5L130.148 66.2812Z" fill="#333333"/>
<path d="M5.33594 117.617H3.13281V122H1.15625V110.625H5.15625C6.46875 110.625 7.48177 110.919 8.19531 111.508C8.90885 112.096 9.26562 112.948 9.26562 114.062C9.26562 114.823 9.08073 115.461 8.71094 115.977C8.34635 116.487 7.83594 116.88 7.17969 117.156L9.73438 121.898V122H7.61719L5.33594 117.617ZM3.13281 116.031H5.16406C5.83073 116.031 6.35156 115.865 6.72656 115.531C7.10156 115.193 7.28906 114.732 7.28906 114.148C7.28906 113.539 7.11458 113.068 6.76562 112.734C6.42188 112.401 5.90625 112.229 5.21875 112.219H3.13281V116.031ZM14.6797 122.156C13.4766 122.156 12.5 121.779 11.75 121.023C11.0052 120.263 10.6328 119.253 10.6328 117.992V117.758C10.6328 116.914 10.7943 116.161 11.1172 115.5C11.4453 114.833 11.9036 114.315 12.4922 113.945C13.0807 113.576 13.737 113.391 14.4609 113.391C15.612 113.391 16.5 113.758 17.125 114.492C17.7552 115.227 18.0703 116.266 18.0703 117.609V118.375H12.5469C12.6042 119.073 12.8359 119.625 13.2422 120.031C13.6536 120.438 14.1693 120.641 14.7891 120.641C15.6589 120.641 16.3672 120.289 16.9141 119.586L17.9375 120.562C17.599 121.068 17.1458 121.461 16.5781 121.742C16.0156 122.018 15.3828 122.156 14.6797 122.156ZM14.4531 114.914C13.9323 114.914 13.5104 115.096 13.1875 115.461C12.8698 115.826 12.6667 116.333 12.5781 116.984H16.1953V116.844C16.1536 116.208 15.9844 115.729 15.6875 115.406C15.3906 115.078 14.9792 114.914 14.4531 114.914ZM22.4219 119.594L24.2109 113.547H26.1719L23.2422 122H21.5938L18.6406 113.547H20.6094L22.4219 119.594ZM29.3828 122H27.4844V113.547H29.3828V122ZM27.3672 111.352C27.3672 111.06 27.4583 110.818 27.6406 110.625C27.8281 110.432 28.0938 110.336 28.4375 110.336C28.7812 110.336 29.0469 110.432 29.2344 110.625C29.4219 110.818 29.5156 111.06 29.5156 111.352C29.5156 111.638 29.4219 111.878 29.2344 112.07C29.0469 112.258 28.7812 112.352 28.4375 112.352C28.0938 112.352 27.8281 112.258 27.6406 112.07C27.4583 111.878 27.3672 111.638 27.3672 111.352ZM35.1797 122.156C33.9766 122.156 33 121.779 32.25 121.023C31.5052 120.263 31.1328 119.253 31.1328 117.992V117.758C31.1328 116.914 31.2943 116.161 31.6172 115.5C31.9453 114.833 32.4036 114.315 32.9922 113.945C33.5807 113.576 34.237 113.391 34.9609 113.391C36.112 113.391 37 113.758 37.625 114.492C38.2552 115.227 38.5703 116.266 38.5703 117.609V118.375H33.0469C33.1042 119.073 33.3359 119.625 33.7422 120.031C34.1536 120.438 34.6693 120.641 35.2891 120.641C36.1589 120.641 36.8672 120.289 37.4141 119.586L38.4375 120.562C38.099 121.068 37.6458 121.461 37.0781 121.742C36.5156 122.018 35.8828 122.156 35.1797 122.156ZM34.9531 114.914C34.4323 114.914 34.0104 115.096 33.6875 115.461C33.3698 115.826 33.1667 116.333 33.0781 116.984H36.6953V116.844C36.6536 116.208 36.4844 115.729 36.1875 115.406C35.8906 115.078 35.4792 114.914 34.9531 114.914ZM47.4766 119.383L48.8203 113.547H50.6719L48.3672 122H46.8047L44.9922 116.195L43.2109 122H41.6484L39.3359 113.547H41.1875L42.5547 119.32L44.2891 113.547H45.7188L47.4766 119.383ZM62.0547 119.07C62.0547 118.57 61.8776 118.185 61.5234 117.914C61.1745 117.643 60.5417 117.37 59.625 117.094C58.7083 116.818 57.9792 116.51 57.4375 116.172C56.401 115.521 55.8828 114.672 55.8828 113.625C55.8828 112.708 56.2552 111.953 57 111.359C57.75 110.766 58.7214 110.469 59.9141 110.469C60.7057 110.469 61.4115 110.615 62.0312 110.906C62.651 111.198 63.138 111.615 63.4922 112.156C63.8464 112.693 64.0234 113.289 64.0234 113.945H62.0547C62.0547 113.352 61.8672 112.888 61.4922 112.555C61.1224 112.216 60.5911 112.047 59.8984 112.047C59.2526 112.047 58.75 112.185 58.3906 112.461C58.0365 112.737 57.8594 113.122 57.8594 113.617C57.8594 114.034 58.0521 114.383 58.4375 114.664C58.8229 114.94 59.4583 115.211 60.3438 115.477C61.2292 115.737 61.9401 116.036 62.4766 116.375C63.013 116.708 63.4062 117.094 63.6562 117.531C63.9062 117.964 64.0312 118.471 64.0312 119.055C64.0312 120.003 63.6667 120.758 62.9375 121.32C62.2135 121.878 61.2292 122.156 59.9844 122.156C59.1615 122.156 58.4036 122.005 57.7109 121.703C57.0234 121.396 56.487 120.974 56.1016 120.438C55.7214 119.901 55.5312 119.276 55.5312 118.562H57.5078C57.5078 119.208 57.7214 119.708 58.1484 120.062C58.5755 120.417 59.1875 120.594 59.9844 120.594C60.6719 120.594 61.1875 120.456 61.5312 120.18C61.8802 119.898 62.0547 119.529 62.0547 119.07ZM67.9609 111.492V113.547H69.4531V114.953H67.9609V119.672C67.9609 119.995 68.0234 120.229 68.1484 120.375C68.2786 120.516 68.5078 120.586 68.8359 120.586C69.0547 120.586 69.276 120.56 69.5 120.508V121.977C69.0677 122.096 68.651 122.156 68.25 122.156C66.7917 122.156 66.0625 121.352 66.0625 119.742V114.953H64.6719V113.547H66.0625V111.492H67.9609ZM75.9609 122C75.8776 121.839 75.8047 121.576 75.7422 121.211C75.138 121.841 74.3984 122.156 73.5234 122.156C72.6745 122.156 71.9818 121.914 71.4453 121.43C70.9089 120.945 70.6406 120.346 70.6406 119.633C70.6406 118.732 70.974 118.042 71.6406 117.562C72.3125 117.078 73.2708 116.836 74.5156 116.836H75.6797V116.281C75.6797 115.844 75.5573 115.495 75.3125 115.234C75.0677 114.969 74.6953 114.836 74.1953 114.836C73.763 114.836 73.4089 114.945 73.1328 115.164C72.8568 115.378 72.7188 115.651 72.7188 115.984H70.8203C70.8203 115.521 70.974 115.089 71.2812 114.688C71.5885 114.281 72.0052 113.964 72.5312 113.734C73.0625 113.505 73.6536 113.391 74.3047 113.391C75.2943 113.391 76.0833 113.641 76.6719 114.141C77.2604 114.635 77.5625 115.333 77.5781 116.234V120.047C77.5781 120.807 77.6849 121.414 77.8984 121.867V122H75.9609ZM73.875 120.633C74.25 120.633 74.6016 120.542 74.9297 120.359C75.263 120.177 75.513 119.932 75.6797 119.625V118.031H74.6562C73.9531 118.031 73.4245 118.154 73.0703 118.398C72.7161 118.643 72.5391 118.99 72.5391 119.438C72.5391 119.802 72.6589 120.094 72.8984 120.312C73.1432 120.526 73.4688 120.633 73.875 120.633ZM81.9453 111.492V113.547H83.4375V114.953H81.9453V119.672C81.9453 119.995 82.0078 120.229 82.1328 120.375C82.263 120.516 82.4922 120.586 82.8203 120.586C83.0391 120.586 83.2604 120.56 83.4844 120.508V121.977C83.0521 122.096 82.6354 122.156 82.2344 122.156C80.776 122.156 80.0469 121.352 80.0469 119.742V114.953H78.6562V113.547H80.0469V111.492H81.9453ZM90.0156 121.172C89.4583 121.828 88.6667 122.156 87.6406 122.156C86.724 122.156 86.0286 121.888 85.5547 121.352C85.0859 120.815 84.8516 120.039 84.8516 119.023V113.547H86.75V119C86.75 120.073 87.1953 120.609 88.0859 120.609C89.0078 120.609 89.6302 120.279 89.9531 119.617V113.547H91.8516V122H90.0625L90.0156 121.172ZM98.5234 119.703C98.5234 119.365 98.3828 119.107 98.1016 118.93C97.8255 118.753 97.3646 118.596 96.7188 118.461C96.0729 118.326 95.5339 118.154 95.1016 117.945C94.1536 117.487 93.6797 116.823 93.6797 115.953C93.6797 115.224 93.987 114.615 94.6016 114.125C95.2161 113.635 95.9974 113.391 96.9453 113.391C97.9557 113.391 98.7708 113.641 99.3906 114.141C100.016 114.641 100.328 115.289 100.328 116.086H98.4297C98.4297 115.721 98.2943 115.419 98.0234 115.18C97.7526 114.935 97.3932 114.812 96.9453 114.812C96.5286 114.812 96.1875 114.909 95.9219 115.102C95.6615 115.294 95.5312 115.552 95.5312 115.875C95.5312 116.167 95.6536 116.393 95.8984 116.555C96.1432 116.716 96.638 116.88 97.3828 117.047C98.1276 117.208 98.7109 117.404 99.1328 117.633C99.5599 117.857 99.875 118.128 100.078 118.445C100.286 118.763 100.391 119.148 100.391 119.602C100.391 120.362 100.076 120.979 99.4453 121.453C98.8151 121.922 97.9896 122.156 96.9688 122.156C96.276 122.156 95.6589 122.031 95.1172 121.781C94.5755 121.531 94.1536 121.188 93.8516 120.75C93.5495 120.312 93.3984 119.841 93.3984 119.336H95.2422C95.2682 119.784 95.4375 120.13 95.75 120.375C96.0625 120.615 96.4766 120.734 96.9922 120.734C97.4922 120.734 97.8724 120.641 98.1328 120.453C98.3932 120.26 98.5234 120.01 98.5234 119.703Z" fill="#333333"/>
<path d="M9.375 211.219H5.82812V221H3.86719V211.219H0.351562V209.625H9.375V211.219ZM14.6016 214.281C14.3516 214.24 14.0938 214.219 13.8281 214.219C12.9583 214.219 12.3724 214.552 12.0703 215.219V221H10.1719V212.547H11.9844L12.0312 213.492C12.4896 212.758 13.125 212.391 13.9375 212.391C14.2083 212.391 14.4323 212.427 14.6094 212.5L14.6016 214.281ZM20.6172 221C20.5339 220.839 20.4609 220.576 20.3984 220.211C19.7943 220.841 19.0547 221.156 18.1797 221.156C17.3307 221.156 16.638 220.914 16.1016 220.43C15.5651 219.945 15.2969 219.346 15.2969 218.633C15.2969 217.732 15.6302 217.042 16.2969 216.562C16.9688 216.078 17.9271 215.836 19.1719 215.836H20.3359V215.281C20.3359 214.844 20.2135 214.495 19.9688 214.234C19.724 213.969 19.3516 213.836 18.8516 213.836C18.4193 213.836 18.0651 213.945 17.7891 214.164C17.513 214.378 17.375 214.651 17.375 214.984H15.4766C15.4766 214.521 15.6302 214.089 15.9375 213.688C16.2448 213.281 16.6615 212.964 17.1875 212.734C17.7188 212.505 18.3099 212.391 18.9609 212.391C19.9505 212.391 20.7396 212.641 21.3281 213.141C21.9167 213.635 22.2188 214.333 22.2344 215.234V219.047C22.2344 219.807 22.3411 220.414 22.5547 220.867V221H20.6172ZM18.5312 219.633C18.9062 219.633 19.2578 219.542 19.5859 219.359C19.9193 219.177 20.1693 218.932 20.3359 218.625V217.031H19.3125C18.6094 217.031 18.0807 217.154 17.7266 217.398C17.3724 217.643 17.1953 217.99 17.1953 218.438C17.1953 218.802 17.3151 219.094 17.5547 219.312C17.7995 219.526 18.125 219.633 18.5312 219.633ZM23.8672 216.711C23.8672 215.409 24.1693 214.365 24.7734 213.578C25.3776 212.786 26.1875 212.391 27.2031 212.391C28.099 212.391 28.8229 212.703 29.375 213.328V209H31.2734V221H29.5547L29.4609 220.125C28.8932 220.812 28.1354 221.156 27.1875 221.156C26.1979 221.156 25.3958 220.758 24.7812 219.961C24.1719 219.164 23.8672 218.081 23.8672 216.711ZM25.7656 216.875C25.7656 217.734 25.9297 218.406 26.2578 218.891C26.5911 219.37 27.0625 219.609 27.6719 219.609C28.4479 219.609 29.0156 219.263 29.375 218.57V214.961C29.026 214.284 28.4635 213.945 27.6875 213.945C27.0729 213.945 26.599 214.19 26.2656 214.68C25.9323 215.164 25.7656 215.896 25.7656 216.875ZM36.9766 221.156C35.7734 221.156 34.7969 220.779 34.0469 220.023C33.3021 219.263 32.9297 218.253 32.9297 216.992V216.758C32.9297 215.914 33.0911 215.161 33.4141 214.5C33.7422 213.833 34.2005 213.315 34.7891 212.945C35.3776 212.576 36.0339 212.391 36.7578 212.391C37.9089 212.391 38.7969 212.758 39.4219 213.492C40.0521 214.227 40.3672 215.266 40.3672 216.609V217.375H34.8438C34.901 218.073 35.1328 218.625 35.5391 219.031C35.9505 219.438 36.4661 219.641 37.0859 219.641C37.9557 219.641 38.6641 219.289 39.2109 218.586L40.2344 219.562C39.8958 220.068 39.4427 220.461 38.875 220.742C38.3125 221.018 37.6797 221.156 36.9766 221.156ZM36.75 213.914C36.2292 213.914 35.8073 214.096 35.4844 214.461C35.1667 214.826 34.9635 215.333 34.875 215.984H38.4922V215.844C38.4505 215.208 38.2812 214.729 37.9844 214.406C37.6875 214.078 37.276 213.914 36.75 213.914ZM54.6953 217.297C54.5807 218.51 54.1328 219.458 53.3516 220.141C52.5703 220.818 51.5312 221.156 50.2344 221.156C49.3281 221.156 48.5286 220.943 47.8359 220.516C47.1484 220.083 46.6172 219.471 46.2422 218.68C45.8672 217.888 45.6719 216.969 45.6562 215.922V214.859C45.6562 213.786 45.8464 212.841 46.2266 212.023C46.6068 211.206 47.151 210.576 47.8594 210.133C48.5729 209.69 49.3958 209.469 50.3281 209.469C51.5833 209.469 52.5938 209.81 53.3594 210.492C54.125 211.174 54.5703 212.138 54.6953 213.383H52.7266C52.6328 212.565 52.3932 211.977 52.0078 211.617C51.6276 211.253 51.0677 211.07 50.3281 211.07C49.4688 211.07 48.8073 211.385 48.3438 212.016C47.8854 212.641 47.651 213.56 47.6406 214.773V215.781C47.6406 217.01 47.8594 217.948 48.2969 218.594C48.7396 219.24 49.3854 219.562 50.2344 219.562C51.0104 219.562 51.5938 219.388 51.9844 219.039C52.375 218.69 52.6224 218.109 52.7266 217.297H54.6953ZM55.9297 216.695C55.9297 215.867 56.0938 215.122 56.4219 214.461C56.75 213.794 57.2109 213.284 57.8047 212.93C58.3984 212.57 59.0807 212.391 59.8516 212.391C60.9922 212.391 61.9167 212.758 62.625 213.492C63.3385 214.227 63.724 215.201 63.7812 216.414L63.7891 216.859C63.7891 217.693 63.6276 218.438 63.3047 219.094C62.987 219.75 62.5286 220.258 61.9297 220.617C61.3359 220.977 60.6484 221.156 59.8672 221.156C58.6745 221.156 57.7188 220.76 57 219.969C56.2865 219.172 55.9297 218.112 55.9297 216.789V216.695ZM57.8281 216.859C57.8281 217.729 58.0078 218.411 58.3672 218.906C58.7266 219.396 59.2266 219.641 59.8672 219.641C60.5078 219.641 61.0052 219.391 61.3594 218.891C61.7188 218.391 61.8984 217.659 61.8984 216.695C61.8984 215.841 61.7135 215.164 61.3438 214.664C60.9792 214.164 60.4818 213.914 59.8516 213.914C59.2318 213.914 58.7396 214.161 58.375 214.656C58.0104 215.146 57.8281 215.88 57.8281 216.859ZM67.1797 212.547L67.2344 213.43C67.8281 212.737 68.6406 212.391 69.6719 212.391C70.8021 212.391 71.5755 212.823 71.9922 213.688C72.6068 212.823 73.4714 212.391 74.5859 212.391C75.5182 212.391 76.2109 212.648 76.6641 213.164C77.1224 213.68 77.3568 214.44 77.3672 215.445V221H75.4688V215.5C75.4688 214.964 75.3516 214.57 75.1172 214.32C74.8828 214.07 74.4948 213.945 73.9531 213.945C73.5208 213.945 73.1667 214.062 72.8906 214.297C72.6198 214.526 72.4297 214.828 72.3203 215.203L72.3281 221H70.4297V215.438C70.4036 214.443 69.8958 213.945 68.9062 213.945C68.1458 213.945 67.6068 214.255 67.2891 214.875V221H65.3906V212.547H67.1797ZM86.7188 216.859C86.7188 218.167 86.4219 219.211 85.8281 219.992C85.2344 220.768 84.4375 221.156 83.4375 221.156C82.5104 221.156 81.7682 220.852 81.2109 220.242V224.25H79.3125V212.547H81.0625L81.1406 213.406C81.6979 212.729 82.4557 212.391 83.4141 212.391C84.4453 212.391 85.2526 212.776 85.8359 213.547C86.4245 214.312 86.7188 215.378 86.7188 216.742V216.859ZM84.8281 216.695C84.8281 215.852 84.6589 215.182 84.3203 214.688C83.987 214.193 83.5078 213.945 82.8828 213.945C82.1068 213.945 81.5495 214.266 81.2109 214.906V218.656C81.5547 219.312 82.1172 219.641 82.8984 219.641C83.5026 219.641 83.974 219.398 84.3125 218.914C84.6562 218.424 84.8281 217.685 84.8281 216.695ZM93.3828 221C93.2995 220.839 93.2266 220.576 93.1641 220.211C92.5599 220.841 91.8203 221.156 90.9453 221.156C90.0964 221.156 89.4036 220.914 88.8672 220.43C88.3307 219.945 88.0625 219.346 88.0625 218.633C88.0625 217.732 88.3958 217.042 89.0625 216.562C89.7344 216.078 90.6927 215.836 91.9375 215.836H93.1016V215.281C93.1016 214.844 92.9792 214.495 92.7344 214.234C92.4896 213.969 92.1172 213.836 91.6172 213.836C91.1849 213.836 90.8307 213.945 90.5547 214.164C90.2786 214.378 90.1406 214.651 90.1406 214.984H88.2422C88.2422 214.521 88.3958 214.089 88.7031 213.688C89.0104 213.281 89.4271 212.964 89.9531 212.734C90.4844 212.505 91.0755 212.391 91.7266 212.391C92.7161 212.391 93.5052 212.641 94.0938 213.141C94.6823 213.635 94.9844 214.333 95 215.234V219.047C95 219.807 95.1068 220.414 95.3203 220.867V221H93.3828ZM91.2969 219.633C91.6719 219.633 92.0234 219.542 92.3516 219.359C92.6849 219.177 92.9349 218.932 93.1016 218.625V217.031H92.0781C91.375 217.031 90.8464 217.154 90.4922 217.398C90.138 217.643 89.9609 217.99 89.9609 218.438C89.9609 218.802 90.0807 219.094 90.3203 219.312C90.5651 219.526 90.8906 219.633 91.2969 219.633ZM98.75 212.547L98.8047 213.523C99.4297 212.768 100.25 212.391 101.266 212.391C103.026 212.391 103.922 213.398 103.953 215.414V221H102.055V215.523C102.055 214.987 101.938 214.591 101.703 214.336C101.474 214.076 101.096 213.945 100.57 213.945C99.8047 213.945 99.2344 214.292 98.8594 214.984V221H96.9609V212.547H98.75ZM108.852 218.281L110.57 212.547H112.594L109.234 222.281C108.719 223.703 107.844 224.414 106.609 224.414C106.333 224.414 106.029 224.367 105.695 224.273V222.805L106.055 222.828C106.534 222.828 106.893 222.74 107.133 222.562C107.378 222.391 107.57 222.099 107.711 221.688L107.984 220.961L105.016 212.547H107.062L108.852 218.281Z" fill="#333333"/>
<path d="M9.83594 266.297C9.72135 267.51 9.27344 268.458 8.49219 269.141C7.71094 269.818 6.67188 270.156 5.375 270.156C4.46875 270.156 3.66927 269.943 2.97656 269.516C2.28906 269.083 1.75781 268.471 1.38281 267.68C1.00781 266.888 0.8125 265.969 0.796875 264.922V263.859C0.796875 262.786 0.986979 261.841 1.36719 261.023C1.7474 260.206 2.29167 259.576 3 259.133C3.71354 258.69 4.53646 258.469 5.46875 258.469C6.72396 258.469 7.73438 258.81 8.5 259.492C9.26562 260.174 9.71094 261.138 9.83594 262.383H7.86719C7.77344 261.565 7.53385 260.977 7.14844 260.617C6.76823 260.253 6.20833 260.07 5.46875 260.07C4.60938 260.07 3.94792 260.385 3.48438 261.016C3.02604 261.641 2.79167 262.56 2.78125 263.773V264.781C2.78125 266.01 3 266.948 3.4375 267.594C3.88021 268.24 4.52604 268.562 5.375 268.562C6.15104 268.562 6.73438 268.388 7.125 268.039C7.51562 267.69 7.76302 267.109 7.86719 266.297H9.83594ZM17.5547 267.07C17.5547 266.57 17.3776 266.185 17.0234 265.914C16.6745 265.643 16.0417 265.37 15.125 265.094C14.2083 264.818 13.4792 264.51 12.9375 264.172C11.901 263.521 11.3828 262.672 11.3828 261.625C11.3828 260.708 11.7552 259.953 12.5 259.359C13.25 258.766 14.2214 258.469 15.4141 258.469C16.2057 258.469 16.9115 258.615 17.5312 258.906C18.151 259.198 18.638 259.615 18.9922 260.156C19.3464 260.693 19.5234 261.289 19.5234 261.945H17.5547C17.5547 261.352 17.3672 260.888 16.9922 260.555C16.6224 260.216 16.0911 260.047 15.3984 260.047C14.7526 260.047 14.25 260.185 13.8906 260.461C13.5365 260.737 13.3594 261.122 13.3594 261.617C13.3594 262.034 13.5521 262.383 13.9375 262.664C14.3229 262.94 14.9583 263.211 15.8438 263.477C16.7292 263.737 17.4401 264.036 17.9766 264.375C18.513 264.708 18.9062 265.094 19.1562 265.531C19.4062 265.964 19.5312 266.471 19.5312 267.055C19.5312 268.003 19.1667 268.758 18.4375 269.32C17.7135 269.878 16.7292 270.156 15.4844 270.156C14.6615 270.156 13.9036 270.005 13.2109 269.703C12.5234 269.396 11.987 268.974 11.6016 268.438C11.2214 267.901 11.0312 267.276 11.0312 266.562H13.0078C13.0078 267.208 13.2214 267.708 13.6484 268.062C14.0755 268.417 14.6875 268.594 15.4844 268.594C16.1719 268.594 16.6875 268.456 17.0312 268.18C17.3802 267.898 17.5547 267.529 17.5547 267.07ZM23.3516 270H21.3828V258.625H23.3516V270ZM38.4453 266.297C38.3307 267.51 37.8828 268.458 37.1016 269.141C36.3203 269.818 35.2812 270.156 33.9844 270.156C33.0781 270.156 32.2786 269.943 31.5859 269.516C30.8984 269.083 30.3672 268.471 29.9922 267.68C29.6172 266.888 29.4219 265.969 29.4062 264.922V263.859C29.4062 262.786 29.5964 261.841 29.9766 261.023C30.3568 260.206 30.901 259.576 31.6094 259.133C32.3229 258.69 33.1458 258.469 34.0781 258.469C35.3333 258.469 36.3438 258.81 37.1094 259.492C37.875 260.174 38.3203 261.138 38.4453 262.383H36.4766C36.3828 261.565 36.1432 260.977 35.7578 260.617C35.3776 260.253 34.8177 260.07 34.0781 260.07C33.2188 260.07 32.5573 260.385 32.0938 261.016C31.6354 261.641 31.401 262.56 31.3906 263.773V264.781C31.3906 266.01 31.6094 266.948 32.0469 267.594C32.4896 268.24 33.1354 268.562 33.9844 268.562C34.7604 268.562 35.3438 268.388 35.7344 268.039C36.125 267.69 36.3724 267.109 36.4766 266.297H38.4453ZM39.6797 265.695C39.6797 264.867 39.8438 264.122 40.1719 263.461C40.5 262.794 40.9609 262.284 41.5547 261.93C42.1484 261.57 42.8307 261.391 43.6016 261.391C44.7422 261.391 45.6667 261.758 46.375 262.492C47.0885 263.227 47.474 264.201 47.5312 265.414L47.5391 265.859C47.5391 266.693 47.3776 267.438 47.0547 268.094C46.737 268.75 46.2786 269.258 45.6797 269.617C45.0859 269.977 44.3984 270.156 43.6172 270.156C42.4245 270.156 41.4688 269.76 40.75 268.969C40.0365 268.172 39.6797 267.112 39.6797 265.789V265.695ZM41.5781 265.859C41.5781 266.729 41.7578 267.411 42.1172 267.906C42.4766 268.396 42.9766 268.641 43.6172 268.641C44.2578 268.641 44.7552 268.391 45.1094 267.891C45.4688 267.391 45.6484 266.659 45.6484 265.695C45.6484 264.841 45.4635 264.164 45.0938 263.664C44.7292 263.164 44.2318 262.914 43.6016 262.914C42.9818 262.914 42.4896 263.161 42.125 263.656C41.7604 264.146 41.5781 264.88 41.5781 265.859ZM48.7891 265.711C48.7891 264.409 49.0911 263.365 49.6953 262.578C50.2995 261.786 51.1094 261.391 52.125 261.391C53.0208 261.391 53.7448 261.703 54.2969 262.328V258H56.1953V270H54.4766L54.3828 269.125C53.8151 269.812 53.0573 270.156 52.1094 270.156C51.1198 270.156 50.3177 269.758 49.7031 268.961C49.0938 268.164 48.7891 267.081 48.7891 265.711ZM50.6875 265.875C50.6875 266.734 50.8516 267.406 51.1797 267.891C51.513 268.37 51.9844 268.609 52.5938 268.609C53.3698 268.609 53.9375 268.263 54.2969 267.57V263.961C53.9479 263.284 53.3854 262.945 52.6094 262.945C51.9948 262.945 51.5208 263.19 51.1875 263.68C50.8542 264.164 50.6875 264.896 50.6875 265.875ZM61.8984 270.156C60.6953 270.156 59.7188 269.779 58.9688 269.023C58.224 268.263 57.8516 267.253 57.8516 265.992V265.758C57.8516 264.914 58.013 264.161 58.3359 263.5C58.6641 262.833 59.1224 262.315 59.7109 261.945C60.2995 261.576 60.9557 261.391 61.6797 261.391C62.8307 261.391 63.7188 261.758 64.3438 262.492C64.974 263.227 65.2891 264.266 65.2891 265.609V266.375H59.7656C59.8229 267.073 60.0547 267.625 60.4609 268.031C60.8724 268.438 61.388 268.641 62.0078 268.641C62.8776 268.641 63.5859 268.289 64.1328 267.586L65.1562 268.562C64.8177 269.068 64.3646 269.461 63.7969 269.742C63.2344 270.018 62.6016 270.156 61.8984 270.156ZM61.6719 262.914C61.151 262.914 60.7292 263.096 60.4062 263.461C60.0885 263.826 59.8854 264.333 59.7969 264.984H63.4141V264.844C63.3724 264.208 63.2031 263.729 62.9062 263.406C62.6094 263.078 62.1979 262.914 61.6719 262.914Z" fill="#333333"/>
<path d="M5.33594 314.617H3.13281V319H1.15625V307.625H5.15625C6.46875 307.625 7.48177 307.919 8.19531 308.508C8.90885 309.096 9.26562 309.948 9.26562 311.062C9.26562 311.823 9.08073 312.461 8.71094 312.977C8.34635 313.487 7.83594 313.88 7.17969 314.156L9.73438 318.898V319H7.61719L5.33594 314.617ZM3.13281 313.031H5.16406C5.83073 313.031 6.35156 312.865 6.72656 312.531C7.10156 312.193 7.28906 311.732 7.28906 311.148C7.28906 310.539 7.11458 310.068 6.76562 309.734C6.42188 309.401 5.90625 309.229 5.21875 309.219H3.13281V313.031ZM14.6797 319.156C13.4766 319.156 12.5 318.779 11.75 318.023C11.0052 317.263 10.6328 316.253 10.6328 314.992V314.758C10.6328 313.914 10.7943 313.161 11.1172 312.5C11.4453 311.833 11.9036 311.315 12.4922 310.945C13.0807 310.576 13.737 310.391 14.4609 310.391C15.612 310.391 16.5 310.758 17.125 311.492C17.7552 312.227 18.0703 313.266 18.0703 314.609V315.375H12.5469C12.6042 316.073 12.8359 316.625 13.2422 317.031C13.6536 317.438 14.1693 317.641 14.7891 317.641C15.6589 317.641 16.3672 317.289 16.9141 316.586L17.9375 317.562C17.599 318.068 17.1458 318.461 16.5781 318.742C16.0156 319.018 15.3828 319.156 14.6797 319.156ZM14.4531 311.914C13.9323 311.914 13.5104 312.096 13.1875 312.461C12.8698 312.826 12.6667 313.333 12.5781 313.984H16.1953V313.844C16.1536 313.208 15.9844 312.729 15.6875 312.406C15.3906 312.078 14.9792 311.914 14.4531 311.914ZM22.4219 316.594L24.2109 310.547H26.1719L23.2422 319H21.5938L18.6406 310.547H20.6094L22.4219 316.594ZM29.3828 319H27.4844V310.547H29.3828V319ZM27.3672 308.352C27.3672 308.06 27.4583 307.818 27.6406 307.625C27.8281 307.432 28.0938 307.336 28.4375 307.336C28.7812 307.336 29.0469 307.432 29.2344 307.625C29.4219 307.818 29.5156 308.06 29.5156 308.352C29.5156 308.638 29.4219 308.878 29.2344 309.07C29.0469 309.258 28.7812 309.352 28.4375 309.352C28.0938 309.352 27.8281 309.258 27.6406 309.07C27.4583 308.878 27.3672 308.638 27.3672 308.352ZM36.1953 316.703C36.1953 316.365 36.0547 316.107 35.7734 315.93C35.4974 315.753 35.0365 315.596 34.3906 315.461C33.7448 315.326 33.2057 315.154 32.7734 314.945C31.8255 314.487 31.3516 313.823 31.3516 312.953C31.3516 312.224 31.6589 311.615 32.2734 311.125C32.888 310.635 33.6693 310.391 34.6172 310.391C35.6276 310.391 36.4427 310.641 37.0625 311.141C37.6875 311.641 38 312.289 38 313.086H36.1016C36.1016 312.721 35.9661 312.419 35.6953 312.18C35.4245 311.935 35.0651 311.812 34.6172 311.812C34.2005 311.812 33.8594 311.909 33.5938 312.102C33.3333 312.294 33.2031 312.552 33.2031 312.875C33.2031 313.167 33.3255 313.393 33.5703 313.555C33.8151 313.716 34.3099 313.88 35.0547 314.047C35.7995 314.208 36.3828 314.404 36.8047 314.633C37.2318 314.857 37.5469 315.128 37.75 315.445C37.9583 315.763 38.0625 316.148 38.0625 316.602C38.0625 317.362 37.7474 317.979 37.1172 318.453C36.487 318.922 35.6615 319.156 34.6406 319.156C33.9479 319.156 33.3307 319.031 32.7891 318.781C32.2474 318.531 31.8255 318.188 31.5234 317.75C31.2214 317.312 31.0703 316.841 31.0703 316.336H32.9141C32.9401 316.784 33.1094 317.13 33.4219 317.375C33.7344 317.615 34.1484 317.734 34.6641 317.734C35.1641 317.734 35.5443 317.641 35.8047 317.453C36.0651 317.26 36.1953 317.01 36.1953 316.703ZM41.7422 319H39.8438V310.547H41.7422V319ZM39.7266 308.352C39.7266 308.06 39.8177 307.818 40 307.625C40.1875 307.432 40.4531 307.336 40.7969 307.336C41.1406 307.336 41.4062 307.432 41.5938 307.625C41.7812 307.818 41.875 308.06 41.875 308.352C41.875 308.638 41.7812 308.878 41.5938 309.07C41.4062 309.258 41.1406 309.352 40.7969 309.352C40.4531 309.352 40.1875 309.258 40 309.07C39.8177 308.878 39.7266 308.638 39.7266 308.352ZM43.4609 314.695C43.4609 313.867 43.625 313.122 43.9531 312.461C44.2812 311.794 44.7422 311.284 45.3359 310.93C45.9297 310.57 46.612 310.391 47.3828 310.391C48.5234 310.391 49.4479 310.758 50.1562 311.492C50.8698 312.227 51.2552 313.201 51.3125 314.414L51.3203 314.859C51.3203 315.693 51.1589 316.438 50.8359 317.094C50.5182 317.75 50.0599 318.258 49.4609 318.617C48.8672 318.977 48.1797 319.156 47.3984 319.156C46.2057 319.156 45.25 318.76 44.5312 317.969C43.8177 317.172 43.4609 316.112 43.4609 314.789V314.695ZM45.3594 314.859C45.3594 315.729 45.5391 316.411 45.8984 316.906C46.2578 317.396 46.7578 317.641 47.3984 317.641C48.0391 317.641 48.5365 317.391 48.8906 316.891C49.25 316.391 49.4297 315.659 49.4297 314.695C49.4297 313.841 49.2448 313.164 48.875 312.664C48.5104 312.164 48.013 311.914 47.3828 311.914C46.763 311.914 46.2708 312.161 45.9062 312.656C45.5417 313.146 45.3594 313.88 45.3594 314.859ZM54.6875 310.547L54.7422 311.523C55.3672 310.768 56.1875 310.391 57.2031 310.391C58.9635 310.391 59.8594 311.398 59.8906 313.414V319H57.9922V313.523C57.9922 312.987 57.875 312.591 57.6406 312.336C57.4115 312.076 57.0339 311.945 56.5078 311.945C55.7422 311.945 55.1719 312.292 54.7969 312.984V319H52.8984V310.547H54.6875ZM70.1797 314.617H67.9766V319H66V307.625H70C71.3125 307.625 72.3255 307.919 73.0391 308.508C73.7526 309.096 74.1094 309.948 74.1094 311.062C74.1094 311.823 73.9245 312.461 73.5547 312.977C73.1901 313.487 72.6797 313.88 72.0234 314.156L74.5781 318.898V319H72.4609L70.1797 314.617ZM67.9766 313.031H70.0078C70.6745 313.031 71.1953 312.865 71.5703 312.531C71.9453 312.193 72.1328 311.732 72.1328 311.148C72.1328 310.539 71.9583 310.068 71.6094 309.734C71.2656 309.401 70.75 309.229 70.0625 309.219H67.9766V313.031ZM75.4453 314.695C75.4453 313.867 75.6094 313.122 75.9375 312.461C76.2656 311.794 76.7266 311.284 77.3203 310.93C77.9141 310.57 78.5964 310.391 79.3672 310.391C80.5078 310.391 81.4323 310.758 82.1406 311.492C82.8542 312.227 83.2396 313.201 83.2969 314.414L83.3047 314.859C83.3047 315.693 83.1432 316.438 82.8203 317.094C82.5026 317.75 82.0443 318.258 81.4453 318.617C80.8516 318.977 80.1641 319.156 79.3828 319.156C78.1901 319.156 77.2344 318.76 76.5156 317.969C75.8021 317.172 75.4453 316.112 75.4453 314.789V314.695ZM77.3438 314.859C77.3438 315.729 77.5234 316.411 77.8828 316.906C78.2422 317.396 78.7422 317.641 79.3828 317.641C80.0234 317.641 80.5208 317.391 80.875 316.891C81.2344 316.391 81.4141 315.659 81.4141 314.695C81.4141 313.841 81.2292 313.164 80.8594 312.664C80.4948 312.164 79.9974 311.914 79.3672 311.914C78.7474 311.914 78.2552 312.161 77.8906 312.656C77.526 313.146 77.3438 313.88 77.3438 314.859ZM90.0312 318.172C89.474 318.828 88.6823 319.156 87.6562 319.156C86.7396 319.156 86.0443 318.888 85.5703 318.352C85.1016 317.815 84.8672 317.039 84.8672 316.023V310.547H86.7656V316C86.7656 317.073 87.2109 317.609 88.1016 317.609C89.0234 317.609 89.6458 317.279 89.9688 316.617V310.547H91.8672V319H90.0781L90.0312 318.172ZM95.5625 310.547L95.6172 311.523C96.2422 310.768 97.0625 310.391 98.0781 310.391C99.8385 310.391 100.734 311.398 100.766 313.414V319H98.8672V313.523C98.8672 312.987 98.75 312.591 98.5156 312.336C98.2865 312.076 97.9089 311.945 97.3828 311.945C96.6172 311.945 96.0469 312.292 95.6719 312.984V319H93.7734V310.547H95.5625ZM102.352 314.711C102.352 313.409 102.654 312.365 103.258 311.578C103.862 310.786 104.672 310.391 105.688 310.391C106.583 310.391 107.307 310.703 107.859 311.328V307H109.758V319H108.039L107.945 318.125C107.378 318.812 106.62 319.156 105.672 319.156C104.682 319.156 103.88 318.758 103.266 317.961C102.656 317.164 102.352 316.081 102.352 314.711ZM104.25 314.875C104.25 315.734 104.414 316.406 104.742 316.891C105.076 317.37 105.547 317.609 106.156 317.609C106.932 317.609 107.5 317.263 107.859 316.57V312.961C107.51 312.284 106.948 311.945 106.172 311.945C105.557 311.945 105.083 312.19 104.75 312.68C104.417 313.164 104.25 313.896 104.25 314.875Z" fill="#333333"/>
<path d="M1.15625 368V356.625H5.05469C6.34115 356.625 7.32031 356.883 7.99219 357.398C8.66406 357.914 9 358.682 9 359.703C9 360.224 8.85938 360.693 8.57812 361.109C8.29688 361.526 7.88542 361.849 7.34375 362.078C7.95833 362.245 8.43229 362.56 8.76562 363.023C9.10417 363.482 9.27344 364.034 9.27344 364.68C9.27344 365.747 8.92969 366.568 8.24219 367.141C7.5599 367.714 6.58073 368 5.30469 368H1.15625ZM3.13281 362.867V366.422H5.32812C5.94792 366.422 6.43229 366.268 6.78125 365.961C7.13021 365.654 7.30469 365.227 7.30469 364.68C7.30469 363.497 6.70052 362.893 5.49219 362.867H3.13281ZM3.13281 361.414H5.07031C5.6849 361.414 6.16406 361.276 6.50781 361C6.85677 360.719 7.03125 360.323 7.03125 359.812C7.03125 359.25 6.86979 358.844 6.54688 358.594C6.22917 358.344 5.73177 358.219 5.05469 358.219H3.13281V361.414ZM13.0859 368H11.1875V359.547H13.0859V368ZM11.0703 357.352C11.0703 357.06 11.1615 356.818 11.3438 356.625C11.5312 356.432 11.7969 356.336 12.1406 356.336C12.4844 356.336 12.75 356.432 12.9375 356.625C13.125 356.818 13.2188 357.06 13.2188 357.352C13.2188 357.638 13.125 357.878 12.9375 358.07C12.75 358.258 12.4844 358.352 12.1406 358.352C11.7969 358.352 11.5312 358.258 11.3438 358.07C11.1615 357.878 11.0703 357.638 11.0703 357.352ZM14.8047 363.711C14.8047 362.409 15.1068 361.365 15.7109 360.578C16.3151 359.786 17.125 359.391 18.1406 359.391C19.0365 359.391 19.7604 359.703 20.3125 360.328V356H22.2109V368H20.4922L20.3984 367.125C19.8307 367.812 19.0729 368.156 18.125 368.156C17.1354 368.156 16.3333 367.758 15.7188 366.961C15.1094 366.164 14.8047 365.081 14.8047 363.711ZM16.7031 363.875C16.7031 364.734 16.8672 365.406 17.1953 365.891C17.5286 366.37 18 366.609 18.6094 366.609C19.3854 366.609 19.9531 366.263 20.3125 365.57V361.961C19.9635 361.284 19.401 360.945 18.625 360.945C18.0104 360.945 17.5365 361.19 17.2031 361.68C16.8698 362.164 16.7031 362.896 16.7031 363.875ZM30.3359 363.773V368H28.3594V356.625H32.7109C33.9818 356.625 34.9896 356.956 35.7344 357.617C36.4844 358.279 36.8594 359.154 36.8594 360.242C36.8594 361.357 36.4922 362.224 35.7578 362.844C35.0286 363.464 34.0052 363.773 32.6875 363.773H30.3359ZM30.3359 362.188H32.7109C33.4141 362.188 33.9505 362.023 34.3203 361.695C34.6901 361.362 34.875 360.883 34.875 360.258C34.875 359.643 34.6875 359.154 34.3125 358.789C33.9375 358.419 33.4219 358.229 32.7656 358.219H30.3359V362.188ZM43.3672 368C43.2839 367.839 43.2109 367.576 43.1484 367.211C42.5443 367.841 41.8047 368.156 40.9297 368.156C40.0807 368.156 39.388 367.914 38.8516 367.43C38.3151 366.945 38.0469 366.346 38.0469 365.633C38.0469 364.732 38.3802 364.042 39.0469 363.562C39.7188 363.078 40.6771 362.836 41.9219 362.836H43.0859V362.281C43.0859 361.844 42.9635 361.495 42.7188 361.234C42.474 360.969 42.1016 360.836 41.6016 360.836C41.1693 360.836 40.8151 360.945 40.5391 361.164C40.263 361.378 40.125 361.651 40.125 361.984H38.2266C38.2266 361.521 38.3802 361.089 38.6875 360.688C38.9948 360.281 39.4115 359.964 39.9375 359.734C40.4688 359.505 41.0599 359.391 41.7109 359.391C42.7005 359.391 43.4896 359.641 44.0781 360.141C44.6667 360.635 44.9688 361.333 44.9844 362.234V366.047C44.9844 366.807 45.0911 367.414 45.3047 367.867V368H43.3672ZM41.2812 366.633C41.6562 366.633 42.0078 366.542 42.3359 366.359C42.6693 366.177 42.9193 365.932 43.0859 365.625V364.031H42.0625C41.3594 364.031 40.8307 364.154 40.4766 364.398C40.1224 364.643 39.9453 364.99 39.9453 365.438C39.9453 365.802 40.0651 366.094 40.3047 366.312C40.5495 366.526 40.875 366.633 41.2812 366.633ZM50.4453 366.641C50.9193 366.641 51.3125 366.503 51.625 366.227C51.9375 365.951 52.1042 365.609 52.125 365.203H53.9141C53.8932 365.729 53.7292 366.221 53.4219 366.68C53.1146 367.133 52.6979 367.492 52.1719 367.758C51.6458 368.023 51.0781 368.156 50.4688 368.156C49.2865 368.156 48.349 367.773 47.6562 367.008C46.9635 366.242 46.6172 365.185 46.6172 363.836V363.641C46.6172 362.354 46.9609 361.326 47.6484 360.555C48.3359 359.779 49.2734 359.391 50.4609 359.391C51.4661 359.391 52.2839 359.685 52.9141 360.273C53.5495 360.857 53.8828 361.625 53.9141 362.578H52.125C52.1042 362.094 51.9375 361.695 51.625 361.383C51.3177 361.07 50.9245 360.914 50.4453 360.914C49.8307 360.914 49.3568 361.138 49.0234 361.586C48.6901 362.029 48.5208 362.703 48.5156 363.609V363.914C48.5156 364.831 48.6797 365.516 49.0078 365.969C49.3411 366.417 49.8203 366.641 50.4453 366.641ZM58.0938 364.375L57.25 365.242V368H55.3516V356H57.25V362.922L57.8438 362.18L60.1797 359.547H62.4609L59.3203 363.07L62.7969 368H60.6016L58.0938 364.375ZM68.7578 368C68.6745 367.839 68.6016 367.576 68.5391 367.211C67.9349 367.841 67.1953 368.156 66.3203 368.156C65.4714 368.156 64.7786 367.914 64.2422 367.43C63.7057 366.945 63.4375 366.346 63.4375 365.633C63.4375 364.732 63.7708 364.042 64.4375 363.562C65.1094 363.078 66.0677 362.836 67.3125 362.836H68.4766V362.281C68.4766 361.844 68.3542 361.495 68.1094 361.234C67.8646 360.969 67.4922 360.836 66.9922 360.836C66.5599 360.836 66.2057 360.945 65.9297 361.164C65.6536 361.378 65.5156 361.651 65.5156 361.984H63.6172C63.6172 361.521 63.7708 361.089 64.0781 360.688C64.3854 360.281 64.8021 359.964 65.3281 359.734C65.8594 359.505 66.4505 359.391 67.1016 359.391C68.0911 359.391 68.8802 359.641 69.4688 360.141C70.0573 360.635 70.3594 361.333 70.375 362.234V366.047C70.375 366.807 70.4818 367.414 70.6953 367.867V368H68.7578ZM66.6719 366.633C67.0469 366.633 67.3984 366.542 67.7266 366.359C68.0599 366.177 68.3099 365.932 68.4766 365.625V364.031H67.4531C66.75 364.031 66.2214 364.154 65.8672 364.398C65.513 364.643 65.3359 364.99 65.3359 365.438C65.3359 365.802 65.4557 366.094 65.6953 366.312C65.9401 366.526 66.2656 366.633 66.6719 366.633ZM72.0312 363.711C72.0312 362.398 72.3385 361.352 72.9531 360.57C73.5729 359.784 74.3932 359.391 75.4141 359.391C76.3776 359.391 77.1354 359.727 77.6875 360.398L77.7734 359.547H79.4844V367.742C79.4844 368.852 79.138 369.727 78.4453 370.367C77.7578 371.008 76.8281 371.328 75.6562 371.328C75.0365 371.328 74.4297 371.198 73.8359 370.938C73.2474 370.682 72.7995 370.346 72.4922 369.93L73.3906 368.789C73.974 369.482 74.6927 369.828 75.5469 369.828C76.1771 369.828 76.6745 369.656 77.0391 369.312C77.4036 368.974 77.5859 368.474 77.5859 367.812V367.242C77.0391 367.852 76.3099 368.156 75.3984 368.156C74.4089 368.156 73.599 367.763 72.9688 366.977C72.3438 366.19 72.0312 365.102 72.0312 363.711ZM73.9219 363.875C73.9219 364.724 74.0938 365.393 74.4375 365.883C74.7865 366.367 75.2682 366.609 75.8828 366.609C76.6484 366.609 77.2161 366.281 77.5859 365.625V361.906C77.2266 361.266 76.6641 360.945 75.8984 360.945C75.2734 360.945 74.7865 361.193 74.4375 361.688C74.0938 362.182 73.9219 362.911 73.9219 363.875ZM85.1641 368.156C83.9609 368.156 82.9844 367.779 82.2344 367.023C81.4896 366.263 81.1172 365.253 81.1172 363.992V363.758C81.1172 362.914 81.2786 362.161 81.6016 361.5C81.9297 360.833 82.388 360.315 82.9766 359.945C83.5651 359.576 84.2214 359.391 84.9453 359.391C86.0964 359.391 86.9844 359.758 87.6094 360.492C88.2396 361.227 88.5547 362.266 88.5547 363.609V364.375H83.0312C83.0885 365.073 83.3203 365.625 83.7266 366.031C84.138 366.438 84.6536 366.641 85.2734 366.641C86.1432 366.641 86.8516 366.289 87.3984 365.586L88.4219 366.562C88.0833 367.068 87.6302 367.461 87.0625 367.742C86.5 368.018 85.8672 368.156 85.1641 368.156ZM84.9375 360.914C84.4167 360.914 83.9948 361.096 83.6719 361.461C83.3542 361.826 83.151 362.333 83.0625 362.984H86.6797V362.844C86.638 362.208 86.4688 361.729 86.1719 361.406C85.875 361.078 85.4635 360.914 84.9375 360.914Z" fill="#333333"/>
<path d="M10.2344 454.609C10.2344 455.724 10.0417 456.703 9.65625 457.547C9.27083 458.385 8.71875 459.031 8 459.484C7.28646 459.932 6.46354 460.156 5.53125 460.156C4.60938 460.156 3.78646 459.932 3.0625 459.484C2.34375 459.031 1.78646 458.388 1.39062 457.555C1 456.721 0.802083 455.76 0.796875 454.672V454.031C0.796875 452.922 0.992188 451.943 1.38281 451.094C1.77865 450.245 2.33333 449.596 3.04688 449.148C3.76562 448.695 4.58854 448.469 5.51562 448.469C6.44271 448.469 7.26302 448.693 7.97656 449.141C8.69531 449.583 9.25 450.224 9.64062 451.062C10.0312 451.896 10.2292 452.867 10.2344 453.977V454.609ZM8.25781 454.016C8.25781 452.755 8.01823 451.789 7.53906 451.117C7.0651 450.445 6.39062 450.109 5.51562 450.109C4.66146 450.109 3.99219 450.445 3.50781 451.117C3.02865 451.784 2.78385 452.729 2.77344 453.953V454.609C2.77344 455.859 3.01562 456.826 3.5 457.508C3.98958 458.19 4.66667 458.531 5.53125 458.531C6.40625 458.531 7.07812 458.198 7.54688 457.531C8.02083 456.865 8.25781 455.891 8.25781 454.609V454.016ZM19.4219 455.859C19.4219 457.167 19.125 458.211 18.5312 458.992C17.9375 459.768 17.1406 460.156 16.1406 460.156C15.2135 460.156 14.4714 459.852 13.9141 459.242V463.25H12.0156V451.547H13.7656L13.8438 452.406C14.401 451.729 15.1589 451.391 16.1172 451.391C17.1484 451.391 17.9557 451.776 18.5391 452.547C19.1276 453.312 19.4219 454.378 19.4219 455.742V455.859ZM17.5312 455.695C17.5312 454.852 17.362 454.182 17.0234 453.688C16.6901 453.193 16.2109 452.945 15.5859 452.945C14.8099 452.945 14.2526 453.266 13.9141 453.906V457.656C14.2578 458.312 14.8203 458.641 15.6016 458.641C16.2057 458.641 16.6771 458.398 17.0156 457.914C17.3594 457.424 17.5312 456.685 17.5312 455.695ZM24.7578 460.156C23.5547 460.156 22.5781 459.779 21.8281 459.023C21.0833 458.263 20.7109 457.253 20.7109 455.992V455.758C20.7109 454.914 20.8724 454.161 21.1953 453.5C21.5234 452.833 21.9818 452.315 22.5703 451.945C23.1589 451.576 23.8151 451.391 24.5391 451.391C25.6901 451.391 26.5781 451.758 27.2031 452.492C27.8333 453.227 28.1484 454.266 28.1484 455.609V456.375H22.625C22.6823 457.073 22.9141 457.625 23.3203 458.031C23.7318 458.438 24.2474 458.641 24.8672 458.641C25.737 458.641 26.4453 458.289 26.9922 457.586L28.0156 458.562C27.6771 459.068 27.224 459.461 26.6562 459.742C26.0938 460.018 25.4609 460.156 24.7578 460.156ZM24.5312 452.914C24.0104 452.914 23.5885 453.096 23.2656 453.461C22.9479 453.826 22.7448 454.333 22.6562 454.984H26.2734V454.844C26.2318 454.208 26.0625 453.729 25.7656 453.406C25.4688 453.078 25.0573 452.914 24.5312 452.914ZM31.3906 451.547L31.4453 452.523C32.0703 451.768 32.8906 451.391 33.9062 451.391C35.6667 451.391 36.5625 452.398 36.5938 454.414V460H34.6953V454.523C34.6953 453.987 34.5781 453.591 34.3438 453.336C34.1146 453.076 33.737 452.945 33.2109 452.945C32.4453 452.945 31.875 453.292 31.5 453.984V460H29.6016V451.547H31.3906ZM42.7031 460V448.625H46.0625C47.0677 448.625 47.9583 448.849 48.7344 449.297C49.5156 449.745 50.1198 450.38 50.5469 451.203C50.974 452.026 51.1875 452.969 51.1875 454.031V454.602C51.1875 455.68 50.9714 456.628 50.5391 457.445C50.112 458.263 49.5 458.893 48.7031 459.336C47.9115 459.779 47.0026 460 45.9766 460H42.7031ZM44.6797 450.219V458.422H45.9688C47.0052 458.422 47.7995 458.099 48.3516 457.453C48.9089 456.802 49.1927 455.87 49.2031 454.656V454.023C49.2031 452.789 48.9349 451.846 48.3984 451.195C47.862 450.544 47.0833 450.219 46.0625 450.219H44.6797ZM58.0234 460C57.9401 459.839 57.8672 459.576 57.8047 459.211C57.2005 459.841 56.4609 460.156 55.5859 460.156C54.737 460.156 54.0443 459.914 53.5078 459.43C52.9714 458.945 52.7031 458.346 52.7031 457.633C52.7031 456.732 53.0365 456.042 53.7031 455.562C54.375 455.078 55.3333 454.836 56.5781 454.836H57.7422V454.281C57.7422 453.844 57.6198 453.495 57.375 453.234C57.1302 452.969 56.7578 452.836 56.2578 452.836C55.8255 452.836 55.4714 452.945 55.1953 453.164C54.9193 453.378 54.7812 453.651 54.7812 453.984H52.8828C52.8828 453.521 53.0365 453.089 53.3438 452.688C53.651 452.281 54.0677 451.964 54.5938 451.734C55.125 451.505 55.7161 451.391 56.3672 451.391C57.3568 451.391 58.1458 451.641 58.7344 452.141C59.3229 452.635 59.625 453.333 59.6406 454.234V458.047C59.6406 458.807 59.7474 459.414 59.9609 459.867V460H58.0234ZM55.9375 458.633C56.3125 458.633 56.6641 458.542 56.9922 458.359C57.3255 458.177 57.5755 457.932 57.7422 457.625V456.031H56.7188C56.0156 456.031 55.487 456.154 55.1328 456.398C54.7786 456.643 54.6016 456.99 54.6016 457.438C54.6016 457.802 54.7214 458.094 54.9609 458.312C55.2057 458.526 55.5312 458.633 55.9375 458.633ZM64.0078 449.492V451.547H65.5V452.953H64.0078V457.672C64.0078 457.995 64.0703 458.229 64.1953 458.375C64.3255 458.516 64.5547 458.586 64.8828 458.586C65.1016 458.586 65.3229 458.56 65.5469 458.508V459.977C65.1146 460.096 64.6979 460.156 64.2969 460.156C62.8385 460.156 62.1094 459.352 62.1094 457.742V452.953H60.7188V451.547H62.1094V449.492H64.0078ZM70.6797 460.156C69.4766 460.156 68.5 459.779 67.75 459.023C67.0052 458.263 66.6328 457.253 66.6328 455.992V455.758C66.6328 454.914 66.7943 454.161 67.1172 453.5C67.4453 452.833 67.9036 452.315 68.4922 451.945C69.0807 451.576 69.737 451.391 70.4609 451.391C71.612 451.391 72.5 451.758 73.125 452.492C73.7552 453.227 74.0703 454.266 74.0703 455.609V456.375H68.5469C68.6042 457.073 68.8359 457.625 69.2422 458.031C69.6536 458.438 70.1693 458.641 70.7891 458.641C71.6589 458.641 72.3672 458.289 72.9141 457.586L73.9375 458.562C73.599 459.068 73.1458 459.461 72.5781 459.742C72.0156 460.018 71.3828 460.156 70.6797 460.156ZM70.4531 452.914C69.9323 452.914 69.5104 453.096 69.1875 453.461C68.8698 453.826 68.6667 454.333 68.5781 454.984H72.1953V454.844C72.1536 454.208 71.9844 453.729 71.6875 453.406C71.3906 453.078 70.9792 452.914 70.4531 452.914Z" fill="#333333"/>
<path d="M9.375 407.219H5.82812V417H3.86719V407.219H0.351562V405.625H9.375V407.219ZM14.6016 410.281C14.3516 410.24 14.0938 410.219 13.8281 410.219C12.9583 410.219 12.3724 410.552 12.0703 411.219V417H10.1719V408.547H11.9844L12.0312 409.492C12.4896 408.758 13.125 408.391 13.9375 408.391C14.2083 408.391 14.4323 408.427 14.6094 408.5L14.6016 410.281ZM20.6172 417C20.5339 416.839 20.4609 416.576 20.3984 416.211C19.7943 416.841 19.0547 417.156 18.1797 417.156C17.3307 417.156 16.638 416.914 16.1016 416.43C15.5651 415.945 15.2969 415.346 15.2969 414.633C15.2969 413.732 15.6302 413.042 16.2969 412.562C16.9688 412.078 17.9271 411.836 19.1719 411.836H20.3359V411.281C20.3359 410.844 20.2135 410.495 19.9688 410.234C19.724 409.969 19.3516 409.836 18.8516 409.836C18.4193 409.836 18.0651 409.945 17.7891 410.164C17.513 410.378 17.375 410.651 17.375 410.984H15.4766C15.4766 410.521 15.6302 410.089 15.9375 409.688C16.2448 409.281 16.6615 408.964 17.1875 408.734C17.7188 408.505 18.3099 408.391 18.9609 408.391C19.9505 408.391 20.7396 408.641 21.3281 409.141C21.9167 409.635 22.2188 410.333 22.2344 411.234V415.047C22.2344 415.807 22.3411 416.414 22.5547 416.867V417H20.6172ZM18.5312 415.633C18.9062 415.633 19.2578 415.542 19.5859 415.359C19.9193 415.177 20.1693 414.932 20.3359 414.625V413.031H19.3125C18.6094 413.031 18.0807 413.154 17.7266 413.398C17.3724 413.643 17.1953 413.99 17.1953 414.438C17.1953 414.802 17.3151 415.094 17.5547 415.312C17.7995 415.526 18.125 415.633 18.5312 415.633ZM23.8672 412.711C23.8672 411.409 24.1693 410.365 24.7734 409.578C25.3776 408.786 26.1875 408.391 27.2031 408.391C28.099 408.391 28.8229 408.703 29.375 409.328V405H31.2734V417H29.5547L29.4609 416.125C28.8932 416.812 28.1354 417.156 27.1875 417.156C26.1979 417.156 25.3958 416.758 24.7812 415.961C24.1719 415.164 23.8672 414.081 23.8672 412.711ZM25.7656 412.875C25.7656 413.734 25.9297 414.406 26.2578 414.891C26.5911 415.37 27.0625 415.609 27.6719 415.609C28.4479 415.609 29.0156 415.263 29.375 414.57V410.961C29.026 410.284 28.4635 409.945 27.6875 409.945C27.0729 409.945 26.599 410.19 26.2656 410.68C25.9323 411.164 25.7656 411.896 25.7656 412.875ZM36.9766 417.156C35.7734 417.156 34.7969 416.779 34.0469 416.023C33.3021 415.263 32.9297 414.253 32.9297 412.992V412.758C32.9297 411.914 33.0911 411.161 33.4141 410.5C33.7422 409.833 34.2005 409.315 34.7891 408.945C35.3776 408.576 36.0339 408.391 36.7578 408.391C37.9089 408.391 38.7969 408.758 39.4219 409.492C40.0521 410.227 40.3672 411.266 40.3672 412.609V413.375H34.8438C34.901 414.073 35.1328 414.625 35.5391 415.031C35.9505 415.438 36.4661 415.641 37.0859 415.641C37.9557 415.641 38.6641 415.289 39.2109 414.586L40.2344 415.562C39.8958 416.068 39.4427 416.461 38.875 416.742C38.3125 417.018 37.6797 417.156 36.9766 417.156ZM36.75 409.914C36.2292 409.914 35.8073 410.096 35.4844 410.461C35.1667 410.826 34.9635 411.333 34.875 411.984H38.4922V411.844C38.4505 411.208 38.2812 410.729 37.9844 410.406C37.6875 410.078 37.276 409.914 36.75 409.914ZM54.6953 413.297C54.5807 414.51 54.1328 415.458 53.3516 416.141C52.5703 416.818 51.5312 417.156 50.2344 417.156C49.3281 417.156 48.5286 416.943 47.8359 416.516C47.1484 416.083 46.6172 415.471 46.2422 414.68C45.8672 413.888 45.6719 412.969 45.6562 411.922V410.859C45.6562 409.786 45.8464 408.841 46.2266 408.023C46.6068 407.206 47.151 406.576 47.8594 406.133C48.5729 405.69 49.3958 405.469 50.3281 405.469C51.5833 405.469 52.5938 405.81 53.3594 406.492C54.125 407.174 54.5703 408.138 54.6953 409.383H52.7266C52.6328 408.565 52.3932 407.977 52.0078 407.617C51.6276 407.253 51.0677 407.07 50.3281 407.07C49.4688 407.07 48.8073 407.385 48.3438 408.016C47.8854 408.641 47.651 409.56 47.6406 410.773V411.781C47.6406 413.01 47.8594 413.948 48.2969 414.594C48.7396 415.24 49.3854 415.562 50.2344 415.562C51.0104 415.562 51.5938 415.388 51.9844 415.039C52.375 414.69 52.6224 414.109 52.7266 413.297H54.6953ZM55.9297 412.695C55.9297 411.867 56.0938 411.122 56.4219 410.461C56.75 409.794 57.2109 409.284 57.8047 408.93C58.3984 408.57 59.0807 408.391 59.8516 408.391C60.9922 408.391 61.9167 408.758 62.625 409.492C63.3385 410.227 63.724 411.201 63.7812 412.414L63.7891 412.859C63.7891 413.693 63.6276 414.438 63.3047 415.094C62.987 415.75 62.5286 416.258 61.9297 416.617C61.3359 416.977 60.6484 417.156 59.8672 417.156C58.6745 417.156 57.7188 416.76 57 415.969C56.2865 415.172 55.9297 414.112 55.9297 412.789V412.695ZM57.8281 412.859C57.8281 413.729 58.0078 414.411 58.3672 414.906C58.7266 415.396 59.2266 415.641 59.8672 415.641C60.5078 415.641 61.0052 415.391 61.3594 414.891C61.7188 414.391 61.8984 413.659 61.8984 412.695C61.8984 411.841 61.7135 411.164 61.3438 410.664C60.9792 410.164 60.4818 409.914 59.8516 409.914C59.2318 409.914 58.7396 410.161 58.375 410.656C58.0104 411.146 57.8281 411.88 57.8281 412.859ZM67.1562 408.547L67.2109 409.523C67.8359 408.768 68.6562 408.391 69.6719 408.391C71.4323 408.391 72.3281 409.398 72.3594 411.414V417H70.4609V411.523C70.4609 410.987 70.3438 410.591 70.1094 410.336C69.8802 410.076 69.5026 409.945 68.9766 409.945C68.2109 409.945 67.6406 410.292 67.2656 410.984V417H65.3672V408.547H67.1562ZM76.6797 406.492V408.547H78.1719V409.953H76.6797V414.672C76.6797 414.995 76.7422 415.229 76.8672 415.375C76.9974 415.516 77.2266 415.586 77.5547 415.586C77.7734 415.586 77.9948 415.56 78.2188 415.508V416.977C77.7865 417.096 77.3698 417.156 76.9688 417.156C75.5104 417.156 74.7812 416.352 74.7812 414.742V409.953H73.3906V408.547H74.7812V406.492H76.6797ZM84.6797 417C84.5964 416.839 84.5234 416.576 84.4609 416.211C83.8568 416.841 83.1172 417.156 82.2422 417.156C81.3932 417.156 80.7005 416.914 80.1641 416.43C79.6276 415.945 79.3594 415.346 79.3594 414.633C79.3594 413.732 79.6927 413.042 80.3594 412.562C81.0312 412.078 81.9896 411.836 83.2344 411.836H84.3984V411.281C84.3984 410.844 84.276 410.495 84.0312 410.234C83.7865 409.969 83.4141 409.836 82.9141 409.836C82.4818 409.836 82.1276 409.945 81.8516 410.164C81.5755 410.378 81.4375 410.651 81.4375 410.984H79.5391C79.5391 410.521 79.6927 410.089 80 409.688C80.3073 409.281 80.724 408.964 81.25 408.734C81.7812 408.505 82.3724 408.391 83.0234 408.391C84.013 408.391 84.8021 408.641 85.3906 409.141C85.9792 409.635 86.2812 410.333 86.2969 411.234V415.047C86.2969 415.807 86.4036 416.414 86.6172 416.867V417H84.6797ZM82.5938 415.633C82.9688 415.633 83.3203 415.542 83.6484 415.359C83.9818 415.177 84.2318 414.932 84.3984 414.625V413.031H83.375C82.6719 413.031 82.1432 413.154 81.7891 413.398C81.4349 413.643 81.2578 413.99 81.2578 414.438C81.2578 414.802 81.3776 415.094 81.6172 415.312C81.862 415.526 82.1875 415.633 82.5938 415.633ZM91.7578 415.641C92.2318 415.641 92.625 415.503 92.9375 415.227C93.25 414.951 93.4167 414.609 93.4375 414.203H95.2266C95.2057 414.729 95.0417 415.221 94.7344 415.68C94.4271 416.133 94.0104 416.492 93.4844 416.758C92.9583 417.023 92.3906 417.156 91.7812 417.156C90.599 417.156 89.6615 416.773 88.9688 416.008C88.276 415.242 87.9297 414.185 87.9297 412.836V412.641C87.9297 411.354 88.2734 410.326 88.9609 409.555C89.6484 408.779 90.5859 408.391 91.7734 408.391C92.7786 408.391 93.5964 408.685 94.2266 409.273C94.862 409.857 95.1953 410.625 95.2266 411.578H93.4375C93.4167 411.094 93.25 410.695 92.9375 410.383C92.6302 410.07 92.237 409.914 91.7578 409.914C91.1432 409.914 90.6693 410.138 90.3359 410.586C90.0026 411.029 89.8333 411.703 89.8281 412.609V412.914C89.8281 413.831 89.9922 414.516 90.3203 414.969C90.6536 415.417 91.1328 415.641 91.7578 415.641ZM99.0391 406.492V408.547H100.531V409.953H99.0391V414.672C99.0391 414.995 99.1016 415.229 99.2266 415.375C99.3568 415.516 99.5859 415.586 99.9141 415.586C100.133 415.586 100.354 415.56 100.578 415.508V416.977C100.146 417.096 99.7292 417.156 99.3281 417.156C97.8698 417.156 97.1406 416.352 97.1406 414.742V409.953H95.75V408.547H97.1406V406.492H99.0391Z" fill="#333333"/>
<path d="M1.15625 169V157.625H4.51562C5.52083 157.625 6.41146 157.849 7.1875 158.297C7.96875 158.745 8.57292 159.38 9 160.203C9.42708 161.026 9.64062 161.969 9.64062 163.031V163.602C9.64062 164.68 9.42448 165.628 8.99219 166.445C8.5651 167.263 7.95312 167.893 7.15625 168.336C6.36458 168.779 5.45573 169 4.42969 169H1.15625ZM3.13281 159.219V167.422H4.42188C5.45833 167.422 6.2526 167.099 6.80469 166.453C7.36198 165.802 7.64583 164.87 7.65625 163.656V163.023C7.65625 161.789 7.38802 160.846 6.85156 160.195C6.3151 159.544 5.53646 159.219 4.51562 159.219H3.13281ZM16.5469 168.172C15.9896 168.828 15.1979 169.156 14.1719 169.156C13.2552 169.156 12.5599 168.888 12.0859 168.352C11.6172 167.815 11.3828 167.039 11.3828 166.023V160.547H13.2812V166C13.2812 167.073 13.7266 167.609 14.6172 167.609C15.5391 167.609 16.1615 167.279 16.4844 166.617V160.547H18.3828V169H16.5938L16.5469 168.172ZM24.0391 169.156C22.8359 169.156 21.8594 168.779 21.1094 168.023C20.3646 167.263 19.9922 166.253 19.9922 164.992V164.758C19.9922 163.914 20.1536 163.161 20.4766 162.5C20.8047 161.833 21.263 161.315 21.8516 160.945C22.4401 160.576 23.0964 160.391 23.8203 160.391C24.9714 160.391 25.8594 160.758 26.4844 161.492C27.1146 162.227 27.4297 163.266 27.4297 164.609V165.375H21.9062C21.9635 166.073 22.1953 166.625 22.6016 167.031C23.013 167.438 23.5286 167.641 24.1484 167.641C25.0182 167.641 25.7266 167.289 26.2734 166.586L27.2969 167.562C26.9583 168.068 26.5052 168.461 25.9375 168.742C25.375 169.018 24.7422 169.156 24.0391 169.156ZM23.8125 161.914C23.2917 161.914 22.8698 162.096 22.5469 162.461C22.2292 162.826 22.026 163.333 21.9375 163.984H25.5547V163.844C25.513 163.208 25.3438 162.729 25.0469 162.406C24.75 162.078 24.3385 161.914 23.8125 161.914ZM33.0781 169V157.625H36.4375C37.4427 157.625 38.3333 157.849 39.1094 158.297C39.8906 158.745 40.4948 159.38 40.9219 160.203C41.349 161.026 41.5625 161.969 41.5625 163.031V163.602C41.5625 164.68 41.3464 165.628 40.9141 166.445C40.487 167.263 39.875 167.893 39.0781 168.336C38.2865 168.779 37.3776 169 36.3516 169H33.0781ZM35.0547 159.219V167.422H36.3438C37.3802 167.422 38.1745 167.099 38.7266 166.453C39.2839 165.802 39.5677 164.87 39.5781 163.656V163.023C39.5781 161.789 39.3099 160.846 38.7734 160.195C38.237 159.544 37.4583 159.219 36.4375 159.219H35.0547ZM48.3984 169C48.3151 168.839 48.2422 168.576 48.1797 168.211C47.5755 168.841 46.8359 169.156 45.9609 169.156C45.112 169.156 44.4193 168.914 43.8828 168.43C43.3464 167.945 43.0781 167.346 43.0781 166.633C43.0781 165.732 43.4115 165.042 44.0781 164.562C44.75 164.078 45.7083 163.836 46.9531 163.836H48.1172V163.281C48.1172 162.844 47.9948 162.495 47.75 162.234C47.5052 161.969 47.1328 161.836 46.6328 161.836C46.2005 161.836 45.8464 161.945 45.5703 162.164C45.2943 162.378 45.1562 162.651 45.1562 162.984H43.2578C43.2578 162.521 43.4115 162.089 43.7188 161.688C44.026 161.281 44.4427 160.964 44.9688 160.734C45.5 160.505 46.0911 160.391 46.7422 160.391C47.7318 160.391 48.5208 160.641 49.1094 161.141C49.6979 161.635 50 162.333 50.0156 163.234V167.047C50.0156 167.807 50.1224 168.414 50.3359 168.867V169H48.3984ZM46.3125 167.633C46.6875 167.633 47.0391 167.542 47.3672 167.359C47.7005 167.177 47.9505 166.932 48.1172 166.625V165.031H47.0938C46.3906 165.031 45.862 165.154 45.5078 165.398C45.1536 165.643 44.9766 165.99 44.9766 166.438C44.9766 166.802 45.0964 167.094 45.3359 167.312C45.5807 167.526 45.9062 167.633 46.3125 167.633ZM54.3828 158.492V160.547H55.875V161.953H54.3828V166.672C54.3828 166.995 54.4453 167.229 54.5703 167.375C54.7005 167.516 54.9297 167.586 55.2578 167.586C55.4766 167.586 55.6979 167.56 55.9219 167.508V168.977C55.4896 169.096 55.0729 169.156 54.6719 169.156C53.2135 169.156 52.4844 168.352 52.4844 166.742V161.953H51.0938V160.547H52.4844V158.492H54.3828ZM61.0547 169.156C59.8516 169.156 58.875 168.779 58.125 168.023C57.3802 167.263 57.0078 166.253 57.0078 164.992V164.758C57.0078 163.914 57.1693 163.161 57.4922 162.5C57.8203 161.833 58.2786 161.315 58.8672 160.945C59.4557 160.576 60.112 160.391 60.8359 160.391C61.987 160.391 62.875 160.758 63.5 161.492C64.1302 162.227 64.4453 163.266 64.4453 164.609V165.375H58.9219C58.9792 166.073 59.2109 166.625 59.6172 167.031C60.0286 167.438 60.5443 167.641 61.1641 167.641C62.0339 167.641 62.7422 167.289 63.2891 166.586L64.3125 167.562C63.974 168.068 63.5208 168.461 62.9531 168.742C62.3906 169.018 61.7578 169.156 61.0547 169.156ZM60.8281 161.914C60.3073 161.914 59.8854 162.096 59.5625 162.461C59.2448 162.826 59.0417 163.333 58.9531 163.984H62.5703V163.844C62.5286 163.208 62.3594 162.729 62.0625 162.406C61.7656 162.078 61.3542 161.914 60.8281 161.914Z" fill="#333333"/>
<path d="M474.133 24H466.68V22.9609L470.617 18.5859C471.201 17.9245 471.602 17.388 471.82 16.9766C472.044 16.5599 472.156 16.1302 472.156 15.6875C472.156 15.0938 471.977 14.6068 471.617 14.2266C471.258 13.8464 470.779 13.6562 470.18 13.6562C469.461 13.6562 468.901 13.862 468.5 14.2734C468.104 14.6797 467.906 15.2474 467.906 15.9766H466.461C466.461 14.9297 466.797 14.0833 467.469 13.4375C468.146 12.7917 469.049 12.4688 470.18 12.4688C471.237 12.4688 472.073 12.7474 472.688 13.3047C473.302 13.8568 473.609 14.5938 473.609 15.5156C473.609 16.6354 472.896 17.9688 471.469 19.5156L468.422 22.8203H474.133V24ZM476.328 18.2969L476.906 12.625H482.734V13.9609H478.133L477.789 17.0625C478.346 16.7344 478.979 16.5703 479.688 16.5703C480.724 16.5703 481.547 16.9141 482.156 17.6016C482.766 18.2839 483.07 19.2083 483.07 20.375C483.07 21.5469 482.753 22.4714 482.117 23.1484C481.487 23.8203 480.604 24.1562 479.469 24.1562C478.464 24.1562 477.643 23.8776 477.008 23.3203C476.372 22.763 476.01 21.9922 475.922 21.0078H477.289C477.378 21.6589 477.609 22.151 477.984 22.4844C478.359 22.8125 478.854 22.9766 479.469 22.9766C480.141 22.9766 480.667 22.7474 481.047 22.2891C481.432 21.8307 481.625 21.1979 481.625 20.3906C481.625 19.6302 481.417 19.0208 481 18.5625C480.589 18.099 480.039 17.8672 479.352 17.8672C478.721 17.8672 478.227 18.0052 477.867 18.2812L477.484 18.5938L476.328 18.2969ZM485.086 24.9766H483.844L488.594 12.625H489.828L485.086 24.9766ZM498.695 24H491.242V22.9609L495.18 18.5859C495.763 17.9245 496.164 17.388 496.383 16.9766C496.607 16.5599 496.719 16.1302 496.719 15.6875C496.719 15.0938 496.539 14.6068 496.18 14.2266C495.82 13.8464 495.341 13.6562 494.742 13.6562C494.023 13.6562 493.464 13.862 493.062 14.2734C492.667 14.6797 492.469 15.2474 492.469 15.9766H491.023C491.023 14.9297 491.359 14.0833 492.031 13.4375C492.708 12.7917 493.612 12.4688 494.742 12.4688C495.799 12.4688 496.635 12.7474 497.25 13.3047C497.865 13.8568 498.172 14.5938 498.172 15.5156C498.172 16.6354 497.458 17.9688 496.031 19.5156L492.984 22.8203H498.695V24ZM500.891 18.2969L501.469 12.625H507.297V13.9609H502.695L502.352 17.0625C502.909 16.7344 503.542 16.5703 504.25 16.5703C505.286 16.5703 506.109 16.9141 506.719 17.6016C507.328 18.2839 507.633 19.2083 507.633 20.375C507.633 21.5469 507.315 22.4714 506.68 23.1484C506.049 23.8203 505.167 24.1562 504.031 24.1562C503.026 24.1562 502.206 23.8776 501.57 23.3203C500.935 22.763 500.573 21.9922 500.484 21.0078H501.852C501.94 21.6589 502.172 22.151 502.547 22.4844C502.922 22.8125 503.417 22.9766 504.031 22.9766C504.703 22.9766 505.229 22.7474 505.609 22.2891C505.995 21.8307 506.188 21.1979 506.188 20.3906C506.188 19.6302 505.979 19.0208 505.562 18.5625C505.151 18.099 504.602 17.8672 503.914 17.8672C503.284 17.8672 502.789 18.0052 502.43 18.2812L502.047 18.5938L500.891 18.2969Z" fill="#333333"/>
<path d="M474.133 73H466.68V71.9609L470.617 67.5859C471.201 66.9245 471.602 66.388 471.82 65.9766C472.044 65.5599 472.156 65.1302 472.156 64.6875C472.156 64.0938 471.977 63.6068 471.617 63.2266C471.258 62.8464 470.779 62.6562 470.18 62.6562C469.461 62.6562 468.901 62.862 468.5 63.2734C468.104 63.6797 467.906 64.2474 467.906 64.9766H466.461C466.461 63.9297 466.797 63.0833 467.469 62.4375C468.146 61.7917 469.049 61.4688 470.18 61.4688C471.237 61.4688 472.073 61.7474 472.688 62.3047C473.302 62.8568 473.609 63.5938 473.609 64.5156C473.609 65.6354 472.896 66.9688 471.469 68.5156L468.422 71.8203H474.133V73ZM476.328 67.2969L476.906 61.625H482.734V62.9609H478.133L477.789 66.0625C478.346 65.7344 478.979 65.5703 479.688 65.5703C480.724 65.5703 481.547 65.9141 482.156 66.6016C482.766 67.2839 483.07 68.2083 483.07 69.375C483.07 70.5469 482.753 71.4714 482.117 72.1484C481.487 72.8203 480.604 73.1562 479.469 73.1562C478.464 73.1562 477.643 72.8776 477.008 72.3203C476.372 71.763 476.01 70.9922 475.922 70.0078H477.289C477.378 70.6589 477.609 71.151 477.984 71.4844C478.359 71.8125 478.854 71.9766 479.469 71.9766C480.141 71.9766 480.667 71.7474 481.047 71.2891C481.432 70.8307 481.625 70.1979 481.625 69.3906C481.625 68.6302 481.417 68.0208 481 67.5625C480.589 67.099 480.039 66.8672 479.352 66.8672C478.721 66.8672 478.227 67.0052 477.867 67.2812L477.484 67.5938L476.328 67.2969ZM485.086 73.9766H483.844L488.594 61.625H489.828L485.086 73.9766ZM498.695 73H491.242V71.9609L495.18 67.5859C495.763 66.9245 496.164 66.388 496.383 65.9766C496.607 65.5599 496.719 65.1302 496.719 64.6875C496.719 64.0938 496.539 63.6068 496.18 63.2266C495.82 62.8464 495.341 62.6562 494.742 62.6562C494.023 62.6562 493.464 62.862 493.062 63.2734C492.667 63.6797 492.469 64.2474 492.469 64.9766H491.023C491.023 63.9297 491.359 63.0833 492.031 62.4375C492.708 61.7917 493.612 61.4688 494.742 61.4688C495.799 61.4688 496.635 61.7474 497.25 62.3047C497.865 62.8568 498.172 63.5938 498.172 64.5156C498.172 65.6354 497.458 66.9688 496.031 68.5156L492.984 71.8203H498.695V73ZM500.891 67.2969L501.469 61.625H507.297V62.9609H502.695L502.352 66.0625C502.909 65.7344 503.542 65.5703 504.25 65.5703C505.286 65.5703 506.109 65.9141 506.719 66.6016C507.328 67.2839 507.633 68.2083 507.633 69.375C507.633 70.5469 507.315 71.4714 506.68 72.1484C506.049 72.8203 505.167 73.1562 504.031 73.1562C503.026 73.1562 502.206 72.8776 501.57 72.3203C500.935 71.763 500.573 70.9922 500.484 70.0078H501.852C501.94 70.6589 502.172 71.151 502.547 71.4844C502.922 71.8125 503.417 71.9766 504.031 71.9766C504.703 71.9766 505.229 71.7474 505.609 71.2891C505.995 70.8307 506.188 70.1979 506.188 69.3906C506.188 68.6302 505.979 68.0208 505.562 67.5625C505.151 67.099 504.602 66.8672 503.914 66.8672C503.284 66.8672 502.789 67.0052 502.43 67.2812L502.047 67.5938L500.891 67.2969Z" fill="#333333"/>
<path d="M474.133 122H466.68V120.961L470.617 116.586C471.201 115.924 471.602 115.388 471.82 114.977C472.044 114.56 472.156 114.13 472.156 113.688C472.156 113.094 471.977 112.607 471.617 112.227C471.258 111.846 470.779 111.656 470.18 111.656C469.461 111.656 468.901 111.862 468.5 112.273C468.104 112.68 467.906 113.247 467.906 113.977H466.461C466.461 112.93 466.797 112.083 467.469 111.438C468.146 110.792 469.049 110.469 470.18 110.469C471.237 110.469 472.073 110.747 472.688 111.305C473.302 111.857 473.609 112.594 473.609 113.516C473.609 114.635 472.896 115.969 471.469 117.516L468.422 120.82H474.133V122ZM476.328 116.297L476.906 110.625H482.734V111.961H478.133L477.789 115.062C478.346 114.734 478.979 114.57 479.688 114.57C480.724 114.57 481.547 114.914 482.156 115.602C482.766 116.284 483.07 117.208 483.07 118.375C483.07 119.547 482.753 120.471 482.117 121.148C481.487 121.82 480.604 122.156 479.469 122.156C478.464 122.156 477.643 121.878 477.008 121.32C476.372 120.763 476.01 119.992 475.922 119.008H477.289C477.378 119.659 477.609 120.151 477.984 120.484C478.359 120.812 478.854 120.977 479.469 120.977C480.141 120.977 480.667 120.747 481.047 120.289C481.432 119.831 481.625 119.198 481.625 118.391C481.625 117.63 481.417 117.021 481 116.562C480.589 116.099 480.039 115.867 479.352 115.867C478.721 115.867 478.227 116.005 477.867 116.281L477.484 116.594L476.328 116.297ZM485.086 122.977H483.844L488.594 110.625H489.828L485.086 122.977ZM498.695 122H491.242V120.961L495.18 116.586C495.763 115.924 496.164 115.388 496.383 114.977C496.607 114.56 496.719 114.13 496.719 113.688C496.719 113.094 496.539 112.607 496.18 112.227C495.82 111.846 495.341 111.656 494.742 111.656C494.023 111.656 493.464 111.862 493.062 112.273C492.667 112.68 492.469 113.247 492.469 113.977H491.023C491.023 112.93 491.359 112.083 492.031 111.438C492.708 110.792 493.612 110.469 494.742 110.469C495.799 110.469 496.635 110.747 497.25 111.305C497.865 111.857 498.172 112.594 498.172 113.516C498.172 114.635 497.458 115.969 496.031 117.516L492.984 120.82H498.695V122ZM500.891 116.297L501.469 110.625H507.297V111.961H502.695L502.352 115.062C502.909 114.734 503.542 114.57 504.25 114.57C505.286 114.57 506.109 114.914 506.719 115.602C507.328 116.284 507.633 117.208 507.633 118.375C507.633 119.547 507.315 120.471 506.68 121.148C506.049 121.82 505.167 122.156 504.031 122.156C503.026 122.156 502.206 121.878 501.57 121.32C500.935 120.763 500.573 119.992 500.484 119.008H501.852C501.94 119.659 502.172 120.151 502.547 120.484C502.922 120.812 503.417 120.977 504.031 120.977C504.703 120.977 505.229 120.747 505.609 120.289C505.995 119.831 506.188 119.198 506.188 118.391C506.188 117.63 505.979 117.021 505.562 116.562C505.151 116.099 504.602 115.867 503.914 115.867C503.284 115.867 502.789 116.005 502.43 116.281L502.047 116.594L500.891 116.297Z" fill="#333333"/>
<path d="M474.133 169H466.68V167.961L470.617 163.586C471.201 162.924 471.602 162.388 471.82 161.977C472.044 161.56 472.156 161.13 472.156 160.688C472.156 160.094 471.977 159.607 471.617 159.227C471.258 158.846 470.779 158.656 470.18 158.656C469.461 158.656 468.901 158.862 468.5 159.273C468.104 159.68 467.906 160.247 467.906 160.977H466.461C466.461 159.93 466.797 159.083 467.469 158.438C468.146 157.792 469.049 157.469 470.18 157.469C471.237 157.469 472.073 157.747 472.688 158.305C473.302 158.857 473.609 159.594 473.609 160.516C473.609 161.635 472.896 162.969 471.469 164.516L468.422 167.82H474.133V169ZM476.328 163.297L476.906 157.625H482.734V158.961H478.133L477.789 162.062C478.346 161.734 478.979 161.57 479.688 161.57C480.724 161.57 481.547 161.914 482.156 162.602C482.766 163.284 483.07 164.208 483.07 165.375C483.07 166.547 482.753 167.471 482.117 168.148C481.487 168.82 480.604 169.156 479.469 169.156C478.464 169.156 477.643 168.878 477.008 168.32C476.372 167.763 476.01 166.992 475.922 166.008H477.289C477.378 166.659 477.609 167.151 477.984 167.484C478.359 167.812 478.854 167.977 479.469 167.977C480.141 167.977 480.667 167.747 481.047 167.289C481.432 166.831 481.625 166.198 481.625 165.391C481.625 164.63 481.417 164.021 481 163.562C480.589 163.099 480.039 162.867 479.352 162.867C478.721 162.867 478.227 163.005 477.867 163.281L477.484 163.594L476.328 163.297ZM485.086 169.977H483.844L488.594 157.625H489.828L485.086 169.977ZM498.695 169H491.242V167.961L495.18 163.586C495.763 162.924 496.164 162.388 496.383 161.977C496.607 161.56 496.719 161.13 496.719 160.688C496.719 160.094 496.539 159.607 496.18 159.227C495.82 158.846 495.341 158.656 494.742 158.656C494.023 158.656 493.464 158.862 493.062 159.273C492.667 159.68 492.469 160.247 492.469 160.977H491.023C491.023 159.93 491.359 159.083 492.031 158.438C492.708 157.792 493.612 157.469 494.742 157.469C495.799 157.469 496.635 157.747 497.25 158.305C497.865 158.857 498.172 159.594 498.172 160.516C498.172 161.635 497.458 162.969 496.031 164.516L492.984 167.82H498.695V169ZM500.891 163.297L501.469 157.625H507.297V158.961H502.695L502.352 162.062C502.909 161.734 503.542 161.57 504.25 161.57C505.286 161.57 506.109 161.914 506.719 162.602C507.328 163.284 507.633 164.208 507.633 165.375C507.633 166.547 507.315 167.471 506.68 168.148C506.049 168.82 505.167 169.156 504.031 169.156C503.026 169.156 502.206 168.878 501.57 168.32C500.935 167.763 500.573 166.992 500.484 166.008H501.852C501.94 166.659 502.172 167.151 502.547 167.484C502.922 167.812 503.417 167.977 504.031 167.977C504.703 167.977 505.229 167.747 505.609 167.289C505.995 166.831 506.188 166.198 506.188 165.391C506.188 164.63 505.979 164.021 505.562 163.562C505.151 163.099 504.602 162.867 503.914 162.867C503.284 162.867 502.789 163.005 502.43 163.281L502.047 163.594L500.891 163.297Z" fill="#333333"/>
<path d="M474.133 218H466.68V216.961L470.617 212.586C471.201 211.924 471.602 211.388 471.82 210.977C472.044 210.56 472.156 210.13 472.156 209.688C472.156 209.094 471.977 208.607 471.617 208.227C471.258 207.846 470.779 207.656 470.18 207.656C469.461 207.656 468.901 207.862 468.5 208.273C468.104 208.68 467.906 209.247 467.906 209.977H466.461C466.461 208.93 466.797 208.083 467.469 207.438C468.146 206.792 469.049 206.469 470.18 206.469C471.237 206.469 472.073 206.747 472.688 207.305C473.302 207.857 473.609 208.594 473.609 209.516C473.609 210.635 472.896 211.969 471.469 213.516L468.422 216.82H474.133V218ZM477.766 211.609H478.852C479.534 211.599 480.07 211.419 480.461 211.07C480.852 210.721 481.047 210.25 481.047 209.656C481.047 208.323 480.383 207.656 479.055 207.656C478.43 207.656 477.93 207.836 477.555 208.195C477.185 208.549 477 209.021 477 209.609H475.555C475.555 208.708 475.883 207.961 476.539 207.367C477.201 206.768 478.039 206.469 479.055 206.469C480.128 206.469 480.969 206.753 481.578 207.32C482.188 207.888 482.492 208.677 482.492 209.688C482.492 210.182 482.331 210.661 482.008 211.125C481.69 211.589 481.255 211.935 480.703 212.164C481.328 212.362 481.81 212.69 482.148 213.148C482.492 213.607 482.664 214.167 482.664 214.828C482.664 215.849 482.331 216.659 481.664 217.258C480.997 217.857 480.13 218.156 479.062 218.156C477.995 218.156 477.125 217.867 476.453 217.289C475.786 216.711 475.453 215.948 475.453 215H476.906C476.906 215.599 477.102 216.078 477.492 216.438C477.883 216.797 478.406 216.977 479.062 216.977C479.76 216.977 480.294 216.794 480.664 216.43C481.034 216.065 481.219 215.542 481.219 214.859C481.219 214.198 481.016 213.69 480.609 213.336C480.203 212.982 479.617 212.799 478.852 212.789H477.766V211.609ZM485.086 218.977H483.844L488.594 206.625H489.828L485.086 218.977ZM498.695 218H491.242V216.961L495.18 212.586C495.763 211.924 496.164 211.388 496.383 210.977C496.607 210.56 496.719 210.13 496.719 209.688C496.719 209.094 496.539 208.607 496.18 208.227C495.82 207.846 495.341 207.656 494.742 207.656C494.023 207.656 493.464 207.862 493.062 208.273C492.667 208.68 492.469 209.247 492.469 209.977H491.023C491.023 208.93 491.359 208.083 492.031 207.438C492.708 206.792 493.612 206.469 494.742 206.469C495.799 206.469 496.635 206.747 497.25 207.305C497.865 207.857 498.172 208.594 498.172 209.516C498.172 210.635 497.458 211.969 496.031 213.516L492.984 216.82H498.695V218ZM500.891 212.297L501.469 206.625H507.297V207.961H502.695L502.352 211.062C502.909 210.734 503.542 210.57 504.25 210.57C505.286 210.57 506.109 210.914 506.719 211.602C507.328 212.284 507.633 213.208 507.633 214.375C507.633 215.547 507.315 216.471 506.68 217.148C506.049 217.82 505.167 218.156 504.031 218.156C503.026 218.156 502.206 217.878 501.57 217.32C500.935 216.763 500.573 215.992 500.484 215.008H501.852C501.94 215.659 502.172 216.151 502.547 216.484C502.922 216.812 503.417 216.977 504.031 216.977C504.703 216.977 505.229 216.747 505.609 216.289C505.995 215.831 506.188 215.198 506.188 214.391C506.188 213.63 505.979 213.021 505.562 212.562C505.151 212.099 504.602 211.867 503.914 211.867C503.284 211.867 502.789 212.005 502.43 212.281L502.047 212.594L500.891 212.297Z" fill="#333333"/>
<path d="M471.43 267H469.977V257.367L467.062 258.438V257.125L471.203 255.57H471.43V267ZM483.117 267H475.664V265.961L479.602 261.586C480.185 260.924 480.586 260.388 480.805 259.977C481.029 259.56 481.141 259.13 481.141 258.688C481.141 258.094 480.961 257.607 480.602 257.227C480.242 256.846 479.763 256.656 479.164 256.656C478.445 256.656 477.885 256.862 477.484 257.273C477.089 257.68 476.891 258.247 476.891 258.977H475.445C475.445 257.93 475.781 257.083 476.453 256.438C477.13 255.792 478.034 255.469 479.164 255.469C480.221 255.469 481.057 255.747 481.672 256.305C482.286 256.857 482.594 257.594 482.594 258.516C482.594 259.635 481.88 260.969 480.453 262.516L477.406 265.82H483.117V267ZM485.086 267.977H483.844L488.594 255.625H489.828L485.086 267.977ZM498.695 267H491.242V265.961L495.18 261.586C495.763 260.924 496.164 260.388 496.383 259.977C496.607 259.56 496.719 259.13 496.719 258.688C496.719 258.094 496.539 257.607 496.18 257.227C495.82 256.846 495.341 256.656 494.742 256.656C494.023 256.656 493.464 256.862 493.062 257.273C492.667 257.68 492.469 258.247 492.469 258.977H491.023C491.023 257.93 491.359 257.083 492.031 256.438C492.708 255.792 493.612 255.469 494.742 255.469C495.799 255.469 496.635 255.747 497.25 256.305C497.865 256.857 498.172 257.594 498.172 258.516C498.172 259.635 497.458 260.969 496.031 262.516L492.984 265.82H498.695V267ZM500.891 261.297L501.469 255.625H507.297V256.961H502.695L502.352 260.062C502.909 259.734 503.542 259.57 504.25 259.57C505.286 259.57 506.109 259.914 506.719 260.602C507.328 261.284 507.633 262.208 507.633 263.375C507.633 264.547 507.315 265.471 506.68 266.148C506.049 266.82 505.167 267.156 504.031 267.156C503.026 267.156 502.206 266.878 501.57 266.32C500.935 265.763 500.573 264.992 500.484 264.008H501.852C501.94 264.659 502.172 265.151 502.547 265.484C502.922 265.812 503.417 265.977 504.031 265.977C504.703 265.977 505.229 265.747 505.609 265.289C505.995 264.831 506.188 264.198 506.188 263.391C506.188 262.63 505.979 262.021 505.562 261.562C505.151 261.099 504.602 260.867 503.914 260.867C503.284 260.867 502.789 261.005 502.43 261.281L502.047 261.594L500.891 261.297Z" fill="#333333"/>
<path d="M478.07 307.594C478.07 308.161 477.919 308.667 477.617 309.109C477.32 309.552 476.917 309.898 476.406 310.148C477 310.404 477.469 310.776 477.812 311.266C478.161 311.755 478.336 312.31 478.336 312.93C478.336 313.914 478.003 314.698 477.336 315.281C476.674 315.865 475.802 316.156 474.719 316.156C473.625 316.156 472.747 315.865 472.086 315.281C471.43 314.693 471.102 313.909 471.102 312.93C471.102 312.315 471.268 311.76 471.602 311.266C471.94 310.771 472.406 310.396 473 310.141C472.495 309.891 472.096 309.544 471.805 309.102C471.513 308.659 471.367 308.156 471.367 307.594C471.367 306.635 471.674 305.875 472.289 305.312C472.904 304.75 473.714 304.469 474.719 304.469C475.719 304.469 476.526 304.75 477.141 305.312C477.76 305.875 478.07 306.635 478.07 307.594ZM476.891 312.898C476.891 312.263 476.688 311.745 476.281 311.344C475.88 310.943 475.354 310.742 474.703 310.742C474.052 310.742 473.529 310.94 473.133 311.336C472.742 311.732 472.547 312.253 472.547 312.898C472.547 313.544 472.737 314.052 473.117 314.422C473.503 314.792 474.036 314.977 474.719 314.977C475.396 314.977 475.927 314.792 476.312 314.422C476.698 314.047 476.891 313.539 476.891 312.898ZM474.719 305.656C474.151 305.656 473.69 305.833 473.336 306.188C472.987 306.536 472.812 307.013 472.812 307.617C472.812 308.195 472.984 308.664 473.328 309.023C473.677 309.378 474.141 309.555 474.719 309.555C475.297 309.555 475.758 309.378 476.102 309.023C476.451 308.664 476.625 308.195 476.625 307.617C476.625 307.039 476.445 306.568 476.086 306.203C475.727 305.839 475.271 305.656 474.719 305.656ZM480.594 316.977H479.352L484.102 304.625H485.336L480.594 316.977ZM494.203 316H486.75V314.961L490.688 310.586C491.271 309.924 491.672 309.388 491.891 308.977C492.115 308.56 492.227 308.13 492.227 307.688C492.227 307.094 492.047 306.607 491.688 306.227C491.328 305.846 490.849 305.656 490.25 305.656C489.531 305.656 488.971 305.862 488.57 306.273C488.174 306.68 487.977 307.247 487.977 307.977H486.531C486.531 306.93 486.867 306.083 487.539 305.438C488.216 304.792 489.12 304.469 490.25 304.469C491.307 304.469 492.143 304.747 492.758 305.305C493.372 305.857 493.68 306.594 493.68 307.516C493.68 308.635 492.966 309.969 491.539 311.516L488.492 314.82H494.203V316ZM496.398 310.297L496.977 304.625H502.805V305.961H498.203L497.859 309.062C498.417 308.734 499.049 308.57 499.758 308.57C500.794 308.57 501.617 308.914 502.227 309.602C502.836 310.284 503.141 311.208 503.141 312.375C503.141 313.547 502.823 314.471 502.188 315.148C501.557 315.82 500.674 316.156 499.539 316.156C498.534 316.156 497.714 315.878 497.078 315.32C496.443 314.763 496.081 313.992 495.992 313.008H497.359C497.448 313.659 497.68 314.151 498.055 314.484C498.43 314.812 498.924 314.977 499.539 314.977C500.211 314.977 500.737 314.747 501.117 314.289C501.503 313.831 501.695 313.198 501.695 312.391C501.695 311.63 501.487 311.021 501.07 310.562C500.659 310.099 500.109 309.867 499.422 309.867C498.792 309.867 498.297 310.005 497.938 310.281L497.555 310.594L496.398 310.297Z" fill="#333333"/>
<path d="M476.844 353.617V354.844H476.578C475.453 354.865 474.557 355.198 473.891 355.844C473.224 356.49 472.839 357.398 472.734 358.57C473.333 357.883 474.151 357.539 475.188 357.539C476.177 357.539 476.966 357.888 477.555 358.586C478.148 359.284 478.445 360.185 478.445 361.289C478.445 362.461 478.125 363.398 477.484 364.102C476.849 364.805 475.995 365.156 474.922 365.156C473.833 365.156 472.951 364.74 472.273 363.906C471.596 363.068 471.258 361.99 471.258 360.672V360.117C471.258 358.023 471.703 356.424 472.594 355.32C473.49 354.211 474.82 353.643 476.586 353.617H476.844ZM474.945 358.742C474.451 358.742 473.995 358.891 473.578 359.188C473.161 359.484 472.872 359.857 472.711 360.305V360.836C472.711 361.773 472.922 362.529 473.344 363.102C473.766 363.674 474.292 363.961 474.922 363.961C475.573 363.961 476.083 363.721 476.453 363.242C476.828 362.763 477.016 362.135 477.016 361.359C477.016 360.578 476.826 359.948 476.445 359.469C476.07 358.984 475.57 358.742 474.945 358.742ZM480.594 365.977H479.352L484.102 353.625H485.336L480.594 365.977ZM494.203 365H486.75V363.961L490.688 359.586C491.271 358.924 491.672 358.388 491.891 357.977C492.115 357.56 492.227 357.13 492.227 356.688C492.227 356.094 492.047 355.607 491.688 355.227C491.328 354.846 490.849 354.656 490.25 354.656C489.531 354.656 488.971 354.862 488.57 355.273C488.174 355.68 487.977 356.247 487.977 356.977H486.531C486.531 355.93 486.867 355.083 487.539 354.438C488.216 353.792 489.12 353.469 490.25 353.469C491.307 353.469 492.143 353.747 492.758 354.305C493.372 354.857 493.68 355.594 493.68 356.516C493.68 357.635 492.966 358.969 491.539 360.516L488.492 363.82H494.203V365ZM496.398 359.297L496.977 353.625H502.805V354.961H498.203L497.859 358.062C498.417 357.734 499.049 357.57 499.758 357.57C500.794 357.57 501.617 357.914 502.227 358.602C502.836 359.284 503.141 360.208 503.141 361.375C503.141 362.547 502.823 363.471 502.188 364.148C501.557 364.82 500.674 365.156 499.539 365.156C498.534 365.156 497.714 364.878 497.078 364.32C496.443 363.763 496.081 362.992 495.992 362.008H497.359C497.448 362.659 497.68 363.151 498.055 363.484C498.43 363.812 498.924 363.977 499.539 363.977C500.211 363.977 500.737 363.747 501.117 363.289C501.503 362.831 501.695 362.198 501.695 361.391C501.695 360.63 501.487 360.021 501.07 359.562C500.659 359.099 500.109 358.867 499.422 358.867C498.792 358.867 498.297 359.005 497.938 359.281L497.555 359.594L496.398 359.297Z" fill="#333333"/>
<path d="M478.305 452.148C478.305 453.841 478.016 455.099 477.438 455.922C476.859 456.745 475.956 457.156 474.727 457.156C473.513 457.156 472.615 456.755 472.031 455.953C471.448 455.146 471.146 453.943 471.125 452.344V450.414C471.125 448.742 471.414 447.5 471.992 446.688C472.57 445.875 473.477 445.469 474.711 445.469C475.935 445.469 476.836 445.862 477.414 446.648C477.992 447.43 478.289 448.638 478.305 450.273V452.148ZM476.859 450.172C476.859 448.948 476.688 448.057 476.344 447.5C476 446.938 475.456 446.656 474.711 446.656C473.971 446.656 473.432 446.935 473.094 447.492C472.755 448.049 472.581 448.906 472.57 450.062V452.375C472.57 453.604 472.747 454.513 473.102 455.102C473.461 455.685 474.003 455.977 474.727 455.977C475.44 455.977 475.969 455.701 476.312 455.148C476.661 454.596 476.844 453.727 476.859 452.539V450.172ZM480.594 457.977H479.352L484.102 445.625H485.336L480.594 457.977ZM494.203 457H486.75V455.961L490.688 451.586C491.271 450.924 491.672 450.388 491.891 449.977C492.115 449.56 492.227 449.13 492.227 448.688C492.227 448.094 492.047 447.607 491.688 447.227C491.328 446.846 490.849 446.656 490.25 446.656C489.531 446.656 488.971 446.862 488.57 447.273C488.174 447.68 487.977 448.247 487.977 448.977H486.531C486.531 447.93 486.867 447.083 487.539 446.438C488.216 445.792 489.12 445.469 490.25 445.469C491.307 445.469 492.143 445.747 492.758 446.305C493.372 446.857 493.68 447.594 493.68 448.516C493.68 449.635 492.966 450.969 491.539 452.516L488.492 455.82H494.203V457ZM496.398 451.297L496.977 445.625H502.805V446.961H498.203L497.859 450.062C498.417 449.734 499.049 449.57 499.758 449.57C500.794 449.57 501.617 449.914 502.227 450.602C502.836 451.284 503.141 452.208 503.141 453.375C503.141 454.547 502.823 455.471 502.188 456.148C501.557 456.82 500.674 457.156 499.539 457.156C498.534 457.156 497.714 456.878 497.078 456.32C496.443 455.763 496.081 454.992 495.992 454.008H497.359C497.448 454.659 497.68 455.151 498.055 455.484C498.43 455.812 498.924 455.977 499.539 455.977C500.211 455.977 500.737 455.747 501.117 455.289C501.503 454.831 501.695 454.198 501.695 453.391C501.695 452.63 501.487 452.021 501.07 451.562C500.659 451.099 500.109 450.867 499.422 450.867C498.792 450.867 498.297 451.005 497.938 451.281L497.555 451.594L496.398 451.297Z" fill="#333333"/>
<path d="M473.273 407.609H474.359C475.042 407.599 475.578 407.419 475.969 407.07C476.359 406.721 476.555 406.25 476.555 405.656C476.555 404.323 475.891 403.656 474.562 403.656C473.938 403.656 473.438 403.836 473.062 404.195C472.693 404.549 472.508 405.021 472.508 405.609H471.062C471.062 404.708 471.391 403.961 472.047 403.367C472.708 402.768 473.547 402.469 474.562 402.469C475.635 402.469 476.477 402.753 477.086 403.32C477.695 403.888 478 404.677 478 405.688C478 406.182 477.839 406.661 477.516 407.125C477.198 407.589 476.763 407.935 476.211 408.164C476.836 408.362 477.318 408.69 477.656 409.148C478 409.607 478.172 410.167 478.172 410.828C478.172 411.849 477.839 412.659 477.172 413.258C476.505 413.857 475.638 414.156 474.57 414.156C473.503 414.156 472.633 413.867 471.961 413.289C471.294 412.711 470.961 411.948 470.961 411H472.414C472.414 411.599 472.609 412.078 473 412.438C473.391 412.797 473.914 412.977 474.57 412.977C475.268 412.977 475.802 412.794 476.172 412.43C476.542 412.065 476.727 411.542 476.727 410.859C476.727 410.198 476.523 409.69 476.117 409.336C475.711 408.982 475.125 408.799 474.359 408.789H473.273V407.609ZM480.594 414.977H479.352L484.102 402.625H485.336L480.594 414.977ZM494.203 414H486.75V412.961L490.688 408.586C491.271 407.924 491.672 407.388 491.891 406.977C492.115 406.56 492.227 406.13 492.227 405.688C492.227 405.094 492.047 404.607 491.688 404.227C491.328 403.846 490.849 403.656 490.25 403.656C489.531 403.656 488.971 403.862 488.57 404.273C488.174 404.68 487.977 405.247 487.977 405.977H486.531C486.531 404.93 486.867 404.083 487.539 403.438C488.216 402.792 489.12 402.469 490.25 402.469C491.307 402.469 492.143 402.747 492.758 403.305C493.372 403.857 493.68 404.594 493.68 405.516C493.68 406.635 492.966 407.969 491.539 409.516L488.492 412.82H494.203V414ZM496.398 408.297L496.977 402.625H502.805V403.961H498.203L497.859 407.062C498.417 406.734 499.049 406.57 499.758 406.57C500.794 406.57 501.617 406.914 502.227 407.602C502.836 408.284 503.141 409.208 503.141 410.375C503.141 411.547 502.823 412.471 502.188 413.148C501.557 413.82 500.674 414.156 499.539 414.156C498.534 414.156 497.714 413.878 497.078 413.32C496.443 412.763 496.081 411.992 495.992 411.008H497.359C497.448 411.659 497.68 412.151 498.055 412.484C498.43 412.812 498.924 412.977 499.539 412.977C500.211 412.977 500.737 412.747 501.117 412.289C501.503 411.831 501.695 411.198 501.695 410.391C501.695 409.63 501.487 409.021 501.07 408.562C500.659 408.099 500.109 407.867 499.422 407.867C498.792 407.867 498.297 408.005 497.938 408.281L497.555 408.594L496.398 408.297Z" fill="#333333"/>
</svg>
