<svg width="730" height="163" viewBox="0 0 730 163" fill="none" xmlns="http://www.w3.org/2000/svg">
<path d="M1.15625 86V74.625H5.05469C6.34115 74.625 7.32031 74.8828 7.99219 75.3984C8.66406 75.9141 9 76.6823 9 77.7031C9 78.224 8.85938 78.6927 8.57812 79.1094C8.29688 79.526 7.88542 79.849 7.34375 80.0781C7.95833 80.2448 8.43229 80.5599 8.76562 81.0234C9.10417 81.4818 9.27344 82.0339 9.27344 82.6797C9.27344 83.7474 8.92969 84.5677 8.24219 85.1406C7.5599 85.7135 6.58073 86 5.30469 86H1.15625ZM3.13281 80.8672V84.4219H5.32812C5.94792 84.4219 6.43229 84.2682 6.78125 83.9609C7.13021 83.6536 7.30469 83.2266 7.30469 82.6797C7.30469 81.4974 6.70052 80.8932 5.49219 80.8672H3.13281ZM3.13281 79.4141H5.07031C5.6849 79.4141 6.16406 79.276 6.50781 79C6.85677 78.7188 7.03125 78.3229 7.03125 77.8125C7.03125 77.25 6.86979 76.8438 6.54688 76.5938C6.22917 76.3438 5.73177 76.2188 5.05469 76.2188H3.13281V79.4141ZM14.7891 86.1562C13.5859 86.1562 12.6094 85.7786 11.8594 85.0234C11.1146 84.263 10.7422 83.2526 10.7422 81.9922V81.7578C10.7422 80.9141 10.9036 80.1615 11.2266 79.5C11.5547 78.8333 12.013 78.3151 12.6016 77.9453C13.1901 77.5755 13.8464 77.3906 14.5703 77.3906C15.7214 77.3906 16.6094 77.7578 17.2344 78.4922C17.8646 79.2266 18.1797 80.2656 18.1797 81.6094V82.375H12.6562C12.7135 83.0729 12.9453 83.625 13.3516 84.0312C13.763 84.4375 14.2786 84.6406 14.8984 84.6406C15.7682 84.6406 16.4766 84.2891 17.0234 83.5859L18.0469 84.5625C17.7083 85.0677 17.2552 85.4609 16.6875 85.7422C16.125 86.0182 15.4922 86.1562 14.7891 86.1562ZM14.5625 78.9141C14.0417 78.9141 13.6198 79.0964 13.2969 79.4609C12.9792 79.8255 12.776 80.3333 12.6875 80.9844H16.3047V80.8438C16.263 80.2083 16.0938 79.7292 15.7969 79.4062C15.5 79.0781 15.0885 78.9141 14.5625 78.9141ZM20.3281 86V78.9531H19.0391V77.5469H20.3281V76.7734C20.3281 75.8359 20.5885 75.112 21.1094 74.6016C21.6302 74.0911 22.3594 73.8359 23.2969 73.8359C23.6302 73.8359 23.9844 73.8828 24.3594 73.9766L24.3125 75.4609C24.1042 75.4193 23.862 75.3984 23.5859 75.3984C22.6797 75.3984 22.2266 75.8646 22.2266 76.7969V77.5469H23.9453V78.9531H22.2266V86H20.3281ZM24.9766 81.6953C24.9766 80.8672 25.1406 80.1224 25.4688 79.4609C25.7969 78.7943 26.2578 78.2839 26.8516 77.9297C27.4453 77.5703 28.1276 77.3906 28.8984 77.3906C30.0391 77.3906 30.9635 77.7578 31.6719 78.4922C32.3854 79.2266 32.7708 80.2005 32.8281 81.4141L32.8359 81.8594C32.8359 82.6927 32.6745 83.4375 32.3516 84.0938C32.0339 84.75 31.5755 85.2578 30.9766 85.6172C30.3828 85.9766 29.6953 86.1562 28.9141 86.1562C27.7214 86.1562 26.7656 85.7604 26.0469 84.9688C25.3333 84.1719 24.9766 83.112 24.9766 81.7891V81.6953ZM26.875 81.8594C26.875 82.7292 27.0547 83.4115 27.4141 83.9062C27.7734 84.3958 28.2734 84.6406 28.9141 84.6406C29.5547 84.6406 30.0521 84.3906 30.4062 83.8906C30.7656 83.3906 30.9453 82.6589 30.9453 81.6953C30.9453 80.8411 30.7604 80.1641 30.3906 79.6641C30.026 79.1641 29.5286 78.9141 28.8984 78.9141C28.2786 78.9141 27.7865 79.1615 27.4219 79.6562C27.0573 80.1458 26.875 80.8802 26.875 81.8594ZM38.8672 79.2812C38.6172 79.2396 38.3594 79.2188 38.0938 79.2188C37.224 79.2188 36.638 79.5521 36.3359 80.2188V86H34.4375V77.5469H36.25L36.2969 78.4922C36.7552 77.7578 37.3906 77.3906 38.2031 77.3906C38.474 77.3906 38.6979 77.4271 38.875 77.5L38.8672 79.2812ZM43.6328 86.1562C42.4297 86.1562 41.4531 85.7786 40.7031 85.0234C39.9583 84.263 39.5859 83.2526 39.5859 81.9922V81.7578C39.5859 80.9141 39.7474 80.1615 40.0703 79.5C40.3984 78.8333 40.8568 78.3151 41.4453 77.9453C42.0339 77.5755 42.6901 77.3906 43.4141 77.3906C44.5651 77.3906 45.4531 77.7578 46.0781 78.4922C46.7083 79.2266 47.0234 80.2656 47.0234 81.6094V82.375H41.5C41.5573 83.0729 41.7891 83.625 42.1953 84.0312C42.6068 84.4375 43.1224 84.6406 43.7422 84.6406C44.612 84.6406 45.3203 84.2891 45.8672 83.5859L46.8906 84.5625C46.5521 85.0677 46.099 85.4609 45.5312 85.7422C44.9688 86.0182 44.3359 86.1562 43.6328 86.1562ZM43.4062 78.9141C42.8854 78.9141 42.4635 79.0964 42.1406 79.4609C41.8229 79.8255 41.6198 80.3333 41.5312 80.9844H45.1484V80.8438C45.1068 80.2083 44.9375 79.7292 44.6406 79.4062C44.3438 79.0781 43.9323 78.9141 43.4062 78.9141Z" fill="#979797"/>
<path d="M111.543 89H109.363V74.5508L104.992 76.1562V74.1875L111.203 71.8555H111.543V89Z" fill="#9B9B9B" fill-opacity="0.63"/>
<path d="M124.504 90.4648H122.641L129.766 71.9375H131.617L124.504 90.4648ZM148 81.5C147.547 82.0391 147.004 82.4727 146.371 82.8008C145.746 83.1289 145.059 83.293 144.309 83.293C143.324 83.293 142.465 83.0508 141.73 82.5664C141.004 82.082 140.441 81.4023 140.043 80.5273C139.645 79.6445 139.445 78.6719 139.445 77.6094C139.445 76.4688 139.66 75.4414 140.09 74.5273C140.527 73.6133 141.145 72.9141 141.941 72.4297C142.738 71.9453 143.668 71.7031 144.73 71.7031C146.418 71.7031 147.746 72.3359 148.715 73.6016C149.691 74.8594 150.18 76.5781 150.18 78.7578V79.3906C150.18 82.7109 149.523 85.1367 148.211 86.668C146.898 88.1914 144.918 88.9727 142.27 89.0117H141.848V87.1836H142.305C144.094 87.1523 145.469 86.6875 146.43 85.7891C147.391 84.8828 147.914 83.4531 148 81.5ZM144.66 81.5C145.387 81.5 146.055 81.2773 146.664 80.832C147.281 80.3867 147.73 79.8359 148.012 79.1797V78.3125C148.012 76.8906 147.703 75.7344 147.086 74.8438C146.469 73.9531 145.688 73.5078 144.742 73.5078C143.789 73.5078 143.023 73.875 142.445 74.6094C141.867 75.3359 141.578 76.2969 141.578 77.4922C141.578 78.6562 141.855 79.6172 142.41 80.375C142.973 81.125 143.723 81.5 144.66 81.5Z" fill="#979797"/>
<path d="M288.117 81.7227C288.117 84.2617 287.684 86.1484 286.816 87.3828C285.949 88.6172 284.594 89.2344 282.75 89.2344C280.93 89.2344 279.582 88.6328 278.707 87.4297C277.832 86.2188 277.379 84.4141 277.348 82.0156V79.1211C277.348 76.6133 277.781 74.75 278.648 73.5312C279.516 72.3125 280.875 71.7031 282.727 71.7031C284.562 71.7031 285.914 72.293 286.781 73.4727C287.648 74.6445 288.094 76.457 288.117 78.9102V81.7227ZM285.949 78.7578C285.949 76.9219 285.691 75.5859 285.176 74.75C284.66 73.9062 283.844 73.4844 282.727 73.4844C281.617 73.4844 280.809 73.9023 280.301 74.7383C279.793 75.5742 279.531 76.8594 279.516 78.5938V82.0625C279.516 83.9062 279.781 85.2695 280.312 86.1523C280.852 87.0273 281.664 87.4648 282.75 87.4648C283.82 87.4648 284.613 87.0508 285.129 86.2227C285.652 85.3945 285.926 84.0898 285.949 82.3086V78.7578Z" fill="#9B9B9B" fill-opacity="0.63"/>
<path d="M297.504 90.4648H295.641L302.766 71.9375H304.617L297.504 90.4648ZM321 81.5C320.547 82.0391 320.004 82.4727 319.371 82.8008C318.746 83.1289 318.059 83.293 317.309 83.293C316.324 83.293 315.465 83.0508 314.73 82.5664C314.004 82.082 313.441 81.4023 313.043 80.5273C312.645 79.6445 312.445 78.6719 312.445 77.6094C312.445 76.4688 312.66 75.4414 313.09 74.5273C313.527 73.6133 314.145 72.9141 314.941 72.4297C315.738 71.9453 316.668 71.7031 317.73 71.7031C319.418 71.7031 320.746 72.3359 321.715 73.6016C322.691 74.8594 323.18 76.5781 323.18 78.7578V79.3906C323.18 82.7109 322.523 85.1367 321.211 86.668C319.898 88.1914 317.918 88.9727 315.27 89.0117H314.848V87.1836H315.305C317.094 87.1523 318.469 86.6875 319.43 85.7891C320.391 84.8828 320.914 83.4531 321 81.5ZM317.66 81.5C318.387 81.5 319.055 81.2773 319.664 80.832C320.281 80.3867 320.73 79.8359 321.012 79.1797V78.3125C321.012 76.8906 320.703 75.7344 320.086 74.8438C319.469 73.9531 318.688 73.5078 317.742 73.5078C316.789 73.5078 316.023 73.875 315.445 74.6094C314.867 75.3359 314.578 76.2969 314.578 77.4922C314.578 78.6562 314.855 79.6172 315.41 80.375C315.973 81.125 316.723 81.5 317.66 81.5Z" fill="#979797"/>
<path d="M461.598 89H450.418V87.4414L456.324 80.8789C457.199 79.8867 457.801 79.082 458.129 78.4648C458.465 77.8398 458.633 77.1953 458.633 76.5312C458.633 75.6406 458.363 74.9102 457.824 74.3398C457.285 73.7695 456.566 73.4844 455.668 73.4844C454.59 73.4844 453.75 73.793 453.148 74.4102C452.555 75.0195 452.258 75.8711 452.258 76.9648H450.09C450.09 75.3945 450.594 74.125 451.602 73.1562C452.617 72.1875 453.973 71.7031 455.668 71.7031C457.254 71.7031 458.508 72.1211 459.43 72.957C460.352 73.7852 460.812 74.8906 460.812 76.2734C460.812 77.9531 459.742 79.9531 457.602 82.2734L453.031 87.2305H461.598V89Z" fill="#9B9B9B" fill-opacity="0.63"/>
<path d="M470.504 90.4648H468.641L475.766 71.9375H477.617L470.504 90.4648ZM494 81.5C493.547 82.0391 493.004 82.4727 492.371 82.8008C491.746 83.1289 491.059 83.293 490.309 83.293C489.324 83.293 488.465 83.0508 487.73 82.5664C487.004 82.082 486.441 81.4023 486.043 80.5273C485.645 79.6445 485.445 78.6719 485.445 77.6094C485.445 76.4688 485.66 75.4414 486.09 74.5273C486.527 73.6133 487.145 72.9141 487.941 72.4297C488.738 71.9453 489.668 71.7031 490.73 71.7031C492.418 71.7031 493.746 72.3359 494.715 73.6016C495.691 74.8594 496.18 76.5781 496.18 78.7578V79.3906C496.18 82.7109 495.523 85.1367 494.211 86.668C492.898 88.1914 490.918 88.9727 488.27 89.0117H487.848V87.1836H488.305C490.094 87.1523 491.469 86.6875 492.43 85.7891C493.391 84.8828 493.914 83.4531 494 81.5ZM490.66 81.5C491.387 81.5 492.055 81.2773 492.664 80.832C493.281 80.3867 493.73 79.8359 494.012 79.1797V78.3125C494.012 76.8906 493.703 75.7344 493.086 74.8438C492.469 73.9531 491.688 73.5078 490.742 73.5078C489.789 73.5078 489.023 73.875 488.445 74.6094C487.867 75.3359 487.578 76.2969 487.578 77.4922C487.578 78.6562 487.855 79.6172 488.41 80.375C488.973 81.125 489.723 81.5 490.66 81.5Z" fill="#979797"/>
<path d="M631.57 79.4141H633.199C634.223 79.3984 635.027 79.1289 635.613 78.6055C636.199 78.082 636.492 77.375 636.492 76.4844C636.492 74.4844 635.496 73.4844 633.504 73.4844C632.566 73.4844 631.816 73.7539 631.254 74.293C630.699 74.8242 630.422 75.5312 630.422 76.4141H628.254C628.254 75.0625 628.746 73.9414 629.73 73.0508C630.723 72.1523 631.98 71.7031 633.504 71.7031C635.113 71.7031 636.375 72.1289 637.289 72.9805C638.203 73.832 638.66 75.0156 638.66 76.5312C638.66 77.2734 638.418 77.9922 637.934 78.6875C637.457 79.3828 636.805 79.9023 635.977 80.2461C636.914 80.543 637.637 81.0352 638.145 81.7227C638.66 82.4102 638.918 83.25 638.918 84.2422C638.918 85.7734 638.418 86.9883 637.418 87.8867C636.418 88.7852 635.117 89.2344 633.516 89.2344C631.914 89.2344 630.609 88.8008 629.602 87.9336C628.602 87.0664 628.102 85.9219 628.102 84.5H630.281C630.281 85.3984 630.574 86.1172 631.16 86.6562C631.746 87.1953 632.531 87.4648 633.516 87.4648C634.562 87.4648 635.363 87.1914 635.918 86.6445C636.473 86.0977 636.75 85.3125 636.75 84.2891C636.75 83.2969 636.445 82.5352 635.836 82.0039C635.227 81.4727 634.348 81.1992 633.199 81.1836H631.57V79.4141Z" fill="#9B9B9B" fill-opacity="0.63"/>
<path d="M648.504 90.4648H646.641L653.766 71.9375H655.617L648.504 90.4648ZM672 81.5C671.547 82.0391 671.004 82.4727 670.371 82.8008C669.746 83.1289 669.059 83.293 668.309 83.293C667.324 83.293 666.465 83.0508 665.73 82.5664C665.004 82.082 664.441 81.4023 664.043 80.5273C663.645 79.6445 663.445 78.6719 663.445 77.6094C663.445 76.4688 663.66 75.4414 664.09 74.5273C664.527 73.6133 665.145 72.9141 665.941 72.4297C666.738 71.9453 667.668 71.7031 668.73 71.7031C670.418 71.7031 671.746 72.3359 672.715 73.6016C673.691 74.8594 674.18 76.5781 674.18 78.7578V79.3906C674.18 82.7109 673.523 85.1367 672.211 86.668C670.898 88.1914 668.918 88.9727 666.27 89.0117H665.848V87.1836H666.305C668.094 87.1523 669.469 86.6875 670.43 85.7891C671.391 84.8828 671.914 83.4531 672 81.5ZM668.66 81.5C669.387 81.5 670.055 81.2773 670.664 80.832C671.281 80.3867 671.73 79.8359 672.012 79.1797V78.3125C672.012 76.8906 671.703 75.7344 671.086 74.8438C670.469 73.9531 669.688 73.5078 668.742 73.5078C667.789 73.5078 667.023 73.875 666.445 74.6094C665.867 75.3359 665.578 76.2969 665.578 77.4922C665.578 78.6562 665.855 79.6172 666.41 80.375C666.973 81.125 667.723 81.5 668.66 81.5Z" fill="#979797"/>
<path d="M115.434 137.156L108.367 153H106.094L113.137 137.719H103.902V135.938H115.434V137.156Z" fill="#B2CEFF"/>
<path d="M124.504 154.465H122.641L129.766 135.938H131.617L124.504 154.465ZM148 145.5C147.547 146.039 147.004 146.473 146.371 146.801C145.746 147.129 145.059 147.293 144.309 147.293C143.324 147.293 142.465 147.051 141.73 146.566C141.004 146.082 140.441 145.402 140.043 144.527C139.645 143.645 139.445 142.672 139.445 141.609C139.445 140.469 139.66 139.441 140.09 138.527C140.527 137.613 141.145 136.914 141.941 136.43C142.738 135.945 143.668 135.703 144.73 135.703C146.418 135.703 147.746 136.336 148.715 137.602C149.691 138.859 150.18 140.578 150.18 142.758V143.391C150.18 146.711 149.523 149.137 148.211 150.668C146.898 152.191 144.918 152.973 142.27 153.012H141.848V151.184H142.305C144.094 151.152 145.469 150.688 146.43 149.789C147.391 148.883 147.914 147.453 148 145.5ZM144.66 145.5C145.387 145.5 146.055 145.277 146.664 144.832C147.281 144.387 147.73 143.836 148.012 143.18V142.312C148.012 140.891 147.703 139.734 147.086 138.844C146.469 137.953 145.688 137.508 144.742 137.508C143.789 137.508 143.023 137.875 142.445 138.609C141.867 139.336 141.578 140.297 141.578 141.492C141.578 142.656 141.855 143.617 142.41 144.375C142.973 145.125 143.723 145.5 144.66 145.5Z" fill="black"/>
<path d="M285.926 135.926V137.766H285.527C283.84 137.797 282.496 138.297 281.496 139.266C280.496 140.234 279.918 141.598 279.762 143.355C280.66 142.324 281.887 141.809 283.441 141.809C284.926 141.809 286.109 142.332 286.992 143.379C287.883 144.426 288.328 145.777 288.328 147.434C288.328 149.191 287.848 150.598 286.887 151.652C285.934 152.707 284.652 153.234 283.043 153.234C281.41 153.234 280.086 152.609 279.07 151.359C278.055 150.102 277.547 148.484 277.547 146.508V145.676C277.547 142.535 278.215 140.137 279.551 138.48C280.895 136.816 282.891 135.965 285.539 135.926H285.926ZM283.078 143.613C282.336 143.613 281.652 143.836 281.027 144.281C280.402 144.727 279.969 145.285 279.727 145.957V146.754C279.727 148.16 280.043 149.293 280.676 150.152C281.309 151.012 282.098 151.441 283.043 151.441C284.02 151.441 284.785 151.082 285.34 150.363C285.902 149.645 286.184 148.703 286.184 147.539C286.184 146.367 285.898 145.422 285.328 144.703C284.766 143.977 284.016 143.613 283.078 143.613Z" fill="#B2CEFF"/>
<path d="M297.504 154.465H295.641L302.766 135.938H304.617L297.504 154.465ZM321 145.5C320.547 146.039 320.004 146.473 319.371 146.801C318.746 147.129 318.059 147.293 317.309 147.293C316.324 147.293 315.465 147.051 314.73 146.566C314.004 146.082 313.441 145.402 313.043 144.527C312.645 143.645 312.445 142.672 312.445 141.609C312.445 140.469 312.66 139.441 313.09 138.527C313.527 137.613 314.145 136.914 314.941 136.43C315.738 135.945 316.668 135.703 317.73 135.703C319.418 135.703 320.746 136.336 321.715 137.602C322.691 138.859 323.18 140.578 323.18 142.758V143.391C323.18 146.711 322.523 149.137 321.211 150.668C319.898 152.191 317.918 152.973 315.27 153.012H314.848V151.184H315.305C317.094 151.152 318.469 150.688 319.43 149.789C320.391 148.883 320.914 147.453 321 145.5ZM317.66 145.5C318.387 145.5 319.055 145.277 319.664 144.832C320.281 144.387 320.73 143.836 321.012 143.18V142.312C321.012 140.891 320.703 139.734 320.086 138.844C319.469 137.953 318.688 137.508 317.742 137.508C316.789 137.508 316.023 137.875 315.445 138.609C314.867 139.336 314.578 140.297 314.578 141.492C314.578 142.656 314.855 143.617 315.41 144.375C315.973 145.125 316.723 145.5 317.66 145.5Z" fill="black"/>
<path d="M461.434 137.156L454.367 153H452.094L459.137 137.719H449.902V135.938H461.434V137.156Z" fill="#B2CEFF"/>
<path d="M470.504 154.465H468.641L475.766 135.938H477.617L470.504 154.465ZM494 145.5C493.547 146.039 493.004 146.473 492.371 146.801C491.746 147.129 491.059 147.293 490.309 147.293C489.324 147.293 488.465 147.051 487.73 146.566C487.004 146.082 486.441 145.402 486.043 144.527C485.645 143.645 485.445 142.672 485.445 141.609C485.445 140.469 485.66 139.441 486.09 138.527C486.527 137.613 487.145 136.914 487.941 136.43C488.738 135.945 489.668 135.703 490.73 135.703C492.418 135.703 493.746 136.336 494.715 137.602C495.691 138.859 496.18 140.578 496.18 142.758V143.391C496.18 146.711 495.523 149.137 494.211 150.668C492.898 152.191 490.918 152.973 488.27 153.012H487.848V151.184H488.305C490.094 151.152 491.469 150.688 492.43 149.789C493.391 148.883 493.914 147.453 494 145.5ZM490.66 145.5C491.387 145.5 492.055 145.277 492.664 144.832C493.281 144.387 493.73 143.836 494.012 143.18V142.312C494.012 140.891 493.703 139.734 493.086 138.844C492.469 137.953 491.688 137.508 490.742 137.508C489.789 137.508 489.023 137.875 488.445 138.609C487.867 139.336 487.578 140.297 487.578 141.492C487.578 142.656 487.855 143.617 488.41 144.375C488.973 145.125 489.723 145.5 490.66 145.5Z" fill="black"/>
<path d="M638.766 140.391C638.766 141.242 638.539 142 638.086 142.664C637.641 143.328 637.035 143.848 636.27 144.223C637.16 144.605 637.863 145.164 638.379 145.898C638.902 146.633 639.164 147.465 639.164 148.395C639.164 149.871 638.664 151.047 637.664 151.922C636.672 152.797 635.363 153.234 633.738 153.234C632.098 153.234 630.781 152.797 629.789 151.922C628.805 151.039 628.312 149.863 628.312 148.395C628.312 147.473 628.562 146.641 629.062 145.898C629.57 145.156 630.27 144.594 631.16 144.211C630.402 143.836 629.805 143.316 629.367 142.652C628.93 141.988 628.711 141.234 628.711 140.391C628.711 138.953 629.172 137.812 630.094 136.969C631.016 136.125 632.23 135.703 633.738 135.703C635.238 135.703 636.449 136.125 637.371 136.969C638.301 137.812 638.766 138.953 638.766 140.391ZM636.996 148.348C636.996 147.395 636.691 146.617 636.082 146.016C635.48 145.414 634.691 145.113 633.715 145.113C632.738 145.113 631.953 145.41 631.359 146.004C630.773 146.598 630.48 147.379 630.48 148.348C630.48 149.316 630.766 150.078 631.336 150.633C631.914 151.188 632.715 151.465 633.738 151.465C634.754 151.465 635.551 151.188 636.129 150.633C636.707 150.07 636.996 149.309 636.996 148.348ZM633.738 137.484C632.887 137.484 632.195 137.75 631.664 138.281C631.141 138.805 630.879 139.52 630.879 140.426C630.879 141.293 631.137 141.996 631.652 142.535C632.176 143.066 632.871 143.332 633.738 143.332C634.605 143.332 635.297 143.066 635.812 142.535C636.336 141.996 636.598 141.293 636.598 140.426C636.598 139.559 636.328 138.852 635.789 138.305C635.25 137.758 634.566 137.484 633.738 137.484Z" fill="#B2CEFF"/>
<path d="M648.504 154.465H646.641L653.766 135.938H655.617L648.504 154.465ZM672 145.5C671.547 146.039 671.004 146.473 670.371 146.801C669.746 147.129 669.059 147.293 668.309 147.293C667.324 147.293 666.465 147.051 665.73 146.566C665.004 146.082 664.441 145.402 664.043 144.527C663.645 143.645 663.445 142.672 663.445 141.609C663.445 140.469 663.66 139.441 664.09 138.527C664.527 137.613 665.145 136.914 665.941 136.43C666.738 135.945 667.668 135.703 668.73 135.703C670.418 135.703 671.746 136.336 672.715 137.602C673.691 138.859 674.18 140.578 674.18 142.758V143.391C674.18 146.711 673.523 149.137 672.211 150.668C670.898 152.191 668.918 152.973 666.27 153.012H665.848V151.184H666.305C668.094 151.152 669.469 150.688 670.43 149.789C671.391 148.883 671.914 147.453 672 145.5ZM668.66 145.5C669.387 145.5 670.055 145.277 670.664 144.832C671.281 144.387 671.73 143.836 672.012 143.18V142.312C672.012 140.891 671.703 139.734 671.086 138.844C670.469 137.953 669.688 137.508 668.742 137.508C667.789 137.508 667.023 137.875 666.445 138.609C665.867 139.336 665.578 140.297 665.578 141.492C665.578 142.656 665.855 143.617 666.41 144.375C666.973 145.125 667.723 145.5 668.66 145.5Z" fill="black"/>
<path d="M7.52344 147.352H3.11719L2.19531 150H0.140625L4.4375 138.625H6.21094L10.5156 150H8.45312L7.52344 147.352ZM3.67188 145.758H6.96875L5.32031 141.039L3.67188 145.758ZM12.2969 150V142.953H11.0078V141.547H12.2969V140.773C12.2969 139.836 12.5573 139.112 13.0781 138.602C13.599 138.091 14.3281 137.836 15.2656 137.836C15.599 137.836 15.9531 137.883 16.3281 137.977L16.2812 139.461C16.0729 139.419 15.8307 139.398 15.5547 139.398C14.6484 139.398 14.1953 139.865 14.1953 140.797V141.547H15.9141V142.953H14.1953V150H12.2969ZM19.6797 139.492V141.547H21.1719V142.953H19.6797V147.672C19.6797 147.995 19.7422 148.229 19.8672 148.375C19.9974 148.516 20.2266 148.586 20.5547 148.586C20.7734 148.586 20.9948 148.56 21.2188 148.508V149.977C20.7865 150.096 20.3698 150.156 19.9688 150.156C18.5104 150.156 17.7812 149.352 17.7812 147.742V142.953H16.3906V141.547H17.7812V139.492H19.6797ZM26.3516 150.156C25.1484 150.156 24.1719 149.779 23.4219 149.023C22.6771 148.263 22.3047 147.253 22.3047 145.992V145.758C22.3047 144.914 22.4661 144.161 22.7891 143.5C23.1172 142.833 23.5755 142.315 24.1641 141.945C24.7526 141.576 25.4089 141.391 26.1328 141.391C27.2839 141.391 28.1719 141.758 28.7969 142.492C29.4271 143.227 29.7422 144.266 29.7422 145.609V146.375H24.2188C24.276 147.073 24.5078 147.625 24.9141 148.031C25.3255 148.438 25.8411 148.641 26.4609 148.641C27.3307 148.641 28.0391 148.289 28.5859 147.586L29.6094 148.562C29.2708 149.068 28.8177 149.461 28.25 149.742C27.6875 150.018 27.0547 150.156 26.3516 150.156ZM26.125 142.914C25.6042 142.914 25.1823 143.096 24.8594 143.461C24.5417 143.826 24.3385 144.333 24.25 144.984H27.8672V144.844C27.8255 144.208 27.6562 143.729 27.3594 143.406C27.0625 143.078 26.651 142.914 26.125 142.914ZM35.6484 143.281C35.3984 143.24 35.1406 143.219 34.875 143.219C34.0052 143.219 33.4193 143.552 33.1172 144.219V150H31.2188V141.547H33.0312L33.0781 142.492C33.5365 141.758 34.1719 141.391 34.9844 141.391C35.2552 141.391 35.4792 141.427 35.6562 141.5L35.6484 143.281Z" fill="black"/>
<path d="M78.7188 28.5469H73.3984V33.1875H79.5156V34H72.4375V22.625H79.4766V23.4453H73.3984V27.7344H78.7188V28.5469ZM86.6641 34C86.5703 33.7344 86.5104 33.3411 86.4844 32.8203C86.1562 33.2474 85.737 33.5781 85.2266 33.8125C84.7214 34.0417 84.1849 34.1562 83.6172 34.1562C82.8047 34.1562 82.1458 33.9297 81.6406 33.4766C81.1406 33.0234 80.8906 32.4505 80.8906 31.7578C80.8906 30.9349 81.2318 30.2839 81.9141 29.8047C82.6016 29.3255 83.5573 29.0859 84.7812 29.0859H86.4766V28.125C86.4766 27.5208 86.2891 27.0469 85.9141 26.7031C85.5443 26.3542 85.0026 26.1797 84.2891 26.1797C83.638 26.1797 83.099 26.3464 82.6719 26.6797C82.2448 27.013 82.0312 27.4141 82.0312 27.8828L81.0938 27.875C81.0938 27.2031 81.4062 26.6224 82.0312 26.1328C82.6562 25.638 83.4245 25.3906 84.3359 25.3906C85.2786 25.3906 86.0208 25.6276 86.5625 26.1016C87.1094 26.5703 87.3906 27.2266 87.4062 28.0703V32.0703C87.4062 32.888 87.4922 33.5 87.6641 33.9062V34H86.6641ZM83.7266 33.3281C84.3516 33.3281 84.9089 33.1771 85.3984 32.875C85.8932 32.5729 86.2526 32.1693 86.4766 31.6641V29.8047H84.8047C83.8724 29.8151 83.1432 29.987 82.6172 30.3203C82.0911 30.6484 81.8281 31.1016 81.8281 31.6797C81.8281 32.1536 82.0026 32.5469 82.3516 32.8594C82.7057 33.1719 83.1641 33.3281 83.7266 33.3281ZM94.9688 31.8516C94.9688 31.388 94.7812 31.0156 94.4062 30.7344C94.0365 30.4531 93.4766 30.2344 92.7266 30.0781C91.9766 29.9167 91.3932 29.7344 90.9766 29.5312C90.5651 29.3229 90.2578 29.0703 90.0547 28.7734C89.8568 28.4766 89.7578 28.1172 89.7578 27.6953C89.7578 27.0286 90.0365 26.4792 90.5938 26.0469C91.151 25.6094 91.8646 25.3906 92.7344 25.3906C93.6771 25.3906 94.4323 25.625 95 26.0938C95.5729 26.5573 95.8594 27.1641 95.8594 27.9141H94.9219C94.9219 27.4193 94.7135 27.0078 94.2969 26.6797C93.8854 26.3516 93.3646 26.1875 92.7344 26.1875C92.1198 26.1875 91.625 26.3255 91.25 26.6016C90.8802 26.8724 90.6953 27.2266 90.6953 27.6641C90.6953 28.0859 90.849 28.4141 91.1562 28.6484C91.4688 28.8776 92.0339 29.0885 92.8516 29.2812C93.6745 29.474 94.2891 29.6797 94.6953 29.8984C95.1068 30.1172 95.4115 30.3802 95.6094 30.6875C95.8073 30.9948 95.9062 31.3672 95.9062 31.8047C95.9062 32.5182 95.6172 33.0885 95.0391 33.5156C94.4661 33.9427 93.7161 34.1562 92.7891 34.1562C91.8047 34.1562 91.0052 33.9193 90.3906 33.4453C89.7812 32.9661 89.4766 32.362 89.4766 31.6328H90.4141C90.4505 32.1797 90.6797 32.6068 91.1016 32.9141C91.5286 33.2161 92.0911 33.3672 92.7891 33.3672C93.4401 33.3672 93.9661 33.224 94.3672 32.9375C94.7682 32.651 94.9688 32.2891 94.9688 31.8516ZM100.695 32.6562L103.164 25.5469H104.172L100.562 35.4375L100.375 35.875C99.9115 36.901 99.1953 37.4141 98.2266 37.4141C98.0026 37.4141 97.763 37.3776 97.5078 37.3047L97.5 36.5312L97.9844 36.5781C98.4427 36.5781 98.8125 36.4635 99.0938 36.2344C99.3802 36.0104 99.6224 35.6224 99.8203 35.0703L100.234 33.9297L97.0469 25.5469H98.0703L100.695 32.6562ZM110.906 34H109.945V22.625H110.906V34ZM114.672 25.5469L114.703 26.9922C115.021 26.4714 115.417 26.0755 115.891 25.8047C116.365 25.5286 116.888 25.3906 117.461 25.3906C118.367 25.3906 119.042 25.6458 119.484 26.1562C119.927 26.6667 120.151 27.4323 120.156 28.4531V34H119.227V28.4453C119.221 27.6901 119.06 27.1276 118.742 26.7578C118.43 26.388 117.927 26.2031 117.234 26.2031C116.656 26.2031 116.143 26.3854 115.695 26.75C115.253 27.1094 114.924 27.5964 114.711 28.2109V34H113.781V25.5469H114.672ZM124.031 23.3828V25.5469H125.781V26.3125H124.031V31.9453C124.031 32.4141 124.115 32.763 124.281 32.9922C124.453 33.2214 124.737 33.3359 125.133 33.3359C125.289 33.3359 125.542 33.3099 125.891 33.2578L125.93 34.0234C125.685 34.112 125.352 34.1562 124.93 34.1562C124.289 34.1562 123.823 33.9714 123.531 33.6016C123.24 33.2266 123.094 32.6771 123.094 31.9531V26.3125H121.539V25.5469H123.094V23.3828H124.031ZM130.992 34.1562C130.273 34.1562 129.622 33.9792 129.039 33.625C128.461 33.2708 128.01 32.7786 127.688 32.1484C127.365 31.513 127.203 30.8021 127.203 30.0156V29.6797C127.203 28.8672 127.359 28.1354 127.672 27.4844C127.99 26.8333 128.43 26.3229 128.992 25.9531C129.555 25.5781 130.164 25.3906 130.82 25.3906C131.846 25.3906 132.659 25.7422 133.258 26.4453C133.862 27.1432 134.164 28.099 134.164 29.3125V29.8359H128.133V30.0156C128.133 30.974 128.406 31.7734 128.953 32.4141C129.505 33.0495 130.198 33.3672 131.031 33.3672C131.531 33.3672 131.971 33.276 132.352 33.0938C132.737 32.9115 133.086 32.6198 133.398 32.2188L133.984 32.6641C133.297 33.6589 132.299 34.1562 130.992 34.1562ZM130.82 26.1875C130.117 26.1875 129.523 26.4453 129.039 26.9609C128.56 27.4766 128.268 28.1693 128.164 29.0391H133.234V28.9375C133.208 28.125 132.977 27.4635 132.539 26.9531C132.102 26.4427 131.529 26.1875 130.82 26.1875ZM139.891 26.3438C139.693 26.3073 139.482 26.2891 139.258 26.2891C138.674 26.2891 138.18 26.4531 137.773 26.7812C137.372 27.1042 137.086 27.5755 136.914 28.1953V34H135.984V25.5469H136.898L136.914 26.8906C137.409 25.8906 138.203 25.3906 139.297 25.3906C139.557 25.3906 139.763 25.4245 139.914 25.4922L139.891 26.3438ZM146.398 34C146.305 33.7344 146.245 33.3411 146.219 32.8203C145.891 33.2474 145.471 33.5781 144.961 33.8125C144.456 34.0417 143.919 34.1562 143.352 34.1562C142.539 34.1562 141.88 33.9297 141.375 33.4766C140.875 33.0234 140.625 32.4505 140.625 31.7578C140.625 30.9349 140.966 30.2839 141.648 29.8047C142.336 29.3255 143.292 29.0859 144.516 29.0859H146.211V28.125C146.211 27.5208 146.023 27.0469 145.648 26.7031C145.279 26.3542 144.737 26.1797 144.023 26.1797C143.372 26.1797 142.833 26.3464 142.406 26.6797C141.979 27.013 141.766 27.4141 141.766 27.8828L140.828 27.875C140.828 27.2031 141.141 26.6224 141.766 26.1328C142.391 25.638 143.159 25.3906 144.07 25.3906C145.013 25.3906 145.755 25.6276 146.297 26.1016C146.844 26.5703 147.125 27.2266 147.141 28.0703V32.0703C147.141 32.888 147.227 33.5 147.398 33.9062V34H146.398ZM143.461 33.3281C144.086 33.3281 144.643 33.1771 145.133 32.875C145.628 32.5729 145.987 32.1693 146.211 31.6641V29.8047H144.539C143.607 29.8151 142.878 29.987 142.352 30.3203C141.826 30.6484 141.562 31.1016 141.562 31.6797C141.562 32.1536 141.737 32.5469 142.086 32.8594C142.44 33.1719 142.898 33.3281 143.461 33.3281ZM152.766 33.3672C153.417 33.3672 153.961 33.1849 154.398 32.8203C154.841 32.4505 155.081 31.974 155.117 31.3906H156.016C155.99 31.9062 155.828 32.3776 155.531 32.8047C155.234 33.2266 154.839 33.5573 154.344 33.7969C153.854 34.0365 153.328 34.1562 152.766 34.1562C151.656 34.1562 150.776 33.7708 150.125 33C149.479 32.2292 149.156 31.1927 149.156 29.8906V29.6094C149.156 28.776 149.302 28.0391 149.594 27.3984C149.885 26.7578 150.302 26.263 150.844 25.9141C151.391 25.5651 152.029 25.3906 152.758 25.3906C153.685 25.3906 154.448 25.6667 155.047 26.2188C155.651 26.7708 155.974 27.4974 156.016 28.3984H155.117C155.076 27.737 154.836 27.2031 154.398 26.7969C153.966 26.3906 153.419 26.1875 152.758 26.1875C151.914 26.1875 151.258 26.4922 150.789 27.1016C150.326 27.7109 150.094 28.5651 150.094 29.6641V29.9375C150.094 31.0156 150.326 31.8568 150.789 32.4609C151.258 33.0651 151.917 33.3672 152.766 33.3672ZM159.344 23.3828V25.5469H161.094V26.3125H159.344V31.9453C159.344 32.4141 159.427 32.763 159.594 32.9922C159.766 33.2214 160.049 33.3359 160.445 33.3359C160.602 33.3359 160.854 33.3099 161.203 33.2578L161.242 34.0234C160.997 34.112 160.664 34.1562 160.242 34.1562C159.602 34.1562 159.135 33.9714 158.844 33.6016C158.552 33.2266 158.406 32.6771 158.406 31.9531V26.3125H156.852V25.5469H158.406V23.3828H159.344ZM164.078 34H163.141V25.5469H164.078V34ZM162.977 23.1016C162.977 22.9245 163.034 22.776 163.148 22.6562C163.263 22.5312 163.419 22.4688 163.617 22.4688C163.815 22.4688 163.971 22.5312 164.086 22.6562C164.206 22.776 164.266 22.9245 164.266 23.1016C164.266 23.2786 164.206 23.4271 164.086 23.5469C163.971 23.6667 163.815 23.7266 163.617 23.7266C163.419 23.7266 163.263 23.6667 163.148 23.5469C163.034 23.4271 162.977 23.2786 162.977 23.1016ZM166.109 29.6484C166.109 28.8359 166.266 28.1042 166.578 27.4531C166.896 26.8021 167.341 26.2969 167.914 25.9375C168.492 25.5729 169.146 25.3906 169.875 25.3906C171 25.3906 171.911 25.7865 172.609 26.5781C173.307 27.3646 173.656 28.4089 173.656 29.7109V29.9062C173.656 30.724 173.497 31.4609 173.18 32.1172C172.867 32.7682 172.424 33.2708 171.852 33.625C171.279 33.9792 170.625 34.1562 169.891 34.1562C168.771 34.1562 167.859 33.763 167.156 32.9766C166.458 32.1849 166.109 31.138 166.109 29.8359V29.6484ZM167.047 29.9062C167.047 30.9167 167.307 31.7474 167.828 32.3984C168.354 33.0443 169.042 33.3672 169.891 33.3672C170.734 33.3672 171.417 33.0443 171.938 32.3984C172.464 31.7474 172.727 30.8906 172.727 29.8281V29.6484C172.727 29.0026 172.607 28.4115 172.367 27.875C172.128 27.3385 171.792 26.9245 171.359 26.6328C170.927 26.3359 170.432 26.1875 169.875 26.1875C169.042 26.1875 168.362 26.5156 167.836 27.1719C167.31 27.8229 167.047 28.6771 167.047 29.7344V29.9062ZM176.484 25.5469L176.516 26.9922C176.833 26.4714 177.229 26.0755 177.703 25.8047C178.177 25.5286 178.701 25.3906 179.273 25.3906C180.18 25.3906 180.854 25.6458 181.297 26.1562C181.74 26.6667 181.964 27.4323 181.969 28.4531V34H181.039V28.4453C181.034 27.6901 180.872 27.1276 180.555 26.7578C180.242 26.388 179.74 26.2031 179.047 26.2031C178.469 26.2031 177.956 26.3854 177.508 26.75C177.065 27.1094 176.737 27.5964 176.523 28.2109V34H175.594V25.5469H176.484Z" fill="black"/>
<path d="M441.156 23.4453H437.258V34H436.297V23.4453H432.406V22.625H441.156V23.4453ZM447.227 34C447.133 33.7344 447.073 33.3411 447.047 32.8203C446.719 33.2474 446.299 33.5781 445.789 33.8125C445.284 34.0417 444.747 34.1562 444.18 34.1562C443.367 34.1562 442.708 33.9297 442.203 33.4766C441.703 33.0234 441.453 32.4505 441.453 31.7578C441.453 30.9349 441.794 30.2839 442.477 29.8047C443.164 29.3255 444.12 29.0859 445.344 29.0859H447.039V28.125C447.039 27.5208 446.852 27.0469 446.477 26.7031C446.107 26.3542 445.565 26.1797 444.852 26.1797C444.201 26.1797 443.661 26.3464 443.234 26.6797C442.807 27.013 442.594 27.4141 442.594 27.8828L441.656 27.875C441.656 27.2031 441.969 26.6224 442.594 26.1328C443.219 25.638 443.987 25.3906 444.898 25.3906C445.841 25.3906 446.583 25.6276 447.125 26.1016C447.672 26.5703 447.953 27.2266 447.969 28.0703V32.0703C447.969 32.888 448.055 33.5 448.227 33.9062V34H447.227ZM444.289 33.3281C444.914 33.3281 445.471 33.1771 445.961 32.875C446.456 32.5729 446.815 32.1693 447.039 31.6641V29.8047H445.367C444.435 29.8151 443.706 29.987 443.18 30.3203C442.654 30.6484 442.391 31.1016 442.391 31.6797C442.391 32.1536 442.565 32.5469 442.914 32.8594C443.268 33.1719 443.727 33.3281 444.289 33.3281ZM455.531 31.8516C455.531 31.388 455.344 31.0156 454.969 30.7344C454.599 30.4531 454.039 30.2344 453.289 30.0781C452.539 29.9167 451.956 29.7344 451.539 29.5312C451.128 29.3229 450.82 29.0703 450.617 28.7734C450.419 28.4766 450.32 28.1172 450.32 27.6953C450.32 27.0286 450.599 26.4792 451.156 26.0469C451.714 25.6094 452.427 25.3906 453.297 25.3906C454.24 25.3906 454.995 25.625 455.562 26.0938C456.135 26.5573 456.422 27.1641 456.422 27.9141H455.484C455.484 27.4193 455.276 27.0078 454.859 26.6797C454.448 26.3516 453.927 26.1875 453.297 26.1875C452.682 26.1875 452.188 26.3255 451.812 26.6016C451.443 26.8724 451.258 27.2266 451.258 27.6641C451.258 28.0859 451.411 28.4141 451.719 28.6484C452.031 28.8776 452.596 29.0885 453.414 29.2812C454.237 29.474 454.852 29.6797 455.258 29.8984C455.669 30.1172 455.974 30.3802 456.172 30.6875C456.37 30.9948 456.469 31.3672 456.469 31.8047C456.469 32.5182 456.18 33.0885 455.602 33.5156C455.029 33.9427 454.279 34.1562 453.352 34.1562C452.367 34.1562 451.568 33.9193 450.953 33.4453C450.344 32.9661 450.039 32.362 450.039 31.6328H450.977C451.013 32.1797 451.242 32.6068 451.664 32.9141C452.091 33.2161 452.654 33.3672 453.352 33.3672C454.003 33.3672 454.529 33.224 454.93 32.9375C455.331 32.651 455.531 32.2891 455.531 31.8516ZM460.586 29.7422L459.516 30.7734V34H458.578V22H459.516V29.6797L460.398 28.7266L463.633 25.5469H464.812L461.227 29.1094L465.125 34H464.008L460.586 29.7422ZM476.969 31.2031C476.969 30.5729 476.747 30.0755 476.305 29.7109C475.862 29.3411 475.052 28.9922 473.875 28.6641C472.698 28.3307 471.839 27.9688 471.297 27.5781C470.526 27.026 470.141 26.3021 470.141 25.4062C470.141 24.5365 470.497 23.8307 471.211 23.2891C471.93 22.7422 472.846 22.4688 473.961 22.4688C474.716 22.4688 475.391 22.6146 475.984 22.9062C476.583 23.1979 477.047 23.6042 477.375 24.125C477.703 24.6458 477.867 25.2266 477.867 25.8672H476.898C476.898 25.0911 476.633 24.4688 476.102 24C475.57 23.526 474.857 23.2891 473.961 23.2891C473.091 23.2891 472.398 23.4844 471.883 23.875C471.367 24.2604 471.109 24.7656 471.109 25.3906C471.109 25.9688 471.341 26.4401 471.805 26.8047C472.268 27.1693 473.01 27.4922 474.031 27.7734C475.052 28.0495 475.826 28.3385 476.352 28.6406C476.878 28.9375 477.273 29.2943 477.539 29.7109C477.805 30.1276 477.938 30.6198 477.938 31.1875C477.938 32.0833 477.578 32.8021 476.859 33.3438C476.146 33.8854 475.203 34.1562 474.031 34.1562C473.229 34.1562 472.492 34.013 471.82 33.7266C471.154 33.4401 470.646 33.0391 470.297 32.5234C469.953 32.0078 469.781 31.4167 469.781 30.75H470.742C470.742 31.5521 471.042 32.1849 471.641 32.6484C472.24 33.112 473.036 33.3438 474.031 33.3438C474.917 33.3438 475.628 33.1484 476.164 32.7578C476.701 32.3672 476.969 31.849 476.969 31.2031ZM485.234 32.9297C484.672 33.7474 483.773 34.1562 482.539 34.1562C481.638 34.1562 480.953 33.8958 480.484 33.375C480.016 32.849 479.776 32.0729 479.766 31.0469V25.5469H480.695V30.9297C480.695 32.5391 481.346 33.3438 482.648 33.3438C484.003 33.3438 484.859 32.7839 485.219 31.6641V25.5469H486.156V34H485.25L485.234 32.9297ZM491.719 33.3672C492.37 33.3672 492.914 33.1849 493.352 32.8203C493.794 32.4505 494.034 31.974 494.07 31.3906H494.969C494.943 31.9062 494.781 32.3776 494.484 32.8047C494.188 33.2266 493.792 33.5573 493.297 33.7969C492.807 34.0365 492.281 34.1562 491.719 34.1562C490.609 34.1562 489.729 33.7708 489.078 33C488.432 32.2292 488.109 31.1927 488.109 29.8906V29.6094C488.109 28.776 488.255 28.0391 488.547 27.3984C488.839 26.7578 489.255 26.263 489.797 25.9141C490.344 25.5651 490.982 25.3906 491.711 25.3906C492.638 25.3906 493.401 25.6667 494 26.2188C494.604 26.7708 494.927 27.4974 494.969 28.3984H494.07C494.029 27.737 493.789 27.2031 493.352 26.7969C492.919 26.3906 492.372 26.1875 491.711 26.1875C490.867 26.1875 490.211 26.4922 489.742 27.1016C489.279 27.7109 489.047 28.5651 489.047 29.6641V29.9375C489.047 31.0156 489.279 31.8568 489.742 32.4609C490.211 33.0651 490.87 33.3672 491.719 33.3672ZM499.969 33.3672C500.62 33.3672 501.164 33.1849 501.602 32.8203C502.044 32.4505 502.284 31.974 502.32 31.3906H503.219C503.193 31.9062 503.031 32.3776 502.734 32.8047C502.438 33.2266 502.042 33.5573 501.547 33.7969C501.057 34.0365 500.531 34.1562 499.969 34.1562C498.859 34.1562 497.979 33.7708 497.328 33C496.682 32.2292 496.359 31.1927 496.359 29.8906V29.6094C496.359 28.776 496.505 28.0391 496.797 27.3984C497.089 26.7578 497.505 26.263 498.047 25.9141C498.594 25.5651 499.232 25.3906 499.961 25.3906C500.888 25.3906 501.651 25.6667 502.25 26.2188C502.854 26.7708 503.177 27.4974 503.219 28.3984H502.32C502.279 27.737 502.039 27.2031 501.602 26.7969C501.169 26.3906 500.622 26.1875 499.961 26.1875C499.117 26.1875 498.461 26.4922 497.992 27.1016C497.529 27.7109 497.297 28.5651 497.297 29.6641V29.9375C497.297 31.0156 497.529 31.8568 497.992 32.4609C498.461 33.0651 499.12 33.3672 499.969 33.3672ZM508.367 34.1562C507.648 34.1562 506.997 33.9792 506.414 33.625C505.836 33.2708 505.385 32.7786 505.062 32.1484C504.74 31.513 504.578 30.8021 504.578 30.0156V29.6797C504.578 28.8672 504.734 28.1354 505.047 27.4844C505.365 26.8333 505.805 26.3229 506.367 25.9531C506.93 25.5781 507.539 25.3906 508.195 25.3906C509.221 25.3906 510.034 25.7422 510.633 26.4453C511.237 27.1432 511.539 28.099 511.539 29.3125V29.8359H505.508V30.0156C505.508 30.974 505.781 31.7734 506.328 32.4141C506.88 33.0495 507.573 33.3672 508.406 33.3672C508.906 33.3672 509.346 33.276 509.727 33.0938C510.112 32.9115 510.461 32.6198 510.773 32.2188L511.359 32.6641C510.672 33.6589 509.674 34.1562 508.367 34.1562ZM508.195 26.1875C507.492 26.1875 506.898 26.4453 506.414 26.9609C505.935 27.4766 505.643 28.1693 505.539 29.0391H510.609V28.9375C510.583 28.125 510.352 27.4635 509.914 26.9531C509.477 26.4427 508.904 26.1875 508.195 26.1875ZM518.422 31.8516C518.422 31.388 518.234 31.0156 517.859 30.7344C517.49 30.4531 516.93 30.2344 516.18 30.0781C515.43 29.9167 514.846 29.7344 514.43 29.5312C514.018 29.3229 513.711 29.0703 513.508 28.7734C513.31 28.4766 513.211 28.1172 513.211 27.6953C513.211 27.0286 513.49 26.4792 514.047 26.0469C514.604 25.6094 515.318 25.3906 516.188 25.3906C517.13 25.3906 517.885 25.625 518.453 26.0938C519.026 26.5573 519.312 27.1641 519.312 27.9141H518.375C518.375 27.4193 518.167 27.0078 517.75 26.6797C517.339 26.3516 516.818 26.1875 516.188 26.1875C515.573 26.1875 515.078 26.3255 514.703 26.6016C514.333 26.8724 514.148 27.2266 514.148 27.6641C514.148 28.0859 514.302 28.4141 514.609 28.6484C514.922 28.8776 515.487 29.0885 516.305 29.2812C517.128 29.474 517.742 29.6797 518.148 29.8984C518.56 30.1172 518.865 30.3802 519.062 30.6875C519.26 30.9948 519.359 31.3672 519.359 31.8047C519.359 32.5182 519.07 33.0885 518.492 33.5156C517.919 33.9427 517.169 34.1562 516.242 34.1562C515.258 34.1562 514.458 33.9193 513.844 33.4453C513.234 32.9661 512.93 32.362 512.93 31.6328H513.867C513.904 32.1797 514.133 32.6068 514.555 32.9141C514.982 33.2161 515.544 33.3672 516.242 33.3672C516.893 33.3672 517.419 33.224 517.82 32.9375C518.221 32.651 518.422 32.2891 518.422 31.8516ZM526.531 31.8516C526.531 31.388 526.344 31.0156 525.969 30.7344C525.599 30.4531 525.039 30.2344 524.289 30.0781C523.539 29.9167 522.956 29.7344 522.539 29.5312C522.128 29.3229 521.82 29.0703 521.617 28.7734C521.419 28.4766 521.32 28.1172 521.32 27.6953C521.32 27.0286 521.599 26.4792 522.156 26.0469C522.714 25.6094 523.427 25.3906 524.297 25.3906C525.24 25.3906 525.995 25.625 526.562 26.0938C527.135 26.5573 527.422 27.1641 527.422 27.9141H526.484C526.484 27.4193 526.276 27.0078 525.859 26.6797C525.448 26.3516 524.927 26.1875 524.297 26.1875C523.682 26.1875 523.188 26.3255 522.812 26.6016C522.443 26.8724 522.258 27.2266 522.258 27.6641C522.258 28.0859 522.411 28.4141 522.719 28.6484C523.031 28.8776 523.596 29.0885 524.414 29.2812C525.237 29.474 525.852 29.6797 526.258 29.8984C526.669 30.1172 526.974 30.3802 527.172 30.6875C527.37 30.9948 527.469 31.3672 527.469 31.8047C527.469 32.5182 527.18 33.0885 526.602 33.5156C526.029 33.9427 525.279 34.1562 524.352 34.1562C523.367 34.1562 522.568 33.9193 521.953 33.4453C521.344 32.9661 521.039 32.362 521.039 31.6328H521.977C522.013 32.1797 522.242 32.6068 522.664 32.9141C523.091 33.2161 523.654 33.3672 524.352 33.3672C525.003 33.3672 525.529 33.224 525.93 32.9375C526.331 32.651 526.531 32.2891 526.531 31.8516Z" fill="black"/>
<path d="M583.273 22.625V30.3906C583.268 31.1562 583.099 31.8229 582.766 32.3906C582.432 32.9583 581.961 33.3958 581.352 33.7031C580.747 34.0052 580.052 34.1562 579.266 34.1562C578.068 34.1562 577.107 33.8307 576.383 33.1797C575.664 32.5234 575.292 31.6172 575.266 30.4609V22.625H576.219V30.3203C576.219 31.2786 576.492 32.0234 577.039 32.5547C577.586 33.0807 578.328 33.3438 579.266 33.3438C580.203 33.3438 580.943 33.0781 581.484 32.5469C582.031 32.0156 582.305 31.276 582.305 30.3281V22.625H583.273ZM586.625 25.5469L586.656 26.9922C586.974 26.4714 587.37 26.0755 587.844 25.8047C588.318 25.5286 588.841 25.3906 589.414 25.3906C590.32 25.3906 590.995 25.6458 591.438 26.1562C591.88 26.6667 592.104 27.4323 592.109 28.4531V34H591.18V28.4453C591.174 27.6901 591.013 27.1276 590.695 26.7578C590.383 26.388 589.88 26.2031 589.188 26.2031C588.609 26.2031 588.096 26.3854 587.648 26.75C587.206 27.1094 586.878 27.5964 586.664 28.2109V34H585.734V25.5469H586.625ZM594.156 29.6953C594.156 28.3828 594.448 27.3385 595.031 26.5625C595.62 25.7812 596.417 25.3906 597.422 25.3906C598.562 25.3906 599.432 25.8411 600.031 26.7422V22H600.961V34H600.086L600.047 32.875C599.448 33.7292 598.568 34.1562 597.406 34.1562C596.432 34.1562 595.646 33.7656 595.047 32.9844C594.453 32.1979 594.156 31.138 594.156 29.8047V29.6953ZM595.102 29.8594C595.102 30.9375 595.318 31.7891 595.75 32.4141C596.182 33.0339 596.792 33.3438 597.578 33.3438C598.729 33.3438 599.547 32.8359 600.031 31.8203V27.8516C599.547 26.7526 598.734 26.2031 597.594 26.2031C596.807 26.2031 596.195 26.513 595.758 27.1328C595.32 27.7474 595.102 28.6562 595.102 29.8594ZM604.469 34H603.531V25.5469H604.469V34ZM603.367 23.1016C603.367 22.9245 603.424 22.776 603.539 22.6562C603.654 22.5312 603.81 22.4688 604.008 22.4688C604.206 22.4688 604.362 22.5312 604.477 22.6562C604.596 22.776 604.656 22.9245 604.656 23.1016C604.656 23.2786 604.596 23.4271 604.477 23.5469C604.362 23.6667 604.206 23.7266 604.008 23.7266C603.81 23.7266 603.654 23.6667 603.539 23.5469C603.424 23.4271 603.367 23.2786 603.367 23.1016ZM612.078 31.8516C612.078 31.388 611.891 31.0156 611.516 30.7344C611.146 30.4531 610.586 30.2344 609.836 30.0781C609.086 29.9167 608.503 29.7344 608.086 29.5312C607.674 29.3229 607.367 29.0703 607.164 28.7734C606.966 28.4766 606.867 28.1172 606.867 27.6953C606.867 27.0286 607.146 26.4792 607.703 26.0469C608.26 25.6094 608.974 25.3906 609.844 25.3906C610.786 25.3906 611.542 25.625 612.109 26.0938C612.682 26.5573 612.969 27.1641 612.969 27.9141H612.031C612.031 27.4193 611.823 27.0078 611.406 26.6797C610.995 26.3516 610.474 26.1875 609.844 26.1875C609.229 26.1875 608.734 26.3255 608.359 26.6016C607.99 26.8724 607.805 27.2266 607.805 27.6641C607.805 28.0859 607.958 28.4141 608.266 28.6484C608.578 28.8776 609.143 29.0885 609.961 29.2812C610.784 29.474 611.398 29.6797 611.805 29.8984C612.216 30.1172 612.521 30.3802 612.719 30.6875C612.917 30.9948 613.016 31.3672 613.016 31.8047C613.016 32.5182 612.727 33.0885 612.148 33.5156C611.576 33.9427 610.826 34.1562 609.898 34.1562C608.914 34.1562 608.115 33.9193 607.5 33.4453C606.891 32.9661 606.586 32.362 606.586 31.6328H607.523C607.56 32.1797 607.789 32.6068 608.211 32.9141C608.638 33.2161 609.201 33.3672 609.898 33.3672C610.549 33.3672 611.076 33.224 611.477 32.9375C611.878 32.651 612.078 32.2891 612.078 31.8516ZM619.031 26.3438C618.833 26.3073 618.622 26.2891 618.398 26.2891C617.815 26.2891 617.32 26.4531 616.914 26.7812C616.513 27.1042 616.227 27.5755 616.055 28.1953V34H615.125V25.5469H616.039L616.055 26.8906C616.549 25.8906 617.344 25.3906 618.438 25.3906C618.698 25.3906 618.904 25.4245 619.055 25.4922L619.031 26.3438ZM625.953 32.9297C625.391 33.7474 624.492 34.1562 623.258 34.1562C622.357 34.1562 621.672 33.8958 621.203 33.375C620.734 32.849 620.495 32.0729 620.484 31.0469V25.5469H621.414V30.9297C621.414 32.5391 622.065 33.3438 623.367 33.3438C624.721 33.3438 625.578 32.7839 625.938 31.6641V25.5469H626.875V34H625.969L625.953 32.9297ZM636.109 29.8594C636.109 31.1771 635.818 32.224 635.234 33C634.651 33.7708 633.87 34.1562 632.891 34.1562C631.734 34.1562 630.849 33.75 630.234 32.9375V37.25H629.305V25.5469H630.172L630.219 26.7422C630.828 25.8411 631.711 25.3906 632.867 25.3906C633.878 25.3906 634.669 25.7734 635.242 26.5391C635.82 27.3047 636.109 28.3672 636.109 29.7266V29.8594ZM635.172 29.6953C635.172 28.6172 634.951 27.7656 634.508 27.1406C634.065 26.5156 633.448 26.2031 632.656 26.2031C632.083 26.2031 631.591 26.3411 631.18 26.6172C630.768 26.8932 630.453 27.2943 630.234 27.8203V31.875C630.458 32.3594 630.779 32.7292 631.195 32.9844C631.612 33.2396 632.104 33.3672 632.672 33.3672C633.458 33.3672 634.07 33.0547 634.508 32.4297C634.951 31.7995 635.172 30.888 635.172 29.6953ZM639.641 23.3828V25.5469H641.391V26.3125H639.641V31.9453C639.641 32.4141 639.724 32.763 639.891 32.9922C640.062 33.2214 640.346 33.3359 640.742 33.3359C640.898 33.3359 641.151 33.3099 641.5 33.2578L641.539 34.0234C641.294 34.112 640.961 34.1562 640.539 34.1562C639.898 34.1562 639.432 33.9714 639.141 33.6016C638.849 33.2266 638.703 32.6771 638.703 31.9531V26.3125H637.148V25.5469H638.703V23.3828H639.641ZM646.602 34.1562C645.883 34.1562 645.232 33.9792 644.648 33.625C644.07 33.2708 643.62 32.7786 643.297 32.1484C642.974 31.513 642.812 30.8021 642.812 30.0156V29.6797C642.812 28.8672 642.969 28.1354 643.281 27.4844C643.599 26.8333 644.039 26.3229 644.602 25.9531C645.164 25.5781 645.773 25.3906 646.43 25.3906C647.456 25.3906 648.268 25.7422 648.867 26.4453C649.471 27.1432 649.773 28.099 649.773 29.3125V29.8359H643.742V30.0156C643.742 30.974 644.016 31.7734 644.562 32.4141C645.115 33.0495 645.807 33.3672 646.641 33.3672C647.141 33.3672 647.581 33.276 647.961 33.0938C648.346 32.9115 648.695 32.6198 649.008 32.2188L649.594 32.6641C648.906 33.6589 647.909 34.1562 646.602 34.1562ZM646.43 26.1875C645.727 26.1875 645.133 26.4453 644.648 26.9609C644.169 27.4766 643.878 28.1693 643.773 29.0391H648.844V28.9375C648.818 28.125 648.586 27.4635 648.148 26.9531C647.711 26.4427 647.138 26.1875 646.43 26.1875ZM651.219 29.6953C651.219 28.3828 651.51 27.3385 652.094 26.5625C652.682 25.7812 653.479 25.3906 654.484 25.3906C655.625 25.3906 656.495 25.8411 657.094 26.7422V22H658.023V34H657.148L657.109 32.875C656.51 33.7292 655.63 34.1562 654.469 34.1562C653.495 34.1562 652.708 33.7656 652.109 32.9844C651.516 32.1979 651.219 31.138 651.219 29.8047V29.6953ZM652.164 29.8594C652.164 30.9375 652.38 31.7891 652.812 32.4141C653.245 33.0339 653.854 33.3438 654.641 33.3438C655.792 33.3438 656.609 32.8359 657.094 31.8203V27.8516C656.609 26.7526 655.797 26.2031 654.656 26.2031C653.87 26.2031 653.258 26.513 652.82 27.1328C652.383 27.7474 652.164 28.6562 652.164 29.8594ZM666.695 30.9297L667.047 32.6953L667.477 31.0078L669.945 22.625H670.812L673.25 31.0078L673.672 32.7109L674.047 30.9297L676.102 22.625H677.086L674.172 34H673.25L670.672 25.1016L670.383 23.9766L670.102 25.1016L667.461 34H666.539L663.633 22.625H664.617L666.695 30.9297ZM683.789 34C683.695 33.7344 683.635 33.3411 683.609 32.8203C683.281 33.2474 682.862 33.5781 682.352 33.8125C681.846 34.0417 681.31 34.1562 680.742 34.1562C679.93 34.1562 679.271 33.9297 678.766 33.4766C678.266 33.0234 678.016 32.4505 678.016 31.7578C678.016 30.9349 678.357 30.2839 679.039 29.8047C679.727 29.3255 680.682 29.0859 681.906 29.0859H683.602V28.125C683.602 27.5208 683.414 27.0469 683.039 26.7031C682.669 26.3542 682.128 26.1797 681.414 26.1797C680.763 26.1797 680.224 26.3464 679.797 26.6797C679.37 27.013 679.156 27.4141 679.156 27.8828L678.219 27.875C678.219 27.2031 678.531 26.6224 679.156 26.1328C679.781 25.638 680.549 25.3906 681.461 25.3906C682.404 25.3906 683.146 25.6276 683.688 26.1016C684.234 26.5703 684.516 27.2266 684.531 28.0703V32.0703C684.531 32.888 684.617 33.5 684.789 33.9062V34H683.789ZM680.852 33.3281C681.477 33.3281 682.034 33.1771 682.523 32.875C683.018 32.5729 683.378 32.1693 683.602 31.6641V29.8047H681.93C680.997 29.8151 680.268 29.987 679.742 30.3203C679.216 30.6484 678.953 31.1016 678.953 31.6797C678.953 32.1536 679.128 32.5469 679.477 32.8594C679.831 33.1719 680.289 33.3281 680.852 33.3281ZM688.484 23.3828V25.5469H690.234V26.3125H688.484V31.9453C688.484 32.4141 688.568 32.763 688.734 32.9922C688.906 33.2214 689.19 33.3359 689.586 33.3359C689.742 33.3359 689.995 33.3099 690.344 33.2578L690.383 34.0234C690.138 34.112 689.805 34.1562 689.383 34.1562C688.742 34.1562 688.276 33.9714 687.984 33.6016C687.693 33.2266 687.547 32.6771 687.547 31.9531V26.3125H685.992V25.5469H687.547V23.3828H688.484ZM695.297 33.3672C695.948 33.3672 696.492 33.1849 696.93 32.8203C697.372 32.4505 697.612 31.974 697.648 31.3906H698.547C698.521 31.9062 698.359 32.3776 698.062 32.8047C697.766 33.2266 697.37 33.5573 696.875 33.7969C696.385 34.0365 695.859 34.1562 695.297 34.1562C694.188 34.1562 693.307 33.7708 692.656 33C692.01 32.2292 691.688 31.1927 691.688 29.8906V29.6094C691.688 28.776 691.833 28.0391 692.125 27.3984C692.417 26.7578 692.833 26.263 693.375 25.9141C693.922 25.5651 694.56 25.3906 695.289 25.3906C696.216 25.3906 696.979 25.6667 697.578 26.2188C698.182 26.7708 698.505 27.4974 698.547 28.3984H697.648C697.607 27.737 697.367 27.2031 696.93 26.7969C696.497 26.3906 695.951 26.1875 695.289 26.1875C694.445 26.1875 693.789 26.4922 693.32 27.1016C692.857 27.7109 692.625 28.5651 692.625 29.6641V29.9375C692.625 31.0156 692.857 31.8568 693.32 32.4609C693.789 33.0651 694.448 33.3672 695.297 33.3672ZM701.352 26.9766C701.659 26.4714 702.052 26.0807 702.531 25.8047C703.01 25.5286 703.534 25.3906 704.102 25.3906C705.008 25.3906 705.682 25.6458 706.125 26.1562C706.568 26.6667 706.792 27.4323 706.797 28.4531V34H705.867V28.4453C705.862 27.6901 705.701 27.1276 705.383 26.7578C705.07 26.388 704.568 26.2031 703.875 26.2031C703.297 26.2031 702.784 26.3854 702.336 26.75C701.893 27.1094 701.565 27.5964 701.352 28.2109V34H700.422V22H701.352V26.9766ZM710.25 34H709.312V25.5469H710.25V34ZM709.148 23.1016C709.148 22.9245 709.206 22.776 709.32 22.6562C709.435 22.5312 709.591 22.4688 709.789 22.4688C709.987 22.4688 710.143 22.5312 710.258 22.6562C710.378 22.776 710.438 22.9245 710.438 23.1016C710.438 23.2786 710.378 23.4271 710.258 23.5469C710.143 23.6667 709.987 23.7266 709.789 23.7266C709.591 23.7266 709.435 23.6667 709.32 23.5469C709.206 23.4271 709.148 23.2786 709.148 23.1016ZM713.688 25.5469L713.719 26.9922C714.036 26.4714 714.432 26.0755 714.906 25.8047C715.38 25.5286 715.904 25.3906 716.477 25.3906C717.383 25.3906 718.057 25.6458 718.5 26.1562C718.943 26.6667 719.167 27.4323 719.172 28.4531V34H718.242V28.4453C718.237 27.6901 718.076 27.1276 717.758 26.7578C717.445 26.388 716.943 26.2031 716.25 26.2031C715.672 26.2031 715.159 26.3854 714.711 26.75C714.268 27.1094 713.94 27.5964 713.727 28.2109V34H712.797V25.5469H713.688ZM721.219 29.6953C721.219 28.3724 721.51 27.3255 722.094 26.5547C722.682 25.7786 723.479 25.3906 724.484 25.3906C725.635 25.3906 726.51 25.849 727.109 26.7656L727.156 25.5469H728.031V33.8281C728.031 34.9167 727.727 35.7786 727.117 36.4141C726.508 37.0495 725.682 37.3672 724.641 37.3672C724.052 37.3672 723.49 37.2344 722.953 36.9688C722.422 36.7083 722.003 36.3594 721.695 35.9219L722.219 35.3594C722.88 36.1719 723.667 36.5781 724.578 36.5781C725.359 36.5781 725.969 36.3464 726.406 35.8828C726.844 35.4245 727.07 34.7865 727.086 33.9688V32.9062C726.487 33.7396 725.615 34.1562 724.469 34.1562C723.49 34.1562 722.703 33.7656 722.109 32.9844C721.516 32.2031 721.219 31.1484 721.219 29.8203V29.6953ZM722.164 29.8594C722.164 30.9375 722.38 31.7891 722.812 32.4141C723.245 33.0339 723.854 33.3438 724.641 33.3438C725.792 33.3438 726.607 32.8281 727.086 31.7969V27.8672C726.867 27.3255 726.552 26.9141 726.141 26.6328C725.729 26.3464 725.234 26.2031 724.656 26.2031C723.87 26.2031 723.258 26.513 722.82 27.1328C722.383 27.7474 722.164 28.6562 722.164 29.8594Z" fill="black"/>
<path d="M233.055 12.2656H229.75V17H228.781V5.625H232.477C233.69 5.625 234.638 5.91927 235.32 6.50781C236.003 7.09635 236.344 7.91927 236.344 8.97656C236.344 9.70573 236.13 10.349 235.703 10.9062C235.276 11.4635 234.703 11.849 233.984 12.0625L236.828 16.8984V17H235.805L233.055 12.2656ZM229.75 11.4453H232.695C233.503 11.4453 234.151 11.2161 234.641 10.7578C235.13 10.2995 235.375 9.70573 235.375 8.97656C235.375 8.17448 235.12 7.55208 234.609 7.10938C234.099 6.66667 233.383 6.44531 232.461 6.44531H229.75V11.4453ZM242.016 17.1562C241.297 17.1562 240.646 16.9792 240.062 16.625C239.484 16.2708 239.034 15.7786 238.711 15.1484C238.388 14.513 238.227 13.8021 238.227 13.0156V12.6797C238.227 11.8672 238.383 11.1354 238.695 10.4844C239.013 9.83333 239.453 9.32292 240.016 8.95312C240.578 8.57812 241.188 8.39062 241.844 8.39062C242.87 8.39062 243.682 8.74219 244.281 9.44531C244.885 10.1432 245.188 11.099 245.188 12.3125V12.8359H239.156V13.0156C239.156 13.974 239.43 14.7734 239.977 15.4141C240.529 16.0495 241.221 16.3672 242.055 16.3672C242.555 16.3672 242.995 16.276 243.375 16.0938C243.76 15.9115 244.109 15.6198 244.422 15.2188L245.008 15.6641C244.32 16.6589 243.323 17.1562 242.016 17.1562ZM241.844 9.1875C241.141 9.1875 240.547 9.44531 240.062 9.96094C239.583 10.4766 239.292 11.1693 239.188 12.0391H244.258V11.9375C244.232 11.125 244 10.4635 243.562 9.95312C243.125 9.44271 242.552 9.1875 241.844 9.1875ZM248.055 17H247.117V5H248.055V17ZM255.938 17C255.844 16.7344 255.784 16.3411 255.758 15.8203C255.43 16.2474 255.01 16.5781 254.5 16.8125C253.995 17.0417 253.458 17.1562 252.891 17.1562C252.078 17.1562 251.419 16.9297 250.914 16.4766C250.414 16.0234 250.164 15.4505 250.164 14.7578C250.164 13.9349 250.505 13.2839 251.188 12.8047C251.875 12.3255 252.831 12.0859 254.055 12.0859H255.75V11.125C255.75 10.5208 255.562 10.0469 255.188 9.70312C254.818 9.35417 254.276 9.17969 253.562 9.17969C252.911 9.17969 252.372 9.34635 251.945 9.67969C251.518 10.013 251.305 10.4141 251.305 10.8828L250.367 10.875C250.367 10.2031 250.68 9.6224 251.305 9.13281C251.93 8.63802 252.698 8.39062 253.609 8.39062C254.552 8.39062 255.294 8.6276 255.836 9.10156C256.383 9.57031 256.664 10.2266 256.68 11.0703V15.0703C256.68 15.888 256.766 16.5 256.938 16.9062V17H255.938ZM253 16.3281C253.625 16.3281 254.182 16.1771 254.672 15.875C255.167 15.5729 255.526 15.1693 255.75 14.6641V12.8047H254.078C253.146 12.8151 252.417 12.987 251.891 13.3203C251.365 13.6484 251.102 14.1016 251.102 14.6797C251.102 15.1536 251.276 15.5469 251.625 15.8594C251.979 16.1719 252.438 16.3281 253 16.3281ZM261.836 11.9766L264.117 8.54688H265.227L262.359 12.6953L265.352 17H264.25L261.844 13.4219L259.438 17H258.336L261.32 12.6953L258.453 8.54688H259.555L261.836 11.9766ZM270.078 17.1562C269.359 17.1562 268.708 16.9792 268.125 16.625C267.547 16.2708 267.096 15.7786 266.773 15.1484C266.451 14.513 266.289 13.8021 266.289 13.0156V12.6797C266.289 11.8672 266.445 11.1354 266.758 10.4844C267.076 9.83333 267.516 9.32292 268.078 8.95312C268.641 8.57812 269.25 8.39062 269.906 8.39062C270.932 8.39062 271.745 8.74219 272.344 9.44531C272.948 10.1432 273.25 11.099 273.25 12.3125V12.8359H267.219V13.0156C267.219 13.974 267.492 14.7734 268.039 15.4141C268.591 16.0495 269.284 16.3672 270.117 16.3672C270.617 16.3672 271.057 16.276 271.438 16.0938C271.823 15.9115 272.172 15.6198 272.484 15.2188L273.07 15.6641C272.383 16.6589 271.385 17.1562 270.078 17.1562ZM269.906 9.1875C269.203 9.1875 268.609 9.44531 268.125 9.96094C267.646 10.4766 267.354 11.1693 267.25 12.0391H272.32V11.9375C272.294 11.125 272.062 10.4635 271.625 9.95312C271.188 9.44271 270.615 9.1875 269.906 9.1875ZM274.695 12.6953C274.695 11.3828 274.987 10.3385 275.57 9.5625C276.159 8.78125 276.956 8.39062 277.961 8.39062C279.102 8.39062 279.971 8.84115 280.57 9.74219V5H281.5V17H280.625L280.586 15.875C279.987 16.7292 279.107 17.1562 277.945 17.1562C276.971 17.1562 276.185 16.7656 275.586 15.9844C274.992 15.1979 274.695 14.138 274.695 12.8047V12.6953ZM275.641 12.8594C275.641 13.9375 275.857 14.7891 276.289 15.4141C276.721 16.0339 277.331 16.3438 278.117 16.3438C279.268 16.3438 280.086 15.8359 280.57 14.8203V10.8516C280.086 9.7526 279.273 9.20312 278.133 9.20312C277.346 9.20312 276.734 9.51302 276.297 10.1328C275.859 10.7474 275.641 11.6562 275.641 12.8594ZM293.188 17C293.094 16.7344 293.034 16.3411 293.008 15.8203C292.68 16.2474 292.26 16.5781 291.75 16.8125C291.245 17.0417 290.708 17.1562 290.141 17.1562C289.328 17.1562 288.669 16.9297 288.164 16.4766C287.664 16.0234 287.414 15.4505 287.414 14.7578C287.414 13.9349 287.755 13.2839 288.438 12.8047C289.125 12.3255 290.081 12.0859 291.305 12.0859H293V11.125C293 10.5208 292.812 10.0469 292.438 9.70312C292.068 9.35417 291.526 9.17969 290.812 9.17969C290.161 9.17969 289.622 9.34635 289.195 9.67969C288.768 10.013 288.555 10.4141 288.555 10.8828L287.617 10.875C287.617 10.2031 287.93 9.6224 288.555 9.13281C289.18 8.63802 289.948 8.39062 290.859 8.39062C291.802 8.39062 292.544 8.6276 293.086 9.10156C293.633 9.57031 293.914 10.2266 293.93 11.0703V15.0703C293.93 15.888 294.016 16.5 294.188 16.9062V17H293.188ZM290.25 16.3281C290.875 16.3281 291.432 16.1771 291.922 15.875C292.417 15.5729 292.776 15.1693 293 14.6641V12.8047H291.328C290.396 12.8151 289.667 12.987 289.141 13.3203C288.615 13.6484 288.352 14.1016 288.352 14.6797C288.352 15.1536 288.526 15.5469 288.875 15.8594C289.229 16.1719 289.688 16.3281 290.25 16.3281ZM297.32 8.54688L297.352 9.99219C297.669 9.47135 298.065 9.07552 298.539 8.80469C299.013 8.52865 299.536 8.39062 300.109 8.39062C301.016 8.39062 301.69 8.64583 302.133 9.15625C302.576 9.66667 302.799 10.4323 302.805 11.4531V17H301.875V11.4453C301.87 10.6901 301.708 10.1276 301.391 9.75781C301.078 9.38802 300.576 9.20312 299.883 9.20312C299.305 9.20312 298.792 9.38542 298.344 9.75C297.901 10.1094 297.573 10.5964 297.359 11.2109V17H296.43V8.54688H297.32ZM304.852 12.6953C304.852 11.3828 305.143 10.3385 305.727 9.5625C306.315 8.78125 307.112 8.39062 308.117 8.39062C309.258 8.39062 310.128 8.84115 310.727 9.74219V5H311.656V17H310.781L310.742 15.875C310.143 16.7292 309.263 17.1562 308.102 17.1562C307.128 17.1562 306.341 16.7656 305.742 15.9844C305.148 15.1979 304.852 14.138 304.852 12.8047V12.6953ZM305.797 12.8594C305.797 13.9375 306.013 14.7891 306.445 15.4141C306.878 16.0339 307.487 16.3438 308.273 16.3438C309.424 16.3438 310.242 15.8359 310.727 14.8203V10.8516C310.242 9.7526 309.43 9.20312 308.289 9.20312C307.503 9.20312 306.891 9.51302 306.453 10.1328C306.016 10.7474 305.797 11.6562 305.797 12.8594ZM326.281 13.4531C326.151 14.651 325.721 15.5677 324.992 16.2031C324.268 16.8385 323.302 17.1562 322.094 17.1562C321.25 17.1562 320.503 16.9453 319.852 16.5234C319.206 16.1016 318.706 15.5052 318.352 14.7344C317.997 13.9583 317.818 13.0729 317.812 12.0781V10.6016C317.812 9.59115 317.99 8.69531 318.344 7.91406C318.698 7.13281 319.206 6.53125 319.867 6.10938C320.534 5.68229 321.299 5.46875 322.164 5.46875C323.383 5.46875 324.344 5.79948 325.047 6.46094C325.755 7.11719 326.167 8.02604 326.281 9.1875H325.312C325.073 7.25521 324.023 6.28906 322.164 6.28906C321.133 6.28906 320.31 6.67448 319.695 7.44531C319.086 8.21615 318.781 9.28125 318.781 10.6406V12.0312C318.781 13.3438 319.078 14.3906 319.672 15.1719C320.271 15.9531 321.078 16.3438 322.094 16.3438C323.099 16.3438 323.857 16.1042 324.367 15.625C324.878 15.1406 325.193 14.4167 325.312 13.4531H326.281ZM327.883 12.6484C327.883 11.8359 328.039 11.1042 328.352 10.4531C328.669 9.80208 329.115 9.29688 329.688 8.9375C330.266 8.57292 330.919 8.39062 331.648 8.39062C332.773 8.39062 333.685 8.78646 334.383 9.57812C335.081 10.3646 335.43 11.4089 335.43 12.7109V12.9062C335.43 13.724 335.271 14.4609 334.953 15.1172C334.641 15.7682 334.198 16.2708 333.625 16.625C333.052 16.9792 332.398 17.1562 331.664 17.1562C330.544 17.1562 329.633 16.763 328.93 15.9766C328.232 15.1849 327.883 14.138 327.883 12.8359V12.6484ZM328.82 12.9062C328.82 13.9167 329.081 14.7474 329.602 15.3984C330.128 16.0443 330.815 16.3672 331.664 16.3672C332.508 16.3672 333.19 16.0443 333.711 15.3984C334.237 14.7474 334.5 13.8906 334.5 12.8281V12.6484C334.5 12.0026 334.38 11.4115 334.141 10.875C333.901 10.3385 333.565 9.92448 333.133 9.63281C332.701 9.33594 332.206 9.1875 331.648 9.1875C330.815 9.1875 330.135 9.51562 329.609 10.1719C329.083 10.8229 328.82 11.6771 328.82 12.7344V12.9062ZM338.258 8.54688L338.289 9.99219C338.607 9.47135 339.003 9.07552 339.477 8.80469C339.951 8.52865 340.474 8.39062 341.047 8.39062C341.953 8.39062 342.628 8.64583 343.07 9.15625C343.513 9.66667 343.737 10.4323 343.742 11.4531V17H342.812V11.4453C342.807 10.6901 342.646 10.1276 342.328 9.75781C342.016 9.38802 341.513 9.20312 340.82 9.20312C340.242 9.20312 339.729 9.38542 339.281 9.75C338.839 10.1094 338.51 10.5964 338.297 11.2109V17H337.367V8.54688H338.258ZM346.727 17V9.3125H345.32V8.54688H346.727V7.67969C346.727 6.77865 346.971 6.08073 347.461 5.58594C347.951 5.08594 348.641 4.83594 349.531 4.83594C350.229 4.83594 350.948 4.98958 351.688 5.29688L351.531 6.10156C350.896 5.82552 350.25 5.6875 349.594 5.6875C348.307 5.6875 347.664 6.35677 347.664 7.69531V8.54688H349.641V9.3125H347.664V17H346.727ZM352.195 17H351.258V8.54688H352.195V17ZM354.383 12.6953C354.383 11.3828 354.674 10.3385 355.258 9.5625C355.846 8.78125 356.643 8.39062 357.648 8.39062C358.789 8.39062 359.659 8.84115 360.258 9.74219V5H361.188V17H360.312L360.273 15.875C359.674 16.7292 358.794 17.1562 357.633 17.1562C356.659 17.1562 355.872 16.7656 355.273 15.9844C354.68 15.1979 354.383 14.138 354.383 12.8047V12.6953ZM355.328 12.8594C355.328 13.9375 355.544 14.7891 355.977 15.4141C356.409 16.0339 357.018 16.3438 357.805 16.3438C358.956 16.3438 359.773 15.8359 360.258 14.8203V10.8516C359.773 9.7526 358.961 9.20312 357.82 9.20312C357.034 9.20312 356.422 9.51302 355.984 10.1328C355.547 10.7474 355.328 11.6562 355.328 12.8594ZM366.922 17.1562C366.203 17.1562 365.552 16.9792 364.969 16.625C364.391 16.2708 363.94 15.7786 363.617 15.1484C363.294 14.513 363.133 13.8021 363.133 13.0156V12.6797C363.133 11.8672 363.289 11.1354 363.602 10.4844C363.919 9.83333 364.359 9.32292 364.922 8.95312C365.484 8.57812 366.094 8.39062 366.75 8.39062C367.776 8.39062 368.589 8.74219 369.188 9.44531C369.792 10.1432 370.094 11.099 370.094 12.3125V12.8359H364.062V13.0156C364.062 13.974 364.336 14.7734 364.883 15.4141C365.435 16.0495 366.128 16.3672 366.961 16.3672C367.461 16.3672 367.901 16.276 368.281 16.0938C368.667 15.9115 369.016 15.6198 369.328 15.2188L369.914 15.6641C369.227 16.6589 368.229 17.1562 366.922 17.1562ZM366.75 9.1875C366.047 9.1875 365.453 9.44531 364.969 9.96094C364.49 10.4766 364.198 11.1693 364.094 12.0391H369.164V11.9375C369.138 11.125 368.906 10.4635 368.469 9.95312C368.031 9.44271 367.458 9.1875 366.75 9.1875ZM372.805 8.54688L372.836 9.99219C373.154 9.47135 373.549 9.07552 374.023 8.80469C374.497 8.52865 375.021 8.39062 375.594 8.39062C376.5 8.39062 377.174 8.64583 377.617 9.15625C378.06 9.66667 378.284 10.4323 378.289 11.4531V17H377.359V11.4453C377.354 10.6901 377.193 10.1276 376.875 9.75781C376.562 9.38802 376.06 9.20312 375.367 9.20312C374.789 9.20312 374.276 9.38542 373.828 9.75C373.385 10.1094 373.057 10.5964 372.844 11.2109V17H371.914V8.54688H372.805ZM382.164 6.38281V8.54688H383.914V9.3125H382.164V14.9453C382.164 15.4141 382.247 15.763 382.414 15.9922C382.586 16.2214 382.87 16.3359 383.266 16.3359C383.422 16.3359 383.674 16.3099 384.023 16.2578L384.062 17.0234C383.818 17.112 383.484 17.1562 383.062 17.1562C382.422 17.1562 381.956 16.9714 381.664 16.6016C381.372 16.2266 381.227 15.6771 381.227 14.9531V9.3125H379.672V8.54688H381.227V6.38281H382.164ZM275.422 35.5469H270.102V40.1875H276.219V41H269.141V29.625H276.18V30.4453H270.102V34.7344H275.422V35.5469ZM280.688 35.9766L282.969 32.5469H284.078L281.211 36.6953L284.203 41H283.102L280.695 37.4219L278.289 41H277.188L280.172 36.6953L277.305 32.5469H278.406L280.688 35.9766ZM292.609 36.8594C292.609 38.1771 292.318 39.224 291.734 40C291.151 40.7708 290.37 41.1562 289.391 41.1562C288.234 41.1562 287.349 40.75 286.734 39.9375V44.25H285.805V32.5469H286.672L286.719 33.7422C287.328 32.8411 288.211 32.3906 289.367 32.3906C290.378 32.3906 291.169 32.7734 291.742 33.5391C292.32 34.3047 292.609 35.3672 292.609 36.7266V36.8594ZM291.672 36.6953C291.672 35.6172 291.451 34.7656 291.008 34.1406C290.565 33.5156 289.948 33.2031 289.156 33.2031C288.583 33.2031 288.091 33.3411 287.68 33.6172C287.268 33.8932 286.953 34.2943 286.734 34.8203V38.875C286.958 39.3594 287.279 39.7292 287.695 39.9844C288.112 40.2396 288.604 40.3672 289.172 40.3672C289.958 40.3672 290.57 40.0547 291.008 39.4297C291.451 38.7995 291.672 37.888 291.672 36.6953ZM297.961 41.1562C297.242 41.1562 296.591 40.9792 296.008 40.625C295.43 40.2708 294.979 39.7786 294.656 39.1484C294.333 38.513 294.172 37.8021 294.172 37.0156V36.6797C294.172 35.8672 294.328 35.1354 294.641 34.4844C294.958 33.8333 295.398 33.3229 295.961 32.9531C296.523 32.5781 297.133 32.3906 297.789 32.3906C298.815 32.3906 299.628 32.7422 300.227 33.4453C300.831 34.1432 301.133 35.099 301.133 36.3125V36.8359H295.102V37.0156C295.102 37.974 295.375 38.7734 295.922 39.4141C296.474 40.0495 297.167 40.3672 298 40.3672C298.5 40.3672 298.94 40.276 299.32 40.0938C299.706 39.9115 300.055 39.6198 300.367 39.2188L300.953 39.6641C300.266 40.6589 299.268 41.1562 297.961 41.1562ZM297.789 33.1875C297.086 33.1875 296.492 33.4453 296.008 33.9609C295.529 34.4766 295.237 35.1693 295.133 36.0391H300.203V35.9375C300.177 35.125 299.945 34.4635 299.508 33.9531C299.07 33.4427 298.497 33.1875 297.789 33.1875ZM306.859 33.3438C306.661 33.3073 306.451 33.2891 306.227 33.2891C305.643 33.2891 305.148 33.4531 304.742 33.7812C304.341 34.1042 304.055 34.5755 303.883 35.1953V41H302.953V32.5469H303.867L303.883 33.8906C304.378 32.8906 305.172 32.3906 306.266 32.3906C306.526 32.3906 306.732 32.4245 306.883 32.4922L306.859 33.3438ZM309.391 41H308.453V32.5469H309.391V41ZM308.289 30.1016C308.289 29.9245 308.346 29.776 308.461 29.6562C308.576 29.5312 308.732 29.4688 308.93 29.4688C309.128 29.4688 309.284 29.5312 309.398 29.6562C309.518 29.776 309.578 29.9245 309.578 30.1016C309.578 30.2786 309.518 30.4271 309.398 30.5469C309.284 30.6667 309.128 30.7266 308.93 30.7266C308.732 30.7266 308.576 30.6667 308.461 30.5469C308.346 30.4271 308.289 30.2786 308.289 30.1016ZM315.211 41.1562C314.492 41.1562 313.841 40.9792 313.258 40.625C312.68 40.2708 312.229 39.7786 311.906 39.1484C311.583 38.513 311.422 37.8021 311.422 37.0156V36.6797C311.422 35.8672 311.578 35.1354 311.891 34.4844C312.208 33.8333 312.648 33.3229 313.211 32.9531C313.773 32.5781 314.383 32.3906 315.039 32.3906C316.065 32.3906 316.878 32.7422 317.477 33.4453C318.081 34.1432 318.383 35.099 318.383 36.3125V36.8359H312.352V37.0156C312.352 37.974 312.625 38.7734 313.172 39.4141C313.724 40.0495 314.417 40.3672 315.25 40.3672C315.75 40.3672 316.19 40.276 316.57 40.0938C316.956 39.9115 317.305 39.6198 317.617 39.2188L318.203 39.6641C317.516 40.6589 316.518 41.1562 315.211 41.1562ZM315.039 33.1875C314.336 33.1875 313.742 33.4453 313.258 33.9609C312.779 34.4766 312.487 35.1693 312.383 36.0391H317.453V35.9375C317.427 35.125 317.195 34.4635 316.758 33.9531C316.32 33.4427 315.747 33.1875 315.039 33.1875ZM321.094 32.5469L321.125 33.9922C321.443 33.4714 321.839 33.0755 322.312 32.8047C322.786 32.5286 323.31 32.3906 323.883 32.3906C324.789 32.3906 325.464 32.6458 325.906 33.1562C326.349 33.6667 326.573 34.4323 326.578 35.4531V41H325.648V35.4453C325.643 34.6901 325.482 34.1276 325.164 33.7578C324.852 33.388 324.349 33.2031 323.656 33.2031C323.078 33.2031 322.565 33.3854 322.117 33.75C321.674 34.1094 321.346 34.5964 321.133 35.2109V41H320.203V32.5469H321.094ZM332.125 40.3672C332.776 40.3672 333.32 40.1849 333.758 39.8203C334.201 39.4505 334.44 38.974 334.477 38.3906H335.375C335.349 38.9062 335.188 39.3776 334.891 39.8047C334.594 40.2266 334.198 40.5573 333.703 40.7969C333.214 41.0365 332.688 41.1562 332.125 41.1562C331.016 41.1562 330.135 40.7708 329.484 40C328.839 39.2292 328.516 38.1927 328.516 36.8906V36.6094C328.516 35.776 328.661 35.0391 328.953 34.3984C329.245 33.7578 329.661 33.263 330.203 32.9141C330.75 32.5651 331.388 32.3906 332.117 32.3906C333.044 32.3906 333.807 32.6667 334.406 33.2188C335.01 33.7708 335.333 34.4974 335.375 35.3984H334.477C334.435 34.737 334.195 34.2031 333.758 33.7969C333.326 33.3906 332.779 33.1875 332.117 33.1875C331.273 33.1875 330.617 33.4922 330.148 34.1016C329.685 34.7109 329.453 35.5651 329.453 36.6641V36.9375C329.453 38.0156 329.685 38.8568 330.148 39.4609C330.617 40.0651 331.276 40.3672 332.125 40.3672ZM340.523 41.1562C339.805 41.1562 339.154 40.9792 338.57 40.625C337.992 40.2708 337.542 39.7786 337.219 39.1484C336.896 38.513 336.734 37.8021 336.734 37.0156V36.6797C336.734 35.8672 336.891 35.1354 337.203 34.4844C337.521 33.8333 337.961 33.3229 338.523 32.9531C339.086 32.5781 339.695 32.3906 340.352 32.3906C341.378 32.3906 342.19 32.7422 342.789 33.4453C343.393 34.1432 343.695 35.099 343.695 36.3125V36.8359H337.664V37.0156C337.664 37.974 337.938 38.7734 338.484 39.4141C339.036 40.0495 339.729 40.3672 340.562 40.3672C341.062 40.3672 341.503 40.276 341.883 40.0938C342.268 39.9115 342.617 39.6198 342.93 39.2188L343.516 39.6641C342.828 40.6589 341.831 41.1562 340.523 41.1562ZM340.352 33.1875C339.648 33.1875 339.055 33.4453 338.57 33.9609C338.091 34.4766 337.799 35.1693 337.695 36.0391H342.766V35.9375C342.74 35.125 342.508 34.4635 342.07 33.9531C341.633 33.4427 341.06 33.1875 340.352 33.1875Z" fill="black"/>
</svg>
