<svg width="387" height="730" viewBox="0 0 387 730" fill="none" xmlns="http://www.w3.org/2000/svg">
<path d="M178.552 14.6602H173.19L171.986 18H170.246L175.133 5.20312H176.609L181.505 18H179.773L178.552 14.6602ZM173.7 13.2715H178.051L175.871 7.28613L173.7 13.2715ZM182.586 13.166C182.586 11.6836 182.929 10.5059 183.614 9.63281C184.3 8.75391 185.208 8.31445 186.339 8.31445C187.499 8.31445 188.404 8.72461 189.055 9.54492L189.134 8.49023H190.619V17.7715C190.619 19.002 190.253 19.9717 189.521 20.6807C188.794 21.3896 187.815 21.7441 186.585 21.7441C185.899 21.7441 185.229 21.5977 184.572 21.3047C183.916 21.0117 183.415 20.6104 183.069 20.1006L183.913 19.125C184.61 19.9863 185.463 20.417 186.471 20.417C187.262 20.417 187.877 20.1943 188.316 19.749C188.762 19.3037 188.984 18.6768 188.984 17.8682V17.0508C188.334 17.8008 187.446 18.1758 186.321 18.1758C185.208 18.1758 184.306 17.7275 183.614 16.8311C182.929 15.9346 182.586 14.7129 182.586 13.166ZM184.221 13.3506C184.221 14.4229 184.44 15.2666 184.88 15.8818C185.319 16.4912 185.935 16.7959 186.726 16.7959C187.751 16.7959 188.504 16.3301 188.984 15.3984V11.0566C188.486 10.1484 187.739 9.69434 186.743 9.69434C185.952 9.69434 185.334 10.002 184.889 10.6172C184.443 11.2324 184.221 12.1436 184.221 13.3506ZM197.026 18.1758C195.737 18.1758 194.688 17.7539 193.88 16.9102C193.071 16.0605 192.667 14.9268 192.667 13.5088V13.21C192.667 12.2666 192.846 11.4258 193.203 10.6875C193.566 9.94336 194.07 9.36328 194.715 8.94727C195.365 8.52539 196.068 8.31445 196.824 8.31445C198.061 8.31445 199.021 8.72168 199.707 9.53613C200.393 10.3506 200.735 11.5166 200.735 13.0342V13.7109H194.293C194.316 14.6484 194.589 15.4072 195.11 15.9873C195.638 16.5615 196.306 16.8486 197.114 16.8486C197.688 16.8486 198.175 16.7314 198.573 16.4971C198.972 16.2627 199.32 15.9521 199.619 15.5654L200.612 16.3389C199.815 17.5635 198.62 18.1758 197.026 18.1758ZM196.824 9.65039C196.168 9.65039 195.617 9.89062 195.172 10.3711C194.727 10.8457 194.451 11.5137 194.346 12.375H199.109V12.252C199.062 11.4258 198.84 10.7871 198.441 10.3359C198.043 9.87891 197.504 9.65039 196.824 9.65039Z" fill="black"/>
<path d="M146.494 487.203V495.904C146.488 497.111 146.107 498.099 145.352 498.866C144.602 499.634 143.582 500.064 142.293 500.158L141.845 500.176C140.444 500.176 139.328 499.798 138.496 499.042C137.664 498.286 137.242 497.246 137.23 495.922V487.203H138.9V495.869C138.9 496.795 139.155 497.516 139.665 498.031C140.175 498.541 140.901 498.796 141.845 498.796C142.8 498.796 143.529 498.541 144.033 498.031C144.543 497.521 144.798 496.804 144.798 495.878V487.203H146.494ZM154.439 497.478C154.439 497.038 154.272 496.698 153.938 496.458C153.61 496.212 153.033 496.001 152.207 495.825C151.387 495.649 150.733 495.438 150.247 495.192C149.767 494.946 149.409 494.653 149.175 494.313C148.946 493.974 148.832 493.569 148.832 493.101C148.832 492.321 149.16 491.662 149.816 491.123C150.479 490.584 151.322 490.314 152.348 490.314C153.426 490.314 154.299 490.593 154.967 491.149C155.641 491.706 155.978 492.418 155.978 493.285H154.343C154.343 492.84 154.152 492.456 153.771 492.134C153.396 491.812 152.922 491.65 152.348 491.65C151.756 491.65 151.293 491.779 150.959 492.037C150.625 492.295 150.458 492.632 150.458 493.048C150.458 493.44 150.613 493.736 150.924 493.936C151.234 494.135 151.794 494.325 152.603 494.507C153.417 494.688 154.076 494.905 154.58 495.157C155.084 495.409 155.456 495.714 155.696 496.071C155.942 496.423 156.065 496.854 156.065 497.363C156.065 498.213 155.726 498.896 155.046 499.411C154.366 499.921 153.484 500.176 152.4 500.176C151.639 500.176 150.965 500.041 150.379 499.771C149.793 499.502 149.333 499.127 148.999 498.646C148.671 498.16 148.507 497.636 148.507 497.073H150.133C150.162 497.618 150.379 498.052 150.783 498.374C151.193 498.69 151.732 498.849 152.4 498.849C153.016 498.849 153.508 498.726 153.877 498.479C154.252 498.228 154.439 497.894 154.439 497.478ZM162.13 500.176C160.841 500.176 159.792 499.754 158.983 498.91C158.175 498.061 157.771 496.927 157.771 495.509V495.21C157.771 494.267 157.949 493.426 158.307 492.688C158.67 491.943 159.174 491.363 159.818 490.947C160.469 490.525 161.172 490.314 161.928 490.314C163.164 490.314 164.125 490.722 164.811 491.536C165.496 492.351 165.839 493.517 165.839 495.034V495.711H159.396C159.42 496.648 159.692 497.407 160.214 497.987C160.741 498.562 161.409 498.849 162.218 498.849C162.792 498.849 163.278 498.731 163.677 498.497C164.075 498.263 164.424 497.952 164.723 497.565L165.716 498.339C164.919 499.563 163.724 500.176 162.13 500.176ZM161.928 491.65C161.271 491.65 160.721 491.891 160.275 492.371C159.83 492.846 159.555 493.514 159.449 494.375H164.213V494.252C164.166 493.426 163.943 492.787 163.545 492.336C163.146 491.879 162.607 491.65 161.928 491.65ZM167.333 495.166C167.333 493.707 167.679 492.535 168.37 491.65C169.062 490.76 169.967 490.314 171.086 490.314C172.199 490.314 173.081 490.695 173.731 491.457V486.5H175.357V500H173.863L173.784 498.98C173.134 499.777 172.229 500.176 171.068 500.176C169.967 500.176 169.067 499.725 168.37 498.822C167.679 497.92 167.333 496.742 167.333 495.289V495.166ZM168.959 495.351C168.959 496.429 169.182 497.272 169.627 497.882C170.072 498.491 170.688 498.796 171.473 498.796C172.504 498.796 173.257 498.333 173.731 497.407V493.039C173.245 492.143 172.498 491.694 171.49 491.694C170.693 491.694 170.072 492.002 169.627 492.617C169.182 493.232 168.959 494.144 168.959 495.351ZM186.845 497.759L190.501 487.203H192.347L187.601 500H186.106L181.369 487.203H183.206L186.845 497.759ZM198.763 494.823H195.757V500H194.061V487.203H198.297C199.738 487.203 200.846 487.531 201.619 488.188C202.398 488.844 202.788 489.799 202.788 491.053C202.788 491.85 202.571 492.544 202.138 493.136C201.71 493.728 201.112 494.17 200.345 494.463L203.351 499.895V500H201.54L198.763 494.823ZM195.757 493.443H198.35C199.188 493.443 199.853 493.227 200.345 492.793C200.843 492.359 201.092 491.779 201.092 491.053C201.092 490.262 200.854 489.655 200.38 489.233C199.911 488.812 199.231 488.598 198.341 488.592H195.757V493.443ZM217.422 495.351C217.422 496.804 217.088 497.973 216.42 498.857C215.752 499.736 214.855 500.176 213.73 500.176C212.529 500.176 211.601 499.751 210.944 498.901L210.865 500H209.371V486.5H210.997V491.536C211.653 490.722 212.559 490.314 213.713 490.314C214.867 490.314 215.772 490.751 216.429 491.624C217.091 492.497 217.422 493.692 217.422 495.21V495.351ZM215.796 495.166C215.796 494.059 215.582 493.203 215.154 492.6C214.727 491.996 214.111 491.694 213.309 491.694C212.236 491.694 211.466 492.192 210.997 493.188V497.302C211.495 498.298 212.271 498.796 213.326 498.796C214.105 498.796 214.712 498.494 215.146 497.891C215.579 497.287 215.796 496.379 215.796 495.166ZM223.425 500.176C222.136 500.176 221.087 499.754 220.278 498.91C219.47 498.061 219.065 496.927 219.065 495.509V495.21C219.065 494.267 219.244 493.426 219.602 492.688C219.965 491.943 220.469 491.363 221.113 490.947C221.764 490.525 222.467 490.314 223.223 490.314C224.459 490.314 225.42 490.722 226.105 491.536C226.791 492.351 227.134 493.517 227.134 495.034V495.711H220.691C220.715 496.648 220.987 497.407 221.509 497.987C222.036 498.562 222.704 498.849 223.513 498.849C224.087 498.849 224.573 498.731 224.972 498.497C225.37 498.263 225.719 497.952 226.018 497.565L227.011 498.339C226.214 499.563 225.019 500.176 223.425 500.176ZM223.223 491.65C222.566 491.65 222.016 491.891 221.57 492.371C221.125 492.846 220.85 493.514 220.744 494.375H225.508V494.252C225.461 493.426 225.238 492.787 224.84 492.336C224.441 491.879 223.902 491.65 223.223 491.65ZM229.823 500V491.747H228.32V490.49H229.823V489.515C229.823 488.495 230.096 487.707 230.641 487.15C231.186 486.594 231.956 486.315 232.952 486.315C233.327 486.315 233.699 486.365 234.068 486.465L233.98 487.783C233.705 487.73 233.412 487.704 233.102 487.704C232.574 487.704 232.167 487.859 231.88 488.17C231.593 488.475 231.449 488.914 231.449 489.488V490.49H233.479V491.747H231.449V500H229.823ZM234.851 495.157C234.851 494.226 235.032 493.388 235.396 492.644C235.765 491.899 236.274 491.325 236.925 490.921C237.581 490.517 238.328 490.314 239.166 490.314C240.461 490.314 241.507 490.763 242.304 491.659C243.106 492.556 243.508 493.748 243.508 495.236V495.351C243.508 496.276 243.329 497.108 242.972 497.847C242.62 498.579 242.113 499.15 241.451 499.561C240.795 499.971 240.039 500.176 239.184 500.176C237.895 500.176 236.849 499.728 236.046 498.831C235.249 497.935 234.851 496.748 234.851 495.271V495.157ZM236.485 495.351C236.485 496.405 236.729 497.252 237.215 497.891C237.707 498.529 238.363 498.849 239.184 498.849C240.01 498.849 240.666 498.526 241.152 497.882C241.639 497.231 241.882 496.323 241.882 495.157C241.882 494.114 241.633 493.271 241.135 492.626C240.643 491.976 239.986 491.65 239.166 491.65C238.363 491.65 237.716 491.97 237.224 492.608C236.731 493.247 236.485 494.161 236.485 495.351ZM250.144 491.949C249.897 491.908 249.631 491.888 249.344 491.888C248.277 491.888 247.554 492.342 247.173 493.25V500H245.547V490.49H247.129L247.155 491.589C247.688 490.739 248.444 490.314 249.423 490.314C249.739 490.314 249.979 490.355 250.144 490.438V491.949ZM255.417 500.176C254.128 500.176 253.079 499.754 252.271 498.91C251.462 498.061 251.058 496.927 251.058 495.509V495.21C251.058 494.267 251.236 493.426 251.594 492.688C251.957 491.943 252.461 491.363 253.105 490.947C253.756 490.525 254.459 490.314 255.215 490.314C256.451 490.314 257.412 490.722 258.098 491.536C258.783 492.351 259.126 493.517 259.126 495.034V495.711H252.684C252.707 496.648 252.979 497.407 253.501 497.987C254.028 498.562 254.696 498.849 255.505 498.849C256.079 498.849 256.565 498.731 256.964 498.497C257.362 498.263 257.711 497.952 258.01 497.565L259.003 498.339C258.206 499.563 257.011 500.176 255.417 500.176ZM255.215 491.65C254.559 491.65 254.008 491.891 253.562 492.371C253.117 492.846 252.842 493.514 252.736 494.375H257.5V494.252C257.453 493.426 257.23 492.787 256.832 492.336C256.434 491.879 255.895 491.65 255.215 491.65Z" fill="black"/>
<path d="M156.329 227.015C156.329 228.269 156.118 229.364 155.696 230.302C155.274 231.233 154.677 231.945 153.903 232.438C153.13 232.93 152.228 233.176 151.196 233.176C150.188 233.176 149.295 232.93 148.516 232.438C147.736 231.939 147.13 231.233 146.696 230.319C146.269 229.399 146.049 228.336 146.037 227.129V226.206C146.037 224.976 146.251 223.889 146.679 222.945C147.106 222.002 147.71 221.281 148.489 220.783C149.274 220.279 150.171 220.027 151.179 220.027C152.204 220.027 153.106 220.276 153.886 220.774C154.671 221.267 155.274 221.984 155.696 222.928C156.118 223.865 156.329 224.958 156.329 226.206V227.015ZM154.65 226.188C154.65 224.671 154.346 223.508 153.736 222.699C153.127 221.885 152.274 221.478 151.179 221.478C150.112 221.478 149.271 221.885 148.656 222.699C148.047 223.508 147.733 224.633 147.716 226.074V227.015C147.716 228.485 148.023 229.643 148.639 230.486C149.26 231.324 150.112 231.743 151.196 231.743C152.286 231.743 153.13 231.348 153.728 230.557C154.325 229.76 154.633 228.62 154.65 227.138V226.188ZM162.42 231.849C163 231.849 163.507 231.673 163.94 231.321C164.374 230.97 164.614 230.53 164.661 230.003H166.199C166.17 230.548 165.982 231.066 165.637 231.559C165.291 232.051 164.828 232.443 164.248 232.736C163.674 233.029 163.064 233.176 162.42 233.176C161.125 233.176 160.094 232.745 159.326 231.884C158.564 231.017 158.184 229.833 158.184 228.333V228.061C158.184 227.135 158.354 226.312 158.693 225.591C159.033 224.87 159.52 224.311 160.152 223.912C160.791 223.514 161.544 223.314 162.411 223.314C163.478 223.314 164.362 223.634 165.065 224.272C165.774 224.911 166.152 225.74 166.199 226.76H164.661C164.614 226.145 164.38 225.641 163.958 225.248C163.542 224.85 163.026 224.65 162.411 224.65C161.585 224.65 160.943 224.949 160.486 225.547C160.035 226.139 159.81 226.997 159.81 228.122V228.43C159.81 229.525 160.035 230.369 160.486 230.961C160.938 231.553 161.582 231.849 162.42 231.849ZM171.842 231.849C172.422 231.849 172.929 231.673 173.362 231.321C173.796 230.97 174.036 230.53 174.083 230.003H175.621C175.592 230.548 175.404 231.066 175.059 231.559C174.713 232.051 174.25 232.443 173.67 232.736C173.096 233.029 172.486 233.176 171.842 233.176C170.547 233.176 169.516 232.745 168.748 231.884C167.986 231.017 167.605 229.833 167.605 228.333V228.061C167.605 227.135 167.775 226.312 168.115 225.591C168.455 224.87 168.941 224.311 169.574 223.912C170.213 223.514 170.966 223.314 171.833 223.314C172.899 223.314 173.784 223.634 174.487 224.272C175.196 224.911 175.574 225.74 175.621 226.76H174.083C174.036 226.145 173.802 225.641 173.38 225.248C172.964 224.85 172.448 224.65 171.833 224.65C171.007 224.65 170.365 224.949 169.908 225.547C169.457 226.139 169.231 226.997 169.231 228.122V228.43C169.231 229.525 169.457 230.369 169.908 230.961C170.359 231.553 171.004 231.849 171.842 231.849ZM183.32 232.06C182.688 232.804 181.759 233.176 180.534 233.176C179.521 233.176 178.747 232.883 178.214 232.297C177.687 231.705 177.42 230.832 177.414 229.678V223.49H179.04V229.634C179.04 231.075 179.626 231.796 180.798 231.796C182.04 231.796 182.866 231.333 183.276 230.407V223.49H184.902V233H183.355L183.32 232.06ZM195.414 228.351C195.414 229.798 195.083 230.964 194.421 231.849C193.759 232.733 192.862 233.176 191.731 233.176C190.577 233.176 189.669 232.81 189.007 232.077V236.656H187.381V223.49H188.866L188.945 224.545C189.607 223.725 190.527 223.314 191.705 223.314C192.848 223.314 193.75 223.745 194.412 224.606C195.08 225.468 195.414 226.666 195.414 228.201V228.351ZM193.788 228.166C193.788 227.094 193.56 226.247 193.103 225.626C192.646 225.005 192.019 224.694 191.222 224.694C190.237 224.694 189.499 225.131 189.007 226.004V230.548C189.493 231.415 190.237 231.849 191.239 231.849C192.019 231.849 192.637 231.541 193.094 230.926C193.557 230.305 193.788 229.385 193.788 228.166ZM203.359 233C203.266 232.812 203.189 232.479 203.131 231.998C202.375 232.783 201.473 233.176 200.424 233.176C199.486 233.176 198.716 232.912 198.112 232.385C197.515 231.852 197.216 231.178 197.216 230.363C197.216 229.373 197.591 228.605 198.341 228.061C199.097 227.51 200.157 227.234 201.522 227.234H203.104V226.487C203.104 225.919 202.935 225.468 202.595 225.134C202.255 224.794 201.754 224.624 201.092 224.624C200.512 224.624 200.025 224.771 199.633 225.063C199.24 225.356 199.044 225.711 199.044 226.127H197.409C197.409 225.652 197.576 225.195 197.91 224.756C198.25 224.311 198.707 223.959 199.281 223.701C199.861 223.443 200.497 223.314 201.188 223.314C202.284 223.314 203.143 223.59 203.764 224.141C204.385 224.686 204.707 225.438 204.73 226.399V230.776C204.73 231.649 204.842 232.344 205.064 232.859V233H203.359ZM200.661 231.761C201.171 231.761 201.654 231.629 202.111 231.365C202.568 231.102 202.899 230.759 203.104 230.337V228.386H201.83C199.838 228.386 198.842 228.969 198.842 230.135C198.842 230.645 199.012 231.043 199.352 231.33C199.691 231.617 200.128 231.761 200.661 231.761ZM209.485 221.188V223.49H211.261V224.747H209.485V230.645C209.485 231.025 209.564 231.312 209.723 231.506C209.881 231.693 210.15 231.787 210.531 231.787C210.719 231.787 210.977 231.752 211.305 231.682V233C210.877 233.117 210.461 233.176 210.057 233.176C209.33 233.176 208.782 232.956 208.413 232.517C208.044 232.077 207.859 231.453 207.859 230.645V224.747H206.128V223.49H207.859V221.188H209.485ZM214.935 233H213.309V223.49H214.935V233ZM213.177 220.968C213.177 220.704 213.256 220.481 213.414 220.3C213.578 220.118 213.818 220.027 214.135 220.027C214.451 220.027 214.691 220.118 214.855 220.3C215.02 220.481 215.102 220.704 215.102 220.968C215.102 221.231 215.02 221.451 214.855 221.627C214.691 221.803 214.451 221.891 214.135 221.891C213.818 221.891 213.578 221.803 213.414 221.627C213.256 221.451 213.177 221.231 213.177 220.968ZM217.114 228.157C217.114 227.226 217.296 226.388 217.659 225.644C218.028 224.899 218.538 224.325 219.188 223.921C219.845 223.517 220.592 223.314 221.43 223.314C222.725 223.314 223.771 223.763 224.567 224.659C225.37 225.556 225.771 226.748 225.771 228.236V228.351C225.771 229.276 225.593 230.108 225.235 230.847C224.884 231.579 224.377 232.15 223.715 232.561C223.059 232.971 222.303 233.176 221.447 233.176C220.158 233.176 219.112 232.728 218.31 231.831C217.513 230.935 217.114 229.748 217.114 228.271V228.157ZM218.749 228.351C218.749 229.405 218.992 230.252 219.479 230.891C219.971 231.529 220.627 231.849 221.447 231.849C222.273 231.849 222.93 231.526 223.416 230.882C223.902 230.231 224.146 229.323 224.146 228.157C224.146 227.114 223.896 226.271 223.398 225.626C222.906 224.976 222.25 224.65 221.43 224.65C220.627 224.65 219.979 224.97 219.487 225.608C218.995 226.247 218.749 227.161 218.749 228.351ZM229.349 223.49L229.401 224.686C230.128 223.771 231.077 223.314 232.249 223.314C234.259 223.314 235.272 224.448 235.29 226.716V233H233.664V226.707C233.658 226.021 233.5 225.515 233.189 225.187C232.885 224.858 232.407 224.694 231.757 224.694C231.229 224.694 230.767 224.835 230.368 225.116C229.97 225.397 229.659 225.767 229.437 226.224V233H227.811V223.49H229.349Z" fill="black"/>
<path d="M17.1953 141H10.0703V140.281L13.9688 135.859C14.6146 135.115 15.0625 134.5 15.3125 134.016C15.5625 133.531 15.6875 133.06 15.6875 132.602C15.6875 131.883 15.4766 131.315 15.0547 130.898C14.6328 130.477 14.0521 130.266 13.3125 130.266C12.5469 130.266 11.9271 130.51 11.4531 131C10.9844 131.49 10.75 132.125 10.75 132.906H9.82031C9.82031 132.266 9.96354 131.682 10.25 131.156C10.5417 130.63 10.9531 130.219 11.4844 129.922C12.0208 129.62 12.6302 129.469 13.3125 129.469C14.3542 129.469 15.1667 129.742 15.75 130.289C16.3385 130.836 16.6328 131.581 16.6328 132.523C16.6328 133.055 16.4661 133.635 16.1328 134.266C15.8047 134.896 15.224 135.682 14.3906 136.625L11.2188 140.211H17.1953V141ZM24.6875 137.336H26.4609V138.125H24.6875V141H23.75V138.125H18.3984V137.594L23.6641 129.625H24.6875V137.336ZM19.5469 137.336H23.75V130.836L23.3359 131.555L19.5469 137.336Z" fill="black"/>
<path d="M42.1953 141H35.0703V140.281L38.9688 135.859C39.6146 135.115 40.0625 134.5 40.3125 134.016C40.5625 133.531 40.6875 133.06 40.6875 132.602C40.6875 131.883 40.4766 131.315 40.0547 130.898C39.6328 130.477 39.0521 130.266 38.3125 130.266C37.5469 130.266 36.9271 130.51 36.4531 131C35.9844 131.49 35.75 132.125 35.75 132.906H34.8203C34.8203 132.266 34.9635 131.682 35.25 131.156C35.5417 130.63 35.9531 130.219 36.4844 129.922C37.0208 129.62 37.6302 129.469 38.3125 129.469C39.3542 129.469 40.1667 129.742 40.75 130.289C41.3385 130.836 41.6328 131.581 41.6328 132.523C41.6328 133.055 41.4661 133.635 41.1328 134.266C40.8047 134.896 40.224 135.682 39.3906 136.625L36.2188 140.211H42.1953V141ZM44.5781 135.172L45.1328 129.625H50.8203V130.492H45.9375L45.5391 134.336C46.1484 133.919 46.862 133.711 47.6797 133.711C48.7057 133.711 49.5234 134.044 50.1328 134.711C50.7422 135.378 51.0469 136.266 51.0469 137.375C51.0469 138.573 50.75 139.503 50.1562 140.164C49.5625 140.826 48.7266 141.156 47.6484 141.156C46.6589 141.156 45.8568 140.88 45.2422 140.328C44.6276 139.776 44.276 139.003 44.1875 138.008H45.0859C45.1745 138.784 45.4375 139.372 45.875 139.773C46.3125 140.169 46.9036 140.367 47.6484 140.367C48.4609 140.367 49.0729 140.109 49.4844 139.594C49.901 139.078 50.1094 138.344 50.1094 137.391C50.1094 136.557 49.8776 135.878 49.4141 135.352C48.9505 134.826 48.3177 134.562 47.5156 134.562C47.0729 134.562 46.6875 134.62 46.3594 134.734C46.0312 134.844 45.6849 135.06 45.3203 135.383L44.5781 135.172Z" fill="black"/>
<path d="M101.891 395.553C101.891 395.001 101.697 394.566 101.31 394.247C100.922 393.924 100.214 393.618 99.1836 393.331C98.1536 393.039 97.4017 392.723 96.9277 392.381C96.2533 391.898 95.916 391.264 95.916 390.48C95.916 389.719 96.2282 389.102 96.8525 388.628C97.4814 388.149 98.2835 387.91 99.2588 387.91C99.9196 387.91 100.51 388.038 101.029 388.293C101.553 388.548 101.959 388.904 102.246 389.359C102.533 389.815 102.677 390.323 102.677 390.884H101.829C101.829 390.205 101.597 389.66 101.132 389.25C100.667 388.835 100.043 388.628 99.2588 388.628C98.4977 388.628 97.8916 388.799 97.4404 389.141C96.9893 389.478 96.7637 389.92 96.7637 390.467C96.7637 390.973 96.9665 391.385 97.3721 391.704C97.7777 392.023 98.4271 392.306 99.3203 392.552C100.214 392.793 100.89 393.046 101.351 393.311C101.811 393.57 102.157 393.882 102.39 394.247C102.622 394.612 102.738 395.042 102.738 395.539C102.738 396.323 102.424 396.952 101.795 397.426C101.171 397.9 100.346 398.137 99.3203 398.137C98.6185 398.137 97.9736 398.011 97.3857 397.761C96.8024 397.51 96.3581 397.159 96.0527 396.708C95.752 396.257 95.6016 395.74 95.6016 395.156H96.4424C96.4424 395.858 96.7044 396.412 97.2285 396.817C97.7526 397.223 98.4499 397.426 99.3203 397.426C100.095 397.426 100.717 397.255 101.187 396.913C101.656 396.571 101.891 396.118 101.891 395.553ZM105.637 388.71V390.604H107.168V391.273H105.637V396.202C105.637 396.612 105.71 396.918 105.855 397.118C106.006 397.319 106.254 397.419 106.601 397.419C106.737 397.419 106.958 397.396 107.264 397.351L107.298 398.021C107.084 398.098 106.792 398.137 106.423 398.137C105.862 398.137 105.454 397.975 105.199 397.651C104.944 397.323 104.816 396.842 104.816 396.209V391.273H103.456V390.604H104.816V388.71H105.637ZM113.621 397.063C113.129 397.779 112.343 398.137 111.263 398.137C110.474 398.137 109.875 397.909 109.465 397.453C109.055 396.993 108.845 396.314 108.836 395.416V390.604H109.649V395.313C109.649 396.722 110.219 397.426 111.358 397.426C112.543 397.426 113.293 396.936 113.607 395.956V390.604H114.428V398H113.635L113.621 397.063ZM116.232 394.233C116.232 393.085 116.488 392.171 116.998 391.492C117.513 390.809 118.21 390.467 119.09 390.467C120.088 390.467 120.849 390.861 121.373 391.649V387.5H122.187V398H121.421L121.387 397.016C120.863 397.763 120.092 398.137 119.076 398.137C118.224 398.137 117.536 397.795 117.012 397.111C116.492 396.423 116.232 395.496 116.232 394.329V394.233ZM117.06 394.377C117.06 395.32 117.249 396.065 117.627 396.612C118.005 397.155 118.538 397.426 119.227 397.426C120.234 397.426 120.949 396.981 121.373 396.093V392.62C120.949 391.659 120.238 391.178 119.24 391.178C118.552 391.178 118.017 391.449 117.634 391.991C117.251 392.529 117.06 393.324 117.06 394.377ZM127.204 398.137C126.575 398.137 126.006 397.982 125.495 397.672C124.989 397.362 124.595 396.931 124.312 396.38C124.03 395.824 123.889 395.202 123.889 394.514V394.22C123.889 393.509 124.025 392.868 124.299 392.299C124.577 391.729 124.962 391.283 125.454 390.959C125.946 390.631 126.479 390.467 127.054 390.467C127.951 390.467 128.662 390.774 129.187 391.39C129.715 392 129.979 392.837 129.979 393.898V394.356H124.702V394.514C124.702 395.352 124.941 396.052 125.42 396.612C125.903 397.168 126.509 397.446 127.238 397.446C127.676 397.446 128.061 397.367 128.394 397.207C128.731 397.048 129.036 396.792 129.31 396.441L129.822 396.831C129.221 397.701 128.348 398.137 127.204 398.137ZM127.054 391.164C126.438 391.164 125.919 391.39 125.495 391.841C125.076 392.292 124.821 392.898 124.729 393.659H129.166V393.57C129.143 392.859 128.94 392.281 128.558 391.834C128.175 391.387 127.674 391.164 127.054 391.164ZM132.352 390.604L132.379 391.868C132.657 391.412 133.003 391.066 133.418 390.829C133.833 390.588 134.291 390.467 134.792 390.467C135.585 390.467 136.175 390.69 136.562 391.137C136.95 391.583 137.146 392.253 137.15 393.146V398H136.337V393.14C136.332 392.479 136.191 391.987 135.913 391.663C135.64 391.34 135.2 391.178 134.594 391.178C134.088 391.178 133.639 391.337 133.247 391.656C132.86 391.971 132.573 392.397 132.386 392.935V398H131.572V390.604H132.352ZM140.541 388.71V390.604H142.072V391.273H140.541V396.202C140.541 396.612 140.614 396.918 140.76 397.118C140.91 397.319 141.159 397.419 141.505 397.419C141.642 397.419 141.863 397.396 142.168 397.351L142.202 398.021C141.988 398.098 141.696 398.137 141.327 398.137C140.767 398.137 140.359 397.975 140.104 397.651C139.848 397.323 139.721 396.842 139.721 396.209V391.273H138.36V390.604H139.721V388.71H140.541Z" fill="black"/>
<path d="M137.177 711.475L140.219 706.047H141.189L137.594 712.254V716H136.753V712.254L133.164 706.047H134.162L137.177 711.475ZM144.86 716.137C144.231 716.137 143.662 715.982 143.151 715.672C142.646 715.362 142.251 714.931 141.969 714.38C141.686 713.824 141.545 713.202 141.545 712.514V712.22C141.545 711.509 141.682 710.868 141.955 710.299C142.233 709.729 142.618 709.283 143.11 708.959C143.603 708.631 144.136 708.467 144.71 708.467C145.608 708.467 146.319 708.774 146.843 709.39C147.371 710 147.636 710.837 147.636 711.898V712.356H142.358V712.514C142.358 713.352 142.598 714.052 143.076 714.612C143.559 715.168 144.165 715.446 144.895 715.446C145.332 715.446 145.717 715.367 146.05 715.207C146.387 715.048 146.692 714.792 146.966 714.441L147.479 714.831C146.877 715.701 146.004 716.137 144.86 716.137ZM144.71 709.164C144.095 709.164 143.575 709.39 143.151 709.841C142.732 710.292 142.477 710.898 142.386 711.659H146.822V711.57C146.799 710.859 146.597 710.281 146.214 709.834C145.831 709.387 145.33 709.164 144.71 709.164ZM153.658 714.12C153.658 713.715 153.494 713.389 153.166 713.143C152.842 712.896 152.353 712.705 151.696 712.568C151.04 712.427 150.53 712.268 150.165 712.09C149.805 711.908 149.536 711.687 149.358 711.427C149.185 711.167 149.099 710.853 149.099 710.483C149.099 709.9 149.342 709.419 149.83 709.041C150.318 708.658 150.942 708.467 151.703 708.467C152.528 708.467 153.189 708.672 153.686 709.082C154.187 709.488 154.438 710.019 154.438 710.675H153.617C153.617 710.242 153.435 709.882 153.07 709.595C152.71 709.308 152.255 709.164 151.703 709.164C151.165 709.164 150.732 709.285 150.404 709.526C150.081 709.763 149.919 710.073 149.919 710.456C149.919 710.825 150.053 711.112 150.322 711.317C150.596 711.518 151.09 711.702 151.806 711.871C152.526 712.04 153.063 712.22 153.419 712.411C153.779 712.603 154.046 712.833 154.219 713.102C154.392 713.37 154.479 713.696 154.479 714.079C154.479 714.703 154.226 715.202 153.72 715.576C153.218 715.95 152.562 716.137 151.751 716.137C150.89 716.137 150.19 715.929 149.652 715.515C149.119 715.095 148.853 714.567 148.853 713.929H149.673C149.705 714.407 149.905 714.781 150.274 715.05C150.648 715.314 151.14 715.446 151.751 715.446C152.321 715.446 152.781 715.321 153.132 715.07C153.483 714.82 153.658 714.503 153.658 714.12Z" fill="black"/>
<path d="M154.099 393.946V398H153.258V388.047H156.648C157.683 388.047 158.499 388.311 159.096 388.84C159.697 389.368 159.998 390.095 159.998 391.021C159.998 391.955 159.709 392.677 159.13 393.188C158.556 393.693 157.722 393.946 156.628 393.946H154.099ZM154.099 393.235H156.648C157.464 393.235 158.086 393.042 158.515 392.654C158.943 392.267 159.157 391.727 159.157 391.034C159.157 390.346 158.943 389.799 158.515 389.394C158.091 388.983 157.487 388.774 156.703 388.765H154.099V393.235ZM165.111 391.301C164.938 391.269 164.754 391.253 164.558 391.253C164.047 391.253 163.614 391.396 163.259 391.684C162.908 391.966 162.657 392.379 162.507 392.921V398H161.693V390.604H162.493L162.507 391.779C162.94 390.904 163.635 390.467 164.592 390.467C164.82 390.467 165 390.496 165.132 390.556L165.111 391.301ZM165.822 394.192C165.822 393.481 165.959 392.841 166.232 392.271C166.51 391.702 166.9 391.26 167.401 390.945C167.907 390.626 168.479 390.467 169.117 390.467C170.102 390.467 170.899 390.813 171.51 391.506C172.12 392.194 172.426 393.108 172.426 394.247V394.418C172.426 395.133 172.287 395.778 172.009 396.353C171.735 396.922 171.348 397.362 170.847 397.672C170.345 397.982 169.773 398.137 169.131 398.137C168.151 398.137 167.354 397.793 166.738 397.104C166.128 396.412 165.822 395.496 165.822 394.356V394.192ZM166.643 394.418C166.643 395.302 166.87 396.029 167.326 396.599C167.786 397.164 168.388 397.446 169.131 397.446C169.869 397.446 170.466 397.164 170.922 396.599C171.382 396.029 171.612 395.279 171.612 394.35V394.192C171.612 393.627 171.507 393.11 171.298 392.641C171.088 392.171 170.794 391.809 170.416 391.554C170.038 391.294 169.605 391.164 169.117 391.164C168.388 391.164 167.793 391.451 167.333 392.025C166.873 392.595 166.643 393.342 166.643 394.268V394.418ZM174.709 398V391.273H173.485V390.604H174.709V389.708C174.709 388.951 174.9 388.37 175.283 387.965C175.671 387.559 176.208 387.356 176.896 387.356C177.206 387.356 177.496 387.395 177.765 387.473L177.703 388.156C177.475 388.102 177.227 388.074 176.958 388.074C176.507 388.074 176.156 388.215 175.905 388.498C175.655 388.776 175.529 389.173 175.529 389.688V390.604H177.293V391.273H175.529V398H174.709ZM181.456 398.137C180.827 398.137 180.257 397.982 179.747 397.672C179.241 397.362 178.847 396.931 178.564 396.38C178.282 395.824 178.141 395.202 178.141 394.514V394.22C178.141 393.509 178.277 392.868 178.551 392.299C178.829 391.729 179.214 391.283 179.706 390.959C180.198 390.631 180.731 390.467 181.306 390.467C182.203 390.467 182.914 390.774 183.438 391.39C183.967 392 184.231 392.837 184.231 393.898V394.356H178.954V394.514C178.954 395.352 179.193 396.052 179.672 396.612C180.155 397.168 180.761 397.446 181.49 397.446C181.928 397.446 182.313 397.367 182.646 397.207C182.983 397.048 183.288 396.792 183.562 396.441L184.074 396.831C183.473 397.701 182.6 398.137 181.456 398.137ZM181.306 391.164C180.69 391.164 180.171 391.39 179.747 391.841C179.328 392.292 179.073 392.898 178.981 393.659H183.418V393.57C183.395 392.859 183.192 392.281 182.81 391.834C182.427 391.387 181.925 391.164 181.306 391.164ZM190.254 396.12C190.254 395.715 190.09 395.389 189.762 395.143C189.438 394.896 188.948 394.705 188.292 394.568C187.636 394.427 187.125 394.268 186.761 394.09C186.401 393.908 186.132 393.687 185.954 393.427C185.781 393.167 185.694 392.853 185.694 392.483C185.694 391.9 185.938 391.419 186.426 391.041C186.913 390.658 187.538 390.467 188.299 390.467C189.124 390.467 189.785 390.672 190.281 391.082C190.783 391.488 191.033 392.019 191.033 392.675H190.213C190.213 392.242 190.031 391.882 189.666 391.595C189.306 391.308 188.85 391.164 188.299 391.164C187.761 391.164 187.328 391.285 187 391.526C186.676 391.763 186.515 392.073 186.515 392.456C186.515 392.825 186.649 393.112 186.918 393.317C187.191 393.518 187.686 393.702 188.401 393.871C189.121 394.04 189.659 394.22 190.015 394.411C190.375 394.603 190.641 394.833 190.814 395.102C190.988 395.37 191.074 395.696 191.074 396.079C191.074 396.703 190.821 397.202 190.315 397.576C189.814 397.95 189.158 398.137 188.347 398.137C187.485 398.137 186.786 397.929 186.248 397.515C185.715 397.095 185.448 396.567 185.448 395.929H186.269C186.3 396.407 186.501 396.781 186.87 397.05C187.244 397.314 187.736 397.446 188.347 397.446C188.916 397.446 189.377 397.321 189.728 397.07C190.078 396.82 190.254 396.503 190.254 396.12ZM197.35 396.12C197.35 395.715 197.186 395.389 196.857 395.143C196.534 394.896 196.044 394.705 195.388 394.568C194.731 394.427 194.221 394.268 193.856 394.09C193.496 393.908 193.228 393.687 193.05 393.427C192.877 393.167 192.79 392.853 192.79 392.483C192.79 391.9 193.034 391.419 193.521 391.041C194.009 390.658 194.633 390.467 195.395 390.467C196.219 390.467 196.88 390.672 197.377 391.082C197.878 391.488 198.129 392.019 198.129 392.675H197.309C197.309 392.242 197.126 391.882 196.762 391.595C196.402 391.308 195.946 391.164 195.395 391.164C194.857 391.164 194.424 391.285 194.096 391.526C193.772 391.763 193.61 392.073 193.61 392.456C193.61 392.825 193.745 393.112 194.014 393.317C194.287 393.518 194.782 393.702 195.497 393.871C196.217 394.04 196.755 394.22 197.11 394.411C197.47 394.603 197.737 394.833 197.91 395.102C198.083 395.37 198.17 395.696 198.17 396.079C198.17 396.703 197.917 397.202 197.411 397.576C196.91 397.95 196.254 398.137 195.442 398.137C194.581 398.137 193.882 397.929 193.344 397.515C192.811 397.095 192.544 396.567 192.544 395.929H193.364C193.396 396.407 193.597 396.781 193.966 397.05C194.34 397.314 194.832 397.446 195.442 397.446C196.012 397.446 196.472 397.321 196.823 397.07C197.174 396.82 197.35 396.503 197.35 396.12ZM200.932 398H200.111V390.604H200.932V398ZM199.968 388.464C199.968 388.309 200.018 388.179 200.118 388.074C200.218 387.965 200.355 387.91 200.528 387.91C200.701 387.91 200.838 387.965 200.938 388.074C201.043 388.179 201.096 388.309 201.096 388.464C201.096 388.619 201.043 388.749 200.938 388.854C200.838 388.958 200.701 389.011 200.528 389.011C200.355 389.011 200.218 388.958 200.118 388.854C200.018 388.749 199.968 388.619 199.968 388.464ZM202.709 394.192C202.709 393.481 202.846 392.841 203.119 392.271C203.397 391.702 203.787 391.26 204.288 390.945C204.794 390.626 205.366 390.467 206.004 390.467C206.988 390.467 207.786 390.813 208.396 391.506C209.007 392.194 209.312 393.108 209.312 394.247V394.418C209.312 395.133 209.174 395.778 208.896 396.353C208.622 396.922 208.235 397.362 207.733 397.672C207.232 397.982 206.66 398.137 206.018 398.137C205.038 398.137 204.24 397.793 203.625 397.104C203.014 396.412 202.709 395.496 202.709 394.356V394.192ZM203.529 394.418C203.529 395.302 203.757 396.029 204.213 396.599C204.673 397.164 205.275 397.446 206.018 397.446C206.756 397.446 207.353 397.164 207.809 396.599C208.269 396.029 208.499 395.279 208.499 394.35V394.192C208.499 393.627 208.394 393.11 208.185 392.641C207.975 392.171 207.681 391.809 207.303 391.554C206.924 391.294 206.492 391.164 206.004 391.164C205.275 391.164 204.68 391.451 204.22 392.025C203.759 392.595 203.529 393.342 203.529 394.268V394.418ZM211.787 390.604L211.814 391.868C212.092 391.412 212.439 391.066 212.854 390.829C213.268 390.588 213.726 390.467 214.228 390.467C215.021 390.467 215.611 390.69 215.998 391.137C216.385 391.583 216.581 392.253 216.586 393.146V398H215.772V393.14C215.768 392.479 215.627 391.987 215.349 391.663C215.075 391.34 214.635 391.178 214.029 391.178C213.523 391.178 213.075 391.337 212.683 391.656C212.295 391.971 212.008 392.397 211.821 392.935V398H211.008V390.604H211.787ZM223.374 398C223.292 397.768 223.24 397.424 223.217 396.968C222.93 397.341 222.563 397.631 222.116 397.836C221.674 398.036 221.205 398.137 220.708 398.137C219.997 398.137 219.421 397.938 218.979 397.542C218.541 397.146 218.322 396.644 218.322 396.038C218.322 395.318 218.621 394.748 219.218 394.329C219.819 393.91 220.656 393.7 221.727 393.7H223.21V392.859C223.21 392.331 223.046 391.916 222.718 391.615C222.394 391.31 221.92 391.157 221.296 391.157C220.726 391.157 220.255 391.303 219.881 391.595C219.507 391.886 219.32 392.237 219.32 392.647L218.5 392.641C218.5 392.053 218.773 391.545 219.32 391.116C219.867 390.683 220.539 390.467 221.337 390.467C222.162 390.467 222.811 390.674 223.285 391.089C223.764 391.499 224.01 392.073 224.023 392.812V396.312C224.023 397.027 224.099 397.562 224.249 397.918V398H223.374ZM220.804 397.412C221.351 397.412 221.838 397.28 222.267 397.016C222.7 396.751 223.014 396.398 223.21 395.956V394.329H221.747C220.931 394.338 220.293 394.489 219.833 394.78C219.373 395.067 219.143 395.464 219.143 395.97C219.143 396.384 219.295 396.729 219.601 397.002C219.91 397.275 220.312 397.412 220.804 397.412ZM227.127 398H226.307V387.5H227.127V398Z" fill="black"/>
<path d="M214.668 716H213.827L208.105 707.482V716H207.258V706.047H208.105L213.834 714.571V706.047H214.668V716ZM216.555 712.192C216.555 711.481 216.691 710.841 216.965 710.271C217.243 709.702 217.632 709.26 218.134 708.945C218.64 708.626 219.212 708.467 219.85 708.467C220.834 708.467 221.632 708.813 222.242 709.506C222.853 710.194 223.158 711.108 223.158 712.247V712.418C223.158 713.133 223.019 713.778 222.741 714.353C222.468 714.922 222.08 715.362 221.579 715.672C221.078 715.982 220.506 716.137 219.863 716.137C218.883 716.137 218.086 715.793 217.471 715.104C216.86 714.412 216.555 713.496 216.555 712.356V712.192ZM217.375 712.418C217.375 713.302 217.603 714.029 218.059 714.599C218.519 715.164 219.12 715.446 219.863 715.446C220.602 715.446 221.199 715.164 221.654 714.599C222.115 714.029 222.345 713.279 222.345 712.35V712.192C222.345 711.627 222.24 711.11 222.03 710.641C221.821 710.171 221.527 709.809 221.148 709.554C220.77 709.294 220.337 709.164 219.85 709.164C219.12 709.164 218.526 709.451 218.065 710.025C217.605 710.595 217.375 711.342 217.375 712.268V712.418Z" fill="black"/>
<path d="M252.891 382.553C252.891 382.001 252.697 381.566 252.31 381.247C251.922 380.924 251.214 380.618 250.184 380.331C249.154 380.039 248.402 379.723 247.928 379.381C247.253 378.898 246.916 378.264 246.916 377.48C246.916 376.719 247.228 376.102 247.853 375.628C248.481 375.149 249.284 374.91 250.259 374.91C250.92 374.91 251.51 375.038 252.029 375.293C252.553 375.548 252.959 375.904 253.246 376.359C253.533 376.815 253.677 377.323 253.677 377.884H252.829C252.829 377.205 252.597 376.66 252.132 376.25C251.667 375.835 251.043 375.628 250.259 375.628C249.498 375.628 248.892 375.799 248.44 376.141C247.989 376.478 247.764 376.92 247.764 377.467C247.764 377.973 247.966 378.385 248.372 378.704C248.778 379.023 249.427 379.306 250.32 379.552C251.214 379.793 251.89 380.046 252.351 380.311C252.811 380.57 253.157 380.882 253.39 381.247C253.622 381.612 253.738 382.042 253.738 382.539C253.738 383.323 253.424 383.952 252.795 384.426C252.171 384.9 251.346 385.137 250.32 385.137C249.618 385.137 248.974 385.011 248.386 384.761C247.802 384.51 247.358 384.159 247.053 383.708C246.752 383.257 246.602 382.74 246.602 382.156H247.442C247.442 382.858 247.704 383.412 248.229 383.817C248.753 384.223 249.45 384.426 250.32 384.426C251.095 384.426 251.717 384.255 252.187 383.913C252.656 383.571 252.891 383.118 252.891 382.553ZM258.229 385.137C257.601 385.137 257.031 384.982 256.521 384.672C256.015 384.362 255.62 383.931 255.338 383.38C255.055 382.824 254.914 382.202 254.914 381.514V381.22C254.914 380.509 255.051 379.868 255.324 379.299C255.602 378.729 255.987 378.283 256.479 377.959C256.972 377.631 257.505 377.467 258.079 377.467C258.977 377.467 259.688 377.774 260.212 378.39C260.741 379 261.005 379.837 261.005 380.898V381.356H255.728V381.514C255.728 382.352 255.967 383.052 256.445 383.612C256.928 384.168 257.535 384.446 258.264 384.446C258.701 384.446 259.086 384.367 259.419 384.207C259.756 384.048 260.062 383.792 260.335 383.441L260.848 383.831C260.246 384.701 259.373 385.137 258.229 385.137ZM258.079 378.164C257.464 378.164 256.944 378.39 256.521 378.841C256.101 379.292 255.846 379.898 255.755 380.659H260.191V380.57C260.169 379.859 259.966 379.281 259.583 378.834C259.2 378.387 258.699 378.164 258.079 378.164ZM263.514 385H262.693V374.5H263.514V385ZM266.33 385V378.273H265.106V377.604H266.33V376.708C266.33 375.951 266.521 375.37 266.904 374.965C267.292 374.559 267.829 374.356 268.518 374.356C268.827 374.356 269.117 374.395 269.386 374.473L269.324 375.156C269.096 375.102 268.848 375.074 268.579 375.074C268.128 375.074 267.777 375.215 267.526 375.498C267.276 375.776 267.15 376.173 267.15 376.688V377.604H268.914V378.273H267.15V385H266.33ZM272.92 380.953H269.646V380.263H272.92V380.953ZM249.931 401.137C249.302 401.137 248.732 400.982 248.222 400.672C247.716 400.362 247.322 399.931 247.039 399.38C246.757 398.824 246.615 398.202 246.615 397.514V397.22C246.615 396.509 246.752 395.868 247.025 395.299C247.303 394.729 247.688 394.283 248.181 393.959C248.673 393.631 249.206 393.467 249.78 393.467C250.678 393.467 251.389 393.774 251.913 394.39C252.442 395 252.706 395.837 252.706 396.898V397.356H247.429V397.514C247.429 398.352 247.668 399.052 248.146 399.612C248.63 400.168 249.236 400.446 249.965 400.446C250.402 400.446 250.787 400.367 251.12 400.207C251.457 400.048 251.763 399.792 252.036 399.441L252.549 399.831C251.947 400.701 251.075 401.137 249.931 401.137ZM249.78 394.164C249.165 394.164 248.646 394.39 248.222 394.841C247.802 395.292 247.547 395.898 247.456 396.659H251.893V396.57C251.87 395.859 251.667 395.281 251.284 394.834C250.901 394.387 250.4 394.164 249.78 394.164ZM255.044 393.604L255.071 394.807C255.345 394.36 255.687 394.025 256.097 393.802C256.507 393.578 256.963 393.467 257.464 393.467C258.631 393.467 259.371 393.945 259.686 394.902C259.95 394.442 260.303 394.089 260.745 393.843C261.187 393.592 261.675 393.467 262.208 393.467C263.794 393.467 264.603 394.333 264.635 396.064V401H263.814V396.126C263.81 395.465 263.666 394.975 263.384 394.656C263.106 394.337 262.65 394.178 262.017 394.178C261.429 394.187 260.932 394.378 260.526 394.752C260.121 395.121 259.895 395.572 259.85 396.105V401H259.029V396.064C259.025 395.431 258.874 394.959 258.578 394.649C258.286 394.335 257.835 394.178 257.225 394.178C256.71 394.178 256.268 394.326 255.898 394.622C255.529 394.914 255.256 395.349 255.078 395.928V401H254.258V393.604H255.044ZM272.66 397.377C272.66 398.53 272.405 399.446 271.895 400.125C271.384 400.799 270.701 401.137 269.844 401.137C268.832 401.137 268.057 400.781 267.52 400.07V403.844H266.706V393.604H267.465L267.506 394.649C268.039 393.861 268.812 393.467 269.823 393.467C270.707 393.467 271.4 393.802 271.901 394.472C272.407 395.142 272.66 396.071 272.66 397.261V397.377ZM271.84 397.233C271.84 396.29 271.646 395.545 271.259 394.998C270.871 394.451 270.331 394.178 269.639 394.178C269.137 394.178 268.707 394.299 268.347 394.54C267.987 394.782 267.711 395.132 267.52 395.593V399.141C267.715 399.564 267.996 399.888 268.36 400.111C268.725 400.335 269.156 400.446 269.652 400.446C270.34 400.446 270.876 400.173 271.259 399.626C271.646 399.075 271.84 398.277 271.84 397.233ZM275.395 401H274.574V390.5H275.395V401ZM277.172 397.192C277.172 396.481 277.309 395.841 277.582 395.271C277.86 394.702 278.25 394.26 278.751 393.945C279.257 393.626 279.829 393.467 280.467 393.467C281.451 393.467 282.249 393.813 282.859 394.506C283.47 395.194 283.775 396.108 283.775 397.247V397.418C283.775 398.133 283.636 398.778 283.358 399.353C283.085 399.922 282.698 400.362 282.196 400.672C281.695 400.982 281.123 401.137 280.48 401.137C279.501 401.137 278.703 400.793 278.088 400.104C277.477 399.412 277.172 398.496 277.172 397.356V397.192ZM277.992 397.418C277.992 398.302 278.22 399.029 278.676 399.599C279.136 400.164 279.738 400.446 280.48 400.446C281.219 400.446 281.816 400.164 282.271 399.599C282.732 399.029 282.962 398.279 282.962 397.35V397.192C282.962 396.627 282.857 396.11 282.647 395.641C282.438 395.171 282.144 394.809 281.766 394.554C281.387 394.294 280.954 394.164 280.467 394.164C279.738 394.164 279.143 394.451 278.683 395.025C278.222 395.595 277.992 396.342 277.992 397.268V397.418ZM287.706 399.824L289.866 393.604H290.748L287.59 402.258L287.426 402.641C287.02 403.538 286.394 403.987 285.546 403.987C285.35 403.987 285.14 403.955 284.917 403.892L284.91 403.215L285.334 403.256C285.735 403.256 286.059 403.156 286.305 402.955C286.555 402.759 286.767 402.42 286.94 401.937L287.303 400.938L284.514 393.604H285.409L287.706 399.824ZM294.788 401.137C294.159 401.137 293.59 400.982 293.079 400.672C292.573 400.362 292.179 399.931 291.896 399.38C291.614 398.824 291.473 398.202 291.473 397.514V397.22C291.473 396.509 291.609 395.868 291.883 395.299C292.161 394.729 292.546 394.283 293.038 393.959C293.53 393.631 294.063 393.467 294.638 393.467C295.535 393.467 296.246 393.774 296.771 394.39C297.299 395 297.563 395.837 297.563 396.898V397.356H292.286V397.514C292.286 398.352 292.525 399.052 293.004 399.612C293.487 400.168 294.093 400.446 294.822 400.446C295.26 400.446 295.645 400.367 295.978 400.207C296.315 400.048 296.62 399.792 296.894 399.441L297.406 399.831C296.805 400.701 295.932 401.137 294.788 401.137ZM294.638 394.164C294.022 394.164 293.503 394.39 293.079 394.841C292.66 395.292 292.405 395.898 292.313 396.659H296.75V396.57C296.727 395.859 296.524 395.281 296.142 394.834C295.759 394.387 295.257 394.164 294.638 394.164ZM298.828 397.233C298.828 396.085 299.083 395.171 299.594 394.492C300.109 393.809 300.806 393.467 301.686 393.467C302.684 393.467 303.445 393.861 303.969 394.649V390.5H304.782V401H304.017L303.982 400.016C303.458 400.763 302.688 401.137 301.672 401.137C300.82 401.137 300.132 400.795 299.607 400.111C299.088 399.423 298.828 398.496 298.828 397.329V397.233ZM299.655 397.377C299.655 398.32 299.844 399.065 300.223 399.612C300.601 400.155 301.134 400.426 301.822 400.426C302.829 400.426 303.545 399.981 303.969 399.093V395.62C303.545 394.659 302.834 394.178 301.836 394.178C301.148 394.178 300.612 394.449 300.229 394.991C299.847 395.529 299.655 396.324 299.655 397.377Z" fill="black"/>
<path d="M113.195 141H106.07V140.281L109.969 135.859C110.615 135.115 111.062 134.5 111.312 134.016C111.562 133.531 111.688 133.06 111.688 132.602C111.688 131.883 111.477 131.315 111.055 130.898C110.633 130.477 110.052 130.266 109.312 130.266C108.547 130.266 107.927 130.51 107.453 131C106.984 131.49 106.75 132.125 106.75 132.906H105.82C105.82 132.266 105.964 131.682 106.25 131.156C106.542 130.63 106.953 130.219 107.484 129.922C108.021 129.62 108.63 129.469 109.312 129.469C110.354 129.469 111.167 129.742 111.75 130.289C112.339 130.836 112.633 131.581 112.633 132.523C112.633 133.055 112.466 133.635 112.133 134.266C111.805 134.896 111.224 135.682 110.391 136.625L107.219 140.211H113.195V141ZM121.648 132.555C121.648 133.143 121.477 133.672 121.133 134.141C120.789 134.604 120.336 134.945 119.773 135.164C120.43 135.388 120.956 135.75 121.352 136.25C121.747 136.75 121.945 137.328 121.945 137.984C121.945 138.958 121.615 139.732 120.953 140.305C120.292 140.872 119.417 141.156 118.328 141.156C117.229 141.156 116.349 140.872 115.688 140.305C115.031 139.737 114.703 138.964 114.703 137.984C114.703 137.339 114.893 136.763 115.273 136.258C115.654 135.753 116.174 135.388 116.836 135.164C116.273 134.945 115.826 134.604 115.492 134.141C115.159 133.672 114.992 133.143 114.992 132.555C114.992 131.612 115.294 130.862 115.898 130.305C116.508 129.747 117.312 129.469 118.312 129.469C119.312 129.469 120.117 129.75 120.727 130.312C121.341 130.875 121.648 131.622 121.648 132.555ZM121.008 137.992C121.008 137.284 120.755 136.703 120.25 136.25C119.745 135.792 119.099 135.562 118.312 135.562C117.526 135.562 116.883 135.786 116.383 136.234C115.883 136.682 115.633 137.268 115.633 137.992C115.633 138.716 115.875 139.294 116.359 139.727C116.844 140.154 117.5 140.367 118.328 140.367C119.135 140.367 119.784 140.154 120.273 139.727C120.763 139.299 121.008 138.721 121.008 137.992ZM120.711 132.547C120.711 131.896 120.484 131.354 120.031 130.922C119.583 130.484 119.01 130.266 118.312 130.266C117.604 130.266 117.029 130.477 116.586 130.898C116.148 131.315 115.93 131.865 115.93 132.547C115.93 133.214 116.148 133.75 116.586 134.156C117.029 134.562 117.607 134.766 118.32 134.766C119.023 134.766 119.596 134.562 120.039 134.156C120.487 133.745 120.711 133.208 120.711 132.547Z" fill="black"/>
<path d="M180.148 134.805H181.117C181.654 134.805 182.122 134.711 182.523 134.523C182.924 134.331 183.229 134.07 183.438 133.742C183.651 133.409 183.758 133.026 183.758 132.594C183.758 131.865 183.552 131.294 183.141 130.883C182.729 130.471 182.138 130.266 181.367 130.266C180.638 130.266 180.039 130.482 179.57 130.914C179.107 131.341 178.875 131.906 178.875 132.609H177.938C177.938 132.021 178.086 131.484 178.383 131C178.68 130.51 179.091 130.133 179.617 129.867C180.143 129.602 180.727 129.469 181.367 129.469C182.398 129.469 183.211 129.75 183.805 130.312C184.398 130.875 184.695 131.646 184.695 132.625C184.695 133.172 184.521 133.677 184.172 134.141C183.828 134.599 183.354 134.943 182.75 135.172C183.458 135.37 183.995 135.711 184.359 136.195C184.724 136.674 184.906 137.247 184.906 137.914C184.906 138.888 184.589 139.672 183.953 140.266C183.318 140.859 182.469 141.156 181.406 141.156C180.729 141.156 180.107 141.021 179.539 140.75C178.977 140.479 178.539 140.102 178.227 139.617C177.919 139.128 177.766 138.56 177.766 137.914H178.703C178.703 138.638 178.956 139.229 179.461 139.688C179.966 140.141 180.615 140.367 181.406 140.367C182.214 140.367 182.841 140.161 183.289 139.75C183.742 139.333 183.969 138.732 183.969 137.945C183.969 137.185 183.724 136.604 183.234 136.203C182.75 135.802 182.034 135.602 181.086 135.602H180.148V134.805ZM194.07 141H186.945V140.281L190.844 135.859C191.49 135.115 191.938 134.5 192.188 134.016C192.438 133.531 192.562 133.06 192.562 132.602C192.562 131.883 192.352 131.315 191.93 130.898C191.508 130.477 190.927 130.266 190.188 130.266C189.422 130.266 188.802 130.51 188.328 131C187.859 131.49 187.625 132.125 187.625 132.906H186.695C186.695 132.266 186.839 131.682 187.125 131.156C187.417 130.63 187.828 130.219 188.359 129.922C188.896 129.62 189.505 129.469 190.188 129.469C191.229 129.469 192.042 129.742 192.625 130.289C193.214 130.836 193.508 131.581 193.508 132.523C193.508 133.055 193.341 133.635 193.008 134.266C192.68 134.896 192.099 135.682 191.266 136.625L188.094 140.211H194.07V141Z" fill="black"/>
<path d="M348.148 134.805H349.117C349.654 134.805 350.122 134.711 350.523 134.523C350.924 134.331 351.229 134.07 351.438 133.742C351.651 133.409 351.758 133.026 351.758 132.594C351.758 131.865 351.552 131.294 351.141 130.883C350.729 130.471 350.138 130.266 349.367 130.266C348.638 130.266 348.039 130.482 347.57 130.914C347.107 131.341 346.875 131.906 346.875 132.609H345.938C345.938 132.021 346.086 131.484 346.383 131C346.68 130.51 347.091 130.133 347.617 129.867C348.143 129.602 348.727 129.469 349.367 129.469C350.398 129.469 351.211 129.75 351.805 130.312C352.398 130.875 352.695 131.646 352.695 132.625C352.695 133.172 352.521 133.677 352.172 134.141C351.828 134.599 351.354 134.943 350.75 135.172C351.458 135.37 351.995 135.711 352.359 136.195C352.724 136.674 352.906 137.247 352.906 137.914C352.906 138.888 352.589 139.672 351.953 140.266C351.318 140.859 350.469 141.156 349.406 141.156C348.729 141.156 348.107 141.021 347.539 140.75C346.977 140.479 346.539 140.102 346.227 139.617C345.919 139.128 345.766 138.56 345.766 137.914H346.703C346.703 138.638 346.956 139.229 347.461 139.688C347.966 140.141 348.615 140.367 349.406 140.367C350.214 140.367 350.841 140.161 351.289 139.75C351.742 139.333 351.969 138.732 351.969 137.945C351.969 137.185 351.724 136.604 351.234 136.203C350.75 135.802 350.034 135.602 349.086 135.602H348.148V134.805ZM360.781 135.734C360.448 136.224 360.034 136.604 359.539 136.875C359.044 137.141 358.508 137.273 357.93 137.273C357.284 137.273 356.714 137.107 356.219 136.773C355.724 136.44 355.341 135.979 355.07 135.391C354.799 134.802 354.664 134.159 354.664 133.461C354.664 132.711 354.807 132.029 355.094 131.414C355.385 130.799 355.789 130.323 356.305 129.984C356.826 129.641 357.424 129.469 358.102 129.469C359.242 129.469 360.13 129.87 360.766 130.672C361.401 131.469 361.719 132.602 361.719 134.07V134.914C361.719 136.966 361.281 138.508 360.406 139.539C359.531 140.57 358.195 141.086 356.398 141.086H356.227L356.234 140.273H356.562C357.922 140.253 358.956 139.867 359.664 139.117C360.372 138.367 360.745 137.24 360.781 135.734ZM358.047 136.469C358.672 136.469 359.232 136.284 359.727 135.914C360.227 135.539 360.581 135.055 360.789 134.461V133.922C360.789 132.766 360.547 131.87 360.062 131.234C359.583 130.594 358.935 130.273 358.117 130.273C357.378 130.273 356.771 130.573 356.297 131.172C355.823 131.766 355.586 132.516 355.586 133.422C355.586 134.292 355.812 135.018 356.266 135.602C356.724 136.18 357.318 136.469 358.047 136.469Z" fill="black"/>
<path d="M120.195 322H113.07V321.281L116.969 316.859C117.615 316.115 118.062 315.5 118.312 315.016C118.562 314.531 118.688 314.06 118.688 313.602C118.688 312.883 118.477 312.315 118.055 311.898C117.633 311.477 117.052 311.266 116.312 311.266C115.547 311.266 114.927 311.51 114.453 312C113.984 312.49 113.75 313.125 113.75 313.906H112.82C112.82 313.266 112.964 312.682 113.25 312.156C113.542 311.63 113.953 311.219 114.484 310.922C115.021 310.62 115.63 310.469 116.312 310.469C117.354 310.469 118.167 310.742 118.75 311.289C119.339 311.836 119.633 312.581 119.633 313.523C119.633 314.055 119.466 314.635 119.133 315.266C118.805 315.896 118.224 316.682 117.391 317.625L114.219 321.211H120.195V322Z" fill="black"/>
<path d="M147.195 640H140.07V639.281L143.969 634.859C144.615 634.115 145.062 633.5 145.312 633.016C145.562 632.531 145.688 632.06 145.688 631.602C145.688 630.883 145.477 630.315 145.055 629.898C144.633 629.477 144.052 629.266 143.312 629.266C142.547 629.266 141.927 629.51 141.453 630C140.984 630.49 140.75 631.125 140.75 631.906H139.82C139.82 631.266 139.964 630.682 140.25 630.156C140.542 629.63 140.953 629.219 141.484 628.922C142.021 628.62 142.63 628.469 143.312 628.469C144.354 628.469 145.167 628.742 145.75 629.289C146.339 629.836 146.633 630.581 146.633 631.523C146.633 632.055 146.466 632.635 146.133 633.266C145.805 633.896 145.224 634.682 144.391 635.625L141.219 639.211H147.195V640Z" fill="black"/>
<path d="M182.703 263.172L183.258 257.625H188.945V258.492H184.062L183.664 262.336C184.273 261.919 184.987 261.711 185.805 261.711C186.831 261.711 187.648 262.044 188.258 262.711C188.867 263.378 189.172 264.266 189.172 265.375C189.172 266.573 188.875 267.503 188.281 268.164C187.688 268.826 186.852 269.156 185.773 269.156C184.784 269.156 183.982 268.88 183.367 268.328C182.753 267.776 182.401 267.003 182.312 266.008H183.211C183.299 266.784 183.562 267.372 184 267.773C184.438 268.169 185.029 268.367 185.773 268.367C186.586 268.367 187.198 268.109 187.609 267.594C188.026 267.078 188.234 266.344 188.234 265.391C188.234 264.557 188.003 263.878 187.539 263.352C187.076 262.826 186.443 262.562 185.641 262.562C185.198 262.562 184.812 262.62 184.484 262.734C184.156 262.844 183.81 263.06 183.445 263.383L182.703 263.172Z" fill="black"/>
<path d="M216.078 537.164L211.219 548H210.242L215.07 537.422H208.602V536.625H216.078V537.164Z" fill="black"/>
<path d="M254.195 323H247.07V322.281L250.969 317.859C251.615 317.115 252.062 316.5 252.312 316.016C252.562 315.531 252.688 315.06 252.688 314.602C252.688 313.883 252.477 313.315 252.055 312.898C251.633 312.477 251.052 312.266 250.312 312.266C249.547 312.266 248.927 312.51 248.453 313C247.984 313.49 247.75 314.125 247.75 314.906H246.82C246.82 314.266 246.964 313.682 247.25 313.156C247.542 312.63 247.953 312.219 248.484 311.922C249.021 311.62 249.63 311.469 250.312 311.469C251.354 311.469 252.167 311.742 252.75 312.289C253.339 312.836 253.633 313.581 253.633 314.523C253.633 315.055 253.466 315.635 253.133 316.266C252.805 316.896 252.224 317.682 251.391 318.625L248.219 322.211H254.195V323Z" fill="black"/>
<path d="M250.148 134.805H251.117C251.654 134.805 252.122 134.711 252.523 134.523C252.924 134.331 253.229 134.07 253.438 133.742C253.651 133.409 253.758 133.026 253.758 132.594C253.758 131.865 253.552 131.294 253.141 130.883C252.729 130.471 252.138 130.266 251.367 130.266C250.638 130.266 250.039 130.482 249.57 130.914C249.107 131.341 248.875 131.906 248.875 132.609H247.938C247.938 132.021 248.086 131.484 248.383 131C248.68 130.51 249.091 130.133 249.617 129.867C250.143 129.602 250.727 129.469 251.367 129.469C252.398 129.469 253.211 129.75 253.805 130.312C254.398 130.875 254.695 131.646 254.695 132.625C254.695 133.172 254.521 133.677 254.172 134.141C253.828 134.599 253.354 134.943 252.75 135.172C253.458 135.37 253.995 135.711 254.359 136.195C254.724 136.674 254.906 137.247 254.906 137.914C254.906 138.888 254.589 139.672 253.953 140.266C253.318 140.859 252.469 141.156 251.406 141.156C250.729 141.156 250.107 141.021 249.539 140.75C248.977 140.479 248.539 140.102 248.227 139.617C247.919 139.128 247.766 138.56 247.766 137.914H248.703C248.703 138.638 248.956 139.229 249.461 139.688C249.966 140.141 250.615 140.367 251.406 140.367C252.214 140.367 252.841 140.161 253.289 139.75C253.742 139.333 253.969 138.732 253.969 137.945C253.969 137.185 253.724 136.604 253.234 136.203C252.75 135.802 252.034 135.602 251.086 135.602H250.148V134.805ZM257.578 135.172L258.133 129.625H263.82V130.492H258.938L258.539 134.336C259.148 133.919 259.862 133.711 260.68 133.711C261.706 133.711 262.523 134.044 263.133 134.711C263.742 135.378 264.047 136.266 264.047 137.375C264.047 138.573 263.75 139.503 263.156 140.164C262.562 140.826 261.727 141.156 260.648 141.156C259.659 141.156 258.857 140.88 258.242 140.328C257.628 139.776 257.276 139.003 257.188 138.008H258.086C258.174 138.784 258.438 139.372 258.875 139.773C259.312 140.169 259.904 140.367 260.648 140.367C261.461 140.367 262.073 140.109 262.484 139.594C262.901 139.078 263.109 138.344 263.109 137.391C263.109 136.557 262.878 135.878 262.414 135.352C261.951 134.826 261.318 134.562 260.516 134.562C260.073 134.562 259.688 134.62 259.359 134.734C259.031 134.844 258.685 135.06 258.32 135.383L257.578 135.172Z" fill="black"/>
<path d="M205.148 134.805H206.117C206.654 134.805 207.122 134.711 207.523 134.523C207.924 134.331 208.229 134.07 208.438 133.742C208.651 133.409 208.758 133.026 208.758 132.594C208.758 131.865 208.552 131.294 208.141 130.883C207.729 130.471 207.138 130.266 206.367 130.266C205.638 130.266 205.039 130.482 204.57 130.914C204.107 131.341 203.875 131.906 203.875 132.609H202.938C202.938 132.021 203.086 131.484 203.383 131C203.68 130.51 204.091 130.133 204.617 129.867C205.143 129.602 205.727 129.469 206.367 129.469C207.398 129.469 208.211 129.75 208.805 130.312C209.398 130.875 209.695 131.646 209.695 132.625C209.695 133.172 209.521 133.677 209.172 134.141C208.828 134.599 208.354 134.943 207.75 135.172C208.458 135.37 208.995 135.711 209.359 136.195C209.724 136.674 209.906 137.247 209.906 137.914C209.906 138.888 209.589 139.672 208.953 140.266C208.318 140.859 207.469 141.156 206.406 141.156C205.729 141.156 205.107 141.021 204.539 140.75C203.977 140.479 203.539 140.102 203.227 139.617C202.919 139.128 202.766 138.56 202.766 137.914H203.703C203.703 138.638 203.956 139.229 204.461 139.688C204.966 140.141 205.615 140.367 206.406 140.367C207.214 140.367 207.841 140.161 208.289 139.75C208.742 139.333 208.969 138.732 208.969 137.945C208.969 137.185 208.724 136.604 208.234 136.203C207.75 135.802 207.034 135.602 206.086 135.602H205.148V134.805ZM214.023 134.805H214.992C215.529 134.805 215.997 134.711 216.398 134.523C216.799 134.331 217.104 134.07 217.312 133.742C217.526 133.409 217.633 133.026 217.633 132.594C217.633 131.865 217.427 131.294 217.016 130.883C216.604 130.471 216.013 130.266 215.242 130.266C214.513 130.266 213.914 130.482 213.445 130.914C212.982 131.341 212.75 131.906 212.75 132.609H211.812C211.812 132.021 211.961 131.484 212.258 131C212.555 130.51 212.966 130.133 213.492 129.867C214.018 129.602 214.602 129.469 215.242 129.469C216.273 129.469 217.086 129.75 217.68 130.312C218.273 130.875 218.57 131.646 218.57 132.625C218.57 133.172 218.396 133.677 218.047 134.141C217.703 134.599 217.229 134.943 216.625 135.172C217.333 135.37 217.87 135.711 218.234 136.195C218.599 136.674 218.781 137.247 218.781 137.914C218.781 138.888 218.464 139.672 217.828 140.266C217.193 140.859 216.344 141.156 215.281 141.156C214.604 141.156 213.982 141.021 213.414 140.75C212.852 140.479 212.414 140.102 212.102 139.617C211.794 139.128 211.641 138.56 211.641 137.914H212.578C212.578 138.638 212.831 139.229 213.336 139.688C213.841 140.141 214.49 140.367 215.281 140.367C216.089 140.367 216.716 140.161 217.164 139.75C217.617 139.333 217.844 138.732 217.844 137.945C217.844 137.185 217.599 136.604 217.109 136.203C216.625 135.802 215.909 135.602 214.961 135.602H214.023V134.805Z" fill="black"/>
<rect x="12" y="120" width="37" height="14" rx="7" transform="rotate(-90 12 120)" fill="#88B3FF" fill-opacity="0.66"/>
<rect x="111" y="366" width="37" height="14" rx="7" transform="rotate(-90 111 366)" fill="#88B3FF" fill-opacity="0.66"/>
<rect x="138" y="684" width="37" height="14" rx="7" transform="rotate(-90 138 684)" fill="#88B3FF" fill-opacity="0.66"/>
<rect x="36" y="120" width="37" height="14" rx="7" transform="rotate(-90 36 120)" fill="#88B3FF" fill-opacity="0.66"/>
<rect x="109" y="120" width="74" height="13" rx="6.5" transform="rotate(-90 109 120)" fill="#88B3FF" fill-opacity="0.66"/>
<rect x="179" y="366" width="90" height="13" rx="6.5" transform="rotate(-90 179 366)" fill="#88B3FF" fill-opacity="0.66"/>
<rect x="206" y="684" width="130" height="13" rx="6.5" transform="rotate(-90 206 684)" fill="#88B3FF" fill-opacity="0.66"/>
<rect x="180" y="120" width="37" height="14" rx="7" transform="rotate(-90 180 120)" fill="#88B3FF" fill-opacity="0.66"/>
<rect x="246" y="366" width="37" height="14" rx="7" transform="rotate(-90 246 366)" fill="#88B3FF" fill-opacity="0.66"/>
<rect x="205" y="120" width="37" height="12" rx="6" transform="rotate(-90 205 120)" fill="#88B3FF" fill-opacity="0.66"/>
<rect x="251" y="120" width="74" height="14" rx="7" transform="rotate(-90 251 120)" fill="#88B3FF" fill-opacity="0.66"/>
<rect x="347" y="120" width="37" height="14" rx="7" transform="rotate(-90 347 120)" fill="#88B3FF" fill-opacity="0.66"/>
<path d="M1 126.41H384.221" stroke="#ACADB0" stroke-linecap="round" stroke-linejoin="round"/>
<path d="M378.626 121.159L385.619 126.41L378.626 131.661" stroke="#ACADB0" stroke-linecap="round" stroke-linejoin="round"/>
</svg>
