<svg width="1126" height="238" viewBox="0 0 1126 238" fill="none" xmlns="http://www.w3.org/2000/svg">
<path d="M721.57 104.414H723.199C724.223 104.398 725.027 104.129 725.613 103.605C726.199 103.082 726.492 102.375 726.492 101.484C726.492 99.4844 725.496 98.4844 723.504 98.4844C722.566 98.4844 721.816 98.7539 721.254 99.293C720.699 99.8242 720.422 100.531 720.422 101.414H718.254C718.254 100.062 718.746 98.9414 719.73 98.0508C720.723 97.1523 721.98 96.7031 723.504 96.7031C725.113 96.7031 726.375 97.1289 727.289 97.9805C728.203 98.832 728.66 100.016 728.66 101.531C728.66 102.273 728.418 102.992 727.934 103.688C727.457 104.383 726.805 104.902 725.977 105.246C726.914 105.543 727.637 106.035 728.145 106.723C728.66 107.41 728.918 108.25 728.918 109.242C728.918 110.773 728.418 111.988 727.418 112.887C726.418 113.785 725.117 114.234 723.516 114.234C721.914 114.234 720.609 113.801 719.602 112.934C718.602 112.066 718.102 110.922 718.102 109.5H720.281C720.281 110.398 720.574 111.117 721.16 111.656C721.746 112.195 722.531 112.465 723.516 112.465C724.562 112.465 725.363 112.191 725.918 111.645C726.473 111.098 726.75 110.312 726.75 109.289C726.75 108.297 726.445 107.535 725.836 107.004C725.227 106.473 724.348 106.199 723.199 106.184H721.57V104.414ZM732.891 105.445L733.758 96.9375H742.5V98.9414H735.598L735.082 103.594C735.918 103.102 736.867 102.855 737.93 102.855C739.484 102.855 740.719 103.371 741.633 104.402C742.547 105.426 743.004 106.812 743.004 108.562C743.004 110.32 742.527 111.707 741.574 112.723C740.629 113.73 739.305 114.234 737.602 114.234C736.094 114.234 734.863 113.816 733.91 112.98C732.957 112.145 732.414 110.988 732.281 109.512H734.332C734.465 110.488 734.812 111.227 735.375 111.727C735.938 112.219 736.68 112.465 737.602 112.465C738.609 112.465 739.398 112.121 739.969 111.434C740.547 110.746 740.836 109.797 740.836 108.586C740.836 107.445 740.523 106.531 739.898 105.844C739.281 105.148 738.457 104.801 737.426 104.801C736.48 104.801 735.738 105.008 735.199 105.422L734.625 105.891L732.891 105.445ZM753.586 101.32L753.645 102.727C754.574 101.633 755.828 101.086 757.406 101.086C759.18 101.086 760.387 101.766 761.027 103.125C761.449 102.516 761.996 102.023 762.668 101.648C763.348 101.273 764.148 101.086 765.07 101.086C767.852 101.086 769.266 102.559 769.312 105.504V114H767.145V105.633C767.145 104.727 766.938 104.051 766.523 103.605C766.109 103.152 765.414 102.926 764.438 102.926C763.633 102.926 762.965 103.168 762.434 103.652C761.902 104.129 761.594 104.773 761.508 105.586V114H759.328V105.691C759.328 103.848 758.426 102.926 756.621 102.926C755.199 102.926 754.227 103.531 753.703 104.742V114H751.535V101.32H753.586ZM774.949 114H772.781V101.32H774.949V114ZM772.605 97.957C772.605 97.6055 772.711 97.3086 772.922 97.0664C773.141 96.8242 773.461 96.7031 773.883 96.7031C774.305 96.7031 774.625 96.8242 774.844 97.0664C775.062 97.3086 775.172 97.6055 775.172 97.957C775.172 98.3086 775.062 98.6016 774.844 98.8359C774.625 99.0703 774.305 99.1875 773.883 99.1875C773.461 99.1875 773.141 99.0703 772.922 98.8359C772.711 98.6016 772.605 98.3086 772.605 97.957ZM780.48 101.32L780.551 102.914C781.52 101.695 782.785 101.086 784.348 101.086C787.027 101.086 788.379 102.598 788.402 105.621V114H786.234V105.609C786.227 104.695 786.016 104.02 785.602 103.582C785.195 103.145 784.559 102.926 783.691 102.926C782.988 102.926 782.371 103.113 781.84 103.488C781.309 103.863 780.895 104.355 780.598 104.965V114H778.43V101.32H780.48ZM803.836 104.848H808.594V106.898H803.836V112.289H801.656V106.898H796.898V104.848H801.656V99.8672H803.836V104.848Z" fill="#362FE7"/>
<path d="M757.543 169H755.363V154.551L750.992 156.156V154.188L757.203 151.855H757.543V169Z" fill="#362FE7"/>
<path d="M764.551 170.465H762.688L769.812 151.938H771.664L764.551 170.465ZM774.781 160.445L775.648 151.938H784.391V153.941H777.488L776.973 158.594C777.809 158.102 778.758 157.855 779.82 157.855C781.375 157.855 782.609 158.371 783.523 159.402C784.438 160.426 784.895 161.812 784.895 163.562C784.895 165.32 784.418 166.707 783.465 167.723C782.52 168.73 781.195 169.234 779.492 169.234C777.984 169.234 776.754 168.816 775.801 167.98C774.848 167.145 774.305 165.988 774.172 164.512H776.223C776.355 165.488 776.703 166.227 777.266 166.727C777.828 167.219 778.57 167.465 779.492 167.465C780.5 167.465 781.289 167.121 781.859 166.434C782.438 165.746 782.727 164.797 782.727 163.586C782.727 162.445 782.414 161.531 781.789 160.844C781.172 160.148 780.348 159.801 779.316 159.801C778.371 159.801 777.629 160.008 777.09 160.422L776.516 160.891L774.781 160.445Z" fill="black"/>
<path d="M1000.57 164.27H1002.94V166.039H1000.57V170H998.391V166.039H990.621V164.762L998.262 152.938H1000.57V164.27ZM993.082 164.27H998.391V155.902L998.133 156.371L993.082 164.27ZM1005.16 168.863C1005.16 168.488 1005.27 168.176 1005.49 167.926C1005.72 167.676 1006.05 167.551 1006.5 167.551C1006.95 167.551 1007.28 167.676 1007.51 167.926C1007.74 168.176 1007.86 168.488 1007.86 168.863C1007.86 169.223 1007.74 169.523 1007.51 169.766C1007.28 170.008 1006.95 170.129 1006.5 170.129C1006.05 170.129 1005.72 170.008 1005.49 169.766C1005.27 169.523 1005.16 169.223 1005.16 168.863ZM1019.53 162.5C1019.08 163.039 1018.54 163.473 1017.9 163.801C1017.28 164.129 1016.59 164.293 1015.84 164.293C1014.86 164.293 1014 164.051 1013.26 163.566C1012.54 163.082 1011.97 162.402 1011.57 161.527C1011.18 160.645 1010.98 159.672 1010.98 158.609C1010.98 157.469 1011.19 156.441 1011.62 155.527C1012.06 154.613 1012.68 153.914 1013.47 153.43C1014.27 152.945 1015.2 152.703 1016.26 152.703C1017.95 152.703 1019.28 153.336 1020.25 154.602C1021.22 155.859 1021.71 157.578 1021.71 159.758V160.391C1021.71 163.711 1021.05 166.137 1019.74 167.668C1018.43 169.191 1016.45 169.973 1013.8 170.012H1013.38V168.184H1013.84C1015.62 168.152 1017 167.688 1017.96 166.789C1018.92 165.883 1019.45 164.453 1019.53 162.5ZM1016.19 162.5C1016.92 162.5 1017.59 162.277 1018.2 161.832C1018.81 161.387 1019.26 160.836 1019.54 160.18V159.312C1019.54 157.891 1019.23 156.734 1018.62 155.844C1018 154.953 1017.22 154.508 1016.27 154.508C1015.32 154.508 1014.55 154.875 1013.98 155.609C1013.4 156.336 1013.11 157.297 1013.11 158.492C1013.11 159.656 1013.39 160.617 1013.94 161.375C1014.5 162.125 1015.25 162.5 1016.19 162.5Z" fill="#362FE7"/>
<path d="M1025.36 171.465H1023.49L1030.62 152.938H1032.47L1025.36 171.465ZM1035.59 161.445L1036.45 152.938H1045.2V154.941H1038.29L1037.78 159.594C1038.61 159.102 1039.56 158.855 1040.62 158.855C1042.18 158.855 1043.41 159.371 1044.33 160.402C1045.24 161.426 1045.7 162.812 1045.7 164.562C1045.7 166.32 1045.22 167.707 1044.27 168.723C1043.32 169.73 1042 170.234 1040.3 170.234C1038.79 170.234 1037.56 169.816 1036.61 168.98C1035.65 168.145 1035.11 166.988 1034.98 165.512H1037.03C1037.16 166.488 1037.51 167.227 1038.07 167.727C1038.63 168.219 1039.38 168.465 1040.3 168.465C1041.3 168.465 1042.09 168.121 1042.66 167.434C1043.24 166.746 1043.53 165.797 1043.53 164.586C1043.53 163.445 1043.22 162.531 1042.59 161.844C1041.98 161.148 1041.15 160.801 1040.12 160.801C1039.18 160.801 1038.43 161.008 1037.89 161.422L1037.32 161.891L1035.59 161.445Z" fill="black"/>
<path d="M983.094 106.453L990.43 109.418V111.715L980.844 107.273V105.562L990.43 101.133V103.43L983.094 106.453ZM1006.71 114H1004.53V99.5508L1000.16 101.156V99.1875L1006.37 96.8555H1006.71V114ZM1021.27 101.32L1021.33 102.727C1022.26 101.633 1023.52 101.086 1025.09 101.086C1026.87 101.086 1028.07 101.766 1028.71 103.125C1029.14 102.516 1029.68 102.023 1030.36 101.648C1031.04 101.273 1031.84 101.086 1032.76 101.086C1035.54 101.086 1036.95 102.559 1037 105.504V114H1034.83V105.633C1034.83 104.727 1034.62 104.051 1034.21 103.605C1033.8 103.152 1033.1 102.926 1032.12 102.926C1031.32 102.926 1030.65 103.168 1030.12 103.652C1029.59 104.129 1029.28 104.773 1029.2 105.586V114H1027.02V105.691C1027.02 103.848 1026.11 102.926 1024.31 102.926C1022.89 102.926 1021.91 103.531 1021.39 104.742V114H1019.22V101.32H1021.27ZM1042.64 114H1040.47V101.32H1042.64V114ZM1040.29 97.957C1040.29 97.6055 1040.4 97.3086 1040.61 97.0664C1040.83 96.8242 1041.15 96.7031 1041.57 96.7031C1041.99 96.7031 1042.31 96.8242 1042.53 97.0664C1042.75 97.3086 1042.86 97.6055 1042.86 97.957C1042.86 98.3086 1042.75 98.6016 1042.53 98.8359C1042.31 99.0703 1041.99 99.1875 1041.57 99.1875C1041.15 99.1875 1040.83 99.0703 1040.61 98.8359C1040.4 98.6016 1040.29 98.3086 1040.29 97.957ZM1048.17 101.32L1048.24 102.914C1049.21 101.695 1050.47 101.086 1052.04 101.086C1054.71 101.086 1056.07 102.598 1056.09 105.621V114H1053.92V105.609C1053.91 104.695 1053.7 104.02 1053.29 103.582C1052.88 103.145 1052.25 102.926 1051.38 102.926C1050.68 102.926 1050.06 103.113 1049.53 103.488C1049 103.863 1048.58 104.355 1048.29 104.965V114H1046.12V101.32H1048.17Z" fill="#3447D3"/>
<path d="M323.156 99.4453H319.258V110H318.297V99.4453H314.406V98.625H323.156V99.4453ZM325.828 110H324.891V101.547H325.828V110ZM324.727 99.1016C324.727 98.9245 324.784 98.776 324.898 98.6562C325.013 98.5312 325.169 98.4688 325.367 98.4688C325.565 98.4688 325.721 98.5312 325.836 98.6562C325.956 98.776 326.016 98.9245 326.016 99.1016C326.016 99.2786 325.956 99.4271 325.836 99.5469C325.721 99.6667 325.565 99.7266 325.367 99.7266C325.169 99.7266 325.013 99.6667 324.898 99.5469C324.784 99.4271 324.727 99.2786 324.727 99.1016ZM329.227 101.547L329.258 102.922C329.57 102.411 329.961 102.029 330.43 101.773C330.898 101.518 331.419 101.391 331.992 101.391C333.326 101.391 334.172 101.938 334.531 103.031C334.833 102.505 335.237 102.102 335.742 101.82C336.247 101.534 336.805 101.391 337.414 101.391C339.227 101.391 340.151 102.38 340.188 104.359V110H339.25V104.43C339.245 103.674 339.081 103.115 338.758 102.75C338.44 102.385 337.919 102.203 337.195 102.203C336.523 102.214 335.956 102.432 335.492 102.859C335.029 103.281 334.771 103.797 334.719 104.406V110H333.781V104.359C333.776 103.635 333.604 103.096 333.266 102.742C332.932 102.383 332.417 102.203 331.719 102.203C331.13 102.203 330.625 102.372 330.203 102.711C329.781 103.044 329.469 103.542 329.266 104.203V110H328.328V101.547H329.227ZM345.836 110.156C345.117 110.156 344.466 109.979 343.883 109.625C343.305 109.271 342.854 108.779 342.531 108.148C342.208 107.513 342.047 106.802 342.047 106.016V105.68C342.047 104.867 342.203 104.135 342.516 103.484C342.833 102.833 343.273 102.323 343.836 101.953C344.398 101.578 345.008 101.391 345.664 101.391C346.69 101.391 347.503 101.742 348.102 102.445C348.706 103.143 349.008 104.099 349.008 105.312V105.836H342.977V106.016C342.977 106.974 343.25 107.773 343.797 108.414C344.349 109.049 345.042 109.367 345.875 109.367C346.375 109.367 346.815 109.276 347.195 109.094C347.581 108.911 347.93 108.62 348.242 108.219L348.828 108.664C348.141 109.659 347.143 110.156 345.836 110.156ZM345.664 102.188C344.961 102.188 344.367 102.445 343.883 102.961C343.404 103.477 343.112 104.169 343.008 105.039H348.078V104.938C348.052 104.125 347.82 103.464 347.383 102.953C346.945 102.443 346.372 102.188 345.664 102.188ZM361.375 107.203C361.375 106.573 361.154 106.076 360.711 105.711C360.268 105.341 359.458 104.992 358.281 104.664C357.104 104.331 356.245 103.969 355.703 103.578C354.932 103.026 354.547 102.302 354.547 101.406C354.547 100.536 354.904 99.8307 355.617 99.2891C356.336 98.7422 357.253 98.4688 358.367 98.4688C359.122 98.4688 359.797 98.6146 360.391 98.9062C360.99 99.1979 361.453 99.6042 361.781 100.125C362.109 100.646 362.273 101.227 362.273 101.867H361.305C361.305 101.091 361.039 100.469 360.508 100C359.977 99.526 359.263 99.2891 358.367 99.2891C357.497 99.2891 356.805 99.4844 356.289 99.875C355.773 100.26 355.516 100.766 355.516 101.391C355.516 101.969 355.747 102.44 356.211 102.805C356.674 103.169 357.417 103.492 358.438 103.773C359.458 104.049 360.232 104.339 360.758 104.641C361.284 104.938 361.68 105.294 361.945 105.711C362.211 106.128 362.344 106.62 362.344 107.188C362.344 108.083 361.984 108.802 361.266 109.344C360.552 109.885 359.609 110.156 358.438 110.156C357.635 110.156 356.898 110.013 356.227 109.727C355.56 109.44 355.052 109.039 354.703 108.523C354.359 108.008 354.188 107.417 354.188 106.75H355.148C355.148 107.552 355.448 108.185 356.047 108.648C356.646 109.112 357.443 109.344 358.438 109.344C359.323 109.344 360.034 109.148 360.57 108.758C361.107 108.367 361.375 107.849 361.375 107.203ZM371 105.859C371 107.177 370.708 108.224 370.125 109C369.542 109.771 368.76 110.156 367.781 110.156C366.625 110.156 365.74 109.75 365.125 108.938V113.25H364.195V101.547H365.062L365.109 102.742C365.719 101.841 366.602 101.391 367.758 101.391C368.768 101.391 369.56 101.773 370.133 102.539C370.711 103.305 371 104.367 371 105.727V105.859ZM370.062 105.695C370.062 104.617 369.841 103.766 369.398 103.141C368.956 102.516 368.339 102.203 367.547 102.203C366.974 102.203 366.482 102.341 366.07 102.617C365.659 102.893 365.344 103.294 365.125 103.82V107.875C365.349 108.359 365.669 108.729 366.086 108.984C366.503 109.24 366.995 109.367 367.562 109.367C368.349 109.367 368.961 109.055 369.398 108.43C369.841 107.799 370.062 106.888 370.062 105.695ZM376.352 110.156C375.633 110.156 374.982 109.979 374.398 109.625C373.82 109.271 373.37 108.779 373.047 108.148C372.724 107.513 372.562 106.802 372.562 106.016V105.68C372.562 104.867 372.719 104.135 373.031 103.484C373.349 102.833 373.789 102.323 374.352 101.953C374.914 101.578 375.523 101.391 376.18 101.391C377.206 101.391 378.018 101.742 378.617 102.445C379.221 103.143 379.523 104.099 379.523 105.312V105.836H373.492V106.016C373.492 106.974 373.766 107.773 374.312 108.414C374.865 109.049 375.557 109.367 376.391 109.367C376.891 109.367 377.331 109.276 377.711 109.094C378.096 108.911 378.445 108.62 378.758 108.219L379.344 108.664C378.656 109.659 377.659 110.156 376.352 110.156ZM376.18 102.188C375.477 102.188 374.883 102.445 374.398 102.961C373.919 103.477 373.628 104.169 373.523 105.039H378.594V104.938C378.568 104.125 378.336 103.464 377.898 102.953C377.461 102.443 376.888 102.188 376.18 102.188ZM382.234 101.547L382.266 102.992C382.583 102.471 382.979 102.076 383.453 101.805C383.927 101.529 384.451 101.391 385.023 101.391C385.93 101.391 386.604 101.646 387.047 102.156C387.49 102.667 387.714 103.432 387.719 104.453V110H386.789V104.445C386.784 103.69 386.622 103.128 386.305 102.758C385.992 102.388 385.49 102.203 384.797 102.203C384.219 102.203 383.706 102.385 383.258 102.75C382.815 103.109 382.487 103.596 382.273 104.211V110H381.344V101.547H382.234ZM391.594 99.3828V101.547H393.344V102.312H391.594V107.945C391.594 108.414 391.677 108.763 391.844 108.992C392.016 109.221 392.299 109.336 392.695 109.336C392.852 109.336 393.104 109.31 393.453 109.258L393.492 110.023C393.247 110.112 392.914 110.156 392.492 110.156C391.852 110.156 391.385 109.971 391.094 109.602C390.802 109.227 390.656 108.677 390.656 107.953V102.312H389.102V101.547H390.656V99.3828H391.594ZM405.656 104.688H400.352V110H399.391V98.625H406.438V99.4453H400.352V103.867H405.656V104.688ZM409.219 110H408.281V101.547H409.219V110ZM408.117 99.1016C408.117 98.9245 408.174 98.776 408.289 98.6562C408.404 98.5312 408.56 98.4688 408.758 98.4688C408.956 98.4688 409.112 98.5312 409.227 98.6562C409.346 98.776 409.406 98.9245 409.406 99.1016C409.406 99.2786 409.346 99.4271 409.227 99.5469C409.112 99.6667 408.956 99.7266 408.758 99.7266C408.56 99.7266 408.404 99.6667 408.289 99.5469C408.174 99.4271 408.117 99.2786 408.117 99.1016ZM412.656 101.547L412.688 102.992C413.005 102.471 413.401 102.076 413.875 101.805C414.349 101.529 414.872 101.391 415.445 101.391C416.352 101.391 417.026 101.646 417.469 102.156C417.911 102.667 418.135 103.432 418.141 104.453V110H417.211V104.445C417.206 103.69 417.044 103.128 416.727 102.758C416.414 102.388 415.911 102.203 415.219 102.203C414.641 102.203 414.128 102.385 413.68 102.75C413.237 103.109 412.909 103.596 412.695 104.211V110H411.766V101.547H412.656ZM420.188 105.695C420.188 104.383 420.479 103.339 421.062 102.562C421.651 101.781 422.448 101.391 423.453 101.391C424.594 101.391 425.464 101.841 426.062 102.742V98H426.992V110H426.117L426.078 108.875C425.479 109.729 424.599 110.156 423.438 110.156C422.464 110.156 421.677 109.766 421.078 108.984C420.484 108.198 420.188 107.138 420.188 105.805V105.695ZM421.133 105.859C421.133 106.938 421.349 107.789 421.781 108.414C422.214 109.034 422.823 109.344 423.609 109.344C424.76 109.344 425.578 108.836 426.062 107.82V103.852C425.578 102.753 424.766 102.203 423.625 102.203C422.839 102.203 422.227 102.513 421.789 103.133C421.352 103.747 421.133 104.656 421.133 105.859ZM441.969 104.93C441.969 105.977 441.786 106.896 441.422 107.688C441.062 108.479 440.547 109.089 439.875 109.516C439.203 109.943 438.427 110.156 437.547 110.156C436.219 110.156 435.146 109.682 434.328 108.734C433.51 107.781 433.102 106.497 433.102 104.883V103.711C433.102 102.674 433.284 101.758 433.648 100.961C434.018 100.159 434.539 99.5443 435.211 99.1172C435.883 98.6849 436.656 98.4688 437.531 98.4688C438.406 98.4688 439.177 98.6797 439.844 99.1016C440.516 99.5234 441.034 100.12 441.398 100.891C441.763 101.661 441.953 102.555 441.969 103.57V104.93ZM441.008 103.695C441.008 102.326 440.698 101.253 440.078 100.477C439.458 99.7005 438.609 99.3125 437.531 99.3125C436.474 99.3125 435.63 99.7031 435 100.484C434.375 101.26 434.062 102.346 434.062 103.742V104.93C434.062 106.279 434.375 107.349 435 108.141C435.625 108.927 436.474 109.32 437.547 109.32C438.635 109.32 439.484 108.932 440.094 108.156C440.703 107.375 441.008 106.289 441.008 104.898V103.695ZM449.609 108.93C449.047 109.747 448.148 110.156 446.914 110.156C446.013 110.156 445.328 109.896 444.859 109.375C444.391 108.849 444.151 108.073 444.141 107.047V101.547H445.07V106.93C445.07 108.539 445.721 109.344 447.023 109.344C448.378 109.344 449.234 108.784 449.594 107.664V101.547H450.531V110H449.625L449.609 108.93ZM454.422 99.3828V101.547H456.172V102.312H454.422V107.945C454.422 108.414 454.505 108.763 454.672 108.992C454.844 109.221 455.128 109.336 455.523 109.336C455.68 109.336 455.932 109.31 456.281 109.258L456.32 110.023C456.076 110.112 455.742 110.156 455.32 110.156C454.68 110.156 454.214 109.971 453.922 109.602C453.63 109.227 453.484 108.677 453.484 107.953V102.312H451.93V101.547H453.484V99.3828H454.422ZM470.648 110H469.68V104.547H463.18V110H462.219V98.625H463.18V103.734H469.68V98.625H470.648V110ZM474.375 110H473.438V101.547H474.375V110ZM473.273 99.1016C473.273 98.9245 473.331 98.776 473.445 98.6562C473.56 98.5312 473.716 98.4688 473.914 98.4688C474.112 98.4688 474.268 98.5312 474.383 98.6562C474.503 98.776 474.562 98.9245 474.562 99.1016C474.562 99.2786 474.503 99.4271 474.383 99.5469C474.268 99.6667 474.112 99.7266 473.914 99.7266C473.716 99.7266 473.56 99.6667 473.445 99.5469C473.331 99.4271 473.273 99.2786 473.273 99.1016ZM476.547 105.695C476.547 104.372 476.839 103.326 477.422 102.555C478.01 101.779 478.807 101.391 479.812 101.391C480.964 101.391 481.839 101.849 482.438 102.766L482.484 101.547H483.359V109.828C483.359 110.917 483.055 111.779 482.445 112.414C481.836 113.049 481.01 113.367 479.969 113.367C479.38 113.367 478.818 113.234 478.281 112.969C477.75 112.708 477.331 112.359 477.023 111.922L477.547 111.359C478.208 112.172 478.995 112.578 479.906 112.578C480.688 112.578 481.297 112.346 481.734 111.883C482.172 111.424 482.398 110.786 482.414 109.969V108.906C481.815 109.74 480.943 110.156 479.797 110.156C478.818 110.156 478.031 109.766 477.438 108.984C476.844 108.203 476.547 107.148 476.547 105.82V105.695ZM477.492 105.859C477.492 106.938 477.708 107.789 478.141 108.414C478.573 109.034 479.182 109.344 479.969 109.344C481.12 109.344 481.935 108.828 482.414 107.797V103.867C482.195 103.326 481.88 102.914 481.469 102.633C481.057 102.346 480.562 102.203 479.984 102.203C479.198 102.203 478.586 102.513 478.148 103.133C477.711 103.747 477.492 104.656 477.492 105.859ZM486.727 102.977C487.034 102.471 487.427 102.081 487.906 101.805C488.385 101.529 488.909 101.391 489.477 101.391C490.383 101.391 491.057 101.646 491.5 102.156C491.943 102.667 492.167 103.432 492.172 104.453V110H491.242V104.445C491.237 103.69 491.076 103.128 490.758 102.758C490.445 102.388 489.943 102.203 489.25 102.203C488.672 102.203 488.159 102.385 487.711 102.75C487.268 103.109 486.94 103.596 486.727 104.211V110H485.797V98H486.727V102.977ZM506.523 98.625V106.391C506.518 107.156 506.349 107.823 506.016 108.391C505.682 108.958 505.211 109.396 504.602 109.703C503.997 110.005 503.302 110.156 502.516 110.156C501.318 110.156 500.357 109.831 499.633 109.18C498.914 108.523 498.542 107.617 498.516 106.461V98.625H499.469V106.32C499.469 107.279 499.742 108.023 500.289 108.555C500.836 109.081 501.578 109.344 502.516 109.344C503.453 109.344 504.193 109.078 504.734 108.547C505.281 108.016 505.555 107.276 505.555 106.328V98.625H506.523ZM512.891 102.344C512.693 102.307 512.482 102.289 512.258 102.289C511.674 102.289 511.18 102.453 510.773 102.781C510.372 103.104 510.086 103.576 509.914 104.195V110H508.984V101.547H509.898L509.914 102.891C510.409 101.891 511.203 101.391 512.297 101.391C512.557 101.391 512.763 101.424 512.914 101.492L512.891 102.344ZM513.844 105.695C513.844 104.372 514.135 103.326 514.719 102.555C515.307 101.779 516.104 101.391 517.109 101.391C518.26 101.391 519.135 101.849 519.734 102.766L519.781 101.547H520.656V109.828C520.656 110.917 520.352 111.779 519.742 112.414C519.133 113.049 518.307 113.367 517.266 113.367C516.677 113.367 516.115 113.234 515.578 112.969C515.047 112.708 514.628 112.359 514.32 111.922L514.844 111.359C515.505 112.172 516.292 112.578 517.203 112.578C517.984 112.578 518.594 112.346 519.031 111.883C519.469 111.424 519.695 110.786 519.711 109.969V108.906C519.112 109.74 518.24 110.156 517.094 110.156C516.115 110.156 515.328 109.766 514.734 108.984C514.141 108.203 513.844 107.148 513.844 105.82V105.695ZM514.789 105.859C514.789 106.938 515.005 107.789 515.438 108.414C515.87 109.034 516.479 109.344 517.266 109.344C518.417 109.344 519.232 108.828 519.711 107.797V103.867C519.492 103.326 519.177 102.914 518.766 102.633C518.354 102.346 517.859 102.203 517.281 102.203C516.495 102.203 515.883 102.513 515.445 103.133C515.008 103.747 514.789 104.656 514.789 105.859ZM526.367 110.156C525.648 110.156 524.997 109.979 524.414 109.625C523.836 109.271 523.385 108.779 523.062 108.148C522.74 107.513 522.578 106.802 522.578 106.016V105.68C522.578 104.867 522.734 104.135 523.047 103.484C523.365 102.833 523.805 102.323 524.367 101.953C524.93 101.578 525.539 101.391 526.195 101.391C527.221 101.391 528.034 101.742 528.633 102.445C529.237 103.143 529.539 104.099 529.539 105.312V105.836H523.508V106.016C523.508 106.974 523.781 107.773 524.328 108.414C524.88 109.049 525.573 109.367 526.406 109.367C526.906 109.367 527.346 109.276 527.727 109.094C528.112 108.911 528.461 108.62 528.773 108.219L529.359 108.664C528.672 109.659 527.674 110.156 526.367 110.156ZM526.195 102.188C525.492 102.188 524.898 102.445 524.414 102.961C523.935 103.477 523.643 104.169 523.539 105.039H528.609V104.938C528.583 104.125 528.352 103.464 527.914 102.953C527.477 102.443 526.904 102.188 526.195 102.188ZM532.25 101.547L532.281 102.992C532.599 102.471 532.995 102.076 533.469 101.805C533.943 101.529 534.466 101.391 535.039 101.391C535.945 101.391 536.62 101.646 537.062 102.156C537.505 102.667 537.729 103.432 537.734 104.453V110H536.805V104.445C536.799 103.69 536.638 103.128 536.32 102.758C536.008 102.388 535.505 102.203 534.812 102.203C534.234 102.203 533.721 102.385 533.273 102.75C532.831 103.109 532.503 103.596 532.289 104.211V110H531.359V101.547H532.25ZM543.281 109.367C543.932 109.367 544.477 109.185 544.914 108.82C545.357 108.451 545.596 107.974 545.633 107.391H546.531C546.505 107.906 546.344 108.378 546.047 108.805C545.75 109.227 545.354 109.557 544.859 109.797C544.37 110.036 543.844 110.156 543.281 110.156C542.172 110.156 541.292 109.771 540.641 109C539.995 108.229 539.672 107.193 539.672 105.891V105.609C539.672 104.776 539.818 104.039 540.109 103.398C540.401 102.758 540.818 102.263 541.359 101.914C541.906 101.565 542.544 101.391 543.273 101.391C544.201 101.391 544.964 101.667 545.562 102.219C546.167 102.771 546.49 103.497 546.531 104.398H545.633C545.591 103.737 545.352 103.203 544.914 102.797C544.482 102.391 543.935 102.188 543.273 102.188C542.43 102.188 541.773 102.492 541.305 103.102C540.841 103.711 540.609 104.565 540.609 105.664V105.938C540.609 107.016 540.841 107.857 541.305 108.461C541.773 109.065 542.432 109.367 543.281 109.367ZM551.086 108.656L553.555 101.547H554.562L550.953 111.438L550.766 111.875C550.302 112.901 549.586 113.414 548.617 113.414C548.393 113.414 548.154 113.378 547.898 113.305L547.891 112.531L548.375 112.578C548.833 112.578 549.203 112.464 549.484 112.234C549.771 112.01 550.013 111.622 550.211 111.07L550.625 109.93L547.438 101.547H548.461L551.086 108.656ZM567.531 99.4453H563.633V110H562.672V99.4453H558.781V98.625H567.531V99.4453ZM573.602 110C573.508 109.734 573.448 109.341 573.422 108.82C573.094 109.247 572.674 109.578 572.164 109.812C571.659 110.042 571.122 110.156 570.555 110.156C569.742 110.156 569.083 109.93 568.578 109.477C568.078 109.023 567.828 108.451 567.828 107.758C567.828 106.935 568.169 106.284 568.852 105.805C569.539 105.326 570.495 105.086 571.719 105.086H573.414V104.125C573.414 103.521 573.227 103.047 572.852 102.703C572.482 102.354 571.94 102.18 571.227 102.18C570.576 102.18 570.036 102.346 569.609 102.68C569.182 103.013 568.969 103.414 568.969 103.883L568.031 103.875C568.031 103.203 568.344 102.622 568.969 102.133C569.594 101.638 570.362 101.391 571.273 101.391C572.216 101.391 572.958 101.628 573.5 102.102C574.047 102.57 574.328 103.227 574.344 104.07V108.07C574.344 108.888 574.43 109.5 574.602 109.906V110H573.602ZM570.664 109.328C571.289 109.328 571.846 109.177 572.336 108.875C572.831 108.573 573.19 108.169 573.414 107.664V105.805H571.742C570.81 105.815 570.081 105.987 569.555 106.32C569.029 106.648 568.766 107.102 568.766 107.68C568.766 108.154 568.94 108.547 569.289 108.859C569.643 109.172 570.102 109.328 570.664 109.328ZM581.906 107.852C581.906 107.388 581.719 107.016 581.344 106.734C580.974 106.453 580.414 106.234 579.664 106.078C578.914 105.917 578.331 105.734 577.914 105.531C577.503 105.323 577.195 105.07 576.992 104.773C576.794 104.477 576.695 104.117 576.695 103.695C576.695 103.029 576.974 102.479 577.531 102.047C578.089 101.609 578.802 101.391 579.672 101.391C580.615 101.391 581.37 101.625 581.938 102.094C582.51 102.557 582.797 103.164 582.797 103.914H581.859C581.859 103.419 581.651 103.008 581.234 102.68C580.823 102.352 580.302 102.188 579.672 102.188C579.057 102.188 578.562 102.326 578.188 102.602C577.818 102.872 577.633 103.227 577.633 103.664C577.633 104.086 577.786 104.414 578.094 104.648C578.406 104.878 578.971 105.089 579.789 105.281C580.612 105.474 581.227 105.68 581.633 105.898C582.044 106.117 582.349 106.38 582.547 106.688C582.745 106.995 582.844 107.367 582.844 107.805C582.844 108.518 582.555 109.089 581.977 109.516C581.404 109.943 580.654 110.156 579.727 110.156C578.742 110.156 577.943 109.919 577.328 109.445C576.719 108.966 576.414 108.362 576.414 107.633H577.352C577.388 108.18 577.617 108.607 578.039 108.914C578.466 109.216 579.029 109.367 579.727 109.367C580.378 109.367 580.904 109.224 581.305 108.938C581.706 108.651 581.906 108.289 581.906 107.852ZM586.961 105.742L585.891 106.773V110H584.953V98H585.891V105.68L586.773 104.727L590.008 101.547H591.188L587.602 105.109L591.5 110H590.383L586.961 105.742Z" fill="black"/>
<path d="M319.688 161.266H316.383V166H315.414V154.625H319.109C320.323 154.625 321.271 154.919 321.953 155.508C322.635 156.096 322.977 156.919 322.977 157.977C322.977 158.706 322.763 159.349 322.336 159.906C321.909 160.464 321.336 160.849 320.617 161.062L323.461 165.898V166H322.438L319.688 161.266ZM316.383 160.445H319.328C320.135 160.445 320.784 160.216 321.273 159.758C321.763 159.299 322.008 158.706 322.008 157.977C322.008 157.174 321.753 156.552 321.242 156.109C320.732 155.667 320.016 155.445 319.094 155.445H316.383V160.445ZM330.711 166C330.617 165.734 330.557 165.341 330.531 164.82C330.203 165.247 329.784 165.578 329.273 165.812C328.768 166.042 328.232 166.156 327.664 166.156C326.852 166.156 326.193 165.93 325.688 165.477C325.188 165.023 324.938 164.451 324.938 163.758C324.938 162.935 325.279 162.284 325.961 161.805C326.648 161.326 327.604 161.086 328.828 161.086H330.523V160.125C330.523 159.521 330.336 159.047 329.961 158.703C329.591 158.354 329.049 158.18 328.336 158.18C327.685 158.18 327.146 158.346 326.719 158.68C326.292 159.013 326.078 159.414 326.078 159.883L325.141 159.875C325.141 159.203 325.453 158.622 326.078 158.133C326.703 157.638 327.471 157.391 328.383 157.391C329.326 157.391 330.068 157.628 330.609 158.102C331.156 158.57 331.438 159.227 331.453 160.07V164.07C331.453 164.888 331.539 165.5 331.711 165.906V166H330.711ZM327.773 165.328C328.398 165.328 328.956 165.177 329.445 164.875C329.94 164.573 330.299 164.169 330.523 163.664V161.805H328.852C327.919 161.815 327.19 161.987 326.664 162.32C326.138 162.648 325.875 163.102 325.875 163.68C325.875 164.154 326.049 164.547 326.398 164.859C326.753 165.172 327.211 165.328 327.773 165.328ZM335.406 155.383V157.547H337.156V158.312H335.406V163.945C335.406 164.414 335.49 164.763 335.656 164.992C335.828 165.221 336.112 165.336 336.508 165.336C336.664 165.336 336.917 165.31 337.266 165.258L337.305 166.023C337.06 166.112 336.727 166.156 336.305 166.156C335.664 166.156 335.198 165.971 334.906 165.602C334.615 165.227 334.469 164.677 334.469 163.953V158.312H332.914V157.547H334.469V155.383H335.406ZM342.367 166.156C341.648 166.156 340.997 165.979 340.414 165.625C339.836 165.271 339.385 164.779 339.062 164.148C338.74 163.513 338.578 162.802 338.578 162.016V161.68C338.578 160.867 338.734 160.135 339.047 159.484C339.365 158.833 339.805 158.323 340.367 157.953C340.93 157.578 341.539 157.391 342.195 157.391C343.221 157.391 344.034 157.742 344.633 158.445C345.237 159.143 345.539 160.099 345.539 161.312V161.836H339.508V162.016C339.508 162.974 339.781 163.773 340.328 164.414C340.88 165.049 341.573 165.367 342.406 165.367C342.906 165.367 343.346 165.276 343.727 165.094C344.112 164.911 344.461 164.62 344.773 164.219L345.359 164.664C344.672 165.659 343.674 166.156 342.367 166.156ZM342.195 158.188C341.492 158.188 340.898 158.445 340.414 158.961C339.935 159.477 339.643 160.169 339.539 161.039H344.609V160.938C344.583 160.125 344.352 159.464 343.914 158.953C343.477 158.443 342.904 158.188 342.195 158.188ZM359.875 160.93C359.875 161.977 359.693 162.896 359.328 163.688C358.969 164.479 358.453 165.089 357.781 165.516C357.109 165.943 356.333 166.156 355.453 166.156C354.125 166.156 353.052 165.682 352.234 164.734C351.417 163.781 351.008 162.497 351.008 160.883V159.711C351.008 158.674 351.19 157.758 351.555 156.961C351.924 156.159 352.445 155.544 353.117 155.117C353.789 154.685 354.562 154.469 355.438 154.469C356.312 154.469 357.083 154.68 357.75 155.102C358.422 155.523 358.94 156.12 359.305 156.891C359.669 157.661 359.859 158.555 359.875 159.57V160.93ZM358.914 159.695C358.914 158.326 358.604 157.253 357.984 156.477C357.365 155.701 356.516 155.312 355.438 155.312C354.38 155.312 353.536 155.703 352.906 156.484C352.281 157.26 351.969 158.346 351.969 159.742V160.93C351.969 162.279 352.281 163.349 352.906 164.141C353.531 164.927 354.38 165.32 355.453 165.32C356.542 165.32 357.391 164.932 358 164.156C358.609 163.375 358.914 162.289 358.914 160.898V159.695ZM362.75 166V158.312H361.352V157.547H362.75V156.523C362.75 155.659 362.969 154.995 363.406 154.531C363.849 154.068 364.464 153.836 365.25 153.836C365.604 153.836 365.935 153.88 366.242 153.969L366.172 154.75C365.911 154.688 365.628 154.656 365.32 154.656C364.805 154.656 364.404 154.818 364.117 155.141C363.831 155.458 363.688 155.911 363.688 156.5V157.547H365.703V158.312H363.688V166H362.75ZM375.469 166H374.531V155.75L371.438 156.898V156.023L375.312 154.586H375.469V166ZM386.938 161.375H383.195V160.586H386.938V161.375ZM392.984 160.172L393.539 154.625H399.227V155.492H394.344L393.945 159.336C394.555 158.919 395.268 158.711 396.086 158.711C397.112 158.711 397.93 159.044 398.539 159.711C399.148 160.378 399.453 161.266 399.453 162.375C399.453 163.573 399.156 164.503 398.562 165.164C397.969 165.826 397.133 166.156 396.055 166.156C395.065 166.156 394.263 165.88 393.648 165.328C393.034 164.776 392.682 164.003 392.594 163.008H393.492C393.581 163.784 393.844 164.372 394.281 164.773C394.719 165.169 395.31 165.367 396.055 165.367C396.867 165.367 397.479 165.109 397.891 164.594C398.307 164.078 398.516 163.344 398.516 162.391C398.516 161.557 398.284 160.878 397.82 160.352C397.357 159.826 396.724 159.562 395.922 159.562C395.479 159.562 395.094 159.62 394.766 159.734C394.438 159.844 394.091 160.06 393.727 160.383L392.984 160.172Z" fill="black"/>
<path d="M669.078 14.1875L670.828 5.625H672.789L670.164 17H668.273L666.109 8.69531L663.898 17H662L659.375 5.625H661.336L663.102 14.1719L665.273 5.625H666.93L669.078 14.1875ZM676.07 17H674.172V8.54688H676.07V17ZM674.055 6.35156C674.055 6.0599 674.146 5.81771 674.328 5.625C674.516 5.43229 674.781 5.33594 675.125 5.33594C675.469 5.33594 675.734 5.43229 675.922 5.625C676.109 5.81771 676.203 6.0599 676.203 6.35156C676.203 6.63802 676.109 6.8776 675.922 7.07031C675.734 7.25781 675.469 7.35156 675.125 7.35156C674.781 7.35156 674.516 7.25781 674.328 7.07031C674.146 6.8776 674.055 6.63802 674.055 6.35156ZM680.523 6.49219V8.54688H682.016V9.95312H680.523V14.6719C680.523 14.9948 680.586 15.2292 680.711 15.375C680.841 15.5156 681.07 15.5859 681.398 15.5859C681.617 15.5859 681.839 15.5599 682.062 15.5078V16.9766C681.63 17.0964 681.214 17.1562 680.812 17.1562C679.354 17.1562 678.625 16.3516 678.625 14.7422V9.95312H677.234V8.54688H678.625V6.49219H680.523ZM685.344 9.46875C685.964 8.75 686.747 8.39062 687.695 8.39062C689.497 8.39062 690.411 9.41927 690.438 11.4766V17H688.539V11.5469C688.539 10.9635 688.411 10.5521 688.156 10.3125C687.906 10.0677 687.536 9.94531 687.047 9.94531C686.286 9.94531 685.719 10.2839 685.344 10.9609V17H683.445V5H685.344V9.46875ZM703.18 11.9219H698.508V15.4219H703.969V17H696.531V5.625H703.914V7.21875H698.508V10.3594H703.18V11.9219ZM708.43 11.3281L710.039 8.54688H712.148L709.562 12.7109L712.234 17H710.141L708.453 14.1094L706.773 17H704.664L707.336 12.7109L704.758 8.54688H706.852L708.43 11.3281ZM715.461 17H713.562V8.54688H715.461V17ZM713.445 6.35156C713.445 6.0599 713.536 5.81771 713.719 5.625C713.906 5.43229 714.172 5.33594 714.516 5.33594C714.859 5.33594 715.125 5.43229 715.312 5.625C715.5 5.81771 715.594 6.0599 715.594 6.35156C715.594 6.63802 715.5 6.8776 715.312 7.07031C715.125 7.25781 714.859 7.35156 714.516 7.35156C714.172 7.35156 713.906 7.25781 713.719 7.07031C713.536 6.8776 713.445 6.63802 713.445 6.35156ZM722.273 14.7031C722.273 14.3646 722.133 14.1068 721.852 13.9297C721.576 13.7526 721.115 13.5964 720.469 13.4609C719.823 13.3255 719.284 13.1536 718.852 12.9453C717.904 12.487 717.43 11.8229 717.43 10.9531C717.43 10.224 717.737 9.61458 718.352 9.125C718.966 8.63542 719.747 8.39062 720.695 8.39062C721.706 8.39062 722.521 8.64062 723.141 9.14062C723.766 9.64062 724.078 10.2891 724.078 11.0859H722.18C722.18 10.7214 722.044 10.4193 721.773 10.1797C721.503 9.9349 721.143 9.8125 720.695 9.8125C720.279 9.8125 719.938 9.90885 719.672 10.1016C719.411 10.2943 719.281 10.5521 719.281 10.875C719.281 11.1667 719.404 11.3932 719.648 11.5547C719.893 11.7161 720.388 11.8802 721.133 12.0469C721.878 12.2083 722.461 12.4036 722.883 12.6328C723.31 12.8568 723.625 13.1276 723.828 13.4453C724.036 13.763 724.141 14.1484 724.141 14.6016C724.141 15.362 723.826 15.9792 723.195 16.4531C722.565 16.9219 721.74 17.1562 720.719 17.1562C720.026 17.1562 719.409 17.0312 718.867 16.7812C718.326 16.5312 717.904 16.1875 717.602 15.75C717.299 15.3125 717.148 14.8411 717.148 14.3359H718.992C719.018 14.7839 719.188 15.1302 719.5 15.375C719.812 15.6146 720.227 15.7344 720.742 15.7344C721.242 15.7344 721.622 15.6406 721.883 15.4531C722.143 15.2604 722.273 15.0104 722.273 14.7031ZM728.18 6.49219V8.54688H729.672V9.95312H728.18V14.6719C728.18 14.9948 728.242 15.2292 728.367 15.375C728.497 15.5156 728.727 15.5859 729.055 15.5859C729.273 15.5859 729.495 15.5599 729.719 15.5078V16.9766C729.286 17.0964 728.87 17.1562 728.469 17.1562C727.01 17.1562 726.281 16.3516 726.281 14.7422V9.95312H724.891V8.54688H726.281V6.49219H728.18ZM733.148 17H731.25V8.54688H733.148V17ZM731.133 6.35156C731.133 6.0599 731.224 5.81771 731.406 5.625C731.594 5.43229 731.859 5.33594 732.203 5.33594C732.547 5.33594 732.812 5.43229 733 5.625C733.188 5.81771 733.281 6.0599 733.281 6.35156C733.281 6.63802 733.188 6.8776 733 7.07031C732.812 7.25781 732.547 7.35156 732.203 7.35156C731.859 7.35156 731.594 7.25781 731.406 7.07031C731.224 6.8776 731.133 6.63802 731.133 6.35156ZM736.984 8.54688L737.039 9.52344C737.664 8.76823 738.484 8.39062 739.5 8.39062C741.26 8.39062 742.156 9.39844 742.188 11.4141V17H740.289V11.5234C740.289 10.987 740.172 10.5911 739.938 10.3359C739.708 10.0755 739.331 9.94531 738.805 9.94531C738.039 9.94531 737.469 10.2917 737.094 10.9844V17H735.195V8.54688H736.984ZM743.797 12.7109C743.797 11.3984 744.104 10.3516 744.719 9.57031C745.339 8.78385 746.159 8.39062 747.18 8.39062C748.143 8.39062 748.901 8.72656 749.453 9.39844L749.539 8.54688H751.25V16.7422C751.25 17.8516 750.904 18.7266 750.211 19.3672C749.523 20.0078 748.594 20.3281 747.422 20.3281C746.802 20.3281 746.195 20.1979 745.602 19.9375C745.013 19.6823 744.565 19.3464 744.258 18.9297L745.156 17.7891C745.74 18.4818 746.458 18.8281 747.312 18.8281C747.943 18.8281 748.44 18.6562 748.805 18.3125C749.169 17.974 749.352 17.474 749.352 16.8125V16.2422C748.805 16.8516 748.076 17.1562 747.164 17.1562C746.174 17.1562 745.365 16.763 744.734 15.9766C744.109 15.1901 743.797 14.1016 743.797 12.7109ZM745.688 12.875C745.688 13.724 745.859 14.3932 746.203 14.8828C746.552 15.3672 747.034 15.6094 747.648 15.6094C748.414 15.6094 748.982 15.2812 749.352 14.625V10.9062C748.992 10.2656 748.43 9.94531 747.664 9.94531C747.039 9.94531 746.552 10.1927 746.203 10.6875C745.859 11.1823 745.688 11.9115 745.688 12.875ZM764.594 12.8594C764.594 14.1667 764.297 15.2109 763.703 15.9922C763.109 16.7682 762.312 17.1562 761.312 17.1562C760.385 17.1562 759.643 16.8516 759.086 16.2422V20.25H757.188V8.54688H758.938L759.016 9.40625C759.573 8.72917 760.331 8.39062 761.289 8.39062C762.32 8.39062 763.128 8.77604 763.711 9.54688C764.299 10.3125 764.594 11.3776 764.594 12.7422V12.8594ZM762.703 12.6953C762.703 11.8516 762.534 11.1823 762.195 10.6875C761.862 10.1927 761.383 9.94531 760.758 9.94531C759.982 9.94531 759.424 10.2656 759.086 10.9062V14.6562C759.43 15.3125 759.992 15.6406 760.773 15.6406C761.378 15.6406 761.849 15.3984 762.188 14.9141C762.531 14.4245 762.703 13.6849 762.703 12.6953ZM768.227 17H766.328V5H768.227V17ZM775.352 17C775.268 16.8385 775.195 16.5755 775.133 16.2109C774.529 16.8411 773.789 17.1562 772.914 17.1562C772.065 17.1562 771.372 16.9141 770.836 16.4297C770.299 15.9453 770.031 15.3464 770.031 14.6328C770.031 13.7318 770.365 13.0417 771.031 12.5625C771.703 12.0781 772.661 11.8359 773.906 11.8359H775.07V11.2812C775.07 10.8438 774.948 10.4948 774.703 10.2344C774.458 9.96875 774.086 9.83594 773.586 9.83594C773.154 9.83594 772.799 9.94531 772.523 10.1641C772.247 10.3776 772.109 10.651 772.109 10.9844H770.211C770.211 10.5208 770.365 10.0885 770.672 9.6875C770.979 9.28125 771.396 8.96354 771.922 8.73438C772.453 8.50521 773.044 8.39062 773.695 8.39062C774.685 8.39062 775.474 8.64062 776.062 9.14062C776.651 9.63542 776.953 10.3333 776.969 11.2344V15.0469C776.969 15.8073 777.076 16.4141 777.289 16.8672V17H775.352ZM773.266 15.6328C773.641 15.6328 773.992 15.5417 774.32 15.3594C774.654 15.1771 774.904 14.9323 775.07 14.625V13.0312H774.047C773.344 13.0312 772.815 13.1536 772.461 13.3984C772.107 13.6432 771.93 13.9896 771.93 14.4375C771.93 14.8021 772.049 15.0938 772.289 15.3125C772.534 15.526 772.859 15.6328 773.266 15.6328ZM781.336 6.49219V8.54688H782.828V9.95312H781.336V14.6719C781.336 14.9948 781.398 15.2292 781.523 15.375C781.654 15.5156 781.883 15.5859 782.211 15.5859C782.43 15.5859 782.651 15.5599 782.875 15.5078V16.9766C782.443 17.0964 782.026 17.1562 781.625 17.1562C780.167 17.1562 779.438 16.3516 779.438 14.7422V9.95312H778.047V8.54688H779.438V6.49219H781.336ZM784.953 17V9.95312H783.664V8.54688H784.953V7.77344C784.953 6.83594 785.214 6.11198 785.734 5.60156C786.255 5.09115 786.984 4.83594 787.922 4.83594C788.255 4.83594 788.609 4.88281 788.984 4.97656L788.938 6.46094C788.729 6.41927 788.487 6.39844 788.211 6.39844C787.305 6.39844 786.852 6.86458 786.852 7.79688V8.54688H788.57V9.95312H786.852V17H784.953ZM789.602 12.6953C789.602 11.8672 789.766 11.1224 790.094 10.4609C790.422 9.79427 790.883 9.28385 791.477 8.92969C792.07 8.57031 792.753 8.39062 793.523 8.39062C794.664 8.39062 795.589 8.75781 796.297 9.49219C797.01 10.2266 797.396 11.2005 797.453 12.4141L797.461 12.8594C797.461 13.6927 797.299 14.4375 796.977 15.0938C796.659 15.75 796.201 16.2578 795.602 16.6172C795.008 16.9766 794.32 17.1562 793.539 17.1562C792.346 17.1562 791.391 16.7604 790.672 15.9688C789.958 15.1719 789.602 14.112 789.602 12.7891V12.6953ZM791.5 12.8594C791.5 13.7292 791.68 14.4115 792.039 14.9062C792.398 15.3958 792.898 15.6406 793.539 15.6406C794.18 15.6406 794.677 15.3906 795.031 14.8906C795.391 14.3906 795.57 13.6589 795.57 12.6953C795.57 11.8411 795.385 11.1641 795.016 10.6641C794.651 10.1641 794.154 9.91406 793.523 9.91406C792.904 9.91406 792.411 10.1615 792.047 10.6562C791.682 11.1458 791.5 11.8802 791.5 12.8594ZM803.492 10.2812C803.242 10.2396 802.984 10.2188 802.719 10.2188C801.849 10.2188 801.263 10.5521 800.961 11.2188V17H799.062V8.54688H800.875L800.922 9.49219C801.38 8.75781 802.016 8.39062 802.828 8.39062C803.099 8.39062 803.323 8.42708 803.5 8.5L803.492 10.2812ZM806.477 8.54688L806.531 9.42969C807.125 8.73698 807.938 8.39062 808.969 8.39062C810.099 8.39062 810.872 8.82292 811.289 9.6875C811.904 8.82292 812.768 8.39062 813.883 8.39062C814.815 8.39062 815.508 8.64844 815.961 9.16406C816.419 9.67969 816.654 10.4401 816.664 11.4453V17H814.766V11.5C814.766 10.9635 814.648 10.5703 814.414 10.3203C814.18 10.0703 813.792 9.94531 813.25 9.94531C812.818 9.94531 812.464 10.0625 812.188 10.2969C811.917 10.526 811.727 10.8281 811.617 11.2031L811.625 17H809.727V11.4375C809.701 10.4427 809.193 9.94531 808.203 9.94531C807.443 9.94531 806.904 10.2552 806.586 10.875V17H804.688V8.54688H806.477ZM823.352 14.7031C823.352 14.3646 823.211 14.1068 822.93 13.9297C822.654 13.7526 822.193 13.5964 821.547 13.4609C820.901 13.3255 820.362 13.1536 819.93 12.9453C818.982 12.487 818.508 11.8229 818.508 10.9531C818.508 10.224 818.815 9.61458 819.43 9.125C820.044 8.63542 820.826 8.39062 821.773 8.39062C822.784 8.39062 823.599 8.64062 824.219 9.14062C824.844 9.64062 825.156 10.2891 825.156 11.0859H823.258C823.258 10.7214 823.122 10.4193 822.852 10.1797C822.581 9.9349 822.221 9.8125 821.773 9.8125C821.357 9.8125 821.016 9.90885 820.75 10.1016C820.49 10.2943 820.359 10.5521 820.359 10.875C820.359 11.1667 820.482 11.3932 820.727 11.5547C820.971 11.7161 821.466 11.8802 822.211 12.0469C822.956 12.2083 823.539 12.4036 823.961 12.6328C824.388 12.8568 824.703 13.1276 824.906 13.4453C825.115 13.763 825.219 14.1484 825.219 14.6016C825.219 15.362 824.904 15.9792 824.273 16.4531C823.643 16.9219 822.818 17.1562 821.797 17.1562C821.104 17.1562 820.487 17.0312 819.945 16.7812C819.404 16.5312 818.982 16.1875 818.68 15.75C818.378 15.3125 818.227 14.8411 818.227 14.3359H820.07C820.096 14.7839 820.266 15.1302 820.578 15.375C820.891 15.6146 821.305 15.7344 821.82 15.7344C822.32 15.7344 822.701 15.6406 822.961 15.4531C823.221 15.2604 823.352 15.0104 823.352 14.7031ZM827.148 19.5625L826.125 18.9531C826.427 18.4792 826.633 18.0651 826.742 17.7109C826.857 17.362 826.917 17.0052 826.922 16.6406V15.1641H828.633L828.625 16.5312C828.62 17.0833 828.479 17.6354 828.203 18.1875C827.932 18.7448 827.581 19.2031 827.148 19.5625ZM841.781 12.8594C841.781 14.1667 841.484 15.2109 840.891 15.9922C840.297 16.7682 839.5 17.1562 838.5 17.1562C837.573 17.1562 836.831 16.8516 836.273 16.2422V20.25H834.375V8.54688H836.125L836.203 9.40625C836.76 8.72917 837.518 8.39062 838.477 8.39062C839.508 8.39062 840.315 8.77604 840.898 9.54688C841.487 10.3125 841.781 11.3776 841.781 12.7422V12.8594ZM839.891 12.6953C839.891 11.8516 839.721 11.1823 839.383 10.6875C839.049 10.1927 838.57 9.94531 837.945 9.94531C837.169 9.94531 836.612 10.2656 836.273 10.9062V14.6562C836.617 15.3125 837.18 15.6406 837.961 15.6406C838.565 15.6406 839.036 15.3984 839.375 14.9141C839.719 14.4245 839.891 13.6849 839.891 12.6953ZM845.414 17H843.516V5H845.414V17ZM852.609 16.1719C852.052 16.8281 851.26 17.1562 850.234 17.1562C849.318 17.1562 848.622 16.888 848.148 16.3516C847.68 15.8151 847.445 15.0391 847.445 14.0234V8.54688H849.344V14C849.344 15.0729 849.789 15.6094 850.68 15.6094C851.602 15.6094 852.224 15.2786 852.547 14.6172V8.54688H854.445V17H852.656L852.609 16.1719ZM861.117 14.7031C861.117 14.3646 860.977 14.1068 860.695 13.9297C860.419 13.7526 859.958 13.5964 859.312 13.4609C858.667 13.3255 858.128 13.1536 857.695 12.9453C856.747 12.487 856.273 11.8229 856.273 10.9531C856.273 10.224 856.581 9.61458 857.195 9.125C857.81 8.63542 858.591 8.39062 859.539 8.39062C860.549 8.39062 861.365 8.64062 861.984 9.14062C862.609 9.64062 862.922 10.2891 862.922 11.0859H861.023C861.023 10.7214 860.888 10.4193 860.617 10.1797C860.346 9.9349 859.987 9.8125 859.539 9.8125C859.122 9.8125 858.781 9.90885 858.516 10.1016C858.255 10.2943 858.125 10.5521 858.125 10.875C858.125 11.1667 858.247 11.3932 858.492 11.5547C858.737 11.7161 859.232 11.8802 859.977 12.0469C860.721 12.2083 861.305 12.4036 861.727 12.6328C862.154 12.8568 862.469 13.1276 862.672 13.4453C862.88 13.763 862.984 14.1484 862.984 14.6016C862.984 15.362 862.669 15.9792 862.039 16.4531C861.409 16.9219 860.583 17.1562 859.562 17.1562C858.87 17.1562 858.253 17.0312 857.711 16.7812C857.169 16.5312 856.747 16.1875 856.445 15.75C856.143 15.3125 855.992 14.8411 855.992 14.3359H857.836C857.862 14.7839 858.031 15.1302 858.344 15.375C858.656 15.6146 859.07 15.7344 859.586 15.7344C860.086 15.7344 860.466 15.6406 860.727 15.4531C860.987 15.2604 861.117 15.0104 861.117 14.7031ZM663.695 41.1562C662.492 41.1562 661.516 40.7786 660.766 40.0234C660.021 39.263 659.648 38.2526 659.648 36.9922V36.7578C659.648 35.9141 659.81 35.1615 660.133 34.5C660.461 33.8333 660.919 33.3151 661.508 32.9453C662.096 32.5755 662.753 32.3906 663.477 32.3906C664.628 32.3906 665.516 32.7578 666.141 33.4922C666.771 34.2266 667.086 35.2656 667.086 36.6094V37.375H661.562C661.62 38.0729 661.852 38.625 662.258 39.0312C662.669 39.4375 663.185 39.6406 663.805 39.6406C664.674 39.6406 665.383 39.2891 665.93 38.5859L666.953 39.5625C666.615 40.0677 666.161 40.4609 665.594 40.7422C665.031 41.0182 664.398 41.1562 663.695 41.1562ZM663.469 33.9141C662.948 33.9141 662.526 34.0964 662.203 34.4609C661.885 34.8255 661.682 35.3333 661.594 35.9844H665.211V35.8438C665.169 35.2083 665 34.7292 664.703 34.4062C664.406 34.0781 663.995 33.9141 663.469 33.9141ZM670.352 32.5469L670.406 33.4297C671 32.737 671.812 32.3906 672.844 32.3906C673.974 32.3906 674.747 32.8229 675.164 33.6875C675.779 32.8229 676.643 32.3906 677.758 32.3906C678.69 32.3906 679.383 32.6484 679.836 33.1641C680.294 33.6797 680.529 34.4401 680.539 35.4453V41H678.641V35.5C678.641 34.9635 678.523 34.5703 678.289 34.3203C678.055 34.0703 677.667 33.9453 677.125 33.9453C676.693 33.9453 676.339 34.0625 676.062 34.2969C675.792 34.526 675.602 34.8281 675.492 35.2031L675.5 41H673.602V35.4375C673.576 34.4427 673.068 33.9453 672.078 33.9453C671.318 33.9453 670.779 34.2552 670.461 34.875V41H668.562V32.5469H670.352ZM687.539 41C687.456 40.8385 687.383 40.5755 687.32 40.2109C686.716 40.8411 685.977 41.1562 685.102 41.1562C684.253 41.1562 683.56 40.9141 683.023 40.4297C682.487 39.9453 682.219 39.3464 682.219 38.6328C682.219 37.7318 682.552 37.0417 683.219 36.5625C683.891 36.0781 684.849 35.8359 686.094 35.8359H687.258V35.2812C687.258 34.8438 687.135 34.4948 686.891 34.2344C686.646 33.9688 686.273 33.8359 685.773 33.8359C685.341 33.8359 684.987 33.9453 684.711 34.1641C684.435 34.3776 684.297 34.651 684.297 34.9844H682.398C682.398 34.5208 682.552 34.0885 682.859 33.6875C683.167 33.2812 683.583 32.9635 684.109 32.7344C684.641 32.5052 685.232 32.3906 685.883 32.3906C686.872 32.3906 687.661 32.6406 688.25 33.1406C688.839 33.6354 689.141 34.3333 689.156 35.2344V39.0469C689.156 39.8073 689.263 40.4141 689.477 40.8672V41H687.539ZM685.453 39.6328C685.828 39.6328 686.18 39.5417 686.508 39.3594C686.841 39.1771 687.091 38.9323 687.258 38.625V37.0312H686.234C685.531 37.0312 685.003 37.1536 684.648 37.3984C684.294 37.6432 684.117 37.9896 684.117 38.4375C684.117 38.8021 684.237 39.0938 684.477 39.3125C684.721 39.526 685.047 39.6328 685.453 39.6328ZM693.164 41H691.266V32.5469H693.164V41ZM691.148 30.3516C691.148 30.0599 691.24 29.8177 691.422 29.625C691.609 29.4323 691.875 29.3359 692.219 29.3359C692.562 29.3359 692.828 29.4323 693.016 29.625C693.203 29.8177 693.297 30.0599 693.297 30.3516C693.297 30.638 693.203 30.8776 693.016 31.0703C692.828 31.2578 692.562 31.3516 692.219 31.3516C691.875 31.3516 691.609 31.2578 691.422 31.0703C691.24 30.8776 691.148 30.638 691.148 30.3516ZM697.258 41H695.359V29H697.258V41ZM704.07 38.7031C704.07 38.3646 703.93 38.1068 703.648 37.9297C703.372 37.7526 702.911 37.5964 702.266 37.4609C701.62 37.3255 701.081 37.1536 700.648 36.9453C699.701 36.487 699.227 35.8229 699.227 34.9531C699.227 34.224 699.534 33.6146 700.148 33.125C700.763 32.6354 701.544 32.3906 702.492 32.3906C703.503 32.3906 704.318 32.6406 704.938 33.1406C705.562 33.6406 705.875 34.2891 705.875 35.0859H703.977C703.977 34.7214 703.841 34.4193 703.57 34.1797C703.299 33.9349 702.94 33.8125 702.492 33.8125C702.076 33.8125 701.734 33.9089 701.469 34.1016C701.208 34.2943 701.078 34.5521 701.078 34.875C701.078 35.1667 701.201 35.3932 701.445 35.5547C701.69 35.7161 702.185 35.8802 702.93 36.0469C703.674 36.2083 704.258 36.4036 704.68 36.6328C705.107 36.8568 705.422 37.1276 705.625 37.4453C705.833 37.763 705.938 38.1484 705.938 38.6016C705.938 39.362 705.622 39.9792 704.992 40.4531C704.362 40.9219 703.536 41.1562 702.516 41.1562C701.823 41.1562 701.206 41.0312 700.664 40.7812C700.122 40.5312 699.701 40.1875 699.398 39.75C699.096 39.3125 698.945 38.8411 698.945 38.3359H700.789C700.815 38.7839 700.984 39.1302 701.297 39.375C701.609 39.6146 702.023 39.7344 702.539 39.7344C703.039 39.7344 703.419 39.6406 703.68 39.4531C703.94 39.2604 704.07 39.0104 704.07 38.7031ZM707.867 43.5625L706.844 42.9531C707.146 42.4792 707.352 42.0651 707.461 41.7109C707.576 41.362 707.635 41.0052 707.641 40.6406V39.1641H709.352L709.344 40.5312C709.339 41.0833 709.198 41.6354 708.922 42.1875C708.651 42.7448 708.299 43.2031 707.867 43.5625ZM722.5 36.8594C722.5 38.1667 722.203 39.2109 721.609 39.9922C721.016 40.7682 720.219 41.1562 719.219 41.1562C718.292 41.1562 717.549 40.8516 716.992 40.2422V44.25H715.094V32.5469H716.844L716.922 33.4062C717.479 32.7292 718.237 32.3906 719.195 32.3906C720.227 32.3906 721.034 32.776 721.617 33.5469C722.206 34.3125 722.5 35.3776 722.5 36.7422V36.8594ZM720.609 36.6953C720.609 35.8516 720.44 35.1823 720.102 34.6875C719.768 34.1927 719.289 33.9453 718.664 33.9453C717.888 33.9453 717.331 34.2656 716.992 34.9062V38.6562C717.336 39.3125 717.898 39.6406 718.68 39.6406C719.284 39.6406 719.755 39.3984 720.094 38.9141C720.438 38.4245 720.609 37.6849 720.609 36.6953ZM725.984 33.4688C726.604 32.75 727.388 32.3906 728.336 32.3906C730.138 32.3906 731.052 33.4193 731.078 35.4766V41H729.18V35.5469C729.18 34.9635 729.052 34.5521 728.797 34.3125C728.547 34.0677 728.177 33.9453 727.688 33.9453C726.927 33.9453 726.359 34.2839 725.984 34.9609V41H724.086V29H725.984V33.4688ZM732.648 36.6953C732.648 35.8672 732.812 35.1224 733.141 34.4609C733.469 33.7943 733.93 33.2839 734.523 32.9297C735.117 32.5703 735.799 32.3906 736.57 32.3906C737.711 32.3906 738.635 32.7578 739.344 33.4922C740.057 34.2266 740.443 35.2005 740.5 36.4141L740.508 36.8594C740.508 37.6927 740.346 38.4375 740.023 39.0938C739.706 39.75 739.247 40.2578 738.648 40.6172C738.055 40.9766 737.367 41.1562 736.586 41.1562C735.393 41.1562 734.438 40.7604 733.719 39.9688C733.005 39.1719 732.648 38.112 732.648 36.7891V36.6953ZM734.547 36.8594C734.547 37.7292 734.727 38.4115 735.086 38.9062C735.445 39.3958 735.945 39.6406 736.586 39.6406C737.227 39.6406 737.724 39.3906 738.078 38.8906C738.438 38.3906 738.617 37.6589 738.617 36.6953C738.617 35.8411 738.432 35.1641 738.062 34.6641C737.698 34.1641 737.201 33.9141 736.57 33.9141C735.951 33.9141 735.458 34.1615 735.094 34.6562C734.729 35.1458 734.547 35.8802 734.547 36.8594ZM743.875 32.5469L743.93 33.5234C744.555 32.7682 745.375 32.3906 746.391 32.3906C748.151 32.3906 749.047 33.3984 749.078 35.4141V41H747.18V35.5234C747.18 34.987 747.062 34.5911 746.828 34.3359C746.599 34.0755 746.221 33.9453 745.695 33.9453C744.93 33.9453 744.359 34.2917 743.984 34.9844V41H742.086V32.5469H743.875ZM754.742 41.1562C753.539 41.1562 752.562 40.7786 751.812 40.0234C751.068 39.263 750.695 38.2526 750.695 36.9922V36.7578C750.695 35.9141 750.857 35.1615 751.18 34.5C751.508 33.8333 751.966 33.3151 752.555 32.9453C753.143 32.5755 753.799 32.3906 754.523 32.3906C755.674 32.3906 756.562 32.7578 757.188 33.4922C757.818 34.2266 758.133 35.2656 758.133 36.6094V37.375H752.609C752.667 38.0729 752.898 38.625 753.305 39.0312C753.716 39.4375 754.232 39.6406 754.852 39.6406C755.721 39.6406 756.43 39.2891 756.977 38.5859L758 39.5625C757.661 40.0677 757.208 40.4609 756.641 40.7422C756.078 41.0182 755.445 41.1562 754.742 41.1562ZM754.516 33.9141C753.995 33.9141 753.573 34.0964 753.25 34.4609C752.932 34.8255 752.729 35.3333 752.641 35.9844H756.258V35.8438C756.216 35.2083 756.047 34.7292 755.75 34.4062C755.453 34.0781 755.042 33.9141 754.516 33.9141ZM767.07 39.6406C767.544 39.6406 767.938 39.5026 768.25 39.2266C768.562 38.9505 768.729 38.6094 768.75 38.2031H770.539C770.518 38.7292 770.354 39.2214 770.047 39.6797C769.74 40.1328 769.323 40.4922 768.797 40.7578C768.271 41.0234 767.703 41.1562 767.094 41.1562C765.911 41.1562 764.974 40.7734 764.281 40.0078C763.589 39.2422 763.242 38.1849 763.242 36.8359V36.6406C763.242 35.3542 763.586 34.3255 764.273 33.5547C764.961 32.7786 765.898 32.3906 767.086 32.3906C768.091 32.3906 768.909 32.6849 769.539 33.2734C770.174 33.8568 770.508 34.625 770.539 35.5781H768.75C768.729 35.0938 768.562 34.6953 768.25 34.3828C767.943 34.0703 767.549 33.9141 767.07 33.9141C766.456 33.9141 765.982 34.138 765.648 34.5859C765.315 35.0286 765.146 35.7031 765.141 36.6094V36.9141C765.141 37.8307 765.305 38.5156 765.633 38.9688C765.966 39.4167 766.445 39.6406 767.07 39.6406ZM777.023 41C776.94 40.8385 776.867 40.5755 776.805 40.2109C776.201 40.8411 775.461 41.1562 774.586 41.1562C773.737 41.1562 773.044 40.9141 772.508 40.4297C771.971 39.9453 771.703 39.3464 771.703 38.6328C771.703 37.7318 772.036 37.0417 772.703 36.5625C773.375 36.0781 774.333 35.8359 775.578 35.8359H776.742V35.2812C776.742 34.8438 776.62 34.4948 776.375 34.2344C776.13 33.9688 775.758 33.8359 775.258 33.8359C774.826 33.8359 774.471 33.9453 774.195 34.1641C773.919 34.3776 773.781 34.651 773.781 34.9844H771.883C771.883 34.5208 772.036 34.0885 772.344 33.6875C772.651 33.2812 773.068 32.9635 773.594 32.7344C774.125 32.5052 774.716 32.3906 775.367 32.3906C776.357 32.3906 777.146 32.6406 777.734 33.1406C778.323 33.6354 778.625 34.3333 778.641 35.2344V39.0469C778.641 39.8073 778.747 40.4141 778.961 40.8672V41H777.023ZM774.938 39.6328C775.312 39.6328 775.664 39.5417 775.992 39.3594C776.326 39.1771 776.576 38.9323 776.742 38.625V37.0312H775.719C775.016 37.0312 774.487 37.1536 774.133 37.3984C773.779 37.6432 773.602 37.9896 773.602 38.4375C773.602 38.8021 773.721 39.0938 773.961 39.3125C774.206 39.526 774.531 39.6328 774.938 39.6328ZM782.648 41H780.75V29H782.648V41ZM786.742 41H784.844V29H786.742V41ZM793.555 38.7031C793.555 38.3646 793.414 38.1068 793.133 37.9297C792.857 37.7526 792.396 37.5964 791.75 37.4609C791.104 37.3255 790.565 37.1536 790.133 36.9453C789.185 36.487 788.711 35.8229 788.711 34.9531C788.711 34.224 789.018 33.6146 789.633 33.125C790.247 32.6354 791.029 32.3906 791.977 32.3906C792.987 32.3906 793.802 32.6406 794.422 33.1406C795.047 33.6406 795.359 34.2891 795.359 35.0859H793.461C793.461 34.7214 793.326 34.4193 793.055 34.1797C792.784 33.9349 792.424 33.8125 791.977 33.8125C791.56 33.8125 791.219 33.9089 790.953 34.1016C790.693 34.2943 790.562 34.5521 790.562 34.875C790.562 35.1667 790.685 35.3932 790.93 35.5547C791.174 35.7161 791.669 35.8802 792.414 36.0469C793.159 36.2083 793.742 36.4036 794.164 36.6328C794.591 36.8568 794.906 37.1276 795.109 37.4453C795.318 37.763 795.422 38.1484 795.422 38.6016C795.422 39.362 795.107 39.9792 794.477 40.4531C793.846 40.9219 793.021 41.1562 792 41.1562C791.307 41.1562 790.69 41.0312 790.148 40.7812C789.607 40.5312 789.185 40.1875 788.883 39.75C788.581 39.3125 788.43 38.8411 788.43 38.3359H790.273C790.299 38.7839 790.469 39.1302 790.781 39.375C791.094 39.6146 791.508 39.7344 792.023 39.7344C792.523 39.7344 792.904 39.6406 793.164 39.4531C793.424 39.2604 793.555 39.0104 793.555 38.7031ZM797.352 43.5625L796.328 42.9531C796.63 42.4792 796.836 42.0651 796.945 41.7109C797.06 41.362 797.12 41.0052 797.125 40.6406V39.1641H798.836L798.828 40.5312C798.823 41.0833 798.682 41.6354 798.406 42.1875C798.135 42.7448 797.784 43.2031 797.352 43.5625ZM806.367 32.5469L806.422 33.4297C807.016 32.737 807.828 32.3906 808.859 32.3906C809.99 32.3906 810.763 32.8229 811.18 33.6875C811.794 32.8229 812.659 32.3906 813.773 32.3906C814.706 32.3906 815.398 32.6484 815.852 33.1641C816.31 33.6797 816.544 34.4401 816.555 35.4453V41H814.656V35.5C814.656 34.9635 814.539 34.5703 814.305 34.3203C814.07 34.0703 813.682 33.9453 813.141 33.9453C812.708 33.9453 812.354 34.0625 812.078 34.2969C811.807 34.526 811.617 34.8281 811.508 35.2031L811.516 41H809.617V35.4375C809.591 34.4427 809.083 33.9453 808.094 33.9453C807.333 33.9453 806.794 34.2552 806.477 34.875V41H804.578V32.5469H806.367ZM822.227 41.1562C821.023 41.1562 820.047 40.7786 819.297 40.0234C818.552 39.263 818.18 38.2526 818.18 36.9922V36.7578C818.18 35.9141 818.341 35.1615 818.664 34.5C818.992 33.8333 819.451 33.3151 820.039 32.9453C820.628 32.5755 821.284 32.3906 822.008 32.3906C823.159 32.3906 824.047 32.7578 824.672 33.4922C825.302 34.2266 825.617 35.2656 825.617 36.6094V37.375H820.094C820.151 38.0729 820.383 38.625 820.789 39.0312C821.201 39.4375 821.716 39.6406 822.336 39.6406C823.206 39.6406 823.914 39.2891 824.461 38.5859L825.484 39.5625C825.146 40.0677 824.693 40.4609 824.125 40.7422C823.562 41.0182 822.93 41.1562 822.227 41.1562ZM822 33.9141C821.479 33.9141 821.057 34.0964 820.734 34.4609C820.417 34.8255 820.214 35.3333 820.125 35.9844H823.742V35.8438C823.701 35.2083 823.531 34.7292 823.234 34.4062C822.938 34.0781 822.526 33.9141 822 33.9141ZM830.82 41.1562C829.617 41.1562 828.641 40.7786 827.891 40.0234C827.146 39.263 826.773 38.2526 826.773 36.9922V36.7578C826.773 35.9141 826.935 35.1615 827.258 34.5C827.586 33.8333 828.044 33.3151 828.633 32.9453C829.221 32.5755 829.878 32.3906 830.602 32.3906C831.753 32.3906 832.641 32.7578 833.266 33.4922C833.896 34.2266 834.211 35.2656 834.211 36.6094V37.375H828.688C828.745 38.0729 828.977 38.625 829.383 39.0312C829.794 39.4375 830.31 39.6406 830.93 39.6406C831.799 39.6406 832.508 39.2891 833.055 38.5859L834.078 39.5625C833.74 40.0677 833.286 40.4609 832.719 40.7422C832.156 41.0182 831.523 41.1562 830.82 41.1562ZM830.594 33.9141C830.073 33.9141 829.651 34.0964 829.328 34.4609C829.01 34.8255 828.807 35.3333 828.719 35.9844H832.336V35.8438C832.294 35.2083 832.125 34.7292 831.828 34.4062C831.531 34.0781 831.12 33.9141 830.594 33.9141ZM838.07 30.4922V32.5469H839.562V33.9531H838.07V38.6719C838.07 38.9948 838.133 39.2292 838.258 39.375C838.388 39.5156 838.617 39.5859 838.945 39.5859C839.164 39.5859 839.385 39.5599 839.609 39.5078V40.9766C839.177 41.0964 838.76 41.1562 838.359 41.1562C836.901 41.1562 836.172 40.3516 836.172 38.7422V33.9531H834.781V32.5469H836.172V30.4922H838.07ZM843.039 41H841.141V32.5469H843.039V41ZM841.023 30.3516C841.023 30.0599 841.115 29.8177 841.297 29.625C841.484 29.4323 841.75 29.3359 842.094 29.3359C842.438 29.3359 842.703 29.4323 842.891 29.625C843.078 29.8177 843.172 30.0599 843.172 30.3516C843.172 30.638 843.078 30.8776 842.891 31.0703C842.703 31.2578 842.438 31.3516 842.094 31.3516C841.75 31.3516 841.484 31.2578 841.297 31.0703C841.115 30.8776 841.023 30.638 841.023 30.3516ZM846.875 32.5469L846.93 33.5234C847.555 32.7682 848.375 32.3906 849.391 32.3906C851.151 32.3906 852.047 33.3984 852.078 35.4141V41H850.18V35.5234C850.18 34.987 850.062 34.5911 849.828 34.3359C849.599 34.0755 849.221 33.9453 848.695 33.9453C847.93 33.9453 847.359 34.2917 846.984 34.9844V41H845.086V32.5469H846.875ZM853.688 36.7109C853.688 35.3984 853.995 34.3516 854.609 33.5703C855.229 32.7839 856.049 32.3906 857.07 32.3906C858.034 32.3906 858.792 32.7266 859.344 33.3984L859.43 32.5469H861.141V40.7422C861.141 41.8516 860.794 42.7266 860.102 43.3672C859.414 44.0078 858.484 44.3281 857.312 44.3281C856.693 44.3281 856.086 44.1979 855.492 43.9375C854.904 43.6823 854.456 43.3464 854.148 42.9297L855.047 41.7891C855.63 42.4818 856.349 42.8281 857.203 42.8281C857.833 42.8281 858.331 42.6562 858.695 42.3125C859.06 41.974 859.242 41.474 859.242 40.8125V40.2422C858.695 40.8516 857.966 41.1562 857.055 41.1562C856.065 41.1562 855.255 40.763 854.625 39.9766C854 39.1901 853.688 38.1016 853.688 36.7109ZM855.578 36.875C855.578 37.724 855.75 38.3932 856.094 38.8828C856.443 39.3672 856.924 39.6094 857.539 39.6094C858.305 39.6094 858.872 39.2812 859.242 38.625V34.9062C858.883 34.2656 858.32 33.9453 857.555 33.9453C856.93 33.9453 856.443 34.1927 856.094 34.6875C855.75 35.1823 855.578 35.9115 855.578 36.875ZM867.836 38.7031C867.836 38.3646 867.695 38.1068 867.414 37.9297C867.138 37.7526 866.677 37.5964 866.031 37.4609C865.385 37.3255 864.846 37.1536 864.414 36.9453C863.466 36.487 862.992 35.8229 862.992 34.9531C862.992 34.224 863.299 33.6146 863.914 33.125C864.529 32.6354 865.31 32.3906 866.258 32.3906C867.268 32.3906 868.083 32.6406 868.703 33.1406C869.328 33.6406 869.641 34.2891 869.641 35.0859H867.742C867.742 34.7214 867.607 34.4193 867.336 34.1797C867.065 33.9349 866.706 33.8125 866.258 33.8125C865.841 33.8125 865.5 33.9089 865.234 34.1016C864.974 34.2943 864.844 34.5521 864.844 34.875C864.844 35.1667 864.966 35.3932 865.211 35.5547C865.456 35.7161 865.951 35.8802 866.695 36.0469C867.44 36.2083 868.023 36.4036 868.445 36.6328C868.872 36.8568 869.188 37.1276 869.391 37.4453C869.599 37.763 869.703 38.1484 869.703 38.6016C869.703 39.362 869.388 39.9792 868.758 40.4531C868.128 40.9219 867.302 41.1562 866.281 41.1562C865.589 41.1562 864.971 41.0312 864.43 40.7812C863.888 40.5312 863.466 40.1875 863.164 39.75C862.862 39.3125 862.711 38.8411 862.711 38.3359H864.555C864.581 38.7839 864.75 39.1302 865.062 39.375C865.375 39.6146 865.789 39.7344 866.305 39.7344C866.805 39.7344 867.185 39.6406 867.445 39.4531C867.706 39.2604 867.836 39.0104 867.836 38.7031Z" fill="black"/>
<path d="M0 60H1126" stroke="#3447D3"/>
<path d="M10.0781 105.188L11.8281 96.625H13.7891L11.1641 108H9.27344L7.10938 99.6953L4.89844 108H3L0.375 96.625H2.33594L4.10156 105.172L6.27344 96.625H7.92969L10.0781 105.188ZM24.3125 102.609C24.3125 103.724 24.1198 104.703 23.7344 105.547C23.349 106.385 22.7969 107.031 22.0781 107.484C21.3646 107.932 20.5417 108.156 19.6094 108.156C18.6875 108.156 17.8646 107.932 17.1406 107.484C16.4219 107.031 15.8646 106.388 15.4688 105.555C15.0781 104.721 14.8802 103.76 14.875 102.672V102.031C14.875 100.922 15.0703 99.9427 15.4609 99.0938C15.8568 98.2448 16.4115 97.5964 17.125 97.1484C17.8438 96.6953 18.6667 96.4688 19.5938 96.4688C20.5208 96.4688 21.3411 96.6927 22.0547 97.1406C22.7734 97.5833 23.3281 98.224 23.7188 99.0625C24.1094 99.8958 24.3073 100.867 24.3125 101.977V102.609ZM22.3359 102.016C22.3359 100.755 22.0964 99.7891 21.6172 99.1172C21.1432 98.4453 20.4688 98.1094 19.5938 98.1094C18.7396 98.1094 18.0703 98.4453 17.5859 99.1172C17.1068 99.7839 16.862 100.729 16.8516 101.953V102.609C16.8516 103.859 17.0938 104.826 17.5781 105.508C18.0677 106.19 18.7448 106.531 19.6094 106.531C20.4844 106.531 21.1562 106.198 21.625 105.531C22.099 104.865 22.3359 103.891 22.3359 102.609V102.016ZM30.4609 103.617H28.2578V108H26.2812V96.625H30.2812C31.5938 96.625 32.6068 96.9193 33.3203 97.5078C34.0339 98.0964 34.3906 98.9479 34.3906 100.062C34.3906 100.823 34.2057 101.461 33.8359 101.977C33.4714 102.487 32.9609 102.88 32.3047 103.156L34.8594 107.898V108H32.7422L30.4609 103.617ZM28.2578 102.031H30.2891C30.9557 102.031 31.4766 101.865 31.8516 101.531C32.2266 101.193 32.4141 100.732 32.4141 100.148C32.4141 99.5391 32.2396 99.0677 31.8906 98.7344C31.5469 98.401 31.0312 98.2292 30.3438 98.2188H28.2578V102.031ZM39.5312 103.086L38.2422 104.453V108H36.2656V96.625H38.2422V101.961L39.3359 100.609L42.6641 96.625H45.0547L40.8281 101.664L45.2969 108H42.9531L39.5312 103.086ZM56.9922 102.922H52.3203V106.422H57.7812V108H50.3438V96.625H57.7266V98.2188H52.3203V101.359H56.9922V102.922ZM65.9453 103.18H61.3672V108H59.3906V96.625H66.6172V98.2188H61.3672V101.602H65.9453V103.18ZM74.7422 103.18H70.1641V108H68.1875V96.625H75.4141V98.2188H70.1641V101.602H74.7422V103.18ZM79.0703 108H77.1016V96.625H79.0703V108ZM90.1797 104.297C90.0651 105.51 89.6172 106.458 88.8359 107.141C88.0547 107.818 87.0156 108.156 85.7188 108.156C84.8125 108.156 84.013 107.943 83.3203 107.516C82.6328 107.083 82.1016 106.471 81.7266 105.68C81.3516 104.888 81.1562 103.969 81.1406 102.922V101.859C81.1406 100.786 81.3307 99.8411 81.7109 99.0234C82.0911 98.2057 82.6354 97.5755 83.3438 97.1328C84.0573 96.6901 84.8802 96.4688 85.8125 96.4688C87.0677 96.4688 88.0781 96.8099 88.8438 97.4922C89.6094 98.1745 90.0547 99.138 90.1797 100.383H88.2109C88.1172 99.5651 87.8776 98.9766 87.4922 98.6172C87.112 98.2526 86.5521 98.0703 85.8125 98.0703C84.9531 98.0703 84.2917 98.3854 83.8281 99.0156C83.3698 99.6406 83.1354 100.56 83.125 101.773V102.781C83.125 104.01 83.3438 104.948 83.7812 105.594C84.224 106.24 84.8698 106.562 85.7188 106.562C86.4948 106.562 87.0781 106.388 87.4688 106.039C87.8594 105.69 88.1068 105.109 88.2109 104.297H90.1797ZM94.0391 108H92.0703V96.625H94.0391V108ZM103.117 102.922H98.4453V106.422H103.906V108H96.4688V96.625H103.852V98.2188H98.4453V101.359H103.117V102.922ZM114.539 108H112.562L107.492 99.9297V108H105.516V96.625H107.492L112.578 104.727V96.625H114.539V108ZM125.555 104.297C125.44 105.51 124.992 106.458 124.211 107.141C123.43 107.818 122.391 108.156 121.094 108.156C120.188 108.156 119.388 107.943 118.695 107.516C118.008 107.083 117.477 106.471 117.102 105.68C116.727 104.888 116.531 103.969 116.516 102.922V101.859C116.516 100.786 116.706 99.8411 117.086 99.0234C117.466 98.2057 118.01 97.5755 118.719 97.1328C119.432 96.6901 120.255 96.4688 121.188 96.4688C122.443 96.4688 123.453 96.8099 124.219 97.4922C124.984 98.1745 125.43 99.138 125.555 100.383H123.586C123.492 99.5651 123.253 98.9766 122.867 98.6172C122.487 98.2526 121.927 98.0703 121.188 98.0703C120.328 98.0703 119.667 98.3854 119.203 99.0156C118.745 99.6406 118.51 100.56 118.5 101.773V102.781C118.5 104.01 118.719 104.948 119.156 105.594C119.599 106.24 120.245 106.562 121.094 106.562C121.87 106.562 122.453 106.388 122.844 106.039C123.234 105.69 123.482 105.109 123.586 104.297H125.555ZM131.039 102.016L133.656 96.625H135.844L132.031 103.812V108H130.047V103.812L126.227 96.625H128.422L131.039 102.016Z" fill="#2C2D53"/>
<path d="M7.80469 160.922H3.13281V164.422H8.59375V166H1.15625V154.625H8.53906V156.219H3.13281V159.359H7.80469V160.922ZM16.5703 163.352H12.1641L11.2422 166H9.1875L13.4844 154.625H15.2578L19.5625 166H17.5L16.5703 163.352ZM12.7188 161.758H16.0156L14.3672 157.039L12.7188 161.758ZM26.8047 163.07C26.8047 162.57 26.6276 162.185 26.2734 161.914C25.9245 161.643 25.2917 161.37 24.375 161.094C23.4583 160.818 22.7292 160.51 22.1875 160.172C21.151 159.521 20.6328 158.672 20.6328 157.625C20.6328 156.708 21.0052 155.953 21.75 155.359C22.5 154.766 23.4714 154.469 24.6641 154.469C25.4557 154.469 26.1615 154.615 26.7812 154.906C27.401 155.198 27.888 155.615 28.2422 156.156C28.5964 156.693 28.7734 157.289 28.7734 157.945H26.8047C26.8047 157.352 26.6172 156.888 26.2422 156.555C25.8724 156.216 25.3411 156.047 24.6484 156.047C24.0026 156.047 23.5 156.185 23.1406 156.461C22.7865 156.737 22.6094 157.122 22.6094 157.617C22.6094 158.034 22.8021 158.383 23.1875 158.664C23.5729 158.94 24.2083 159.211 25.0938 159.477C25.9792 159.737 26.6901 160.036 27.2266 160.375C27.763 160.708 28.1562 161.094 28.4062 161.531C28.6562 161.964 28.7812 162.471 28.7812 163.055C28.7812 164.003 28.4167 164.758 27.6875 165.32C26.9635 165.878 25.9792 166.156 24.7344 166.156C23.9115 166.156 23.1536 166.005 22.4609 165.703C21.7734 165.396 21.237 164.974 20.8516 164.438C20.4714 163.901 20.2812 163.276 20.2812 162.562H22.2578C22.2578 163.208 22.4714 163.708 22.8984 164.062C23.3255 164.417 23.9375 164.594 24.7344 164.594C25.4219 164.594 25.9375 164.456 26.2812 164.18C26.6302 163.898 26.8047 163.529 26.8047 163.07ZM37.1641 160.922H32.4922V164.422H37.9531V166H30.5156V154.625H37.8984V156.219H32.4922V159.359H37.1641V160.922ZM52.625 160.609C52.625 161.724 52.4323 162.703 52.0469 163.547C51.6615 164.385 51.1094 165.031 50.3906 165.484C49.6771 165.932 48.8542 166.156 47.9219 166.156C47 166.156 46.1771 165.932 45.4531 165.484C44.7344 165.031 44.1771 164.388 43.7812 163.555C43.3906 162.721 43.1927 161.76 43.1875 160.672V160.031C43.1875 158.922 43.3828 157.943 43.7734 157.094C44.1693 156.245 44.724 155.596 45.4375 155.148C46.1562 154.695 46.9792 154.469 47.9062 154.469C48.8333 154.469 49.6536 154.693 50.3672 155.141C51.0859 155.583 51.6406 156.224 52.0312 157.062C52.4219 157.896 52.6198 158.867 52.625 159.977V160.609ZM50.6484 160.016C50.6484 158.755 50.4089 157.789 49.9297 157.117C49.4557 156.445 48.7812 156.109 47.9062 156.109C47.0521 156.109 46.3828 156.445 45.8984 157.117C45.4193 157.784 45.1745 158.729 45.1641 159.953V160.609C45.1641 161.859 45.4062 162.826 45.8906 163.508C46.3802 164.19 47.0573 164.531 47.9219 164.531C48.7969 164.531 49.4688 164.198 49.9375 163.531C50.4115 162.865 50.6484 161.891 50.6484 160.609V160.016ZM61.1484 161.18H56.5703V166H54.5938V154.625H61.8203V156.219H56.5703V159.602H61.1484V161.18ZM76.2969 163.188L78.0469 154.625H80.0078L77.3828 166H75.4922L73.3281 157.695L71.1172 166H69.2188L66.5938 154.625H68.5547L70.3203 163.172L72.4922 154.625H74.1484L76.2969 163.188ZM90.5312 160.609C90.5312 161.724 90.3385 162.703 89.9531 163.547C89.5677 164.385 89.0156 165.031 88.2969 165.484C87.5833 165.932 86.7604 166.156 85.8281 166.156C84.9062 166.156 84.0833 165.932 83.3594 165.484C82.6406 165.031 82.0833 164.388 81.6875 163.555C81.2969 162.721 81.099 161.76 81.0938 160.672V160.031C81.0938 158.922 81.2891 157.943 81.6797 157.094C82.0755 156.245 82.6302 155.596 83.3438 155.148C84.0625 154.695 84.8854 154.469 85.8125 154.469C86.7396 154.469 87.5599 154.693 88.2734 155.141C88.9922 155.583 89.5469 156.224 89.9375 157.062C90.3281 157.896 90.526 158.867 90.5312 159.977V160.609ZM88.5547 160.016C88.5547 158.755 88.3151 157.789 87.8359 157.117C87.362 156.445 86.6875 156.109 85.8125 156.109C84.9583 156.109 84.2891 156.445 83.8047 157.117C83.3255 157.784 83.0807 158.729 83.0703 159.953V160.609C83.0703 161.859 83.3125 162.826 83.7969 163.508C84.2865 164.19 84.9635 164.531 85.8281 164.531C86.7031 164.531 87.375 164.198 87.8438 163.531C88.3177 162.865 88.5547 161.891 88.5547 160.609V160.016ZM96.6797 161.617H94.4766V166H92.5V154.625H96.5C97.8125 154.625 98.8255 154.919 99.5391 155.508C100.253 156.096 100.609 156.948 100.609 158.062C100.609 158.823 100.424 159.461 100.055 159.977C99.6901 160.487 99.1797 160.88 98.5234 161.156L101.078 165.898V166H98.9609L96.6797 161.617ZM94.4766 160.031H96.5078C97.1745 160.031 97.6953 159.865 98.0703 159.531C98.4453 159.193 98.6328 158.732 98.6328 158.148C98.6328 157.539 98.4583 157.068 98.1094 156.734C97.7656 156.401 97.25 156.229 96.5625 156.219H94.4766V160.031ZM105.75 161.086L104.461 162.453V166H102.484V154.625H104.461V159.961L105.555 158.609L108.883 154.625H111.273L107.047 159.664L111.516 166H109.172L105.75 161.086ZM118.539 161.773V166H116.562V154.625H120.914C122.185 154.625 123.193 154.956 123.938 155.617C124.688 156.279 125.062 157.154 125.062 158.242C125.062 159.357 124.695 160.224 123.961 160.844C123.232 161.464 122.208 161.773 120.891 161.773H118.539ZM118.539 160.188H120.914C121.617 160.188 122.154 160.023 122.523 159.695C122.893 159.362 123.078 158.883 123.078 158.258C123.078 157.643 122.891 157.154 122.516 156.789C122.141 156.419 121.625 156.229 120.969 156.219H118.539V160.188ZM128.773 164.422H133.938V166H126.797V154.625H128.773V164.422ZM141.977 163.352H137.57L136.648 166H134.594L138.891 154.625H140.664L144.969 166H142.906L141.977 163.352ZM138.125 161.758H141.422L139.773 157.039L138.125 161.758ZM155.289 166H153.312L148.242 157.93V166H146.266V154.625H148.242L153.328 162.727V154.625H155.289V166ZM166.648 166H164.672L159.602 157.93V166H157.625V154.625H159.602L164.688 162.727V154.625H166.648V166ZM171.07 166H169.102V154.625H171.07V166ZM182.523 166H180.547L175.477 157.93V166H173.5V154.625H175.477L180.562 162.727V154.625H182.523V166ZM193.578 164.523C193.167 165.06 192.596 165.466 191.867 165.742C191.138 166.018 190.31 166.156 189.383 166.156C188.43 166.156 187.586 165.94 186.852 165.508C186.117 165.076 185.549 164.458 185.148 163.656C184.753 162.849 184.547 161.909 184.531 160.836V159.945C184.531 158.227 184.943 156.885 185.766 155.922C186.589 154.953 187.737 154.469 189.211 154.469C190.477 154.469 191.482 154.781 192.227 155.406C192.971 156.031 193.419 156.932 193.57 158.109H191.633C191.414 156.74 190.62 156.055 189.25 156.055C188.365 156.055 187.69 156.375 187.227 157.016C186.768 157.651 186.531 158.586 186.516 159.82V160.695C186.516 161.924 186.773 162.88 187.289 163.562C187.81 164.24 188.531 164.578 189.453 164.578C190.464 164.578 191.182 164.349 191.609 163.891V161.664H189.266V160.164H193.578V164.523Z" fill="#2C2D53"/>
<path d="M652 201L1126 201" stroke="#3447D3"/>
<path d="M314 201L592 201" stroke="#3447D3"/>
<path d="M0 201H254" stroke="#3447D3"/>
<path d="M415.719 218.625L419 227.344L422.273 218.625H424.828V230H422.859V226.25L423.055 221.234L419.695 230H418.281L414.93 221.242L415.125 226.25V230H413.156V218.625H415.719ZM433.82 224.922H429.148V228.422H434.609V230H427.172V218.625H434.555V220.219H429.148V223.359H433.82V224.922ZM444.594 220.219H441.047V230H439.086V220.219H435.57V218.625H444.594V220.219ZM450.273 225.617H448.07V230H446.094V218.625H450.094C451.406 218.625 452.419 218.919 453.133 219.508C453.846 220.096 454.203 220.948 454.203 222.062C454.203 222.823 454.018 223.461 453.648 223.977C453.284 224.487 452.773 224.88 452.117 225.156L454.672 229.898V230H452.555L450.273 225.617ZM448.07 224.031H450.102C450.768 224.031 451.289 223.865 451.664 223.531C452.039 223.193 452.227 222.732 452.227 222.148C452.227 221.539 452.052 221.068 451.703 220.734C451.359 220.401 450.844 220.229 450.156 220.219H448.07V224.031ZM458.164 230H456.195V218.625H458.164V230ZM469.273 226.297C469.159 227.51 468.711 228.458 467.93 229.141C467.148 229.818 466.109 230.156 464.812 230.156C463.906 230.156 463.107 229.943 462.414 229.516C461.727 229.083 461.195 228.471 460.82 227.68C460.445 226.888 460.25 225.969 460.234 224.922V223.859C460.234 222.786 460.424 221.841 460.805 221.023C461.185 220.206 461.729 219.576 462.438 219.133C463.151 218.69 463.974 218.469 464.906 218.469C466.161 218.469 467.172 218.81 467.938 219.492C468.703 220.174 469.148 221.138 469.273 222.383H467.305C467.211 221.565 466.971 220.977 466.586 220.617C466.206 220.253 465.646 220.07 464.906 220.07C464.047 220.07 463.385 220.385 462.922 221.016C462.464 221.641 462.229 222.56 462.219 223.773V224.781C462.219 226.01 462.438 226.948 462.875 227.594C463.318 228.24 463.964 228.562 464.812 228.562C465.589 228.562 466.172 228.388 466.562 228.039C466.953 227.69 467.201 227.109 467.305 226.297H469.273ZM476.992 227.07C476.992 226.57 476.815 226.185 476.461 225.914C476.112 225.643 475.479 225.37 474.562 225.094C473.646 224.818 472.917 224.51 472.375 224.172C471.339 223.521 470.82 222.672 470.82 221.625C470.82 220.708 471.193 219.953 471.938 219.359C472.688 218.766 473.659 218.469 474.852 218.469C475.643 218.469 476.349 218.615 476.969 218.906C477.589 219.198 478.076 219.615 478.43 220.156C478.784 220.693 478.961 221.289 478.961 221.945H476.992C476.992 221.352 476.805 220.888 476.43 220.555C476.06 220.216 475.529 220.047 474.836 220.047C474.19 220.047 473.688 220.185 473.328 220.461C472.974 220.737 472.797 221.122 472.797 221.617C472.797 222.034 472.99 222.383 473.375 222.664C473.76 222.94 474.396 223.211 475.281 223.477C476.167 223.737 476.878 224.036 477.414 224.375C477.951 224.708 478.344 225.094 478.594 225.531C478.844 225.964 478.969 226.471 478.969 227.055C478.969 228.003 478.604 228.758 477.875 229.32C477.151 229.878 476.167 230.156 474.922 230.156C474.099 230.156 473.341 230.005 472.648 229.703C471.961 229.396 471.424 228.974 471.039 228.438C470.659 227.901 470.469 227.276 470.469 226.562H472.445C472.445 227.208 472.659 227.708 473.086 228.062C473.513 228.417 474.125 228.594 474.922 228.594C475.609 228.594 476.125 228.456 476.469 228.18C476.818 227.898 476.992 227.529 476.992 227.07Z" fill="#3447D3"/>
<path d="M881.336 225.617H879.133V230H877.156V218.625H881.156C882.469 218.625 883.482 218.919 884.195 219.508C884.909 220.096 885.266 220.948 885.266 222.062C885.266 222.823 885.081 223.461 884.711 223.977C884.346 224.487 883.836 224.88 883.18 225.156L885.734 229.898V230H883.617L881.336 225.617ZM879.133 224.031H881.164C881.831 224.031 882.352 223.865 882.727 223.531C883.102 223.193 883.289 222.732 883.289 222.148C883.289 221.539 883.115 221.068 882.766 220.734C882.422 220.401 881.906 220.229 881.219 220.219H879.133V224.031ZM893.789 224.922H889.117V228.422H894.578V230H887.141V218.625H894.523V220.219H889.117V223.359H893.789V224.922ZM902.133 227.07C902.133 226.57 901.956 226.185 901.602 225.914C901.253 225.643 900.62 225.37 899.703 225.094C898.786 224.818 898.057 224.51 897.516 224.172C896.479 223.521 895.961 222.672 895.961 221.625C895.961 220.708 896.333 219.953 897.078 219.359C897.828 218.766 898.799 218.469 899.992 218.469C900.784 218.469 901.49 218.615 902.109 218.906C902.729 219.198 903.216 219.615 903.57 220.156C903.924 220.693 904.102 221.289 904.102 221.945H902.133C902.133 221.352 901.945 220.888 901.57 220.555C901.201 220.216 900.669 220.047 899.977 220.047C899.331 220.047 898.828 220.185 898.469 220.461C898.115 220.737 897.938 221.122 897.938 221.617C897.938 222.034 898.13 222.383 898.516 222.664C898.901 222.94 899.536 223.211 900.422 223.477C901.307 223.737 902.018 224.036 902.555 224.375C903.091 224.708 903.484 225.094 903.734 225.531C903.984 225.964 904.109 226.471 904.109 227.055C904.109 228.003 903.745 228.758 903.016 229.32C902.292 229.878 901.307 230.156 900.062 230.156C899.24 230.156 898.482 230.005 897.789 229.703C897.102 229.396 896.565 228.974 896.18 228.438C895.799 227.901 895.609 227.276 895.609 226.562H897.586C897.586 227.208 897.799 227.708 898.227 228.062C898.654 228.417 899.266 228.594 900.062 228.594C900.75 228.594 901.266 228.456 901.609 228.18C901.958 227.898 902.133 227.529 902.133 227.07ZM914.164 218.625V226.227C914.164 227.435 913.776 228.393 913 229.102C912.229 229.805 911.201 230.156 909.914 230.156C908.612 230.156 907.578 229.81 906.812 229.117C906.047 228.419 905.664 227.453 905.664 226.219V218.625H907.633V226.234C907.633 226.995 907.826 227.576 908.211 227.977C908.596 228.378 909.164 228.578 909.914 228.578C911.435 228.578 912.195 227.776 912.195 226.172V218.625H914.164ZM918.258 228.422H923.422V230H916.281V218.625H918.258V228.422ZM931.547 220.219H928V230H926.039V220.219H922.523V218.625H931.547V220.219Z" fill="#3447D3"/>
<path d="M100.875 228.523C100.464 229.06 99.8932 229.466 99.1641 229.742C98.4349 230.018 97.6068 230.156 96.6797 230.156C95.7266 230.156 94.8828 229.94 94.1484 229.508C93.4141 229.076 92.8464 228.458 92.4453 227.656C92.0495 226.849 91.8438 225.909 91.8281 224.836V223.945C91.8281 222.227 92.2396 220.885 93.0625 219.922C93.8854 218.953 95.0339 218.469 96.5078 218.469C97.7734 218.469 98.7786 218.781 99.5234 219.406C100.268 220.031 100.716 220.932 100.867 222.109H98.9297C98.7109 220.74 97.9167 220.055 96.5469 220.055C95.6615 220.055 94.987 220.375 94.5234 221.016C94.0651 221.651 93.8281 222.586 93.8125 223.82V224.695C93.8125 225.924 94.0703 226.88 94.5859 227.562C95.1068 228.24 95.8281 228.578 96.75 228.578C97.7604 228.578 98.4792 228.349 98.9062 227.891V225.664H96.5625V224.164H100.875V228.523ZM112.125 224.609C112.125 225.724 111.932 226.703 111.547 227.547C111.161 228.385 110.609 229.031 109.891 229.484C109.177 229.932 108.354 230.156 107.422 230.156C106.5 230.156 105.677 229.932 104.953 229.484C104.234 229.031 103.677 228.388 103.281 227.555C102.891 226.721 102.693 225.76 102.688 224.672V224.031C102.688 222.922 102.883 221.943 103.273 221.094C103.669 220.245 104.224 219.596 104.938 219.148C105.656 218.695 106.479 218.469 107.406 218.469C108.333 218.469 109.154 218.693 109.867 219.141C110.586 219.583 111.141 220.224 111.531 221.062C111.922 221.896 112.12 222.867 112.125 223.977V224.609ZM110.148 224.016C110.148 222.755 109.909 221.789 109.43 221.117C108.956 220.445 108.281 220.109 107.406 220.109C106.552 220.109 105.883 220.445 105.398 221.117C104.919 221.784 104.674 222.729 104.664 223.953V224.609C104.664 225.859 104.906 226.826 105.391 227.508C105.88 228.19 106.557 228.531 107.422 228.531C108.297 228.531 108.969 228.198 109.438 227.531C109.911 226.865 110.148 225.891 110.148 224.609V224.016ZM120.289 227.352H115.883L114.961 230H112.906L117.203 218.625H118.977L123.281 230H121.219L120.289 227.352ZM116.438 225.758H119.734L118.086 221.039L116.438 225.758ZM126.555 228.422H131.719V230H124.578V218.625H126.555V228.422ZM139.18 227.07C139.18 226.57 139.003 226.185 138.648 225.914C138.299 225.643 137.667 225.37 136.75 225.094C135.833 224.818 135.104 224.51 134.562 224.172C133.526 223.521 133.008 222.672 133.008 221.625C133.008 220.708 133.38 219.953 134.125 219.359C134.875 218.766 135.846 218.469 137.039 218.469C137.831 218.469 138.536 218.615 139.156 218.906C139.776 219.198 140.263 219.615 140.617 220.156C140.971 220.693 141.148 221.289 141.148 221.945H139.18C139.18 221.352 138.992 220.888 138.617 220.555C138.247 220.216 137.716 220.047 137.023 220.047C136.378 220.047 135.875 220.185 135.516 220.461C135.161 220.737 134.984 221.122 134.984 221.617C134.984 222.034 135.177 222.383 135.562 222.664C135.948 222.94 136.583 223.211 137.469 223.477C138.354 223.737 139.065 224.036 139.602 224.375C140.138 224.708 140.531 225.094 140.781 225.531C141.031 225.964 141.156 226.471 141.156 227.055C141.156 228.003 140.792 228.758 140.062 229.32C139.339 229.878 138.354 230.156 137.109 230.156C136.286 230.156 135.529 230.005 134.836 229.703C134.148 229.396 133.612 228.974 133.227 228.438C132.846 227.901 132.656 227.276 132.656 226.562H134.633C134.633 227.208 134.846 227.708 135.273 228.062C135.701 228.417 136.312 228.594 137.109 228.594C137.797 228.594 138.312 228.456 138.656 228.18C139.005 227.898 139.18 227.529 139.18 227.07Z" fill="#3447D3"/>
<path d="M986.078 38.1875L987.828 29.625H989.789L987.164 41H985.273L983.109 32.6953L980.898 41H979L976.375 29.625H978.336L980.102 38.1719L982.273 29.625H983.93L986.078 38.1875ZM993.07 41H991.172V32.5469H993.07V41ZM991.055 30.3516C991.055 30.0599 991.146 29.8177 991.328 29.625C991.516 29.4323 991.781 29.3359 992.125 29.3359C992.469 29.3359 992.734 29.4323 992.922 29.625C993.109 29.8177 993.203 30.0599 993.203 30.3516C993.203 30.638 993.109 30.8776 992.922 31.0703C992.734 31.2578 992.469 31.3516 992.125 31.3516C991.781 31.3516 991.516 31.2578 991.328 31.0703C991.146 30.8776 991.055 30.638 991.055 30.3516ZM997.523 30.4922V32.5469H999.016V33.9531H997.523V38.6719C997.523 38.9948 997.586 39.2292 997.711 39.375C997.841 39.5156 998.07 39.5859 998.398 39.5859C998.617 39.5859 998.839 39.5599 999.062 39.5078V40.9766C998.63 41.0964 998.214 41.1562 997.812 41.1562C996.354 41.1562 995.625 40.3516 995.625 38.7422V33.9531H994.234V32.5469H995.625V30.4922H997.523ZM1002.34 33.4688C1002.96 32.75 1003.75 32.3906 1004.7 32.3906C1006.5 32.3906 1007.41 33.4193 1007.44 35.4766V41H1005.54V35.5469C1005.54 34.9635 1005.41 34.5521 1005.16 34.3125C1004.91 34.0677 1004.54 33.9453 1004.05 33.9453C1003.29 33.9453 1002.72 34.2839 1002.34 34.9609V41H1000.45V29H1002.34V33.4688ZM1019.9 38.3516H1015.49L1014.57 41H1012.52L1016.81 29.625H1018.59L1022.89 41H1020.83L1019.9 38.3516ZM1016.05 36.7578H1019.34L1017.7 32.0391L1016.05 36.7578ZM1028.43 34.2812C1028.18 34.2396 1027.92 34.2188 1027.66 34.2188C1026.79 34.2188 1026.2 34.5521 1025.9 35.2188V41H1024V32.5469H1025.81L1025.86 33.4922C1026.32 32.7578 1026.95 32.3906 1027.77 32.3906C1028.04 32.3906 1028.26 32.4271 1028.44 32.5L1028.43 34.2812ZM1032.95 39.6406C1033.42 39.6406 1033.81 39.5026 1034.12 39.2266C1034.44 38.9505 1034.6 38.6094 1034.62 38.2031H1036.41C1036.39 38.7292 1036.23 39.2214 1035.92 39.6797C1035.61 40.1328 1035.2 40.4922 1034.67 40.7578C1034.15 41.0234 1033.58 41.1562 1032.97 41.1562C1031.79 41.1562 1030.85 40.7734 1030.16 40.0078C1029.46 39.2422 1029.12 38.1849 1029.12 36.8359V36.6406C1029.12 35.3542 1029.46 34.3255 1030.15 33.5547C1030.84 32.7786 1031.77 32.3906 1032.96 32.3906C1033.97 32.3906 1034.78 32.6849 1035.41 33.2734C1036.05 33.8568 1036.38 34.625 1036.41 35.5781H1034.62C1034.6 35.0938 1034.44 34.6953 1034.12 34.3828C1033.82 34.0703 1033.42 33.9141 1032.95 33.9141C1032.33 33.9141 1031.86 34.138 1031.52 34.5859C1031.19 35.0286 1031.02 35.7031 1031.02 36.6094V36.9141C1031.02 37.8307 1031.18 38.5156 1031.51 38.9688C1031.84 39.4167 1032.32 39.6406 1032.95 39.6406ZM1039.72 33.4688C1040.34 32.75 1041.12 32.3906 1042.07 32.3906C1043.87 32.3906 1044.79 33.4193 1044.81 35.4766V41H1042.91V35.5469C1042.91 34.9635 1042.79 34.5521 1042.53 34.3125C1042.28 34.0677 1041.91 33.9453 1041.42 33.9453C1040.66 33.9453 1040.09 34.2839 1039.72 34.9609V41H1037.82V29H1039.72V33.4688ZM1048.76 41H1046.86V29H1048.76V41ZM1052.85 41H1050.95V32.5469H1052.85V41ZM1050.84 30.3516C1050.84 30.0599 1050.93 29.8177 1051.11 29.625C1051.3 29.4323 1051.56 29.3359 1051.91 29.3359C1052.25 29.3359 1052.52 29.4323 1052.7 29.625C1052.89 29.8177 1052.98 30.0599 1052.98 30.3516C1052.98 30.638 1052.89 30.8776 1052.7 31.0703C1052.52 31.2578 1052.25 31.3516 1051.91 31.3516C1051.56 31.3516 1051.3 31.2578 1051.11 31.0703C1050.93 30.8776 1050.84 30.638 1050.84 30.3516ZM1054.57 36.6953C1054.57 35.8672 1054.73 35.1224 1055.06 34.4609C1055.39 33.7943 1055.85 33.2839 1056.45 32.9297C1057.04 32.5703 1057.72 32.3906 1058.49 32.3906C1059.63 32.3906 1060.56 32.7578 1061.27 33.4922C1061.98 34.2266 1062.36 35.2005 1062.42 36.4141L1062.43 36.8594C1062.43 37.6927 1062.27 38.4375 1061.95 39.0938C1061.63 39.75 1061.17 40.2578 1060.57 40.6172C1059.98 40.9766 1059.29 41.1562 1058.51 41.1562C1057.32 41.1562 1056.36 40.7604 1055.64 39.9688C1054.93 39.1719 1054.57 38.112 1054.57 36.7891V36.6953ZM1056.47 36.8594C1056.47 37.7292 1056.65 38.4115 1057.01 38.9062C1057.37 39.3958 1057.87 39.6406 1058.51 39.6406C1059.15 39.6406 1059.65 39.3906 1060 38.8906C1060.36 38.3906 1060.54 37.6589 1060.54 36.6953C1060.54 35.8411 1060.35 35.1641 1059.98 34.6641C1059.62 34.1641 1059.12 33.9141 1058.49 33.9141C1057.87 33.9141 1057.38 34.1615 1057.02 34.6562C1056.65 35.1458 1056.47 35.8802 1056.47 36.8594Z" fill="black"/>
</svg>
