<svg width="297" height="846" viewBox="0 0 297 846" fill="none" xmlns="http://www.w3.org/2000/svg">
<rect width="281" height="830" transform="translate(8 8)" fill="white"/>
<g filter="url(#filter0_d)">
<rect x="8" y="8" width="281" height="830" fill="white"/>
</g>
<path d="M36.5241 54.169C38.8757 54.169 40.2528 52.25 40.2528 48.9141C40.2528 45.603 38.8558 43.679 36.5241 43.679C34.1875 43.679 32.7955 45.598 32.7905 48.9141C32.7905 52.245 34.1676 54.1641 36.5241 54.169ZM36.5241 52.8416C35.147 52.8416 34.3168 51.4595 34.3168 48.9141C34.3217 46.3786 35.152 44.9815 36.5241 44.9815C37.8913 44.9815 38.7266 46.3786 38.7266 48.9141C38.7266 51.4595 37.8963 52.8416 36.5241 52.8416ZM45.3773 54.1392C47.4256 54.1392 48.8873 52.6925 48.8823 50.7088C48.8873 48.7401 47.5151 47.3082 45.6607 47.3082C44.905 47.3082 44.204 47.5966 43.8063 47.9844H43.7466L44.0698 45.1357H48.3901V43.8182H42.7921L42.2203 48.9489L43.6273 49.1577C44.0101 48.8146 44.6962 48.581 45.3127 48.581C46.5208 48.5909 47.3958 49.4957 47.3958 50.7386C47.3958 51.9616 46.5456 52.8466 45.3773 52.8466C44.3929 52.8466 43.6124 52.2202 43.5328 51.3452H42.0414C42.101 52.9659 43.508 54.1392 45.3773 54.1392ZM51.342 54.0945C51.8839 54.0945 52.3363 53.652 52.3363 53.1001C52.3363 52.5582 51.8839 52.1108 51.342 52.1108C50.7951 52.1108 50.3477 52.5582 50.3477 53.1001C50.3477 53.652 50.7951 54.0945 51.342 54.0945ZM56.94 43.8182H55.4435L52.9031 45.4787V46.9503L55.3391 45.3594H55.3988V54H56.94V43.8182ZM59.6942 54H66.396V52.6825H61.8121V52.608L63.8356 50.4901C65.6999 48.6058 66.2319 47.706 66.2319 46.5675C66.2319 44.9318 64.8995 43.679 62.9805 43.679C61.0763 43.679 59.6843 44.9119 59.6843 46.7713H61.1509C61.146 45.6776 61.8519 44.9616 62.9506 44.9616C63.9847 44.9616 64.7702 45.598 64.7702 46.6122C64.7702 47.5121 64.2333 48.1584 63.1396 49.3168L59.6942 52.8864V54ZM69.2795 54.0945C69.8214 54.0945 70.2738 53.652 70.2738 53.1001C70.2738 52.5582 69.8214 52.1108 69.2795 52.1108C68.7326 52.1108 68.2852 52.5582 68.2852 53.1001C68.2852 53.652 68.7326 54.0945 69.2795 54.0945ZM72.245 54H78.9467V52.6825H74.3629V52.608L76.3864 50.4901C78.2507 48.6058 78.7827 47.706 78.7827 46.5675C78.7827 44.9318 77.4503 43.679 75.5312 43.679C73.6271 43.679 72.2351 44.9119 72.2351 46.7713H73.7017C73.6967 45.6776 74.4027 44.9616 75.5014 44.9616C76.5355 44.9616 77.321 45.598 77.321 46.6122C77.321 47.5121 76.7841 48.1584 75.6903 49.3168L72.245 52.8864V54ZM84.3757 54.169C86.7273 54.169 88.1044 52.25 88.1044 48.9141C88.1044 45.603 86.7074 43.679 84.3757 43.679C82.0391 43.679 80.647 45.598 80.642 48.9141C80.642 52.245 82.0192 54.1641 84.3757 54.169ZM84.3757 52.8416C82.9986 52.8416 82.1683 51.4595 82.1683 48.9141C82.1733 46.3786 83.0036 44.9815 84.3757 44.9815C85.7429 44.9815 86.5781 46.3786 86.5781 48.9141C86.5781 51.4595 85.7479 52.8416 84.3757 52.8416ZM89.8681 54H96.5698V52.6825H91.986V52.608L94.0094 50.4901C95.8738 48.6058 96.4057 47.706 96.4057 46.5675C96.4057 44.9318 95.0733 43.679 93.1543 43.679C91.2502 43.679 89.8581 44.9119 89.8581 46.7713H91.3248C91.3198 45.6776 92.0257 44.9616 93.1245 44.9616C94.1586 44.9616 94.9441 45.598 94.9441 46.6122C94.9441 47.5121 94.4071 48.1584 93.3134 49.3168L89.8681 52.8864V54ZM101.999 54.169C104.35 54.169 105.727 52.25 105.727 48.9141C105.727 45.603 104.33 43.679 101.999 43.679C99.6621 43.679 98.2701 45.598 98.2651 48.9141C98.2651 52.245 99.6422 54.1641 101.999 54.169ZM101.999 52.8416C100.622 52.8416 99.7914 51.4595 99.7914 48.9141C99.7963 46.3786 100.627 44.9815 101.999 44.9815C103.366 44.9815 104.201 46.3786 104.201 48.9141C104.201 51.4595 103.371 52.8416 101.999 52.8416ZM114.781 46.3636H113.215V44.5341H111.728V46.3636H110.61V47.5568H111.728V52.0661C111.723 53.4531 112.782 54.1243 113.955 54.0994C114.428 54.0945 114.746 54.005 114.92 53.9403L114.651 52.7124C114.552 52.7322 114.368 52.777 114.129 52.777C113.647 52.777 113.215 52.6179 113.215 51.7578V47.5568H114.781V46.3636ZM118.647 54.169C119.91 54.169 120.621 53.5277 120.904 52.956H120.964V54H122.416V48.929C122.416 46.7067 120.666 46.2642 119.453 46.2642C118.071 46.2642 116.798 46.821 116.301 48.2131L117.698 48.5312C117.917 47.9893 118.473 47.4673 119.473 47.4673C120.432 47.4673 120.924 47.9695 120.924 48.8345V48.8693C120.924 49.4112 120.368 49.4013 118.995 49.5604C117.549 49.7294 116.067 50.1072 116.067 51.8423C116.067 53.3438 117.196 54.169 118.647 54.169ZM118.971 52.9759C118.13 52.9759 117.524 52.598 117.524 51.8622C117.524 51.0668 118.23 50.7834 119.09 50.669C119.572 50.6044 120.716 50.4751 120.929 50.2614V51.2457C120.929 52.1506 120.208 52.9759 118.971 52.9759ZM130.118 48.228C129.81 47.0398 128.88 46.2642 127.23 46.2642C125.504 46.2642 124.281 47.174 124.281 48.5263C124.281 49.6101 124.938 50.331 126.369 50.6491L127.662 50.9325C128.398 51.0966 128.741 51.4247 128.741 51.902C128.741 52.4936 128.11 52.956 127.135 52.956C126.245 52.956 125.673 52.5732 125.494 51.8224L124.058 52.0412C124.306 53.3935 125.43 54.1541 127.145 54.1541C128.99 54.1541 130.267 53.1747 130.267 51.7926C130.267 50.7138 129.581 50.0476 128.179 49.7244L126.966 49.446C126.126 49.2472 125.763 48.9638 125.768 48.4467C125.763 47.8601 126.399 47.4425 127.244 47.4425C128.169 47.4425 128.597 47.9545 128.771 48.4666L130.118 48.228ZM131.902 54H133.388V51.2905L134.129 50.5497L136.724 54H138.549L135.248 49.6399L138.34 46.3636H136.56L133.517 49.5952H133.388V43.8182H131.902V54Z" fill="#98A9C6"/>
<path d="M237.771 115.325C238.261 115.325 238.653 115.727 238.653 116.229C238.653 116.731 238.261 117.133 237.771 117.133C237.281 117.133 236.889 116.731 236.889 116.229C236.889 115.727 237.281 115.325 237.771 115.325ZM236.889 113.015C236.889 113.517 237.281 113.919 237.771 113.919C238.261 113.919 238.653 113.517 238.653 113.015C238.653 112.513 238.261 112.111 237.771 112.111C237.281 112.111 236.889 112.513 236.889 113.015ZM236.889 119.443C236.889 119.945 237.281 120.347 237.771 120.347C238.261 120.347 238.653 119.945 238.653 119.443C238.653 118.941 238.261 118.539 237.771 118.539C237.281 118.539 236.889 118.941 236.889 119.443Z" fill="#B9C5D9"/>
<path d="M251 54L241 44" stroke="#98A9C6" stroke-width="1.5" stroke-linecap="round" stroke-linejoin="round"/>
<path d="M251 44L241 54" stroke="#98A9C6" stroke-width="1.5" stroke-linecap="round" stroke-linejoin="round"/>
<path d="M289 88L8 88" stroke="#D9E5F8" stroke-width="1.5"/>
<path d="M154 48L159 52L164 48" stroke="#3447D3" stroke-width="1.5" stroke-linecap="round" stroke-linejoin="round"/>
<path d="M65.696 128L66.4972 125.69H69.9062L70.7031 128H72.1009L68.9602 119.273H67.4389L64.2983 128H65.696ZM66.8807 124.582L68.1676 120.858H68.2358L69.5227 124.582H66.8807ZM75.6037 128.128C76.7969 128.128 77.2656 127.399 77.4957 126.982H77.6023V128H78.8466V119.273H77.5724V122.516H77.4957C77.2656 122.111 76.831 121.369 75.6122 121.369C74.0312 121.369 72.8679 122.618 72.8679 124.74C72.8679 126.858 74.0142 128.128 75.6037 128.128ZM75.8849 127.041C74.7472 127.041 74.1548 126.04 74.1548 124.727C74.1548 123.428 74.7344 122.452 75.8849 122.452C76.9972 122.452 77.5938 123.359 77.5938 124.727C77.5938 126.104 76.9844 127.041 75.8849 127.041ZM83.1154 128.128C84.3086 128.128 84.7773 127.399 85.0075 126.982H85.114V128H86.3583V119.273H85.0842V122.516H85.0075C84.7773 122.111 84.3427 121.369 83.1239 121.369C81.543 121.369 80.3796 122.618 80.3796 124.74C80.3796 126.858 81.5259 128.128 83.1154 128.128ZM83.3967 127.041C82.2589 127.041 81.6665 126.04 81.6665 124.727C81.6665 123.428 82.2461 122.452 83.3967 122.452C84.5089 122.452 85.1055 123.359 85.1055 124.727C85.1055 126.104 84.4961 127.041 83.3967 127.041ZM93.2575 128.145C94.3398 128.145 94.9492 127.595 95.1921 127.105H95.2433V128H96.4876V123.653C96.4876 121.749 94.9876 121.369 93.9478 121.369C92.7631 121.369 91.6722 121.847 91.2461 123.04L92.4435 123.312C92.631 122.848 93.1083 122.401 93.9648 122.401C94.7873 122.401 95.2092 122.831 95.2092 123.572V123.602C95.2092 124.067 94.7319 124.058 93.5558 124.195C92.3157 124.339 91.0458 124.663 91.0458 126.151C91.0458 127.438 92.0131 128.145 93.2575 128.145ZM93.5344 127.122C92.8143 127.122 92.2944 126.798 92.2944 126.168C92.2944 125.486 92.8995 125.243 93.6367 125.145C94.0501 125.089 95.0302 124.979 95.2134 124.795V125.639C95.2134 126.415 94.5955 127.122 93.5344 127.122ZM104.416 121.455H103.074V119.886H101.799V121.455H100.841V122.477H101.799V126.342C101.795 127.531 102.703 128.107 103.708 128.085C104.113 128.081 104.386 128.004 104.535 127.949L104.305 126.896C104.22 126.913 104.062 126.952 103.858 126.952C103.444 126.952 103.074 126.815 103.074 126.078V122.477H104.416V121.455ZM107.73 128.145C108.812 128.145 109.422 127.595 109.665 127.105H109.716V128H110.96V123.653C110.96 121.749 109.46 121.369 108.42 121.369C107.236 121.369 106.145 121.847 105.719 123.04L106.916 123.312C107.104 122.848 107.581 122.401 108.438 122.401C109.26 122.401 109.682 122.831 109.682 123.572V123.602C109.682 124.067 109.205 124.058 108.028 124.195C106.788 124.339 105.518 124.663 105.518 126.151C105.518 127.438 106.486 128.145 107.73 128.145ZM108.007 127.122C107.287 127.122 106.767 126.798 106.767 126.168C106.767 125.486 107.372 125.243 108.109 125.145C108.523 125.089 109.503 124.979 109.686 124.795V125.639C109.686 126.415 109.068 127.122 108.007 127.122ZM117.562 123.053C117.298 122.034 116.501 121.369 115.086 121.369C113.608 121.369 112.559 122.149 112.559 123.308C112.559 124.237 113.122 124.855 114.349 125.128L115.457 125.371C116.088 125.511 116.382 125.793 116.382 126.202C116.382 126.709 115.841 127.105 115.005 127.105C114.243 127.105 113.752 126.777 113.599 126.134L112.368 126.321C112.581 127.48 113.544 128.132 115.014 128.132C116.595 128.132 117.69 127.293 117.69 126.108C117.69 125.183 117.102 124.612 115.9 124.335L114.86 124.097C114.14 123.926 113.829 123.683 113.833 123.24C113.829 122.737 114.375 122.379 115.099 122.379C115.892 122.379 116.258 122.818 116.407 123.257L117.562 123.053ZM119.091 128H120.365V125.678L121 125.043L123.224 128H124.788L121.959 124.263L124.609 121.455H123.084L120.476 124.224H120.365V119.273H119.091V128Z" fill="#98A9C6"/>
<path d="M33 124H47" stroke="#3447D3" stroke-width="1.5" stroke-linecap="round" stroke-linejoin="round"/>
<path d="M40 117L40 131" stroke="#3447D3" stroke-width="1.5" stroke-linecap="round" stroke-linejoin="round"/>
<path d="M64.8565 168H66.1307V163.964C66.1307 163.082 66.7486 162.469 67.473 162.469C68.1804 162.469 68.6705 162.938 68.6705 163.649V168H69.9403V163.828C69.9403 163.04 70.4219 162.469 71.2528 162.469C71.9261 162.469 72.4801 162.844 72.4801 163.73V168H73.7543V163.611C73.7543 162.115 72.919 161.369 71.7344 161.369C70.7926 161.369 70.0852 161.821 69.7699 162.52H69.7017C69.4162 161.804 68.8153 161.369 67.9418 161.369C67.0767 161.369 66.4332 161.8 66.1605 162.52H66.0795V161.455H64.8565V168ZM75.462 168H76.7362V161.455H75.462V168ZM76.1055 160.445C76.5444 160.445 76.9109 160.104 76.9109 159.686C76.9109 159.268 76.5444 158.923 76.1055 158.923C75.6623 158.923 75.3001 159.268 75.3001 159.686C75.3001 160.104 75.6623 160.445 76.1055 160.445ZM79.7244 159.273H78.4503V168H79.7244V159.273ZM82.7127 159.273H81.4386V168H82.7127V159.273ZM85.8459 168H87.1413L88.4709 163.274H88.5689L89.8984 168H91.1982L93.12 161.455H91.8033L90.5291 166.24H90.4652L89.1868 161.455H87.87L86.5831 166.261H86.5192L85.2365 161.455H83.9197L85.8459 168ZM96.8871 168.132C98.7322 168.132 99.9382 166.781 99.9382 164.757C99.9382 162.72 98.7322 161.369 96.8871 161.369C95.0419 161.369 93.8359 162.72 93.8359 164.757C93.8359 166.781 95.0419 168.132 96.8871 168.132ZM96.8913 167.062C95.6854 167.062 95.1229 166.01 95.1229 164.753C95.1229 163.5 95.6854 162.435 96.8913 162.435C98.0888 162.435 98.6513 163.5 98.6513 164.753C98.6513 166.01 98.0888 167.062 96.8913 167.062ZM101.36 168H102.635V164.003C102.635 163.146 103.295 162.528 104.199 162.528C104.463 162.528 104.761 162.575 104.863 162.605V161.386C104.735 161.369 104.484 161.357 104.322 161.357C103.555 161.357 102.899 161.791 102.66 162.494H102.592V161.455H101.36V168ZM105.966 168H107.24V165.678L107.875 165.043L110.099 168H111.663L108.834 164.263L111.484 161.455H109.959L107.351 164.224H107.24V159.273H105.966V168ZM120.726 163.053C120.462 162.034 119.665 161.369 118.25 161.369C116.772 161.369 115.723 162.149 115.723 163.308C115.723 164.237 116.286 164.855 117.513 165.128L118.621 165.371C119.252 165.511 119.546 165.793 119.546 166.202C119.546 166.709 119.005 167.105 118.169 167.105C117.407 167.105 116.917 166.777 116.763 166.134L115.532 166.321C115.745 167.48 116.708 168.132 118.178 168.132C119.759 168.132 120.854 167.293 120.854 166.108C120.854 165.183 120.266 164.612 119.064 164.335L118.025 164.097C117.304 163.926 116.993 163.683 116.998 163.24C116.993 162.737 117.539 162.379 118.263 162.379C119.056 162.379 119.422 162.818 119.571 163.257L120.726 163.053ZM126.401 165.286C126.406 166.398 125.579 166.926 124.863 166.926C124.075 166.926 123.529 166.355 123.529 165.464V161.455H122.255V165.618C122.255 167.241 123.146 168.085 124.403 168.085C125.387 168.085 126.056 167.565 126.359 166.866H126.427V168H127.68V161.455H126.401V165.286ZM129.494 168H130.738V166.982H130.845C131.075 167.399 131.544 168.128 132.737 168.128C134.322 168.128 135.473 166.858 135.473 164.74C135.473 162.618 134.305 161.369 132.724 161.369C131.51 161.369 131.071 162.111 130.845 162.516H130.768V159.273H129.494V168ZM130.743 164.727C130.743 163.359 131.339 162.452 132.451 162.452C133.606 162.452 134.186 163.428 134.186 164.727C134.186 166.04 133.589 167.041 132.451 167.041C131.356 167.041 130.743 166.104 130.743 164.727ZM136.903 168H138.178V163.964C138.178 163.082 138.795 162.469 139.52 162.469C140.227 162.469 140.717 162.938 140.717 163.649V168H141.987V163.828C141.987 163.04 142.469 162.469 143.3 162.469C143.973 162.469 144.527 162.844 144.527 163.73V168H145.801V163.611C145.801 162.115 144.966 161.369 143.781 161.369C142.839 161.369 142.132 161.821 141.817 162.52H141.749C141.463 161.804 140.862 161.369 139.989 161.369C139.124 161.369 138.48 161.8 138.207 162.52H138.126V161.455H136.903V168ZM147.509 168H148.783V161.455H147.509V168ZM148.152 160.445C148.591 160.445 148.958 160.104 148.958 159.686C148.958 159.268 148.591 158.923 148.152 158.923C147.709 158.923 147.347 159.268 147.347 159.686C147.347 160.104 147.709 160.445 148.152 160.445ZM153.553 161.455H152.21V159.886H150.936V161.455H149.977V162.477H150.936V166.342C150.932 167.531 151.839 168.107 152.845 168.085C153.25 168.081 153.523 168.004 153.672 167.949L153.442 166.896C153.357 166.913 153.199 166.952 152.994 166.952C152.581 166.952 152.21 166.815 152.21 166.078V162.477H153.553V161.455ZM158.017 161.455H156.675V159.886H155.401V161.455H154.442V162.477H155.401V166.342C155.397 167.531 156.304 168.107 157.31 168.085C157.715 168.081 157.988 168.004 158.137 167.949L157.907 166.896C157.821 166.913 157.664 166.952 157.459 166.952C157.046 166.952 156.675 166.815 156.675 166.078V162.477H158.017V161.455ZM161.332 168.145C162.414 168.145 163.023 167.595 163.266 167.105H163.317V168H164.562V163.653C164.562 161.749 163.062 161.369 162.022 161.369C160.837 161.369 159.746 161.847 159.32 163.04L160.518 163.312C160.705 162.848 161.183 162.401 162.039 162.401C162.862 162.401 163.283 162.831 163.283 163.572V163.602C163.283 164.067 162.806 164.058 161.63 164.195C160.39 164.339 159.12 164.663 159.12 166.151C159.12 167.438 160.087 168.145 161.332 168.145ZM161.609 167.122C160.888 167.122 160.369 166.798 160.369 166.168C160.369 165.486 160.974 165.243 161.711 165.145C162.124 165.089 163.104 164.979 163.288 164.795V165.639C163.288 166.415 162.67 167.122 161.609 167.122ZM167.533 159.273H166.259V168H167.533V159.273ZM174.152 163.053C173.888 162.034 173.091 161.369 171.676 161.369C170.197 161.369 169.149 162.149 169.149 163.308C169.149 164.237 169.712 164.855 170.939 165.128L172.047 165.371C172.678 165.511 172.972 165.793 172.972 166.202C172.972 166.709 172.43 167.105 171.595 167.105C170.832 167.105 170.342 166.777 170.189 166.134L168.957 166.321C169.17 167.48 170.134 168.132 171.604 168.132C173.185 168.132 174.28 167.293 174.28 166.108C174.28 165.183 173.692 164.612 172.49 164.335L171.45 164.097C170.73 163.926 170.419 163.683 170.423 163.24C170.419 162.737 170.964 162.379 171.689 162.379C172.482 162.379 172.848 162.818 172.997 163.257L174.152 163.053Z" fill="#98A9C6"/>
<path d="M64.767 184H65.6051V180.591C65.6051 179.792 66.1875 179.227 66.8409 179.227C67.4766 179.227 67.9205 179.643 67.9205 180.264V184H68.7727V180.449C68.7727 179.746 69.2131 179.227 69.9801 179.227C70.5767 179.227 71.0881 179.543 71.0881 180.349V184H71.9261V180.349C71.9261 179.067 71.2372 178.474 70.2642 178.474C69.483 178.474 68.9112 178.833 68.6307 179.398H68.5739C68.304 178.815 67.8281 178.474 67.1108 178.474C66.4006 178.474 65.875 178.815 65.6477 179.398H65.5767V178.545H64.767V184ZM75.0636 184.128C76.0153 184.128 76.5124 183.616 76.6829 183.261H76.7255V184H77.5636V180.406C77.5636 178.673 76.2425 178.474 75.5465 178.474C74.7227 178.474 73.7852 178.759 73.359 179.753L74.1545 180.037C74.3391 179.639 74.7759 179.213 75.5749 179.213C76.3455 179.213 76.7255 179.621 76.7255 180.321V180.349C76.7255 180.754 76.3136 180.719 75.3192 180.847C74.3072 180.978 73.2028 181.202 73.2028 182.452C73.2028 183.517 74.0266 184.128 75.0636 184.128ZM75.1914 183.375C74.5238 183.375 74.0408 183.077 74.0408 182.494C74.0408 181.855 74.6232 181.656 75.2766 181.571C75.6317 181.528 76.5835 181.429 76.7255 181.259V182.026C76.7255 182.707 76.1857 183.375 75.1914 183.375ZM79.0932 178.545V184.398C79.0932 184.952 78.8659 185.264 78.3546 185.264H78.1983V186.045H78.3688C79.4199 186.045 79.9313 185.406 79.9313 184.398V178.545H79.0932ZM79.5051 177.636C79.8319 177.636 80.1017 177.381 80.1017 177.068C80.1017 176.756 79.8319 176.5 79.5051 176.5C79.1784 176.5 78.9086 176.756 78.9086 177.068C78.9086 177.381 79.1784 177.636 79.5051 177.636ZM83.6822 184.114C85.1594 184.114 86.1538 182.991 86.1538 181.301C86.1538 179.597 85.1594 178.474 83.6822 178.474C82.2049 178.474 81.2106 179.597 81.2106 181.301C81.2106 182.991 82.2049 184.114 83.6822 184.114ZM83.6822 183.361C82.56 183.361 82.0487 182.395 82.0487 181.301C82.0487 180.207 82.56 179.227 83.6822 179.227C84.8043 179.227 85.3157 180.207 85.3157 181.301C85.3157 182.395 84.8043 183.361 83.6822 183.361ZM87.4331 184H88.2711V180.548C88.2711 179.81 88.8535 179.27 89.649 179.27C89.8727 179.27 90.1035 179.312 90.1603 179.327V178.474C90.0645 178.467 89.8443 178.46 89.72 178.46C89.0666 178.46 88.4984 178.83 88.2995 179.369H88.2427V178.545H87.4331V184ZM97.8299 179.767C97.5671 178.993 96.9776 178.474 95.8981 178.474C94.7475 178.474 93.8952 179.128 93.8952 180.051C93.8952 180.804 94.3427 181.308 95.3441 181.543L96.2532 181.756C96.8036 181.884 97.0629 182.146 97.0629 182.523C97.0629 182.991 96.5657 183.375 95.7844 183.375C95.0991 183.375 94.6694 183.08 94.5202 182.494L93.7248 182.693C93.9201 183.62 94.6836 184.114 95.7987 184.114C97.0664 184.114 97.9293 183.421 97.9293 182.48C97.9293 181.72 97.4535 181.241 96.4805 181.003L95.6708 180.804C95.0245 180.644 94.7333 180.428 94.7333 180.009C94.7333 179.54 95.2305 179.199 95.8981 179.199C96.6296 179.199 96.9315 179.604 97.0771 179.98L97.8299 179.767ZM102.628 181.77C102.628 182.793 101.847 183.261 101.222 183.261C100.526 183.261 100.029 182.75 100.029 181.955V178.545H99.1909V182.011C99.1909 183.403 99.9295 184.071 100.952 184.071C101.776 184.071 102.316 183.631 102.572 183.077H102.628V184H103.466V178.545H102.628V181.77ZM105.115 184H105.925V183.162H106.024C106.209 183.46 106.564 184.114 107.615 184.114C108.979 184.114 109.93 183.02 109.93 181.287C109.93 179.568 108.979 178.474 107.601 178.474C106.536 178.474 106.209 179.128 106.024 179.412H105.953V176.727H105.115V184ZM105.939 181.273C105.939 180.051 106.479 179.227 107.501 179.227C108.567 179.227 109.092 180.122 109.092 181.273C109.092 182.438 108.553 183.361 107.501 183.361C106.493 183.361 105.939 182.509 105.939 181.273ZM111.212 184H112.05V180.591C112.05 179.792 112.633 179.227 113.286 179.227C113.922 179.227 114.366 179.643 114.366 180.264V184H115.218V180.449C115.218 179.746 115.658 179.227 116.425 179.227C117.022 179.227 117.533 179.543 117.533 180.349V184H118.371V180.349C118.371 179.067 117.683 178.474 116.71 178.474C115.928 178.474 115.357 178.833 115.076 179.398H115.019C114.749 178.815 114.273 178.474 113.556 178.474C112.846 178.474 112.32 178.815 112.093 179.398H112.022V178.545H111.212V184ZM119.904 184H120.742V178.545H119.904V184ZM120.33 177.636C120.657 177.636 120.926 177.381 120.926 177.068C120.926 176.756 120.657 176.5 120.33 176.5C120.003 176.5 119.733 176.756 119.733 177.068C119.733 177.381 120.003 177.636 120.33 177.636ZM124.649 178.545H123.484V177.239H122.646V178.545H121.822V179.256H122.646V182.665C122.646 183.616 123.413 184.071 124.123 184.071C124.436 184.071 124.635 184.014 124.748 183.972L124.578 183.219C124.507 183.233 124.393 183.261 124.209 183.261C123.839 183.261 123.484 183.148 123.484 182.438V179.256H124.649V178.545ZM128.282 178.545H127.117V177.239H126.279V178.545H125.455V179.256H126.279V182.665C126.279 183.616 127.046 184.071 127.756 184.071C128.069 184.071 128.268 184.014 128.381 183.972L128.211 183.219C128.14 183.233 128.026 183.261 127.841 183.261C127.472 183.261 127.117 183.148 127.117 182.438V179.256H128.282V178.545ZM131.148 184.128C132.099 184.128 132.596 183.616 132.767 183.261H132.809V184H133.648V180.406C133.648 178.673 132.327 178.474 131.631 178.474C130.807 178.474 129.869 178.759 129.443 179.753L130.238 180.037C130.423 179.639 130.86 179.213 131.659 179.213C132.43 179.213 132.809 179.621 132.809 180.321V180.349C132.809 180.754 132.398 180.719 131.403 180.847C130.391 180.978 129.287 181.202 129.287 182.452C129.287 183.517 130.111 184.128 131.148 184.128ZM131.275 183.375C130.608 183.375 130.125 183.077 130.125 182.494C130.125 181.855 130.707 181.656 131.361 181.571C131.716 181.528 132.667 181.429 132.809 181.259V182.026C132.809 182.707 132.27 183.375 131.275 183.375ZM136.015 176.727H135.177V184H136.015V176.727ZM141.414 179.767C141.151 178.993 140.562 178.474 139.482 178.474C138.331 178.474 137.479 179.128 137.479 180.051C137.479 180.804 137.927 181.308 138.928 181.543L139.837 181.756C140.388 181.884 140.647 182.146 140.647 182.523C140.647 182.991 140.15 183.375 139.368 183.375C138.683 183.375 138.253 183.08 138.104 182.494L137.309 182.693C137.504 183.62 138.268 184.114 139.383 184.114C140.65 184.114 141.513 183.421 141.513 182.48C141.513 181.72 141.037 181.241 140.064 181.003L139.255 180.804C138.608 180.644 138.317 180.428 138.317 180.009C138.317 179.54 138.814 179.199 139.482 179.199C140.214 179.199 140.515 179.604 140.661 179.98L141.414 179.767ZM148.016 178.545H146.795V177.991C146.795 177.452 147.022 177.168 147.576 177.168C147.817 177.168 147.96 177.224 148.045 177.253L148.286 176.528C148.158 176.472 147.903 176.386 147.491 176.386C146.71 176.386 145.957 176.855 145.957 177.793V178.545H145.076V179.256H145.957V184H146.795V179.256H148.016V178.545ZM151.182 184.114C152.659 184.114 153.654 182.991 153.654 181.301C153.654 179.597 152.659 178.474 151.182 178.474C149.705 178.474 148.711 179.597 148.711 181.301C148.711 182.991 149.705 184.114 151.182 184.114ZM151.182 183.361C150.06 183.361 149.549 182.395 149.549 181.301C149.549 180.207 150.06 179.227 151.182 179.227C152.304 179.227 152.816 180.207 152.816 181.301C152.816 182.395 152.304 183.361 151.182 183.361ZM154.933 184H155.771V180.548C155.771 179.81 156.354 179.27 157.149 179.27C157.373 179.27 157.604 179.312 157.66 179.327V178.474C157.564 178.467 157.344 178.46 157.22 178.46C156.567 178.46 155.998 178.83 155.8 179.369H155.743V178.545H154.933V184ZM161.466 184H162.304V181.958L162.89 181.415L164.932 184H165.998L163.522 180.875L165.827 178.545H164.79L162.404 180.974H162.304V176.727H161.466V184ZM166.906 184H167.744V178.545H166.906V184ZM167.332 177.636C167.659 177.636 167.928 177.381 167.928 177.068C167.928 176.756 167.659 176.5 167.332 176.5C167.005 176.5 166.735 176.756 166.735 177.068C166.735 177.381 167.005 177.636 167.332 177.636ZM171.651 178.545H170.486V177.239H169.648V178.545H168.824V179.256H169.648V182.665C169.648 183.616 170.415 184.071 171.125 184.071C171.438 184.071 171.637 184.014 171.75 183.972L171.58 183.219C171.509 183.233 171.395 183.261 171.211 183.261C170.841 183.261 170.486 183.148 170.486 182.438V179.256H171.651V178.545ZM175.069 184.114C176.276 184.114 177.072 183.375 177.214 182.409H176.376C176.219 183.006 175.722 183.361 175.069 183.361C174.075 183.361 173.435 182.537 173.435 181.273C173.435 180.037 174.089 179.227 175.069 179.227C175.808 179.227 176.248 179.682 176.376 180.179H177.214C177.072 179.156 176.205 178.474 175.055 178.474C173.577 178.474 172.597 179.639 172.597 181.301C172.597 182.935 173.535 184.114 175.069 184.114ZM179.277 180.719C179.277 179.767 179.884 179.227 180.712 179.227C181.5 179.227 181.976 179.724 181.976 180.591V184H182.814V180.534C182.814 179.131 182.068 178.474 180.953 178.474C180.094 178.474 179.604 178.833 179.348 179.398H179.277V176.727H178.439V184H179.277V180.719ZM186.634 184.114C187.742 184.114 188.552 183.56 188.807 182.736L187.998 182.509C187.785 183.077 187.291 183.361 186.634 183.361C185.65 183.361 184.972 182.725 184.933 181.557H188.893V181.202C188.893 179.17 187.685 178.474 186.549 178.474C185.072 178.474 184.091 179.639 184.091 181.315C184.091 182.991 185.057 184.114 186.634 184.114ZM184.933 180.832C184.99 179.984 185.59 179.227 186.549 179.227C187.458 179.227 188.04 179.909 188.04 180.832H184.933ZM191.006 180.719C191.006 179.767 191.595 179.227 192.398 179.227C193.175 179.227 193.648 179.735 193.648 180.591V184H194.486V180.534C194.486 179.142 193.743 178.474 192.639 178.474C191.815 178.474 191.304 178.844 191.048 179.398H190.977V178.545H190.167V184H191.006V180.719ZM66.983 196.114C68.1903 196.114 68.9858 195.375 69.1278 194.409H68.2898C68.1335 195.006 67.6364 195.361 66.983 195.361C65.9886 195.361 65.3494 194.537 65.3494 193.273C65.3494 192.037 66.0028 191.227 66.983 191.227C67.7216 191.227 68.1619 191.682 68.2898 192.179H69.1278C68.9858 191.156 68.1193 190.474 66.9688 190.474C65.4915 190.474 64.5114 191.639 64.5114 193.301C64.5114 194.935 65.4489 196.114 66.983 196.114ZM71.9581 196.128C72.9098 196.128 73.407 195.616 73.5774 195.261H73.62V196H74.4581V192.406C74.4581 190.673 73.1371 190.474 72.4411 190.474C71.6172 190.474 70.6797 190.759 70.2536 191.753L71.049 192.037C71.2337 191.639 71.6705 191.213 72.4695 191.213C73.2401 191.213 73.62 191.621 73.62 192.321V192.349C73.62 192.754 73.2081 192.719 72.2138 192.847C71.2017 192.978 70.0973 193.202 70.0973 194.452C70.0973 195.517 70.9212 196.128 71.9581 196.128ZM72.0859 195.375C71.4183 195.375 70.9354 195.077 70.9354 194.494C70.9354 193.855 71.5178 193.656 72.1712 193.571C72.5263 193.528 73.478 193.429 73.62 193.259V194.026C73.62 194.707 73.0803 195.375 72.0859 195.375ZM76.1014 196H76.911V195.162H77.0105C77.1951 195.46 77.5502 196.114 78.6014 196.114C79.965 196.114 80.9167 195.02 80.9167 193.287C80.9167 191.568 79.965 190.474 78.5872 190.474C77.5218 190.474 77.1951 191.128 77.0105 191.412H76.9395V188.727H76.1014V196ZM76.9252 193.273C76.9252 192.051 77.465 191.227 78.4877 191.227C79.5531 191.227 80.0787 192.122 80.0787 193.273C80.0787 194.438 79.5389 195.361 78.4877 195.361C77.4792 195.361 76.9252 194.509 76.9252 193.273ZM82.1987 196H83.0368V190.545H82.1987V196ZM82.6248 189.636C82.9515 189.636 83.2214 189.381 83.2214 189.068C83.2214 188.756 82.9515 188.5 82.6248 188.5C82.2981 188.5 82.0282 188.756 82.0282 189.068C82.0282 189.381 82.2981 189.636 82.6248 189.636ZM85.4098 192.719C85.4098 191.767 85.9993 191.227 86.8018 191.227C87.5795 191.227 88.0518 191.735 88.0518 192.591V196H88.8899V192.534C88.8899 191.142 88.1477 190.474 87.0433 190.474C86.2195 190.474 85.7081 190.844 85.4524 191.398H85.3814V190.545H84.5717V196H85.4098V192.719ZM92.7083 196.114C93.8162 196.114 94.6259 195.56 94.8816 194.736L94.0719 194.509C93.8588 195.077 93.3652 195.361 92.7083 195.361C91.7246 195.361 91.0463 194.725 91.0073 193.557H94.9668V193.202C94.9668 191.17 93.7594 190.474 92.623 190.474C91.1458 190.474 90.1657 191.639 90.1657 193.315C90.1657 194.991 91.1316 196.114 92.7083 196.114ZM91.0073 192.832C91.0641 191.984 91.6642 191.227 92.623 191.227C93.5321 191.227 94.1145 191.909 94.1145 192.832H91.0073ZM98.6138 190.545H97.449V189.239H96.611V190.545H95.7871V191.256H96.611V194.665C96.611 195.616 97.378 196.071 98.0882 196.071C98.4007 196.071 98.5996 196.014 98.7132 195.972L98.5428 195.219C98.4718 195.233 98.3581 195.261 98.1735 195.261C97.8042 195.261 97.449 195.148 97.449 194.438V191.256H98.6138V190.545ZM103.64 191.767C103.378 190.993 102.788 190.474 101.709 190.474C100.558 190.474 99.7058 191.128 99.7058 192.051C99.7058 192.804 100.153 193.308 101.155 193.543L102.064 193.756C102.614 193.884 102.873 194.146 102.873 194.523C102.873 194.991 102.376 195.375 101.595 195.375C100.91 195.375 100.48 195.08 100.331 194.494L99.5353 194.693C99.7306 195.62 100.494 196.114 101.609 196.114C102.877 196.114 103.74 195.421 103.74 194.48C103.74 193.72 103.264 193.241 102.291 193.003L101.481 192.804C100.835 192.644 100.544 192.428 100.544 192.009C100.544 191.54 101.041 191.199 101.709 191.199C102.44 191.199 102.742 191.604 102.888 191.98L103.64 191.767Z" fill="#98A9C6"/>
<path d="M289 208L64 208" stroke="#D9E5F8"/>
<circle cx="39" cy="174" r="6.25" stroke="#98A9C6" stroke-width="1.5"/>
<path d="M67.9716 225.455H66.5611V224.866C66.5611 224.287 66.7997 223.972 67.4219 223.972C67.6861 223.972 67.8736 224.031 67.9929 224.07L68.2912 223.038C68.1122 222.97 67.7415 222.864 67.2259 222.864C66.1903 222.864 65.2827 223.469 65.2827 224.696V225.455H64.2727V226.477H65.2827V232H66.5611V226.477H67.9716V225.455ZM69.2862 232H70.5604V225.455H69.2862V232ZM69.9297 224.445C70.3686 224.445 70.7351 224.104 70.7351 223.686C70.7351 223.268 70.3686 222.923 69.9297 222.923C69.4865 222.923 69.1243 223.268 69.1243 223.686C69.1243 224.104 69.4865 224.445 69.9297 224.445ZM73.5487 228.114C73.5487 227.07 74.1879 226.473 75.0742 226.473C75.9393 226.473 76.4634 227.04 76.4634 227.99V232H77.7376V227.837C77.7376 226.217 76.8469 225.369 75.5089 225.369C74.5245 225.369 73.881 225.825 73.5785 226.52H73.4975V225.455H72.2745V232H73.5487V228.114ZM79.4464 232H80.7205V225.455H79.4464V232ZM80.0898 224.445C80.5288 224.445 80.8952 224.104 80.8952 223.686C80.8952 223.268 80.5288 222.923 80.0898 222.923C79.6467 222.923 79.2844 223.268 79.2844 223.686C79.2844 224.104 79.6467 224.445 80.0898 224.445ZM87.3395 227.053C87.0753 226.034 86.2784 225.369 84.8636 225.369C83.3849 225.369 82.3366 226.149 82.3366 227.308C82.3366 228.237 82.8991 228.855 84.1264 229.128L85.2344 229.371C85.8651 229.511 86.1591 229.793 86.1591 230.202C86.1591 230.709 85.6179 231.105 84.7827 231.105C84.0199 231.105 83.5298 230.777 83.3764 230.134L82.1449 230.321C82.358 231.48 83.321 232.132 84.7912 232.132C86.3722 232.132 87.4673 231.293 87.4673 230.108C87.4673 229.183 86.8793 228.612 85.6776 228.335L84.6378 228.097C83.9176 227.926 83.6065 227.683 83.6108 227.24C83.6065 226.737 84.152 226.379 84.8764 226.379C85.669 226.379 86.0355 226.818 86.1847 227.257L87.3395 227.053ZM90.1424 228.114C90.1424 227.07 90.8029 226.473 91.7106 226.473C92.5884 226.473 93.1126 227.031 93.1126 227.99V232H94.3867V227.837C94.3867 226.205 93.4918 225.369 92.1452 225.369C91.1268 225.369 90.5131 225.812 90.2063 226.52H90.1254V223.273H88.8683V232H90.1424V228.114ZM101.713 232.128C102.906 232.128 103.375 231.399 103.605 230.982H103.712V232H104.956V223.273H103.682V226.516H103.605C103.375 226.111 102.94 225.369 101.722 225.369C100.141 225.369 98.9773 226.618 98.9773 228.74C98.9773 230.858 100.124 232.128 101.713 232.128ZM101.994 231.041C100.857 231.041 100.264 230.04 100.264 228.727C100.264 227.428 100.844 226.452 101.994 226.452C103.107 226.452 103.703 227.359 103.703 228.727C103.703 230.104 103.094 231.041 101.994 231.041ZM110.921 229.286C110.925 230.398 110.098 230.926 109.382 230.926C108.594 230.926 108.049 230.355 108.049 229.464V225.455H106.775V229.618C106.775 231.241 107.665 232.085 108.922 232.085C109.907 232.085 110.576 231.565 110.878 230.866H110.946V232H112.199V225.455H110.921V229.286ZM116.732 232.132C118.16 232.132 119.17 231.429 119.46 230.364L118.254 230.146C118.023 230.764 117.469 231.08 116.745 231.08C115.654 231.08 114.921 230.372 114.887 229.111H119.54V228.659C119.54 226.294 118.126 225.369 116.643 225.369C114.819 225.369 113.617 226.759 113.617 228.77C113.617 230.803 114.802 232.132 116.732 232.132ZM114.891 228.156C114.942 227.227 115.616 226.422 116.651 226.422C117.64 226.422 118.288 227.155 118.292 228.156H114.891ZM129.035 227.053C128.771 226.034 127.974 225.369 126.559 225.369C125.08 225.369 124.032 226.149 124.032 227.308C124.032 228.237 124.594 228.855 125.822 229.128L126.93 229.371C127.56 229.511 127.854 229.793 127.854 230.202C127.854 230.709 127.313 231.105 126.478 231.105C125.715 231.105 125.225 230.777 125.072 230.134L123.84 230.321C124.053 231.48 125.016 232.132 126.487 232.132C128.067 232.132 129.163 231.293 129.163 230.108C129.163 229.183 128.575 228.612 127.373 228.335L126.333 228.097C125.613 227.926 125.302 227.683 125.306 227.24C125.302 226.737 125.847 226.379 126.572 226.379C127.364 226.379 127.731 226.818 127.88 227.257L129.035 227.053ZM133.321 232.132C135.166 232.132 136.372 230.781 136.372 228.757C136.372 226.72 135.166 225.369 133.321 225.369C131.475 225.369 130.27 226.72 130.27 228.757C130.27 230.781 131.475 232.132 133.321 232.132ZM133.325 231.062C132.119 231.062 131.556 230.01 131.556 228.753C131.556 227.5 132.119 226.435 133.325 226.435C134.522 226.435 135.085 227.5 135.085 228.753C135.085 230.01 134.522 231.062 133.325 231.062ZM140.551 232.132C142.396 232.132 143.602 230.781 143.602 228.757C143.602 226.72 142.396 225.369 140.551 225.369C138.706 225.369 137.5 226.72 137.5 228.757C137.5 230.781 138.706 232.132 140.551 232.132ZM140.555 231.062C139.349 231.062 138.787 230.01 138.787 228.753C138.787 227.5 139.349 226.435 140.555 226.435C141.753 226.435 142.315 227.5 142.315 228.753C142.315 230.01 141.753 231.062 140.555 231.062ZM146.299 228.114C146.299 227.07 146.938 226.473 147.824 226.473C148.689 226.473 149.213 227.04 149.213 227.99V232H150.488V227.837C150.488 226.217 149.597 225.369 148.259 225.369C147.275 225.369 146.631 225.825 146.328 226.52H146.248V225.455H145.025V232H146.299V228.114ZM160.277 227.053C160.013 226.034 159.216 225.369 157.801 225.369C156.322 225.369 155.274 226.149 155.274 227.308C155.274 228.237 155.837 228.855 157.064 229.128L158.172 229.371C158.803 229.511 159.097 229.793 159.097 230.202C159.097 230.709 158.555 231.105 157.72 231.105C156.957 231.105 156.467 230.777 156.314 230.134L155.082 230.321C155.295 231.48 156.259 232.132 157.729 232.132C159.31 232.132 160.405 231.293 160.405 230.108C160.405 229.183 159.817 228.612 158.615 228.335L157.575 228.097C156.855 227.926 156.544 227.683 156.548 227.24C156.544 226.737 157.089 226.379 157.814 226.379C158.607 226.379 158.973 226.818 159.122 227.257L160.277 227.053ZM165.952 229.286C165.956 230.398 165.13 230.926 164.414 230.926C163.625 230.926 163.08 230.355 163.08 229.464V225.455H161.806V229.618C161.806 231.241 162.696 232.085 163.953 232.085C164.938 232.085 165.607 231.565 165.909 230.866H165.978V232H167.23V225.455H165.952V229.286ZM169.045 232H170.289V230.982H170.396C170.626 231.399 171.094 232.128 172.288 232.128C173.873 232.128 175.023 230.858 175.023 228.74C175.023 226.618 173.856 225.369 172.275 225.369C171.06 225.369 170.621 226.111 170.396 226.516H170.319V223.273H169.045V232ZM170.293 228.727C170.293 227.359 170.89 226.452 172.002 226.452C173.157 226.452 173.737 227.428 173.737 228.727C173.737 230.04 173.14 231.041 172.002 231.041C170.907 231.041 170.293 230.104 170.293 228.727ZM176.454 232H177.728V227.964C177.728 227.082 178.346 226.469 179.071 226.469C179.778 226.469 180.268 226.938 180.268 227.649V232H181.538V227.828C181.538 227.04 182.02 226.469 182.85 226.469C183.524 226.469 184.078 226.844 184.078 227.73V232H185.352V227.611C185.352 226.115 184.517 225.369 183.332 225.369C182.39 225.369 181.683 225.821 181.368 226.52H181.299C181.014 225.804 180.413 225.369 179.539 225.369C178.674 225.369 178.031 225.8 177.758 226.52H177.677V225.455H176.454V232ZM187.06 232H188.334V225.455H187.06V232ZM187.703 224.445C188.142 224.445 188.509 224.104 188.509 223.686C188.509 223.268 188.142 222.923 187.703 222.923C187.26 222.923 186.898 223.268 186.898 223.686C186.898 224.104 187.26 224.445 187.703 224.445ZM193.103 225.455H191.761V223.886H190.487V225.455H189.528V226.477H190.487V230.342C190.483 231.531 191.39 232.107 192.396 232.085C192.801 232.081 193.074 232.004 193.223 231.949L192.993 230.896C192.907 230.913 192.75 230.952 192.545 230.952C192.132 230.952 191.761 230.815 191.761 230.078V226.477H193.103V225.455ZM197.568 225.455H196.226V223.886H194.952V225.455H193.993V226.477H194.952V230.342C194.947 231.531 195.855 232.107 196.861 232.085C197.266 232.081 197.538 232.004 197.688 231.949L197.457 230.896C197.372 230.913 197.214 230.952 197.01 230.952C196.597 230.952 196.226 230.815 196.226 230.078V226.477H197.568V225.455ZM200.882 232.145C201.965 232.145 202.574 231.595 202.817 231.105H202.868V232H204.113V227.653C204.113 225.749 202.613 225.369 201.573 225.369C200.388 225.369 199.297 225.847 198.871 227.04L200.069 227.312C200.256 226.848 200.733 226.401 201.59 226.401C202.412 226.401 202.834 226.831 202.834 227.572V227.602C202.834 228.067 202.357 228.058 201.181 228.195C199.941 228.339 198.671 228.663 198.671 230.151C198.671 231.438 199.638 232.145 200.882 232.145ZM201.159 231.122C200.439 231.122 199.919 230.798 199.919 230.168C199.919 229.486 200.525 229.243 201.262 229.145C201.675 229.089 202.655 228.979 202.838 228.795V229.639C202.838 230.415 202.221 231.122 201.159 231.122ZM207.084 223.273H205.81V232H207.084V223.273ZM213.703 227.053C213.439 226.034 212.642 225.369 211.227 225.369C209.748 225.369 208.7 226.149 208.7 227.308C208.7 228.237 209.262 228.855 210.49 229.128L211.598 229.371C212.228 229.511 212.522 229.793 212.522 230.202C212.522 230.709 211.981 231.105 211.146 231.105C210.383 231.105 209.893 230.777 209.74 230.134L208.508 230.321C208.721 231.48 209.684 232.132 211.154 232.132C212.735 232.132 213.831 231.293 213.831 230.108C213.831 229.183 213.243 228.612 212.041 228.335L211.001 228.097C210.281 227.926 209.97 227.683 209.974 227.24C209.97 226.737 210.515 226.379 211.24 226.379C212.032 226.379 212.399 226.818 212.548 227.257L213.703 227.053Z" fill="#98A9C6"/>
<path d="M289 276L8 276" stroke="#D9E5F8"/>
<circle cx="39" cy="238" r="6.25" stroke="#98A9C6" stroke-width="1.5"/>
<path d="M64.767 250H65.6051V246.591C65.6051 245.792 66.1875 245.227 66.8409 245.227C67.4766 245.227 67.9205 245.643 67.9205 246.264V250H68.7727V246.449C68.7727 245.746 69.2131 245.227 69.9801 245.227C70.5767 245.227 71.0881 245.543 71.0881 246.349V250H71.9261V246.349C71.9261 245.067 71.2372 244.474 70.2642 244.474C69.483 244.474 68.9112 244.833 68.6307 245.398H68.5739C68.304 244.815 67.8281 244.474 67.1108 244.474C66.4006 244.474 65.875 244.815 65.6477 245.398H65.5767V244.545H64.767V250ZM75.0636 250.128C76.0153 250.128 76.5124 249.616 76.6829 249.261H76.7255V250H77.5636V246.406C77.5636 244.673 76.2425 244.474 75.5465 244.474C74.7227 244.474 73.7852 244.759 73.359 245.753L74.1545 246.037C74.3391 245.639 74.7759 245.213 75.5749 245.213C76.3455 245.213 76.7255 245.621 76.7255 246.321V246.349C76.7255 246.754 76.3136 246.719 75.3192 246.847C74.3072 246.978 73.2028 247.202 73.2028 248.452C73.2028 249.517 74.0266 250.128 75.0636 250.128ZM75.1914 249.375C74.5238 249.375 74.0408 249.077 74.0408 248.494C74.0408 247.855 74.6232 247.656 75.2766 247.571C75.6317 247.528 76.5835 247.429 76.7255 247.259V248.026C76.7255 248.707 76.1857 249.375 75.1914 249.375ZM79.0932 244.545V250.398C79.0932 250.952 78.8659 251.264 78.3546 251.264H78.1983V252.045H78.3688C79.4199 252.045 79.9313 251.406 79.9313 250.398V244.545H79.0932ZM79.5051 243.636C79.8319 243.636 80.1017 243.381 80.1017 243.068C80.1017 242.756 79.8319 242.5 79.5051 242.5C79.1784 242.5 78.9086 242.756 78.9086 243.068C78.9086 243.381 79.1784 243.636 79.5051 243.636ZM83.6822 250.114C85.1594 250.114 86.1538 248.991 86.1538 247.301C86.1538 245.597 85.1594 244.474 83.6822 244.474C82.2049 244.474 81.2106 245.597 81.2106 247.301C81.2106 248.991 82.2049 250.114 83.6822 250.114ZM83.6822 249.361C82.56 249.361 82.0487 248.395 82.0487 247.301C82.0487 246.207 82.56 245.227 83.6822 245.227C84.8043 245.227 85.3157 246.207 85.3157 247.301C85.3157 248.395 84.8043 249.361 83.6822 249.361ZM87.4331 250H88.2711V246.548C88.2711 245.81 88.8535 245.27 89.649 245.27C89.8727 245.27 90.1035 245.312 90.1603 245.327V244.474C90.0645 244.467 89.8443 244.46 89.72 244.46C89.0666 244.46 88.4984 244.83 88.2995 245.369H88.2427V244.545H87.4331V250ZM97.8299 245.767C97.5671 244.993 96.9776 244.474 95.8981 244.474C94.7475 244.474 93.8952 245.128 93.8952 246.051C93.8952 246.804 94.3427 247.308 95.3441 247.543L96.2532 247.756C96.8036 247.884 97.0629 248.146 97.0629 248.523C97.0629 248.991 96.5657 249.375 95.7844 249.375C95.0991 249.375 94.6694 249.08 94.5202 248.494L93.7248 248.693C93.9201 249.62 94.6836 250.114 95.7987 250.114C97.0664 250.114 97.9293 249.421 97.9293 248.48C97.9293 247.72 97.4535 247.241 96.4805 247.003L95.6708 246.804C95.0245 246.644 94.7333 246.428 94.7333 246.009C94.7333 245.54 95.2305 245.199 95.8981 245.199C96.6296 245.199 96.9315 245.604 97.0771 245.98L97.8299 245.767ZM102.628 247.77C102.628 248.793 101.847 249.261 101.222 249.261C100.526 249.261 100.029 248.75 100.029 247.955V244.545H99.1909V248.011C99.1909 249.403 99.9295 250.071 100.952 250.071C101.776 250.071 102.316 249.631 102.572 249.077H102.628V250H103.466V244.545H102.628V247.77ZM105.115 250H105.925V249.162H106.024C106.209 249.46 106.564 250.114 107.615 250.114C108.979 250.114 109.93 249.02 109.93 247.287C109.93 245.568 108.979 244.474 107.601 244.474C106.536 244.474 106.209 245.128 106.024 245.412H105.953V242.727H105.115V250ZM105.939 247.273C105.939 246.051 106.479 245.227 107.501 245.227C108.567 245.227 109.092 246.122 109.092 247.273C109.092 248.438 108.553 249.361 107.501 249.361C106.493 249.361 105.939 248.509 105.939 247.273ZM111.212 250H112.05V246.591C112.05 245.792 112.633 245.227 113.286 245.227C113.922 245.227 114.366 245.643 114.366 246.264V250H115.218V246.449C115.218 245.746 115.658 245.227 116.425 245.227C117.022 245.227 117.533 245.543 117.533 246.349V250H118.371V246.349C118.371 245.067 117.683 244.474 116.71 244.474C115.928 244.474 115.357 244.833 115.076 245.398H115.019C114.749 244.815 114.273 244.474 113.556 244.474C112.846 244.474 112.32 244.815 112.093 245.398H112.022V244.545H111.212V250ZM119.904 250H120.742V244.545H119.904V250ZM120.33 243.636C120.657 243.636 120.926 243.381 120.926 243.068C120.926 242.756 120.657 242.5 120.33 242.5C120.003 242.5 119.733 242.756 119.733 243.068C119.733 243.381 120.003 243.636 120.33 243.636ZM124.649 244.545H123.484V243.239H122.646V244.545H121.822V245.256H122.646V248.665C122.646 249.616 123.413 250.071 124.123 250.071C124.436 250.071 124.635 250.014 124.748 249.972L124.578 249.219C124.507 249.233 124.393 249.261 124.209 249.261C123.839 249.261 123.484 249.148 123.484 248.438V245.256H124.649V244.545ZM128.282 244.545H127.117V243.239H126.279V244.545H125.455V245.256H126.279V248.665C126.279 249.616 127.046 250.071 127.756 250.071C128.069 250.071 128.268 250.014 128.381 249.972L128.211 249.219C128.14 249.233 128.026 249.261 127.841 249.261C127.472 249.261 127.117 249.148 127.117 248.438V245.256H128.282V244.545ZM131.148 250.128C132.099 250.128 132.596 249.616 132.767 249.261H132.809V250H133.648V246.406C133.648 244.673 132.327 244.474 131.631 244.474C130.807 244.474 129.869 244.759 129.443 245.753L130.238 246.037C130.423 245.639 130.86 245.213 131.659 245.213C132.43 245.213 132.809 245.621 132.809 246.321V246.349C132.809 246.754 132.398 246.719 131.403 246.847C130.391 246.978 129.287 247.202 129.287 248.452C129.287 249.517 130.111 250.128 131.148 250.128ZM131.275 249.375C130.608 249.375 130.125 249.077 130.125 248.494C130.125 247.855 130.707 247.656 131.361 247.571C131.716 247.528 132.667 247.429 132.809 247.259V248.026C132.809 248.707 132.27 249.375 131.275 249.375ZM136.015 242.727H135.177V250H136.015V242.727ZM141.414 245.767C141.151 244.993 140.562 244.474 139.482 244.474C138.331 244.474 137.479 245.128 137.479 246.051C137.479 246.804 137.927 247.308 138.928 247.543L139.837 247.756C140.388 247.884 140.647 248.146 140.647 248.523C140.647 248.991 140.15 249.375 139.368 249.375C138.683 249.375 138.253 249.08 138.104 248.494L137.309 248.693C137.504 249.62 138.268 250.114 139.383 250.114C140.65 250.114 141.513 249.421 141.513 248.48C141.513 247.72 141.037 247.241 140.064 247.003L139.255 246.804C138.608 246.644 138.317 246.428 138.317 246.009C138.317 245.54 138.814 245.199 139.482 245.199C140.214 245.199 140.515 245.604 140.661 245.98L141.414 245.767ZM148.016 244.545H146.795V243.991C146.795 243.452 147.022 243.168 147.576 243.168C147.817 243.168 147.96 243.224 148.045 243.253L148.286 242.528C148.158 242.472 147.903 242.386 147.491 242.386C146.71 242.386 145.957 242.855 145.957 243.793V244.545H145.076V245.256H145.957V250H146.795V245.256H148.016V244.545ZM151.182 250.114C152.659 250.114 153.654 248.991 153.654 247.301C153.654 245.597 152.659 244.474 151.182 244.474C149.705 244.474 148.711 245.597 148.711 247.301C148.711 248.991 149.705 250.114 151.182 250.114ZM151.182 249.361C150.06 249.361 149.549 248.395 149.549 247.301C149.549 246.207 150.06 245.227 151.182 245.227C152.304 245.227 152.816 246.207 152.816 247.301C152.816 248.395 152.304 249.361 151.182 249.361ZM154.933 250H155.771V246.548C155.771 245.81 156.354 245.27 157.149 245.27C157.373 245.27 157.604 245.312 157.66 245.327V244.474C157.564 244.467 157.344 244.46 157.22 244.46C156.567 244.46 155.998 244.83 155.8 245.369H155.743V244.545H154.933V250ZM161.466 250H162.304V247.958L162.89 247.415L164.932 250H165.998L163.522 246.875L165.827 244.545H164.79L162.404 246.974H162.304V242.727H161.466V250ZM166.906 250H167.744V244.545H166.906V250ZM167.332 243.636C167.659 243.636 167.928 243.381 167.928 243.068C167.928 242.756 167.659 242.5 167.332 242.5C167.005 242.5 166.735 242.756 166.735 243.068C166.735 243.381 167.005 243.636 167.332 243.636ZM171.651 244.545H170.486V243.239H169.648V244.545H168.824V245.256H169.648V248.665C169.648 249.616 170.415 250.071 171.125 250.071C171.438 250.071 171.637 250.014 171.75 249.972L171.58 249.219C171.509 249.233 171.395 249.261 171.211 249.261C170.841 249.261 170.486 249.148 170.486 248.438V245.256H171.651V244.545ZM175.069 250.114C176.276 250.114 177.072 249.375 177.214 248.409H176.376C176.219 249.006 175.722 249.361 175.069 249.361C174.075 249.361 173.435 248.537 173.435 247.273C173.435 246.037 174.089 245.227 175.069 245.227C175.808 245.227 176.248 245.682 176.376 246.179H177.214C177.072 245.156 176.205 244.474 175.055 244.474C173.577 244.474 172.597 245.639 172.597 247.301C172.597 248.935 173.535 250.114 175.069 250.114ZM179.277 246.719C179.277 245.767 179.884 245.227 180.712 245.227C181.5 245.227 181.976 245.724 181.976 246.591V250H182.814V246.534C182.814 245.131 182.068 244.474 180.953 244.474C180.094 244.474 179.604 244.833 179.348 245.398H179.277V242.727H178.439V250H179.277V246.719ZM186.634 250.114C187.742 250.114 188.552 249.56 188.807 248.736L187.998 248.509C187.785 249.077 187.291 249.361 186.634 249.361C185.65 249.361 184.972 248.725 184.933 247.557H188.893V247.202C188.893 245.17 187.685 244.474 186.549 244.474C185.072 244.474 184.091 245.639 184.091 247.315C184.091 248.991 185.057 250.114 186.634 250.114ZM184.933 246.832C184.99 245.984 185.59 245.227 186.549 245.227C187.458 245.227 188.04 245.909 188.04 246.832H184.933ZM191.006 246.719C191.006 245.767 191.595 245.227 192.398 245.227C193.175 245.227 193.648 245.735 193.648 246.591V250H194.486V246.534C194.486 245.142 193.743 244.474 192.639 244.474C191.815 244.474 191.304 244.844 191.048 245.398H190.977V244.545H190.167V250H191.006V246.719ZM66.983 262.114C68.1903 262.114 68.9858 261.375 69.1278 260.409H68.2898C68.1335 261.006 67.6364 261.361 66.983 261.361C65.9886 261.361 65.3494 260.537 65.3494 259.273C65.3494 258.037 66.0028 257.227 66.983 257.227C67.7216 257.227 68.1619 257.682 68.2898 258.179H69.1278C68.9858 257.156 68.1193 256.474 66.9688 256.474C65.4915 256.474 64.5114 257.639 64.5114 259.301C64.5114 260.935 65.4489 262.114 66.983 262.114ZM71.9581 262.128C72.9098 262.128 73.407 261.616 73.5774 261.261H73.62V262H74.4581V258.406C74.4581 256.673 73.1371 256.474 72.4411 256.474C71.6172 256.474 70.6797 256.759 70.2536 257.753L71.049 258.037C71.2337 257.639 71.6705 257.213 72.4695 257.213C73.2401 257.213 73.62 257.621 73.62 258.321V258.349C73.62 258.754 73.2081 258.719 72.2138 258.847C71.2017 258.978 70.0973 259.202 70.0973 260.452C70.0973 261.517 70.9212 262.128 71.9581 262.128ZM72.0859 261.375C71.4183 261.375 70.9354 261.077 70.9354 260.494C70.9354 259.855 71.5178 259.656 72.1712 259.571C72.5263 259.528 73.478 259.429 73.62 259.259V260.026C73.62 260.707 73.0803 261.375 72.0859 261.375ZM76.1014 262H76.911V261.162H77.0105C77.1951 261.46 77.5502 262.114 78.6014 262.114C79.965 262.114 80.9167 261.02 80.9167 259.287C80.9167 257.568 79.965 256.474 78.5872 256.474C77.5218 256.474 77.1951 257.128 77.0105 257.412H76.9395V254.727H76.1014V262ZM76.9252 259.273C76.9252 258.051 77.465 257.227 78.4877 257.227C79.5531 257.227 80.0787 258.122 80.0787 259.273C80.0787 260.438 79.5389 261.361 78.4877 261.361C77.4792 261.361 76.9252 260.509 76.9252 259.273ZM82.1987 262H83.0368V256.545H82.1987V262ZM82.6248 255.636C82.9515 255.636 83.2214 255.381 83.2214 255.068C83.2214 254.756 82.9515 254.5 82.6248 254.5C82.2981 254.5 82.0282 254.756 82.0282 255.068C82.0282 255.381 82.2981 255.636 82.6248 255.636ZM85.4098 258.719C85.4098 257.767 85.9993 257.227 86.8018 257.227C87.5795 257.227 88.0518 257.735 88.0518 258.591V262H88.8899V258.534C88.8899 257.142 88.1477 256.474 87.0433 256.474C86.2195 256.474 85.7081 256.844 85.4524 257.398H85.3814V256.545H84.5717V262H85.4098V258.719ZM92.7083 262.114C93.8162 262.114 94.6259 261.56 94.8816 260.736L94.0719 260.509C93.8588 261.077 93.3652 261.361 92.7083 261.361C91.7246 261.361 91.0463 260.725 91.0073 259.557H94.9668V259.202C94.9668 257.17 93.7594 256.474 92.623 256.474C91.1458 256.474 90.1657 257.639 90.1657 259.315C90.1657 260.991 91.1316 262.114 92.7083 262.114ZM91.0073 258.832C91.0641 257.984 91.6642 257.227 92.623 257.227C93.5321 257.227 94.1145 257.909 94.1145 258.832H91.0073ZM98.6138 256.545H97.449V255.239H96.611V256.545H95.7871V257.256H96.611V260.665C96.611 261.616 97.378 262.071 98.0882 262.071C98.4007 262.071 98.5996 262.014 98.7132 261.972L98.5428 261.219C98.4718 261.233 98.3581 261.261 98.1735 261.261C97.8042 261.261 97.449 261.148 97.449 260.438V257.256H98.6138V256.545ZM103.64 257.767C103.378 256.993 102.788 256.474 101.709 256.474C100.558 256.474 99.7058 257.128 99.7058 258.051C99.7058 258.804 100.153 259.308 101.155 259.543L102.064 259.756C102.614 259.884 102.873 260.146 102.873 260.523C102.873 260.991 102.376 261.375 101.595 261.375C100.91 261.375 100.48 261.08 100.331 260.494L99.5353 260.693C99.7306 261.62 100.494 262.114 101.609 262.114C102.877 262.114 103.74 261.421 103.74 260.48C103.74 259.72 103.264 259.241 102.291 259.003L101.481 258.804C100.835 258.644 100.544 258.428 100.544 258.009C100.544 257.54 101.041 257.199 101.709 257.199C102.44 257.199 102.742 257.604 102.888 257.98L103.64 257.767Z" fill="#98A9C6"/>
<defs>
<filter id="filter0_d" x="0" y="0" width="297" height="846" filterUnits="userSpaceOnUse" color-interpolation-filters="sRGB">
<feFlood flood-opacity="0" result="BackgroundImageFix"/>
<feColorMatrix in="SourceAlpha" type="matrix" values="0 0 0 0 0 0 0 0 0 0 0 0 0 0 0 0 0 0 127 0"/>
<feOffset/>
<feGaussianBlur stdDeviation="4"/>
<feColorMatrix type="matrix" values="0 0 0 0 0.385 0 0 0 0 0.445978 0 0 0 0 0.55 0 0 0 0.19 0"/>
<feBlend mode="normal" in2="BackgroundImageFix" result="effect1_dropShadow"/>
<feBlend mode="normal" in="SourceGraphic" in2="effect1_dropShadow" result="shape"/>
</filter>
</defs>
</svg>
