<svg width="986" height="723" viewBox="0 0 986 723" fill="none" xmlns="http://www.w3.org/2000/svg">
<rect x="752" y="10" width="24" height="66" rx="12" transform="rotate(90 752 10)" fill="#A3DCF9"/>
<rect x="141" y="608" width="24" height="159" rx="12" transform="rotate(-180 141 608)" fill="#A3DCF9"/>
<rect x="808" y="608" width="24" height="218" rx="12" transform="rotate(-180 808 608)" fill="#A3DCF9"/>
<rect x="323" y="608" width="24" height="25" rx="12" transform="rotate(-180 323 608)" fill="#A3DCF9"/>
<rect x="538" y="608" width="24" height="57" rx="12" transform="rotate(-180 538 608)" fill="#A3DCF9"/>
<rect x="182" y="608" width="24" height="373" rx="12" transform="rotate(-180 182 608)" fill="#FF8F87"/>
<rect x="849" y="608" width="24" height="381" rx="12" transform="rotate(-180 849 608)" fill="#FF8F87"/>
<rect x="364" y="608" width="24" height="114" rx="12" transform="rotate(-180 364 608)" fill="#FF8F87"/>
<rect x="579" y="608" width="24" height="168" rx="12" transform="rotate(-180 579 608)" fill="#FF8F87"/>
<rect x="752" y="58" width="24" height="66" rx="12" transform="rotate(90 752 58)" fill="#FF8F87"/>
<path d="M780.836 26.2969C780.721 27.5104 780.273 28.4583 779.492 29.1406C778.711 29.8177 777.672 30.1562 776.375 30.1562C775.469 30.1562 774.669 29.9427 773.977 29.5156C773.289 29.0833 772.758 28.4714 772.383 27.6797C772.008 26.888 771.812 25.9688 771.797 24.9219V23.8594C771.797 22.7865 771.987 21.8411 772.367 21.0234C772.747 20.2057 773.292 19.5755 774 19.1328C774.714 18.6901 775.536 18.4688 776.469 18.4688C777.724 18.4688 778.734 18.8099 779.5 19.4922C780.266 20.1745 780.711 21.138 780.836 22.3828H778.867C778.773 21.5651 778.534 20.9766 778.148 20.6172C777.768 20.2526 777.208 20.0703 776.469 20.0703C775.609 20.0703 774.948 20.3854 774.484 21.0156C774.026 21.6406 773.792 22.5599 773.781 23.7734V24.7812C773.781 26.0104 774 26.9479 774.438 27.5938C774.88 28.2396 775.526 28.5625 776.375 28.5625C777.151 28.5625 777.734 28.388 778.125 28.0391C778.516 27.6901 778.763 27.1094 778.867 26.2969H780.836ZM791.688 24.6094C791.688 25.724 791.495 26.7031 791.109 27.5469C790.724 28.3854 790.172 29.0312 789.453 29.4844C788.74 29.9323 787.917 30.1562 786.984 30.1562C786.062 30.1562 785.24 29.9323 784.516 29.4844C783.797 29.0312 783.24 28.388 782.844 27.5547C782.453 26.7214 782.255 25.7604 782.25 24.6719V24.0312C782.25 22.9219 782.445 21.9427 782.836 21.0938C783.232 20.2448 783.786 19.5964 784.5 19.1484C785.219 18.6953 786.042 18.4688 786.969 18.4688C787.896 18.4688 788.716 18.6927 789.43 19.1406C790.148 19.5833 790.703 20.224 791.094 21.0625C791.484 21.8958 791.682 22.8672 791.688 23.9766V24.6094ZM789.711 24.0156C789.711 22.7552 789.471 21.7891 788.992 21.1172C788.518 20.4453 787.844 20.1094 786.969 20.1094C786.115 20.1094 785.445 20.4453 784.961 21.1172C784.482 21.7839 784.237 22.7292 784.227 23.9531V24.6094C784.227 25.8594 784.469 26.8255 784.953 27.5078C785.443 28.1901 786.12 28.5312 786.984 28.5312C787.859 28.5312 788.531 28.1979 789 27.5312C789.474 26.8646 789.711 25.8906 789.711 24.6094V24.0156ZM802.68 30H800.703L795.633 21.9297V30H793.656V18.625H795.633L800.719 26.7266V18.625H802.68V30ZM813 20.2188H809.453V30H807.492V20.2188H803.977V18.625H813V20.2188ZM821.148 24.9219H816.477V28.4219H821.938V30H814.5V18.625H821.883V20.2188H816.477V23.3594H821.148V24.9219ZM832.57 30H830.594L825.523 21.9297V30H823.547V18.625H825.523L830.609 26.7266V18.625H832.57V30ZM842.891 20.2188H839.344V30H837.383V20.2188H833.867V18.625H842.891V20.2188ZM851.914 27.5234L854.805 18.625H856.977L852.883 30H850.969L846.891 18.625H849.055L851.914 27.5234ZM860.352 30H858.383V18.625H860.352V30ZM869.43 24.9219H864.758V28.4219H870.219V30H862.781V18.625H870.164V20.2188H864.758V23.3594H869.43V24.9219ZM880.75 27.1875L882.5 18.625H884.461L881.836 30H879.945L877.781 21.6953L875.57 30H873.672L871.047 18.625H873.008L874.773 27.1719L876.945 18.625H878.602L880.75 27.1875ZM894.07 25.6172H891.867V30H889.891V18.625H893.891C895.203 18.625 896.216 18.9193 896.93 19.5078C897.643 20.0964 898 20.9479 898 22.0625C898 22.8229 897.815 23.4609 897.445 23.9766C897.081 24.487 896.57 24.8802 895.914 25.1562L898.469 29.8984V30H896.352L894.07 25.6172ZM891.867 24.0312H893.898C894.565 24.0312 895.086 23.8646 895.461 23.5312C895.836 23.1927 896.023 22.7318 896.023 22.1484C896.023 21.5391 895.849 21.0677 895.5 20.7344C895.156 20.401 894.641 20.2292 893.953 20.2188H891.867V24.0312ZM906.242 27.3516H901.836L900.914 30H898.859L903.156 18.625H904.93L909.234 30H907.172L906.242 27.3516ZM902.391 25.7578H905.688L904.039 21.0391L902.391 25.7578ZM917.812 20.2188H914.266V30H912.305V20.2188H908.789V18.625H917.812V20.2188ZM925.961 24.9219H921.289V28.4219H926.75V30H919.312V18.625H926.695V20.2188H921.289V23.3594H925.961V24.9219Z" fill="#333333"/>
<path d="M774.133 71.7734V76H772.156V64.625H776.508C777.779 64.625 778.786 64.9557 779.531 65.6172C780.281 66.2786 780.656 67.1536 780.656 68.2422C780.656 69.3568 780.289 70.224 779.555 70.8438C778.826 71.4635 777.802 71.7734 776.484 71.7734H774.133ZM774.133 70.1875H776.508C777.211 70.1875 777.747 70.0234 778.117 69.6953C778.487 69.362 778.672 68.8828 778.672 68.2578C778.672 67.6432 778.484 67.1536 778.109 66.7891C777.734 66.4193 777.219 66.2292 776.562 66.2188H774.133V70.1875ZM787.367 73.3516H782.961L782.039 76H779.984L784.281 64.625H786.055L790.359 76H788.297L787.367 73.3516ZM783.516 71.7578H786.812L785.164 67.0391L783.516 71.7578ZM800.203 74.5234C799.792 75.0599 799.221 75.4661 798.492 75.7422C797.763 76.0182 796.935 76.1562 796.008 76.1562C795.055 76.1562 794.211 75.9401 793.477 75.5078C792.742 75.0755 792.174 74.4583 791.773 73.6562C791.378 72.849 791.172 71.9089 791.156 70.8359V69.9453C791.156 68.2266 791.568 66.8854 792.391 65.9219C793.214 64.9531 794.362 64.4688 795.836 64.4688C797.102 64.4688 798.107 64.7812 798.852 65.4062C799.596 66.0312 800.044 66.9323 800.195 68.1094H798.258C798.039 66.7396 797.245 66.0547 795.875 66.0547C794.99 66.0547 794.315 66.375 793.852 67.0156C793.393 67.651 793.156 68.5859 793.141 69.8203V70.6953C793.141 71.9245 793.398 72.8802 793.914 73.5625C794.435 74.2396 795.156 74.5781 796.078 74.5781C797.089 74.5781 797.807 74.349 798.234 73.8906V71.6641H795.891V70.1641H800.203V74.5234ZM809.023 70.9219H804.352V74.4219H809.812V76H802.375V64.625H809.758V66.2188H804.352V69.3594H809.023V70.9219ZM823.156 66.2188H819.609V76H817.648V66.2188H814.133V64.625H823.156V66.2188ZM828.836 71.6172H826.633V76H824.656V64.625H828.656C829.969 64.625 830.982 64.9193 831.695 65.5078C832.409 66.0964 832.766 66.9479 832.766 68.0625C832.766 68.8229 832.581 69.4609 832.211 69.9766C831.846 70.487 831.336 70.8802 830.68 71.1562L833.234 75.8984V76H831.117L828.836 71.6172ZM826.633 70.0312H828.664C829.331 70.0312 829.852 69.8646 830.227 69.5312C830.602 69.1927 830.789 68.7318 830.789 68.1484C830.789 67.5391 830.615 67.0677 830.266 66.7344C829.922 66.401 829.406 66.2292 828.719 66.2188H826.633V70.0312ZM841.008 73.3516H836.602L835.68 76H833.625L837.922 64.625H839.695L844 76H841.938L841.008 73.3516ZM837.156 71.7578H840.453L838.805 67.0391L837.156 71.7578ZM851.852 71.1797H847.273V76H845.297V64.625H852.523V66.2188H847.273V69.6016H851.852V71.1797ZM860.648 71.1797H856.07V76H854.094V64.625H861.32V66.2188H856.07V69.6016H860.648V71.1797ZM864.977 76H863.008V64.625H864.977V76ZM876.086 72.2969C875.971 73.5104 875.523 74.4583 874.742 75.1406C873.961 75.8177 872.922 76.1562 871.625 76.1562C870.719 76.1562 869.919 75.9427 869.227 75.5156C868.539 75.0833 868.008 74.4714 867.633 73.6797C867.258 72.888 867.062 71.9688 867.047 70.9219V69.8594C867.047 68.7865 867.237 67.8411 867.617 67.0234C867.997 66.2057 868.542 65.5755 869.25 65.1328C869.964 64.6901 870.786 64.4688 871.719 64.4688C872.974 64.4688 873.984 64.8099 874.75 65.4922C875.516 66.1745 875.961 67.138 876.086 68.3828H874.117C874.023 67.5651 873.784 66.9766 873.398 66.6172C873.018 66.2526 872.458 66.0703 871.719 66.0703C870.859 66.0703 870.198 66.3854 869.734 67.0156C869.276 67.6406 869.042 68.5599 869.031 69.7734V70.7812C869.031 72.0104 869.25 72.9479 869.688 73.5938C870.13 74.2396 870.776 74.5625 871.625 74.5625C872.401 74.5625 872.984 74.388 873.375 74.0391C873.766 73.6901 874.013 73.1094 874.117 72.2969H876.086Z" fill="#333333"/>
<line x1="102" y1="677" x2="648" y2="677" stroke="#94A2AB" stroke-width="2"/>
<line x1="735" y1="677" x2="896" y2="677" stroke="#72808A" stroke-width="2"/>
<path d="M338.289 711H336.074V705.313H330.353V711H328.129V698.203H330.353V703.529H336.074V698.203H338.289V711ZM351.139 704.936C351.139 706.189 350.922 707.291 350.488 708.24C350.055 709.184 349.434 709.91 348.625 710.42C347.822 710.924 346.896 711.176 345.848 711.176C344.811 711.176 343.885 710.924 343.07 710.42C342.262 709.91 341.635 709.187 341.189 708.249C340.75 707.312 340.527 706.23 340.521 705.006V704.285C340.521 703.037 340.741 701.936 341.181 700.98C341.626 700.025 342.25 699.296 343.053 698.792C343.861 698.282 344.787 698.027 345.83 698.027C346.873 698.027 347.796 698.279 348.599 698.783C349.407 699.281 350.031 700.002 350.471 700.945C350.91 701.883 351.133 702.976 351.139 704.224V704.936ZM348.915 704.268C348.915 702.85 348.646 701.763 348.106 701.007C347.573 700.251 346.814 699.873 345.83 699.873C344.869 699.873 344.116 700.251 343.571 701.007C343.032 701.757 342.757 702.82 342.745 704.197V704.936C342.745 706.342 343.018 707.429 343.562 708.196C344.113 708.964 344.875 709.348 345.848 709.348C346.832 709.348 347.588 708.973 348.115 708.223C348.648 707.473 348.915 706.377 348.915 704.936V704.268ZM356.236 698.203L359.928 708.012L363.61 698.203H366.484V711H364.27V706.781L364.489 701.139L360.71 711H359.119L355.349 701.147L355.568 706.781V711H353.354V698.203H356.236ZM376.601 705.287H371.345V709.225H377.488V711H369.121V698.203H377.427V699.996H371.345V703.529H376.601V705.287ZM381.522 706.245V711H379.299V698.203H384.194C385.624 698.203 386.758 698.575 387.596 699.319C388.439 700.063 388.861 701.048 388.861 702.272C388.861 703.526 388.448 704.502 387.622 705.199C386.802 705.896 385.65 706.245 384.168 706.245H381.522ZM381.522 704.461H384.194C384.985 704.461 385.589 704.276 386.005 703.907C386.421 703.532 386.629 702.993 386.629 702.29C386.629 701.599 386.418 701.048 385.996 700.638C385.574 700.222 384.994 700.008 384.256 699.996H381.522V704.461ZM396.411 708.021H391.454L390.417 711H388.105L392.939 698.203H394.935L399.777 711H397.457L396.411 708.021ZM392.078 706.228H395.787L393.933 700.919L392.078 706.228ZM410.852 709.339C410.389 709.942 409.747 710.399 408.927 710.71C408.106 711.021 407.175 711.176 406.132 711.176C405.06 711.176 404.11 710.933 403.284 710.446C402.458 709.96 401.819 709.266 401.368 708.363C400.923 707.455 400.691 706.397 400.674 705.19V704.188C400.674 702.255 401.137 700.746 402.062 699.662C402.988 698.572 404.28 698.027 405.938 698.027C407.362 698.027 408.493 698.379 409.331 699.082C410.169 699.785 410.673 700.799 410.843 702.123H408.663C408.417 700.582 407.523 699.812 405.982 699.812C404.986 699.812 404.228 700.172 403.706 700.893C403.19 701.607 402.924 702.659 402.906 704.048V705.032C402.906 706.415 403.196 707.49 403.776 708.258C404.362 709.02 405.174 709.4 406.211 709.4C407.348 709.4 408.156 709.143 408.637 708.627V706.122H406V704.435H410.852V709.339ZM420.774 705.287H415.519V709.225H421.662V711H413.295V698.203H421.601V699.996H415.519V703.529H420.774V705.287Z" fill="#333333"/>
<path d="M105.391 631.625L109.109 640.906L112.828 631.625H114.773V643H113.273V638.57L113.414 633.789L109.68 643H108.531L104.805 633.812L104.953 638.57V643H103.453V631.625H105.391ZM126.172 637.68C126.172 638.794 125.984 639.768 125.609 640.602C125.234 641.43 124.703 642.062 124.016 642.5C123.328 642.938 122.526 643.156 121.609 643.156C120.714 643.156 119.919 642.938 119.227 642.5C118.534 642.057 117.995 641.43 117.609 640.617C117.229 639.799 117.034 638.854 117.023 637.781V636.961C117.023 635.867 117.214 634.901 117.594 634.062C117.974 633.224 118.51 632.583 119.203 632.141C119.901 631.693 120.698 631.469 121.594 631.469C122.505 631.469 123.307 631.69 124 632.133C124.698 632.57 125.234 633.208 125.609 634.047C125.984 634.88 126.172 635.852 126.172 636.961V637.68ZM124.68 636.945C124.68 635.596 124.409 634.562 123.867 633.844C123.326 633.12 122.568 632.758 121.594 632.758C120.646 632.758 119.898 633.12 119.352 633.844C118.81 634.562 118.531 635.562 118.516 636.844V637.68C118.516 638.987 118.789 640.016 119.336 640.766C119.888 641.51 120.646 641.883 121.609 641.883C122.578 641.883 123.328 641.531 123.859 640.828C124.391 640.12 124.664 639.107 124.68 637.789V636.945ZM130.359 631.625L134.078 640.906L137.797 631.625H139.742V643H138.242V638.57L138.383 633.789L134.648 643H133.5L129.773 633.812L129.922 638.57V643H128.422V631.625H130.359ZM142.266 634.828L141.445 634.266C141.93 633.589 142.18 632.875 142.195 632.125V631H143.625V632.016C143.62 632.536 143.49 633.057 143.234 633.578C142.984 634.094 142.661 634.51 142.266 634.828ZM157.93 639.391C157.789 640.594 157.344 641.523 156.594 642.18C155.849 642.831 154.857 643.156 153.617 643.156C152.273 643.156 151.195 642.674 150.383 641.711C149.576 640.747 149.172 639.458 149.172 637.844V636.75C149.172 635.693 149.359 634.763 149.734 633.961C150.115 633.159 150.651 632.544 151.344 632.117C152.036 631.685 152.839 631.469 153.75 631.469C154.958 631.469 155.927 631.807 156.656 632.484C157.385 633.156 157.81 634.089 157.93 635.281H156.422C156.292 634.375 156.008 633.719 155.57 633.312C155.138 632.906 154.531 632.703 153.75 632.703C152.792 632.703 152.039 633.057 151.492 633.766C150.951 634.474 150.68 635.482 150.68 636.789V637.891C150.68 639.125 150.938 640.107 151.453 640.836C151.969 641.565 152.69 641.93 153.617 641.93C154.451 641.93 155.089 641.742 155.531 641.367C155.979 640.987 156.276 640.328 156.422 639.391H157.93ZM161.492 641.773H166.883V643H159.984V631.625H161.492V641.773ZM175.031 640.031H170.266L169.195 643H167.648L171.992 631.625H173.305L177.656 643H176.117L175.031 640.031ZM170.719 638.797H174.586L172.648 633.477L170.719 638.797ZM182.539 637.93C181.253 637.56 180.315 637.107 179.727 636.57C179.143 636.029 178.852 635.362 178.852 634.57C178.852 633.674 179.208 632.935 179.922 632.352C180.641 631.763 181.573 631.469 182.719 631.469C183.5 631.469 184.195 631.62 184.805 631.922C185.419 632.224 185.893 632.641 186.227 633.172C186.565 633.703 186.734 634.284 186.734 634.914H185.227C185.227 634.227 185.008 633.688 184.57 633.297C184.133 632.901 183.516 632.703 182.719 632.703C181.979 632.703 181.401 632.867 180.984 633.195C180.573 633.518 180.367 633.969 180.367 634.547C180.367 635.01 180.562 635.404 180.953 635.727C181.349 636.044 182.018 636.336 182.961 636.602C183.909 636.867 184.648 637.161 185.18 637.484C185.716 637.802 186.112 638.174 186.367 638.602C186.628 639.029 186.758 639.531 186.758 640.109C186.758 641.031 186.398 641.771 185.68 642.328C184.961 642.88 184 643.156 182.797 643.156C182.016 643.156 181.286 643.008 180.609 642.711C179.932 642.409 179.409 641.997 179.039 641.477C178.674 640.956 178.492 640.365 178.492 639.703H180C180 640.391 180.253 640.935 180.758 641.336C181.268 641.732 181.948 641.93 182.797 641.93C183.589 641.93 184.195 641.768 184.617 641.445C185.039 641.122 185.25 640.682 185.25 640.125C185.25 639.568 185.055 639.138 184.664 638.836C184.273 638.529 183.565 638.227 182.539 637.93ZM192.039 637.93C190.753 637.56 189.815 637.107 189.227 636.57C188.643 636.029 188.352 635.362 188.352 634.57C188.352 633.674 188.708 632.935 189.422 632.352C190.141 631.763 191.073 631.469 192.219 631.469C193 631.469 193.695 631.62 194.305 631.922C194.919 632.224 195.393 632.641 195.727 633.172C196.065 633.703 196.234 634.284 196.234 634.914H194.727C194.727 634.227 194.508 633.688 194.07 633.297C193.633 632.901 193.016 632.703 192.219 632.703C191.479 632.703 190.901 632.867 190.484 633.195C190.073 633.518 189.867 633.969 189.867 634.547C189.867 635.01 190.062 635.404 190.453 635.727C190.849 636.044 191.518 636.336 192.461 636.602C193.409 636.867 194.148 637.161 194.68 637.484C195.216 637.802 195.612 638.174 195.867 638.602C196.128 639.029 196.258 639.531 196.258 640.109C196.258 641.031 195.898 641.771 195.18 642.328C194.461 642.88 193.5 643.156 192.297 643.156C191.516 643.156 190.786 643.008 190.109 642.711C189.432 642.409 188.909 641.997 188.539 641.477C188.174 640.956 187.992 640.365 187.992 639.703H189.5C189.5 640.391 189.753 640.935 190.258 641.336C190.768 641.732 191.448 641.93 192.297 641.93C193.089 641.93 193.695 641.768 194.117 641.445C194.539 641.122 194.75 640.682 194.75 640.125C194.75 639.568 194.555 639.138 194.164 638.836C193.773 638.529 193.065 638.227 192.039 637.93Z" fill="#333333"/>
<path d="M264.711 637.711L263.32 639.156V643H261.82V631.625H263.32V637.25L268.375 631.625H270.188L265.711 636.648L270.539 643H268.742L264.711 637.711ZM280.594 643H279.086L273.359 634.234V643H271.852V631.625H273.359L279.102 640.43V631.625H280.594V643ZM292.008 637.68C292.008 638.794 291.82 639.768 291.445 640.602C291.07 641.43 290.539 642.062 289.852 642.5C289.164 642.938 288.362 643.156 287.445 643.156C286.549 643.156 285.755 642.938 285.062 642.5C284.37 642.057 283.831 641.43 283.445 640.617C283.065 639.799 282.87 638.854 282.859 637.781V636.961C282.859 635.867 283.049 634.901 283.43 634.062C283.81 633.224 284.346 632.583 285.039 632.141C285.737 631.693 286.534 631.469 287.43 631.469C288.341 631.469 289.143 631.69 289.836 632.133C290.534 632.57 291.07 633.208 291.445 634.047C291.82 634.88 292.008 635.852 292.008 636.961V637.68ZM290.516 636.945C290.516 635.596 290.245 634.562 289.703 633.844C289.161 633.12 288.404 632.758 287.43 632.758C286.482 632.758 285.734 633.12 285.188 633.844C284.646 634.562 284.367 635.562 284.352 636.844V637.68C284.352 638.987 284.625 640.016 285.172 640.766C285.724 641.51 286.482 641.883 287.445 641.883C288.414 641.883 289.164 641.531 289.695 640.828C290.227 640.12 290.5 639.107 290.516 637.789V636.945ZM296.711 639.414L296.93 640.914L297.25 639.562L299.5 631.625H300.766L302.961 639.562L303.273 640.938L303.516 639.406L305.281 631.625H306.789L304.031 643H302.664L300.32 634.711L300.141 633.844L299.961 634.711L297.531 643H296.164L293.414 631.625H294.914L296.711 639.414ZM309.969 641.773H315.359V643H308.461V631.625H309.969V641.773ZM323.5 637.742H318.57V641.773H324.297V643H317.07V631.625H324.219V632.859H318.57V636.516H323.5V637.742ZM326.164 643V631.625H329.375C330.365 631.625 331.24 631.844 332 632.281C332.76 632.719 333.346 633.341 333.758 634.148C334.174 634.956 334.385 635.883 334.391 636.93V637.656C334.391 638.729 334.182 639.669 333.766 640.477C333.354 641.284 332.763 641.904 331.992 642.336C331.227 642.768 330.333 642.99 329.312 643H326.164ZM327.664 632.859V641.773H329.242C330.398 641.773 331.297 641.414 331.938 640.695C332.583 639.977 332.906 638.953 332.906 637.625V636.961C332.906 635.669 332.602 634.667 331.992 633.953C331.388 633.234 330.529 632.87 329.414 632.859H327.664ZM345.062 641.508C344.677 642.06 344.138 642.474 343.445 642.75C342.758 643.021 341.956 643.156 341.039 643.156C340.112 643.156 339.289 642.94 338.57 642.508C337.852 642.07 337.294 641.451 336.898 640.648C336.508 639.846 336.307 638.917 336.297 637.859V636.867C336.297 635.154 336.695 633.826 337.492 632.883C338.294 631.94 339.419 631.469 340.867 631.469C342.055 631.469 343.01 631.773 343.734 632.383C344.458 632.987 344.901 633.846 345.062 634.961H343.562C343.281 633.456 342.385 632.703 340.875 632.703C339.87 632.703 339.107 633.057 338.586 633.766C338.07 634.469 337.81 635.49 337.805 636.828V637.758C337.805 639.034 338.096 640.049 338.68 640.805C339.263 641.555 340.052 641.93 341.047 641.93C341.609 641.93 342.102 641.867 342.523 641.742C342.945 641.617 343.294 641.406 343.57 641.109V638.555H340.938V637.336H345.062V641.508ZM354 637.742H349.07V641.773H354.797V643H347.57V631.625H354.719V632.859H349.07V636.516H354V637.742ZM369 639.391C368.859 640.594 368.414 641.523 367.664 642.18C366.919 642.831 365.927 643.156 364.688 643.156C363.344 643.156 362.266 642.674 361.453 641.711C360.646 640.747 360.242 639.458 360.242 637.844V636.75C360.242 635.693 360.43 634.763 360.805 633.961C361.185 633.159 361.721 632.544 362.414 632.117C363.107 631.685 363.909 631.469 364.82 631.469C366.029 631.469 366.997 631.807 367.727 632.484C368.456 633.156 368.88 634.089 369 635.281H367.492C367.362 634.375 367.078 633.719 366.641 633.312C366.208 632.906 365.602 632.703 364.82 632.703C363.862 632.703 363.109 633.057 362.562 633.766C362.021 634.474 361.75 635.482 361.75 636.789V637.891C361.75 639.125 362.008 640.107 362.523 640.836C363.039 641.565 363.76 641.93 364.688 641.93C365.521 641.93 366.159 641.742 366.602 641.367C367.049 640.987 367.346 640.328 367.492 639.391H369ZM377.484 637.742H372.555V641.773H378.281V643H371.055V631.625H378.203V632.859H372.555V636.516H377.484V637.742ZM388.891 643H387.383L381.656 634.234V643H380.148V631.625H381.656L387.398 640.43V631.625H388.891V643ZM399.18 632.859H395.523V643H394.031V632.859H390.383V631.625H399.18V632.859ZM407.297 637.742H402.367V641.773H408.094V643H400.867V631.625H408.016V632.859H402.367V636.516H407.297V637.742ZM414.133 638.398H411.461V643H409.953V631.625H413.719C415 631.625 415.984 631.917 416.672 632.5C417.365 633.083 417.711 633.932 417.711 635.047C417.711 635.755 417.518 636.372 417.133 636.898C416.753 637.424 416.221 637.818 415.539 638.078L418.211 642.906V643H416.602L414.133 638.398ZM411.461 637.172H413.766C414.51 637.172 415.102 636.979 415.539 636.594C415.982 636.208 416.203 635.693 416.203 635.047C416.203 634.344 415.992 633.805 415.57 633.43C415.154 633.055 414.549 632.865 413.758 632.859H411.461V637.172Z" fill="#333333"/>
<path d="M475.953 632.859H472.297V643H470.805V632.859H467.156V631.625H475.953V632.859ZM486.172 637.68C486.172 638.794 485.984 639.768 485.609 640.602C485.234 641.43 484.703 642.062 484.016 642.5C483.328 642.938 482.526 643.156 481.609 643.156C480.714 643.156 479.919 642.938 479.227 642.5C478.534 642.057 477.995 641.43 477.609 640.617C477.229 639.799 477.034 638.854 477.023 637.781V636.961C477.023 635.867 477.214 634.901 477.594 634.062C477.974 633.224 478.51 632.583 479.203 632.141C479.901 631.693 480.698 631.469 481.594 631.469C482.505 631.469 483.307 631.69 484 632.133C484.698 632.57 485.234 633.208 485.609 634.047C485.984 634.88 486.172 635.852 486.172 636.961V637.68ZM484.68 636.945C484.68 635.596 484.409 634.562 483.867 633.844C483.326 633.12 482.568 632.758 481.594 632.758C480.646 632.758 479.898 633.12 479.352 633.844C478.81 634.562 478.531 635.562 478.516 636.844V637.68C478.516 638.987 478.789 640.016 479.336 640.766C479.888 641.51 480.646 641.883 481.609 641.883C482.578 641.883 483.328 641.531 483.859 640.828C484.391 640.12 484.664 639.107 484.68 637.789V636.945ZM488.422 643V631.625H491.633C492.622 631.625 493.497 631.844 494.258 632.281C495.018 632.719 495.604 633.341 496.016 634.148C496.432 634.956 496.643 635.883 496.648 636.93V637.656C496.648 638.729 496.44 639.669 496.023 640.477C495.612 641.284 495.021 641.904 494.25 642.336C493.484 642.768 492.591 642.99 491.57 643H488.422ZM489.922 632.859V641.773H491.5C492.656 641.773 493.555 641.414 494.195 640.695C494.841 639.977 495.164 638.953 495.164 637.625V636.961C495.164 635.669 494.859 634.667 494.25 633.953C493.646 633.234 492.786 632.87 491.672 632.859H489.922ZM505.031 640.031H500.266L499.195 643H497.648L501.992 631.625H503.305L507.656 643H506.117L505.031 640.031ZM500.719 638.797H504.586L502.648 633.477L500.719 638.797ZM511.922 637.336L514.891 631.625H516.594L512.672 638.758V643H511.172V638.758L507.25 631.625H508.969L511.922 637.336ZM517.938 634.828L517.117 634.266C517.602 633.589 517.852 632.875 517.867 632.125V631H519.297V632.016C519.292 632.536 519.161 633.057 518.906 633.578C518.656 634.094 518.333 634.51 517.938 634.828ZM524.617 637.93C523.331 637.56 522.393 637.107 521.805 636.57C521.221 636.029 520.93 635.362 520.93 634.57C520.93 633.674 521.286 632.935 522 632.352C522.719 631.763 523.651 631.469 524.797 631.469C525.578 631.469 526.273 631.62 526.883 631.922C527.497 632.224 527.971 632.641 528.305 633.172C528.643 633.703 528.812 634.284 528.812 634.914H527.305C527.305 634.227 527.086 633.688 526.648 633.297C526.211 632.901 525.594 632.703 524.797 632.703C524.057 632.703 523.479 632.867 523.062 633.195C522.651 633.518 522.445 633.969 522.445 634.547C522.445 635.01 522.641 635.404 523.031 635.727C523.427 636.044 524.096 636.336 525.039 636.602C525.987 636.867 526.727 637.161 527.258 637.484C527.794 637.802 528.19 638.174 528.445 638.602C528.706 639.029 528.836 639.531 528.836 640.109C528.836 641.031 528.477 641.771 527.758 642.328C527.039 642.88 526.078 643.156 524.875 643.156C524.094 643.156 523.365 643.008 522.688 642.711C522.01 642.409 521.487 641.997 521.117 641.477C520.753 640.956 520.57 640.365 520.57 639.703H522.078C522.078 640.391 522.331 640.935 522.836 641.336C523.346 641.732 524.026 641.93 524.875 641.93C525.667 641.93 526.273 641.768 526.695 641.445C527.117 641.122 527.328 640.682 527.328 640.125C527.328 639.568 527.133 639.138 526.742 638.836C526.352 638.529 525.643 638.227 524.617 637.93ZM538.906 638.398H536.234V643H534.727V631.625H538.492C539.773 631.625 540.758 631.917 541.445 632.5C542.138 633.083 542.484 633.932 542.484 635.047C542.484 635.755 542.292 636.372 541.906 636.898C541.526 637.424 540.995 637.818 540.312 638.078L542.984 642.906V643H541.375L538.906 638.398ZM536.234 637.172H538.539C539.284 637.172 539.875 636.979 540.312 636.594C540.755 636.208 540.977 635.693 540.977 635.047C540.977 634.344 540.766 633.805 540.344 633.43C539.927 633.055 539.323 632.865 538.531 632.859H536.234V637.172ZM551.023 637.742H546.094V641.773H551.82V643H544.594V631.625H551.742V632.859H546.094V636.516H551.023V637.742ZM562.055 639.391C561.914 640.594 561.469 641.523 560.719 642.18C559.974 642.831 558.982 643.156 557.742 643.156C556.398 643.156 555.32 642.674 554.508 641.711C553.701 640.747 553.297 639.458 553.297 637.844V636.75C553.297 635.693 553.484 634.763 553.859 633.961C554.24 633.159 554.776 632.544 555.469 632.117C556.161 631.685 556.964 631.469 557.875 631.469C559.083 631.469 560.052 631.807 560.781 632.484C561.51 633.156 561.935 634.089 562.055 635.281H560.547C560.417 634.375 560.133 633.719 559.695 633.312C559.263 632.906 558.656 632.703 557.875 632.703C556.917 632.703 556.164 633.057 555.617 633.766C555.076 634.474 554.805 635.482 554.805 636.789V637.891C554.805 639.125 555.062 640.107 555.578 640.836C556.094 641.565 556.815 641.93 557.742 641.93C558.576 641.93 559.214 641.742 559.656 641.367C560.104 640.987 560.401 640.328 560.547 639.391H562.055ZM572.859 637.68C572.859 638.794 572.672 639.768 572.297 640.602C571.922 641.43 571.391 642.062 570.703 642.5C570.016 642.938 569.214 643.156 568.297 643.156C567.401 643.156 566.607 642.938 565.914 642.5C565.221 642.057 564.682 641.43 564.297 640.617C563.917 639.799 563.721 638.854 563.711 637.781V636.961C563.711 635.867 563.901 634.901 564.281 634.062C564.661 633.224 565.198 632.583 565.891 632.141C566.589 631.693 567.385 631.469 568.281 631.469C569.193 631.469 569.995 631.69 570.688 632.133C571.385 632.57 571.922 633.208 572.297 634.047C572.672 634.88 572.859 635.852 572.859 636.961V637.68ZM571.367 636.945C571.367 635.596 571.096 634.562 570.555 633.844C570.013 633.12 569.255 632.758 568.281 632.758C567.333 632.758 566.586 633.12 566.039 633.844C565.497 634.562 565.219 635.562 565.203 636.844V637.68C565.203 638.987 565.477 640.016 566.023 640.766C566.576 641.51 567.333 641.883 568.297 641.883C569.266 641.883 570.016 641.531 570.547 640.828C571.078 640.12 571.352 639.107 571.367 637.789V636.945ZM577.047 631.625L580.766 640.906L584.484 631.625H586.43V643H584.93V638.57L585.07 633.789L581.336 643H580.188L576.461 633.812L576.609 638.57V643H575.109V631.625H577.047ZM591.016 631.625L594.734 640.906L598.453 631.625H600.398V643H598.898V638.57L599.039 633.789L595.305 643H594.156L590.43 633.812L590.578 638.57V643H589.078V631.625H591.016ZM609.477 637.742H604.547V641.773H610.273V643H603.047V631.625H610.195V632.859H604.547V636.516H609.477V637.742ZM620.883 643H619.375L613.648 634.234V643H612.141V631.625H613.648L619.391 640.43V631.625H620.883V643ZM623.547 643V631.625H626.758C627.747 631.625 628.622 631.844 629.383 632.281C630.143 632.719 630.729 633.341 631.141 634.148C631.557 634.956 631.768 635.883 631.773 636.93V637.656C631.773 638.729 631.565 639.669 631.148 640.477C630.737 641.284 630.146 641.904 629.375 642.336C628.609 642.768 627.716 642.99 626.695 643H623.547ZM625.047 632.859V641.773H626.625C627.781 641.773 628.68 641.414 629.32 640.695C629.966 639.977 630.289 638.953 630.289 637.625V636.961C630.289 635.669 629.984 634.667 629.375 633.953C628.771 633.234 627.911 632.87 626.797 632.859H625.047ZM637.398 637.93C636.112 637.56 635.174 637.107 634.586 636.57C634.003 636.029 633.711 635.362 633.711 634.57C633.711 633.674 634.068 632.935 634.781 632.352C635.5 631.763 636.432 631.469 637.578 631.469C638.359 631.469 639.055 631.62 639.664 631.922C640.279 632.224 640.753 632.641 641.086 633.172C641.424 633.703 641.594 634.284 641.594 634.914H640.086C640.086 634.227 639.867 633.688 639.43 633.297C638.992 632.901 638.375 632.703 637.578 632.703C636.839 632.703 636.26 632.867 635.844 633.195C635.432 633.518 635.227 633.969 635.227 634.547C635.227 635.01 635.422 635.404 635.812 635.727C636.208 636.044 636.878 636.336 637.82 636.602C638.768 636.867 639.508 637.161 640.039 637.484C640.576 637.802 640.971 638.174 641.227 638.602C641.487 639.029 641.617 639.531 641.617 640.109C641.617 641.031 641.258 641.771 640.539 642.328C639.82 642.88 638.859 643.156 637.656 643.156C636.875 643.156 636.146 643.008 635.469 642.711C634.792 642.409 634.268 641.997 633.898 641.477C633.534 640.956 633.352 640.365 633.352 639.703H634.859C634.859 640.391 635.112 640.935 635.617 641.336C636.128 641.732 636.807 641.93 637.656 641.93C638.448 641.93 639.055 641.768 639.477 641.445C639.898 641.122 640.109 640.682 640.109 640.125C640.109 639.568 639.914 639.138 639.523 638.836C639.133 638.529 638.424 638.227 637.398 637.93Z" fill="#333333"/>
<path d="M766.641 631.625L770.359 640.906L774.078 631.625H776.023V643H774.523V638.57L774.664 633.789L770.93 643H769.781L766.055 633.812L766.203 638.57V643H764.703V631.625H766.641ZM787.422 637.68C787.422 638.794 787.234 639.768 786.859 640.602C786.484 641.43 785.953 642.062 785.266 642.5C784.578 642.938 783.776 643.156 782.859 643.156C781.964 643.156 781.169 642.938 780.477 642.5C779.784 642.057 779.245 641.43 778.859 640.617C778.479 639.799 778.284 638.854 778.273 637.781V636.961C778.273 635.867 778.464 634.901 778.844 634.062C779.224 633.224 779.76 632.583 780.453 632.141C781.151 631.693 781.948 631.469 782.844 631.469C783.755 631.469 784.557 631.69 785.25 632.133C785.948 632.57 786.484 633.208 786.859 634.047C787.234 634.88 787.422 635.852 787.422 636.961V637.68ZM785.93 636.945C785.93 635.596 785.659 634.562 785.117 633.844C784.576 633.12 783.818 632.758 782.844 632.758C781.896 632.758 781.148 633.12 780.602 633.844C780.06 634.562 779.781 635.562 779.766 636.844V637.68C779.766 638.987 780.039 640.016 780.586 640.766C781.138 641.51 781.896 641.883 782.859 641.883C783.828 641.883 784.578 641.531 785.109 640.828C785.641 640.12 785.914 639.107 785.93 637.789V636.945ZM791.609 631.625L795.328 640.906L799.047 631.625H800.992V643H799.492V638.57L799.633 633.789L795.898 643H794.75L791.023 633.812L791.172 638.57V643H789.672V631.625H791.609ZM803.516 634.828L802.695 634.266C803.18 633.589 803.43 632.875 803.445 632.125V631H804.875V632.016C804.87 632.536 804.74 633.057 804.484 633.578C804.234 634.094 803.911 634.51 803.516 634.828ZM810.195 637.93C808.909 637.56 807.971 637.107 807.383 636.57C806.799 636.029 806.508 635.362 806.508 634.57C806.508 633.674 806.865 632.935 807.578 632.352C808.297 631.763 809.229 631.469 810.375 631.469C811.156 631.469 811.852 631.62 812.461 631.922C813.076 632.224 813.549 632.641 813.883 633.172C814.221 633.703 814.391 634.284 814.391 634.914H812.883C812.883 634.227 812.664 633.688 812.227 633.297C811.789 632.901 811.172 632.703 810.375 632.703C809.635 632.703 809.057 632.867 808.641 633.195C808.229 633.518 808.023 633.969 808.023 634.547C808.023 635.01 808.219 635.404 808.609 635.727C809.005 636.044 809.674 636.336 810.617 636.602C811.565 636.867 812.305 637.161 812.836 637.484C813.372 637.802 813.768 638.174 814.023 638.602C814.284 639.029 814.414 639.531 814.414 640.109C814.414 641.031 814.055 641.771 813.336 642.328C812.617 642.88 811.656 643.156 810.453 643.156C809.672 643.156 808.943 643.008 808.266 642.711C807.589 642.409 807.065 641.997 806.695 641.477C806.331 640.956 806.148 640.365 806.148 639.703H807.656C807.656 640.391 807.909 640.935 808.414 641.336C808.924 641.732 809.604 641.93 810.453 641.93C811.245 641.93 811.852 641.768 812.273 641.445C812.695 641.122 812.906 640.682 812.906 640.125C812.906 639.568 812.711 639.138 812.32 638.836C811.93 638.529 811.221 638.227 810.195 637.93ZM828.68 639.391C828.539 640.594 828.094 641.523 827.344 642.18C826.599 642.831 825.607 643.156 824.367 643.156C823.023 643.156 821.945 642.674 821.133 641.711C820.326 640.747 819.922 639.458 819.922 637.844V636.75C819.922 635.693 820.109 634.763 820.484 633.961C820.865 633.159 821.401 632.544 822.094 632.117C822.786 631.685 823.589 631.469 824.5 631.469C825.708 631.469 826.677 631.807 827.406 632.484C828.135 633.156 828.56 634.089 828.68 635.281H827.172C827.042 634.375 826.758 633.719 826.32 633.312C825.888 632.906 825.281 632.703 824.5 632.703C823.542 632.703 822.789 633.057 822.242 633.766C821.701 634.474 821.43 635.482 821.43 636.789V637.891C821.43 639.125 821.688 640.107 822.203 640.836C822.719 641.565 823.44 641.93 824.367 641.93C825.201 641.93 825.839 641.742 826.281 641.367C826.729 640.987 827.026 640.328 827.172 639.391H828.68ZM832.242 641.773H837.633V643H830.734V631.625H832.242V641.773ZM845.781 640.031H841.016L839.945 643H838.398L842.742 631.625H844.055L848.406 643H846.867L845.781 640.031ZM841.469 638.797H845.336L843.398 633.477L841.469 638.797ZM853.289 637.93C852.003 637.56 851.065 637.107 850.477 636.57C849.893 636.029 849.602 635.362 849.602 634.57C849.602 633.674 849.958 632.935 850.672 632.352C851.391 631.763 852.323 631.469 853.469 631.469C854.25 631.469 854.945 631.62 855.555 631.922C856.169 632.224 856.643 632.641 856.977 633.172C857.315 633.703 857.484 634.284 857.484 634.914H855.977C855.977 634.227 855.758 633.688 855.32 633.297C854.883 632.901 854.266 632.703 853.469 632.703C852.729 632.703 852.151 632.867 851.734 633.195C851.323 633.518 851.117 633.969 851.117 634.547C851.117 635.01 851.312 635.404 851.703 635.727C852.099 636.044 852.768 636.336 853.711 636.602C854.659 636.867 855.398 637.161 855.93 637.484C856.466 637.802 856.862 638.174 857.117 638.602C857.378 639.029 857.508 639.531 857.508 640.109C857.508 641.031 857.148 641.771 856.43 642.328C855.711 642.88 854.75 643.156 853.547 643.156C852.766 643.156 852.036 643.008 851.359 642.711C850.682 642.409 850.159 641.997 849.789 641.477C849.424 640.956 849.242 640.365 849.242 639.703H850.75C850.75 640.391 851.003 640.935 851.508 641.336C852.018 641.732 852.698 641.93 853.547 641.93C854.339 641.93 854.945 641.768 855.367 641.445C855.789 641.122 856 640.682 856 640.125C856 639.568 855.805 639.138 855.414 638.836C855.023 638.529 854.315 638.227 853.289 637.93ZM862.789 637.93C861.503 637.56 860.565 637.107 859.977 636.57C859.393 636.029 859.102 635.362 859.102 634.57C859.102 633.674 859.458 632.935 860.172 632.352C860.891 631.763 861.823 631.469 862.969 631.469C863.75 631.469 864.445 631.62 865.055 631.922C865.669 632.224 866.143 632.641 866.477 633.172C866.815 633.703 866.984 634.284 866.984 634.914H865.477C865.477 634.227 865.258 633.688 864.82 633.297C864.383 632.901 863.766 632.703 862.969 632.703C862.229 632.703 861.651 632.867 861.234 633.195C860.823 633.518 860.617 633.969 860.617 634.547C860.617 635.01 860.812 635.404 861.203 635.727C861.599 636.044 862.268 636.336 863.211 636.602C864.159 636.867 864.898 637.161 865.43 637.484C865.966 637.802 866.362 638.174 866.617 638.602C866.878 639.029 867.008 639.531 867.008 640.109C867.008 641.031 866.648 641.771 865.93 642.328C865.211 642.88 864.25 643.156 863.047 643.156C862.266 643.156 861.536 643.008 860.859 642.711C860.182 642.409 859.659 641.997 859.289 641.477C858.924 640.956 858.742 640.365 858.742 639.703H860.25C860.25 640.391 860.503 640.935 861.008 641.336C861.518 641.732 862.198 641.93 863.047 641.93C863.839 641.93 864.445 641.768 864.867 641.445C865.289 641.122 865.5 640.682 865.5 640.125C865.5 639.568 865.305 639.138 864.914 638.836C864.523 638.529 863.815 638.227 862.789 637.93Z" fill="#333333"/>
<path d="M158.203 215.609H159.289C159.971 215.599 160.508 215.419 160.898 215.07C161.289 214.721 161.484 214.25 161.484 213.656C161.484 212.323 160.82 211.656 159.492 211.656C158.867 211.656 158.367 211.836 157.992 212.195C157.622 212.549 157.438 213.021 157.438 213.609H155.992C155.992 212.708 156.32 211.961 156.977 211.367C157.638 210.768 158.477 210.469 159.492 210.469C160.565 210.469 161.406 210.753 162.016 211.32C162.625 211.888 162.93 212.677 162.93 213.688C162.93 214.182 162.768 214.661 162.445 215.125C162.128 215.589 161.693 215.935 161.141 216.164C161.766 216.362 162.247 216.69 162.586 217.148C162.93 217.607 163.102 218.167 163.102 218.828C163.102 219.849 162.768 220.659 162.102 221.258C161.435 221.857 160.568 222.156 159.5 222.156C158.432 222.156 157.562 221.867 156.891 221.289C156.224 220.711 155.891 219.948 155.891 219H157.344C157.344 219.599 157.539 220.078 157.93 220.438C158.32 220.797 158.844 220.977 159.5 220.977C160.198 220.977 160.732 220.794 161.102 220.43C161.471 220.065 161.656 219.542 161.656 218.859C161.656 218.198 161.453 217.69 161.047 217.336C160.641 216.982 160.055 216.799 159.289 216.789H158.203V215.609ZM171.188 218.18H172.766V219.359H171.188V222H169.734V219.359H164.555V218.508L169.648 210.625H171.188V218.18ZM166.195 218.18H169.734V212.602L169.562 212.914L166.195 218.18ZM173.945 212.812C173.945 212.13 174.161 211.568 174.594 211.125C175.031 210.682 175.591 210.461 176.273 210.461C176.966 210.461 177.526 210.685 177.953 211.133C178.385 211.576 178.602 212.151 178.602 212.859V213.414C178.602 214.102 178.383 214.664 177.945 215.102C177.513 215.534 176.961 215.75 176.289 215.75C175.612 215.75 175.052 215.534 174.609 215.102C174.167 214.664 173.945 214.083 173.945 213.359V212.812ZM175.023 213.414C175.023 213.82 175.138 214.156 175.367 214.422C175.596 214.682 175.904 214.812 176.289 214.812C176.659 214.812 176.956 214.685 177.18 214.43C177.409 214.174 177.523 213.826 177.523 213.383V212.812C177.523 212.406 177.411 212.07 177.188 211.805C176.964 211.539 176.659 211.406 176.273 211.406C175.888 211.406 175.583 211.539 175.359 211.805C175.135 212.07 175.023 212.417 175.023 212.844V213.414ZM179.484 219.211C179.484 218.529 179.701 217.969 180.133 217.531C180.57 217.089 181.13 216.867 181.812 216.867C182.495 216.867 183.055 217.086 183.492 217.523C183.93 217.961 184.148 218.542 184.148 219.266V219.82C184.148 220.503 183.93 221.065 183.492 221.508C183.06 221.945 182.505 222.164 181.828 222.164C181.151 222.164 180.591 221.948 180.148 221.516C179.706 221.078 179.484 220.497 179.484 219.773V219.211ZM180.562 219.82C180.562 220.232 180.677 220.57 180.906 220.836C181.135 221.096 181.443 221.227 181.828 221.227C182.203 221.227 182.503 221.099 182.727 220.844C182.951 220.583 183.062 220.232 183.062 219.789V219.211C183.062 218.799 182.948 218.464 182.719 218.203C182.495 217.943 182.193 217.812 181.812 217.812C181.443 217.812 181.141 217.943 180.906 218.203C180.677 218.458 180.562 218.805 180.562 219.242V219.82ZM176.617 221.141L175.797 220.625L181.352 211.734L182.172 212.25L176.617 221.141Z" fill="#333333"/>
<path d="M828.203 207.609H829.289C829.971 207.599 830.508 207.419 830.898 207.07C831.289 206.721 831.484 206.25 831.484 205.656C831.484 204.323 830.82 203.656 829.492 203.656C828.867 203.656 828.367 203.836 827.992 204.195C827.622 204.549 827.438 205.021 827.438 205.609H825.992C825.992 204.708 826.32 203.961 826.977 203.367C827.638 202.768 828.477 202.469 829.492 202.469C830.565 202.469 831.406 202.753 832.016 203.32C832.625 203.888 832.93 204.677 832.93 205.688C832.93 206.182 832.768 206.661 832.445 207.125C832.128 207.589 831.693 207.935 831.141 208.164C831.766 208.362 832.247 208.69 832.586 209.148C832.93 209.607 833.102 210.167 833.102 210.828C833.102 211.849 832.768 212.659 832.102 213.258C831.435 213.857 830.568 214.156 829.5 214.156C828.432 214.156 827.562 213.867 826.891 213.289C826.224 212.711 825.891 211.948 825.891 211H827.344C827.344 211.599 827.539 212.078 827.93 212.438C828.32 212.797 828.844 212.977 829.5 212.977C830.198 212.977 830.732 212.794 831.102 212.43C831.471 212.065 831.656 211.542 831.656 210.859C831.656 210.198 831.453 209.69 831.047 209.336C830.641 208.982 830.055 208.799 829.289 208.789H828.203V207.609ZM840.758 202.617V203.844H840.492C839.367 203.865 838.471 204.198 837.805 204.844C837.138 205.49 836.753 206.398 836.648 207.57C837.247 206.883 838.065 206.539 839.102 206.539C840.091 206.539 840.88 206.888 841.469 207.586C842.062 208.284 842.359 209.185 842.359 210.289C842.359 211.461 842.039 212.398 841.398 213.102C840.763 213.805 839.909 214.156 838.836 214.156C837.747 214.156 836.865 213.74 836.188 212.906C835.51 212.068 835.172 210.99 835.172 209.672V209.117C835.172 207.023 835.617 205.424 836.508 204.32C837.404 203.211 838.734 202.643 840.5 202.617H840.758ZM838.859 207.742C838.365 207.742 837.909 207.891 837.492 208.188C837.076 208.484 836.786 208.857 836.625 209.305V209.836C836.625 210.773 836.836 211.529 837.258 212.102C837.68 212.674 838.206 212.961 838.836 212.961C839.487 212.961 839.997 212.721 840.367 212.242C840.742 211.763 840.93 211.135 840.93 210.359C840.93 209.578 840.74 208.948 840.359 208.469C839.984 207.984 839.484 207.742 838.859 207.742ZM843.945 204.812C843.945 204.13 844.161 203.568 844.594 203.125C845.031 202.682 845.591 202.461 846.273 202.461C846.966 202.461 847.526 202.685 847.953 203.133C848.385 203.576 848.602 204.151 848.602 204.859V205.414C848.602 206.102 848.383 206.664 847.945 207.102C847.513 207.534 846.961 207.75 846.289 207.75C845.612 207.75 845.052 207.534 844.609 207.102C844.167 206.664 843.945 206.083 843.945 205.359V204.812ZM845.023 205.414C845.023 205.82 845.138 206.156 845.367 206.422C845.596 206.682 845.904 206.812 846.289 206.812C846.659 206.812 846.956 206.685 847.18 206.43C847.409 206.174 847.523 205.826 847.523 205.383V204.812C847.523 204.406 847.411 204.07 847.188 203.805C846.964 203.539 846.659 203.406 846.273 203.406C845.888 203.406 845.583 203.539 845.359 203.805C845.135 204.07 845.023 204.417 845.023 204.844V205.414ZM849.484 211.211C849.484 210.529 849.701 209.969 850.133 209.531C850.57 209.089 851.13 208.867 851.812 208.867C852.495 208.867 853.055 209.086 853.492 209.523C853.93 209.961 854.148 210.542 854.148 211.266V211.82C854.148 212.503 853.93 213.065 853.492 213.508C853.06 213.945 852.505 214.164 851.828 214.164C851.151 214.164 850.591 213.948 850.148 213.516C849.706 213.078 849.484 212.497 849.484 211.773V211.211ZM850.562 211.82C850.562 212.232 850.677 212.57 850.906 212.836C851.135 213.096 851.443 213.227 851.828 213.227C852.203 213.227 852.503 213.099 852.727 212.844C852.951 212.583 853.062 212.232 853.062 211.789V211.211C853.062 210.799 852.948 210.464 852.719 210.203C852.495 209.943 852.193 209.812 851.812 209.812C851.443 209.812 851.141 209.943 850.906 210.203C850.677 210.458 850.562 210.805 850.562 211.242V211.82ZM846.617 213.141L845.797 212.625L851.352 203.734L852.172 204.25L846.617 213.141Z" fill="#333333"/>
<path d="M342.852 481H341.398V471.367L338.484 472.438V471.125L342.625 469.57H342.852V481ZM349.188 474.609H350.273C350.956 474.599 351.492 474.419 351.883 474.07C352.273 473.721 352.469 473.25 352.469 472.656C352.469 471.323 351.805 470.656 350.477 470.656C349.852 470.656 349.352 470.836 348.977 471.195C348.607 471.549 348.422 472.021 348.422 472.609H346.977C346.977 471.708 347.305 470.961 347.961 470.367C348.622 469.768 349.461 469.469 350.477 469.469C351.549 469.469 352.391 469.753 353 470.32C353.609 470.888 353.914 471.677 353.914 472.688C353.914 473.182 353.753 473.661 353.43 474.125C353.112 474.589 352.677 474.935 352.125 475.164C352.75 475.362 353.232 475.69 353.57 476.148C353.914 476.607 354.086 477.167 354.086 477.828C354.086 478.849 353.753 479.659 353.086 480.258C352.419 480.857 351.552 481.156 350.484 481.156C349.417 481.156 348.547 480.867 347.875 480.289C347.208 479.711 346.875 478.948 346.875 478H348.328C348.328 478.599 348.523 479.078 348.914 479.438C349.305 479.797 349.828 479.977 350.484 479.977C351.182 479.977 351.716 479.794 352.086 479.43C352.456 479.065 352.641 478.542 352.641 477.859C352.641 477.198 352.438 476.69 352.031 476.336C351.625 475.982 351.039 475.799 350.273 475.789H349.188V474.609ZM355.945 471.812C355.945 471.13 356.161 470.568 356.594 470.125C357.031 469.682 357.591 469.461 358.273 469.461C358.966 469.461 359.526 469.685 359.953 470.133C360.385 470.576 360.602 471.151 360.602 471.859V472.414C360.602 473.102 360.383 473.664 359.945 474.102C359.513 474.534 358.961 474.75 358.289 474.75C357.612 474.75 357.052 474.534 356.609 474.102C356.167 473.664 355.945 473.083 355.945 472.359V471.812ZM357.023 472.414C357.023 472.82 357.138 473.156 357.367 473.422C357.596 473.682 357.904 473.812 358.289 473.812C358.659 473.812 358.956 473.685 359.18 473.43C359.409 473.174 359.523 472.826 359.523 472.383V471.812C359.523 471.406 359.411 471.07 359.188 470.805C358.964 470.539 358.659 470.406 358.273 470.406C357.888 470.406 357.583 470.539 357.359 470.805C357.135 471.07 357.023 471.417 357.023 471.844V472.414ZM361.484 478.211C361.484 477.529 361.701 476.969 362.133 476.531C362.57 476.089 363.13 475.867 363.812 475.867C364.495 475.867 365.055 476.086 365.492 476.523C365.93 476.961 366.148 477.542 366.148 478.266V478.82C366.148 479.503 365.93 480.065 365.492 480.508C365.06 480.945 364.505 481.164 363.828 481.164C363.151 481.164 362.591 480.948 362.148 480.516C361.706 480.078 361.484 479.497 361.484 478.773V478.211ZM362.562 478.82C362.562 479.232 362.677 479.57 362.906 479.836C363.135 480.096 363.443 480.227 363.828 480.227C364.203 480.227 364.503 480.099 364.727 479.844C364.951 479.583 365.062 479.232 365.062 478.789V478.211C365.062 477.799 364.948 477.464 364.719 477.203C364.495 476.943 364.193 476.812 363.812 476.812C363.443 476.812 363.141 476.943 362.906 477.203C362.677 477.458 362.562 477.805 362.562 478.242V478.82ZM358.617 480.141L357.797 479.625L363.352 470.734L364.172 471.25L358.617 480.141Z" fill="#333333"/>
<path d="M557.852 427H556.398V417.367L553.484 418.438V417.125L557.625 415.57H557.852V427ZM569.43 416.438L564.719 427H563.203L567.898 416.812H561.742V415.625H569.43V416.438ZM570.945 417.812C570.945 417.13 571.161 416.568 571.594 416.125C572.031 415.682 572.591 415.461 573.273 415.461C573.966 415.461 574.526 415.685 574.953 416.133C575.385 416.576 575.602 417.151 575.602 417.859V418.414C575.602 419.102 575.383 419.664 574.945 420.102C574.513 420.534 573.961 420.75 573.289 420.75C572.612 420.75 572.052 420.534 571.609 420.102C571.167 419.664 570.945 419.083 570.945 418.359V417.812ZM572.023 418.414C572.023 418.82 572.138 419.156 572.367 419.422C572.596 419.682 572.904 419.812 573.289 419.812C573.659 419.812 573.956 419.685 574.18 419.43C574.409 419.174 574.523 418.826 574.523 418.383V417.812C574.523 417.406 574.411 417.07 574.188 416.805C573.964 416.539 573.659 416.406 573.273 416.406C572.888 416.406 572.583 416.539 572.359 416.805C572.135 417.07 572.023 417.417 572.023 417.844V418.414ZM576.484 424.211C576.484 423.529 576.701 422.969 577.133 422.531C577.57 422.089 578.13 421.867 578.812 421.867C579.495 421.867 580.055 422.086 580.492 422.523C580.93 422.961 581.148 423.542 581.148 424.266V424.82C581.148 425.503 580.93 426.065 580.492 426.508C580.06 426.945 579.505 427.164 578.828 427.164C578.151 427.164 577.591 426.948 577.148 426.516C576.706 426.078 576.484 425.497 576.484 424.773V424.211ZM577.562 424.82C577.562 425.232 577.677 425.57 577.906 425.836C578.135 426.096 578.443 426.227 578.828 426.227C579.203 426.227 579.503 426.099 579.727 425.844C579.951 425.583 580.062 425.232 580.062 424.789V424.211C580.062 423.799 579.948 423.464 579.719 423.203C579.495 422.943 579.193 422.812 578.812 422.812C578.443 422.812 578.141 422.943 577.906 423.203C577.677 423.458 577.562 423.805 577.562 424.242V424.82ZM573.617 426.141L572.797 425.625L578.352 416.734L579.172 417.25L573.617 426.141Z" fill="#333333"/>
<path d="M117.203 429.609H118.289C118.971 429.599 119.508 429.419 119.898 429.07C120.289 428.721 120.484 428.25 120.484 427.656C120.484 426.323 119.82 425.656 118.492 425.656C117.867 425.656 117.367 425.836 116.992 426.195C116.622 426.549 116.438 427.021 116.438 427.609H114.992C114.992 426.708 115.32 425.961 115.977 425.367C116.638 424.768 117.477 424.469 118.492 424.469C119.565 424.469 120.406 424.753 121.016 425.32C121.625 425.888 121.93 426.677 121.93 427.688C121.93 428.182 121.768 428.661 121.445 429.125C121.128 429.589 120.693 429.935 120.141 430.164C120.766 430.362 121.247 430.69 121.586 431.148C121.93 431.607 122.102 432.167 122.102 432.828C122.102 433.849 121.768 434.659 121.102 435.258C120.435 435.857 119.568 436.156 118.5 436.156C117.432 436.156 116.562 435.867 115.891 435.289C115.224 434.711 114.891 433.948 114.891 433H116.344C116.344 433.599 116.539 434.078 116.93 434.438C117.32 434.797 117.844 434.977 118.5 434.977C119.198 434.977 119.732 434.794 120.102 434.43C120.471 434.065 120.656 433.542 120.656 432.859C120.656 432.198 120.453 431.69 120.047 431.336C119.641 430.982 119.055 430.799 118.289 430.789H117.203V429.609ZM124.75 430.297L125.328 424.625H131.156V425.961H126.555L126.211 429.062C126.768 428.734 127.401 428.57 128.109 428.57C129.146 428.57 129.969 428.914 130.578 429.602C131.188 430.284 131.492 431.208 131.492 432.375C131.492 433.547 131.174 434.471 130.539 435.148C129.909 435.82 129.026 436.156 127.891 436.156C126.885 436.156 126.065 435.878 125.43 435.32C124.794 434.763 124.432 433.992 124.344 433.008H125.711C125.799 433.659 126.031 434.151 126.406 434.484C126.781 434.812 127.276 434.977 127.891 434.977C128.562 434.977 129.089 434.747 129.469 434.289C129.854 433.831 130.047 433.198 130.047 432.391C130.047 431.63 129.839 431.021 129.422 430.562C129.01 430.099 128.461 429.867 127.773 429.867C127.143 429.867 126.648 430.005 126.289 430.281L125.906 430.594L124.75 430.297ZM132.945 426.812C132.945 426.13 133.161 425.568 133.594 425.125C134.031 424.682 134.591 424.461 135.273 424.461C135.966 424.461 136.526 424.685 136.953 425.133C137.385 425.576 137.602 426.151 137.602 426.859V427.414C137.602 428.102 137.383 428.664 136.945 429.102C136.513 429.534 135.961 429.75 135.289 429.75C134.612 429.75 134.052 429.534 133.609 429.102C133.167 428.664 132.945 428.083 132.945 427.359V426.812ZM134.023 427.414C134.023 427.82 134.138 428.156 134.367 428.422C134.596 428.682 134.904 428.812 135.289 428.812C135.659 428.812 135.956 428.685 136.18 428.43C136.409 428.174 136.523 427.826 136.523 427.383V426.812C136.523 426.406 136.411 426.07 136.188 425.805C135.964 425.539 135.659 425.406 135.273 425.406C134.888 425.406 134.583 425.539 134.359 425.805C134.135 426.07 134.023 426.417 134.023 426.844V427.414ZM138.484 433.211C138.484 432.529 138.701 431.969 139.133 431.531C139.57 431.089 140.13 430.867 140.812 430.867C141.495 430.867 142.055 431.086 142.492 431.523C142.93 431.961 143.148 432.542 143.148 433.266V433.82C143.148 434.503 142.93 435.065 142.492 435.508C142.06 435.945 141.505 436.164 140.828 436.164C140.151 436.164 139.591 435.948 139.148 435.516C138.706 435.078 138.484 434.497 138.484 433.773V433.211ZM139.562 433.82C139.562 434.232 139.677 434.57 139.906 434.836C140.135 435.096 140.443 435.227 140.828 435.227C141.203 435.227 141.503 435.099 141.727 434.844C141.951 434.583 142.062 434.232 142.062 433.789V433.211C142.062 432.799 141.948 432.464 141.719 432.203C141.495 431.943 141.193 431.812 140.812 431.812C140.443 431.812 140.141 431.943 139.906 432.203C139.677 432.458 139.562 432.805 139.562 433.242V433.82ZM135.617 435.141L134.797 434.625L140.352 425.734L141.172 426.25L135.617 435.141Z" fill="#333333"/>
<path d="M782.766 371.297L783.344 365.625H789.172V366.961H784.57L784.227 370.062C784.784 369.734 785.417 369.57 786.125 369.57C787.161 369.57 787.984 369.914 788.594 370.602C789.203 371.284 789.508 372.208 789.508 373.375C789.508 374.547 789.19 375.471 788.555 376.148C787.924 376.82 787.042 377.156 785.906 377.156C784.901 377.156 784.081 376.878 783.445 376.32C782.81 375.763 782.448 374.992 782.359 374.008H783.727C783.815 374.659 784.047 375.151 784.422 375.484C784.797 375.812 785.292 375.977 785.906 375.977C786.578 375.977 787.104 375.747 787.484 375.289C787.87 374.831 788.062 374.198 788.062 373.391C788.062 372.63 787.854 372.021 787.438 371.562C787.026 371.099 786.477 370.867 785.789 370.867C785.159 370.867 784.664 371.005 784.305 371.281L783.922 371.594L782.766 371.297ZM791.75 371.297L792.328 365.625H798.156V366.961H793.555L793.211 370.062C793.768 369.734 794.401 369.57 795.109 369.57C796.146 369.57 796.969 369.914 797.578 370.602C798.188 371.284 798.492 372.208 798.492 373.375C798.492 374.547 798.174 375.471 797.539 376.148C796.909 376.82 796.026 377.156 794.891 377.156C793.885 377.156 793.065 376.878 792.43 376.32C791.794 375.763 791.432 374.992 791.344 374.008H792.711C792.799 374.659 793.031 375.151 793.406 375.484C793.781 375.812 794.276 375.977 794.891 375.977C795.562 375.977 796.089 375.747 796.469 375.289C796.854 374.831 797.047 374.198 797.047 373.391C797.047 372.63 796.839 372.021 796.422 371.562C796.01 371.099 795.461 370.867 794.773 370.867C794.143 370.867 793.648 371.005 793.289 371.281L792.906 371.594L791.75 371.297ZM799.945 367.812C799.945 367.13 800.161 366.568 800.594 366.125C801.031 365.682 801.591 365.461 802.273 365.461C802.966 365.461 803.526 365.685 803.953 366.133C804.385 366.576 804.602 367.151 804.602 367.859V368.414C804.602 369.102 804.383 369.664 803.945 370.102C803.513 370.534 802.961 370.75 802.289 370.75C801.612 370.75 801.052 370.534 800.609 370.102C800.167 369.664 799.945 369.083 799.945 368.359V367.812ZM801.023 368.414C801.023 368.82 801.138 369.156 801.367 369.422C801.596 369.682 801.904 369.812 802.289 369.812C802.659 369.812 802.956 369.685 803.18 369.43C803.409 369.174 803.523 368.826 803.523 368.383V367.812C803.523 367.406 803.411 367.07 803.188 366.805C802.964 366.539 802.659 366.406 802.273 366.406C801.888 366.406 801.583 366.539 801.359 366.805C801.135 367.07 801.023 367.417 801.023 367.844V368.414ZM805.484 374.211C805.484 373.529 805.701 372.969 806.133 372.531C806.57 372.089 807.13 371.867 807.812 371.867C808.495 371.867 809.055 372.086 809.492 372.523C809.93 372.961 810.148 373.542 810.148 374.266V374.82C810.148 375.503 809.93 376.065 809.492 376.508C809.06 376.945 808.505 377.164 807.828 377.164C807.151 377.164 806.591 376.948 806.148 376.516C805.706 376.078 805.484 375.497 805.484 374.773V374.211ZM806.562 374.82C806.562 375.232 806.677 375.57 806.906 375.836C807.135 376.096 807.443 376.227 807.828 376.227C808.203 376.227 808.503 376.099 808.727 375.844C808.951 375.583 809.062 375.232 809.062 374.789V374.211C809.062 373.799 808.948 373.464 808.719 373.203C808.495 372.943 808.193 372.812 807.812 372.812C807.443 372.812 807.141 372.943 806.906 373.203C806.677 373.458 806.562 373.805 806.562 374.242V374.82ZM802.617 376.141L801.797 375.625L807.352 366.734L808.172 367.25L802.617 376.141Z" fill="#333333"/>
<path d="M307.133 570C306.831 570.359 306.469 570.648 306.047 570.867C305.63 571.086 305.172 571.195 304.672 571.195C304.016 571.195 303.443 571.034 302.953 570.711C302.469 570.388 302.094 569.935 301.828 569.352C301.562 568.763 301.43 568.115 301.43 567.406C301.43 566.646 301.573 565.961 301.859 565.352C302.151 564.742 302.562 564.276 303.094 563.953C303.625 563.63 304.245 563.469 304.953 563.469C306.078 563.469 306.964 563.891 307.609 564.734C308.26 565.573 308.586 566.719 308.586 568.172V568.594C308.586 570.807 308.148 572.424 307.273 573.445C306.398 574.461 305.078 574.982 303.312 575.008H303.031V573.789H303.336C304.529 573.768 305.445 573.458 306.086 572.859C306.727 572.255 307.076 571.302 307.133 570ZM304.906 570C305.391 570 305.836 569.852 306.242 569.555C306.654 569.258 306.953 568.891 307.141 568.453V567.875C307.141 566.927 306.935 566.156 306.523 565.562C306.112 564.969 305.591 564.672 304.961 564.672C304.326 564.672 303.815 564.917 303.43 565.406C303.044 565.891 302.852 566.531 302.852 567.328C302.852 568.104 303.036 568.745 303.406 569.25C303.781 569.75 304.281 570 304.906 570ZM310.453 565.812C310.453 565.13 310.669 564.568 311.102 564.125C311.539 563.682 312.099 563.461 312.781 563.461C313.474 563.461 314.034 563.685 314.461 564.133C314.893 564.576 315.109 565.151 315.109 565.859V566.414C315.109 567.102 314.891 567.664 314.453 568.102C314.021 568.534 313.469 568.75 312.797 568.75C312.12 568.75 311.56 568.534 311.117 568.102C310.674 567.664 310.453 567.083 310.453 566.359V565.812ZM311.531 566.414C311.531 566.82 311.646 567.156 311.875 567.422C312.104 567.682 312.411 567.812 312.797 567.812C313.167 567.812 313.464 567.685 313.688 567.43C313.917 567.174 314.031 566.826 314.031 566.383V565.812C314.031 565.406 313.919 565.07 313.695 564.805C313.471 564.539 313.167 564.406 312.781 564.406C312.396 564.406 312.091 564.539 311.867 564.805C311.643 565.07 311.531 565.417 311.531 565.844V566.414ZM315.992 572.211C315.992 571.529 316.208 570.969 316.641 570.531C317.078 570.089 317.638 569.867 318.32 569.867C319.003 569.867 319.562 570.086 320 570.523C320.438 570.961 320.656 571.542 320.656 572.266V572.82C320.656 573.503 320.438 574.065 320 574.508C319.568 574.945 319.013 575.164 318.336 575.164C317.659 575.164 317.099 574.948 316.656 574.516C316.214 574.078 315.992 573.497 315.992 572.773V572.211ZM317.07 572.82C317.07 573.232 317.185 573.57 317.414 573.836C317.643 574.096 317.951 574.227 318.336 574.227C318.711 574.227 319.01 574.099 319.234 573.844C319.458 573.583 319.57 573.232 319.57 572.789V572.211C319.57 571.799 319.456 571.464 319.227 571.203C319.003 570.943 318.701 570.812 318.32 570.812C317.951 570.812 317.648 570.943 317.414 571.203C317.185 571.458 317.07 571.805 317.07 572.242V572.82ZM313.125 574.141L312.305 573.625L317.859 564.734L318.68 565.25L313.125 574.141Z" fill="#333333"/>
<path d="M516.852 538H515.398V528.367L512.484 529.438V528.125L516.625 526.57H516.852V538ZM527.984 529.594C527.984 530.161 527.833 530.667 527.531 531.109C527.234 531.552 526.831 531.898 526.32 532.148C526.914 532.404 527.383 532.776 527.727 533.266C528.076 533.755 528.25 534.31 528.25 534.93C528.25 535.914 527.917 536.698 527.25 537.281C526.589 537.865 525.716 538.156 524.633 538.156C523.539 538.156 522.661 537.865 522 537.281C521.344 536.693 521.016 535.909 521.016 534.93C521.016 534.315 521.182 533.76 521.516 533.266C521.854 532.771 522.32 532.396 522.914 532.141C522.409 531.891 522.01 531.544 521.719 531.102C521.427 530.659 521.281 530.156 521.281 529.594C521.281 528.635 521.589 527.875 522.203 527.312C522.818 526.75 523.628 526.469 524.633 526.469C525.633 526.469 526.44 526.75 527.055 527.312C527.674 527.875 527.984 528.635 527.984 529.594ZM526.805 534.898C526.805 534.263 526.602 533.745 526.195 533.344C525.794 532.943 525.268 532.742 524.617 532.742C523.966 532.742 523.443 532.94 523.047 533.336C522.656 533.732 522.461 534.253 522.461 534.898C522.461 535.544 522.651 536.052 523.031 536.422C523.417 536.792 523.951 536.977 524.633 536.977C525.31 536.977 525.841 536.792 526.227 536.422C526.612 536.047 526.805 535.539 526.805 534.898ZM524.633 527.656C524.065 527.656 523.604 527.833 523.25 528.188C522.901 528.536 522.727 529.013 522.727 529.617C522.727 530.195 522.898 530.664 523.242 531.023C523.591 531.378 524.055 531.555 524.633 531.555C525.211 531.555 525.672 531.378 526.016 531.023C526.365 530.664 526.539 530.195 526.539 529.617C526.539 529.039 526.359 528.568 526 528.203C525.641 527.839 525.185 527.656 524.633 527.656ZM529.945 528.812C529.945 528.13 530.161 527.568 530.594 527.125C531.031 526.682 531.591 526.461 532.273 526.461C532.966 526.461 533.526 526.685 533.953 527.133C534.385 527.576 534.602 528.151 534.602 528.859V529.414C534.602 530.102 534.383 530.664 533.945 531.102C533.513 531.534 532.961 531.75 532.289 531.75C531.612 531.75 531.052 531.534 530.609 531.102C530.167 530.664 529.945 530.083 529.945 529.359V528.812ZM531.023 529.414C531.023 529.82 531.138 530.156 531.367 530.422C531.596 530.682 531.904 530.812 532.289 530.812C532.659 530.812 532.956 530.685 533.18 530.43C533.409 530.174 533.523 529.826 533.523 529.383V528.812C533.523 528.406 533.411 528.07 533.188 527.805C532.964 527.539 532.659 527.406 532.273 527.406C531.888 527.406 531.583 527.539 531.359 527.805C531.135 528.07 531.023 528.417 531.023 528.844V529.414ZM535.484 535.211C535.484 534.529 535.701 533.969 536.133 533.531C536.57 533.089 537.13 532.867 537.812 532.867C538.495 532.867 539.055 533.086 539.492 533.523C539.93 533.961 540.148 534.542 540.148 535.266V535.82C540.148 536.503 539.93 537.065 539.492 537.508C539.06 537.945 538.505 538.164 537.828 538.164C537.151 538.164 536.591 537.948 536.148 537.516C535.706 537.078 535.484 536.497 535.484 535.773V535.211ZM536.562 535.82C536.562 536.232 536.677 536.57 536.906 536.836C537.135 537.096 537.443 537.227 537.828 537.227C538.203 537.227 538.503 537.099 538.727 536.844C538.951 536.583 539.062 536.232 539.062 535.789V535.211C539.062 534.799 538.948 534.464 538.719 534.203C538.495 533.943 538.193 533.812 537.812 533.812C537.443 533.812 537.141 533.943 536.906 534.203C536.677 534.458 536.562 534.805 536.562 535.242V535.82ZM532.617 537.141L531.797 536.625L537.352 527.734L538.172 528.25L532.617 537.141Z" fill="#333333"/>
<path d="M789.482 707.704C789.482 707.142 789.283 706.708 788.885 706.403C788.492 706.099 787.78 705.791 786.749 705.48C785.718 705.17 784.897 704.824 784.288 704.443C783.122 703.711 782.539 702.756 782.539 701.578C782.539 700.547 782.958 699.697 783.796 699.029C784.64 698.361 785.732 698.027 787.074 698.027C787.965 698.027 788.759 698.191 789.456 698.52C790.153 698.848 790.701 699.316 791.1 699.926C791.498 700.529 791.697 701.2 791.697 701.938H789.482C789.482 701.271 789.271 700.749 788.85 700.374C788.434 699.993 787.836 699.803 787.057 699.803C786.33 699.803 785.765 699.958 785.36 700.269C784.962 700.579 784.763 701.013 784.763 701.569C784.763 702.038 784.979 702.431 785.413 702.747C785.847 703.058 786.562 703.362 787.558 703.661C788.554 703.954 789.354 704.291 789.957 704.672C790.561 705.047 791.003 705.48 791.284 705.973C791.565 706.459 791.706 707.03 791.706 707.687C791.706 708.753 791.296 709.603 790.476 710.235C789.661 710.862 788.554 711.176 787.153 711.176C786.228 711.176 785.375 711.006 784.596 710.666C783.822 710.32 783.219 709.846 782.785 709.242C782.357 708.639 782.144 707.936 782.144 707.133H784.367C784.367 707.859 784.607 708.422 785.088 708.82C785.568 709.219 786.257 709.418 787.153 709.418C787.927 709.418 788.507 709.263 788.894 708.952C789.286 708.636 789.482 708.22 789.482 707.704ZM803.422 706.834C803.293 708.199 802.789 709.266 801.91 710.033C801.031 710.795 799.862 711.176 798.403 711.176C797.384 711.176 796.484 710.936 795.705 710.455C794.932 709.969 794.334 709.28 793.912 708.39C793.49 707.499 793.271 706.465 793.253 705.287V704.092C793.253 702.885 793.467 701.821 793.895 700.901C794.322 699.981 794.935 699.272 795.731 698.774C796.534 698.276 797.46 698.027 798.509 698.027C799.921 698.027 801.058 698.411 801.919 699.179C802.78 699.946 803.281 701.03 803.422 702.431H801.207C801.102 701.511 800.832 700.849 800.398 700.444C799.971 700.034 799.341 699.829 798.509 699.829C797.542 699.829 796.798 700.184 796.276 700.893C795.761 701.596 795.497 702.63 795.485 703.995V705.129C795.485 706.512 795.731 707.566 796.224 708.293C796.722 709.02 797.448 709.383 798.403 709.383C799.276 709.383 799.933 709.187 800.372 708.794C800.812 708.401 801.09 707.748 801.207 706.834H803.422ZM815.577 711H813.362V705.313H807.641V711H805.417V698.203H807.641V703.529H813.362V698.203H815.577V711ZM828.427 704.936C828.427 706.189 828.21 707.291 827.776 708.24C827.343 709.184 826.722 709.91 825.913 710.42C825.11 710.924 824.185 711.176 823.136 711.176C822.099 711.176 821.173 710.924 820.358 710.42C819.55 709.91 818.923 709.187 818.478 708.249C818.038 707.312 817.815 706.23 817.81 705.006V704.285C817.81 703.037 818.029 701.936 818.469 700.98C818.914 700.025 819.538 699.296 820.341 698.792C821.149 698.282 822.075 698.027 823.118 698.027C824.161 698.027 825.084 698.279 825.887 698.783C826.695 699.281 827.319 700.002 827.759 700.945C828.198 701.883 828.421 702.976 828.427 704.224V704.936ZM826.203 704.268C826.203 702.85 825.934 701.763 825.395 701.007C824.861 700.251 824.103 699.873 823.118 699.873C822.157 699.873 821.404 700.251 820.859 701.007C820.32 701.757 820.045 702.82 820.033 704.197V704.936C820.033 706.342 820.306 707.429 820.851 708.196C821.401 708.964 822.163 709.348 823.136 709.348C824.12 709.348 824.876 708.973 825.403 708.223C825.937 707.473 826.203 706.377 826.203 704.936V704.268ZM840.854 704.936C840.854 706.189 840.638 707.291 840.204 708.24C839.771 709.184 839.149 709.91 838.341 710.42C837.538 710.924 836.612 711.176 835.563 711.176C834.526 711.176 833.601 710.924 832.786 710.42C831.978 709.91 831.351 709.187 830.905 708.249C830.466 707.312 830.243 706.23 830.237 705.006V704.285C830.237 703.037 830.457 701.936 830.896 700.98C831.342 700.025 831.966 699.296 832.769 698.792C833.577 698.282 834.503 698.027 835.546 698.027C836.589 698.027 837.512 698.279 838.314 698.783C839.123 699.281 839.747 700.002 840.187 700.945C840.626 701.883 840.849 702.976 840.854 704.224V704.936ZM838.631 704.268C838.631 702.85 838.361 701.763 837.822 701.007C837.289 700.251 836.53 699.873 835.546 699.873C834.585 699.873 833.832 700.251 833.287 701.007C832.748 701.757 832.473 702.82 832.461 704.197V704.936C832.461 706.342 832.733 707.429 833.278 708.196C833.829 708.964 834.591 709.348 835.563 709.348C836.548 709.348 837.304 708.973 837.831 708.223C838.364 707.473 838.631 706.377 838.631 704.936V704.268ZM845.293 709.225H851.103V711H843.069V698.203H845.293V709.225Z" fill="#333333"/>
</svg>
