<svg width="256" height="256" viewBox="0 0 256 256" fill="none" xmlns="http://www.w3.org/2000/svg">
<rect y="140" width="256" height="43" fill="#FFF06C" fill-opacity="0.75"/>
<path d="M63.3429 73C71.6297 73 78.5355 74.9481 84.0601 78.8444C89.5847 82.7407 92.347 88.7938 92.347 97.0038C92.347 107.301 86.2008 115.302 73.9086 121.008C61.6164 126.713 47.3906 130.47 31.2312 132.279C31.2312 145.359 33.1648 155.17 37.032 161.71C40.8992 168.25 46.8381 171.52 54.8488 171.52C61.2021 171.52 67.3482 169.433 73.2871 165.258C79.2261 160.944 84.4054 154.613 88.825 146.264L95.6617 150.23C89.8609 161.223 83.3695 169.293 76.1875 174.442C69.0056 179.452 60.7187 181.956 51.3269 181.956C38.6203 181.956 29.0213 177.991 22.5299 170.059C16.1766 161.988 13 150.925 13 136.871C13 125.6 14.8645 115.163 18.5936 105.562C22.4609 95.821 28.1926 87.9589 35.7889 81.9753C43.3853 75.9918 52.5699 73 63.3429 73ZM60.4424 80.0968C51.6031 80.0968 44.7664 84.4105 39.9324 93.0379C35.0984 101.665 32.267 112.241 31.4383 124.765C43.4543 123.095 53.7439 119.755 62.307 114.746C70.8701 109.736 75.1517 103.474 75.1517 95.9602C75.1517 91.3681 73.8396 87.611 71.2154 84.6888C68.7293 81.6275 65.1383 80.0968 60.4424 80.0968Z" fill="#394988"/>
<path d="M178.854 73C187.003 73 193.218 76.4788 197.5 83.4364C201.919 90.2549 204.129 98.9519 204.129 109.528C204.129 118.712 202.403 128.104 198.95 137.706C196.05 145.359 192.044 152.595 186.934 159.414C181.824 166.093 175.954 171.52 169.324 175.694C162.833 179.869 156.134 181.956 149.229 181.956C140.942 181.956 135.003 179.173 131.412 173.607C127.821 168.041 126.025 160.875 126.025 152.108C126.025 144.594 126.371 136.662 127.061 128.313C127.89 119.964 128.373 115.024 128.511 113.493C129.616 104.309 130.169 97.4908 130.169 93.0379C130.169 90.1157 129.754 87.8197 128.926 86.1499C128.097 84.4801 126.578 83.6452 124.368 83.6452C121.882 83.6452 119.327 85.315 116.703 88.6546C114.217 91.9943 112.076 97.1429 110.28 104.101L104.479 102.639C105.17 98.604 106.551 94.3599 108.623 89.907C110.695 85.315 113.595 81.3491 117.324 78.0095C121.191 74.6698 125.749 73 130.998 73C136.384 73 140.458 74.8786 143.221 78.6357C145.983 82.2536 147.364 87.4719 147.364 94.2903C147.364 100.274 146.605 112.589 145.085 131.235C143.98 145.429 143.428 154.056 143.428 157.118C143.428 161.153 144.049 164.423 145.292 166.928C146.535 169.433 149.091 170.685 152.958 170.685C157.516 170.685 162.35 168.946 167.46 165.467C172.708 161.988 177.404 157.326 181.548 151.482C185.829 145.638 189.006 139.445 191.077 132.905C191.906 130.4 192.597 127.2 193.149 123.304C193.84 119.268 194.185 115.233 194.185 111.197C194.185 105.353 193.356 100.274 191.699 95.9602C190.18 91.5073 187.625 88.5155 184.034 86.9848C182.514 90.4636 179.752 92.203 175.747 92.203C173.537 92.203 171.534 91.5073 169.739 90.1158C168.081 88.5851 167.184 86.3586 167.045 83.4364C167.045 80.7925 168.012 78.4269 169.946 76.3397C171.88 74.1132 174.849 73 178.854 73Z" fill="#394988"/>
<path d="M232.227 156.7C235.404 156.7 237.959 157.883 239.892 160.249C241.964 162.614 243 165.536 243 169.015C243 172.911 241.757 176.251 239.271 179.034C236.785 181.678 233.884 183 230.57 183C227.393 183 224.7 181.817 222.49 179.452C220.418 176.947 219.382 173.886 219.382 170.268C219.382 166.51 220.694 163.31 223.319 160.666C225.943 158.022 228.912 156.7 232.227 156.7Z" fill="#394988"/>
</svg>
