<svg width="706" height="618" viewBox="0 0 706 618" fill="none" xmlns="http://www.w3.org/2000/svg">
<path d="M355.132 49.0884C355.703 49.2066 356.102 49.4381 356.328 49.7828C356.604 50.0952 356.696 50.4758 356.603 50.9246C356.501 51.4142 356.299 51.7765 355.995 52.0114C355.691 52.2464 355.322 52.3828 354.889 52.4208C354.496 52.4672 354.051 52.4601 353.553 52.3996C353.104 52.3067 352.655 52.2138 352.206 52.1209C350.166 51.6986 348.247 51.0034 346.447 50.0353C344.697 49.0348 343.206 47.8113 341.973 46.3648C340.782 44.9268 339.935 43.2623 339.433 41.3712C338.93 39.4802 338.916 37.3923 339.389 35.1073C339.997 32.1696 341.128 29.787 342.783 27.9594C344.487 26.0995 346.401 24.666 348.524 23.6587C350.688 22.6599 352.902 22.0333 355.168 21.7788C357.482 21.492 359.574 21.457 361.444 21.6738C362.179 21.8258 362.651 22.115 362.86 22.5413C363.07 22.9676 363.133 23.3848 363.048 23.7928C362.837 24.8129 362.27 25.2912 361.347 25.2278C359.623 25.1264 357.776 25.2121 355.805 25.4849C353.883 25.7253 352.049 26.2605 350.303 27.0905C348.557 27.9205 347.025 29.0502 345.708 30.4796C344.399 31.8682 343.517 33.6641 343.061 35.8674C342.689 37.6627 342.756 39.2934 343.261 40.7595C343.766 42.2256 344.542 43.5138 345.589 44.624C346.644 45.6933 347.884 46.5883 349.309 47.3088C350.775 48.0377 352.263 48.5584 353.773 48.8709C353.977 48.9131 354.201 48.9595 354.446 49.0102C354.691 49.0609 354.919 49.0869 355.132 49.0884ZM371.987 36.1102C372.519 36.0076 372.907 35.9816 373.152 36.0322C373.478 36.0998 373.784 36.2694 374.068 36.5409C374.362 36.5592 374.676 36.5818 375.011 36.6085C375.395 36.6029 375.71 36.6255 375.955 36.6762C377.301 36.9548 378.466 37.4938 379.45 38.293C380.441 39.0515 381.228 39.9802 381.809 41.0791C382.431 42.1864 382.835 43.4189 383.022 44.7767C383.209 46.1345 383.155 47.5274 382.859 48.9554C382.597 50.2203 382.099 51.3937 381.365 52.4756C380.679 53.5251 379.816 54.4101 378.773 55.1304C377.771 55.8591 376.664 56.3747 375.453 56.6771C374.242 56.9795 373.024 57.004 371.8 56.7507C370.29 56.4382 368.953 55.9063 367.79 55.1548C366.626 54.4034 365.685 53.5064 364.964 52.4638C364.244 51.4211 363.741 50.2533 363.456 48.9603C363.211 47.6757 363.232 46.3397 363.519 44.9525C363.747 43.8508 364.102 42.7541 364.583 41.6623C365.073 40.5297 365.684 39.5287 366.417 38.6593C367.15 37.7898 367.972 37.1089 368.883 36.6165C369.834 36.1326 370.869 35.9638 371.987 36.1102ZM372.063 39.4448C371.181 39.3899 370.46 39.5811 369.902 40.0187C369.351 40.4154 368.882 40.9352 368.494 41.5782C368.146 42.2296 367.872 42.9387 367.671 43.7055C367.478 44.4315 367.318 45.1005 367.191 45.7125C367.039 46.447 367.005 47.2271 367.09 48.053C367.183 48.8381 367.431 49.5916 367.835 50.3134C368.288 51.0029 368.884 51.6157 369.624 52.1518C370.364 52.6879 371.326 53.0784 372.509 53.3233C373.407 53.5091 374.236 53.5106 374.997 53.3277C375.808 53.1125 376.497 52.7658 377.064 52.2874C377.68 51.7767 378.186 51.1795 378.583 50.4957C378.98 49.812 379.263 49.0621 379.432 48.246C379.871 46.1243 379.72 44.2847 378.979 42.7271C378.246 41.1287 377.035 40.091 375.347 39.6139L374.184 39.3732C373.857 39.3056 373.494 39.3155 373.093 39.4027C372.692 39.4899 372.348 39.5039 372.063 39.4448ZM395.603 42.2747C396.34 42.0018 397.154 41.8724 398.045 41.8865C398.976 41.9091 399.911 42.0175 400.849 42.2117C402.138 42.5636 403.214 43.0202 404.076 43.5817C404.939 44.1431 405.6 44.8544 406.06 45.7155C406.528 46.5358 406.787 47.5468 406.836 48.7484C406.894 49.9091 406.754 51.3055 406.416 52.9376C406.07 54.6105 405.663 56.1645 405.196 57.5996C404.737 58.9938 404.251 60.2123 403.737 61.2548C403.232 62.2565 402.712 63.0212 402.177 63.5488C401.675 64.1256 401.179 64.3633 400.689 64.262C400.322 64.186 400.021 63.996 399.786 63.6921C399.551 63.3882 399.489 62.971 399.598 62.4406C399.708 61.9101 399.909 61.2496 400.2 60.4589C400.541 59.6358 400.89 58.7719 401.247 57.8673C401.654 56.9303 402.02 55.9848 402.345 55.0309C402.719 54.0446 402.995 53.1231 403.172 52.2662C403.417 51.083 403.509 50.1234 403.449 49.3876C403.438 48.6193 403.291 47.9932 403.008 47.5092C402.775 46.9928 402.409 46.5981 401.913 46.3251C401.425 46.0113 400.842 45.7419 400.165 45.5167C399.309 45.3394 398.422 45.3048 397.506 45.4131C396.59 45.5213 395.826 45.5121 395.214 45.3855C394.847 45.3095 394.571 45.1033 394.385 44.767C394.24 44.4392 394.206 44.0917 394.282 43.7244C394.341 43.4388 394.461 43.1659 394.643 42.9056C394.873 42.613 395.193 42.4027 395.603 42.2747ZM393.037 41.1053C392.479 43.7982 391.934 46.5361 391.4 49.3191C390.875 52.0613 390.544 54.5882 390.406 56.8998L390.317 57.3283C390.173 58.0219 389.88 58.5143 389.437 58.8055C389.043 59.0644 388.642 59.1516 388.234 59.0671C387.867 58.9911 387.554 58.7561 387.295 58.3622C387.036 57.9682 386.937 57.4159 386.999 56.7054C387.201 54.7047 387.456 52.6512 387.764 50.545C388.072 48.4388 388.454 46.284 388.91 44.0807C389.003 43.6319 389.088 43.1176 389.166 42.538C389.243 41.9583 389.353 41.4279 389.495 40.9467C389.687 40.4332 389.938 40.0385 390.251 39.7628C390.612 39.4547 391.079 39.3597 391.65 39.478C392.058 39.5624 392.396 39.7812 392.663 40.1344C392.98 40.4552 393.104 40.7788 393.037 41.1053ZM417.644 49.262C416.842 49.4364 416.361 49.9113 416.2 50.6865C416.099 51.1761 416.344 51.8437 416.935 52.6894C417.566 53.5435 418.275 54.4349 419.062 55.3635C419.898 56.2598 420.697 57.1273 421.459 57.9659C422.222 58.8046 422.724 59.4617 422.966 59.9372C423.401 60.9207 423.525 61.8613 423.339 62.759C423.145 63.6974 422.785 64.41 422.258 64.8968C421.773 65.392 421.15 65.731 420.389 65.9139C419.668 66.1052 418.846 66.1691 417.923 66.1058C417.041 66.0508 416.131 65.9262 415.193 65.732C414.54 65.5969 413.748 65.4118 412.818 65.1768C411.888 64.9417 410.991 64.6497 410.128 64.3007C409.304 63.9601 408.616 63.5837 408.064 63.1714C407.519 62.7183 407.298 62.247 407.399 61.7574C407.483 61.3493 407.694 60.9463 408.032 60.5481C408.37 60.15 408.763 59.9973 409.212 60.0902C409.253 60.0987 409.289 60.1275 409.322 60.1768C409.362 60.1852 409.424 60.1979 409.505 60.2148C410.352 60.6454 411.457 61.0654 412.819 61.475C414.181 61.8845 415.514 62.2244 416.82 62.4946C417.514 62.6382 418.106 62.6544 418.597 62.5433C419.096 62.3914 419.393 62.091 419.486 61.6422C419.57 61.2342 419.455 60.7636 419.14 60.2303C418.833 59.6562 418.42 59.0814 417.901 58.5059C417.423 57.9389 416.899 57.3838 416.331 56.8406C415.803 56.306 415.349 55.829 414.968 55.4096C413.848 54.2418 413.062 53.2069 412.61 52.3049C412.208 51.3707 412.104 50.4343 412.298 49.4959C412.518 48.435 412.96 47.6331 413.626 47.09C414.341 46.5146 415.169 46.1116 416.11 45.8809C417.051 45.6503 418.045 45.5793 419.09 45.668C420.185 45.7244 421.222 45.8539 422.201 46.0566C422.772 46.1748 423.339 46.3134 423.902 46.4725C424.465 46.6315 424.954 46.8391 425.369 47.0952C425.792 47.3105 426.117 47.5905 426.344 47.9352C426.578 48.2391 426.65 48.6155 426.557 49.0643C426.464 49.5132 426.281 49.8797 426.01 50.1639C425.779 50.4565 425.46 50.5606 425.052 50.4761C424.685 50.4001 424.146 50.2249 423.437 49.9505C422.769 49.6845 421.966 49.4544 421.027 49.2602C419.762 48.9984 418.635 48.999 417.644 49.262ZM451.491 54.0976L451.289 55.0769C450.892 56.9946 450.331 58.9847 449.606 61.0473C448.922 63.1183 448.027 64.9755 446.921 66.6187C445.865 68.2297 444.581 69.4958 443.072 70.4173C441.57 71.298 439.82 71.5314 437.821 71.1176C436.393 70.822 435.069 70.2288 433.849 69.3381C432.678 68.4151 431.881 67.2289 431.458 65.7797C431.122 64.7315 430.84 63.5242 430.612 62.158C430.425 60.8003 430.291 59.3898 430.211 57.9265C430.18 56.4309 430.215 54.9275 430.315 53.4164C430.456 51.9138 430.67 50.4688 430.957 49.0816C431.067 48.5511 431.314 48.1769 431.7 47.9588C432.135 47.7084 432.597 47.6339 433.087 47.7352C433.576 47.8366 433.991 48.0927 434.332 48.5036C434.681 48.8736 434.812 49.3689 434.726 49.9894C434.46 51.8916 434.255 53.8065 434.112 55.734C434.009 57.67 434.046 59.4435 434.223 61.0545C434.449 62.6332 434.874 63.9762 435.495 65.0835C436.158 66.1993 437.101 66.8839 438.325 67.1372C439.345 67.3484 440.315 67.1874 441.234 66.6542C442.161 66.0802 443.016 65.2361 443.8 64.1218C444.625 63.016 445.353 61.6562 445.985 60.0424C446.625 58.3879 447.148 56.5813 447.553 54.6228L447.845 53.2152C447.963 52.644 448.215 52.2493 448.6 52.0313C449.035 51.7809 449.477 51.7021 449.926 51.795C450.375 51.8879 450.769 52.1398 451.11 52.5506C451.459 52.9207 451.586 53.4364 451.491 54.0976ZM459.514 71.459C459.938 71.6743 460.234 71.9909 460.403 72.4088C460.58 72.7859 460.626 73.1785 460.542 73.5865C460.44 74.0761 460.205 74.4954 459.835 74.8443C459.473 75.1524 459.027 75.2515 458.497 75.1417C458.211 75.0826 457.938 74.9623 457.678 74.7808C456.089 74.0265 454.963 73.1977 454.299 72.2944C453.644 71.3502 453.262 70.314 453.155 69.1856C453.049 68.0572 453.139 66.7993 453.426 65.4121C453.722 63.984 454.055 62.3723 454.427 60.577C454.722 59.149 455.047 57.6843 455.4 56.1831C455.753 54.6819 456.123 53.2053 456.508 51.7533C456.902 50.2605 457.304 48.8332 457.714 47.4712C458.123 46.1093 458.507 44.8698 458.866 43.7527C459.034 43.1491 459.29 42.734 459.635 42.5075C460.02 42.2895 460.417 42.2227 460.825 42.3071C461.274 42.4 461.668 42.6519 462.009 43.0628C462.39 43.4821 462.509 44.0386 462.365 44.7322C461.998 45.8901 461.576 47.3132 461.099 49.0016C460.671 50.6576 460.222 52.4156 459.752 54.2756C459.323 56.144 458.893 58.0124 458.464 59.8809C458.035 61.7493 457.664 63.4384 457.351 64.9481C457.183 65.7641 457.031 66.4985 456.895 67.1514C456.81 67.7718 456.818 68.348 456.921 68.8798C457.073 69.3793 457.339 69.8387 457.72 70.258C458.102 70.6773 458.7 71.0777 459.514 71.459ZM480.766 79.1766C476.835 78.0225 474.172 76.0884 472.776 73.3743C471.381 70.6601 471.131 67.1405 472.026 62.8155L472.558 60.245C470.967 59.9156 469.67 59.4984 468.668 58.9932C467.675 58.4472 467.284 57.6642 467.495 56.6441C467.653 56.2938 467.9 56.0258 468.236 55.8401C468.581 55.6136 469.018 55.5552 469.549 55.665C470.038 55.7664 470.617 55.95 471.285 56.216C471.954 56.482 472.696 56.6994 473.512 56.8683C473.782 55.5626 474.097 54.245 474.458 52.9154C474.827 51.5451 475.227 50.3302 475.659 49.2708C476.132 48.2198 476.624 47.3855 477.134 46.7678C477.654 46.1094 478.219 45.8435 478.831 45.9702C479.28 46.0631 479.646 46.3516 479.929 46.8356C480.22 47.2788 480.298 47.8268 480.163 48.4797C479.952 49.4997 479.546 50.8412 478.947 52.5043C478.347 54.1673 477.792 55.9245 477.281 57.7761C477.599 57.8845 477.917 57.9928 478.235 58.1012C478.602 58.1772 478.97 58.2532 479.337 58.3292C479.99 58.4643 480.647 58.579 481.308 58.6734C482.01 58.7761 482.716 58.8585 483.427 58.9204C483.998 59.0387 484.434 59.299 484.733 59.7014C485.033 60.1038 485.14 60.5091 485.056 60.9171C484.938 61.4883 484.686 61.8829 484.3 62.101C483.923 62.2782 483.457 62.3732 482.901 62.3858C482.395 62.3661 481.794 62.2844 481.101 62.1408C480.448 62.0057 479.795 61.8706 479.142 61.7355L476.327 61.1528C476.193 61.5932 476.084 62.0173 476 62.4254C475.915 62.8334 475.831 63.2414 475.746 63.6494C475.442 65.1183 475.29 66.4697 475.29 67.7036C475.339 68.9052 475.598 70.0223 476.065 71.0551C476.532 72.0879 477.236 72.9996 478.179 73.7904C479.122 74.5812 480.343 75.2595 481.843 75.8252C482.275 75.9997 482.563 76.2509 482.708 76.5787C482.853 76.9066 482.887 77.2541 482.811 77.6213C482.71 78.1109 482.474 78.5302 482.104 78.8791C481.783 79.1956 481.337 79.2948 480.766 79.1766ZM497.381 65.5104L495.79 65.1811C495.02 65.4047 494.388 65.7846 493.894 66.3206C493.4 66.8566 492.98 67.4503 492.632 68.1017C492.334 68.7208 492.101 69.3321 491.933 69.9357C491.766 70.5393 491.644 71.0247 491.568 71.3919C491.399 72.2079 491.341 73.0043 491.393 73.7809C491.486 74.566 491.677 75.2864 491.967 75.9421C492.306 76.5654 492.727 77.0994 493.231 77.544C493.734 77.9887 494.353 78.287 495.088 78.439C496.393 78.7093 497.452 78.6306 498.264 78.2029C499.117 77.7837 499.795 77.1794 500.299 76.3902C500.843 75.6093 501.258 74.7377 501.542 73.7754C501.835 72.7722 502.07 71.8422 502.247 70.9854C502.275 70.4381 502.201 69.8696 502.026 69.2801C501.858 68.6498 501.592 68.0841 501.228 67.5832C500.904 67.0907 500.503 66.6672 500.023 66.3126C499.593 65.9257 499.112 65.6773 498.582 65.5675C498.174 65.4831 497.773 65.464 497.381 65.5104ZM503.5 77.8825C502.663 79.6665 501.368 80.8877 499.615 81.546C497.861 82.2043 496.046 82.3393 494.169 81.9508C492.823 81.6721 491.678 81.1373 490.736 80.3466C489.842 79.5234 489.146 78.5708 488.647 77.4888C488.156 76.366 487.849 75.175 487.727 73.9157C487.654 72.6241 487.744 71.3662 487.997 70.1422C488.2 69.1629 488.542 68.1274 489.023 67.0357C489.513 65.9031 490.124 64.902 490.857 64.0326C491.591 63.1631 492.453 62.4907 493.445 62.0152C494.445 61.4989 495.558 61.3674 496.782 61.6208C497.435 61.7559 497.871 61.91 498.09 62.0831C498.303 62.0845 498.49 62.1021 498.654 62.1359C498.817 62.1697 499 62.2077 499.204 62.2499C501.122 62.6468 502.547 63.3673 503.48 64.4113C504.413 65.4554 505.071 66.6978 505.453 68.1386C505.885 69.547 506.144 71.0687 506.232 72.7036C506.319 74.3385 506.5 75.9291 506.776 77.4754C506.838 77.9988 506.968 78.6003 507.168 79.2799C507.376 79.9187 507.584 80.5575 507.793 81.1963C508.001 81.8351 508.16 82.4 508.272 82.891C508.424 83.3905 508.474 83.7627 508.423 84.0075C508.331 84.4563 508.096 84.7693 507.718 84.9466C507.341 85.1238 506.949 85.1702 506.541 85.0858C506.133 85.0013 505.738 84.7495 505.357 84.3302C505.025 83.8785 504.714 83.3248 504.424 82.6691C504.175 82.0219 503.968 81.2769 503.802 80.4341C503.636 79.5913 503.535 78.7408 503.5 77.8825ZM522.415 68.5219C523.152 68.249 523.966 68.1196 524.857 68.1338C525.788 68.1564 526.723 68.2648 527.662 68.459C528.95 68.8108 530.026 69.2675 530.888 69.8289C531.751 70.3904 532.412 71.1017 532.872 71.9628C533.341 72.7831 533.599 73.794 533.649 74.9956C533.706 76.1564 533.566 77.5528 533.228 79.1849C532.882 80.8577 532.475 82.4117 532.008 83.8468C531.549 85.2411 531.063 86.4595 530.549 87.502C530.044 88.5038 529.524 89.2684 528.99 89.796C528.487 90.3728 527.991 90.6106 527.502 90.5092C527.134 90.4332 526.833 90.2433 526.598 89.9393C526.363 89.6354 526.301 89.2182 526.411 88.6878C526.52 88.1574 526.721 87.4968 527.012 86.7061C527.353 85.8831 527.702 85.0192 528.059 84.1145C528.466 83.1775 528.832 82.232 529.157 81.2781C529.531 80.2919 529.807 79.3703 529.985 78.5135C530.229 77.3302 530.322 76.3707 530.261 75.6348C530.25 74.8666 530.103 74.2405 529.82 73.7565C529.587 73.2401 529.222 72.8454 528.725 72.5724C528.237 72.2586 527.654 71.9891 526.978 71.7639C526.121 71.5866 525.234 71.5521 524.318 71.6603C523.402 71.7686 522.638 71.7594 522.026 71.6327C521.659 71.5567 521.383 71.3506 521.197 71.0143C521.052 70.6864 521.018 70.3389 521.094 69.9717C521.153 69.6861 521.273 69.4131 521.455 69.1529C521.685 68.8602 522.006 68.6499 522.415 68.5219ZM519.849 67.3525C519.291 70.0454 518.746 72.7834 518.213 75.5663C517.687 78.3085 517.356 80.8354 517.218 83.1471L517.129 83.5755C516.986 84.2691 516.692 84.7616 516.249 85.0528C515.855 85.3116 515.454 85.3988 515.046 85.3144C514.679 85.2384 514.366 85.0034 514.107 84.6094C513.848 84.2154 513.75 83.6632 513.812 82.9527C514.013 80.952 514.268 78.8985 514.576 76.7922C514.884 74.686 515.267 72.5313 515.723 70.328C515.815 69.8791 515.901 69.3649 515.978 68.7852C516.055 68.2055 516.165 67.6751 516.307 67.1939C516.499 66.6804 516.751 66.2858 517.063 66.01C517.425 65.7019 517.891 65.607 518.462 65.7252C518.87 65.8097 519.208 66.0285 519.475 66.3817C519.792 66.7025 519.916 67.0261 519.849 67.3525ZM551.639 93.8456C547.708 92.6916 545.045 90.7575 543.649 88.0433C542.254 85.3292 542.003 81.8096 542.899 77.4846L543.431 74.9141C541.839 74.5847 540.543 74.1674 539.541 73.6622C538.548 73.1163 538.157 72.3332 538.368 71.3132C538.525 70.9629 538.772 70.6949 539.109 70.5092C539.453 70.2827 539.891 70.2243 540.421 70.3341C540.911 70.4354 541.49 70.6191 542.158 70.8851C542.827 71.151 543.569 71.3685 544.385 71.5374C544.655 70.2317 544.97 68.9141 545.331 67.5845C545.699 66.2141 546.1 64.9992 546.532 63.9398C547.005 62.8888 547.496 62.0545 548.007 61.4369C548.526 60.7785 549.092 60.5126 549.704 60.6393C550.153 60.7322 550.519 61.0206 550.801 61.5047C551.093 61.9479 551.171 62.4959 551.036 63.1487C550.824 64.1688 550.419 65.5103 549.82 67.1733C549.22 68.8363 548.665 70.5936 548.154 72.4452C548.472 72.5535 548.79 72.6619 549.108 72.7702C549.475 72.8463 549.842 72.9223 550.21 72.9983C550.862 73.1334 551.519 73.2481 552.181 73.3424C552.883 73.4452 553.589 73.5276 554.3 73.5895C554.871 73.7077 555.306 73.9681 555.606 74.3705C555.906 74.7729 556.013 75.1781 555.929 75.5862C555.811 76.1574 555.559 76.552 555.173 76.7701C554.796 76.9473 554.33 77.0423 553.774 77.0549C553.267 77.0351 552.667 76.9535 551.974 76.8099C551.321 76.6748 550.668 76.5397 550.015 76.4046L547.2 75.8218C547.066 76.2622 546.957 76.6864 546.873 77.0944C546.788 77.5025 546.704 77.9105 546.619 78.3185C546.315 79.7874 546.163 81.1388 546.163 82.3727C546.212 83.5742 546.47 84.6914 546.937 85.7242C547.404 86.7569 548.109 87.6687 549.052 88.4595C549.994 89.2503 551.216 89.9286 552.716 90.4943C553.147 90.6688 553.436 90.92 553.581 91.2478C553.726 91.5756 553.76 91.9232 553.684 92.2904C553.583 92.78 553.347 93.1993 552.977 93.5482C552.656 93.8647 552.21 93.9639 551.639 93.8456Z" fill="black"/>
<path d="M29.6938 92.7495C29.5567 92.2189 29.1934 91.1038 28.6038 89.4042C28.0515 87.659 27.3519 85.6983 26.505 83.5221C25.9329 83.6634 25.3567 83.7632 24.7763 83.8215C24.1959 83.8799 23.5947 83.9403 22.9729 84.0028C22.1437 84.0861 21.2731 84.1736 20.361 84.2653C19.4448 84.3155 18.6073 84.3159 17.8486 84.2666C17.0857 84.1758 16.4409 84.0102 15.9142 83.77C15.3834 83.4884 15.0888 83.0573 15.0305 82.4769C14.9846 82.0209 15.1337 81.629 15.4776 81.3013C15.863 80.9695 16.4289 80.766 17.1751 80.691C18.8584 80.7731 20.5292 80.7308 22.1875 80.5641C22.685 80.5141 23.1825 80.4641 23.68 80.4141C24.1775 80.3641 24.6708 80.2726 25.16 80.1397C24.4917 78.4899 23.8068 76.8837 23.1053 75.321C22.3997 73.7169 21.7128 72.2993 21.0446 71.0683C20.418 69.8331 19.837 68.8446 19.3018 68.1027C18.7666 67.3608 18.3125 67.0087 17.9393 67.0462C17.2346 67.117 16.5529 67.8346 15.8944 69.199C15.2359 70.5633 14.6107 72.2594 14.0188 74.2871C13.427 76.3147 12.8953 78.5248 12.4239 80.9173C11.9483 83.2683 11.5224 85.4887 11.1462 87.5785C10.8114 89.6641 10.5511 91.4491 10.3653 92.9334C10.1753 94.3763 10.0928 95.2221 10.1178 95.4709C10.0766 95.8938 9.90055 96.2256 9.58972 96.4662C9.32035 96.7026 9.01983 96.8375 8.68817 96.8709C8.19068 96.9209 7.71797 96.8009 7.27006 96.5109C6.82215 96.2209 6.56902 95.7857 6.51068 95.2053C7.09645 89.3674 7.91056 84.1348 8.953 79.5073C9.38319 77.5378 9.87973 75.6034 10.4426 73.7043C11.0013 71.7637 11.6452 70.0448 12.3741 68.5478C13.0989 67.0092 13.8943 65.7567 14.7603 64.7903C15.6678 63.8197 16.6397 63.2823 17.6762 63.1781C18.7541 63.0698 19.8365 63.631 20.9233 64.8618C22.0517 66.0884 23.1553 67.6944 24.2343 69.6798C25.3091 71.6237 26.3218 73.7833 27.2724 76.1585C28.2189 78.4922 29.072 80.7306 29.8318 82.8737C30.5875 84.9753 31.2145 86.8386 31.7128 88.4636C32.207 90.0471 32.5371 91.0399 32.7031 91.442L32.7406 91.8151C32.8073 92.4784 32.6542 93.0382 32.2813 93.4945C31.9457 93.9051 31.5498 94.1333 31.0938 94.1791C30.7621 94.2125 30.4615 94.138 30.1919 93.9557C29.9596 93.7278 29.7936 93.3257 29.6938 92.7495ZM38.2381 91.5138C38.3037 90.0834 38.3133 88.7214 38.2671 87.4279C38.2581 86.0888 38.189 84.7766 38.0599 83.4914C37.8057 80.9625 37.2944 78.3756 36.5261 75.7309C36.4721 75.6107 36.4347 75.4469 36.4139 75.2396C36.3555 74.6592 36.4734 74.1658 36.7676 73.7593C37.1032 73.3487 37.5198 73.1184 38.0173 73.0684C38.5562 73.0142 38.9688 73.1612 39.2551 73.5093C39.5828 73.8533 39.838 74.3092 40.0207 74.8771C40.1992 75.4036 40.3426 75.9964 40.4507 76.6555C40.5961 77.2691 40.7602 77.8598 40.9429 78.4277C41.4277 77.8346 42.0597 77.2476 42.8388 76.6668C43.618 76.0859 44.4448 75.5631 45.3194 75.0983C46.2354 74.6293 47.1598 74.2433 48.0925 73.9402C49.021 73.5956 49.8998 73.3816 50.729 73.2983C51.185 73.2524 51.5976 73.3994 51.9668 73.7392C52.336 74.079 52.5435 74.4769 52.5893 74.9329C52.631 75.3475 52.5483 75.7746 52.3412 76.2142C52.1299 76.6123 51.7548 76.8384 51.2159 76.8926C50.2209 76.9926 49.2032 77.2833 48.1628 77.7648C47.1182 78.2048 46.1463 78.7422 45.2469 79.377C44.389 80.0076 43.641 80.69 43.0029 81.4242C42.4063 82.1542 42.0148 82.8426 41.8286 83.4895C41.829 84.327 41.8668 85.3282 41.942 86.4932C42.0545 87.6126 42.08 88.6988 42.0183 89.7519C41.9939 90.7594 41.8514 91.6322 41.5905 92.3703C41.3297 93.1084 40.8676 93.5108 40.2043 93.5775C39.7897 93.6192 39.3606 93.5157 38.9168 93.2672C38.5145 93.0145 38.2821 92.5772 38.2196 91.9554C38.203 91.7895 38.2091 91.6423 38.2381 91.5138ZM74.5544 86.6073C75.1763 86.5448 75.6469 86.644 75.9663 86.9051C76.2815 87.1246 76.462 87.4624 76.5079 87.9185C76.5662 88.4989 76.4649 88.9488 76.2038 89.2682C75.9386 89.5461 75.6029 89.7473 75.1966 89.8719C74.7904 89.9965 74.3385 90.0838 73.841 90.1338C73.3435 90.1838 72.9082 90.2275 72.5351 90.2651C70.7939 90.4401 69.0546 90.4264 67.3174 90.2242C65.5759 89.9804 64.0023 89.5314 62.5965 88.877C61.1907 88.2227 60.0128 87.336 59.0628 86.2171C58.1128 85.0982 57.5544 83.7095 57.3877 82.0512C57.1919 80.1027 57.4833 78.4193 58.262 77.001C59.0781 75.537 60.1492 74.3196 61.4754 73.3488C62.8389 72.3323 64.3725 71.55 66.0763 71.0019C67.8215 70.4496 69.5439 70.088 71.2437 69.9172C72.3216 69.8089 73.1653 69.8706 73.7749 70.1025C74.3803 70.2929 74.7205 70.7612 74.7955 71.5075C74.8414 71.9635 74.7545 72.3491 74.5349 72.6643C74.3568 72.9754 74.0605 73.1517 73.6459 73.1934C73.3557 73.2225 73.0862 73.2496 72.8375 73.2746C72.5845 73.2582 72.3337 73.2625 72.085 73.2875C70.6339 73.4333 69.239 73.7201 67.9 74.1478C66.6025 74.5713 65.4461 75.1482 64.4307 75.8784C63.4568 76.6045 62.6881 77.4983 62.1248 78.56C61.5988 79.576 61.4045 80.7681 61.5421 82.1362C61.6504 83.2141 62.0737 84.0928 62.8121 84.7724C63.5504 85.452 64.4607 85.9677 65.543 86.3195C66.6253 86.6714 67.7987 86.8885 69.0633 86.9707C70.3278 87.053 71.5405 87.0358 72.7013 86.9192C73.033 86.8858 73.3439 86.8546 73.6341 86.8254C73.9202 86.7548 74.2269 86.6821 74.5544 86.6073ZM85.3173 69.9474C85.8187 69.5201 86.5814 69.1922 87.6054 68.9636C88.6666 68.6894 89.7776 68.494 90.9384 68.3773C93.343 68.1357 95.1779 68.6841 96.4431 70.0226C97.7041 71.3196 98.4992 73.6057 98.8284 76.8809C98.9993 78.5807 99.0768 80.1851 99.061 81.6943C99.041 83.162 98.9421 84.4701 98.7644 85.6186C98.624 86.7215 98.3778 87.6047 98.0257 88.2683C97.6736 88.9318 97.2489 89.2886 96.7514 89.3386C96.3368 89.3803 95.9677 89.2498 95.6442 88.9473C95.3207 88.6449 95.1297 88.2034 95.0714 87.623C94.9964 86.8768 94.9794 86.0828 95.0204 85.2412C95.0615 84.3995 95.119 83.5143 95.1932 82.5856C95.2674 81.6568 95.3208 80.7302 95.3535 79.8056C95.382 78.8396 95.3525 77.9212 95.265 77.0506C95.0942 75.3509 94.6706 74.0534 93.9944 73.1582C93.3554 72.2174 92.2068 71.8303 90.5485 71.997C89.7193 72.0803 88.9255 72.3067 88.1669 72.6761C87.4084 73.0454 86.6975 73.2635 86.0342 73.3301C85.6196 73.3718 85.2713 73.2393 84.9892 72.9327C84.7071 72.626 84.5452 72.2654 84.5035 71.8508C84.4702 71.5191 84.4991 71.1812 84.5901 70.8371C84.7226 70.4887 84.965 70.1922 85.3173 69.9474ZM82.3766 59.4388C82.3318 61.0765 82.3577 63.0002 82.4541 65.21C82.5921 67.4156 82.7819 69.7206 83.0236 72.1252C83.2653 74.5297 83.5899 76.9259 83.9974 79.3138C84.4007 81.6603 84.6962 83.7663 84.8837 85.6319C84.9628 86.4196 84.8388 87.0602 84.5115 87.5537C84.1842 88.0473 83.7511 88.3211 83.2122 88.3753C82.5903 88.4378 82.0573 87.926 81.6131 86.84C81.2104 85.7498 80.8656 84.4025 80.5787 82.7982C80.2918 81.1938 80.0588 79.5003 79.8796 77.7176C79.6963 75.8935 79.5358 74.2974 79.3983 72.9293C79.1566 70.5247 78.9606 68.1575 78.8101 65.8275C78.6597 63.4975 78.5881 61.3271 78.5954 59.3163C78.5618 58.5659 78.7378 58.0248 79.1232 57.6929C79.55 57.3569 79.9915 57.1659 80.4475 57.1201C80.9036 57.0742 81.3182 57.2419 81.6916 57.6232C82.0607 57.963 82.2766 58.4438 82.3391 59.0657L82.3766 59.4388ZM107.693 68.8291C107.706 69.7909 107.723 70.7942 107.744 71.839C107.807 72.8796 107.892 73.9389 108 75.0168C108.155 76.5507 108.371 78.0784 108.65 79.5998C108.97 81.1171 109.203 82.6013 109.348 84.0523C109.432 84.8814 109.287 85.5241 108.914 85.9804C108.583 86.4325 108.189 86.6814 107.733 86.7273C107.318 86.7689 106.951 86.6593 106.632 86.3982C106.35 86.0916 106.155 85.6086 106.047 84.9495C105.735 83.0964 105.439 81.4091 105.161 79.8877C104.92 78.3206 104.72 76.7494 104.561 75.174C104.499 74.5521 104.399 73.7665 104.262 72.8172C104.162 71.8222 104.109 70.8852 104.105 70.0063C104.138 69.0817 104.268 68.2939 104.495 67.6428C104.76 66.9462 105.225 66.5645 105.888 66.4978C106.302 66.4562 106.674 66.6073 107.001 66.9513C107.371 67.2911 107.586 67.7719 107.649 68.3937L107.693 68.8291ZM103.283 54.9505C103.44 54.8509 103.581 54.7949 103.705 54.7824C103.871 54.7657 104.018 54.7719 104.147 54.8008C104.317 54.8256 104.443 54.8338 104.526 54.8255C104.729 54.7632 104.914 54.7237 105.08 54.7071C105.241 54.6489 105.426 54.6095 105.633 54.5886C107.001 54.4511 108.063 54.8051 108.818 55.6505C109.614 56.4917 110.065 57.4305 110.169 58.467C110.219 58.9645 110.149 59.5159 109.958 60.1213C109.809 60.7226 109.532 61.2949 109.126 61.8382C108.757 62.3359 108.258 62.7839 107.628 63.1822C106.998 63.5806 106.247 63.8235 105.377 63.911C104.796 63.9693 104.243 63.8784 103.716 63.6382C103.189 63.398 102.719 63.0894 102.304 62.7123C101.885 62.2938 101.545 61.8254 101.283 61.3073C101.018 60.7478 100.858 60.1985 100.804 59.6595C100.72 58.8304 100.902 57.9327 101.349 56.9664C101.838 55.996 102.483 55.3241 103.283 54.9505ZM105.1 58.0342L104.603 58.0842C104.404 58.188 104.273 58.3477 104.211 58.5633C104.149 58.7789 104.128 58.9904 104.149 59.1976C104.187 59.5708 104.367 59.9086 104.691 60.2111C105.01 60.4721 105.294 60.5901 105.543 60.5651C106.165 60.5026 106.561 60.2744 106.73 59.8804C106.896 59.445 106.962 59.0615 106.929 58.7298C106.655 58.0873 106.207 57.7973 105.585 57.8598C105.502 57.8682 105.34 57.9263 105.1 58.0342ZM133.845 84.0399C129.749 84.1166 126.628 83.0692 124.484 80.8978C122.339 78.7264 121.046 75.4434 120.604 71.0489L120.342 68.4371C118.725 68.5996 117.363 68.5899 116.256 68.408C115.145 68.1847 114.537 67.5548 114.433 66.5184C114.478 66.1369 114.634 65.8073 114.899 65.5293C115.16 65.21 115.56 65.0232 116.099 64.969C116.596 64.919 117.204 64.9208 117.921 64.9743C118.638 65.0278 119.411 65.0129 120.241 64.9296C120.107 63.603 120.013 62.2514 119.959 60.875C119.9 59.4571 119.918 58.178 120.013 57.0378C120.149 55.8935 120.368 54.9501 120.67 54.2079C120.969 53.4241 121.429 53.001 122.05 52.9385C122.506 52.8927 122.942 53.0583 123.357 53.4353C123.767 53.771 124.006 54.2704 124.073 54.9338C124.177 55.9702 124.192 57.3715 124.118 59.1378C124.045 60.904 124.041 62.7469 124.109 64.6664C124.444 64.6746 124.78 64.6827 125.116 64.6908C125.489 64.6533 125.862 64.6158 126.235 64.5783C126.899 64.5116 127.56 64.4242 128.219 64.3161C128.92 64.2038 129.618 64.0708 130.315 63.917C130.895 63.8587 131.389 63.9766 131.795 64.2708C132.202 64.5649 132.426 64.9193 132.467 65.3339C132.526 65.9143 132.404 66.3662 132.101 66.6898C131.794 66.9719 131.378 67.2022 130.851 67.3807C130.362 67.5136 129.765 67.6155 129.06 67.6864C128.397 67.753 127.734 67.8197 127.07 67.8864L124.21 68.1739C124.214 68.6341 124.237 69.0715 124.279 69.4861C124.321 69.9007 124.362 70.3152 124.404 70.7298C124.554 72.2223 124.814 73.5572 125.183 74.7344C125.59 75.8661 126.171 76.8546 126.926 77.7C127.681 78.5454 128.627 79.2041 129.763 79.6762C130.899 80.1483 132.268 80.4295 133.868 80.5199C134.332 80.557 134.683 80.7102 134.919 80.9796C135.156 81.2489 135.293 81.5702 135.33 81.9433C135.38 82.4408 135.281 82.9114 135.032 83.3552C134.821 83.7533 134.425 83.9815 133.845 84.0399ZM155.186 78.8797C155.891 78.8089 156.426 78.9226 156.791 79.221C157.151 79.4778 157.357 79.855 157.407 80.3525C157.461 80.8915 157.358 81.3206 157.096 81.64C156.873 81.9137 156.56 82.1336 156.158 82.2997C155.797 82.4616 155.368 82.5675 154.871 82.6175C154.415 82.6633 154 82.705 153.627 82.7425C151.886 82.9175 150.124 82.8852 148.341 82.6457C146.595 82.3605 144.994 81.8513 143.539 81.1182C142.083 80.3851 140.856 79.4198 139.856 78.2221C138.856 77.0244 138.273 75.5964 138.106 73.9381C137.927 72.1554 138.249 70.5735 139.074 69.1925C139.935 67.7658 141.048 66.5443 142.412 65.5278C143.775 64.5114 145.265 63.7125 146.882 63.1313C148.498 62.55 150.011 62.1885 151.421 62.0468C152.126 61.976 152.839 61.9881 153.56 62.0831C154.323 62.1739 155.016 62.3974 155.638 62.7537C156.26 63.1099 156.793 63.6217 157.237 64.289C157.681 64.9562 157.957 65.8288 158.065 66.9067C158.195 68.1919 157.89 69.3322 157.153 70.3276C156.415 71.323 155.498 72.19 154.399 72.9286C153.301 73.6671 152.124 74.2461 150.868 74.6654C149.612 75.0848 148.55 75.359 147.684 75.488C147.228 75.5338 146.859 75.4034 146.577 75.0967C146.332 74.7444 146.187 74.3403 146.141 73.8842C146.103 73.5111 146.17 73.1276 146.339 72.7336C146.505 72.2982 146.837 72.0555 147.334 72.0055C148.122 71.9263 148.943 71.7601 149.796 71.5067C150.692 71.2492 151.496 70.9172 152.209 70.5105C152.959 70.0582 153.556 69.5376 153.999 68.9486C154.443 68.3597 154.627 67.6921 154.552 66.9458C154.439 65.8265 153.533 65.3522 151.833 65.5231C150.714 65.6356 149.549 65.9202 148.339 66.3768C147.124 66.792 146.03 67.3627 145.056 68.0887C144.082 68.8147 143.29 69.69 142.682 70.7143C142.11 71.6931 141.887 72.8043 142.012 74.048C142.107 75.0016 142.483 75.8223 143.138 76.5102C143.835 77.1939 144.69 77.7781 145.702 78.2626C146.751 78.7016 147.912 79.0036 149.185 79.1688C150.499 79.3299 151.84 79.3416 153.208 79.2041C153.54 79.1708 153.872 79.1374 154.203 79.1041C154.531 79.0293 154.858 78.9545 155.186 78.8797ZM179.401 76.0689C180.023 76.0064 180.494 76.1057 180.813 76.3667C181.128 76.5863 181.309 76.9241 181.355 77.3801C181.413 77.9605 181.312 78.4104 181.051 78.7298C180.785 79.0077 180.45 79.209 180.043 79.3335C179.637 79.4581 179.185 79.5454 178.688 79.5954C178.19 79.6454 177.755 79.6892 177.382 79.7267C175.641 79.9017 173.901 79.8881 172.164 79.6858C170.423 79.4421 168.849 78.993 167.443 78.3387C166.037 77.6843 164.859 76.7977 163.909 75.6787C162.959 74.5598 162.401 73.1712 162.234 71.5129C162.039 69.5644 162.33 67.8809 163.109 66.4626C163.925 64.9987 164.996 63.7813 166.322 62.8104C167.686 61.794 169.219 61.0117 170.923 60.4636C172.668 59.9113 174.391 59.5497 176.09 59.3788C177.168 59.2705 178.012 59.3323 178.622 59.5641C179.227 59.7545 179.567 60.2229 179.642 60.9691C179.688 61.4251 179.601 61.8108 179.382 62.126C179.204 62.437 178.907 62.6134 178.493 62.655C178.202 62.6842 177.933 62.7113 177.684 62.7363C177.431 62.7198 177.18 62.7241 176.932 62.7491C175.481 62.8949 174.086 63.1817 172.747 63.6094C171.449 64.033 170.293 64.6099 169.277 65.3401C168.303 66.0661 167.535 66.96 166.972 68.0216C166.446 69.0377 166.251 70.2297 166.389 71.5978C166.497 72.6757 166.92 73.5545 167.659 74.234C168.397 74.9136 169.307 75.4293 170.39 75.7812C171.472 76.133 172.645 76.3501 173.91 76.4324C175.175 76.5147 176.387 76.4975 177.548 76.3808C177.88 76.3475 178.191 76.3162 178.481 76.287C178.767 76.2164 179.074 76.1437 179.401 76.0689ZM202.002 77.1893C197.905 77.266 194.785 76.2187 192.64 74.0472C190.496 71.8758 189.203 68.5929 188.761 64.1983L188.498 61.5865C186.882 61.749 185.52 61.7393 184.413 61.5575C183.301 61.3342 182.694 60.7043 182.589 59.6678C182.635 59.2864 182.79 58.9567 183.055 58.6788C183.316 58.3594 183.716 58.1726 184.255 58.1185C184.753 58.0685 185.36 58.0702 186.077 58.1238C186.795 58.1773 187.568 58.1624 188.397 58.079C188.264 56.7524 188.17 55.4009 188.115 54.0244C188.056 52.6065 188.074 51.3275 188.169 50.1873C188.305 49.0429 188.525 48.0996 188.827 47.3573C189.125 46.5736 189.585 46.1504 190.207 46.0879C190.663 46.0421 191.098 46.2077 191.513 46.5848C191.924 46.9204 192.162 47.4199 192.229 48.0832C192.333 49.1196 192.349 50.521 192.275 52.2872C192.201 54.0534 192.198 55.8963 192.265 57.8159C192.601 57.824 192.937 57.8321 193.273 57.8403C193.646 57.8028 194.019 57.7653 194.392 57.7277C195.055 57.6611 195.717 57.5737 196.376 57.4655C197.076 57.3532 197.775 57.2202 198.471 57.0665C199.052 57.0081 199.545 57.126 199.952 57.4202C200.358 57.7144 200.582 58.0687 200.624 58.4833C200.682 59.0637 200.56 59.5157 200.258 59.8392C199.951 60.1213 199.534 60.3516 199.008 60.5302C198.519 60.6631 197.922 60.765 197.217 60.8358C196.554 60.9025 195.89 60.9692 195.227 61.0358L192.366 61.3233C192.371 61.7835 192.394 62.2209 192.436 62.6355C192.477 63.0501 192.519 63.4647 192.561 63.8792C192.711 65.3717 192.97 66.7066 193.34 67.8839C193.747 69.0155 194.328 70.0041 195.083 70.8495C195.838 71.6949 196.783 72.3536 197.92 72.8256C199.056 73.2977 200.424 73.579 202.025 73.6694C202.489 73.7064 202.839 73.8597 203.076 74.129C203.312 74.3984 203.449 74.7196 203.487 75.0928C203.537 75.5902 203.438 76.0609 203.189 76.5046C202.978 76.9027 202.582 77.131 202.002 77.1893Z" fill="black"/>
<path fill-rule="evenodd" clip-rule="evenodd" d="M184.616 617.147C137.823 617.147 99.8893 606.915 99.8893 594.294C99.8893 581.673 137.823 571.441 184.616 571.441C231.41 571.441 269.343 581.673 269.343 594.294C269.343 606.915 231.41 617.147 184.616 617.147Z" fill="#EAEFF4"/>
<path fill-rule="evenodd" clip-rule="evenodd" d="M187.869 570.918C188.099 570.229 186.919 564.136 187.821 563.361C190.701 560.888 195.612 566.289 195.612 566.289C195.612 566.289 202.218 575.444 205.38 577.359C220.807 586.703 222.497 587.321 221.014 591.759C219.531 596.197 186.386 575.355 187.869 570.918Z" fill="#FFDFAE"/>
<path fill-rule="evenodd" clip-rule="evenodd" d="M157.868 582.704C158.098 582.015 156.918 575.922 157.82 575.147C160.7 572.674 165.996 577.012 165.996 577.012C165.996 577.012 172.217 587.23 175.378 589.145C190.805 598.489 192.495 599.107 191.012 603.545C189.529 607.983 156.385 587.141 157.868 582.704Z" fill="#FFDFAE"/>
<path fill-rule="evenodd" clip-rule="evenodd" d="M223.616 591.57C221.383 595.957 210.965 594.241 205.379 591.913C199.638 589.52 198.089 581.426 192.96 581.437C190.169 581.442 190.666 593.601 190.666 593.601L188.445 593.894C185.874 590.259 187.345 570.819 187.345 570.819L209.208 587.562C209.208 587.562 217.65 584.362 220.802 586.703C222.903 588.26 224.403 590.019 223.616 591.57Z" fill="#37474F"/>
<path fill-rule="evenodd" clip-rule="evenodd" d="M193.615 603.356C191.382 607.743 180.964 606.027 175.378 603.699C169.637 601.306 168.088 593.212 162.959 593.223C160.168 593.228 160.665 605.387 160.665 605.387L158.444 605.68C155.873 602.045 157.344 582.605 157.344 582.605L179.207 599.348C179.207 599.348 187.649 596.148 190.801 598.489C192.902 600.046 194.402 601.805 193.615 603.356Z" fill="#37474F"/>
<path fill-rule="evenodd" clip-rule="evenodd" d="M196.971 567.465H187.481C176.461 520.43 179.254 480.232 179.254 480.232C162.554 435.543 141.703 363.584 157.333 344.108H191.923C191.923 344.108 197.767 381.993 197.887 406.674C197.935 416.691 199.187 441.459 200.76 469.074C203.57 518.267 196.971 567.465 196.971 567.465Z" fill="#3F3E65"/>
<path fill-rule="evenodd" clip-rule="evenodd" d="M167.016 577.567H157.398C144.788 538.623 152.542 469.24 152.542 469.24C135.842 424.55 120.214 363.584 135.842 344.108L184.975 343.359L167.016 577.567Z" fill="#56557E"/>
<path fill-rule="evenodd" clip-rule="evenodd" d="M143.463 196.88L163.989 199.707L161.772 156.243L144.679 155.738L143.463 196.88Z" fill="#FFDFAE"/>
<path fill-rule="evenodd" clip-rule="evenodd" d="M129.376 264.484C131.409 296.52 125.929 309.774 134.167 345.962C134.167 345.962 190.823 350.612 195.463 342.072C204.814 324.859 174.547 298.419 191.818 259.575C205.282 229.295 169.582 193.826 147.716 185.502C133.621 180.137 126.123 213.234 129.376 264.484Z" fill="#2FC0C4"/>
<path fill-rule="evenodd" clip-rule="evenodd" d="M253.492 301.5L179.495 301.5C179.495 301.5 154.444 252.579 152.933 234.045C152.344 226.806 160.587 220.743 167.129 220.081C185.502 218.223 194.495 281.71 194.495 281.71L253.492 292.5L253.492 301.5Z" fill="#FFDFAE"/>
<path fill-rule="evenodd" clip-rule="evenodd" d="M276.318 299.905C277.887 302.606 268.355 305.894 266.875 305.999C265.478 306.098 252.574 300.492 251.492 300.492V292.671C251.492 290.347 258.315 286.87 261.334 290.731L276.318 299.905Z" fill="#FFDFAE"/>
<path fill-rule="evenodd" clip-rule="evenodd" d="M157.478 164.401C157.478 164.401 163.875 168.313 166.998 173.675C166.998 173.675 163.872 183.034 160.075 183.751C155.987 184.53 151.146 176.542 149.532 172.911C148.228 169.973 157.478 164.401 157.478 164.401Z" fill="#F4CA92"/>
<path fill-rule="evenodd" clip-rule="evenodd" d="M177.21 145.797C179.514 165.765 170.289 181.506 164.02 182.23C151.984 183.618 141.905 166.502 139.601 146.537C137.297 126.573 140.154 112.192 152.188 110.803C164.222 109.414 173.844 116.623 177.21 145.797Z" fill="#FFDFAE"/>
<path fill-rule="evenodd" clip-rule="evenodd" d="M113.773 239.247C61.456 239.063 103.979 322.503 132.643 317.637C153.191 314.148 164.769 270.813 142.113 229.256C132.42 211.476 138.987 190.872 147.622 176.516C153.695 166.419 147.044 140.351 147.044 140.351C164.42 142.169 179.159 138.449 178.276 132.615C174.683 108.901 149.991 104.563 138.254 121.468C127.54 136.899 133.214 137.514 128.41 161.641C126.511 171.178 110.772 172.095 108.241 193.558C107.777 197.513 116.964 239.259 113.773 239.247Z" fill="#37474F"/>
<path fill-rule="evenodd" clip-rule="evenodd" d="M422.212 617C467.663 617 504.508 607.085 504.508 594.855C504.508 582.624 467.663 572.709 422.212 572.709C376.762 572.709 339.917 582.624 339.917 594.855C339.917 607.085 376.762 617 422.212 617Z" fill="#EAEFF4"/>
<path fill-rule="evenodd" clip-rule="evenodd" d="M264.015 291.997L274.616 298.693C274.616 298.693 280.304 301.31 284.146 299.521L283.537 290.562C279.986 291.54 273.2 284.392 269.337 285.398C268.232 285.685 254.654 288.211 256.702 291.152C257.909 292.891 264.015 291.997 264.015 291.997Z" fill="#9F634A"/>
<path fill-rule="evenodd" clip-rule="evenodd" d="M394.256 574.091L411.309 572.772C411.309 572.772 425.955 391.43 421.733 345.651H364.732L394.256 574.091Z" fill="#7F1800"/>
<path fill-rule="evenodd" clip-rule="evenodd" d="M457.54 572.772H474.709C474.709 572.772 471.886 390.252 467.661 344.475H410.66L457.54 572.772Z" fill="#7F1800"/>
<path fill-rule="evenodd" clip-rule="evenodd" d="M450.482 582.832C452.545 580.778 457.54 572.772 457.54 572.772H474.707C478.756 577.429 478.025 601.089 478.025 601.089H422.938C421.417 590.962 444.306 588.966 450.482 582.832Z" fill="#37474F"/>
<path fill-rule="evenodd" clip-rule="evenodd" d="M387.083 582.832C389.146 580.778 394.14 572.772 394.14 572.772H411.308C415.356 577.429 414.626 601.089 414.626 601.089H359.537C358.017 590.962 380.909 588.966 387.083 582.832Z" fill="#37474F"/>
<path fill-rule="evenodd" clip-rule="evenodd" d="M283.536 290.559L346.127 276.119C346.127 276.119 355.548 210.114 373.385 201.666C377.085 199.914 384.91 208.437 386.934 214.443C392.062 229.653 375.943 260.225 358.596 290.185C348.255 308.044 296.19 299.096 284.151 299.522L283.536 290.559Z" fill="#64485D"/>
<path fill-rule="evenodd" clip-rule="evenodd" d="M453.529 345.982H365.537C365.537 345.982 357.185 225.964 382.053 194.378C395.879 176.82 425.448 169.035 441.002 184.999C468.981 213.72 453.529 345.982 453.529 345.982Z" fill="#F2F5F8"/>
<path fill-rule="evenodd" clip-rule="evenodd" d="M398.196 352.532C399.324 313.484 397.87 314.085 399.499 283.962C400.561 264.347 401.311 252.106 403.157 232.587C403.652 227.362 405.149 222.145 404.667 216.921C401.179 179.081 403.265 180.265 403.265 180.265C401.722 179.486 373.692 199.34 373.692 199.34C351.621 226.145 373.801 277.096 358.502 352.914L398.196 352.532Z" fill="#7D5C69"/>
<path fill-rule="evenodd" clip-rule="evenodd" d="M458.941 189.91C452.016 183.644 445.456 180.957 432.432 179.891C432.303 197.857 422.243 214.764 420.084 232.586C417.867 250.874 416.473 269.276 415.168 287.655C412.961 318.816 406.245 322.114 409.764 352.913L474.61 348.571C474.61 348.571 487.704 215.939 458.941 189.91Z" fill="#7D5C69"/>
<path fill-rule="evenodd" clip-rule="evenodd" d="M426.42 145.728L395.878 172.061L403.37 179.944C403.37 179.944 403.554 186.839 405.176 188.264C410.292 192.759 430.817 186.042 430.817 186.042L426.42 145.728Z" fill="#A97763"/>
<path fill-rule="evenodd" clip-rule="evenodd" d="M390.522 185.574C391.861 182.521 404.405 179.416 404.405 179.416C402.073 181.359 405.405 198.192 406.002 223.943C407.088 270.578 398.714 313.134 398.714 313.134C398.714 313.134 392.851 243.197 387.166 210.29C386.648 207.28 396.033 210.17 396.033 210.17C396.033 210.17 390.279 202.385 390.391 200.562C390.838 192.686 388.911 189.246 390.522 185.574Z" fill="#64485D"/>
<path fill-rule="evenodd" clip-rule="evenodd" d="M441.004 185.002C440.47 181.699 429.524 174.078 429.524 174.078C430.55 179.398 421.633 196.226 416.373 221.416C407.139 265.63 411.182 315.811 411.182 315.811C411.182 315.811 429.769 255.867 437.984 213.167C438.562 210.168 429.442 210.719 429.442 210.719C429.442 210.719 436.945 204.704 437.298 202.917C438.83 195.181 441.646 188.977 441.004 185.002Z" fill="#64485D"/>
<path fill-rule="evenodd" clip-rule="evenodd" d="M508.492 375L415.762 403.27L406.992 406L405.295 396.702L392.992 329L401.703 325.945L485.609 300.27L493.992 298L495.775 305.524C495.775 305.524 496.012 306.392 496.076 306.837L506.769 365.648L508.492 375Z" fill="#D8D6DD"/>
<path d="M401.992 410.5L406.992 406L392.992 329L387.492 335L401.992 410.5Z" fill="#8F97B9"/>
<path d="M401.492 411L406.992 406L507.992 375L504.992 380L401.492 411Z" fill="#BBC0D6"/>
<path d="M520.98 344.253C521.11 343.974 521.35 343.359 521.7 342.41C522.082 341.454 522.477 340.351 522.886 339.103C522.586 338.96 522.3 338.798 522.027 338.616C521.754 338.434 521.471 338.246 521.178 338.052C520.788 337.792 520.378 337.519 519.949 337.234C519.532 336.929 519.168 336.63 518.855 336.338C518.556 336.026 518.335 335.724 518.191 335.432C518.061 335.12 518.087 334.828 518.268 334.554C518.411 334.34 518.616 334.223 518.882 334.203C519.168 334.196 519.487 334.309 519.838 334.543C520.541 335.179 521.283 335.757 522.063 336.276C522.298 336.432 522.532 336.588 522.766 336.743C523 336.899 523.247 337.035 523.507 337.152C523.805 336.196 524.081 335.253 524.333 334.323C524.598 333.374 524.806 332.512 524.954 331.739C525.122 330.978 525.222 330.341 525.254 329.827C525.286 329.314 525.214 328.999 525.039 328.882C524.707 328.661 524.154 328.73 523.381 329.088C522.608 329.447 521.731 329.961 520.75 330.632C519.77 331.303 518.75 332.074 517.691 332.946C516.646 333.799 515.668 334.613 514.759 335.387C513.869 336.175 513.119 336.858 512.509 337.437C511.912 337.997 511.574 338.335 511.496 338.452C511.327 338.622 511.132 338.703 510.911 338.697C510.71 338.704 510.531 338.655 510.375 338.551C510.141 338.395 509.978 338.175 509.887 337.889C509.795 337.603 509.84 337.323 510.022 337.05C512.36 334.72 514.581 332.735 516.685 331.095C517.575 330.392 518.481 329.728 519.403 329.103C520.338 328.458 521.232 327.94 522.083 327.549C522.947 327.139 523.74 326.878 524.461 326.767C525.202 326.668 525.816 326.781 526.304 327.106C526.812 327.443 527.082 328.073 527.116 328.996C527.169 329.932 527.076 331.025 526.837 332.273C526.61 333.502 526.28 334.802 525.846 336.174C525.425 337.527 524.998 338.805 524.564 340.008C524.142 341.191 523.75 342.225 523.387 343.11C523.037 343.975 522.827 344.524 522.755 344.758L522.639 344.934C522.431 345.246 522.165 345.435 521.84 345.5C521.547 345.559 521.294 345.517 521.079 345.374C520.923 345.271 520.819 345.131 520.766 344.955C520.747 344.774 520.818 344.539 520.98 344.253ZM541.888 346.336C542.018 346.141 542.209 346.043 542.463 346.043C542.749 346.036 543.009 346.11 543.243 346.266C543.458 346.409 543.598 346.601 543.663 346.841C543.761 347.075 543.729 347.335 543.566 347.621C542.417 348.968 541.249 350.302 540.061 351.623C538.892 352.957 537.762 354.232 536.672 355.449C536.431 355.683 536.178 355.81 535.912 355.83C535.632 355.869 535.405 355.831 535.229 355.714C535.053 355.597 534.926 355.428 534.848 355.207C534.757 355.006 534.773 354.749 534.896 354.437C534.7 353.377 534.513 352.282 534.336 351.151C534.173 350.001 534.09 348.834 534.089 347.651C534.069 347.554 534.05 347.456 534.03 347.359C534.01 347.261 533.962 347.187 533.883 347.135C533.805 347.083 533.545 347.093 533.103 347.165C532.694 347.23 532.158 347.338 531.495 347.488C530.865 347.632 530.153 347.792 529.36 347.969C528.6 348.138 527.83 348.302 527.05 348.459C526.79 348.511 526.507 348.534 526.202 348.528C525.929 348.515 525.694 348.444 525.499 348.314C525.343 348.21 525.304 347.973 525.381 347.602C525.472 347.212 525.631 346.741 525.858 346.188C526.085 345.635 526.367 345.021 526.704 344.344C527.041 343.668 527.395 342.988 527.764 342.305C528.134 341.622 528.494 340.975 528.845 340.364C529.208 339.733 529.529 339.186 529.808 338.724C529.99 338.451 530.211 338.289 530.471 338.236C530.763 338.177 531.017 338.219 531.231 338.362C531.446 338.505 531.596 338.703 531.68 338.956C531.785 339.223 531.759 339.515 531.603 339.834C531 340.868 530.384 341.964 529.754 343.122C529.145 344.293 528.619 345.337 528.178 346.254L533.501 344.98C534.209 344.804 534.797 344.872 535.266 345.183C535.481 345.326 535.656 345.527 535.793 345.787C535.943 346.027 536.018 346.317 536.018 346.655C536.013 347.636 536.03 348.647 536.07 349.687C536.143 350.72 536.258 351.712 536.415 352.66C536.805 352.244 537.233 351.769 537.701 351.235C538.187 350.715 538.678 350.168 539.171 349.596C539.677 349.004 540.161 348.424 540.622 347.858C541.102 347.305 541.524 346.798 541.888 346.336ZM548.662 352.53L547.901 352.024C547.452 351.979 547.042 352.044 546.672 352.22C546.302 352.396 545.958 352.617 545.639 352.884C545.354 353.144 545.104 353.415 544.889 353.694C544.675 353.974 544.51 354.202 544.393 354.377C544.133 354.768 543.936 355.171 543.8 355.587C543.683 356.016 543.631 356.432 543.645 356.835C543.691 357.232 543.799 357.599 543.968 357.937C544.137 358.275 544.398 358.56 544.749 358.794C545.373 359.209 545.942 359.391 546.456 359.338C546.989 359.299 547.47 359.126 547.898 358.82C548.347 358.527 548.746 358.159 549.096 357.717C549.46 357.255 549.778 356.819 550.051 356.409C550.18 356.129 550.261 355.817 550.293 355.473C550.338 355.109 550.318 354.758 550.234 354.42C550.168 354.095 550.048 353.789 549.872 353.503C549.728 353.211 549.53 352.981 549.276 352.812C549.081 352.682 548.876 352.588 548.662 352.53ZM549.255 360.271C548.444 361.026 547.511 361.391 546.458 361.366C545.405 361.341 544.43 361.03 543.532 360.433C542.888 360.005 542.403 359.486 542.077 358.875C541.784 358.258 541.621 357.614 541.588 356.945C541.567 356.256 541.658 355.57 541.858 354.887C542.092 354.198 542.403 353.561 542.792 352.975C543.104 352.507 543.5 352.038 543.98 351.57C544.474 351.082 545.003 350.688 545.568 350.388C546.134 350.088 546.725 349.919 547.342 349.879C547.973 349.82 548.581 349.985 549.166 350.374C549.479 350.582 549.674 350.754 549.752 350.89C549.862 350.936 549.957 350.984 550.035 351.036C550.113 351.088 550.201 351.147 550.298 351.212C551.216 351.822 551.808 352.497 552.075 353.238C552.342 353.978 552.425 354.765 552.322 355.597C552.251 356.423 552.067 357.271 551.769 358.143C551.471 359.014 551.231 359.882 551.05 360.747C550.972 361.033 550.914 361.374 550.876 361.771C550.85 362.148 550.824 362.525 550.799 362.902C550.773 363.279 550.738 363.607 550.693 363.887C550.667 364.179 550.615 364.384 550.537 364.501C550.395 364.716 550.206 364.83 549.972 364.843C549.738 364.857 549.524 364.798 549.329 364.668C549.133 364.539 548.98 364.324 548.87 364.025C548.791 363.72 548.745 363.366 548.732 362.963C548.738 362.573 548.786 362.14 548.877 361.666C548.967 361.191 549.093 360.726 549.255 360.271ZM559.98 359.381C559.642 359.804 559.292 360.247 558.928 360.709C558.584 361.184 558.244 361.675 557.906 362.182C557.426 362.904 556.975 363.646 556.553 364.407C556.151 365.181 555.723 365.909 555.269 366.592C555.009 366.983 554.717 367.211 554.392 367.276C554.087 367.354 553.827 367.322 553.612 367.179C553.417 367.05 553.296 366.871 553.25 366.643C553.237 366.409 553.325 366.13 553.513 365.805C554.038 364.887 554.512 364.048 554.934 363.287C555.388 362.52 555.861 361.765 556.355 361.024C556.549 360.731 556.786 360.354 557.065 359.892C557.377 359.423 557.688 358.997 558 358.613C558.344 358.223 558.682 357.927 559.013 357.725C559.377 357.517 559.715 357.516 560.027 357.724C560.222 357.854 560.33 358.052 560.349 358.318C560.389 358.598 560.311 358.884 560.116 359.177L559.98 359.381ZM563.014 351.773C563.118 351.785 563.199 351.811 563.258 351.85C563.336 351.902 563.397 351.957 563.443 352.016C563.508 352.087 563.56 352.136 563.599 352.162C563.71 352.207 563.804 352.256 563.882 352.308C563.973 352.34 564.067 352.389 564.165 352.454C564.809 352.882 565.144 353.415 565.171 354.052C565.217 354.702 565.078 355.271 564.754 355.759C564.598 355.993 564.371 356.208 564.072 356.403C563.793 356.611 563.468 356.761 563.097 356.853C562.759 356.937 562.382 356.954 561.966 356.903C561.55 356.851 561.137 356.689 560.727 356.416C560.454 356.235 560.246 355.998 560.103 355.705C559.959 355.413 559.865 355.111 559.819 354.799C559.786 354.467 559.805 354.142 559.876 353.824C559.96 353.486 560.087 353.19 560.256 352.936C560.515 352.546 560.915 352.22 561.454 351.96C562.013 351.712 562.533 351.65 563.014 351.773ZM562.704 353.762L562.47 353.606C562.346 353.58 562.232 353.603 562.128 353.675C562.025 353.747 561.94 353.831 561.875 353.929C561.758 354.104 561.716 354.316 561.749 354.563C561.795 354.79 561.876 354.943 561.993 355.021C562.286 355.215 562.54 355.257 562.754 355.147C562.982 355.016 563.147 354.873 563.251 354.717C563.361 354.34 563.27 354.054 562.977 353.859C562.938 353.833 562.847 353.801 562.704 353.762ZM565.926 375.327C564.118 373.899 563.134 372.33 562.976 370.621C562.818 368.911 563.427 367.022 564.803 364.953L565.621 363.724C564.86 363.218 564.271 362.728 563.854 362.254C563.451 361.76 563.411 361.269 563.736 360.781C563.891 360.632 564.077 360.544 564.291 360.517C564.519 360.472 564.759 360.533 565.013 360.702C565.247 360.858 565.51 361.075 565.803 361.354C566.096 361.634 566.438 361.903 566.828 362.162C567.243 361.538 567.685 360.917 568.152 360.299C568.632 359.661 569.097 359.111 569.545 358.649C570.012 358.2 570.444 357.868 570.84 357.653C571.249 357.419 571.6 357.399 571.893 357.594C572.108 357.736 572.238 357.964 572.284 358.276C572.343 358.568 572.268 358.87 572.061 359.183C571.736 359.671 571.243 360.285 570.581 361.027C569.919 361.769 569.26 362.569 568.604 363.428C568.747 363.551 568.89 363.675 569.034 363.798C569.209 363.915 569.385 364.032 569.56 364.149C569.873 364.356 570.191 364.554 570.517 364.742C570.861 364.943 571.213 365.135 571.57 365.316C571.844 365.498 572.016 365.725 572.088 365.998C572.16 366.271 572.131 366.505 572.001 366.7C571.819 366.974 571.605 367.127 571.358 367.159C571.124 367.173 570.861 367.124 570.568 367.014C570.308 366.897 570.012 366.729 569.68 366.508C569.368 366.3 569.056 366.093 568.743 365.885L567.397 364.99C567.234 365.191 567.088 365.39 566.959 365.585C566.829 365.78 566.699 365.975 566.569 366.17C566.102 366.873 565.739 367.546 565.479 368.19C565.253 368.827 565.153 369.464 565.179 370.101C565.206 370.738 565.382 371.362 565.708 371.973C566.034 372.584 566.528 373.194 567.192 373.804C567.381 373.986 567.479 374.178 567.485 374.379C567.492 374.581 567.437 374.769 567.32 374.945C567.164 375.179 566.953 375.348 566.687 375.453C566.453 375.55 566.199 375.508 565.926 375.327ZM576.373 370.284C576.036 370.707 575.685 371.149 575.322 371.611C574.978 372.086 574.637 372.577 574.299 373.085C573.819 373.807 573.368 374.548 572.947 375.309C572.544 376.083 572.116 376.812 571.662 377.495C571.402 377.885 571.11 378.113 570.785 378.178C570.48 378.257 570.22 378.224 570.005 378.082C569.81 377.952 569.689 377.773 569.644 377.546C569.63 377.312 569.718 377.032 569.906 376.707C570.432 375.79 570.905 374.951 571.327 374.19C571.781 373.422 572.255 372.668 572.748 371.926C572.943 371.633 573.179 371.256 573.458 370.794C573.77 370.326 574.081 369.9 574.393 369.516C574.737 369.125 575.075 368.829 575.406 368.627C575.77 368.419 576.108 368.418 576.42 368.626C576.615 368.756 576.723 368.954 576.743 369.221C576.782 369.5 576.704 369.786 576.509 370.079L576.373 370.284ZM579.407 362.675C579.511 362.688 579.592 362.714 579.651 362.753C579.729 362.805 579.791 362.86 579.836 362.918C579.901 362.99 579.953 363.038 579.992 363.064C580.103 363.11 580.197 363.158 580.275 363.21C580.366 363.243 580.461 363.291 580.558 363.356C581.202 363.784 581.538 364.317 581.564 364.954C581.611 365.604 581.471 366.173 581.147 366.661C580.991 366.895 580.764 367.11 580.465 367.305C580.186 367.514 579.861 367.663 579.491 367.755C579.153 367.84 578.776 367.856 578.36 367.805C577.943 367.753 577.531 367.591 577.121 367.319C576.847 367.137 576.639 366.9 576.496 366.608C576.353 366.315 576.258 366.013 576.212 365.701C576.179 365.37 576.198 365.045 576.269 364.726C576.354 364.388 576.48 364.092 576.649 363.838C576.908 363.448 577.308 363.123 577.847 362.862C578.406 362.614 578.926 362.552 579.407 362.675ZM579.097 364.664L578.863 364.509C578.739 364.483 578.626 364.506 578.522 364.577C578.418 364.649 578.333 364.733 578.268 364.831C578.152 365.007 578.11 365.218 578.142 365.465C578.188 365.692 578.27 365.845 578.387 365.923C578.679 366.118 578.933 366.16 579.147 366.049C579.375 365.919 579.54 365.775 579.644 365.619C579.754 365.242 579.663 364.956 579.37 364.762C579.331 364.736 579.24 364.703 579.097 364.664ZM583.515 374.274C583.957 374.286 584.409 374.39 584.871 374.584C585.352 374.792 585.817 375.044 586.266 375.343C586.865 375.797 587.33 376.262 587.662 376.736C587.994 377.21 588.19 377.72 588.249 378.266C588.321 378.792 588.243 379.374 588.017 380.012C587.803 380.629 587.436 381.329 586.917 382.109C586.385 382.909 585.846 383.635 585.301 384.285C584.769 384.917 584.259 385.45 583.772 385.886C583.298 386.303 582.866 386.593 582.476 386.755C582.093 386.951 581.784 386.971 581.55 386.815C581.374 386.698 581.257 386.536 581.198 386.328C581.139 386.12 581.194 385.889 581.363 385.635C581.532 385.382 581.775 385.079 582.093 384.728C582.444 384.37 582.808 383.992 583.184 383.595C583.593 383.192 583.983 382.776 584.353 382.346C584.755 381.91 585.093 381.487 585.366 381.077C585.742 380.511 585.992 380.03 586.115 379.633C586.27 379.23 586.325 378.873 586.279 378.561C586.266 378.242 586.158 377.96 585.957 377.713C585.768 377.446 585.52 377.183 585.215 376.924C584.805 376.651 584.35 376.447 583.849 376.311C583.348 376.175 582.952 376.01 582.659 375.815C582.483 375.698 582.382 375.533 582.356 375.318C582.349 375.117 582.404 374.928 582.521 374.752C582.612 374.616 582.732 374.499 582.881 374.401C583.063 374.297 583.275 374.254 583.515 374.274ZM582.422 373.124C581.565 374.412 580.705 375.726 579.842 377.066C578.992 378.387 578.288 379.636 577.731 380.813L577.594 381.018C577.374 381.35 577.117 381.545 576.825 381.604C576.565 381.656 576.337 381.617 576.142 381.487C575.966 381.371 575.852 381.182 575.8 380.922C575.748 380.662 575.812 380.354 575.994 379.996C576.519 378.994 577.084 377.976 577.687 376.942C578.291 375.908 578.943 374.864 579.644 373.81C579.786 373.595 579.939 373.345 580.101 373.059C580.263 372.772 580.432 372.519 580.607 372.297C580.815 372.07 581.029 371.917 581.25 371.838C581.504 371.754 581.767 371.802 582.04 371.984C582.235 372.114 582.366 372.299 582.431 372.539C582.529 372.773 582.526 372.968 582.422 373.124ZM593.855 395.421C593.433 395.928 592.845 396.325 592.091 396.612C591.325 396.919 590.493 397.111 589.596 397.19C588.718 397.282 587.818 397.261 586.895 397.125C585.959 397.009 585.12 396.789 584.379 396.465C584.327 396.458 584.261 396.429 584.183 396.377C583.93 396.209 583.803 395.955 583.802 395.617C583.802 395.279 583.893 394.974 584.074 394.7C584.191 394.525 584.34 394.385 584.522 394.281C584.711 394.209 584.922 394.209 585.156 394.28C585.806 394.572 586.512 394.759 587.273 394.843C588.053 394.94 588.807 394.949 589.535 394.87C590.263 394.791 590.916 394.634 591.494 394.4C592.072 394.165 592.495 393.869 592.761 393.511C593.63 392.203 594.458 390.896 595.243 389.588C596.041 388.261 596.829 386.928 597.608 385.588C597.451 385.4 597.298 385.228 597.149 385.072C596.999 384.916 596.849 384.76 596.7 384.604L595.675 383.796C594.621 383.095 593.678 382.82 592.846 382.97C592.028 383.101 591.404 383.489 590.976 384.133C590.223 385.265 590.045 386.315 590.443 387.283C590.86 388.264 591.654 389.144 592.825 389.923L593.147 390.137C593.303 390.241 593.398 390.416 593.43 390.663C593.483 390.923 593.437 391.16 593.295 391.375C593.1 391.668 592.876 391.814 592.622 391.814C592.388 391.828 592.047 391.685 591.598 391.387C590.603 390.725 589.838 390.033 589.304 389.312C588.803 388.585 588.471 387.857 588.307 387.129C588.157 386.382 588.163 385.654 588.324 384.945C588.506 384.249 588.804 383.589 589.219 382.965C589.647 382.321 590.141 381.833 590.7 381.5C591.291 381.162 591.911 380.969 592.561 380.923C593.231 380.89 593.907 380.974 594.59 381.174C595.292 381.388 595.985 381.722 596.668 382.176C597.156 382.501 597.598 382.851 597.995 383.228C598.392 383.604 598.698 383.949 598.913 384.26C599.056 384.299 599.186 384.358 599.303 384.435C599.537 384.591 599.719 384.783 599.85 385.01C599.98 385.238 599.974 385.501 599.831 385.8C599.176 386.997 598.524 388.168 597.875 389.312C597.259 390.451 596.6 391.547 595.899 392.601C595.575 393.088 595.241 393.57 594.897 394.045C594.566 394.5 594.218 394.959 593.855 395.421ZM493.581 378.977C493.874 379.171 494.043 379.382 494.089 379.61C494.147 379.818 494.105 380.029 493.963 380.244C493.781 380.517 493.576 380.676 493.349 380.722C493.134 380.748 492.917 380.716 492.695 380.625C492.474 380.535 492.247 380.411 492.012 380.256C491.778 380.1 491.573 379.964 491.398 379.847C490.578 379.302 489.827 378.675 489.143 377.967C488.473 377.24 487.949 376.483 487.571 375.697C487.193 374.911 486.997 374.105 486.983 373.28C486.969 372.454 487.222 371.651 487.741 370.871C488.351 369.953 489.078 369.325 489.923 368.986C490.8 368.641 491.7 368.493 492.623 368.544C493.579 368.589 494.525 368.796 495.462 369.165C496.418 369.548 497.296 370.005 498.096 370.537C498.603 370.875 498.948 371.203 499.13 371.521C499.326 371.82 499.307 372.145 499.073 372.496C498.93 372.711 498.755 372.847 498.547 372.906C498.358 372.978 498.167 372.949 497.972 372.819C497.835 372.728 497.708 372.644 497.591 372.566C497.487 372.468 497.376 372.381 497.259 372.303C496.576 371.849 495.867 371.476 495.132 371.184C494.417 370.905 493.708 370.744 493.006 370.699C492.324 370.667 491.67 370.782 491.047 371.042C490.455 371.297 489.946 371.746 489.517 372.39C489.18 372.897 489.05 373.43 489.129 373.989C489.208 374.548 489.42 375.097 489.765 375.636C490.11 376.175 490.543 376.689 491.063 377.175C491.584 377.662 492.117 378.088 492.664 378.451C492.82 378.555 492.966 378.652 493.103 378.743C493.252 378.814 493.412 378.892 493.581 378.977ZM504.536 374.947C504.835 375.005 505.043 375.073 505.16 375.151C505.316 375.255 505.44 375.408 505.531 375.609C505.681 375.68 505.84 375.758 506.009 375.842C506.211 375.92 506.37 375.998 506.487 376.076C507.131 376.504 507.626 377.03 507.971 377.654C508.329 378.258 508.545 378.908 508.617 379.603C508.709 380.312 508.661 381.04 508.473 381.788C508.286 382.535 507.965 383.251 507.51 383.934C507.108 384.539 506.601 385.046 505.991 385.457C505.413 385.86 504.776 386.14 504.081 386.297C503.405 386.467 502.719 386.503 502.023 386.407C501.328 386.31 500.687 386.067 500.102 385.678C499.38 385.197 498.794 384.639 498.345 384.002C497.896 383.366 497.593 382.7 497.436 382.005C497.279 381.309 497.262 380.594 497.385 379.86C497.527 379.138 497.819 378.445 498.26 377.782C498.61 377.255 499.026 376.757 499.506 376.288C500 375.8 500.529 375.407 501.094 375.107C501.659 374.807 502.231 374.625 502.81 374.559C503.408 374.506 503.983 374.636 504.536 374.947ZM503.875 376.703C503.426 376.489 503.01 376.437 502.627 376.548C502.256 376.64 501.902 376.812 501.564 377.066C501.246 377.333 500.954 377.645 500.688 378.003C500.435 378.342 500.211 378.657 500.016 378.95C499.783 379.301 499.601 379.701 499.472 380.15C499.355 380.579 499.326 381.024 499.385 381.486C499.477 381.941 499.659 382.386 499.933 382.821C500.206 383.256 500.626 383.662 501.192 384.038C501.621 384.324 502.054 384.499 502.489 384.563C502.958 384.621 503.39 384.585 503.786 384.455C504.215 384.318 504.605 384.112 504.956 383.839C505.306 383.566 505.611 383.234 505.871 382.843C506.546 381.829 506.854 380.837 506.794 379.869C506.747 378.881 506.334 378.085 505.553 377.481L504.997 377.111C504.841 377.007 504.649 376.936 504.421 376.897C504.194 376.859 504.012 376.794 503.875 376.703ZM515.563 383.125C516.005 383.138 516.457 383.241 516.919 383.436C517.4 383.643 517.865 383.896 518.314 384.195C518.913 384.649 519.378 385.113 519.71 385.587C520.042 386.062 520.238 386.572 520.297 387.118C520.369 387.644 520.292 388.226 520.065 388.863C519.851 389.481 519.485 390.18 518.965 390.961C518.433 391.761 517.894 392.486 517.349 393.137C516.817 393.768 516.307 394.302 515.82 394.738C515.346 395.154 514.914 395.444 514.524 395.607C514.141 395.803 513.832 395.822 513.598 395.667C513.422 395.55 513.305 395.387 513.246 395.179C513.188 394.972 513.243 394.741 513.411 394.487C513.58 394.233 513.824 393.931 514.142 393.579C514.492 393.221 514.856 392.844 515.233 392.447C515.642 392.044 516.031 391.627 516.401 391.198C516.804 390.762 517.141 390.339 517.414 389.929C517.79 389.363 518.04 388.882 518.163 388.485C518.319 388.082 518.373 387.724 518.328 387.412C518.314 387.094 518.207 386.811 518.005 386.564C517.816 386.298 517.569 386.035 517.263 385.775C516.853 385.503 516.398 385.299 515.897 385.163C515.396 385.027 515 384.861 514.707 384.667C514.531 384.55 514.43 384.384 514.404 384.17C514.397 383.968 514.453 383.78 514.569 383.604C514.66 383.467 514.78 383.35 514.93 383.253C515.112 383.148 515.323 383.106 515.563 383.125ZM514.47 381.976C513.613 383.264 512.754 384.578 511.891 385.918C511.04 387.238 510.337 388.487 509.779 389.665L509.643 389.869C509.422 390.201 509.165 390.397 508.873 390.455C508.613 390.508 508.385 390.469 508.19 390.339C508.015 390.222 507.901 390.034 507.848 389.774C507.796 389.514 507.861 389.205 508.042 388.847C508.568 387.846 509.132 386.828 509.736 385.794C510.339 384.759 510.991 383.715 511.692 382.661C511.835 382.447 511.987 382.196 512.149 381.91C512.311 381.624 512.48 381.37 512.655 381.149C512.863 380.921 513.078 380.768 513.299 380.69C513.552 380.605 513.815 380.654 514.088 380.835C514.284 380.965 514.414 381.15 514.479 381.391C514.577 381.625 514.574 381.82 514.47 381.976ZM525.596 391.402C525.141 391.324 524.79 391.471 524.544 391.842C524.388 392.076 524.375 392.476 524.506 393.041C524.656 393.62 524.839 394.234 525.054 394.883C525.302 395.527 525.537 396.147 525.758 396.745C525.98 397.343 526.104 397.791 526.13 398.09C526.15 398.695 526.018 399.212 525.732 399.641C525.434 400.09 525.096 400.386 524.719 400.529C524.362 400.686 523.965 400.732 523.53 400.667C523.114 400.616 522.671 400.477 522.203 400.25C521.754 400.036 521.306 399.779 520.857 399.481C520.545 399.273 520.17 399.01 519.735 398.692C519.299 398.374 518.892 398.033 518.515 397.67C518.157 397.319 517.877 396.978 517.675 396.647C517.486 396.296 517.469 396.004 517.625 395.769C517.755 395.574 517.95 395.408 518.21 395.271C518.469 395.135 518.707 395.138 518.921 395.28C518.941 395.293 518.954 395.316 518.961 395.349C518.98 395.362 519.009 395.381 519.048 395.407C519.4 395.81 519.888 396.261 520.512 396.761C521.137 397.261 521.762 397.718 522.386 398.133C522.718 398.354 523.024 398.487 523.303 398.532C523.596 398.558 523.813 398.463 523.956 398.249C524.086 398.054 524.125 397.784 524.072 397.439C524.033 397.075 523.938 396.689 523.788 396.279C523.658 395.883 523.501 395.483 523.319 395.08C523.156 394.691 523.019 394.346 522.908 394.047C522.569 393.203 522.377 392.498 522.33 391.932C522.317 391.36 522.459 390.85 522.758 390.401C523.095 389.893 523.495 389.568 523.956 389.424C524.45 389.274 524.967 389.238 525.506 389.315C526.046 389.393 526.579 389.564 527.106 389.83C527.665 390.09 528.179 390.375 528.647 390.687C528.921 390.868 529.187 391.06 529.448 391.261C529.708 391.462 529.919 391.673 530.082 391.894C530.258 392.096 530.369 392.31 530.414 392.537C530.473 392.745 530.431 392.957 530.288 393.171C530.146 393.386 529.973 393.539 529.772 393.63C529.59 393.734 529.402 393.722 529.206 393.592C529.031 393.475 528.787 393.27 528.474 392.978C528.182 392.699 527.811 392.41 527.362 392.112C526.757 391.709 526.168 391.473 525.596 391.402ZM542.242 401.036L541.93 401.505C541.32 402.422 540.609 403.343 539.798 404.267C539.006 405.204 538.149 405.985 537.226 406.61C536.336 407.228 535.401 407.619 534.419 407.783C533.451 407.927 532.489 407.681 531.532 407.045C530.849 406.591 530.283 406.003 529.834 405.282C529.417 404.554 529.25 403.768 529.334 402.923C529.379 402.305 529.485 401.616 529.653 400.855C529.841 400.108 530.068 399.344 530.333 398.563C530.631 397.776 530.965 396.999 531.335 396.232C531.724 395.477 532.139 394.768 532.581 394.105C532.749 393.851 532.957 393.708 533.204 393.675C533.484 393.636 533.741 393.694 533.975 393.85C534.209 394.005 534.372 394.226 534.463 394.512C534.567 394.779 534.532 395.065 534.357 395.37C533.818 396.307 533.309 397.263 532.829 398.239C532.369 399.227 532.015 400.161 531.769 401.038C531.556 401.91 531.495 402.7 531.587 403.408C531.698 404.129 532.047 404.685 532.632 405.074C533.12 405.399 533.66 405.518 534.251 405.433C534.855 405.328 535.479 405.068 536.122 404.651C536.785 404.247 537.45 403.691 538.119 402.981C538.801 402.253 539.453 401.42 540.076 400.483L540.524 399.81C540.706 399.537 540.92 399.384 541.167 399.351C541.447 399.311 541.694 399.363 541.908 399.506C542.123 399.649 542.276 399.863 542.367 400.149C542.472 400.415 542.43 400.711 542.242 401.036ZM542.78 411.781C542.956 411.982 543.044 412.21 543.044 412.463C543.057 412.697 542.999 412.912 542.869 413.107C542.714 413.341 542.503 413.51 542.236 413.615C541.983 413.699 541.729 413.657 541.475 413.489C541.339 413.398 541.222 413.278 541.124 413.128C540.454 412.401 540.04 411.732 539.883 411.121C539.74 410.491 539.759 409.87 539.94 409.259C540.121 408.647 540.433 408.01 540.874 407.347C541.328 406.663 541.841 405.893 542.412 405.034C542.866 404.351 543.343 403.655 543.843 402.946C544.343 402.237 544.846 401.544 545.352 400.867C545.871 400.171 546.381 399.511 546.88 398.886C547.38 398.261 547.841 397.695 548.263 397.188C548.477 396.908 548.698 396.745 548.926 396.7C549.173 396.667 549.394 396.715 549.589 396.845C549.803 396.988 549.956 397.202 550.048 397.488C550.159 397.787 550.104 398.102 549.883 398.434C549.448 398.961 548.929 399.615 548.325 400.396C547.754 401.17 547.15 401.993 546.514 402.865C545.898 403.749 545.281 404.634 544.665 405.519C544.048 406.404 543.5 407.207 543.02 407.929C542.76 408.319 542.526 408.671 542.319 408.983C542.144 409.289 542.027 409.591 541.969 409.89C541.943 410.183 541.986 410.478 542.096 410.777C542.207 411.076 542.435 411.411 542.78 411.781ZM552.248 420.273C550.439 418.845 549.456 417.276 549.298 415.567C549.14 413.857 549.749 411.968 551.125 409.899L551.942 408.67C551.181 408.164 550.592 407.674 550.176 407.2C549.772 406.706 549.733 406.215 550.057 405.727C550.213 405.578 550.398 405.49 550.613 405.464C550.84 405.418 551.081 405.479 551.334 405.648C551.568 405.804 551.832 406.021 552.125 406.3C552.418 406.58 552.759 406.849 553.15 407.109C553.565 406.484 554.006 405.863 554.474 405.245C554.954 404.607 555.418 404.057 555.866 403.595C556.334 403.146 556.765 402.814 557.162 402.599C557.571 402.365 557.922 402.345 558.215 402.54C558.429 402.682 558.56 402.91 558.606 403.222C558.664 403.514 558.59 403.816 558.382 404.129C558.058 404.617 557.564 405.231 556.902 405.973C556.24 406.715 555.581 407.515 554.926 408.374C555.069 408.497 555.212 408.621 555.355 408.744C555.531 408.861 555.706 408.978 555.882 409.095C556.194 409.302 556.513 409.5 556.838 409.688C557.183 409.889 557.534 410.081 557.892 410.262C558.165 410.444 558.338 410.671 558.409 410.944C558.481 411.217 558.452 411.451 558.322 411.647C558.141 411.92 557.926 412.073 557.679 412.106C557.445 412.119 557.182 412.07 556.889 411.96C556.629 411.843 556.333 411.675 556.002 411.454C555.689 411.246 555.377 411.039 555.065 410.831L553.718 409.936C553.556 410.137 553.41 410.336 553.28 410.531C553.15 410.726 553.021 410.921 552.891 411.116C552.424 411.819 552.06 412.492 551.801 413.136C551.574 413.773 551.474 414.41 551.501 415.047C551.528 415.684 551.704 416.308 552.029 416.919C552.355 417.53 552.85 418.14 553.514 418.75C553.702 418.932 553.8 419.124 553.807 419.325C553.813 419.527 553.758 419.715 553.642 419.891C553.486 420.125 553.275 420.294 553.008 420.399C552.774 420.497 552.521 420.455 552.248 420.273ZM563.788 416.633L563.027 416.127C562.579 416.082 562.169 416.147 561.799 416.323C561.429 416.499 561.084 416.72 560.766 416.987C560.48 417.247 560.23 417.517 560.016 417.797C559.802 418.077 559.636 418.305 559.52 418.48C559.26 418.871 559.062 419.274 558.926 419.69C558.81 420.119 558.758 420.535 558.772 420.938C558.818 421.335 558.925 421.702 559.095 422.04C559.264 422.378 559.524 422.663 559.876 422.897C560.5 423.312 561.069 423.494 561.583 423.441C562.116 423.401 562.596 423.229 563.025 422.923C563.473 422.63 563.873 422.262 564.223 421.82C564.587 421.358 564.905 420.922 565.177 420.512C565.307 420.232 565.388 419.92 565.42 419.576C565.465 419.211 565.445 418.86 565.36 418.523C565.295 418.198 565.174 417.892 564.999 417.606C564.855 417.314 564.657 417.084 564.403 416.915C564.208 416.785 564.003 416.691 563.788 416.633ZM564.382 424.374C563.57 425.129 562.638 425.494 561.585 425.469C560.532 425.444 559.556 425.133 558.659 424.536C558.015 424.108 557.53 423.589 557.204 422.978C556.911 422.361 556.748 421.717 556.714 421.048C556.694 420.359 556.784 419.673 556.985 418.99C557.218 418.301 557.53 417.664 557.919 417.078C558.23 416.61 558.626 416.141 559.107 415.673C559.6 415.185 560.13 414.791 560.695 414.491C561.26 414.191 561.852 414.022 562.469 413.982C563.1 413.923 563.707 414.088 564.293 414.477C564.605 414.685 564.8 414.857 564.879 414.993C564.989 415.039 565.083 415.087 565.162 415.139C565.24 415.191 565.327 415.25 565.425 415.315C566.342 415.925 566.934 416.6 567.202 417.341C567.469 418.081 567.551 418.868 567.448 419.7C567.378 420.526 567.193 421.374 566.895 422.246C566.597 423.117 566.358 423.985 566.177 424.85C566.099 425.136 566.041 425.477 566.002 425.874C565.977 426.251 565.951 426.628 565.926 427.005C565.9 427.382 565.865 427.71 565.819 427.99C565.794 428.282 565.742 428.487 565.664 428.604C565.521 428.819 565.333 428.933 565.099 428.946C564.865 428.96 564.65 428.901 564.455 428.771C564.26 428.642 564.107 428.427 563.996 428.128C563.918 427.823 563.872 427.469 563.859 427.066C563.865 426.676 563.913 426.243 564.003 425.769C564.094 425.294 564.22 424.829 564.382 424.374ZM576.218 423.464C576.66 423.476 577.112 423.58 577.574 423.774C578.055 423.982 578.52 424.235 578.969 424.533C579.568 424.988 580.033 425.452 580.365 425.926C580.697 426.4 580.893 426.91 580.952 427.456C581.024 427.983 580.946 428.564 580.72 429.202C580.506 429.82 580.139 430.519 579.62 431.299C579.088 432.1 578.549 432.825 578.004 433.476C577.472 434.107 576.962 434.64 576.475 435.076C576.001 435.493 575.569 435.783 575.179 435.946C574.796 436.141 574.487 436.161 574.253 436.005C574.077 435.888 573.96 435.726 573.901 435.518C573.843 435.31 573.898 435.079 574.066 434.826C574.235 434.572 574.478 434.269 574.797 433.918C575.147 433.56 575.511 433.183 575.887 432.786C576.296 432.382 576.686 431.966 577.056 431.536C577.459 431.1 577.796 430.677 578.069 430.268C578.445 429.702 578.695 429.22 578.818 428.824C578.973 428.42 579.028 428.063 578.982 427.751C578.969 427.432 578.862 427.15 578.66 426.903C578.471 426.637 578.224 426.374 577.918 426.114C577.508 425.841 577.053 425.637 576.552 425.501C576.051 425.365 575.655 425.2 575.362 425.005C575.186 424.888 575.085 424.723 575.059 424.508C575.052 424.307 575.107 424.118 575.224 423.943C575.315 423.806 575.435 423.689 575.585 423.591C575.766 423.487 575.978 423.444 576.218 423.464ZM575.125 422.314C574.268 423.602 573.408 424.916 572.545 426.256C571.695 427.577 570.991 428.826 570.434 430.003L570.297 430.208C570.077 430.54 569.82 430.735 569.528 430.794C569.268 430.846 569.04 430.807 568.845 430.678C568.669 430.561 568.556 430.372 568.503 430.113C568.451 429.853 568.516 429.544 568.697 429.186C569.223 428.184 569.787 427.166 570.39 426.132C570.994 425.098 571.646 424.054 572.347 423C572.49 422.785 572.642 422.535 572.804 422.249C572.966 421.963 573.135 421.709 573.31 421.488C573.518 421.26 573.732 421.107 573.953 421.029C574.207 420.944 574.47 420.992 574.743 421.174C574.939 421.304 575.069 421.489 575.134 421.729C575.232 421.963 575.229 422.158 575.125 422.314ZM586.147 442.817C584.338 441.389 583.354 439.82 583.197 438.111C583.039 436.402 583.648 434.513 585.023 432.444L585.841 431.214C585.08 430.708 584.491 430.218 584.075 429.744C583.671 429.25 583.631 428.76 583.956 428.272C584.112 428.122 584.297 428.034 584.511 428.008C584.739 427.962 584.979 428.024 585.233 428.192C585.467 428.348 585.731 428.566 586.024 428.845C586.316 429.124 586.658 429.393 587.048 429.653C587.464 429.028 587.905 428.407 588.372 427.789C588.853 427.152 589.317 426.602 589.765 426.14C590.232 425.691 590.664 425.359 591.061 425.144C591.47 424.909 591.821 424.889 592.114 425.084C592.328 425.227 592.458 425.454 592.504 425.766C592.563 426.059 592.489 426.361 592.281 426.673C591.957 427.161 591.463 427.776 590.801 428.518C590.139 429.259 589.48 430.06 588.824 430.919C588.968 431.042 589.111 431.165 589.254 431.289C589.429 431.405 589.605 431.522 589.781 431.639C590.093 431.847 590.412 432.045 590.737 432.233C591.082 432.434 591.433 432.625 591.791 432.807C592.064 432.989 592.236 433.216 592.308 433.489C592.38 433.762 592.351 433.996 592.221 434.191C592.04 434.464 591.825 434.617 591.578 434.65C591.344 434.663 591.081 434.615 590.788 434.505C590.528 434.388 590.232 434.219 589.9 433.999C589.588 433.791 589.276 433.583 588.964 433.376L587.617 432.48C587.455 432.682 587.309 432.88 587.179 433.075C587.049 433.27 586.919 433.466 586.79 433.661C586.322 434.363 585.959 435.037 585.7 435.68C585.473 436.318 585.373 436.955 585.4 437.592C585.426 438.229 585.603 438.853 585.928 439.463C586.254 440.074 586.749 440.684 587.412 441.295C587.601 441.477 587.699 441.668 587.706 441.87C587.712 442.071 587.657 442.26 587.54 442.435C587.385 442.67 587.174 442.839 586.907 442.943C586.673 443.041 586.42 442.999 586.147 442.817ZM597.523 448.947C598.061 448.349 598.552 447.76 598.993 447.181C599.467 446.595 599.905 446 600.307 445.395C601.099 444.205 601.8 442.897 602.409 441.473C602.428 441.401 602.471 441.317 602.535 441.219C602.717 440.946 602.945 440.774 603.217 440.702C603.51 440.643 603.773 440.691 604.007 440.847C604.261 441.016 604.388 441.227 604.388 441.481C604.408 441.747 604.357 442.036 604.233 442.348C604.123 442.641 603.974 442.95 603.786 443.275C603.63 443.594 603.491 443.909 603.368 444.222C603.79 444.137 604.274 444.107 604.82 444.132C605.366 444.158 605.913 444.225 606.459 444.335C607.024 444.458 607.564 444.62 608.078 444.821C608.605 445.002 609.063 445.223 609.453 445.482C609.668 445.625 609.795 445.836 609.834 446.116C609.874 446.395 609.822 446.642 609.679 446.857C609.549 447.052 609.361 447.208 609.114 447.326C608.88 447.423 608.637 447.388 608.383 447.219C607.914 446.908 607.368 446.671 606.744 446.509C606.133 446.328 605.518 446.215 604.901 446.17C604.303 446.138 603.734 446.168 603.194 446.26C602.675 446.364 602.259 446.524 601.947 446.739C601.648 447.103 601.308 447.552 600.925 448.086C600.574 448.612 600.198 449.094 599.795 449.53C599.425 449.959 599.052 450.288 598.675 450.516C598.298 450.744 597.954 450.754 597.641 450.546C597.446 450.417 597.296 450.218 597.192 449.952C597.107 449.699 597.162 449.426 597.357 449.133C597.409 449.055 597.464 448.993 597.523 448.947ZM614.891 459.907C615.223 460.128 615.415 460.368 615.467 460.628C615.532 460.868 615.487 461.106 615.331 461.34C615.163 461.594 614.964 461.743 614.737 461.789C614.542 461.828 614.328 461.812 614.093 461.741C613.879 461.683 613.654 461.576 613.42 461.42C613.206 461.277 613.01 461.148 612.835 461.031C612.015 460.486 611.26 459.843 610.571 459.103C609.913 458.356 609.399 457.563 609.027 456.725C608.656 455.887 608.466 455.029 608.459 454.152C608.451 453.274 608.707 452.445 609.226 451.664C609.784 450.825 610.489 450.252 611.34 449.946C612.224 449.633 613.144 449.499 614.099 449.543C615.055 449.588 615.988 449.772 616.898 450.096C617.809 450.42 618.596 450.802 619.259 451.244C619.591 451.464 619.897 451.724 620.177 452.023C620.476 452.334 620.697 452.679 620.841 453.056C620.984 453.432 621.034 453.845 620.989 454.294C620.944 454.742 620.752 455.22 620.415 455.728C620.012 456.333 619.473 456.72 618.798 456.89C618.122 457.06 617.413 457.109 616.672 457.038C615.931 456.968 615.212 456.8 614.517 456.534C613.821 456.268 613.261 456.009 612.839 455.756C612.624 455.613 612.51 455.425 612.497 455.191C612.516 454.95 612.597 454.722 612.74 454.508C612.857 454.332 613.022 454.189 613.237 454.078C613.464 453.948 613.695 453.961 613.929 454.116C614.3 454.363 614.716 454.584 615.178 454.778C615.659 454.985 616.127 455.128 616.582 455.205C617.07 455.276 617.515 455.263 617.918 455.165C618.321 455.067 618.639 454.842 618.873 454.491C619.223 453.964 618.998 453.435 618.198 452.902C617.671 452.552 617.063 452.26 616.374 452.027C615.698 451.774 615.018 451.632 614.336 451.6C613.653 451.569 612.997 451.667 612.366 451.895C611.769 452.117 611.275 452.52 610.886 453.106C610.587 453.555 610.458 454.045 610.497 454.578C610.556 455.124 610.719 455.683 610.987 456.255C611.286 456.82 611.683 457.366 612.178 457.892C612.692 458.431 613.271 458.914 613.915 459.343C614.071 459.447 614.227 459.55 614.384 459.654C614.553 459.738 614.722 459.823 614.891 459.907ZM631.448 460.279C631.662 460.083 631.87 459.982 632.072 459.976C632.306 459.962 632.51 460.014 632.686 460.131C632.901 460.274 633.034 460.475 633.086 460.735C633.158 461.008 633.097 461.291 632.902 461.584C632.811 461.72 632.737 461.811 632.678 461.857C631.659 462.671 630.632 463.452 629.6 464.2C628.599 464.943 627.661 465.571 626.784 466.085C625.907 466.6 625.117 466.962 624.416 467.17C623.733 467.392 623.217 467.386 622.865 467.153C622.475 466.893 622.221 466.386 622.103 465.632C621.998 464.859 621.997 463.929 622.1 462.844C622.203 461.758 622.383 460.555 622.642 459.235C622.933 457.909 623.279 456.563 623.681 455.198C623.72 455.054 623.758 454.954 623.797 454.895C623.953 454.661 624.18 454.531 624.479 454.504C624.811 454.471 625.094 454.533 625.328 454.689C625.504 454.805 625.637 454.965 625.728 455.166C625.82 455.367 625.794 455.618 625.651 455.917C625.411 456.658 625.172 457.526 624.932 458.521C624.726 459.509 624.545 460.459 624.39 461.369C624.248 462.26 624.151 463.04 624.1 463.709C624.081 464.372 624.14 464.749 624.277 464.84C624.394 464.918 624.712 464.82 625.232 464.547C625.784 464.266 626.411 463.895 627.112 463.433C627.814 462.971 628.548 462.459 629.314 461.9C630.094 461.32 630.805 460.78 631.448 460.279ZM636.991 464.641C636.654 465.064 636.303 465.506 635.939 465.968C635.595 466.443 635.255 466.934 634.917 467.441C634.437 468.163 633.986 468.905 633.564 469.666C633.162 470.44 632.734 471.169 632.28 471.852C632.02 472.242 631.728 472.47 631.403 472.535C631.098 472.614 630.838 472.581 630.623 472.439C630.428 472.309 630.307 472.13 630.262 471.903C630.248 471.669 630.336 471.389 630.524 471.064C631.049 470.147 631.523 469.308 631.945 468.547C632.399 467.779 632.872 467.024 633.366 466.283C633.56 465.99 633.797 465.613 634.076 465.151C634.388 464.683 634.699 464.256 635.011 463.873C635.355 463.482 635.693 463.186 636.024 462.984C636.388 462.776 636.726 462.775 637.038 462.983C637.233 463.113 637.341 463.311 637.36 463.577C637.4 463.857 637.322 464.143 637.127 464.436L636.991 464.641ZM640.025 457.032C640.129 457.045 640.21 457.071 640.269 457.11C640.347 457.161 640.408 457.217 640.454 457.275C640.519 457.347 640.571 457.395 640.61 457.421C640.721 457.467 640.815 457.515 640.893 457.567C640.984 457.6 641.078 457.648 641.176 457.713C641.82 458.141 642.155 458.674 642.182 459.311C642.228 459.961 642.089 460.53 641.765 461.018C641.609 461.252 641.382 461.467 641.083 461.662C640.804 461.87 640.479 462.02 640.108 462.112C639.77 462.197 639.393 462.213 638.977 462.162C638.561 462.11 638.148 461.948 637.739 461.676C637.465 461.494 637.257 461.257 637.114 460.965C636.97 460.672 636.876 460.37 636.83 460.058C636.797 459.727 636.816 459.402 636.887 459.083C636.971 458.745 637.098 458.449 637.267 458.195C637.526 457.805 637.926 457.479 638.465 457.219C639.024 456.971 639.544 456.909 640.025 457.032ZM639.715 459.021L639.481 458.866C639.357 458.84 639.243 458.863 639.14 458.934C639.036 459.006 638.951 459.09 638.886 459.188C638.77 459.364 638.727 459.575 638.76 459.822C638.806 460.049 638.887 460.202 639.005 460.28C639.297 460.475 639.551 460.517 639.765 460.406C639.993 460.276 640.158 460.132 640.262 459.976C640.372 459.599 640.281 459.313 639.988 459.118C639.949 459.093 639.858 459.06 639.715 459.021ZM643.696 479.064C644.028 479.285 644.22 479.525 644.272 479.785C644.337 480.025 644.292 480.263 644.137 480.497C643.968 480.751 643.77 480.9 643.542 480.946C643.347 480.985 643.133 480.969 642.899 480.898C642.684 480.84 642.46 480.733 642.225 480.577C642.011 480.434 641.816 480.304 641.64 480.188C640.82 479.643 640.066 479 639.376 478.26C638.718 477.513 638.204 476.72 637.832 475.882C637.461 475.044 637.272 474.186 637.264 473.309C637.257 472.431 637.512 471.602 638.032 470.821C638.59 469.982 639.294 469.409 640.146 469.103C641.029 468.79 641.949 468.656 642.904 468.7C643.86 468.744 644.793 468.929 645.704 469.253C646.614 469.577 647.401 469.959 648.064 470.401C648.396 470.621 648.702 470.881 648.982 471.18C649.281 471.491 649.503 471.836 649.646 472.212C649.789 472.589 649.839 473.002 649.794 473.451C649.749 473.899 649.557 474.377 649.22 474.885C648.818 475.49 648.279 475.877 647.603 476.047C646.927 476.217 646.218 476.266 645.477 476.195C644.736 476.125 644.018 475.956 643.322 475.691C642.626 475.425 642.067 475.166 641.644 474.913C641.429 474.77 641.315 474.581 641.302 474.347C641.321 474.107 641.402 473.879 641.545 473.665C641.662 473.489 641.827 473.346 642.042 473.235C642.269 473.105 642.5 473.118 642.734 473.273C643.105 473.52 643.521 473.74 643.983 473.935C644.464 474.142 644.932 474.285 645.387 474.362C645.875 474.433 646.32 474.42 646.723 474.322C647.126 474.224 647.444 473.999 647.678 473.648C648.028 473.121 647.804 472.592 647.003 472.059C646.477 471.709 645.868 471.417 645.179 471.184C644.503 470.931 643.823 470.789 643.141 470.757C642.458 470.725 641.802 470.824 641.172 471.052C640.574 471.274 640.08 471.677 639.691 472.263C639.392 472.711 639.263 473.202 639.302 473.735C639.362 474.281 639.525 474.84 639.792 475.412C640.091 475.977 640.489 476.523 640.983 477.049C641.497 477.588 642.076 478.071 642.72 478.5C642.877 478.603 643.033 478.707 643.189 478.811C643.358 478.895 643.527 478.98 643.696 479.064ZM664.449 481.888C664.578 481.693 664.77 481.595 665.024 481.595C665.31 481.588 665.57 481.662 665.804 481.818C666.018 481.961 666.158 482.153 666.224 482.393C666.321 482.627 666.289 482.887 666.127 483.173C664.978 484.52 663.809 485.854 662.621 487.175C661.453 488.509 660.323 489.784 659.232 491.001C658.992 491.235 658.739 491.362 658.472 491.382C658.193 491.421 657.965 491.383 657.79 491.266C657.614 491.149 657.487 490.98 657.409 490.759C657.318 490.558 657.334 490.301 657.457 489.989C657.261 488.929 657.074 487.834 656.897 486.703C656.733 485.553 656.651 484.386 656.65 483.203C656.63 483.106 656.61 483.008 656.591 482.911C656.571 482.813 656.522 482.739 656.444 482.687C656.366 482.635 656.106 482.645 655.664 482.717C655.255 482.782 654.719 482.89 654.056 483.04C653.425 483.184 652.714 483.344 651.921 483.521C651.161 483.69 650.39 483.854 649.611 484.011C649.351 484.063 649.068 484.086 648.762 484.08C648.489 484.067 648.255 483.996 648.06 483.866C647.904 483.762 647.865 483.525 647.942 483.155C648.033 482.764 648.192 482.293 648.418 481.74C648.645 481.187 648.927 480.573 649.265 479.896C649.602 479.22 649.955 478.54 650.325 477.857C650.695 477.174 651.055 476.527 651.405 475.916C651.769 475.285 652.09 474.738 652.369 474.277C652.55 474.003 652.771 473.841 653.031 473.788C653.324 473.729 653.577 473.771 653.792 473.914C654.007 474.057 654.156 474.255 654.241 474.508C654.345 474.775 654.32 475.067 654.164 475.386C653.561 476.42 652.944 477.516 652.315 478.674C651.705 479.845 651.18 480.889 650.739 481.806L656.062 480.532C656.77 480.356 657.358 480.424 657.827 480.735C658.041 480.878 658.217 481.079 658.354 481.339C658.504 481.579 658.579 481.869 658.579 482.207C658.574 483.188 658.591 484.199 658.631 485.239C658.704 486.272 658.819 487.264 658.976 488.212C659.365 487.796 659.794 487.321 660.261 486.787C660.748 486.267 661.238 485.72 661.732 485.148C662.238 484.556 662.722 483.977 663.183 483.41C663.663 482.857 664.085 482.35 664.449 481.888Z" fill="#FF0000"/>
<path d="M512.992 323.5C512.992 312 498.492 302 486.492 302" stroke="#FF0000"/>
<path fill-rule="evenodd" clip-rule="evenodd" d="M468.785 390.94C473.613 390.099 482.698 386.97 481.65 383.104C478.991 373.275 473.123 368.223 473.26 367.144L462.706 365.82C460.289 365.519 462.503 370.403 462.003 379.979C461.874 382.456 458.14 392.792 468.785 390.94Z" fill="#9F634A"/>
<path fill-rule="evenodd" clip-rule="evenodd" d="M460.871 374.25C460.871 374.25 441.714 267.439 451 228.258C453.074 219.508 461.255 197.065 466.294 203.861C481.115 223.854 478.444 316.758 477.585 371.533L460.871 374.25Z" fill="#64485D"/>
<path fill-rule="evenodd" clip-rule="evenodd" d="M401.091 177.537C401.091 177.537 417.37 174 427.547 166.136C427.547 166.136 426.861 147.861 419.162 144.564C410.862 141.012 395.311 152.607 389.496 158.196C384.795 162.718 401.091 177.537 401.091 177.537Z" fill="#976250"/>
<path fill-rule="evenodd" clip-rule="evenodd" d="M382.06 153.196C382.06 156.644 387.326 155.244 387.426 157.936C388.501 185.906 396.438 174.199 403.852 170.191C414.479 164.447 425.644 152.837 425.644 135.458C425.644 118.079 405.139 112.983 394.942 112.983C390.291 112.983 389.976 123.164 386.997 131.713C385.436 136.199 388.734 138.127 387.426 142.452C385.762 147.961 382.06 147.902 382.06 153.196Z" fill="#A97763"/>
<path fill-rule="evenodd" clip-rule="evenodd" d="M439.808 140.46C437.901 151.279 436.465 167.331 428.842 167.891C424.991 168.173 411.913 153.38 412.556 148.544C412.826 146.493 416.709 148.109 414.543 141.439C413.132 137.075 407.836 141.613 408.345 137.88C409.849 126.895 410.551 127.605 408.044 125.476C401.25 119.716 381.018 124.211 383.354 116.735C386.162 107.757 403.447 103 418.565 103C433.682 103 442.929 122.763 439.808 140.46Z" fill="#37474F"/>
<rect x="257.297" y="272.172" width="1.08672" height="10.588" transform="rotate(-36.2169 257.297 272.172)" fill="#37474F"/>
<rect x="272.65" y="281.497" width="10.5853" height="1.08569" transform="rotate(-17.6377 272.65 281.497)" fill="#37474F"/>
<rect x="269.22" y="278.704" width="10.5859" height="1.08568" transform="rotate(-74.715 269.22 278.704)" fill="#37474F"/>
</svg>
