<svg width="2560" height="1440" viewBox="0 0 2560 1440" fill="none" xmlns="http://www.w3.org/2000/svg">
<g clip-path="url(#clip0)">
<g opacity="0.65">
<path d="M882.5 973C882.5 1269.08 599.56 1509.5 250 1509.5C-99.5605 1509.5 -382.5 1269.08 -382.5 973C-382.5 676.921 -99.5605 436.5 250 436.5C599.56 436.5 882.5 676.921 882.5 973Z" stroke="#F78A7D" stroke-width="3"/>
<path d="M882.5 973C882.5 1269.08 599.56 1509.5 250 1509.5C-99.5605 1509.5 -382.5 1269.08 -382.5 973C-382.5 676.921 -99.5605 436.5 250 436.5C599.56 436.5 882.5 676.921 882.5 973Z" stroke="url(#paint0_linear)" stroke-width="3"/>
</g>
<g opacity="0.65">
<path d="M523.5 929C523.5 1073.42 406.201 1190.5 261.5 1190.5C116.799 1190.5 -0.5 1073.42 -0.5 929C-0.5 784.58 116.799 667.5 261.5 667.5C406.201 667.5 523.5 784.58 523.5 929Z" stroke="#F78A7D" stroke-width="3"/>
<path d="M523.5 929C523.5 1073.42 406.201 1190.5 261.5 1190.5C116.799 1190.5 -0.5 1073.42 -0.5 929C-0.5 784.58 116.799 667.5 261.5 667.5C406.201 667.5 523.5 784.58 523.5 929Z" stroke="url(#paint1_linear)" stroke-width="3"/>
</g>
<g opacity="0.65">
<path d="M2374.5 1237C2374.5 1579.69 2096.02 1857.5 1752.5 1857.5C1408.98 1857.5 1130.5 1579.69 1130.5 1237C1130.5 894.311 1408.98 616.5 1752.5 616.5C2096.02 616.5 2374.5 894.311 2374.5 1237Z" stroke="#F78A7D" stroke-width="3"/>
<path d="M2374.5 1237C2374.5 1579.69 2096.02 1857.5 1752.5 1857.5C1408.98 1857.5 1130.5 1579.69 1130.5 1237C1130.5 894.311 1408.98 616.5 1752.5 616.5C2096.02 616.5 2374.5 894.311 2374.5 1237Z" stroke="url(#paint2_linear)" stroke-width="3"/>
</g>
<g opacity="0.65">
<circle cx="154" cy="973" r="629.5" stroke="#F78A7D" stroke-opacity="0.51" stroke-dasharray="35 14 28 9 18 35 14 28"/>
<circle cx="154" cy="973" r="629.5" stroke="url(#paint3_linear)" stroke-dasharray="35 14 28 9 18 35 14 28"/>
</g>
<g opacity="0.65">
<path d="M616.532 899.32C616.966 903.613 617.305 907.931 617.548 912.273L617.049 912.301C617.348 917.666 617.5 923.066 617.5 928.5C617.5 933.934 617.348 939.334 617.049 944.699L617.548 944.727C617.061 953.442 616.185 962.062 614.934 970.571L614.439 970.498C613.809 974.787 613.084 979.047 612.265 983.277L612.756 983.372C610.688 994.058 608.028 1004.55 604.807 1014.83L604.33 1014.68C602.665 1019.99 600.85 1025.24 598.889 1030.43L599.357 1030.6C598.373 1033.21 597.352 1035.8 596.295 1038.37L595.832 1038.18C592.544 1046.18 588.906 1054.03 584.935 1061.69L585.379 1061.92C583.389 1065.77 581.315 1069.57 579.159 1073.32L578.726 1073.07C573.351 1082.44 567.47 1091.51 561.117 1100.27L561.522 1100.56C556.447 1107.56 551.071 1114.35 545.411 1120.92L545.033 1120.59C542.216 1123.87 539.329 1127.08 536.374 1130.24L536.739 1130.58C529.372 1138.46 521.583 1145.99 513.403 1153.13L513.074 1152.76C508.898 1156.41 504.621 1159.96 500.245 1163.4L500.555 1163.79C498.371 1165.51 496.163 1167.21 493.931 1168.88L493.632 1168.48C486.733 1173.63 479.608 1178.54 472.271 1183.18L472.539 1183.6C468.889 1185.91 465.188 1188.15 461.436 1190.32L461.185 1189.89C451.89 1195.28 442.286 1200.25 432.404 1204.78L432.613 1205.24C424.785 1208.83 416.783 1212.14 408.622 1215.16L408.449 1214.69C404.405 1216.19 400.323 1217.61 396.203 1218.96L396.359 1219.44C386.154 1222.78 375.72 1225.68 365.085 1228.11L364.974 1227.62C359.58 1228.85 354.133 1229.96 348.638 1230.94L348.726 1231.43C345.993 1231.92 343.249 1232.37 340.493 1232.8L340.416 1232.31C331.937 1233.62 323.349 1234.63 314.666 1235.33L314.706 1235.83C310.404 1236.17 306.079 1236.44 301.732 1236.64L301.71 1236.14C296.339 1236.38 290.935 1236.5 285.5 1236.5C280.065 1236.5 274.661 1236.38 269.29 1236.14L269.268 1236.64C260.542 1236.25 251.905 1235.55 243.369 1234.55L243.427 1234.05C239.12 1233.55 234.838 1232.96 230.584 1232.31L230.507 1232.8C219.72 1231.13 209.107 1228.99 198.698 1226.38L198.819 1225.9C193.406 1224.54 188.048 1223.06 182.748 1221.47L182.603 1221.94C179.934 1221.14 177.28 1220.3 174.641 1219.44L174.797 1218.96C166.536 1216.25 158.425 1213.25 150.479 1209.96L150.288 1210.42C146.278 1208.77 142.311 1207.04 138.387 1205.24L138.596 1204.78C128.714 1200.25 119.11 1195.28 109.815 1189.89L109.564 1190.32C102.044 1185.96 94.7248 1181.33 87.6231 1176.45L87.9066 1176.03C84.3381 1173.58 80.8245 1171.06 77.368 1168.48L77.0686 1168.88C68.3632 1162.37 60.0186 1155.46 52.0669 1148.19L52.4044 1147.82C48.2969 1144.06 44.2946 1140.21 40.4017 1136.26L40.0456 1136.61C38.0897 1134.62 36.1614 1132.62 34.2613 1130.58L34.6265 1130.24C28.7097 1123.91 23.0664 1117.36 17.7137 1110.6L17.3216 1110.91C14.6333 1107.51 12.0182 1104.06 9.47831 1100.56L9.88301 1100.27C3.53003 1091.51 -2.35085 1082.44 -7.72584 1073.07L-8.15946 1073.32C-12.4688 1065.82 -16.4535 1058.13 -20.0963 1050.27L-19.6427 1050.06C-21.4584 1046.14 -23.1891 1042.18 -24.8325 1038.18L-25.295 1038.37C-29.3957 1028.39 -32.954 1018.16 -35.9365 1007.72L-35.4557 1007.58C-36.9773 1002.25 -38.3487 996.863 -39.5656 991.425L-40.0536 991.534C-40.6595 988.826 -41.2272 986.105 -41.7561 983.372L-41.2652 983.277C-42.8972 974.842 -44.159 966.288 -45.0346 957.63L-45.532 957.68C-45.9661 953.387 -46.3054 949.069 -46.5479 944.727L-46.0487 944.699C-46.3483 939.334 -46.5 933.934 -46.5 928.5C-46.5 923.066 -46.3483 917.666 -46.0487 912.301L-46.5479 912.273C-46.0612 903.558 -45.1845 894.938 -43.934 886.429L-43.4393 886.502C-42.809 882.213 -42.0836 877.953 -41.2652 873.723L-41.7561 873.628C-39.6884 862.942 -37.0277 852.447 -33.8067 842.173L-33.3296 842.323C-31.6645 837.012 -29.8495 831.761 -27.889 826.573L-28.3568 826.396C-27.3726 823.791 -26.3518 821.203 -25.295 818.631L-24.8325 818.821C-21.5438 810.817 -17.9056 802.973 -13.9352 795.305L-14.3792 795.075C-12.3886 791.231 -10.3146 787.43 -8.15946 783.676L-7.72584 783.925C-2.35085 774.562 3.53003 765.487 9.88301 756.731L9.47831 756.438C14.5534 749.443 19.9292 742.652 25.5886 736.08L25.9675 736.406C28.7841 733.135 31.6712 729.918 34.6265 726.758L34.2613 726.417C41.6275 718.54 49.4169 711.013 57.5966 703.866L57.9256 704.243C62.1015 700.594 66.3793 697.045 70.7547 693.599L70.4453 693.206C72.629 691.486 74.837 689.792 77.0686 688.124L77.3679 688.525C84.2665 683.369 91.3921 678.464 98.7286 673.824L98.4613 673.401C102.111 671.093 105.812 668.851 109.564 666.676L109.815 667.109C119.11 661.721 128.714 656.747 138.596 652.216L138.387 651.762C146.215 648.173 154.217 644.861 162.378 641.841L162.551 642.31C166.595 640.814 170.677 639.389 174.797 638.038L174.641 637.563C184.846 634.215 195.28 631.317 205.915 628.893L206.026 629.381C211.42 628.151 216.867 627.044 222.362 626.063L222.274 625.57C225.007 625.082 227.751 624.625 230.507 624.2L230.584 624.694C239.063 623.384 247.651 622.373 256.334 621.672L256.294 621.174C260.596 620.826 264.921 620.555 269.268 620.361L269.29 620.861C274.661 620.621 280.065 620.5 285.5 620.5C290.935 620.5 296.339 620.621 301.71 620.861L301.732 620.361C310.458 620.75 319.095 621.452 327.631 622.453L327.573 622.95C331.88 623.455 336.162 624.037 340.416 624.694L340.493 624.2C351.28 625.866 361.893 628.013 372.302 630.618L372.181 631.103C377.594 632.458 382.953 633.936 388.252 635.535L388.397 635.056C391.066 635.861 393.72 636.697 396.359 637.563L396.203 638.038C404.464 640.747 412.575 643.752 420.521 647.038L420.712 646.576C424.722 648.234 428.689 649.963 432.613 651.762L432.404 652.216C442.286 656.747 451.89 661.721 461.185 667.109L461.436 666.676C468.956 671.036 476.275 675.666 483.377 680.553L483.093 680.965C486.662 683.421 490.175 685.941 493.632 688.525L493.931 688.124C502.637 694.631 510.981 701.536 518.933 708.81L518.596 709.179C522.703 712.936 526.705 716.792 530.598 720.743L530.954 720.392C532.91 722.376 534.839 724.385 536.739 726.417L536.374 726.758C542.29 733.085 547.934 739.638 553.286 746.401L553.678 746.091C556.367 749.488 558.982 752.937 561.522 756.438L561.117 756.731C567.47 765.487 573.351 774.562 578.726 783.925L579.159 783.676C583.469 791.183 587.453 798.874 591.096 806.734L590.643 806.944C592.458 810.862 594.189 814.821 595.833 818.821L596.295 818.631C600.396 828.611 603.954 838.839 606.937 849.285L606.456 849.422C607.977 854.751 609.349 860.137 610.566 865.575L611.054 865.466C611.66 868.174 612.227 870.895 612.756 873.628L612.265 873.723C613.897 882.158 615.159 890.712 616.035 899.37L616.532 899.32Z" stroke="#F78A7D" stroke-opacity="0.51" stroke-dasharray="35 14 28 9 18 35 14 28"/>
<path d="M616.532 899.32C616.966 903.613 617.305 907.931 617.548 912.273L617.049 912.301C617.348 917.666 617.5 923.066 617.5 928.5C617.5 933.934 617.348 939.334 617.049 944.699L617.548 944.727C617.061 953.442 616.185 962.062 614.934 970.571L614.439 970.498C613.809 974.787 613.084 979.047 612.265 983.277L612.756 983.372C610.688 994.058 608.028 1004.55 604.807 1014.83L604.33 1014.68C602.665 1019.99 600.85 1025.24 598.889 1030.43L599.357 1030.6C598.373 1033.21 597.352 1035.8 596.295 1038.37L595.832 1038.18C592.544 1046.18 588.906 1054.03 584.935 1061.69L585.379 1061.92C583.389 1065.77 581.315 1069.57 579.159 1073.32L578.726 1073.07C573.351 1082.44 567.47 1091.51 561.117 1100.27L561.522 1100.56C556.447 1107.56 551.071 1114.35 545.411 1120.92L545.033 1120.59C542.216 1123.87 539.329 1127.08 536.374 1130.24L536.739 1130.58C529.372 1138.46 521.583 1145.99 513.403 1153.13L513.074 1152.76C508.898 1156.41 504.621 1159.96 500.245 1163.4L500.555 1163.79C498.371 1165.51 496.163 1167.21 493.931 1168.88L493.632 1168.48C486.733 1173.63 479.608 1178.54 472.271 1183.18L472.539 1183.6C468.889 1185.91 465.188 1188.15 461.436 1190.32L461.185 1189.89C451.89 1195.28 442.286 1200.25 432.404 1204.78L432.613 1205.24C424.785 1208.83 416.783 1212.14 408.622 1215.16L408.449 1214.69C404.405 1216.19 400.323 1217.61 396.203 1218.96L396.359 1219.44C386.154 1222.78 375.72 1225.68 365.085 1228.11L364.974 1227.62C359.58 1228.85 354.133 1229.96 348.638 1230.94L348.726 1231.43C345.993 1231.92 343.249 1232.37 340.493 1232.8L340.416 1232.31C331.937 1233.62 323.349 1234.63 314.666 1235.33L314.706 1235.83C310.404 1236.17 306.079 1236.44 301.732 1236.64L301.71 1236.14C296.339 1236.38 290.935 1236.5 285.5 1236.5C280.065 1236.5 274.661 1236.38 269.29 1236.14L269.268 1236.64C260.542 1236.25 251.905 1235.55 243.369 1234.55L243.427 1234.05C239.12 1233.55 234.838 1232.96 230.584 1232.31L230.507 1232.8C219.72 1231.13 209.107 1228.99 198.698 1226.38L198.819 1225.9C193.406 1224.54 188.048 1223.06 182.748 1221.47L182.603 1221.94C179.934 1221.14 177.28 1220.3 174.641 1219.44L174.797 1218.96C166.536 1216.25 158.425 1213.25 150.479 1209.96L150.288 1210.42C146.278 1208.77 142.311 1207.04 138.387 1205.24L138.596 1204.78C128.714 1200.25 119.11 1195.28 109.815 1189.89L109.564 1190.32C102.044 1185.96 94.7248 1181.33 87.6231 1176.45L87.9066 1176.03C84.3381 1173.58 80.8245 1171.06 77.368 1168.48L77.0686 1168.88C68.3632 1162.37 60.0186 1155.46 52.0669 1148.19L52.4044 1147.82C48.2969 1144.06 44.2946 1140.21 40.4017 1136.26L40.0456 1136.61C38.0897 1134.62 36.1614 1132.62 34.2613 1130.58L34.6265 1130.24C28.7097 1123.91 23.0664 1117.36 17.7137 1110.6L17.3216 1110.91C14.6333 1107.51 12.0182 1104.06 9.47831 1100.56L9.88301 1100.27C3.53003 1091.51 -2.35085 1082.44 -7.72584 1073.07L-8.15946 1073.32C-12.4688 1065.82 -16.4535 1058.13 -20.0963 1050.27L-19.6427 1050.06C-21.4584 1046.14 -23.1891 1042.18 -24.8325 1038.18L-25.295 1038.37C-29.3957 1028.39 -32.954 1018.16 -35.9365 1007.72L-35.4557 1007.58C-36.9773 1002.25 -38.3487 996.863 -39.5656 991.425L-40.0536 991.534C-40.6595 988.826 -41.2272 986.105 -41.7561 983.372L-41.2652 983.277C-42.8972 974.842 -44.159 966.288 -45.0346 957.63L-45.532 957.68C-45.9661 953.387 -46.3054 949.069 -46.5479 944.727L-46.0487 944.699C-46.3483 939.334 -46.5 933.934 -46.5 928.5C-46.5 923.066 -46.3483 917.666 -46.0487 912.301L-46.5479 912.273C-46.0612 903.558 -45.1845 894.938 -43.934 886.429L-43.4393 886.502C-42.809 882.213 -42.0836 877.953 -41.2652 873.723L-41.7561 873.628C-39.6884 862.942 -37.0277 852.447 -33.8067 842.173L-33.3296 842.323C-31.6645 837.012 -29.8495 831.761 -27.889 826.573L-28.3568 826.396C-27.3726 823.791 -26.3518 821.203 -25.295 818.631L-24.8325 818.821C-21.5438 810.817 -17.9056 802.973 -13.9352 795.305L-14.3792 795.075C-12.3886 791.231 -10.3146 787.43 -8.15946 783.676L-7.72584 783.925C-2.35085 774.562 3.53003 765.487 9.88301 756.731L9.47831 756.438C14.5534 749.443 19.9292 742.652 25.5886 736.08L25.9675 736.406C28.7841 733.135 31.6712 729.918 34.6265 726.758L34.2613 726.417C41.6275 718.54 49.4169 711.013 57.5966 703.866L57.9256 704.243C62.1015 700.594 66.3793 697.045 70.7547 693.599L70.4453 693.206C72.629 691.486 74.837 689.792 77.0686 688.124L77.3679 688.525C84.2665 683.369 91.3921 678.464 98.7286 673.824L98.4613 673.401C102.111 671.093 105.812 668.851 109.564 666.676L109.815 667.109C119.11 661.721 128.714 656.747 138.596 652.216L138.387 651.762C146.215 648.173 154.217 644.861 162.378 641.841L162.551 642.31C166.595 640.814 170.677 639.389 174.797 638.038L174.641 637.563C184.846 634.215 195.28 631.317 205.915 628.893L206.026 629.381C211.42 628.151 216.867 627.044 222.362 626.063L222.274 625.57C225.007 625.082 227.751 624.625 230.507 624.2L230.584 624.694C239.063 623.384 247.651 622.373 256.334 621.672L256.294 621.174C260.596 620.826 264.921 620.555 269.268 620.361L269.29 620.861C274.661 620.621 280.065 620.5 285.5 620.5C290.935 620.5 296.339 620.621 301.71 620.861L301.732 620.361C310.458 620.75 319.095 621.452 327.631 622.453L327.573 622.95C331.88 623.455 336.162 624.037 340.416 624.694L340.493 624.2C351.28 625.866 361.893 628.013 372.302 630.618L372.181 631.103C377.594 632.458 382.953 633.936 388.252 635.535L388.397 635.056C391.066 635.861 393.72 636.697 396.359 637.563L396.203 638.038C404.464 640.747 412.575 643.752 420.521 647.038L420.712 646.576C424.722 648.234 428.689 649.963 432.613 651.762L432.404 652.216C442.286 656.747 451.89 661.721 461.185 667.109L461.436 666.676C468.956 671.036 476.275 675.666 483.377 680.553L483.093 680.965C486.662 683.421 490.175 685.941 493.632 688.525L493.931 688.124C502.637 694.631 510.981 701.536 518.933 708.81L518.596 709.179C522.703 712.936 526.705 716.792 530.598 720.743L530.954 720.392C532.91 722.376 534.839 724.385 536.739 726.417L536.374 726.758C542.29 733.085 547.934 739.638 553.286 746.401L553.678 746.091C556.367 749.488 558.982 752.937 561.522 756.438L561.117 756.731C567.47 765.487 573.351 774.562 578.726 783.925L579.159 783.676C583.469 791.183 587.453 798.874 591.096 806.734L590.643 806.944C592.458 810.862 594.189 814.821 595.833 818.821L596.295 818.631C600.396 828.611 603.954 838.839 606.937 849.285L606.456 849.422C607.977 854.751 609.349 860.137 610.566 865.575L611.054 865.466C611.66 868.174 612.227 870.895 612.756 873.628L612.265 873.723C613.897 882.158 615.159 890.712 616.035 899.37L616.532 899.32Z" stroke="url(#paint4_linear)" stroke-dasharray="35 14 28 9 18 35 14 28"/>
</g>
<g opacity="0.65">
<circle cx="2559.5" cy="1475.5" r="1206" stroke="#F78A7D" stroke-opacity="0.51" stroke-dasharray="35 14 28 9 18 35 14 28"/>
<circle cx="2559.5" cy="1475.5" r="1206" stroke="url(#paint5_linear)" stroke-dasharray="35 14 28 9 18 35 14 28"/>
</g>
<g opacity="0.65">
<path d="M774.5 973C774.5 1220.1 551.096 1423.5 271.5 1423.5C-8.09578 1423.5 -231.5 1220.1 -231.5 973C-231.5 725.899 -8.09578 522.5 271.5 522.5C551.096 522.5 774.5 725.899 774.5 973Z" stroke="#F78A7D" stroke-opacity="0.24" stroke-width="35"/>
<path d="M774.5 973C774.5 1220.1 551.096 1423.5 271.5 1423.5C-8.09578 1423.5 -231.5 1220.1 -231.5 973C-231.5 725.899 -8.09578 522.5 271.5 522.5C551.096 522.5 774.5 725.899 774.5 973Z" stroke="url(#paint6_angular)" stroke-width="35"/>
</g>
<g opacity="0.65">
<path d="M2275.5 1237C2275.5 1526.72 2041.3 1761.5 1752.5 1761.5C1463.7 1761.5 1229.5 1526.72 1229.5 1237C1229.5 947.281 1463.7 712.5 1752.5 712.5C2041.3 712.5 2275.5 947.281 2275.5 1237Z" stroke="#F78A7D" stroke-opacity="0.24" stroke-width="35"/>
<path d="M2275.5 1237C2275.5 1526.72 2041.3 1761.5 1752.5 1761.5C1463.7 1761.5 1229.5 1526.72 1229.5 1237C1229.5 947.281 1463.7 712.5 1752.5 712.5C2041.3 712.5 2275.5 947.281 2275.5 1237Z" stroke="url(#paint7_angular)" stroke-width="35"/>
</g>
<path opacity="0.65" d="M556.5 897.5C556.5 1161.58 376.218 1375.5 154 1375.5C-68.2176 1375.5 -248.5 1161.58 -248.5 897.5C-248.5 633.424 -68.2176 419.5 154 419.5C376.218 419.5 556.5 633.424 556.5 897.5Z" stroke="#F78A7D"/>
<path opacity="0.65" d="M2218.5 1236.5C2218.5 1493.31 2009.87 1701.5 1752.5 1701.5C1495.13 1701.5 1286.5 1493.31 1286.5 1236.5C1286.5 979.689 1495.13 771.5 1752.5 771.5C2009.87 771.5 2218.5 979.689 2218.5 1236.5Z" stroke="#F78A7D"/>
<g opacity="0.65">
<path d="M638.5 973C638.5 1185.85 443.802 1358.5 203.5 1358.5C-36.8023 1358.5 -231.5 1185.85 -231.5 973C-231.5 760.149 -36.8023 587.5 203.5 587.5C443.802 587.5 638.5 760.149 638.5 973Z" stroke="#F78A7D"/>
<path d="M638.5 973C638.5 1185.85 443.802 1358.5 203.5 1358.5C-36.8023 1358.5 -231.5 1185.85 -231.5 973C-231.5 760.149 -36.8023 587.5 203.5 587.5C443.802 587.5 638.5 760.149 638.5 973Z" stroke="url(#paint8_linear)"/>
</g>
<g opacity="0.65">
<path d="M2198.5 1236.5C2198.5 1482.27 1998.82 1681.5 1752.5 1681.5C1506.18 1681.5 1306.5 1482.27 1306.5 1236.5C1306.5 990.734 1506.18 791.5 1752.5 791.5C1998.82 791.5 2198.5 990.734 2198.5 1236.5Z" stroke="#F78A7D"/>
<path d="M2198.5 1236.5C2198.5 1482.27 1998.82 1681.5 1752.5 1681.5C1506.18 1681.5 1306.5 1482.27 1306.5 1236.5C1306.5 990.734 1506.18 791.5 1752.5 791.5C1998.82 791.5 2198.5 990.734 2198.5 1236.5Z" stroke="url(#paint9_linear)"/>
</g>
<g opacity="0.65">
<path d="M3279.5 639C3279.5 929.581 3007.05 1165.5 2670.5 1165.5C2333.95 1165.5 2061.5 929.581 2061.5 639C2061.5 348.419 2333.95 112.5 2670.5 112.5C3007.05 112.5 3279.5 348.419 3279.5 639Z" stroke="#F78A7D" stroke-width="3"/>
<path d="M3279.5 639C3279.5 929.581 3007.05 1165.5 2670.5 1165.5C2333.95 1165.5 2061.5 929.581 2061.5 639C2061.5 348.419 2333.95 112.5 2670.5 112.5C3007.05 112.5 3279.5 348.419 3279.5 639Z" stroke="url(#paint10_linear)" stroke-width="3"/>
</g>
<g opacity="0.65">
<path d="M3108.5 673C3108.5 897.487 2898.22 1083.5 2633.5 1083.5C2368.78 1083.5 2158.5 897.487 2158.5 673C2158.5 448.513 2368.78 262.5 2633.5 262.5C2898.22 262.5 3108.5 448.513 3108.5 673Z" stroke="#F78A7D" stroke-opacity="0.24" stroke-width="35"/>
<path d="M3108.5 673C3108.5 897.487 2898.22 1083.5 2633.5 1083.5C2368.78 1083.5 2158.5 897.487 2158.5 673C2158.5 448.513 2368.78 262.5 2633.5 262.5C2898.22 262.5 3108.5 448.513 3108.5 673Z" stroke="url(#paint11_angular)" stroke-width="35"/>
</g>
<g opacity="0.65">
<path d="M3106.5 639C3106.5 846.869 2911.37 1015.5 2670.5 1015.5C2429.63 1015.5 2234.5 846.869 2234.5 639C2234.5 431.131 2429.63 262.5 2670.5 262.5C2911.37 262.5 3106.5 431.131 3106.5 639Z" stroke="#F78A7D"/>
<path d="M3106.5 639C3106.5 846.869 2911.37 1015.5 2670.5 1015.5C2429.63 1015.5 2234.5 846.869 2234.5 639C2234.5 431.131 2429.63 262.5 2670.5 262.5C2911.37 262.5 3106.5 431.131 3106.5 639Z" stroke="url(#paint12_linear)"/>
</g>
<g opacity="0.65">
<path d="M1937.5 1397C1937.5 1693.08 1654.56 1933.5 1305 1933.5C955.44 1933.5 672.5 1693.08 672.5 1397C672.5 1100.92 955.44 860.5 1305 860.5C1654.56 860.5 1937.5 1100.92 1937.5 1397Z" stroke="#F78A7D" stroke-width="3"/>
<path d="M1937.5 1397C1937.5 1693.08 1654.56 1933.5 1305 1933.5C955.44 1933.5 672.5 1693.08 672.5 1397C672.5 1100.92 955.44 860.5 1305 860.5C1654.56 860.5 1937.5 1100.92 1937.5 1397Z" stroke="url(#paint13_linear)" stroke-width="3"/>
</g>
<g opacity="0.65">
<circle cx="1209" cy="1397" r="629.5" stroke="#F78A7D" stroke-opacity="0.51" stroke-dasharray="35 14 28 9 18 35 14 28"/>
<circle cx="1209" cy="1397" r="629.5" stroke="url(#paint14_linear)" stroke-dasharray="35 14 28 9 18 35 14 28"/>
</g>
<g opacity="0.65">
<path d="M1693.5 1397C1693.5 1609.85 1498.8 1782.5 1258.5 1782.5C1018.2 1782.5 823.5 1609.85 823.5 1397C823.5 1184.15 1018.2 1011.5 1258.5 1011.5C1498.8 1011.5 1693.5 1184.15 1693.5 1397Z" stroke="#F78A7D"/>
<path d="M1693.5 1397C1693.5 1609.85 1498.8 1782.5 1258.5 1782.5C1018.2 1782.5 823.5 1609.85 823.5 1397C823.5 1184.15 1018.2 1011.5 1258.5 1011.5C1498.8 1011.5 1693.5 1184.15 1693.5 1397Z" stroke="url(#paint15_linear)"/>
</g>
</g>
<defs>
<linearGradient id="paint0_linear" x1="250" y1="435" x2="250" y2="1511" gradientUnits="userSpaceOnUse">
<stop stop-color="white"/>
<stop offset="1" stop-color="white" stop-opacity="0"/>
</linearGradient>
<linearGradient id="paint1_linear" x1="261.5" y1="666" x2="261.5" y2="1192" gradientUnits="userSpaceOnUse">
<stop stop-color="white"/>
<stop offset="1" stop-color="white" stop-opacity="0"/>
</linearGradient>
<linearGradient id="paint2_linear" x1="1752.5" y1="615" x2="1752.5" y2="1859" gradientUnits="userSpaceOnUse">
<stop stop-color="white"/>
<stop offset="1" stop-color="white" stop-opacity="0"/>
</linearGradient>
<linearGradient id="paint3_linear" x1="925.5" y1="1070" x2="-355.5" y2="1642.5" gradientUnits="userSpaceOnUse">
<stop offset="0.0345241" stop-color="white"/>
<stop offset="1" stop-color="white" stop-opacity="0"/>
</linearGradient>
<linearGradient id="paint4_linear" x1="692.681" y1="975.999" x2="34.3144" y2="1293.12" gradientUnits="userSpaceOnUse">
<stop offset="0.0345241" stop-color="white"/>
<stop offset="1" stop-color="white" stop-opacity="0"/>
</linearGradient>
<linearGradient id="paint5_linear" x1="4036.98" y1="1661.26" x2="1583.77" y2="2757.65" gradientUnits="userSpaceOnUse">
<stop offset="0.0345241" stop-color="white"/>
<stop offset="1" stop-color="white" stop-opacity="0"/>
</linearGradient>
<radialGradient id="paint6_angular" cx="0" cy="0" r="1" gradientUnits="userSpaceOnUse" gradientTransform="translate(183.638 799) rotate(0.369733) scale(697.351 574.679)">
<stop stop-color="white" stop-opacity="0.283334"/>
<stop offset="0.239038" stop-color="white"/>
<stop offset="0.377592" stop-color="white" stop-opacity="0.868706"/>
<stop offset="0.802189" stop-color="white" stop-opacity="0.353917"/>
<stop offset="0.808894" stop-color="white" stop-opacity="0.330001"/>
<stop offset="1" stop-color="white" stop-opacity="0"/>
</radialGradient>
<radialGradient id="paint7_angular" cx="0" cy="0" r="1" gradientUnits="userSpaceOnUse" gradientTransform="translate(1661.26 1035.49) rotate(0.412349) scale(724.15 665.543)">
<stop stop-color="white" stop-opacity="0.283334"/>
<stop offset="0.239038" stop-color="white"/>
<stop offset="0.377592" stop-color="white" stop-opacity="0.868706"/>
<stop offset="0.802189" stop-color="white" stop-opacity="0.353917"/>
<stop offset="0.808894" stop-color="white" stop-opacity="0.330001"/>
<stop offset="1" stop-color="white" stop-opacity="0"/>
</radialGradient>
<linearGradient id="paint8_linear" x1="203.5" y1="417" x2="203.5" y2="1359" gradientUnits="userSpaceOnUse">
<stop stop-color="white"/>
<stop offset="1" stop-color="white" stop-opacity="0"/>
</linearGradient>
<linearGradient id="paint9_linear" x1="1752.5" y1="594.795" x2="1752.5" y2="1682" gradientUnits="userSpaceOnUse">
<stop stop-color="white"/>
<stop offset="1" stop-color="white" stop-opacity="0"/>
</linearGradient>
<linearGradient id="paint10_linear" x1="2670.5" y1="111" x2="2670.5" y2="1167" gradientUnits="userSpaceOnUse">
<stop stop-color="white"/>
<stop offset="1" stop-color="white" stop-opacity="0"/>
</linearGradient>
<radialGradient id="paint11_angular" cx="0" cy="0" r="1" gradientUnits="userSpaceOnUse" gradientTransform="translate(2550.36 513.872) rotate(0.357356) scale(659.837 525.562)">
<stop stop-color="white" stop-opacity="0.283334"/>
<stop offset="0.239038" stop-color="white"/>
<stop offset="0.377592" stop-color="white" stop-opacity="0.868706"/>
<stop offset="0.802189" stop-color="white" stop-opacity="0.353917"/>
<stop offset="0.808894" stop-color="white" stop-opacity="0.330001"/>
<stop offset="1" stop-color="white" stop-opacity="0"/>
</radialGradient>
<linearGradient id="paint12_linear" x1="2670.5" y1="95.9637" x2="2670.5" y2="1016" gradientUnits="userSpaceOnUse">
<stop stop-color="white"/>
<stop offset="1" stop-color="white" stop-opacity="0"/>
</linearGradient>
<linearGradient id="paint13_linear" x1="1305" y1="859" x2="1305" y2="1935" gradientUnits="userSpaceOnUse">
<stop stop-color="white"/>
<stop offset="1" stop-color="white" stop-opacity="0"/>
</linearGradient>
<linearGradient id="paint14_linear" x1="1980.5" y1="1494" x2="699.5" y2="2066.5" gradientUnits="userSpaceOnUse">
<stop offset="0.0345241" stop-color="white"/>
<stop offset="1" stop-color="white" stop-opacity="0"/>
</linearGradient>
<linearGradient id="paint15_linear" x1="1258.5" y1="841" x2="1258.5" y2="1783" gradientUnits="userSpaceOnUse">
<stop stop-color="white"/>
<stop offset="1" stop-color="white" stop-opacity="0"/>
</linearGradient>
<clipPath id="clip0">
<rect width="2560" height="1440" fill="white"/>
</clipPath>
</defs>
</svg>
