<svg width="690" height="373" viewBox="0 0 690 373" fill="none" xmlns="http://www.w3.org/2000/svg">
<rect x="594" width="96" height="373" rx="48" fill="#F3F5F8"/>
<path d="M621.406 300.891C621.469 300.766 621.562 300.661 621.688 300.578C621.823 300.484 621.964 300.438 622.109 300.438C622.307 300.438 622.474 300.505 622.609 300.641C622.755 300.766 622.885 300.938 623 301.156C623.115 301.365 623.224 301.599 623.328 301.859C623.432 302.109 623.547 302.359 623.672 302.609C623.818 302.911 623.964 303.208 624.109 303.5C624.266 303.792 624.417 304.047 624.562 304.266C624.625 303.453 624.724 302.536 624.859 301.516C625.005 300.484 625.135 299.401 625.25 298.266C625.25 298.089 625.302 297.964 625.406 297.891C625.51 297.818 625.62 297.781 625.734 297.781C625.849 297.802 625.953 297.865 626.047 297.969C626.141 298.062 626.188 298.203 626.188 298.391C626.156 298.964 626.109 299.568 626.047 300.203C625.984 300.828 625.911 301.464 625.828 302.109C625.755 302.745 625.672 303.375 625.578 304C625.484 304.625 625.396 305.214 625.312 305.766C625.292 305.911 625.234 306.021 625.141 306.094C625.057 306.177 624.964 306.219 624.859 306.219C624.766 306.219 624.677 306.188 624.594 306.125C624.51 306.073 624.448 305.974 624.406 305.828C624.385 305.807 624.333 305.729 624.25 305.594C624.167 305.448 624.057 305.266 623.922 305.047C623.797 304.818 623.656 304.562 623.5 304.281C623.354 304 623.208 303.719 623.062 303.438C622.917 303.146 622.776 302.87 622.641 302.609C622.505 302.339 622.396 302.099 622.312 301.891C622.292 301.849 622.266 301.807 622.234 301.766C622.203 301.724 622.167 301.703 622.125 301.703C622.083 301.703 621.99 301.839 621.844 302.109C621.708 302.37 621.547 302.698 621.359 303.094C621.172 303.479 620.969 303.891 620.75 304.328C620.542 304.755 620.344 305.141 620.156 305.484C620.083 305.609 619.995 305.693 619.891 305.734C619.797 305.776 619.693 305.797 619.578 305.797C619.318 305.797 619.156 305.651 619.094 305.359C619.021 304.984 618.948 304.557 618.875 304.078C618.812 303.589 618.755 303.083 618.703 302.562C618.651 302.042 618.609 301.521 618.578 301C618.547 300.469 618.531 299.974 618.531 299.516C618.531 299.318 618.531 299.13 618.531 298.953C618.531 298.766 618.547 298.609 618.578 298.484C618.609 298.349 618.661 298.245 618.734 298.172C618.818 298.089 618.938 298.047 619.094 298.047C619.229 298.047 619.339 298.104 619.422 298.219C619.516 298.323 619.562 298.464 619.562 298.641C619.562 298.766 619.557 298.896 619.547 299.031C619.536 299.156 619.531 299.292 619.531 299.438C619.531 299.802 619.542 300.182 619.562 300.578C619.583 300.974 619.609 301.375 619.641 301.781C619.682 302.177 619.729 302.568 619.781 302.953C619.833 303.328 619.885 303.672 619.938 303.984C620.062 303.755 620.193 303.5 620.328 303.219C620.464 302.938 620.594 302.656 620.719 302.375C620.844 302.094 620.964 301.823 621.078 301.562C621.203 301.302 621.312 301.078 621.406 300.891ZM628.797 305.141C628.88 304.62 628.943 304.047 628.984 303.422C629.036 302.797 629.062 302.172 629.062 301.547C629.062 301.047 629.042 300.578 629 300.141C628.958 299.703 628.885 299.349 628.781 299.078C628.75 298.964 628.661 298.901 628.516 298.891C628.37 298.88 628.214 298.875 628.047 298.875C627.891 298.875 627.745 298.849 627.609 298.797C627.474 298.734 627.406 298.599 627.406 298.391C627.406 298.286 627.448 298.193 627.531 298.109C627.625 298.026 627.75 297.984 627.906 297.984C628.115 298.005 628.307 298.021 628.484 298.031C628.672 298.042 628.849 298.047 629.016 298.047C629.255 298.047 629.521 298.021 629.812 297.969C630.115 297.917 630.448 297.891 630.812 297.891C630.938 297.891 631.042 297.932 631.125 298.016C631.208 298.089 631.25 298.177 631.25 298.281C631.25 298.417 631.193 298.526 631.078 298.609C630.974 298.693 630.844 298.755 630.688 298.797C630.531 298.839 630.365 298.865 630.188 298.875C630.01 298.885 629.854 298.891 629.719 298.891C629.823 299.266 629.891 299.734 629.922 300.297C629.964 300.859 629.984 301.438 629.984 302.031C629.984 302.625 629.958 303.203 629.906 303.766C629.865 304.318 629.823 304.771 629.781 305.125C629.938 305.125 630.094 305.115 630.25 305.094C630.417 305.062 630.604 305.047 630.812 305.047C630.938 305.047 631.042 305.089 631.125 305.172C631.208 305.245 631.25 305.323 631.25 305.406C631.25 305.562 631.172 305.682 631.016 305.766C630.859 305.849 630.672 305.911 630.453 305.953C630.234 305.995 630.005 306.016 629.766 306.016C629.526 306.026 629.323 306.031 629.156 306.031C628.979 306.031 628.786 306.031 628.578 306.031C628.38 306.031 628.193 306.016 628.016 305.984C627.839 305.953 627.693 305.901 627.578 305.828C627.464 305.755 627.406 305.646 627.406 305.5C627.406 305.396 627.448 305.307 627.531 305.234C627.625 305.151 627.75 305.109 627.906 305.109C627.979 305.12 628.052 305.13 628.125 305.141C628.208 305.141 628.292 305.141 628.375 305.141H628.797ZM637.625 298.609C637.615 298.578 637.609 298.531 637.609 298.469C637.609 298.323 637.651 298.203 637.734 298.109C637.818 298.016 637.917 297.969 638.031 297.969C638.146 297.969 638.255 298.005 638.359 298.078C638.464 298.151 638.531 298.276 638.562 298.453C638.635 298.891 638.688 299.344 638.719 299.812C638.75 300.281 638.766 300.766 638.766 301.266C638.766 302.078 638.724 302.896 638.641 303.719C638.557 304.531 638.438 305.276 638.281 305.953C638.25 306.099 638.193 306.203 638.109 306.266C638.036 306.328 637.953 306.359 637.859 306.359C637.745 306.359 637.625 306.302 637.5 306.188C637.375 306.083 637.198 305.849 636.969 305.484C636.74 305.12 636.432 304.589 636.047 303.891C635.672 303.193 635.182 302.25 634.578 301.062C634.359 300.625 634.193 300.297 634.078 300.078C633.964 299.859 633.911 299.708 633.922 299.625C633.922 299.51 633.969 299.406 634.062 299.312C634.156 299.208 634.26 299.156 634.375 299.156C634.458 299.156 634.521 299.167 634.562 299.188C634.615 299.198 634.661 299.245 634.703 299.328C634.755 299.401 634.818 299.521 634.891 299.688C634.964 299.844 635.078 300.062 635.234 300.344L636.938 303.578C637.083 303.839 637.208 304.057 637.312 304.234C637.417 304.411 637.5 304.547 637.562 304.641C637.75 303.516 637.844 302.427 637.844 301.375C637.844 300.865 637.823 300.38 637.781 299.922C637.74 299.453 637.688 299.016 637.625 298.609ZM633.719 298.516C633.667 298.922 633.63 299.427 633.609 300.031C633.589 300.625 633.578 301.24 633.578 301.875C633.578 302.542 633.599 303.193 633.641 303.828C633.693 304.453 633.719 305 633.719 305.469C633.719 305.667 633.672 305.823 633.578 305.938C633.484 306.042 633.37 306.094 633.234 306.094C633.151 306.094 633.068 306.057 632.984 305.984C632.911 305.901 632.865 305.776 632.844 305.609C632.771 305.016 632.719 304.349 632.688 303.609C632.667 302.87 632.656 302.125 632.656 301.375C632.656 300.823 632.661 300.297 632.672 299.797C632.693 299.286 632.729 298.818 632.781 298.391C632.792 298.203 632.849 298.073 632.953 298C633.068 297.927 633.182 297.891 633.297 297.891C633.411 297.911 633.51 297.969 633.594 298.062C633.677 298.146 633.719 298.266 633.719 298.422V298.516ZM645.25 298.609C645.24 298.578 645.234 298.531 645.234 298.469C645.234 298.323 645.276 298.203 645.359 298.109C645.443 298.016 645.542 297.969 645.656 297.969C645.771 297.969 645.88 298.005 645.984 298.078C646.089 298.151 646.156 298.276 646.188 298.453C646.26 298.891 646.312 299.344 646.344 299.812C646.375 300.281 646.391 300.766 646.391 301.266C646.391 302.078 646.349 302.896 646.266 303.719C646.182 304.531 646.062 305.276 645.906 305.953C645.875 306.099 645.818 306.203 645.734 306.266C645.661 306.328 645.578 306.359 645.484 306.359C645.37 306.359 645.25 306.302 645.125 306.188C645 306.083 644.823 305.849 644.594 305.484C644.365 305.12 644.057 304.589 643.672 303.891C643.297 303.193 642.807 302.25 642.203 301.062C641.984 300.625 641.818 300.297 641.703 300.078C641.589 299.859 641.536 299.708 641.547 299.625C641.547 299.51 641.594 299.406 641.688 299.312C641.781 299.208 641.885 299.156 642 299.156C642.083 299.156 642.146 299.167 642.188 299.188C642.24 299.198 642.286 299.245 642.328 299.328C642.38 299.401 642.443 299.521 642.516 299.688C642.589 299.844 642.703 300.062 642.859 300.344L644.562 303.578C644.708 303.839 644.833 304.057 644.938 304.234C645.042 304.411 645.125 304.547 645.188 304.641C645.375 303.516 645.469 302.427 645.469 301.375C645.469 300.865 645.448 300.38 645.406 299.922C645.365 299.453 645.312 299.016 645.25 298.609ZM641.344 298.516C641.292 298.922 641.255 299.427 641.234 300.031C641.214 300.625 641.203 301.24 641.203 301.875C641.203 302.542 641.224 303.193 641.266 303.828C641.318 304.453 641.344 305 641.344 305.469C641.344 305.667 641.297 305.823 641.203 305.938C641.109 306.042 640.995 306.094 640.859 306.094C640.776 306.094 640.693 306.057 640.609 305.984C640.536 305.901 640.49 305.776 640.469 305.609C640.396 305.016 640.344 304.349 640.312 303.609C640.292 302.87 640.281 302.125 640.281 301.375C640.281 300.823 640.286 300.297 640.297 299.797C640.318 299.286 640.354 298.818 640.406 298.391C640.417 298.203 640.474 298.073 640.578 298C640.693 297.927 640.807 297.891 640.922 297.891C641.036 297.911 641.135 297.969 641.219 298.062C641.302 298.146 641.344 298.266 641.344 298.422V298.516ZM648.125 298.891C647.958 298.859 647.833 298.802 647.75 298.719C647.667 298.625 647.625 298.531 647.625 298.438C647.625 298.323 647.672 298.219 647.766 298.125C647.859 298.031 648 297.984 648.188 297.984C648.406 298.005 648.63 298.021 648.859 298.031C649.089 298.042 649.318 298.047 649.547 298.047C649.943 298.047 650.323 298.036 650.688 298.016C651.062 297.995 651.406 297.964 651.719 297.922C651.896 297.922 652.031 297.969 652.125 298.062C652.229 298.146 652.281 298.245 652.281 298.359C652.281 298.651 652.036 298.828 651.547 298.891C651.068 298.953 650.302 298.984 649.25 298.984C649.167 299.453 649.104 299.948 649.062 300.469C649.021 300.979 649 301.526 649 302.109C649 302.484 649.005 302.844 649.016 303.188C649.026 303.531 649.042 303.87 649.062 304.203C649.083 304.411 649.12 304.578 649.172 304.703C649.234 304.818 649.318 304.906 649.422 304.969C649.536 305.021 649.677 305.052 649.844 305.062C650.021 305.073 650.24 305.078 650.5 305.078C650.833 305.078 651.161 305.057 651.484 305.016C651.818 304.964 652.135 304.88 652.438 304.766C652.531 304.734 652.62 304.719 652.703 304.719C652.839 304.719 652.932 304.755 652.984 304.828C653.047 304.901 653.078 304.984 653.078 305.078C653.078 305.276 652.984 305.438 652.797 305.562C652.609 305.688 652.385 305.786 652.125 305.859C651.875 305.932 651.609 305.979 651.328 306C651.047 306.031 650.812 306.047 650.625 306.047C650.427 306.047 650.203 306.042 649.953 306.031C649.714 306.031 649.474 306 649.234 305.938C649.005 305.865 648.797 305.75 648.609 305.594C648.422 305.438 648.292 305.214 648.219 304.922C648.146 304.651 648.094 304.318 648.062 303.922C648.031 303.516 648.016 303.083 648.016 302.625C648.016 302.25 648.021 301.88 648.031 301.516C648.052 301.141 648.073 300.786 648.094 300.453C648.115 300.12 648.141 299.823 648.172 299.562C648.203 299.292 648.229 299.078 648.25 298.922C648.198 298.922 648.167 298.917 648.156 298.906C648.156 298.896 648.146 298.891 648.125 298.891ZM650.031 302.578C649.865 302.568 649.75 302.516 649.688 302.422C649.635 302.328 649.609 302.224 649.609 302.109C649.609 302.005 649.651 301.911 649.734 301.828C649.828 301.745 649.948 301.703 650.094 301.703C650.271 301.703 650.448 301.708 650.625 301.719C650.812 301.729 650.995 301.734 651.172 301.734C651.745 301.734 652.312 301.703 652.875 301.641C653.042 301.651 653.167 301.698 653.25 301.781C653.344 301.865 653.396 301.953 653.406 302.047C653.406 302.203 653.328 302.323 653.172 302.406C653.016 302.479 652.828 302.536 652.609 302.578C652.391 302.62 652.161 302.646 651.922 302.656C651.682 302.656 651.474 302.656 651.297 302.656C651.078 302.656 650.865 302.651 650.656 302.641C650.448 302.62 650.24 302.599 650.031 302.578ZM659.75 305.359C659.823 305.464 659.859 305.568 659.859 305.672C659.859 305.807 659.807 305.922 659.703 306.016C659.599 306.109 659.479 306.156 659.344 306.156C659.198 306.156 659.016 306.016 658.797 305.734C658.578 305.453 658.349 305.109 658.109 304.703C657.87 304.297 657.641 303.875 657.422 303.438C657.203 302.99 657.031 302.599 656.906 302.266C656.885 302.224 656.859 302.172 656.828 302.109C656.807 302.036 656.797 301.958 656.797 301.875C656.797 301.771 656.828 301.641 656.891 301.484C656.964 301.328 657.125 301.193 657.375 301.078C657.698 300.922 657.958 300.781 658.156 300.656C658.365 300.531 658.521 300.417 658.625 300.312C658.729 300.198 658.797 300.094 658.828 300C658.87 299.906 658.891 299.818 658.891 299.734C658.891 299.411 658.719 299.177 658.375 299.031C658.042 298.875 657.62 298.797 657.109 298.797C656.901 298.797 656.677 298.807 656.438 298.828C656.208 298.849 655.958 298.88 655.688 298.922C655.771 299.266 655.828 299.672 655.859 300.141C655.901 300.609 655.922 301.109 655.922 301.641C655.922 302.036 655.911 302.432 655.891 302.828C655.88 303.224 655.865 303.599 655.844 303.953C655.823 304.307 655.792 304.63 655.75 304.922C655.719 305.214 655.688 305.453 655.656 305.641C655.635 305.786 655.573 305.896 655.469 305.969C655.375 306.042 655.276 306.078 655.172 306.078C655.057 306.078 654.948 306.042 654.844 305.969C654.75 305.896 654.703 305.786 654.703 305.641C654.703 305.589 654.708 305.547 654.719 305.516C654.792 305.005 654.854 304.406 654.906 303.719C654.958 303.031 654.984 302.344 654.984 301.656C654.984 301.083 654.964 300.552 654.922 300.062C654.88 299.573 654.812 299.182 654.719 298.891C654.667 298.734 654.641 298.615 654.641 298.531C654.641 298.375 654.677 298.255 654.75 298.172C654.823 298.078 654.917 298.031 655.031 298.031C655.094 298.031 655.156 298.047 655.219 298.078H655.25C655.573 298.047 655.88 298.021 656.172 298C656.474 297.979 656.76 297.969 657.031 297.969C657.406 297.969 657.766 297.995 658.109 298.047C658.464 298.099 658.771 298.193 659.031 298.328C659.292 298.464 659.5 298.641 659.656 298.859C659.812 299.078 659.891 299.349 659.891 299.672C659.891 300.026 659.729 300.391 659.406 300.766C659.083 301.13 658.542 301.505 657.781 301.891C657.875 302.13 658 302.417 658.156 302.75C658.323 303.083 658.5 303.417 658.688 303.75C658.885 304.083 659.078 304.396 659.266 304.688C659.453 304.979 659.615 305.203 659.75 305.359ZM662.125 303.516C662.177 303.016 662.234 302.453 662.297 301.828C662.37 301.193 662.406 300.562 662.406 299.938C662.406 299.531 662.385 299.141 662.344 298.766C662.302 298.38 662.229 298.026 662.125 297.703C662.062 297.547 662.031 297.411 662.031 297.297C662.031 297.151 662.062 297.031 662.125 296.938C662.198 296.844 662.292 296.797 662.406 296.797C662.625 296.797 662.797 296.922 662.922 297.172C663.047 297.422 663.146 297.729 663.219 298.094C663.292 298.458 663.339 298.854 663.359 299.281C663.38 299.708 663.391 300.094 663.391 300.438C663.391 301.031 663.359 301.604 663.297 302.156C663.234 302.708 663.167 303.203 663.094 303.641C663.062 303.807 662.995 303.932 662.891 304.016C662.797 304.089 662.698 304.125 662.594 304.125C662.469 304.125 662.354 304.089 662.25 304.016C662.156 303.943 662.109 303.818 662.109 303.641C662.109 303.589 662.115 303.547 662.125 303.516ZM662.062 305.047C662.125 305.026 662.172 305.016 662.203 305.016C662.255 305.016 662.297 305.021 662.328 305.031C662.359 305.042 662.385 305.047 662.406 305.047C662.448 305.047 662.484 305.047 662.516 305.047C662.557 305.036 662.594 305.031 662.625 305.031C662.854 305.031 663.047 305.073 663.203 305.156C663.359 305.229 663.484 305.328 663.578 305.453C663.672 305.568 663.74 305.703 663.781 305.859C663.823 306.005 663.844 306.151 663.844 306.297C663.844 306.453 663.812 306.604 663.75 306.75C663.698 306.906 663.62 307.042 663.516 307.156C663.422 307.281 663.302 307.38 663.156 307.453C663.01 307.536 662.854 307.578 662.688 307.578C662.51 307.578 662.333 307.547 662.156 307.484C661.99 307.422 661.839 307.328 661.703 307.203C661.578 307.089 661.474 306.943 661.391 306.766C661.307 306.589 661.266 306.391 661.266 306.172C661.266 305.911 661.339 305.677 661.484 305.469C661.641 305.25 661.833 305.109 662.062 305.047ZM662.438 305.859H662.281C662.229 305.911 662.188 305.979 662.156 306.062C662.135 306.146 662.125 306.224 662.125 306.297C662.125 306.443 662.177 306.547 662.281 306.609C662.396 306.672 662.51 306.703 662.625 306.703C662.76 306.703 662.865 306.661 662.938 306.578C663.021 306.505 663.062 306.411 663.062 306.297C663.062 306.161 663.026 306.052 662.953 305.969C662.88 305.875 662.75 305.828 662.562 305.828C662.5 305.828 662.458 305.839 662.438 305.859Z" fill="#7490FF"/>
<path d="M653.062 316.812L651.375 317.375L649.125 324.688V326.375V327.5L648.795 328.159C649.005 327.604 649.125 327.004 649.125 326.375C649.125 326.228 649.115 326.082 649.103 325.938C649.09 325.802 649.072 325.668 649.05 325.535C648.649 323.14 646.572 321.312 644.062 321.312C641.266 321.312 639 323.579 639 326.375C639 327.261 639.229 328.093 639.628 328.817C639.721 328.984 639.824 329.145 639.935 329.3C639.941 329.308 639.947 329.315 639.952 329.322C640.059 329.472 640.174 329.614 640.297 329.75C640.351 329.81 640.41 329.864 640.466 329.92C640.531 329.985 640.591 330.053 640.659 330.114C640.592 330.053 640.531 329.985 640.466 329.92L640.219 329.797L640.297 329.75L638.349 330.923L638.525 330.816L636.75 332L635.799 333.426C635.797 333.433 635.793 333.439 635.791 333.446C635.686 333.773 635.625 334.117 635.625 334.47V341C635.625 341.932 636.38 342.688 637.312 342.688H639V348.312V348.875H651.938V329.75L655.312 319.062L654.75 317.375L653.062 316.812ZM648.327 329.095L648 329.75L647.503 330.081C647.818 329.789 648.095 329.459 648.327 329.095ZM642.856 331.287C642.732 331.256 642.608 331.224 642.488 331.184C642.608 331.224 642.732 331.256 642.856 331.287ZM644.062 331.438C643.881 331.438 643.701 331.427 643.524 331.408C643.701 331.427 643.881 331.438 644.062 331.438ZM644.39 331.421C644.531 331.412 644.67 331.397 644.808 331.377L644.625 331.438L644.39 331.421ZM643.381 331.386C643.252 331.369 643.124 331.35 642.999 331.323C643.124 331.35 643.252 331.369 643.381 331.386ZM640.669 330.124C640.79 330.234 640.918 330.338 641.049 330.436C640.918 330.338 640.79 330.234 640.669 330.124ZM641.523 330.75C641.647 330.823 641.775 330.889 641.906 330.95C641.776 330.888 641.648 330.823 641.523 330.75ZM641.994 330.993C642.116 331.048 642.242 331.095 642.368 331.141C642.242 331.095 642.116 331.048 641.994 330.993ZM649.125 342.125H645.312C645.379 342.05 645.44 341.971 645.493 341.885C645.494 341.884 645.495 341.883 645.495 341.881C645.546 341.798 645.592 341.711 645.629 341.619C645.639 341.594 645.644 341.567 645.653 341.542C645.677 341.47 645.703 341.399 645.717 341.324C645.738 341.219 645.75 341.111 645.75 341C645.75 340.068 644.995 339.312 644.062 339.312H642.375V336.5C642.375 337.122 642.878 337.625 643.5 337.625H649.125V342.125Z" fill="#F9F5EF"/>
<path d="M642.375 336.5V339.312H644.062C644.995 339.312 645.75 340.068 645.75 341C645.75 341.111 645.738 341.219 645.717 341.324C645.703 341.399 645.677 341.47 645.653 341.542C645.644 341.567 645.639 341.594 645.629 341.619C645.592 341.711 645.547 341.798 645.495 341.881C645.495 341.883 645.494 341.884 645.493 341.885C645.44 341.971 645.379 342.05 645.312 342.125H649.125V337.625H643.5C642.878 337.625 642.375 337.122 642.375 336.5Z" fill="#06AAE9"/>
<path d="M627.188 317.938C625.945 317.938 624.938 316.93 624.938 315.688C624.938 316.93 623.93 317.938 622.688 317.938C623.93 317.938 624.938 318.945 624.938 320.188C624.938 318.945 625.945 317.938 627.188 317.938Z" fill="#F8CF26"/>
<path d="M633.938 324.125C632.695 324.125 631.688 323.118 631.688 321.875C631.688 323.118 630.68 324.125 629.438 324.125C630.68 324.125 631.688 325.132 631.688 326.375C631.688 325.132 632.695 324.125 633.938 324.125Z" fill="#F8CF26"/>
<path d="M637.312 342.687C636.38 342.687 635.625 341.932 635.625 341V334.47C635.625 334.116 635.686 333.773 635.791 333.445C635.793 333.439 635.797 333.432 635.799 333.426C636.047 332.665 636.554 332.003 637.26 331.578L638.349 330.923L640.297 329.75C640.175 329.614 640.059 329.471 639.952 329.322C639.946 329.315 639.94 329.308 639.935 329.3C639.823 329.145 639.721 328.984 639.628 328.817C635.229 328.556 630.849 330.217 627.718 333.513L622.688 337.625L626.93 342.302C628.922 345.289 632.109 347.32 635.625 347.75L639 348.312V342.687H637.312Z" fill="#F4462D"/>
<path d="M638.348 330.923L637.259 331.579L638.348 330.923Z" fill="#F9F5EF"/>
<path d="M627.188 317.375C626.257 317.375 625.5 316.618 625.5 315.688C625.5 315.376 625.248 315.125 624.938 315.125C624.627 315.125 624.375 315.376 624.375 315.688C624.375 316.618 623.618 317.375 622.688 317.375C622.377 317.375 622.125 317.626 622.125 317.938C622.125 318.249 622.377 318.5 622.688 318.5C623.618 318.5 624.375 319.257 624.375 320.188C624.375 320.499 624.627 320.75 624.938 320.75C625.248 320.75 625.5 320.499 625.5 320.188C625.5 319.257 626.257 318.5 627.188 318.5C627.498 318.5 627.75 318.249 627.75 317.938C627.75 317.626 627.498 317.375 627.188 317.375ZM624.938 318.502C624.777 318.288 624.587 318.098 624.373 317.938C624.587 317.777 624.777 317.587 624.938 317.373C625.098 317.587 625.289 317.777 625.502 317.938C625.289 318.098 625.098 318.288 624.938 318.502Z" fill="black"/>
<path d="M629.438 323.562C629.127 323.562 628.875 323.814 628.875 324.125C628.875 324.436 629.127 324.688 629.438 324.688C630.368 324.688 631.125 325.445 631.125 326.375C631.125 326.686 631.377 326.938 631.688 326.938C631.998 326.938 632.25 326.686 632.25 326.375C632.25 325.445 633.007 324.688 633.938 324.688C634.248 324.688 634.5 324.436 634.5 324.125C634.5 323.814 634.248 323.562 633.938 323.562C633.007 323.562 632.25 322.805 632.25 321.875C632.25 321.564 631.998 321.312 631.688 321.312C631.377 321.312 631.125 321.564 631.125 321.875C631.125 322.805 630.368 323.562 629.438 323.562ZM631.688 323.561C631.848 323.775 632.039 323.965 632.252 324.125C632.039 324.285 631.848 324.475 631.688 324.689C631.527 324.475 631.336 324.285 631.123 324.125C631.336 323.965 631.527 323.775 631.688 323.561Z" fill="black"/>
<path d="M632.25 315.688H631.125V316.812H632.25V315.688Z" fill="black"/>
<path d="M638.438 319.062H637.312V320.188H638.438V319.062Z" fill="black"/>
<path d="M624.375 328.625H623.25V329.75H624.375V328.625Z" fill="black"/>
<path d="M626.062 323H624.938V324.125H626.062V323Z" fill="black"/>
<path d="M647.438 315.688H646.312V316.812H647.438V315.688Z" fill="black"/>
<path d="M622.331 337.19C622.212 337.288 622.138 337.43 622.127 337.583C622.115 337.737 622.167 337.889 622.271 338.003L626.486 342.65C628.601 345.801 631.905 347.863 635.532 348.305L638.907 348.868C638.938 348.872 638.969 348.875 639 348.875C639.132 348.875 639.261 348.828 639.363 348.742C639.49 348.635 639.562 348.478 639.562 348.313V343.25H644.062C644.628 343.25 645.139 343.034 645.535 342.688H649.125C649.435 342.688 649.687 342.436 649.687 342.125V337.625V335.375C649.687 335.064 649.435 334.813 649.125 334.813H643.5C642.57 334.813 641.812 335.57 641.812 336.5V338.75H640.125V336.5H639V339.313C639 339.624 639.252 339.875 639.562 339.875H642.375H644.062C644.683 339.875 645.187 340.38 645.187 341C645.187 341.072 645.179 341.141 645.166 341.209C645.155 341.265 645.138 341.32 645.118 341.374C645.115 341.383 645.113 341.392 645.11 341.401C645.06 341.526 644.987 341.644 644.894 341.749C644.891 341.752 644.889 341.757 644.887 341.76C644.681 341.983 644.389 342.125 644.062 342.125H639H637.312C636.692 342.125 636.187 341.621 636.187 341V334.471C636.187 333.49 636.709 332.567 637.549 332.061L640.205 330.462C640.225 330.48 640.245 330.495 640.264 330.512C640.37 330.609 640.477 330.703 640.59 330.791C640.615 330.812 640.642 330.83 640.668 330.85C640.785 330.939 640.905 331.025 641.028 331.105C641.051 331.119 641.074 331.132 641.096 331.146C641.225 331.227 641.356 331.303 641.491 331.373C641.512 331.383 641.532 331.392 641.553 331.402C641.69 331.471 641.83 331.536 641.974 331.594C641.996 331.603 642.019 331.61 642.041 331.619C642.183 331.673 642.326 331.724 642.473 331.768C642.506 331.778 642.54 331.785 642.574 331.794C642.71 331.831 642.846 331.867 642.985 331.894C643.051 331.907 643.117 331.914 643.184 331.925C643.294 331.942 643.402 331.962 643.514 331.973C643.696 331.991 643.879 332 644.062 332C647.164 332 649.687 329.477 649.687 326.375C649.687 326.225 649.678 326.07 649.664 325.912C649.655 325.799 649.64 325.688 649.624 325.577C649.622 325.562 649.621 325.549 649.619 325.535C649.657 325.288 649.678 325.052 649.684 324.816L651.842 317.861C652.609 317.303 653.426 317.221 654.052 317.646C654.634 318.043 654.886 318.76 654.677 319.432L651.4 329.991C651.383 330.045 651.375 330.101 651.375 330.158V348.875H652.5V330.243L655.752 319.765C656.108 318.619 655.679 317.394 654.685 316.717C653.844 316.143 652.436 315.938 651.004 317.087C650.92 317.156 650.852 317.259 650.82 317.362L648.906 323.529C647.926 321.869 646.125 320.75 644.062 320.75C640.961 320.75 638.437 323.273 638.437 326.375C638.437 327.025 638.554 327.647 638.758 328.229C634.45 328.22 630.327 329.965 627.336 333.1L622.331 337.19ZM643.5 335.938H648.562V337.063H643.5C643.19 337.063 642.937 336.811 642.937 336.5C642.937 336.19 643.19 335.938 643.5 335.938ZM644.062 338.75H642.937V338.091C642.986 338.108 643.038 338.118 643.088 338.131C643.12 338.139 643.15 338.149 643.183 338.156C643.286 338.175 643.391 338.188 643.5 338.188H648.562V341.563H646.24C646.245 341.542 646.247 341.522 646.252 341.501C646.26 341.466 646.266 341.43 646.273 341.395C646.296 341.265 646.312 341.133 646.312 341C646.312 339.759 645.303 338.75 644.062 338.75ZM644.062 321.875C646.288 321.875 648.136 323.5 648.494 325.625C648.494 325.626 648.494 325.626 648.494 325.628C648.516 325.758 648.532 325.881 648.543 326C648.553 326.124 648.562 326.249 648.562 326.375C648.562 328.856 646.544 330.875 644.062 330.875C643.904 330.875 643.746 330.867 643.59 330.85C643.585 330.849 643.58 330.848 643.575 330.848C642.955 330.779 642.358 330.581 641.821 330.271C641.815 330.268 641.809 330.264 641.803 330.26C641.677 330.186 641.554 330.106 641.435 330.02C641.423 330.011 641.411 330.002 641.399 329.993C641.287 329.91 641.179 329.823 641.074 329.729C641.059 329.716 641.045 329.703 641.031 329.69C640.93 329.598 640.832 329.5 640.739 329.397C640.73 329.388 640.721 329.378 640.713 329.368C640.609 329.252 640.514 329.133 640.425 329.012C640.41 328.992 640.394 328.973 640.38 328.952C640.301 328.841 640.23 328.726 640.164 328.61C639.783 327.952 639.562 327.19 639.562 326.375C639.562 323.894 641.581 321.875 644.062 321.875ZM628.126 333.901C631.031 330.842 635.095 329.195 639.299 329.364C639.321 329.4 639.346 329.435 639.37 329.471C639.389 329.5 639.408 329.528 639.429 329.557C639.438 329.571 639.447 329.585 639.457 329.599L636.969 331.097C636.252 331.528 635.704 332.178 635.383 332.93C633.862 333.127 632.481 333.865 631.48 335.034L629.573 337.259L630.427 337.991L632.335 335.765C633.055 334.925 634.017 334.356 635.086 334.121C635.075 334.237 635.062 334.353 635.062 334.471V341C635.062 342.241 636.072 343.25 637.312 343.25H638.437V347.648L635.693 347.192C632.353 346.783 629.33 344.888 627.398 341.99C627.383 341.967 627.366 341.945 627.347 341.924L623.502 337.686L628.075 333.949C628.093 333.934 628.111 333.918 628.126 333.901Z" fill="black"/>
<path d="M240.578 114.812H235.414L234.242 118H233.234L237.539 106.625H238.453L242.758 118H241.758L240.578 114.812ZM235.711 113.992H240.273L237.992 107.797L235.711 113.992ZM246.461 116.711L249.031 109.547H249.992L246.836 118H246.078L242.906 109.547H243.867L246.461 116.711ZM254.695 118.156C253.977 118.156 253.326 117.979 252.742 117.625C252.164 117.271 251.714 116.779 251.391 116.148C251.068 115.513 250.906 114.802 250.906 114.016V113.68C250.906 112.867 251.062 112.135 251.375 111.484C251.693 110.833 252.133 110.323 252.695 109.953C253.258 109.578 253.867 109.391 254.523 109.391C255.549 109.391 256.362 109.742 256.961 110.445C257.565 111.143 257.867 112.099 257.867 113.312V113.836H251.836V114.016C251.836 114.974 252.109 115.773 252.656 116.414C253.208 117.049 253.901 117.367 254.734 117.367C255.234 117.367 255.674 117.276 256.055 117.094C256.44 116.911 256.789 116.62 257.102 116.219L257.688 116.664C257 117.659 256.003 118.156 254.695 118.156ZM254.523 110.188C253.82 110.188 253.227 110.445 252.742 110.961C252.263 111.477 251.971 112.169 251.867 113.039H256.938V112.938C256.911 112.125 256.68 111.464 256.242 110.953C255.805 110.443 255.232 110.188 254.523 110.188ZM263.594 110.344C263.396 110.307 263.185 110.289 262.961 110.289C262.378 110.289 261.883 110.453 261.477 110.781C261.076 111.104 260.789 111.576 260.617 112.195V118H259.688V109.547H260.602L260.617 110.891C261.112 109.891 261.906 109.391 263 109.391C263.26 109.391 263.466 109.424 263.617 109.492L263.594 110.344ZM270.102 118C270.008 117.734 269.948 117.341 269.922 116.82C269.594 117.247 269.174 117.578 268.664 117.812C268.159 118.042 267.622 118.156 267.055 118.156C266.242 118.156 265.583 117.93 265.078 117.477C264.578 117.023 264.328 116.451 264.328 115.758C264.328 114.935 264.669 114.284 265.352 113.805C266.039 113.326 266.995 113.086 268.219 113.086H269.914V112.125C269.914 111.521 269.727 111.047 269.352 110.703C268.982 110.354 268.44 110.18 267.727 110.18C267.076 110.18 266.536 110.346 266.109 110.68C265.682 111.013 265.469 111.414 265.469 111.883L264.531 111.875C264.531 111.203 264.844 110.622 265.469 110.133C266.094 109.638 266.862 109.391 267.773 109.391C268.716 109.391 269.458 109.628 270 110.102C270.547 110.57 270.828 111.227 270.844 112.07V116.07C270.844 116.888 270.93 117.5 271.102 117.906V118H270.102ZM267.164 117.328C267.789 117.328 268.346 117.177 268.836 116.875C269.331 116.573 269.69 116.169 269.914 115.664V113.805H268.242C267.31 113.815 266.581 113.987 266.055 114.32C265.529 114.648 265.266 115.102 265.266 115.68C265.266 116.154 265.44 116.547 265.789 116.859C266.143 117.172 266.602 117.328 267.164 117.328ZM272.969 113.695C272.969 112.372 273.26 111.326 273.844 110.555C274.432 109.779 275.229 109.391 276.234 109.391C277.385 109.391 278.26 109.849 278.859 110.766L278.906 109.547H279.781V117.828C279.781 118.917 279.477 119.779 278.867 120.414C278.258 121.049 277.432 121.367 276.391 121.367C275.802 121.367 275.24 121.234 274.703 120.969C274.172 120.708 273.753 120.359 273.445 119.922L273.969 119.359C274.63 120.172 275.417 120.578 276.328 120.578C277.109 120.578 277.719 120.346 278.156 119.883C278.594 119.424 278.82 118.786 278.836 117.969V116.906C278.237 117.74 277.365 118.156 276.219 118.156C275.24 118.156 274.453 117.766 273.859 116.984C273.266 116.203 272.969 115.148 272.969 113.82V113.695ZM273.914 113.859C273.914 114.938 274.13 115.789 274.562 116.414C274.995 117.034 275.604 117.344 276.391 117.344C277.542 117.344 278.357 116.828 278.836 115.797V111.867C278.617 111.326 278.302 110.914 277.891 110.633C277.479 110.346 276.984 110.203 276.406 110.203C275.62 110.203 275.008 110.513 274.57 111.133C274.133 111.747 273.914 112.656 273.914 113.859ZM285.492 118.156C284.773 118.156 284.122 117.979 283.539 117.625C282.961 117.271 282.51 116.779 282.188 116.148C281.865 115.513 281.703 114.802 281.703 114.016V113.68C281.703 112.867 281.859 112.135 282.172 111.484C282.49 110.833 282.93 110.323 283.492 109.953C284.055 109.578 284.664 109.391 285.32 109.391C286.346 109.391 287.159 109.742 287.758 110.445C288.362 111.143 288.664 112.099 288.664 113.312V113.836H282.633V114.016C282.633 114.974 282.906 115.773 283.453 116.414C284.005 117.049 284.698 117.367 285.531 117.367C286.031 117.367 286.471 117.276 286.852 117.094C287.237 116.911 287.586 116.62 287.898 116.219L288.484 116.664C287.797 117.659 286.799 118.156 285.492 118.156ZM285.32 110.188C284.617 110.188 284.023 110.445 283.539 110.961C283.06 111.477 282.768 112.169 282.664 113.039H287.734V112.938C287.708 112.125 287.477 111.464 287.039 110.953C286.602 110.443 286.029 110.188 285.32 110.188ZM302 107.445H298.102V118H297.141V107.445H293.25V106.625H302V107.445ZM304.672 118H303.734V109.547H304.672V118ZM303.57 107.102C303.57 106.924 303.628 106.776 303.742 106.656C303.857 106.531 304.013 106.469 304.211 106.469C304.409 106.469 304.565 106.531 304.68 106.656C304.799 106.776 304.859 106.924 304.859 107.102C304.859 107.279 304.799 107.427 304.68 107.547C304.565 107.667 304.409 107.727 304.211 107.727C304.013 107.727 303.857 107.667 303.742 107.547C303.628 107.427 303.57 107.279 303.57 107.102ZM308.07 109.547L308.102 110.922C308.414 110.411 308.805 110.029 309.273 109.773C309.742 109.518 310.263 109.391 310.836 109.391C312.169 109.391 313.016 109.938 313.375 111.031C313.677 110.505 314.081 110.102 314.586 109.82C315.091 109.534 315.648 109.391 316.258 109.391C318.07 109.391 318.995 110.38 319.031 112.359V118H318.094V112.43C318.089 111.674 317.924 111.115 317.602 110.75C317.284 110.385 316.763 110.203 316.039 110.203C315.367 110.214 314.799 110.432 314.336 110.859C313.872 111.281 313.615 111.797 313.562 112.406V118H312.625V112.359C312.62 111.635 312.448 111.096 312.109 110.742C311.776 110.383 311.26 110.203 310.562 110.203C309.974 110.203 309.469 110.372 309.047 110.711C308.625 111.044 308.312 111.542 308.109 112.203V118H307.172V109.547H308.07ZM324.68 118.156C323.961 118.156 323.31 117.979 322.727 117.625C322.148 117.271 321.698 116.779 321.375 116.148C321.052 115.513 320.891 114.802 320.891 114.016V113.68C320.891 112.867 321.047 112.135 321.359 111.484C321.677 110.833 322.117 110.323 322.68 109.953C323.242 109.578 323.852 109.391 324.508 109.391C325.534 109.391 326.346 109.742 326.945 110.445C327.549 111.143 327.852 112.099 327.852 113.312V113.836H321.82V114.016C321.82 114.974 322.094 115.773 322.641 116.414C323.193 117.049 323.885 117.367 324.719 117.367C325.219 117.367 325.659 117.276 326.039 117.094C326.424 116.911 326.773 116.62 327.086 116.219L327.672 116.664C326.984 117.659 325.987 118.156 324.68 118.156ZM324.508 110.188C323.805 110.188 323.211 110.445 322.727 110.961C322.247 111.477 321.956 112.169 321.852 113.039H326.922V112.938C326.896 112.125 326.664 111.464 326.227 110.953C325.789 110.443 325.216 110.188 324.508 110.188ZM341.617 106.625V114.391C341.612 115.156 341.443 115.823 341.109 116.391C340.776 116.958 340.305 117.396 339.695 117.703C339.091 118.005 338.396 118.156 337.609 118.156C336.411 118.156 335.451 117.831 334.727 117.18C334.008 116.523 333.635 115.617 333.609 114.461V106.625H334.562V114.32C334.562 115.279 334.836 116.023 335.383 116.555C335.93 117.081 336.672 117.344 337.609 117.344C338.547 117.344 339.286 117.078 339.828 116.547C340.375 116.016 340.648 115.276 340.648 114.328V106.625H341.617ZM349.141 115.852C349.141 115.388 348.953 115.016 348.578 114.734C348.208 114.453 347.648 114.234 346.898 114.078C346.148 113.917 345.565 113.734 345.148 113.531C344.737 113.323 344.43 113.07 344.227 112.773C344.029 112.477 343.93 112.117 343.93 111.695C343.93 111.029 344.208 110.479 344.766 110.047C345.323 109.609 346.036 109.391 346.906 109.391C347.849 109.391 348.604 109.625 349.172 110.094C349.745 110.557 350.031 111.164 350.031 111.914H349.094C349.094 111.419 348.885 111.008 348.469 110.68C348.057 110.352 347.536 110.188 346.906 110.188C346.292 110.188 345.797 110.326 345.422 110.602C345.052 110.872 344.867 111.227 344.867 111.664C344.867 112.086 345.021 112.414 345.328 112.648C345.641 112.878 346.206 113.089 347.023 113.281C347.846 113.474 348.461 113.68 348.867 113.898C349.279 114.117 349.583 114.38 349.781 114.688C349.979 114.995 350.078 115.367 350.078 115.805C350.078 116.518 349.789 117.089 349.211 117.516C348.638 117.943 347.888 118.156 346.961 118.156C345.977 118.156 345.177 117.919 344.562 117.445C343.953 116.966 343.648 116.362 343.648 115.633H344.586C344.622 116.18 344.852 116.607 345.273 116.914C345.701 117.216 346.263 117.367 346.961 117.367C347.612 117.367 348.138 117.224 348.539 116.938C348.94 116.651 349.141 116.289 349.141 115.852ZM355.461 118.156C354.742 118.156 354.091 117.979 353.508 117.625C352.93 117.271 352.479 116.779 352.156 116.148C351.833 115.513 351.672 114.802 351.672 114.016V113.68C351.672 112.867 351.828 112.135 352.141 111.484C352.458 110.833 352.898 110.323 353.461 109.953C354.023 109.578 354.633 109.391 355.289 109.391C356.315 109.391 357.128 109.742 357.727 110.445C358.331 111.143 358.633 112.099 358.633 113.312V113.836H352.602V114.016C352.602 114.974 352.875 115.773 353.422 116.414C353.974 117.049 354.667 117.367 355.5 117.367C356 117.367 356.44 117.276 356.82 117.094C357.206 116.911 357.555 116.62 357.867 116.219L358.453 116.664C357.766 117.659 356.768 118.156 355.461 118.156ZM355.289 110.188C354.586 110.188 353.992 110.445 353.508 110.961C353.029 111.477 352.737 112.169 352.633 113.039H357.703V112.938C357.677 112.125 357.445 111.464 357.008 110.953C356.57 110.443 355.997 110.188 355.289 110.188ZM364.359 110.344C364.161 110.307 363.951 110.289 363.727 110.289C363.143 110.289 362.648 110.453 362.242 110.781C361.841 111.104 361.555 111.576 361.383 112.195V118H360.453V109.547H361.367L361.383 110.891C361.878 109.891 362.672 109.391 363.766 109.391C364.026 109.391 364.232 109.424 364.383 109.492L364.359 110.344ZM370.906 115.852C370.906 115.388 370.719 115.016 370.344 114.734C369.974 114.453 369.414 114.234 368.664 114.078C367.914 113.917 367.331 113.734 366.914 113.531C366.503 113.323 366.195 113.07 365.992 112.773C365.794 112.477 365.695 112.117 365.695 111.695C365.695 111.029 365.974 110.479 366.531 110.047C367.089 109.609 367.802 109.391 368.672 109.391C369.615 109.391 370.37 109.625 370.938 110.094C371.51 110.557 371.797 111.164 371.797 111.914H370.859C370.859 111.419 370.651 111.008 370.234 110.68C369.823 110.352 369.302 110.188 368.672 110.188C368.057 110.188 367.562 110.326 367.188 110.602C366.818 110.872 366.633 111.227 366.633 111.664C366.633 112.086 366.786 112.414 367.094 112.648C367.406 112.878 367.971 113.089 368.789 113.281C369.612 113.474 370.227 113.68 370.633 113.898C371.044 114.117 371.349 114.38 371.547 114.688C371.745 114.995 371.844 115.367 371.844 115.805C371.844 116.518 371.555 117.089 370.977 117.516C370.404 117.943 369.654 118.156 368.727 118.156C367.742 118.156 366.943 117.919 366.328 117.445C365.719 116.966 365.414 116.362 365.414 115.633H366.352C366.388 116.18 366.617 116.607 367.039 116.914C367.466 117.216 368.029 117.367 368.727 117.367C369.378 117.367 369.904 117.224 370.305 116.938C370.706 116.651 370.906 116.289 370.906 115.852ZM384.5 115.203C384.5 114.573 384.279 114.076 383.836 113.711C383.393 113.341 382.583 112.992 381.406 112.664C380.229 112.331 379.37 111.969 378.828 111.578C378.057 111.026 377.672 110.302 377.672 109.406C377.672 108.536 378.029 107.831 378.742 107.289C379.461 106.742 380.378 106.469 381.492 106.469C382.247 106.469 382.922 106.615 383.516 106.906C384.115 107.198 384.578 107.604 384.906 108.125C385.234 108.646 385.398 109.227 385.398 109.867H384.43C384.43 109.091 384.164 108.469 383.633 108C383.102 107.526 382.388 107.289 381.492 107.289C380.622 107.289 379.93 107.484 379.414 107.875C378.898 108.26 378.641 108.766 378.641 109.391C378.641 109.969 378.872 110.44 379.336 110.805C379.799 111.169 380.542 111.492 381.562 111.773C382.583 112.049 383.357 112.339 383.883 112.641C384.409 112.938 384.805 113.294 385.07 113.711C385.336 114.128 385.469 114.62 385.469 115.188C385.469 116.083 385.109 116.802 384.391 117.344C383.677 117.885 382.734 118.156 381.562 118.156C380.76 118.156 380.023 118.013 379.352 117.727C378.685 117.44 378.177 117.039 377.828 116.523C377.484 116.008 377.312 115.417 377.312 114.75H378.273C378.273 115.552 378.573 116.185 379.172 116.648C379.771 117.112 380.568 117.344 381.562 117.344C382.448 117.344 383.159 117.148 383.695 116.758C384.232 116.367 384.5 115.849 384.5 115.203ZM394.125 113.859C394.125 115.177 393.833 116.224 393.25 117C392.667 117.771 391.885 118.156 390.906 118.156C389.75 118.156 388.865 117.75 388.25 116.938V121.25H387.32V109.547H388.188L388.234 110.742C388.844 109.841 389.727 109.391 390.883 109.391C391.893 109.391 392.685 109.773 393.258 110.539C393.836 111.305 394.125 112.367 394.125 113.727V113.859ZM393.188 113.695C393.188 112.617 392.966 111.766 392.523 111.141C392.081 110.516 391.464 110.203 390.672 110.203C390.099 110.203 389.607 110.341 389.195 110.617C388.784 110.893 388.469 111.294 388.25 111.82V115.875C388.474 116.359 388.794 116.729 389.211 116.984C389.628 117.24 390.12 117.367 390.688 117.367C391.474 117.367 392.086 117.055 392.523 116.43C392.966 115.799 393.188 114.888 393.188 113.695ZM399.477 118.156C398.758 118.156 398.107 117.979 397.523 117.625C396.945 117.271 396.495 116.779 396.172 116.148C395.849 115.513 395.688 114.802 395.688 114.016V113.68C395.688 112.867 395.844 112.135 396.156 111.484C396.474 110.833 396.914 110.323 397.477 109.953C398.039 109.578 398.648 109.391 399.305 109.391C400.331 109.391 401.143 109.742 401.742 110.445C402.346 111.143 402.648 112.099 402.648 113.312V113.836H396.617V114.016C396.617 114.974 396.891 115.773 397.438 116.414C397.99 117.049 398.682 117.367 399.516 117.367C400.016 117.367 400.456 117.276 400.836 117.094C401.221 116.911 401.57 116.62 401.883 116.219L402.469 116.664C401.781 117.659 400.784 118.156 399.477 118.156ZM399.305 110.188C398.602 110.188 398.008 110.445 397.523 110.961C397.044 111.477 396.753 112.169 396.648 113.039H401.719V112.938C401.693 112.125 401.461 111.464 401.023 110.953C400.586 110.443 400.013 110.188 399.305 110.188ZM405.359 109.547L405.391 110.992C405.708 110.471 406.104 110.076 406.578 109.805C407.052 109.529 407.576 109.391 408.148 109.391C409.055 109.391 409.729 109.646 410.172 110.156C410.615 110.667 410.839 111.432 410.844 112.453V118H409.914V112.445C409.909 111.69 409.747 111.128 409.43 110.758C409.117 110.388 408.615 110.203 407.922 110.203C407.344 110.203 406.831 110.385 406.383 110.75C405.94 111.109 405.612 111.596 405.398 112.211V118H404.469V109.547H405.359ZM412.891 113.695C412.891 112.383 413.182 111.339 413.766 110.562C414.354 109.781 415.151 109.391 416.156 109.391C417.297 109.391 418.167 109.841 418.766 110.742V106H419.695V118H418.82L418.781 116.875C418.182 117.729 417.302 118.156 416.141 118.156C415.167 118.156 414.38 117.766 413.781 116.984C413.188 116.198 412.891 115.138 412.891 113.805V113.695ZM413.836 113.859C413.836 114.938 414.052 115.789 414.484 116.414C414.917 117.034 415.526 117.344 416.312 117.344C417.464 117.344 418.281 116.836 418.766 115.82V111.852C418.281 110.753 417.469 110.203 416.328 110.203C415.542 110.203 414.93 110.513 414.492 111.133C414.055 111.747 413.836 112.656 413.836 113.859ZM242.156 131.445H238.258V142H237.297V131.445H233.406V130.625H242.156V131.445ZM242.484 137.648C242.484 136.836 242.641 136.104 242.953 135.453C243.271 134.802 243.716 134.297 244.289 133.938C244.867 133.573 245.521 133.391 246.25 133.391C247.375 133.391 248.286 133.786 248.984 134.578C249.682 135.365 250.031 136.409 250.031 137.711V137.906C250.031 138.724 249.872 139.461 249.555 140.117C249.242 140.768 248.799 141.271 248.227 141.625C247.654 141.979 247 142.156 246.266 142.156C245.146 142.156 244.234 141.763 243.531 140.977C242.833 140.185 242.484 139.138 242.484 137.836V137.648ZM243.422 137.906C243.422 138.917 243.682 139.747 244.203 140.398C244.729 141.044 245.417 141.367 246.266 141.367C247.109 141.367 247.792 141.044 248.312 140.398C248.839 139.747 249.102 138.891 249.102 137.828V137.648C249.102 137.003 248.982 136.411 248.742 135.875C248.503 135.339 248.167 134.924 247.734 134.633C247.302 134.336 246.807 134.188 246.25 134.188C245.417 134.188 244.737 134.516 244.211 135.172C243.685 135.823 243.422 136.677 243.422 137.734V137.906ZM262.344 136.688H257.039V142H256.078V130.625H263.125V131.445H257.039V135.867H262.344V136.688ZM265.906 142H264.969V133.547H265.906V142ZM264.805 131.102C264.805 130.924 264.862 130.776 264.977 130.656C265.091 130.531 265.247 130.469 265.445 130.469C265.643 130.469 265.799 130.531 265.914 130.656C266.034 130.776 266.094 130.924 266.094 131.102C266.094 131.279 266.034 131.427 265.914 131.547C265.799 131.667 265.643 131.727 265.445 131.727C265.247 131.727 265.091 131.667 264.977 131.547C264.862 131.427 264.805 131.279 264.805 131.102ZM269.344 133.547L269.375 134.992C269.693 134.471 270.089 134.076 270.562 133.805C271.036 133.529 271.56 133.391 272.133 133.391C273.039 133.391 273.714 133.646 274.156 134.156C274.599 134.667 274.823 135.432 274.828 136.453V142H273.898V136.445C273.893 135.69 273.732 135.128 273.414 134.758C273.102 134.388 272.599 134.203 271.906 134.203C271.328 134.203 270.815 134.385 270.367 134.75C269.924 135.109 269.596 135.596 269.383 136.211V142H268.453V133.547H269.344ZM276.875 137.695C276.875 136.383 277.167 135.339 277.75 134.562C278.339 133.781 279.135 133.391 280.141 133.391C281.281 133.391 282.151 133.841 282.75 134.742V130H283.68V142H282.805L282.766 140.875C282.167 141.729 281.286 142.156 280.125 142.156C279.151 142.156 278.365 141.766 277.766 140.984C277.172 140.198 276.875 139.138 276.875 137.805V137.695ZM277.82 137.859C277.82 138.938 278.036 139.789 278.469 140.414C278.901 141.034 279.51 141.344 280.297 141.344C281.448 141.344 282.266 140.836 282.75 139.82V135.852C282.266 134.753 281.453 134.203 280.312 134.203C279.526 134.203 278.914 134.513 278.477 135.133C278.039 135.747 277.82 136.656 277.82 137.859ZM297.656 131.445H293.758V142H292.797V131.445H288.906V130.625H297.656V131.445ZM300.211 134.977C300.518 134.471 300.911 134.081 301.391 133.805C301.87 133.529 302.393 133.391 302.961 133.391C303.867 133.391 304.542 133.646 304.984 134.156C305.427 134.667 305.651 135.432 305.656 136.453V142H304.727V136.445C304.721 135.69 304.56 135.128 304.242 134.758C303.93 134.388 303.427 134.203 302.734 134.203C302.156 134.203 301.643 134.385 301.195 134.75C300.753 135.109 300.424 135.596 300.211 136.211V142H299.281V130H300.211V134.977ZM311.336 142.156C310.617 142.156 309.966 141.979 309.383 141.625C308.805 141.271 308.354 140.779 308.031 140.148C307.708 139.513 307.547 138.802 307.547 138.016V137.68C307.547 136.867 307.703 136.135 308.016 135.484C308.333 134.833 308.773 134.323 309.336 133.953C309.898 133.578 310.508 133.391 311.164 133.391C312.19 133.391 313.003 133.742 313.602 134.445C314.206 135.143 314.508 136.099 314.508 137.312V137.836H308.477V138.016C308.477 138.974 308.75 139.773 309.297 140.414C309.849 141.049 310.542 141.367 311.375 141.367C311.875 141.367 312.315 141.276 312.695 141.094C313.081 140.911 313.43 140.62 313.742 140.219L314.328 140.664C313.641 141.659 312.643 142.156 311.336 142.156ZM311.164 134.188C310.461 134.188 309.867 134.445 309.383 134.961C308.904 135.477 308.612 136.169 308.508 137.039H313.578V136.938C313.552 136.125 313.32 135.464 312.883 134.953C312.445 134.443 311.872 134.188 311.164 134.188ZM320.438 142V130.625H323.797C325.016 130.625 325.94 130.878 326.57 131.383C327.201 131.883 327.516 132.622 327.516 133.602C327.516 134.19 327.354 134.703 327.031 135.141C326.714 135.573 326.276 135.883 325.719 136.07C326.38 136.216 326.911 136.542 327.312 137.047C327.719 137.552 327.922 138.135 327.922 138.797C327.922 139.802 327.596 140.589 326.945 141.156C326.299 141.719 325.398 142 324.242 142H320.438ZM321.398 136.531V141.188H324.281C325.104 141.188 325.755 140.979 326.234 140.562C326.719 140.141 326.961 139.557 326.961 138.812C326.961 138.109 326.729 137.555 326.266 137.148C325.807 136.737 325.172 136.531 324.359 136.531H321.398ZM321.398 135.727H324.023C324.826 135.711 325.445 135.523 325.883 135.164C326.326 134.799 326.547 134.271 326.547 133.578C326.547 132.849 326.318 132.312 325.859 131.969C325.406 131.62 324.719 131.445 323.797 131.445H321.398V135.727ZM335.469 140.93C334.906 141.747 334.008 142.156 332.773 142.156C331.872 142.156 331.188 141.896 330.719 141.375C330.25 140.849 330.01 140.073 330 139.047V133.547H330.93V138.93C330.93 140.539 331.581 141.344 332.883 141.344C334.237 141.344 335.094 140.784 335.453 139.664V133.547H336.391V142H335.484L335.469 140.93ZM339.875 142H338.938V130H339.875V142ZM344.43 137.742L343.359 138.773V142H342.422V130H343.359V137.68L344.242 136.727L347.477 133.547H348.656L345.07 137.109L348.969 142H347.852L344.43 137.742ZM360.516 138.812H355.352L354.18 142H353.172L357.477 130.625H358.391L362.695 142H361.695L360.516 138.812ZM355.648 137.992H360.211L357.93 131.797L355.648 137.992ZM367.281 141.367C367.932 141.367 368.477 141.185 368.914 140.82C369.357 140.451 369.596 139.974 369.633 139.391H370.531C370.505 139.906 370.344 140.378 370.047 140.805C369.75 141.227 369.354 141.557 368.859 141.797C368.37 142.036 367.844 142.156 367.281 142.156C366.172 142.156 365.292 141.771 364.641 141C363.995 140.229 363.672 139.193 363.672 137.891V137.609C363.672 136.776 363.818 136.039 364.109 135.398C364.401 134.758 364.818 134.263 365.359 133.914C365.906 133.565 366.544 133.391 367.273 133.391C368.201 133.391 368.964 133.667 369.562 134.219C370.167 134.771 370.49 135.497 370.531 136.398H369.633C369.591 135.737 369.352 135.203 368.914 134.797C368.482 134.391 367.935 134.188 367.273 134.188C366.43 134.188 365.773 134.492 365.305 135.102C364.841 135.711 364.609 136.565 364.609 137.664V137.938C364.609 139.016 364.841 139.857 365.305 140.461C365.773 141.065 366.432 141.367 367.281 141.367ZM373.859 131.383V133.547H375.609V134.312H373.859V139.945C373.859 140.414 373.943 140.763 374.109 140.992C374.281 141.221 374.565 141.336 374.961 141.336C375.117 141.336 375.37 141.31 375.719 141.258L375.758 142.023C375.513 142.112 375.18 142.156 374.758 142.156C374.117 142.156 373.651 141.971 373.359 141.602C373.068 141.227 372.922 140.677 372.922 139.953V134.312H371.367V133.547H372.922V131.383H373.859ZM378.594 142H377.656V133.547H378.594V142ZM377.492 131.102C377.492 130.924 377.549 130.776 377.664 130.656C377.779 130.531 377.935 130.469 378.133 130.469C378.331 130.469 378.487 130.531 378.602 130.656C378.721 130.776 378.781 130.924 378.781 131.102C378.781 131.279 378.721 131.427 378.602 131.547C378.487 131.667 378.331 131.727 378.133 131.727C377.935 131.727 377.779 131.667 377.664 131.547C377.549 131.427 377.492 131.279 377.492 131.102ZM380.625 137.648C380.625 136.836 380.781 136.104 381.094 135.453C381.411 134.802 381.857 134.297 382.43 133.938C383.008 133.573 383.661 133.391 384.391 133.391C385.516 133.391 386.427 133.786 387.125 134.578C387.823 135.365 388.172 136.409 388.172 137.711V137.906C388.172 138.724 388.013 139.461 387.695 140.117C387.383 140.768 386.94 141.271 386.367 141.625C385.794 141.979 385.141 142.156 384.406 142.156C383.286 142.156 382.375 141.763 381.672 140.977C380.974 140.185 380.625 139.138 380.625 137.836V137.648ZM381.562 137.906C381.562 138.917 381.823 139.747 382.344 140.398C382.87 141.044 383.557 141.367 384.406 141.367C385.25 141.367 385.932 141.044 386.453 140.398C386.979 139.747 387.242 138.891 387.242 137.828V137.648C387.242 137.003 387.122 136.411 386.883 135.875C386.643 135.339 386.307 134.924 385.875 134.633C385.443 134.336 384.948 134.188 384.391 134.188C383.557 134.188 382.878 134.516 382.352 135.172C381.826 135.823 381.562 136.677 381.562 137.734V137.906ZM391 133.547L391.031 134.992C391.349 134.471 391.745 134.076 392.219 133.805C392.693 133.529 393.216 133.391 393.789 133.391C394.695 133.391 395.37 133.646 395.812 134.156C396.255 134.667 396.479 135.432 396.484 136.453V142H395.555V136.445C395.549 135.69 395.388 135.128 395.07 134.758C394.758 134.388 394.255 134.203 393.562 134.203C392.984 134.203 392.471 134.385 392.023 134.75C391.581 135.109 391.253 135.596 391.039 136.211V142H390.109V133.547H391ZM234.438 166V154.625H237.797C239.016 154.625 239.94 154.878 240.57 155.383C241.201 155.883 241.516 156.622 241.516 157.602C241.516 158.19 241.354 158.703 241.031 159.141C240.714 159.573 240.276 159.883 239.719 160.07C240.38 160.216 240.911 160.542 241.312 161.047C241.719 161.552 241.922 162.135 241.922 162.797C241.922 163.802 241.596 164.589 240.945 165.156C240.299 165.719 239.398 166 238.242 166H234.438ZM235.398 160.531V165.188H238.281C239.104 165.188 239.755 164.979 240.234 164.562C240.719 164.141 240.961 163.557 240.961 162.812C240.961 162.109 240.729 161.555 240.266 161.148C239.807 160.737 239.172 160.531 238.359 160.531H235.398ZM235.398 159.727H238.023C238.826 159.711 239.445 159.523 239.883 159.164C240.326 158.799 240.547 158.271 240.547 157.578C240.547 156.849 240.318 156.312 239.859 155.969C239.406 155.62 238.719 155.445 237.797 155.445H235.398V159.727ZM249.469 164.93C248.906 165.747 248.008 166.156 246.773 166.156C245.872 166.156 245.188 165.896 244.719 165.375C244.25 164.849 244.01 164.073 244 163.047V157.547H244.93V162.93C244.93 164.539 245.581 165.344 246.883 165.344C248.237 165.344 249.094 164.784 249.453 163.664V157.547H250.391V166H249.484L249.469 164.93ZM254.281 155.383V157.547H256.031V158.312H254.281V163.945C254.281 164.414 254.365 164.763 254.531 164.992C254.703 165.221 254.987 165.336 255.383 165.336C255.539 165.336 255.792 165.31 256.141 165.258L256.18 166.023C255.935 166.112 255.602 166.156 255.18 166.156C254.539 166.156 254.073 165.971 253.781 165.602C253.49 165.227 253.344 164.677 253.344 163.953V158.312H251.789V157.547H253.344V155.383H254.281ZM259.422 155.383V157.547H261.172V158.312H259.422V163.945C259.422 164.414 259.505 164.763 259.672 164.992C259.844 165.221 260.128 165.336 260.523 165.336C260.68 165.336 260.932 165.31 261.281 165.258L261.32 166.023C261.076 166.112 260.742 166.156 260.32 166.156C259.68 166.156 259.214 165.971 258.922 165.602C258.63 165.227 258.484 164.677 258.484 163.953V158.312H256.93V157.547H258.484V155.383H259.422ZM262.438 161.648C262.438 160.836 262.594 160.104 262.906 159.453C263.224 158.802 263.669 158.297 264.242 157.938C264.82 157.573 265.474 157.391 266.203 157.391C267.328 157.391 268.24 157.786 268.938 158.578C269.635 159.365 269.984 160.409 269.984 161.711V161.906C269.984 162.724 269.826 163.461 269.508 164.117C269.195 164.768 268.753 165.271 268.18 165.625C267.607 165.979 266.953 166.156 266.219 166.156C265.099 166.156 264.188 165.763 263.484 164.977C262.786 164.185 262.438 163.138 262.438 161.836V161.648ZM263.375 161.906C263.375 162.917 263.635 163.747 264.156 164.398C264.682 165.044 265.37 165.367 266.219 165.367C267.062 165.367 267.745 165.044 268.266 164.398C268.792 163.747 269.055 162.891 269.055 161.828V161.648C269.055 161.003 268.935 160.411 268.695 159.875C268.456 159.339 268.12 158.924 267.688 158.633C267.255 158.336 266.76 158.188 266.203 158.188C265.37 158.188 264.69 158.516 264.164 159.172C263.638 159.823 263.375 160.677 263.375 161.734V161.906ZM272.812 157.547L272.844 158.992C273.161 158.471 273.557 158.076 274.031 157.805C274.505 157.529 275.029 157.391 275.602 157.391C276.508 157.391 277.182 157.646 277.625 158.156C278.068 158.667 278.292 159.432 278.297 160.453V166H277.367V160.445C277.362 159.69 277.201 159.128 276.883 158.758C276.57 158.388 276.068 158.203 275.375 158.203C274.797 158.203 274.284 158.385 273.836 158.75C273.393 159.109 273.065 159.596 272.852 160.211V166H271.922V157.547H272.812ZM280.586 166.977H279.734L284.484 154.625H285.328L280.586 166.977ZM292.461 154.625L296.656 164.664L300.867 154.625H302.148V166H301.188V161.047L301.266 155.969L297.031 166H296.289L292.07 156.008L292.148 161.016V166H291.188V154.625H292.461ZM308.086 166.156C307.367 166.156 306.716 165.979 306.133 165.625C305.555 165.271 305.104 164.779 304.781 164.148C304.458 163.513 304.297 162.802 304.297 162.016V161.68C304.297 160.867 304.453 160.135 304.766 159.484C305.083 158.833 305.523 158.323 306.086 157.953C306.648 157.578 307.258 157.391 307.914 157.391C308.94 157.391 309.753 157.742 310.352 158.445C310.956 159.143 311.258 160.099 311.258 161.312V161.836H305.227V162.016C305.227 162.974 305.5 163.773 306.047 164.414C306.599 165.049 307.292 165.367 308.125 165.367C308.625 165.367 309.065 165.276 309.445 165.094C309.831 164.911 310.18 164.62 310.492 164.219L311.078 164.664C310.391 165.659 309.393 166.156 308.086 166.156ZM307.914 158.188C307.211 158.188 306.617 158.445 306.133 158.961C305.654 159.477 305.362 160.169 305.258 161.039H310.328V160.938C310.302 160.125 310.07 159.464 309.633 158.953C309.195 158.443 308.622 158.188 307.914 158.188ZM313.969 157.547L314 158.992C314.318 158.471 314.714 158.076 315.188 157.805C315.661 157.529 316.185 157.391 316.758 157.391C317.664 157.391 318.339 157.646 318.781 158.156C319.224 158.667 319.448 159.432 319.453 160.453V166H318.523V160.445C318.518 159.69 318.357 159.128 318.039 158.758C317.727 158.388 317.224 158.203 316.531 158.203C315.953 158.203 315.44 158.385 314.992 158.75C314.549 159.109 314.221 159.596 314.008 160.211V166H313.078V157.547H313.969ZM327.312 164.93C326.75 165.747 325.852 166.156 324.617 166.156C323.716 166.156 323.031 165.896 322.562 165.375C322.094 164.849 321.854 164.073 321.844 163.047V157.547H322.773V162.93C322.773 164.539 323.424 165.344 324.727 165.344C326.081 165.344 326.938 164.784 327.297 163.664V157.547H328.234V166H327.328L327.312 164.93Z" fill="black"/>
<path d="M242.273 203.625V211.391C242.268 212.156 242.099 212.823 241.766 213.391C241.432 213.958 240.961 214.396 240.352 214.703C239.747 215.005 239.052 215.156 238.266 215.156C237.068 215.156 236.107 214.831 235.383 214.18C234.664 213.523 234.292 212.617 234.266 211.461V203.625H235.219V211.32C235.219 212.279 235.492 213.023 236.039 213.555C236.586 214.081 237.328 214.344 238.266 214.344C239.203 214.344 239.943 214.078 240.484 213.547C241.031 213.016 241.305 212.276 241.305 211.328V203.625H242.273ZM249.797 212.852C249.797 212.388 249.609 212.016 249.234 211.734C248.865 211.453 248.305 211.234 247.555 211.078C246.805 210.917 246.221 210.734 245.805 210.531C245.393 210.323 245.086 210.07 244.883 209.773C244.685 209.477 244.586 209.117 244.586 208.695C244.586 208.029 244.865 207.479 245.422 207.047C245.979 206.609 246.693 206.391 247.562 206.391C248.505 206.391 249.26 206.625 249.828 207.094C250.401 207.557 250.688 208.164 250.688 208.914H249.75C249.75 208.419 249.542 208.008 249.125 207.68C248.714 207.352 248.193 207.188 247.562 207.188C246.948 207.188 246.453 207.326 246.078 207.602C245.708 207.872 245.523 208.227 245.523 208.664C245.523 209.086 245.677 209.414 245.984 209.648C246.297 209.878 246.862 210.089 247.68 210.281C248.503 210.474 249.117 210.68 249.523 210.898C249.935 211.117 250.24 211.38 250.438 211.688C250.635 211.995 250.734 212.367 250.734 212.805C250.734 213.518 250.445 214.089 249.867 214.516C249.294 214.943 248.544 215.156 247.617 215.156C246.633 215.156 245.833 214.919 245.219 214.445C244.609 213.966 244.305 213.362 244.305 212.633H245.242C245.279 213.18 245.508 213.607 245.93 213.914C246.357 214.216 246.919 214.367 247.617 214.367C248.268 214.367 248.794 214.224 249.195 213.938C249.596 213.651 249.797 213.289 249.797 212.852ZM256.117 215.156C255.398 215.156 254.747 214.979 254.164 214.625C253.586 214.271 253.135 213.779 252.812 213.148C252.49 212.513 252.328 211.802 252.328 211.016V210.68C252.328 209.867 252.484 209.135 252.797 208.484C253.115 207.833 253.555 207.323 254.117 206.953C254.68 206.578 255.289 206.391 255.945 206.391C256.971 206.391 257.784 206.742 258.383 207.445C258.987 208.143 259.289 209.099 259.289 210.312V210.836H253.258V211.016C253.258 211.974 253.531 212.773 254.078 213.414C254.63 214.049 255.323 214.367 256.156 214.367C256.656 214.367 257.096 214.276 257.477 214.094C257.862 213.911 258.211 213.62 258.523 213.219L259.109 213.664C258.422 214.659 257.424 215.156 256.117 215.156ZM255.945 207.188C255.242 207.188 254.648 207.445 254.164 207.961C253.685 208.477 253.393 209.169 253.289 210.039H258.359V209.938C258.333 209.125 258.102 208.464 257.664 207.953C257.227 207.443 256.654 207.188 255.945 207.188ZM265.016 207.344C264.818 207.307 264.607 207.289 264.383 207.289C263.799 207.289 263.305 207.453 262.898 207.781C262.497 208.104 262.211 208.576 262.039 209.195V215H261.109V206.547H262.023L262.039 207.891C262.534 206.891 263.328 206.391 264.422 206.391C264.682 206.391 264.888 206.424 265.039 206.492L265.016 207.344ZM276.891 209.547H271.57V214.188H277.688V215H270.609V203.625H277.648V204.445H271.57V208.734H276.891V209.547ZM283.406 207.344C283.208 207.307 282.997 207.289 282.773 207.289C282.19 207.289 281.695 207.453 281.289 207.781C280.888 208.104 280.602 208.576 280.43 209.195V215H279.5V206.547H280.414L280.43 207.891C280.924 206.891 281.719 206.391 282.812 206.391C283.073 206.391 283.279 206.424 283.43 206.492L283.406 207.344ZM288.797 207.344C288.599 207.307 288.388 207.289 288.164 207.289C287.581 207.289 287.086 207.453 286.68 207.781C286.279 208.104 285.992 208.576 285.82 209.195V215H284.891V206.547H285.805L285.82 207.891C286.315 206.891 287.109 206.391 288.203 206.391C288.464 206.391 288.669 206.424 288.82 206.492L288.797 207.344ZM289.609 210.648C289.609 209.836 289.766 209.104 290.078 208.453C290.396 207.802 290.841 207.297 291.414 206.938C291.992 206.573 292.646 206.391 293.375 206.391C294.5 206.391 295.411 206.786 296.109 207.578C296.807 208.365 297.156 209.409 297.156 210.711V210.906C297.156 211.724 296.997 212.461 296.68 213.117C296.367 213.768 295.924 214.271 295.352 214.625C294.779 214.979 294.125 215.156 293.391 215.156C292.271 215.156 291.359 214.763 290.656 213.977C289.958 213.185 289.609 212.138 289.609 210.836V210.648ZM290.547 210.906C290.547 211.917 290.807 212.747 291.328 213.398C291.854 214.044 292.542 214.367 293.391 214.367C294.234 214.367 294.917 214.044 295.438 213.398C295.964 212.747 296.227 211.891 296.227 210.828V210.648C296.227 210.003 296.107 209.411 295.867 208.875C295.628 208.339 295.292 207.924 294.859 207.633C294.427 207.336 293.932 207.188 293.375 207.188C292.542 207.188 291.862 207.516 291.336 208.172C290.81 208.823 290.547 209.677 290.547 210.734V210.906ZM303 207.344C302.802 207.307 302.591 207.289 302.367 207.289C301.784 207.289 301.289 207.453 300.883 207.781C300.482 208.104 300.195 208.576 300.023 209.195V215H299.094V206.547H300.008L300.023 207.891C300.518 206.891 301.312 206.391 302.406 206.391C302.667 206.391 302.872 206.424 303.023 206.492L303 207.344ZM312.844 210.266H309.539V215H308.57V203.625H312.266C313.479 203.625 314.427 203.919 315.109 204.508C315.792 205.096 316.133 205.919 316.133 206.977C316.133 207.706 315.919 208.349 315.492 208.906C315.065 209.464 314.492 209.849 313.773 210.062L316.617 214.898V215H315.594L312.844 210.266ZM309.539 209.445H312.484C313.292 209.445 313.94 209.216 314.43 208.758C314.919 208.299 315.164 207.706 315.164 206.977C315.164 206.174 314.909 205.552 314.398 205.109C313.888 204.667 313.172 204.445 312.25 204.445H309.539V209.445ZM323.867 215C323.773 214.734 323.714 214.341 323.688 213.82C323.359 214.247 322.94 214.578 322.43 214.812C321.924 215.042 321.388 215.156 320.82 215.156C320.008 215.156 319.349 214.93 318.844 214.477C318.344 214.023 318.094 213.451 318.094 212.758C318.094 211.935 318.435 211.284 319.117 210.805C319.805 210.326 320.76 210.086 321.984 210.086H323.68V209.125C323.68 208.521 323.492 208.047 323.117 207.703C322.747 207.354 322.206 207.18 321.492 207.18C320.841 207.18 320.302 207.346 319.875 207.68C319.448 208.013 319.234 208.414 319.234 208.883L318.297 208.875C318.297 208.203 318.609 207.622 319.234 207.133C319.859 206.638 320.628 206.391 321.539 206.391C322.482 206.391 323.224 206.628 323.766 207.102C324.312 207.57 324.594 208.227 324.609 209.07V213.07C324.609 213.888 324.695 214.5 324.867 214.906V215H323.867ZM320.93 214.328C321.555 214.328 322.112 214.177 322.602 213.875C323.096 213.573 323.456 213.169 323.68 212.664V210.805H322.008C321.076 210.815 320.346 210.987 319.82 211.32C319.294 211.648 319.031 212.102 319.031 212.68C319.031 213.154 319.206 213.547 319.555 213.859C319.909 214.172 320.367 214.328 320.93 214.328ZM328.562 204.383V206.547H330.312V207.312H328.562V212.945C328.562 213.414 328.646 213.763 328.812 213.992C328.984 214.221 329.268 214.336 329.664 214.336C329.82 214.336 330.073 214.31 330.422 214.258L330.461 215.023C330.216 215.112 329.883 215.156 329.461 215.156C328.82 215.156 328.354 214.971 328.062 214.602C327.771 214.227 327.625 213.677 327.625 212.953V207.312H326.07V206.547H327.625V204.383H328.562ZM335.523 215.156C334.805 215.156 334.154 214.979 333.57 214.625C332.992 214.271 332.542 213.779 332.219 213.148C331.896 212.513 331.734 211.802 331.734 211.016V210.68C331.734 209.867 331.891 209.135 332.203 208.484C332.521 207.833 332.961 207.323 333.523 206.953C334.086 206.578 334.695 206.391 335.352 206.391C336.378 206.391 337.19 206.742 337.789 207.445C338.393 208.143 338.695 209.099 338.695 210.312V210.836H332.664V211.016C332.664 211.974 332.938 212.773 333.484 213.414C334.036 214.049 334.729 214.367 335.562 214.367C336.062 214.367 336.503 214.276 336.883 214.094C337.268 213.911 337.617 213.62 337.93 213.219L338.516 213.664C337.828 214.659 336.831 215.156 335.523 215.156ZM335.352 207.188C334.648 207.188 334.055 207.445 333.57 207.961C333.091 208.477 332.799 209.169 332.695 210.039H337.766V209.938C337.74 209.125 337.508 208.464 337.07 207.953C336.633 207.443 336.06 207.188 335.352 207.188Z" fill="black"/>
<path d="M503.156 59V47.625H506.516C507.521 47.625 508.411 47.849 509.188 48.2969C509.969 48.7448 510.573 49.3802 511 50.2031C511.427 51.026 511.641 51.9688 511.641 53.0312V53.6016C511.641 54.6797 511.424 55.6276 510.992 56.4453C510.565 57.263 509.953 57.8932 509.156 58.3359C508.365 58.7786 507.456 59 506.43 59H503.156ZM505.133 49.2188V57.4219H506.422C507.458 57.4219 508.253 57.099 508.805 56.4531C509.362 55.8021 509.646 54.8698 509.656 53.6562V53.0234C509.656 51.7891 509.388 50.8464 508.852 50.1953C508.315 49.5443 507.536 49.2188 506.516 49.2188H505.133ZM520.258 53.9219H515.586V57.4219H521.047V59H513.609V47.625H520.992V49.2188H515.586V52.3594H520.258V53.9219ZM528.602 56.0703C528.602 55.5703 528.424 55.1849 528.07 54.9141C527.721 54.6432 527.089 54.3698 526.172 54.0938C525.255 53.8177 524.526 53.5104 523.984 53.1719C522.948 52.5208 522.43 51.6719 522.43 50.625C522.43 49.7083 522.802 48.9531 523.547 48.3594C524.297 47.7656 525.268 47.4688 526.461 47.4688C527.253 47.4688 527.958 47.6146 528.578 47.9062C529.198 48.1979 529.685 48.6146 530.039 49.1562C530.393 49.6927 530.57 50.2891 530.57 50.9453H528.602C528.602 50.3516 528.414 49.888 528.039 49.5547C527.669 49.2161 527.138 49.0469 526.445 49.0469C525.799 49.0469 525.297 49.1849 524.938 49.4609C524.583 49.737 524.406 50.1224 524.406 50.6172C524.406 51.0339 524.599 51.3828 524.984 51.6641C525.37 51.9401 526.005 52.2109 526.891 52.4766C527.776 52.737 528.487 53.0365 529.023 53.375C529.56 53.7083 529.953 54.0938 530.203 54.5312C530.453 54.9635 530.578 55.4714 530.578 56.0547C530.578 57.0026 530.214 57.7578 529.484 58.3203C528.76 58.8776 527.776 59.1562 526.531 59.1562C525.708 59.1562 524.951 59.0052 524.258 58.7031C523.57 58.3958 523.034 57.974 522.648 57.4375C522.268 56.901 522.078 56.276 522.078 55.5625H524.055C524.055 56.2083 524.268 56.7083 524.695 57.0625C525.122 57.4167 525.734 57.5938 526.531 57.5938C527.219 57.5938 527.734 57.4557 528.078 57.1797C528.427 56.8984 528.602 56.5286 528.602 56.0703ZM534.398 59H532.43V47.625H534.398V59ZM545.547 57.5234C545.135 58.0599 544.565 58.4661 543.836 58.7422C543.107 59.0182 542.279 59.1562 541.352 59.1562C540.398 59.1562 539.555 58.9401 538.82 58.5078C538.086 58.0755 537.518 57.4583 537.117 56.6562C536.721 55.849 536.516 54.9089 536.5 53.8359V52.9453C536.5 51.2266 536.911 49.8854 537.734 48.9219C538.557 47.9531 539.706 47.4688 541.18 47.4688C542.445 47.4688 543.451 47.7812 544.195 48.4062C544.94 49.0312 545.388 49.9323 545.539 51.1094H543.602C543.383 49.7396 542.589 49.0547 541.219 49.0547C540.333 49.0547 539.659 49.375 539.195 50.0156C538.737 50.651 538.5 51.5859 538.484 52.8203V53.6953C538.484 54.9245 538.742 55.8802 539.258 56.5625C539.779 57.2396 540.5 57.5781 541.422 57.5781C542.432 57.5781 543.151 57.349 543.578 56.8906V54.6641H541.234V53.1641H545.547V57.5234ZM556.742 59H554.766L549.695 50.9297V59H547.719V47.625H549.695L554.781 55.7266V47.625H556.742V59ZM567.898 59H566.008V49.8672L563.219 50.8203V49.2188L567.656 47.5859H567.898V59Z" fill="black"/>
<path d="M607.156 59V47.625H610.516C611.521 47.625 612.411 47.849 613.188 48.2969C613.969 48.7448 614.573 49.3802 615 50.2031C615.427 51.026 615.641 51.9688 615.641 53.0312V53.6016C615.641 54.6797 615.424 55.6276 614.992 56.4453C614.565 57.263 613.953 57.8932 613.156 58.3359C612.365 58.7786 611.456 59 610.43 59H607.156ZM609.133 49.2188V57.4219H610.422C611.458 57.4219 612.253 57.099 612.805 56.4531C613.362 55.8021 613.646 54.8698 613.656 53.6562V53.0234C613.656 51.7891 613.388 50.8464 612.852 50.1953C612.315 49.5443 611.536 49.2188 610.516 49.2188H609.133ZM624.258 53.9219H619.586V57.4219H625.047V59H617.609V47.625H624.992V49.2188H619.586V52.3594H624.258V53.9219ZM632.602 56.0703C632.602 55.5703 632.424 55.1849 632.07 54.9141C631.721 54.6432 631.089 54.3698 630.172 54.0938C629.255 53.8177 628.526 53.5104 627.984 53.1719C626.948 52.5208 626.43 51.6719 626.43 50.625C626.43 49.7083 626.802 48.9531 627.547 48.3594C628.297 47.7656 629.268 47.4688 630.461 47.4688C631.253 47.4688 631.958 47.6146 632.578 47.9062C633.198 48.1979 633.685 48.6146 634.039 49.1562C634.393 49.6927 634.57 50.2891 634.57 50.9453H632.602C632.602 50.3516 632.414 49.888 632.039 49.5547C631.669 49.2161 631.138 49.0469 630.445 49.0469C629.799 49.0469 629.297 49.1849 628.938 49.4609C628.583 49.737 628.406 50.1224 628.406 50.6172C628.406 51.0339 628.599 51.3828 628.984 51.6641C629.37 51.9401 630.005 52.2109 630.891 52.4766C631.776 52.737 632.487 53.0365 633.023 53.375C633.56 53.7083 633.953 54.0938 634.203 54.5312C634.453 54.9635 634.578 55.4714 634.578 56.0547C634.578 57.0026 634.214 57.7578 633.484 58.3203C632.76 58.8776 631.776 59.1562 630.531 59.1562C629.708 59.1562 628.951 59.0052 628.258 58.7031C627.57 58.3958 627.034 57.974 626.648 57.4375C626.268 56.901 626.078 56.276 626.078 55.5625H628.055C628.055 56.2083 628.268 56.7083 628.695 57.0625C629.122 57.4167 629.734 57.5938 630.531 57.5938C631.219 57.5938 631.734 57.4557 632.078 57.1797C632.427 56.8984 632.602 56.5286 632.602 56.0703ZM638.398 59H636.43V47.625H638.398V59ZM649.547 57.5234C649.135 58.0599 648.565 58.4661 647.836 58.7422C647.107 59.0182 646.279 59.1562 645.352 59.1562C644.398 59.1562 643.555 58.9401 642.82 58.5078C642.086 58.0755 641.518 57.4583 641.117 56.6562C640.721 55.849 640.516 54.9089 640.5 53.8359V52.9453C640.5 51.2266 640.911 49.8854 641.734 48.9219C642.557 47.9531 643.706 47.4688 645.18 47.4688C646.445 47.4688 647.451 47.7812 648.195 48.4062C648.94 49.0312 649.388 49.9323 649.539 51.1094H647.602C647.383 49.7396 646.589 49.0547 645.219 49.0547C644.333 49.0547 643.659 49.375 643.195 50.0156C642.737 50.651 642.5 51.5859 642.484 52.8203V53.6953C642.484 54.9245 642.742 55.8802 643.258 56.5625C643.779 57.2396 644.5 57.5781 645.422 57.5781C646.432 57.5781 647.151 57.349 647.578 56.8906V54.6641H645.234V53.1641H649.547V57.5234ZM660.742 59H658.766L653.695 50.9297V59H651.719V47.625H653.695L658.781 55.7266V47.625H660.742V59ZM674.406 59H666.758V57.6953L670.547 53.5625C671.094 52.9531 671.482 52.4453 671.711 52.0391C671.945 51.6276 672.062 51.2161 672.062 50.8047C672.062 50.263 671.909 49.8255 671.602 49.4922C671.299 49.1589 670.891 48.9922 670.375 48.9922C669.76 48.9922 669.284 49.1797 668.945 49.5547C668.607 49.9297 668.438 50.4427 668.438 51.0938H666.539C666.539 50.401 666.695 49.7786 667.008 49.2266C667.326 48.6693 667.776 48.237 668.359 47.9297C668.948 47.6224 669.625 47.4688 670.391 47.4688C671.495 47.4688 672.365 47.7474 673 48.3047C673.641 48.8568 673.961 49.6224 673.961 50.6016C673.961 51.1693 673.799 51.7656 673.477 52.3906C673.159 53.0104 672.635 53.7161 671.906 54.5078L669.125 57.4844H674.406V59Z" fill="black"/>
<rect x="631" y="120" width="20" height="20" rx="10" fill="#3447D3"/>
<rect x="631" y="199" width="20" height="20" rx="10" fill="#3447D3"/>
<path d="M502 242L690 242" stroke="#3447D3"/>
<path d="M0 77L690 76.9999" stroke="#3447D3"/>
<path d="M233 242L432 242" stroke="#3447D3"/>
<path d="M0 242H185" stroke="#3447D3"/>
<path d="M3.24219 118H1.27344V106.625H3.24219V118ZM14.6953 118H12.7188L7.64844 109.93V118H5.67188V106.625H7.64844L12.7344 114.727V106.625H14.6953V118ZM25.0156 108.219H21.4688V118H19.5078V108.219H15.9922V106.625H25.0156V108.219ZM34.8359 106.625V114.227C34.8359 115.435 34.4479 116.393 33.6719 117.102C32.901 117.805 31.8724 118.156 30.5859 118.156C29.2839 118.156 28.25 117.81 27.4844 117.117C26.7188 116.419 26.3359 115.453 26.3359 114.219V106.625H28.3047V114.234C28.3047 114.995 28.4974 115.576 28.8828 115.977C29.2682 116.378 29.8359 116.578 30.5859 116.578C32.1068 116.578 32.8672 115.776 32.8672 114.172V106.625H34.8359ZM39.0391 118H37.0703V106.625H39.0391V118ZM49.4531 108.219H45.9062V118H43.9453V108.219H40.4297V106.625H49.4531V108.219ZM53.0391 118H51.0703V106.625H53.0391V118ZM59.4766 115.523L62.3672 106.625H64.5391L60.4453 118H58.5312L54.4531 106.625H56.6172L59.4766 115.523ZM72.4766 112.922H67.8047V116.422H73.2656V118H65.8281V106.625H73.2109V108.219H67.8047V111.359H72.4766V112.922ZM83.8984 118H81.9219L76.8516 109.93V118H74.875V106.625H76.8516L81.9375 114.727V106.625H83.8984V118ZM92.8828 112.922H88.2109V116.422H93.6719V118H86.2344V106.625H93.6172V108.219H88.2109V111.359H92.8828V112.922ZM101.227 115.07C101.227 114.57 101.049 114.185 100.695 113.914C100.346 113.643 99.7135 113.37 98.7969 113.094C97.8802 112.818 97.151 112.51 96.6094 112.172C95.5729 111.521 95.0547 110.672 95.0547 109.625C95.0547 108.708 95.4271 107.953 96.1719 107.359C96.9219 106.766 97.8932 106.469 99.0859 106.469C99.8776 106.469 100.583 106.615 101.203 106.906C101.823 107.198 102.31 107.615 102.664 108.156C103.018 108.693 103.195 109.289 103.195 109.945H101.227C101.227 109.352 101.039 108.888 100.664 108.555C100.294 108.216 99.763 108.047 99.0703 108.047C98.4245 108.047 97.9219 108.185 97.5625 108.461C97.2083 108.737 97.0312 109.122 97.0312 109.617C97.0312 110.034 97.224 110.383 97.6094 110.664C97.9948 110.94 98.6302 111.211 99.5156 111.477C100.401 111.737 101.112 112.036 101.648 112.375C102.185 112.708 102.578 113.094 102.828 113.531C103.078 113.964 103.203 114.471 103.203 115.055C103.203 116.003 102.839 116.758 102.109 117.32C101.385 117.878 100.401 118.156 99.1562 118.156C98.3333 118.156 97.5755 118.005 96.8828 117.703C96.1953 117.396 95.6589 116.974 95.2734 116.438C94.8932 115.901 94.7031 115.276 94.7031 114.562H96.6797C96.6797 115.208 96.8932 115.708 97.3203 116.062C97.7474 116.417 98.3594 116.594 99.1562 116.594C99.8438 116.594 100.359 116.456 100.703 116.18C101.052 115.898 101.227 115.529 101.227 115.07ZM110.883 115.07C110.883 114.57 110.706 114.185 110.352 113.914C110.003 113.643 109.37 113.37 108.453 113.094C107.536 112.818 106.807 112.51 106.266 112.172C105.229 111.521 104.711 110.672 104.711 109.625C104.711 108.708 105.083 107.953 105.828 107.359C106.578 106.766 107.549 106.469 108.742 106.469C109.534 106.469 110.24 106.615 110.859 106.906C111.479 107.198 111.966 107.615 112.32 108.156C112.674 108.693 112.852 109.289 112.852 109.945H110.883C110.883 109.352 110.695 108.888 110.32 108.555C109.951 108.216 109.419 108.047 108.727 108.047C108.081 108.047 107.578 108.185 107.219 108.461C106.865 108.737 106.688 109.122 106.688 109.617C106.688 110.034 106.88 110.383 107.266 110.664C107.651 110.94 108.286 111.211 109.172 111.477C110.057 111.737 110.768 112.036 111.305 112.375C111.841 112.708 112.234 113.094 112.484 113.531C112.734 113.964 112.859 114.471 112.859 115.055C112.859 116.003 112.495 116.758 111.766 117.32C111.042 117.878 110.057 118.156 108.812 118.156C107.99 118.156 107.232 118.005 106.539 117.703C105.852 117.396 105.315 116.974 104.93 116.438C104.549 115.901 104.359 115.276 104.359 114.562H106.336C106.336 115.208 106.549 115.708 106.977 116.062C107.404 116.417 108.016 116.594 108.812 116.594C109.5 116.594 110.016 116.456 110.359 116.18C110.708 115.898 110.883 115.529 110.883 115.07ZM118.094 114.93C118.094 114.404 118.237 113.922 118.523 113.484C118.81 113.042 119.375 112.518 120.219 111.914C119.776 111.357 119.466 110.883 119.289 110.492C119.117 110.102 119.031 109.724 119.031 109.359C119.031 108.469 119.302 107.766 119.844 107.25C120.385 106.729 121.115 106.469 122.031 106.469C122.859 106.469 123.536 106.714 124.062 107.203C124.594 107.688 124.859 108.289 124.859 109.008C124.859 109.482 124.74 109.919 124.5 110.32C124.26 110.716 123.867 111.112 123.32 111.508L122.547 112.07L124.742 114.664C125.06 114.039 125.219 113.344 125.219 112.578H126.867C126.867 113.979 126.539 115.128 125.883 116.023L127.555 118H125.352L124.711 117.242C123.898 117.852 122.93 118.156 121.805 118.156C120.68 118.156 119.779 117.859 119.102 117.266C118.43 116.667 118.094 115.888 118.094 114.93ZM121.859 116.641C122.5 116.641 123.099 116.427 123.656 116L121.172 113.07L120.93 113.242C120.305 113.716 119.992 114.258 119.992 114.867C119.992 115.393 120.161 115.82 120.5 116.148C120.839 116.477 121.292 116.641 121.859 116.641ZM120.812 109.312C120.812 109.75 121.081 110.299 121.617 110.961L122.484 110.367L122.727 110.172C123.049 109.885 123.211 109.518 123.211 109.07C123.211 108.773 123.099 108.521 122.875 108.312C122.651 108.099 122.367 107.992 122.023 107.992C121.654 107.992 121.359 108.117 121.141 108.367C120.922 108.617 120.812 108.932 120.812 109.312ZM5.16406 134.523L8.05469 125.625H10.2266L6.13281 137H4.21875L0.140625 125.625H2.30469L5.16406 134.523ZM13.6016 137H11.6328V125.625H13.6016V137ZM21.9766 134.07C21.9766 133.57 21.7995 133.185 21.4453 132.914C21.0964 132.643 20.4635 132.37 19.5469 132.094C18.6302 131.818 17.901 131.51 17.3594 131.172C16.3229 130.521 15.8047 129.672 15.8047 128.625C15.8047 127.708 16.1771 126.953 16.9219 126.359C17.6719 125.766 18.6432 125.469 19.8359 125.469C20.6276 125.469 21.3333 125.615 21.9531 125.906C22.5729 126.198 23.0599 126.615 23.4141 127.156C23.7682 127.693 23.9453 128.289 23.9453 128.945H21.9766C21.9766 128.352 21.7891 127.888 21.4141 127.555C21.0443 127.216 20.513 127.047 19.8203 127.047C19.1745 127.047 18.6719 127.185 18.3125 127.461C17.9583 127.737 17.7812 128.122 17.7812 128.617C17.7812 129.034 17.974 129.383 18.3594 129.664C18.7448 129.94 19.3802 130.211 20.2656 130.477C21.151 130.737 21.862 131.036 22.3984 131.375C22.9349 131.708 23.3281 132.094 23.5781 132.531C23.8281 132.964 23.9531 133.471 23.9531 134.055C23.9531 135.003 23.5885 135.758 22.8594 136.32C22.1354 136.878 21.151 137.156 19.9062 137.156C19.0833 137.156 18.3255 137.005 17.6328 136.703C16.9453 136.396 16.4089 135.974 16.0234 135.438C15.6432 134.901 15.4531 134.276 15.4531 133.562H17.4297C17.4297 134.208 17.6432 134.708 18.0703 135.062C18.4974 135.417 19.1094 135.594 19.9062 135.594C20.5938 135.594 21.1094 135.456 21.4531 135.18C21.8021 134.898 21.9766 134.529 21.9766 134.07ZM27.7734 137H25.8047V125.625H27.7734V137ZM30.2031 137V125.625H34.1016C35.388 125.625 36.3672 125.883 37.0391 126.398C37.7109 126.914 38.0469 127.682 38.0469 128.703C38.0469 129.224 37.9062 129.693 37.625 130.109C37.3438 130.526 36.9323 130.849 36.3906 131.078C37.0052 131.245 37.4792 131.56 37.8125 132.023C38.151 132.482 38.3203 133.034 38.3203 133.68C38.3203 134.747 37.9766 135.568 37.2891 136.141C36.6068 136.714 35.6276 137 34.3516 137H30.2031ZM32.1797 131.867V135.422H34.375C34.9948 135.422 35.4792 135.268 35.8281 134.961C36.1771 134.654 36.3516 134.227 36.3516 133.68C36.3516 132.497 35.7474 131.893 34.5391 131.867H32.1797ZM32.1797 130.414H34.1172C34.7318 130.414 35.2109 130.276 35.5547 130C35.9036 129.719 36.0781 129.323 36.0781 128.812C36.0781 128.25 35.9167 127.844 35.5938 127.594C35.276 127.344 34.7786 127.219 34.1016 127.219H32.1797V130.414ZM42.3828 137H40.4141V125.625H42.3828V137ZM46.7891 135.422H51.9531V137H44.8125V125.625H46.7891V135.422ZM55.5547 137H53.5859V125.625H55.5547V137ZM65.9688 127.219H62.4219V137H60.4609V127.219H56.9453V125.625H65.9688V127.219ZM71.3047 131.016L73.9219 125.625H76.1094L72.2969 132.812V137H70.3125V132.812L66.4922 125.625H68.6875L71.3047 131.016Z" fill="#2C2D53"/>
<path d="M7.80469 207.922H3.13281V211.422H8.59375V213H1.15625V201.625H8.53906V203.219H3.13281V206.359H7.80469V207.922ZM16.5703 210.352H12.1641L11.2422 213H9.1875L13.4844 201.625H15.2578L19.5625 213H17.5L16.5703 210.352ZM12.7188 208.758H16.0156L14.3672 204.039L12.7188 208.758ZM26.8047 210.07C26.8047 209.57 26.6276 209.185 26.2734 208.914C25.9245 208.643 25.2917 208.37 24.375 208.094C23.4583 207.818 22.7292 207.51 22.1875 207.172C21.151 206.521 20.6328 205.672 20.6328 204.625C20.6328 203.708 21.0052 202.953 21.75 202.359C22.5 201.766 23.4714 201.469 24.6641 201.469C25.4557 201.469 26.1615 201.615 26.7812 201.906C27.401 202.198 27.888 202.615 28.2422 203.156C28.5964 203.693 28.7734 204.289 28.7734 204.945H26.8047C26.8047 204.352 26.6172 203.888 26.2422 203.555C25.8724 203.216 25.3411 203.047 24.6484 203.047C24.0026 203.047 23.5 203.185 23.1406 203.461C22.7865 203.737 22.6094 204.122 22.6094 204.617C22.6094 205.034 22.8021 205.383 23.1875 205.664C23.5729 205.94 24.2083 206.211 25.0938 206.477C25.9792 206.737 26.6901 207.036 27.2266 207.375C27.763 207.708 28.1562 208.094 28.4062 208.531C28.6562 208.964 28.7812 209.471 28.7812 210.055C28.7812 211.003 28.4167 211.758 27.6875 212.32C26.9635 212.878 25.9792 213.156 24.7344 213.156C23.9115 213.156 23.1536 213.005 22.4609 212.703C21.7734 212.396 21.237 211.974 20.8516 211.438C20.4714 210.901 20.2812 210.276 20.2812 209.562H22.2578C22.2578 210.208 22.4714 210.708 22.8984 211.062C23.3255 211.417 23.9375 211.594 24.7344 211.594C25.4219 211.594 25.9375 211.456 26.2812 211.18C26.6302 210.898 26.8047 210.529 26.8047 210.07ZM37.1641 207.922H32.4922V211.422H37.9531V213H30.5156V201.625H37.8984V203.219H32.4922V206.359H37.1641V207.922ZM52.625 207.609C52.625 208.724 52.4323 209.703 52.0469 210.547C51.6615 211.385 51.1094 212.031 50.3906 212.484C49.6771 212.932 48.8542 213.156 47.9219 213.156C47 213.156 46.1771 212.932 45.4531 212.484C44.7344 212.031 44.1771 211.388 43.7812 210.555C43.3906 209.721 43.1927 208.76 43.1875 207.672V207.031C43.1875 205.922 43.3828 204.943 43.7734 204.094C44.1693 203.245 44.724 202.596 45.4375 202.148C46.1562 201.695 46.9792 201.469 47.9062 201.469C48.8333 201.469 49.6536 201.693 50.3672 202.141C51.0859 202.583 51.6406 203.224 52.0312 204.062C52.4219 204.896 52.6198 205.867 52.625 206.977V207.609ZM50.6484 207.016C50.6484 205.755 50.4089 204.789 49.9297 204.117C49.4557 203.445 48.7812 203.109 47.9062 203.109C47.0521 203.109 46.3828 203.445 45.8984 204.117C45.4193 204.784 45.1745 205.729 45.1641 206.953V207.609C45.1641 208.859 45.4062 209.826 45.8906 210.508C46.3802 211.19 47.0573 211.531 47.9219 211.531C48.7969 211.531 49.4688 211.198 49.9375 210.531C50.4115 209.865 50.6484 208.891 50.6484 207.609V207.016ZM61.1484 208.18H56.5703V213H54.5938V201.625H61.8203V203.219H56.5703V206.602H61.1484V208.18ZM75.6953 201.625V209.227C75.6953 210.435 75.3073 211.393 74.5312 212.102C73.7604 212.805 72.7318 213.156 71.4453 213.156C70.1432 213.156 69.1094 212.81 68.3438 212.117C67.5781 211.419 67.1953 210.453 67.1953 209.219V201.625H69.1641V209.234C69.1641 209.995 69.3568 210.576 69.7422 210.977C70.1276 211.378 70.6953 211.578 71.4453 211.578C72.9661 211.578 73.7266 210.776 73.7266 209.172V201.625H75.6953ZM83.7578 210.07C83.7578 209.57 83.5807 209.185 83.2266 208.914C82.8776 208.643 82.2448 208.37 81.3281 208.094C80.4115 207.818 79.6823 207.51 79.1406 207.172C78.1042 206.521 77.5859 205.672 77.5859 204.625C77.5859 203.708 77.9583 202.953 78.7031 202.359C79.4531 201.766 80.4245 201.469 81.6172 201.469C82.4089 201.469 83.1146 201.615 83.7344 201.906C84.3542 202.198 84.8411 202.615 85.1953 203.156C85.5495 203.693 85.7266 204.289 85.7266 204.945H83.7578C83.7578 204.352 83.5703 203.888 83.1953 203.555C82.8255 203.216 82.2943 203.047 81.6016 203.047C80.9557 203.047 80.4531 203.185 80.0938 203.461C79.7396 203.737 79.5625 204.122 79.5625 204.617C79.5625 205.034 79.7552 205.383 80.1406 205.664C80.526 205.94 81.1615 206.211 82.0469 206.477C82.9323 206.737 83.6432 207.036 84.1797 207.375C84.7161 207.708 85.1094 208.094 85.3594 208.531C85.6094 208.964 85.7344 209.471 85.7344 210.055C85.7344 211.003 85.3698 211.758 84.6406 212.32C83.9167 212.878 82.9323 213.156 81.6875 213.156C80.8646 213.156 80.1068 213.005 79.4141 212.703C78.7266 212.396 78.1901 211.974 77.8047 211.438C77.4245 210.901 77.2344 210.276 77.2344 209.562H79.2109C79.2109 210.208 79.4245 210.708 79.8516 211.062C80.2786 211.417 80.8906 211.594 81.6875 211.594C82.375 211.594 82.8906 211.456 83.2344 211.18C83.5833 210.898 83.7578 210.529 83.7578 210.07ZM94.1172 207.922H89.4453V211.422H94.9062V213H87.4688V201.625H94.8516V203.219H89.4453V206.359H94.1172V207.922Z" fill="#2C2D53"/>
<path d="M294.719 259.625L298 268.344L301.273 259.625H303.828V271H301.859V267.25L302.055 262.234L298.695 271H297.281L293.93 262.242L294.125 267.25V271H292.156V259.625H294.719ZM312.82 265.922H308.148V269.422H313.609V271H306.172V259.625H313.555V261.219H308.148V264.359H312.82V265.922ZM323.594 261.219H320.047V271H318.086V261.219H314.57V259.625H323.594V261.219ZM329.273 266.617H327.07V271H325.094V259.625H329.094C330.406 259.625 331.419 259.919 332.133 260.508C332.846 261.096 333.203 261.948 333.203 263.062C333.203 263.823 333.018 264.461 332.648 264.977C332.284 265.487 331.773 265.88 331.117 266.156L333.672 270.898V271H331.555L329.273 266.617ZM327.07 265.031H329.102C329.768 265.031 330.289 264.865 330.664 264.531C331.039 264.193 331.227 263.732 331.227 263.148C331.227 262.539 331.052 262.068 330.703 261.734C330.359 261.401 329.844 261.229 329.156 261.219H327.07V265.031ZM337.164 271H335.195V259.625H337.164V271ZM348.273 267.297C348.159 268.51 347.711 269.458 346.93 270.141C346.148 270.818 345.109 271.156 343.812 271.156C342.906 271.156 342.107 270.943 341.414 270.516C340.727 270.083 340.195 269.471 339.82 268.68C339.445 267.888 339.25 266.969 339.234 265.922V264.859C339.234 263.786 339.424 262.841 339.805 262.023C340.185 261.206 340.729 260.576 341.438 260.133C342.151 259.69 342.974 259.469 343.906 259.469C345.161 259.469 346.172 259.81 346.938 260.492C347.703 261.174 348.148 262.138 348.273 263.383H346.305C346.211 262.565 345.971 261.977 345.586 261.617C345.206 261.253 344.646 261.07 343.906 261.07C343.047 261.07 342.385 261.385 341.922 262.016C341.464 262.641 341.229 263.56 341.219 264.773V265.781C341.219 267.01 341.438 267.948 341.875 268.594C342.318 269.24 342.964 269.562 343.812 269.562C344.589 269.562 345.172 269.388 345.562 269.039C345.953 268.69 346.201 268.109 346.305 267.297H348.273ZM355.992 268.07C355.992 267.57 355.815 267.185 355.461 266.914C355.112 266.643 354.479 266.37 353.562 266.094C352.646 265.818 351.917 265.51 351.375 265.172C350.339 264.521 349.82 263.672 349.82 262.625C349.82 261.708 350.193 260.953 350.938 260.359C351.688 259.766 352.659 259.469 353.852 259.469C354.643 259.469 355.349 259.615 355.969 259.906C356.589 260.198 357.076 260.615 357.43 261.156C357.784 261.693 357.961 262.289 357.961 262.945H355.992C355.992 262.352 355.805 261.888 355.43 261.555C355.06 261.216 354.529 261.047 353.836 261.047C353.19 261.047 352.688 261.185 352.328 261.461C351.974 261.737 351.797 262.122 351.797 262.617C351.797 263.034 351.99 263.383 352.375 263.664C352.76 263.94 353.396 264.211 354.281 264.477C355.167 264.737 355.878 265.036 356.414 265.375C356.951 265.708 357.344 266.094 357.594 266.531C357.844 266.964 357.969 267.471 357.969 268.055C357.969 269.003 357.604 269.758 356.875 270.32C356.151 270.878 355.167 271.156 353.922 271.156C353.099 271.156 352.341 271.005 351.648 270.703C350.961 270.396 350.424 269.974 350.039 269.438C349.659 268.901 349.469 268.276 349.469 267.562H351.445C351.445 268.208 351.659 268.708 352.086 269.062C352.513 269.417 353.125 269.594 353.922 269.594C354.609 269.594 355.125 269.456 355.469 269.18C355.818 268.898 355.992 268.529 355.992 268.07Z" fill="#3447D3"/>
<path d="M619.336 266.617H617.133V271H615.156V259.625H619.156C620.469 259.625 621.482 259.919 622.195 260.508C622.909 261.096 623.266 261.948 623.266 263.062C623.266 263.823 623.081 264.461 622.711 264.977C622.346 265.487 621.836 265.88 621.18 266.156L623.734 270.898V271H621.617L619.336 266.617ZM617.133 265.031H619.164C619.831 265.031 620.352 264.865 620.727 264.531C621.102 264.193 621.289 263.732 621.289 263.148C621.289 262.539 621.115 262.068 620.766 261.734C620.422 261.401 619.906 261.229 619.219 261.219H617.133V265.031ZM631.789 265.922H627.117V269.422H632.578V271H625.141V259.625H632.523V261.219H627.117V264.359H631.789V265.922ZM640.133 268.07C640.133 267.57 639.956 267.185 639.602 266.914C639.253 266.643 638.62 266.37 637.703 266.094C636.786 265.818 636.057 265.51 635.516 265.172C634.479 264.521 633.961 263.672 633.961 262.625C633.961 261.708 634.333 260.953 635.078 260.359C635.828 259.766 636.799 259.469 637.992 259.469C638.784 259.469 639.49 259.615 640.109 259.906C640.729 260.198 641.216 260.615 641.57 261.156C641.924 261.693 642.102 262.289 642.102 262.945H640.133C640.133 262.352 639.945 261.888 639.57 261.555C639.201 261.216 638.669 261.047 637.977 261.047C637.331 261.047 636.828 261.185 636.469 261.461C636.115 261.737 635.938 262.122 635.938 262.617C635.938 263.034 636.13 263.383 636.516 263.664C636.901 263.94 637.536 264.211 638.422 264.477C639.307 264.737 640.018 265.036 640.555 265.375C641.091 265.708 641.484 266.094 641.734 266.531C641.984 266.964 642.109 267.471 642.109 268.055C642.109 269.003 641.745 269.758 641.016 270.32C640.292 270.878 639.307 271.156 638.062 271.156C637.24 271.156 636.482 271.005 635.789 270.703C635.102 270.396 634.565 269.974 634.18 269.438C633.799 268.901 633.609 268.276 633.609 267.562H635.586C635.586 268.208 635.799 268.708 636.227 269.062C636.654 269.417 637.266 269.594 638.062 269.594C638.75 269.594 639.266 269.456 639.609 269.18C639.958 268.898 640.133 268.529 640.133 268.07ZM652.164 259.625V267.227C652.164 268.435 651.776 269.393 651 270.102C650.229 270.805 649.201 271.156 647.914 271.156C646.612 271.156 645.578 270.81 644.812 270.117C644.047 269.419 643.664 268.453 643.664 267.219V259.625H645.633V267.234C645.633 267.995 645.826 268.576 646.211 268.977C646.596 269.378 647.164 269.578 647.914 269.578C649.435 269.578 650.195 268.776 650.195 267.172V259.625H652.164ZM656.258 269.422H661.422V271H654.281V259.625H656.258V269.422ZM669.547 261.219H666V271H664.039V261.219H660.523V259.625H669.547V261.219Z" fill="#3447D3"/>
<path d="M40.875 269.523C40.4635 270.06 39.8932 270.466 39.1641 270.742C38.4349 271.018 37.6068 271.156 36.6797 271.156C35.7266 271.156 34.8828 270.94 34.1484 270.508C33.4141 270.076 32.8464 269.458 32.4453 268.656C32.0495 267.849 31.8438 266.909 31.8281 265.836V264.945C31.8281 263.227 32.2396 261.885 33.0625 260.922C33.8854 259.953 35.0339 259.469 36.5078 259.469C37.7734 259.469 38.7786 259.781 39.5234 260.406C40.2682 261.031 40.7161 261.932 40.8672 263.109H38.9297C38.7109 261.74 37.9167 261.055 36.5469 261.055C35.6615 261.055 34.987 261.375 34.5234 262.016C34.0651 262.651 33.8281 263.586 33.8125 264.82V265.695C33.8125 266.924 34.0703 267.88 34.5859 268.562C35.1068 269.24 35.8281 269.578 36.75 269.578C37.7604 269.578 38.4792 269.349 38.9062 268.891V266.664H36.5625V265.164H40.875V269.523ZM52.125 265.609C52.125 266.724 51.9323 267.703 51.5469 268.547C51.1615 269.385 50.6094 270.031 49.8906 270.484C49.1771 270.932 48.3542 271.156 47.4219 271.156C46.5 271.156 45.6771 270.932 44.9531 270.484C44.2344 270.031 43.6771 269.388 43.2812 268.555C42.8906 267.721 42.6927 266.76 42.6875 265.672V265.031C42.6875 263.922 42.8828 262.943 43.2734 262.094C43.6693 261.245 44.224 260.596 44.9375 260.148C45.6562 259.695 46.4792 259.469 47.4062 259.469C48.3333 259.469 49.1536 259.693 49.8672 260.141C50.5859 260.583 51.1406 261.224 51.5312 262.062C51.9219 262.896 52.1198 263.867 52.125 264.977V265.609ZM50.1484 265.016C50.1484 263.755 49.9089 262.789 49.4297 262.117C48.9557 261.445 48.2812 261.109 47.4062 261.109C46.5521 261.109 45.8828 261.445 45.3984 262.117C44.9193 262.784 44.6745 263.729 44.6641 264.953V265.609C44.6641 266.859 44.9062 267.826 45.3906 268.508C45.8802 269.19 46.5573 269.531 47.4219 269.531C48.2969 269.531 48.9688 269.198 49.4375 268.531C49.9115 267.865 50.1484 266.891 50.1484 265.609V265.016ZM60.2891 268.352H55.8828L54.9609 271H52.9062L57.2031 259.625H58.9766L63.2812 271H61.2188L60.2891 268.352ZM56.4375 266.758H59.7344L58.0859 262.039L56.4375 266.758ZM66.5547 269.422H71.7188V271H64.5781V259.625H66.5547V269.422ZM79.1797 268.07C79.1797 267.57 79.0026 267.185 78.6484 266.914C78.2995 266.643 77.6667 266.37 76.75 266.094C75.8333 265.818 75.1042 265.51 74.5625 265.172C73.526 264.521 73.0078 263.672 73.0078 262.625C73.0078 261.708 73.3802 260.953 74.125 260.359C74.875 259.766 75.8464 259.469 77.0391 259.469C77.8307 259.469 78.5365 259.615 79.1562 259.906C79.776 260.198 80.263 260.615 80.6172 261.156C80.9714 261.693 81.1484 262.289 81.1484 262.945H79.1797C79.1797 262.352 78.9922 261.888 78.6172 261.555C78.2474 261.216 77.7161 261.047 77.0234 261.047C76.3776 261.047 75.875 261.185 75.5156 261.461C75.1615 261.737 74.9844 262.122 74.9844 262.617C74.9844 263.034 75.1771 263.383 75.5625 263.664C75.9479 263.94 76.5833 264.211 77.4688 264.477C78.3542 264.737 79.0651 265.036 79.6016 265.375C80.138 265.708 80.5312 266.094 80.7812 266.531C81.0312 266.964 81.1562 267.471 81.1562 268.055C81.1562 269.003 80.7917 269.758 80.0625 270.32C79.3385 270.878 78.3542 271.156 77.1094 271.156C76.2865 271.156 75.5286 271.005 74.8359 270.703C74.1484 270.396 73.612 269.974 73.2266 269.438C72.8464 268.901 72.6562 268.276 72.6562 267.562H74.6328C74.6328 268.208 74.8464 268.708 75.2734 269.062C75.7005 269.417 76.3125 269.594 77.1094 269.594C77.7969 269.594 78.3125 269.456 78.6562 269.18C79.0052 268.898 79.1797 268.529 79.1797 268.07Z" fill="#3447D3"/>
</svg>
