<svg width="64" height="64" viewBox="0 0 64 64" fill="none" xmlns="http://www.w3.org/2000/svg">
<path d="M8 9H41V3H3V55H8V9Z" fill="#F8CF26"/>
<path d="M8 55V61H46V9H41H8V55ZM13 24H19V30H13V24ZM13 34H19V40H13V34ZM13 44H19V50H13V44Z" fill="#06AAE9"/>
<path d="M19 34H13V40H19V34Z" fill="#F9F5EF"/>
<path d="M19 44H13V50H19V44Z" fill="#F9F5EF"/>
<path d="M61 15H53V52H61V15Z" fill="#F4462D"/>
<path d="M53 54L57 61L61 54V52H53V54Z" fill="#F9F5EF"/>
<path d="M57 3C54.791 3 53 4.791 53 7V11H61V7C61 4.791 59.209 3 57 3Z" fill="#F4462D"/>
<path d="M61 11H53V15H61V11Z" fill="#06AAE9"/>
<path d="M19 24H13V30H19V24Z" fill="#F9F5EF"/>
<path d="M3 56H7V61C7 61.552 7.447 62 8 62H46C46.553 62 47 61.552 47 61V9C47 8.448 46.553 8 46 8H42V3C42 2.448 41.553 2 41 2H3C2.447 2 2 2.448 2 3V55C2 55.552 2.447 56 3 56ZM45 60H9V55V10H41H45V60ZM4 4H40V8H8C7.447 8 7 8.448 7 9V54H4V4Z" fill="black"/>
<path d="M19 33H13C12.447 33 12 33.448 12 34V40C12 40.552 12.447 41 13 41H19C19.553 41 20 40.552 20 40V34C20 33.448 19.553 33 19 33ZM18 39H14V35H18V39Z" fill="black"/>
<path d="M19 43H13C12.447 43 12 43.448 12 44V50C12 50.552 12.447 51 13 51H19C19.553 51 20 50.552 20 50V44C20 43.448 19.553 43 19 43ZM18 49H14V45H18V49Z" fill="black"/>
<path d="M41 14H25V16H41V14Z" fill="black"/>
<path d="M41 18H25V20H41V18Z" fill="black"/>
<path d="M41 24H25V26H41V24Z" fill="black"/>
<path d="M41 28H25V30H41V28Z" fill="black"/>
<path d="M41 34H25V36H41V34Z" fill="black"/>
<path d="M41 38H25V40H41V38Z" fill="black"/>
<path d="M41 44H25V46H41V44Z" fill="black"/>
<path d="M41 48H25V50H41V48Z" fill="black"/>
<path d="M15 17.586L13.707 16.293L12.293 17.707L14.293 19.707C14.488 19.902 14.744 20 15 20C15.256 20 15.512 19.902 15.707 19.707L20.707 14.707L19.293 13.293L15 17.586Z" fill="black"/>
<path d="M57 2C54.243 2 52 4.243 52 7V11V15V54C52 54.174 52.046 54.345 52.132 54.496L56.132 61.496C56.31 61.808 56.642 62 57 62C57.358 62 57.69 61.808 57.868 61.496L61.868 54.496C61.954 54.345 62 54.174 62 54V15V11V7C62 4.243 59.757 2 57 2ZM57 4C58.654 4 60 5.346 60 7V10H54V7C54 5.346 55.346 4 57 4ZM54 16H60V51H54V16ZM60 14H54V12H60V14ZM57 58.984L54 53.734V53H60V53.734L57 58.984Z" fill="black"/>
<path d="M19 23H13C12.447 23 12 23.448 12 24V30C12 30.552 12.447 31 13 31H19C19.553 31 20 30.552 20 30V24C20 23.448 19.553 23 19 23ZM18 29H14V25H18V29Z" fill="black"/>
</svg>
