<svg width="205" height="210" viewBox="0 0 205 210" fill="none" xmlns="http://www.w3.org/2000/svg">
<g clip-path="url(#clip0)">
<rect width="205" height="210" fill="white"/>
<path opacity="0.3" fill-rule="evenodd" clip-rule="evenodd" d="M10.9578 95.447C10.9578 95.447 -6.3653 131.426 12.3526 162.524C35.0578 200.231 74.36 155.914 105.748 184.399C137.137 212.884 221.278 159.338 189.22 78.0087C157.162 -3.32089 58.4013 -11.5593 10.9578 95.447Z" fill="#FFCFEA"/>
<g clip-path="url(#clip1)">
<path d="M125.624 115.354C130.034 115.613 133.579 118.375 137.47 120.101C146.204 123.812 154.592 128.214 161.942 134.255C161.942 135.723 161.942 137.104 161.942 138.571C160.559 147.978 154.16 153.761 146.809 158.421C135.395 165.757 128.131 175.596 125.883 189.06C125.451 191.476 123.981 192.685 121.819 193.548C118.274 194.929 114.469 194.584 110.923 195.533C104.265 195.533 97.6931 195.533 91.0347 195.533C87.9217 194.497 84.5493 194.842 81.3498 193.634C78.8421 192.685 77.2856 191.304 76.7668 188.542C74.432 175.682 67.6871 165.757 56.4457 158.853C52.6409 156.522 49.2685 153.502 46.242 150.308C43.9072 147.547 42.0913 144.44 40.9671 141.074C39.0648 135.55 39.6701 133.392 44.426 130.113C50.825 125.625 57.8293 122.345 64.8336 119.066C67.6007 117.771 70.4543 116.908 72.962 115.268C74.2591 114.491 75.6426 114.232 77.0262 114.923C78.8421 117.081 80.0527 119.583 81.0904 122.259C81.3498 123.726 80.5716 124.762 79.5339 125.625C73.3079 130.717 67.1683 135.895 59.3858 138.398C65.6983 139.348 69.849 144.957 75.902 146.511C81.0904 148.064 86.2787 148.496 91.64 147.806C93.283 148.841 93.3695 150.654 93.9748 152.207C95.2719 155.487 97.5202 157.99 101.238 157.903C104.697 157.903 106.946 155.487 108.243 152.38C108.935 150.74 109.021 148.669 110.923 147.633C117.149 148.669 123.202 147.633 128.996 145.475C133.579 143.059 137.643 139.779 142.918 138.139C134.357 135.377 127.786 129.854 121.3 124.417C120.695 123.899 120.608 123.208 120.868 122.432C122.684 120.188 123.375 117.253 125.624 115.354Z" fill="#AEE8FE"/>
<path d="M79.0142 124.848C80.3977 124.503 81.003 123.64 80.5707 122.173C81.176 120.188 82.9919 119.411 84.289 118.203C87.3155 115.268 89.9097 112.248 90.0827 107.587C90.1691 104.653 92.0715 102.927 95.271 103.272C98.9893 102.495 102.794 101.632 106.512 103.272C109.452 102.927 112.047 103.962 112.22 106.983C112.566 113.111 116.284 116.995 120.089 121.051C120.521 122.259 120.175 123.726 120.953 124.848C121.732 130.804 124.758 135.809 128.131 140.642C129.255 142.282 131.244 143.836 129.774 146.339C123.634 148.583 117.408 150.481 110.75 148.151C108.674 144.958 109.798 141.851 111.095 138.83C112.998 134.601 114.295 130.286 113.863 125.625C113.344 120.102 109.625 117.599 104.524 119.497C103.054 120.015 101.583 120.619 99.9405 120.274C98.384 119.584 98.0381 118.634 99.4217 117.34C97.9517 117.944 97.0005 119.325 95.271 119.411C89.3044 119.756 88.6126 120.619 88.4397 126.316C88.2667 130.89 89.6503 135.033 91.4662 139.175C92.7633 142.11 93.801 145.13 91.7256 148.151C86.1914 150.309 80.9166 149.1 75.6418 147.202C73.4799 146.166 73.4799 144.095 73.2205 142.11C72.7881 135.55 74.5176 129.768 79.0142 124.848Z" fill="#292929"/>
<path d="M119.656 121.396C115.419 117.685 111.355 114.06 111.614 107.673C111.787 104.566 108.674 104.394 106.686 103.272C113.949 100.683 117.235 102.063 119.57 109.054C120.608 112.161 122.078 114.751 125.71 115.441C124.931 118.203 124.239 120.965 121.386 122.432C121.213 122.432 121.04 122.432 120.867 122.345C120.348 122.087 120.002 121.741 119.656 121.396Z" fill="#FDE1B2"/>
<path d="M95.359 103.272C92.246 104.48 91.2083 106.465 90.8624 109.917C90.2571 115.872 85.5011 119.238 80.6587 122.173C79.1022 120.101 77.2862 118.116 77.1133 115.355C81.264 114.578 82.734 111.384 83.5122 107.76C84.2905 104.048 86.3659 102.063 90.2571 102.15C91.9001 102.754 93.9754 101.546 95.359 103.272Z" fill="#FDE1B2"/>
<path d="M99.7678 119.584C101.324 119.239 102.794 118.721 104.351 118.548C106.167 118.375 107.291 115.096 109.539 117.081C112.393 119.497 115.765 121.396 115.419 126.229C115.16 130.286 114.814 134.256 112.912 137.794C111.182 141.074 110.577 144.44 110.923 148.065C110.404 149.705 110.058 151.344 109.453 152.898C107.983 156.523 105.388 158.939 101.411 158.939C97.26 158.939 94.5794 156.35 93.1958 152.553C92.677 151.085 92.4176 149.532 91.9852 148.065C92.3311 144.613 91.8987 141.333 90.0828 138.14C87.4022 133.306 87.2292 127.955 87.6616 122.604C88.0075 118.721 90.7746 117.426 96.2224 118.634C97.6924 117.771 98.5571 119.066 99.7678 119.584Z" fill="#FDE1B2"/>
<path d="M99.768 119.584C98.5574 119.325 97.3468 118.979 96.2227 118.72C97.4333 117.512 98.9033 116.822 100.719 117.167C100.46 118.03 98.4709 118.203 99.768 119.584Z" fill="#FDE1B2"/>
<path d="M121.3 122.173C120.09 122.777 120.781 124.072 120.349 124.848C119.571 123.813 119.657 122.604 119.657 121.396C120.349 121.31 120.954 121.569 121.3 122.173Z" fill="#A49D99"/>
</g>
</g>
<defs>
<clipPath id="clip0">
<rect width="205" height="210" fill="white"/>
</clipPath>
<clipPath id="clip1">
<rect width="122.791" height="94.0737" fill="white" transform="translate(39.1504 101.459)"/>
</clipPath>
</defs>
</svg>
