<svg width="690" height="373" viewBox="0 0 690 373" fill="none" xmlns="http://www.w3.org/2000/svg">
<rect x="594" width="96" height="373" rx="48" fill="#F3F5F8"/>
<path d="M621.406 300.891C621.469 300.766 621.562 300.661 621.688 300.578C621.823 300.484 621.964 300.438 622.109 300.438C622.307 300.438 622.474 300.505 622.609 300.641C622.755 300.766 622.885 300.938 623 301.156C623.115 301.365 623.224 301.599 623.328 301.859C623.432 302.109 623.547 302.359 623.672 302.609C623.818 302.911 623.964 303.208 624.109 303.5C624.266 303.792 624.417 304.047 624.562 304.266C624.625 303.453 624.724 302.536 624.859 301.516C625.005 300.484 625.135 299.401 625.25 298.266C625.25 298.089 625.302 297.964 625.406 297.891C625.51 297.818 625.62 297.781 625.734 297.781C625.849 297.802 625.953 297.865 626.047 297.969C626.141 298.062 626.188 298.203 626.188 298.391C626.156 298.964 626.109 299.568 626.047 300.203C625.984 300.828 625.911 301.464 625.828 302.109C625.755 302.745 625.672 303.375 625.578 304C625.484 304.625 625.396 305.214 625.312 305.766C625.292 305.911 625.234 306.021 625.141 306.094C625.057 306.177 624.964 306.219 624.859 306.219C624.766 306.219 624.677 306.188 624.594 306.125C624.51 306.073 624.448 305.974 624.406 305.828C624.385 305.807 624.333 305.729 624.25 305.594C624.167 305.448 624.057 305.266 623.922 305.047C623.797 304.818 623.656 304.562 623.5 304.281C623.354 304 623.208 303.719 623.062 303.438C622.917 303.146 622.776 302.87 622.641 302.609C622.505 302.339 622.396 302.099 622.312 301.891C622.292 301.849 622.266 301.807 622.234 301.766C622.203 301.724 622.167 301.703 622.125 301.703C622.083 301.703 621.99 301.839 621.844 302.109C621.708 302.37 621.547 302.698 621.359 303.094C621.172 303.479 620.969 303.891 620.75 304.328C620.542 304.755 620.344 305.141 620.156 305.484C620.083 305.609 619.995 305.693 619.891 305.734C619.797 305.776 619.693 305.797 619.578 305.797C619.318 305.797 619.156 305.651 619.094 305.359C619.021 304.984 618.948 304.557 618.875 304.078C618.812 303.589 618.755 303.083 618.703 302.562C618.651 302.042 618.609 301.521 618.578 301C618.547 300.469 618.531 299.974 618.531 299.516C618.531 299.318 618.531 299.13 618.531 298.953C618.531 298.766 618.547 298.609 618.578 298.484C618.609 298.349 618.661 298.245 618.734 298.172C618.818 298.089 618.938 298.047 619.094 298.047C619.229 298.047 619.339 298.104 619.422 298.219C619.516 298.323 619.562 298.464 619.562 298.641C619.562 298.766 619.557 298.896 619.547 299.031C619.536 299.156 619.531 299.292 619.531 299.438C619.531 299.802 619.542 300.182 619.562 300.578C619.583 300.974 619.609 301.375 619.641 301.781C619.682 302.177 619.729 302.568 619.781 302.953C619.833 303.328 619.885 303.672 619.938 303.984C620.062 303.755 620.193 303.5 620.328 303.219C620.464 302.938 620.594 302.656 620.719 302.375C620.844 302.094 620.964 301.823 621.078 301.562C621.203 301.302 621.312 301.078 621.406 300.891ZM628.797 305.141C628.88 304.62 628.943 304.047 628.984 303.422C629.036 302.797 629.062 302.172 629.062 301.547C629.062 301.047 629.042 300.578 629 300.141C628.958 299.703 628.885 299.349 628.781 299.078C628.75 298.964 628.661 298.901 628.516 298.891C628.37 298.88 628.214 298.875 628.047 298.875C627.891 298.875 627.745 298.849 627.609 298.797C627.474 298.734 627.406 298.599 627.406 298.391C627.406 298.286 627.448 298.193 627.531 298.109C627.625 298.026 627.75 297.984 627.906 297.984C628.115 298.005 628.307 298.021 628.484 298.031C628.672 298.042 628.849 298.047 629.016 298.047C629.255 298.047 629.521 298.021 629.812 297.969C630.115 297.917 630.448 297.891 630.812 297.891C630.938 297.891 631.042 297.932 631.125 298.016C631.208 298.089 631.25 298.177 631.25 298.281C631.25 298.417 631.193 298.526 631.078 298.609C630.974 298.693 630.844 298.755 630.688 298.797C630.531 298.839 630.365 298.865 630.188 298.875C630.01 298.885 629.854 298.891 629.719 298.891C629.823 299.266 629.891 299.734 629.922 300.297C629.964 300.859 629.984 301.438 629.984 302.031C629.984 302.625 629.958 303.203 629.906 303.766C629.865 304.318 629.823 304.771 629.781 305.125C629.938 305.125 630.094 305.115 630.25 305.094C630.417 305.062 630.604 305.047 630.812 305.047C630.938 305.047 631.042 305.089 631.125 305.172C631.208 305.245 631.25 305.323 631.25 305.406C631.25 305.562 631.172 305.682 631.016 305.766C630.859 305.849 630.672 305.911 630.453 305.953C630.234 305.995 630.005 306.016 629.766 306.016C629.526 306.026 629.323 306.031 629.156 306.031C628.979 306.031 628.786 306.031 628.578 306.031C628.38 306.031 628.193 306.016 628.016 305.984C627.839 305.953 627.693 305.901 627.578 305.828C627.464 305.755 627.406 305.646 627.406 305.5C627.406 305.396 627.448 305.307 627.531 305.234C627.625 305.151 627.75 305.109 627.906 305.109C627.979 305.12 628.052 305.13 628.125 305.141C628.208 305.141 628.292 305.141 628.375 305.141H628.797ZM637.625 298.609C637.615 298.578 637.609 298.531 637.609 298.469C637.609 298.323 637.651 298.203 637.734 298.109C637.818 298.016 637.917 297.969 638.031 297.969C638.146 297.969 638.255 298.005 638.359 298.078C638.464 298.151 638.531 298.276 638.562 298.453C638.635 298.891 638.688 299.344 638.719 299.812C638.75 300.281 638.766 300.766 638.766 301.266C638.766 302.078 638.724 302.896 638.641 303.719C638.557 304.531 638.438 305.276 638.281 305.953C638.25 306.099 638.193 306.203 638.109 306.266C638.036 306.328 637.953 306.359 637.859 306.359C637.745 306.359 637.625 306.302 637.5 306.188C637.375 306.083 637.198 305.849 636.969 305.484C636.74 305.12 636.432 304.589 636.047 303.891C635.672 303.193 635.182 302.25 634.578 301.062C634.359 300.625 634.193 300.297 634.078 300.078C633.964 299.859 633.911 299.708 633.922 299.625C633.922 299.51 633.969 299.406 634.062 299.312C634.156 299.208 634.26 299.156 634.375 299.156C634.458 299.156 634.521 299.167 634.562 299.188C634.615 299.198 634.661 299.245 634.703 299.328C634.755 299.401 634.818 299.521 634.891 299.688C634.964 299.844 635.078 300.062 635.234 300.344L636.938 303.578C637.083 303.839 637.208 304.057 637.312 304.234C637.417 304.411 637.5 304.547 637.562 304.641C637.75 303.516 637.844 302.427 637.844 301.375C637.844 300.865 637.823 300.38 637.781 299.922C637.74 299.453 637.688 299.016 637.625 298.609ZM633.719 298.516C633.667 298.922 633.63 299.427 633.609 300.031C633.589 300.625 633.578 301.24 633.578 301.875C633.578 302.542 633.599 303.193 633.641 303.828C633.693 304.453 633.719 305 633.719 305.469C633.719 305.667 633.672 305.823 633.578 305.938C633.484 306.042 633.37 306.094 633.234 306.094C633.151 306.094 633.068 306.057 632.984 305.984C632.911 305.901 632.865 305.776 632.844 305.609C632.771 305.016 632.719 304.349 632.688 303.609C632.667 302.87 632.656 302.125 632.656 301.375C632.656 300.823 632.661 300.297 632.672 299.797C632.693 299.286 632.729 298.818 632.781 298.391C632.792 298.203 632.849 298.073 632.953 298C633.068 297.927 633.182 297.891 633.297 297.891C633.411 297.911 633.51 297.969 633.594 298.062C633.677 298.146 633.719 298.266 633.719 298.422V298.516ZM645.25 298.609C645.24 298.578 645.234 298.531 645.234 298.469C645.234 298.323 645.276 298.203 645.359 298.109C645.443 298.016 645.542 297.969 645.656 297.969C645.771 297.969 645.88 298.005 645.984 298.078C646.089 298.151 646.156 298.276 646.188 298.453C646.26 298.891 646.312 299.344 646.344 299.812C646.375 300.281 646.391 300.766 646.391 301.266C646.391 302.078 646.349 302.896 646.266 303.719C646.182 304.531 646.062 305.276 645.906 305.953C645.875 306.099 645.818 306.203 645.734 306.266C645.661 306.328 645.578 306.359 645.484 306.359C645.37 306.359 645.25 306.302 645.125 306.188C645 306.083 644.823 305.849 644.594 305.484C644.365 305.12 644.057 304.589 643.672 303.891C643.297 303.193 642.807 302.25 642.203 301.062C641.984 300.625 641.818 300.297 641.703 300.078C641.589 299.859 641.536 299.708 641.547 299.625C641.547 299.51 641.594 299.406 641.688 299.312C641.781 299.208 641.885 299.156 642 299.156C642.083 299.156 642.146 299.167 642.188 299.188C642.24 299.198 642.286 299.245 642.328 299.328C642.38 299.401 642.443 299.521 642.516 299.688C642.589 299.844 642.703 300.062 642.859 300.344L644.562 303.578C644.708 303.839 644.833 304.057 644.938 304.234C645.042 304.411 645.125 304.547 645.188 304.641C645.375 303.516 645.469 302.427 645.469 301.375C645.469 300.865 645.448 300.38 645.406 299.922C645.365 299.453 645.312 299.016 645.25 298.609ZM641.344 298.516C641.292 298.922 641.255 299.427 641.234 300.031C641.214 300.625 641.203 301.24 641.203 301.875C641.203 302.542 641.224 303.193 641.266 303.828C641.318 304.453 641.344 305 641.344 305.469C641.344 305.667 641.297 305.823 641.203 305.938C641.109 306.042 640.995 306.094 640.859 306.094C640.776 306.094 640.693 306.057 640.609 305.984C640.536 305.901 640.49 305.776 640.469 305.609C640.396 305.016 640.344 304.349 640.312 303.609C640.292 302.87 640.281 302.125 640.281 301.375C640.281 300.823 640.286 300.297 640.297 299.797C640.318 299.286 640.354 298.818 640.406 298.391C640.417 298.203 640.474 298.073 640.578 298C640.693 297.927 640.807 297.891 640.922 297.891C641.036 297.911 641.135 297.969 641.219 298.062C641.302 298.146 641.344 298.266 641.344 298.422V298.516ZM648.125 298.891C647.958 298.859 647.833 298.802 647.75 298.719C647.667 298.625 647.625 298.531 647.625 298.438C647.625 298.323 647.672 298.219 647.766 298.125C647.859 298.031 648 297.984 648.188 297.984C648.406 298.005 648.63 298.021 648.859 298.031C649.089 298.042 649.318 298.047 649.547 298.047C649.943 298.047 650.323 298.036 650.688 298.016C651.062 297.995 651.406 297.964 651.719 297.922C651.896 297.922 652.031 297.969 652.125 298.062C652.229 298.146 652.281 298.245 652.281 298.359C652.281 298.651 652.036 298.828 651.547 298.891C651.068 298.953 650.302 298.984 649.25 298.984C649.167 299.453 649.104 299.948 649.062 300.469C649.021 300.979 649 301.526 649 302.109C649 302.484 649.005 302.844 649.016 303.188C649.026 303.531 649.042 303.87 649.062 304.203C649.083 304.411 649.12 304.578 649.172 304.703C649.234 304.818 649.318 304.906 649.422 304.969C649.536 305.021 649.677 305.052 649.844 305.062C650.021 305.073 650.24 305.078 650.5 305.078C650.833 305.078 651.161 305.057 651.484 305.016C651.818 304.964 652.135 304.88 652.438 304.766C652.531 304.734 652.62 304.719 652.703 304.719C652.839 304.719 652.932 304.755 652.984 304.828C653.047 304.901 653.078 304.984 653.078 305.078C653.078 305.276 652.984 305.438 652.797 305.562C652.609 305.688 652.385 305.786 652.125 305.859C651.875 305.932 651.609 305.979 651.328 306C651.047 306.031 650.812 306.047 650.625 306.047C650.427 306.047 650.203 306.042 649.953 306.031C649.714 306.031 649.474 306 649.234 305.938C649.005 305.865 648.797 305.75 648.609 305.594C648.422 305.438 648.292 305.214 648.219 304.922C648.146 304.651 648.094 304.318 648.062 303.922C648.031 303.516 648.016 303.083 648.016 302.625C648.016 302.25 648.021 301.88 648.031 301.516C648.052 301.141 648.073 300.786 648.094 300.453C648.115 300.12 648.141 299.823 648.172 299.562C648.203 299.292 648.229 299.078 648.25 298.922C648.198 298.922 648.167 298.917 648.156 298.906C648.156 298.896 648.146 298.891 648.125 298.891ZM650.031 302.578C649.865 302.568 649.75 302.516 649.688 302.422C649.635 302.328 649.609 302.224 649.609 302.109C649.609 302.005 649.651 301.911 649.734 301.828C649.828 301.745 649.948 301.703 650.094 301.703C650.271 301.703 650.448 301.708 650.625 301.719C650.812 301.729 650.995 301.734 651.172 301.734C651.745 301.734 652.312 301.703 652.875 301.641C653.042 301.651 653.167 301.698 653.25 301.781C653.344 301.865 653.396 301.953 653.406 302.047C653.406 302.203 653.328 302.323 653.172 302.406C653.016 302.479 652.828 302.536 652.609 302.578C652.391 302.62 652.161 302.646 651.922 302.656C651.682 302.656 651.474 302.656 651.297 302.656C651.078 302.656 650.865 302.651 650.656 302.641C650.448 302.62 650.24 302.599 650.031 302.578ZM659.75 305.359C659.823 305.464 659.859 305.568 659.859 305.672C659.859 305.807 659.807 305.922 659.703 306.016C659.599 306.109 659.479 306.156 659.344 306.156C659.198 306.156 659.016 306.016 658.797 305.734C658.578 305.453 658.349 305.109 658.109 304.703C657.87 304.297 657.641 303.875 657.422 303.438C657.203 302.99 657.031 302.599 656.906 302.266C656.885 302.224 656.859 302.172 656.828 302.109C656.807 302.036 656.797 301.958 656.797 301.875C656.797 301.771 656.828 301.641 656.891 301.484C656.964 301.328 657.125 301.193 657.375 301.078C657.698 300.922 657.958 300.781 658.156 300.656C658.365 300.531 658.521 300.417 658.625 300.312C658.729 300.198 658.797 300.094 658.828 300C658.87 299.906 658.891 299.818 658.891 299.734C658.891 299.411 658.719 299.177 658.375 299.031C658.042 298.875 657.62 298.797 657.109 298.797C656.901 298.797 656.677 298.807 656.438 298.828C656.208 298.849 655.958 298.88 655.688 298.922C655.771 299.266 655.828 299.672 655.859 300.141C655.901 300.609 655.922 301.109 655.922 301.641C655.922 302.036 655.911 302.432 655.891 302.828C655.88 303.224 655.865 303.599 655.844 303.953C655.823 304.307 655.792 304.63 655.75 304.922C655.719 305.214 655.688 305.453 655.656 305.641C655.635 305.786 655.573 305.896 655.469 305.969C655.375 306.042 655.276 306.078 655.172 306.078C655.057 306.078 654.948 306.042 654.844 305.969C654.75 305.896 654.703 305.786 654.703 305.641C654.703 305.589 654.708 305.547 654.719 305.516C654.792 305.005 654.854 304.406 654.906 303.719C654.958 303.031 654.984 302.344 654.984 301.656C654.984 301.083 654.964 300.552 654.922 300.062C654.88 299.573 654.812 299.182 654.719 298.891C654.667 298.734 654.641 298.615 654.641 298.531C654.641 298.375 654.677 298.255 654.75 298.172C654.823 298.078 654.917 298.031 655.031 298.031C655.094 298.031 655.156 298.047 655.219 298.078H655.25C655.573 298.047 655.88 298.021 656.172 298C656.474 297.979 656.76 297.969 657.031 297.969C657.406 297.969 657.766 297.995 658.109 298.047C658.464 298.099 658.771 298.193 659.031 298.328C659.292 298.464 659.5 298.641 659.656 298.859C659.812 299.078 659.891 299.349 659.891 299.672C659.891 300.026 659.729 300.391 659.406 300.766C659.083 301.13 658.542 301.505 657.781 301.891C657.875 302.13 658 302.417 658.156 302.75C658.323 303.083 658.5 303.417 658.688 303.75C658.885 304.083 659.078 304.396 659.266 304.688C659.453 304.979 659.615 305.203 659.75 305.359ZM662.125 303.516C662.177 303.016 662.234 302.453 662.297 301.828C662.37 301.193 662.406 300.562 662.406 299.938C662.406 299.531 662.385 299.141 662.344 298.766C662.302 298.38 662.229 298.026 662.125 297.703C662.062 297.547 662.031 297.411 662.031 297.297C662.031 297.151 662.062 297.031 662.125 296.938C662.198 296.844 662.292 296.797 662.406 296.797C662.625 296.797 662.797 296.922 662.922 297.172C663.047 297.422 663.146 297.729 663.219 298.094C663.292 298.458 663.339 298.854 663.359 299.281C663.38 299.708 663.391 300.094 663.391 300.438C663.391 301.031 663.359 301.604 663.297 302.156C663.234 302.708 663.167 303.203 663.094 303.641C663.062 303.807 662.995 303.932 662.891 304.016C662.797 304.089 662.698 304.125 662.594 304.125C662.469 304.125 662.354 304.089 662.25 304.016C662.156 303.943 662.109 303.818 662.109 303.641C662.109 303.589 662.115 303.547 662.125 303.516ZM662.062 305.047C662.125 305.026 662.172 305.016 662.203 305.016C662.255 305.016 662.297 305.021 662.328 305.031C662.359 305.042 662.385 305.047 662.406 305.047C662.448 305.047 662.484 305.047 662.516 305.047C662.557 305.036 662.594 305.031 662.625 305.031C662.854 305.031 663.047 305.073 663.203 305.156C663.359 305.229 663.484 305.328 663.578 305.453C663.672 305.568 663.74 305.703 663.781 305.859C663.823 306.005 663.844 306.151 663.844 306.297C663.844 306.453 663.812 306.604 663.75 306.75C663.698 306.906 663.62 307.042 663.516 307.156C663.422 307.281 663.302 307.38 663.156 307.453C663.01 307.536 662.854 307.578 662.688 307.578C662.51 307.578 662.333 307.547 662.156 307.484C661.99 307.422 661.839 307.328 661.703 307.203C661.578 307.089 661.474 306.943 661.391 306.766C661.307 306.589 661.266 306.391 661.266 306.172C661.266 305.911 661.339 305.677 661.484 305.469C661.641 305.25 661.833 305.109 662.062 305.047ZM662.438 305.859H662.281C662.229 305.911 662.188 305.979 662.156 306.062C662.135 306.146 662.125 306.224 662.125 306.297C662.125 306.443 662.177 306.547 662.281 306.609C662.396 306.672 662.51 306.703 662.625 306.703C662.76 306.703 662.865 306.661 662.938 306.578C663.021 306.505 663.062 306.411 663.062 306.297C663.062 306.161 663.026 306.052 662.953 305.969C662.88 305.875 662.75 305.828 662.562 305.828C662.5 305.828 662.458 305.839 662.438 305.859Z" fill="#7490FF"/>
<path d="M653.062 316.812L651.375 317.375L649.125 324.688V326.375V327.5L648.795 328.159C649.005 327.604 649.125 327.004 649.125 326.375C649.125 326.228 649.115 326.082 649.103 325.938C649.09 325.802 649.072 325.668 649.05 325.535C648.649 323.14 646.572 321.312 644.062 321.312C641.266 321.312 639 323.579 639 326.375C639 327.261 639.229 328.093 639.628 328.817C639.721 328.984 639.824 329.145 639.935 329.3C639.941 329.308 639.947 329.315 639.952 329.322C640.059 329.472 640.174 329.614 640.297 329.75C640.351 329.81 640.41 329.864 640.466 329.92C640.531 329.985 640.591 330.053 640.659 330.114C640.592 330.053 640.531 329.985 640.466 329.92L640.219 329.797L640.297 329.75L638.349 330.923L638.525 330.816L636.75 332L635.799 333.426C635.797 333.433 635.793 333.439 635.791 333.446C635.686 333.773 635.625 334.117 635.625 334.47V341C635.625 341.932 636.38 342.688 637.312 342.688H639V348.312V348.875H651.938V329.75L655.312 319.062L654.75 317.375L653.062 316.812ZM648.327 329.095L648 329.75L647.503 330.081C647.818 329.789 648.095 329.459 648.327 329.095ZM642.856 331.287C642.732 331.256 642.608 331.224 642.488 331.184C642.608 331.224 642.732 331.256 642.856 331.287ZM644.062 331.438C643.881 331.438 643.701 331.427 643.524 331.408C643.701 331.427 643.881 331.438 644.062 331.438ZM644.39 331.421C644.531 331.412 644.67 331.397 644.808 331.377L644.625 331.438L644.39 331.421ZM643.381 331.386C643.252 331.369 643.124 331.35 642.999 331.323C643.124 331.35 643.252 331.369 643.381 331.386ZM640.669 330.124C640.79 330.234 640.918 330.338 641.049 330.436C640.918 330.338 640.79 330.234 640.669 330.124ZM641.523 330.75C641.647 330.823 641.775 330.889 641.906 330.95C641.776 330.888 641.648 330.823 641.523 330.75ZM641.994 330.993C642.116 331.048 642.242 331.095 642.368 331.141C642.242 331.095 642.116 331.048 641.994 330.993ZM649.125 342.125H645.312C645.379 342.05 645.44 341.971 645.493 341.885C645.494 341.884 645.495 341.883 645.495 341.881C645.546 341.798 645.592 341.711 645.629 341.619C645.639 341.594 645.644 341.567 645.653 341.542C645.677 341.47 645.703 341.399 645.717 341.324C645.738 341.219 645.75 341.111 645.75 341C645.75 340.068 644.995 339.312 644.062 339.312H642.375V336.5C642.375 337.122 642.878 337.625 643.5 337.625H649.125V342.125Z" fill="#F9F5EF"/>
<path d="M642.375 336.5V339.312H644.062C644.995 339.312 645.75 340.068 645.75 341C645.75 341.111 645.738 341.219 645.717 341.324C645.703 341.399 645.677 341.47 645.653 341.542C645.644 341.567 645.639 341.594 645.629 341.619C645.592 341.711 645.547 341.798 645.495 341.881C645.495 341.883 645.494 341.884 645.493 341.885C645.44 341.971 645.379 342.05 645.312 342.125H649.125V337.625H643.5C642.878 337.625 642.375 337.122 642.375 336.5Z" fill="#06AAE9"/>
<path d="M627.188 317.938C625.945 317.938 624.938 316.93 624.938 315.688C624.938 316.93 623.93 317.938 622.688 317.938C623.93 317.938 624.938 318.945 624.938 320.188C624.938 318.945 625.945 317.938 627.188 317.938Z" fill="#F8CF26"/>
<path d="M633.938 324.125C632.695 324.125 631.688 323.118 631.688 321.875C631.688 323.118 630.68 324.125 629.438 324.125C630.68 324.125 631.688 325.132 631.688 326.375C631.688 325.132 632.695 324.125 633.938 324.125Z" fill="#F8CF26"/>
<path d="M637.312 342.687C636.38 342.687 635.625 341.932 635.625 341V334.47C635.625 334.116 635.686 333.773 635.791 333.445C635.793 333.439 635.797 333.432 635.799 333.426C636.047 332.665 636.554 332.003 637.26 331.578L638.349 330.923L640.297 329.75C640.175 329.614 640.059 329.471 639.952 329.322C639.946 329.315 639.94 329.308 639.935 329.3C639.823 329.145 639.721 328.984 639.628 328.817C635.229 328.556 630.849 330.217 627.718 333.513L622.688 337.625L626.93 342.302C628.922 345.289 632.109 347.32 635.625 347.75L639 348.312V342.687H637.312Z" fill="#F4462D"/>
<path d="M638.348 330.923L637.259 331.579L638.348 330.923Z" fill="#F9F5EF"/>
<path d="M627.188 317.375C626.257 317.375 625.5 316.618 625.5 315.688C625.5 315.376 625.248 315.125 624.938 315.125C624.627 315.125 624.375 315.376 624.375 315.688C624.375 316.618 623.618 317.375 622.688 317.375C622.377 317.375 622.125 317.626 622.125 317.938C622.125 318.249 622.377 318.5 622.688 318.5C623.618 318.5 624.375 319.257 624.375 320.188C624.375 320.499 624.627 320.75 624.938 320.75C625.248 320.75 625.5 320.499 625.5 320.188C625.5 319.257 626.257 318.5 627.188 318.5C627.498 318.5 627.75 318.249 627.75 317.938C627.75 317.626 627.498 317.375 627.188 317.375ZM624.938 318.502C624.777 318.288 624.587 318.098 624.373 317.938C624.587 317.777 624.777 317.587 624.938 317.373C625.098 317.587 625.289 317.777 625.502 317.938C625.289 318.098 625.098 318.288 624.938 318.502Z" fill="black"/>
<path d="M629.438 323.562C629.127 323.562 628.875 323.814 628.875 324.125C628.875 324.436 629.127 324.688 629.438 324.688C630.368 324.688 631.125 325.445 631.125 326.375C631.125 326.686 631.377 326.938 631.688 326.938C631.998 326.938 632.25 326.686 632.25 326.375C632.25 325.445 633.007 324.688 633.938 324.688C634.248 324.688 634.5 324.436 634.5 324.125C634.5 323.814 634.248 323.562 633.938 323.562C633.007 323.562 632.25 322.805 632.25 321.875C632.25 321.564 631.998 321.312 631.688 321.312C631.377 321.312 631.125 321.564 631.125 321.875C631.125 322.805 630.368 323.562 629.438 323.562ZM631.688 323.561C631.848 323.775 632.039 323.965 632.252 324.125C632.039 324.285 631.848 324.475 631.688 324.689C631.527 324.475 631.336 324.285 631.123 324.125C631.336 323.965 631.527 323.775 631.688 323.561Z" fill="black"/>
<path d="M632.25 315.688H631.125V316.812H632.25V315.688Z" fill="black"/>
<path d="M638.438 319.062H637.312V320.188H638.438V319.062Z" fill="black"/>
<path d="M624.375 328.625H623.25V329.75H624.375V328.625Z" fill="black"/>
<path d="M626.062 323H624.938V324.125H626.062V323Z" fill="black"/>
<path d="M647.438 315.688H646.312V316.812H647.438V315.688Z" fill="black"/>
<path d="M622.332 337.19C622.212 337.288 622.138 337.43 622.127 337.583C622.115 337.737 622.167 337.889 622.271 338.003L626.486 342.65C628.601 345.801 631.905 347.863 635.532 348.305L638.907 348.868C638.938 348.872 638.969 348.875 639 348.875C639.132 348.875 639.261 348.828 639.363 348.742C639.49 348.635 639.563 348.478 639.563 348.313V343.25H644.063C644.628 343.25 645.139 343.034 645.535 342.688H649.125C649.436 342.688 649.688 342.436 649.688 342.125V337.625V335.375C649.688 335.064 649.436 334.813 649.125 334.813H643.5C642.57 334.813 641.813 335.57 641.813 336.5V338.75H640.125V336.5H639V339.313C639 339.624 639.252 339.875 639.563 339.875H642.375H644.063C644.683 339.875 645.188 340.38 645.188 341C645.188 341.072 645.179 341.141 645.166 341.209C645.155 341.265 645.138 341.32 645.118 341.374C645.115 341.383 645.113 341.392 645.11 341.401C645.06 341.526 644.987 341.644 644.894 341.749C644.891 341.752 644.889 341.757 644.887 341.76C644.681 341.983 644.389 342.125 644.063 342.125H639H637.313C636.692 342.125 636.188 341.621 636.188 341V334.471C636.188 333.49 636.71 332.567 637.549 332.061L640.206 330.462C640.225 330.48 640.245 330.495 640.265 330.512C640.37 330.609 640.477 330.703 640.59 330.791C640.616 330.812 640.642 330.83 640.668 330.85C640.785 330.939 640.905 331.025 641.028 331.105C641.051 331.119 641.074 331.132 641.097 331.146C641.225 331.227 641.356 331.303 641.491 331.373C641.512 331.383 641.532 331.392 641.553 331.402C641.691 331.471 641.83 331.536 641.974 331.594C641.996 331.603 642.019 331.61 642.042 331.619C642.183 331.673 642.326 331.724 642.473 331.768C642.506 331.778 642.54 331.785 642.574 331.794C642.71 331.831 642.846 331.867 642.985 331.894C643.051 331.907 643.118 331.914 643.184 331.925C643.294 331.942 643.402 331.962 643.514 331.973C643.696 331.991 643.879 332 644.063 332C647.164 332 649.688 329.477 649.688 326.375C649.688 326.225 649.679 326.07 649.664 325.912C649.655 325.799 649.64 325.688 649.624 325.577C649.622 325.562 649.621 325.549 649.619 325.535C649.657 325.288 649.678 325.052 649.684 324.816L651.842 317.861C652.609 317.303 653.427 317.221 654.052 317.646C654.634 318.043 654.886 318.76 654.678 319.432L651.4 329.991C651.384 330.045 651.375 330.101 651.375 330.158V348.875H652.5V330.243L655.752 319.765C656.108 318.619 655.679 317.394 654.685 316.717C653.844 316.143 652.437 315.938 651.004 317.087C650.921 317.156 650.852 317.259 650.82 317.362L648.906 323.529C647.926 321.869 646.125 320.75 644.063 320.75C640.961 320.75 638.438 323.273 638.438 326.375C638.438 327.025 638.554 327.647 638.758 328.229C634.451 328.22 630.327 329.965 627.336 333.1L622.332 337.19ZM643.5 335.938H648.563V337.063H643.5C643.19 337.063 642.938 336.811 642.938 336.5C642.938 336.19 643.19 335.938 643.5 335.938ZM644.063 338.75H642.938V338.091C642.986 338.108 643.038 338.118 643.088 338.131C643.12 338.139 643.15 338.149 643.183 338.156C643.286 338.175 643.392 338.188 643.5 338.188H648.563V341.563H646.24C646.245 341.542 646.247 341.522 646.252 341.501C646.26 341.466 646.266 341.43 646.273 341.395C646.296 341.265 646.313 341.133 646.313 341C646.313 339.759 645.303 338.75 644.063 338.75ZM644.063 321.875C646.288 321.875 648.136 323.5 648.495 325.625C648.495 325.626 648.495 325.626 648.495 325.628C648.516 325.758 648.532 325.881 648.543 326C648.554 326.124 648.563 326.249 648.563 326.375C648.563 328.856 646.544 330.875 644.063 330.875C643.904 330.875 643.746 330.867 643.59 330.85C643.585 330.849 643.58 330.848 643.575 330.848C642.955 330.779 642.358 330.581 641.821 330.271C641.815 330.268 641.809 330.264 641.803 330.26C641.677 330.186 641.554 330.106 641.435 330.02C641.423 330.011 641.412 330.002 641.399 329.993C641.287 329.91 641.179 329.823 641.074 329.729C641.059 329.716 641.045 329.703 641.031 329.69C640.93 329.598 640.832 329.5 640.739 329.397C640.73 329.388 640.721 329.378 640.713 329.368C640.609 329.252 640.514 329.133 640.425 329.012C640.41 328.992 640.395 328.973 640.38 328.952C640.301 328.841 640.23 328.726 640.164 328.61C639.783 327.952 639.563 327.19 639.563 326.375C639.563 323.894 641.581 321.875 644.063 321.875ZM628.126 333.901C631.031 330.842 635.095 329.195 639.299 329.364C639.321 329.4 639.347 329.435 639.37 329.471C639.389 329.5 639.408 329.528 639.429 329.557C639.438 329.571 639.447 329.585 639.457 329.599L636.969 331.097C636.252 331.528 635.704 332.178 635.383 332.93C633.862 333.127 632.481 333.865 631.481 335.034L629.573 337.259L630.428 337.991L632.335 335.765C633.056 334.925 634.017 334.356 635.086 334.121C635.075 334.237 635.063 334.353 635.063 334.471V341C635.063 342.241 636.072 343.25 637.313 343.25H638.438V347.648L635.693 347.192C632.354 346.783 629.33 344.888 627.399 341.99C627.383 341.967 627.366 341.945 627.347 341.924L623.502 337.686L628.075 333.949C628.093 333.934 628.111 333.918 628.126 333.901Z" fill="black"/>
<path d="M240.578 114.812H235.414L234.242 118H233.234L237.539 106.625H238.453L242.758 118H241.758L240.578 114.812ZM235.711 113.992H240.273L237.992 107.797L235.711 113.992ZM246.461 116.711L249.031 109.547H249.992L246.836 118H246.078L242.906 109.547H243.867L246.461 116.711ZM254.695 118.156C253.977 118.156 253.326 117.979 252.742 117.625C252.164 117.271 251.714 116.779 251.391 116.148C251.068 115.513 250.906 114.802 250.906 114.016V113.68C250.906 112.867 251.062 112.135 251.375 111.484C251.693 110.833 252.133 110.323 252.695 109.953C253.258 109.578 253.867 109.391 254.523 109.391C255.549 109.391 256.362 109.742 256.961 110.445C257.565 111.143 257.867 112.099 257.867 113.312V113.836H251.836V114.016C251.836 114.974 252.109 115.773 252.656 116.414C253.208 117.049 253.901 117.367 254.734 117.367C255.234 117.367 255.674 117.276 256.055 117.094C256.44 116.911 256.789 116.62 257.102 116.219L257.688 116.664C257 117.659 256.003 118.156 254.695 118.156ZM254.523 110.188C253.82 110.188 253.227 110.445 252.742 110.961C252.263 111.477 251.971 112.169 251.867 113.039H256.938V112.938C256.911 112.125 256.68 111.464 256.242 110.953C255.805 110.443 255.232 110.188 254.523 110.188ZM263.594 110.344C263.396 110.307 263.185 110.289 262.961 110.289C262.378 110.289 261.883 110.453 261.477 110.781C261.076 111.104 260.789 111.576 260.617 112.195V118H259.688V109.547H260.602L260.617 110.891C261.112 109.891 261.906 109.391 263 109.391C263.26 109.391 263.466 109.424 263.617 109.492L263.594 110.344ZM270.102 118C270.008 117.734 269.948 117.341 269.922 116.82C269.594 117.247 269.174 117.578 268.664 117.812C268.159 118.042 267.622 118.156 267.055 118.156C266.242 118.156 265.583 117.93 265.078 117.477C264.578 117.023 264.328 116.451 264.328 115.758C264.328 114.935 264.669 114.284 265.352 113.805C266.039 113.326 266.995 113.086 268.219 113.086H269.914V112.125C269.914 111.521 269.727 111.047 269.352 110.703C268.982 110.354 268.44 110.18 267.727 110.18C267.076 110.18 266.536 110.346 266.109 110.68C265.682 111.013 265.469 111.414 265.469 111.883L264.531 111.875C264.531 111.203 264.844 110.622 265.469 110.133C266.094 109.638 266.862 109.391 267.773 109.391C268.716 109.391 269.458 109.628 270 110.102C270.547 110.57 270.828 111.227 270.844 112.07V116.07C270.844 116.888 270.93 117.5 271.102 117.906V118H270.102ZM267.164 117.328C267.789 117.328 268.346 117.177 268.836 116.875C269.331 116.573 269.69 116.169 269.914 115.664V113.805H268.242C267.31 113.815 266.581 113.987 266.055 114.32C265.529 114.648 265.266 115.102 265.266 115.68C265.266 116.154 265.44 116.547 265.789 116.859C266.143 117.172 266.602 117.328 267.164 117.328ZM272.969 113.695C272.969 112.372 273.26 111.326 273.844 110.555C274.432 109.779 275.229 109.391 276.234 109.391C277.385 109.391 278.26 109.849 278.859 110.766L278.906 109.547H279.781V117.828C279.781 118.917 279.477 119.779 278.867 120.414C278.258 121.049 277.432 121.367 276.391 121.367C275.802 121.367 275.24 121.234 274.703 120.969C274.172 120.708 273.753 120.359 273.445 119.922L273.969 119.359C274.63 120.172 275.417 120.578 276.328 120.578C277.109 120.578 277.719 120.346 278.156 119.883C278.594 119.424 278.82 118.786 278.836 117.969V116.906C278.237 117.74 277.365 118.156 276.219 118.156C275.24 118.156 274.453 117.766 273.859 116.984C273.266 116.203 272.969 115.148 272.969 113.82V113.695ZM273.914 113.859C273.914 114.938 274.13 115.789 274.562 116.414C274.995 117.034 275.604 117.344 276.391 117.344C277.542 117.344 278.357 116.828 278.836 115.797V111.867C278.617 111.326 278.302 110.914 277.891 110.633C277.479 110.346 276.984 110.203 276.406 110.203C275.62 110.203 275.008 110.513 274.57 111.133C274.133 111.747 273.914 112.656 273.914 113.859ZM285.492 118.156C284.773 118.156 284.122 117.979 283.539 117.625C282.961 117.271 282.51 116.779 282.188 116.148C281.865 115.513 281.703 114.802 281.703 114.016V113.68C281.703 112.867 281.859 112.135 282.172 111.484C282.49 110.833 282.93 110.323 283.492 109.953C284.055 109.578 284.664 109.391 285.32 109.391C286.346 109.391 287.159 109.742 287.758 110.445C288.362 111.143 288.664 112.099 288.664 113.312V113.836H282.633V114.016C282.633 114.974 282.906 115.773 283.453 116.414C284.005 117.049 284.698 117.367 285.531 117.367C286.031 117.367 286.471 117.276 286.852 117.094C287.237 116.911 287.586 116.62 287.898 116.219L288.484 116.664C287.797 117.659 286.799 118.156 285.492 118.156ZM285.32 110.188C284.617 110.188 284.023 110.445 283.539 110.961C283.06 111.477 282.768 112.169 282.664 113.039H287.734V112.938C287.708 112.125 287.477 111.464 287.039 110.953C286.602 110.443 286.029 110.188 285.32 110.188ZM295.766 118H294.805V106.625H295.766V118ZM299.531 109.547L299.562 110.992C299.88 110.471 300.276 110.076 300.75 109.805C301.224 109.529 301.747 109.391 302.32 109.391C303.227 109.391 303.901 109.646 304.344 110.156C304.786 110.667 305.01 111.432 305.016 112.453V118H304.086V112.445C304.081 111.69 303.919 111.128 303.602 110.758C303.289 110.388 302.786 110.203 302.094 110.203C301.516 110.203 301.003 110.385 300.555 110.75C300.112 111.109 299.784 111.596 299.57 112.211V118H298.641V109.547H299.531ZM308.891 107.383V109.547H310.641V110.312H308.891V115.945C308.891 116.414 308.974 116.763 309.141 116.992C309.312 117.221 309.596 117.336 309.992 117.336C310.148 117.336 310.401 117.31 310.75 117.258L310.789 118.023C310.544 118.112 310.211 118.156 309.789 118.156C309.148 118.156 308.682 117.971 308.391 117.602C308.099 117.227 307.953 116.677 307.953 115.953V110.312H306.398V109.547H307.953V107.383H308.891ZM315.852 118.156C315.133 118.156 314.482 117.979 313.898 117.625C313.32 117.271 312.87 116.779 312.547 116.148C312.224 115.513 312.062 114.802 312.062 114.016V113.68C312.062 112.867 312.219 112.135 312.531 111.484C312.849 110.833 313.289 110.323 313.852 109.953C314.414 109.578 315.023 109.391 315.68 109.391C316.706 109.391 317.518 109.742 318.117 110.445C318.721 111.143 319.023 112.099 319.023 113.312V113.836H312.992V114.016C312.992 114.974 313.266 115.773 313.812 116.414C314.365 117.049 315.057 117.367 315.891 117.367C316.391 117.367 316.831 117.276 317.211 117.094C317.596 116.911 317.945 116.62 318.258 116.219L318.844 116.664C318.156 117.659 317.159 118.156 315.852 118.156ZM315.68 110.188C314.977 110.188 314.383 110.445 313.898 110.961C313.419 111.477 313.128 112.169 313.023 113.039H318.094V112.938C318.068 112.125 317.836 111.464 317.398 110.953C316.961 110.443 316.388 110.188 315.68 110.188ZM324.75 110.344C324.552 110.307 324.341 110.289 324.117 110.289C323.534 110.289 323.039 110.453 322.633 110.781C322.232 111.104 321.945 111.576 321.773 112.195V118H320.844V109.547H321.758L321.773 110.891C322.268 109.891 323.062 109.391 324.156 109.391C324.417 109.391 324.622 109.424 324.773 109.492L324.75 110.344ZM331.258 118C331.164 117.734 331.104 117.341 331.078 116.82C330.75 117.247 330.331 117.578 329.82 117.812C329.315 118.042 328.779 118.156 328.211 118.156C327.398 118.156 326.74 117.93 326.234 117.477C325.734 117.023 325.484 116.451 325.484 115.758C325.484 114.935 325.826 114.284 326.508 113.805C327.195 113.326 328.151 113.086 329.375 113.086H331.07V112.125C331.07 111.521 330.883 111.047 330.508 110.703C330.138 110.354 329.596 110.18 328.883 110.18C328.232 110.18 327.693 110.346 327.266 110.68C326.839 111.013 326.625 111.414 326.625 111.883L325.688 111.875C325.688 111.203 326 110.622 326.625 110.133C327.25 109.638 328.018 109.391 328.93 109.391C329.872 109.391 330.615 109.628 331.156 110.102C331.703 110.57 331.984 111.227 332 112.07V116.07C332 116.888 332.086 117.5 332.258 117.906V118H331.258ZM328.32 117.328C328.945 117.328 329.503 117.177 329.992 116.875C330.487 116.573 330.846 116.169 331.07 115.664V113.805H329.398C328.466 113.815 327.737 113.987 327.211 114.32C326.685 114.648 326.422 115.102 326.422 115.68C326.422 116.154 326.596 116.547 326.945 116.859C327.299 117.172 327.758 117.328 328.32 117.328ZM337.625 117.367C338.276 117.367 338.82 117.185 339.258 116.82C339.701 116.451 339.94 115.974 339.977 115.391H340.875C340.849 115.906 340.688 116.378 340.391 116.805C340.094 117.227 339.698 117.557 339.203 117.797C338.714 118.036 338.188 118.156 337.625 118.156C336.516 118.156 335.635 117.771 334.984 117C334.339 116.229 334.016 115.193 334.016 113.891V113.609C334.016 112.776 334.161 112.039 334.453 111.398C334.745 110.758 335.161 110.263 335.703 109.914C336.25 109.565 336.888 109.391 337.617 109.391C338.544 109.391 339.307 109.667 339.906 110.219C340.51 110.771 340.833 111.497 340.875 112.398H339.977C339.935 111.737 339.695 111.203 339.258 110.797C338.826 110.391 338.279 110.188 337.617 110.188C336.773 110.188 336.117 110.492 335.648 111.102C335.185 111.711 334.953 112.565 334.953 113.664V113.938C334.953 115.016 335.185 115.857 335.648 116.461C336.117 117.065 336.776 117.367 337.625 117.367ZM344.203 107.383V109.547H345.953V110.312H344.203V115.945C344.203 116.414 344.286 116.763 344.453 116.992C344.625 117.221 344.909 117.336 345.305 117.336C345.461 117.336 345.714 117.31 346.062 117.258L346.102 118.023C345.857 118.112 345.523 118.156 345.102 118.156C344.461 118.156 343.995 117.971 343.703 117.602C343.411 117.227 343.266 116.677 343.266 115.953V110.312H341.711V109.547H343.266V107.383H344.203ZM348.938 118H348V109.547H348.938V118ZM347.836 107.102C347.836 106.924 347.893 106.776 348.008 106.656C348.122 106.531 348.279 106.469 348.477 106.469C348.674 106.469 348.831 106.531 348.945 106.656C349.065 106.776 349.125 106.924 349.125 107.102C349.125 107.279 349.065 107.427 348.945 107.547C348.831 107.667 348.674 107.727 348.477 107.727C348.279 107.727 348.122 107.667 348.008 107.547C347.893 107.427 347.836 107.279 347.836 107.102ZM350.969 113.648C350.969 112.836 351.125 112.104 351.438 111.453C351.755 110.802 352.201 110.297 352.773 109.938C353.352 109.573 354.005 109.391 354.734 109.391C355.859 109.391 356.771 109.786 357.469 110.578C358.167 111.365 358.516 112.409 358.516 113.711V113.906C358.516 114.724 358.357 115.461 358.039 116.117C357.727 116.768 357.284 117.271 356.711 117.625C356.138 117.979 355.484 118.156 354.75 118.156C353.63 118.156 352.719 117.763 352.016 116.977C351.318 116.185 350.969 115.138 350.969 113.836V113.648ZM351.906 113.906C351.906 114.917 352.167 115.747 352.688 116.398C353.214 117.044 353.901 117.367 354.75 117.367C355.594 117.367 356.276 117.044 356.797 116.398C357.323 115.747 357.586 114.891 357.586 113.828V113.648C357.586 113.003 357.466 112.411 357.227 111.875C356.987 111.339 356.651 110.924 356.219 110.633C355.786 110.336 355.292 110.188 354.734 110.188C353.901 110.188 353.221 110.516 352.695 111.172C352.169 111.823 351.906 112.677 351.906 113.734V113.906ZM361.344 109.547L361.375 110.992C361.693 110.471 362.089 110.076 362.562 109.805C363.036 109.529 363.56 109.391 364.133 109.391C365.039 109.391 365.714 109.646 366.156 110.156C366.599 110.667 366.823 111.432 366.828 112.453V118H365.898V112.445C365.893 111.69 365.732 111.128 365.414 110.758C365.102 110.388 364.599 110.203 363.906 110.203C363.328 110.203 362.815 110.385 362.367 110.75C361.924 111.109 361.596 111.596 361.383 112.211V118H360.453V109.547H361.344ZM379.5 114.812H374.336L373.164 118H372.156L376.461 106.625H377.375L381.68 118H380.68L379.5 114.812ZM374.633 113.992H379.195L376.914 107.797L374.633 113.992ZM386.266 117.367C386.917 117.367 387.461 117.185 387.898 116.82C388.341 116.451 388.581 115.974 388.617 115.391H389.516C389.49 115.906 389.328 116.378 389.031 116.805C388.734 117.227 388.339 117.557 387.844 117.797C387.354 118.036 386.828 118.156 386.266 118.156C385.156 118.156 384.276 117.771 383.625 117C382.979 116.229 382.656 115.193 382.656 113.891V113.609C382.656 112.776 382.802 112.039 383.094 111.398C383.385 110.758 383.802 110.263 384.344 109.914C384.891 109.565 385.529 109.391 386.258 109.391C387.185 109.391 387.948 109.667 388.547 110.219C389.151 110.771 389.474 111.497 389.516 112.398H388.617C388.576 111.737 388.336 111.203 387.898 110.797C387.466 110.391 386.919 110.188 386.258 110.188C385.414 110.188 384.758 110.492 384.289 111.102C383.826 111.711 383.594 112.565 383.594 113.664V113.938C383.594 115.016 383.826 115.857 384.289 116.461C384.758 117.065 385.417 117.367 386.266 117.367ZM392.844 107.383V109.547H394.594V110.312H392.844V115.945C392.844 116.414 392.927 116.763 393.094 116.992C393.266 117.221 393.549 117.336 393.945 117.336C394.102 117.336 394.354 117.31 394.703 117.258L394.742 118.023C394.497 118.112 394.164 118.156 393.742 118.156C393.102 118.156 392.635 117.971 392.344 117.602C392.052 117.227 391.906 116.677 391.906 115.953V110.312H390.352V109.547H391.906V107.383H392.844ZM397.578 118H396.641V109.547H397.578V118ZM396.477 107.102C396.477 106.924 396.534 106.776 396.648 106.656C396.763 106.531 396.919 106.469 397.117 106.469C397.315 106.469 397.471 106.531 397.586 106.656C397.706 106.776 397.766 106.924 397.766 107.102C397.766 107.279 397.706 107.427 397.586 107.547C397.471 107.667 397.315 107.727 397.117 107.727C396.919 107.727 396.763 107.667 396.648 107.547C396.534 107.427 396.477 107.279 396.477 107.102ZM399.609 113.648C399.609 112.836 399.766 112.104 400.078 111.453C400.396 110.802 400.841 110.297 401.414 109.938C401.992 109.573 402.646 109.391 403.375 109.391C404.5 109.391 405.411 109.786 406.109 110.578C406.807 111.365 407.156 112.409 407.156 113.711V113.906C407.156 114.724 406.997 115.461 406.68 116.117C406.367 116.768 405.924 117.271 405.352 117.625C404.779 117.979 404.125 118.156 403.391 118.156C402.271 118.156 401.359 117.763 400.656 116.977C399.958 116.185 399.609 115.138 399.609 113.836V113.648ZM400.547 113.906C400.547 114.917 400.807 115.747 401.328 116.398C401.854 117.044 402.542 117.367 403.391 117.367C404.234 117.367 404.917 117.044 405.438 116.398C405.964 115.747 406.227 114.891 406.227 113.828V113.648C406.227 113.003 406.107 112.411 405.867 111.875C405.628 111.339 405.292 110.924 404.859 110.633C404.427 110.336 403.932 110.188 403.375 110.188C402.542 110.188 401.862 110.516 401.336 111.172C400.81 111.823 400.547 112.677 400.547 113.734V113.906ZM409.984 109.547L410.016 110.992C410.333 110.471 410.729 110.076 411.203 109.805C411.677 109.529 412.201 109.391 412.773 109.391C413.68 109.391 414.354 109.646 414.797 110.156C415.24 110.667 415.464 111.432 415.469 112.453V118H414.539V112.445C414.534 111.69 414.372 111.128 414.055 110.758C413.742 110.388 413.24 110.203 412.547 110.203C411.969 110.203 411.456 110.385 411.008 110.75C410.565 111.109 410.237 111.596 410.023 112.211V118H409.094V109.547H409.984ZM422.953 115.852C422.953 115.388 422.766 115.016 422.391 114.734C422.021 114.453 421.461 114.234 420.711 114.078C419.961 113.917 419.378 113.734 418.961 113.531C418.549 113.323 418.242 113.07 418.039 112.773C417.841 112.477 417.742 112.117 417.742 111.695C417.742 111.029 418.021 110.479 418.578 110.047C419.135 109.609 419.849 109.391 420.719 109.391C421.661 109.391 422.417 109.625 422.984 110.094C423.557 110.557 423.844 111.164 423.844 111.914H422.906C422.906 111.419 422.698 111.008 422.281 110.68C421.87 110.352 421.349 110.188 420.719 110.188C420.104 110.188 419.609 110.326 419.234 110.602C418.865 110.872 418.68 111.227 418.68 111.664C418.68 112.086 418.833 112.414 419.141 112.648C419.453 112.878 420.018 113.089 420.836 113.281C421.659 113.474 422.273 113.68 422.68 113.898C423.091 114.117 423.396 114.38 423.594 114.688C423.792 114.995 423.891 115.367 423.891 115.805C423.891 116.518 423.602 117.089 423.023 117.516C422.451 117.943 421.701 118.156 420.773 118.156C419.789 118.156 418.99 117.919 418.375 117.445C417.766 116.966 417.461 116.362 417.461 115.633H418.398C418.435 116.18 418.664 116.607 419.086 116.914C419.513 117.216 420.076 117.367 420.773 117.367C421.424 117.367 421.951 117.224 422.352 116.938C422.753 116.651 422.953 116.289 422.953 115.852ZM242.273 130.625V138.391C242.268 139.156 242.099 139.823 241.766 140.391C241.432 140.958 240.961 141.396 240.352 141.703C239.747 142.005 239.052 142.156 238.266 142.156C237.068 142.156 236.107 141.831 235.383 141.18C234.664 140.523 234.292 139.617 234.266 138.461V130.625H235.219V138.32C235.219 139.279 235.492 140.023 236.039 140.555C236.586 141.081 237.328 141.344 238.266 141.344C239.203 141.344 239.943 141.078 240.484 140.547C241.031 140.016 241.305 139.276 241.305 138.328V130.625H242.273ZM249.797 139.852C249.797 139.388 249.609 139.016 249.234 138.734C248.865 138.453 248.305 138.234 247.555 138.078C246.805 137.917 246.221 137.734 245.805 137.531C245.393 137.323 245.086 137.07 244.883 136.773C244.685 136.477 244.586 136.117 244.586 135.695C244.586 135.029 244.865 134.479 245.422 134.047C245.979 133.609 246.693 133.391 247.562 133.391C248.505 133.391 249.26 133.625 249.828 134.094C250.401 134.557 250.688 135.164 250.688 135.914H249.75C249.75 135.419 249.542 135.008 249.125 134.68C248.714 134.352 248.193 134.188 247.562 134.188C246.948 134.188 246.453 134.326 246.078 134.602C245.708 134.872 245.523 135.227 245.523 135.664C245.523 136.086 245.677 136.414 245.984 136.648C246.297 136.878 246.862 137.089 247.68 137.281C248.503 137.474 249.117 137.68 249.523 137.898C249.935 138.117 250.24 138.38 250.438 138.688C250.635 138.995 250.734 139.367 250.734 139.805C250.734 140.518 250.445 141.089 249.867 141.516C249.294 141.943 248.544 142.156 247.617 142.156C246.633 142.156 245.833 141.919 245.219 141.445C244.609 140.966 244.305 140.362 244.305 139.633H245.242C245.279 140.18 245.508 140.607 245.93 140.914C246.357 141.216 246.919 141.367 247.617 141.367C248.268 141.367 248.794 141.224 249.195 140.938C249.596 140.651 249.797 140.289 249.797 139.852ZM256.117 142.156C255.398 142.156 254.747 141.979 254.164 141.625C253.586 141.271 253.135 140.779 252.812 140.148C252.49 139.513 252.328 138.802 252.328 138.016V137.68C252.328 136.867 252.484 136.135 252.797 135.484C253.115 134.833 253.555 134.323 254.117 133.953C254.68 133.578 255.289 133.391 255.945 133.391C256.971 133.391 257.784 133.742 258.383 134.445C258.987 135.143 259.289 136.099 259.289 137.312V137.836H253.258V138.016C253.258 138.974 253.531 139.773 254.078 140.414C254.63 141.049 255.323 141.367 256.156 141.367C256.656 141.367 257.096 141.276 257.477 141.094C257.862 140.911 258.211 140.62 258.523 140.219L259.109 140.664C258.422 141.659 257.424 142.156 256.117 142.156ZM255.945 134.188C255.242 134.188 254.648 134.445 254.164 134.961C253.685 135.477 253.393 136.169 253.289 137.039H258.359V136.938C258.333 136.125 258.102 135.464 257.664 134.953C257.227 134.443 256.654 134.188 255.945 134.188ZM265.016 134.344C264.818 134.307 264.607 134.289 264.383 134.289C263.799 134.289 263.305 134.453 262.898 134.781C262.497 135.104 262.211 135.576 262.039 136.195V142H261.109V133.547H262.023L262.039 134.891C262.534 133.891 263.328 133.391 264.422 133.391C264.682 133.391 264.888 133.424 265.039 133.492L265.016 134.344ZM271.562 139.852C271.562 139.388 271.375 139.016 271 138.734C270.63 138.453 270.07 138.234 269.32 138.078C268.57 137.917 267.987 137.734 267.57 137.531C267.159 137.323 266.852 137.07 266.648 136.773C266.451 136.477 266.352 136.117 266.352 135.695C266.352 135.029 266.63 134.479 267.188 134.047C267.745 133.609 268.458 133.391 269.328 133.391C270.271 133.391 271.026 133.625 271.594 134.094C272.167 134.557 272.453 135.164 272.453 135.914H271.516C271.516 135.419 271.307 135.008 270.891 134.68C270.479 134.352 269.958 134.188 269.328 134.188C268.714 134.188 268.219 134.326 267.844 134.602C267.474 134.872 267.289 135.227 267.289 135.664C267.289 136.086 267.443 136.414 267.75 136.648C268.062 136.878 268.628 137.089 269.445 137.281C270.268 137.474 270.883 137.68 271.289 137.898C271.701 138.117 272.005 138.38 272.203 138.688C272.401 138.995 272.5 139.367 272.5 139.805C272.5 140.518 272.211 141.089 271.633 141.516C271.06 141.943 270.31 142.156 269.383 142.156C268.398 142.156 267.599 141.919 266.984 141.445C266.375 140.966 266.07 140.362 266.07 139.633H267.008C267.044 140.18 267.273 140.607 267.695 140.914C268.122 141.216 268.685 141.367 269.383 141.367C270.034 141.367 270.56 141.224 270.961 140.938C271.362 140.651 271.562 140.289 271.562 139.852ZM286.125 131.445H282.227V142H281.266V131.445H277.375V130.625H286.125V131.445ZM292.195 142C292.102 141.734 292.042 141.341 292.016 140.82C291.688 141.247 291.268 141.578 290.758 141.812C290.253 142.042 289.716 142.156 289.148 142.156C288.336 142.156 287.677 141.93 287.172 141.477C286.672 141.023 286.422 140.451 286.422 139.758C286.422 138.935 286.763 138.284 287.445 137.805C288.133 137.326 289.089 137.086 290.312 137.086H292.008V136.125C292.008 135.521 291.82 135.047 291.445 134.703C291.076 134.354 290.534 134.18 289.82 134.18C289.169 134.18 288.63 134.346 288.203 134.68C287.776 135.013 287.562 135.414 287.562 135.883L286.625 135.875C286.625 135.203 286.938 134.622 287.562 134.133C288.188 133.638 288.956 133.391 289.867 133.391C290.81 133.391 291.552 133.628 292.094 134.102C292.641 134.57 292.922 135.227 292.938 136.07V140.07C292.938 140.888 293.023 141.5 293.195 141.906V142H292.195ZM289.258 141.328C289.883 141.328 290.44 141.177 290.93 140.875C291.424 140.573 291.784 140.169 292.008 139.664V137.805H290.336C289.404 137.815 288.674 137.987 288.148 138.32C287.622 138.648 287.359 139.102 287.359 139.68C287.359 140.154 287.534 140.547 287.883 140.859C288.237 141.172 288.695 141.328 289.258 141.328ZM297.445 137.742L296.375 138.773V142H295.438V130H296.375V137.68L297.258 136.727L300.492 133.547H301.672L298.086 137.109L301.984 142H300.867L297.445 137.742ZM306.398 142.156C305.68 142.156 305.029 141.979 304.445 141.625C303.867 141.271 303.417 140.779 303.094 140.148C302.771 139.513 302.609 138.802 302.609 138.016V137.68C302.609 136.867 302.766 136.135 303.078 135.484C303.396 134.833 303.836 134.323 304.398 133.953C304.961 133.578 305.57 133.391 306.227 133.391C307.253 133.391 308.065 133.742 308.664 134.445C309.268 135.143 309.57 136.099 309.57 137.312V137.836H303.539V138.016C303.539 138.974 303.812 139.773 304.359 140.414C304.911 141.049 305.604 141.367 306.438 141.367C306.938 141.367 307.378 141.276 307.758 141.094C308.143 140.911 308.492 140.62 308.805 140.219L309.391 140.664C308.703 141.659 307.706 142.156 306.398 142.156ZM306.227 134.188C305.523 134.188 304.93 134.445 304.445 134.961C303.966 135.477 303.674 136.169 303.57 137.039H308.641V136.938C308.615 136.125 308.383 135.464 307.945 134.953C307.508 134.443 306.935 134.188 306.227 134.188ZM322.906 131.445H319.008V142H318.047V131.445H314.156V130.625H322.906V131.445ZM323.234 137.648C323.234 136.836 323.391 136.104 323.703 135.453C324.021 134.802 324.466 134.297 325.039 133.938C325.617 133.573 326.271 133.391 327 133.391C328.125 133.391 329.036 133.786 329.734 134.578C330.432 135.365 330.781 136.409 330.781 137.711V137.906C330.781 138.724 330.622 139.461 330.305 140.117C329.992 140.768 329.549 141.271 328.977 141.625C328.404 141.979 327.75 142.156 327.016 142.156C325.896 142.156 324.984 141.763 324.281 140.977C323.583 140.185 323.234 139.138 323.234 137.836V137.648ZM324.172 137.906C324.172 138.917 324.432 139.747 324.953 140.398C325.479 141.044 326.167 141.367 327.016 141.367C327.859 141.367 328.542 141.044 329.062 140.398C329.589 139.747 329.852 138.891 329.852 137.828V137.648C329.852 137.003 329.732 136.411 329.492 135.875C329.253 135.339 328.917 134.924 328.484 134.633C328.052 134.336 327.557 134.188 327 134.188C326.167 134.188 325.487 134.516 324.961 135.172C324.435 135.823 324.172 136.677 324.172 137.734V137.906ZM345.039 140.648C344.706 141.122 344.182 141.492 343.469 141.758C342.76 142.023 341.966 142.156 341.086 142.156C340.195 142.156 339.404 141.943 338.711 141.516C338.018 141.089 337.482 140.484 337.102 139.703C336.721 138.922 336.529 138.026 336.523 137.016V135.578C336.523 134 336.922 132.755 337.719 131.844C338.516 130.927 339.586 130.469 340.93 130.469C342.102 130.469 343.044 130.768 343.758 131.367C344.471 131.961 344.896 132.781 345.031 133.828H344.07C343.93 132.995 343.589 132.365 343.047 131.938C342.51 131.505 341.807 131.289 340.938 131.289C339.875 131.289 339.034 131.667 338.414 132.422C337.794 133.177 337.484 134.242 337.484 135.617V136.961C337.484 137.826 337.63 138.591 337.922 139.258C338.219 139.919 338.641 140.432 339.188 140.797C339.74 141.161 340.372 141.344 341.086 141.344C341.914 141.344 342.625 141.214 343.219 140.953C343.604 140.781 343.891 140.581 344.078 140.352V137.414H341.023V136.602H345.039V140.648ZM350.82 142.156C350.102 142.156 349.451 141.979 348.867 141.625C348.289 141.271 347.839 140.779 347.516 140.148C347.193 139.513 347.031 138.802 347.031 138.016V137.68C347.031 136.867 347.188 136.135 347.5 135.484C347.818 134.833 348.258 134.323 348.82 133.953C349.383 133.578 349.992 133.391 350.648 133.391C351.674 133.391 352.487 133.742 353.086 134.445C353.69 135.143 353.992 136.099 353.992 137.312V137.836H347.961V138.016C347.961 138.974 348.234 139.773 348.781 140.414C349.333 141.049 350.026 141.367 350.859 141.367C351.359 141.367 351.799 141.276 352.18 141.094C352.565 140.911 352.914 140.62 353.227 140.219L353.812 140.664C353.125 141.659 352.128 142.156 350.82 142.156ZM350.648 134.188C349.945 134.188 349.352 134.445 348.867 134.961C348.388 135.477 348.096 136.169 347.992 137.039H353.062V136.938C353.036 136.125 352.805 135.464 352.367 134.953C351.93 134.443 351.357 134.188 350.648 134.188ZM357.266 131.383V133.547H359.016V134.312H357.266V139.945C357.266 140.414 357.349 140.763 357.516 140.992C357.688 141.221 357.971 141.336 358.367 141.336C358.523 141.336 358.776 141.31 359.125 141.258L359.164 142.023C358.919 142.112 358.586 142.156 358.164 142.156C357.523 142.156 357.057 141.971 356.766 141.602C356.474 141.227 356.328 140.677 356.328 139.953V134.312H354.773V133.547H356.328V131.383H357.266ZM372.469 131.445H368.57V142H367.609V131.445H363.719V130.625H372.469V131.445ZM375.023 134.977C375.331 134.471 375.724 134.081 376.203 133.805C376.682 133.529 377.206 133.391 377.773 133.391C378.68 133.391 379.354 133.646 379.797 134.156C380.24 134.667 380.464 135.432 380.469 136.453V142H379.539V136.445C379.534 135.69 379.372 135.128 379.055 134.758C378.742 134.388 378.24 134.203 377.547 134.203C376.969 134.203 376.456 134.385 376.008 134.75C375.565 135.109 375.237 135.596 375.023 136.211V142H374.094V130H375.023V134.977ZM386.148 142.156C385.43 142.156 384.779 141.979 384.195 141.625C383.617 141.271 383.167 140.779 382.844 140.148C382.521 139.513 382.359 138.802 382.359 138.016V137.68C382.359 136.867 382.516 136.135 382.828 135.484C383.146 134.833 383.586 134.323 384.148 133.953C384.711 133.578 385.32 133.391 385.977 133.391C387.003 133.391 387.815 133.742 388.414 134.445C389.018 135.143 389.32 136.099 389.32 137.312V137.836H383.289V138.016C383.289 138.974 383.562 139.773 384.109 140.414C384.661 141.049 385.354 141.367 386.188 141.367C386.688 141.367 387.128 141.276 387.508 141.094C387.893 140.911 388.242 140.62 388.555 140.219L389.141 140.664C388.453 141.659 387.456 142.156 386.148 142.156ZM385.977 134.188C385.273 134.188 384.68 134.445 384.195 134.961C383.716 135.477 383.424 136.169 383.32 137.039H388.391V136.938C388.365 136.125 388.133 135.464 387.695 134.953C387.258 134.443 386.685 134.188 385.977 134.188ZM234.438 166V154.625H237.617C238.549 154.625 239.385 154.839 240.125 155.266C240.865 155.688 241.44 156.294 241.852 157.086C242.268 157.878 242.477 158.779 242.477 159.789V160.836C242.477 161.852 242.271 162.753 241.859 163.539C241.448 164.326 240.867 164.932 240.117 165.359C239.372 165.786 238.516 166 237.547 166H234.438ZM235.398 155.445V165.188H237.555C238.753 165.188 239.714 164.792 240.438 164C241.161 163.203 241.523 162.128 241.523 160.773V159.773C241.523 158.466 241.167 157.419 240.453 156.633C239.74 155.846 238.799 155.451 237.633 155.445H235.398ZM247.977 166.156C247.258 166.156 246.607 165.979 246.023 165.625C245.445 165.271 244.995 164.779 244.672 164.148C244.349 163.513 244.188 162.802 244.188 162.016V161.68C244.188 160.867 244.344 160.135 244.656 159.484C244.974 158.833 245.414 158.323 245.977 157.953C246.539 157.578 247.148 157.391 247.805 157.391C248.831 157.391 249.643 157.742 250.242 158.445C250.846 159.143 251.148 160.099 251.148 161.312V161.836H245.117V162.016C245.117 162.974 245.391 163.773 245.938 164.414C246.49 165.049 247.182 165.367 248.016 165.367C248.516 165.367 248.956 165.276 249.336 165.094C249.721 164.911 250.07 164.62 250.383 164.219L250.969 164.664C250.281 165.659 249.284 166.156 247.977 166.156ZM247.805 158.188C247.102 158.188 246.508 158.445 246.023 158.961C245.544 159.477 245.253 160.169 245.148 161.039H250.219V160.938C250.193 160.125 249.961 159.464 249.523 158.953C249.086 158.443 248.513 158.188 247.805 158.188ZM258.031 163.852C258.031 163.388 257.844 163.016 257.469 162.734C257.099 162.453 256.539 162.234 255.789 162.078C255.039 161.917 254.456 161.734 254.039 161.531C253.628 161.323 253.32 161.07 253.117 160.773C252.919 160.477 252.82 160.117 252.82 159.695C252.82 159.029 253.099 158.479 253.656 158.047C254.214 157.609 254.927 157.391 255.797 157.391C256.74 157.391 257.495 157.625 258.062 158.094C258.635 158.557 258.922 159.164 258.922 159.914H257.984C257.984 159.419 257.776 159.008 257.359 158.68C256.948 158.352 256.427 158.188 255.797 158.188C255.182 158.188 254.688 158.326 254.312 158.602C253.943 158.872 253.758 159.227 253.758 159.664C253.758 160.086 253.911 160.414 254.219 160.648C254.531 160.878 255.096 161.089 255.914 161.281C256.737 161.474 257.352 161.68 257.758 161.898C258.169 162.117 258.474 162.38 258.672 162.688C258.87 162.995 258.969 163.367 258.969 163.805C258.969 164.518 258.68 165.089 258.102 165.516C257.529 165.943 256.779 166.156 255.852 166.156C254.867 166.156 254.068 165.919 253.453 165.445C252.844 164.966 252.539 164.362 252.539 163.633H253.477C253.513 164.18 253.742 164.607 254.164 164.914C254.591 165.216 255.154 165.367 255.852 165.367C256.503 165.367 257.029 165.224 257.43 164.938C257.831 164.651 258.031 164.289 258.031 163.852ZM262.125 166H261.188V157.547H262.125V166ZM261.023 155.102C261.023 154.924 261.081 154.776 261.195 154.656C261.31 154.531 261.466 154.469 261.664 154.469C261.862 154.469 262.018 154.531 262.133 154.656C262.253 154.776 262.312 154.924 262.312 155.102C262.312 155.279 262.253 155.427 262.133 155.547C262.018 155.667 261.862 155.727 261.664 155.727C261.466 155.727 261.31 155.667 261.195 155.547C261.081 155.427 261.023 155.279 261.023 155.102ZM268.578 158.344C268.38 158.307 268.169 158.289 267.945 158.289C267.362 158.289 266.867 158.453 266.461 158.781C266.06 159.104 265.773 159.576 265.602 160.195V166H264.672V157.547H265.586L265.602 158.891C266.096 157.891 266.891 157.391 267.984 157.391C268.245 157.391 268.451 157.424 268.602 157.492L268.578 158.344ZM273.18 166.156C272.461 166.156 271.81 165.979 271.227 165.625C270.648 165.271 270.198 164.779 269.875 164.148C269.552 163.513 269.391 162.802 269.391 162.016V161.68C269.391 160.867 269.547 160.135 269.859 159.484C270.177 158.833 270.617 158.323 271.18 157.953C271.742 157.578 272.352 157.391 273.008 157.391C274.034 157.391 274.846 157.742 275.445 158.445C276.049 159.143 276.352 160.099 276.352 161.312V161.836H270.32V162.016C270.32 162.974 270.594 163.773 271.141 164.414C271.693 165.049 272.385 165.367 273.219 165.367C273.719 165.367 274.159 165.276 274.539 165.094C274.924 164.911 275.273 164.62 275.586 164.219L276.172 164.664C275.484 165.659 274.487 166.156 273.18 166.156ZM273.008 158.188C272.305 158.188 271.711 158.445 271.227 158.961C270.747 159.477 270.456 160.169 270.352 161.039H275.422V160.938C275.396 160.125 275.164 159.464 274.727 158.953C274.289 158.443 273.716 158.188 273.008 158.188ZM277.797 161.695C277.797 160.383 278.089 159.339 278.672 158.562C279.26 157.781 280.057 157.391 281.062 157.391C282.203 157.391 283.073 157.841 283.672 158.742V154H284.602V166H283.727L283.688 164.875C283.089 165.729 282.208 166.156 281.047 166.156C280.073 166.156 279.286 165.766 278.688 164.984C278.094 164.198 277.797 163.138 277.797 161.805V161.695ZM278.742 161.859C278.742 162.938 278.958 163.789 279.391 164.414C279.823 165.034 280.432 165.344 281.219 165.344C282.37 165.344 283.188 164.836 283.672 163.82V159.852C283.188 158.753 282.375 158.203 281.234 158.203C280.448 158.203 279.836 158.513 279.398 159.133C278.961 159.747 278.742 160.656 278.742 161.859ZM295.422 161.266H292.117V166H291.148V154.625H294.844C296.057 154.625 297.005 154.919 297.688 155.508C298.37 156.096 298.711 156.919 298.711 157.977C298.711 158.706 298.497 159.349 298.07 159.906C297.643 160.464 297.07 160.849 296.352 161.062L299.195 165.898V166H298.172L295.422 161.266ZM292.117 160.445H295.062C295.87 160.445 296.518 160.216 297.008 159.758C297.497 159.299 297.742 158.706 297.742 157.977C297.742 157.174 297.487 156.552 296.977 156.109C296.466 155.667 295.75 155.445 294.828 155.445H292.117V160.445ZM304.383 166.156C303.664 166.156 303.013 165.979 302.43 165.625C301.852 165.271 301.401 164.779 301.078 164.148C300.755 163.513 300.594 162.802 300.594 162.016V161.68C300.594 160.867 300.75 160.135 301.062 159.484C301.38 158.833 301.82 158.323 302.383 157.953C302.945 157.578 303.555 157.391 304.211 157.391C305.237 157.391 306.049 157.742 306.648 158.445C307.253 159.143 307.555 160.099 307.555 161.312V161.836H301.523V162.016C301.523 162.974 301.797 163.773 302.344 164.414C302.896 165.049 303.589 165.367 304.422 165.367C304.922 165.367 305.362 165.276 305.742 165.094C306.128 164.911 306.477 164.62 306.789 164.219L307.375 164.664C306.688 165.659 305.69 166.156 304.383 166.156ZM304.211 158.188C303.508 158.188 302.914 158.445 302.43 158.961C301.951 159.477 301.659 160.169 301.555 161.039H306.625V160.938C306.599 160.125 306.367 159.464 305.93 158.953C305.492 158.443 304.919 158.188 304.211 158.188ZM314.438 163.852C314.438 163.388 314.25 163.016 313.875 162.734C313.505 162.453 312.945 162.234 312.195 162.078C311.445 161.917 310.862 161.734 310.445 161.531C310.034 161.323 309.727 161.07 309.523 160.773C309.326 160.477 309.227 160.117 309.227 159.695C309.227 159.029 309.505 158.479 310.062 158.047C310.62 157.609 311.333 157.391 312.203 157.391C313.146 157.391 313.901 157.625 314.469 158.094C315.042 158.557 315.328 159.164 315.328 159.914H314.391C314.391 159.419 314.182 159.008 313.766 158.68C313.354 158.352 312.833 158.188 312.203 158.188C311.589 158.188 311.094 158.326 310.719 158.602C310.349 158.872 310.164 159.227 310.164 159.664C310.164 160.086 310.318 160.414 310.625 160.648C310.938 160.878 311.503 161.089 312.32 161.281C313.143 161.474 313.758 161.68 314.164 161.898C314.576 162.117 314.88 162.38 315.078 162.688C315.276 162.995 315.375 163.367 315.375 163.805C315.375 164.518 315.086 165.089 314.508 165.516C313.935 165.943 313.185 166.156 312.258 166.156C311.273 166.156 310.474 165.919 309.859 165.445C309.25 164.966 308.945 164.362 308.945 163.633H309.883C309.919 164.18 310.148 164.607 310.57 164.914C310.997 165.216 311.56 165.367 312.258 165.367C312.909 165.367 313.435 165.224 313.836 164.938C314.237 164.651 314.438 164.289 314.438 163.852ZM322.922 164.93C322.359 165.747 321.461 166.156 320.227 166.156C319.326 166.156 318.641 165.896 318.172 165.375C317.703 164.849 317.464 164.073 317.453 163.047V157.547H318.383V162.93C318.383 164.539 319.034 165.344 320.336 165.344C321.69 165.344 322.547 164.784 322.906 163.664V157.547H323.844V166H322.938L322.922 164.93ZM327.328 166H326.391V154H327.328V166ZM331.328 155.383V157.547H333.078V158.312H331.328V163.945C331.328 164.414 331.411 164.763 331.578 164.992C331.75 165.221 332.034 165.336 332.43 165.336C332.586 165.336 332.839 165.31 333.188 165.258L333.227 166.023C332.982 166.112 332.648 166.156 332.227 166.156C331.586 166.156 331.12 165.971 330.828 165.602C330.536 165.227 330.391 164.677 330.391 163.953V158.312H328.836V157.547H330.391V155.383H331.328ZM340.078 163.852C340.078 163.388 339.891 163.016 339.516 162.734C339.146 162.453 338.586 162.234 337.836 162.078C337.086 161.917 336.503 161.734 336.086 161.531C335.674 161.323 335.367 161.07 335.164 160.773C334.966 160.477 334.867 160.117 334.867 159.695C334.867 159.029 335.146 158.479 335.703 158.047C336.26 157.609 336.974 157.391 337.844 157.391C338.786 157.391 339.542 157.625 340.109 158.094C340.682 158.557 340.969 159.164 340.969 159.914H340.031C340.031 159.419 339.823 159.008 339.406 158.68C338.995 158.352 338.474 158.188 337.844 158.188C337.229 158.188 336.734 158.326 336.359 158.602C335.99 158.872 335.805 159.227 335.805 159.664C335.805 160.086 335.958 160.414 336.266 160.648C336.578 160.878 337.143 161.089 337.961 161.281C338.784 161.474 339.398 161.68 339.805 161.898C340.216 162.117 340.521 162.38 340.719 162.688C340.917 162.995 341.016 163.367 341.016 163.805C341.016 164.518 340.727 165.089 340.148 165.516C339.576 165.943 338.826 166.156 337.898 166.156C336.914 166.156 336.115 165.919 335.5 165.445C334.891 164.966 334.586 164.362 334.586 163.633H335.523C335.56 164.18 335.789 164.607 336.211 164.914C336.638 165.216 337.201 165.367 337.898 165.367C338.549 165.367 339.076 165.224 339.477 164.938C339.878 164.651 340.078 164.289 340.078 163.852Z" fill="black"/>
<path d="M242.273 203.625V211.391C242.268 212.156 242.099 212.823 241.766 213.391C241.432 213.958 240.961 214.396 240.352 214.703C239.747 215.005 239.052 215.156 238.266 215.156C237.068 215.156 236.107 214.831 235.383 214.18C234.664 213.523 234.292 212.617 234.266 211.461V203.625H235.219V211.32C235.219 212.279 235.492 213.023 236.039 213.555C236.586 214.081 237.328 214.344 238.266 214.344C239.203 214.344 239.943 214.078 240.484 213.547C241.031 213.016 241.305 212.276 241.305 211.328V203.625H242.273ZM249.797 212.852C249.797 212.388 249.609 212.016 249.234 211.734C248.865 211.453 248.305 211.234 247.555 211.078C246.805 210.917 246.221 210.734 245.805 210.531C245.393 210.323 245.086 210.07 244.883 209.773C244.685 209.477 244.586 209.117 244.586 208.695C244.586 208.029 244.865 207.479 245.422 207.047C245.979 206.609 246.693 206.391 247.562 206.391C248.505 206.391 249.26 206.625 249.828 207.094C250.401 207.557 250.688 208.164 250.688 208.914H249.75C249.75 208.419 249.542 208.008 249.125 207.68C248.714 207.352 248.193 207.188 247.562 207.188C246.948 207.188 246.453 207.326 246.078 207.602C245.708 207.872 245.523 208.227 245.523 208.664C245.523 209.086 245.677 209.414 245.984 209.648C246.297 209.878 246.862 210.089 247.68 210.281C248.503 210.474 249.117 210.68 249.523 210.898C249.935 211.117 250.24 211.38 250.438 211.688C250.635 211.995 250.734 212.367 250.734 212.805C250.734 213.518 250.445 214.089 249.867 214.516C249.294 214.943 248.544 215.156 247.617 215.156C246.633 215.156 245.833 214.919 245.219 214.445C244.609 213.966 244.305 213.362 244.305 212.633H245.242C245.279 213.18 245.508 213.607 245.93 213.914C246.357 214.216 246.919 214.367 247.617 214.367C248.268 214.367 248.794 214.224 249.195 213.938C249.596 213.651 249.797 213.289 249.797 212.852ZM256.117 215.156C255.398 215.156 254.747 214.979 254.164 214.625C253.586 214.271 253.135 213.779 252.812 213.148C252.49 212.513 252.328 211.802 252.328 211.016V210.68C252.328 209.867 252.484 209.135 252.797 208.484C253.115 207.833 253.555 207.323 254.117 206.953C254.68 206.578 255.289 206.391 255.945 206.391C256.971 206.391 257.784 206.742 258.383 207.445C258.987 208.143 259.289 209.099 259.289 210.312V210.836H253.258V211.016C253.258 211.974 253.531 212.773 254.078 213.414C254.63 214.049 255.323 214.367 256.156 214.367C256.656 214.367 257.096 214.276 257.477 214.094C257.862 213.911 258.211 213.62 258.523 213.219L259.109 213.664C258.422 214.659 257.424 215.156 256.117 215.156ZM255.945 207.188C255.242 207.188 254.648 207.445 254.164 207.961C253.685 208.477 253.393 209.169 253.289 210.039H258.359V209.938C258.333 209.125 258.102 208.464 257.664 207.953C257.227 207.443 256.654 207.188 255.945 207.188ZM265.016 207.344C264.818 207.307 264.607 207.289 264.383 207.289C263.799 207.289 263.305 207.453 262.898 207.781C262.497 208.104 262.211 208.576 262.039 209.195V215H261.109V206.547H262.023L262.039 207.891C262.534 206.891 263.328 206.391 264.422 206.391C264.682 206.391 264.888 206.424 265.039 206.492L265.016 207.344ZM276.891 209.547H271.57V214.188H277.688V215H270.609V203.625H277.648V204.445H271.57V208.734H276.891V209.547ZM283.406 207.344C283.208 207.307 282.997 207.289 282.773 207.289C282.19 207.289 281.695 207.453 281.289 207.781C280.888 208.104 280.602 208.576 280.43 209.195V215H279.5V206.547H280.414L280.43 207.891C280.924 206.891 281.719 206.391 282.812 206.391C283.073 206.391 283.279 206.424 283.43 206.492L283.406 207.344ZM288.797 207.344C288.599 207.307 288.388 207.289 288.164 207.289C287.581 207.289 287.086 207.453 286.68 207.781C286.279 208.104 285.992 208.576 285.82 209.195V215H284.891V206.547H285.805L285.82 207.891C286.315 206.891 287.109 206.391 288.203 206.391C288.464 206.391 288.669 206.424 288.82 206.492L288.797 207.344ZM289.609 210.648C289.609 209.836 289.766 209.104 290.078 208.453C290.396 207.802 290.841 207.297 291.414 206.938C291.992 206.573 292.646 206.391 293.375 206.391C294.5 206.391 295.411 206.786 296.109 207.578C296.807 208.365 297.156 209.409 297.156 210.711V210.906C297.156 211.724 296.997 212.461 296.68 213.117C296.367 213.768 295.924 214.271 295.352 214.625C294.779 214.979 294.125 215.156 293.391 215.156C292.271 215.156 291.359 214.763 290.656 213.977C289.958 213.185 289.609 212.138 289.609 210.836V210.648ZM290.547 210.906C290.547 211.917 290.807 212.747 291.328 213.398C291.854 214.044 292.542 214.367 293.391 214.367C294.234 214.367 294.917 214.044 295.438 213.398C295.964 212.747 296.227 211.891 296.227 210.828V210.648C296.227 210.003 296.107 209.411 295.867 208.875C295.628 208.339 295.292 207.924 294.859 207.633C294.427 207.336 293.932 207.188 293.375 207.188C292.542 207.188 291.862 207.516 291.336 208.172C290.81 208.823 290.547 209.677 290.547 210.734V210.906ZM303 207.344C302.802 207.307 302.591 207.289 302.367 207.289C301.784 207.289 301.289 207.453 300.883 207.781C300.482 208.104 300.195 208.576 300.023 209.195V215H299.094V206.547H300.008L300.023 207.891C300.518 206.891 301.312 206.391 302.406 206.391C302.667 206.391 302.872 206.424 303.023 206.492L303 207.344ZM312.844 210.266H309.539V215H308.57V203.625H312.266C313.479 203.625 314.427 203.919 315.109 204.508C315.792 205.096 316.133 205.919 316.133 206.977C316.133 207.706 315.919 208.349 315.492 208.906C315.065 209.464 314.492 209.849 313.773 210.062L316.617 214.898V215H315.594L312.844 210.266ZM309.539 209.445H312.484C313.292 209.445 313.94 209.216 314.43 208.758C314.919 208.299 315.164 207.706 315.164 206.977C315.164 206.174 314.909 205.552 314.398 205.109C313.888 204.667 313.172 204.445 312.25 204.445H309.539V209.445ZM323.867 215C323.773 214.734 323.714 214.341 323.688 213.82C323.359 214.247 322.94 214.578 322.43 214.812C321.924 215.042 321.388 215.156 320.82 215.156C320.008 215.156 319.349 214.93 318.844 214.477C318.344 214.023 318.094 213.451 318.094 212.758C318.094 211.935 318.435 211.284 319.117 210.805C319.805 210.326 320.76 210.086 321.984 210.086H323.68V209.125C323.68 208.521 323.492 208.047 323.117 207.703C322.747 207.354 322.206 207.18 321.492 207.18C320.841 207.18 320.302 207.346 319.875 207.68C319.448 208.013 319.234 208.414 319.234 208.883L318.297 208.875C318.297 208.203 318.609 207.622 319.234 207.133C319.859 206.638 320.628 206.391 321.539 206.391C322.482 206.391 323.224 206.628 323.766 207.102C324.312 207.57 324.594 208.227 324.609 209.07V213.07C324.609 213.888 324.695 214.5 324.867 214.906V215H323.867ZM320.93 214.328C321.555 214.328 322.112 214.177 322.602 213.875C323.096 213.573 323.456 213.169 323.68 212.664V210.805H322.008C321.076 210.815 320.346 210.987 319.82 211.32C319.294 211.648 319.031 212.102 319.031 212.68C319.031 213.154 319.206 213.547 319.555 213.859C319.909 214.172 320.367 214.328 320.93 214.328ZM328.562 204.383V206.547H330.312V207.312H328.562V212.945C328.562 213.414 328.646 213.763 328.812 213.992C328.984 214.221 329.268 214.336 329.664 214.336C329.82 214.336 330.073 214.31 330.422 214.258L330.461 215.023C330.216 215.112 329.883 215.156 329.461 215.156C328.82 215.156 328.354 214.971 328.062 214.602C327.771 214.227 327.625 213.677 327.625 212.953V207.312H326.07V206.547H327.625V204.383H328.562ZM335.523 215.156C334.805 215.156 334.154 214.979 333.57 214.625C332.992 214.271 332.542 213.779 332.219 213.148C331.896 212.513 331.734 211.802 331.734 211.016V210.68C331.734 209.867 331.891 209.135 332.203 208.484C332.521 207.833 332.961 207.323 333.523 206.953C334.086 206.578 334.695 206.391 335.352 206.391C336.378 206.391 337.19 206.742 337.789 207.445C338.393 208.143 338.695 209.099 338.695 210.312V210.836H332.664V211.016C332.664 211.974 332.938 212.773 333.484 213.414C334.036 214.049 334.729 214.367 335.562 214.367C336.062 214.367 336.503 214.276 336.883 214.094C337.268 213.911 337.617 213.62 337.93 213.219L338.516 213.664C337.828 214.659 336.831 215.156 335.523 215.156ZM335.352 207.188C334.648 207.188 334.055 207.445 333.57 207.961C333.091 208.477 332.799 209.169 332.695 210.039H337.766V209.938C337.74 209.125 337.508 208.464 337.07 207.953C336.633 207.443 336.06 207.188 335.352 207.188Z" fill="black"/>
<path d="M503.156 59V47.625H506.516C507.521 47.625 508.411 47.849 509.188 48.2969C509.969 48.7448 510.573 49.3802 511 50.2031C511.427 51.026 511.641 51.9688 511.641 53.0312V53.6016C511.641 54.6797 511.424 55.6276 510.992 56.4453C510.565 57.263 509.953 57.8932 509.156 58.3359C508.365 58.7786 507.456 59 506.43 59H503.156ZM505.133 49.2188V57.4219H506.422C507.458 57.4219 508.253 57.099 508.805 56.4531C509.362 55.8021 509.646 54.8698 509.656 53.6562V53.0234C509.656 51.7891 509.388 50.8464 508.852 50.1953C508.315 49.5443 507.536 49.2188 506.516 49.2188H505.133ZM520.258 53.9219H515.586V57.4219H521.047V59H513.609V47.625H520.992V49.2188H515.586V52.3594H520.258V53.9219ZM528.602 56.0703C528.602 55.5703 528.424 55.1849 528.07 54.9141C527.721 54.6432 527.089 54.3698 526.172 54.0938C525.255 53.8177 524.526 53.5104 523.984 53.1719C522.948 52.5208 522.43 51.6719 522.43 50.625C522.43 49.7083 522.802 48.9531 523.547 48.3594C524.297 47.7656 525.268 47.4688 526.461 47.4688C527.253 47.4688 527.958 47.6146 528.578 47.9062C529.198 48.1979 529.685 48.6146 530.039 49.1562C530.393 49.6927 530.57 50.2891 530.57 50.9453H528.602C528.602 50.3516 528.414 49.888 528.039 49.5547C527.669 49.2161 527.138 49.0469 526.445 49.0469C525.799 49.0469 525.297 49.1849 524.938 49.4609C524.583 49.737 524.406 50.1224 524.406 50.6172C524.406 51.0339 524.599 51.3828 524.984 51.6641C525.37 51.9401 526.005 52.2109 526.891 52.4766C527.776 52.737 528.487 53.0365 529.023 53.375C529.56 53.7083 529.953 54.0938 530.203 54.5312C530.453 54.9635 530.578 55.4714 530.578 56.0547C530.578 57.0026 530.214 57.7578 529.484 58.3203C528.76 58.8776 527.776 59.1562 526.531 59.1562C525.708 59.1562 524.951 59.0052 524.258 58.7031C523.57 58.3958 523.034 57.974 522.648 57.4375C522.268 56.901 522.078 56.276 522.078 55.5625H524.055C524.055 56.2083 524.268 56.7083 524.695 57.0625C525.122 57.4167 525.734 57.5938 526.531 57.5938C527.219 57.5938 527.734 57.4557 528.078 57.1797C528.427 56.8984 528.602 56.5286 528.602 56.0703ZM534.398 59H532.43V47.625H534.398V59ZM545.547 57.5234C545.135 58.0599 544.565 58.4661 543.836 58.7422C543.107 59.0182 542.279 59.1562 541.352 59.1562C540.398 59.1562 539.555 58.9401 538.82 58.5078C538.086 58.0755 537.518 57.4583 537.117 56.6562C536.721 55.849 536.516 54.9089 536.5 53.8359V52.9453C536.5 51.2266 536.911 49.8854 537.734 48.9219C538.557 47.9531 539.706 47.4688 541.18 47.4688C542.445 47.4688 543.451 47.7812 544.195 48.4062C544.94 49.0312 545.388 49.9323 545.539 51.1094H543.602C543.383 49.7396 542.589 49.0547 541.219 49.0547C540.333 49.0547 539.659 49.375 539.195 50.0156C538.737 50.651 538.5 51.5859 538.484 52.8203V53.6953C538.484 54.9245 538.742 55.8802 539.258 56.5625C539.779 57.2396 540.5 57.5781 541.422 57.5781C542.432 57.5781 543.151 57.349 543.578 56.8906V54.6641H541.234V53.1641H545.547V57.5234ZM556.742 59H554.766L549.695 50.9297V59H547.719V47.625H549.695L554.781 55.7266V47.625H556.742V59ZM567.898 59H566.008V49.8672L563.219 50.8203V49.2188L567.656 47.5859H567.898V59Z" fill="black"/>
<path d="M607.156 59V47.625H610.516C611.521 47.625 612.411 47.849 613.188 48.2969C613.969 48.7448 614.573 49.3802 615 50.2031C615.427 51.026 615.641 51.9688 615.641 53.0312V53.6016C615.641 54.6797 615.424 55.6276 614.992 56.4453C614.565 57.263 613.953 57.8932 613.156 58.3359C612.365 58.7786 611.456 59 610.43 59H607.156ZM609.133 49.2188V57.4219H610.422C611.458 57.4219 612.253 57.099 612.805 56.4531C613.362 55.8021 613.646 54.8698 613.656 53.6562V53.0234C613.656 51.7891 613.388 50.8464 612.852 50.1953C612.315 49.5443 611.536 49.2188 610.516 49.2188H609.133ZM624.258 53.9219H619.586V57.4219H625.047V59H617.609V47.625H624.992V49.2188H619.586V52.3594H624.258V53.9219ZM632.602 56.0703C632.602 55.5703 632.424 55.1849 632.07 54.9141C631.721 54.6432 631.089 54.3698 630.172 54.0938C629.255 53.8177 628.526 53.5104 627.984 53.1719C626.948 52.5208 626.43 51.6719 626.43 50.625C626.43 49.7083 626.802 48.9531 627.547 48.3594C628.297 47.7656 629.268 47.4688 630.461 47.4688C631.253 47.4688 631.958 47.6146 632.578 47.9062C633.198 48.1979 633.685 48.6146 634.039 49.1562C634.393 49.6927 634.57 50.2891 634.57 50.9453H632.602C632.602 50.3516 632.414 49.888 632.039 49.5547C631.669 49.2161 631.138 49.0469 630.445 49.0469C629.799 49.0469 629.297 49.1849 628.938 49.4609C628.583 49.737 628.406 50.1224 628.406 50.6172C628.406 51.0339 628.599 51.3828 628.984 51.6641C629.37 51.9401 630.005 52.2109 630.891 52.4766C631.776 52.737 632.487 53.0365 633.023 53.375C633.56 53.7083 633.953 54.0938 634.203 54.5312C634.453 54.9635 634.578 55.4714 634.578 56.0547C634.578 57.0026 634.214 57.7578 633.484 58.3203C632.76 58.8776 631.776 59.1562 630.531 59.1562C629.708 59.1562 628.951 59.0052 628.258 58.7031C627.57 58.3958 627.034 57.974 626.648 57.4375C626.268 56.901 626.078 56.276 626.078 55.5625H628.055C628.055 56.2083 628.268 56.7083 628.695 57.0625C629.122 57.4167 629.734 57.5938 630.531 57.5938C631.219 57.5938 631.734 57.4557 632.078 57.1797C632.427 56.8984 632.602 56.5286 632.602 56.0703ZM638.398 59H636.43V47.625H638.398V59ZM649.547 57.5234C649.135 58.0599 648.565 58.4661 647.836 58.7422C647.107 59.0182 646.279 59.1562 645.352 59.1562C644.398 59.1562 643.555 58.9401 642.82 58.5078C642.086 58.0755 641.518 57.4583 641.117 56.6562C640.721 55.849 640.516 54.9089 640.5 53.8359V52.9453C640.5 51.2266 640.911 49.8854 641.734 48.9219C642.557 47.9531 643.706 47.4688 645.18 47.4688C646.445 47.4688 647.451 47.7812 648.195 48.4062C648.94 49.0312 649.388 49.9323 649.539 51.1094H647.602C647.383 49.7396 646.589 49.0547 645.219 49.0547C644.333 49.0547 643.659 49.375 643.195 50.0156C642.737 50.651 642.5 51.5859 642.484 52.8203V53.6953C642.484 54.9245 642.742 55.8802 643.258 56.5625C643.779 57.2396 644.5 57.5781 645.422 57.5781C646.432 57.5781 647.151 57.349 647.578 56.8906V54.6641H645.234V53.1641H649.547V57.5234ZM660.742 59H658.766L653.695 50.9297V59H651.719V47.625H653.695L658.781 55.7266V47.625H660.742V59ZM674.406 59H666.758V57.6953L670.547 53.5625C671.094 52.9531 671.482 52.4453 671.711 52.0391C671.945 51.6276 672.062 51.2161 672.062 50.8047C672.062 50.263 671.909 49.8255 671.602 49.4922C671.299 49.1589 670.891 48.9922 670.375 48.9922C669.76 48.9922 669.284 49.1797 668.945 49.5547C668.607 49.9297 668.438 50.4427 668.438 51.0938H666.539C666.539 50.401 666.695 49.7786 667.008 49.2266C667.326 48.6693 667.776 48.237 668.359 47.9297C668.948 47.6224 669.625 47.4688 670.391 47.4688C671.495 47.4688 672.365 47.7474 673 48.3047C673.641 48.8568 673.961 49.6224 673.961 50.6016C673.961 51.1693 673.799 51.7656 673.477 52.3906C673.159 53.0104 672.635 53.7161 671.906 54.5078L669.125 57.4844H674.406V59Z" fill="black"/>
<rect x="631" y="120" width="20" height="20" rx="10" fill="#3447D3"/>
<rect x="631" y="199" width="20" height="20" rx="10" fill="#3447D3"/>
<path d="M502 242L690 242" stroke="#3447D3"/>
<path d="M0 77L690 76.9999" stroke="#3447D3"/>
<path d="M233 242L432 242" stroke="#3447D3"/>
<path d="M0 242H185" stroke="#3447D3"/>
<path d="M3.71875 106.625L7 115.344L10.2734 106.625H12.8281V118H10.8594V114.25L11.0547 109.234L7.69531 118H6.28125L2.92969 109.242L3.125 114.25V118H1.15625V106.625H3.71875ZM17.2578 118H15.2891V106.625H17.2578V118ZM28.7109 118H26.7344L21.6641 109.93V118H19.6875V106.625H21.6641L26.75 114.727V106.625H28.7109V118ZM32.0469 116C32.401 116 32.6745 116.102 32.8672 116.305C33.0599 116.503 33.1562 116.753 33.1562 117.055C33.1562 117.352 33.0599 117.599 32.8672 117.797C32.6745 117.99 32.401 118.086 32.0469 118.086C31.7083 118.086 31.4401 117.99 31.2422 117.797C31.0443 117.604 30.9453 117.357 30.9453 117.055C30.9453 116.753 31.0417 116.503 31.2344 116.305C31.4271 116.102 31.6979 116 32.0469 116ZM41.5859 118H39.6172V106.625H41.5859V118ZM53.0391 118H51.0625L45.9922 109.93V118H44.0156V106.625H45.9922L51.0781 114.727V106.625H53.0391V118ZM63.3594 108.219H59.8125V118H57.8516V108.219H54.3359V106.625H63.3594V108.219ZM71.5078 112.922H66.8359V116.422H72.2969V118H64.8594V106.625H72.2422V108.219H66.8359V111.359H71.5078V112.922ZM78.0859 113.617H75.8828V118H73.9062V106.625H77.9062C79.2188 106.625 80.2318 106.919 80.9453 107.508C81.6589 108.096 82.0156 108.948 82.0156 110.062C82.0156 110.823 81.8307 111.461 81.4609 111.977C81.0964 112.487 80.5859 112.88 79.9297 113.156L82.4844 117.898V118H80.3672L78.0859 113.617ZM75.8828 112.031H77.9141C78.5807 112.031 79.1016 111.865 79.4766 111.531C79.8516 111.193 80.0391 110.732 80.0391 110.148C80.0391 109.539 79.8646 109.068 79.5156 108.734C79.1719 108.401 78.6562 108.229 77.9688 108.219H75.8828V112.031ZM90.2578 115.352H85.8516L84.9297 118H82.875L87.1719 106.625H88.9453L93.25 118H91.1875L90.2578 115.352ZM86.4062 113.758H89.7031L88.0547 109.039L86.4062 113.758ZM103.055 114.297C102.94 115.51 102.492 116.458 101.711 117.141C100.93 117.818 99.8906 118.156 98.5938 118.156C97.6875 118.156 96.888 117.943 96.1953 117.516C95.5078 117.083 94.9766 116.471 94.6016 115.68C94.2266 114.888 94.0312 113.969 94.0156 112.922V111.859C94.0156 110.786 94.2057 109.841 94.5859 109.023C94.9661 108.206 95.5104 107.576 96.2188 107.133C96.9323 106.69 97.7552 106.469 98.6875 106.469C99.9427 106.469 100.953 106.81 101.719 107.492C102.484 108.174 102.93 109.138 103.055 110.383H101.086C100.992 109.565 100.753 108.977 100.367 108.617C99.987 108.253 99.4271 108.07 98.6875 108.07C97.8281 108.07 97.1667 108.385 96.7031 109.016C96.2448 109.641 96.0104 110.56 96 111.773V112.781C96 114.01 96.2188 114.948 96.6562 115.594C97.099 116.24 97.7448 116.562 98.5938 116.562C99.3698 116.562 99.9531 116.388 100.344 116.039C100.734 115.69 100.982 115.109 101.086 114.297H103.055ZM112.812 108.219H109.266V118H107.305V108.219H103.789V106.625H112.812V108.219ZM116.398 118H114.43V106.625H116.398V118ZM127.906 112.609C127.906 113.724 127.714 114.703 127.328 115.547C126.943 116.385 126.391 117.031 125.672 117.484C124.958 117.932 124.135 118.156 123.203 118.156C122.281 118.156 121.458 117.932 120.734 117.484C120.016 117.031 119.458 116.388 119.062 115.555C118.672 114.721 118.474 113.76 118.469 112.672V112.031C118.469 110.922 118.664 109.943 119.055 109.094C119.451 108.245 120.005 107.596 120.719 107.148C121.438 106.695 122.26 106.469 123.188 106.469C124.115 106.469 124.935 106.693 125.648 107.141C126.367 107.583 126.922 108.224 127.312 109.062C127.703 109.896 127.901 110.867 127.906 111.977V112.609ZM125.93 112.016C125.93 110.755 125.69 109.789 125.211 109.117C124.737 108.445 124.062 108.109 123.188 108.109C122.333 108.109 121.664 108.445 121.18 109.117C120.701 109.784 120.456 110.729 120.445 111.953V112.609C120.445 113.859 120.688 114.826 121.172 115.508C121.661 116.19 122.339 116.531 123.203 116.531C124.078 116.531 124.75 116.198 125.219 115.531C125.693 114.865 125.93 113.891 125.93 112.609V112.016ZM138.898 118H136.922L131.852 109.93V118H129.875V106.625H131.852L136.938 114.727V106.625H138.898V118ZM153.898 114.297C153.784 115.51 153.336 116.458 152.555 117.141C151.773 117.818 150.734 118.156 149.438 118.156C148.531 118.156 147.732 117.943 147.039 117.516C146.352 117.083 145.82 116.471 145.445 115.68C145.07 114.888 144.875 113.969 144.859 112.922V111.859C144.859 110.786 145.049 109.841 145.43 109.023C145.81 108.206 146.354 107.576 147.062 107.133C147.776 106.69 148.599 106.469 149.531 106.469C150.786 106.469 151.797 106.81 152.562 107.492C153.328 108.174 153.773 109.138 153.898 110.383H151.93C151.836 109.565 151.596 108.977 151.211 108.617C150.831 108.253 150.271 108.07 149.531 108.07C148.672 108.07 148.01 108.385 147.547 109.016C147.089 109.641 146.854 110.56 146.844 111.773V112.781C146.844 114.01 147.062 114.948 147.5 115.594C147.943 116.24 148.589 116.562 149.438 116.562C150.214 116.562 150.797 116.388 151.188 116.039C151.578 115.69 151.826 115.109 151.93 114.297H153.898ZM164.75 112.609C164.75 113.724 164.557 114.703 164.172 115.547C163.786 116.385 163.234 117.031 162.516 117.484C161.802 117.932 160.979 118.156 160.047 118.156C159.125 118.156 158.302 117.932 157.578 117.484C156.859 117.031 156.302 116.388 155.906 115.555C155.516 114.721 155.318 113.76 155.312 112.672V112.031C155.312 110.922 155.508 109.943 155.898 109.094C156.294 108.245 156.849 107.596 157.562 107.148C158.281 106.695 159.104 106.469 160.031 106.469C160.958 106.469 161.779 106.693 162.492 107.141C163.211 107.583 163.766 108.224 164.156 109.062C164.547 109.896 164.745 110.867 164.75 111.977V112.609ZM162.773 112.016C162.773 110.755 162.534 109.789 162.055 109.117C161.581 108.445 160.906 108.109 160.031 108.109C159.177 108.109 158.508 108.445 158.023 109.117C157.544 109.784 157.299 110.729 157.289 111.953V112.609C157.289 113.859 157.531 114.826 158.016 115.508C158.505 116.19 159.182 116.531 160.047 116.531C160.922 116.531 161.594 116.198 162.062 115.531C162.536 114.865 162.773 113.891 162.773 112.609V112.016ZM172.664 115.07C172.664 114.57 172.487 114.185 172.133 113.914C171.784 113.643 171.151 113.37 170.234 113.094C169.318 112.818 168.589 112.51 168.047 112.172C167.01 111.521 166.492 110.672 166.492 109.625C166.492 108.708 166.865 107.953 167.609 107.359C168.359 106.766 169.331 106.469 170.523 106.469C171.315 106.469 172.021 106.615 172.641 106.906C173.26 107.198 173.747 107.615 174.102 108.156C174.456 108.693 174.633 109.289 174.633 109.945H172.664C172.664 109.352 172.477 108.888 172.102 108.555C171.732 108.216 171.201 108.047 170.508 108.047C169.862 108.047 169.359 108.185 169 108.461C168.646 108.737 168.469 109.122 168.469 109.617C168.469 110.034 168.661 110.383 169.047 110.664C169.432 110.94 170.068 111.211 170.953 111.477C171.839 111.737 172.549 112.036 173.086 112.375C173.622 112.708 174.016 113.094 174.266 113.531C174.516 113.964 174.641 114.471 174.641 115.055C174.641 116.003 174.276 116.758 173.547 117.32C172.823 117.878 171.839 118.156 170.594 118.156C169.771 118.156 169.013 118.005 168.32 117.703C167.633 117.396 167.096 116.974 166.711 116.438C166.331 115.901 166.141 115.276 166.141 114.562H168.117C168.117 115.208 168.331 115.708 168.758 116.062C169.185 116.417 169.797 116.594 170.594 116.594C171.281 116.594 171.797 116.456 172.141 116.18C172.49 115.898 172.664 115.529 172.664 115.07ZM184.594 108.219H181.047V118H179.086V108.219H175.57V106.625H184.594V108.219Z" fill="#2C2D53"/>
<path d="M7.80469 207.922H3.13281V211.422H8.59375V213H1.15625V201.625H8.53906V203.219H3.13281V206.359H7.80469V207.922ZM16.5703 210.352H12.1641L11.2422 213H9.1875L13.4844 201.625H15.2578L19.5625 213H17.5L16.5703 210.352ZM12.7188 208.758H16.0156L14.3672 204.039L12.7188 208.758ZM26.8047 210.07C26.8047 209.57 26.6276 209.185 26.2734 208.914C25.9245 208.643 25.2917 208.37 24.375 208.094C23.4583 207.818 22.7292 207.51 22.1875 207.172C21.151 206.521 20.6328 205.672 20.6328 204.625C20.6328 203.708 21.0052 202.953 21.75 202.359C22.5 201.766 23.4714 201.469 24.6641 201.469C25.4557 201.469 26.1615 201.615 26.7812 201.906C27.401 202.198 27.888 202.615 28.2422 203.156C28.5964 203.693 28.7734 204.289 28.7734 204.945H26.8047C26.8047 204.352 26.6172 203.888 26.2422 203.555C25.8724 203.216 25.3411 203.047 24.6484 203.047C24.0026 203.047 23.5 203.185 23.1406 203.461C22.7865 203.737 22.6094 204.122 22.6094 204.617C22.6094 205.034 22.8021 205.383 23.1875 205.664C23.5729 205.94 24.2083 206.211 25.0938 206.477C25.9792 206.737 26.6901 207.036 27.2266 207.375C27.763 207.708 28.1562 208.094 28.4062 208.531C28.6562 208.964 28.7812 209.471 28.7812 210.055C28.7812 211.003 28.4167 211.758 27.6875 212.32C26.9635 212.878 25.9792 213.156 24.7344 213.156C23.9115 213.156 23.1536 213.005 22.4609 212.703C21.7734 212.396 21.237 211.974 20.8516 211.438C20.4714 210.901 20.2812 210.276 20.2812 209.562H22.2578C22.2578 210.208 22.4714 210.708 22.8984 211.062C23.3255 211.417 23.9375 211.594 24.7344 211.594C25.4219 211.594 25.9375 211.456 26.2812 211.18C26.6302 210.898 26.8047 210.529 26.8047 210.07ZM37.1641 207.922H32.4922V211.422H37.9531V213H30.5156V201.625H37.8984V203.219H32.4922V206.359H37.1641V207.922ZM52.625 207.609C52.625 208.724 52.4323 209.703 52.0469 210.547C51.6615 211.385 51.1094 212.031 50.3906 212.484C49.6771 212.932 48.8542 213.156 47.9219 213.156C47 213.156 46.1771 212.932 45.4531 212.484C44.7344 212.031 44.1771 211.388 43.7812 210.555C43.3906 209.721 43.1927 208.76 43.1875 207.672V207.031C43.1875 205.922 43.3828 204.943 43.7734 204.094C44.1693 203.245 44.724 202.596 45.4375 202.148C46.1562 201.695 46.9792 201.469 47.9062 201.469C48.8333 201.469 49.6536 201.693 50.3672 202.141C51.0859 202.583 51.6406 203.224 52.0312 204.062C52.4219 204.896 52.6198 205.867 52.625 206.977V207.609ZM50.6484 207.016C50.6484 205.755 50.4089 204.789 49.9297 204.117C49.4557 203.445 48.7812 203.109 47.9062 203.109C47.0521 203.109 46.3828 203.445 45.8984 204.117C45.4193 204.784 45.1745 205.729 45.1641 206.953V207.609C45.1641 208.859 45.4062 209.826 45.8906 210.508C46.3802 211.19 47.0573 211.531 47.9219 211.531C48.7969 211.531 49.4688 211.198 49.9375 210.531C50.4115 209.865 50.6484 208.891 50.6484 207.609V207.016ZM61.1484 208.18H56.5703V213H54.5938V201.625H61.8203V203.219H56.5703V206.602H61.1484V208.18ZM75.6953 201.625V209.227C75.6953 210.435 75.3073 211.393 74.5312 212.102C73.7604 212.805 72.7318 213.156 71.4453 213.156C70.1432 213.156 69.1094 212.81 68.3438 212.117C67.5781 211.419 67.1953 210.453 67.1953 209.219V201.625H69.1641V209.234C69.1641 209.995 69.3568 210.576 69.7422 210.977C70.1276 211.378 70.6953 211.578 71.4453 211.578C72.9661 211.578 73.7266 210.776 73.7266 209.172V201.625H75.6953ZM83.7578 210.07C83.7578 209.57 83.5807 209.185 83.2266 208.914C82.8776 208.643 82.2448 208.37 81.3281 208.094C80.4115 207.818 79.6823 207.51 79.1406 207.172C78.1042 206.521 77.5859 205.672 77.5859 204.625C77.5859 203.708 77.9583 202.953 78.7031 202.359C79.4531 201.766 80.4245 201.469 81.6172 201.469C82.4089 201.469 83.1146 201.615 83.7344 201.906C84.3542 202.198 84.8411 202.615 85.1953 203.156C85.5495 203.693 85.7266 204.289 85.7266 204.945H83.7578C83.7578 204.352 83.5703 203.888 83.1953 203.555C82.8255 203.216 82.2943 203.047 81.6016 203.047C80.9557 203.047 80.4531 203.185 80.0938 203.461C79.7396 203.737 79.5625 204.122 79.5625 204.617C79.5625 205.034 79.7552 205.383 80.1406 205.664C80.526 205.94 81.1615 206.211 82.0469 206.477C82.9323 206.737 83.6432 207.036 84.1797 207.375C84.7161 207.708 85.1094 208.094 85.3594 208.531C85.6094 208.964 85.7344 209.471 85.7344 210.055C85.7344 211.003 85.3698 211.758 84.6406 212.32C83.9167 212.878 82.9323 213.156 81.6875 213.156C80.8646 213.156 80.1068 213.005 79.4141 212.703C78.7266 212.396 78.1901 211.974 77.8047 211.438C77.4245 210.901 77.2344 210.276 77.2344 209.562H79.2109C79.2109 210.208 79.4245 210.708 79.8516 211.062C80.2786 211.417 80.8906 211.594 81.6875 211.594C82.375 211.594 82.8906 211.456 83.2344 211.18C83.5833 210.898 83.7578 210.529 83.7578 210.07ZM94.1172 207.922H89.4453V211.422H94.9062V213H87.4688V201.625H94.8516V203.219H89.4453V206.359H94.1172V207.922Z" fill="#2C2D53"/>
<path d="M294.719 259.625L298 268.344L301.273 259.625H303.828V271H301.859V267.25L302.055 262.234L298.695 271H297.281L293.93 262.242L294.125 267.25V271H292.156V259.625H294.719ZM312.82 265.922H308.148V269.422H313.609V271H306.172V259.625H313.555V261.219H308.148V264.359H312.82V265.922ZM323.594 261.219H320.047V271H318.086V261.219H314.57V259.625H323.594V261.219ZM329.273 266.617H327.07V271H325.094V259.625H329.094C330.406 259.625 331.419 259.919 332.133 260.508C332.846 261.096 333.203 261.948 333.203 263.062C333.203 263.823 333.018 264.461 332.648 264.977C332.284 265.487 331.773 265.88 331.117 266.156L333.672 270.898V271H331.555L329.273 266.617ZM327.07 265.031H329.102C329.768 265.031 330.289 264.865 330.664 264.531C331.039 264.193 331.227 263.732 331.227 263.148C331.227 262.539 331.052 262.068 330.703 261.734C330.359 261.401 329.844 261.229 329.156 261.219H327.07V265.031ZM337.164 271H335.195V259.625H337.164V271ZM348.273 267.297C348.159 268.51 347.711 269.458 346.93 270.141C346.148 270.818 345.109 271.156 343.812 271.156C342.906 271.156 342.107 270.943 341.414 270.516C340.727 270.083 340.195 269.471 339.82 268.68C339.445 267.888 339.25 266.969 339.234 265.922V264.859C339.234 263.786 339.424 262.841 339.805 262.023C340.185 261.206 340.729 260.576 341.438 260.133C342.151 259.69 342.974 259.469 343.906 259.469C345.161 259.469 346.172 259.81 346.938 260.492C347.703 261.174 348.148 262.138 348.273 263.383H346.305C346.211 262.565 345.971 261.977 345.586 261.617C345.206 261.253 344.646 261.07 343.906 261.07C343.047 261.07 342.385 261.385 341.922 262.016C341.464 262.641 341.229 263.56 341.219 264.773V265.781C341.219 267.01 341.438 267.948 341.875 268.594C342.318 269.24 342.964 269.562 343.812 269.562C344.589 269.562 345.172 269.388 345.562 269.039C345.953 268.69 346.201 268.109 346.305 267.297H348.273ZM355.992 268.07C355.992 267.57 355.815 267.185 355.461 266.914C355.112 266.643 354.479 266.37 353.562 266.094C352.646 265.818 351.917 265.51 351.375 265.172C350.339 264.521 349.82 263.672 349.82 262.625C349.82 261.708 350.193 260.953 350.938 260.359C351.688 259.766 352.659 259.469 353.852 259.469C354.643 259.469 355.349 259.615 355.969 259.906C356.589 260.198 357.076 260.615 357.43 261.156C357.784 261.693 357.961 262.289 357.961 262.945H355.992C355.992 262.352 355.805 261.888 355.43 261.555C355.06 261.216 354.529 261.047 353.836 261.047C353.19 261.047 352.688 261.185 352.328 261.461C351.974 261.737 351.797 262.122 351.797 262.617C351.797 263.034 351.99 263.383 352.375 263.664C352.76 263.94 353.396 264.211 354.281 264.477C355.167 264.737 355.878 265.036 356.414 265.375C356.951 265.708 357.344 266.094 357.594 266.531C357.844 266.964 357.969 267.471 357.969 268.055C357.969 269.003 357.604 269.758 356.875 270.32C356.151 270.878 355.167 271.156 353.922 271.156C353.099 271.156 352.341 271.005 351.648 270.703C350.961 270.396 350.424 269.974 350.039 269.438C349.659 268.901 349.469 268.276 349.469 267.562H351.445C351.445 268.208 351.659 268.708 352.086 269.062C352.513 269.417 353.125 269.594 353.922 269.594C354.609 269.594 355.125 269.456 355.469 269.18C355.818 268.898 355.992 268.529 355.992 268.07Z" fill="#3447D3"/>
<path d="M619.336 266.617H617.133V271H615.156V259.625H619.156C620.469 259.625 621.482 259.919 622.195 260.508C622.909 261.096 623.266 261.948 623.266 263.062C623.266 263.823 623.081 264.461 622.711 264.977C622.346 265.487 621.836 265.88 621.18 266.156L623.734 270.898V271H621.617L619.336 266.617ZM617.133 265.031H619.164C619.831 265.031 620.352 264.865 620.727 264.531C621.102 264.193 621.289 263.732 621.289 263.148C621.289 262.539 621.115 262.068 620.766 261.734C620.422 261.401 619.906 261.229 619.219 261.219H617.133V265.031ZM631.789 265.922H627.117V269.422H632.578V271H625.141V259.625H632.523V261.219H627.117V264.359H631.789V265.922ZM640.133 268.07C640.133 267.57 639.956 267.185 639.602 266.914C639.253 266.643 638.62 266.37 637.703 266.094C636.786 265.818 636.057 265.51 635.516 265.172C634.479 264.521 633.961 263.672 633.961 262.625C633.961 261.708 634.333 260.953 635.078 260.359C635.828 259.766 636.799 259.469 637.992 259.469C638.784 259.469 639.49 259.615 640.109 259.906C640.729 260.198 641.216 260.615 641.57 261.156C641.924 261.693 642.102 262.289 642.102 262.945H640.133C640.133 262.352 639.945 261.888 639.57 261.555C639.201 261.216 638.669 261.047 637.977 261.047C637.331 261.047 636.828 261.185 636.469 261.461C636.115 261.737 635.938 262.122 635.938 262.617C635.938 263.034 636.13 263.383 636.516 263.664C636.901 263.94 637.536 264.211 638.422 264.477C639.307 264.737 640.018 265.036 640.555 265.375C641.091 265.708 641.484 266.094 641.734 266.531C641.984 266.964 642.109 267.471 642.109 268.055C642.109 269.003 641.745 269.758 641.016 270.32C640.292 270.878 639.307 271.156 638.062 271.156C637.24 271.156 636.482 271.005 635.789 270.703C635.102 270.396 634.565 269.974 634.18 269.438C633.799 268.901 633.609 268.276 633.609 267.562H635.586C635.586 268.208 635.799 268.708 636.227 269.062C636.654 269.417 637.266 269.594 638.062 269.594C638.75 269.594 639.266 269.456 639.609 269.18C639.958 268.898 640.133 268.529 640.133 268.07ZM652.164 259.625V267.227C652.164 268.435 651.776 269.393 651 270.102C650.229 270.805 649.201 271.156 647.914 271.156C646.612 271.156 645.578 270.81 644.812 270.117C644.047 269.419 643.664 268.453 643.664 267.219V259.625H645.633V267.234C645.633 267.995 645.826 268.576 646.211 268.977C646.596 269.378 647.164 269.578 647.914 269.578C649.435 269.578 650.195 268.776 650.195 267.172V259.625H652.164ZM656.258 269.422H661.422V271H654.281V259.625H656.258V269.422ZM669.547 261.219H666V271H664.039V261.219H660.523V259.625H669.547V261.219Z" fill="#3447D3"/>
<path d="M40.875 269.523C40.4635 270.06 39.8932 270.466 39.1641 270.742C38.4349 271.018 37.6068 271.156 36.6797 271.156C35.7266 271.156 34.8828 270.94 34.1484 270.508C33.4141 270.076 32.8464 269.458 32.4453 268.656C32.0495 267.849 31.8438 266.909 31.8281 265.836V264.945C31.8281 263.227 32.2396 261.885 33.0625 260.922C33.8854 259.953 35.0339 259.469 36.5078 259.469C37.7734 259.469 38.7786 259.781 39.5234 260.406C40.2682 261.031 40.7161 261.932 40.8672 263.109H38.9297C38.7109 261.74 37.9167 261.055 36.5469 261.055C35.6615 261.055 34.987 261.375 34.5234 262.016C34.0651 262.651 33.8281 263.586 33.8125 264.82V265.695C33.8125 266.924 34.0703 267.88 34.5859 268.562C35.1068 269.24 35.8281 269.578 36.75 269.578C37.7604 269.578 38.4792 269.349 38.9062 268.891V266.664H36.5625V265.164H40.875V269.523ZM52.125 265.609C52.125 266.724 51.9323 267.703 51.5469 268.547C51.1615 269.385 50.6094 270.031 49.8906 270.484C49.1771 270.932 48.3542 271.156 47.4219 271.156C46.5 271.156 45.6771 270.932 44.9531 270.484C44.2344 270.031 43.6771 269.388 43.2812 268.555C42.8906 267.721 42.6927 266.76 42.6875 265.672V265.031C42.6875 263.922 42.8828 262.943 43.2734 262.094C43.6693 261.245 44.224 260.596 44.9375 260.148C45.6562 259.695 46.4792 259.469 47.4062 259.469C48.3333 259.469 49.1536 259.693 49.8672 260.141C50.5859 260.583 51.1406 261.224 51.5312 262.062C51.9219 262.896 52.1198 263.867 52.125 264.977V265.609ZM50.1484 265.016C50.1484 263.755 49.9089 262.789 49.4297 262.117C48.9557 261.445 48.2812 261.109 47.4062 261.109C46.5521 261.109 45.8828 261.445 45.3984 262.117C44.9193 262.784 44.6745 263.729 44.6641 264.953V265.609C44.6641 266.859 44.9062 267.826 45.3906 268.508C45.8802 269.19 46.5573 269.531 47.4219 269.531C48.2969 269.531 48.9688 269.198 49.4375 268.531C49.9115 267.865 50.1484 266.891 50.1484 265.609V265.016ZM60.2891 268.352H55.8828L54.9609 271H52.9062L57.2031 259.625H58.9766L63.2812 271H61.2188L60.2891 268.352ZM56.4375 266.758H59.7344L58.0859 262.039L56.4375 266.758ZM66.5547 269.422H71.7188V271H64.5781V259.625H66.5547V269.422ZM79.1797 268.07C79.1797 267.57 79.0026 267.185 78.6484 266.914C78.2995 266.643 77.6667 266.37 76.75 266.094C75.8333 265.818 75.1042 265.51 74.5625 265.172C73.526 264.521 73.0078 263.672 73.0078 262.625C73.0078 261.708 73.3802 260.953 74.125 260.359C74.875 259.766 75.8464 259.469 77.0391 259.469C77.8307 259.469 78.5365 259.615 79.1562 259.906C79.776 260.198 80.263 260.615 80.6172 261.156C80.9714 261.693 81.1484 262.289 81.1484 262.945H79.1797C79.1797 262.352 78.9922 261.888 78.6172 261.555C78.2474 261.216 77.7161 261.047 77.0234 261.047C76.3776 261.047 75.875 261.185 75.5156 261.461C75.1615 261.737 74.9844 262.122 74.9844 262.617C74.9844 263.034 75.1771 263.383 75.5625 263.664C75.9479 263.94 76.5833 264.211 77.4688 264.477C78.3542 264.737 79.0651 265.036 79.6016 265.375C80.138 265.708 80.5312 266.094 80.7812 266.531C81.0312 266.964 81.1562 267.471 81.1562 268.055C81.1562 269.003 80.7917 269.758 80.0625 270.32C79.3385 270.878 78.3542 271.156 77.1094 271.156C76.2865 271.156 75.5286 271.005 74.8359 270.703C74.1484 270.396 73.612 269.974 73.2266 269.438C72.8464 268.901 72.6562 268.276 72.6562 267.562H74.6328C74.6328 268.208 74.8464 268.708 75.2734 269.062C75.7005 269.417 76.3125 269.594 77.1094 269.594C77.7969 269.594 78.3125 269.456 78.6562 269.18C79.0052 268.898 79.1797 268.529 79.1797 268.07Z" fill="#3447D3"/>
</svg>
