<svg width="791" height="328" viewBox="0 0 791 328" fill="none" xmlns="http://www.w3.org/2000/svg">
<circle cx="121" cy="139" r="42" fill="#D5E8FF"/>
<circle cx="686" cy="139" r="42" fill="#D5E8FF"/>
<path d="M104 160V152V140H94H92V152V160V164H104V160Z" fill="#1282D6"/>
<path d="M138 160V164H150V160V152V140H148H138V152V160Z" fill="#1282D6"/>
<path d="M104 160V164H109H117H125H133H138V160V152V140V136H135L121 131L108 136H104V140V152V160Z" fill="#F9F7ED"/>
<path d="M121 131L135 136H138H140V134L121 127L102 134V136H104H108L121 131Z" fill="#F2CC2F"/>
<path d="M127 123H131V119C131 116.515 126.523 113 121 113C115.477 113 111 116.515 111 119V123H115H127Z" fill="#F2CC2F"/>
<path d="M124 109H121H118V113H121H124V109Z" fill="#F2CC2F"/>
<path d="M131 130V123H127H115H111V130H112.857L121 127L129.143 130H131Z" fill="#F9F7ED"/>
<path d="M92 165H104H138H150C150.552 165 151 164.553 151 164V140C151 139.447 150.552 139 150 139H149V137H147V139H139V137H140C140.552 137 141 136.553 141 136V134C141 133.581 140.739 133.206 140.346 133.062L138 132.197V130H136V131.46L132 129.986V124H135V122H132V119C132 116.594 129.037 113.786 125 112.591V109C125 108.447 124.552 108 124 108H122V105H120V108H118C117.448 108 117 108.447 117 109V112.591C112.963 113.787 110 116.594 110 119V122H107V124H110V129.987L106 131.461V130H104V132.197L101.654 133.061C101.261 133.206 101 133.581 101 134V136C101 136.553 101.448 137 102 137H103V139H95V137H93V139H92C91.448 139 91 139.447 91 140V164C91 164.553 91.448 165 92 165ZM93 161H103V163H93V161ZM114 155V153H120V155H122V153H128V155H130V153H137V159H134V157H132V159H126V156H124V159H118V156H116V159H110V157H108V159H105V153H112V155H114ZM128 137V151H122V137H128ZM113.386 135L121.013 132.066L129.227 135H113.386ZM120 137V151H114V137H120ZM139 153H149V159H139V153ZM118 161H124V163H118V161ZM116 163H110V161H116V163ZM126 161H132V163H126V161ZM134 161H137V163H134V161ZM103 159H93V153H103V159ZM105 161H108V163H105V161ZM139 163V161H149V163H139ZM149 141V151H139V141H149ZM137 140V151H130V137H135H137V140ZM138 135H135.172L121.336 130.059C121.111 129.978 120.863 129.982 120.641 130.067L107.814 135H104H103V134.697L105.016 133.954L113.202 130.938H113.203L115.346 130.149C115.347 130.149 115.348 130.148 115.349 130.147L121 128.065L126.651 130.147C126.652 130.147 126.653 130.148 126.654 130.149L128.797 130.938H128.798L136.984 133.954L139 134.697V135H138ZM112 120H116H126H130V122H127H115H112V120ZM121 114C122.859 114 124.519 115.778 124.912 118H117.088C117.481 115.778 119.141 114 121 114ZM126 124V127.776L121.346 126.061C121.123 125.979 120.877 125.979 120.655 126.061L116 127.776V124H126ZM128 128.513V124H130V129H129.322L128 128.513ZM129.674 118H126.928C126.789 116.925 126.437 115.921 125.917 115.053C127.745 115.866 129.092 117.008 129.674 118ZM119 112V110H123V112H119ZM116.083 115.053C115.563 115.921 115.211 116.925 115.072 118H112.326C112.908 117.008 114.255 115.866 116.083 115.053ZM112 129V124H114V128.513L112.678 129H112ZM108 137H112V151H105V140V137H108ZM103 141V151H93V141H103Z" fill="#001133"/>
<path d="M97 155H95V157H97V155Z" fill="#001133"/>
<path d="M101 155H99V157H101V155Z" fill="#001133"/>
<path d="M97 147H95V149H97V147Z" fill="#001133"/>
<path d="M101 147H99V149H101V147Z" fill="#001133"/>
<path d="M97 143H95V145H97V143Z" fill="#001133"/>
<path d="M101 143H99V145H101V143Z" fill="#001133"/>
<path d="M143 147H141V149H143V147Z" fill="#001133"/>
<path d="M147 147H145V149H147V147Z" fill="#001133"/>
<path d="M143 143H141V145H143V143Z" fill="#001133"/>
<path d="M147 143H145V145H147V143Z" fill="#001133"/>
<path d="M143 155H141V157H143V155Z" fill="#001133"/>
<path d="M147 155H145V157H147V155Z" fill="#001133"/>
<path d="M110 141H108V147H110V141Z" fill="#001133"/>
<path d="M118 141H116V147H118V141Z" fill="#001133"/>
<path d="M126 141H124V147H126V141Z" fill="#001133"/>
<path d="M134 141H132V147H134V141Z" fill="#001133"/>
<path d="M707.094 114.531H664.906C663.05 114.531 661.531 116.05 661.531 117.906V139C661.531 136.204 663.798 133.938 666.594 133.938H672.5C668.772 133.938 665.75 130.915 665.75 127.188C665.75 123.46 668.772 120.438 672.5 120.438C676.228 120.438 679.25 123.46 679.25 127.188C679.25 130.915 676.228 133.938 672.5 133.938H677.562C680.359 133.938 682.625 136.204 682.625 139V142.375H690.219V147.438H710.469V117.906C710.469 116.05 708.95 114.531 707.094 114.531Z" fill="#F9F5EF"/>
<path d="M681.781 147.438H680.938H666.594H661.531V149.969C661.531 151.825 663.05 153.344 664.906 153.344H679.25H692.75H707.094C708.95 153.344 710.469 151.825 710.469 149.969V147.438H690.219H681.781Z" fill="#06AAE9"/>
<path d="M675.875 160.094H696.125L692.75 153.344H679.25L675.875 160.094Z" fill="#F9F5EF"/>
<path d="M667.438 160.094L669.125 163.469H702.875L704.562 160.094H696.125H675.875H667.438Z" fill="#06AAE9"/>
<path d="M680.938 147.438H681.781H690.219V142.375H682.625V139C682.625 136.204 680.359 133.938 677.562 133.938H672.5H666.594C663.798 133.938 661.531 136.204 661.531 139V147.438H666.594H680.938Z" fill="#F4462D"/>
<path d="M672.5 133.938C676.228 133.938 679.25 130.915 679.25 127.188C679.25 123.46 676.228 120.438 672.5 120.438C668.772 120.438 665.75 123.46 665.75 127.188C665.75 130.915 668.772 133.938 672.5 133.938Z" fill="#F4462D"/>
<path d="M707.094 113.688H664.906C662.58 113.688 660.688 115.58 660.688 117.906V139V147.438V149.969C660.688 152.295 662.58 154.188 664.906 154.188H677.885L675.354 159.25H667.438C667.145 159.25 666.874 159.402 666.719 159.651C666.565 159.9 666.552 160.21 666.682 160.472L668.37 163.847C668.513 164.132 668.805 164.312 669.125 164.312H702.875C703.195 164.312 703.487 164.132 703.63 163.846L705.318 160.471C705.448 160.209 705.435 159.899 705.281 159.65C705.126 159.401 704.855 159.25 704.562 159.25H696.646L694.115 154.188H707.094C709.42 154.188 711.312 152.295 711.312 149.969V147.438V117.906C711.312 115.58 709.42 113.688 707.094 113.688ZM662.375 117.906C662.375 116.511 663.511 115.375 664.906 115.375H707.094C708.489 115.375 709.625 116.511 709.625 117.906V146.594H691.062V142.375C691.062 141.908 690.685 141.531 690.219 141.531H683.469V139C683.469 135.744 680.819 133.094 677.562 133.094H677.263C678.987 131.701 680.094 129.572 680.094 127.188C680.094 123 676.688 119.594 672.5 119.594C668.312 119.594 664.906 123 664.906 127.188C664.906 129.572 666.013 131.701 667.737 133.094H666.594C664.942 133.094 663.448 133.777 662.375 134.875V117.906ZM678.406 144.062V140.688H676.719V144.062C676.719 145.016 677.049 145.887 677.584 146.594H667.438V140.688H665.75V146.594H662.375V139C662.375 136.674 664.268 134.781 666.594 134.781H677.562C679.889 134.781 681.781 136.674 681.781 139V142.375C681.781 142.842 682.158 143.219 682.625 143.219H689.375V146.594H681.781H680.938C679.542 146.594 678.406 145.458 678.406 144.062ZM666.594 127.188C666.594 123.931 669.244 121.281 672.5 121.281C675.756 121.281 678.406 123.931 678.406 127.188C678.406 130.444 675.756 133.094 672.5 133.094C669.244 133.094 666.594 130.444 666.594 127.188ZM702.354 162.625H669.646L668.803 160.938H675.875H696.125H703.197L702.354 162.625ZM694.76 159.25H677.24L679.771 154.188H692.229L694.76 159.25ZM709.625 149.969C709.625 151.364 708.489 152.5 707.094 152.5H692.75H679.25H664.906C663.511 152.5 662.375 151.364 662.375 149.969V148.281H680.938H681.781H690.219H709.625V149.969Z" fill="black"/>
<path d="M703.719 121.281H683.469V122.969H703.719V121.281Z" fill="black"/>
<path d="M703.719 128.031H683.469V129.719H703.719V128.031Z" fill="black"/>
<path d="M688.531 124.656H683.469V126.344H688.531V124.656Z" fill="black"/>
<path d="M695.281 124.656H690.219V126.344H695.281V124.656Z" fill="black"/>
<path d="M703.719 124.656H696.969V126.344H703.719V124.656Z" fill="black"/>
<path d="M691.906 131.406H683.469V133.094H691.906V131.406Z" fill="black"/>
<path opacity="0.8" d="M53.0703 222.855C53.0703 224.535 52.7734 226.008 52.1797 227.273C51.5859 228.539 50.7344 229.516 49.625 230.203C48.5234 230.891 47.2578 231.234 45.8281 231.234C44.4141 231.234 43.1523 230.895 42.043 230.215C40.9336 229.535 40.0742 228.566 39.4648 227.309C38.8555 226.043 38.5469 224.59 38.5391 222.949V222.105C38.5391 220.426 38.8398 218.949 39.4414 217.676C40.0508 216.395 40.9062 215.414 42.0078 214.734C43.1172 214.047 44.3828 213.703 45.8047 213.703C47.2266 213.703 48.4883 214.047 49.5898 214.734C50.6992 215.414 51.5547 216.395 52.1562 217.676C52.7656 218.949 53.0703 220.422 53.0703 222.094V222.855ZM49.5078 222.082C49.5078 220.293 49.1875 218.934 48.5469 218.004C47.9062 217.074 46.9922 216.609 45.8047 216.609C44.625 216.609 43.7148 217.07 43.0742 217.992C42.4336 218.906 42.1094 220.25 42.1016 222.023V222.855C42.1016 224.598 42.4219 225.949 43.0625 226.91C43.7031 227.871 44.625 228.352 45.8281 228.352C47.0078 228.352 47.9141 227.891 48.5469 226.969C49.1797 226.039 49.5 224.688 49.5078 222.914V222.082ZM56.5781 231V220.805H54.6914V218.32H56.5781V217.242C56.5781 215.82 56.9844 214.719 57.7969 213.938C58.6172 213.148 59.7617 212.754 61.2305 212.754C61.6992 212.754 62.2734 212.832 62.9531 212.988L62.918 215.613C62.6367 215.543 62.293 215.508 61.8867 215.508C60.6133 215.508 59.9766 216.105 59.9766 217.301V218.32H62.4961V220.805H59.9766V231H56.5781ZM65.4297 231V220.805H63.543V218.32H65.4297V217.242C65.4297 215.82 65.8359 214.719 66.6484 213.938C67.4688 213.148 68.6133 212.754 70.082 212.754C70.5508 212.754 71.125 212.832 71.8047 212.988L71.7695 215.613C71.4883 215.543 71.1445 215.508 70.7383 215.508C69.4648 215.508 68.8281 216.105 68.8281 217.301V218.32H71.3477V220.805H68.8281V231H65.4297ZM76.9297 231H73.5312V213H76.9297V231ZM83.5547 231H80.1562V218.32H83.5547V231ZM79.957 215.039C79.957 214.531 80.125 214.113 80.4609 213.785C80.8047 213.457 81.2695 213.293 81.8555 213.293C82.4336 213.293 82.8945 213.457 83.2383 213.785C83.582 214.113 83.7539 214.531 83.7539 215.039C83.7539 215.555 83.5781 215.977 83.2266 216.305C82.8828 216.633 82.4258 216.797 81.8555 216.797C81.2852 216.797 80.8242 216.633 80.4727 216.305C80.1289 215.977 79.957 215.555 79.957 215.039ZM89.7227 218.32L89.8281 219.785C90.7344 218.652 91.9492 218.086 93.4727 218.086C94.8164 218.086 95.8164 218.48 96.4727 219.27C97.1289 220.059 97.4648 221.238 97.4805 222.809V231H94.0938V222.891C94.0938 222.172 93.9375 221.652 93.625 221.332C93.3125 221.004 92.793 220.84 92.0664 220.84C91.1133 220.84 90.3984 221.246 89.9219 222.059V231H86.5352V218.32H89.7227ZM106.145 231.234C104.285 231.234 102.77 230.664 101.598 229.523C100.434 228.383 99.8516 226.863 99.8516 224.965V224.637C99.8516 223.363 100.098 222.227 100.59 221.227C101.082 220.219 101.777 219.445 102.676 218.906C103.582 218.359 104.613 218.086 105.77 218.086C107.504 218.086 108.867 218.633 109.859 219.727C110.859 220.82 111.359 222.371 111.359 224.379V225.762H103.285C103.395 226.59 103.723 227.254 104.27 227.754C104.824 228.254 105.523 228.504 106.367 228.504C107.672 228.504 108.691 228.031 109.426 227.086L111.09 228.949C110.582 229.668 109.895 230.23 109.027 230.637C108.16 231.035 107.199 231.234 106.145 231.234ZM105.758 220.828C105.086 220.828 104.539 221.055 104.117 221.508C103.703 221.961 103.438 222.609 103.32 223.453H108.031V223.184C108.016 222.434 107.812 221.855 107.422 221.449C107.031 221.035 106.477 220.828 105.758 220.828ZM126.297 226.77L130.164 213.938H134.078L128.137 231H124.469L118.551 213.938H122.453L126.297 226.77ZM139.297 231H135.898V218.32H139.297V231ZM135.699 215.039C135.699 214.531 135.867 214.113 136.203 213.785C136.547 213.457 137.012 213.293 137.598 213.293C138.176 213.293 138.637 213.457 138.98 213.785C139.324 214.113 139.496 214.531 139.496 215.039C139.496 215.555 139.32 215.977 138.969 216.305C138.625 216.633 138.168 216.797 137.598 216.797C137.027 216.797 136.566 216.633 136.215 216.305C135.871 215.977 135.699 215.555 135.699 215.039ZM149.215 227.496C149.215 227.082 149.008 226.758 148.594 226.523C148.188 226.281 147.531 226.066 146.625 225.879C143.609 225.246 142.102 223.965 142.102 222.035C142.102 220.91 142.566 219.973 143.496 219.223C144.434 218.465 145.656 218.086 147.164 218.086C148.773 218.086 150.059 218.465 151.02 219.223C151.988 219.98 152.473 220.965 152.473 222.176H149.086C149.086 221.691 148.93 221.293 148.617 220.98C148.305 220.66 147.816 220.5 147.152 220.5C146.582 220.5 146.141 220.629 145.828 220.887C145.516 221.145 145.359 221.473 145.359 221.871C145.359 222.246 145.535 222.551 145.887 222.785C146.246 223.012 146.848 223.211 147.691 223.383C148.535 223.547 149.246 223.734 149.824 223.945C151.613 224.602 152.508 225.738 152.508 227.355C152.508 228.512 152.012 229.449 151.02 230.168C150.027 230.879 148.746 231.234 147.176 231.234C146.113 231.234 145.168 231.047 144.34 230.672C143.52 230.289 142.875 229.77 142.406 229.113C141.938 228.449 141.703 227.734 141.703 226.969H144.914C144.945 227.57 145.168 228.031 145.582 228.352C145.996 228.672 146.551 228.832 147.246 228.832C147.895 228.832 148.383 228.711 148.711 228.469C149.047 228.219 149.215 227.895 149.215 227.496ZM158.523 231H155.125V218.32H158.523V231ZM154.926 215.039C154.926 214.531 155.094 214.113 155.43 213.785C155.773 213.457 156.238 213.293 156.824 213.293C157.402 213.293 157.863 213.457 158.207 213.785C158.551 214.113 158.723 214.531 158.723 215.039C158.723 215.555 158.547 215.977 158.195 216.305C157.852 216.633 157.395 216.797 156.824 216.797C156.254 216.797 155.793 216.633 155.441 216.305C155.098 215.977 154.926 215.555 154.926 215.039ZM165.629 215.203V218.32H167.797V220.805H165.629V227.133C165.629 227.602 165.719 227.938 165.898 228.141C166.078 228.344 166.422 228.445 166.93 228.445C167.305 228.445 167.637 228.418 167.926 228.363V230.93C167.262 231.133 166.578 231.234 165.875 231.234C163.5 231.234 162.289 230.035 162.242 227.637V220.805H160.391V218.32H162.242V215.203H165.629ZM169.055 224.543C169.055 223.285 169.297 222.164 169.781 221.18C170.266 220.195 170.961 219.434 171.867 218.895C172.781 218.355 173.84 218.086 175.043 218.086C176.754 218.086 178.148 218.609 179.227 219.656C180.312 220.703 180.918 222.125 181.043 223.922L181.066 224.789C181.066 226.734 180.523 228.297 179.438 229.477C178.352 230.648 176.895 231.234 175.066 231.234C173.238 231.234 171.777 230.648 170.684 229.477C169.598 228.305 169.055 226.711 169.055 224.695V224.543ZM172.441 224.789C172.441 225.992 172.668 226.914 173.121 227.555C173.574 228.188 174.223 228.504 175.066 228.504C175.887 228.504 176.527 228.191 176.988 227.566C177.449 226.934 177.68 225.926 177.68 224.543C177.68 223.363 177.449 222.449 176.988 221.801C176.527 221.152 175.879 220.828 175.043 220.828C174.215 220.828 173.574 221.152 173.121 221.801C172.668 222.441 172.441 223.438 172.441 224.789ZM190.527 221.496C190.066 221.434 189.66 221.402 189.309 221.402C188.027 221.402 187.188 221.836 186.789 222.703V231H183.402V218.32H186.602L186.695 219.832C187.375 218.668 188.316 218.086 189.52 218.086C189.895 218.086 190.246 218.137 190.574 218.238L190.527 221.496ZM199.285 227.496C199.285 227.082 199.078 226.758 198.664 226.523C198.258 226.281 197.602 226.066 196.695 225.879C193.68 225.246 192.172 223.965 192.172 222.035C192.172 220.91 192.637 219.973 193.566 219.223C194.504 218.465 195.727 218.086 197.234 218.086C198.844 218.086 200.129 218.465 201.09 219.223C202.059 219.98 202.543 220.965 202.543 222.176H199.156C199.156 221.691 199 221.293 198.688 220.98C198.375 220.66 197.887 220.5 197.223 220.5C196.652 220.5 196.211 220.629 195.898 220.887C195.586 221.145 195.43 221.473 195.43 221.871C195.43 222.246 195.605 222.551 195.957 222.785C196.316 223.012 196.918 223.211 197.762 223.383C198.605 223.547 199.316 223.734 199.895 223.945C201.684 224.602 202.578 225.738 202.578 227.355C202.578 228.512 202.082 229.449 201.09 230.168C200.098 230.879 198.816 231.234 197.246 231.234C196.184 231.234 195.238 231.047 194.41 230.672C193.59 230.289 192.945 229.77 192.477 229.113C192.008 228.449 191.773 227.734 191.773 226.969H194.984C195.016 227.57 195.238 228.031 195.652 228.352C196.066 228.672 196.621 228.832 197.316 228.832C197.965 228.832 198.453 228.711 198.781 228.469C199.117 228.219 199.285 227.895 199.285 227.496Z" fill="#202020"/>
<path opacity="0.8" d="M624.57 222.855C624.57 224.535 624.273 226.008 623.68 227.273C623.086 228.539 622.234 229.516 621.125 230.203C620.023 230.891 618.758 231.234 617.328 231.234C615.914 231.234 614.652 230.895 613.543 230.215C612.434 229.535 611.574 228.566 610.965 227.309C610.355 226.043 610.047 224.59 610.039 222.949V222.105C610.039 220.426 610.34 218.949 610.941 217.676C611.551 216.395 612.406 215.414 613.508 214.734C614.617 214.047 615.883 213.703 617.305 213.703C618.727 213.703 619.988 214.047 621.09 214.734C622.199 215.414 623.055 216.395 623.656 217.676C624.266 218.949 624.57 220.422 624.57 222.094V222.855ZM621.008 222.082C621.008 220.293 620.688 218.934 620.047 218.004C619.406 217.074 618.492 216.609 617.305 216.609C616.125 216.609 615.215 217.07 614.574 217.992C613.934 218.906 613.609 220.25 613.602 222.023V222.855C613.602 224.598 613.922 225.949 614.562 226.91C615.203 227.871 616.125 228.352 617.328 228.352C618.508 228.352 619.414 227.891 620.047 226.969C620.68 226.039 621 224.688 621.008 222.914V222.082ZM630.27 218.32L630.375 219.785C631.281 218.652 632.496 218.086 634.02 218.086C635.363 218.086 636.363 218.48 637.02 219.27C637.676 220.059 638.012 221.238 638.027 222.809V231H634.641V222.891C634.641 222.172 634.484 221.652 634.172 221.332C633.859 221.004 633.34 220.84 632.613 220.84C631.66 220.84 630.945 221.246 630.469 222.059V231H627.082V218.32H630.27ZM644.43 231H641.031V213H644.43V231ZM651.055 231H647.656V218.32H651.055V231ZM647.457 215.039C647.457 214.531 647.625 214.113 647.961 213.785C648.305 213.457 648.77 213.293 649.355 213.293C649.934 213.293 650.395 213.457 650.738 213.785C651.082 214.113 651.254 214.531 651.254 215.039C651.254 215.555 651.078 215.977 650.727 216.305C650.383 216.633 649.926 216.797 649.355 216.797C648.785 216.797 648.324 216.633 647.973 216.305C647.629 215.977 647.457 215.555 647.457 215.039ZM657.223 218.32L657.328 219.785C658.234 218.652 659.449 218.086 660.973 218.086C662.316 218.086 663.316 218.48 663.973 219.27C664.629 220.059 664.965 221.238 664.98 222.809V231H661.594V222.891C661.594 222.172 661.438 221.652 661.125 221.332C660.812 221.004 660.293 220.84 659.566 220.84C658.613 220.84 657.898 221.246 657.422 222.059V231H654.035V218.32H657.223ZM673.645 231.234C671.785 231.234 670.27 230.664 669.098 229.523C667.934 228.383 667.352 226.863 667.352 224.965V224.637C667.352 223.363 667.598 222.227 668.09 221.227C668.582 220.219 669.277 219.445 670.176 218.906C671.082 218.359 672.113 218.086 673.27 218.086C675.004 218.086 676.367 218.633 677.359 219.727C678.359 220.82 678.859 222.371 678.859 224.379V225.762H670.785C670.895 226.59 671.223 227.254 671.77 227.754C672.324 228.254 673.023 228.504 673.867 228.504C675.172 228.504 676.191 228.031 676.926 227.086L678.59 228.949C678.082 229.668 677.395 230.23 676.527 230.637C675.66 231.035 674.699 231.234 673.645 231.234ZM673.258 220.828C672.586 220.828 672.039 221.055 671.617 221.508C671.203 221.961 670.938 222.609 670.82 223.453H675.531V223.184C675.516 222.434 675.312 221.855 674.922 221.449C674.531 221.035 673.977 220.828 673.258 220.828ZM693.797 226.77L697.664 213.938H701.578L695.637 231H691.969L686.051 213.938H689.953L693.797 226.77ZM706.797 231H703.398V218.32H706.797V231ZM703.199 215.039C703.199 214.531 703.367 214.113 703.703 213.785C704.047 213.457 704.512 213.293 705.098 213.293C705.676 213.293 706.137 213.457 706.48 213.785C706.824 214.113 706.996 214.531 706.996 215.039C706.996 215.555 706.82 215.977 706.469 216.305C706.125 216.633 705.668 216.797 705.098 216.797C704.527 216.797 704.066 216.633 703.715 216.305C703.371 215.977 703.199 215.555 703.199 215.039ZM716.715 227.496C716.715 227.082 716.508 226.758 716.094 226.523C715.688 226.281 715.031 226.066 714.125 225.879C711.109 225.246 709.602 223.965 709.602 222.035C709.602 220.91 710.066 219.973 710.996 219.223C711.934 218.465 713.156 218.086 714.664 218.086C716.273 218.086 717.559 218.465 718.52 219.223C719.488 219.98 719.973 220.965 719.973 222.176H716.586C716.586 221.691 716.43 221.293 716.117 220.98C715.805 220.66 715.316 220.5 714.652 220.5C714.082 220.5 713.641 220.629 713.328 220.887C713.016 221.145 712.859 221.473 712.859 221.871C712.859 222.246 713.035 222.551 713.387 222.785C713.746 223.012 714.348 223.211 715.191 223.383C716.035 223.547 716.746 223.734 717.324 223.945C719.113 224.602 720.008 225.738 720.008 227.355C720.008 228.512 719.512 229.449 718.52 230.168C717.527 230.879 716.246 231.234 714.676 231.234C713.613 231.234 712.668 231.047 711.84 230.672C711.02 230.289 710.375 229.77 709.906 229.113C709.438 228.449 709.203 227.734 709.203 226.969H712.414C712.445 227.57 712.668 228.031 713.082 228.352C713.496 228.672 714.051 228.832 714.746 228.832C715.395 228.832 715.883 228.711 716.211 228.469C716.547 228.219 716.715 227.895 716.715 227.496ZM726.023 231H722.625V218.32H726.023V231ZM722.426 215.039C722.426 214.531 722.594 214.113 722.93 213.785C723.273 213.457 723.738 213.293 724.324 213.293C724.902 213.293 725.363 213.457 725.707 213.785C726.051 214.113 726.223 214.531 726.223 215.039C726.223 215.555 726.047 215.977 725.695 216.305C725.352 216.633 724.895 216.797 724.324 216.797C723.754 216.797 723.293 216.633 722.941 216.305C722.598 215.977 722.426 215.555 722.426 215.039ZM733.129 215.203V218.32H735.297V220.805H733.129V227.133C733.129 227.602 733.219 227.938 733.398 228.141C733.578 228.344 733.922 228.445 734.43 228.445C734.805 228.445 735.137 228.418 735.426 228.363V230.93C734.762 231.133 734.078 231.234 733.375 231.234C731 231.234 729.789 230.035 729.742 227.637V220.805H727.891V218.32H729.742V215.203H733.129ZM736.555 224.543C736.555 223.285 736.797 222.164 737.281 221.18C737.766 220.195 738.461 219.434 739.367 218.895C740.281 218.355 741.34 218.086 742.543 218.086C744.254 218.086 745.648 218.609 746.727 219.656C747.812 220.703 748.418 222.125 748.543 223.922L748.566 224.789C748.566 226.734 748.023 228.297 746.938 229.477C745.852 230.648 744.395 231.234 742.566 231.234C740.738 231.234 739.277 230.648 738.184 229.477C737.098 228.305 736.555 226.711 736.555 224.695V224.543ZM739.941 224.789C739.941 225.992 740.168 226.914 740.621 227.555C741.074 228.188 741.723 228.504 742.566 228.504C743.387 228.504 744.027 228.191 744.488 227.566C744.949 226.934 745.18 225.926 745.18 224.543C745.18 223.363 744.949 222.449 744.488 221.801C744.027 221.152 743.379 220.828 742.543 220.828C741.715 220.828 741.074 221.152 740.621 221.801C740.168 222.441 739.941 223.438 739.941 224.789ZM758.027 221.496C757.566 221.434 757.16 221.402 756.809 221.402C755.527 221.402 754.688 221.836 754.289 222.703V231H750.902V218.32H754.102L754.195 219.832C754.875 218.668 755.816 218.086 757.02 218.086C757.395 218.086 757.746 218.137 758.074 218.238L758.027 221.496ZM766.785 227.496C766.785 227.082 766.578 226.758 766.164 226.523C765.758 226.281 765.102 226.066 764.195 225.879C761.18 225.246 759.672 223.965 759.672 222.035C759.672 220.91 760.137 219.973 761.066 219.223C762.004 218.465 763.227 218.086 764.734 218.086C766.344 218.086 767.629 218.465 768.59 219.223C769.559 219.98 770.043 220.965 770.043 222.176H766.656C766.656 221.691 766.5 221.293 766.188 220.98C765.875 220.66 765.387 220.5 764.723 220.5C764.152 220.5 763.711 220.629 763.398 220.887C763.086 221.145 762.93 221.473 762.93 221.871C762.93 222.246 763.105 222.551 763.457 222.785C763.816 223.012 764.418 223.211 765.262 223.383C766.105 223.547 766.816 223.734 767.395 223.945C769.184 224.602 770.078 225.738 770.078 227.355C770.078 228.512 769.582 229.449 768.59 230.168C767.598 230.879 766.316 231.234 764.746 231.234C763.684 231.234 762.738 231.047 761.91 230.672C761.09 230.289 760.445 229.77 759.977 229.113C759.508 228.449 759.273 227.734 759.273 226.969H762.484C762.516 227.57 762.738 228.031 763.152 228.352C763.566 228.672 764.121 228.832 764.816 228.832C765.465 228.832 765.953 228.711 766.281 228.469C766.617 228.219 766.785 227.895 766.785 227.496Z" fill="#202020"/>
<path d="M410.353 38.1465C408.628 38.1465 407.23 39.5467 407.23 41.2768V53.7699C407.23 55.495 408.628 56.8906 410.353 56.8906C412.079 56.8906 413.477 55.4947 413.477 53.7699V41.2768C413.477 39.5467 412.079 38.1465 410.353 38.1465Z" fill="black"/>
<path d="M389.706 75.1372H402.422" stroke="black" stroke-width="4" stroke-linecap="round" stroke-linejoin="round"/>
<path fill-rule="evenodd" clip-rule="evenodd" d="M356.335 83.2106C354.013 84.7448 351.56 87.6422 351.56 94.2104V152.008H340V94.2104C340 84.0174 344.193 77.3781 349.963 73.566C355.335 70.0165 361.395 69.3574 364.853 69.3574H389.706V80.917H364.853C362.531 80.917 359.055 81.4138 356.335 83.2106Z" fill="#B2CEFF" stroke="black"/>
<path d="M431.32 75.1372H418.605" stroke="black" stroke-width="4" stroke-linecap="round" stroke-linejoin="round"/>
<path fill-rule="evenodd" clip-rule="evenodd" d="M464.691 83.2106C467.013 84.7448 469.467 87.6422 469.467 94.2104V152.008H481.026V94.2104C481.026 84.0174 476.833 77.3781 471.064 73.566C465.691 70.0165 459.631 69.3574 456.173 69.3574H431.32V80.917H456.173C458.495 80.917 461.972 81.4138 464.691 83.2106Z" fill="#B2CEFF" stroke="black"/>
<path d="M434.288 24.853C434.288 33.0217 430.267 40.2511 424.093 44.6697C423.335 45.2128 421.701 46.5704 420.044 48.435C418.389 50.2971 416.681 52.6985 415.818 55.3299C414.649 58.8914 413.945 62.8463 413.328 66.3174C413.147 67.3327 412.974 68.3066 412.798 69.2171C412.407 71.2494 412.009 72.9468 411.508 74.1302C410.988 75.3557 410.463 75.793 409.935 75.793C409.396 75.793 408.838 75.3396 408.265 74.1135C407.711 72.929 407.243 71.2305 406.779 69.2005C406.524 68.0839 406.272 66.8715 406.009 65.6042C405.324 62.3104 404.563 58.6459 403.474 55.3299C402.615 52.7123 401.062 50.3169 399.552 48.4524C398.044 46.5906 396.55 45.2236 395.777 44.6697C389.603 40.2511 385.582 33.0217 385.582 24.853C385.582 11.4032 396.485 0.5 409.935 0.5C423.385 0.5 434.288 11.4032 434.288 24.853Z" fill="#EB5959" stroke="black"/>
<path d="M400.109 15.0273L419.761 34.6786" stroke="white" stroke-width="3"/>
<path d="M419.761 15.0273L400.11 34.6786" stroke="white" stroke-width="3"/>
<path d="M391.513 54.0083L398.513 62.0083" stroke="black" stroke-width="3"/>
<path d="M428.513 94.0078L422.513 85.0078" stroke="black" stroke-width="3"/>
<path d="M409.985 101.977L410.036 91.3198" stroke="black" stroke-width="3"/>
<path d="M422.513 62.0083L428.513 54.0083" stroke="black" stroke-width="3"/>
<path d="M398.513 85.0078L391.513 94.0078" stroke="black" stroke-width="3"/>
<rect x="196.5" y="139.5" width="155" height="13" fill="#B2CEFF" stroke="black"/>
<rect x="469.5" y="139.5" width="155" height="13" fill="#B2CEFF" stroke="black"/>
<rect x="341" y="136" width="10" height="7" fill="#B2CEFF"/>
<rect x="470" y="136" width="10" height="7" fill="#B2CEFF"/>
<path d="M37.3574 308H32.084V282.406H37.3574V308ZM46.9414 288.98L47.0996 291.107C48.4473 289.455 50.2695 288.629 52.5664 288.629C55.0156 288.629 56.6973 289.596 57.6113 291.529C58.9473 289.596 60.8516 288.629 63.3242 288.629C65.3867 288.629 66.9219 289.232 67.9297 290.439C68.9375 291.635 69.4414 293.439 69.4414 295.854V308H64.3438V295.871C64.3438 294.793 64.1328 294.008 63.7109 293.516C63.2891 293.012 62.5449 292.76 61.4785 292.76C59.9551 292.76 58.9004 293.486 58.3145 294.939L58.332 308H53.252V295.889C53.252 294.787 53.0352 293.99 52.6016 293.498C52.168 293.006 51.4297 292.76 50.3867 292.76C48.9453 292.76 47.9023 293.357 47.2578 294.553V308H42.1777V288.98H46.9414ZM90.7324 298.666C90.7324 301.596 90.0645 303.945 88.7285 305.715C87.4043 307.473 85.6113 308.352 83.3496 308.352C81.4277 308.352 79.875 307.684 78.6914 306.348V315.312H73.6113V288.98H78.3223L78.498 290.844C79.7285 289.367 81.334 288.629 83.3145 288.629C85.6582 288.629 87.4805 289.496 88.7812 291.23C90.082 292.965 90.7324 295.355 90.7324 298.402V298.666ZM85.6523 298.297C85.6523 296.527 85.3359 295.162 84.7031 294.201C84.082 293.24 83.1738 292.76 81.9785 292.76C80.3848 292.76 79.2891 293.369 78.6914 294.588V302.375C79.3125 303.629 80.4199 304.256 82.0137 304.256C84.4395 304.256 85.6523 302.27 85.6523 298.297ZM104.834 293.744C104.143 293.65 103.533 293.604 103.006 293.604C101.084 293.604 99.8242 294.254 99.2266 295.555V308H94.1465V288.98H98.9453L99.0859 291.248C100.105 289.502 101.518 288.629 103.322 288.629C103.885 288.629 104.412 288.705 104.904 288.857L104.834 293.744ZM115.947 308.352C113.158 308.352 110.885 307.496 109.127 305.785C107.381 304.074 106.508 301.795 106.508 298.947V298.455C106.508 296.545 106.877 294.84 107.615 293.34C108.354 291.828 109.396 290.668 110.744 289.859C112.104 289.039 113.65 288.629 115.385 288.629C117.986 288.629 120.031 289.449 121.52 291.09C123.02 292.73 123.77 295.057 123.77 298.068V300.143H111.658C111.822 301.385 112.314 302.381 113.135 303.131C113.967 303.881 115.016 304.256 116.281 304.256C118.238 304.256 119.768 303.547 120.869 302.129L123.365 304.924C122.604 306.002 121.572 306.846 120.271 307.455C118.971 308.053 117.529 308.352 115.947 308.352ZM115.367 292.742C114.359 292.742 113.539 293.082 112.906 293.762C112.285 294.441 111.887 295.414 111.711 296.68H118.777V296.275C118.754 295.15 118.449 294.283 117.863 293.674C117.277 293.053 116.445 292.742 115.367 292.742ZM137.221 302.744C137.221 302.123 136.91 301.637 136.289 301.285C135.68 300.922 134.695 300.6 133.336 300.318C128.812 299.369 126.551 297.447 126.551 294.553C126.551 292.865 127.248 291.459 128.643 290.334C130.049 289.197 131.883 288.629 134.145 288.629C136.559 288.629 138.486 289.197 139.928 290.334C141.381 291.471 142.107 292.947 142.107 294.764H137.027C137.027 294.037 136.793 293.439 136.324 292.971C135.855 292.49 135.123 292.25 134.127 292.25C133.271 292.25 132.609 292.443 132.141 292.83C131.672 293.217 131.438 293.709 131.438 294.307C131.438 294.869 131.701 295.326 132.229 295.678C132.768 296.018 133.67 296.316 134.936 296.574C136.201 296.82 137.268 297.102 138.135 297.418C140.818 298.402 142.16 300.107 142.16 302.533C142.16 304.268 141.416 305.674 139.928 306.752C138.439 307.818 136.518 308.352 134.162 308.352C132.568 308.352 131.15 308.07 129.908 307.508C128.678 306.934 127.711 306.154 127.008 305.17C126.305 304.174 125.953 303.102 125.953 301.953H130.77C130.816 302.855 131.15 303.547 131.771 304.027C132.393 304.508 133.225 304.748 134.268 304.748C135.24 304.748 135.973 304.566 136.465 304.203C136.969 303.828 137.221 303.342 137.221 302.744ZM155.998 302.744C155.998 302.123 155.688 301.637 155.066 301.285C154.457 300.922 153.473 300.6 152.113 300.318C147.59 299.369 145.328 297.447 145.328 294.553C145.328 292.865 146.025 291.459 147.42 290.334C148.826 289.197 150.66 288.629 152.922 288.629C155.336 288.629 157.264 289.197 158.705 290.334C160.158 291.471 160.885 292.947 160.885 294.764H155.805C155.805 294.037 155.57 293.439 155.102 292.971C154.633 292.49 153.9 292.25 152.904 292.25C152.049 292.25 151.387 292.443 150.918 292.83C150.449 293.217 150.215 293.709 150.215 294.307C150.215 294.869 150.479 295.326 151.006 295.678C151.545 296.018 152.447 296.316 153.713 296.574C154.979 296.82 156.045 297.102 156.912 297.418C159.596 298.402 160.938 300.107 160.938 302.533C160.938 304.268 160.193 305.674 158.705 306.752C157.217 307.818 155.295 308.352 152.939 308.352C151.346 308.352 149.928 308.07 148.686 307.508C147.455 306.934 146.488 306.154 145.785 305.17C145.082 304.174 144.73 303.102 144.73 301.953H149.547C149.594 302.855 149.928 303.547 150.549 304.027C151.17 304.508 152.002 304.748 153.045 304.748C154.018 304.748 154.75 304.566 155.242 304.203C155.746 303.828 155.998 303.342 155.998 302.744ZM173.229 308.352C170.439 308.352 168.166 307.496 166.408 305.785C164.662 304.074 163.789 301.795 163.789 298.947V298.455C163.789 296.545 164.158 294.84 164.896 293.34C165.635 291.828 166.678 290.668 168.025 289.859C169.385 289.039 170.932 288.629 172.666 288.629C175.268 288.629 177.312 289.449 178.801 291.09C180.301 292.73 181.051 295.057 181.051 298.068V300.143H168.939C169.104 301.385 169.596 302.381 170.416 303.131C171.248 303.881 172.297 304.256 173.562 304.256C175.52 304.256 177.049 303.547 178.15 302.129L180.646 304.924C179.885 306.002 178.854 306.846 177.553 307.455C176.252 308.053 174.811 308.352 173.229 308.352ZM172.648 292.742C171.641 292.742 170.82 293.082 170.188 293.762C169.566 294.441 169.168 295.414 168.992 296.68H176.059V296.275C176.035 295.15 175.73 294.283 175.145 293.674C174.559 293.053 173.727 292.742 172.648 292.742ZM183.41 298.35C183.41 295.385 184.072 293.023 185.396 291.266C186.732 289.508 188.555 288.629 190.863 288.629C192.715 288.629 194.244 289.32 195.451 290.703V281H200.549V308H195.961L195.715 305.979C194.449 307.561 192.82 308.352 190.828 308.352C188.59 308.352 186.791 307.473 185.432 305.715C184.084 303.945 183.41 301.49 183.41 298.35ZM188.49 298.719C188.49 300.5 188.801 301.865 189.422 302.814C190.043 303.764 190.945 304.238 192.129 304.238C193.699 304.238 194.807 303.576 195.451 302.252V294.746C194.818 293.422 193.723 292.76 192.164 292.76C189.715 292.76 188.49 294.746 188.49 298.719Z" fill="#FF6108"/>
<path d="M607.152 308V282.406H615.027C617.277 282.406 619.287 282.916 621.057 283.936C622.838 284.943 624.227 286.385 625.223 288.26C626.219 290.123 626.717 292.244 626.717 294.623V295.801C626.717 298.18 626.225 300.295 625.24 302.146C624.268 303.998 622.891 305.434 621.109 306.453C619.328 307.473 617.318 307.988 615.08 308H607.152ZM612.426 286.678V303.764H614.975C617.037 303.764 618.613 303.09 619.703 301.742C620.793 300.395 621.35 298.467 621.373 295.959V294.605C621.373 292.004 620.834 290.035 619.756 288.699C618.678 287.352 617.102 286.678 615.027 286.678H612.426ZM639.236 308.352C636.447 308.352 634.174 307.496 632.416 305.785C630.67 304.074 629.797 301.795 629.797 298.947V298.455C629.797 296.545 630.166 294.84 630.904 293.34C631.643 291.828 632.686 290.668 634.033 289.859C635.393 289.039 636.939 288.629 638.674 288.629C641.275 288.629 643.32 289.449 644.809 291.09C646.309 292.73 647.059 295.057 647.059 298.068V300.143H634.947C635.111 301.385 635.604 302.381 636.424 303.131C637.256 303.881 638.305 304.256 639.57 304.256C641.527 304.256 643.057 303.547 644.158 302.129L646.654 304.924C645.893 306.002 644.861 306.846 643.561 307.455C642.26 308.053 640.818 308.352 639.236 308.352ZM638.656 292.742C637.648 292.742 636.828 293.082 636.195 293.762C635.574 294.441 635.176 295.414 635 296.68H642.066V296.275C642.043 295.15 641.738 294.283 641.152 293.674C640.566 293.053 639.734 292.742 638.656 292.742ZM667.33 298.666C667.33 301.596 666.662 303.945 665.326 305.715C664.002 307.473 662.209 308.352 659.947 308.352C658.025 308.352 656.473 307.684 655.289 306.348V315.312H650.209V288.98H654.92L655.096 290.844C656.326 289.367 657.932 288.629 659.912 288.629C662.256 288.629 664.078 289.496 665.379 291.23C666.68 292.965 667.33 295.355 667.33 298.402V298.666ZM662.25 298.297C662.25 296.527 661.934 295.162 661.301 294.201C660.68 293.24 659.771 292.76 658.576 292.76C656.982 292.76 655.887 293.369 655.289 294.588V302.375C655.91 303.629 657.018 304.256 658.611 304.256C661.037 304.256 662.25 302.27 662.25 298.297ZM681.432 293.744C680.74 293.65 680.131 293.604 679.604 293.604C677.682 293.604 676.422 294.254 675.824 295.555V308H670.744V288.98H675.543L675.684 291.248C676.703 289.502 678.115 288.629 679.92 288.629C680.482 288.629 681.01 288.705 681.502 288.857L681.432 293.744ZM692.545 308.352C689.756 308.352 687.482 307.496 685.725 305.785C683.979 304.074 683.105 301.795 683.105 298.947V298.455C683.105 296.545 683.475 294.84 684.213 293.34C684.951 291.828 685.994 290.668 687.342 289.859C688.701 289.039 690.248 288.629 691.982 288.629C694.584 288.629 696.629 289.449 698.117 291.09C699.617 292.73 700.367 295.057 700.367 298.068V300.143H688.256C688.42 301.385 688.912 302.381 689.732 303.131C690.564 303.881 691.613 304.256 692.879 304.256C694.836 304.256 696.365 303.547 697.467 302.129L699.963 304.924C699.201 306.002 698.17 306.846 696.869 307.455C695.568 308.053 694.127 308.352 692.545 308.352ZM691.965 292.742C690.957 292.742 690.137 293.082 689.504 293.762C688.883 294.441 688.484 295.414 688.309 296.68H695.375V296.275C695.352 295.15 695.047 294.283 694.461 293.674C693.875 293.053 693.043 292.742 691.965 292.742ZM713.818 302.744C713.818 302.123 713.508 301.637 712.887 301.285C712.277 300.922 711.293 300.6 709.934 300.318C705.41 299.369 703.148 297.447 703.148 294.553C703.148 292.865 703.846 291.459 705.24 290.334C706.646 289.197 708.48 288.629 710.742 288.629C713.156 288.629 715.084 289.197 716.525 290.334C717.979 291.471 718.705 292.947 718.705 294.764H713.625C713.625 294.037 713.391 293.439 712.922 292.971C712.453 292.49 711.721 292.25 710.725 292.25C709.869 292.25 709.207 292.443 708.738 292.83C708.27 293.217 708.035 293.709 708.035 294.307C708.035 294.869 708.299 295.326 708.826 295.678C709.365 296.018 710.268 296.316 711.533 296.574C712.799 296.82 713.865 297.102 714.732 297.418C717.416 298.402 718.758 300.107 718.758 302.533C718.758 304.268 718.014 305.674 716.525 306.752C715.037 307.818 713.115 308.352 710.76 308.352C709.166 308.352 707.748 308.07 706.506 307.508C705.275 306.934 704.309 306.154 703.605 305.17C702.902 304.174 702.551 303.102 702.551 301.953H707.367C707.414 302.855 707.748 303.547 708.369 304.027C708.99 304.508 709.822 304.748 710.865 304.748C711.838 304.748 712.57 304.566 713.062 304.203C713.566 303.828 713.818 303.342 713.818 302.744ZM732.596 302.744C732.596 302.123 732.285 301.637 731.664 301.285C731.055 300.922 730.07 300.6 728.711 300.318C724.188 299.369 721.926 297.447 721.926 294.553C721.926 292.865 722.623 291.459 724.018 290.334C725.424 289.197 727.258 288.629 729.52 288.629C731.934 288.629 733.861 289.197 735.303 290.334C736.756 291.471 737.482 292.947 737.482 294.764H732.402C732.402 294.037 732.168 293.439 731.699 292.971C731.23 292.49 730.498 292.25 729.502 292.25C728.646 292.25 727.984 292.443 727.516 292.83C727.047 293.217 726.812 293.709 726.812 294.307C726.812 294.869 727.076 295.326 727.604 295.678C728.143 296.018 729.045 296.316 730.311 296.574C731.576 296.82 732.643 297.102 733.51 297.418C736.193 298.402 737.535 300.107 737.535 302.533C737.535 304.268 736.791 305.674 735.303 306.752C733.814 307.818 731.893 308.352 729.537 308.352C727.943 308.352 726.525 308.07 725.283 307.508C724.053 306.934 723.086 306.154 722.383 305.17C721.68 304.174 721.328 303.102 721.328 301.953H726.145C726.191 302.855 726.525 303.547 727.146 304.027C727.768 304.508 728.6 304.748 729.643 304.748C730.615 304.748 731.348 304.566 731.84 304.203C732.344 303.828 732.596 303.342 732.596 302.744ZM749.826 308.352C747.037 308.352 744.764 307.496 743.006 305.785C741.26 304.074 740.387 301.795 740.387 298.947V298.455C740.387 296.545 740.756 294.84 741.494 293.34C742.232 291.828 743.275 290.668 744.623 289.859C745.982 289.039 747.529 288.629 749.264 288.629C751.865 288.629 753.91 289.449 755.398 291.09C756.898 292.73 757.648 295.057 757.648 298.068V300.143H745.537C745.701 301.385 746.193 302.381 747.014 303.131C747.846 303.881 748.895 304.256 750.16 304.256C752.117 304.256 753.646 303.547 754.748 302.129L757.244 304.924C756.482 306.002 755.451 306.846 754.15 307.455C752.85 308.053 751.408 308.352 749.826 308.352ZM749.246 292.742C748.238 292.742 747.418 293.082 746.785 293.762C746.164 294.441 745.766 295.414 745.59 296.68H752.656V296.275C752.633 295.15 752.328 294.283 751.742 293.674C751.156 293.053 750.324 292.742 749.246 292.742ZM760.008 298.35C760.008 295.385 760.67 293.023 761.994 291.266C763.33 289.508 765.152 288.629 767.461 288.629C769.312 288.629 770.842 289.32 772.049 290.703V281H777.146V308H772.559L772.312 305.979C771.047 307.561 769.418 308.352 767.426 308.352C765.188 308.352 763.389 307.473 762.029 305.715C760.682 303.945 760.008 301.49 760.008 298.35ZM765.088 298.719C765.088 300.5 765.398 301.865 766.02 302.814C766.641 303.764 767.543 304.238 768.727 304.238C770.297 304.238 771.404 303.576 772.049 302.252V294.746C771.416 293.422 770.32 292.76 768.762 292.76C766.312 292.76 765.088 294.746 765.088 298.719Z" fill="#FF6108"/>
</svg>
