<svg width="64" height="64" viewBox="0 0 64 64" fill="none" xmlns="http://www.w3.org/2000/svg">
<path d="M3 61H62V2H3V61ZM43 11.667V9H47V10.23V13H43V11.667ZM43 29.667V27H47V28.23V31H43V29.667ZM31 16.333V13H35V14.333V17H31V16.333ZM31 34.333V31H35V32.333V35H31V34.333ZM19 24.333V21H23V21.667V25H19V24.333ZM19 42.333V39H23V39.667V43H19V42.333ZM7 29H11V29.667V33H7V29ZM7 47H11V47.667V51H7V47Z" fill="#F8CF26"/>
<path d="M23 39.667V39H19V42.333V43H23V39.667Z" fill="#F4462D"/>
<path d="M35 32.333V31H31V34.333V35H35V32.333Z" fill="#F4462D"/>
<path d="M47 28.23V27H43V29.667V31H47V28.23Z" fill="#F4462D"/>
<path d="M11 47.667V47H7V51H11V47.667Z" fill="#F4462D"/>
<path d="M23 21.667V21H19V24.333V25H23V21.667Z" fill="#06AAE9"/>
<path d="M35 14.333V13H31V16.333V17H35V14.333Z" fill="#06AAE9"/>
<path d="M11 29.667V29H7V33H11V29.667Z" fill="#06AAE9"/>
<path d="M47 10.23V9H43V11.667V13H47V10.23Z" fill="#06AAE9"/>
<path d="M10 54H8V56H10V54Z" fill="#513E37"/>
<path d="M22 46H20V48H22V46Z" fill="#513E37"/>
<path d="M22 50H20V52H22V50Z" fill="#513E37"/>
<path d="M22 54H20V56H22V54Z" fill="#513E37"/>
<path d="M34 38H32V40H34V38Z" fill="#513E37"/>
<path d="M34 42H32V44H34V42Z" fill="#513E37"/>
<path d="M34 46H32V48H34V46Z" fill="#513E37"/>
<path d="M34 50H32V52H34V50Z" fill="#513E37"/>
<path d="M34 54H32V56H34V54Z" fill="#513E37"/>
<path d="M46 34H44V36H46V34Z" fill="#513E37"/>
<path d="M46 38H44V40H46V38Z" fill="#513E37"/>
<path d="M46 42H44V44H46V42Z" fill="#513E37"/>
<path d="M46 46H44V48H46V46Z" fill="#513E37"/>
<path d="M46 50H44V52H46V50Z" fill="#513E37"/>
<path d="M46 54H44V56H46V54Z" fill="#513E37"/>
<path d="M58 42H56V44H58V42Z" fill="#513E37"/>
<path d="M58 46H56V48H58V46Z" fill="#513E37"/>
<path d="M58 50H56V52H58V50Z" fill="#513E37"/>
<path d="M58 54H56V56H58V54Z" fill="#513E37"/>
<path d="M58 58H56V60H46V58H44V60H34V58H32V60H22V58H20V60H10V58H8V60H4V56.35L7.48 52H11C11.552 52 12 51.552 12 51V48.202L18.502 43.868C18.525 43.881 18.552 43.887 18.576 43.899C18.601 43.911 18.626 43.921 18.653 43.931C18.762 43.971 18.877 44 19 44H23C23.552 44 24 43.552 24 43V40.202L30.502 35.868C30.525 35.881 30.552 35.887 30.576 35.899C30.601 35.911 30.626 35.921 30.653 35.931C30.762 35.971 30.877 36 31 36H35C35.552 36 36 35.552 36 35V33.054L42.001 31.054C42.005 31.123 42.033 31.184 42.05 31.249C42.064 31.302 42.067 31.357 42.089 31.406C42.12 31.476 42.17 31.534 42.216 31.594C42.246 31.634 42.267 31.68 42.303 31.714C42.363 31.772 42.437 31.811 42.51 31.853C42.547 31.874 42.577 31.906 42.617 31.922C42.735 31.972 42.864 32 43 32H47C47.552 32 48 31.552 48 31V28.917C48.365 28.773 48.787 28.605 49.229 28.427C50.501 27.917 52.631 27.063 53.067 26.996L53 26V25C52.485 25 51.473 25.373 48.485 26.57C48.304 26.643 48.127 26.714 47.956 26.782C47.854 26.338 47.475 26 47 26H43C42.448 26 42 26.448 42 27V28.946L35.99 30.95C35.962 30.422 35.534 30 35 30H31C30.448 30 30 30.448 30 31V33.798L23.484 38.142C23.338 38.06 23.179 38 23 38H19C18.448 38 18 38.448 18 39V41.798L11.484 46.142C11.338 46.06 11.179 46 11 46H7C6.448 46 6 46.448 6 47V50.65L4 53.15V37.414L7.414 34H11C11.552 34 12 33.552 12 33V30.202L18.502 25.868C18.525 25.881 18.552 25.887 18.576 25.899C18.601 25.911 18.626 25.921 18.653 25.931C18.762 25.971 18.877 26 19 26H23C23.552 26 24 25.552 24 25V22.202L30.502 17.868C30.525 17.881 30.552 17.887 30.576 17.899C30.601 17.911 30.626 17.921 30.653 17.931C30.762 17.971 30.877 18 31 18H35C35.552 18 36 17.552 36 17V15.054L42.001 13.054C42.005 13.123 42.033 13.184 42.05 13.249C42.064 13.302 42.067 13.357 42.089 13.406C42.12 13.476 42.17 13.534 42.216 13.594C42.246 13.634 42.267 13.68 42.303 13.714C42.363 13.772 42.437 13.811 42.51 13.853C42.547 13.874 42.577 13.906 42.617 13.922C42.735 13.972 42.864 14 43 14H47C47.552 14 48 13.552 48 13V10.894C48.332 10.743 48.683 10.568 49.047 10.387C50.292 9.769 51.84 9 53 9V7C51.371 7 49.589 7.885 48.157 8.596C48.081 8.634 48.014 8.665 47.94 8.702C47.812 8.298 47.447 8 47 8H43C42.448 8 42 8.448 42 9V10.946L35.99 12.95C35.962 12.422 35.534 12 35 12H31C30.448 12 30 12.448 30 13V15.798L23.484 20.142C23.338 20.06 23.179 20 23 20H19C18.448 20 18 20.448 18 21V23.798L11.484 28.142C11.338 28.06 11.179 28 11 28H7C6.448 28 6 28.448 6 29V32.586L4 34.586V2H2V61C2 61.552 2.448 62 3 62H62V60H58V58ZM44 28H46V28.23V30H44V29.667V28ZM32 32H34V32.333V34H32V32ZM20 40H22V42H20V40ZM8 48H10V50H8V48ZM44 10H46V10.23V12H44V11.667V10ZM32 14H34V14.333V16H32V14ZM20 22H22V24H20V22ZM8 30H10V32H8V30Z" fill="#513E37"/>
<path d="M10 36H8V38H10V36Z" fill="#513E37"/>
<path d="M10 40H8V42H10V40Z" fill="#513E37"/>
<path d="M22 32H20V34H22V32Z" fill="#513E37"/>
<path d="M22 28H20V30H22V28Z" fill="#513E37"/>
<path d="M34 24H32V26H34V24Z" fill="#513E37"/>
<path d="M34 20H32V22H34V20Z" fill="#513E37"/>
<path d="M46 20H44V22H46V20Z" fill="#513E37"/>
<path d="M46 16H44V18H46V16Z" fill="#513E37"/>
<path d="M58 31H61V29H58V25.816C59.161 25.402 60 24.302 60 23C60 21.346 58.654 20 57 20C55.346 20 54 21.346 54 23C54 24.302 54.839 25.402 56 25.816V29H53V31H56V34H58V31ZM57 22C57.551 22 58 22.449 58 23C58 23.551 57.551 24 57 24C56.449 24 56 23.551 56 23C56 22.449 56.449 22 57 22Z" fill="#513E37"/>
<path d="M60.1992 7.59997L61.7992 6.39997L58.7992 2.39997C58.4222 1.89597 57.5762 1.89597 57.1992 2.39997L54.1992 6.39997L55.7992 7.59997L56.9992 5.99997V9.18397C55.8382 9.59797 54.9992 10.698 54.9992 12C54.9992 13.654 56.3452 15 57.9992 15C59.6532 15 60.9992 13.654 60.9992 12C60.9992 10.698 60.1602 9.59797 58.9992 9.18397V5.99997L60.1992 7.59997ZM57.9992 13C57.4482 13 56.9992 12.551 56.9992 12C56.9992 11.449 57.4482 11 57.9992 11C58.5502 11 58.9992 11.449 58.9992 12C58.9992 12.551 58.5502 13 57.9992 13Z" fill="#513E37"/>
<path d="M58 38H56V40H58V38Z" fill="#513E37"/>
</svg>
