<svg width="89" height="84" viewBox="0 0 89 84" fill="none" xmlns="http://www.w3.org/2000/svg">
<path d="M84.5 40.0051C84.5008 34.0352 83.1653 28.1409 80.5914 22.7544C78.0176 17.3679 74.2707 12.6259 69.6256 8.87596C64.9804 5.12607 59.5548 2.46347 53.7467 1.08344C47.9386 -0.296592 41.8952 -0.359061 36.0597 0.900614C30.2243 2.16029 24.7448 4.71016 20.0232 8.36323C15.3015 12.0163 11.4574 16.6799 8.77278 22.0121C6.08816 27.3442 4.63109 33.2096 4.50844 39.1782C4.3858 45.1468 5.60068 51.0672 8.064 56.5051H80.936C83.2889 51.3228 84.5042 45.6965 84.5 40.0051V40.0051Z" fill="#C7F0FF"/>
<path d="M8.06445 56.5051C11.2372 63.5091 16.3613 69.4501 22.8233 73.617C29.2854 77.7839 36.8114 80 44.5005 80C52.1895 80 59.7156 77.7839 66.1776 73.617C72.6396 69.4501 77.7637 63.5091 80.9364 56.5051H8.06445Z" fill="#CCF7AD"/>
<path d="M5.5 56.5051H83.5" stroke="#45413C" stroke-linecap="round" stroke-linejoin="round"/>
<path d="M1 56.5051H3.5" stroke="#45413C" stroke-linecap="round" stroke-linejoin="round"/>
<path d="M85.5 56.5051H88" stroke="#45413C" stroke-linecap="round" stroke-linejoin="round"/>
<path d="M80 56.5051H56V40.5051H72L80 56.5051Z" fill="#6DD627"/>
<path d="M73.5 43.5051L72 40.5051H56V43.5051H73.5Z" fill="#9CEB60"/>
<path d="M80 56.5051H56V40.5051H72L80 56.5051Z" stroke="#45413C" stroke-linecap="round" stroke-linejoin="round"/>
<path d="M48 56.5051L56 40.5051L64 56.5051H48Z" fill="#6DD627" stroke="#45413C" stroke-linecap="round" stroke-linejoin="round"/>
<path d="M56 39.0051V56.5051" stroke="#45413C" stroke-linecap="round" stroke-linejoin="round"/>
<path d="M72 40.5051V39.0051" stroke="#45413C" stroke-linecap="round" stroke-linejoin="round"/>
<path d="M17 56.5051L11.936 54.3961C11.8137 54.3451 11.6825 54.3189 11.55 54.3191C11.4176 54.3192 11.2864 54.3457 11.1643 54.397C11.0421 54.4483 10.9314 54.5233 10.8384 54.6177C10.7455 54.7122 10.6723 54.8241 10.623 54.9471L10 56.5051H17Z" fill="#BF8256" stroke="#45413C" stroke-linecap="round" stroke-linejoin="round"/>
<path d="M17 56.5051L22.064 54.3961C22.1863 54.3451 22.3175 54.3189 22.45 54.3191C22.5824 54.3192 22.7136 54.3457 22.8357 54.397C22.9579 54.4483 23.0686 54.5233 23.1616 54.6177C23.2545 54.7122 23.3277 54.8241 23.377 54.9471L24 56.5051H17Z" fill="#BF8256" stroke="#45413C" stroke-linecap="round" stroke-linejoin="round"/>
<path d="M16.6105 47.0681C17.0695 48.1581 17.6705 51.6951 15.1425 52.8681C14.722 52.7435 14.334 52.5282 14.0057 52.2375C13.6775 51.9467 13.4169 51.5875 13.2425 51.1851C12.9205 52.0384 12.9205 52.9798 13.2425 53.8331C13.5541 54.7236 14.1711 55.4749 14.9839 55.9537C15.7968 56.4325 16.753 56.6079 17.6829 56.4487C18.6128 56.2895 19.4562 55.8061 20.0635 55.0842C20.6708 54.3622 21.0028 53.4485 21.0005 52.5051C21.0005 49.0051 17.6235 47.2771 16.6105 47.0681Z" fill="#FF6242" stroke="#45413C" stroke-linecap="round" stroke-linejoin="round"/>
<path d="M80 56.5051L81 53.5051" stroke="#45413C" stroke-linecap="round" stroke-linejoin="round"/>
<path d="M17 35.5051C17.8284 35.5051 18.5 34.8336 18.5 34.0051C18.5 33.1767 17.8284 32.5051 17 32.5051C16.1716 32.5051 15.5 33.1767 15.5 34.0051C15.5 34.8336 16.1716 35.5051 17 35.5051Z" fill="white" stroke="#45413C" stroke-linecap="round" stroke-linejoin="round"/>
<path d="M11.3492 37.7961C11.8221 37.6345 12.3344 37.6298 12.8102 37.7828C13.2859 37.9358 13.6995 38.2382 13.9896 38.6451C14.2797 39.052 14.4307 39.5417 14.4201 40.0413C14.4096 40.5409 14.2381 41.0237 13.9312 41.4181C13.9472 41.4251 13.9632 41.4281 13.9782 41.4351C14.2164 41.5513 14.4166 41.7331 14.5551 41.9591C14.6937 42.1851 14.765 42.4459 14.7606 42.711C14.7561 42.9761 14.6762 43.2344 14.5302 43.4556C14.3842 43.6769 14.1781 43.8519 13.9362 43.9602C13.6942 44.0685 13.4264 44.1055 13.1641 44.067C12.9018 44.0285 12.656 43.9159 12.4554 43.7426C12.2548 43.5693 12.1078 43.3424 12.0316 43.0885C11.9554 42.8346 11.9532 42.5642 12.0252 42.3091C11.4815 42.2935 10.9607 42.0873 10.5537 41.7265C10.1467 41.3657 9.87959 40.8733 9.79902 40.3354C9.71845 39.7975 9.82958 39.2484 10.113 38.7842C10.3964 38.32 10.8339 37.9702 11.3492 37.7961Z" fill="white" stroke="#45413C" stroke-linecap="round" stroke-linejoin="round"/>
<path d="M48 56.5051L47 53.5051" stroke="#45413C" stroke-linecap="round" stroke-linejoin="round"/>
<path d="M64 56.5051L65 53.5051" stroke="#45413C" stroke-linecap="round" stroke-linejoin="round"/>
<path d="M30.6136 28.6183L23.8546 29.7493C23.6543 29.7823 23.4493 29.7715 23.2537 29.7174C23.0581 29.6634 22.8765 29.5674 22.7217 29.4362C22.5668 29.3051 22.4423 29.1418 22.3568 28.9577C22.2714 28.7737 22.2269 28.5732 22.2266 28.3703V23.2793C22.2269 23.0763 22.2714 22.8759 22.3568 22.6918C22.4423 22.5078 22.5668 22.3445 22.7217 22.2133C22.8765 22.0822 23.0581 21.9862 23.2537 21.9322C23.4493 21.8781 23.6543 21.8672 23.8546 21.9003L30.6136 23.0263V28.6183Z" fill="#F7E5C6"/>
<path d="M23.8546 21.9003C23.6544 21.8672 23.4495 21.8781 23.2539 21.9321C23.0584 21.9861 22.8769 22.0819 22.7221 22.213C22.5672 22.3441 22.4427 22.5072 22.3572 22.6911C22.2716 22.8751 22.227 23.0754 22.2266 23.2783V26.3263C22.2272 26.1235 22.2719 25.9233 22.3575 25.7395C22.4431 25.5557 22.5676 25.3926 22.7224 25.2617C22.8773 25.1307 23.0587 25.035 23.2542 24.981C23.4496 24.9271 23.6545 24.9163 23.8546 24.9493L30.6136 26.0763V23.0263L23.8546 21.9003Z" fill="#FFF5E3"/>
<path d="M30.6136 28.6183L23.8546 29.7493C23.6543 29.7823 23.4493 29.7715 23.2537 29.7174C23.0581 29.6634 22.8765 29.5674 22.7217 29.4362C22.5668 29.3051 22.4423 29.1418 22.3568 28.9577C22.2714 28.7737 22.2269 28.5732 22.2266 28.3703V23.2793C22.2269 23.0763 22.2714 22.8759 22.3568 22.6918C22.4423 22.5078 22.5668 22.3445 22.7217 22.2133C22.8765 22.0822 23.0581 21.9862 23.2537 21.9322C23.4493 21.8781 23.6543 21.8672 23.8546 21.9003L30.6136 23.0263V28.6183Z" stroke="#45413C" stroke-linecap="round" stroke-linejoin="round"/>
<path d="M47.3877 28.6181L54.1477 29.7441C54.3479 29.777 54.5528 29.766 54.7483 29.7119C54.9438 29.6578 55.1252 29.5618 55.2799 29.4306C55.4346 29.2995 55.559 29.1363 55.6445 28.9523C55.7299 28.7683 55.7743 28.568 55.7747 28.3651V23.2791C55.7743 23.0763 55.7299 22.8759 55.6445 22.6919C55.559 22.508 55.4346 22.3448 55.2799 22.2136C55.1252 22.0824 54.9438 21.9865 54.7483 21.9324C54.5528 21.8782 54.3479 21.8672 54.1477 21.9001L47.3877 23.0261V28.6181Z" fill="#F7E5C6"/>
<path d="M54.1477 21.9001L47.3877 23.0261V26.0741L54.1477 24.9471C54.3479 24.9142 54.5528 24.9252 54.7483 24.9794C54.9438 25.0335 55.1252 25.1294 55.2799 25.2606C55.4346 25.3918 55.559 25.555 55.6445 25.7389C55.7299 25.9229 55.7743 26.1233 55.7747 26.3261V23.2781C55.7742 23.0754 55.7297 22.8751 55.6442 22.6913C55.5587 22.5074 55.4342 22.3443 55.2795 22.2133C55.1248 22.0822 54.9434 21.9864 54.748 21.9323C54.5526 21.8782 54.3478 21.8672 54.1477 21.9001Z" fill="#FFF5E3"/>
<path d="M47.3877 28.6181L54.1477 29.7441C54.3479 29.777 54.5528 29.766 54.7483 29.7119C54.9438 29.6578 55.1252 29.5618 55.2799 29.4306C55.4346 29.2995 55.559 29.1363 55.6445 28.9523C55.7299 28.7683 55.7743 28.568 55.7747 28.3651V23.2791C55.7743 23.0763 55.7299 22.8759 55.6445 22.6919C55.559 22.508 55.4346 22.3448 55.2799 22.2136C55.1252 22.0824 54.9438 21.9865 54.7483 21.9324C54.5528 21.8782 54.3479 21.8672 54.1477 21.9001L47.3877 23.0261V28.6181Z" stroke="#45413C" stroke-linecap="round" stroke-linejoin="round"/>
<path d="M48.7854 48.8862H29.2154C28.8441 48.8862 28.488 48.7387 28.2255 48.4761C27.9629 48.2136 27.8154 47.8575 27.8154 47.4862V25.8222C27.8154 24.7099 28.2573 23.6431 29.0438 22.8566C29.8304 22.07 30.8971 21.6282 32.0094 21.6282H45.9894C47.1017 21.6282 48.1685 22.07 48.955 22.8566C49.7416 23.6431 50.1834 24.7099 50.1834 25.8222V47.4882C50.1829 47.8588 50.0354 48.2141 49.7734 48.4761C49.5113 48.7382 49.156 48.8856 48.7854 48.8862Z" fill="#FFE500"/>
<path d="M45.9894 21.6282H32.0114C30.8991 21.6282 29.8323 22.07 29.0458 22.8566C28.2592 23.6431 27.8174 24.7099 27.8174 25.8222V29.3222C27.8174 28.2099 28.2592 27.1431 29.0458 26.3566C29.8323 25.57 30.8991 25.1282 32.0114 25.1282H45.9894C47.1017 25.1282 48.1685 25.57 48.955 26.3566C49.7415 27.1431 50.1834 28.2099 50.1834 29.3222V25.8222C50.1834 24.7099 49.7415 23.6431 48.955 22.8566C48.1685 22.07 47.1017 21.6282 45.9894 21.6282Z" fill="#FFF48C"/>
<path d="M48.7854 48.8862H29.2154C28.8441 48.8862 28.488 48.7387 28.2255 48.4761C27.9629 48.2136 27.8154 47.8575 27.8154 47.4862V25.8222C27.8154 24.7099 28.2573 23.6431 29.0438 22.8566C29.8304 22.07 30.8971 21.6282 32.0094 21.6282H45.9894C47.1017 21.6282 48.1685 22.07 48.955 22.8566C49.7416 23.6431 50.1834 24.7099 50.1834 25.8222V47.4882C50.1829 47.8588 50.0354 48.2141 49.7734 48.4761C49.5113 48.7382 49.156 48.8856 48.7854 48.8862Z" stroke="#45413C" stroke-linecap="round" stroke-linejoin="round"/>
<path d="M49.5409 24.4632C48.653 23.4028 48.1417 22.0781 48.0869 20.6962V16.4962C48.0869 14.0864 47.1296 11.7753 45.4257 10.0714C43.7217 8.36743 41.4107 7.41016 39.0009 7.41016C36.5912 7.41016 34.2801 8.36743 32.5761 10.0714C30.8722 11.7753 29.9149 14.0864 29.9149 16.4962V20.6962C29.8602 22.0781 29.3488 23.4028 28.4609 24.4632C28.4114 24.5139 28.3755 24.5765 28.3567 24.6449C28.338 24.7133 28.3369 24.7854 28.3536 24.8544C28.3702 24.9233 28.4042 24.9869 28.4522 25.0392C28.5002 25.0914 28.5606 25.1307 28.6279 25.1532L29.5279 25.4532C29.6313 25.4876 29.7172 25.5609 29.7674 25.6576C29.8177 25.7543 29.8282 25.8668 29.7969 25.9712C29.4515 27.0579 29.425 28.2209 29.7205 29.3223C30.0159 30.4236 30.621 31.4172 31.4639 32.1852C31.5119 32.2235 31.5677 32.2508 31.6274 32.2652C31.6871 32.2795 31.7493 32.2805 31.8094 32.2681C31.8696 32.2557 31.9263 32.2301 31.9754 32.1933C32.0246 32.1565 32.065 32.1094 32.0939 32.0552C32.2619 31.7279 32.4036 31.3878 32.5179 31.0382C32.5347 30.9884 32.5651 30.9444 32.6057 30.911C32.6462 30.8777 32.6953 30.8564 32.7474 30.8495C32.7994 30.8426 32.8524 30.8505 32.9002 30.8722C32.948 30.8938 32.9888 30.9285 33.0179 30.9722C34.4014 33.1248 36.5302 34.6915 38.9969 35.3722C41.4636 34.6915 43.5925 33.1248 44.9759 30.9722C45.005 30.9285 45.0458 30.8938 45.0937 30.8722C45.1415 30.8505 45.1944 30.8426 45.2465 30.8495C45.2985 30.8564 45.3476 30.8777 45.3882 30.911C45.4287 30.9444 45.4591 30.9884 45.4759 31.0382C45.5902 31.3878 45.732 31.7279 45.8999 32.0552C45.9288 32.1094 45.9692 32.1565 46.0184 32.1933C46.0676 32.2301 46.1242 32.2557 46.1844 32.2681C46.2445 32.2805 46.3067 32.2795 46.3664 32.2652C46.4261 32.2508 46.4819 32.2235 46.5299 32.1852C47.3732 31.4178 47.9788 30.4248 48.2749 29.3238C48.5711 28.2228 48.5454 27.06 48.2009 25.9732C48.1696 25.8688 48.1802 25.7563 48.2304 25.6596C48.2806 25.5629 48.3665 25.4896 48.4699 25.4552L49.3699 25.1552C49.4379 25.1333 49.4992 25.0944 49.5479 25.0422C49.5966 24.99 49.6312 24.9262 49.6483 24.8568C49.6654 24.7875 49.6646 24.7149 49.6458 24.646C49.627 24.5771 49.5909 24.5142 49.5409 24.4632V24.4632Z" fill="#614B44" stroke="#45413C" stroke-linecap="round" stroke-linejoin="round"/>
<path d="M44.5915 72.5102L46.6885 52.9402H31.3125L33.4095 72.5102H44.5915Z" fill="#87898C"/>
<path d="M46.1645 57.8332L46.6885 52.9402H31.3125L31.8365 57.8332H46.1645Z" fill="#656769"/>
<path opacity="0.15" d="M39.0005 83.6933C46.7203 83.6933 52.9785 82.7544 52.9785 81.5963C52.9785 80.4381 46.7203 79.4993 39.0005 79.4993C31.2806 79.4993 25.0225 80.4381 25.0225 81.5963C25.0225 82.7544 31.2806 83.6933 39.0005 83.6933Z" fill="#45413C"/>
<path d="M44.5915 72.5102L46.6885 52.9402H31.3125L33.4095 72.5102H44.5915Z" stroke="#45413C" stroke-linecap="round" stroke-linejoin="round"/>
<path d="M39.001 57.8142V79.3582" stroke="#45413C" stroke-linecap="round" stroke-linejoin="round"/>
<path d="M39.0009 28.4783C35.6644 28.4783 32.4645 29.8036 30.1052 32.1628C27.7458 34.522 26.4202 37.7218 26.4199 41.0583V43.1583H31.3129V52.9433H46.6889V43.1553H51.5819V41.0553C51.5809 37.7193 50.2549 34.5203 47.8956 32.1617C45.5363 29.8032 42.3369 28.4783 39.0009 28.4783V28.4783Z" fill="#FF6242"/>
<path d="M39.0009 28.4783C35.6644 28.4783 32.4645 29.8036 30.1052 32.1628C27.7458 34.522 26.4202 37.7218 26.4199 41.0583V43.1583H26.5949C27.0905 40.2265 28.6084 37.565 30.8793 35.6457C33.1503 33.7264 36.0276 32.6734 39.0009 32.6734C41.9743 32.6734 44.8516 33.7264 47.1225 35.6457C49.3935 37.565 50.9113 40.2265 51.4069 43.1583H51.5819V41.0583C51.5817 37.7218 50.256 34.522 47.8967 32.1628C45.5373 29.8036 42.3374 28.4783 39.0009 28.4783V28.4783Z" fill="#FF866E"/>
<path d="M39.0009 28.4783C35.6644 28.4783 32.4645 29.8036 30.1052 32.1628C27.7458 34.522 26.4202 37.7218 26.4199 41.0583V43.1583H31.3129V52.9433H46.6889V43.1553H51.5819V41.0553C51.5809 37.7193 50.2549 34.5203 47.8956 32.1617C45.5363 29.8032 42.3369 28.4783 39.0009 28.4783V28.4783Z" stroke="#45413C" stroke-linecap="round" stroke-linejoin="round"/>
<path d="M41.7055 28.0053V24.8633H36.3005V28.0073C36.2982 28.2278 36.2232 28.4414 36.087 28.6148C35.9508 28.7883 35.7611 28.9118 35.5475 28.9663C35.2995 29.0333 35.0545 29.1093 34.8145 29.1943C34.9849 30.2012 35.4916 31.1207 36.2519 31.8026C37.0121 32.4846 37.981 32.8888 39.0005 32.9493C40.0213 32.89 40.9918 32.4861 41.7533 31.8036C42.5147 31.1212 43.0221 30.2005 43.1925 29.1923C42.9515 29.1073 42.7055 29.0313 42.4575 28.9633C42.2441 28.9087 42.0548 28.7852 41.9188 28.612C41.7828 28.4387 41.7078 28.2255 41.7055 28.0053V28.0053Z" fill="#FFDA8F" stroke="#45413C" stroke-linecap="round" stroke-linejoin="round"/>
<path d="M39.001 80.1982H45.291V73.5103C45.291 73.245 45.1856 72.9907 44.9981 72.8031C44.8105 72.6156 44.5562 72.5103 44.291 72.5103H39.001V80.1982Z" fill="#B89558" stroke="#45413C" stroke-linecap="round" stroke-linejoin="round"/>
<path d="M39.0009 80.1982H32.7109V73.5103C32.7109 73.245 32.8163 72.9907 33.0038 72.8031C33.1914 72.6156 33.4457 72.5103 33.7109 72.5103H39.0009V80.1982Z" fill="#B89558" stroke="#45413C" stroke-linecap="round" stroke-linejoin="round"/>
<path d="M46.036 78.1851C45.6773 77.5299 45.1502 76.9824 44.509 76.5991C43.8678 76.2159 43.136 76.0108 42.389 76.0051C41.4808 76.0268 40.6173 76.4037 39.9839 77.0549C39.3505 77.7061 38.9976 78.5797 39.001 79.4881V80.1981H44.776C45.0144 80.2008 45.2496 80.1422 45.4588 80.0279C45.6681 79.9136 45.8444 79.7474 45.9709 79.5452C46.0974 79.3431 46.1699 79.1119 46.1813 78.8737C46.1927 78.6355 46.1426 78.3984 46.036 78.1851V78.1851Z" fill="#B89558" stroke="#45413C" stroke-linecap="round" stroke-linejoin="round"/>
<path d="M31.9658 78.1851C32.3244 77.5298 32.8516 76.9822 33.4928 76.599C34.1339 76.2157 34.8659 76.0107 35.6128 76.0051C36.521 76.0268 37.3845 76.4037 38.0179 77.0549C38.6514 77.7061 39.0042 78.5797 39.0008 79.4881V80.1981H33.2248C32.9864 80.201 32.7512 80.1424 32.5419 80.0281C32.3327 79.9137 32.1563 79.7475 32.0299 79.5453C31.9034 79.3431 31.8311 79.1118 31.8199 78.8736C31.8087 78.6354 31.8589 78.3983 31.9658 78.1851V78.1851Z" fill="#B89558" stroke="#45413C" stroke-linecap="round" stroke-linejoin="round"/>
<path d="M46.6885 50.144H31.3125V52.94H46.6885V50.144Z" fill="#B89558" stroke="#45413C" stroke-linecap="round" stroke-linejoin="round"/>
<path d="M26.424 43.1553C26.424 43.1553 26.424 44.2163 26.424 44.7333C26.3982 45.4135 26.1047 46.056 25.6075 46.5208C25.1102 46.9857 24.4495 47.2353 23.769 47.2153C22.344 47.2153 21.607 46.2293 19.985 44.5273L16.415 48.0683C18.686 50.4053 20.365 52.2783 23.769 52.2783C24.7601 52.2787 25.7416 52.0838 26.6573 51.7048C27.5731 51.3258 28.4052 50.7701 29.1061 50.0695C29.807 49.3688 30.3631 48.5369 30.7424 47.6213C31.1218 46.7057 31.317 45.7243 31.317 44.7333V43.1553H26.424Z" fill="#FFDA8F" stroke="#45413C" stroke-linecap="round" stroke-linejoin="round"/>
<path d="M21.5275 52.2411C21.5275 52.6125 21.38 52.9686 21.1175 53.2311C20.8549 53.4937 20.4988 53.6412 20.1275 53.6412C19.7562 53.6412 19.4001 53.4937 19.1376 53.2311C18.875 52.9686 18.7275 52.6125 18.7275 52.2411V42.4562C18.7275 42.0848 18.875 41.7288 19.1376 41.4662C19.4001 41.2037 19.7562 41.0562 20.1275 41.0562C20.4988 41.0562 20.8549 41.2037 21.1175 41.4662C21.38 41.7288 21.5275 42.0848 21.5275 42.4562V52.2411Z" fill="#00AD85" stroke="#45413C" stroke-linecap="round" stroke-linejoin="round"/>
<path d="M20.1299 53.6392V80.1982" stroke="#45413C" stroke-linecap="round" stroke-linejoin="round"/>
<path d="M20.2006 44.6392C20.6408 44.7239 21.0578 44.9017 21.4237 45.1607C21.7895 45.4197 22.0958 45.7539 22.322 46.1409C22.5482 46.5279 22.6891 46.9587 22.7353 47.4046C22.7814 47.8505 22.7318 48.3011 22.5896 48.7262C22.3091 49.4661 21.772 50.0805 21.0763 50.4576C20.3807 50.8346 19.5727 50.9491 18.7996 50.7802L17.9996 50.6242C17.4613 50.5194 16.9853 50.2082 16.6734 49.7571C16.3616 49.306 16.2385 48.7508 16.3306 48.2102L16.6836 46.1422C16.731 45.867 16.8327 45.6041 16.983 45.3687C17.1332 45.1333 17.3288 44.9303 17.5584 44.7714C17.788 44.6126 18.047 44.5011 18.3203 44.4435C18.5935 44.386 18.8754 44.3835 19.1496 44.4362L20.2006 44.6392Z" fill="#FFDA8F" stroke="#45413C" stroke-linecap="round" stroke-linejoin="round"/>
<path d="M51.5815 43.1553V44.7333C51.6073 45.4135 51.9008 46.056 52.398 46.5208C52.8953 46.9857 53.5561 47.2353 54.2365 47.2153C55.6615 47.2153 56.3985 46.2293 58.0205 44.5273L61.5905 48.0683C59.3195 50.4053 57.6395 52.2783 54.2365 52.2783C53.2454 52.2787 52.264 52.0838 51.3482 51.7048C50.4325 51.3258 49.6004 50.7701 48.8994 50.0695C48.1985 49.3688 47.6425 48.5369 47.2631 47.6213C46.8837 46.7057 46.6885 45.7243 46.6885 44.7333V43.1553H51.5815Z" fill="#FFDA8F" stroke="#45413C" stroke-linecap="round" stroke-linejoin="round"/>
<path d="M56.4736 52.2411C56.4736 52.6125 56.6211 52.9686 56.8837 53.2311C57.1462 53.4937 57.5023 53.6412 57.8736 53.6412C58.2449 53.6412 58.601 53.4937 58.8636 53.2311C59.1261 52.9686 59.2736 52.6125 59.2736 52.2411V42.4562C59.2736 42.0848 59.1261 41.7288 58.8636 41.4662C58.601 41.2037 58.2449 41.0562 57.8736 41.0562C57.5023 41.0562 57.1462 41.2037 56.8837 41.4662C56.6211 41.7288 56.4736 42.0848 56.4736 42.4562V52.2411Z" fill="#00AD85" stroke="#45413C" stroke-linecap="round" stroke-linejoin="round"/>
<path d="M57.8721 53.6392V80.1982" stroke="#45413C" stroke-linecap="round" stroke-linejoin="round"/>
<path d="M57.8004 44.6392C57.3602 44.7239 56.9432 44.9017 56.5774 45.1607C56.2115 45.4197 55.9052 45.7539 55.679 46.1409C55.4528 46.5279 55.3119 46.9587 55.2657 47.4046C55.2196 47.8505 55.2693 48.3011 55.4114 48.7262C55.692 49.4661 56.229 50.0805 56.9247 50.4576C57.6204 50.8346 58.4284 50.9491 59.2014 50.7802L60.0014 50.6242C60.5399 50.5197 61.0161 50.2086 61.3282 49.7574C61.6403 49.3063 61.7635 48.751 61.6714 48.2102L61.3174 46.1422C61.2701 45.867 61.1683 45.6041 61.0181 45.3687C60.8679 45.1333 60.6722 44.9303 60.4426 44.7714C60.213 44.6126 59.954 44.5011 59.6808 44.4435C59.4076 44.386 59.1256 44.3835 58.8514 44.4362L57.8004 44.6392Z" fill="#FFDA8F" stroke="#45413C" stroke-linecap="round" stroke-linejoin="round"/>
<path d="M34.1086 29.4651C33.1085 29.8868 32.1673 30.4363 31.3086 31.1001V50.1491H34.1086V29.4651Z" fill="#FFE500"/>
<path d="M31.3125 35.2941C32.1712 34.6303 33.1124 34.0808 34.1125 33.6591V29.4651C33.1124 29.8868 32.1712 30.4363 31.3125 31.1001V35.2941Z" fill="#FFF48C"/>
<path d="M43.8926 29.4651V50.1491H46.6926V31.1001C45.8339 30.4363 44.8927 29.8868 43.8926 29.4651Z" fill="#FFE500"/>
<path d="M43.8926 33.6591C44.8927 34.0808 45.8339 34.6303 46.6926 35.2941V31.1001C45.8339 30.4363 44.8927 29.8868 43.8926 29.4651V33.6591Z" fill="#FFF48C"/>
<path d="M34.1086 29.4651C33.1085 29.8868 32.1673 30.4363 31.3086 31.1001V50.1491H34.1086V29.4651Z" stroke="#45413C" stroke-linecap="round" stroke-linejoin="round"/>
<path d="M43.8926 29.4651V50.1491H46.6926V31.1001C45.8339 30.4363 44.8927 29.8868 43.8926 29.4651Z" stroke="#45413C" stroke-linecap="round" stroke-linejoin="round"/>
<path d="M43.8934 44.5532H34.1084V47.3492H43.8934V44.5532Z" fill="#FFE500" stroke="#45413C" stroke-linecap="round" stroke-linejoin="round"/>
<path d="M48.7854 19.2951C48.7818 18.8968 48.6404 18.5121 48.3851 18.2063C48.1299 17.9006 47.7766 17.6927 47.3854 17.6181V16.4991C47.3854 14.2747 46.5018 12.1414 44.9289 10.5686C43.356 8.99569 41.2228 8.11206 38.9984 8.11206C36.774 8.11206 34.6408 8.99569 33.0679 10.5686C31.495 12.1414 30.6114 14.2747 30.6114 16.4991V17.6181C30.2039 17.6945 29.838 17.9161 29.5815 18.2419C29.3251 18.5677 29.1956 18.9755 29.2171 19.3895C29.2387 19.8036 29.4097 20.1958 29.6985 20.4932C29.9872 20.7907 30.3742 20.9733 30.7874 21.0071C31.1812 22.8934 32.2124 24.5866 33.7078 25.8021C35.2032 27.0175 37.0714 27.681 38.9984 27.681C40.9254 27.681 42.7936 27.0175 44.289 25.8021C45.7844 24.5866 46.8156 22.8934 47.2094 21.0071C47.6379 20.9688 48.0368 20.7722 48.3282 20.4556C48.6196 20.1391 48.7826 19.7253 48.7854 19.2951Z" fill="#FFDA8F" stroke="#45413C" stroke-linecap="round" stroke-linejoin="round"/>
<path d="M34.4572 21.3921C35.036 21.3921 35.5052 20.9229 35.5052 20.3441C35.5052 19.7653 35.036 19.2961 34.4572 19.2961C33.8784 19.2961 33.4092 19.7653 33.4092 20.3441C33.4092 20.9229 33.8784 21.3921 34.4572 21.3921Z" fill="#FFBE3D"/>
<path d="M43.5431 21.3921C44.1219 21.3921 44.5911 20.9229 44.5911 20.3441C44.5911 19.7653 44.1219 19.2961 43.5431 19.2961C42.9643 19.2961 42.4951 19.7653 42.4951 20.3441C42.4951 20.9229 42.9643 21.3921 43.5431 21.3921Z" fill="#FFBE3D"/>
<path d="M42.7797 17.8972C42.5565 17.6743 42.254 17.5491 41.9387 17.5491C41.6233 17.5491 41.3208 17.6743 41.0977 17.8972" stroke="#45413C" stroke-linecap="round" stroke-linejoin="round"/>
<path d="M35.2217 17.8972C35.4448 17.6743 35.7473 17.5491 36.0627 17.5491C36.3781 17.5491 36.6805 17.6743 36.9037 17.8972" stroke="#45413C" stroke-linecap="round" stroke-linejoin="round"/>
<path d="M41.1003 22.79C40.495 23.243 39.7593 23.4878 39.0033 23.4878C38.2472 23.4878 37.5115 23.243 36.9062 22.79" stroke="#45413C" stroke-linecap="round" stroke-linejoin="round"/>
<path d="M48.0861 16.4991C48.0861 14.0893 47.1288 11.7783 45.4248 10.0743C43.7209 8.37036 41.4098 7.41309 39.0001 7.41309C36.5903 7.41309 34.2792 8.37036 32.5753 10.0743C30.8713 11.7783 29.9141 14.0893 29.9141 16.4991V17.1991C31.3645 17.1645 32.793 16.8371 34.1137 16.2367C35.4345 15.6363 36.6204 14.7752 37.6001 13.7051V15.3491C37.6001 15.4101 37.6132 15.4704 37.6384 15.5259C37.6636 15.5815 37.7004 15.631 37.7464 15.6711C37.7923 15.7113 37.8463 15.7411 37.9047 15.7587C37.9631 15.7763 38.0246 15.7812 38.0851 15.7731C38.8102 15.6765 39.4881 15.3597 40.0273 14.8653C40.5666 14.371 40.941 13.7231 41.1001 13.0091C42.7311 15.6921 45.0381 16.8261 48.0881 17.1981V16.4981" fill="#614B44"/>
<path d="M48.0861 16.4991C48.0861 14.0893 47.1288 11.7783 45.4248 10.0743C43.7209 8.37036 41.4098 7.41309 39.0001 7.41309C36.5903 7.41309 34.2792 8.37036 32.5753 10.0743C30.8713 11.7783 29.9141 14.0893 29.9141 16.4991V17.1991C31.3645 17.1645 32.793 16.8371 34.1137 16.2367C35.4345 15.6363 36.6204 14.7752 37.6001 13.7051V15.3491C37.6001 15.4101 37.6132 15.4704 37.6384 15.5259C37.6636 15.5815 37.7004 15.631 37.7464 15.6711C37.7923 15.7113 37.8463 15.7411 37.9047 15.7587C37.9631 15.7763 38.0246 15.7812 38.0851 15.7731C38.8102 15.6765 39.4881 15.3597 40.0273 14.8653C40.5666 14.371 40.941 13.7231 41.1001 13.0091C42.7311 15.6921 45.0381 16.8261 48.0881 17.1981V16.4981" stroke="#45413C" stroke-linecap="round" stroke-linejoin="round"/>
<path d="M39.67 4.61816H38.27C36.173 4.61808 34.152 5.40357 32.6054 6.81979C31.0589 8.23602 30.099 10.1802 29.915 12.2692C29.9101 12.3641 29.9246 12.459 29.9576 12.5481C29.9906 12.6372 30.0413 12.7187 30.1068 12.7876C30.1723 12.8564 30.2512 12.9112 30.3385 12.9487C30.4259 12.9861 30.52 13.0053 30.615 13.0052H47.315C47.41 13.0053 47.5041 12.9861 47.5914 12.9487C47.6788 12.9112 47.7576 12.8564 47.8231 12.7876C47.8886 12.7187 47.9394 12.6372 47.9724 12.5481C48.0054 12.459 48.0199 12.3641 48.015 12.2692C47.8309 10.182 46.8724 8.23937 45.328 6.82343C43.7836 5.40749 41.7652 4.6208 39.67 4.61816V4.61816Z" fill="#6DD627"/>
<path d="M38.1081 6.71516H39.8331C41.2955 6.71325 42.7416 7.02196 44.0757 7.62085C45.4099 8.21974 46.6016 9.09516 47.5721 10.1892C46.9906 8.55919 45.9193 7.14891 44.505 6.15157C43.0907 5.15423 41.4026 4.61863 39.6721 4.61816H38.2721C36.5416 4.61892 34.8536 5.15463 33.4394 6.15193C32.0251 7.14923 30.9538 8.55936 30.3721 10.1892C31.3423 9.09564 32.5335 8.22051 33.8671 7.62164C35.2007 7.02277 36.6462 6.71381 38.1081 6.71516V6.71516Z" fill="#9CEB60"/>
<path d="M39.67 4.61816H38.27C36.173 4.61808 34.152 5.40357 32.6054 6.81979C31.0589 8.23602 30.099 10.1802 29.915 12.2692C29.9101 12.3641 29.9246 12.459 29.9576 12.5481C29.9906 12.6372 30.0413 12.7187 30.1068 12.7876C30.1723 12.8564 30.2512 12.9112 30.3385 12.9487C30.4259 12.9861 30.52 13.0053 30.615 13.0052H47.315C47.41 13.0053 47.5041 12.9861 47.5914 12.9487C47.6788 12.9112 47.7576 12.8564 47.8231 12.7876C47.8886 12.7187 47.9394 12.6372 47.9724 12.5481C48.0054 12.459 48.0199 12.3641 48.015 12.2692C47.8309 10.182 46.8724 8.23937 45.328 6.82343C43.7836 5.40749 41.7652 4.6208 39.67 4.61816V4.61816Z" stroke="#45413C" stroke-linecap="round" stroke-linejoin="round"/>
<path d="M44.2456 11.3841C42.7552 10.1718 40.8927 9.51001 38.9716 9.51001C37.0504 9.51001 35.1879 10.1718 33.6976 11.3841C33.553 11.5048 33.449 11.6671 33.3999 11.8489C33.3508 12.0307 33.3588 12.2232 33.423 12.4003C33.4871 12.5774 33.6042 12.7305 33.7583 12.8387C33.9125 12.9469 34.0962 13.005 34.2846 13.0051H43.6586C43.8469 13.005 44.0306 12.9469 44.1848 12.8387C44.3389 12.7305 44.4561 12.5774 44.5202 12.4003C44.5843 12.2232 44.5923 12.0307 44.5432 11.8489C44.4941 11.6671 44.3902 11.5048 44.2456 11.3841Z" fill="#46B000" stroke="#45413C" stroke-linecap="round" stroke-linejoin="round"/>
<path opacity="0.15" d="M35.6132 51.0046C35.2747 51.6861 41.0016 55.2204 48.405 58.8974C55.8085 62.5743 62.0851 65.0017 62.4236 64.3201C62.7621 63.6386 57.0369 60.1027 49.6328 56.4254C42.2286 52.748 35.9523 50.3217 35.6132 51.0046Z" fill="#45413C"/>
<path d="M67.4853 31.3345L59.7012 27.4685L56.4295 34.056L64.2136 37.922L67.4853 31.3345Z" fill="#87898C"/>
<path d="M67.4853 31.3345L59.7012 27.4685L57.6562 31.586L65.4403 35.4521L67.4853 31.3345Z" fill="#656769"/>
<path d="M67.4853 31.3345L59.7012 27.4685L56.4295 34.056L64.2136 37.922L67.4853 31.3345Z" stroke="#45413C" stroke-linecap="round" stroke-linejoin="round"/>
<path d="M71.031 27.4496L60.6533 22.2954C60.1755 22.0581 59.6049 22.2345 59.379 22.6895L56.5164 28.4532C56.2904 28.9082 56.4946 29.4694 56.9725 29.7067L67.3501 34.8608C67.828 35.0981 68.3985 34.9217 68.6245 34.4668L71.487 28.7031C71.713 28.2481 71.5088 27.6869 71.031 27.4496Z" fill="#656769" stroke="#45413C" stroke-linecap="round" stroke-linejoin="round"/>
<path d="M64.645 38.1364L55.9971 33.8413C55.5192 33.604 54.9487 33.7804 54.7227 34.2354L52.2693 39.1753C52.0433 39.6303 52.2475 40.1915 52.7253 40.4288L61.3733 44.7239C61.8511 44.9612 62.4217 44.7848 62.6476 44.3298L65.1011 39.3899C65.327 38.9349 65.1228 38.3737 64.645 38.1364Z" fill="#656769" stroke="#45413C" stroke-linecap="round" stroke-linejoin="round"/>
<path d="M68.9152 28.4524L61.1318 24.5867C60.8929 24.468 60.6076 24.5562 60.4947 24.7837L58.8588 28.0775C58.7458 28.3049 58.8479 28.5855 59.0868 28.7042L66.8703 32.5699C67.1092 32.6885 67.3945 32.6003 67.5074 32.3729L69.1433 29.0791C69.2563 28.8516 69.1542 28.571 68.9152 28.4524Z" fill="#00B8F0"/>
<path d="M61.2492 29.7781L59.0868 28.7042C58.9721 28.6472 58.8836 28.5492 58.8409 28.4316C58.7981 28.3141 58.8045 28.1867 58.8588 28.0775L60.4947 24.7837C60.5491 24.6746 60.6467 24.5926 60.7661 24.5557C60.8856 24.5188 61.0171 24.5299 61.1318 24.5867L67.6181 27.8081L61.2492 29.7781Z" fill="#4ACFFF"/>
<path d="M68.9152 28.4524L61.1318 24.5867C60.8929 24.468 60.6076 24.5562 60.4947 24.7837L58.8588 28.0775C58.7458 28.3049 58.8479 28.5855 59.0868 28.7042L66.8703 32.5699C67.1092 32.6885 67.3945 32.6003 67.5074 32.3729L69.1433 29.0791C69.2563 28.8516 69.1542 28.571 68.9152 28.4524Z" stroke="#45413C" stroke-linecap="round" stroke-linejoin="round"/>
<path d="M60.4145 40.1418L56.9551 38.4236C56.7256 38.3099 56.4625 38.2875 56.2235 38.3613C55.9846 38.4352 55.7894 38.5993 55.6807 38.8177L54.454 41.2876L59.6432 43.8649L60.8699 41.3949C60.9237 41.2868 60.9546 41.1686 60.9608 41.0471C60.9671 40.9256 60.9485 40.8032 60.9062 40.6868C60.8639 40.5704 60.7987 40.4624 60.7144 40.3689C60.63 40.2754 60.5281 40.1982 60.4145 40.1418V40.1418Z" fill="#FF6242" stroke="#45413C" stroke-linecap="round" stroke-linejoin="round"/>
<path d="M65.3361 49.7718L44.5801 39.4632C44.1022 39.2258 43.5317 39.4023 43.3057 39.8572L37.9894 50.5615C37.7634 51.0165 37.9676 51.5777 38.4454 51.815L59.2015 62.1236C59.6793 62.361 60.2499 62.1845 60.4758 61.7296L65.7922 51.0252C66.0181 50.5703 65.8139 50.0091 65.3361 49.7718Z" fill="#E0E0E0"/>
<path d="M65.3361 49.7718L44.5794 39.4628C44.3503 39.3493 44.0877 39.3268 43.8492 39.4004C43.6106 39.4739 43.4156 39.6375 43.3067 39.8552L42.4888 41.5021C42.5974 41.2839 42.7924 41.1199 43.0312 41.0461C43.2699 40.9723 43.5328 40.9947 43.7621 41.1083L64.5188 51.4173C64.7482 51.5312 64.9251 51.7271 65.0107 51.962C65.0963 52.197 65.0835 52.4516 64.9753 52.6701L65.7932 51.0232C65.901 50.8048 65.9134 50.5504 65.8277 50.3158C65.742 50.0812 65.5652 49.8855 65.3361 49.7718Z" fill="#F0F0F0"/>
<path d="M64.5646 53.4952L42.0781 42.3271L38.8064 48.9146L61.2929 60.0827L64.5646 53.4952Z" fill="#656769"/>
<path d="M64.5646 53.4952L42.0781 42.3271L41.4648 43.5621L63.9512 54.7302L64.5646 53.4952Z" fill="#87898C"/>
<path d="M64.5646 53.4952L42.0781 42.3271L38.8064 48.9146L61.2929 60.0827L64.5646 53.4952Z" stroke="#45413C" stroke-linecap="round" stroke-linejoin="round"/>
<path d="M64.4241 47.2658L63.5596 46.8365C63.3302 46.7228 63.0672 46.7003 62.8284 46.7741C62.5896 46.8478 62.3943 47.0117 62.2855 47.2298L61.8764 48.0536L64.4714 49.3424L64.8805 48.5186C64.9887 48.3002 65.0015 48.0455 64.9159 47.8106C64.8303 47.5757 64.6534 47.3797 64.4241 47.2658Z" fill="#656769" stroke="#45413C" stroke-linecap="round" stroke-linejoin="round"/>
<path d="M48.8569 39.534L47.1272 38.675C46.8979 38.5613 46.635 38.5389 46.3963 38.6127C46.1576 38.6866 45.9625 38.8506 45.8539 39.0687L45.4448 39.8925L48.9042 41.6106L49.3134 40.7869C49.4216 40.5684 49.4344 40.3137 49.3488 40.0788C49.2632 39.8439 49.0863 39.648 48.8569 39.534Z" fill="#656769" stroke="#45413C" stroke-linecap="round" stroke-linejoin="round"/>
<path d="M65.3361 49.7718L44.5801 39.4632C44.1022 39.2258 43.5317 39.4023 43.3057 39.8572L37.9894 50.5615C37.7634 51.0165 37.9676 51.5777 38.4454 51.815L59.2015 62.1236C59.6793 62.361 60.2499 62.1845 60.4758 61.7296L65.7922 51.0252C66.0181 50.5703 65.8139 50.0091 65.3361 49.7718Z" stroke="#45413C" stroke-linecap="round" stroke-linejoin="round"/>
<path d="M58.6287 55.679C58.9727 55.8498 59.3673 55.8836 59.7256 55.7728C60.0839 55.662 60.3765 55.4158 60.5392 55.0882C60.7019 54.7607 60.7212 54.3787 60.593 54.0263C60.4648 53.6739 60.1995 53.3799 59.8554 53.209L58.5576 52.5645L57.3309 55.0344L58.6287 55.679Z" fill="#656769" stroke="#45413C" stroke-linecap="round" stroke-linejoin="round"/>
<path d="M59.9748 44.0291L54.1268 41.1246C53.9661 41.0448 53.7874 41.0091 53.6107 41.0216C53.434 41.0341 53.2664 41.0943 53.1265 41.1954L51.4672 42.3931C50.6491 42.9849 49.9915 43.7587 49.5463 44.6535L44.4967 54.8206L54.8765 59.9757L59.9261 49.8086C60.3703 48.9133 60.5895 47.9217 60.5662 46.9122L60.5179 44.8664C60.514 44.6947 60.4612 44.5256 60.3653 44.3778C60.2694 44.23 60.1343 44.1093 59.9748 44.0291V44.0291Z" fill="#BDBEC0"/>
<path d="M60.5662 46.9122L60.5179 44.8664C60.514 44.6939 60.4607 44.5241 60.364 44.3759C60.2673 44.2276 60.1311 44.1068 59.9705 44.027L54.1268 41.1246C53.9661 41.0448 53.7874 41.0091 53.6107 41.0216C53.434 41.0341 53.2664 41.0943 53.1265 41.1954L51.4672 42.3931C50.6488 42.9846 49.9912 43.7585 49.5463 44.6535L48.7283 46.3003C49.1732 45.4054 49.8309 44.6315 50.6493 44.04L52.3086 42.8423C52.4484 42.7411 52.6161 42.6809 52.7928 42.6684C52.9695 42.6559 53.1481 42.6916 53.3088 42.7715L59.1583 45.6767C59.3189 45.7565 59.4551 45.8773 59.5518 46.0255C59.6484 46.1738 59.7017 46.3436 59.7056 46.5161L59.754 48.5619C59.7772 49.5714 59.5581 50.563 59.1138 51.4583L59.9317 49.8115C60.3744 48.9149 60.5917 47.9222 60.5662 46.9122V46.9122Z" fill="#E0E0E0"/>
<path d="M59.9748 44.0291L54.1268 41.1246C53.9661 41.0448 53.7874 41.0091 53.6107 41.0216C53.434 41.0341 53.2664 41.0943 53.1265 41.1954L51.4672 42.3931C50.6491 42.9849 49.9915 43.7587 49.5463 44.6535L44.4967 54.8206L54.8765 59.9757L59.9261 49.8086C60.3703 48.9133 60.5895 47.9217 60.5662 46.9122L60.5179 44.8664C60.514 44.6947 60.4612 44.5256 60.3653 44.3778C60.2694 44.23 60.1343 44.1093 59.9748 44.0291V44.0291Z" stroke="#45413C" stroke-linecap="round" stroke-linejoin="round"/>
<path d="M50.097 56.5752C52.963 57.9985 56.3848 56.9404 57.74 54.2118C59.0952 51.4832 57.8705 48.1173 55.0046 46.6939C52.1387 45.2706 48.7168 46.3287 47.3616 49.0573C46.0065 51.7859 47.2311 55.1518 50.097 56.5752Z" fill="#656769"/>
<path d="M54.1865 48.3406C55.4118 48.9499 56.392 49.9525 56.9534 51.1708C57.5149 52.3892 57.6212 53.7444 57.2535 54.9962C57.7366 54.3509 58.0641 53.6052 58.2131 52.8114C58.362 52.0176 58.3289 51.1949 58.1159 50.4011C57.9029 49.6073 57.5152 48.8616 56.9801 48.2164C56.445 47.5711 55.7754 47.0419 55.0183 46.6659C54.2612 46.2898 53.4349 46.0761 52.5974 46.0397C51.7599 46.0032 50.9315 46.145 50.1703 46.4549C49.4092 46.7649 48.7336 47.2356 48.1912 47.8339C47.6487 48.4323 47.2525 49.1439 47.0302 49.9187C47.8055 48.8694 48.9495 48.1351 50.2595 47.8462C51.5694 47.5574 52.9607 47.7325 54.1865 48.3406V48.3406Z" fill="#87898C"/>
<path d="M50.9153 54.9282C52.8259 55.8771 55.1071 55.1717 56.0106 53.3526C56.9141 51.5335 56.0976 49.2896 54.187 48.3407C52.2764 47.3918 49.9951 48.0972 49.0917 49.9163C48.1882 51.7354 49.0047 53.9793 50.9153 54.9282Z" fill="#00B8F0"/>
<path d="M48.9472 52.7491C48.6051 51.8091 48.6566 50.7902 49.0904 49.9166C49.5243 49.0429 50.3049 48.386 51.2605 48.0905C52.2161 47.7949 53.2685 47.8848 54.1861 48.3405C55.1037 48.7962 55.8114 49.5802 56.1535 50.5202L48.9472 52.7491Z" fill="#4ACFFF"/>
<path d="M50.097 56.5752C52.963 57.9985 56.3848 56.9404 57.74 54.2118C59.0952 51.4832 57.8705 48.1173 55.0046 46.6939C52.1387 45.2706 48.7168 46.3287 47.3616 49.0573C46.0065 51.7859 47.2311 55.1518 50.097 56.5752Z" stroke="#45413C" stroke-linecap="round" stroke-linejoin="round"/>
<path d="M50.9153 54.9282C52.8259 55.8771 55.1071 55.1717 56.0106 53.3526C56.9141 51.5335 56.0976 49.2896 54.187 48.3407C52.2764 47.3918 49.9951 48.0972 49.0917 49.9163C48.1882 51.7354 49.0047 53.9793 50.9153 54.9282Z" stroke="#45413C" stroke-linecap="round" stroke-linejoin="round"/>
<path d="M53.2275 43.7583L58.4167 46.3355" stroke="#45413C" stroke-linecap="round" stroke-linejoin="round"/>
<path d="M45.5381 44.0452L42.2664 50.6326" stroke="#45413C" stroke-linecap="round" stroke-linejoin="round"/>
<path d="M45.4902 41.9688L48.0852 43.2575" stroke="#45413C" stroke-linecap="round" stroke-linejoin="round"/>
</svg>
