<svg width="64" height="64" viewBox="0 0 64 64" fill="none" xmlns="http://www.w3.org/2000/svg">
<path d="M58 42.0408L33.034 47.0338L28 41.9998H17V54.9998H21L32 60.9998H35L60 46.0408C60.697 45.6338 61 44.8478 61 44.0408V44.0398C61 42.6328 59.388 41.7998 58 42.0408Z" fill="#F8CF26"/>
<path d="M13 42H3V57H13V42Z" fill="#F4462D"/>
<path d="M13 42V57H17V55V42H13Z" fill="#FCF1ED"/>
<path d="M32 24C37.5228 24 42 19.5228 42 14C42 8.47715 37.5228 4 32 4C26.4772 4 22 8.47715 22 14C22 19.5228 26.4772 24 32 24Z" fill="#06AAE9"/>
<path d="M57.804 41.061L33.363 45.949L28.707 41.293C28.52 41.105 28.265 41 28 41H17H13H3C2.448 41 2 41.447 2 42V57C2 57.553 2.448 58 3 58H13H17C17.552 58 18 57.553 18 57V56H20.745L31.521 61.878C31.668 61.958 31.833 62 32 62H35C35.181 62 35.358 61.951 35.514 61.858L60.504 46.905C61.455 46.351 62 45.307 62 44.041C62 43.205 61.629 42.434 60.957 41.868C60.133 41.175 58.937 40.862 57.804 41.061ZM4 43H12V56H4V43ZM16 56H14V43H16V56ZM59.486 45.183L34.724 60H32.255L21.479 54.122C21.332 54.042 21.167 54 21 54H18V43H27.586L35.293 50.707C36.006 51.42 36.006 52.58 35.293 53.293C34.58 54.006 33.42 54.006 32.707 53.293L27.707 48.293L26.293 49.707L31.293 54.707C32.039 55.453 33.02 55.826 34 55.826C34.98 55.826 35.961 55.453 36.707 54.707C38.2 53.215 38.2 50.785 36.707 49.293L35.062 47.648L58.171 43.026C58.694 42.935 59.296 43.086 59.669 43.398C60 43.677 60 43.951 60 44.041C60 44.294 59.951 44.912 59.486 45.183Z" fill="#212329"/>
<path d="M3.44673 38.8952L25.0597 28.0882L43.6537 34.9392C44.0177 35.0712 44.4307 34.9842 44.7067 34.7082L59.2927 20.1222L60.0097 25.1432L61.9887 24.8602L60.9887 17.8602C60.9267 17.4212 60.5807 17.0752 60.1407 17.0112L53.1407 16.0112L52.8577 17.9912L57.8777 18.7082L43.7447 32.8412L25.3457 26.0622C25.0867 25.9672 24.7997 25.9822 24.5527 26.1062L2.55273 37.1062L3.44673 38.8952Z" fill="#212329"/>
<path d="M43 14C43 7.935 38.065 3 32 3C25.935 3 21 7.935 21 14C21 20.065 25.935 25 32 25C38.065 25 43 20.065 43 14ZM23 14C23 9.037 27.038 5 32 5C36.962 5 41 9.037 41 14C41 18.963 36.962 23 32 23C27.038 23 23 18.963 23 14Z" fill="#212329"/>
<path d="M36.2928 8.29316L26.293 18.293L27.7072 19.7072L37.707 9.70736L36.2928 8.29316Z" fill="#212329"/>
<path d="M30 10H28V12H30V10Z" fill="#212329"/>
<path d="M36 16H34V18H36V16Z" fill="#212329"/>
</svg>
