<svg width="157" height="157" viewBox="0 0 157 157" fill="none" xmlns="http://www.w3.org/2000/svg">
<path fill-rule="evenodd" clip-rule="evenodd" d="M39.962 0.771973H117.104C138.823 0.771973 156.429 18.3784 156.429 40.097V117.239C156.429 138.958 138.823 156.564 117.104 156.564H39.962C18.2434 156.564 0.636963 138.958 0.636963 117.239V40.097C0.636963 18.3784 18.2434 0.771973 39.962 0.771973Z" fill="#D1D2F4"/>
<mask id="mask0" mask-type="alpha" maskUnits="userSpaceOnUse" x="0" y="0" width="157" height="157">
<rect x="0.636963" y="0.771973" width="155.791" height="155.791" rx="24.569" fill="white"/>
</mask>
<g mask="url(#mask0)">
<path fill-rule="evenodd" clip-rule="evenodd" d="M124.278 126.661C138.909 146.461 85.9469 141.83 56.4199 142.219C30.4459 142.559 28.8519 134.702 32.4049 117.653C38.1049 90.32 25.6149 82.583 31.1279 60.904C39.0849 29.618 54.2429 16.604 83.1609 20.456C134.329 27.27 112.661 110.944 124.278 126.661Z" fill="#D8984D"/>
<path fill-rule="evenodd" clip-rule="evenodd" d="M64.2249 101.739L91.5109 101.384L91.9056 131.748L64.6196 132.103L64.2249 101.739Z" fill="#FFDFAE"/>
<path fill-rule="evenodd" clip-rule="evenodd" d="M64.4539 118.985L64.2679 104.921L91.5499 104.558L91.7139 116.789C91.7139 116.789 90.0089 122.212 79.3259 122.353C68.3599 122.501 64.4539 118.985 64.4539 118.985Z" fill="#F4CA92"/>
<path fill-rule="evenodd" clip-rule="evenodd" d="M110.591 82.525C109.819 100.602 91.647 117.62 76.92 117.762C63.886 117.89 42.639 100.615 39.833 85.429C39.533 83.799 32.633 84.301 31.888 75.218C31.195 66.718 37.925 74.442 37.91 73.398C37.719 58.86 45.384 62.214 52.01 59.982C61.399 56.818 61.538 48.882 61.538 48.882C66.91 70.66 111.697 56.735 110.591 82.525Z" fill="#FFDFAE"/>
<path fill-rule="evenodd" clip-rule="evenodd" d="M131.065 174.622C130.903 162.355 96.3539 130.365 96.3539 130.365L59.1979 131.316C59.1979 131.316 15.9829 162.591 16.1629 176.148L131.065 174.622Z" fill="#ECEFF1"/>
</g>
</svg>
