<svg width="205" height="210" viewBox="0 0 205 210" fill="none" xmlns="http://www.w3.org/2000/svg">
<g clip-path="url(#clip0)">
<rect width="205" height="210" fill="white"/>
<path opacity="0.296" fill-rule="evenodd" clip-rule="evenodd" d="M160.455 175.79C160.455 175.79 135.546 209.786 97.2909 207.778C50.9074 205.341 72.6563 146.73 30.5706 131.645C-11.5151 116.56 -3.42478 11.6131 88.2324 1.10938C179.89 -9.39433 236.569 78.4987 160.455 175.79Z" fill="#FFCFEA"/>
<g clip-path="url(#clip1)">
<path d="M118.986 208.65C147.282 208.65 170.22 205.383 170.22 201.352C170.22 197.321 147.282 194.054 118.986 194.054C90.6903 194.054 67.752 197.321 67.752 201.352C67.752 205.383 90.6903 208.65 118.986 208.65Z" fill="#EFEEFF"/>
<path d="M80.0033 46.503L78.2666 190.184C78.2563 190.994 78.3278 191.802 78.4799 192.597C78.5522 192.982 78.6448 193.362 78.7573 193.737C78.8213 193.93 78.881 194.117 78.9408 194.301C79.3237 195.393 79.8658 196.422 80.5495 197.354C80.8892 197.819 81.2613 198.258 81.6631 198.67C82.0622 199.079 82.49 199.458 82.9433 199.806C83.2462 200.036 83.562 200.254 83.882 200.463C84.2042 200.67 84.5375 200.858 84.8805 201.027V201.027C85.4008 201.287 85.94 201.507 86.4934 201.685V201.685C86.8647 201.804 87.2444 201.907 87.6285 201.992C88.4195 202.163 89.2258 202.253 90.0351 202.261L148.92 202.983C149.78 202.993 150.638 202.911 151.48 202.74L151.886 202.65C152.031 202.616 152.184 202.577 152.312 202.535C152.926 202.361 153.525 202.14 154.104 201.873C154.395 201.732 154.676 201.591 154.958 201.446C155.082 201.373 155.21 201.3 155.329 201.224C155.594 201.061 155.85 200.886 156.097 200.707C156.869 200.143 157.571 199.489 158.188 198.759C158.431 198.469 158.666 198.166 158.884 197.85C159.212 197.375 159.506 196.877 159.763 196.359C160.112 195.664 160.39 194.934 160.59 194.181V194.181C160.857 193.207 161 192.203 161.017 191.192L162.758 47.5066C162.791 44.3411 161.568 41.2917 159.358 39.0269C157.148 36.7622 154.131 35.467 150.968 35.4253L92.0832 34.7122C88.9203 34.6768 85.8724 35.8982 83.6079 38.1085C81.3434 40.3188 80.0471 43.3376 80.0033 46.503V46.503Z" fill="#292929"/>
<path d="M82.6259 46.5372L80.885 190.218C80.8807 190.853 80.9364 191.486 81.0514 192.11C81.1062 192.399 81.1774 192.684 81.2648 192.964L81.4312 193.473C81.7251 194.306 82.1407 195.092 82.6643 195.804C83.1994 196.532 83.8343 197.18 84.5504 197.73C84.7253 197.863 84.9387 198.016 85.1862 198.157L85.2843 198.221C85.4849 198.349 85.711 198.473 85.9116 198.584L86.0652 198.657C86.4281 198.839 86.8031 198.996 87.1874 199.127L87.3154 199.169C87.6269 199.268 87.9128 199.344 88.1944 199.413C88.8166 199.541 89.4496 199.609 90.0847 199.618L148.97 200.331C149.634 200.34 150.298 200.279 150.95 200.147C151.167 200.105 151.376 200.053 151.598 199.994C152.087 199.856 152.563 199.679 153.023 199.464C153.245 199.357 153.45 199.246 153.655 199.131C153.766 199.071 153.851 199.024 153.924 198.977L153.983 198.939C154.182 198.821 154.375 198.693 154.559 198.554C155.161 198.109 155.71 197.596 156.194 197.026C156.394 196.786 156.569 196.56 156.731 196.33C157.297 195.492 157.728 194.571 158.012 193.601L158.05 193.46C158.252 192.7 158.36 191.918 158.37 191.132L160.111 47.4511C160.137 44.9807 159.183 42.6007 157.459 40.8331C155.734 39.0654 153.379 38.0544 150.911 38.0218L92.0262 37.3086C90.1636 37.2893 88.338 37.829 86.7849 38.8582C85.2318 39.8873 84.0224 41.3587 83.3129 43.0823C82.863 44.1787 82.6297 45.3519 82.6259 46.5372Z" fill="#F8F8F8"/>
<path opacity="0.2" d="M79.004 150.358C78.9486 149.824 78.8718 149.188 78.7694 148.466L78.6328 159.795C79.0804 158.625 79.4608 157.43 79.7721 156.217C79.9684 155.038 79.5075 152.536 79.004 150.358Z" fill="#292929"/>
<path d="M79.5633 82.8878L79.7682 65.921C79.134 65.9142 78.5231 66.1595 78.0694 66.6031C77.6158 67.0466 77.3566 67.6522 77.3488 68.2869V68.2869L77.1994 80.4621C77.1955 80.7767 77.2535 81.0891 77.3701 81.3812C77.4868 81.6734 77.6598 81.9397 77.8794 82.165C78.0989 82.3902 78.3606 82.57 78.6495 82.694C78.9385 82.818 79.249 82.8839 79.5633 82.8878V82.8878Z" fill="#292929"/>
<path d="M161.319 66.9331H162.706C162.838 66.9348 162.969 66.9625 163.09 67.0147C163.212 67.0669 163.322 67.1426 163.414 67.2373C163.507 67.3321 163.579 67.4442 163.628 67.5671C163.678 67.69 163.702 67.8214 163.7 67.9538L163.623 74.4193C163.619 74.6862 163.509 74.9406 163.318 75.127C163.127 75.3133 162.87 75.4166 162.604 75.4143H161.217L161.319 66.9331Z" fill="#292929"/>
<path d="M161.196 77.1439H162.583C162.849 77.1473 163.103 77.2561 163.29 77.4466C163.476 77.6371 163.579 77.8937 163.577 78.1603L163.5 84.6259C163.499 84.7582 163.471 84.8889 163.419 85.0106C163.367 85.1322 163.291 85.2424 163.196 85.3348C163.102 85.4272 162.99 85.5 162.867 85.5491C162.744 85.5982 162.613 85.6226 162.481 85.6209H161.094L161.196 77.1396V77.1439Z" fill="#292929"/>
<path d="M112.679 41.1776L130.174 41.3911C130.875 41.4013 131.572 41.2728 132.224 41.0132C132.877 40.7535 133.471 40.3677 133.974 39.8779C134.477 39.388 134.878 38.8037 135.155 38.1583C135.433 37.513 135.58 36.8193 135.589 36.117V36.117L107.426 35.7754C107.417 36.4766 107.546 37.1726 107.806 37.8238C108.067 38.4749 108.452 39.0684 108.942 39.5701C109.431 40.0719 110.015 40.4721 110.659 40.748C111.303 41.0238 111.995 41.1698 112.696 41.1776H112.679Z" fill="#292929"/>
<path d="M49.9656 105.445C50.755 107.687 52.7307 108.746 54.9325 107.85C57.9194 106.645 58.0431 103.767 57.147 101.563C57.147 101.563 51.8175 91.2501 49.7949 87.7995C46.4709 82.1368 42.0546 81.1119 40.9067 81.2186C40.3136 81.2699 42.7629 87.5219 44.7044 91.5533C47.6444 97.6387 48.6215 101.64 49.9656 105.445Z" fill="#AFE9FF"/>
<path d="M75.0307 85.7578C72.287 87.9827 56.1235 97.0533 52.9531 99.748C50.0131 102.255 48.8695 104.557 50.7897 106.76C52.4965 108.742 54.8092 108.678 57.8858 105.603L77.7616 88.5465L75.0307 85.7578Z" fill="#805A43"/>
<path d="M40.9071 81.2185C42.0592 81.1117 45.8611 81.3722 50.0556 87.6242C51.4338 89.6869 53.8404 94.1666 55.6027 97.4891C57.3821 96.3104 61.4912 93.3809 62.1867 93.3937C62.9548 93.3937 66.5391 98.0912 66.4538 98.7831C66.377 99.3895 57.8429 106.12 57.8429 106.12C57.3778 106.585 55.5686 108.093 54.8901 108.37C52.6883 109.263 50.717 108.208 49.9276 105.966C48.5792 102.157 47.4228 97.929 44.4359 91.8734C41.9482 86.8299 40.314 81.2697 40.9071 81.2185Z" fill="#AFE9FF"/>
<path d="M75.2258 84.2377C75.2258 84.2377 76.2414 81.0689 77.3935 81.3935C78.5456 81.7181 77.5172 83.7295 77.5172 83.7295C77.5172 83.7295 81.2594 79.5358 82.9022 81.9956C84.4383 84.2804 83.2265 85.5957 78.4261 88.4484C77.0436 89.2811 73.2928 88.2519 75.2258 84.2377Z" fill="#805A43"/>
<path d="M43.5487 193.314H38.0527V197.213H43.5487V193.314Z" fill="#805A43"/>
<path d="M45.8562 197.068C48.1092 198.285 52.8072 199.319 53.3832 201.826C53.9593 204.332 46.8461 204.49 38.6919 199.528C37.9963 199.101 37.4971 197.764 38.0475 195.612C38.0475 195.612 42.2719 196.731 43.5392 195.164C44.2129 195.91 44.9938 196.552 45.8562 197.068V197.068Z" fill="#292929"/>
<path d="M33.0096 193.332H27.5137V197.231H33.0096V193.332Z" fill="#805A43"/>
<path d="M35.3092 197.086C37.5622 198.303 42.2559 199.336 42.8362 201.843C43.4165 204.35 36.3034 204.508 28.1534 199.546C27.4536 199.119 26.9159 197.517 27.5133 195.677C27.5133 195.677 31.7334 196.838 33.0007 195.25C33.6857 195.961 34.4619 196.579 35.3092 197.086V197.086Z" fill="#292929"/>
<path d="M35.9959 125.012C35.8465 134.873 35.6033 150.815 35.3729 157.682C35.2662 160.833 33.1028 162.512 30.1842 162.512C27.2655 162.512 24.2103 161.196 23.8391 158.156C22.8235 149.717 22.559 138.191 23.3356 125.012H35.9959Z" fill="#FDE1B2"/>
<path d="M33.4746 194.195L35.3734 157.131C35.3734 154.214 33.0948 152.472 30.2529 151.887C27.4111 151.302 23.75 153.322 23.75 156.243L27.1807 194.195H33.4746Z" fill="#FDE1B2"/>
<path d="M47.7956 125.012C48.3717 136.799 47.9279 157.498 47.9279 157.498C47.3561 164.843 44.6679 163.805 41.7493 163.805C38.8306 163.805 37.1025 161.243 37.1025 158.313L34.9434 125.003L47.7956 125.012Z" fill="#FDE1B2"/>
<path d="M44.0397 194.194C44.0397 194.194 47.2272 166.257 47.927 157.694C48.4177 151.716 45.1065 151.169 42.1879 151.169C38.7742 151.169 37.1016 154.88 37.1016 157.801L37.7502 194.194H44.0397Z" fill="#FDE1B2"/>
<path d="M48.763 128.108C46.5783 131.226 26.391 132.028 22.2648 128.868C21.3772 128.185 22.9902 105.893 23.1737 92.949C23.2633 86.8208 23.6473 85.0443 24.7098 83.8016C26.7452 81.44 32.5099 80.7866 32.5099 80.7866H37.9802C37.9802 80.7866 43.4292 81.0557 45.7548 83.7162C48.7417 87.1326 48.6734 91.8942 48.1187 99.5171C47.7005 105.269 49.3092 127.318 48.763 128.108Z" fill="#BFB9FF"/>
<path d="M43.8852 66.2925C43.4585 73.0954 42.3704 75.457 40.1686 77.3617C39.0592 78.3183 36.755 78.3183 35.3554 78.3183C30.4825 78.3183 27.5809 74.3382 26.8214 66.2327C26.2667 60.2967 30.0601 56.2568 35.4792 56.2568C40.8983 56.2568 44.3333 59.3444 43.8852 66.2925Z" fill="#805A43"/>
<path d="M37.9537 82.0041C37.0619 83.3493 33.7336 83.3194 33.021 81.7735C32.4876 80.6205 32.6711 76.8154 32.6711 76.8154H38.3164C38.3164 76.8154 38.6407 80.9578 37.9537 82.0041Z" fill="#805A43"/>
<path d="M43.2318 64.213C39.9974 65.2636 36.7289 65.3191 30.3369 65.2166C30.3369 65.2166 28.7623 66.2671 28.997 69.9141C28.997 69.9141 27.495 72.3312 27.3158 71.7547C26.7999 69.929 26.5386 68.0406 26.5392 66.1433C26.3557 62.5304 27.495 55.3303 34.813 55.8941C42.1309 56.4578 41.909 56.9403 43.4281 56.7055C46.2699 56.257 47.1105 62.9575 43.2318 64.213Z" fill="#292929"/>
<path d="M32.4852 77.7717C30.0573 73.2706 29.6263 71.2378 29.3746 69.7261L27.1216 70.1745C27.1216 70.1745 26.857 72.3097 29.3148 75.6621C30.9875 77.9553 32.4852 77.7717 32.4852 77.7717Z" fill="#292929"/>
<path d="M29.429 68.4878C29.429 69.5469 30.7091 70.623 29.1815 70.7469C28.3281 70.8152 27.543 69.9696 27.543 68.9106C27.543 67.8515 27.799 66.5703 29.1815 66.5703C30.0392 66.5703 29.429 67.4287 29.429 68.4878Z" fill="#805A43"/>
<path d="M70.5877 192.636H65.0918V195.766H70.5877V192.636Z" fill="#FDE1B2"/>
<path d="M60.0451 192.516H54.5449V195.646H60.0451V192.516Z" fill="#FDE1B2"/>
<path d="M72.9401 196.154C75.1931 197.376 79.891 198.409 80.4714 200.912C81.0517 203.414 74.1476 203.85 66.0019 198.883C65.2978 198.456 64.5212 196.748 65.0973 194.818C65.0973 194.818 69.2747 195.736 70.6017 194.344C71.3018 195.044 72.0875 195.652 72.9401 196.154V196.154Z" fill="#292929"/>
<path d="M62.3574 196.33C64.6104 197.551 69.3126 198.58 69.8887 201.091C70.4647 203.603 63.1596 203.688 55.1077 198.926C54.4036 198.499 54.0751 196.838 54.5231 194.711C54.5231 194.711 58.1757 195.903 60.0447 194.306C60.6998 195.102 61.4811 195.786 62.3574 196.33V196.33Z" fill="#292929"/>
<path d="M49.821 118.513C45.554 127.98 50.4867 146.433 51.8009 155.619C52.2959 159.048 54.1051 160.885 57.0195 160.885C58.4206 160.885 59.7642 160.328 60.7549 159.336C61.7456 158.345 62.3021 157 62.3021 155.598L63.2835 117.189C63.2835 117.189 50.9518 115.972 49.821 118.513Z" fill="#A3DCF9"/>
<path d="M60.347 193.635C60.347 193.635 62.0538 165.45 62.3013 156.055C62.4037 152.062 59.9245 150.021 57.0016 150.021C54.0787 150.021 51.7617 152.19 51.7617 155.111L54.0574 193.648L60.347 193.635Z" fill="#A3DCF9"/>
<path d="M61.291 117.594C61.291 117.594 63.4245 146.425 63.7019 156.055C63.7958 158.971 65.4087 161.546 68.3487 161.546C69.7497 161.546 71.0934 160.989 72.084 159.998C73.0747 159.006 73.6313 157.662 73.6313 156.26V156.26C73.6313 156.26 75.8715 123.351 72.7779 117.992C71.2929 115.374 61.291 117.594 61.291 117.594Z" fill="#A3DCF9"/>
<path d="M70.9167 193.631L73.7458 155.892C73.7458 152.971 71.7019 150.605 68.7832 150.605C65.8646 150.605 63.8164 152.771 63.8164 155.687L64.6143 193.631H70.9167Z" fill="#A3DCF9"/>
<path d="M55.1546 59.8998C54.1049 61.2578 52.0994 62.9233 51.5234 67.1597C50.9473 71.396 52.9827 71.1697 50.67 75.4231C48.3572 79.6765 45.4941 79.1 46.8296 85.7107C47.8836 90.9592 47.3886 92.629 44.3121 97.2411C41.2356 101.853 47.3886 109.344 42.0036 112.448C38.8844 114.242 46.3389 122.155 52.9102 118.653C59.4814 115.152 63.2577 105.539 67.3114 106.696C71.3651 107.853 70.3324 89.4346 68.9456 87.2951C65.3741 81.7434 69.0182 81.7947 71.3266 76.3754C73.6351 70.9561 72.5513 59.0713 66.4708 57.487C61.3759 56.193 56.8956 57.662 55.1546 59.8998Z" fill="#292929"/>
<path d="M76.6568 103.015C77.5913 104.834 79.7291 104.689 80.7019 104.018C82.3405 102.895 83.1811 101.618 82.2381 99.7991C82.2381 99.7991 76.0039 90.404 74.0966 87.53C71.3358 83.3705 68.1227 82.8965 66.2324 82.8623C65.3236 82.8623 64.5854 84.4723 65.9551 86.2104C67.6278 88.3456 67.7003 88.1748 69.8253 91.3905C72.0612 94.7685 76.6568 103.015 76.6568 103.015Z" fill="#FDE1B2"/>
<path d="M79.9709 95.7422C80.0051 94.9565 75.6015 89.0504 74.5945 87.5301C71.8337 83.3706 68.3988 82.0809 66.1287 82.3286C65.2241 82.4268 64.584 84.4638 65.9537 86.2147C67.6264 88.35 67.3277 88.5464 69.4527 91.7664C70.7328 93.6796 73.101 99.1629 74.044 99.5601C74.987 99.9572 79.9411 96.3743 79.9709 95.7422Z" fill="#FFCFEA"/>
<path d="M76.4629 113.982C77.3504 111.522 76.5738 106.444 76.6421 102.853C76.6933 99.9145 78.9122 98.4326 80.9091 99.2397C82.7098 99.9572 83.1621 100.623 82.057 104.791C80.9177 109.139 79.07 115.199 79.07 115.199L76.4629 113.982Z" fill="#FDE1B2"/>
<path d="M74.6595 123.923C72.6711 124.918 50.2606 125.952 47.8796 123.296C45.4986 120.639 54.1564 113.52 51.7541 94.9009C50.73 86.9919 52.3643 84.5791 53.4609 83.3406C55.0141 81.5555 59.2385 81.9228 59.2385 81.9228H64.5296C65.7136 82.095 66.8647 82.4464 67.9432 82.9648C69.7396 83.8574 72.159 88.0894 72.3297 91.3179C72.4364 93.2781 71.903 95.4561 71.6299 97.6853C71.4976 98.7742 75.0691 101.204 75.9993 107.866C76.9594 114.596 75.914 123.304 74.6595 123.923Z" fill="#F8BED7"/>
<path d="M70.1006 68.3469C69.6739 74.7185 68.6839 76.9306 66.6144 78.72C65.5775 79.6168 63.4355 79.6168 62.1085 79.6168C57.5427 79.6168 54.8204 75.8843 54.1078 68.2999C53.5829 62.7483 57.1544 58.9561 62.2151 58.9561C67.2758 58.9561 70.5188 61.8386 70.1006 68.3469Z" fill="#FDE1B2"/>
<path d="M53.9588 104.736C53.9588 106.781 52.9987 108.408 50.9718 108.408C48.2068 108.408 47.1699 106.153 47.1699 104.103C47.1699 104.103 48.2153 92.018 49.184 88.7297C50.9633 82.6399 54.6927 82.3239 56.0112 82.1958C56.5872 82.1403 56.8134 83.6819 56.1392 85.7873C55.3541 88.2556 54.8292 88.1745 54.4068 92.0051C53.9673 96.0194 53.9588 104.736 53.9588 104.736Z" fill="#FDE1B2"/>
<path d="M54.348 99.8887C54.8003 99.5598 54.8857 94.1406 55.0478 92.1761C55.3294 88.8494 55.9012 88.1533 56.6906 85.6849C57.3605 83.5796 57.0746 82.0465 56.1999 82.0806C54.8643 82.1362 50.4778 82.5974 48.6899 88.6871C48.0925 90.737 46.8935 98.7527 47.333 99.5214C47.8792 100.495 53.8274 100.277 54.348 99.8887Z" fill="#FFCFEA"/>
<path d="M70.7552 114.387C68.0243 113.042 57.1861 104.693 53.9303 103.186C50.9093 101.789 48.7032 101.725 47.6749 104.04C46.7489 106.102 47.6322 107.883 51.1397 109.164L69.5647 117.534L70.7552 114.387Z" fill="#FDE1B2"/>
<path d="M71.3393 113.96C71.3393 113.96 74.1811 113.61 74.3262 114.63C74.4713 115.651 72.5468 115.57 72.5468 115.57C72.5468 115.57 77.168 116.979 75.8453 119.157C74.6121 121.186 73.1485 120.712 69.1887 117.987C68.0451 117.193 67.5032 113.909 71.3393 113.96Z" fill="#FDE1B2"/>
<path d="M55.7087 71.9683C55.7087 71.9683 56.6347 77.3064 59.1778 78.9804C59.1778 78.9804 55.7087 78.4722 54.5566 72.122L55.7087 71.9683Z" fill="#292929"/>
<path d="M75.8546 114.067C75.8546 114.067 73.8875 115.549 74.3995 116.279C74.9116 117.009 76.0594 115.796 76.0594 115.796C76.0594 115.796 74.0368 119.426 76.1533 119.981C78.1246 120.494 78.7433 119.332 79.5669 115.284C79.8144 114.101 78.1844 111.744 75.8546 114.067Z" fill="#FDE1B2"/>
<path d="M66.8033 63.9438C66.8033 63.9438 67.1234 66.4121 64.2901 65.6733C61.4567 64.9345 62.0328 67.2491 60.4113 67.8812C58.7899 68.5132 58.4144 70.8193 57.2623 70.294C56.1102 69.7687 54.5868 72.4293 53.6438 70.3709C52.7008 68.3125 54.1772 58.5586 61.3671 58.5245C61.3671 58.5245 69.7519 57.7515 70.1402 65.5708C70.1359 65.5836 67.6567 66.8947 66.8033 63.9438Z" fill="#292929"/>
<path d="M55.9967 71.3831C55.9967 72.3738 57.1914 73.3774 55.7662 73.5183C54.9598 73.5824 54.2344 72.7923 54.2344 71.8101C54.2344 70.8279 54.4691 69.6151 55.7662 69.6151C56.5642 69.5852 55.9967 70.3923 55.9967 71.3831Z" fill="#FDE1B2"/>
<path d="M64.0988 78.3228H59.4521C59.6654 79.1 59.9129 80.6502 58.9827 81.7861C57.9159 83.0673 65.4472 83.2039 64.4829 81.8203C64.1547 81.306 63.9493 80.723 63.8827 80.1164C63.8161 79.5098 63.8901 78.8961 64.0988 78.3228Z" fill="#FDE1B2"/>
<path d="M34.8015 107.994C35.6165 110.356 35.1556 112.615 32.796 113.431C29.6085 114.533 27.5091 112.346 26.6941 109.98C26.6941 109.98 22.8068 97.9075 22.3503 93.7266C21.7017 87.7736 23.8224 83.345 26.4466 82.4995C27.5091 82.1578 27.6457 83.8404 28.179 86.4881C28.9386 90.2675 28.6271 88.8369 29.664 93.4234C30.7435 98.2491 34.8015 107.994 34.8015 107.994Z" fill="#F79474"/>
<path d="M60.5442 114.439C56.8959 113.738 38.6415 106.91 34.3361 106.192C30.3251 105.53 27.7051 106.171 27.2358 109.207C26.809 111.932 28.4263 113.738 32.9792 114.131L60.1601 118.526L60.5442 114.439Z" fill="#805A43"/>
<path d="M26.9326 82.2433C27.9951 81.9102 28.9382 84.7757 29.4673 87.4234C30.2268 91.2028 32.9705 102.507 34.1951 105.569C34.2933 105.569 43.7917 108.059 44.052 108.814C44.1885 109.216 42.8145 115.22 42.1617 115.925C41.9995 116.104 35.8721 115.242 33.5593 114.746C32.5182 114.52 30.901 114.383 28.9467 113.354C27.402 112.538 26.6382 110.792 26.3865 110.1C26.3865 110.1 22.4864 101.106 22.0853 94.5125C21.6117 86.4327 23.6641 83.2768 26.9326 82.2433Z" fill="#A3DCF9"/>
<path d="M61.8981 113.563C61.8981 113.563 65.1368 112.226 65.6531 113.375C66.1694 114.524 63.861 115.062 63.861 115.062C63.861 115.062 69.7665 115.22 68.9131 118.214C68.1152 120.994 66.242 120.913 60.6906 118.995C59.0776 118.436 57.3665 114.737 61.8981 113.563Z" fill="#805A43"/>
<path d="M150.252 155.303L88.0977 154.737L87.7662 191.093L149.92 191.659L150.252 155.303Z" fill="#BFB9FF"/>
<path d="M140.287 164.01L98.0156 163.625L97.9906 166.369L140.262 166.755L140.287 164.01Z" fill="#FBF4A3"/>
<path d="M140.238 169.631L97.9668 169.246L97.9418 171.99L140.213 172.376L140.238 169.631Z" fill="#FBF4A3"/>
<path d="M131.154 175.177L97.9141 174.874L97.8893 177.59L131.13 177.893L131.154 175.177Z" fill="#FBF4A3"/>
<path d="M120.46 180.695L97.875 180.497L97.8509 183.241L120.436 183.439L120.46 180.695Z" fill="#FBF4A3"/>
<path d="M151.252 53.0666L89.0977 52.5L88.7662 107.093L150.92 107.66L151.252 53.0666Z" fill="#BFB9FF"/>
<path d="M141.285 80.0109L99.0137 79.6255L98.9887 82.3698L141.26 82.7552L141.285 80.0109Z" fill="#FBF4A3"/>
<path d="M141.238 85.6315L98.9668 85.2461L98.9418 87.9905L141.213 88.3758L141.238 85.6315Z" fill="#FBF4A3"/>
<path d="M132.154 91.1771L98.9141 90.874L98.8893 93.5904L132.13 93.8934L132.154 91.1771Z" fill="#FBF4A3"/>
<path d="M132.154 62.303L98.9141 62L98.8893 64.7164L132.13 65.0194L132.154 62.303Z" fill="#FBF4A3"/>
<path d="M141.299 68.3864L98.9141 68L98.8893 70.7164L141.274 71.1028L141.299 68.3864Z" fill="#FBF4A3"/>
<path d="M121.458 96.6946L98.873 96.4966L98.849 99.241L121.434 99.439L121.458 96.6946Z" fill="#FBF4A3"/>
<path d="M151.479 113.18L88.5391 112.315L88.0332 149.13L150.973 149.995L151.479 113.18Z" fill="#A3DCF9"/>
<path d="M141.355 121.944L98.5488 121.356L98.5106 124.135L141.317 124.723L141.355 121.944Z" fill="#FBF4A3"/>
<path d="M141.277 127.637L98.4707 127.048L98.4325 129.827L141.239 130.416L141.277 127.637Z" fill="#FBF4A3"/>
<path d="M132.045 133.216L98.3848 132.753L98.347 135.504L132.008 135.967L132.045 133.216Z" fill="#FBF4A3"/>
<path d="M121.189 138.749L98.3184 138.443L98.2811 141.222L121.152 141.528L121.189 138.749Z" fill="#FBF4A3"/>
<g clip-path="url(#clip2)">
<path d="M74.9915 116.428C75.8308 117.771 77.6079 118.248 79.0208 117.498L104.267 103.809C103.095 102.282 102.09 100.645 101.269 98.9234L76.012 112.619C74.7003 113.362 74.211 115.152 74.9915 116.428Z" fill="#B9D2E4"/>
<circle cx="118.5" cy="90.5" r="20" fill="#EDF9FF" fill-opacity="0.68" stroke="#B9D2E4" stroke-width="3"/>
<path d="M130.423 92.0523C130.296 92.5275 130.578 93.0166 131.054 93.1439C131.529 93.2712 132.018 92.9889 132.145 92.5136C133.007 89.2989 132.562 85.9372 130.893 83.0483C129.227 80.1586 126.538 78.0927 123.322 77.2308C122.847 77.1035 122.358 77.3858 122.23 77.8611C122.103 78.3363 122.385 78.8254 122.86 78.9527C125.617 79.6914 127.92 81.4619 129.349 83.9394C130.78 86.4174 131.162 89.2972 130.423 92.0523Z" fill="white"/>
</g>
</g>
</g>
<defs>
<clipPath id="clip0">
<rect width="205" height="210" fill="white"/>
</clipPath>
<clipPath id="clip1">
<rect width="183" height="201" fill="white" transform="translate(22 8)"/>
</clipPath>
<clipPath id="clip2">
<rect width="61.1198" height="61.1198" fill="white" transform="translate(146.855 72.4971) rotate(105)"/>
</clipPath>
</defs>
</svg>
