<svg width="629" height="146" viewBox="0 0 629 146" fill="none" xmlns="http://www.w3.org/2000/svg">
<path d="M1.15625 69V57.625H5.05469C6.34115 57.625 7.32031 57.8828 7.99219 58.3984C8.66406 58.9141 9 59.6823 9 60.7031C9 61.224 8.85938 61.6927 8.57812 62.1094C8.29688 62.526 7.88542 62.849 7.34375 63.0781C7.95833 63.2448 8.43229 63.5599 8.76562 64.0234C9.10417 64.4818 9.27344 65.0339 9.27344 65.6797C9.27344 66.7474 8.92969 67.5677 8.24219 68.1406C7.5599 68.7135 6.58073 69 5.30469 69H1.15625ZM3.13281 63.8672V67.4219H5.32812C5.94792 67.4219 6.43229 67.2682 6.78125 66.9609C7.13021 66.6536 7.30469 66.2266 7.30469 65.6797C7.30469 64.4974 6.70052 63.8932 5.49219 63.8672H3.13281ZM3.13281 62.4141H5.07031C5.6849 62.4141 6.16406 62.276 6.50781 62C6.85677 61.7188 7.03125 61.3229 7.03125 60.8125C7.03125 60.25 6.86979 59.8438 6.54688 59.5938C6.22917 59.3438 5.73177 59.2188 5.05469 59.2188H3.13281V62.4141ZM14.7891 69.1562C13.5859 69.1562 12.6094 68.7786 11.8594 68.0234C11.1146 67.263 10.7422 66.2526 10.7422 64.9922V64.7578C10.7422 63.9141 10.9036 63.1615 11.2266 62.5C11.5547 61.8333 12.013 61.3151 12.6016 60.9453C13.1901 60.5755 13.8464 60.3906 14.5703 60.3906C15.7214 60.3906 16.6094 60.7578 17.2344 61.4922C17.8646 62.2266 18.1797 63.2656 18.1797 64.6094V65.375H12.6562C12.7135 66.0729 12.9453 66.625 13.3516 67.0312C13.763 67.4375 14.2786 67.6406 14.8984 67.6406C15.7682 67.6406 16.4766 67.2891 17.0234 66.5859L18.0469 67.5625C17.7083 68.0677 17.2552 68.4609 16.6875 68.7422C16.125 69.0182 15.4922 69.1562 14.7891 69.1562ZM14.5625 61.9141C14.0417 61.9141 13.6198 62.0964 13.2969 62.4609C12.9792 62.8255 12.776 63.3333 12.6875 63.9844H16.3047V63.8438C16.263 63.2083 16.0938 62.7292 15.7969 62.4062C15.5 62.0781 15.0885 61.9141 14.5625 61.9141ZM20.3281 69V61.9531H19.0391V60.5469H20.3281V59.7734C20.3281 58.8359 20.5885 58.112 21.1094 57.6016C21.6302 57.0911 22.3594 56.8359 23.2969 56.8359C23.6302 56.8359 23.9844 56.8828 24.3594 56.9766L24.3125 58.4609C24.1042 58.4193 23.862 58.3984 23.5859 58.3984C22.6797 58.3984 22.2266 58.8646 22.2266 59.7969V60.5469H23.9453V61.9531H22.2266V69H20.3281ZM24.9766 64.6953C24.9766 63.8672 25.1406 63.1224 25.4688 62.4609C25.7969 61.7943 26.2578 61.2839 26.8516 60.9297C27.4453 60.5703 28.1276 60.3906 28.8984 60.3906C30.0391 60.3906 30.9635 60.7578 31.6719 61.4922C32.3854 62.2266 32.7708 63.2005 32.8281 64.4141L32.8359 64.8594C32.8359 65.6927 32.6745 66.4375 32.3516 67.0938C32.0339 67.75 31.5755 68.2578 30.9766 68.6172C30.3828 68.9766 29.6953 69.1562 28.9141 69.1562C27.7214 69.1562 26.7656 68.7604 26.0469 67.9688C25.3333 67.1719 24.9766 66.112 24.9766 64.7891V64.6953ZM26.875 64.8594C26.875 65.7292 27.0547 66.4115 27.4141 66.9062C27.7734 67.3958 28.2734 67.6406 28.9141 67.6406C29.5547 67.6406 30.0521 67.3906 30.4062 66.8906C30.7656 66.3906 30.9453 65.6589 30.9453 64.6953C30.9453 63.8411 30.7604 63.1641 30.3906 62.6641C30.026 62.1641 29.5286 61.9141 28.8984 61.9141C28.2786 61.9141 27.7865 62.1615 27.4219 62.6562C27.0573 63.1458 26.875 63.8802 26.875 64.8594ZM38.8672 62.2812C38.6172 62.2396 38.3594 62.2188 38.0938 62.2188C37.224 62.2188 36.638 62.5521 36.3359 63.2188V69H34.4375V60.5469H36.25L36.2969 61.4922C36.7552 60.7578 37.3906 60.3906 38.2031 60.3906C38.474 60.3906 38.6979 60.4271 38.875 60.5L38.8672 62.2812ZM43.6328 69.1562C42.4297 69.1562 41.4531 68.7786 40.7031 68.0234C39.9583 67.263 39.5859 66.2526 39.5859 64.9922V64.7578C39.5859 63.9141 39.7474 63.1615 40.0703 62.5C40.3984 61.8333 40.8568 61.3151 41.4453 60.9453C42.0339 60.5755 42.6901 60.3906 43.4141 60.3906C44.5651 60.3906 45.4531 60.7578 46.0781 61.4922C46.7083 62.2266 47.0234 63.2656 47.0234 64.6094V65.375H41.5C41.5573 66.0729 41.7891 66.625 42.1953 67.0312C42.6068 67.4375 43.1224 67.6406 43.7422 67.6406C44.612 67.6406 45.3203 67.2891 45.8672 66.5859L46.8906 67.5625C46.5521 68.0677 46.099 68.4609 45.5312 68.7422C44.9688 69.0182 44.3359 69.1562 43.6328 69.1562ZM43.4062 61.9141C42.8854 61.9141 42.4635 62.0964 42.1406 62.4609C41.8229 62.8255 41.6198 63.3333 41.5312 63.9844H45.1484V63.8438C45.1068 63.2083 44.9375 62.7292 44.6406 62.4062C44.3438 62.0781 43.9323 61.9141 43.4062 61.9141Z" fill="#979797"/>
<path d="M117.57 62.4141H119.199C120.223 62.3984 121.027 62.1289 121.613 61.6055C122.199 61.082 122.492 60.375 122.492 59.4844C122.492 57.4844 121.496 56.4844 119.504 56.4844C118.566 56.4844 117.816 56.7539 117.254 57.293C116.699 57.8242 116.422 58.5312 116.422 59.4141H114.254C114.254 58.0625 114.746 56.9414 115.73 56.0508C116.723 55.1523 117.98 54.7031 119.504 54.7031C121.113 54.7031 122.375 55.1289 123.289 55.9805C124.203 56.832 124.66 58.0156 124.66 59.5312C124.66 60.2734 124.418 60.9922 123.934 61.6875C123.457 62.3828 122.805 62.9023 121.977 63.2461C122.914 63.543 123.637 64.0352 124.145 64.7227C124.66 65.4102 124.918 66.25 124.918 67.2422C124.918 68.7734 124.418 69.9883 123.418 70.8867C122.418 71.7852 121.117 72.2344 119.516 72.2344C117.914 72.2344 116.609 71.8008 115.602 70.9336C114.602 70.0664 114.102 68.9219 114.102 67.5H116.281C116.281 68.3984 116.574 69.1172 117.16 69.6562C117.746 70.1953 118.531 70.4648 119.516 70.4648C120.562 70.4648 121.363 70.1914 121.918 69.6445C122.473 69.0977 122.75 68.3125 122.75 67.2891C122.75 66.2969 122.445 65.5352 121.836 65.0039C121.227 64.4727 120.348 64.1992 119.199 64.1836H117.57V62.4141Z" fill="#9B9B9B" fill-opacity="0.63"/>
<path d="M134.504 73.4648H132.641L139.766 54.9375H141.617L134.504 73.4648ZM156.816 72H154.637V57.5508L150.266 59.1562V57.1875L156.477 54.8555H156.816V72ZM173.516 59.3906C173.516 60.2422 173.289 61 172.836 61.6641C172.391 62.3281 171.785 62.8477 171.02 63.2227C171.91 63.6055 172.613 64.1641 173.129 64.8984C173.652 65.6328 173.914 66.4648 173.914 67.3945C173.914 68.8711 173.414 70.0469 172.414 70.9219C171.422 71.7969 170.113 72.2344 168.488 72.2344C166.848 72.2344 165.531 71.7969 164.539 70.9219C163.555 70.0391 163.062 68.8633 163.062 67.3945C163.062 66.4727 163.312 65.6406 163.812 64.8984C164.32 64.1562 165.02 63.5938 165.91 63.2109C165.152 62.8359 164.555 62.3164 164.117 61.6523C163.68 60.9883 163.461 60.2344 163.461 59.3906C163.461 57.9531 163.922 56.8125 164.844 55.9688C165.766 55.125 166.98 54.7031 168.488 54.7031C169.988 54.7031 171.199 55.125 172.121 55.9688C173.051 56.8125 173.516 57.9531 173.516 59.3906ZM171.746 67.3477C171.746 66.3945 171.441 65.6172 170.832 65.0156C170.23 64.4141 169.441 64.1133 168.465 64.1133C167.488 64.1133 166.703 64.4102 166.109 65.0039C165.523 65.5977 165.23 66.3789 165.23 67.3477C165.23 68.3164 165.516 69.0781 166.086 69.6328C166.664 70.1875 167.465 70.4648 168.488 70.4648C169.504 70.4648 170.301 70.1875 170.879 69.6328C171.457 69.0703 171.746 68.3086 171.746 67.3477ZM168.488 56.4844C167.637 56.4844 166.945 56.75 166.414 57.2812C165.891 57.8047 165.629 58.5195 165.629 59.4258C165.629 60.293 165.887 60.9961 166.402 61.5352C166.926 62.0664 167.621 62.332 168.488 62.332C169.355 62.332 170.047 62.0664 170.562 61.5352C171.086 60.9961 171.348 60.293 171.348 59.4258C171.348 58.5586 171.078 57.8516 170.539 57.3047C170 56.7578 169.316 56.4844 168.488 56.4844Z" fill="#979797"/>
<path d="M316.57 66.2695H318.938V68.0391H316.57V72H314.391V68.0391H306.621V66.7617L314.262 54.9375H316.57V66.2695ZM309.082 66.2695H314.391V57.9023L314.133 58.3711L309.082 66.2695Z" fill="#9B9B9B" fill-opacity="0.63"/>
<path d="M327.504 73.4648H325.641L332.766 54.9375H334.617L327.504 73.4648ZM349.816 72H347.637V57.5508L343.266 59.1562V57.1875L349.477 54.8555H349.816V72ZM366.516 59.3906C366.516 60.2422 366.289 61 365.836 61.6641C365.391 62.3281 364.785 62.8477 364.02 63.2227C364.91 63.6055 365.613 64.1641 366.129 64.8984C366.652 65.6328 366.914 66.4648 366.914 67.3945C366.914 68.8711 366.414 70.0469 365.414 70.9219C364.422 71.7969 363.113 72.2344 361.488 72.2344C359.848 72.2344 358.531 71.7969 357.539 70.9219C356.555 70.0391 356.062 68.8633 356.062 67.3945C356.062 66.4727 356.312 65.6406 356.812 64.8984C357.32 64.1562 358.02 63.5938 358.91 63.2109C358.152 62.8359 357.555 62.3164 357.117 61.6523C356.68 60.9883 356.461 60.2344 356.461 59.3906C356.461 57.9531 356.922 56.8125 357.844 55.9688C358.766 55.125 359.98 54.7031 361.488 54.7031C362.988 54.7031 364.199 55.125 365.121 55.9688C366.051 56.8125 366.516 57.9531 366.516 59.3906ZM364.746 67.3477C364.746 66.3945 364.441 65.6172 363.832 65.0156C363.23 64.4141 362.441 64.1133 361.465 64.1133C360.488 64.1133 359.703 64.4102 359.109 65.0039C358.523 65.5977 358.23 66.3789 358.23 67.3477C358.23 68.3164 358.516 69.0781 359.086 69.6328C359.664 70.1875 360.465 70.4648 361.488 70.4648C362.504 70.4648 363.301 70.1875 363.879 69.6328C364.457 69.0703 364.746 68.3086 364.746 67.3477ZM361.488 56.4844C360.637 56.4844 359.945 56.75 359.414 57.2812C358.891 57.8047 358.629 58.5195 358.629 59.4258C358.629 60.293 358.887 60.9961 359.402 61.5352C359.926 62.0664 360.621 62.332 361.488 62.332C362.355 62.332 363.047 62.0664 363.562 61.5352C364.086 60.9961 364.348 60.293 364.348 59.4258C364.348 58.5586 364.078 57.8516 363.539 57.3047C363 56.7578 362.316 56.4844 361.488 56.4844Z" fill="#979797"/>
<path d="M511.598 72H500.418V70.4414L506.324 63.8789C507.199 62.8867 507.801 62.082 508.129 61.4648C508.465 60.8398 508.633 60.1953 508.633 59.5312C508.633 58.6406 508.363 57.9102 507.824 57.3398C507.285 56.7695 506.566 56.4844 505.668 56.4844C504.59 56.4844 503.75 56.793 503.148 57.4102C502.555 58.0195 502.258 58.8711 502.258 59.9648H500.09C500.09 58.3945 500.594 57.125 501.602 56.1562C502.617 55.1875 503.973 54.7031 505.668 54.7031C507.254 54.7031 508.508 55.1211 509.43 55.957C510.352 56.7852 510.812 57.8906 510.812 59.2734C510.812 60.9531 509.742 62.9531 507.602 65.2734L503.031 70.2305H511.598V72Z" fill="#9B9B9B" fill-opacity="0.63"/>
<path d="M520.504 73.4648H518.641L525.766 54.9375H527.617L520.504 73.4648ZM542.816 72H540.637V57.5508L536.266 59.1562V57.1875L542.477 54.8555H542.816V72ZM559.516 59.3906C559.516 60.2422 559.289 61 558.836 61.6641C558.391 62.3281 557.785 62.8477 557.02 63.2227C557.91 63.6055 558.613 64.1641 559.129 64.8984C559.652 65.6328 559.914 66.4648 559.914 67.3945C559.914 68.8711 559.414 70.0469 558.414 70.9219C557.422 71.7969 556.113 72.2344 554.488 72.2344C552.848 72.2344 551.531 71.7969 550.539 70.9219C549.555 70.0391 549.062 68.8633 549.062 67.3945C549.062 66.4727 549.312 65.6406 549.812 64.8984C550.32 64.1562 551.02 63.5938 551.91 63.2109C551.152 62.8359 550.555 62.3164 550.117 61.6523C549.68 60.9883 549.461 60.2344 549.461 59.3906C549.461 57.9531 549.922 56.8125 550.844 55.9688C551.766 55.125 552.98 54.7031 554.488 54.7031C555.988 54.7031 557.199 55.125 558.121 55.9688C559.051 56.8125 559.516 57.9531 559.516 59.3906ZM557.746 67.3477C557.746 66.3945 557.441 65.6172 556.832 65.0156C556.23 64.4141 555.441 64.1133 554.465 64.1133C553.488 64.1133 552.703 64.4102 552.109 65.0039C551.523 65.5977 551.23 66.3789 551.23 67.3477C551.23 68.3164 551.516 69.0781 552.086 69.6328C552.664 70.1875 553.465 70.4648 554.488 70.4648C555.504 70.4648 556.301 70.1875 556.879 69.6328C557.457 69.0703 557.746 68.3086 557.746 67.3477ZM554.488 56.4844C553.637 56.4844 552.945 56.75 552.414 57.2812C551.891 57.8047 551.629 58.5195 551.629 59.4258C551.629 60.293 551.887 60.9961 552.402 61.5352C552.926 62.0664 553.621 62.332 554.488 62.332C555.355 62.332 556.047 62.0664 556.562 61.5352C557.086 60.9961 557.348 60.293 557.348 59.4258C557.348 58.5586 557.078 57.8516 556.539 57.3047C556 56.7578 555.316 56.4844 554.488 56.4844Z" fill="#979797"/>
<path d="M115.543 136H113.363V121.551L108.992 123.156V121.188L115.203 118.855H115.543V136ZM132.242 123.391C132.242 124.242 132.016 125 131.562 125.664C131.117 126.328 130.512 126.848 129.746 127.223C130.637 127.605 131.34 128.164 131.855 128.898C132.379 129.633 132.641 130.465 132.641 131.395C132.641 132.871 132.141 134.047 131.141 134.922C130.148 135.797 128.84 136.234 127.215 136.234C125.574 136.234 124.258 135.797 123.266 134.922C122.281 134.039 121.789 132.863 121.789 131.395C121.789 130.473 122.039 129.641 122.539 128.898C123.047 128.156 123.746 127.594 124.637 127.211C123.879 126.836 123.281 126.316 122.844 125.652C122.406 124.988 122.188 124.234 122.188 123.391C122.188 121.953 122.648 120.812 123.57 119.969C124.492 119.125 125.707 118.703 127.215 118.703C128.715 118.703 129.926 119.125 130.848 119.969C131.777 120.812 132.242 121.953 132.242 123.391ZM130.473 131.348C130.473 130.395 130.168 129.617 129.559 129.016C128.957 128.414 128.168 128.113 127.191 128.113C126.215 128.113 125.43 128.41 124.836 129.004C124.25 129.598 123.957 130.379 123.957 131.348C123.957 132.316 124.242 133.078 124.812 133.633C125.391 134.188 126.191 134.465 127.215 134.465C128.23 134.465 129.027 134.188 129.605 133.633C130.184 133.07 130.473 132.309 130.473 131.348ZM127.215 120.484C126.363 120.484 125.672 120.75 125.141 121.281C124.617 121.805 124.355 122.52 124.355 123.426C124.355 124.293 124.613 124.996 125.129 125.535C125.652 126.066 126.348 126.332 127.215 126.332C128.082 126.332 128.773 126.066 129.289 125.535C129.812 124.996 130.074 124.293 130.074 123.426C130.074 122.559 129.805 121.852 129.266 121.305C128.727 120.758 128.043 120.484 127.215 120.484Z" fill="#FF8F87"/>
<path d="M141.98 137.465H140.117L147.242 118.938H149.094L141.98 137.465ZM164.293 136H162.113V121.551L157.742 123.156V121.188L163.953 118.855H164.293V136ZM180.992 123.391C180.992 124.242 180.766 125 180.312 125.664C179.867 126.328 179.262 126.848 178.496 127.223C179.387 127.605 180.09 128.164 180.605 128.898C181.129 129.633 181.391 130.465 181.391 131.395C181.391 132.871 180.891 134.047 179.891 134.922C178.898 135.797 177.59 136.234 175.965 136.234C174.324 136.234 173.008 135.797 172.016 134.922C171.031 134.039 170.539 132.863 170.539 131.395C170.539 130.473 170.789 129.641 171.289 128.898C171.797 128.156 172.496 127.594 173.387 127.211C172.629 126.836 172.031 126.316 171.594 125.652C171.156 124.988 170.938 124.234 170.938 123.391C170.938 121.953 171.398 120.812 172.32 119.969C173.242 119.125 174.457 118.703 175.965 118.703C177.465 118.703 178.676 119.125 179.598 119.969C180.527 120.812 180.992 121.953 180.992 123.391ZM179.223 131.348C179.223 130.395 178.918 129.617 178.309 129.016C177.707 128.414 176.918 128.113 175.941 128.113C174.965 128.113 174.18 128.41 173.586 129.004C173 129.598 172.707 130.379 172.707 131.348C172.707 132.316 172.992 133.078 173.562 133.633C174.141 134.188 174.941 134.465 175.965 134.465C176.98 134.465 177.777 134.188 178.355 133.633C178.934 133.07 179.223 132.309 179.223 131.348ZM175.965 120.484C175.113 120.484 174.422 120.75 173.891 121.281C173.367 121.805 173.105 122.52 173.105 123.426C173.105 124.293 173.363 124.996 173.879 125.535C174.402 126.066 175.098 126.332 175.965 126.332C176.832 126.332 177.523 126.066 178.039 125.535C178.562 124.996 178.824 124.293 178.824 123.426C178.824 122.559 178.555 121.852 178.016 121.305C177.477 120.758 176.793 120.484 175.965 120.484Z" fill="black"/>
<path d="M308.543 136H306.363V121.551L301.992 123.156V121.188L308.203 118.855H308.543V136ZM325.242 123.391C325.242 124.242 325.016 125 324.562 125.664C324.117 126.328 323.512 126.848 322.746 127.223C323.637 127.605 324.34 128.164 324.855 128.898C325.379 129.633 325.641 130.465 325.641 131.395C325.641 132.871 325.141 134.047 324.141 134.922C323.148 135.797 321.84 136.234 320.215 136.234C318.574 136.234 317.258 135.797 316.266 134.922C315.281 134.039 314.789 132.863 314.789 131.395C314.789 130.473 315.039 129.641 315.539 128.898C316.047 128.156 316.746 127.594 317.637 127.211C316.879 126.836 316.281 126.316 315.844 125.652C315.406 124.988 315.188 124.234 315.188 123.391C315.188 121.953 315.648 120.812 316.57 119.969C317.492 119.125 318.707 118.703 320.215 118.703C321.715 118.703 322.926 119.125 323.848 119.969C324.777 120.812 325.242 121.953 325.242 123.391ZM323.473 131.348C323.473 130.395 323.168 129.617 322.559 129.016C321.957 128.414 321.168 128.113 320.191 128.113C319.215 128.113 318.43 128.41 317.836 129.004C317.25 129.598 316.957 130.379 316.957 131.348C316.957 132.316 317.242 133.078 317.812 133.633C318.391 134.188 319.191 134.465 320.215 134.465C321.23 134.465 322.027 134.188 322.605 133.633C323.184 133.07 323.473 132.309 323.473 131.348ZM320.215 120.484C319.363 120.484 318.672 120.75 318.141 121.281C317.617 121.805 317.355 122.52 317.355 123.426C317.355 124.293 317.613 124.996 318.129 125.535C318.652 126.066 319.348 126.332 320.215 126.332C321.082 126.332 321.773 126.066 322.289 125.535C322.812 124.996 323.074 124.293 323.074 123.426C323.074 122.559 322.805 121.852 322.266 121.305C321.727 120.758 321.043 120.484 320.215 120.484Z" fill="#FF8F87"/>
<path d="M334.98 137.465H333.117L340.242 118.938H342.094L334.98 137.465ZM357.293 136H355.113V121.551L350.742 123.156V121.188L356.953 118.855H357.293V136ZM373.992 123.391C373.992 124.242 373.766 125 373.312 125.664C372.867 126.328 372.262 126.848 371.496 127.223C372.387 127.605 373.09 128.164 373.605 128.898C374.129 129.633 374.391 130.465 374.391 131.395C374.391 132.871 373.891 134.047 372.891 134.922C371.898 135.797 370.59 136.234 368.965 136.234C367.324 136.234 366.008 135.797 365.016 134.922C364.031 134.039 363.539 132.863 363.539 131.395C363.539 130.473 363.789 129.641 364.289 128.898C364.797 128.156 365.496 127.594 366.387 127.211C365.629 126.836 365.031 126.316 364.594 125.652C364.156 124.988 363.938 124.234 363.938 123.391C363.938 121.953 364.398 120.812 365.32 119.969C366.242 119.125 367.457 118.703 368.965 118.703C370.465 118.703 371.676 119.125 372.598 119.969C373.527 120.812 373.992 121.953 373.992 123.391ZM372.223 131.348C372.223 130.395 371.918 129.617 371.309 129.016C370.707 128.414 369.918 128.113 368.941 128.113C367.965 128.113 367.18 128.41 366.586 129.004C366 129.598 365.707 130.379 365.707 131.348C365.707 132.316 365.992 133.078 366.562 133.633C367.141 134.188 367.941 134.465 368.965 134.465C369.98 134.465 370.777 134.188 371.355 133.633C371.934 133.07 372.223 132.309 372.223 131.348ZM368.965 120.484C368.113 120.484 367.422 120.75 366.891 121.281C366.367 121.805 366.105 122.52 366.105 123.426C366.105 124.293 366.363 124.996 366.879 125.535C367.402 126.066 368.098 126.332 368.965 126.332C369.832 126.332 370.523 126.066 371.039 125.535C371.562 124.996 371.824 124.293 371.824 123.426C371.824 122.559 371.555 121.852 371.016 121.305C370.477 120.758 369.793 120.484 368.965 120.484Z" fill="black"/>
<path d="M501.543 136H499.363V121.551L494.992 123.156V121.188L501.203 118.855H501.543V136ZM519.074 136H507.895V134.441L513.801 127.879C514.676 126.887 515.277 126.082 515.605 125.465C515.941 124.84 516.109 124.195 516.109 123.531C516.109 122.641 515.84 121.91 515.301 121.34C514.762 120.77 514.043 120.484 513.145 120.484C512.066 120.484 511.227 120.793 510.625 121.41C510.031 122.02 509.734 122.871 509.734 123.965H507.566C507.566 122.395 508.07 121.125 509.078 120.156C510.094 119.188 511.449 118.703 513.145 118.703C514.73 118.703 515.984 119.121 516.906 119.957C517.828 120.785 518.289 121.891 518.289 123.273C518.289 124.953 517.219 126.953 515.078 129.273L510.508 134.23H519.074V136Z" fill="#FF8F87"/>
<path d="M527.98 137.465H526.117L533.242 118.938H535.094L527.98 137.465ZM550.293 136H548.113V121.551L543.742 123.156V121.188L549.953 118.855H550.293V136ZM566.992 123.391C566.992 124.242 566.766 125 566.312 125.664C565.867 126.328 565.262 126.848 564.496 127.223C565.387 127.605 566.09 128.164 566.605 128.898C567.129 129.633 567.391 130.465 567.391 131.395C567.391 132.871 566.891 134.047 565.891 134.922C564.898 135.797 563.59 136.234 561.965 136.234C560.324 136.234 559.008 135.797 558.016 134.922C557.031 134.039 556.539 132.863 556.539 131.395C556.539 130.473 556.789 129.641 557.289 128.898C557.797 128.156 558.496 127.594 559.387 127.211C558.629 126.836 558.031 126.316 557.594 125.652C557.156 124.988 556.938 124.234 556.938 123.391C556.938 121.953 557.398 120.812 558.32 119.969C559.242 119.125 560.457 118.703 561.965 118.703C563.465 118.703 564.676 119.125 565.598 119.969C566.527 120.812 566.992 121.953 566.992 123.391ZM565.223 131.348C565.223 130.395 564.918 129.617 564.309 129.016C563.707 128.414 562.918 128.113 561.941 128.113C560.965 128.113 560.18 128.41 559.586 129.004C559 129.598 558.707 130.379 558.707 131.348C558.707 132.316 558.992 133.078 559.562 133.633C560.141 134.188 560.941 134.465 561.965 134.465C562.98 134.465 563.777 134.188 564.355 133.633C564.934 133.07 565.223 132.309 565.223 131.348ZM561.965 120.484C561.113 120.484 560.422 120.75 559.891 121.281C559.367 121.805 559.105 122.52 559.105 123.426C559.105 124.293 559.363 124.996 559.879 125.535C560.402 126.066 561.098 126.332 561.965 126.332C562.832 126.332 563.523 126.066 564.039 125.535C564.562 124.996 564.824 124.293 564.824 123.426C564.824 122.559 564.555 121.852 564.016 121.305C563.477 120.758 562.793 120.484 561.965 120.484Z" fill="black"/>
<path d="M7.52344 130.352H3.11719L2.19531 133H0.140625L4.4375 121.625H6.21094L10.5156 133H8.45312L7.52344 130.352ZM3.67188 128.758H6.96875L5.32031 124.039L3.67188 128.758ZM12.2969 133V125.953H11.0078V124.547H12.2969V123.773C12.2969 122.836 12.5573 122.112 13.0781 121.602C13.599 121.091 14.3281 120.836 15.2656 120.836C15.599 120.836 15.9531 120.883 16.3281 120.977L16.2812 122.461C16.0729 122.419 15.8307 122.398 15.5547 122.398C14.6484 122.398 14.1953 122.865 14.1953 123.797V124.547H15.9141V125.953H14.1953V133H12.2969ZM19.6797 122.492V124.547H21.1719V125.953H19.6797V130.672C19.6797 130.995 19.7422 131.229 19.8672 131.375C19.9974 131.516 20.2266 131.586 20.5547 131.586C20.7734 131.586 20.9948 131.56 21.2188 131.508V132.977C20.7865 133.096 20.3698 133.156 19.9688 133.156C18.5104 133.156 17.7812 132.352 17.7812 130.742V125.953H16.3906V124.547H17.7812V122.492H19.6797ZM26.3516 133.156C25.1484 133.156 24.1719 132.779 23.4219 132.023C22.6771 131.263 22.3047 130.253 22.3047 128.992V128.758C22.3047 127.914 22.4661 127.161 22.7891 126.5C23.1172 125.833 23.5755 125.315 24.1641 124.945C24.7526 124.576 25.4089 124.391 26.1328 124.391C27.2839 124.391 28.1719 124.758 28.7969 125.492C29.4271 126.227 29.7422 127.266 29.7422 128.609V129.375H24.2188C24.276 130.073 24.5078 130.625 24.9141 131.031C25.3255 131.438 25.8411 131.641 26.4609 131.641C27.3307 131.641 28.0391 131.289 28.5859 130.586L29.6094 131.562C29.2708 132.068 28.8177 132.461 28.25 132.742C27.6875 133.018 27.0547 133.156 26.3516 133.156ZM26.125 125.914C25.6042 125.914 25.1823 126.096 24.8594 126.461C24.5417 126.826 24.3385 127.333 24.25 127.984H27.8672V127.844C27.8255 127.208 27.6562 126.729 27.3594 126.406C27.0625 126.078 26.651 125.914 26.125 125.914ZM35.6484 126.281C35.3984 126.24 35.1406 126.219 34.875 126.219C34.0052 126.219 33.4193 126.552 33.1172 127.219V133H31.2188V124.547H33.0312L33.0781 125.492C33.5365 124.758 34.1719 124.391 34.9844 124.391C35.2552 124.391 35.4792 124.427 35.6562 124.5L35.6484 126.281Z" fill="black"/>
<path d="M77.5781 13.8125H72.4141L71.2422 17H70.2344L74.5391 5.625H75.4531L79.7578 17H78.7578L77.5781 13.8125ZM72.7109 12.9922H77.2734L74.9922 6.79688L72.7109 12.9922ZM85.125 9.34375C84.9271 9.30729 84.7161 9.28906 84.4922 9.28906C83.9089 9.28906 83.4141 9.45312 83.0078 9.78125C82.6068 10.1042 82.3203 10.5755 82.1484 11.1953V17H81.2188V8.54688H82.1328L82.1484 9.89062C82.6432 8.89062 83.4375 8.39062 84.5312 8.39062C84.7917 8.39062 84.9974 8.42448 85.1484 8.49219L85.125 9.34375ZM88.4531 6.38281V8.54688H90.2031V9.3125H88.4531V14.9453C88.4531 15.4141 88.5365 15.763 88.7031 15.9922C88.875 16.2214 89.1589 16.3359 89.5547 16.3359C89.7109 16.3359 89.9635 16.3099 90.3125 16.2578L90.3516 17.0234C90.1068 17.112 89.7734 17.1562 89.3516 17.1562C88.7109 17.1562 88.2448 16.9714 87.9531 16.6016C87.6615 16.2266 87.5156 15.6771 87.5156 14.9531V9.3125H85.9609V8.54688H87.5156V6.38281H88.4531ZM93.1875 17H92.25V8.54688H93.1875V17ZM92.0859 6.10156C92.0859 5.92448 92.1432 5.77604 92.2578 5.65625C92.3724 5.53125 92.5286 5.46875 92.7266 5.46875C92.9245 5.46875 93.0807 5.53125 93.1953 5.65625C93.3151 5.77604 93.375 5.92448 93.375 6.10156C93.375 6.27865 93.3151 6.42708 93.1953 6.54688C93.0807 6.66667 92.9245 6.72656 92.7266 6.72656C92.5286 6.72656 92.3724 6.66667 92.2578 6.54688C92.1432 6.42708 92.0859 6.27865 92.0859 6.10156ZM98.8594 16.3672C99.5104 16.3672 100.055 16.1849 100.492 15.8203C100.935 15.4505 101.174 14.974 101.211 14.3906H102.109C102.083 14.9062 101.922 15.3776 101.625 15.8047C101.328 16.2266 100.932 16.5573 100.438 16.7969C99.9479 17.0365 99.4219 17.1562 98.8594 17.1562C97.75 17.1562 96.8698 16.7708 96.2188 16C95.5729 15.2292 95.25 14.1927 95.25 12.8906V12.6094C95.25 11.776 95.3958 11.0391 95.6875 10.3984C95.9792 9.75781 96.3958 9.26302 96.9375 8.91406C97.4844 8.5651 98.1224 8.39062 98.8516 8.39062C99.7786 8.39062 100.542 8.66667 101.141 9.21875C101.745 9.77083 102.068 10.4974 102.109 11.3984H101.211C101.169 10.737 100.93 10.2031 100.492 9.79688C100.06 9.39062 99.513 9.1875 98.8516 9.1875C98.0078 9.1875 97.3516 9.49219 96.8828 10.1016C96.4193 10.7109 96.1875 11.5651 96.1875 12.6641V12.9375C96.1875 14.0156 96.4193 14.8568 96.8828 15.4609C97.3516 16.0651 98.0104 16.3672 98.8594 16.3672ZM105.031 17H104.094V5H105.031V17ZM110.852 17.1562C110.133 17.1562 109.482 16.9792 108.898 16.625C108.32 16.2708 107.87 15.7786 107.547 15.1484C107.224 14.513 107.062 13.8021 107.062 13.0156V12.6797C107.062 11.8672 107.219 11.1354 107.531 10.4844C107.849 9.83333 108.289 9.32292 108.852 8.95312C109.414 8.57812 110.023 8.39062 110.68 8.39062C111.706 8.39062 112.518 8.74219 113.117 9.44531C113.721 10.1432 114.023 11.099 114.023 12.3125V12.8359H107.992V13.0156C107.992 13.974 108.266 14.7734 108.812 15.4141C109.365 16.0495 110.057 16.3672 110.891 16.3672C111.391 16.3672 111.831 16.276 112.211 16.0938C112.596 15.9115 112.945 15.6198 113.258 15.2188L113.844 15.6641C113.156 16.6589 112.159 17.1562 110.852 17.1562ZM110.68 9.1875C109.977 9.1875 109.383 9.44531 108.898 9.96094C108.419 10.4766 108.128 11.1693 108.023 12.0391H113.094V11.9375C113.068 11.125 112.836 10.4635 112.398 9.95312C111.961 9.44271 111.388 9.1875 110.68 9.1875ZM119.953 17V5.625H123.133C124.065 5.625 124.901 5.83854 125.641 6.26562C126.38 6.6875 126.956 7.29427 127.367 8.08594C127.784 8.8776 127.992 9.77865 127.992 10.7891V11.8359C127.992 12.8516 127.786 13.7526 127.375 14.5391C126.964 15.3255 126.383 15.9323 125.633 16.3594C124.888 16.7865 124.031 17 123.062 17H119.953ZM120.914 6.44531V16.1875H123.07C124.268 16.1875 125.229 15.7917 125.953 15C126.677 14.2031 127.039 13.1276 127.039 11.7734V10.7734C127.039 9.46615 126.682 8.41927 125.969 7.63281C125.255 6.84635 124.315 6.45052 123.148 6.44531H120.914ZM131.266 17H130.328V8.54688H131.266V17ZM130.164 6.10156C130.164 5.92448 130.221 5.77604 130.336 5.65625C130.451 5.53125 130.607 5.46875 130.805 5.46875C131.003 5.46875 131.159 5.53125 131.273 5.65625C131.393 5.77604 131.453 5.92448 131.453 6.10156C131.453 6.27865 131.393 6.42708 131.273 6.54688C131.159 6.66667 131.003 6.72656 130.805 6.72656C130.607 6.72656 130.451 6.66667 130.336 6.54688C130.221 6.42708 130.164 6.27865 130.164 6.10156ZM138.875 14.8516C138.875 14.388 138.688 14.0156 138.312 13.7344C137.943 13.4531 137.383 13.2344 136.633 13.0781C135.883 12.9167 135.299 12.7344 134.883 12.5312C134.471 12.3229 134.164 12.0703 133.961 11.7734C133.763 11.4766 133.664 11.1172 133.664 10.6953C133.664 10.0286 133.943 9.47917 134.5 9.04688C135.057 8.60938 135.771 8.39062 136.641 8.39062C137.583 8.39062 138.339 8.625 138.906 9.09375C139.479 9.55729 139.766 10.1641 139.766 10.9141H138.828C138.828 10.4193 138.62 10.0078 138.203 9.67969C137.792 9.35156 137.271 9.1875 136.641 9.1875C136.026 9.1875 135.531 9.32552 135.156 9.60156C134.786 9.8724 134.602 10.2266 134.602 10.6641C134.602 11.0859 134.755 11.4141 135.062 11.6484C135.375 11.8776 135.94 12.0885 136.758 12.2812C137.581 12.474 138.195 12.6797 138.602 12.8984C139.013 13.1172 139.318 13.3802 139.516 13.6875C139.714 13.9948 139.812 14.3672 139.812 14.8047C139.812 15.5182 139.523 16.0885 138.945 16.5156C138.372 16.9427 137.622 17.1562 136.695 17.1562C135.711 17.1562 134.911 16.9193 134.297 16.4453C133.688 15.9661 133.383 15.362 133.383 14.6328H134.32C134.357 15.1797 134.586 15.6068 135.008 15.9141C135.435 16.2161 135.997 16.3672 136.695 16.3672C137.346 16.3672 137.872 16.224 138.273 15.9375C138.674 15.651 138.875 15.2891 138.875 14.8516ZM145.047 16.3672C145.698 16.3672 146.242 16.1849 146.68 15.8203C147.122 15.4505 147.362 14.974 147.398 14.3906H148.297C148.271 14.9062 148.109 15.3776 147.812 15.8047C147.516 16.2266 147.12 16.5573 146.625 16.7969C146.135 17.0365 145.609 17.1562 145.047 17.1562C143.938 17.1562 143.057 16.7708 142.406 16C141.76 15.2292 141.438 14.1927 141.438 12.8906V12.6094C141.438 11.776 141.583 11.0391 141.875 10.3984C142.167 9.75781 142.583 9.26302 143.125 8.91406C143.672 8.5651 144.31 8.39062 145.039 8.39062C145.966 8.39062 146.729 8.66667 147.328 9.21875C147.932 9.77083 148.255 10.4974 148.297 11.3984H147.398C147.357 10.737 147.117 10.2031 146.68 9.79688C146.247 9.39062 145.701 9.1875 145.039 9.1875C144.195 9.1875 143.539 9.49219 143.07 10.1016C142.607 10.7109 142.375 11.5651 142.375 12.6641V12.9375C142.375 14.0156 142.607 14.8568 143.07 15.4609C143.539 16.0651 144.198 16.3672 145.047 16.3672ZM149.656 12.6484C149.656 11.8359 149.812 11.1042 150.125 10.4531C150.443 9.80208 150.888 9.29688 151.461 8.9375C152.039 8.57292 152.693 8.39062 153.422 8.39062C154.547 8.39062 155.458 8.78646 156.156 9.57812C156.854 10.3646 157.203 11.4089 157.203 12.7109V12.9062C157.203 13.724 157.044 14.4609 156.727 15.1172C156.414 15.7682 155.971 16.2708 155.398 16.625C154.826 16.9792 154.172 17.1562 153.438 17.1562C152.318 17.1562 151.406 16.763 150.703 15.9766C150.005 15.1849 149.656 14.138 149.656 12.8359V12.6484ZM150.594 12.9062C150.594 13.9167 150.854 14.7474 151.375 15.3984C151.901 16.0443 152.589 16.3672 153.438 16.3672C154.281 16.3672 154.964 16.0443 155.484 15.3984C156.01 14.7474 156.273 13.8906 156.273 12.8281V12.6484C156.273 12.0026 156.154 11.4115 155.914 10.875C155.674 10.3385 155.339 9.92448 154.906 9.63281C154.474 9.33594 153.979 9.1875 153.422 9.1875C152.589 9.1875 151.909 9.51562 151.383 10.1719C150.857 10.8229 150.594 11.6771 150.594 12.7344V12.9062ZM161.648 15.7109L164.219 8.54688H165.18L162.023 17H161.266L158.094 8.54688H159.055L161.648 15.7109ZM169.883 17.1562C169.164 17.1562 168.513 16.9792 167.93 16.625C167.352 16.2708 166.901 15.7786 166.578 15.1484C166.255 14.513 166.094 13.8021 166.094 13.0156V12.6797C166.094 11.8672 166.25 11.1354 166.562 10.4844C166.88 9.83333 167.32 9.32292 167.883 8.95312C168.445 8.57812 169.055 8.39062 169.711 8.39062C170.737 8.39062 171.549 8.74219 172.148 9.44531C172.753 10.1432 173.055 11.099 173.055 12.3125V12.8359H167.023V13.0156C167.023 13.974 167.297 14.7734 167.844 15.4141C168.396 16.0495 169.089 16.3672 169.922 16.3672C170.422 16.3672 170.862 16.276 171.242 16.0938C171.628 15.9115 171.977 15.6198 172.289 15.2188L172.875 15.6641C172.188 16.6589 171.19 17.1562 169.883 17.1562ZM169.711 9.1875C169.008 9.1875 168.414 9.44531 167.93 9.96094C167.451 10.4766 167.159 11.1693 167.055 12.0391H172.125V11.9375C172.099 11.125 171.867 10.4635 171.43 9.95312C170.992 9.44271 170.419 9.1875 169.711 9.1875ZM178.781 9.34375C178.583 9.30729 178.372 9.28906 178.148 9.28906C177.565 9.28906 177.07 9.45312 176.664 9.78125C176.263 10.1042 175.977 10.5755 175.805 11.1953V17H174.875V8.54688H175.789L175.805 9.89062C176.299 8.89062 177.094 8.39062 178.188 8.39062C178.448 8.39062 178.654 8.42448 178.805 8.49219L178.781 9.34375ZM185.289 17C185.195 16.7344 185.135 16.3411 185.109 15.8203C184.781 16.2474 184.362 16.5781 183.852 16.8125C183.346 17.0417 182.81 17.1562 182.242 17.1562C181.43 17.1562 180.771 16.9297 180.266 16.4766C179.766 16.0234 179.516 15.4505 179.516 14.7578C179.516 13.9349 179.857 13.2839 180.539 12.8047C181.227 12.3255 182.182 12.0859 183.406 12.0859H185.102V11.125C185.102 10.5208 184.914 10.0469 184.539 9.70312C184.169 9.35417 183.628 9.17969 182.914 9.17969C182.263 9.17969 181.724 9.34635 181.297 9.67969C180.87 10.013 180.656 10.4141 180.656 10.8828L179.719 10.875C179.719 10.2031 180.031 9.6224 180.656 9.13281C181.281 8.63802 182.049 8.39062 182.961 8.39062C183.904 8.39062 184.646 8.6276 185.188 9.10156C185.734 9.57031 186.016 10.2266 186.031 11.0703V15.0703C186.031 15.888 186.117 16.5 186.289 16.9062V17H185.289ZM182.352 16.3281C182.977 16.3281 183.534 16.1771 184.023 15.875C184.518 15.5729 184.878 15.1693 185.102 14.6641V12.8047H183.43C182.497 12.8151 181.768 12.987 181.242 13.3203C180.716 13.6484 180.453 14.1016 180.453 14.6797C180.453 15.1536 180.628 15.5469 180.977 15.8594C181.331 16.1719 181.789 16.3281 182.352 16.3281ZM195.336 12.8594C195.336 14.1771 195.044 15.224 194.461 16C193.878 16.7708 193.094 17.1562 192.109 17.1562C190.932 17.1562 190.042 16.7188 189.438 15.8438L189.398 17H188.523V5H189.453V9.77344C190.047 8.85156 190.927 8.39062 192.094 8.39062C193.094 8.39062 193.883 8.77344 194.461 9.53906C195.044 10.2995 195.336 11.3594 195.336 12.7188V12.8594ZM194.398 12.6953C194.398 11.5807 194.182 10.7214 193.75 10.1172C193.318 9.50781 192.708 9.20312 191.922 9.20312C191.323 9.20312 190.815 9.35156 190.398 9.64844C189.982 9.9401 189.667 10.3698 189.453 10.9375V14.75C189.922 15.8125 190.75 16.3438 191.938 16.3438C192.708 16.3438 193.31 16.0391 193.742 15.4297C194.18 14.8203 194.398 13.9089 194.398 12.6953ZM198.453 17H197.516V8.54688H198.453V17ZM197.352 6.10156C197.352 5.92448 197.409 5.77604 197.523 5.65625C197.638 5.53125 197.794 5.46875 197.992 5.46875C198.19 5.46875 198.346 5.53125 198.461 5.65625C198.581 5.77604 198.641 5.92448 198.641 6.10156C198.641 6.27865 198.581 6.42708 198.461 6.54688C198.346 6.66667 198.19 6.72656 197.992 6.72656C197.794 6.72656 197.638 6.66667 197.523 6.54688C197.409 6.42708 197.352 6.27865 197.352 6.10156ZM202.047 17H201.109V5H202.047V17ZM205.641 17H204.703V8.54688H205.641V17ZM204.539 6.10156C204.539 5.92448 204.596 5.77604 204.711 5.65625C204.826 5.53125 204.982 5.46875 205.18 5.46875C205.378 5.46875 205.534 5.53125 205.648 5.65625C205.768 5.77604 205.828 5.92448 205.828 6.10156C205.828 6.27865 205.768 6.42708 205.648 6.54688C205.534 6.66667 205.378 6.72656 205.18 6.72656C204.982 6.72656 204.826 6.66667 204.711 6.54688C204.596 6.42708 204.539 6.27865 204.539 6.10156ZM209.641 6.38281V8.54688H211.391V9.3125H209.641V14.9453C209.641 15.4141 209.724 15.763 209.891 15.9922C210.062 16.2214 210.346 16.3359 210.742 16.3359C210.898 16.3359 211.151 16.3099 211.5 16.2578L211.539 17.0234C211.294 17.112 210.961 17.1562 210.539 17.1562C209.898 17.1562 209.432 16.9714 209.141 16.6016C208.849 16.2266 208.703 15.6771 208.703 14.9531V9.3125H207.148V8.54688H208.703V6.38281H209.641ZM216.008 15.6562L218.477 8.54688H219.484L215.875 18.4375L215.688 18.875C215.224 19.901 214.508 20.4141 213.539 20.4141C213.315 20.4141 213.076 20.3776 212.82 20.3047L212.812 19.5312L213.297 19.5781C213.755 19.5781 214.125 19.4635 214.406 19.2344C214.693 19.0104 214.935 18.6224 215.133 18.0703L215.547 16.9297L212.359 8.54688H213.383L216.008 15.6562Z" fill="black"/>
<path d="M270.492 13.4531C270.362 14.651 269.932 15.5677 269.203 16.2031C268.479 16.8385 267.513 17.1562 266.305 17.1562C265.461 17.1562 264.714 16.9453 264.062 16.5234C263.417 16.1016 262.917 15.5052 262.562 14.7344C262.208 13.9583 262.029 13.0729 262.023 12.0781V10.6016C262.023 9.59115 262.201 8.69531 262.555 7.91406C262.909 7.13281 263.417 6.53125 264.078 6.10938C264.745 5.68229 265.51 5.46875 266.375 5.46875C267.594 5.46875 268.555 5.79948 269.258 6.46094C269.966 7.11719 270.378 8.02604 270.492 9.1875H269.523C269.284 7.25521 268.234 6.28906 266.375 6.28906C265.344 6.28906 264.521 6.67448 263.906 7.44531C263.297 8.21615 262.992 9.28125 262.992 10.6406V12.0312C262.992 13.3438 263.289 14.3906 263.883 15.1719C264.482 15.9531 265.289 16.3438 266.305 16.3438C267.31 16.3438 268.068 16.1042 268.578 15.625C269.089 15.1406 269.404 14.4167 269.523 13.4531H270.492ZM273.656 17H272.719V5H273.656V17ZM279.477 17.1562C278.758 17.1562 278.107 16.9792 277.523 16.625C276.945 16.2708 276.495 15.7786 276.172 15.1484C275.849 14.513 275.688 13.8021 275.688 13.0156V12.6797C275.688 11.8672 275.844 11.1354 276.156 10.4844C276.474 9.83333 276.914 9.32292 277.477 8.95312C278.039 8.57812 278.648 8.39062 279.305 8.39062C280.331 8.39062 281.143 8.74219 281.742 9.44531C282.346 10.1432 282.648 11.099 282.648 12.3125V12.8359H276.617V13.0156C276.617 13.974 276.891 14.7734 277.438 15.4141C277.99 16.0495 278.682 16.3672 279.516 16.3672C280.016 16.3672 280.456 16.276 280.836 16.0938C281.221 15.9115 281.57 15.6198 281.883 15.2188L282.469 15.6641C281.781 16.6589 280.784 17.1562 279.477 17.1562ZM279.305 9.1875C278.602 9.1875 278.008 9.44531 277.523 9.96094C277.044 10.4766 276.753 11.1693 276.648 12.0391H281.719V11.9375C281.693 11.125 281.461 10.4635 281.023 9.95312C280.586 9.44271 280.013 9.1875 279.305 9.1875ZM289.805 17C289.711 16.7344 289.651 16.3411 289.625 15.8203C289.297 16.2474 288.878 16.5781 288.367 16.8125C287.862 17.0417 287.326 17.1562 286.758 17.1562C285.945 17.1562 285.286 16.9297 284.781 16.4766C284.281 16.0234 284.031 15.4505 284.031 14.7578C284.031 13.9349 284.372 13.2839 285.055 12.8047C285.742 12.3255 286.698 12.0859 287.922 12.0859H289.617V11.125C289.617 10.5208 289.43 10.0469 289.055 9.70312C288.685 9.35417 288.143 9.17969 287.43 9.17969C286.779 9.17969 286.24 9.34635 285.812 9.67969C285.385 10.013 285.172 10.4141 285.172 10.8828L284.234 10.875C284.234 10.2031 284.547 9.6224 285.172 9.13281C285.797 8.63802 286.565 8.39062 287.477 8.39062C288.419 8.39062 289.161 8.6276 289.703 9.10156C290.25 9.57031 290.531 10.2266 290.547 11.0703V15.0703C290.547 15.888 290.633 16.5 290.805 16.9062V17H289.805ZM286.867 16.3281C287.492 16.3281 288.049 16.1771 288.539 15.875C289.034 15.5729 289.393 15.1693 289.617 14.6641V12.8047H287.945C287.013 12.8151 286.284 12.987 285.758 13.3203C285.232 13.6484 284.969 14.1016 284.969 14.6797C284.969 15.1536 285.143 15.5469 285.492 15.8594C285.846 16.1719 286.305 16.3281 286.867 16.3281ZM296.953 9.34375C296.755 9.30729 296.544 9.28906 296.32 9.28906C295.737 9.28906 295.242 9.45312 294.836 9.78125C294.435 10.1042 294.148 10.5755 293.977 11.1953V17H293.047V8.54688H293.961L293.977 9.89062C294.471 8.89062 295.266 8.39062 296.359 8.39062C296.62 8.39062 296.826 8.42448 296.977 8.49219L296.953 9.34375ZM305.977 15.5938L306.039 15.8359L306.109 15.5938L309.688 5.625H310.742L306.508 17H305.586L301.352 5.625H302.398L305.977 15.5938ZM313.25 17H312.312V8.54688H313.25V17ZM312.148 6.10156C312.148 5.92448 312.206 5.77604 312.32 5.65625C312.435 5.53125 312.591 5.46875 312.789 5.46875C312.987 5.46875 313.143 5.53125 313.258 5.65625C313.378 5.77604 313.438 5.92448 313.438 6.10156C313.438 6.27865 313.378 6.42708 313.258 6.54688C313.143 6.66667 312.987 6.72656 312.789 6.72656C312.591 6.72656 312.435 6.66667 312.32 6.54688C312.206 6.42708 312.148 6.27865 312.148 6.10156ZM320.859 14.8516C320.859 14.388 320.672 14.0156 320.297 13.7344C319.927 13.4531 319.367 13.2344 318.617 13.0781C317.867 12.9167 317.284 12.7344 316.867 12.5312C316.456 12.3229 316.148 12.0703 315.945 11.7734C315.747 11.4766 315.648 11.1172 315.648 10.6953C315.648 10.0286 315.927 9.47917 316.484 9.04688C317.042 8.60938 317.755 8.39062 318.625 8.39062C319.568 8.39062 320.323 8.625 320.891 9.09375C321.464 9.55729 321.75 10.1641 321.75 10.9141H320.812C320.812 10.4193 320.604 10.0078 320.188 9.67969C319.776 9.35156 319.255 9.1875 318.625 9.1875C318.01 9.1875 317.516 9.32552 317.141 9.60156C316.771 9.8724 316.586 10.2266 316.586 10.6641C316.586 11.0859 316.74 11.4141 317.047 11.6484C317.359 11.8776 317.924 12.0885 318.742 12.2812C319.565 12.474 320.18 12.6797 320.586 12.8984C320.997 13.1172 321.302 13.3802 321.5 13.6875C321.698 13.9948 321.797 14.3672 321.797 14.8047C321.797 15.5182 321.508 16.0885 320.93 16.5156C320.357 16.9427 319.607 17.1562 318.68 17.1562C317.695 17.1562 316.896 16.9193 316.281 16.4453C315.672 15.9661 315.367 15.362 315.367 14.6328H316.305C316.341 15.1797 316.57 15.6068 316.992 15.9141C317.419 16.2161 317.982 16.3672 318.68 16.3672C319.331 16.3672 319.857 16.224 320.258 15.9375C320.659 15.651 320.859 15.2891 320.859 14.8516ZM329.344 15.9297C328.781 16.7474 327.883 17.1562 326.648 17.1562C325.747 17.1562 325.062 16.8958 324.594 16.375C324.125 15.849 323.885 15.0729 323.875 14.0469V8.54688H324.805V13.9297C324.805 15.5391 325.456 16.3438 326.758 16.3438C328.112 16.3438 328.969 15.7839 329.328 14.6641V8.54688H330.266V17H329.359L329.344 15.9297ZM338.039 17C337.945 16.7344 337.885 16.3411 337.859 15.8203C337.531 16.2474 337.112 16.5781 336.602 16.8125C336.096 17.0417 335.56 17.1562 334.992 17.1562C334.18 17.1562 333.521 16.9297 333.016 16.4766C332.516 16.0234 332.266 15.4505 332.266 14.7578C332.266 13.9349 332.607 13.2839 333.289 12.8047C333.977 12.3255 334.932 12.0859 336.156 12.0859H337.852V11.125C337.852 10.5208 337.664 10.0469 337.289 9.70312C336.919 9.35417 336.378 9.17969 335.664 9.17969C335.013 9.17969 334.474 9.34635 334.047 9.67969C333.62 10.013 333.406 10.4141 333.406 10.8828L332.469 10.875C332.469 10.2031 332.781 9.6224 333.406 9.13281C334.031 8.63802 334.799 8.39062 335.711 8.39062C336.654 8.39062 337.396 8.6276 337.938 9.10156C338.484 9.57031 338.766 10.2266 338.781 11.0703V15.0703C338.781 15.888 338.867 16.5 339.039 16.9062V17H338.039ZM335.102 16.3281C335.727 16.3281 336.284 16.1771 336.773 15.875C337.268 15.5729 337.628 15.1693 337.852 14.6641V12.8047H336.18C335.247 12.8151 334.518 12.987 333.992 13.3203C333.466 13.6484 333.203 14.1016 333.203 14.6797C333.203 15.1536 333.378 15.5469 333.727 15.8594C334.081 16.1719 334.539 16.3281 335.102 16.3281ZM342.328 17H341.391V5H342.328V17ZM357.414 17H356.445V11.5469H349.945V17H348.984V5.625H349.945V10.7344H356.445V5.625H357.414V17ZM361.141 17H360.203V8.54688H361.141V17ZM360.039 6.10156C360.039 5.92448 360.096 5.77604 360.211 5.65625C360.326 5.53125 360.482 5.46875 360.68 5.46875C360.878 5.46875 361.034 5.53125 361.148 5.65625C361.268 5.77604 361.328 5.92448 361.328 6.10156C361.328 6.27865 361.268 6.42708 361.148 6.54688C361.034 6.66667 360.878 6.72656 360.68 6.72656C360.482 6.72656 360.326 6.66667 360.211 6.54688C360.096 6.42708 360.039 6.27865 360.039 6.10156ZM366.961 17.1562C366.242 17.1562 365.591 16.9792 365.008 16.625C364.43 16.2708 363.979 15.7786 363.656 15.1484C363.333 14.513 363.172 13.8021 363.172 13.0156V12.6797C363.172 11.8672 363.328 11.1354 363.641 10.4844C363.958 9.83333 364.398 9.32292 364.961 8.95312C365.523 8.57812 366.133 8.39062 366.789 8.39062C367.815 8.39062 368.628 8.74219 369.227 9.44531C369.831 10.1432 370.133 11.099 370.133 12.3125V12.8359H364.102V13.0156C364.102 13.974 364.375 14.7734 364.922 15.4141C365.474 16.0495 366.167 16.3672 367 16.3672C367.5 16.3672 367.94 16.276 368.32 16.0938C368.706 15.9115 369.055 15.6198 369.367 15.2188L369.953 15.6641C369.266 16.6589 368.268 17.1562 366.961 17.1562ZM366.789 9.1875C366.086 9.1875 365.492 9.44531 365.008 9.96094C364.529 10.4766 364.237 11.1693 364.133 12.0391H369.203V11.9375C369.177 11.125 368.945 10.4635 368.508 9.95312C368.07 9.44271 367.497 9.1875 366.789 9.1875ZM375.859 9.34375C375.661 9.30729 375.451 9.28906 375.227 9.28906C374.643 9.28906 374.148 9.45312 373.742 9.78125C373.341 10.1042 373.055 10.5755 372.883 11.1953V17H371.953V8.54688H372.867L372.883 9.89062C373.378 8.89062 374.172 8.39062 375.266 8.39062C375.526 8.39062 375.732 8.42448 375.883 8.49219L375.859 9.34375ZM382.367 17C382.273 16.7344 382.214 16.3411 382.188 15.8203C381.859 16.2474 381.44 16.5781 380.93 16.8125C380.424 17.0417 379.888 17.1562 379.32 17.1562C378.508 17.1562 377.849 16.9297 377.344 16.4766C376.844 16.0234 376.594 15.4505 376.594 14.7578C376.594 13.9349 376.935 13.2839 377.617 12.8047C378.305 12.3255 379.26 12.0859 380.484 12.0859H382.18V11.125C382.18 10.5208 381.992 10.0469 381.617 9.70312C381.247 9.35417 380.706 9.17969 379.992 9.17969C379.341 9.17969 378.802 9.34635 378.375 9.67969C377.948 10.013 377.734 10.4141 377.734 10.8828L376.797 10.875C376.797 10.2031 377.109 9.6224 377.734 9.13281C378.359 8.63802 379.128 8.39062 380.039 8.39062C380.982 8.39062 381.724 8.6276 382.266 9.10156C382.812 9.57031 383.094 10.2266 383.109 11.0703V15.0703C383.109 15.888 383.195 16.5 383.367 16.9062V17H382.367ZM379.43 16.3281C380.055 16.3281 380.612 16.1771 381.102 15.875C381.596 15.5729 381.956 15.1693 382.18 14.6641V12.8047H380.508C379.576 12.8151 378.846 12.987 378.32 13.3203C377.794 13.6484 377.531 14.1016 377.531 14.6797C377.531 15.1536 377.706 15.5469 378.055 15.8594C378.409 16.1719 378.867 16.3281 379.43 16.3281ZM389.516 9.34375C389.318 9.30729 389.107 9.28906 388.883 9.28906C388.299 9.28906 387.805 9.45312 387.398 9.78125C386.997 10.1042 386.711 10.5755 386.539 11.1953V17H385.609V8.54688H386.523L386.539 9.89062C387.034 8.89062 387.828 8.39062 388.922 8.39062C389.182 8.39062 389.388 8.42448 389.539 8.49219L389.516 9.34375ZM393.969 16.3672C394.62 16.3672 395.164 16.1849 395.602 15.8203C396.044 15.4505 396.284 14.974 396.32 14.3906H397.219C397.193 14.9062 397.031 15.3776 396.734 15.8047C396.438 16.2266 396.042 16.5573 395.547 16.7969C395.057 17.0365 394.531 17.1562 393.969 17.1562C392.859 17.1562 391.979 16.7708 391.328 16C390.682 15.2292 390.359 14.1927 390.359 12.8906V12.6094C390.359 11.776 390.505 11.0391 390.797 10.3984C391.089 9.75781 391.505 9.26302 392.047 8.91406C392.594 8.5651 393.232 8.39062 393.961 8.39062C394.888 8.39062 395.651 8.66667 396.25 9.21875C396.854 9.77083 397.177 10.4974 397.219 11.3984H396.32C396.279 10.737 396.039 10.2031 395.602 9.79688C395.169 9.39062 394.622 9.1875 393.961 9.1875C393.117 9.1875 392.461 9.49219 391.992 10.1016C391.529 10.7109 391.297 11.5651 391.297 12.6641V12.9375C391.297 14.0156 391.529 14.8568 391.992 15.4609C392.461 16.0651 393.12 16.3672 393.969 16.3672ZM400.023 9.97656C400.331 9.47135 400.724 9.08073 401.203 8.80469C401.682 8.52865 402.206 8.39062 402.773 8.39062C403.68 8.39062 404.354 8.64583 404.797 9.15625C405.24 9.66667 405.464 10.4323 405.469 11.4531V17H404.539V11.4453C404.534 10.6901 404.372 10.1276 404.055 9.75781C403.742 9.38802 403.24 9.20312 402.547 9.20312C401.969 9.20312 401.456 9.38542 401.008 9.75C400.565 10.1094 400.237 10.5964 400.023 11.2109V17H399.094V5H400.023V9.97656ZM410.555 15.6562L413.023 8.54688H414.031L410.422 18.4375L410.234 18.875C409.771 19.901 409.055 20.4141 408.086 20.4141C407.862 20.4141 407.622 20.3776 407.367 20.3047L407.359 19.5312L407.844 19.5781C408.302 19.5781 408.672 19.4635 408.953 19.2344C409.24 19.0104 409.482 18.6224 409.68 18.0703L410.094 16.9297L406.906 8.54688H407.93L410.555 15.6562Z" fill="black"/>
<path d="M465.703 11.6875H460.398V17H459.438V5.625H466.484V6.44531H460.398V10.8672H465.703V11.6875ZM469.266 17H468.328V8.54688H469.266V17ZM468.164 6.10156C468.164 5.92448 468.221 5.77604 468.336 5.65625C468.451 5.53125 468.607 5.46875 468.805 5.46875C469.003 5.46875 469.159 5.53125 469.273 5.65625C469.393 5.77604 469.453 5.92448 469.453 6.10156C469.453 6.27865 469.393 6.42708 469.273 6.54688C469.159 6.66667 469.003 6.72656 468.805 6.72656C468.607 6.72656 468.451 6.66667 468.336 6.54688C468.221 6.42708 468.164 6.27865 468.164 6.10156ZM472.703 8.54688L472.734 9.99219C473.052 9.47135 473.448 9.07552 473.922 8.80469C474.396 8.52865 474.919 8.39062 475.492 8.39062C476.398 8.39062 477.073 8.64583 477.516 9.15625C477.958 9.66667 478.182 10.4323 478.188 11.4531V17H477.258V11.4453C477.253 10.6901 477.091 10.1276 476.773 9.75781C476.461 9.38802 475.958 9.20312 475.266 9.20312C474.688 9.20312 474.174 9.38542 473.727 9.75C473.284 10.1094 472.956 10.5964 472.742 11.2109V17H471.812V8.54688H472.703ZM480.234 12.6953C480.234 11.3828 480.526 10.3385 481.109 9.5625C481.698 8.78125 482.495 8.39062 483.5 8.39062C484.641 8.39062 485.51 8.84115 486.109 9.74219V5H487.039V17H486.164L486.125 15.875C485.526 16.7292 484.646 17.1562 483.484 17.1562C482.51 17.1562 481.724 16.7656 481.125 15.9844C480.531 15.1979 480.234 14.138 480.234 12.8047V12.6953ZM481.18 12.8594C481.18 13.9375 481.396 14.7891 481.828 15.4141C482.26 16.0339 482.87 16.3438 483.656 16.3438C484.807 16.3438 485.625 15.8359 486.109 14.8203V10.8516C485.625 9.7526 484.812 9.20312 483.672 9.20312C482.885 9.20312 482.273 9.51302 481.836 10.1328C481.398 10.7474 481.18 11.6562 481.18 12.8594ZM494.781 17H493.82V5.625H494.781V17ZM498.547 8.54688L498.578 9.99219C498.896 9.47135 499.292 9.07552 499.766 8.80469C500.24 8.52865 500.763 8.39062 501.336 8.39062C502.242 8.39062 502.917 8.64583 503.359 9.15625C503.802 9.66667 504.026 10.4323 504.031 11.4531V17H503.102V11.4453C503.096 10.6901 502.935 10.1276 502.617 9.75781C502.305 9.38802 501.802 9.20312 501.109 9.20312C500.531 9.20312 500.018 9.38542 499.57 9.75C499.128 10.1094 498.799 10.5964 498.586 11.2109V17H497.656V8.54688H498.547ZM507.125 17V9.3125H505.727V8.54688H507.125V7.52344C507.125 6.65885 507.344 5.99479 507.781 5.53125C508.224 5.06771 508.839 4.83594 509.625 4.83594C509.979 4.83594 510.31 4.88021 510.617 4.96875L510.547 5.75C510.286 5.6875 510.003 5.65625 509.695 5.65625C509.18 5.65625 508.779 5.81771 508.492 6.14062C508.206 6.45833 508.062 6.91146 508.062 7.5V8.54688H510.078V9.3125H508.062V17H507.125ZM511.234 12.6484C511.234 11.8359 511.391 11.1042 511.703 10.4531C512.021 9.80208 512.466 9.29688 513.039 8.9375C513.617 8.57292 514.271 8.39062 515 8.39062C516.125 8.39062 517.036 8.78646 517.734 9.57812C518.432 10.3646 518.781 11.4089 518.781 12.7109V12.9062C518.781 13.724 518.622 14.4609 518.305 15.1172C517.992 15.7682 517.549 16.2708 516.977 16.625C516.404 16.9792 515.75 17.1562 515.016 17.1562C513.896 17.1562 512.984 16.763 512.281 15.9766C511.583 15.1849 511.234 14.138 511.234 12.8359V12.6484ZM512.172 12.9062C512.172 13.9167 512.432 14.7474 512.953 15.3984C513.479 16.0443 514.167 16.3672 515.016 16.3672C515.859 16.3672 516.542 16.0443 517.062 15.3984C517.589 14.7474 517.852 13.8906 517.852 12.8281V12.6484C517.852 12.0026 517.732 11.4115 517.492 10.875C517.253 10.3385 516.917 9.92448 516.484 9.63281C516.052 9.33594 515.557 9.1875 515 9.1875C514.167 9.1875 513.487 9.51562 512.961 10.1719C512.435 10.8229 512.172 11.6771 512.172 12.7344V12.9062ZM524.625 9.34375C524.427 9.30729 524.216 9.28906 523.992 9.28906C523.409 9.28906 522.914 9.45312 522.508 9.78125C522.107 10.1042 521.82 10.5755 521.648 11.1953V17H520.719V8.54688H521.633L521.648 9.89062C522.143 8.89062 522.938 8.39062 524.031 8.39062C524.292 8.39062 524.497 8.42448 524.648 8.49219L524.625 9.34375ZM526.961 8.54688L526.992 9.92188C527.305 9.41146 527.695 9.02865 528.164 8.77344C528.633 8.51823 529.154 8.39062 529.727 8.39062C531.06 8.39062 531.906 8.9375 532.266 10.0312C532.568 9.50521 532.971 9.10156 533.477 8.82031C533.982 8.53385 534.539 8.39062 535.148 8.39062C536.961 8.39062 537.885 9.38021 537.922 11.3594V17H536.984V11.4297C536.979 10.6745 536.815 10.1146 536.492 9.75C536.174 9.38542 535.654 9.20312 534.93 9.20312C534.258 9.21354 533.69 9.43229 533.227 9.85938C532.763 10.2812 532.505 10.7969 532.453 11.4062V17H531.516V11.3594C531.51 10.6354 531.339 10.0964 531 9.74219C530.667 9.38281 530.151 9.20312 529.453 9.20312C528.865 9.20312 528.359 9.3724 527.938 9.71094C527.516 10.0443 527.203 10.5417 527 11.2031V17H526.062V8.54688H526.961ZM545.633 17C545.539 16.7344 545.479 16.3411 545.453 15.8203C545.125 16.2474 544.706 16.5781 544.195 16.8125C543.69 17.0417 543.154 17.1562 542.586 17.1562C541.773 17.1562 541.115 16.9297 540.609 16.4766C540.109 16.0234 539.859 15.4505 539.859 14.7578C539.859 13.9349 540.201 13.2839 540.883 12.8047C541.57 12.3255 542.526 12.0859 543.75 12.0859H545.445V11.125C545.445 10.5208 545.258 10.0469 544.883 9.70312C544.513 9.35417 543.971 9.17969 543.258 9.17969C542.607 9.17969 542.068 9.34635 541.641 9.67969C541.214 10.013 541 10.4141 541 10.8828L540.062 10.875C540.062 10.2031 540.375 9.6224 541 9.13281C541.625 8.63802 542.393 8.39062 543.305 8.39062C544.247 8.39062 544.99 8.6276 545.531 9.10156C546.078 9.57031 546.359 10.2266 546.375 11.0703V15.0703C546.375 15.888 546.461 16.5 546.633 16.9062V17H545.633ZM542.695 16.3281C543.32 16.3281 543.878 16.1771 544.367 15.875C544.862 15.5729 545.221 15.1693 545.445 14.6641V12.8047H543.773C542.841 12.8151 542.112 12.987 541.586 13.3203C541.06 13.6484 540.797 14.1016 540.797 14.6797C540.797 15.1536 540.971 15.5469 541.32 15.8594C541.674 16.1719 542.133 16.3281 542.695 16.3281ZM550.328 6.38281V8.54688H552.078V9.3125H550.328V14.9453C550.328 15.4141 550.411 15.763 550.578 15.9922C550.75 16.2214 551.034 16.3359 551.43 16.3359C551.586 16.3359 551.839 16.3099 552.188 16.2578L552.227 17.0234C551.982 17.112 551.648 17.1562 551.227 17.1562C550.586 17.1562 550.12 16.9714 549.828 16.6016C549.536 16.2266 549.391 15.6771 549.391 14.9531V9.3125H547.836V8.54688H549.391V6.38281H550.328ZM555.062 17H554.125V8.54688H555.062V17ZM553.961 6.10156C553.961 5.92448 554.018 5.77604 554.133 5.65625C554.247 5.53125 554.404 5.46875 554.602 5.46875C554.799 5.46875 554.956 5.53125 555.07 5.65625C555.19 5.77604 555.25 5.92448 555.25 6.10156C555.25 6.27865 555.19 6.42708 555.07 6.54688C554.956 6.66667 554.799 6.72656 554.602 6.72656C554.404 6.72656 554.247 6.66667 554.133 6.54688C554.018 6.42708 553.961 6.27865 553.961 6.10156ZM557.094 12.6484C557.094 11.8359 557.25 11.1042 557.562 10.4531C557.88 9.80208 558.326 9.29688 558.898 8.9375C559.477 8.57292 560.13 8.39062 560.859 8.39062C561.984 8.39062 562.896 8.78646 563.594 9.57812C564.292 10.3646 564.641 11.4089 564.641 12.7109V12.9062C564.641 13.724 564.482 14.4609 564.164 15.1172C563.852 15.7682 563.409 16.2708 562.836 16.625C562.263 16.9792 561.609 17.1562 560.875 17.1562C559.755 17.1562 558.844 16.763 558.141 15.9766C557.443 15.1849 557.094 14.138 557.094 12.8359V12.6484ZM558.031 12.9062C558.031 13.9167 558.292 14.7474 558.812 15.3984C559.339 16.0443 560.026 16.3672 560.875 16.3672C561.719 16.3672 562.401 16.0443 562.922 15.3984C563.448 14.7474 563.711 13.8906 563.711 12.8281V12.6484C563.711 12.0026 563.591 11.4115 563.352 10.875C563.112 10.3385 562.776 9.92448 562.344 9.63281C561.911 9.33594 561.417 9.1875 560.859 9.1875C560.026 9.1875 559.346 9.51562 558.82 10.1719C558.294 10.8229 558.031 11.6771 558.031 12.7344V12.9062ZM567.469 8.54688L567.5 9.99219C567.818 9.47135 568.214 9.07552 568.688 8.80469C569.161 8.52865 569.685 8.39062 570.258 8.39062C571.164 8.39062 571.839 8.64583 572.281 9.15625C572.724 9.66667 572.948 10.4323 572.953 11.4531V17H572.023V11.4453C572.018 10.6901 571.857 10.1276 571.539 9.75781C571.227 9.38802 570.724 9.20312 570.031 9.20312C569.453 9.20312 568.94 9.38542 568.492 9.75C568.049 10.1094 567.721 10.5964 567.508 11.2109V17H566.578V8.54688H567.469ZM587.859 11.9297C587.859 13.013 587.667 13.9583 587.281 14.7656C586.901 15.5677 586.357 16.1745 585.648 16.5859L587.719 18.3906L587.055 18.9844L584.734 16.9766C584.307 17.0964 583.872 17.1562 583.43 17.1562C582.565 17.1562 581.794 16.9427 581.117 16.5156C580.445 16.0885 579.924 15.4844 579.555 14.7031C579.185 13.9167 578.997 13.0104 578.992 11.9844V10.7109C578.992 9.67448 579.174 8.75781 579.539 7.96094C579.909 7.15885 580.43 6.54427 581.102 6.11719C581.773 5.6849 582.544 5.46875 583.414 5.46875C584.299 5.46875 585.078 5.68229 585.75 6.10938C586.422 6.53646 586.94 7.14844 587.305 7.94531C587.674 8.74219 587.859 9.66146 587.859 10.7031V11.9297ZM586.898 10.6953C586.898 9.32552 586.589 8.2526 585.969 7.47656C585.349 6.70052 584.497 6.3125 583.414 6.3125C582.362 6.3125 581.521 6.70312 580.891 7.48438C580.266 8.26042 579.953 9.34635 579.953 10.7422V11.9297C579.953 13.2786 580.263 14.349 580.883 15.1406C581.508 15.9271 582.357 16.3203 583.43 16.3203C584.513 16.3203 585.362 15.9323 585.977 15.1562C586.591 14.3802 586.898 13.2969 586.898 11.9062V10.6953ZM595.531 15.9297C594.969 16.7474 594.07 17.1562 592.836 17.1562C591.935 17.1562 591.25 16.8958 590.781 16.375C590.312 15.849 590.073 15.0729 590.062 14.0469V8.54688H590.992V13.9297C590.992 15.5391 591.643 16.3438 592.945 16.3438C594.299 16.3438 595.156 15.7839 595.516 14.6641V8.54688H596.453V17H595.547L595.531 15.9297ZM599.938 17H599V8.54688H599.938V17ZM598.836 6.10156C598.836 5.92448 598.893 5.77604 599.008 5.65625C599.122 5.53125 599.279 5.46875 599.477 5.46875C599.674 5.46875 599.831 5.53125 599.945 5.65625C600.065 5.77604 600.125 5.92448 600.125 6.10156C600.125 6.27865 600.065 6.42708 599.945 6.54688C599.831 6.66667 599.674 6.72656 599.477 6.72656C599.279 6.72656 599.122 6.66667 599.008 6.54688C598.893 6.42708 598.836 6.27865 598.836 6.10156ZM605.609 16.3672C606.26 16.3672 606.805 16.1849 607.242 15.8203C607.685 15.4505 607.924 14.974 607.961 14.3906H608.859C608.833 14.9062 608.672 15.3776 608.375 15.8047C608.078 16.2266 607.682 16.5573 607.188 16.7969C606.698 17.0365 606.172 17.1562 605.609 17.1562C604.5 17.1562 603.62 16.7708 602.969 16C602.323 15.2292 602 14.1927 602 12.8906V12.6094C602 11.776 602.146 11.0391 602.438 10.3984C602.729 9.75781 603.146 9.26302 603.688 8.91406C604.234 8.5651 604.872 8.39062 605.602 8.39062C606.529 8.39062 607.292 8.66667 607.891 9.21875C608.495 9.77083 608.818 10.4974 608.859 11.3984H607.961C607.919 10.737 607.68 10.2031 607.242 9.79688C606.81 9.39062 606.263 9.1875 605.602 9.1875C604.758 9.1875 604.102 9.49219 603.633 10.1016C603.169 10.7109 602.938 11.5651 602.938 12.6641V12.9375C602.938 14.0156 603.169 14.8568 603.633 15.4609C604.102 16.0651 604.76 16.3672 605.609 16.3672ZM612.742 12.7422L611.672 13.7734V17H610.734V5H611.672V12.6797L612.555 11.7266L615.789 8.54688H616.969L613.383 12.1094L617.281 17H616.164L612.742 12.7422ZM619.625 17H618.688V5H619.625V17ZM624.852 15.6562L627.32 8.54688H628.328L624.719 18.4375L624.531 18.875C624.068 19.901 623.352 20.4141 622.383 20.4141C622.159 20.4141 621.919 20.3776 621.664 20.3047L621.656 19.5312L622.141 19.5781C622.599 19.5781 622.969 19.4635 623.25 19.2344C623.536 19.0104 623.779 18.6224 623.977 18.0703L624.391 16.9297L621.203 8.54688H622.227L624.852 15.6562Z" fill="black"/>
</svg>
