<svg width="773" height="151" viewBox="0 0 773 151" fill="none" xmlns="http://www.w3.org/2000/svg">
<path d="M1.15625 69V57.625H5.05469C6.34115 57.625 7.32031 57.8828 7.99219 58.3984C8.66406 58.9141 9 59.6823 9 60.7031C9 61.224 8.85938 61.6927 8.57812 62.1094C8.29688 62.526 7.88542 62.849 7.34375 63.0781C7.95833 63.2448 8.43229 63.5599 8.76562 64.0234C9.10417 64.4818 9.27344 65.0339 9.27344 65.6797C9.27344 66.7474 8.92969 67.5677 8.24219 68.1406C7.5599 68.7135 6.58073 69 5.30469 69H1.15625ZM3.13281 63.8672V67.4219H5.32812C5.94792 67.4219 6.43229 67.2682 6.78125 66.9609C7.13021 66.6536 7.30469 66.2266 7.30469 65.6797C7.30469 64.4974 6.70052 63.8932 5.49219 63.8672H3.13281ZM3.13281 62.4141H5.07031C5.6849 62.4141 6.16406 62.276 6.50781 62C6.85677 61.7188 7.03125 61.3229 7.03125 60.8125C7.03125 60.25 6.86979 59.8438 6.54688 59.5938C6.22917 59.3438 5.73177 59.2188 5.05469 59.2188H3.13281V62.4141ZM14.7891 69.1562C13.5859 69.1562 12.6094 68.7786 11.8594 68.0234C11.1146 67.263 10.7422 66.2526 10.7422 64.9922V64.7578C10.7422 63.9141 10.9036 63.1615 11.2266 62.5C11.5547 61.8333 12.013 61.3151 12.6016 60.9453C13.1901 60.5755 13.8464 60.3906 14.5703 60.3906C15.7214 60.3906 16.6094 60.7578 17.2344 61.4922C17.8646 62.2266 18.1797 63.2656 18.1797 64.6094V65.375H12.6562C12.7135 66.0729 12.9453 66.625 13.3516 67.0312C13.763 67.4375 14.2786 67.6406 14.8984 67.6406C15.7682 67.6406 16.4766 67.2891 17.0234 66.5859L18.0469 67.5625C17.7083 68.0677 17.2552 68.4609 16.6875 68.7422C16.125 69.0182 15.4922 69.1562 14.7891 69.1562ZM14.5625 61.9141C14.0417 61.9141 13.6198 62.0964 13.2969 62.4609C12.9792 62.8255 12.776 63.3333 12.6875 63.9844H16.3047V63.8438C16.263 63.2083 16.0938 62.7292 15.7969 62.4062C15.5 62.0781 15.0885 61.9141 14.5625 61.9141ZM20.3281 69V61.9531H19.0391V60.5469H20.3281V59.7734C20.3281 58.8359 20.5885 58.112 21.1094 57.6016C21.6302 57.0911 22.3594 56.8359 23.2969 56.8359C23.6302 56.8359 23.9844 56.8828 24.3594 56.9766L24.3125 58.4609C24.1042 58.4193 23.862 58.3984 23.5859 58.3984C22.6797 58.3984 22.2266 58.8646 22.2266 59.7969V60.5469H23.9453V61.9531H22.2266V69H20.3281ZM24.9766 64.6953C24.9766 63.8672 25.1406 63.1224 25.4688 62.4609C25.7969 61.7943 26.2578 61.2839 26.8516 60.9297C27.4453 60.5703 28.1276 60.3906 28.8984 60.3906C30.0391 60.3906 30.9635 60.7578 31.6719 61.4922C32.3854 62.2266 32.7708 63.2005 32.8281 64.4141L32.8359 64.8594C32.8359 65.6927 32.6745 66.4375 32.3516 67.0938C32.0339 67.75 31.5755 68.2578 30.9766 68.6172C30.3828 68.9766 29.6953 69.1562 28.9141 69.1562C27.7214 69.1562 26.7656 68.7604 26.0469 67.9688C25.3333 67.1719 24.9766 66.112 24.9766 64.7891V64.6953ZM26.875 64.8594C26.875 65.7292 27.0547 66.4115 27.4141 66.9062C27.7734 67.3958 28.2734 67.6406 28.9141 67.6406C29.5547 67.6406 30.0521 67.3906 30.4062 66.8906C30.7656 66.3906 30.9453 65.6589 30.9453 64.6953C30.9453 63.8411 30.7604 63.1641 30.3906 62.6641C30.026 62.1641 29.5286 61.9141 28.8984 61.9141C28.2786 61.9141 27.7865 62.1615 27.4219 62.6562C27.0573 63.1458 26.875 63.8802 26.875 64.8594ZM38.8672 62.2812C38.6172 62.2396 38.3594 62.2188 38.0938 62.2188C37.224 62.2188 36.638 62.5521 36.3359 63.2188V69H34.4375V60.5469H36.25L36.2969 61.4922C36.7552 60.7578 37.3906 60.3906 38.2031 60.3906C38.474 60.3906 38.6979 60.4271 38.875 60.5L38.8672 62.2812ZM43.6328 69.1562C42.4297 69.1562 41.4531 68.7786 40.7031 68.0234C39.9583 67.263 39.5859 66.2526 39.5859 64.9922V64.7578C39.5859 63.9141 39.7474 63.1615 40.0703 62.5C40.3984 61.8333 40.8568 61.3151 41.4453 60.9453C42.0339 60.5755 42.6901 60.3906 43.4141 60.3906C44.5651 60.3906 45.4531 60.7578 46.0781 61.4922C46.7083 62.2266 47.0234 63.2656 47.0234 64.6094V65.375H41.5C41.5573 66.0729 41.7891 66.625 42.1953 67.0312C42.6068 67.4375 43.1224 67.6406 43.7422 67.6406C44.612 67.6406 45.3203 67.2891 45.8672 66.5859L46.8906 67.5625C46.5521 68.0677 46.099 68.4609 45.5312 68.7422C44.9688 69.0182 44.3359 69.1562 43.6328 69.1562ZM43.4062 61.9141C42.8854 61.9141 42.4635 62.0964 42.1406 62.4609C41.8229 62.8255 41.6198 63.3333 41.5312 63.9844H45.1484V63.8438C45.1068 63.2083 44.9375 62.7292 44.6406 62.4062C44.3438 62.0781 43.9323 61.9141 43.4062 61.9141Z" fill="#979797"/>
<path d="M105.57 62.4141H107.199C108.223 62.3984 109.027 62.1289 109.613 61.6055C110.199 61.082 110.492 60.375 110.492 59.4844C110.492 57.4844 109.496 56.4844 107.504 56.4844C106.566 56.4844 105.816 56.7539 105.254 57.293C104.699 57.8242 104.422 58.5312 104.422 59.4141H102.254C102.254 58.0625 102.746 56.9414 103.73 56.0508C104.723 55.1523 105.98 54.7031 107.504 54.7031C109.113 54.7031 110.375 55.1289 111.289 55.9805C112.203 56.832 112.66 58.0156 112.66 59.5312C112.66 60.2734 112.418 60.9922 111.934 61.6875C111.457 62.3828 110.805 62.9023 109.977 63.2461C110.914 63.543 111.637 64.0352 112.145 64.7227C112.66 65.4102 112.918 66.25 112.918 67.2422C112.918 68.7734 112.418 69.9883 111.418 70.8867C110.418 71.7852 109.117 72.2344 107.516 72.2344C105.914 72.2344 104.609 71.8008 103.602 70.9336C102.602 70.0664 102.102 68.9219 102.102 67.5H104.281C104.281 68.3984 104.574 69.1172 105.16 69.6562C105.746 70.1953 106.531 70.4648 107.516 70.4648C108.562 70.4648 109.363 70.1914 109.918 69.6445C110.473 69.0977 110.75 68.3125 110.75 67.2891C110.75 66.2969 110.445 65.5352 109.836 65.0039C109.227 64.4727 108.348 64.1992 107.199 64.1836H105.57V62.4141Z" fill="#9B9B9B" fill-opacity="0.63"/>
<path d="M122.504 73.4648H120.641L127.766 54.9375H129.617L122.504 73.4648ZM144.816 72H142.637V57.5508L138.266 59.1562V57.1875L144.477 54.8555H144.816V72ZM161.516 59.3906C161.516 60.2422 161.289 61 160.836 61.6641C160.391 62.3281 159.785 62.8477 159.02 63.2227C159.91 63.6055 160.613 64.1641 161.129 64.8984C161.652 65.6328 161.914 66.4648 161.914 67.3945C161.914 68.8711 161.414 70.0469 160.414 70.9219C159.422 71.7969 158.113 72.2344 156.488 72.2344C154.848 72.2344 153.531 71.7969 152.539 70.9219C151.555 70.0391 151.062 68.8633 151.062 67.3945C151.062 66.4727 151.312 65.6406 151.812 64.8984C152.32 64.1562 153.02 63.5938 153.91 63.2109C153.152 62.8359 152.555 62.3164 152.117 61.6523C151.68 60.9883 151.461 60.2344 151.461 59.3906C151.461 57.9531 151.922 56.8125 152.844 55.9688C153.766 55.125 154.98 54.7031 156.488 54.7031C157.988 54.7031 159.199 55.125 160.121 55.9688C161.051 56.8125 161.516 57.9531 161.516 59.3906ZM159.746 67.3477C159.746 66.3945 159.441 65.6172 158.832 65.0156C158.23 64.4141 157.441 64.1133 156.465 64.1133C155.488 64.1133 154.703 64.4102 154.109 65.0039C153.523 65.5977 153.23 66.3789 153.23 67.3477C153.23 68.3164 153.516 69.0781 154.086 69.6328C154.664 70.1875 155.465 70.4648 156.488 70.4648C157.504 70.4648 158.301 70.1875 158.879 69.6328C159.457 69.0703 159.746 68.3086 159.746 67.3477ZM156.488 56.4844C155.637 56.4844 154.945 56.75 154.414 57.2812C153.891 57.8047 153.629 58.5195 153.629 59.4258C153.629 60.293 153.887 60.9961 154.402 61.5352C154.926 62.0664 155.621 62.332 156.488 62.332C157.355 62.332 158.047 62.0664 158.562 61.5352C159.086 60.9961 159.348 60.293 159.348 59.4258C159.348 58.5586 159.078 57.8516 158.539 57.3047C158 56.7578 157.316 56.4844 156.488 56.4844Z" fill="#979797"/>
<path d="M287.727 64.5C287.273 65.0391 286.73 65.4727 286.098 65.8008C285.473 66.1289 284.785 66.293 284.035 66.293C283.051 66.293 282.191 66.0508 281.457 65.5664C280.73 65.082 280.168 64.4023 279.77 63.5273C279.371 62.6445 279.172 61.6719 279.172 60.6094C279.172 59.4688 279.387 58.4414 279.816 57.5273C280.254 56.6133 280.871 55.9141 281.668 55.4297C282.465 54.9453 283.395 54.7031 284.457 54.7031C286.145 54.7031 287.473 55.3359 288.441 56.6016C289.418 57.8594 289.906 59.5781 289.906 61.7578V62.3906C289.906 65.7109 289.25 68.1367 287.938 69.668C286.625 71.1914 284.645 71.9727 281.996 72.0117H281.574V70.1836H282.031C283.82 70.1523 285.195 69.6875 286.156 68.7891C287.117 67.8828 287.641 66.4531 287.727 64.5ZM284.387 64.5C285.113 64.5 285.781 64.2773 286.391 63.832C287.008 63.3867 287.457 62.8359 287.738 62.1797V61.3125C287.738 59.8906 287.43 58.7344 286.812 57.8438C286.195 56.9531 285.414 56.5078 284.469 56.5078C283.516 56.5078 282.75 56.875 282.172 57.6094C281.594 58.3359 281.305 59.2969 281.305 60.4922C281.305 61.6562 281.582 62.6172 282.137 63.375C282.699 64.125 283.449 64.5 284.387 64.5Z" fill="#9B9B9B" fill-opacity="0.63"/>
<path d="M299.504 73.4648H297.641L304.766 54.9375H306.617L299.504 73.4648ZM321.816 72H319.637V57.5508L315.266 59.1562V57.1875L321.477 54.8555H321.816V72ZM338.516 59.3906C338.516 60.2422 338.289 61 337.836 61.6641C337.391 62.3281 336.785 62.8477 336.02 63.2227C336.91 63.6055 337.613 64.1641 338.129 64.8984C338.652 65.6328 338.914 66.4648 338.914 67.3945C338.914 68.8711 338.414 70.0469 337.414 70.9219C336.422 71.7969 335.113 72.2344 333.488 72.2344C331.848 72.2344 330.531 71.7969 329.539 70.9219C328.555 70.0391 328.062 68.8633 328.062 67.3945C328.062 66.4727 328.312 65.6406 328.812 64.8984C329.32 64.1562 330.02 63.5938 330.91 63.2109C330.152 62.8359 329.555 62.3164 329.117 61.6523C328.68 60.9883 328.461 60.2344 328.461 59.3906C328.461 57.9531 328.922 56.8125 329.844 55.9688C330.766 55.125 331.98 54.7031 333.488 54.7031C334.988 54.7031 336.199 55.125 337.121 55.9688C338.051 56.8125 338.516 57.9531 338.516 59.3906ZM336.746 67.3477C336.746 66.3945 336.441 65.6172 335.832 65.0156C335.23 64.4141 334.441 64.1133 333.465 64.1133C332.488 64.1133 331.703 64.4102 331.109 65.0039C330.523 65.5977 330.23 66.3789 330.23 67.3477C330.23 68.3164 330.516 69.0781 331.086 69.6328C331.664 70.1875 332.465 70.4648 333.488 70.4648C334.504 70.4648 335.301 70.1875 335.879 69.6328C336.457 69.0703 336.746 68.3086 336.746 67.3477ZM333.488 56.4844C332.637 56.4844 331.945 56.75 331.414 57.2812C330.891 57.8047 330.629 58.5195 330.629 59.4258C330.629 60.293 330.887 60.9961 331.402 61.5352C331.926 62.0664 332.621 62.332 333.488 62.332C334.355 62.332 335.047 62.0664 335.562 61.5352C336.086 60.9961 336.348 60.293 336.348 59.4258C336.348 58.5586 336.078 57.8516 335.539 57.3047C335 56.7578 334.316 56.4844 333.488 56.4844Z" fill="#979797"/>
<path d="M454.414 63.4453L455.281 54.9375H464.023V56.9414H457.121L456.605 61.5938C457.441 61.1016 458.391 60.8555 459.453 60.8555C461.008 60.8555 462.242 61.3711 463.156 62.4023C464.07 63.4258 464.527 64.8125 464.527 66.5625C464.527 68.3203 464.051 69.707 463.098 70.7227C462.152 71.7305 460.828 72.2344 459.125 72.2344C457.617 72.2344 456.387 71.8164 455.434 70.9805C454.48 70.1445 453.938 68.9883 453.805 67.5117H455.855C455.988 68.4883 456.336 69.2266 456.898 69.7266C457.461 70.2188 458.203 70.4648 459.125 70.4648C460.133 70.4648 460.922 70.1211 461.492 69.4336C462.07 68.7461 462.359 67.7969 462.359 66.5859C462.359 65.4453 462.047 64.5312 461.422 63.8438C460.805 63.1484 459.98 62.8008 458.949 62.8008C458.004 62.8008 457.262 63.0078 456.723 63.4219L456.148 63.8906L454.414 63.4453Z" fill="#9B9B9B" fill-opacity="0.63"/>
<path d="M473.504 73.4648H471.641L478.766 54.9375H480.617L473.504 73.4648ZM495.816 72H493.637V57.5508L489.266 59.1562V57.1875L495.477 54.8555H495.816V72ZM512.516 59.3906C512.516 60.2422 512.289 61 511.836 61.6641C511.391 62.3281 510.785 62.8477 510.02 63.2227C510.91 63.6055 511.613 64.1641 512.129 64.8984C512.652 65.6328 512.914 66.4648 512.914 67.3945C512.914 68.8711 512.414 70.0469 511.414 70.9219C510.422 71.7969 509.113 72.2344 507.488 72.2344C505.848 72.2344 504.531 71.7969 503.539 70.9219C502.555 70.0391 502.062 68.8633 502.062 67.3945C502.062 66.4727 502.312 65.6406 502.812 64.8984C503.32 64.1562 504.02 63.5938 504.91 63.2109C504.152 62.8359 503.555 62.3164 503.117 61.6523C502.68 60.9883 502.461 60.2344 502.461 59.3906C502.461 57.9531 502.922 56.8125 503.844 55.9688C504.766 55.125 505.98 54.7031 507.488 54.7031C508.988 54.7031 510.199 55.125 511.121 55.9688C512.051 56.8125 512.516 57.9531 512.516 59.3906ZM510.746 67.3477C510.746 66.3945 510.441 65.6172 509.832 65.0156C509.23 64.4141 508.441 64.1133 507.465 64.1133C506.488 64.1133 505.703 64.4102 505.109 65.0039C504.523 65.5977 504.23 66.3789 504.23 67.3477C504.23 68.3164 504.516 69.0781 505.086 69.6328C505.664 70.1875 506.465 70.4648 507.488 70.4648C508.504 70.4648 509.301 70.1875 509.879 69.6328C510.457 69.0703 510.746 68.3086 510.746 67.3477ZM507.488 56.4844C506.637 56.4844 505.945 56.75 505.414 57.2812C504.891 57.8047 504.629 58.5195 504.629 59.4258C504.629 60.293 504.887 60.9961 505.402 61.5352C505.926 62.0664 506.621 62.332 507.488 62.332C508.355 62.332 509.047 62.0664 509.562 61.5352C510.086 60.9961 510.348 60.293 510.348 59.4258C510.348 58.5586 510.078 57.8516 509.539 57.3047C509 56.7578 508.316 56.4844 507.488 56.4844Z" fill="#979797"/>
<path d="M634.598 72H623.418V70.4414L629.324 63.8789C630.199 62.8867 630.801 62.082 631.129 61.4648C631.465 60.8398 631.633 60.1953 631.633 59.5312C631.633 58.6406 631.363 57.9102 630.824 57.3398C630.285 56.7695 629.566 56.4844 628.668 56.4844C627.59 56.4844 626.75 56.793 626.148 57.4102C625.555 58.0195 625.258 58.8711 625.258 59.9648H623.09C623.09 58.3945 623.594 57.125 624.602 56.1562C625.617 55.1875 626.973 54.7031 628.668 54.7031C630.254 54.7031 631.508 55.1211 632.43 55.957C633.352 56.7852 633.812 57.8906 633.812 59.2734C633.812 60.9531 632.742 62.9531 630.602 65.2734L626.031 70.2305H634.598V72Z" fill="#9B9B9B" fill-opacity="0.63"/>
<path d="M643.504 73.4648H641.641L648.766 54.9375H650.617L643.504 73.4648ZM665.816 72H663.637V57.5508L659.266 59.1562V57.1875L665.477 54.8555H665.816V72ZM682.516 59.3906C682.516 60.2422 682.289 61 681.836 61.6641C681.391 62.3281 680.785 62.8477 680.02 63.2227C680.91 63.6055 681.613 64.1641 682.129 64.8984C682.652 65.6328 682.914 66.4648 682.914 67.3945C682.914 68.8711 682.414 70.0469 681.414 70.9219C680.422 71.7969 679.113 72.2344 677.488 72.2344C675.848 72.2344 674.531 71.7969 673.539 70.9219C672.555 70.0391 672.062 68.8633 672.062 67.3945C672.062 66.4727 672.312 65.6406 672.812 64.8984C673.32 64.1562 674.02 63.5938 674.91 63.2109C674.152 62.8359 673.555 62.3164 673.117 61.6523C672.68 60.9883 672.461 60.2344 672.461 59.3906C672.461 57.9531 672.922 56.8125 673.844 55.9688C674.766 55.125 675.98 54.7031 677.488 54.7031C678.988 54.7031 680.199 55.125 681.121 55.9688C682.051 56.8125 682.516 57.9531 682.516 59.3906ZM680.746 67.3477C680.746 66.3945 680.441 65.6172 679.832 65.0156C679.23 64.4141 678.441 64.1133 677.465 64.1133C676.488 64.1133 675.703 64.4102 675.109 65.0039C674.523 65.5977 674.23 66.3789 674.23 67.3477C674.23 68.3164 674.516 69.0781 675.086 69.6328C675.664 70.1875 676.465 70.4648 677.488 70.4648C678.504 70.4648 679.301 70.1875 679.879 69.6328C680.457 69.0703 680.746 68.3086 680.746 67.3477ZM677.488 56.4844C676.637 56.4844 675.945 56.75 675.414 57.2812C674.891 57.8047 674.629 58.5195 674.629 59.4258C674.629 60.293 674.887 60.9961 675.402 61.5352C675.926 62.0664 676.621 62.332 677.488 62.332C678.355 62.332 679.047 62.0664 679.562 61.5352C680.086 60.9961 680.348 60.293 680.348 59.4258C680.348 58.5586 680.078 57.8516 679.539 57.3047C679 56.7578 678.316 56.4844 677.488 56.4844Z" fill="#979797"/>
<path d="M103.543 136H101.363V121.551L96.9922 123.156V121.188L103.203 118.855H103.543V136ZM118.402 118.926V120.766H118.004C116.316 120.797 114.973 121.297 113.973 122.266C112.973 123.234 112.395 124.598 112.238 126.355C113.137 125.324 114.363 124.809 115.918 124.809C117.402 124.809 118.586 125.332 119.469 126.379C120.359 127.426 120.805 128.777 120.805 130.434C120.805 132.191 120.324 133.598 119.363 134.652C118.41 135.707 117.129 136.234 115.52 136.234C113.887 136.234 112.562 135.609 111.547 134.359C110.531 133.102 110.023 131.484 110.023 129.508V128.676C110.023 125.535 110.691 123.137 112.027 121.48C113.371 119.816 115.367 118.965 118.016 118.926H118.402ZM115.555 126.613C114.812 126.613 114.129 126.836 113.504 127.281C112.879 127.727 112.445 128.285 112.203 128.957V129.754C112.203 131.16 112.52 132.293 113.152 133.152C113.785 134.012 114.574 134.441 115.52 134.441C116.496 134.441 117.262 134.082 117.816 133.363C118.379 132.645 118.66 131.703 118.66 130.539C118.66 129.367 118.375 128.422 117.805 127.703C117.242 126.977 116.492 126.613 115.555 126.613Z" fill="#FF8F87"/>
<path d="M129.98 137.465H128.117L135.242 118.938H137.094L129.98 137.465ZM152.293 136H150.113V121.551L145.742 123.156V121.188L151.953 118.855H152.293V136ZM168.992 123.391C168.992 124.242 168.766 125 168.312 125.664C167.867 126.328 167.262 126.848 166.496 127.223C167.387 127.605 168.09 128.164 168.605 128.898C169.129 129.633 169.391 130.465 169.391 131.395C169.391 132.871 168.891 134.047 167.891 134.922C166.898 135.797 165.59 136.234 163.965 136.234C162.324 136.234 161.008 135.797 160.016 134.922C159.031 134.039 158.539 132.863 158.539 131.395C158.539 130.473 158.789 129.641 159.289 128.898C159.797 128.156 160.496 127.594 161.387 127.211C160.629 126.836 160.031 126.316 159.594 125.652C159.156 124.988 158.938 124.234 158.938 123.391C158.938 121.953 159.398 120.812 160.32 119.969C161.242 119.125 162.457 118.703 163.965 118.703C165.465 118.703 166.676 119.125 167.598 119.969C168.527 120.812 168.992 121.953 168.992 123.391ZM167.223 131.348C167.223 130.395 166.918 129.617 166.309 129.016C165.707 128.414 164.918 128.113 163.941 128.113C162.965 128.113 162.18 128.41 161.586 129.004C161 129.598 160.707 130.379 160.707 131.348C160.707 132.316 160.992 133.078 161.562 133.633C162.141 134.188 162.941 134.465 163.965 134.465C164.98 134.465 165.777 134.188 166.355 133.633C166.934 133.07 167.223 132.309 167.223 131.348ZM163.965 120.484C163.113 120.484 162.422 120.75 161.891 121.281C161.367 121.805 161.105 122.52 161.105 123.426C161.105 124.293 161.363 124.996 161.879 125.535C162.402 126.066 163.098 126.332 163.965 126.332C164.832 126.332 165.523 126.066 166.039 125.535C166.562 124.996 166.824 124.293 166.824 123.426C166.824 122.559 166.555 121.852 166.016 121.305C165.477 120.758 164.793 120.484 163.965 120.484Z" fill="black"/>
<path d="M280.543 136H278.363V121.551L273.992 123.156V121.188L280.203 118.855H280.543V136ZM297.91 120.156L290.844 136H288.57L295.613 120.719H286.379V118.938H297.91V120.156Z" fill="#FF8F87"/>
<path d="M306.98 137.465H305.117L312.242 118.938H314.094L306.98 137.465ZM329.293 136H327.113V121.551L322.742 123.156V121.188L328.953 118.855H329.293V136ZM345.992 123.391C345.992 124.242 345.766 125 345.312 125.664C344.867 126.328 344.262 126.848 343.496 127.223C344.387 127.605 345.09 128.164 345.605 128.898C346.129 129.633 346.391 130.465 346.391 131.395C346.391 132.871 345.891 134.047 344.891 134.922C343.898 135.797 342.59 136.234 340.965 136.234C339.324 136.234 338.008 135.797 337.016 134.922C336.031 134.039 335.539 132.863 335.539 131.395C335.539 130.473 335.789 129.641 336.289 128.898C336.797 128.156 337.496 127.594 338.387 127.211C337.629 126.836 337.031 126.316 336.594 125.652C336.156 124.988 335.938 124.234 335.938 123.391C335.938 121.953 336.398 120.812 337.32 119.969C338.242 119.125 339.457 118.703 340.965 118.703C342.465 118.703 343.676 119.125 344.598 119.969C345.527 120.812 345.992 121.953 345.992 123.391ZM344.223 131.348C344.223 130.395 343.918 129.617 343.309 129.016C342.707 128.414 341.918 128.113 340.941 128.113C339.965 128.113 339.18 128.41 338.586 129.004C338 129.598 337.707 130.379 337.707 131.348C337.707 132.316 337.992 133.078 338.562 133.633C339.141 134.188 339.941 134.465 340.965 134.465C341.98 134.465 342.777 134.188 343.355 133.633C343.934 133.07 344.223 132.309 344.223 131.348ZM340.965 120.484C340.113 120.484 339.422 120.75 338.891 121.281C338.367 121.805 338.105 122.52 338.105 123.426C338.105 124.293 338.363 124.996 338.879 125.535C339.402 126.066 340.098 126.332 340.965 126.332C341.832 126.332 342.523 126.066 343.039 125.535C343.562 124.996 343.824 124.293 343.824 123.426C343.824 122.559 343.555 121.852 343.016 121.305C342.477 120.758 341.793 120.484 340.965 120.484Z" fill="black"/>
<path d="M454.543 136H452.363V121.551L447.992 123.156V121.188L454.203 118.855H454.543V136ZM470.047 130.27H472.414V132.039H470.047V136H467.867V132.039H460.098V130.762L467.738 118.938H470.047V130.27ZM462.559 130.27H467.867V121.902L467.609 122.371L462.559 130.27Z" fill="#FF8F87"/>
<path d="M480.98 137.465H479.117L486.242 118.938H488.094L480.98 137.465ZM503.293 136H501.113V121.551L496.742 123.156V121.188L502.953 118.855H503.293V136ZM519.992 123.391C519.992 124.242 519.766 125 519.312 125.664C518.867 126.328 518.262 126.848 517.496 127.223C518.387 127.605 519.09 128.164 519.605 128.898C520.129 129.633 520.391 130.465 520.391 131.395C520.391 132.871 519.891 134.047 518.891 134.922C517.898 135.797 516.59 136.234 514.965 136.234C513.324 136.234 512.008 135.797 511.016 134.922C510.031 134.039 509.539 132.863 509.539 131.395C509.539 130.473 509.789 129.641 510.289 128.898C510.797 128.156 511.496 127.594 512.387 127.211C511.629 126.836 511.031 126.316 510.594 125.652C510.156 124.988 509.938 124.234 509.938 123.391C509.938 121.953 510.398 120.812 511.32 119.969C512.242 119.125 513.457 118.703 514.965 118.703C516.465 118.703 517.676 119.125 518.598 119.969C519.527 120.812 519.992 121.953 519.992 123.391ZM518.223 131.348C518.223 130.395 517.918 129.617 517.309 129.016C516.707 128.414 515.918 128.113 514.941 128.113C513.965 128.113 513.18 128.41 512.586 129.004C512 129.598 511.707 130.379 511.707 131.348C511.707 132.316 511.992 133.078 512.562 133.633C513.141 134.188 513.941 134.465 514.965 134.465C515.98 134.465 516.777 134.188 517.355 133.633C517.934 133.07 518.223 132.309 518.223 131.348ZM514.965 120.484C514.113 120.484 513.422 120.75 512.891 121.281C512.367 121.805 512.105 122.52 512.105 123.426C512.105 124.293 512.363 124.996 512.879 125.535C513.402 126.066 514.098 126.332 514.965 126.332C515.832 126.332 516.523 126.066 517.039 125.535C517.562 124.996 517.824 124.293 517.824 123.426C517.824 122.559 517.555 121.852 517.016 121.305C516.477 120.758 515.793 120.484 514.965 120.484Z" fill="black"/>
<path d="M624.543 136H622.363V121.551L617.992 123.156V121.188L624.203 118.855H624.543V136ZM631.891 127.445L632.758 118.938H641.5V120.941H634.598L634.082 125.594C634.918 125.102 635.867 124.855 636.93 124.855C638.484 124.855 639.719 125.371 640.633 126.402C641.547 127.426 642.004 128.812 642.004 130.562C642.004 132.32 641.527 133.707 640.574 134.723C639.629 135.73 638.305 136.234 636.602 136.234C635.094 136.234 633.863 135.816 632.91 134.98C631.957 134.145 631.414 132.988 631.281 131.512H633.332C633.465 132.488 633.812 133.227 634.375 133.727C634.938 134.219 635.68 134.465 636.602 134.465C637.609 134.465 638.398 134.121 638.969 133.434C639.547 132.746 639.836 131.797 639.836 130.586C639.836 129.445 639.523 128.531 638.898 127.844C638.281 127.148 637.457 126.801 636.426 126.801C635.48 126.801 634.738 127.008 634.199 127.422L633.625 127.891L631.891 127.445Z" fill="#FF8F87"/>
<path d="M650.98 137.465H649.117L656.242 118.938H658.094L650.98 137.465ZM673.293 136H671.113V121.551L666.742 123.156V121.188L672.953 118.855H673.293V136ZM689.992 123.391C689.992 124.242 689.766 125 689.312 125.664C688.867 126.328 688.262 126.848 687.496 127.223C688.387 127.605 689.09 128.164 689.605 128.898C690.129 129.633 690.391 130.465 690.391 131.395C690.391 132.871 689.891 134.047 688.891 134.922C687.898 135.797 686.59 136.234 684.965 136.234C683.324 136.234 682.008 135.797 681.016 134.922C680.031 134.039 679.539 132.863 679.539 131.395C679.539 130.473 679.789 129.641 680.289 128.898C680.797 128.156 681.496 127.594 682.387 127.211C681.629 126.836 681.031 126.316 680.594 125.652C680.156 124.988 679.938 124.234 679.938 123.391C679.938 121.953 680.398 120.812 681.32 119.969C682.242 119.125 683.457 118.703 684.965 118.703C686.465 118.703 687.676 119.125 688.598 119.969C689.527 120.812 689.992 121.953 689.992 123.391ZM688.223 131.348C688.223 130.395 687.918 129.617 687.309 129.016C686.707 128.414 685.918 128.113 684.941 128.113C683.965 128.113 683.18 128.41 682.586 129.004C682 129.598 681.707 130.379 681.707 131.348C681.707 132.316 681.992 133.078 682.562 133.633C683.141 134.188 683.941 134.465 684.965 134.465C685.98 134.465 686.777 134.188 687.355 133.633C687.934 133.07 688.223 132.309 688.223 131.348ZM684.965 120.484C684.113 120.484 683.422 120.75 682.891 121.281C682.367 121.805 682.105 122.52 682.105 123.426C682.105 124.293 682.363 124.996 682.879 125.535C683.402 126.066 684.098 126.332 684.965 126.332C685.832 126.332 686.523 126.066 687.039 125.535C687.562 124.996 687.824 124.293 687.824 123.426C687.824 122.559 687.555 121.852 687.016 121.305C686.477 120.758 685.793 120.484 684.965 120.484Z" fill="black"/>
<path d="M7.52344 130.352H3.11719L2.19531 133H0.140625L4.4375 121.625H6.21094L10.5156 133H8.45312L7.52344 130.352ZM3.67188 128.758H6.96875L5.32031 124.039L3.67188 128.758ZM12.2969 133V125.953H11.0078V124.547H12.2969V123.773C12.2969 122.836 12.5573 122.112 13.0781 121.602C13.599 121.091 14.3281 120.836 15.2656 120.836C15.599 120.836 15.9531 120.883 16.3281 120.977L16.2812 122.461C16.0729 122.419 15.8307 122.398 15.5547 122.398C14.6484 122.398 14.1953 122.865 14.1953 123.797V124.547H15.9141V125.953H14.1953V133H12.2969ZM19.6797 122.492V124.547H21.1719V125.953H19.6797V130.672C19.6797 130.995 19.7422 131.229 19.8672 131.375C19.9974 131.516 20.2266 131.586 20.5547 131.586C20.7734 131.586 20.9948 131.56 21.2188 131.508V132.977C20.7865 133.096 20.3698 133.156 19.9688 133.156C18.5104 133.156 17.7812 132.352 17.7812 130.742V125.953H16.3906V124.547H17.7812V122.492H19.6797ZM26.3516 133.156C25.1484 133.156 24.1719 132.779 23.4219 132.023C22.6771 131.263 22.3047 130.253 22.3047 128.992V128.758C22.3047 127.914 22.4661 127.161 22.7891 126.5C23.1172 125.833 23.5755 125.315 24.1641 124.945C24.7526 124.576 25.4089 124.391 26.1328 124.391C27.2839 124.391 28.1719 124.758 28.7969 125.492C29.4271 126.227 29.7422 127.266 29.7422 128.609V129.375H24.2188C24.276 130.073 24.5078 130.625 24.9141 131.031C25.3255 131.438 25.8411 131.641 26.4609 131.641C27.3307 131.641 28.0391 131.289 28.5859 130.586L29.6094 131.562C29.2708 132.068 28.8177 132.461 28.25 132.742C27.6875 133.018 27.0547 133.156 26.3516 133.156ZM26.125 125.914C25.6042 125.914 25.1823 126.096 24.8594 126.461C24.5417 126.826 24.3385 127.333 24.25 127.984H27.8672V127.844C27.8255 127.208 27.6562 126.729 27.3594 126.406C27.0625 126.078 26.651 125.914 26.125 125.914ZM35.6484 126.281C35.3984 126.24 35.1406 126.219 34.875 126.219C34.0052 126.219 33.4193 126.552 33.1172 127.219V133H31.2188V124.547H33.0312L33.0781 125.492C33.5365 124.758 34.1719 124.391 34.9844 124.391C35.2552 124.391 35.4792 124.427 35.6562 124.5L35.6484 126.281Z" fill="black"/>
<path d="M77.7188 11.5469H72.3984V16.1875H78.5156V17H71.4375V5.625H78.4766V6.44531H72.3984V10.7344H77.7188V11.5469ZM81 17V9.3125H79.6016V8.54688H81V7.52344C81 6.65885 81.2188 5.99479 81.6562 5.53125C82.099 5.06771 82.7135 4.83594 83.5 4.83594C83.8542 4.83594 84.1849 4.88021 84.4922 4.96875L84.4219 5.75C84.1615 5.6875 83.8776 5.65625 83.5703 5.65625C83.0547 5.65625 82.6536 5.81771 82.3672 6.14062C82.0807 6.45833 81.9375 6.91146 81.9375 7.5V8.54688H85.5391V7.67969C85.5391 6.77865 85.7839 6.08073 86.2734 5.58594C86.763 5.08594 87.4531 4.83594 88.3438 4.83594C89.0417 4.83594 89.7604 4.98958 90.5 5.29688L90.3438 6.10156C89.6927 5.82552 89.0443 5.6875 88.3984 5.6875C87.112 5.6875 86.4688 6.36198 86.4688 7.71094V8.54688H88.4531V9.3125H86.4688V17H85.5391V9.3125H81.9375V17H81ZM91.0078 17H90.0703V8.54688H91.0078V17ZM96.7031 16.3672C97.3542 16.3672 97.8984 16.1849 98.3359 15.8203C98.7786 15.4505 99.0182 14.974 99.0547 14.3906H99.9531C99.9271 14.9062 99.7656 15.3776 99.4688 15.8047C99.1719 16.2266 98.776 16.5573 98.2812 16.7969C97.7917 17.0365 97.2656 17.1562 96.7031 17.1562C95.5938 17.1562 94.7135 16.7708 94.0625 16C93.4167 15.2292 93.0938 14.1927 93.0938 12.8906V12.6094C93.0938 11.776 93.2396 11.0391 93.5312 10.3984C93.8229 9.75781 94.2396 9.26302 94.7812 8.91406C95.3281 8.5651 95.9661 8.39062 96.6953 8.39062C97.6224 8.39062 98.3854 8.66667 98.9844 9.21875C99.5885 9.77083 99.9115 10.4974 99.9531 11.3984H99.0547C99.013 10.737 98.7734 10.2031 98.3359 9.79688C97.9036 9.39062 97.3568 9.1875 96.6953 9.1875C95.8516 9.1875 95.1953 9.49219 94.7266 10.1016C94.263 10.7109 94.0312 11.5651 94.0312 12.6641V12.9375C94.0312 14.0156 94.263 14.8568 94.7266 15.4609C95.1953 16.0651 95.8542 16.3672 96.7031 16.3672ZM102.875 17H101.938V8.54688H102.875V17ZM101.773 6.10156C101.773 5.92448 101.831 5.77604 101.945 5.65625C102.06 5.53125 102.216 5.46875 102.414 5.46875C102.612 5.46875 102.768 5.53125 102.883 5.65625C103.003 5.77604 103.062 5.92448 103.062 6.10156C103.062 6.27865 103.003 6.42708 102.883 6.54688C102.768 6.66667 102.612 6.72656 102.414 6.72656C102.216 6.72656 102.06 6.66667 101.945 6.54688C101.831 6.42708 101.773 6.27865 101.773 6.10156ZM108.695 17.1562C107.977 17.1562 107.326 16.9792 106.742 16.625C106.164 16.2708 105.714 15.7786 105.391 15.1484C105.068 14.513 104.906 13.8021 104.906 13.0156V12.6797C104.906 11.8672 105.062 11.1354 105.375 10.4844C105.693 9.83333 106.133 9.32292 106.695 8.95312C107.258 8.57812 107.867 8.39062 108.523 8.39062C109.549 8.39062 110.362 8.74219 110.961 9.44531C111.565 10.1432 111.867 11.099 111.867 12.3125V12.8359H105.836V13.0156C105.836 13.974 106.109 14.7734 106.656 15.4141C107.208 16.0495 107.901 16.3672 108.734 16.3672C109.234 16.3672 109.674 16.276 110.055 16.0938C110.44 15.9115 110.789 15.6198 111.102 15.2188L111.688 15.6641C111 16.6589 110.003 17.1562 108.695 17.1562ZM108.523 9.1875C107.82 9.1875 107.227 9.44531 106.742 9.96094C106.263 10.4766 105.971 11.1693 105.867 12.0391H110.938V11.9375C110.911 11.125 110.68 10.4635 110.242 9.95312C109.805 9.44271 109.232 9.1875 108.523 9.1875ZM114.578 8.54688L114.609 9.99219C114.927 9.47135 115.323 9.07552 115.797 8.80469C116.271 8.52865 116.794 8.39062 117.367 8.39062C118.273 8.39062 118.948 8.64583 119.391 9.15625C119.833 9.66667 120.057 10.4323 120.062 11.4531V17H119.133V11.4453C119.128 10.6901 118.966 10.1276 118.648 9.75781C118.336 9.38802 117.833 9.20312 117.141 9.20312C116.562 9.20312 116.049 9.38542 115.602 9.75C115.159 10.1094 114.831 10.5964 114.617 11.2109V17H113.688V8.54688H114.578ZM123.938 6.38281V8.54688H125.688V9.3125H123.938V14.9453C123.938 15.4141 124.021 15.763 124.188 15.9922C124.359 16.2214 124.643 16.3359 125.039 16.3359C125.195 16.3359 125.448 16.3099 125.797 16.2578L125.836 17.0234C125.591 17.112 125.258 17.1562 124.836 17.1562C124.195 17.1562 123.729 16.9714 123.438 16.6016C123.146 16.2266 123 15.6771 123 14.9531V9.3125H121.445V8.54688H123V6.38281H123.938ZM131.734 17V5.625H135.094C136.312 5.625 137.237 5.8776 137.867 6.38281C138.497 6.88281 138.812 7.6224 138.812 8.60156C138.812 9.1901 138.651 9.70312 138.328 10.1406C138.01 10.5729 137.573 10.8828 137.016 11.0703C137.677 11.2161 138.208 11.5417 138.609 12.0469C139.016 12.5521 139.219 13.1354 139.219 13.7969C139.219 14.8021 138.893 15.5885 138.242 16.1562C137.596 16.7188 136.695 17 135.539 17H131.734ZM132.695 11.5312V16.1875H135.578C136.401 16.1875 137.052 15.9792 137.531 15.5625C138.016 15.1406 138.258 14.5573 138.258 13.8125C138.258 13.1094 138.026 12.5547 137.562 12.1484C137.104 11.737 136.469 11.5312 135.656 11.5312H132.695ZM132.695 10.7266H135.32C136.122 10.7109 136.742 10.5234 137.18 10.1641C137.622 9.79948 137.844 9.27083 137.844 8.57812C137.844 7.84896 137.615 7.3125 137.156 6.96875C136.703 6.61979 136.016 6.44531 135.094 6.44531H132.695V10.7266ZM145.234 9.34375C145.036 9.30729 144.826 9.28906 144.602 9.28906C144.018 9.28906 143.523 9.45312 143.117 9.78125C142.716 10.1042 142.43 10.5755 142.258 11.1953V17H141.328V8.54688H142.242L142.258 9.89062C142.753 8.89062 143.547 8.39062 144.641 8.39062C144.901 8.39062 145.107 8.42448 145.258 8.49219L145.234 9.34375ZM146.047 12.6484C146.047 11.8359 146.203 11.1042 146.516 10.4531C146.833 9.80208 147.279 9.29688 147.852 8.9375C148.43 8.57292 149.083 8.39062 149.812 8.39062C150.938 8.39062 151.849 8.78646 152.547 9.57812C153.245 10.3646 153.594 11.4089 153.594 12.7109V12.9062C153.594 13.724 153.435 14.4609 153.117 15.1172C152.805 15.7682 152.362 16.2708 151.789 16.625C151.216 16.9792 150.562 17.1562 149.828 17.1562C148.708 17.1562 147.797 16.763 147.094 15.9766C146.396 15.1849 146.047 14.138 146.047 12.8359V12.6484ZM146.984 12.9062C146.984 13.9167 147.245 14.7474 147.766 15.3984C148.292 16.0443 148.979 16.3672 149.828 16.3672C150.672 16.3672 151.354 16.0443 151.875 15.3984C152.401 14.7474 152.664 13.8906 152.664 12.8281V12.6484C152.664 12.0026 152.544 11.4115 152.305 10.875C152.065 10.3385 151.729 9.92448 151.297 9.63281C150.865 9.33594 150.37 9.1875 149.812 9.1875C148.979 9.1875 148.299 9.51562 147.773 10.1719C147.247 10.8229 146.984 11.6771 146.984 12.7344V12.9062ZM157.555 15.0547L157.695 15.7812L157.883 15.0156L159.914 8.54688H160.711L162.719 14.9609L162.938 15.8516L163.117 15.0312L164.852 8.54688H165.82L163.359 17H162.562L160.391 10.2969L160.289 9.83594L160.188 10.3047L158.055 17H157.258L154.805 8.54688H155.766L157.555 15.0547ZM172.656 14.8516C172.656 14.388 172.469 14.0156 172.094 13.7344C171.724 13.4531 171.164 13.2344 170.414 13.0781C169.664 12.9167 169.081 12.7344 168.664 12.5312C168.253 12.3229 167.945 12.0703 167.742 11.7734C167.544 11.4766 167.445 11.1172 167.445 10.6953C167.445 10.0286 167.724 9.47917 168.281 9.04688C168.839 8.60938 169.552 8.39062 170.422 8.39062C171.365 8.39062 172.12 8.625 172.688 9.09375C173.26 9.55729 173.547 10.1641 173.547 10.9141H172.609C172.609 10.4193 172.401 10.0078 171.984 9.67969C171.573 9.35156 171.052 9.1875 170.422 9.1875C169.807 9.1875 169.312 9.32552 168.938 9.60156C168.568 9.8724 168.383 10.2266 168.383 10.6641C168.383 11.0859 168.536 11.4141 168.844 11.6484C169.156 11.8776 169.721 12.0885 170.539 12.2812C171.362 12.474 171.977 12.6797 172.383 12.8984C172.794 13.1172 173.099 13.3802 173.297 13.6875C173.495 13.9948 173.594 14.3672 173.594 14.8047C173.594 15.5182 173.305 16.0885 172.727 16.5156C172.154 16.9427 171.404 17.1562 170.477 17.1562C169.492 17.1562 168.693 16.9193 168.078 16.4453C167.469 15.9661 167.164 15.362 167.164 14.6328H168.102C168.138 15.1797 168.367 15.6068 168.789 15.9141C169.216 16.2161 169.779 16.3672 170.477 16.3672C171.128 16.3672 171.654 16.224 172.055 15.9375C172.456 15.651 172.656 15.2891 172.656 14.8516ZM176.75 17H175.812V8.54688H176.75V17ZM175.648 6.10156C175.648 5.92448 175.706 5.77604 175.82 5.65625C175.935 5.53125 176.091 5.46875 176.289 5.46875C176.487 5.46875 176.643 5.53125 176.758 5.65625C176.878 5.77604 176.938 5.92448 176.938 6.10156C176.938 6.27865 176.878 6.42708 176.758 6.54688C176.643 6.66667 176.487 6.72656 176.289 6.72656C176.091 6.72656 175.935 6.66667 175.82 6.54688C175.706 6.42708 175.648 6.27865 175.648 6.10156ZM180.188 8.54688L180.219 9.99219C180.536 9.47135 180.932 9.07552 181.406 8.80469C181.88 8.52865 182.404 8.39062 182.977 8.39062C183.883 8.39062 184.557 8.64583 185 9.15625C185.443 9.66667 185.667 10.4323 185.672 11.4531V17H184.742V11.4453C184.737 10.6901 184.576 10.1276 184.258 9.75781C183.945 9.38802 183.443 9.20312 182.75 9.20312C182.172 9.20312 181.659 9.38542 181.211 9.75C180.768 10.1094 180.44 10.5964 180.227 11.2109V17H179.297V8.54688H180.188ZM187.719 12.6953C187.719 11.3724 188.01 10.3255 188.594 9.55469C189.182 8.77865 189.979 8.39062 190.984 8.39062C192.135 8.39062 193.01 8.84896 193.609 9.76562L193.656 8.54688H194.531V16.8281C194.531 17.9167 194.227 18.7786 193.617 19.4141C193.008 20.0495 192.182 20.3672 191.141 20.3672C190.552 20.3672 189.99 20.2344 189.453 19.9688C188.922 19.7083 188.503 19.3594 188.195 18.9219L188.719 18.3594C189.38 19.1719 190.167 19.5781 191.078 19.5781C191.859 19.5781 192.469 19.3464 192.906 18.8828C193.344 18.4245 193.57 17.7865 193.586 16.9688V15.9062C192.987 16.7396 192.115 17.1562 190.969 17.1562C189.99 17.1562 189.203 16.7656 188.609 15.9844C188.016 15.2031 187.719 14.1484 187.719 12.8203V12.6953ZM188.664 12.8594C188.664 13.9375 188.88 14.7891 189.312 15.4141C189.745 16.0339 190.354 16.3438 191.141 16.3438C192.292 16.3438 193.107 15.8281 193.586 14.7969V10.8672C193.367 10.3255 193.052 9.91406 192.641 9.63281C192.229 9.34635 191.734 9.20312 191.156 9.20312C190.37 9.20312 189.758 9.51302 189.32 10.1328C188.883 10.7474 188.664 11.6562 188.664 12.8594Z" fill="black"/>
<path d="M242.492 13.4531C242.362 14.651 241.932 15.5677 241.203 16.2031C240.479 16.8385 239.513 17.1562 238.305 17.1562C237.461 17.1562 236.714 16.9453 236.062 16.5234C235.417 16.1016 234.917 15.5052 234.562 14.7344C234.208 13.9583 234.029 13.0729 234.023 12.0781V10.6016C234.023 9.59115 234.201 8.69531 234.555 7.91406C234.909 7.13281 235.417 6.53125 236.078 6.10938C236.745 5.68229 237.51 5.46875 238.375 5.46875C239.594 5.46875 240.555 5.79948 241.258 6.46094C241.966 7.11719 242.378 8.02604 242.492 9.1875H241.523C241.284 7.25521 240.234 6.28906 238.375 6.28906C237.344 6.28906 236.521 6.67448 235.906 7.44531C235.297 8.21615 234.992 9.28125 234.992 10.6406V12.0312C234.992 13.3438 235.289 14.3906 235.883 15.1719C236.482 15.9531 237.289 16.3438 238.305 16.3438C239.31 16.3438 240.068 16.1042 240.578 15.625C241.089 15.1406 241.404 14.4167 241.523 13.4531H242.492ZM245.656 17H244.719V5H245.656V17ZM251.477 17.1562C250.758 17.1562 250.107 16.9792 249.523 16.625C248.945 16.2708 248.495 15.7786 248.172 15.1484C247.849 14.513 247.688 13.8021 247.688 13.0156V12.6797C247.688 11.8672 247.844 11.1354 248.156 10.4844C248.474 9.83333 248.914 9.32292 249.477 8.95312C250.039 8.57812 250.648 8.39062 251.305 8.39062C252.331 8.39062 253.143 8.74219 253.742 9.44531C254.346 10.1432 254.648 11.099 254.648 12.3125V12.8359H248.617V13.0156C248.617 13.974 248.891 14.7734 249.438 15.4141C249.99 16.0495 250.682 16.3672 251.516 16.3672C252.016 16.3672 252.456 16.276 252.836 16.0938C253.221 15.9115 253.57 15.6198 253.883 15.2188L254.469 15.6641C253.781 16.6589 252.784 17.1562 251.477 17.1562ZM251.305 9.1875C250.602 9.1875 250.008 9.44531 249.523 9.96094C249.044 10.4766 248.753 11.1693 248.648 12.0391H253.719V11.9375C253.693 11.125 253.461 10.4635 253.023 9.95312C252.586 9.44271 252.013 9.1875 251.305 9.1875ZM261.805 17C261.711 16.7344 261.651 16.3411 261.625 15.8203C261.297 16.2474 260.878 16.5781 260.367 16.8125C259.862 17.0417 259.326 17.1562 258.758 17.1562C257.945 17.1562 257.286 16.9297 256.781 16.4766C256.281 16.0234 256.031 15.4505 256.031 14.7578C256.031 13.9349 256.372 13.2839 257.055 12.8047C257.742 12.3255 258.698 12.0859 259.922 12.0859H261.617V11.125C261.617 10.5208 261.43 10.0469 261.055 9.70312C260.685 9.35417 260.143 9.17969 259.43 9.17969C258.779 9.17969 258.24 9.34635 257.812 9.67969C257.385 10.013 257.172 10.4141 257.172 10.8828L256.234 10.875C256.234 10.2031 256.547 9.6224 257.172 9.13281C257.797 8.63802 258.565 8.39062 259.477 8.39062C260.419 8.39062 261.161 8.6276 261.703 9.10156C262.25 9.57031 262.531 10.2266 262.547 11.0703V15.0703C262.547 15.888 262.633 16.5 262.805 16.9062V17H261.805ZM258.867 16.3281C259.492 16.3281 260.049 16.1771 260.539 15.875C261.034 15.5729 261.393 15.1693 261.617 14.6641V12.8047H259.945C259.013 12.8151 258.284 12.987 257.758 13.3203C257.232 13.6484 256.969 14.1016 256.969 14.6797C256.969 15.1536 257.143 15.5469 257.492 15.8594C257.846 16.1719 258.305 16.3281 258.867 16.3281ZM268.953 9.34375C268.755 9.30729 268.544 9.28906 268.32 9.28906C267.737 9.28906 267.242 9.45312 266.836 9.78125C266.435 10.1042 266.148 10.5755 265.977 11.1953V17H265.047V8.54688H265.961L265.977 9.89062C266.471 8.89062 267.266 8.39062 268.359 8.39062C268.62 8.39062 268.826 8.42448 268.977 8.49219L268.953 9.34375ZM277.977 15.5938L278.039 15.8359L278.109 15.5938L281.688 5.625H282.742L278.508 17H277.586L273.352 5.625H274.398L277.977 15.5938ZM285.25 17H284.312V8.54688H285.25V17ZM284.148 6.10156C284.148 5.92448 284.206 5.77604 284.32 5.65625C284.435 5.53125 284.591 5.46875 284.789 5.46875C284.987 5.46875 285.143 5.53125 285.258 5.65625C285.378 5.77604 285.438 5.92448 285.438 6.10156C285.438 6.27865 285.378 6.42708 285.258 6.54688C285.143 6.66667 284.987 6.72656 284.789 6.72656C284.591 6.72656 284.435 6.66667 284.32 6.54688C284.206 6.42708 284.148 6.27865 284.148 6.10156ZM292.859 14.8516C292.859 14.388 292.672 14.0156 292.297 13.7344C291.927 13.4531 291.367 13.2344 290.617 13.0781C289.867 12.9167 289.284 12.7344 288.867 12.5312C288.456 12.3229 288.148 12.0703 287.945 11.7734C287.747 11.4766 287.648 11.1172 287.648 10.6953C287.648 10.0286 287.927 9.47917 288.484 9.04688C289.042 8.60938 289.755 8.39062 290.625 8.39062C291.568 8.39062 292.323 8.625 292.891 9.09375C293.464 9.55729 293.75 10.1641 293.75 10.9141H292.812C292.812 10.4193 292.604 10.0078 292.188 9.67969C291.776 9.35156 291.255 9.1875 290.625 9.1875C290.01 9.1875 289.516 9.32552 289.141 9.60156C288.771 9.8724 288.586 10.2266 288.586 10.6641C288.586 11.0859 288.74 11.4141 289.047 11.6484C289.359 11.8776 289.924 12.0885 290.742 12.2812C291.565 12.474 292.18 12.6797 292.586 12.8984C292.997 13.1172 293.302 13.3802 293.5 13.6875C293.698 13.9948 293.797 14.3672 293.797 14.8047C293.797 15.5182 293.508 16.0885 292.93 16.5156C292.357 16.9427 291.607 17.1562 290.68 17.1562C289.695 17.1562 288.896 16.9193 288.281 16.4453C287.672 15.9661 287.367 15.362 287.367 14.6328H288.305C288.341 15.1797 288.57 15.6068 288.992 15.9141C289.419 16.2161 289.982 16.3672 290.68 16.3672C291.331 16.3672 291.857 16.224 292.258 15.9375C292.659 15.651 292.859 15.2891 292.859 14.8516ZM301.344 15.9297C300.781 16.7474 299.883 17.1562 298.648 17.1562C297.747 17.1562 297.062 16.8958 296.594 16.375C296.125 15.849 295.885 15.0729 295.875 14.0469V8.54688H296.805V13.9297C296.805 15.5391 297.456 16.3438 298.758 16.3438C300.112 16.3438 300.969 15.7839 301.328 14.6641V8.54688H302.266V17H301.359L301.344 15.9297ZM310.039 17C309.945 16.7344 309.885 16.3411 309.859 15.8203C309.531 16.2474 309.112 16.5781 308.602 16.8125C308.096 17.0417 307.56 17.1562 306.992 17.1562C306.18 17.1562 305.521 16.9297 305.016 16.4766C304.516 16.0234 304.266 15.4505 304.266 14.7578C304.266 13.9349 304.607 13.2839 305.289 12.8047C305.977 12.3255 306.932 12.0859 308.156 12.0859H309.852V11.125C309.852 10.5208 309.664 10.0469 309.289 9.70312C308.919 9.35417 308.378 9.17969 307.664 9.17969C307.013 9.17969 306.474 9.34635 306.047 9.67969C305.62 10.013 305.406 10.4141 305.406 10.8828L304.469 10.875C304.469 10.2031 304.781 9.6224 305.406 9.13281C306.031 8.63802 306.799 8.39062 307.711 8.39062C308.654 8.39062 309.396 8.6276 309.938 9.10156C310.484 9.57031 310.766 10.2266 310.781 11.0703V15.0703C310.781 15.888 310.867 16.5 311.039 16.9062V17H310.039ZM307.102 16.3281C307.727 16.3281 308.284 16.1771 308.773 15.875C309.268 15.5729 309.628 15.1693 309.852 14.6641V12.8047H308.18C307.247 12.8151 306.518 12.987 305.992 13.3203C305.466 13.6484 305.203 14.1016 305.203 14.6797C305.203 15.1536 305.378 15.5469 305.727 15.8594C306.081 16.1719 306.539 16.3281 307.102 16.3281ZM314.328 17H313.391V5H314.328V17ZM329.414 17H328.445V11.5469H321.945V17H320.984V5.625H321.945V10.7344H328.445V5.625H329.414V17ZM333.141 17H332.203V8.54688H333.141V17ZM332.039 6.10156C332.039 5.92448 332.096 5.77604 332.211 5.65625C332.326 5.53125 332.482 5.46875 332.68 5.46875C332.878 5.46875 333.034 5.53125 333.148 5.65625C333.268 5.77604 333.328 5.92448 333.328 6.10156C333.328 6.27865 333.268 6.42708 333.148 6.54688C333.034 6.66667 332.878 6.72656 332.68 6.72656C332.482 6.72656 332.326 6.66667 332.211 6.54688C332.096 6.42708 332.039 6.27865 332.039 6.10156ZM338.961 17.1562C338.242 17.1562 337.591 16.9792 337.008 16.625C336.43 16.2708 335.979 15.7786 335.656 15.1484C335.333 14.513 335.172 13.8021 335.172 13.0156V12.6797C335.172 11.8672 335.328 11.1354 335.641 10.4844C335.958 9.83333 336.398 9.32292 336.961 8.95312C337.523 8.57812 338.133 8.39062 338.789 8.39062C339.815 8.39062 340.628 8.74219 341.227 9.44531C341.831 10.1432 342.133 11.099 342.133 12.3125V12.8359H336.102V13.0156C336.102 13.974 336.375 14.7734 336.922 15.4141C337.474 16.0495 338.167 16.3672 339 16.3672C339.5 16.3672 339.94 16.276 340.32 16.0938C340.706 15.9115 341.055 15.6198 341.367 15.2188L341.953 15.6641C341.266 16.6589 340.268 17.1562 338.961 17.1562ZM338.789 9.1875C338.086 9.1875 337.492 9.44531 337.008 9.96094C336.529 10.4766 336.237 11.1693 336.133 12.0391H341.203V11.9375C341.177 11.125 340.945 10.4635 340.508 9.95312C340.07 9.44271 339.497 9.1875 338.789 9.1875ZM347.859 9.34375C347.661 9.30729 347.451 9.28906 347.227 9.28906C346.643 9.28906 346.148 9.45312 345.742 9.78125C345.341 10.1042 345.055 10.5755 344.883 11.1953V17H343.953V8.54688H344.867L344.883 9.89062C345.378 8.89062 346.172 8.39062 347.266 8.39062C347.526 8.39062 347.732 8.42448 347.883 8.49219L347.859 9.34375ZM354.367 17C354.273 16.7344 354.214 16.3411 354.188 15.8203C353.859 16.2474 353.44 16.5781 352.93 16.8125C352.424 17.0417 351.888 17.1562 351.32 17.1562C350.508 17.1562 349.849 16.9297 349.344 16.4766C348.844 16.0234 348.594 15.4505 348.594 14.7578C348.594 13.9349 348.935 13.2839 349.617 12.8047C350.305 12.3255 351.26 12.0859 352.484 12.0859H354.18V11.125C354.18 10.5208 353.992 10.0469 353.617 9.70312C353.247 9.35417 352.706 9.17969 351.992 9.17969C351.341 9.17969 350.802 9.34635 350.375 9.67969C349.948 10.013 349.734 10.4141 349.734 10.8828L348.797 10.875C348.797 10.2031 349.109 9.6224 349.734 9.13281C350.359 8.63802 351.128 8.39062 352.039 8.39062C352.982 8.39062 353.724 8.6276 354.266 9.10156C354.812 9.57031 355.094 10.2266 355.109 11.0703V15.0703C355.109 15.888 355.195 16.5 355.367 16.9062V17H354.367ZM351.43 16.3281C352.055 16.3281 352.612 16.1771 353.102 15.875C353.596 15.5729 353.956 15.1693 354.18 14.6641V12.8047H352.508C351.576 12.8151 350.846 12.987 350.32 13.3203C349.794 13.6484 349.531 14.1016 349.531 14.6797C349.531 15.1536 349.706 15.5469 350.055 15.8594C350.409 16.1719 350.867 16.3281 351.43 16.3281ZM361.516 9.34375C361.318 9.30729 361.107 9.28906 360.883 9.28906C360.299 9.28906 359.805 9.45312 359.398 9.78125C358.997 10.1042 358.711 10.5755 358.539 11.1953V17H357.609V8.54688H358.523L358.539 9.89062C359.034 8.89062 359.828 8.39062 360.922 8.39062C361.182 8.39062 361.388 8.42448 361.539 8.49219L361.516 9.34375ZM365.969 16.3672C366.62 16.3672 367.164 16.1849 367.602 15.8203C368.044 15.4505 368.284 14.974 368.32 14.3906H369.219C369.193 14.9062 369.031 15.3776 368.734 15.8047C368.438 16.2266 368.042 16.5573 367.547 16.7969C367.057 17.0365 366.531 17.1562 365.969 17.1562C364.859 17.1562 363.979 16.7708 363.328 16C362.682 15.2292 362.359 14.1927 362.359 12.8906V12.6094C362.359 11.776 362.505 11.0391 362.797 10.3984C363.089 9.75781 363.505 9.26302 364.047 8.91406C364.594 8.5651 365.232 8.39062 365.961 8.39062C366.888 8.39062 367.651 8.66667 368.25 9.21875C368.854 9.77083 369.177 10.4974 369.219 11.3984H368.32C368.279 10.737 368.039 10.2031 367.602 9.79688C367.169 9.39062 366.622 9.1875 365.961 9.1875C365.117 9.1875 364.461 9.49219 363.992 10.1016C363.529 10.7109 363.297 11.5651 363.297 12.6641V12.9375C363.297 14.0156 363.529 14.8568 363.992 15.4609C364.461 16.0651 365.12 16.3672 365.969 16.3672ZM372.023 9.97656C372.331 9.47135 372.724 9.08073 373.203 8.80469C373.682 8.52865 374.206 8.39062 374.773 8.39062C375.68 8.39062 376.354 8.64583 376.797 9.15625C377.24 9.66667 377.464 10.4323 377.469 11.4531V17H376.539V11.4453C376.534 10.6901 376.372 10.1276 376.055 9.75781C375.742 9.38802 375.24 9.20312 374.547 9.20312C373.969 9.20312 373.456 9.38542 373.008 9.75C372.565 10.1094 372.237 10.5964 372.023 11.2109V17H371.094V5H372.023V9.97656ZM382.555 15.6562L385.023 8.54688H386.031L382.422 18.4375L382.234 18.875C381.771 19.901 381.055 20.4141 380.086 20.4141C379.862 20.4141 379.622 20.3776 379.367 20.3047L379.359 19.5312L379.844 19.5781C380.302 19.5781 380.672 19.4635 380.953 19.2344C381.24 19.0104 381.482 18.6224 381.68 18.0703L382.094 16.9297L378.906 8.54688H379.93L382.555 15.6562Z" fill="black"/>
<path d="M429.688 12.2656H426.383V17H425.414V5.625H429.109C430.323 5.625 431.271 5.91927 431.953 6.50781C432.635 7.09635 432.977 7.91927 432.977 8.97656C432.977 9.70573 432.763 10.349 432.336 10.9062C431.909 11.4635 431.336 11.849 430.617 12.0625L433.461 16.8984V17H432.438L429.688 12.2656ZM426.383 11.4453H429.328C430.135 11.4453 430.784 11.2161 431.273 10.7578C431.763 10.2995 432.008 9.70573 432.008 8.97656C432.008 8.17448 431.753 7.55208 431.242 7.10938C430.732 6.66667 430.016 6.44531 429.094 6.44531H426.383V11.4453ZM438.648 17.1562C437.93 17.1562 437.279 16.9792 436.695 16.625C436.117 16.2708 435.667 15.7786 435.344 15.1484C435.021 14.513 434.859 13.8021 434.859 13.0156V12.6797C434.859 11.8672 435.016 11.1354 435.328 10.4844C435.646 9.83333 436.086 9.32292 436.648 8.95312C437.211 8.57812 437.82 8.39062 438.477 8.39062C439.503 8.39062 440.315 8.74219 440.914 9.44531C441.518 10.1432 441.82 11.099 441.82 12.3125V12.8359H435.789V13.0156C435.789 13.974 436.062 14.7734 436.609 15.4141C437.161 16.0495 437.854 16.3672 438.688 16.3672C439.188 16.3672 439.628 16.276 440.008 16.0938C440.393 15.9115 440.742 15.6198 441.055 15.2188L441.641 15.6641C440.953 16.6589 439.956 17.1562 438.648 17.1562ZM438.477 9.1875C437.773 9.1875 437.18 9.44531 436.695 9.96094C436.216 10.4766 435.924 11.1693 435.82 12.0391H440.891V11.9375C440.865 11.125 440.633 10.4635 440.195 9.95312C439.758 9.44271 439.185 9.1875 438.477 9.1875ZM444.688 17H443.75V5H444.688V17ZM450.508 17.1562C449.789 17.1562 449.138 16.9792 448.555 16.625C447.977 16.2708 447.526 15.7786 447.203 15.1484C446.88 14.513 446.719 13.8021 446.719 13.0156V12.6797C446.719 11.8672 446.875 11.1354 447.188 10.4844C447.505 9.83333 447.945 9.32292 448.508 8.95312C449.07 8.57812 449.68 8.39062 450.336 8.39062C451.362 8.39062 452.174 8.74219 452.773 9.44531C453.378 10.1432 453.68 11.099 453.68 12.3125V12.8359H447.648V13.0156C447.648 13.974 447.922 14.7734 448.469 15.4141C449.021 16.0495 449.714 16.3672 450.547 16.3672C451.047 16.3672 451.487 16.276 451.867 16.0938C452.253 15.9115 452.602 15.6198 452.914 15.2188L453.5 15.6641C452.812 16.6589 451.815 17.1562 450.508 17.1562ZM450.336 9.1875C449.633 9.1875 449.039 9.44531 448.555 9.96094C448.076 10.4766 447.784 11.1693 447.68 12.0391H452.75V11.9375C452.724 11.125 452.492 10.4635 452.055 9.95312C451.617 9.44271 451.044 9.1875 450.336 9.1875ZM458.023 15.7109L460.594 8.54688H461.555L458.398 17H457.641L454.469 8.54688H455.43L458.023 15.7109ZM468.305 17C468.211 16.7344 468.151 16.3411 468.125 15.8203C467.797 16.2474 467.378 16.5781 466.867 16.8125C466.362 17.0417 465.826 17.1562 465.258 17.1562C464.445 17.1562 463.786 16.9297 463.281 16.4766C462.781 16.0234 462.531 15.4505 462.531 14.7578C462.531 13.9349 462.872 13.2839 463.555 12.8047C464.242 12.3255 465.198 12.0859 466.422 12.0859H468.117V11.125C468.117 10.5208 467.93 10.0469 467.555 9.70312C467.185 9.35417 466.643 9.17969 465.93 9.17969C465.279 9.17969 464.74 9.34635 464.312 9.67969C463.885 10.013 463.672 10.4141 463.672 10.8828L462.734 10.875C462.734 10.2031 463.047 9.6224 463.672 9.13281C464.297 8.63802 465.065 8.39062 465.977 8.39062C466.919 8.39062 467.661 8.6276 468.203 9.10156C468.75 9.57031 469.031 10.2266 469.047 11.0703V15.0703C469.047 15.888 469.133 16.5 469.305 16.9062V17H468.305ZM465.367 16.3281C465.992 16.3281 466.549 16.1771 467.039 15.875C467.534 15.5729 467.893 15.1693 468.117 14.6641V12.8047H466.445C465.513 12.8151 464.784 12.987 464.258 13.3203C463.732 13.6484 463.469 14.1016 463.469 14.6797C463.469 15.1536 463.643 15.5469 463.992 15.8594C464.346 16.1719 464.805 16.3281 465.367 16.3281ZM472.438 8.54688L472.469 9.99219C472.786 9.47135 473.182 9.07552 473.656 8.80469C474.13 8.52865 474.654 8.39062 475.227 8.39062C476.133 8.39062 476.807 8.64583 477.25 9.15625C477.693 9.66667 477.917 10.4323 477.922 11.4531V17H476.992V11.4453C476.987 10.6901 476.826 10.1276 476.508 9.75781C476.195 9.38802 475.693 9.20312 475 9.20312C474.422 9.20312 473.909 9.38542 473.461 9.75C473.018 10.1094 472.69 10.5964 472.477 11.2109V17H471.547V8.54688H472.438ZM481.797 6.38281V8.54688H483.547V9.3125H481.797V14.9453C481.797 15.4141 481.88 15.763 482.047 15.9922C482.219 16.2214 482.503 16.3359 482.898 16.3359C483.055 16.3359 483.307 16.3099 483.656 16.2578L483.695 17.0234C483.451 17.112 483.117 17.1562 482.695 17.1562C482.055 17.1562 481.589 16.9714 481.297 16.6016C481.005 16.2266 480.859 15.6771 480.859 14.9531V9.3125H479.305V8.54688H480.859V6.38281H481.797ZM497.648 13.4531C497.518 14.651 497.089 15.5677 496.359 16.2031C495.635 16.8385 494.669 17.1562 493.461 17.1562C492.617 17.1562 491.87 16.9453 491.219 16.5234C490.573 16.1016 490.073 15.5052 489.719 14.7344C489.365 13.9583 489.185 13.0729 489.18 12.0781V10.6016C489.18 9.59115 489.357 8.69531 489.711 7.91406C490.065 7.13281 490.573 6.53125 491.234 6.10938C491.901 5.68229 492.667 5.46875 493.531 5.46875C494.75 5.46875 495.711 5.79948 496.414 6.46094C497.122 7.11719 497.534 8.02604 497.648 9.1875H496.68C496.44 7.25521 495.391 6.28906 493.531 6.28906C492.5 6.28906 491.677 6.67448 491.062 7.44531C490.453 8.21615 490.148 9.28125 490.148 10.6406V12.0312C490.148 13.3438 490.445 14.3906 491.039 15.1719C491.638 15.9531 492.445 16.3438 493.461 16.3438C494.466 16.3438 495.224 16.1042 495.734 15.625C496.245 15.1406 496.56 14.4167 496.68 13.4531H497.648ZM499.25 12.6484C499.25 11.8359 499.406 11.1042 499.719 10.4531C500.036 9.80208 500.482 9.29688 501.055 8.9375C501.633 8.57292 502.286 8.39062 503.016 8.39062C504.141 8.39062 505.052 8.78646 505.75 9.57812C506.448 10.3646 506.797 11.4089 506.797 12.7109V12.9062C506.797 13.724 506.638 14.4609 506.32 15.1172C506.008 15.7682 505.565 16.2708 504.992 16.625C504.419 16.9792 503.766 17.1562 503.031 17.1562C501.911 17.1562 501 16.763 500.297 15.9766C499.599 15.1849 499.25 14.138 499.25 12.8359V12.6484ZM500.188 12.9062C500.188 13.9167 500.448 14.7474 500.969 15.3984C501.495 16.0443 502.182 16.3672 503.031 16.3672C503.875 16.3672 504.557 16.0443 505.078 15.3984C505.604 14.7474 505.867 13.8906 505.867 12.8281V12.6484C505.867 12.0026 505.747 11.4115 505.508 10.875C505.268 10.3385 504.932 9.92448 504.5 9.63281C504.068 9.33594 503.573 9.1875 503.016 9.1875C502.182 9.1875 501.503 9.51562 500.977 10.1719C500.451 10.8229 500.188 11.6771 500.188 12.7344V12.9062ZM509.625 8.54688L509.656 9.99219C509.974 9.47135 510.37 9.07552 510.844 8.80469C511.318 8.52865 511.841 8.39062 512.414 8.39062C513.32 8.39062 513.995 8.64583 514.438 9.15625C514.88 9.66667 515.104 10.4323 515.109 11.4531V17H514.18V11.4453C514.174 10.6901 514.013 10.1276 513.695 9.75781C513.383 9.38802 512.88 9.20312 512.188 9.20312C511.609 9.20312 511.096 9.38542 510.648 9.75C510.206 10.1094 509.878 10.5964 509.664 11.2109V17H508.734V8.54688H509.625ZM518.984 6.38281V8.54688H520.734V9.3125H518.984V14.9453C518.984 15.4141 519.068 15.763 519.234 15.9922C519.406 16.2214 519.69 16.3359 520.086 16.3359C520.242 16.3359 520.495 16.3099 520.844 16.2578L520.883 17.0234C520.638 17.112 520.305 17.1562 519.883 17.1562C519.242 17.1562 518.776 16.9714 518.484 16.6016C518.193 16.2266 518.047 15.6771 518.047 14.9531V9.3125H516.492V8.54688H518.047V6.38281H518.984ZM525.945 17.1562C525.227 17.1562 524.576 16.9792 523.992 16.625C523.414 16.2708 522.964 15.7786 522.641 15.1484C522.318 14.513 522.156 13.8021 522.156 13.0156V12.6797C522.156 11.8672 522.312 11.1354 522.625 10.4844C522.943 9.83333 523.383 9.32292 523.945 8.95312C524.508 8.57812 525.117 8.39062 525.773 8.39062C526.799 8.39062 527.612 8.74219 528.211 9.44531C528.815 10.1432 529.117 11.099 529.117 12.3125V12.8359H523.086V13.0156C523.086 13.974 523.359 14.7734 523.906 15.4141C524.458 16.0495 525.151 16.3672 525.984 16.3672C526.484 16.3672 526.924 16.276 527.305 16.0938C527.69 15.9115 528.039 15.6198 528.352 15.2188L528.938 15.6641C528.25 16.6589 527.253 17.1562 525.945 17.1562ZM525.773 9.1875C525.07 9.1875 524.477 9.44531 523.992 9.96094C523.513 10.4766 523.221 11.1693 523.117 12.0391H528.188V11.9375C528.161 11.125 527.93 10.4635 527.492 9.95312C527.055 9.44271 526.482 9.1875 525.773 9.1875ZM531.828 8.54688L531.859 9.99219C532.177 9.47135 532.573 9.07552 533.047 8.80469C533.521 8.52865 534.044 8.39062 534.617 8.39062C535.523 8.39062 536.198 8.64583 536.641 9.15625C537.083 9.66667 537.307 10.4323 537.312 11.4531V17H536.383V11.4453C536.378 10.6901 536.216 10.1276 535.898 9.75781C535.586 9.38802 535.083 9.20312 534.391 9.20312C533.812 9.20312 533.299 9.38542 532.852 9.75C532.409 10.1094 532.081 10.5964 531.867 11.2109V17H530.938V8.54688H531.828ZM541.188 6.38281V8.54688H542.938V9.3125H541.188V14.9453C541.188 15.4141 541.271 15.763 541.438 15.9922C541.609 16.2214 541.893 16.3359 542.289 16.3359C542.445 16.3359 542.698 16.3099 543.047 16.2578L543.086 17.0234C542.841 17.112 542.508 17.1562 542.086 17.1562C541.445 17.1562 540.979 16.9714 540.688 16.6016C540.396 16.2266 540.25 15.6771 540.25 14.9531V9.3125H538.695V8.54688H540.25V6.38281H541.188Z" fill="black"/>
<path d="M588.719 11.5469H583.398V16.1875H589.516V17H582.438V5.625H589.477V6.44531H583.398V10.7344H588.719V11.5469ZM592.219 8.54688L592.25 9.99219C592.568 9.47135 592.964 9.07552 593.438 8.80469C593.911 8.52865 594.435 8.39062 595.008 8.39062C595.914 8.39062 596.589 8.64583 597.031 9.15625C597.474 9.66667 597.698 10.4323 597.703 11.4531V17H596.773V11.4453C596.768 10.6901 596.607 10.1276 596.289 9.75781C595.977 9.38802 595.474 9.20312 594.781 9.20312C594.203 9.20312 593.69 9.38542 593.242 9.75C592.799 10.1094 592.471 10.5964 592.258 11.2109V17H591.328V8.54688H592.219ZM599.75 12.6953C599.75 11.3724 600.042 10.3255 600.625 9.55469C601.214 8.77865 602.01 8.39062 603.016 8.39062C604.167 8.39062 605.042 8.84896 605.641 9.76562L605.688 8.54688H606.562V16.8281C606.562 17.9167 606.258 18.7786 605.648 19.4141C605.039 20.0495 604.214 20.3672 603.172 20.3672C602.583 20.3672 602.021 20.2344 601.484 19.9688C600.953 19.7083 600.534 19.3594 600.227 18.9219L600.75 18.3594C601.411 19.1719 602.198 19.5781 603.109 19.5781C603.891 19.5781 604.5 19.3464 604.938 18.8828C605.375 18.4245 605.602 17.7865 605.617 16.9688V15.9062C605.018 16.7396 604.146 17.1562 603 17.1562C602.021 17.1562 601.234 16.7656 600.641 15.9844C600.047 15.2031 599.75 14.1484 599.75 12.8203V12.6953ZM600.695 12.8594C600.695 13.9375 600.911 14.7891 601.344 15.4141C601.776 16.0339 602.385 16.3438 603.172 16.3438C604.323 16.3438 605.138 15.8281 605.617 14.7969V10.8672C605.398 10.3255 605.083 9.91406 604.672 9.63281C604.26 9.34635 603.766 9.20312 603.188 9.20312C602.401 9.20312 601.789 9.51302 601.352 10.1328C600.914 10.7474 600.695 11.6562 600.695 12.8594ZM614.336 17C614.242 16.7344 614.182 16.3411 614.156 15.8203C613.828 16.2474 613.409 16.5781 612.898 16.8125C612.393 17.0417 611.857 17.1562 611.289 17.1562C610.477 17.1562 609.818 16.9297 609.312 16.4766C608.812 16.0234 608.562 15.4505 608.562 14.7578C608.562 13.9349 608.904 13.2839 609.586 12.8047C610.273 12.3255 611.229 12.0859 612.453 12.0859H614.148V11.125C614.148 10.5208 613.961 10.0469 613.586 9.70312C613.216 9.35417 612.674 9.17969 611.961 9.17969C611.31 9.17969 610.771 9.34635 610.344 9.67969C609.917 10.013 609.703 10.4141 609.703 10.8828L608.766 10.875C608.766 10.2031 609.078 9.6224 609.703 9.13281C610.328 8.63802 611.096 8.39062 612.008 8.39062C612.951 8.39062 613.693 8.6276 614.234 9.10156C614.781 9.57031 615.062 10.2266 615.078 11.0703V15.0703C615.078 15.888 615.164 16.5 615.336 16.9062V17H614.336ZM611.398 16.3281C612.023 16.3281 612.581 16.1771 613.07 15.875C613.565 15.5729 613.924 15.1693 614.148 14.6641V12.8047H612.477C611.544 12.8151 610.815 12.987 610.289 13.3203C609.763 13.6484 609.5 14.1016 609.5 14.6797C609.5 15.1536 609.674 15.5469 610.023 15.8594C610.378 16.1719 610.836 16.3281 611.398 16.3281ZM617.203 12.6953C617.203 11.3724 617.495 10.3255 618.078 9.55469C618.667 8.77865 619.464 8.39062 620.469 8.39062C621.62 8.39062 622.495 8.84896 623.094 9.76562L623.141 8.54688H624.016V16.8281C624.016 17.9167 623.711 18.7786 623.102 19.4141C622.492 20.0495 621.667 20.3672 620.625 20.3672C620.036 20.3672 619.474 20.2344 618.938 19.9688C618.406 19.7083 617.987 19.3594 617.68 18.9219L618.203 18.3594C618.865 19.1719 619.651 19.5781 620.562 19.5781C621.344 19.5781 621.953 19.3464 622.391 18.8828C622.828 18.4245 623.055 17.7865 623.07 16.9688V15.9062C622.471 16.7396 621.599 17.1562 620.453 17.1562C619.474 17.1562 618.688 16.7656 618.094 15.9844C617.5 15.2031 617.203 14.1484 617.203 12.8203V12.6953ZM618.148 12.8594C618.148 13.9375 618.365 14.7891 618.797 15.4141C619.229 16.0339 619.839 16.3438 620.625 16.3438C621.776 16.3438 622.591 15.8281 623.07 14.7969V10.8672C622.852 10.3255 622.536 9.91406 622.125 9.63281C621.714 9.34635 621.219 9.20312 620.641 9.20312C619.854 9.20312 619.242 9.51302 618.805 10.1328C618.367 10.7474 618.148 11.6562 618.148 12.8594ZM627.5 17H626.562V8.54688H627.5V17ZM626.398 6.10156C626.398 5.92448 626.456 5.77604 626.57 5.65625C626.685 5.53125 626.841 5.46875 627.039 5.46875C627.237 5.46875 627.393 5.53125 627.508 5.65625C627.628 5.77604 627.688 5.92448 627.688 6.10156C627.688 6.27865 627.628 6.42708 627.508 6.54688C627.393 6.66667 627.237 6.72656 627.039 6.72656C626.841 6.72656 626.685 6.66667 626.57 6.54688C626.456 6.42708 626.398 6.27865 626.398 6.10156ZM630.938 8.54688L630.969 9.99219C631.286 9.47135 631.682 9.07552 632.156 8.80469C632.63 8.52865 633.154 8.39062 633.727 8.39062C634.633 8.39062 635.307 8.64583 635.75 9.15625C636.193 9.66667 636.417 10.4323 636.422 11.4531V17H635.492V11.4453C635.487 10.6901 635.326 10.1276 635.008 9.75781C634.695 9.38802 634.193 9.20312 633.5 9.20312C632.922 9.20312 632.409 9.38542 631.961 9.75C631.518 10.1094 631.19 10.5964 630.977 11.2109V17H630.047V8.54688H630.938ZM638.469 12.6953C638.469 11.3724 638.76 10.3255 639.344 9.55469C639.932 8.77865 640.729 8.39062 641.734 8.39062C642.885 8.39062 643.76 8.84896 644.359 9.76562L644.406 8.54688H645.281V16.8281C645.281 17.9167 644.977 18.7786 644.367 19.4141C643.758 20.0495 642.932 20.3672 641.891 20.3672C641.302 20.3672 640.74 20.2344 640.203 19.9688C639.672 19.7083 639.253 19.3594 638.945 18.9219L639.469 18.3594C640.13 19.1719 640.917 19.5781 641.828 19.5781C642.609 19.5781 643.219 19.3464 643.656 18.8828C644.094 18.4245 644.32 17.7865 644.336 16.9688V15.9062C643.737 16.7396 642.865 17.1562 641.719 17.1562C640.74 17.1562 639.953 16.7656 639.359 15.9844C638.766 15.2031 638.469 14.1484 638.469 12.8203V12.6953ZM639.414 12.8594C639.414 13.9375 639.63 14.7891 640.062 15.4141C640.495 16.0339 641.104 16.3438 641.891 16.3438C643.042 16.3438 643.857 15.8281 644.336 14.7969V10.8672C644.117 10.3255 643.802 9.91406 643.391 9.63281C642.979 9.34635 642.484 9.20312 641.906 9.20312C641.12 9.20312 640.508 9.51302 640.07 10.1328C639.633 10.7474 639.414 11.6562 639.414 12.8594ZM653 17H652.039V5.625H653V17ZM656.766 8.54688L656.797 9.99219C657.115 9.47135 657.51 9.07552 657.984 8.80469C658.458 8.52865 658.982 8.39062 659.555 8.39062C660.461 8.39062 661.135 8.64583 661.578 9.15625C662.021 9.66667 662.245 10.4323 662.25 11.4531V17H661.32V11.4453C661.315 10.6901 661.154 10.1276 660.836 9.75781C660.523 9.38802 660.021 9.20312 659.328 9.20312C658.75 9.20312 658.237 9.38542 657.789 9.75C657.346 10.1094 657.018 10.5964 656.805 11.2109V17H655.875V8.54688H656.766ZM666.125 6.38281V8.54688H667.875V9.3125H666.125V14.9453C666.125 15.4141 666.208 15.763 666.375 15.9922C666.547 16.2214 666.831 16.3359 667.227 16.3359C667.383 16.3359 667.635 16.3099 667.984 16.2578L668.023 17.0234C667.779 17.112 667.445 17.1562 667.023 17.1562C666.383 17.1562 665.917 16.9714 665.625 16.6016C665.333 16.2266 665.188 15.6771 665.188 14.9531V9.3125H663.633V8.54688H665.188V6.38281H666.125ZM673.086 17.1562C672.367 17.1562 671.716 16.9792 671.133 16.625C670.555 16.2708 670.104 15.7786 669.781 15.1484C669.458 14.513 669.297 13.8021 669.297 13.0156V12.6797C669.297 11.8672 669.453 11.1354 669.766 10.4844C670.083 9.83333 670.523 9.32292 671.086 8.95312C671.648 8.57812 672.258 8.39062 672.914 8.39062C673.94 8.39062 674.753 8.74219 675.352 9.44531C675.956 10.1432 676.258 11.099 676.258 12.3125V12.8359H670.227V13.0156C670.227 13.974 670.5 14.7734 671.047 15.4141C671.599 16.0495 672.292 16.3672 673.125 16.3672C673.625 16.3672 674.065 16.276 674.445 16.0938C674.831 15.9115 675.18 15.6198 675.492 15.2188L676.078 15.6641C675.391 16.6589 674.393 17.1562 673.086 17.1562ZM672.914 9.1875C672.211 9.1875 671.617 9.44531 671.133 9.96094C670.654 10.4766 670.362 11.1693 670.258 12.0391H675.328V11.9375C675.302 11.125 675.07 10.4635 674.633 9.95312C674.195 9.44271 673.622 9.1875 672.914 9.1875ZM681.984 9.34375C681.786 9.30729 681.576 9.28906 681.352 9.28906C680.768 9.28906 680.273 9.45312 679.867 9.78125C679.466 10.1042 679.18 10.5755 679.008 11.1953V17H678.078V8.54688H678.992L679.008 9.89062C679.503 8.89062 680.297 8.39062 681.391 8.39062C681.651 8.39062 681.857 8.42448 682.008 8.49219L681.984 9.34375ZM688.492 17C688.398 16.7344 688.339 16.3411 688.312 15.8203C687.984 16.2474 687.565 16.5781 687.055 16.8125C686.549 17.0417 686.013 17.1562 685.445 17.1562C684.633 17.1562 683.974 16.9297 683.469 16.4766C682.969 16.0234 682.719 15.4505 682.719 14.7578C682.719 13.9349 683.06 13.2839 683.742 12.8047C684.43 12.3255 685.385 12.0859 686.609 12.0859H688.305V11.125C688.305 10.5208 688.117 10.0469 687.742 9.70312C687.372 9.35417 686.831 9.17969 686.117 9.17969C685.466 9.17969 684.927 9.34635 684.5 9.67969C684.073 10.013 683.859 10.4141 683.859 10.8828L682.922 10.875C682.922 10.2031 683.234 9.6224 683.859 9.13281C684.484 8.63802 685.253 8.39062 686.164 8.39062C687.107 8.39062 687.849 8.6276 688.391 9.10156C688.938 9.57031 689.219 10.2266 689.234 11.0703V15.0703C689.234 15.888 689.32 16.5 689.492 16.9062V17H688.492ZM685.555 16.3281C686.18 16.3281 686.737 16.1771 687.227 15.875C687.721 15.5729 688.081 15.1693 688.305 14.6641V12.8047H686.633C685.701 12.8151 684.971 12.987 684.445 13.3203C683.919 13.6484 683.656 14.1016 683.656 14.6797C683.656 15.1536 683.831 15.5469 684.18 15.8594C684.534 16.1719 684.992 16.3281 685.555 16.3281ZM694.859 16.3672C695.51 16.3672 696.055 16.1849 696.492 15.8203C696.935 15.4505 697.174 14.974 697.211 14.3906H698.109C698.083 14.9062 697.922 15.3776 697.625 15.8047C697.328 16.2266 696.932 16.5573 696.438 16.7969C695.948 17.0365 695.422 17.1562 694.859 17.1562C693.75 17.1562 692.87 16.7708 692.219 16C691.573 15.2292 691.25 14.1927 691.25 12.8906V12.6094C691.25 11.776 691.396 11.0391 691.688 10.3984C691.979 9.75781 692.396 9.26302 692.938 8.91406C693.484 8.5651 694.122 8.39062 694.852 8.39062C695.779 8.39062 696.542 8.66667 697.141 9.21875C697.745 9.77083 698.068 10.4974 698.109 11.3984H697.211C697.169 10.737 696.93 10.2031 696.492 9.79688C696.06 9.39062 695.513 9.1875 694.852 9.1875C694.008 9.1875 693.352 9.49219 692.883 10.1016C692.419 10.7109 692.188 11.5651 692.188 12.6641V12.9375C692.188 14.0156 692.419 14.8568 692.883 15.4609C693.352 16.0651 694.01 16.3672 694.859 16.3672ZM701.438 6.38281V8.54688H703.188V9.3125H701.438V14.9453C701.438 15.4141 701.521 15.763 701.688 15.9922C701.859 16.2214 702.143 16.3359 702.539 16.3359C702.695 16.3359 702.948 16.3099 703.297 16.2578L703.336 17.0234C703.091 17.112 702.758 17.1562 702.336 17.1562C701.695 17.1562 701.229 16.9714 700.938 16.6016C700.646 16.2266 700.5 15.6771 700.5 14.9531V9.3125H698.945V8.54688H700.5V6.38281H701.438ZM706.172 17H705.234V8.54688H706.172V17ZM705.07 6.10156C705.07 5.92448 705.128 5.77604 705.242 5.65625C705.357 5.53125 705.513 5.46875 705.711 5.46875C705.909 5.46875 706.065 5.53125 706.18 5.65625C706.299 5.77604 706.359 5.92448 706.359 6.10156C706.359 6.27865 706.299 6.42708 706.18 6.54688C706.065 6.66667 705.909 6.72656 705.711 6.72656C705.513 6.72656 705.357 6.66667 705.242 6.54688C705.128 6.42708 705.07 6.27865 705.07 6.10156ZM708.203 12.6484C708.203 11.8359 708.359 11.1042 708.672 10.4531C708.99 9.80208 709.435 9.29688 710.008 8.9375C710.586 8.57292 711.24 8.39062 711.969 8.39062C713.094 8.39062 714.005 8.78646 714.703 9.57812C715.401 10.3646 715.75 11.4089 715.75 12.7109V12.9062C715.75 13.724 715.591 14.4609 715.273 15.1172C714.961 15.7682 714.518 16.2708 713.945 16.625C713.372 16.9792 712.719 17.1562 711.984 17.1562C710.865 17.1562 709.953 16.763 709.25 15.9766C708.552 15.1849 708.203 14.138 708.203 12.8359V12.6484ZM709.141 12.9062C709.141 13.9167 709.401 14.7474 709.922 15.3984C710.448 16.0443 711.135 16.3672 711.984 16.3672C712.828 16.3672 713.51 16.0443 714.031 15.3984C714.557 14.7474 714.82 13.8906 714.82 12.8281V12.6484C714.82 12.0026 714.701 11.4115 714.461 10.875C714.221 10.3385 713.885 9.92448 713.453 9.63281C713.021 9.33594 712.526 9.1875 711.969 9.1875C711.135 9.1875 710.456 9.51562 709.93 10.1719C709.404 10.8229 709.141 11.6771 709.141 12.7344V12.9062ZM718.578 8.54688L718.609 9.99219C718.927 9.47135 719.323 9.07552 719.797 8.80469C720.271 8.52865 720.794 8.39062 721.367 8.39062C722.273 8.39062 722.948 8.64583 723.391 9.15625C723.833 9.66667 724.057 10.4323 724.062 11.4531V17H723.133V11.4453C723.128 10.6901 722.966 10.1276 722.648 9.75781C722.336 9.38802 721.833 9.20312 721.141 9.20312C720.562 9.20312 720.049 9.38542 719.602 9.75C719.159 10.1094 718.831 10.5964 718.617 11.2109V17H717.688V8.54688H718.578Z" fill="black"/>
</svg>
