<svg width="205" height="210" viewBox="0 0 205 210" fill="none" xmlns="http://www.w3.org/2000/svg">
<g clip-path="url(#clip0)">
<rect width="205" height="210" fill="white"/>
<path opacity="0.3" fill-rule="evenodd" clip-rule="evenodd" d="M194.45 95.8474C194.45 95.8474 204.792 56.7411 180.217 29.3916C150.411 -3.76819 119.803 47.8409 83.1259 25.5177C46.4484 3.19449 -26.9946 72.5699 20.469 147.331C67.9325 222.092 167.749 211.374 194.45 95.8474Z" fill="#FFCFEA"/>
<path d="M169.085 188.419C169.085 195.718 139.936 201.639 103.954 201.639C67.9715 201.639 38.8301 195.733 38.8301 188.419C38.8301 181.105 67.9789 175.2 103.954 175.2C139.929 175.2 169.085 181.116 169.085 188.419Z" fill="#EFEEFF"/>
<path d="M95.7874 184.913L131.921 187.033C135.566 187.56 139.094 185.872 139.621 182.241C139.875 180.491 139.422 178.713 138.364 177.297C137.305 175.88 135.727 174.942 133.976 174.687C133.976 174.687 105.621 167.768 98.3666 170.632C94.8244 172.029 95.7874 184.913 95.7874 184.913Z" fill="#F8BED7"/>
<path d="M100.208 184.527L64.0852 186.643C60.436 187.173 56.9087 185.485 56.381 181.85C56.2557 180.983 56.3026 180.1 56.5188 179.252C56.7351 178.403 57.1166 177.605 57.6415 176.904C58.1664 176.202 58.8245 175.611 59.5781 175.164C60.3317 174.716 61.1661 174.422 62.0337 174.297V174.297C62.0337 174.297 90.3856 167.377 97.6396 170.242C101.174 171.639 100.208 184.527 100.208 184.527Z" fill="#F8BED7"/>
<path d="M105.702 188.36C105.702 188.36 105.042 191.31 98.8726 189.304C97.869 188.983 97.8468 185.426 100.562 185.437C103.865 185.459 105.702 188.36 105.702 188.36Z" fill="#BB7970"/>
<path d="M107.345 189.998C110.4 190.646 115.573 193.408 118.093 191.542C120.613 189.677 114.138 183.908 102.652 182.061C101.666 181.902 99.9396 182.522 99.1426 185.084C99.1426 185.084 103.939 187.402 103.88 189.876C105.035 189.754 106.201 189.795 107.345 189.998V189.998Z" fill="#292929"/>
<path d="M99.1896 189.968L61.8717 186.779C58.2447 186.13 55.7578 183.063 56.4109 179.439C57.064 175.816 60.1965 173.755 63.8272 174.404L100.592 182.145L99.1896 189.968Z" fill="#FFCFEA"/>
<path d="M91.4746 189.197C91.4746 189.197 93.2789 192.449 98.308 190.13C99.2673 189.688 99.3264 186.248 96.6181 186.267C93.3158 186.281 91.4746 189.197 91.4746 189.197Z" fill="#FDE1B2"/>
<path d="M90.0832 191.678C86.958 192.508 81.7518 195.627 79.0473 193.828C76.3427 192.029 82.737 185.717 94.5441 183.229C95.5551 183.015 97.3668 183.561 98.3224 186.178C97.2198 186.485 96.2194 187.08 95.4252 187.904C94.6311 188.727 94.072 189.748 93.8062 190.86C93.8062 190.86 91.7584 191.232 90.0832 191.678Z" fill="#292929"/>
<path d="M96.9238 190.827L134.242 187.642C137.869 186.993 140.356 183.926 139.702 180.306C139.049 176.685 135.913 174.617 132.282 175.266L95.5254 183.008L96.9238 190.827Z" fill="#FFCFEA"/>
<path d="M97.0857 96.2583C97.0857 96.2583 87.1899 96.4316 85.6882 106.665C84.1864 116.899 84.6477 117.16 86.1125 120.954C87.5773 124.747 80.0429 127.482 79.1573 133.488C78.4452 138.28 81.5188 138.778 77.8327 150.077C75.3163 157.785 118.398 157.298 115.623 150.869C110.457 138.87 120.254 137.285 115.66 131.726C111.066 126.166 107.675 122.731 108.819 119.287C109.963 115.844 113.763 96.7339 97.0857 96.2583Z" fill="#292929"/>
<path d="M113.597 170.868C115.564 168.903 115.634 165.309 115.328 159.809C114.855 151.33 110.228 147.109 110.228 147.109C111.904 137.388 108.088 130.391 107.037 128.964C105.044 126.273 100.532 126.207 100.532 126.207H93.6247C93.6247 126.207 89.4 126.207 87.2821 129.156C86.0755 130.837 83.3304 136.223 84.6181 146.188C84.6181 146.188 80.1904 148.307 79.7366 157.921C79.4599 163.949 78.8068 168.981 80.8915 170.957C85.6106 175.406 107.675 176.785 113.597 170.868Z" fill="#BFB9FF"/>
<path d="M107.369 109.076C106.849 117.113 104.631 119.981 102.026 122.233C100.713 123.361 98.9454 123.28 97.2776 123.28C95.4032 123.28 94.3074 122.786 92.9274 121.805C90.0716 119.734 87.784 115.487 87.1678 109.024C86.5073 102.02 91.0088 97.25 97.4252 97.25C103.842 97.25 107.897 100.87 107.369 109.076Z" fill="#FDE1B2"/>
<path d="M113.734 155.551C114.406 158.19 116.756 159.975 119.416 159.381C123.003 158.596 123.914 156.082 123.08 153.483C121.737 149.302 117.996 140.779 116.328 136.525C113.199 128.537 107.152 126.1 103.635 126.752C103.318 126.808 103.51 129.315 105.716 132.466C108.1 135.858 108.358 137.259 109.989 142.095C111.709 147.194 112.875 152.17 113.734 155.551Z" fill="#FDE1B2"/>
<path d="M100.982 168.512C103.643 165.744 110.251 156.347 114.044 153.457C117.575 150.784 120.427 150.073 122.416 152.756C124.206 155.167 123.567 157.726 119.376 160.409L103.857 172.14L100.982 168.512Z" fill="#FDE1B2"/>
<path d="M99.7805 168.402C99.7805 168.402 95.9874 168.771 96.0649 170.124C96.1424 171.476 98.6477 170.839 98.6477 170.839C98.6477 170.839 93.0357 173.983 95.3786 176.431C97.5556 178.706 99.3193 177.677 103.695 173.014C104.972 171.657 104.736 167.233 99.7805 168.402Z" fill="#FDE1B2"/>
<path d="M80.5068 155.551C79.8316 158.191 77.4849 159.975 74.821 159.382C71.2345 158.596 70.3269 156.082 71.1607 153.483C72.5038 149.303 76.2415 140.78 77.9129 136.526C81.0345 128.537 87.6501 126.336 90.6056 126.749C90.9266 126.793 90.3842 129.547 88.5209 132.463C86.2886 135.954 85.8791 137.255 84.2445 142.096C82.5362 147.194 81.3665 152.171 80.5068 155.551Z" fill="#FDE1B2"/>
<path d="M93.2349 168.513C90.582 165.744 83.9663 156.348 80.1733 153.458C76.6459 150.781 73.7937 150.073 71.8013 152.757C70.0117 155.168 70.6538 157.726 74.849 160.41L90.379 172.14L93.2349 168.513Z" fill="#FDE1B2"/>
<path d="M94.4601 168.402C94.4601 168.402 98.2532 168.752 98.172 170.124C98.0908 171.495 95.5892 170.839 95.5892 170.839C95.5892 170.839 101.198 173.983 98.862 176.427C96.6813 178.706 94.9176 177.677 90.5416 173.014C89.2687 171.657 89.4974 167.233 94.4601 168.402Z" fill="#FDE1B2"/>
<path d="M87.308 110.256C87.308 110.256 90.7432 110.082 92.1379 107.236C93.5326 104.391 96.7537 106.993 97.4253 103.886C97.4253 103.886 98.4289 105.607 101.606 106.201C104.783 106.794 103.082 110.735 107.329 110.256C107.329 110.256 109.314 104.907 106.041 100.87C102.768 96.8334 100.156 96.5938 96.8165 96.5938C93.4773 96.5938 84.8617 100.42 87.308 110.256Z" fill="#292929"/>
<path d="M88.3384 111.443C88.3384 112.696 89.8512 113.961 88.0432 114.108C87.0359 114.193 86.1172 113.194 86.1172 111.944C86.1172 110.694 86.4124 109.179 88.0432 109.179C89.0616 109.179 88.3384 110.208 88.3384 111.443Z" fill="#FDE1B2"/>
<path d="M106.592 111.443C106.592 112.696 105.086 113.961 106.894 114.108C107.905 114.193 108.82 113.194 108.82 111.944C108.82 110.694 108.529 109.179 106.894 109.179C105.876 109.179 106.592 110.208 106.592 111.443Z" fill="#FDE1B2"/>
<path d="M100.189 122.004H94.6545C94.9091 122.926 95.2079 124.769 94.0973 126.118C92.8318 127.656 101.798 127.803 100.65 126.159C99.5729 124.607 99.905 122.874 100.189 122.004Z" fill="#FDE1B2"/>
</g>
<defs>
<clipPath id="clip0">
<rect width="205" height="210" fill="white"/>
</clipPath>
</defs>
</svg>
