<svg width="197" height="196" viewBox="0 0 197 196" fill="none" xmlns="http://www.w3.org/2000/svg">
<path d="M12.6833 90.451C15.0673 40.4963 57.2933 1.92296 106.998 4.29507C156.702 6.66717 195.062 49.0864 192.678 99.0412C190.294 148.996 148.068 187.569 98.3641 185.197C75.6872 184.115 75.7413 149.392 60.579 134.725C42.5077 117.245 11.3869 117.615 12.6833 90.451Z" fill="white"/>
<path d="M54.4007 160.94C50.8654 157.924 57.6081 133.8 61.3453 123.361L71.7684 133.498L73.9958 163.637C68.9371 163.994 57.936 163.956 54.4007 160.94Z" fill="#B2CEFF"/>
<path d="M83.0002 110V95.5L103 82.5L105.5 106.5C104.667 107.667 100.6 119.9 95.0002 121.5C89.4002 123.1 84.3336 111 83.0002 110Z" fill="#FFEBCE"/>
<path d="M141 92C136.6 92 119.834 97.6667 112 100.5L104.5 102C102.667 103.667 98.9002 112.7 94.5002 113.5C90.1002 114.3 84.3336 106.667 82.5002 105.5L76.5002 109C76.5002 108.667 74.9002 109.1 68.5002 113.5C62.1002 117.9 60.1669 125.667 60.0002 129L76.5002 172.5H89.5H145.5L131.5 125.5C136.661 121.238 154.667 110.667 161 108.5L163 103L155.5 100.5C152.5 97.6667 145.4 92 141 92Z" fill="#B2CEFF"/>
<path d="M74 166C74 166 84 162.5 88.5 158.5L72.6841 162.222L74 166Z" fill="#91B8FD"/>
<path d="M171 97.5004C169.8 103.5 162.167 108.334 158.5 110C158.5 110 153.547 108.251 149.5 105.5C144.578 102.155 136 94.0004 136 94.0004C148.167 92.667 172.2 91.5004 171 97.5004Z" fill="#91B8FD"/>
<path d="M92.0002 97.5C87.6002 98.3 84.1669 96.5 83.0002 95.5L103 82L103.5 89C101.667 91.6667 96.4002 96.7 92.0002 97.5Z" fill="#FFE3BA"/>
<rect x="96.1411" y="125.696" width="16" height="32" rx="3" transform="rotate(8.58578 96.1411 125.696)" fill="#F9F9F9"/>
<circle cx="99.0793" cy="129.68" r="1.5" transform="rotate(8.58578 99.0793 129.68)" fill="#C4C4C4"/>
<circle r="0.5" transform="matrix(-0.988793 -0.14929 -0.14929 0.988793 100.908 130.967)" fill="#C4C4C4"/>
<path d="M4.50001 185.5C8.56053 182.252 15.5 178 20.9999 174.5C22.8457 173.325 25.2999 172 30.5 172H46.4999H171C175 171.833 182.9 172.1 182.5 174.5C182.1 176.9 178.333 185.5 176.5 189.5C175 191.5 170.5 195.5 164.5 195.5C157 195.5 15 196 7.00001 195.5C-0.999993 195 -0.5 189.5 4.50001 185.5Z" fill="#FFE0C9"/>
<path d="M109 68.0001C110.2 70.0001 114.833 71.8335 117 72.5001L118 73L123 65.5C121.833 64.3334 119.3 61.7001 118.5 60.5001C117.5 59.0001 117 56.5001 116.5 54.0001C116.1 52.0001 114.667 50.1668 114 49.5001C111.5 49.0001 107.667 49.6668 106 50.0001L107.5 62.5001C107.5 63.5001 107.8 66.0001 109 68.0001Z" fill="#FEEFD8"/>
<path d="M87.5002 97C75.9002 95.4 69.0002 79 67.0002 71L72.5002 58L84.0002 53L102 54.5L104.5 75.5C103.667 83.3333 99.1002 98.6 87.5002 97Z" fill="#FEEFD8"/>
<path d="M66 136L68 143.5C68 143.5 72.0681 144.09 75.1296 144.724C78.2203 145.364 83 146.905 83 146.905C78.9074 147.45 71.6667 145.451 66.6296 145.815L66 136Z" fill="#91B8FD"/>
<path d="M92 144.5C90.8 144.5 88.1667 146.5 87 147.5L88.5 158H90C92.1667 157.833 96.9 157.4 98.5 157C100.1 156.6 101.833 155.5 102.5 155C104.5 153.5 105.3 147.5 104.5 145.5C103.7 143.5 98.8333 144.333 97.5 144L94.5 144.5H92Z" fill="#FEEFD8"/>
<path d="M70.1516 143.072C65.0766 142.624 58.6026 144.377 56 145.309L87 147C82.6338 144.714 75.2267 143.519 70.1516 143.072Z" fill="#91B8FD"/>
<path d="M87.4535 146.411C79.4787 144.033 61.9851 144.586 56.1365 145.231C54.6111 147.667 53.7881 152.069 53.5673 153.966C53.0866 158.796 54.0082 168.423 61.5399 168.292C69.0716 168.16 82.8472 161.649 88.7935 158.41L87.4535 146.411Z" fill="#B2CEFF"/>
<path d="M85.0002 88C85.2336 87.5237 86.1202 86.476 87.8002 86.0949C89.4802 85.7139 91.3002 86.5712 92.0002 87.0475" stroke="black"/>
<path d="M77.8002 78.1786C77.8002 77.996 77.6402 77.7953 77.0002 78.4524V79H77.6002L78.0002 78.4524L77.8002 78.1786Z" fill="black" stroke="black"/>
<path d="M92.9464 75.4175C93.0453 75.2991 93.0248 75.0611 92.1525 75.0561L91.856 75.4113L92.3403 75.8155L92.9596 75.7298L92.9464 75.4175Z" fill="black" stroke="black"/>
<path d="M74.5002 76C74.8336 75.5 75.8002 74.4 77.0002 74" stroke="black"/>
<path d="M150 103.5C142 101.9 124 83.1667 116 74L124.5 63C135.834 67.5 160.3 78 167.5 84C176.5 91.5 170.5 100 169 101.5C167.5 103 160 105.5 150 103.5Z" fill="#B3CEFF"/>
<path d="M69.0004 70C70.6004 69.6 71.0004 65.5 71.0004 63.5C77.0005 67.5 78.0002 67 83.0002 66.5C86.9804 66.102 90.0002 61.8333 91.0002 59.5C91.6669 60.3333 93.6002 62.4 96.0002 64C99.0002 66 101 65 101.5 65C102 65 104 69 104 71C104 72.6 103.5 78 103.5 80.5C104.667 79 106.7 76.6 107.5 75C108.5 73 109.5 70 108.5 68C107.7 66.4 108.167 62.3333 108.5 60.5C108.667 59.3333 108.9 56.3 108.5 53.5C108.1 50.7 104.334 48.6667 102.5 48C101.834 48.3333 100 48.1 98.0002 44.5C96.0002 40.9 91.5002 40 89.5002 40C87.1669 40 80.5002 40.9 72.5002 44.5C64.5002 48.1 64.1669 54.3333 65.0002 57C65.0002 57 61.167 59.1667 60.5004 60.5C60.3337 63 60.7004 68.4 63.5004 70C67.0004 72 67.0004 70.5 69.0004 70Z" fill="#805A43"/>
<path d="M91.0002 71.5C91.6669 71.5 93.3002 71.7 94.5002 72.5" stroke="black"/>
<path d="M59.8576 159.643C55.5902 159.711 54.6172 162.893 54.6641 164.476C66.3125 172.684 90.0673 189.261 94.4684 187.786C98.8696 186.31 99.5592 181.957 99.3539 179.964C99.4271 175.04 99.5007 164.71 99.2097 162.788C98.9187 160.867 96.4999 160.164 95.3269 160.052L59.8576 159.643Z" fill="#C0AB97"/>
<path d="M54.3066 165.101C54.339 163.177 56.1497 161.78 58.0193 162.238L70.8386 165.375C71.0406 165.424 71.2472 165.453 71.455 165.459L80.2198 165.742C80.4606 165.75 80.7015 165.729 80.9373 165.679L94.2774 162.858C96.1631 162.459 97.9302 163.916 97.8977 165.843L97.5752 184.998C97.5473 186.655 96.1817 187.975 94.5251 187.947L81.4733 187.728C80.7027 187.715 79.9667 187.406 79.4178 186.865L77.1009 184.581C75.8815 183.379 73.905 183.439 72.7616 184.714L71.1426 186.519C70.5618 187.166 69.7286 187.53 68.8589 187.515L56.933 187.314C55.2764 187.286 53.956 185.921 53.9839 184.264L54.3066 165.101Z" fill="#A6937E"/>
<circle cx="66.7878" cy="173.913" r="5.30239" transform="rotate(5.4252 66.7878 173.913)" fill="#D9DCDE" fill-opacity="0.83"/>
<circle cx="85.6675" cy="174.522" r="5.30239" transform="rotate(5.4252 85.6675 174.522)" fill="#D9DCDE" fill-opacity="0.83"/>
<path d="M130.343 49.3108C130.038 49.6696 129.799 50.0643 129.627 50.4951C129.456 50.9258 129.334 51.5085 129.263 52.2433C129.192 52.9665 129.225 53.782 129.36 54.6901C128.894 54.9979 128.391 55.0313 127.849 54.7901C127.391 53.2031 127.208 51.9431 127.299 51.01C127.391 50.0652 127.57 49.3115 127.837 48.7488C128.104 48.1861 128.442 47.6774 128.851 47.2227C129.525 46.4759 130.567 45.6826 131.98 44.843C132.855 44.316 133.462 43.8276 133.8 43.3778C134.373 42.5741 134.696 41.799 134.768 41.0526C134.842 40.2944 134.833 39.6694 134.739 39.1776C134.659 38.6752 134.501 38.2419 134.265 37.8775C133.751 37.1092 133.04 36.6807 132.13 36.5921C130.742 36.4569 129.372 36.8003 128.02 37.6223C127.431 37.9888 126.895 38.4135 126.413 38.8963C125.602 38.3934 125.071 37.6823 124.819 36.7629C124.705 36.3633 124.656 35.9582 124.673 35.5477C125.635 34.9704 126.673 34.5887 127.787 34.4028C128.912 34.2064 129.977 34.157 130.98 34.2548C131.995 34.3536 132.946 34.6229 133.833 35.0625C134.732 35.5034 135.489 36.0716 136.104 36.7674C137.42 38.2496 137.973 40.0637 137.764 42.2098C137.58 44.0993 136.555 45.5595 134.688 46.5904C134.178 46.8704 133.638 47.1534 133.069 47.4393C132.501 47.7137 131.984 48.0047 131.518 48.3126C131.052 48.6205 130.661 48.9532 130.343 49.3108ZM126.964 60.4262C126.678 60.1039 126.482 59.8141 126.378 59.5567C126.274 59.2992 126.234 59.0422 126.259 58.7856C126.284 58.529 126.361 58.2775 126.491 58.0312C126.621 57.7848 126.789 57.5716 126.995 57.3915C127.461 56.9658 127.891 56.7723 128.288 56.811C128.685 56.8496 129.006 56.9339 129.252 57.0639C129.51 57.195 129.741 57.3646 129.945 57.5728C130.406 58.0299 130.619 58.4509 130.581 58.8358C130.545 59.209 130.456 59.5183 130.314 59.7635C130.172 60.0087 129.992 60.2267 129.773 60.4173C129.272 60.8512 128.73 61.0397 128.147 60.9829C127.657 60.9352 127.263 60.7496 126.964 60.4262Z" fill="black"/>
</svg>
