<svg width="35" height="35" viewBox="0 0 35 35" fill="none" xmlns="http://www.w3.org/2000/svg">
<circle cx="17.5" cy="17.5" r="17" fill="#F8CF26" stroke="black"/>
<path d="M14.741 17.379C14.9 16.948 15 16.487 15 16C15 15.448 14.888 14.922 14.686 14.443C14.484 13.964 14.191 13.534 13.829 13.172C13.105 12.448 12.105 12 11 12C9.895 12 8.895 12.448 8.172 13.172C7.448 13.895 7 14.895 7 16C7 16.487 7.1 16.948 7.259 17.379C7.312 17.523 7.375 17.66 7.444 17.796C7.637 18.176 7.873 18.53 8.171 18.828C8.895 19.552 9.895 20 11 20C12.105 20 13.105 19.552 13.828 18.828C14.126 18.53 14.363 18.176 14.555 17.796C14.625 17.66 14.688 17.523 14.741 17.379Z" fill="#F9F5EF"/>
<path d="M28.741 20.379C28.9 19.948 29 19.487 29 19C29 18.448 28.888 17.922 28.686 17.443C28.484 16.964 28.191 16.534 27.829 16.172C27.105 15.448 26.105 15 25 15C23.895 15 22.895 15.448 22.172 16.172C21.448 16.895 21 17.895 21 19C21 19.487 21.1 19.948 21.259 20.379C21.312 20.523 21.375 20.66 21.444 20.796C21.637 21.176 21.873 21.53 22.171 21.828C22.895 22.552 23.895 23 25 23C26.105 23 27.105 22.552 27.828 21.828C28.126 21.53 28.363 21.176 28.555 20.796C28.625 20.66 28.688 20.523 28.741 20.379Z" fill="#F9F5EF"/>
<path d="M15.172 18.758C15.223 18.681 15.26 18.598 15.307 18.518C15.353 18.439 15.399 18.361 15.441 18.279C15.489 18.185 15.536 18.092 15.578 17.995C15.599 17.947 15.616 17.897 15.636 17.848C15.669 17.767 15.7 17.685 15.729 17.602C15.775 17.467 15.812 17.329 15.846 17.189C15.859 17.134 15.88 17.083 15.892 17.027C15.894 17.018 15.898 17.01 15.899 17.001C15.899 17 15.9 16.999 15.9 16.998H18V14.998H15.899C15.889 14.95 15.868 14.906 15.857 14.858C15.802 14.623 15.731 14.393 15.643 14.169C15.621 14.113 15.603 14.056 15.579 14.001C15.464 13.737 15.333 13.48 15.173 13.239L16.657 11.755L15.243 10.341L13.753 11.831C13.229 11.483 12.637 11.229 12 11.099V9H10V11.101C9.999 11.101 9.998 11.102 9.997 11.102C9.988 11.104 9.98 11.107 9.971 11.109C9.687 11.169 9.415 11.258 9.15 11.364C9.068 11.397 8.991 11.435 8.911 11.472C8.716 11.562 8.528 11.664 8.348 11.778C8.316 11.798 8.279 11.812 8.247 11.833L6.757 10.343L5.343 11.757L6.827 13.241C6.776 13.318 6.739 13.401 6.692 13.481C6.646 13.56 6.6 13.638 6.558 13.72C6.51 13.814 6.463 13.907 6.421 14.004C6.4 14.052 6.383 14.102 6.363 14.151C6.33 14.232 6.299 14.314 6.27 14.397C6.224 14.532 6.187 14.67 6.153 14.81C6.14 14.865 6.119 14.916 6.107 14.972C6.105 14.981 6.101 14.989 6.1 14.998C6.1 14.999 6.099 15 6.099 15.001H4V17.001H6.101C6.111 17.049 6.132 17.093 6.143 17.141C6.198 17.376 6.269 17.606 6.357 17.83C6.379 17.886 6.397 17.943 6.421 17.998C6.536 18.262 6.667 18.519 6.827 18.76L5.343 20.244L6.757 21.658L8.247 20.168C8.771 20.516 9.363 20.77 10 20.9V23H12V20.899C12.001 20.899 12.002 20.898 12.003 20.898C12.012 20.896 12.02 20.893 12.029 20.891C12.313 20.831 12.585 20.742 12.85 20.636C12.932 20.603 13.009 20.565 13.089 20.528C13.284 20.438 13.472 20.336 13.652 20.222C13.684 20.202 13.721 20.188 13.753 20.167L14.294 20.708L15.243 21.657L16.657 20.243L15.708 19.294L15.172 18.758ZM13.939 16.6C13.931 16.637 13.915 16.671 13.906 16.708C13.868 16.865 13.825 17.02 13.764 17.166C13.757 17.183 13.745 17.198 13.738 17.215C13.271 18.264 12.222 19 11 19C9.776 19 8.724 18.261 8.258 17.207C8.252 17.193 8.242 17.18 8.236 17.165C8.174 17.019 8.131 16.863 8.093 16.706C8.084 16.67 8.068 16.636 8.061 16.6C8.021 16.406 8 16.205 8 16C8 15.795 8.021 15.594 8.061 15.4C8.068 15.364 8.084 15.331 8.093 15.295C8.131 15.137 8.174 14.981 8.236 14.834C8.243 14.818 8.253 14.804 8.26 14.789C8.726 13.738 9.777 13 11 13C12.22 13 13.268 13.735 13.737 14.783C13.745 14.801 13.757 14.817 13.765 14.835C13.827 14.981 13.869 15.137 13.908 15.294C13.917 15.33 13.933 15.364 13.94 15.4C13.979 15.594 14 15.795 14 16C14 16.205 13.979 16.406 13.939 16.6Z" fill="black"/>
<path d="M29.857 17.86C29.802 17.625 29.731 17.395 29.643 17.171C29.621 17.115 29.603 17.058 29.579 17.003C29.464 16.739 29.333 16.482 29.173 16.241L30.657 14.757L29.243 13.343L27.753 14.833C27.229 14.485 26.637 14.231 26 14.101V12H24V14.101C23.999 14.101 23.998 14.102 23.997 14.102C23.988 14.104 23.98 14.107 23.971 14.109C23.687 14.169 23.415 14.258 23.15 14.364C23.068 14.397 22.991 14.435 22.911 14.472C22.716 14.562 22.528 14.664 22.348 14.778C22.316 14.798 22.279 14.812 22.247 14.833L20.757 13.343L19.343 14.757L20.827 16.241C20.776 16.318 20.739 16.401 20.692 16.481C20.646 16.56 20.6 16.638 20.558 16.72C20.51 16.814 20.463 16.907 20.421 17.004C20.4 17.052 20.383 17.102 20.363 17.151C20.33 17.232 20.299 17.314 20.27 17.397C20.224 17.532 20.187 17.67 20.153 17.81C20.14 17.865 20.119 17.916 20.107 17.972C20.105 17.981 20.101 17.989 20.1 17.998C20.1 17.999 20.099 18 20.099 18.001H18V20.001H20.101C20.111 20.049 20.132 20.093 20.143 20.141C20.198 20.376 20.269 20.606 20.357 20.83C20.379 20.886 20.397 20.943 20.421 20.998C20.536 21.262 20.667 21.519 20.827 21.76L19.343 23.244L20.757 24.658L22.247 23.168C22.771 23.516 23.363 23.77 24 23.9V26H26V23.899C26.001 23.899 26.002 23.898 26.003 23.898C26.012 23.896 26.02 23.893 26.029 23.891C26.313 23.831 26.585 23.742 26.85 23.636C26.932 23.603 27.009 23.565 27.089 23.528C27.284 23.438 27.472 23.336 27.652 23.222C27.684 23.202 27.721 23.188 27.753 23.167L28.294 23.708L29.243 24.657L30.657 23.243L29.708 22.294L29.172 21.758C29.223 21.681 29.26 21.598 29.307 21.518C29.353 21.439 29.399 21.361 29.441 21.279C29.489 21.185 29.536 21.092 29.578 20.995C29.599 20.947 29.616 20.897 29.636 20.848C29.669 20.767 29.7 20.685 29.729 20.602C29.775 20.467 29.812 20.329 29.846 20.189C29.859 20.134 29.88 20.083 29.892 20.027C29.894 20.018 29.898 20.01 29.899 20.001C29.899 20 29.9 19.999 29.9 19.998H32V17.998H29.899C29.889 17.952 29.868 17.908 29.857 17.86ZM27.939 19.6C27.931 19.637 27.915 19.671 27.906 19.708C27.868 19.865 27.825 20.02 27.764 20.166C27.757 20.183 27.745 20.198 27.738 20.215C27.271 21.264 26.222 22 25 22C23.776 22 22.724 21.261 22.258 20.207C22.252 20.193 22.242 20.18 22.236 20.165C22.174 20.019 22.131 19.863 22.093 19.706C22.084 19.67 22.068 19.636 22.061 19.6C22.021 19.406 22 19.205 22 19C22 18.795 22.021 18.594 22.061 18.4C22.068 18.364 22.084 18.331 22.093 18.295C22.131 18.137 22.174 17.981 22.236 17.834C22.243 17.818 22.253 17.804 22.26 17.789C22.726 16.738 23.777 16 25 16C26.22 16 27.268 16.735 27.737 17.783C27.745 17.801 27.757 17.817 27.765 17.835C27.827 17.981 27.869 18.137 27.908 18.294C27.917 18.33 27.933 18.364 27.94 18.4C27.979 18.594 28 18.795 28 19C28 19.205 27.979 19.406 27.939 19.6Z" fill="black"/>
</svg>
