<svg width="64" height="64" viewBox="0 0 64 64" fill="none" xmlns="http://www.w3.org/2000/svg">
<path d="M44 3C34.611 3 27 10.611 27 20V30C27 27.8 28.8 26 31 26H35V21C35 20.942 35.008 20.887 35.009 20.829C37.345 20.674 40.253 19.862 43.198 18.42C45.83 17.131 48.044 15.558 49.596 13.988C51.661 15.635 53 18.152 53 21V26H57C59.2 26 61 27.8 61 30V20C61 10.611 53.389 3 44 3ZM35.009 20.829C35.049 18.689 35.832 16.733 37.117 15.208C35.834 16.733 35.049 18.69 35.009 20.829ZM42.198 12.181C42.379 12.144 42.565 12.122 42.75 12.097C42.565 12.123 42.379 12.144 42.198 12.181ZM43.085 12.046C43.386 12.016 43.691 12 44 12C43.691 12 43.386 12.016 43.085 12.046ZM45.157 12.083C45.335 12.106 45.512 12.131 45.686 12.164C45.511 12.13 45.334 12.106 45.157 12.083ZM46.872 12.476C46.994 12.517 47.113 12.562 47.233 12.608C47.113 12.562 46.993 12.517 46.872 12.476ZM47.651 12.778C47.743 12.819 47.833 12.865 47.923 12.909C47.832 12.865 47.743 12.819 47.651 12.778ZM48.931 13.488C49.006 13.537 49.077 13.592 49.15 13.643C49.077 13.593 49.006 13.537 48.931 13.488Z" fill="#F8CF26"/>
<path d="M57 35H56H53L48.061 37.195C47.713 37.349 47.359 37.479 47 37.592V42H55.303H61V31C61 33.2 59.2 35 57 35Z" fill="#F8CF26"/>
<path d="M49.1506 13.6438C49.0766 13.5918 49.0066 13.5378 48.9316 13.4888C49.0066 13.5368 49.0776 13.5928 49.1506 13.6438Z" fill="#F9F5EF"/>
<path d="M47 37.5918C47.359 37.4788 47.714 37.3488 48.061 37.1948L53 34.9998V26.9998V25.9998V20.9998C53 18.1518 51.661 15.6348 49.595 13.9878C48.043 15.5568 45.829 17.1308 43.197 18.4198C40.252 19.8618 37.344 20.6748 35.008 20.8288C35.008 20.8868 35 20.9418 35 20.9998V25.9998V26.9998V34.9998L39.939 37.1948C40.287 37.3488 40.641 37.4788 41 37.5918V41.9998V45.9998H35.074H35C30.582 45.9998 27 49.5818 27 53.9998V60.9498C28.694 60.7048 30 59.2618 30 57.4998V58.9998L28 60.9998H27V60.9498C26.835 60.9728 26.671 60.9998 26.5 60.9998H17L13 57.9998L10 53.9998V51.9998H12.878H14L14.227 51.5458L14.989 50.0228L15 49.9998L14.991 49.9818L14.203 48.4058L14 47.9998L14.203 47.5938L14.991 46.0178L15 45.9998L14.989 45.9778L14.227 44.4538L14 43.9998L14.227 43.5458L14.989 42.0228L15 41.9998L14.991 41.9818L14.203 40.4058L14 39.9998L14.208 39.5578L14.997 37.8818L14.232 36.4378L14 35.9998H13H10C9.257 35.9998 8.542 36.1178 7.871 36.3318C7.866 36.3328 7.862 36.3348 7.857 36.3368C7.188 36.5518 6.564 36.8658 6 37.2598C4.188 38.5248 3 40.6218 3 42.9998V53.9998C3 58.4178 6.582 61.9998 11 61.9998H61V54.0738C61 49.6148 57.385 45.9998 52.926 45.9998H47V41.9998V37.5918ZM31.635 54.5478L30.06 56.9108C30.229 55.9158 30.814 55.0678 31.635 54.5478ZM44 58.9998L42 60.9998H40.5H39L37 58.9998V57.4998C37 59.4328 38.567 60.9998 40.5 60.9998C42.433 60.9998 44 59.4328 44 57.4998V58.9998ZM49 48.9998L48.525 49.0948C48.824 48.9718 49.115 48.8388 49.401 48.6928L49 48.9998Z" fill="#F9F5EF"/>
<path d="M41 37.592C40.641 37.479 40.286 37.349 39.939 37.195L35 35H32H31C28.8 35 27 33.2 27 31V42H32.697H41V37.592Z" fill="#F8CF26"/>
<path d="M14.498 39.2978C14.738 39.0348 14.908 38.7098 14.97 38.3408C14.996 38.1848 15.004 38.0308 14.995 37.8818C15.004 38.0308 14.996 38.1848 14.97 38.3408C14.908 38.7098 14.739 39.0358 14.498 39.2978Z" fill="#F9F5EF"/>
<path d="M7.857 36.337C7.862 36.336 7.866 36.334 7.87 36.332C8.542 36.118 9.257 36 10 36H13H14L14.232 36.438C14.667 36.782 14.962 37.296 14.997 37.882C15.006 38.031 14.998 38.185 14.972 38.341C14.91 38.71 14.74 39.035 14.5 39.298C14.42 39.386 14.332 39.466 14.237 39.539C14.228 39.546 14.217 39.551 14.208 39.558L14 40L14.203 40.406C14.681 40.768 14.985 41.341 14.991 41.982L15 42L14.989 42.022C14.988 42.128 14.99 42.233 14.971 42.341C14.888 42.837 14.609 43.253 14.227 43.545L14 44L14.227 44.454C14.61 44.746 14.888 45.163 14.971 45.658C14.989 45.767 14.988 45.872 14.989 45.977L15 46L14.991 46.018C14.985 46.659 14.681 47.231 14.203 47.594L14 48L14.203 48.406C14.681 48.768 14.985 49.341 14.991 49.982L15 50L14.989 50.022C14.988 50.128 14.99 50.233 14.971 50.341C14.888 50.837 14.609 51.253 14.227 51.545L14 52H17H19C21.209 52 23 50.209 23 48V30C23 27.791 21.209 26 19 26H10C7.791 26 6 27.791 6 30V37.26C6.564 36.866 7.188 36.552 7.857 36.337Z" fill="#06AAE9"/>
<path d="M37.1158 15.208C35.8318 16.733 35.0488 18.689 35.0078 20.829C35.0488 18.69 35.8338 16.733 37.1158 15.208Z" fill="#F9F5EF"/>
<path d="M31 35H32H35V27V26H31C28.8 26 27 27.8 27 30V31C27 33.2 28.8 35 31 35Z" fill="#F4462D"/>
<path d="M57 26H53V27V35H56H57C59.2 35 61 33.2 61 31V30C61 27.8 59.2 26 57 26Z" fill="#F4462D"/>
<path d="M7 19V22L10 19H19C21.2 19 23 17.2 23 15V7C23 4.8 21.2 3 19 3H7C4.8 3 3 4.8 3 7V15C3 17.2 4.8 19 7 19ZM11 7L16 11L11 15V7Z" fill="#F4462D"/>
<path d="M11 7V15L16 11L11 7Z" fill="#F9F5EF"/>
<path d="M44 2C34.075 2 26 10.075 26 20V30V31V42C26 42.552 26.448 43 27 43H32.003C32.325 43.769 32.719 44.5 33.176 45.186C29.085 46.032 26 49.662 26 54V60H20.5C19.122 60 18 58.878 18 57.5V53H19C21.757 53 24 50.757 24 48V30C24 27.243 21.757 25 19 25H10C7.243 25 5 27.243 5 30V36.765C3.174 38.232 2 40.48 2 43V54C2 58.962 6.038 63 11 63V61C7.14 61 4 57.86 4 54V43C4 40.958 5.027 39.153 6.59 38.069C6.819 37.91 7.058 37.772 7.303 37.648C7.348 37.625 7.394 37.604 7.44 37.582C7.687 37.465 7.939 37.36 8.199 37.277C8.201 37.276 8.203 37.275 8.205 37.275C8.462 37.194 8.726 37.137 8.993 37.092C9.057 37.081 9.121 37.071 9.185 37.063C9.454 37.025 9.725 37 10 37H13C13.293 37 13.571 37.13 13.763 37.357C13.791 37.39 13.823 37.433 13.854 37.484C13.917 37.587 13.976 37.725 13.994 37.896C14.003 37.981 14.001 38.074 13.984 38.175C13.907 38.638 13.421 39 12.878 39H9V41H12.878H13C13.293 41 13.571 41.13 13.763 41.357C13.875 41.489 14.053 41.772 13.985 42.175C13.907 42.638 13.421 43 12.878 43H9V45H12.878C13.421 45 13.907 45.362 13.984 45.824C14.052 46.227 13.874 46.51 13.762 46.642C13.571 46.87 13.293 47 13 47H9V49H13C13.293 49 13.571 49.13 13.763 49.357C13.875 49.489 14.053 49.772 13.985 50.175C13.907 50.638 13.421 51 12.878 51H10.09H9.442C9.125 51 8.826 51.151 8.637 51.406C8.449 51.662 8.392 51.991 8.486 52.295C9.941 57 14.098 62 18.938 62H20.5H26.5H27C27.147 62 27.285 61.964 27.411 61.907C29.457 61.485 31 59.669 31 57.5C31 56.122 32.122 55 33.5 55C34.878 55 36 56.122 36 57.5C36 59.981 38.019 62 40.5 62C42.981 62 45 59.981 45 57.5V50.949C48.266 50.699 51.195 49.242 53.343 47.017C57.043 47.198 60 50.256 60 54V62H62V54C62 49.662 58.915 46.032 54.824 45.186C55.281 44.5 55.676 43.769 55.997 43H61C61.552 43 62 42.552 62 42V31V30V20C62 10.075 53.925 2 44 2ZM15.29 48.066C15.269 48.041 15.242 48.024 15.221 48C15.243 47.976 15.269 47.959 15.29 47.934C15.861 47.259 16.104 46.369 15.957 45.492C15.861 44.921 15.584 44.411 15.195 44C15.584 43.589 15.861 43.079 15.957 42.508C16.104 41.632 15.861 40.742 15.29 40.067C15.265 40.038 15.234 40.017 15.208 39.989C15.517 39.658 15.745 39.261 15.873 38.822C15.903 38.718 15.939 38.617 15.957 38.509C15.994 38.29 16.006 38.07 15.995 37.853C15.962 37.201 15.718 36.574 15.289 36.068C14.717 35.389 13.882 35 13 35H10C9.733 35 9.467 35.014 9.204 35.04C9.111 35.049 9.021 35.068 8.93 35.08C8.762 35.103 8.593 35.124 8.428 35.157C8.318 35.179 8.212 35.21 8.103 35.237C7.959 35.272 7.815 35.305 7.674 35.348C7.556 35.384 7.441 35.429 7.325 35.47C7.217 35.509 7.106 35.541 7 35.584V30C7 28.346 8.346 27 10 27H19C20.654 27 22 28.346 22 30V48C22 49.654 20.654 51 19 51H15.825C15.883 50.841 15.929 50.677 15.958 50.507C16.104 49.631 15.861 48.741 15.29 48.066ZM10.879 53H12.878H16V57.5C16 58.182 16.164 58.822 16.437 59.402C13.948 58.218 11.944 55.465 10.879 53ZM60 31C60 32.654 58.654 34 57 34H54V27H57C58.654 27 60 28.346 60 30V31ZM54.574 41H48V38.303C48.16 38.241 48.316 38.177 48.468 38.109L53.213 36H55V38C55 39.041 54.845 40.045 54.574 41ZM37.695 47H41H47H50.305C48.518 48.256 46.346 49 44 49C41.654 49 39.483 48.256 37.695 47ZM33 38V36H34.787L39.532 38.108C39.684 38.176 39.84 38.24 40 38.302V41H33.426C33.155 40.045 33 39.041 33 38ZM41.266 13.492C41.443 13.426 41.623 13.367 41.806 13.314C41.882 13.292 41.959 13.274 42.035 13.255C42.188 13.216 42.342 13.177 42.499 13.147C42.625 13.123 42.753 13.107 42.881 13.089C42.998 13.072 43.114 13.052 43.232 13.04C43.485 13.015 43.741 13 44 13C44.322 13 44.64 13.025 44.954 13.062C45.06 13.075 45.164 13.093 45.268 13.11C45.479 13.144 45.687 13.185 45.893 13.235C46.006 13.263 46.119 13.29 46.23 13.322C46.471 13.392 46.708 13.474 46.941 13.567C46.997 13.589 47.055 13.606 47.11 13.629C47.394 13.75 47.67 13.891 47.94 14.046C47.967 14.062 47.993 14.079 48.021 14.095C46.583 15.35 44.755 16.544 42.758 17.522C40.477 18.639 38.164 19.395 36.116 19.703C36.117 19.694 36.119 19.685 36.12 19.676C36.158 19.452 36.204 19.231 36.261 19.014C36.263 19.007 36.264 19.001 36.266 18.994C36.921 16.49 38.773 14.453 41.156 13.532C41.192 13.518 41.229 13.505 41.266 13.492ZM37 26C37.551 26 38 26.449 38 27H40C40 25.346 38.654 24 37 24C36.648 24 36.314 24.072 36 24.184V21.735C38.356 21.437 41.029 20.595 43.637 19.317C45.927 18.196 48.023 16.801 49.639 15.331C51.096 16.781 52 18.787 52 21V24.184C51.686 24.072 51.352 24 51 24C49.346 24 48 25.346 48 27H50C50 26.449 50.449 26 51 26C51.551 26 52 26.449 52 27V34.35L47.655 36.281C47.343 36.42 47.023 36.537 46.7 36.638C46.303 36.763 45.9 36.85 45.495 36.919C45.407 36.934 45.318 36.948 45.229 36.961C44.412 37.075 43.586 37.075 42.769 36.961C42.68 36.949 42.592 36.934 42.503 36.919C42.099 36.85 41.696 36.763 41.299 36.638C41.299 36.638 41.299 36.638 41.298 36.638C40.994 36.543 40.693 36.43 40.398 36.302C40.38 36.294 40.361 36.289 40.343 36.281L37.874 35.184L36 34.35V27C36 26.449 36.449 26 37 26ZM42 45V42V38.871C42.169 38.902 42.34 38.918 42.511 38.942C42.651 38.961 42.79 38.987 42.931 39C43.643 39.07 44.358 39.07 45.07 39C45.211 38.986 45.349 38.961 45.489 38.942C45.66 38.919 45.831 38.903 46 38.871V42V45H42ZM56 25H54V21C54 17.85 52.533 15.04 50.249 13.205C50.244 13.201 50.242 13.195 50.237 13.19C50.104 13.083 49.964 12.988 49.827 12.889C49.738 12.825 49.653 12.755 49.561 12.694C49.307 12.523 49.046 12.365 48.781 12.219C48.743 12.198 48.704 12.181 48.666 12.161C48.428 12.034 48.186 11.917 47.94 11.811C47.882 11.786 47.821 11.764 47.762 11.74C47.532 11.646 47.3 11.56 47.063 11.484C46.99 11.461 46.917 11.439 46.844 11.417C46.618 11.35 46.389 11.291 46.158 11.24C46.074 11.221 45.99 11.203 45.906 11.186C45.675 11.142 45.441 11.107 45.206 11.079C45.122 11.069 45.04 11.056 44.956 11.047C44.639 11.019 44.321 11 44 11C43.662 11 43.328 11.017 42.997 11.051C38.028 11.548 34.128 15.698 34.011 20.768C34.011 20.782 34.008 20.796 34.008 20.811C34.008 20.812 34.009 20.813 34.009 20.814C34.008 20.876 34 20.937 34 21V25H32V21C32 14.383 37.383 9 44 9C50.617 9 56 14.383 56 21V25ZM31 27H34V34H31C29.346 34 28 32.654 28 31V30C28 28.346 29.346 27 31 27ZM28 41V34.974C28.838 35.609 29.87 36 31 36V38C31 39.034 31.134 40.035 31.363 41H28ZM40 43V45H35.521C35.014 44.387 34.58 43.714 34.214 43H40ZM40.5 60C39.122 60 38 58.878 38 57.5C38 55.019 35.981 53 33.5 53C31.019 53 29 55.019 29 57.5C29 58.313 28.603 59.03 28 59.487V54C28 50.256 30.957 47.198 34.657 47.017C36.805 49.242 39.734 50.699 43 50.949V57.5C43 58.878 41.878 60 40.5 60ZM52.479 45H48V43H53.786C53.42 43.714 52.986 44.387 52.479 45ZM56.637 41C56.866 40.035 57 39.034 57 38V36C58.13 36 59.162 35.609 60 34.974V41H56.637ZM60 26.026C59.416 25.584 58.743 25.253 58 25.102V21C58 13.28 51.72 7 44 7C36.28 7 30 13.28 30 21V25.101C29.257 25.253 28.584 25.583 28 26.025V20C28 11.178 35.178 4 44 4C52.822 4 60 11.178 60 20V26.026Z" fill="black"/>
<path d="M44 34C45.654 34 47 32.654 47 31H45C45 31.551 44.551 32 44 32C43.449 32 43 31.551 43 31H41C41 32.654 42.346 34 44 34Z" fill="black"/>
<path d="M6 19.899V22C6 22.404 6.244 22.769 6.617 22.924C6.741 22.975 6.871 23 7 23C7.26 23 7.516 22.898 7.707 22.707L10.414 20H19C21.757 20 24 17.757 24 15V7C24 4.243 21.757 2 19 2H7C4.243 2 2 4.243 2 7V15C2 17.415 3.721 19.435 6 19.899ZM4 7C4 5.346 5.346 4 7 4H19C20.654 4 22 5.346 22 7V15C22 16.654 20.654 18 19 18H10C9.735 18 9.48 18.105 9.293 18.293L8 19.586V19C8 18.448 7.552 18 7 18C5.346 18 4 16.654 4 15V7Z" fill="black"/>
<path d="M10.567 15.9011C10.705 15.9671 10.853 16.0001 11 16.0001C11.223 16.0001 11.444 15.9251 11.625 15.7811L16.625 11.7811C16.862 11.5911 17 11.3041 17 11.0001C17 10.6961 16.862 10.4091 16.625 10.2191L11.625 6.2191C11.324 5.9781 10.913 5.9331 10.567 6.0981C10.22 6.2651 10 6.6161 10 7.0001V15.0001C10 15.3841 10.22 15.7351 10.567 15.9011ZM12 9.0811L14.399 11.0001L12 12.9191V9.0811Z" fill="black"/>
</svg>
