<svg width="64" height="64" viewBox="0 0 64 64" fill="none" xmlns="http://www.w3.org/2000/svg">
<path d="M41 3C29.954 3 21 11.954 21 23C21 27.502 22.506 31.642 25.016 34.985C26.154 36.501 27.499 37.846 29.015 38.984C32.358 41.494 36.498 43 41 43C52.046 43 61 34.046 61 23C61 11.954 52.046 3 41 3ZM41 39C32.163 39 25 31.837 25 23C25 14.163 32.163 7 41 7C49.837 7 57 14.163 57 23C57 31.837 49.837 39 41 39Z" fill="#F4462D"/>
<path d="M41 7C32.163 7 25 14.163 25 23C25 31.837 32.163 39 41 39C49.837 39 57 31.837 57 23C57 14.163 49.837 7 41 7ZM49 18V31H35C33.895 31 33 30.105 33 29V16C33 14.895 33.895 14 35 14H49V18Z" fill="#F8CF26"/>
<path d="M16.0005 41L4.50053 52.5C2.56753 54.433 2.56753 57.567 4.50053 59.5C6.43353 61.433 9.56753 61.433 11.5005 59.5L23.0005 48L21.5005 46.5L17.5005 42.5L16.0005 41Z" fill="#F4462D"/>
<path d="M25.016 34.9849L17.5 42.4999L21.5 46.4999L29.016 38.9839C29.016 38.9839 29.016 38.9839 29.015 38.9839C27.499 37.8459 26.155 36.5009 25.016 34.9849Z" fill="#F9F5EF"/>
<path d="M33 16C33 17.105 33.895 18 35 18H49V14H35C33.895 14 33 14.895 33 16Z" fill="#F9F5EF"/>
<path d="M33 16V29C33 30.105 33.895 31 35 31H49V18H35C33.895 18 33 17.105 33 16Z" fill="#06AAE9"/>
<path d="M40.9997 2C29.4207 2 19.9997 11.421 19.9997 23C19.9997 27.409 21.3717 31.5 23.7027 34.883L17.4997 41.086L16.7067 40.293C16.3157 39.902 15.6837 39.902 15.2927 40.293L3.79273 51.793C1.47273 54.112 1.47273 57.888 3.79273 60.207C4.95273 61.367 6.47673 61.947 7.99973 61.947C9.52273 61.947 11.0467 61.367 12.2067 60.207L23.7067 48.707C24.0977 48.316 24.0977 47.684 23.7067 47.293L22.9137 46.5L29.1167 40.297C32.4997 42.628 36.5907 44 40.9997 44C52.5787 44 61.9997 34.579 61.9997 23C61.9997 11.421 52.5787 2 40.9997 2ZM10.7927 58.793C9.25173 60.332 6.74773 60.332 5.20673 58.793C3.66673 57.253 3.66673 54.747 5.20673 53.207L15.9997 42.414L16.7927 43.207L20.7927 47.207L21.5857 48L10.7927 58.793ZM21.4997 45.086L18.9137 42.5L24.9267 36.488C25.7127 37.423 26.5767 38.287 27.5117 39.073L21.4997 45.086ZM40.9997 42C36.6617 42 32.6717 40.523 29.4697 38.067C29.1737 37.84 28.8827 37.609 28.6007 37.366C28.5357 37.309 28.4737 37.249 28.4087 37.192C27.8437 36.691 27.3097 36.156 26.8087 35.592C26.7517 35.527 26.6907 35.466 26.6347 35.4C26.3917 35.119 26.1597 34.827 25.9337 34.531C23.4767 31.328 21.9997 27.338 21.9997 23C21.9997 12.523 30.5227 4 40.9997 4C51.4767 4 59.9997 12.523 59.9997 23C59.9997 33.477 51.4767 42 40.9997 42Z" fill="black"/>
<path d="M41 6C31.626 6 24 13.626 24 23C24 32.374 31.626 40 41 40C50.374 40 58 32.374 58 23C58 13.626 50.374 6 41 6ZM41 38C32.729 38 26 31.271 26 23C26 14.729 32.729 8 41 8C49.271 8 56 14.729 56 23C56 31.271 49.271 38 41 38Z" fill="black"/>
<path d="M49 13H35C33.346 13 32 14.346 32 16V29C32 30.654 33.346 32 35 32H49C49.553 32 50 31.553 50 31V18V14C50 13.447 49.553 13 49 13ZM35 15H48V17H35C34.448 17 34 16.552 34 16C34 15.448 34.448 15 35 15ZM48 30H35C34.448 30 34 29.552 34 29V18.829C34.086 18.859 34.178 18.876 34.268 18.899C34.325 18.913 34.379 18.932 34.437 18.943C34.619 18.978 34.807 19 35 19H48V30Z" fill="black"/>
<path d="M46 21H36V23H46V21Z" fill="black"/>
<path d="M13 11H11V13H13V11Z" fill="black"/>
<path d="M13 15H11V17H13V15Z" fill="black"/>
<path d="M13 19H11V21H13V19Z" fill="black"/>
<path d="M17 15H15V17H17V15Z" fill="black"/>
<path d="M52 52H50V54H52V52Z" fill="black"/>
<path d="M48 52H46V54H48V52Z" fill="black"/>
<path d="M44 52H42V54H44V52Z" fill="black"/>
<path d="M48 48H46V50H48V48Z" fill="black"/>
</svg>
