<svg width="57" height="64" viewBox="0 0 57 64" fill="none" xmlns="http://www.w3.org/2000/svg">
<path d="M28.1078 9.21423C18.1321 9.21423 10.0459 17.3207 10.0459 27.3214C10.0459 34.3052 13.9959 40.3543 19.7729 43.3754C20.3537 43.6791 20.9567 43.9451 21.5722 44.1875C21.6875 44.232 21.8042 44.2724 21.9209 44.3156C22.4252 44.5009 22.9407 44.6624 23.4659 44.8031C23.6368 44.8491 23.8063 44.895 23.9786 44.9354C24.4746 45.0524 24.9803 45.143 25.4916 45.2182C25.6736 45.2447 25.8528 45.2809 26.0362 45.3018C26.1835 45.3185 26.3363 45.3157 26.485 45.3296C27.0199 45.377 27.5576 45.4285 28.1078 45.4285C28.658 45.4285 29.1957 45.377 29.7333 45.3282C29.882 45.3143 30.0334 45.3171 30.1821 45.3004C30.3669 45.2795 30.5447 45.2433 30.7267 45.2168C31.238 45.1416 31.7438 45.051 32.2398 44.934C32.4121 44.8937 32.5816 44.8477 32.7525 44.8017C33.2762 44.661 33.7931 44.5009 34.2974 44.3142C34.4142 44.271 34.5309 44.232 34.6462 44.1861C35.2617 43.9451 35.8647 43.6791 36.4454 43.374C42.2197 40.3543 46.1697 34.3052 46.1697 27.3214C46.1697 17.3207 38.0835 9.21423 28.1078 9.21423Z" fill="#F8CF26"/>
<path d="M34.2968 44.3143C33.7925 44.4996 33.277 44.6611 32.7518 44.8018C32.581 44.8478 32.4115 44.8938 32.2392 44.9341C31.7432 45.0511 31.2374 45.1417 30.7261 45.2169C30.5441 45.2434 30.3649 45.2796 30.1815 45.3005C30.0342 45.3172 29.8814 45.3144 29.7327 45.3283L29.7272 45.3464C29.1937 45.3938 28.656 45.4286 28.1086 45.4286C27.5611 45.4286 27.0235 45.3938 26.4885 45.3464L26.483 45.3283C26.3343 45.3144 26.1815 45.3172 26.0342 45.3005C25.8494 45.2796 25.6716 45.2434 25.4896 45.2169C24.9783 45.1417 24.4726 45.0511 23.9766 44.9341C23.8043 44.8938 23.6348 44.8478 23.4639 44.8018C22.9401 44.6611 22.4232 44.501 21.9189 44.3143C21.8022 44.2711 21.6855 44.2321 21.5702 44.1862C20.9547 43.9452 20.3517 43.6792 19.7709 43.3741H19.7695V51V53.7857C19.7695 54.251 19.8154 54.7064 19.8904 55.1494C19.896 55.1856 19.9001 55.2204 19.9071 55.2566C19.9891 55.7079 20.1044 56.1466 20.2544 56.5715H20.2614C21.4062 59.814 24.4781 62.1429 28.1058 62.1429C31.7334 62.1429 34.8053 59.814 35.9502 56.5715H35.9571C36.1072 56.148 36.2225 55.7079 36.3045 55.2566C36.3114 55.2218 36.3156 55.1856 36.3211 55.1494C36.399 54.7064 36.4448 54.251 36.4448 53.7857V51V43.3755H36.4434C35.8627 43.6792 35.2597 43.9452 34.6442 44.1876C34.5302 44.2321 34.4121 44.2725 34.2968 44.3143Z" fill="#06AAE9"/>
<path d="M26.4829 45.3283C26.3343 45.3143 26.1828 45.3171 26.0342 45.3004C26.1828 45.3171 26.3357 45.3143 26.4829 45.3283Z" fill="#F9F5EF"/>
<path d="M29.7334 45.3283C29.8821 45.3143 30.0349 45.3171 30.1822 45.3004C30.0335 45.3171 29.8807 45.3143 29.7334 45.3283Z" fill="#F9F5EF"/>
<path d="M28.108 45.4285C27.5578 45.4285 27.0201 45.377 26.4824 45.3282L26.488 45.3464C27.0229 45.3937 27.5606 45.4285 28.108 45.4285Z" fill="#F9F5EF"/>
<path d="M29.734 45.3282C29.1963 45.377 28.6586 45.4285 28.1084 45.4285C28.6558 45.4285 29.1935 45.3937 29.7284 45.3464L29.734 45.3282Z" fill="#F9F5EF"/>
<path d="M18.3829 53.7857C18.3829 54.3094 18.4356 54.8192 18.5162 55.3206C18.526 55.3763 18.5315 55.4334 18.5412 55.4892C18.6329 56.0101 18.7677 56.5143 18.9386 57.0032C18.9428 57.0143 18.9428 57.0255 18.9469 57.0366C18.9497 57.0436 18.9553 57.0492 18.9581 57.0561C20.303 60.8266 23.8917 63.5357 28.1085 63.5357C32.3252 63.5357 35.914 60.8266 37.2589 57.0561C37.2617 57.0492 37.2672 57.0436 37.27 57.0366C37.2742 57.0255 37.2756 57.0143 37.2783 57.0032C37.4492 56.5143 37.584 56.0087 37.6757 55.4878C37.6854 55.4321 37.6924 55.3763 37.7007 55.3206C37.7813 54.8192 37.8341 54.3094 37.8341 53.7857V51V44.1833C43.6375 40.8057 47.5597 34.5211 47.5597 27.3214C47.5597 16.5686 38.8345 7.82141 28.1085 7.82141C17.3825 7.82141 8.65723 16.5686 8.65723 27.3214C8.65723 34.5197 12.5794 40.8057 18.3829 44.1833V51V53.7857ZM35.0554 53.7857C35.0554 54.2509 35.0067 54.7175 34.9109 55.1786H21.3075C21.2102 54.7175 21.1616 54.2509 21.1616 53.7857V52.3928H35.0554V53.7857ZM28.1085 60.75C25.848 60.75 23.8556 59.6454 22.5871 57.9643H33.6312C32.3614 59.6454 30.369 60.75 28.1085 60.75ZM11.436 27.3214C11.436 18.1049 18.915 10.6071 28.1085 10.6071C37.302 10.6071 44.781 18.1049 44.781 27.3214C44.781 33.8024 41.0755 39.4212 35.6833 42.1929C35.1679 42.4576 34.6399 42.693 34.105 42.8991C33.9911 42.9437 33.8744 42.9841 33.7591 43.0259C33.2589 43.2069 32.7518 43.3629 32.2391 43.4953C32.1335 43.5231 32.0279 43.5524 31.9209 43.5774C31.8376 43.5969 31.7514 43.6053 31.6681 43.6234L36.3905 27.1362C36.4267 27.0108 36.4447 26.8827 36.4447 26.7517C36.4447 25.3449 35.6069 24.09 34.312 23.5509C33.0157 23.0147 31.5361 23.3086 30.5454 24.3017L28.1085 26.7448L25.6715 24.3017C24.6795 23.3086 23.2012 23.0161 21.9049 23.5509C20.61 24.09 19.7722 25.3449 19.7722 26.7517C19.7722 26.8827 19.7903 27.0122 19.8264 27.1362L24.5489 43.6234C24.4655 43.6053 24.3794 43.5969 24.296 43.5774C24.1891 43.5524 24.0848 43.5231 23.9779 43.4953C23.4652 43.3643 22.9581 43.2069 22.4579 43.0259C22.3426 42.9841 22.2259 42.9437 22.1119 42.8991C21.577 42.6916 21.0491 42.4576 20.5336 42.1929C15.1414 39.4212 11.436 33.8024 11.436 27.3214ZM28.1654 44.0232C28.1265 44.0232 28.089 44.0232 28.0515 44.0232C27.8834 44.0232 27.7153 43.9981 27.5458 43.9925L22.5649 26.6027C22.6246 26.3004 22.8594 26.1695 22.9692 26.1236C23.0942 26.072 23.4166 25.9787 23.7069 26.2698L27.1262 29.6976C27.6694 30.2422 28.5475 30.2422 29.0908 29.6976L32.51 26.2698C32.8004 25.9787 33.1227 26.0706 33.2478 26.1236C33.3575 26.1695 33.5923 26.3004 33.6521 26.6027L28.6712 43.9939C28.5017 43.9995 28.3336 44.0232 28.1654 44.0232ZM22.6191 46.0177C22.9122 46.1041 23.2095 46.1751 23.5083 46.2476C23.8125 46.3214 24.114 46.3994 24.4225 46.4593C24.7253 46.5178 25.031 46.5554 25.3367 46.5999C25.6479 46.6445 25.9577 46.6988 26.2731 46.7281C26.5885 46.7573 26.9067 46.7629 27.2234 46.7768C27.5166 46.7936 27.8084 46.8214 28.1085 46.8214C28.4086 46.8214 28.7004 46.7936 28.9949 46.7768C29.3117 46.7629 29.6285 46.7573 29.9452 46.7281C30.262 46.6988 30.5704 46.6445 30.8817 46.5999C31.1873 46.5568 31.493 46.5178 31.7959 46.4593C32.1043 46.3994 32.4058 46.3214 32.7101 46.2476C33.0074 46.1751 33.3047 46.1055 33.5993 46.0177C33.9105 45.9258 34.2134 45.8186 34.5177 45.7113C34.6969 45.6486 34.8789 45.5999 35.0567 45.5316V49.6071H21.1616V45.5316C21.3381 45.5999 21.5215 45.6486 21.7007 45.7113C22.005 45.8186 22.3078 45.9258 22.6191 46.0177Z" fill="black"/>
<path d="M29.4975 0.857178H26.7188V5.03575H29.4975V0.857178Z" fill="black"/>
<path d="M4.48844 24.5358H0.320312V27.3215H4.48844V24.5358Z" fill="black"/>
<path d="M55.8957 25.9286H51.7275V28.7143H55.8957V25.9286Z" fill="black"/>
<path d="M8.25001 8.22956L6.28516 10.1993L9.06346 12.9846L11.0283 11.0148L8.25001 8.22956Z" fill="black"/>
<path d="M47.9658 8.22987L45.1875 11.0151L47.1524 12.9849L49.9307 10.1996L47.9658 8.22987Z" fill="black"/>
</svg>
