<svg width="64" height="64" viewBox="0 0 64 64" fill="none" xmlns="http://www.w3.org/2000/svg">
<path d="M43.4558 42.7254L25.7577 61.7508L9.33814 42.6686C7.23043 40.2191 6.07128 37.0948 6.07128 33.8634L6.07128 23.1428C6.07128 11.821 15.2494 2.64282 26.5713 2.64282C37.8931 2.64282 47.0713 11.821 47.0713 23.1428L47.0713 33.5305C47.0713 36.9422 45.7795 40.2274 43.4558 42.7254Z" stroke="black" stroke-width="3" stroke-linecap="round" stroke-linejoin="round"/>
<path d="M27 46.75L25.5714 46.75C23.5004 46.75 21.8214 45.0711 21.8214 43L21.8214 41.5714C21.8214 39.5004 23.5004 37.8214 25.5714 37.8214L27 37.8214C29.0711 37.8214 30.75 39.5004 30.75 41.5714L30.75 43C30.75 45.0711 29.0711 46.75 27 46.75Z" fill="#06AAE9" stroke="black" stroke-width="2.5"/>
<path d="M27 33.0358L25.5714 33.0358C23.5004 33.0358 21.8214 31.3568 21.8214 29.2858L21.8214 15.2858C21.8214 13.2147 23.5004 11.5358 25.5714 11.5358L27 11.5358C29.0711 11.5358 30.75 13.2147 30.75 15.2858L30.75 29.2858C30.75 31.3568 29.0711 33.0358 27 33.0358Z" fill="#F8CF26" stroke="black" stroke-width="2.5"/>
</svg>
