<svg width="88" height="82" viewBox="0 0 88 82" fill="none" xmlns="http://www.w3.org/2000/svg">
<path d="M84 40.7729C84.0008 34.8031 82.6653 28.9088 80.0914 23.5223C77.5176 18.1358 73.7707 13.3937 69.1256 9.64378C64.4804 5.89389 59.0548 3.2313 53.2467 1.85126C47.4386 0.47123 41.3952 0.408761 35.5597 1.66844C29.7243 2.92811 24.2448 5.47799 19.5232 9.13105C14.8015 12.7841 10.9574 17.4477 8.27278 22.7799C5.58816 28.112 4.13109 33.9775 4.00844 39.9461C3.8858 45.9146 5.10068 51.835 7.564 57.2729H80.436C82.7889 52.0906 84.0042 46.4643 84 40.7729V40.7729Z" fill="#C7F0FF"/>
<path d="M7.56396 57.2729C10.7367 64.2769 15.8608 70.2179 22.3228 74.3848C28.7849 78.5517 36.3109 80.7679 44 80.7679C51.689 80.7679 59.2151 78.5517 65.6771 74.3848C72.1391 70.2179 77.2633 64.2769 80.436 57.2729H7.56396Z" fill="#E8F4FA"/>
<path d="M48 62.2729H57" stroke="white" stroke-miterlimit="10" stroke-linecap="round"/>
<path d="M24 62.2729H33" stroke="white" stroke-miterlimit="10" stroke-linecap="round"/>
<path d="M59.5 73.2729H64" stroke="white" stroke-miterlimit="10" stroke-linecap="round"/>
<path d="M65.5 62.2729H70" stroke="white" stroke-miterlimit="10" stroke-linecap="round"/>
<path d="M50 67.7729H54.5" stroke="white" stroke-miterlimit="10" stroke-linecap="round"/>
<path d="M39 67.7729H43.5" stroke="white" stroke-miterlimit="10" stroke-linecap="round"/>
<path d="M62.5 67.7729H71.5" stroke="white" stroke-miterlimit="10" stroke-linecap="round"/>
<path d="M14.5 62.2729H19" stroke="white" stroke-miterlimit="10" stroke-linecap="round"/>
<path d="M5 57.2729H83" stroke="#45413C" stroke-linecap="round" stroke-linejoin="round"/>
<path d="M0.5 57.2729H3" stroke="#45413C" stroke-linecap="round" stroke-linejoin="round"/>
<path d="M85 57.2729H87.5" stroke="#45413C" stroke-linecap="round" stroke-linejoin="round"/>
<path d="M77.3551 14.5677C66.1501 13.4997 35.1171 18.1927 36.3621 57.2727H83.3621C88.8671 42.9717 87.7091 28.7297 77.3551 14.5677Z" fill="white"/>
<path d="M77.3551 14.5677C66.1501 13.4997 35.1171 18.1927 36.3621 57.2727H83.3621" stroke="#45413C" stroke-linecap="round" stroke-linejoin="round"/>
<path d="M7.1461 20.2178H13.7611C40.7121 20.2178 46.3541 33.1858 67.1461 57.2728H5.1461C0.7161 45.1738 0.318099 32.8838 7.1461 20.2178Z" fill="white"/>
<path d="M7.146 20.2178H13.761C40.712 20.2178 46.354 33.1858 67.146 57.2728H5.146" stroke="#45413C" stroke-linecap="round" stroke-linejoin="round"/>
<path d="M22.5083 17.2727V24.2727" stroke="#45413C" stroke-linecap="round" stroke-linejoin="round"/>
<path d="M20.5083 18.2727H24.5083" stroke="#45413C" stroke-linecap="round" stroke-linejoin="round"/>
<path d="M62.5083 12.4768V19.4768" stroke="#45413C" stroke-linecap="round" stroke-linejoin="round"/>
<path d="M60.5083 13.4768H64.5083" stroke="#45413C" stroke-linecap="round" stroke-linejoin="round"/>
<path d="M29.5083 28.2727V35.2727" stroke="#45413C" stroke-linecap="round" stroke-linejoin="round"/>
<path d="M27.5083 29.2727H31.5083" stroke="#45413C" stroke-linecap="round" stroke-linejoin="round"/>
<path d="M64.5 81.2268H57.5L57.125 77.2358C57.0921 76.6945 56.854 76.1861 56.4591 75.8145C56.0642 75.4428 55.5423 75.2358 55 75.2358V75.2358C54.4577 75.2358 53.9358 75.4428 53.5409 75.8145C53.146 76.1861 52.9079 76.6945 52.875 77.2358L52.5 81.2268H45.5V68.2268H64.5V81.2268Z" fill="#8CA4B8"/>
<path d="M64.5 68.2268H45.5V71.7268H64.5V68.2268Z" fill="#627B8C"/>
<path d="M57.5 81.2268L57.125 77.2358C57.0921 76.6945 56.854 76.1862 56.4591 75.8145C56.0642 75.4428 55.5423 75.2359 55 75.2358V75.2358C54.4577 75.2359 53.9358 75.4428 53.5409 75.8145C53.146 76.1862 52.9079 76.6945 52.875 77.2358L52.5 81.2268" stroke="#45413C" stroke-linecap="round" stroke-linejoin="round"/>
<path d="M45.5 81.2268V68.2268H64.5V81.2268" stroke="#45413C" stroke-linecap="round" stroke-linejoin="round"/>
<path d="M56.083 39.7639C53.536 40.6449 50.925 41.5639 48.283 42.5259C46.04 43.3399 43.834 44.1579 41.683 44.9699L40.725 45.3449C38.5424 46.1763 36.446 46.9879 34.436 47.7799C36.781 50.8959 40.336 53.7269 45.506 53.7269V68.2269H64.506V70.2269H70.506V55.2269C70.5061 51.3024 69.0176 47.524 66.3407 44.6541C63.6639 41.7842 59.998 40.0366 56.083 39.7639V39.7639Z" fill="#DEA47A"/>
<path d="M70.5 55.2269C70.5002 51.3034 69.0124 47.5258 66.3368 44.656C63.6613 41.7863 59.9969 40.0381 56.083 39.7639C53.536 40.6449 50.925 41.5639 48.283 42.5259C46.7456 43.0839 45.2283 43.6422 43.731 44.2009L44.031 44.2269H55C58.7625 44.2285 62.3958 45.5994 65.2216 48.0836C68.0473 50.5679 69.8724 53.9956 70.356 57.7269H70.5V55.2269Z" fill="#F0C2A1"/>
<path d="M56.083 39.7639C53.536 40.6449 50.925 41.5639 48.283 42.5259C46.04 43.3399 43.834 44.1579 41.683 44.9699L40.725 45.3449C38.5424 46.1763 36.446 46.9879 34.436 47.7799C36.781 50.8959 40.336 53.7269 45.506 53.7269V68.2269H64.506V70.2269H70.506V55.2269C70.5061 51.3024 69.0176 47.524 66.3407 44.6541C63.6639 41.7842 59.998 40.0366 56.083 39.7639V39.7639Z" stroke="#45413C" stroke-linecap="round" stroke-linejoin="round"/>
<path d="M64.5 53.7268V70.2268" stroke="#45413C" stroke-linecap="round" stroke-linejoin="round"/>
<path d="M54.5 45.7268V68.2268" stroke="#45413C" stroke-linecap="round" stroke-linejoin="round"/>
<path d="M54.191 44.1428L50.191 37.8038C49.9205 37.3757 49.4978 37.066 49.008 36.9374C48.5182 36.8088 47.9978 36.8708 47.552 37.1108L44.675 38.6608C44.4263 38.7946 44.2088 38.9795 44.0368 39.2034C43.8647 39.4272 43.742 39.685 43.6767 39.9597C43.6115 40.2344 43.6051 40.5198 43.658 40.7972C43.711 41.0745 43.8221 41.3375 43.984 41.5688L48.527 48.0578C48.6793 48.2755 48.8735 48.4607 49.0982 48.6025C49.3229 48.7444 49.5736 48.84 49.8356 48.8839C50.0977 48.9277 50.3659 48.9189 50.6245 48.8579C50.8832 48.797 51.1271 48.6851 51.342 48.5288L53.68 46.8288C54.0902 46.5296 54.3712 46.0856 54.4661 45.5868C54.561 45.088 54.4626 44.5717 54.191 44.1428Z" fill="white" stroke="#45413C" stroke-linecap="round" stroke-linejoin="round"/>
<path d="M87.133 23.1509L84.809 16.7439C84.5264 15.9639 84.0875 15.2499 83.519 14.6456C82.9506 14.0413 82.2647 13.5596 81.5034 13.2299C80.7422 12.9002 79.9215 12.7295 79.0919 12.7283C78.2623 12.7271 77.4412 12.8954 76.679 13.2229C70.9 15.6999 61.666 19.5779 50.845 23.6999L50.838 23.7139C48.385 24.6449 45.86 25.5849 43.284 26.5189C29.127 31.6519 16.408 35.5599 8.884 37.8089C8.08917 38.0461 7.35116 38.4431 6.71523 38.9756C6.0793 39.5081 5.55886 40.1649 5.18582 40.9058C4.81278 41.6466 4.59501 42.4558 4.54586 43.2838C4.49671 44.1118 4.61722 44.9412 4.9 45.7209L7.223 52.1279C7.50568 52.9079 7.94475 53.622 8.51327 54.2263C9.08179 54.8306 9.76776 55.3123 10.5291 55.642C11.2905 55.9717 12.1112 56.1424 12.9408 56.1436C13.7705 56.1448 14.5917 55.9764 15.354 55.6489C21.134 53.1689 29.896 49.4639 40.718 45.3489L41.676 44.9739C43.829 44.1619 46.035 43.3439 48.276 42.5299C62.433 37.3969 75.622 33.3179 83.146 31.0689C83.9417 30.832 84.6806 30.435 85.3173 29.9022C85.954 29.3693 86.4751 28.712 86.8484 27.9704C87.2218 27.2289 87.4397 26.4189 87.4886 25.5901C87.5376 24.7613 87.4165 23.9312 87.133 23.1509Z" fill="#FF87AF"/>
<path d="M50.838 23.7119C48.385 24.6429 45.86 25.5829 43.284 26.5119C29.127 31.6459 16.408 35.5539 8.88401 37.8029C8.08847 38.04 7.34979 38.4372 6.71335 38.9701C6.07691 39.5031 5.55614 40.1605 5.18303 40.902C4.80992 41.6436 4.59235 42.4535 4.54368 43.2822C4.49501 44.1109 4.61627 44.9408 4.90001 45.7209L7.22301 52.1279C7.5057 52.9079 7.94477 53.622 8.51328 54.2263C9.0818 54.8306 9.76777 55.3123 10.5291 55.642C11.2905 55.9717 12.1112 56.1424 12.9409 56.1436C13.7705 56.1448 14.5917 55.9764 15.354 55.6489C21.134 53.1689 29.896 49.4639 40.718 45.3489L50.838 23.7119Z" fill="#F0F0F0"/>
<path d="M76.6778 13.2229C70.8998 15.6999 61.6668 19.5779 50.8448 23.6999L49.3208 26.9579C61.1718 22.5209 71.3768 18.2389 77.5358 15.5859C78.298 15.2577 79.1193 15.0888 79.9492 15.0897C80.779 15.0906 81.5999 15.2613 82.3614 15.5912C83.1229 15.921 83.8089 16.4032 84.3771 17.008C84.9454 17.6128 85.3839 18.3274 85.6658 19.1079L84.8088 16.7459C84.5263 15.9657 84.0874 15.2514 83.519 14.6469C82.9505 14.0424 82.2646 13.5605 81.5032 13.2306C80.7418 12.9007 79.9211 12.7298 79.0913 12.7285C78.2615 12.7272 77.4402 12.8954 76.6778 13.2229V13.2229Z" fill="#FFB0CA"/>
<path d="M9.73701 40.1569C17.26 37.9089 29.98 33.9999 44.136 28.8669C45.894 28.2296 47.622 27.5926 49.32 26.9559L50.838 23.7119C48.385 24.6429 45.86 25.5819 43.284 26.5119C29.127 31.6459 16.408 35.5539 8.88401 37.8029C8.08847 38.04 7.34979 38.4372 6.71335 38.9701C6.07691 39.5031 5.55614 40.1605 5.18303 40.902C4.80992 41.6436 4.59235 42.4535 4.54368 43.2822C4.49501 44.1109 4.61627 44.9408 4.90001 45.7209L5.75201 48.0709C5.46908 47.291 5.34848 46.4614 5.3976 45.6332C5.44672 44.805 5.66454 43.9955 6.03768 43.2545C6.41082 42.5134 6.93143 41.8564 7.56756 41.3238C8.20369 40.7911 8.94193 40.3941 9.73701 40.1569V40.1569Z" fill="white"/>
<path d="M87.133 23.1509L84.809 16.7439C84.5264 15.9639 84.0875 15.2499 83.519 14.6456C82.9506 14.0413 82.2647 13.5596 81.5034 13.2299C80.7422 12.9002 79.9215 12.7295 79.0919 12.7283C78.2623 12.7271 77.4412 12.8954 76.679 13.2229C70.9 15.6999 61.666 19.5779 50.845 23.6999L50.838 23.7139C48.385 24.6449 45.86 25.5849 43.284 26.5189C29.127 31.6519 16.408 35.5599 8.884 37.8089C8.08917 38.0461 7.35116 38.4431 6.71523 38.9756C6.0793 39.5081 5.55886 40.1649 5.18582 40.9058C4.81278 41.6466 4.59501 42.4558 4.54586 43.2838C4.49671 44.1118 4.61722 44.9412 4.9 45.7209L7.223 52.1279C7.50568 52.9079 7.94475 53.622 8.51327 54.2263C9.08179 54.8306 9.76776 55.3123 10.5291 55.642C11.2905 55.9717 12.1112 56.1424 12.9408 56.1436C13.7705 56.1448 14.5917 55.9764 15.354 55.6489C21.134 53.1689 29.896 49.4639 40.718 45.3489L41.676 44.9739C43.829 44.1619 46.035 43.3439 48.276 42.5299C62.433 37.3969 75.622 33.3179 83.146 31.0689C83.9417 30.832 84.6806 30.435 85.3173 29.9022C85.954 29.3693 86.4751 28.712 86.8484 27.9704C87.2218 27.2289 87.4397 26.4189 87.4886 25.5901C87.5376 24.7613 87.4165 23.9312 87.133 23.1509Z" stroke="#45413C" stroke-linecap="round" stroke-linejoin="round"/>
<path d="M54.9239 44.2109L59.5399 38.2999C59.8517 37.9009 60.3033 37.6351 60.8035 37.556C61.3036 37.477 61.8152 37.5906 62.2349 37.8739L64.9439 39.7029C65.1782 39.8607 65.3765 40.0662 65.5257 40.3061C65.6748 40.546 65.7715 40.8147 65.8093 41.0946C65.847 41.3745 65.8251 41.6593 65.7449 41.9301C65.6647 42.201 65.528 42.4517 65.3439 42.6659L60.1759 48.6659C60.0026 48.8673 59.791 49.032 59.5534 49.1507C59.3157 49.2693 59.0568 49.3394 58.7918 49.3569C58.5268 49.3744 58.2609 49.339 58.0097 49.2526C57.7586 49.1663 57.5271 49.0307 57.3289 48.8539L55.1719 46.9279C54.7943 46.5906 54.5587 46.1226 54.5127 45.6183C54.4667 45.114 54.6136 44.6111 54.9239 44.2109Z" fill="white" stroke="#45413C" stroke-linecap="round" stroke-linejoin="round"/>
<path d="M51 41.5478V36.7268H58.5V40.2268L54.5 45.7268L51 41.5478Z" fill="#FFDA8F" stroke="#45413C" stroke-linecap="round" stroke-linejoin="round"/>
<path d="M65 26.2268V23.7268C65 21.0746 63.9464 18.5311 62.0711 16.6557C60.1957 14.7804 57.6522 13.7268 55 13.7268C52.3478 13.7268 49.8043 14.7804 47.9289 16.6557C46.0536 18.5311 45 21.0746 45 23.7268V26.2268C44.4696 26.2268 43.9609 26.4375 43.5858 26.8126C43.2107 27.1877 43 27.6964 43 28.2268C43 28.7572 43.2107 29.2659 43.5858 29.641C43.9609 30.0161 44.4696 30.2268 45 30.2268C45.042 30.2268 45.081 30.2168 45.123 30.2138C45.4757 32.5812 46.6669 34.7431 48.4798 36.3059C50.2926 37.8687 52.6065 38.7284 55 38.7284C57.3935 38.7284 59.7074 37.8687 61.5202 36.3059C63.3331 34.7431 64.5243 32.5812 64.877 30.2138C64.919 30.2138 64.958 30.2268 65 30.2268C65.5304 30.2268 66.0391 30.0161 66.4142 29.641C66.7893 29.2659 67 28.7572 67 28.2268C67 27.6964 66.7893 27.1877 66.4142 26.8126C66.0391 26.4375 65.5304 26.2268 65 26.2268Z" fill="#FFDA8F" stroke="#45413C" stroke-linecap="round" stroke-linejoin="round"/>
<path d="M49.25 31.7268C49.9404 31.7268 50.5 31.1672 50.5 30.4768C50.5 29.7865 49.9404 29.2268 49.25 29.2268C48.5596 29.2268 48 29.7865 48 30.4768C48 31.1672 48.5596 31.7268 49.25 31.7268Z" fill="#FFBE3D"/>
<path d="M60.75 31.7268C61.4404 31.7268 62 31.1672 62 30.4768C62 29.7865 61.4404 29.2268 60.75 29.2268C60.0596 29.2268 59.5 29.7865 59.5 30.4768C59.5 31.1672 60.0596 31.7268 60.75 31.7268Z" fill="#FFBE3D"/>
<path d="M51.9922 33.0159C52.803 33.7886 53.8801 34.2197 55.0002 34.2197C56.1203 34.2197 57.1974 33.7886 58.0082 33.0159" stroke="#45413C" stroke-linecap="round" stroke-linejoin="round"/>
<path d="M60.5002 27.2268C60.3766 26.9298 60.1678 26.676 59.9001 26.4974C59.6325 26.3189 59.3179 26.2236 58.9962 26.2236C58.6744 26.2236 58.3599 26.3189 58.0923 26.4974C57.8246 26.676 57.6158 26.9298 57.4922 27.2268" stroke="#45413C" stroke-linecap="round" stroke-linejoin="round"/>
<path d="M52.4919 27.2269C52.3681 26.9299 52.1592 26.6762 51.8914 26.4978C51.6237 26.3193 51.3092 26.2241 50.9874 26.2241C50.6657 26.2241 50.3511 26.3193 50.0834 26.4978C49.8156 26.6762 49.6067 26.9299 49.4829 27.2269" stroke="#45413C" stroke-linecap="round" stroke-linejoin="round"/>
<path d="M55.225 10.2289C58.4152 10.3555 61.4303 11.7214 63.6292 14.0363C65.8281 16.3511 67.0374 19.4324 67 22.6249V33.3999C66.9979 35.9967 66.015 38.4969 64.248 40.3999C64.1187 40.5328 63.9481 40.6179 63.7641 40.6413C63.5801 40.6646 63.3937 40.6248 63.2353 40.5284C63.0769 40.432 62.9558 40.2847 62.892 40.1106C62.8282 39.9365 62.8254 39.7459 62.884 39.5699V39.5699C63.2921 38.3463 63.5001 37.0648 63.5 35.7749V28.0419C63.4961 27.5638 63.3197 27.1031 63.0034 26.7445C62.687 26.3859 62.2519 26.1535 61.778 26.0899C59.6532 25.8108 57.6211 25.0467 55.8389 23.8566C54.0567 22.6665 52.5721 21.0825 51.5 19.2269C48.189 21.2129 46.5 24.0009 46.5 27.3889V35.7799C46.5 37.0695 46.708 38.3506 47.116 39.5739V39.5739C47.1746 39.7499 47.1718 39.9405 47.108 40.1146C47.0442 40.2887 46.9231 40.436 46.7647 40.5324C46.6063 40.6288 46.4199 40.6686 46.2359 40.6452C46.0519 40.6219 45.8813 40.5368 45.752 40.4039C43.9841 38.4999 43.0011 35.9981 43 33.3999V22.2269C43 20.6321 43.3179 19.0533 43.9351 17.5828C44.5523 16.1122 45.4564 14.7795 46.5946 13.6624C47.7328 12.5453 49.0823 11.6663 50.5641 11.0768C52.046 10.4872 53.6305 10.199 55.225 10.2289V10.2289Z" fill="#614B44"/>
<path d="M55.225 10.2289C53.6305 10.199 52.046 10.4872 50.5641 11.0768C49.0823 11.6663 47.7328 12.5453 46.5946 13.6624C45.4564 14.7795 44.5523 16.1122 43.9351 17.5828C43.3179 19.0533 43 20.6321 43 22.2269V25.7919C42.9997 24.1969 43.3174 22.6179 43.9345 21.1471C44.5516 19.6764 45.4556 18.3434 46.5939 17.2261C47.7321 16.1088 49.0817 15.2296 50.5637 14.64C52.0456 14.0503 53.6303 13.762 55.225 13.7919C58.4156 13.9185 61.431 15.2847 63.6299 17.6C65.8289 19.9153 67.0379 22.997 67 26.1899V22.6249C67.0377 19.4323 65.8284 16.3509 63.6295 14.036C61.4306 11.7211 58.4153 10.3553 55.225 10.2289V10.2289Z" fill="#947063"/>
<path d="M55.225 10.2289C58.4153 10.3553 61.4306 11.7211 63.6295 14.036C65.8284 16.3509 67.0377 19.4323 67 22.6249V33.3999C66.9979 35.9967 66.015 38.4969 64.248 40.3999C64.1187 40.5328 63.9481 40.6179 63.7641 40.6413C63.5801 40.6646 63.3937 40.6248 63.2353 40.5284C63.0769 40.432 62.9558 40.2847 62.892 40.1106C62.8282 39.9365 62.8254 39.7459 62.884 39.5699V39.5699C63.2921 38.3463 63.5001 37.0648 63.5 35.7749V28.0419C63.4961 27.5638 63.3197 27.1031 63.0034 26.7445C62.687 26.3859 62.2519 26.1535 61.778 26.0899C59.6532 25.8108 57.6211 25.0467 55.8389 23.8566C54.0567 22.6665 52.5721 21.0825 51.5 19.2269C48.189 21.2129 46.5 24.0009 46.5 27.3889V35.7799C46.5 37.0695 46.708 38.3506 47.116 39.5739V39.5739C47.1746 39.7499 47.1718 39.9405 47.108 40.1146C47.0442 40.2887 46.9231 40.436 46.7647 40.5324C46.6063 40.6288 46.4199 40.6686 46.2359 40.6452C46.0519 40.6219 45.8813 40.5368 45.752 40.4039C43.9841 38.4999 43.0011 35.9981 43 33.3999V22.2269C43 20.6321 43.3179 19.0533 43.9351 17.5828C44.5523 16.1122 45.4564 14.7795 46.5946 13.6624C47.7328 12.5453 49.0823 11.6663 50.5641 11.0768C52.046 10.4872 53.6305 10.199 55.225 10.2289V10.2289Z" stroke="#45413C" stroke-linecap="round" stroke-linejoin="round"/>
<path d="M51.5 19.2268V10.7998" stroke="#45413C" stroke-linecap="round" stroke-linejoin="round"/>
<path d="M26.917 30.2719C26.6666 30.3839 26.4591 30.574 26.3257 30.8137C26.1923 31.0535 26.1402 31.33 26.177 31.6019L26.57 34.5129C26.6782 35.3145 27.1003 36.0403 27.7435 36.5307C28.3867 37.0211 29.1984 37.2359 30 37.1279L31.5111 36.9279C31.9079 36.8743 32.2904 36.7432 32.6365 36.5418C32.9827 36.3404 33.2858 36.0729 33.5286 35.7544C33.7713 35.4358 33.9489 35.0726 34.0513 34.6854C34.1536 34.2983 34.1787 33.8947 34.125 33.4979L33.732 30.5859C33.6955 30.314 33.5719 30.0613 33.3797 29.8655C33.1876 29.6698 32.9372 29.5415 32.666 29.4999C30.7154 29.1989 28.7192 29.467 26.917 30.2719V30.2719Z" fill="#FF8A14" stroke="#45413C" stroke-linecap="round" stroke-linejoin="round"/>
<path d="M64.5 70.2268H70.5C71.1804 71.2607 71.5292 72.4775 71.5 73.7148C71.5398 74.3119 71.46 74.911 71.2654 75.4769C71.0708 76.0428 70.7653 76.5642 70.3668 77.0106C69.9682 77.4571 69.4846 77.8195 68.9443 78.0767C68.404 78.334 67.8178 78.4809 67.22 78.5088C64.807 78.5088 64.613 75.8668 65.487 75.4368C65.7933 75.6191 66.1435 75.7145 66.5 75.7128C65.9696 75.7128 65.4609 75.5021 65.0858 75.127C64.7107 74.7519 64.5 74.2432 64.5 73.7128V70.2268Z" fill="#FF8A14" stroke="#45413C" stroke-linecap="round" stroke-linejoin="round"/>
<path d="M66.5 75.7128C67.047 75.7128 67.639 75.4308 67.637 74.7678" stroke="#45413C" stroke-linecap="round" stroke-linejoin="round"/>
</svg>
