<svg width="1029" height="716" viewBox="0 0 1029 716" fill="none" xmlns="http://www.w3.org/2000/svg">
<path fill-rule="evenodd" clip-rule="evenodd" d="M692.71 574H106.409C31.7558 574 37.0831 538.032 37.0831 496.512V291.249C37.0831 254.262 39.8314 224 76.8186 224H725.632C762.619 224 759.958 254.263 759.958 291.249V506.75C759.849 543.845 729.805 573.89 692.71 574Z" fill="#6269CF" fill-opacity="0.61"/>
<path fill-rule="evenodd" clip-rule="evenodd" d="M717 479.174V178C740.708 178.069 759.909 197.131 759.978 220.666V509.891C759.978 512.131 762.362 479.174 717 479.174Z" fill="#434AB6"/>
<path fill-rule="evenodd" clip-rule="evenodd" d="M79 479.356V178C55.844 178.069 37.0891 197.142 37.0213 220.692V511.896C37.0205 514.137 34.6923 479.356 79 479.356Z" fill="#434AB6"/>
<path fill-rule="evenodd" clip-rule="evenodd" d="M661.469 444.103V477.425C661.465 477.977 661.58 478.524 661.806 479.028L672.248 501.552C673.054 503.291 674.84 503.275 675.632 501.524L685.8 479.018C686.017 478.522 686.128 477.986 686.125 477.444V444.103C686.125 442.503 685.218 441.205 684.102 441.205H663.488C662.375 441.205 661.469 442.503 661.469 444.103Z" fill="url(#paint0_linear)"/>
<path fill-rule="evenodd" clip-rule="evenodd" d="M661.469 444.103V477.425C661.465 477.977 661.58 478.524 661.806 479.028L672.248 501.552C673.054 503.291 674.84 503.275 675.632 501.524L685.8 479.018C686.017 478.522 686.128 477.986 686.125 477.444V444.103C686.125 442.503 685.218 441.205 684.102 441.205H663.488C662.375 441.205 661.469 442.503 661.469 444.103Z" fill="#D8984D"/>
<mask id="mask0" mask-type="alpha" maskUnits="userSpaceOnUse" x="661" y="441" width="26" height="62">
<path fill-rule="evenodd" clip-rule="evenodd" d="M661.469 444.103V477.425C661.465 477.977 661.58 478.524 661.806 479.028L672.248 501.552C673.054 503.291 674.84 503.275 675.632 501.524L685.8 479.018C686.017 478.522 686.128 477.986 686.125 477.444V444.103C686.125 442.503 685.218 441.205 684.102 441.205H663.488C662.375 441.205 661.469 442.503 661.469 444.103Z" fill="white"/>
</mask>
<g mask="url(#mask0)">
<path fill-rule="evenodd" clip-rule="evenodd" d="M674.464 510.263C680.043 510.263 684.566 506.353 684.566 501.53C684.566 496.707 680.043 492.798 674.464 492.798C668.885 492.798 664.362 496.707 664.362 501.53C664.362 506.353 668.885 510.263 674.464 510.263Z" fill="white"/>
</g>
<rect x="661.469" y="477.908" width="279.692" height="24.659" transform="rotate(-90 661.469 477.908)" fill="#F9B25F"/>
<path fill-rule="evenodd" clip-rule="evenodd" d="M661.469 204.23V198.114H686.128V204.23H661.469Z" fill="#FE6369"/>
<path fill-rule="evenodd" clip-rule="evenodd" d="M680.042 224.001H682.735V469.006H680.042V224.001Z" fill="white"/>
<path fill-rule="evenodd" clip-rule="evenodd" d="M665.56 224.001H668.253V469.006H665.56V224.001Z" fill="white"/>
<path fill-rule="evenodd" clip-rule="evenodd" d="M673.05 210.436H675.743V455.441H673.05V210.436Z" fill="white"/>
<rect opacity="0.2" x="0.573456" y="181.888" width="714.805" height="0.847" fill="white"/>
<rect opacity="0.2" x="0.573456" y="149.005" width="714.805" height="0.847" fill="white"/>
<rect opacity="0.2" x="126" y="346" width="568" height="1" fill="white"/>
<rect opacity="0.2" x="126" y="372" width="568" height="1" fill="white"/>
<rect opacity="0.2" x="126" y="396" width="568" height="1" fill="white"/>
<rect opacity="0.2" x="126" y="422" width="568" height="1" fill="white"/>
<rect opacity="0.2" x="126" y="519" width="568" height="1" fill="white"/>
<rect opacity="0.2" x="126" y="544" width="568" height="1" fill="white"/>
<rect opacity="0.2" x="128" y="246" width="1" height="332" fill="white"/>
<rect opacity="0.2" x="175" y="246" width="1" height="332" fill="white"/>
<rect opacity="0.2" x="199" y="246" width="1" height="332" fill="white"/>
<rect opacity="0.2" x="223" y="246" width="1" height="332" fill="white"/>
<rect opacity="0.2" x="297" y="246" width="1" height="332" fill="white"/>
<rect opacity="0.2" x="321" y="246" width="1" height="332" fill="white"/>
<rect opacity="0.2" x="392" y="246" width="1" height="332" fill="white"/>
<rect opacity="0.2" x="416" y="246" width="1" height="332" fill="white"/>
<rect opacity="0.2" x="447" y="246" width="1" height="332" fill="white"/>
<rect opacity="0.2" x="518" y="246" width="1" height="332" fill="white"/>
<rect opacity="0.2" x="542" y="246" width="1" height="332" fill="white"/>
<rect opacity="0.2" x="558.296" y="146.146" width="0.847" height="418.855" fill="white"/>
<rect opacity="0.2" x="588.243" y="146.146" width="0.847" height="418.855" fill="white"/>
<rect opacity="0.2" x="618.19" y="146.146" width="0.847" height="418.855" fill="white"/>
<rect opacity="0.2" x="648.136" y="146.146" width="0.847" height="418.855" fill="white"/>
<rect opacity="0.2" x="678.083" y="146.146" width="0.847" height="418.855" fill="white"/>
<rect opacity="0.2" x="708.03" y="146.146" width="0.847" height="418.855" fill="white"/>
<rect x="164.777" y="557.544" width="1.6944" height="1.00965" fill="white"/>
<rect x="161.738" y="557.544" width="1.6944" height="1.00965" fill="white"/>
<rect x="158.709" y="557.544" width="1.6944" height="1.00965" fill="white"/>
<rect x="173.906" y="557.544" width="1.6944" height="1.00965" fill="white"/>
<rect x="170.867" y="557.544" width="1.6944" height="1.00965" fill="white"/>
<rect x="167.838" y="557.544" width="1.6944" height="1.00965" fill="white"/>
<rect x="183.035" y="557.544" width="1.6944" height="1.00965" fill="white"/>
<rect x="179.996" y="557.544" width="1.6944" height="1.00965" fill="white"/>
<rect x="176.967" y="557.544" width="1.6944" height="1.00965" fill="white"/>
<rect x="192.163" y="557.544" width="1.6944" height="1.00965" fill="white"/>
<rect x="189.124" y="557.544" width="1.6944" height="1.00965" fill="white"/>
<rect x="186.095" y="557.544" width="1.6944" height="1.00965" fill="white"/>
<rect x="138.882" y="302.12" width="1.84612" height="1.00965" fill="white"/>
<rect x="135.571" y="302.12" width="1.84612" height="1.00965" fill="white"/>
<rect x="132.271" y="302.12" width="1.84612" height="1.00965" fill="white"/>
<rect x="148.827" y="302.12" width="1.84612" height="1.00965" fill="white"/>
<rect x="145.516" y="302.12" width="1.84612" height="1.00965" fill="white"/>
<rect x="142.216" y="302.12" width="1.84612" height="1.00965" fill="white"/>
<rect x="158.772" y="302.12" width="1.84612" height="1.00965" fill="white"/>
<rect x="155.461" y="302.12" width="1.84612" height="1.00965" fill="white"/>
<rect x="152.161" y="302.12" width="1.84612" height="1.00965" fill="white"/>
<rect x="168.717" y="302.12" width="1.84612" height="1.00965" fill="white"/>
<rect x="165.406" y="302.12" width="1.84612" height="1.00965" fill="white"/>
<rect x="162.106" y="302.12" width="1.84612" height="1.00965" fill="white"/>
<rect x="178.662" y="302.12" width="1.84612" height="1.00965" fill="white"/>
<rect x="175.351" y="302.12" width="1.84612" height="1.00965" fill="white"/>
<rect x="172.051" y="302.12" width="1.84612" height="1.00965" fill="white"/>
<rect x="136.536" y="517.772" width="1.56492" height="1.00965" fill="white"/>
<rect x="133.73" y="517.772" width="1.56492" height="1.00965" fill="white"/>
<rect x="130.933" y="517.772" width="1.56492" height="1.00965" fill="white"/>
<rect x="144.966" y="517.772" width="1.56492" height="1.00965" fill="white"/>
<rect x="142.16" y="517.772" width="1.56492" height="1.00965" fill="white"/>
<rect x="139.363" y="517.772" width="1.56492" height="1.00965" fill="white"/>
<rect x="153.397" y="517.772" width="1.56492" height="1.00965" fill="white"/>
<rect x="150.59" y="517.772" width="1.56492" height="1.00965" fill="white"/>
<rect x="147.793" y="517.772" width="1.56492" height="1.00965" fill="white"/>
<rect x="161.827" y="517.772" width="1.56492" height="1.00965" fill="white"/>
<rect x="159.02" y="517.772" width="1.56492" height="1.00965" fill="white"/>
<rect x="156.223" y="517.772" width="1.56492" height="1.00965" fill="white"/>
<rect x="170.257" y="517.772" width="1.56492" height="1.00965" fill="white"/>
<rect x="167.45" y="517.772" width="1.56492" height="1.00965" fill="white"/>
<rect x="164.653" y="517.772" width="1.56492" height="1.00965" fill="white"/>
<rect x="178.687" y="517.772" width="1.56492" height="1.00965" fill="white"/>
<rect x="175.881" y="517.772" width="1.56492" height="1.00965" fill="white"/>
<rect x="173.084" y="517.772" width="1.56492" height="1.00965" fill="white"/>
<path fill-rule="evenodd" clip-rule="evenodd" d="M169.001 555.641L165.198 551.837L165.953 551.082L168.468 553.597V521.151H169.536V553.596L172.05 551.082L172.805 551.836L169.001 555.641Z" fill="#F4F4F4"/>
<path fill-rule="evenodd" clip-rule="evenodd" d="M169.001 520.323L172.804 524.127L172.049 524.882L169.534 522.367V545.622H168.466V522.368L165.952 524.882L165.197 524.128L169.001 520.323Z" fill="#F4F4F4"/>
<path fill-rule="evenodd" clip-rule="evenodd" d="M140.566 515.95L136.763 512.146L137.518 511.391L140.032 513.905V468.919H141.101V513.906L143.615 511.392L144.369 512.147L140.566 515.95Z" fill="white"/>
<path fill-rule="evenodd" clip-rule="evenodd" d="M140.565 303.337L144.369 307.141L143.613 307.895L141.099 305.381V509.483H140.031V305.379L137.516 307.894L136.762 307.139L140.565 303.337Z" fill="white"/>
<path fill-rule="evenodd" clip-rule="evenodd" d="M160.212 542.506V543.241H156.568V544.186L160.263 546.953L160.769 546.852C160.897 546.823 160.988 546.709 160.987 546.578V544.115H162.413V543.241H160.987V542.712C160.991 542.655 160.969 542.599 160.928 542.559C160.89 542.524 160.841 542.505 160.789 542.506H160.212ZM158.026 544.107C158.126 544.112 158.219 544.115 158.305 544.115H160.216V545.892L157.716 544.078C157.824 544.092 157.927 544.101 158.026 544.107Z" fill="white"/>
<path fill-rule="evenodd" clip-rule="evenodd" d="M156.997 538.366C157.126 538.361 157.252 538.41 157.344 538.501C157.445 538.628 157.493 538.79 157.477 538.952V540.559L158.697 540.768C158.646 540.531 158.62 540.288 158.617 540.045C158.612 539.769 158.659 539.495 158.755 539.236C158.838 539.015 158.968 538.815 159.135 538.648C159.296 538.489 159.489 538.367 159.702 538.288C159.926 538.206 160.163 538.165 160.402 538.167C160.693 538.163 160.982 538.219 161.251 538.33C161.499 538.434 161.722 538.589 161.907 538.785C162.092 538.984 162.235 539.218 162.329 539.473C162.43 539.751 162.481 540.045 162.478 540.34C162.479 540.515 162.46 540.69 162.422 540.861C162.352 541.169 162.227 541.461 162.052 541.724C161.975 541.841 161.888 541.951 161.792 542.053L161.368 541.746C161.28 541.69 161.228 541.592 161.23 541.488C161.232 541.415 161.254 541.344 161.294 541.284C161.337 541.215 161.384 541.136 161.436 541.046C161.492 540.944 161.539 540.837 161.577 540.728C161.624 540.586 161.646 540.437 161.642 540.288C161.645 540.122 161.615 539.957 161.553 539.803C161.498 539.669 161.413 539.549 161.304 539.454C161.193 539.358 161.064 539.287 160.924 539.244C160.77 539.196 160.609 539.172 160.448 539.173C160.172 539.157 159.901 539.258 159.703 539.45C159.509 539.675 159.413 539.967 159.434 540.263C159.435 540.554 159.487 540.842 159.587 541.115L159.409 541.737L156.574 541.253V538.369L156.997 538.366Z" fill="white"/>
<path fill-rule="evenodd" clip-rule="evenodd" d="M158.269 535.584H163.766L163.764 534.586H162.068C162.193 534.459 162.294 534.311 162.365 534.148C162.442 533.959 162.478 533.756 162.473 533.551C162.476 533.297 162.42 533.044 162.309 532.815C162.201 532.596 162.046 532.405 161.854 532.253C161.65 532.093 161.417 531.971 161.168 531.895C160.89 531.809 160.599 531.767 160.308 531.77C160.003 531.765 159.7 531.803 159.405 531.881C159.167 531.944 158.942 532.052 158.743 532.199C158.571 532.327 158.431 532.492 158.333 532.683C158.238 532.876 158.189 533.088 158.192 533.303C158.186 533.568 158.247 533.83 158.37 534.065C158.489 534.282 158.647 534.477 158.834 534.64L158.451 534.719C158.394 534.729 158.345 534.761 158.313 534.809C158.282 534.858 158.267 534.916 158.269 534.974V535.584ZM159.111 534.177C159.019 534.015 158.974 533.832 158.98 533.646V533.645C158.976 533.524 158.998 533.404 159.046 533.292C159.098 533.185 159.177 533.093 159.277 533.028C159.402 532.947 159.541 532.89 159.687 532.86C159.889 532.817 160.096 532.798 160.302 532.802C160.512 532.798 160.722 532.821 160.927 532.87C161.084 532.907 161.233 532.974 161.365 533.066C161.477 533.146 161.566 533.253 161.623 533.377C161.681 533.506 161.71 533.646 161.708 533.787C161.711 533.934 161.684 534.08 161.629 534.217C161.564 534.363 161.463 534.49 161.336 534.586H159.48C159.333 534.473 159.208 534.335 159.111 534.177Z" fill="white"/>
<path fill-rule="evenodd" clip-rule="evenodd" d="M160.276 530.276L158.269 531.637V530.676C158.266 530.621 158.276 530.567 158.299 530.517C158.324 530.478 158.358 530.446 158.398 530.424L159.784 529.556C159.737 529.542 159.691 529.525 159.646 529.505C159.599 529.484 159.553 529.459 159.509 529.43L158.418 528.731C158.374 528.705 158.336 528.671 158.305 528.63C158.28 528.592 158.267 528.547 158.269 528.501V527.584L160.232 528.949L162.413 527.527V528.488C162.416 528.551 162.396 528.614 162.357 528.664C162.32 528.707 162.276 528.745 162.227 528.775L160.785 529.655C160.871 529.675 160.953 529.709 161.028 529.756L162.227 530.531C162.274 530.562 162.317 530.598 162.354 530.64C162.393 530.684 162.414 530.74 162.413 530.799V531.694L160.276 530.276Z" fill="white"/>
<path fill-rule="evenodd" clip-rule="evenodd" d="M130.596 416.778C130.592 416.53 130.631 416.283 130.711 416.048C130.78 415.844 130.888 415.655 131.029 415.492C131.161 415.342 131.323 415.221 131.505 415.139C131.692 415.056 131.894 415.014 132.099 415.016C132.265 415.013 132.43 415.034 132.59 415.078C132.723 415.116 132.848 415.178 132.959 415.26C133.065 415.34 133.155 415.439 133.226 415.551C133.302 415.673 133.363 415.804 133.408 415.941C133.49 415.634 133.667 415.36 133.913 415.158C134.16 414.979 134.461 414.888 134.766 414.9C135.031 414.894 135.295 414.948 135.537 415.059C135.754 415.161 135.946 415.31 136.1 415.495C136.255 415.682 136.372 415.898 136.446 416.13C136.525 416.377 136.564 416.636 136.562 416.895C136.567 417.155 136.533 417.413 136.462 417.663C136.4 417.87 136.298 418.063 136.163 418.232C136.027 418.397 135.863 418.537 135.678 418.644C135.469 418.766 135.247 418.863 135.016 418.935L134.834 418.495C134.802 418.422 134.786 418.344 134.785 418.265C134.784 418.199 134.8 418.135 134.83 418.077C134.859 418.023 134.904 417.978 134.959 417.95C135.054 417.902 135.147 417.849 135.238 417.791C135.329 417.734 135.412 417.664 135.483 417.583C135.557 417.499 135.615 417.402 135.657 417.298C135.704 417.173 135.727 417.041 135.724 416.908C135.728 416.756 135.701 416.605 135.644 416.464C135.594 416.345 135.521 416.236 135.428 416.146C135.343 416.064 135.242 415.999 135.131 415.956C135.026 415.915 134.915 415.894 134.802 415.894C134.674 415.892 134.545 415.907 134.421 415.938C134.306 415.968 134.203 416.033 134.128 416.124C134.035 416.243 133.97 416.382 133.938 416.53C133.886 416.762 133.863 417 133.869 417.238H133.155C133.159 417.033 133.137 416.828 133.09 416.628C133.058 416.489 132.997 416.357 132.911 416.242C132.839 416.151 132.744 416.081 132.634 416.042C132.52 416.003 132.4 415.984 132.279 415.986C132.047 415.969 131.819 416.051 131.651 416.212C131.502 416.383 131.426 416.604 131.439 416.83C131.431 417.042 131.497 417.251 131.626 417.42C131.75 417.575 131.918 417.689 132.108 417.747C132.193 417.768 132.27 417.815 132.328 417.88C132.375 417.945 132.399 418.023 132.395 418.103C132.395 418.149 132.391 418.195 132.383 418.24L132.292 418.765C132.034 418.732 131.784 418.653 131.555 418.531C131.351 418.422 131.171 418.274 131.025 418.096C130.882 417.919 130.774 417.716 130.707 417.498C130.633 417.265 130.596 417.022 130.596 416.778Z" fill="white"/>
<path fill-rule="evenodd" clip-rule="evenodd" d="M136.566 412.273C136.569 412.553 136.528 412.832 136.444 413.099C136.372 413.332 136.255 413.55 136.101 413.739C135.955 413.915 135.771 414.057 135.564 414.153C135.343 414.254 135.103 414.304 134.861 414.301C134.55 414.311 134.244 414.222 133.987 414.047C133.728 413.847 133.541 413.568 133.456 413.252C133.357 413.512 133.181 413.736 132.951 413.892C132.524 414.146 131.999 414.176 131.546 413.972C131.355 413.882 131.185 413.754 131.047 413.595C130.901 413.424 130.788 413.227 130.716 413.015C130.557 412.533 130.557 412.014 130.716 411.532C130.788 411.32 130.901 411.123 131.047 410.953C131.185 410.793 131.355 410.665 131.546 410.575C131.739 410.485 131.95 410.438 132.164 410.44C132.442 410.432 132.716 410.507 132.951 410.655C133.18 410.81 133.356 411.032 133.456 411.29C133.541 410.974 133.728 410.695 133.987 410.496C134.244 410.321 134.55 410.232 134.861 410.242C135.103 410.238 135.343 410.289 135.564 410.389C135.771 410.486 135.955 410.627 136.101 410.803C136.255 410.993 136.372 411.21 136.444 411.443C136.528 411.712 136.569 411.992 136.566 412.273ZM135.786 412.273C135.789 412.126 135.765 411.979 135.716 411.841C135.673 411.724 135.606 411.617 135.519 411.528C135.435 411.442 135.333 411.377 135.221 411.336C135.1 411.292 134.973 411.271 134.845 411.272C134.576 411.252 134.311 411.35 134.118 411.539C133.79 411.974 133.79 412.574 134.118 413.009C134.311 413.198 134.576 413.295 134.845 413.276C134.973 413.277 135.1 413.255 135.221 413.212C135.333 413.171 135.435 413.105 135.519 413.019C135.606 412.93 135.673 412.823 135.716 412.706C135.765 412.567 135.789 412.42 135.785 412.273H135.786ZM133.006 411.865C133.062 411.994 133.089 412.133 133.085 412.273H133.088C133.091 412.414 133.063 412.554 133.006 412.683C132.96 412.787 132.89 412.879 132.802 412.95C132.716 413.018 132.617 413.067 132.511 413.094C132.401 413.122 132.288 413.137 132.174 413.136C132.066 413.137 131.959 413.12 131.857 413.085C131.758 413.052 131.668 412.998 131.592 412.927C131.512 412.851 131.45 412.76 131.408 412.658C131.317 412.41 131.317 412.138 131.408 411.891C131.45 411.789 131.512 411.698 131.592 411.624C131.668 411.553 131.758 411.499 131.857 411.465C131.959 411.429 132.066 411.412 132.174 411.412C132.288 411.412 132.401 411.426 132.511 411.455C132.617 411.481 132.716 411.53 132.802 411.598C132.89 411.67 132.96 411.761 133.006 411.865Z" fill="white"/>
<path fill-rule="evenodd" clip-rule="evenodd" d="M134.905 405.612C134.472 405.495 134.026 405.44 133.578 405.448C133.129 405.439 132.682 405.495 132.249 405.612C131.913 405.702 131.598 405.856 131.32 406.064C131.085 406.244 130.897 406.478 130.773 406.747C130.652 407.014 130.591 407.304 130.593 407.597C130.591 407.889 130.652 408.178 130.773 408.443C130.898 408.709 131.086 408.941 131.32 409.119C131.598 409.327 131.913 409.479 132.249 409.568C133.121 409.783 134.032 409.783 134.905 409.568C135.241 409.48 135.557 409.327 135.836 409.119C136.07 408.941 136.258 408.709 136.383 408.443C136.504 408.178 136.565 407.889 136.562 407.597C136.565 407.304 136.504 407.014 136.383 406.747C136.258 406.478 136.071 406.244 135.836 406.064C135.557 405.855 135.241 405.702 134.905 405.612ZM132.528 406.572C132.874 406.505 133.226 406.474 133.578 406.48V406.478C133.93 406.472 134.282 406.504 134.628 406.572C134.861 406.618 135.085 406.702 135.291 406.821C135.437 406.906 135.556 407.03 135.636 407.179C135.701 407.31 135.735 407.454 135.735 407.599C135.735 407.743 135.701 407.885 135.636 408.013C135.556 408.161 135.437 408.283 135.291 408.366C135.085 408.484 134.861 408.567 134.628 408.611C133.933 408.731 133.223 408.731 132.528 408.611C132.295 408.567 132.071 408.484 131.865 408.366C131.719 408.283 131.599 408.161 131.52 408.013C131.455 407.885 131.421 407.743 131.42 407.599C131.42 407.454 131.454 407.31 131.52 407.179C131.599 407.03 131.719 406.906 131.865 406.821C132.071 406.702 132.295 406.618 132.528 406.572Z" fill="white"/>
<path fill-rule="evenodd" clip-rule="evenodd" d="M132.356 403.154H137.853L137.852 402.155H136.156C136.281 402.028 136.381 401.879 136.453 401.716C136.529 401.527 136.566 401.324 136.56 401.121C136.564 400.865 136.508 400.613 136.396 400.383C136.288 400.165 136.133 399.973 135.942 399.822C135.737 399.661 135.505 399.54 135.256 399.464C134.977 399.379 134.687 399.336 134.395 399.339C134.091 399.334 133.787 399.372 133.493 399.45C133.254 399.514 133.03 399.621 132.83 399.768C132.658 399.896 132.518 400.062 132.421 400.253C132.325 400.446 132.277 400.658 132.279 400.873C132.273 401.137 132.334 401.399 132.457 401.634C132.577 401.851 132.734 402.046 132.922 402.209L132.538 402.288C132.482 402.298 132.432 402.331 132.401 402.378C132.37 402.428 132.354 402.485 132.356 402.543V403.154ZM133.198 401.747C133.107 401.585 133.062 401.402 133.067 401.216V401.215C133.064 401.094 133.088 400.973 133.136 400.862C133.188 400.755 133.267 400.664 133.367 400.598C133.491 400.517 133.631 400.46 133.777 400.43C133.979 400.388 134.185 400.368 134.392 400.371C134.602 400.368 134.812 400.391 135.017 400.44C135.174 400.477 135.322 400.544 135.455 400.636C135.567 400.716 135.655 400.823 135.713 400.947C135.771 401.076 135.8 401.216 135.798 401.357C135.801 401.504 135.774 401.65 135.719 401.787C135.654 401.933 135.553 402.061 135.426 402.157H133.568C133.421 402.044 133.296 401.905 133.198 401.747Z" fill="white"/>
<path fill-rule="evenodd" clip-rule="evenodd" d="M134.364 397.846L132.357 399.207V398.246C132.354 398.192 132.364 398.137 132.387 398.088C132.412 398.049 132.446 398.017 132.486 397.995L133.872 397.126C133.826 397.111 133.781 397.091 133.738 397.069C133.69 397.048 133.644 397.024 133.6 396.995L132.509 396.296C132.466 396.27 132.427 396.235 132.397 396.195C132.371 396.156 132.359 396.111 132.36 396.065V395.148L134.323 396.514L136.504 395.092V396.053C136.508 396.117 136.488 396.179 136.448 396.229C136.411 396.273 136.367 396.31 136.318 396.34L134.874 397.228C134.959 397.247 135.041 397.281 135.116 397.328L136.315 398.104C136.362 398.134 136.405 398.171 136.442 398.212C136.481 398.256 136.502 398.313 136.501 398.371V399.264L134.364 397.846Z" fill="white"/>
<path fill-rule="evenodd" clip-rule="evenodd" d="M451 328L447.981 331L447.382 330.405L449.378 328.421H416V327.579H449.373L447.378 325.595L447.977 325L451 328Z" fill="white"/>
<path fill-rule="evenodd" clip-rule="evenodd" d="M402.289 330.197H403.532V326.252C403.532 326.133 403.537 326.013 403.544 325.892L402.512 326.776C402.488 326.796 402.461 326.812 402.432 326.822C402.407 326.831 402.38 326.836 402.353 326.836C402.315 326.837 402.277 326.828 402.244 326.81C402.215 326.795 402.19 326.774 402.172 326.747L401.945 326.436L403.667 324.946H404.252V330.196H405.393V330.745H402.295L402.289 330.197Z" fill="#F2F2F2"/>
<path fill-rule="evenodd" clip-rule="evenodd" d="M396.152 327.846C396.152 331.998 399.517 335.363 403.669 335.363C407.819 335.359 411.182 331.996 411.186 327.846C411.186 323.694 407.821 320.329 403.669 320.329C399.517 320.329 396.152 323.694 396.152 327.846ZM396.825 327.846C396.825 324.066 399.889 321.002 403.669 321.002C407.447 321.007 410.508 324.068 410.513 327.846C410.513 331.625 407.449 334.689 403.669 334.689C399.889 334.689 396.825 331.625 396.825 327.846Z" fill="white"/>
<path fill-rule="evenodd" clip-rule="evenodd" d="M404.029 368.917C404.262 368.914 404.494 368.951 404.715 369.025C404.919 369.092 405.106 369.2 405.267 369.342C405.423 369.483 405.547 369.656 405.632 369.848C405.724 370.063 405.769 370.294 405.765 370.528C405.767 370.731 405.735 370.933 405.668 371.125C405.602 371.311 405.514 371.488 405.406 371.652C405.292 371.825 405.164 371.988 405.024 372.141C404.88 372.3 404.727 372.459 404.566 372.624L403.043 374.183C403.151 374.153 403.26 374.13 403.37 374.112C403.475 374.095 403.582 374.086 403.688 374.086H405.626C405.695 374.082 405.762 374.107 405.812 374.154C405.858 374.201 405.883 374.266 405.881 374.332V374.768H402.019V374.521C402.02 374.467 402.03 374.413 402.049 374.362C402.071 374.306 402.105 374.255 402.149 374.214L404.003 372.352C404.156 372.195 404.296 372.045 404.423 371.901C404.543 371.765 404.652 371.62 404.748 371.467C404.835 371.328 404.905 371.179 404.956 371.023C405.005 370.869 405.029 370.708 405.028 370.547C405.032 370.394 405.005 370.242 404.949 370.099C404.9 369.978 404.824 369.869 404.726 369.782C404.63 369.697 404.517 369.633 404.395 369.593C404.263 369.551 404.126 369.53 403.988 369.531C403.85 369.53 403.714 369.552 403.584 369.596C403.465 369.637 403.354 369.697 403.255 369.775C403.16 369.852 403.078 369.945 403.013 370.049C402.946 370.155 402.899 370.272 402.874 370.395C402.86 370.46 402.826 370.52 402.777 370.565C402.728 370.602 402.668 370.621 402.607 370.617H402.565L402.515 370.611L402.139 370.547C402.171 370.302 402.245 370.065 402.358 369.846C402.459 369.65 402.598 369.477 402.767 369.335C402.936 369.196 403.129 369.09 403.337 369.021C403.56 368.949 403.794 368.914 404.029 368.917V368.917Z" fill="#F2F2F2"/>
<path fill-rule="evenodd" clip-rule="evenodd" d="M396.432 371.842C396.432 375.994 399.798 379.359 403.949 379.359C408.099 379.355 411.462 375.992 411.467 371.842C411.467 367.691 408.101 364.325 403.949 364.325C399.798 364.325 396.432 367.691 396.432 371.842ZM397.106 371.842C397.106 368.063 400.17 364.999 403.949 364.999C407.727 365.003 410.789 368.065 410.793 371.842C410.793 375.622 407.729 378.686 403.949 378.686C400.17 378.686 397.106 375.622 397.106 371.842Z" fill="white"/>
<path fill-rule="evenodd" clip-rule="evenodd" d="M450 372L446.981 375L446.382 374.405L448.378 372.421H415V371.579H448.378L446.382 369.595L446.981 369L450 372Z" fill="white"/>
<path fill-rule="evenodd" clip-rule="evenodd" d="M450 396L446.981 399L446.382 398.405L448.378 396.421H415V395.579H448.378L446.382 393.595L446.981 393L450 396Z" fill="white"/>
<path fill-rule="evenodd" clip-rule="evenodd" d="M404.039 392.367C404.269 392.365 404.498 392.4 404.717 392.472C404.913 392.536 405.095 392.637 405.252 392.771C405.402 392.9 405.521 393.06 405.602 393.24C405.687 393.431 405.73 393.64 405.727 393.85C405.73 394.016 405.706 394.182 405.657 394.341C405.613 394.478 405.545 394.607 405.456 394.72C405.367 394.83 405.259 394.924 405.138 394.997C405.007 395.075 404.868 395.136 404.722 395.179C405.051 395.25 405.349 395.425 405.572 395.679C405.767 395.93 405.868 396.242 405.856 396.559C405.86 396.806 405.808 397.05 405.704 397.274C405.607 397.483 405.465 397.668 405.29 397.818C405.11 397.97 404.903 398.086 404.679 398.161C404.437 398.242 404.184 398.282 403.93 398.28C403.663 398.286 403.396 398.247 403.142 398.165C402.938 398.097 402.749 397.989 402.586 397.847C402.435 397.712 402.309 397.55 402.215 397.37C402.115 397.178 402.032 396.978 401.968 396.771L402.275 396.641C402.328 396.617 402.386 396.605 402.445 396.605C402.495 396.604 402.544 396.615 402.588 396.639C402.631 396.663 402.664 396.7 402.683 396.746L402.699 396.78L402.715 396.818C402.753 396.896 402.798 396.984 402.852 397.083C402.91 397.186 402.984 397.279 403.071 397.359C403.171 397.451 403.287 397.525 403.412 397.578C403.574 397.642 403.746 397.672 403.919 397.667C404.101 397.67 404.282 397.637 404.451 397.567C404.593 397.508 404.722 397.421 404.83 397.311C404.929 397.21 405.006 397.09 405.058 396.96C405.109 396.838 405.136 396.708 405.138 396.576C405.139 396.431 405.118 396.286 405.075 396.148C405.032 396.017 404.954 395.901 404.849 395.813C404.716 395.706 404.562 395.63 404.397 395.59C404.154 395.531 403.905 395.504 403.656 395.511V394.986C403.868 394.989 404.079 394.962 404.284 394.906C404.438 394.865 404.583 394.793 404.71 394.696C404.815 394.613 404.897 394.503 404.948 394.379C405.048 394.105 405.047 393.803 404.943 393.53C404.895 393.413 404.821 393.308 404.727 393.224C404.633 393.141 404.522 393.079 404.402 393.042C404.271 393.001 404.134 392.98 403.996 392.981C403.859 392.98 403.723 393.002 403.593 393.046C403.474 393.086 403.363 393.147 403.264 393.224C403.169 393.302 403.089 393.395 403.026 393.499C402.961 393.607 402.912 393.723 402.88 393.845C402.866 393.91 402.833 393.969 402.783 394.014C402.736 394.051 402.678 394.069 402.618 394.067H402.576C402.561 394.067 402.544 394.067 402.526 394.061L402.149 393.997C402.181 393.752 402.255 393.515 402.368 393.296C402.47 393.1 402.609 392.927 402.779 392.785C402.947 392.646 403.14 392.54 403.347 392.472C403.571 392.4 403.804 392.365 404.039 392.367Z" fill="#F2F2F2"/>
<path fill-rule="evenodd" clip-rule="evenodd" d="M396.969 398.201C398.132 401.01 400.873 402.842 403.914 402.842C408.064 402.838 411.426 399.475 411.431 395.325C411.431 392.284 409.599 389.543 406.79 388.38C403.981 387.216 400.748 387.859 398.598 390.009C396.448 392.159 395.805 395.393 396.969 398.201ZM397.07 395.325C397.07 391.545 400.134 388.481 403.914 388.481C407.691 388.486 410.753 391.547 410.757 395.325C410.757 399.104 407.693 402.168 403.914 402.168C400.134 402.168 397.07 399.104 397.07 395.325Z" fill="white"/>
<path fill-rule="evenodd" clip-rule="evenodd" d="M273.301 401.661H272.525V398.387H271.932L269.44 401.693L269.506 402.016C269.515 402.056 269.539 402.092 269.572 402.117C269.607 402.145 269.65 402.16 269.695 402.159H271.964V403.509H272.528V402.161H273.164C273.203 402.165 273.242 402.15 273.269 402.122C273.292 402.095 273.303 402.06 273.301 402.025V401.661ZM271.97 399.348C271.966 399.42 271.964 399.487 271.964 399.548V401.661H270.13L271.993 399.127C271.981 399.2 271.974 399.274 271.97 399.348Z" fill="#F2F2F2"/>
<path fill-rule="evenodd" clip-rule="evenodd" d="M264.122 401.71C264.122 405.862 267.488 409.227 271.639 409.227C275.789 409.223 279.152 405.86 279.156 401.71C279.156 397.558 275.791 394.193 271.639 394.193C267.488 394.193 264.122 397.558 264.122 401.71ZM264.796 401.71C264.796 397.93 267.86 394.866 271.639 394.866V394.863C275.418 394.868 278.48 397.931 278.483 401.71C278.483 405.49 275.419 408.553 271.639 408.553C267.86 408.553 264.796 405.49 264.796 401.71Z" fill="white"/>
<path fill-rule="evenodd" clip-rule="evenodd" d="M459.699 556L459.841 557.984L460 560.255L459.145 560.315L458.944 557.502L457.406 559.254L455.502 561.423L454.364 562.72L453.727 563.446L453.402 563.815C453.35 563.878 453.295 563.937 453.237 563.994H452.994H445.887L432 564V563.153L445.887 563.146H452.667H452.853C452.897 563.104 452.939 563.059 452.977 563.012L453.223 562.733L453.723 562.163L454.86 560.867L456.764 558.697L458.302 556.945L455.457 557.143L455.397 556.298L457.694 556.141L459.699 556Z" fill="white"/>
<path fill-rule="evenodd" clip-rule="evenodd" d="M436.187 550.445C436.19 550.539 436.155 550.63 436.09 550.698C435.998 550.773 435.88 550.809 435.762 550.797H433.945L433.678 552.316C433.952 552.254 434.233 552.221 434.514 552.218C434.785 552.214 435.054 552.259 435.308 552.353C435.525 552.433 435.723 552.558 435.888 552.72C436.045 552.878 436.166 553.068 436.242 553.277C436.322 553.499 436.363 553.735 436.361 553.972C436.366 554.257 436.312 554.54 436.202 554.803C436.099 555.043 435.948 555.26 435.759 555.439C435.568 555.617 435.344 555.755 435.099 555.845C434.68 555.994 434.227 556.026 433.791 555.935C433.642 555.904 433.496 555.859 433.355 555.8C433.224 555.746 433.099 555.681 432.979 555.606C432.87 555.539 432.768 555.462 432.672 555.376L432.891 555.069C432.932 555.003 433.006 554.963 433.085 554.965C433.149 554.969 433.21 554.99 433.263 555.027C433.333 555.069 433.416 555.115 433.513 555.166C433.622 555.222 433.736 555.269 433.854 555.305C434.005 555.35 434.163 555.371 434.321 555.368C434.507 555.371 434.692 555.338 434.866 555.271C435.022 555.21 435.164 555.116 435.28 554.995C435.397 554.871 435.487 554.724 435.545 554.564C435.609 554.384 435.641 554.194 435.638 554.003C435.64 553.836 435.613 553.671 435.558 553.513C435.508 553.373 435.427 553.246 435.32 553.142C435.206 553.035 435.071 552.954 434.923 552.904C434.744 552.844 434.556 552.815 434.367 552.819C434.215 552.819 434.064 552.832 433.915 552.855C433.75 552.882 433.588 552.921 433.43 552.972L432.978 552.838L433.447 550.132H436.189L436.187 550.445Z" fill="#F2F2F2"/>
<path fill-rule="evenodd" clip-rule="evenodd" d="M427.063 553.188C427.063 557.339 430.428 560.704 434.579 560.705C438.729 560.7 442.092 557.337 442.096 553.188C442.096 549.037 438.73 545.672 434.579 545.672C430.428 545.672 427.063 549.037 427.063 553.188ZM428.256 550.57C429.315 548.012 431.811 546.345 434.579 546.345C438.356 546.349 441.418 549.41 441.422 553.188C441.423 555.956 439.756 558.451 437.198 559.511C434.641 560.57 431.697 559.985 429.74 558.028C427.783 556.071 427.197 553.127 428.256 550.57Z" fill="white"/>
<path fill-rule="evenodd" clip-rule="evenodd" d="M506.625 290.483H507.868V286.537C507.868 286.419 507.873 286.299 507.88 286.178L506.847 287.062C506.824 287.082 506.797 287.098 506.768 287.108C506.742 287.117 506.715 287.122 506.688 287.122C506.65 287.123 506.613 287.114 506.579 287.096C506.551 287.081 506.526 287.06 506.507 287.033L506.281 286.723L508.002 285.233H508.588V290.483H509.728V291.031H506.63L506.625 290.483Z" fill="white"/>
<path fill-rule="evenodd" clip-rule="evenodd" d="M500.487 288.131C500.487 292.283 503.853 295.648 508.004 295.648C512.154 295.644 515.517 292.281 515.522 288.131C515.522 283.98 512.156 280.614 508.004 280.614C503.853 280.614 500.487 283.98 500.487 288.131ZM501.161 288.131C501.161 284.352 504.225 281.288 508.004 281.288C511.782 281.292 514.844 284.353 514.848 288.131C514.848 291.911 511.784 294.975 508.004 294.975C504.225 294.975 501.161 291.911 501.161 288.131Z" fill="white"/>
<path fill-rule="evenodd" clip-rule="evenodd" d="M523.589 281H630.411C631.288 281 632 281.735 632 282.642V286.358C632 287.265 631.288 288 630.411 288H523.589C522.712 288 522 287.265 522 286.358V282.642C522 281.735 522.712 281 523.589 281Z" fill="#E5E8F5"/>
<path fill-rule="evenodd" clip-rule="evenodd" d="M523.605 292H588.395C589.282 292 590 292.735 590 293.642V297.358C590 298.265 589.282 299 588.395 299H523.605C522.718 299 522 298.265 522 297.358V293.642C522 292.735 522.718 292 523.605 292Z" fill="#E5E8F5"/>
<path fill-rule="evenodd" clip-rule="evenodd" d="M523.589 405H630.411C631.288 405 632 405.735 632 406.642V410.358C632 411.265 631.288 412 630.411 412H523.589C522.712 412 522 411.265 522 410.358V406.642C522 405.735 522.712 405 523.589 405Z" fill="#E5E8F5"/>
<path fill-rule="evenodd" clip-rule="evenodd" d="M523.605 417H588.395C589.282 417 590 417.63 590 418.407V421.593C590 422.37 589.282 423 588.395 423H523.605C522.718 423 522 422.37 522 421.593V418.407C522 417.63 522.718 417 523.605 417Z" fill="#E5E8F5"/>
<path fill-rule="evenodd" clip-rule="evenodd" d="M523.589 316H630.411C631.288 316 632 316.735 632 317.642V321.358C632 322.265 631.288 323 630.411 323H523.589C522.712 323 522 322.265 522 321.358V317.642C522 316.735 522.712 316 523.589 316Z" fill="#E5E8F5"/>
<path fill-rule="evenodd" clip-rule="evenodd" d="M523.589 327H630.411C631.288 327 632 327.735 632 328.642V332.358C632 333.265 631.288 334 630.411 334H523.589C522.712 334 522 333.265 522 332.358V328.642C522 327.735 522.712 327 523.589 327Z" fill="#E5E8F5"/>
<path fill-rule="evenodd" clip-rule="evenodd" d="M523.581 339H587.419C588.292 339 589 339.735 589 340.642V344.358C589 345.265 588.292 346 587.419 346H523.581C522.708 346 522 345.265 522 344.358V340.642C522 339.735 522.708 339 523.581 339Z" fill="#E5E8F5"/>
<path fill-rule="evenodd" clip-rule="evenodd" d="M508.283 320.251C508.517 320.249 508.748 320.286 508.97 320.36C509.173 320.427 509.361 320.535 509.521 320.677C509.677 320.818 509.802 320.991 509.886 321.184C509.979 321.398 510.024 321.63 510.02 321.863C510.022 322.066 509.989 322.269 509.923 322.461C509.857 322.646 509.769 322.823 509.661 322.988C509.547 323.16 509.419 323.324 509.279 323.476C509.135 323.635 508.983 323.796 508.821 323.959L507.298 325.518C507.406 325.489 507.515 325.465 507.626 325.448C507.731 325.431 507.837 325.422 507.943 325.421H509.882C509.95 325.418 510.018 325.442 510.067 325.49C510.114 325.537 510.139 325.602 510.136 325.668V326.104H506.274V325.858C506.275 325.803 506.285 325.75 506.305 325.699C506.327 325.642 506.361 325.592 506.404 325.549L508.258 323.687C508.411 323.531 508.552 323.381 508.678 323.237C508.798 323.101 508.907 322.956 509.003 322.802C509.09 322.664 509.16 322.515 509.211 322.36C509.261 322.206 509.285 322.045 509.284 321.883C509.288 321.731 509.261 321.579 509.205 321.437C509.156 321.316 509.08 321.207 508.982 321.119C508.886 321.035 508.773 320.971 508.651 320.932C508.519 320.889 508.382 320.868 508.244 320.869C508.106 320.868 507.97 320.889 507.84 320.933C507.721 320.974 507.61 321.035 507.511 321.113C507.417 321.19 507.336 321.282 507.273 321.385C507.206 321.492 507.159 321.609 507.134 321.732C507.119 321.798 507.085 321.857 507.036 321.902C506.988 321.939 506.928 321.958 506.867 321.955H506.825L506.774 321.948L506.398 321.884C506.43 321.64 506.504 321.403 506.617 321.184C506.718 320.988 506.858 320.814 507.027 320.673C507.195 320.534 507.389 320.427 507.597 320.36C507.818 320.287 508.05 320.25 508.283 320.251V320.251Z" fill="white"/>
<path fill-rule="evenodd" clip-rule="evenodd" d="M500.689 323.177C500.689 327.328 504.055 330.694 508.206 330.694C512.356 330.689 515.719 327.326 515.723 323.177C515.723 319.025 512.358 315.659 508.206 315.659C504.055 315.659 500.689 319.025 500.689 323.177ZM501.363 323.177C501.363 319.397 504.427 316.333 508.206 316.333C511.984 316.337 515.045 319.399 515.05 323.177C515.05 326.956 511.986 330.02 508.206 330.02C504.427 330.02 501.363 326.956 501.363 323.177Z" fill="white"/>
<path fill-rule="evenodd" clip-rule="evenodd" d="M523.589 363H630.411C631.288 363 632 363.735 632 364.642V368.358C632 369.265 631.288 370 630.411 370H523.589C522.712 370 522 369.265 522 368.358V364.642C522 363.735 522.712 363 523.589 363Z" fill="#E5E8F5"/>
<path fill-rule="evenodd" clip-rule="evenodd" d="M523.589 375H630.411C631.288 375 632 375.63 632 376.407V379.593C632 380.37 631.288 381 630.411 381H523.589C522.712 381 522 380.37 522 379.593V376.407C522 375.63 522.712 375 523.589 375Z" fill="#E5E8F5"/>
<path fill-rule="evenodd" clip-rule="evenodd" d="M523.581 387H587.419C588.292 387 589 387.63 589 388.407V391.593C589 392.37 588.292 393 587.419 393H523.581C522.708 393 522 392.37 522 391.593V388.407C522 387.63 522.708 387 523.581 387Z" fill="#E5E8F5"/>
<path fill-rule="evenodd" clip-rule="evenodd" d="M508.333 367.824C508.563 367.821 508.792 367.857 509.011 367.928C509.207 367.992 509.389 368.094 509.546 368.227C509.696 368.356 509.815 368.516 509.896 368.696C509.981 368.888 510.024 369.096 510.021 369.306C510.024 369.472 510 369.638 509.951 369.797C509.907 369.934 509.838 370.063 509.749 370.177C509.66 370.286 509.552 370.38 509.431 370.453C509.301 370.531 509.16 370.592 509.014 370.635C509.344 370.706 509.642 370.882 509.865 371.135C510.06 371.386 510.16 371.698 510.149 372.015C510.154 372.263 510.102 372.509 509.998 372.734C509.9 372.943 509.759 373.128 509.584 373.278C509.404 373.43 509.196 373.547 508.972 373.621C508.731 373.702 508.478 373.742 508.224 373.74C507.957 373.746 507.691 373.707 507.437 373.625C507.232 373.557 507.043 373.449 506.88 373.307C506.729 373.172 506.603 373.01 506.509 372.831C506.409 372.639 506.327 372.438 506.263 372.231L506.57 372.101C506.623 372.078 506.681 372.065 506.74 372.065C506.79 372.064 506.839 372.075 506.883 372.099C506.926 372.123 506.959 372.161 506.978 372.206C506.983 372.217 506.989 372.228 506.993 372.24C506.999 372.253 507.005 372.265 507.009 372.278C507.047 372.358 507.093 372.444 507.147 372.543C507.204 372.646 507.278 372.739 507.365 372.819C507.465 372.912 507.581 372.986 507.707 373.038C507.867 373.102 508.04 373.132 508.213 373.127C508.395 373.131 508.576 373.097 508.744 373.028C508.886 372.968 509.015 372.881 509.123 372.771C509.221 372.67 509.299 372.551 509.351 372.42C509.402 372.298 509.429 372.168 509.43 372.036C509.432 371.891 509.41 371.746 509.367 371.608C509.324 371.477 509.246 371.361 509.14 371.273C509.008 371.166 508.854 371.09 508.688 371.05C508.446 370.991 508.196 370.964 507.946 370.971V370.445C508.159 370.448 508.37 370.422 508.575 370.366C508.729 370.324 508.874 370.253 509.001 370.156C509.106 370.072 509.188 369.963 509.239 369.838C509.34 369.564 509.339 369.263 509.234 368.99C509.186 368.873 509.113 368.768 509.019 368.683C508.924 368.601 508.814 368.539 508.694 368.501C508.563 368.46 508.426 368.44 508.288 368.441C508.151 368.439 508.014 368.461 507.885 368.505C507.765 368.546 507.654 368.606 507.555 368.685C507.461 368.762 507.38 368.855 507.317 368.959C507.252 369.066 507.203 369.183 507.172 369.304C507.158 369.37 507.124 369.429 507.075 369.474C507.028 369.511 506.969 369.529 506.909 369.527H506.867L506.817 369.52L506.441 369.456C506.473 369.212 506.546 368.975 506.659 368.755C506.761 368.56 506.9 368.386 507.07 368.245C507.238 368.106 507.431 367.999 507.638 367.932C507.862 367.858 508.097 367.822 508.333 367.824Z" fill="white"/>
<path fill-rule="evenodd" clip-rule="evenodd" d="M500.69 370.779C500.69 374.931 504.055 378.297 508.207 378.297C512.357 378.292 515.719 374.929 515.724 370.779C515.724 366.628 512.359 363.262 508.207 363.262C504.055 363.262 500.69 366.628 500.69 370.779ZM501.363 370.779C501.363 367 504.427 363.936 508.207 363.936C511.985 363.94 515.046 367.002 515.051 370.779C515.051 374.559 511.987 377.623 508.207 377.623C504.427 377.623 501.363 374.559 501.363 370.779Z" fill="white"/>
<path fill-rule="evenodd" clip-rule="evenodd" d="M509.729 412.54H508.953V409.267H508.36L505.868 412.573L505.934 412.896C505.943 412.936 505.966 412.972 505.999 412.997C506.034 413.025 506.078 413.039 506.123 413.039H508.392V414.389H508.956V413.041H509.592C509.631 413.044 509.67 413.03 509.697 413.002C509.719 412.975 509.731 412.94 509.729 412.905V412.54ZM508.398 410.228C508.394 410.3 508.392 410.366 508.392 410.428V412.54H506.558L508.421 410.006C508.409 410.08 508.401 410.154 508.398 410.228Z" fill="white"/>
<path fill-rule="evenodd" clip-rule="evenodd" d="M501.123 415.464C502.287 418.273 505.028 420.104 508.068 420.104C512.218 420.1 515.581 416.737 515.585 412.587C515.585 409.547 513.754 406.806 510.945 405.642C508.136 404.479 504.902 405.122 502.753 407.272C500.603 409.422 499.96 412.655 501.123 415.464ZM501.224 412.587C501.224 408.808 504.288 405.744 508.068 405.744C511.846 405.748 514.907 408.81 514.912 412.587C514.912 416.367 511.848 419.431 508.068 419.431C504.288 419.431 501.224 416.367 501.224 412.587Z" fill="white"/>
<path fill-rule="evenodd" clip-rule="evenodd" d="M523.589 440H630.411C631.288 440 632 440.735 632 441.642V445.358C632 446.265 631.288 447 630.411 447H523.589C522.712 447 522 446.265 522 445.358V441.642C522 440.735 522.712 440 523.589 440Z" fill="#E5E8F5"/>
<path fill-rule="evenodd" clip-rule="evenodd" d="M523.605 451H588.395C589.282 451 590 451.735 590 452.642V456.358C590 457.265 589.282 458 588.395 458H523.605C522.718 458 522 457.265 522 456.358V452.642C522 451.735 522.718 451 523.605 451Z" fill="#E5E8F5"/>
<path fill-rule="evenodd" clip-rule="evenodd" d="M509.672 444.444C509.675 444.538 509.64 444.629 509.575 444.697C509.483 444.772 509.365 444.808 509.247 444.796H507.43L507.163 446.315C507.438 446.253 507.718 446.22 508 446.217C508.27 446.213 508.54 446.258 508.794 446.351C509.011 446.431 509.209 446.557 509.374 446.718C509.531 446.876 509.651 447.066 509.727 447.274C509.808 447.497 509.849 447.733 509.847 447.97C509.852 448.255 509.798 448.538 509.688 448.801C509.585 449.041 509.435 449.258 509.245 449.437C509.055 449.615 508.831 449.753 508.586 449.843C508.166 449.992 507.713 450.024 507.277 449.933C507.128 449.902 506.982 449.857 506.842 449.798C506.711 449.744 506.585 449.679 506.465 449.604C506.356 449.536 506.254 449.459 506.158 449.374L506.377 449.067C506.418 449.001 506.492 448.96 506.571 448.962C506.635 448.966 506.696 448.988 506.749 449.024C506.819 449.067 506.902 449.113 506.998 449.163C507.108 449.22 507.222 449.266 507.34 449.303C507.491 449.348 507.649 449.369 507.807 449.366C507.993 449.369 508.178 449.336 508.352 449.268C508.508 449.208 508.649 449.113 508.765 448.992C508.882 448.868 508.973 448.722 509.031 448.562C509.095 448.382 509.126 448.192 509.124 448.001C509.126 447.834 509.099 447.668 509.044 447.511C508.994 447.371 508.913 447.243 508.806 447.139C508.692 447.033 508.557 446.952 508.409 446.901C508.23 446.842 508.042 446.813 507.853 446.816C507.701 446.816 507.55 446.829 507.401 446.853C507.236 446.879 507.074 446.918 506.915 446.969L506.463 446.836L506.932 444.13H509.672V444.444Z" fill="white"/>
<path fill-rule="evenodd" clip-rule="evenodd" d="M500.544 447.187C500.544 451.339 503.909 454.704 508.061 454.704C512.211 454.7 515.574 451.337 515.578 447.187C515.578 443.035 512.213 439.67 508.061 439.67C503.909 439.67 500.544 443.035 500.544 447.187ZM501.217 447.187C501.217 443.408 504.281 440.344 508.061 440.344C511.839 440.348 514.9 443.409 514.904 447.187C514.904 450.967 511.84 454.031 508.061 454.031C504.281 454.031 501.217 450.967 501.217 447.187Z" fill="white"/>
<path fill-rule="evenodd" clip-rule="evenodd" d="M110.069 549.704L675.929 601.035L665.555 715.397L99.6931 664.065L110.069 549.704ZM657.828 689.795C658.489 682.503 653.115 676.056 645.823 675.394H645.827C642.324 675.075 638.839 676.161 636.137 678.413C633.435 680.664 631.739 683.897 631.422 687.399C630.76 694.691 636.135 701.139 643.427 701.8C650.719 702.462 657.166 697.087 657.828 689.795Z" fill="#B0C9F1"/>
<path fill-rule="evenodd" clip-rule="evenodd" d="M676 601.322L109.967 550L108 571.678L674.03 623L676 601.322Z" fill="#8BACE2"/>
<path fill-rule="evenodd" clip-rule="evenodd" d="M111.376 637.094L119.198 550.528L121.88 550.77L114.057 637.336L111.376 637.094Z" fill="white"/>
<path fill-rule="evenodd" clip-rule="evenodd" d="M128.956 618.966L135.011 551.962L137.692 552.205L131.638 619.209L128.956 618.966Z" fill="white"/>
<path fill-rule="evenodd" clip-rule="evenodd" d="M144.812 640.127L152.634 553.561L155.316 553.803L147.493 640.369L144.812 640.127Z" fill="white"/>
<path fill-rule="evenodd" clip-rule="evenodd" d="M162.392 622L168.447 554.996L171.128 555.238L165.074 622.242L162.392 622Z" fill="white"/>
<path fill-rule="evenodd" clip-rule="evenodd" d="M179.767 643.298L187.589 556.731L190.27 556.973L182.448 643.54L179.767 643.298Z" fill="white"/>
<path fill-rule="evenodd" clip-rule="evenodd" d="M197.347 625.171L203.402 558.166L206.083 558.409L200.028 625.413L197.347 625.171Z" fill="white"/>
<path fill-rule="evenodd" clip-rule="evenodd" d="M213.203 646.331L221.025 559.764L223.706 560.006L215.884 646.573L213.203 646.331Z" fill="white"/>
<path fill-rule="evenodd" clip-rule="evenodd" d="M230.783 628.204L236.838 561.2L239.519 561.442L233.464 628.447L230.783 628.204Z" fill="white"/>
<path fill-rule="evenodd" clip-rule="evenodd" d="M249.014 649.58L256.836 563.013L259.518 563.255L251.695 649.822L249.014 649.58Z" fill="white"/>
<path fill-rule="evenodd" clip-rule="evenodd" d="M266.594 631.452L272.649 564.448L275.33 564.69L269.276 631.695L266.594 631.452Z" fill="white"/>
<path fill-rule="evenodd" clip-rule="evenodd" d="M282.449 652.613L290.271 566.046L292.953 566.288L285.131 652.855L282.449 652.613Z" fill="white"/>
<path fill-rule="evenodd" clip-rule="evenodd" d="M300.029 634.485L306.084 567.48L308.765 567.723L302.711 634.728L300.029 634.485Z" fill="white"/>
<path fill-rule="evenodd" clip-rule="evenodd" d="M317.404 655.784L325.226 569.217L327.908 569.459L320.085 656.026L317.404 655.784Z" fill="white"/>
<path fill-rule="evenodd" clip-rule="evenodd" d="M334.984 637.656L341.039 570.652L343.72 570.894L337.666 637.898L334.984 637.656Z" fill="white"/>
<path fill-rule="evenodd" clip-rule="evenodd" d="M350.84 658.817L358.662 572.25L361.344 572.492L353.521 659.059L350.84 658.817Z" fill="white"/>
<path fill-rule="evenodd" clip-rule="evenodd" d="M368.42 640.689L374.475 573.685L377.156 573.928L371.102 640.932L368.42 640.689Z" fill="white"/>
<path fill-rule="evenodd" clip-rule="evenodd" d="M389.049 662.284L396.871 575.716L399.552 575.959L391.73 662.526L389.049 662.284Z" fill="white"/>
<path fill-rule="evenodd" clip-rule="evenodd" d="M406.63 644.155L412.684 577.151L415.366 577.393L409.311 644.398L406.63 644.155Z" fill="white"/>
<path fill-rule="evenodd" clip-rule="evenodd" d="M422.485 665.317L430.307 578.749L432.989 578.992L425.167 665.559L422.485 665.317Z" fill="white"/>
<path fill-rule="evenodd" clip-rule="evenodd" d="M440.065 647.188L446.119 580.184L448.802 580.426L442.747 647.431L440.065 647.188Z" fill="white"/>
<path fill-rule="evenodd" clip-rule="evenodd" d="M457.44 668.487L465.262 581.921L467.945 582.163L460.122 668.729L457.44 668.487Z" fill="white"/>
<path fill-rule="evenodd" clip-rule="evenodd" d="M475.02 650.359L481.075 583.355L483.757 583.598L477.703 650.602L475.02 650.359Z" fill="white"/>
<path fill-rule="evenodd" clip-rule="evenodd" d="M490.876 671.52L498.698 584.953L501.381 585.196L493.558 671.762L490.876 671.52Z" fill="white"/>
<path fill-rule="evenodd" clip-rule="evenodd" d="M508.456 653.392L514.51 586.388L517.192 586.631L511.138 653.635L508.456 653.392Z" fill="white"/>
<path fill-rule="evenodd" clip-rule="evenodd" d="M526.687 674.769L534.509 588.202L537.191 588.444L529.369 675.011L526.687 674.769Z" fill="white"/>
<path fill-rule="evenodd" clip-rule="evenodd" d="M544.267 656.641L550.321 589.637L553.004 589.88L546.949 656.884L544.267 656.641Z" fill="white"/>
<path fill-rule="evenodd" clip-rule="evenodd" d="M547.439 690.07L557.287 581.095L560.663 581.4L550.816 690.375L547.439 690.07Z" fill="white"/>
<path fill-rule="evenodd" clip-rule="evenodd" d="M569.569 667.25L577.191 582.902L580.568 583.207L572.946 667.555L569.569 667.25Z" fill="white"/>
<path fill-rule="evenodd" clip-rule="evenodd" d="M591.443 694.062L601.29 585.087L604.666 585.392L594.819 694.367L591.443 694.062Z" fill="white"/>
<path fill-rule="evenodd" clip-rule="evenodd" d="M699.953 532.954L724.73 604.148C726.191 608.352 723.968 612.944 719.765 614.407L693.378 623.59C689.174 625.053 684.579 622.831 683.116 618.626L658.34 547.436C656.877 543.232 659.099 538.637 663.304 537.174L689.69 527.991C693.895 526.527 698.49 528.75 699.953 532.954Z" fill="#FB6167"/>
<path fill-rule="evenodd" clip-rule="evenodd" d="M683.525 619.79L677.525 602.557L719.134 588.077L725.134 605.309C726.364 608.872 724.484 612.76 720.928 614.009L692.221 623.999C688.658 625.227 684.772 623.346 683.525 619.79V619.79Z" fill="#56557E"/>
<path d="M186 387H251M186 395.721H251M186 404.045H251M186 411.18H251M186 419.505H251M186 426.243H251M186 434.964H251M186 443.288H251M186 450.423H251M186 458.748H251M186 466.279H251M186 475H251" stroke="#00FFF0"/>
<rect x="181.5" y="303.5" width="274" height="213" stroke="#00FFF0" stroke-width="3"/>
<rect x="186.5" y="309.5" width="264" height="202" stroke="#00FFF0" stroke-width="3"/>
<path d="M206 304C206 304 206 318.922 206 331C223.018 331 232 317.255 232 304" stroke="#00FFF0" stroke-width="2"/>
<rect x="249" y="308" width="5" height="204" fill="#00FFF0"/>
<rect x="232" y="304" width="220" height="4" fill="#00FFF0"/>
<rect x="182" y="304" width="24" height="4" fill="#00FFF0"/>
<rect x="183" y="512" width="272" height="4" fill="#00FFF0"/>
<rect x="182" y="304" width="3" height="208" fill="#00FFF0"/>
<rect x="452" y="304" width="3" height="208" fill="#00FFF0"/>
<rect x="216" y="386" width="5" height="92" fill="#00FFF0"/>
<circle cx="400.5" cy="387.5" r="105" stroke="#D85151" stroke-width="5"/>
<circle cx="400.5" cy="387.5" r="105" stroke="#D85151" stroke-width="5"/>
<circle cx="400.5" cy="387.5" r="105" stroke="#D85151" stroke-width="5"/>
<circle cx="400.5" cy="387.5" r="105" stroke="#D85151" stroke-width="5"/>
<circle cx="400.5" cy="387.5" r="105" stroke="#D85151" stroke-width="5"/>
<circle cx="400.5" cy="386.5" r="98.5" stroke="#D85151" stroke-width="2"/>
<path d="M342.976 371.376L345.208 365.088H345.256L347.416 371.376H342.976ZM343.336 360.864L336.856 378H340.648L341.992 374.184H348.4L349.696 378H353.608L347.2 360.864H343.336ZM358.854 368.928V363.792H361.782C362.214 363.792 362.63 363.824 363.03 363.888C363.43 363.952 363.782 364.08 364.086 364.272C364.39 364.448 364.63 364.704 364.806 365.04C364.998 365.376 365.094 365.816 365.094 366.36C365.094 366.904 364.998 367.344 364.806 367.68C364.63 368.016 364.39 368.28 364.086 368.472C363.782 368.648 363.43 368.768 363.03 368.832C362.63 368.896 362.214 368.928 361.782 368.928H358.854ZM355.086 360.864V378H358.854V371.856H362.814C363.886 371.856 364.798 371.704 365.55 371.4C366.302 371.08 366.91 370.664 367.374 370.152C367.854 369.64 368.198 369.056 368.406 368.4C368.63 367.728 368.742 367.048 368.742 366.36C368.742 365.656 368.63 364.976 368.406 364.32C368.198 363.664 367.854 363.08 367.374 362.568C366.91 362.056 366.302 361.648 365.55 361.344C364.798 361.024 363.886 360.864 362.814 360.864H355.086ZM374.862 368.928V363.792H377.79C378.222 363.792 378.638 363.824 379.038 363.888C379.438 363.952 379.79 364.08 380.094 364.272C380.398 364.448 380.638 364.704 380.814 365.04C381.006 365.376 381.102 365.816 381.102 366.36C381.102 366.904 381.006 367.344 380.814 367.68C380.638 368.016 380.398 368.28 380.094 368.472C379.79 368.648 379.438 368.768 379.038 368.832C378.638 368.896 378.222 368.928 377.79 368.928H374.862ZM371.094 360.864V378H374.862V371.856H378.822C379.894 371.856 380.806 371.704 381.557 371.4C382.31 371.08 382.918 370.664 383.382 370.152C383.862 369.64 384.206 369.056 384.414 368.4C384.638 367.728 384.75 367.048 384.75 366.36C384.75 365.656 384.638 364.976 384.414 364.32C384.206 363.664 383.862 363.08 383.382 362.568C382.918 362.056 382.31 361.648 381.557 361.344C380.806 361.024 379.894 360.864 378.822 360.864H371.094ZM390.869 368.616V363.792H394.997C395.861 363.792 396.509 363.984 396.941 364.368C397.373 364.736 397.589 365.336 397.589 366.168C397.589 367.032 397.373 367.656 396.941 368.04C396.509 368.424 395.861 368.616 394.997 368.616H390.869ZM387.101 360.864V378H390.869V371.304H394.637C395.581 371.304 396.261 371.512 396.677 371.928C397.093 372.344 397.365 373 397.493 373.896C397.589 374.584 397.661 375.304 397.709 376.056C397.757 376.808 397.885 377.456 398.093 378H401.861C401.685 377.76 401.549 377.472 401.453 377.136C401.373 376.784 401.309 376.416 401.261 376.032C401.229 375.648 401.205 375.272 401.189 374.904C401.173 374.536 401.157 374.216 401.141 373.944C401.109 373.512 401.045 373.08 400.949 372.648C400.869 372.216 400.733 371.824 400.541 371.472C400.349 371.104 400.101 370.792 399.797 370.536C399.493 370.264 399.109 370.064 398.645 369.936V369.888C399.605 369.504 400.293 368.944 400.709 368.208C401.141 367.472 401.357 366.6 401.357 365.592C401.357 364.936 401.237 364.328 400.997 363.768C400.773 363.192 400.437 362.688 399.989 362.256C399.557 361.824 399.029 361.488 398.405 361.248C397.797 360.992 397.109 360.864 396.341 360.864H387.101ZM407.446 369.504C407.446 368.752 407.526 368.024 407.686 367.32C407.862 366.616 408.134 365.992 408.502 365.448C408.87 364.888 409.35 364.448 409.942 364.128C410.534 363.792 411.254 363.624 412.102 363.624C412.95 363.624 413.67 363.792 414.262 364.128C414.854 364.448 415.334 364.888 415.702 365.448C416.07 365.992 416.334 366.616 416.494 367.32C416.67 368.024 416.758 368.752 416.758 369.504C416.758 370.224 416.67 370.928 416.494 371.616C416.334 372.288 416.07 372.896 415.702 373.44C415.334 373.984 414.854 374.424 414.262 374.76C413.67 375.08 412.95 375.24 412.102 375.24C411.254 375.24 410.534 375.08 409.942 374.76C409.35 374.424 408.87 373.984 408.502 373.44C408.134 372.896 407.862 372.288 407.686 371.616C407.526 370.928 407.446 370.224 407.446 369.504ZM403.678 369.504C403.678 370.752 403.87 371.92 404.254 373.008C404.638 374.08 405.19 375.016 405.91 375.816C406.63 376.616 407.51 377.248 408.55 377.712C409.606 378.16 410.79 378.384 412.102 378.384C413.43 378.384 414.614 378.16 415.654 377.712C416.694 377.248 417.574 376.616 418.294 375.816C419.014 375.016 419.566 374.08 419.95 373.008C420.334 371.92 420.526 370.752 420.526 369.504C420.526 368.224 420.334 367.04 419.95 365.952C419.566 364.848 419.014 363.888 418.294 363.072C417.574 362.256 416.694 361.616 415.654 361.152C414.614 360.688 413.43 360.456 412.102 360.456C410.79 360.456 409.606 360.688 408.55 361.152C407.51 361.616 406.63 362.256 405.91 363.072C405.19 363.888 404.638 364.848 404.254 365.952C403.87 367.04 403.678 368.224 403.678 369.504ZM431.069 378L436.757 360.864H432.869L429.005 372.912H428.957L425.141 360.864H421.277L426.821 378H431.069ZM438.219 360.864V378H451.227V374.832H441.987V370.632H450.291V367.704H441.987V364.032H451.035V360.864H438.219ZM457.549 374.832V364.032H460.237C461.165 364.032 461.941 364.168 462.565 364.44C463.205 364.696 463.717 365.072 464.101 365.568C464.485 366.064 464.757 366.664 464.917 367.368C465.093 368.056 465.181 368.832 465.181 369.696C465.181 370.64 465.061 371.44 464.821 372.096C464.581 372.752 464.261 373.288 463.861 373.704C463.461 374.104 463.005 374.392 462.493 374.568C461.981 374.744 461.453 374.832 460.909 374.832H457.549ZM453.781 360.864V378H461.173C462.485 378 463.621 377.784 464.581 377.352C465.557 376.904 466.365 376.296 467.005 375.528C467.661 374.76 468.149 373.848 468.469 372.792C468.789 371.736 468.949 370.584 468.949 369.336C468.949 367.912 468.749 366.672 468.349 365.616C467.965 364.56 467.421 363.68 466.717 362.976C466.029 362.272 465.205 361.744 464.245 361.392C463.301 361.04 462.277 360.864 461.173 360.864H453.781Z" fill="#FF0000"/>
<path d="M353.408 419H341.936C341.952 417.608 342.288 416.392 342.944 415.352C343.6 414.312 344.496 413.408 345.632 412.64C346.176 412.24 346.744 411.856 347.336 411.488C347.928 411.104 348.472 410.696 348.968 410.264C349.464 409.832 349.872 409.368 350.192 408.872C350.512 408.36 350.68 407.776 350.696 407.12C350.696 406.816 350.656 406.496 350.576 406.16C350.512 405.808 350.376 405.488 350.168 405.2C349.96 404.896 349.672 404.648 349.304 404.456C348.936 404.248 348.456 404.144 347.864 404.144C347.32 404.144 346.864 404.256 346.496 404.48C346.144 404.688 345.856 404.984 345.632 405.368C345.424 405.736 345.264 406.176 345.152 406.688C345.056 407.2 345 407.752 344.984 408.344H342.248C342.248 407.416 342.368 406.56 342.608 405.776C342.864 404.976 343.24 404.288 343.736 403.712C344.232 403.136 344.832 402.688 345.536 402.368C346.256 402.032 347.088 401.864 348.032 401.864C349.056 401.864 349.912 402.032 350.6 402.368C351.288 402.704 351.84 403.128 352.256 403.64C352.688 404.152 352.992 404.712 353.168 405.32C353.344 405.912 353.432 406.48 353.432 407.024C353.432 407.696 353.328 408.304 353.12 408.848C352.912 409.392 352.632 409.896 352.28 410.36C351.928 410.808 351.528 411.224 351.08 411.608C350.632 411.992 350.168 412.352 349.688 412.688C349.208 413.024 348.728 413.344 348.248 413.648C347.768 413.952 347.32 414.256 346.904 414.56C346.504 414.864 346.152 415.184 345.848 415.52C345.544 415.84 345.336 416.184 345.224 416.552H353.408V419ZM361.008 401.864C362.208 401.864 363.184 402.144 363.936 402.704C364.704 403.248 365.296 403.952 365.712 404.816C366.144 405.664 366.432 406.6 366.576 407.624C366.736 408.648 366.816 409.64 366.816 410.6C366.816 411.56 366.736 412.552 366.576 413.576C366.432 414.6 366.144 415.544 365.712 416.408C365.296 417.256 364.704 417.96 363.936 418.52C363.184 419.064 362.208 419.336 361.008 419.336C359.808 419.336 358.824 419.064 358.056 418.52C357.304 417.96 356.712 417.256 356.28 416.408C355.864 415.544 355.576 414.6 355.416 413.576C355.272 412.552 355.2 411.56 355.2 410.6C355.2 409.64 355.272 408.648 355.416 407.624C355.576 406.6 355.864 405.664 356.28 404.816C356.712 403.952 357.304 403.248 358.056 402.704C358.824 402.144 359.808 401.864 361.008 401.864ZM361.008 417.056C361.6 417.056 362.096 416.888 362.496 416.552C362.896 416.2 363.208 415.736 363.432 415.16C363.672 414.568 363.84 413.88 363.936 413.096C364.032 412.312 364.08 411.48 364.08 410.6C364.08 409.72 364.032 408.896 363.936 408.128C363.84 407.344 363.672 406.656 363.432 406.064C363.208 405.472 362.896 405.008 362.496 404.672C362.096 404.32 361.6 404.144 361.008 404.144C360.4 404.144 359.896 404.32 359.496 404.672C359.112 405.008 358.8 405.472 358.56 406.064C358.336 406.656 358.176 407.344 358.08 408.128C357.984 408.896 357.936 409.72 357.936 410.6C357.936 411.48 357.984 412.312 358.08 413.096C358.176 413.88 358.336 414.568 358.56 415.16C358.8 415.736 359.112 416.2 359.496 416.552C359.896 416.888 360.4 417.056 361.008 417.056ZM380.08 419H368.608C368.624 417.608 368.96 416.392 369.616 415.352C370.272 414.312 371.168 413.408 372.304 412.64C372.848 412.24 373.416 411.856 374.008 411.488C374.6 411.104 375.144 410.696 375.64 410.264C376.136 409.832 376.544 409.368 376.864 408.872C377.184 408.36 377.352 407.776 377.368 407.12C377.368 406.816 377.328 406.496 377.248 406.16C377.184 405.808 377.048 405.488 376.84 405.2C376.632 404.896 376.344 404.648 375.976 404.456C375.608 404.248 375.128 404.144 374.536 404.144C373.992 404.144 373.536 404.256 373.168 404.48C372.816 404.688 372.528 404.984 372.304 405.368C372.096 405.736 371.936 406.176 371.824 406.688C371.728 407.2 371.672 407.752 371.656 408.344H368.92C368.92 407.416 369.04 406.56 369.28 405.776C369.536 404.976 369.912 404.288 370.408 403.712C370.904 403.136 371.504 402.688 372.208 402.368C372.928 402.032 373.76 401.864 374.704 401.864C375.728 401.864 376.584 402.032 377.272 402.368C377.96 402.704 378.512 403.128 378.928 403.64C379.36 404.152 379.664 404.712 379.84 405.32C380.016 405.912 380.104 406.48 380.104 407.024C380.104 407.696 380 408.304 379.792 408.848C379.584 409.392 379.304 409.896 378.952 410.36C378.6 410.808 378.2 411.224 377.752 411.608C377.304 411.992 376.84 412.352 376.36 412.688C375.88 413.024 375.4 413.344 374.92 413.648C374.44 413.952 373.992 414.256 373.576 414.56C373.176 414.864 372.824 415.184 372.52 415.52C372.216 415.84 372.008 416.184 371.896 416.552H380.08V419ZM387.68 401.864C388.88 401.864 389.856 402.144 390.608 402.704C391.376 403.248 391.968 403.952 392.384 404.816C392.816 405.664 393.104 406.6 393.248 407.624C393.408 408.648 393.488 409.64 393.488 410.6C393.488 411.56 393.408 412.552 393.248 413.576C393.104 414.6 392.816 415.544 392.384 416.408C391.968 417.256 391.376 417.96 390.608 418.52C389.856 419.064 388.88 419.336 387.68 419.336C386.48 419.336 385.496 419.064 384.728 418.52C383.976 417.96 383.384 417.256 382.952 416.408C382.536 415.544 382.248 414.6 382.088 413.576C381.944 412.552 381.872 411.56 381.872 410.6C381.872 409.64 381.944 408.648 382.088 407.624C382.248 406.6 382.536 405.664 382.952 404.816C383.384 403.952 383.976 403.248 384.728 402.704C385.496 402.144 386.48 401.864 387.68 401.864ZM387.68 417.056C388.272 417.056 388.768 416.888 389.168 416.552C389.568 416.2 389.88 415.736 390.104 415.16C390.344 414.568 390.512 413.88 390.608 413.096C390.704 412.312 390.752 411.48 390.752 410.6C390.752 409.72 390.704 408.896 390.608 408.128C390.512 407.344 390.344 406.656 390.104 406.064C389.88 405.472 389.568 405.008 389.168 404.672C388.768 404.32 388.272 404.144 387.68 404.144C387.072 404.144 386.568 404.32 386.168 404.672C385.784 405.008 385.472 405.472 385.232 406.064C385.008 406.656 384.848 407.344 384.752 408.128C384.656 408.896 384.608 409.72 384.608 410.6C384.608 411.48 384.656 412.312 384.752 413.096C384.848 413.88 385.008 414.568 385.232 415.16C385.472 415.736 385.784 416.2 386.168 416.552C386.568 416.888 387.072 417.056 387.68 417.056ZM400.704 401.456H403.32L396.432 419.408H393.816L400.704 401.456ZM409.453 401.864C410.653 401.864 411.629 402.144 412.381 402.704C413.149 403.248 413.741 403.952 414.157 404.816C414.589 405.664 414.877 406.6 415.021 407.624C415.181 408.648 415.261 409.64 415.261 410.6C415.261 411.56 415.181 412.552 415.021 413.576C414.877 414.6 414.589 415.544 414.157 416.408C413.741 417.256 413.149 417.96 412.381 418.52C411.629 419.064 410.653 419.336 409.453 419.336C408.253 419.336 407.269 419.064 406.501 418.52C405.749 417.96 405.157 417.256 404.725 416.408C404.309 415.544 404.021 414.6 403.861 413.576C403.717 412.552 403.645 411.56 403.645 410.6C403.645 409.64 403.717 408.648 403.861 407.624C404.021 406.6 404.309 405.664 404.725 404.816C405.157 403.952 405.749 403.248 406.501 402.704C407.269 402.144 408.253 401.864 409.453 401.864ZM409.453 417.056C410.045 417.056 410.541 416.888 410.941 416.552C411.341 416.2 411.653 415.736 411.877 415.16C412.117 414.568 412.285 413.88 412.381 413.096C412.477 412.312 412.525 411.48 412.525 410.6C412.525 409.72 412.477 408.896 412.381 408.128C412.285 407.344 412.117 406.656 411.877 406.064C411.653 405.472 411.341 405.008 410.941 404.672C410.541 404.32 410.045 404.144 409.453 404.144C408.845 404.144 408.341 404.32 407.941 404.672C407.557 405.008 407.245 405.472 407.005 406.064C406.781 406.656 406.621 407.344 406.525 408.128C406.429 408.896 406.381 409.72 406.381 410.6C406.381 411.48 406.429 412.312 406.525 413.096C406.621 413.88 406.781 414.568 407.005 415.16C407.245 415.736 407.557 416.2 407.941 416.552C408.341 416.888 408.845 417.056 409.453 417.056ZM428.525 419H417.053C417.069 417.608 417.405 416.392 418.061 415.352C418.717 414.312 419.613 413.408 420.749 412.64C421.293 412.24 421.861 411.856 422.453 411.488C423.045 411.104 423.589 410.696 424.085 410.264C424.581 409.832 424.989 409.368 425.309 408.872C425.629 408.36 425.797 407.776 425.813 407.12C425.813 406.816 425.773 406.496 425.693 406.16C425.629 405.808 425.493 405.488 425.285 405.2C425.077 404.896 424.789 404.648 424.421 404.456C424.053 404.248 423.573 404.144 422.981 404.144C422.437 404.144 421.981 404.256 421.613 404.48C421.261 404.688 420.973 404.984 420.749 405.368C420.541 405.736 420.381 406.176 420.269 406.688C420.173 407.2 420.117 407.752 420.101 408.344H417.365C417.365 407.416 417.485 406.56 417.725 405.776C417.981 404.976 418.357 404.288 418.853 403.712C419.349 403.136 419.949 402.688 420.653 402.368C421.373 402.032 422.205 401.864 423.149 401.864C424.173 401.864 425.029 402.032 425.717 402.368C426.405 402.704 426.957 403.128 427.373 403.64C427.805 404.152 428.109 404.712 428.285 405.32C428.461 405.912 428.549 406.48 428.549 407.024C428.549 407.696 428.445 408.304 428.237 408.848C428.029 409.392 427.749 409.896 427.397 410.36C427.045 410.808 426.645 411.224 426.197 411.608C425.749 411.992 425.285 412.352 424.805 412.688C424.325 413.024 423.845 413.344 423.365 413.648C422.885 413.952 422.437 414.256 422.021 414.56C421.621 414.864 421.269 415.184 420.965 415.52C420.661 415.84 420.453 416.184 420.341 416.552H428.525V419ZM435.813 401.456H438.429L431.541 419.408H428.925L435.813 401.456ZM439.163 404.984C439.739 404.984 440.299 404.936 440.843 404.84C441.387 404.744 441.875 404.584 442.307 404.36C442.755 404.136 443.131 403.848 443.435 403.496C443.755 403.144 443.963 402.712 444.059 402.2H446.291V419H443.291V407.144H439.163V404.984ZM457.899 401.864C459.099 401.864 460.075 402.144 460.827 402.704C461.595 403.248 462.187 403.952 462.603 404.816C463.035 405.664 463.323 406.6 463.467 407.624C463.627 408.648 463.707 409.64 463.707 410.6C463.707 411.56 463.627 412.552 463.467 413.576C463.323 414.6 463.035 415.544 462.603 416.408C462.187 417.256 461.595 417.96 460.827 418.52C460.075 419.064 459.099 419.336 457.899 419.336C456.699 419.336 455.715 419.064 454.947 418.52C454.195 417.96 453.603 417.256 453.171 416.408C452.755 415.544 452.467 414.6 452.307 413.576C452.163 412.552 452.091 411.56 452.091 410.6C452.091 409.64 452.163 408.648 452.307 407.624C452.467 406.6 452.755 405.664 453.171 404.816C453.603 403.952 454.195 403.248 454.947 402.704C455.715 402.144 456.699 401.864 457.899 401.864ZM457.899 417.056C458.491 417.056 458.987 416.888 459.387 416.552C459.787 416.2 460.099 415.736 460.323 415.16C460.563 414.568 460.731 413.88 460.827 413.096C460.923 412.312 460.971 411.48 460.971 410.6C460.971 409.72 460.923 408.896 460.827 408.128C460.731 407.344 460.563 406.656 460.323 406.064C460.099 405.472 459.787 405.008 459.387 404.672C458.987 404.32 458.491 404.144 457.899 404.144C457.291 404.144 456.787 404.32 456.387 404.672C456.003 405.008 455.691 405.472 455.451 406.064C455.227 406.656 455.067 407.344 454.971 408.128C454.875 408.896 454.827 409.72 454.827 410.6C454.827 411.48 454.875 412.312 454.971 413.096C455.067 413.88 455.227 414.568 455.451 415.16C455.691 415.736 456.003 416.2 456.387 416.552C456.787 416.888 457.291 417.056 457.899 417.056Z" fill="#FF0000"/>
<path fill-rule="evenodd" clip-rule="evenodd" d="M861.757 639.913C861.48 639.081 862.903 631.732 861.816 630.798C858.342 627.815 852.419 634.325 852.419 634.325C852.419 634.325 844.443 645.368 840.637 647.678C822.029 658.948 819.99 659.693 821.772 665.046C823.554 670.398 863.546 645.264 861.757 639.913Z" fill="#FFDFAE"/>
<path fill-rule="evenodd" clip-rule="evenodd" d="M897.943 654.129C897.665 653.297 899.088 645.948 898.001 645.014C894.527 642.031 888.139 647.264 888.139 647.264C888.139 647.264 880.636 659.587 876.823 661.897C858.216 673.168 856.176 673.912 857.958 679.265C859.741 684.617 899.731 659.481 897.943 654.129Z" fill="#FFDFAE"/>
<path fill-rule="evenodd" clip-rule="evenodd" d="M818.641 664.822C821.335 670.113 833.901 668.042 840.638 665.236C847.563 662.349 849.431 652.587 855.618 652.599C858.992 652.599 858.379 667.271 858.379 667.271L861.058 667.625C864.159 663.24 862.38 639.793 862.38 639.793L836.009 659.987C836.009 659.987 825.827 656.127 822.025 658.952C819.497 660.829 817.689 662.951 818.641 664.822Z" fill="#37474F"/>
<path fill-rule="evenodd" clip-rule="evenodd" d="M854.827 679.038C857.52 684.329 870.086 682.259 876.823 679.452C883.748 676.565 885.616 666.803 891.803 666.816C895.177 666.816 894.564 681.487 894.564 681.487L897.243 681.841C900.344 677.457 898.565 654.009 898.565 654.009L872.194 674.204C872.194 674.204 862.012 670.343 858.21 673.168C855.682 675.046 853.874 677.167 854.827 679.038Z" fill="#37474F"/>
<path fill-rule="evenodd" clip-rule="evenodd" d="M757.53 290.378L827.046 287.507C827.046 287.507 872.84 264.135 880.642 246.597C883.69 239.749 877.728 231.025 871.586 228.146C854.325 220.059 813.849 263.729 813.849 263.729L756.848 277.181L757.53 290.378Z" fill="#F4CA92"/>
<path fill-rule="evenodd" clip-rule="evenodd" d="M850.779 635.747H862.225C870.244 601.281 873.582 565.891 872.148 530.533C892.288 476.631 917.442 389.836 898.59 366.345H856.873C856.873 366.345 849.817 412.041 849.679 441.805C849.621 453.887 848.117 483.761 846.215 517.072C842.819 576.412 850.779 635.747 850.779 635.747Z" fill="#3F3E65"/>
<path fill-rule="evenodd" clip-rule="evenodd" d="M886.909 647.931H898.51C913.72 600.957 904.367 517.27 904.367 517.27C924.508 463.366 943.361 389.83 924.508 366.339L865.245 365.436L886.909 647.931Z" fill="#56557E"/>
<path fill-rule="evenodd" clip-rule="evenodd" d="M898.093 197.706L873.247 200.384L877.472 148.061H898.094L898.093 197.706Z" fill="#FFDFAE"/>
<path fill-rule="evenodd" clip-rule="evenodd" d="M928.355 267.894C928.355 306.608 935.964 322.148 928.815 366.339C928.815 366.339 860.969 376.264 854.736 366.339C842.16 346.333 876.578 312.199 852.821 266.755C834.299 231.326 874.564 185.91 900.251 174.219C916.8 166.685 928.355 205.953 928.355 267.894Z" fill="#2FC0C4"/>
<path fill-rule="evenodd" clip-rule="evenodd" d="M759.978 249.385L833.581 269.052C833.581 269.052 894.559 243.605 903.673 223.109C907.234 215.105 900.272 204.913 893.09 201.548C872.92 192.099 825.621 243.131 825.621 243.131L763.062 234.717L759.978 249.385Z" fill="#FFDFAE"/>
<path fill-rule="evenodd" clip-rule="evenodd" d="M883.561 156.841C883.561 156.841 875.712 161.328 871.754 167.687C871.754 167.687 875.19 179.081 879.741 180.081C884.647 181.16 890.764 171.705 892.836 167.385C894.515 163.888 883.561 156.841 883.561 156.841Z" fill="#F4CA92"/>
<path fill-rule="evenodd" clip-rule="evenodd" d="M846.785 136.054C846.785 160.296 860.017 177.883 867.629 177.883C882.242 177.883 891.952 155.98 891.952 131.739C891.952 107.499 886.541 90.6617 871.928 90.6617C857.314 90.6617 846.785 100.631 846.785 136.054Z" fill="#FFDFAE"/>
<path fill-rule="evenodd" clip-rule="evenodd" d="M943.364 233.89C1005.54 223.109 971.819 330.916 936.75 330.916C911.611 330.916 889.096 281.721 907.647 227.729C915.584 204.628 903.616 181.454 890.449 166.125C881.188 155.345 883.834 123.003 883.834 123.003C863.538 128.669 845.261 127.227 845.134 120.114C844.62 91.1878 873.106 81.0453 890.475 98.7797C906.331 114.967 899.708 116.842 910.291 144.564C914.475 155.523 933.376 153.437 940.718 178.447C942.069 183.05 939.579 234.548 943.364 233.89Z" fill="#4F3B37"/>
<path fill-rule="evenodd" clip-rule="evenodd" d="M759.98 284.44C759.98 287.992 757.458 291.449 753.481 293.444C748.188 296.096 740.649 293.444 737.736 293.444C731.705 293.444 727 283.879 727 277.009C727 270.139 737.207 279.512 744.895 273.328C749.964 269.265 759.98 277.577 759.98 284.44Z" fill="#F4CA92"/>
<path fill-rule="evenodd" clip-rule="evenodd" d="M765.464 242.095C764.924 245.582 761.923 248.384 757.714 249.413C752.113 250.776 745.113 246.404 742.251 245.723C736.331 244.309 733.17 233.815 734.215 227.068C735.259 220.321 743.857 231.919 752.348 227.655C757.937 224.846 766.509 235.347 765.464 242.095Z" fill="#FFDFAE"/>
<path d="M818.835 52.2544C818.863 51.7071 818.851 50.5344 818.797 48.7362C818.793 46.9057 818.713 44.8255 818.557 42.4955C817.969 42.4589 817.389 42.3815 816.818 42.2632C816.247 42.145 815.655 42.0226 815.043 41.8959C814.227 41.727 813.37 41.5496 812.473 41.3638C811.584 41.1373 810.784 40.8867 810.075 40.6123C809.375 40.2971 808.809 39.946 808.379 39.5591C807.957 39.1313 807.805 38.6318 807.923 38.0606C808.016 37.6118 808.275 37.2826 808.702 37.073C809.169 36.8718 809.77 36.8472 810.504 36.9992C812.086 37.5818 813.692 38.0421 815.324 38.3799C815.814 38.4812 816.304 38.5825 816.793 38.6839C817.283 38.7852 817.781 38.8458 818.287 38.8655C818.144 37.0913 817.972 35.3536 817.771 33.6526C817.578 31.9107 817.347 30.3525 817.079 28.9778C816.851 27.6116 816.593 26.4945 816.305 25.6263C816.016 24.7582 815.688 24.2861 815.321 24.2101C814.628 24.0666 813.762 24.547 812.725 25.6514C811.688 26.7558 810.584 28.1866 809.411 29.9438C808.239 31.7011 807.07 33.6503 805.903 35.7917C804.745 37.8922 803.674 39.883 802.689 41.7641C801.744 43.6536 800.961 45.2786 800.339 46.6391C799.726 47.9588 799.394 48.7411 799.343 48.9859C799.177 49.377 798.91 49.6408 798.541 49.7772C798.213 49.9221 797.886 49.9608 797.56 49.8932C797.07 49.7919 796.655 49.5358 796.314 49.1249C795.974 48.7141 795.863 48.223 795.981 47.6518C798.289 42.2576 800.633 37.5092 803.014 33.4066C804.015 31.6564 805.068 29.9597 806.174 28.3164C807.289 26.6323 808.418 25.1853 809.562 23.9754C810.714 22.7247 811.848 21.768 812.964 21.1054C814.121 20.4513 815.209 20.2298 816.229 20.4409C817.29 20.6605 818.154 21.5202 818.823 23.0201C819.532 24.5284 820.103 26.3913 820.538 28.6088C820.981 30.7854 821.3 33.1492 821.496 35.7C821.699 38.2101 821.843 40.6013 821.926 42.8736C822.017 45.1051 822.057 47.0706 822.045 48.7702C822.042 50.4291 822.06 51.4752 822.098 51.9085L822.022 52.2757C821.887 52.9286 821.573 53.4168 821.081 53.7403C820.637 54.0316 820.191 54.1307 819.742 54.0378C819.416 53.9703 819.152 53.8091 818.949 53.5545C818.796 53.2674 818.758 52.8341 818.835 52.2544ZM827.357 53.6353C827.848 52.2903 828.265 50.9938 828.609 49.7458C829.002 48.4655 829.329 47.1929 829.591 45.928C830.106 43.4391 830.393 40.8179 830.452 38.0645C830.437 37.9336 830.45 37.7662 830.492 37.5622C830.611 36.9909 830.871 36.5555 831.273 36.2558C831.717 35.9646 832.183 35.8697 832.673 35.971C833.203 36.0808 833.553 36.3447 833.721 36.7625C833.931 37.1889 834.038 37.7003 834.042 38.2969C834.055 38.8526 834.014 39.4612 833.92 40.1224C833.875 40.7514 833.854 41.3641 833.858 41.9607C834.498 41.54 835.277 41.1693 836.195 40.8486C837.112 40.5279 838.058 40.2768 839.031 40.0954C840.046 39.9224 841.043 39.831 842.024 39.8213C843.013 39.7707 843.916 39.8299 844.732 39.9988C845.18 40.0917 845.53 40.3555 845.78 40.7903C846.031 41.225 846.11 41.6668 846.017 42.1157C845.932 42.5237 845.725 42.9064 845.396 43.2637C845.075 43.5803 844.65 43.6836 844.119 43.5739C843.14 43.3712 842.082 43.3437 840.945 43.4913C839.817 43.5981 838.728 43.8197 837.68 44.1558C836.673 44.5005 835.755 44.9274 834.926 45.4367C834.138 45.9544 833.558 46.4939 833.187 47.0553C832.936 47.8544 832.672 48.821 832.395 49.955C832.167 51.0567 831.866 52.1006 831.492 53.0869C831.166 54.0408 830.769 54.8308 830.299 55.4569C829.829 56.0829 829.268 56.3284 828.615 56.1933C828.207 56.1088 827.828 55.8816 827.479 55.5115C827.171 55.1499 827.081 54.6631 827.207 54.0511C827.241 53.8878 827.291 53.7493 827.357 53.6353ZM863.475 59.8345C864.087 59.9611 864.507 60.1968 864.733 60.5416C864.968 60.8455 865.039 61.2219 864.946 61.6707C864.828 62.2419 864.596 62.6408 864.252 62.8673C863.915 63.053 863.535 63.1444 863.11 63.1415C862.685 63.1387 862.228 63.0866 861.738 62.9853C861.248 62.8839 860.82 62.7952 860.453 62.7192C858.739 62.3645 857.084 61.8305 855.487 61.117C853.899 60.3627 852.532 59.4629 851.387 58.4174C850.241 57.3719 849.383 56.1731 848.812 54.8209C848.241 53.4688 848.124 51.9767 848.462 50.3446C848.859 48.4269 849.641 46.9081 850.809 45.7883C852.026 44.636 853.413 43.7955 854.969 43.2666C856.575 42.7053 858.272 42.4184 860.062 42.4059C861.892 42.4018 863.644 42.5729 865.317 42.9191C866.378 43.1387 867.164 43.4504 867.676 43.8543C868.197 44.2173 868.381 44.766 868.229 45.5005C868.136 45.9493 867.938 46.2912 867.634 46.5261C867.371 46.7695 867.035 46.849 866.627 46.7645C866.342 46.7054 866.076 46.6505 865.832 46.5998C865.595 46.5084 865.355 46.4373 865.11 46.3866C863.682 46.0911 862.265 45.9467 860.859 45.9537C859.495 45.969 858.218 46.1729 857.031 46.5654C855.884 46.9663 854.883 47.5888 854.028 48.4329C853.221 49.2447 852.679 50.3238 852.4 51.6703C852.181 52.7311 852.321 53.6963 852.822 54.5659C853.323 55.4354 854.037 56.2002 854.964 56.8601C855.891 57.5201 856.946 58.0787 858.127 58.5361C859.309 58.9935 860.471 59.3404 861.614 59.5768C861.94 59.6444 862.246 59.7077 862.532 59.7668C862.826 59.7852 863.14 59.8077 863.475 59.8345ZM878.735 47.1643C879.341 46.9069 880.167 46.8226 881.213 46.9113C882.307 46.9676 883.426 47.1141 884.568 47.3505C886.935 47.8403 888.521 48.9133 889.327 50.5694C890.142 52.1846 890.215 54.604 889.548 57.8273C889.202 59.5002 888.795 61.0542 888.328 62.4892C887.869 63.8835 887.383 65.1019 886.869 66.1445C886.405 67.1547 885.905 67.9235 885.371 68.4511C884.836 68.9787 884.324 69.1918 883.834 69.0905C883.426 69.006 883.113 68.771 882.895 68.3855C882.677 68 882.627 67.5216 882.745 66.9504C882.897 66.2159 883.119 65.4534 883.41 64.6627C883.702 63.872 884.022 63.0447 884.371 62.1808C884.72 61.317 885.048 60.4489 885.357 59.5766C885.673 58.6635 885.92 57.7785 886.098 56.9216C886.444 55.2488 886.429 53.884 886.052 52.8273C885.724 51.7383 884.744 51.0249 883.112 50.6871C882.296 50.5182 881.471 50.4963 880.636 50.6215C879.802 50.7466 879.058 50.7416 878.405 50.6065C877.997 50.5221 877.705 50.2913 877.528 49.9142C877.35 49.5371 877.304 49.1446 877.388 48.7365C877.456 48.4101 877.585 48.0964 877.775 47.7953C878.005 47.5027 878.326 47.2923 878.735 47.1643ZM879.078 36.2574C878.544 37.8065 877.993 39.6496 877.423 41.7868C876.893 43.9324 876.384 46.1884 875.894 48.5549C875.404 50.9214 874.996 53.3048 874.67 55.7051C874.351 58.0646 874.002 60.1624 873.622 61.9985C873.462 62.7737 873.152 63.3477 872.691 63.7206C872.231 64.0934 871.736 64.2249 871.206 64.1151C870.594 63.9884 870.238 63.3405 870.14 62.1713C870.082 61.0105 870.157 59.6218 870.364 58.0052C870.571 56.3886 870.856 54.7031 871.219 52.9486C871.591 51.1533 871.916 49.5824 872.195 48.236C872.684 45.8695 873.207 43.5522 873.761 41.2842C874.316 39.0162 874.898 36.924 875.507 35.0078C875.7 34.2818 876.03 33.8182 876.497 33.617C877.005 33.4243 877.483 33.3744 877.932 33.4673C878.381 33.5602 878.726 33.8444 878.968 34.32C879.219 34.7548 879.28 35.2782 879.154 35.8902L879.078 36.2574ZM900.418 52.801C900.142 53.7225 899.857 54.6849 899.565 55.6881C899.313 56.6997 899.077 57.7359 898.857 58.7967C898.545 60.3064 898.294 61.8287 898.104 63.3637C897.954 64.9072 897.732 66.3929 897.436 67.821C897.267 68.6371 896.937 69.2069 896.444 69.5304C895.993 69.8624 895.542 69.982 895.094 69.8891C894.686 69.8046 894.368 69.5901 894.142 69.2453C893.965 68.8682 893.923 68.3491 894.017 67.6878C894.275 65.8264 894.499 64.1282 894.689 62.5932C894.928 61.0258 895.208 59.4669 895.529 57.9164C895.656 57.3044 895.796 56.5249 895.949 55.578C896.152 54.5988 896.383 53.6892 896.642 52.8492C896.95 51.9769 897.31 51.2643 897.723 50.7114C898.184 50.1261 898.741 49.9011 899.394 50.0362C899.802 50.1206 900.111 50.376 900.321 50.8024C900.571 51.2371 900.633 51.7605 900.506 52.3726L900.418 52.801ZM900.368 38.2387C900.548 38.1909 900.699 38.1796 900.822 38.205C900.985 38.2388 901.124 38.2887 901.238 38.3549C901.392 38.4294 901.51 38.4752 901.592 38.4921C901.805 38.4935 901.992 38.5111 902.156 38.5449C902.327 38.5378 902.515 38.5554 902.719 38.5977C904.066 38.8764 904.972 39.5321 905.439 40.5648C905.947 41.6061 906.096 42.6367 905.884 43.6567C905.783 44.1464 905.551 44.6514 905.188 45.172C904.866 45.701 904.429 46.1639 903.879 46.5606C903.378 46.925 902.768 47.2028 902.047 47.3941C901.327 47.5854 900.538 47.5924 899.681 47.415C899.11 47.2968 898.609 47.0442 898.179 46.6572C897.748 46.2703 897.392 45.8348 897.109 45.3508C896.835 44.8259 896.65 44.2772 896.556 43.7045C896.47 43.0911 896.482 42.5192 896.592 41.9887C896.761 41.1727 897.204 40.3707 897.92 39.5829C898.677 38.8035 899.493 38.3554 900.368 38.2387ZM901.178 41.7253L900.689 41.6239C900.468 41.6633 900.295 41.7766 900.171 41.9637C900.048 42.1508 899.965 42.3464 899.922 42.5504C899.846 42.9176 899.917 43.294 900.135 43.6795C900.362 44.0242 900.598 44.2219 900.842 44.2726C901.454 44.3993 901.9 44.3001 902.18 43.9751C902.469 43.6093 902.647 43.2632 902.715 42.9368C902.646 42.2418 902.305 41.8309 901.693 41.7042C901.612 41.6873 901.44 41.6943 901.178 41.7253ZM920.811 75.1483C916.88 73.9943 914.217 72.0601 912.822 69.346C911.426 66.6318 911.176 63.1122 912.071 58.7872L912.603 56.2167C911.012 55.8873 909.715 55.4701 908.714 54.9649C907.72 54.4189 907.329 53.6359 907.54 52.6158C907.698 52.2655 907.945 51.9975 908.281 51.8118C908.626 51.5853 909.064 51.5269 909.594 51.6367C910.084 51.7381 910.663 51.9217 911.331 52.1877C911.999 52.4537 912.741 52.6711 913.557 52.84C913.828 51.5343 914.143 50.2167 914.503 48.8872C914.872 47.5168 915.272 46.3019 915.704 45.2425C916.177 44.1915 916.669 43.3572 917.18 42.7395C917.699 42.0811 918.265 41.8152 918.877 41.9419C919.325 42.0348 919.691 42.3233 919.974 42.8073C920.265 43.2505 920.343 43.7985 920.208 44.4514C919.997 45.4714 919.592 46.813 918.992 48.476C918.393 50.139 917.837 51.8962 917.327 53.7478C917.645 53.8562 917.963 53.9645 918.281 54.0729C918.648 54.1489 919.015 54.2249 919.382 54.3009C920.035 54.436 920.692 54.5507 921.353 54.6451C922.055 54.7478 922.762 54.8302 923.472 54.8921C924.043 55.0104 924.479 55.2707 924.779 55.6731C925.078 56.0755 925.186 56.4808 925.101 56.8888C924.983 57.46 924.731 57.8547 924.346 58.0727C923.969 58.25 923.502 58.3449 922.946 58.3575C922.44 58.3378 921.84 58.2561 921.146 58.1126C920.493 57.9774 919.841 57.8423 919.188 57.7072L916.372 57.1245C916.239 57.5649 916.13 57.9891 916.045 58.3971C915.961 58.8051 915.876 59.2131 915.792 59.6211C915.488 61.09 915.336 62.4414 915.336 63.6753C915.385 64.8769 915.643 65.994 916.11 67.0268C916.577 68.0596 917.282 68.9714 918.224 69.7621C919.167 70.5529 920.388 71.2312 921.888 71.7969C922.32 71.9714 922.608 72.2226 922.753 72.5504C922.898 72.8783 922.933 73.2258 922.857 73.593C922.755 74.0826 922.52 74.5019 922.15 74.8508C921.829 75.1674 921.383 75.2665 920.811 75.1483ZM942.718 76.6189C943.412 76.7624 943.888 77.0312 944.147 77.4252C944.414 77.7784 944.497 78.1998 944.396 78.6894C944.286 79.2198 944.059 79.5983 943.714 79.8248C943.418 80.0189 943.054 80.1349 942.621 80.1729C942.228 80.2193 941.787 80.1918 941.297 80.0905C940.849 79.9976 940.441 79.9131 940.073 79.8371C938.36 79.4824 936.688 78.9237 935.059 78.161C933.479 77.366 932.105 76.4007 930.935 75.2651C929.766 74.1296 928.884 72.8408 928.289 71.3985C927.694 69.9563 927.565 68.4192 927.903 66.7871C928.266 65.0326 929.048 63.6201 930.248 62.5495C931.498 61.4465 932.925 60.6144 934.531 60.0531C936.136 59.4919 937.797 59.1761 939.514 59.1059C941.23 59.0357 942.782 59.1441 944.169 59.4313C944.863 59.5748 945.54 59.8 946.2 60.1068C946.9 60.422 947.494 60.8427 947.981 61.369C948.467 61.8952 948.823 62.5432 949.046 63.3128C949.27 64.0825 949.272 64.9977 949.052 66.0585C948.791 67.3234 948.159 68.3202 947.157 69.0489C946.155 69.7777 945.02 70.3298 943.751 70.7054C942.481 71.081 941.185 71.2807 939.861 71.3045C938.537 71.3283 937.442 71.2719 936.577 71.1354C936.128 71.0425 935.815 70.8075 935.638 70.4304C935.51 70.021 935.492 69.5918 935.585 69.143C935.661 68.7758 935.839 68.4297 936.119 68.1047C936.408 67.7389 936.797 67.6067 937.286 67.708C938.062 67.8685 938.895 67.9558 939.785 67.9699C940.717 67.9925 941.583 67.9166 942.385 67.7422C943.237 67.5354 943.962 67.2175 944.561 66.7884C945.161 66.3593 945.536 65.7776 945.688 65.0431C945.916 63.9415 945.194 63.2175 943.521 62.8713C942.419 62.6433 941.223 62.5658 939.931 62.6389C938.648 62.6711 937.433 62.8877 936.286 63.2886C935.14 63.6895 934.122 64.2874 933.234 65.0823C932.396 65.8448 931.85 66.8381 931.597 68.0621C931.402 69.0006 931.515 69.8961 931.934 70.7488C932.394 71.6099 933.034 72.4232 933.854 73.1887C934.724 73.9218 935.741 74.5578 936.906 75.0968C938.112 75.6442 939.388 76.0572 940.734 76.3359C941.061 76.4035 941.387 76.471 941.713 76.5386C942.048 76.5654 942.383 76.5921 942.718 76.6189ZM966.663 81.192C967.275 81.3187 967.694 81.5544 967.921 81.8991C968.156 82.203 968.227 82.5794 968.134 83.0282C968.016 83.5995 967.784 83.9983 967.44 84.2248C967.103 84.4105 966.723 84.5019 966.298 84.4991C965.873 84.4963 965.416 84.4442 964.926 84.3428C964.436 84.2415 964.008 84.1528 963.641 84.0768C961.927 83.7221 960.272 83.188 958.675 82.4746C957.086 81.7203 955.72 80.8204 954.574 79.7749C953.429 78.7295 952.571 77.5307 952 76.1785C951.429 74.8263 951.312 73.3342 951.65 71.7022C952.047 69.7845 952.829 68.2657 953.997 67.1458C955.214 65.9936 956.601 65.153 958.157 64.6241C959.763 64.0629 961.46 63.776 963.25 63.7634C965.08 63.7594 966.832 63.9305 968.505 64.2767C969.566 64.4963 970.352 64.808 970.864 65.2118C971.385 65.5749 971.569 66.1236 971.417 66.858C971.324 67.3069 971.126 67.6487 970.822 67.8837C970.559 68.1271 970.223 68.2065 969.815 68.1221C969.53 68.063 969.264 68.0081 969.019 67.9574C968.783 67.8659 968.543 67.7949 968.298 67.7442C966.87 67.4486 965.453 67.3043 964.047 67.3112C962.682 67.3266 961.406 67.5305 960.219 67.923C959.072 68.3239 958.071 68.9464 957.215 69.7905C956.409 70.6023 955.867 71.6814 955.588 73.0278C955.368 74.0887 955.509 75.0539 956.01 75.9234C956.511 76.793 957.225 77.5577 958.152 78.2177C959.079 78.8776 960.133 79.4363 961.315 79.8937C962.497 80.351 963.659 80.6979 964.802 80.9344C965.128 81.002 965.434 81.0653 965.72 81.1244C966.014 81.1427 966.328 81.1653 966.663 81.192ZM987.89 89.032C983.959 87.8779 981.295 85.9438 979.9 83.2296C978.504 80.5155 978.254 76.9959 979.149 72.6709L979.681 70.1004C978.09 69.771 976.794 69.3537 975.792 68.8486C974.799 68.3026 974.408 67.5196 974.619 66.4995C974.776 66.1492 975.023 65.8812 975.36 65.6955C975.704 65.469 976.142 65.4106 976.672 65.5204C977.162 65.6217 977.741 65.8054 978.409 66.0714C979.077 66.3373 979.82 66.5548 980.636 66.7237C980.906 65.418 981.221 64.1004 981.581 62.7708C981.95 61.4005 982.351 60.1856 982.783 59.1261C983.255 58.0752 983.747 57.2409 984.258 56.6232C984.777 55.9648 985.343 55.6989 985.955 55.8256C986.404 55.9185 986.769 56.207 987.052 56.691C987.343 57.1342 987.422 57.6822 987.286 58.3351C987.075 59.3551 986.67 60.6966 986.07 62.3596C985.471 64.0226 984.916 65.7799 984.405 67.6315C984.723 67.7398 985.041 67.8482 985.359 67.9566C985.726 68.0326 986.093 68.1086 986.46 68.1846C987.113 68.3197 987.77 68.4344 988.432 68.5287C989.134 68.6315 989.84 68.7139 990.55 68.7758C991.122 68.8941 991.557 69.1544 991.857 69.5568C992.156 69.9592 992.264 70.3644 992.18 70.7725C992.061 71.3437 991.81 71.7383 991.424 71.9564C991.047 72.1336 990.58 72.2286 990.025 72.2412C989.518 72.2215 988.918 72.1398 988.224 71.9962C987.572 71.8611 986.919 71.726 986.266 71.5909L983.451 71.0082C983.317 71.4485 983.208 71.8727 983.123 72.2808C983.039 72.6888 982.955 73.0968 982.87 73.5048C982.566 74.9737 982.414 76.3251 982.414 77.559C982.463 78.7606 982.721 79.8777 983.188 80.9105C983.655 81.9433 984.36 82.855 985.303 83.6458C986.245 84.4366 987.467 85.1149 988.966 85.6806C989.398 85.8551 989.687 86.1063 989.832 86.4341C989.976 86.762 990.011 87.1095 989.935 87.4767C989.834 87.9663 989.598 88.3856 989.228 88.7345C988.907 89.051 988.461 89.1502 987.89 89.032Z" fill="black"/>
<defs>
<linearGradient id="paint0_linear" x1="713.764" y1="551.759" x2="742.131" y2="543.897" gradientUnits="userSpaceOnUse">
<stop stop-color="#F6D242"/>
<stop offset="0.118" stop-color="#F6CA4B"/>
<stop offset="0.314" stop-color="#F7B764"/>
<stop offset="0.562" stop-color="#FA968D"/>
<stop offset="0.851" stop-color="#FD6AC5"/>
<stop offset="1" stop-color="#FF52E5"/>
</linearGradient>
</defs>
</svg>
