<svg width="548" height="470" viewBox="0 0 548 470" fill="none" xmlns="http://www.w3.org/2000/svg">
<rect x="164" y="31" width="24" height="284" rx="12" transform="rotate(-90 164 31)" fill="#7490FF"/>
<rect x="164" y="80" width="24" height="284" rx="12" transform="rotate(-90 164 80)" fill="#7490FF"/>
<rect x="164" y="129" width="24" height="284" rx="12" transform="rotate(-90 164 129)" fill="#7490FF"/>
<rect x="164" y="176" width="24" height="284" rx="12" transform="rotate(-90 164 176)" fill="#7490FF"/>
<rect x="164" y="225" width="24" height="267" rx="12" transform="rotate(-90 164 225)" fill="#7490FF"/>
<rect x="164" y="274" width="24" height="134" rx="12" transform="rotate(-90 164 274)" fill="#7490FF"/>
<rect x="164" y="323" width="24" height="96" rx="12" transform="rotate(-90 164 323)" fill="#7490FF"/>
<rect x="164" y="372" width="24" height="73" rx="12" transform="rotate(-90 164 372)" fill="#7490FF"/>
<rect x="164" y="464" width="24" height="10" rx="5" transform="rotate(-90 164 464)" fill="#7490FF"/>
<rect x="164" y="421" width="24" height="41" rx="12" transform="rotate(-90 164 421)" fill="#7490FF"/>
<path d="M7.10156 21.0703C7.10156 20.5703 6.92448 20.1849 6.57031 19.9141C6.22135 19.6432 5.58854 19.3698 4.67188 19.0938C3.75521 18.8177 3.02604 18.5104 2.48438 18.1719C1.44792 17.5208 0.929688 16.6719 0.929688 15.625C0.929688 14.7083 1.30208 13.9531 2.04688 13.3594C2.79688 12.7656 3.76823 12.4688 4.96094 12.4688C5.7526 12.4688 6.45833 12.6146 7.07812 12.9062C7.69792 13.1979 8.1849 13.6146 8.53906 14.1562C8.89323 14.6927 9.07031 15.2891 9.07031 15.9453H7.10156C7.10156 15.3516 6.91406 14.888 6.53906 14.5547C6.16927 14.2161 5.63802 14.0469 4.94531 14.0469C4.29948 14.0469 3.79688 14.1849 3.4375 14.4609C3.08333 14.737 2.90625 15.1224 2.90625 15.6172C2.90625 16.0339 3.09896 16.3828 3.48438 16.6641C3.86979 16.9401 4.50521 17.2109 5.39062 17.4766C6.27604 17.737 6.98698 18.0365 7.52344 18.375C8.0599 18.7083 8.45312 19.0938 8.70312 19.5312C8.95312 19.9635 9.07812 20.4714 9.07812 21.0547C9.07812 22.0026 8.71354 22.7578 7.98438 23.3203C7.26042 23.8776 6.27604 24.1562 5.03125 24.1562C4.20833 24.1562 3.45052 24.0052 2.75781 23.7031C2.07031 23.3958 1.53385 22.974 1.14844 22.4375C0.768229 21.901 0.578125 21.276 0.578125 20.5625H2.55469C2.55469 21.2083 2.76823 21.7083 3.19531 22.0625C3.6224 22.4167 4.23438 22.5938 5.03125 22.5938C5.71875 22.5938 6.23438 22.4557 6.57812 22.1797C6.92708 21.8984 7.10156 21.5286 7.10156 21.0703ZM15.75 23.1719C15.1927 23.8281 14.401 24.1562 13.375 24.1562C12.4583 24.1562 11.763 23.888 11.2891 23.3516C10.8203 22.8151 10.5859 22.0391 10.5859 21.0234V15.5469H12.4844V21C12.4844 22.0729 12.9297 22.6094 13.8203 22.6094C14.7422 22.6094 15.3646 22.2786 15.6875 21.6172V15.5469H17.5859V24H15.7969L15.75 23.1719ZM26.9375 19.8594C26.9375 21.1719 26.6432 22.2161 26.0547 22.9922C25.4714 23.7682 24.6667 24.1562 23.6406 24.1562C22.651 24.1562 21.8802 23.7995 21.3281 23.0859L21.2344 24H19.5156V12H21.4141V16.3594C21.9609 15.7135 22.6979 15.3906 23.625 15.3906C24.6562 15.3906 25.4661 15.7734 26.0547 16.5391C26.6432 17.3047 26.9375 18.375 26.9375 19.75V19.8594ZM25.0391 19.6953C25.0391 18.7786 24.8776 18.0911 24.5547 17.6328C24.2318 17.1745 23.763 16.9453 23.1484 16.9453C22.3255 16.9453 21.7474 17.3047 21.4141 18.0234V21.5078C21.7526 22.2422 22.3359 22.6094 23.1641 22.6094C23.7578 22.6094 24.2161 22.388 24.5391 21.9453C24.862 21.5026 25.0286 20.8333 25.0391 19.9375V19.6953ZM30.3203 15.5469L30.375 16.4297C30.9688 15.737 31.7812 15.3906 32.8125 15.3906C33.9427 15.3906 34.7161 15.8229 35.1328 16.6875C35.7474 15.8229 36.612 15.3906 37.7266 15.3906C38.6589 15.3906 39.3516 15.6484 39.8047 16.1641C40.263 16.6797 40.4974 17.4401 40.5078 18.4453V24H38.6094V18.5C38.6094 17.9635 38.4922 17.5703 38.2578 17.3203C38.0234 17.0703 37.6354 16.9453 37.0938 16.9453C36.6615 16.9453 36.3073 17.0625 36.0312 17.2969C35.7604 17.526 35.5703 17.8281 35.4609 18.2031L35.4688 24H33.5703V18.4375C33.5443 17.4427 33.0365 16.9453 32.0469 16.9453C31.2865 16.9453 30.7474 17.2552 30.4297 17.875V24H28.5312V15.5469H30.3203ZM44.4766 24H42.5781V15.5469H44.4766V24ZM42.4609 13.3516C42.4609 13.0599 42.5521 12.8177 42.7344 12.625C42.9219 12.4323 43.1875 12.3359 43.5312 12.3359C43.875 12.3359 44.1406 12.4323 44.3281 12.625C44.5156 12.8177 44.6094 13.0599 44.6094 13.3516C44.6094 13.638 44.5156 13.8776 44.3281 14.0703C44.1406 14.2578 43.875 14.3516 43.5312 14.3516C43.1875 14.3516 42.9219 14.2578 42.7344 14.0703C42.5521 13.8776 42.4609 13.638 42.4609 13.3516ZM48.9297 13.4922V15.5469H50.4219V16.9531H48.9297V21.6719C48.9297 21.9948 48.9922 22.2292 49.1172 22.375C49.2474 22.5156 49.4766 22.5859 49.8047 22.5859C50.0234 22.5859 50.2448 22.5599 50.4688 22.5078V23.9766C50.0365 24.0964 49.6198 24.1562 49.2188 24.1562C47.7604 24.1562 47.0312 23.3516 47.0312 21.7422V16.9531H45.6406V15.5469H47.0312V13.4922H48.9297ZM54.2578 13.4922V15.5469H55.75V16.9531H54.2578V21.6719C54.2578 21.9948 54.3203 22.2292 54.4453 22.375C54.5755 22.5156 54.8047 22.5859 55.1328 22.5859C55.3516 22.5859 55.5729 22.5599 55.7969 22.5078V23.9766C55.3646 24.0964 54.9479 24.1562 54.5469 24.1562C53.0885 24.1562 52.3594 23.3516 52.3594 21.7422V16.9531H50.9688V15.5469H52.3594V13.4922H54.2578ZM62.2578 24C62.1745 23.8385 62.1016 23.5755 62.0391 23.2109C61.4349 23.8411 60.6953 24.1562 59.8203 24.1562C58.9714 24.1562 58.2786 23.9141 57.7422 23.4297C57.2057 22.9453 56.9375 22.3464 56.9375 21.6328C56.9375 20.7318 57.2708 20.0417 57.9375 19.5625C58.6094 19.0781 59.5677 18.8359 60.8125 18.8359H61.9766V18.2812C61.9766 17.8438 61.8542 17.4948 61.6094 17.2344C61.3646 16.9688 60.9922 16.8359 60.4922 16.8359C60.0599 16.8359 59.7057 16.9453 59.4297 17.1641C59.1536 17.3776 59.0156 17.651 59.0156 17.9844H57.1172C57.1172 17.5208 57.2708 17.0885 57.5781 16.6875C57.8854 16.2812 58.3021 15.9635 58.8281 15.7344C59.3594 15.5052 59.9505 15.3906 60.6016 15.3906C61.5911 15.3906 62.3802 15.6406 62.9688 16.1406C63.5573 16.6354 63.8594 17.3333 63.875 18.2344V22.0469C63.875 22.8073 63.9818 23.4141 64.1953 23.8672V24H62.2578ZM60.1719 22.6328C60.5469 22.6328 60.8984 22.5417 61.2266 22.3594C61.5599 22.1771 61.8099 21.9323 61.9766 21.625V20.0312H60.9531C60.25 20.0312 59.7214 20.1536 59.3672 20.3984C59.013 20.6432 58.8359 20.9896 58.8359 21.4375C58.8359 21.8021 58.9557 22.0938 59.1953 22.3125C59.4401 22.526 59.7656 22.6328 60.1719 22.6328ZM67.8828 24H65.9844V12H67.8828V24ZM83.1484 24H81.1719L76.1016 15.9297V24H74.125V12.625H76.1016L81.1875 20.7266V12.625H83.1484V24ZM90.3516 24C90.2682 23.8385 90.1953 23.5755 90.1328 23.2109C89.5286 23.8411 88.7891 24.1562 87.9141 24.1562C87.0651 24.1562 86.3724 23.9141 85.8359 23.4297C85.2995 22.9453 85.0312 22.3464 85.0312 21.6328C85.0312 20.7318 85.3646 20.0417 86.0312 19.5625C86.7031 19.0781 87.6615 18.8359 88.9062 18.8359H90.0703V18.2812C90.0703 17.8438 89.9479 17.4948 89.7031 17.2344C89.4583 16.9688 89.0859 16.8359 88.5859 16.8359C88.1536 16.8359 87.7995 16.9453 87.5234 17.1641C87.2474 17.3776 87.1094 17.651 87.1094 17.9844H85.2109C85.2109 17.5208 85.3646 17.0885 85.6719 16.6875C85.9792 16.2812 86.3958 15.9635 86.9219 15.7344C87.4531 15.5052 88.0443 15.3906 88.6953 15.3906C89.6849 15.3906 90.474 15.6406 91.0625 16.1406C91.651 16.6354 91.9531 17.3333 91.9688 18.2344V22.0469C91.9688 22.8073 92.0755 23.4141 92.2891 23.8672V24H90.3516ZM88.2656 22.6328C88.6406 22.6328 88.9922 22.5417 89.3203 22.3594C89.6536 22.1771 89.9036 21.9323 90.0703 21.625V20.0312H89.0469C88.3438 20.0312 87.8151 20.1536 87.4609 20.3984C87.1068 20.6432 86.9297 20.9896 86.9297 21.4375C86.9297 21.8021 87.0495 22.0938 87.2891 22.3125C87.5339 22.526 87.8594 22.6328 88.2656 22.6328ZM95.7422 15.5469L95.7969 16.4297C96.3906 15.737 97.2031 15.3906 98.2344 15.3906C99.3646 15.3906 100.138 15.8229 100.555 16.6875C101.169 15.8229 102.034 15.3906 103.148 15.3906C104.081 15.3906 104.773 15.6484 105.227 16.1641C105.685 16.6797 105.919 17.4401 105.93 18.4453V24H104.031V18.5C104.031 17.9635 103.914 17.5703 103.68 17.3203C103.445 17.0703 103.057 16.9453 102.516 16.9453C102.083 16.9453 101.729 17.0625 101.453 17.2969C101.182 17.526 100.992 17.8281 100.883 18.2031L100.891 24H98.9922V18.4375C98.9661 17.4427 98.4583 16.9453 97.4688 16.9453C96.7083 16.9453 96.1693 17.2552 95.8516 17.875V24H93.9531V15.5469H95.7422ZM111.602 24.1562C110.398 24.1562 109.422 23.7786 108.672 23.0234C107.927 22.263 107.555 21.2526 107.555 19.9922V19.7578C107.555 18.9141 107.716 18.1615 108.039 17.5C108.367 16.8333 108.826 16.3151 109.414 15.9453C110.003 15.5755 110.659 15.3906 111.383 15.3906C112.534 15.3906 113.422 15.7578 114.047 16.4922C114.677 17.2266 114.992 18.2656 114.992 19.6094V20.375H109.469C109.526 21.0729 109.758 21.625 110.164 22.0312C110.576 22.4375 111.091 22.6406 111.711 22.6406C112.581 22.6406 113.289 22.2891 113.836 21.5859L114.859 22.5625C114.521 23.0677 114.068 23.4609 113.5 23.7422C112.938 24.0182 112.305 24.1562 111.602 24.1562ZM111.375 16.9141C110.854 16.9141 110.432 17.0964 110.109 17.4609C109.792 17.8255 109.589 18.3333 109.5 18.9844H113.117V18.8438C113.076 18.2083 112.906 17.7292 112.609 17.4062C112.312 17.0781 111.901 16.9141 111.375 16.9141Z" fill="#333333"/>
<path d="M7.10156 70.0703C7.10156 69.5703 6.92448 69.1849 6.57031 68.9141C6.22135 68.6432 5.58854 68.3698 4.67188 68.0938C3.75521 67.8177 3.02604 67.5104 2.48438 67.1719C1.44792 66.5208 0.929688 65.6719 0.929688 64.625C0.929688 63.7083 1.30208 62.9531 2.04688 62.3594C2.79688 61.7656 3.76823 61.4688 4.96094 61.4688C5.7526 61.4688 6.45833 61.6146 7.07812 61.9062C7.69792 62.1979 8.1849 62.6146 8.53906 63.1562C8.89323 63.6927 9.07031 64.2891 9.07031 64.9453H7.10156C7.10156 64.3516 6.91406 63.888 6.53906 63.5547C6.16927 63.2161 5.63802 63.0469 4.94531 63.0469C4.29948 63.0469 3.79688 63.1849 3.4375 63.4609C3.08333 63.737 2.90625 64.1224 2.90625 64.6172C2.90625 65.0339 3.09896 65.3828 3.48438 65.6641C3.86979 65.9401 4.50521 66.2109 5.39062 66.4766C6.27604 66.737 6.98698 67.0365 7.52344 67.375C8.0599 67.7083 8.45312 68.0938 8.70312 68.5312C8.95312 68.9635 9.07812 69.4714 9.07812 70.0547C9.07812 71.0026 8.71354 71.7578 7.98438 72.3203C7.26042 72.8776 6.27604 73.1562 5.03125 73.1562C4.20833 73.1562 3.45052 73.0052 2.75781 72.7031C2.07031 72.3958 1.53385 71.974 1.14844 71.4375C0.768229 70.901 0.578125 70.276 0.578125 69.5625H2.55469C2.55469 70.2083 2.76823 70.7083 3.19531 71.0625C3.6224 71.4167 4.23438 71.5938 5.03125 71.5938C5.71875 71.5938 6.23438 71.4557 6.57812 71.1797C6.92708 70.8984 7.10156 70.5286 7.10156 70.0703ZM15.75 72.1719C15.1927 72.8281 14.401 73.1562 13.375 73.1562C12.4583 73.1562 11.763 72.888 11.2891 72.3516C10.8203 71.8151 10.5859 71.0391 10.5859 70.0234V64.5469H12.4844V70C12.4844 71.0729 12.9297 71.6094 13.8203 71.6094C14.7422 71.6094 15.3646 71.2786 15.6875 70.6172V64.5469H17.5859V73H15.7969L15.75 72.1719ZM26.9375 68.8594C26.9375 70.1719 26.6432 71.2161 26.0547 71.9922C25.4714 72.7682 24.6667 73.1562 23.6406 73.1562C22.651 73.1562 21.8802 72.7995 21.3281 72.0859L21.2344 73H19.5156V61H21.4141V65.3594C21.9609 64.7135 22.6979 64.3906 23.625 64.3906C24.6562 64.3906 25.4661 64.7734 26.0547 65.5391C26.6432 66.3047 26.9375 67.375 26.9375 68.75V68.8594ZM25.0391 68.6953C25.0391 67.7786 24.8776 67.0911 24.5547 66.6328C24.2318 66.1745 23.763 65.9453 23.1484 65.9453C22.3255 65.9453 21.7474 66.3047 21.4141 67.0234V70.5078C21.7526 71.2422 22.3359 71.6094 23.1641 71.6094C23.7578 71.6094 24.2161 71.388 24.5391 70.9453C24.862 70.5026 25.0286 69.8333 25.0391 68.9375V68.6953ZM30.3203 64.5469L30.375 65.4297C30.9688 64.737 31.7812 64.3906 32.8125 64.3906C33.9427 64.3906 34.7161 64.8229 35.1328 65.6875C35.7474 64.8229 36.612 64.3906 37.7266 64.3906C38.6589 64.3906 39.3516 64.6484 39.8047 65.1641C40.263 65.6797 40.4974 66.4401 40.5078 67.4453V73H38.6094V67.5C38.6094 66.9635 38.4922 66.5703 38.2578 66.3203C38.0234 66.0703 37.6354 65.9453 37.0938 65.9453C36.6615 65.9453 36.3073 66.0625 36.0312 66.2969C35.7604 66.526 35.5703 66.8281 35.4609 67.2031L35.4688 73H33.5703V67.4375C33.5443 66.4427 33.0365 65.9453 32.0469 65.9453C31.2865 65.9453 30.7474 66.2552 30.4297 66.875V73H28.5312V64.5469H30.3203ZM44.4766 73H42.5781V64.5469H44.4766V73ZM42.4609 62.3516C42.4609 62.0599 42.5521 61.8177 42.7344 61.625C42.9219 61.4323 43.1875 61.3359 43.5312 61.3359C43.875 61.3359 44.1406 61.4323 44.3281 61.625C44.5156 61.8177 44.6094 62.0599 44.6094 62.3516C44.6094 62.638 44.5156 62.8776 44.3281 63.0703C44.1406 63.2578 43.875 63.3516 43.5312 63.3516C43.1875 63.3516 42.9219 63.2578 42.7344 63.0703C42.5521 62.8776 42.4609 62.638 42.4609 62.3516ZM48.9297 62.4922V64.5469H50.4219V65.9531H48.9297V70.6719C48.9297 70.9948 48.9922 71.2292 49.1172 71.375C49.2474 71.5156 49.4766 71.5859 49.8047 71.5859C50.0234 71.5859 50.2448 71.5599 50.4688 71.5078V72.9766C50.0365 73.0964 49.6198 73.1562 49.2188 73.1562C47.7604 73.1562 47.0312 72.3516 47.0312 70.7422V65.9531H45.6406V64.5469H47.0312V62.4922H48.9297ZM54.2578 62.4922V64.5469H55.75V65.9531H54.2578V70.6719C54.2578 70.9948 54.3203 71.2292 54.4453 71.375C54.5755 71.5156 54.8047 71.5859 55.1328 71.5859C55.3516 71.5859 55.5729 71.5599 55.7969 71.5078V72.9766C55.3646 73.0964 54.9479 73.1562 54.5469 73.1562C53.0885 73.1562 52.3594 72.3516 52.3594 70.7422V65.9531H50.9688V64.5469H52.3594V62.4922H54.2578ZM62.2578 73C62.1745 72.8385 62.1016 72.5755 62.0391 72.2109C61.4349 72.8411 60.6953 73.1562 59.8203 73.1562C58.9714 73.1562 58.2786 72.9141 57.7422 72.4297C57.2057 71.9453 56.9375 71.3464 56.9375 70.6328C56.9375 69.7318 57.2708 69.0417 57.9375 68.5625C58.6094 68.0781 59.5677 67.8359 60.8125 67.8359H61.9766V67.2812C61.9766 66.8438 61.8542 66.4948 61.6094 66.2344C61.3646 65.9688 60.9922 65.8359 60.4922 65.8359C60.0599 65.8359 59.7057 65.9453 59.4297 66.1641C59.1536 66.3776 59.0156 66.651 59.0156 66.9844H57.1172C57.1172 66.5208 57.2708 66.0885 57.5781 65.6875C57.8854 65.2812 58.3021 64.9635 58.8281 64.7344C59.3594 64.5052 59.9505 64.3906 60.6016 64.3906C61.5911 64.3906 62.3802 64.6406 62.9688 65.1406C63.5573 65.6354 63.8594 66.3333 63.875 67.2344V71.0469C63.875 71.8073 63.9818 72.4141 64.1953 72.8672V73H62.2578ZM60.1719 71.6328C60.5469 71.6328 60.8984 71.5417 61.2266 71.3594C61.5599 71.1771 61.8099 70.9323 61.9766 70.625V69.0312H60.9531C60.25 69.0312 59.7214 69.1536 59.3672 69.3984C59.013 69.6432 58.8359 69.9896 58.8359 70.4375C58.8359 70.8021 58.9557 71.0938 59.1953 71.3125C59.4401 71.526 59.7656 71.6328 60.1719 71.6328ZM67.8828 73H65.9844V61H67.8828V73ZM83.1484 73H81.1719L76.1016 64.9297V73H74.125V61.625H76.1016L81.1875 69.7266V61.625H83.1484V73ZM90.4219 72.1719C89.8646 72.8281 89.0729 73.1562 88.0469 73.1562C87.1302 73.1562 86.4349 72.888 85.9609 72.3516C85.4922 71.8151 85.2578 71.0391 85.2578 70.0234V64.5469H87.1562V70C87.1562 71.0729 87.6016 71.6094 88.4922 71.6094C89.4141 71.6094 90.0365 71.2786 90.3594 70.6172V64.5469H92.2578V73H90.4688L90.4219 72.1719ZM95.9766 64.5469L96.0312 65.4297C96.625 64.737 97.4375 64.3906 98.4688 64.3906C99.599 64.3906 100.372 64.8229 100.789 65.6875C101.404 64.8229 102.268 64.3906 103.383 64.3906C104.315 64.3906 105.008 64.6484 105.461 65.1641C105.919 65.6797 106.154 66.4401 106.164 67.4453V73H104.266V67.5C104.266 66.9635 104.148 66.5703 103.914 66.3203C103.68 66.0703 103.292 65.9453 102.75 65.9453C102.318 65.9453 101.964 66.0625 101.688 66.2969C101.417 66.526 101.227 66.8281 101.117 67.2031L101.125 73H99.2266V67.4375C99.2005 66.4427 98.6927 65.9453 97.7031 65.9453C96.9427 65.9453 96.4036 66.2552 96.0859 66.875V73H94.1875V64.5469H95.9766ZM115.531 68.8594C115.531 70.1719 115.237 71.2161 114.648 71.9922C114.065 72.7682 113.26 73.1562 112.234 73.1562C111.245 73.1562 110.474 72.7995 109.922 72.0859L109.828 73H108.109V61H110.008V65.3594C110.555 64.7135 111.292 64.3906 112.219 64.3906C113.25 64.3906 114.06 64.7734 114.648 65.5391C115.237 66.3047 115.531 67.375 115.531 68.75V68.8594ZM113.633 68.6953C113.633 67.7786 113.471 67.0911 113.148 66.6328C112.826 66.1745 112.357 65.9453 111.742 65.9453C110.919 65.9453 110.341 66.3047 110.008 67.0234V70.5078C110.346 71.2422 110.93 71.6094 111.758 71.6094C112.352 71.6094 112.81 71.388 113.133 70.9453C113.456 70.5026 113.622 69.8333 113.633 68.9375V68.6953ZM120.852 73.1562C119.648 73.1562 118.672 72.7786 117.922 72.0234C117.177 71.263 116.805 70.2526 116.805 68.9922V68.7578C116.805 67.9141 116.966 67.1615 117.289 66.5C117.617 65.8333 118.076 65.3151 118.664 64.9453C119.253 64.5755 119.909 64.3906 120.633 64.3906C121.784 64.3906 122.672 64.7578 123.297 65.4922C123.927 66.2266 124.242 67.2656 124.242 68.6094V69.375H118.719C118.776 70.0729 119.008 70.625 119.414 71.0312C119.826 71.4375 120.341 71.6406 120.961 71.6406C121.831 71.6406 122.539 71.2891 123.086 70.5859L124.109 71.5625C123.771 72.0677 123.318 72.4609 122.75 72.7422C122.188 73.0182 121.555 73.1562 120.852 73.1562ZM120.625 65.9141C120.104 65.9141 119.682 66.0964 119.359 66.4609C119.042 66.8255 118.839 67.3333 118.75 67.9844H122.367V67.8438C122.326 67.2083 122.156 66.7292 121.859 66.4062C121.562 66.0781 121.151 65.9141 120.625 65.9141ZM130.148 66.2812C129.898 66.2396 129.641 66.2188 129.375 66.2188C128.505 66.2188 127.919 66.5521 127.617 67.2188V73H125.719V64.5469H127.531L127.578 65.4922C128.036 64.7578 128.672 64.3906 129.484 64.3906C129.755 64.3906 129.979 64.4271 130.156 64.5L130.148 66.2812Z" fill="#333333"/>
<path d="M5.33594 117.617H3.13281V122H1.15625V110.625H5.15625C6.46875 110.625 7.48177 110.919 8.19531 111.508C8.90885 112.096 9.26562 112.948 9.26562 114.062C9.26562 114.823 9.08073 115.461 8.71094 115.977C8.34635 116.487 7.83594 116.88 7.17969 117.156L9.73438 121.898V122H7.61719L5.33594 117.617ZM3.13281 116.031H5.16406C5.83073 116.031 6.35156 115.865 6.72656 115.531C7.10156 115.193 7.28906 114.732 7.28906 114.148C7.28906 113.539 7.11458 113.068 6.76562 112.734C6.42188 112.401 5.90625 112.229 5.21875 112.219H3.13281V116.031ZM14.6797 122.156C13.4766 122.156 12.5 121.779 11.75 121.023C11.0052 120.263 10.6328 119.253 10.6328 117.992V117.758C10.6328 116.914 10.7943 116.161 11.1172 115.5C11.4453 114.833 11.9036 114.315 12.4922 113.945C13.0807 113.576 13.737 113.391 14.4609 113.391C15.612 113.391 16.5 113.758 17.125 114.492C17.7552 115.227 18.0703 116.266 18.0703 117.609V118.375H12.5469C12.6042 119.073 12.8359 119.625 13.2422 120.031C13.6536 120.438 14.1693 120.641 14.7891 120.641C15.6589 120.641 16.3672 120.289 16.9141 119.586L17.9375 120.562C17.599 121.068 17.1458 121.461 16.5781 121.742C16.0156 122.018 15.3828 122.156 14.6797 122.156ZM14.4531 114.914C13.9323 114.914 13.5104 115.096 13.1875 115.461C12.8698 115.826 12.6667 116.333 12.5781 116.984H16.1953V116.844C16.1536 116.208 15.9844 115.729 15.6875 115.406C15.3906 115.078 14.9792 114.914 14.4531 114.914ZM22.4219 119.594L24.2109 113.547H26.1719L23.2422 122H21.5938L18.6406 113.547H20.6094L22.4219 119.594ZM29.3828 122H27.4844V113.547H29.3828V122ZM27.3672 111.352C27.3672 111.06 27.4583 110.818 27.6406 110.625C27.8281 110.432 28.0938 110.336 28.4375 110.336C28.7812 110.336 29.0469 110.432 29.2344 110.625C29.4219 110.818 29.5156 111.06 29.5156 111.352C29.5156 111.638 29.4219 111.878 29.2344 112.07C29.0469 112.258 28.7812 112.352 28.4375 112.352C28.0938 112.352 27.8281 112.258 27.6406 112.07C27.4583 111.878 27.3672 111.638 27.3672 111.352ZM35.1797 122.156C33.9766 122.156 33 121.779 32.25 121.023C31.5052 120.263 31.1328 119.253 31.1328 117.992V117.758C31.1328 116.914 31.2943 116.161 31.6172 115.5C31.9453 114.833 32.4036 114.315 32.9922 113.945C33.5807 113.576 34.237 113.391 34.9609 113.391C36.112 113.391 37 113.758 37.625 114.492C38.2552 115.227 38.5703 116.266 38.5703 117.609V118.375H33.0469C33.1042 119.073 33.3359 119.625 33.7422 120.031C34.1536 120.438 34.6693 120.641 35.2891 120.641C36.1589 120.641 36.8672 120.289 37.4141 119.586L38.4375 120.562C38.099 121.068 37.6458 121.461 37.0781 121.742C36.5156 122.018 35.8828 122.156 35.1797 122.156ZM34.9531 114.914C34.4323 114.914 34.0104 115.096 33.6875 115.461C33.3698 115.826 33.1667 116.333 33.0781 116.984H36.6953V116.844C36.6536 116.208 36.4844 115.729 36.1875 115.406C35.8906 115.078 35.4792 114.914 34.9531 114.914ZM47.4766 119.383L48.8203 113.547H50.6719L48.3672 122H46.8047L44.9922 116.195L43.2109 122H41.6484L39.3359 113.547H41.1875L42.5547 119.32L44.2891 113.547H45.7188L47.4766 119.383ZM62.0547 119.07C62.0547 118.57 61.8776 118.185 61.5234 117.914C61.1745 117.643 60.5417 117.37 59.625 117.094C58.7083 116.818 57.9792 116.51 57.4375 116.172C56.401 115.521 55.8828 114.672 55.8828 113.625C55.8828 112.708 56.2552 111.953 57 111.359C57.75 110.766 58.7214 110.469 59.9141 110.469C60.7057 110.469 61.4115 110.615 62.0312 110.906C62.651 111.198 63.138 111.615 63.4922 112.156C63.8464 112.693 64.0234 113.289 64.0234 113.945H62.0547C62.0547 113.352 61.8672 112.888 61.4922 112.555C61.1224 112.216 60.5911 112.047 59.8984 112.047C59.2526 112.047 58.75 112.185 58.3906 112.461C58.0365 112.737 57.8594 113.122 57.8594 113.617C57.8594 114.034 58.0521 114.383 58.4375 114.664C58.8229 114.94 59.4583 115.211 60.3438 115.477C61.2292 115.737 61.9401 116.036 62.4766 116.375C63.013 116.708 63.4062 117.094 63.6562 117.531C63.9062 117.964 64.0312 118.471 64.0312 119.055C64.0312 120.003 63.6667 120.758 62.9375 121.32C62.2135 121.878 61.2292 122.156 59.9844 122.156C59.1615 122.156 58.4036 122.005 57.7109 121.703C57.0234 121.396 56.487 120.974 56.1016 120.438C55.7214 119.901 55.5312 119.276 55.5312 118.562H57.5078C57.5078 119.208 57.7214 119.708 58.1484 120.062C58.5755 120.417 59.1875 120.594 59.9844 120.594C60.6719 120.594 61.1875 120.456 61.5312 120.18C61.8802 119.898 62.0547 119.529 62.0547 119.07ZM67.9609 111.492V113.547H69.4531V114.953H67.9609V119.672C67.9609 119.995 68.0234 120.229 68.1484 120.375C68.2786 120.516 68.5078 120.586 68.8359 120.586C69.0547 120.586 69.276 120.56 69.5 120.508V121.977C69.0677 122.096 68.651 122.156 68.25 122.156C66.7917 122.156 66.0625 121.352 66.0625 119.742V114.953H64.6719V113.547H66.0625V111.492H67.9609ZM75.9609 122C75.8776 121.839 75.8047 121.576 75.7422 121.211C75.138 121.841 74.3984 122.156 73.5234 122.156C72.6745 122.156 71.9818 121.914 71.4453 121.43C70.9089 120.945 70.6406 120.346 70.6406 119.633C70.6406 118.732 70.974 118.042 71.6406 117.562C72.3125 117.078 73.2708 116.836 74.5156 116.836H75.6797V116.281C75.6797 115.844 75.5573 115.495 75.3125 115.234C75.0677 114.969 74.6953 114.836 74.1953 114.836C73.763 114.836 73.4089 114.945 73.1328 115.164C72.8568 115.378 72.7188 115.651 72.7188 115.984H70.8203C70.8203 115.521 70.974 115.089 71.2812 114.688C71.5885 114.281 72.0052 113.964 72.5312 113.734C73.0625 113.505 73.6536 113.391 74.3047 113.391C75.2943 113.391 76.0833 113.641 76.6719 114.141C77.2604 114.635 77.5625 115.333 77.5781 116.234V120.047C77.5781 120.807 77.6849 121.414 77.8984 121.867V122H75.9609ZM73.875 120.633C74.25 120.633 74.6016 120.542 74.9297 120.359C75.263 120.177 75.513 119.932 75.6797 119.625V118.031H74.6562C73.9531 118.031 73.4245 118.154 73.0703 118.398C72.7161 118.643 72.5391 118.99 72.5391 119.438C72.5391 119.802 72.6589 120.094 72.8984 120.312C73.1432 120.526 73.4688 120.633 73.875 120.633ZM81.9453 111.492V113.547H83.4375V114.953H81.9453V119.672C81.9453 119.995 82.0078 120.229 82.1328 120.375C82.263 120.516 82.4922 120.586 82.8203 120.586C83.0391 120.586 83.2604 120.56 83.4844 120.508V121.977C83.0521 122.096 82.6354 122.156 82.2344 122.156C80.776 122.156 80.0469 121.352 80.0469 119.742V114.953H78.6562V113.547H80.0469V111.492H81.9453ZM90.0156 121.172C89.4583 121.828 88.6667 122.156 87.6406 122.156C86.724 122.156 86.0286 121.888 85.5547 121.352C85.0859 120.815 84.8516 120.039 84.8516 119.023V113.547H86.75V119C86.75 120.073 87.1953 120.609 88.0859 120.609C89.0078 120.609 89.6302 120.279 89.9531 119.617V113.547H91.8516V122H90.0625L90.0156 121.172ZM98.5234 119.703C98.5234 119.365 98.3828 119.107 98.1016 118.93C97.8255 118.753 97.3646 118.596 96.7188 118.461C96.0729 118.326 95.5339 118.154 95.1016 117.945C94.1536 117.487 93.6797 116.823 93.6797 115.953C93.6797 115.224 93.987 114.615 94.6016 114.125C95.2161 113.635 95.9974 113.391 96.9453 113.391C97.9557 113.391 98.7708 113.641 99.3906 114.141C100.016 114.641 100.328 115.289 100.328 116.086H98.4297C98.4297 115.721 98.2943 115.419 98.0234 115.18C97.7526 114.935 97.3932 114.812 96.9453 114.812C96.5286 114.812 96.1875 114.909 95.9219 115.102C95.6615 115.294 95.5312 115.552 95.5312 115.875C95.5312 116.167 95.6536 116.393 95.8984 116.555C96.1432 116.716 96.638 116.88 97.3828 117.047C98.1276 117.208 98.7109 117.404 99.1328 117.633C99.5599 117.857 99.875 118.128 100.078 118.445C100.286 118.763 100.391 119.148 100.391 119.602C100.391 120.362 100.076 120.979 99.4453 121.453C98.8151 121.922 97.9896 122.156 96.9688 122.156C96.276 122.156 95.6589 122.031 95.1172 121.781C94.5755 121.531 94.1536 121.188 93.8516 120.75C93.5495 120.312 93.3984 119.841 93.3984 119.336H95.2422C95.2682 119.784 95.4375 120.13 95.75 120.375C96.0625 120.615 96.4766 120.734 96.9922 120.734C97.4922 120.734 97.8724 120.641 98.1328 120.453C98.3932 120.26 98.5234 120.01 98.5234 119.703Z" fill="#333333"/>
<path d="M9.375 211.219H5.82812V221H3.86719V211.219H0.351562V209.625H9.375V211.219ZM14.6016 214.281C14.3516 214.24 14.0938 214.219 13.8281 214.219C12.9583 214.219 12.3724 214.552 12.0703 215.219V221H10.1719V212.547H11.9844L12.0312 213.492C12.4896 212.758 13.125 212.391 13.9375 212.391C14.2083 212.391 14.4323 212.427 14.6094 212.5L14.6016 214.281ZM20.6172 221C20.5339 220.839 20.4609 220.576 20.3984 220.211C19.7943 220.841 19.0547 221.156 18.1797 221.156C17.3307 221.156 16.638 220.914 16.1016 220.43C15.5651 219.945 15.2969 219.346 15.2969 218.633C15.2969 217.732 15.6302 217.042 16.2969 216.562C16.9688 216.078 17.9271 215.836 19.1719 215.836H20.3359V215.281C20.3359 214.844 20.2135 214.495 19.9688 214.234C19.724 213.969 19.3516 213.836 18.8516 213.836C18.4193 213.836 18.0651 213.945 17.7891 214.164C17.513 214.378 17.375 214.651 17.375 214.984H15.4766C15.4766 214.521 15.6302 214.089 15.9375 213.688C16.2448 213.281 16.6615 212.964 17.1875 212.734C17.7188 212.505 18.3099 212.391 18.9609 212.391C19.9505 212.391 20.7396 212.641 21.3281 213.141C21.9167 213.635 22.2188 214.333 22.2344 215.234V219.047C22.2344 219.807 22.3411 220.414 22.5547 220.867V221H20.6172ZM18.5312 219.633C18.9062 219.633 19.2578 219.542 19.5859 219.359C19.9193 219.177 20.1693 218.932 20.3359 218.625V217.031H19.3125C18.6094 217.031 18.0807 217.154 17.7266 217.398C17.3724 217.643 17.1953 217.99 17.1953 218.438C17.1953 218.802 17.3151 219.094 17.5547 219.312C17.7995 219.526 18.125 219.633 18.5312 219.633ZM23.8672 216.711C23.8672 215.409 24.1693 214.365 24.7734 213.578C25.3776 212.786 26.1875 212.391 27.2031 212.391C28.099 212.391 28.8229 212.703 29.375 213.328V209H31.2734V221H29.5547L29.4609 220.125C28.8932 220.812 28.1354 221.156 27.1875 221.156C26.1979 221.156 25.3958 220.758 24.7812 219.961C24.1719 219.164 23.8672 218.081 23.8672 216.711ZM25.7656 216.875C25.7656 217.734 25.9297 218.406 26.2578 218.891C26.5911 219.37 27.0625 219.609 27.6719 219.609C28.4479 219.609 29.0156 219.263 29.375 218.57V214.961C29.026 214.284 28.4635 213.945 27.6875 213.945C27.0729 213.945 26.599 214.19 26.2656 214.68C25.9323 215.164 25.7656 215.896 25.7656 216.875ZM36.9766 221.156C35.7734 221.156 34.7969 220.779 34.0469 220.023C33.3021 219.263 32.9297 218.253 32.9297 216.992V216.758C32.9297 215.914 33.0911 215.161 33.4141 214.5C33.7422 213.833 34.2005 213.315 34.7891 212.945C35.3776 212.576 36.0339 212.391 36.7578 212.391C37.9089 212.391 38.7969 212.758 39.4219 213.492C40.0521 214.227 40.3672 215.266 40.3672 216.609V217.375H34.8438C34.901 218.073 35.1328 218.625 35.5391 219.031C35.9505 219.438 36.4661 219.641 37.0859 219.641C37.9557 219.641 38.6641 219.289 39.2109 218.586L40.2344 219.562C39.8958 220.068 39.4427 220.461 38.875 220.742C38.3125 221.018 37.6797 221.156 36.9766 221.156ZM36.75 213.914C36.2292 213.914 35.8073 214.096 35.4844 214.461C35.1667 214.826 34.9635 215.333 34.875 215.984H38.4922V215.844C38.4505 215.208 38.2812 214.729 37.9844 214.406C37.6875 214.078 37.276 213.914 36.75 213.914ZM54.6953 217.297C54.5807 218.51 54.1328 219.458 53.3516 220.141C52.5703 220.818 51.5312 221.156 50.2344 221.156C49.3281 221.156 48.5286 220.943 47.8359 220.516C47.1484 220.083 46.6172 219.471 46.2422 218.68C45.8672 217.888 45.6719 216.969 45.6562 215.922V214.859C45.6562 213.786 45.8464 212.841 46.2266 212.023C46.6068 211.206 47.151 210.576 47.8594 210.133C48.5729 209.69 49.3958 209.469 50.3281 209.469C51.5833 209.469 52.5938 209.81 53.3594 210.492C54.125 211.174 54.5703 212.138 54.6953 213.383H52.7266C52.6328 212.565 52.3932 211.977 52.0078 211.617C51.6276 211.253 51.0677 211.07 50.3281 211.07C49.4688 211.07 48.8073 211.385 48.3438 212.016C47.8854 212.641 47.651 213.56 47.6406 214.773V215.781C47.6406 217.01 47.8594 217.948 48.2969 218.594C48.7396 219.24 49.3854 219.562 50.2344 219.562C51.0104 219.562 51.5938 219.388 51.9844 219.039C52.375 218.69 52.6224 218.109 52.7266 217.297H54.6953ZM55.9297 216.695C55.9297 215.867 56.0938 215.122 56.4219 214.461C56.75 213.794 57.2109 213.284 57.8047 212.93C58.3984 212.57 59.0807 212.391 59.8516 212.391C60.9922 212.391 61.9167 212.758 62.625 213.492C63.3385 214.227 63.724 215.201 63.7812 216.414L63.7891 216.859C63.7891 217.693 63.6276 218.438 63.3047 219.094C62.987 219.75 62.5286 220.258 61.9297 220.617C61.3359 220.977 60.6484 221.156 59.8672 221.156C58.6745 221.156 57.7188 220.76 57 219.969C56.2865 219.172 55.9297 218.112 55.9297 216.789V216.695ZM57.8281 216.859C57.8281 217.729 58.0078 218.411 58.3672 218.906C58.7266 219.396 59.2266 219.641 59.8672 219.641C60.5078 219.641 61.0052 219.391 61.3594 218.891C61.7188 218.391 61.8984 217.659 61.8984 216.695C61.8984 215.841 61.7135 215.164 61.3438 214.664C60.9792 214.164 60.4818 213.914 59.8516 213.914C59.2318 213.914 58.7396 214.161 58.375 214.656C58.0104 215.146 57.8281 215.88 57.8281 216.859ZM67.1797 212.547L67.2344 213.43C67.8281 212.737 68.6406 212.391 69.6719 212.391C70.8021 212.391 71.5755 212.823 71.9922 213.688C72.6068 212.823 73.4714 212.391 74.5859 212.391C75.5182 212.391 76.2109 212.648 76.6641 213.164C77.1224 213.68 77.3568 214.44 77.3672 215.445V221H75.4688V215.5C75.4688 214.964 75.3516 214.57 75.1172 214.32C74.8828 214.07 74.4948 213.945 73.9531 213.945C73.5208 213.945 73.1667 214.062 72.8906 214.297C72.6198 214.526 72.4297 214.828 72.3203 215.203L72.3281 221H70.4297V215.438C70.4036 214.443 69.8958 213.945 68.9062 213.945C68.1458 213.945 67.6068 214.255 67.2891 214.875V221H65.3906V212.547H67.1797ZM86.7188 216.859C86.7188 218.167 86.4219 219.211 85.8281 219.992C85.2344 220.768 84.4375 221.156 83.4375 221.156C82.5104 221.156 81.7682 220.852 81.2109 220.242V224.25H79.3125V212.547H81.0625L81.1406 213.406C81.6979 212.729 82.4557 212.391 83.4141 212.391C84.4453 212.391 85.2526 212.776 85.8359 213.547C86.4245 214.312 86.7188 215.378 86.7188 216.742V216.859ZM84.8281 216.695C84.8281 215.852 84.6589 215.182 84.3203 214.688C83.987 214.193 83.5078 213.945 82.8828 213.945C82.1068 213.945 81.5495 214.266 81.2109 214.906V218.656C81.5547 219.312 82.1172 219.641 82.8984 219.641C83.5026 219.641 83.974 219.398 84.3125 218.914C84.6562 218.424 84.8281 217.685 84.8281 216.695ZM93.3828 221C93.2995 220.839 93.2266 220.576 93.1641 220.211C92.5599 220.841 91.8203 221.156 90.9453 221.156C90.0964 221.156 89.4036 220.914 88.8672 220.43C88.3307 219.945 88.0625 219.346 88.0625 218.633C88.0625 217.732 88.3958 217.042 89.0625 216.562C89.7344 216.078 90.6927 215.836 91.9375 215.836H93.1016V215.281C93.1016 214.844 92.9792 214.495 92.7344 214.234C92.4896 213.969 92.1172 213.836 91.6172 213.836C91.1849 213.836 90.8307 213.945 90.5547 214.164C90.2786 214.378 90.1406 214.651 90.1406 214.984H88.2422C88.2422 214.521 88.3958 214.089 88.7031 213.688C89.0104 213.281 89.4271 212.964 89.9531 212.734C90.4844 212.505 91.0755 212.391 91.7266 212.391C92.7161 212.391 93.5052 212.641 94.0938 213.141C94.6823 213.635 94.9844 214.333 95 215.234V219.047C95 219.807 95.1068 220.414 95.3203 220.867V221H93.3828ZM91.2969 219.633C91.6719 219.633 92.0234 219.542 92.3516 219.359C92.6849 219.177 92.9349 218.932 93.1016 218.625V217.031H92.0781C91.375 217.031 90.8464 217.154 90.4922 217.398C90.138 217.643 89.9609 217.99 89.9609 218.438C89.9609 218.802 90.0807 219.094 90.3203 219.312C90.5651 219.526 90.8906 219.633 91.2969 219.633ZM98.75 212.547L98.8047 213.523C99.4297 212.768 100.25 212.391 101.266 212.391C103.026 212.391 103.922 213.398 103.953 215.414V221H102.055V215.523C102.055 214.987 101.938 214.591 101.703 214.336C101.474 214.076 101.096 213.945 100.57 213.945C99.8047 213.945 99.2344 214.292 98.8594 214.984V221H96.9609V212.547H98.75ZM108.852 218.281L110.57 212.547H112.594L109.234 222.281C108.719 223.703 107.844 224.414 106.609 224.414C106.333 224.414 106.029 224.367 105.695 224.273V222.805L106.055 222.828C106.534 222.828 106.893 222.74 107.133 222.562C107.378 222.391 107.57 222.099 107.711 221.688L107.984 220.961L105.016 212.547H107.062L108.852 218.281Z" fill="#333333"/>
<path d="M9.83594 266.297C9.72135 267.51 9.27344 268.458 8.49219 269.141C7.71094 269.818 6.67188 270.156 5.375 270.156C4.46875 270.156 3.66927 269.943 2.97656 269.516C2.28906 269.083 1.75781 268.471 1.38281 267.68C1.00781 266.888 0.8125 265.969 0.796875 264.922V263.859C0.796875 262.786 0.986979 261.841 1.36719 261.023C1.7474 260.206 2.29167 259.576 3 259.133C3.71354 258.69 4.53646 258.469 5.46875 258.469C6.72396 258.469 7.73438 258.81 8.5 259.492C9.26562 260.174 9.71094 261.138 9.83594 262.383H7.86719C7.77344 261.565 7.53385 260.977 7.14844 260.617C6.76823 260.253 6.20833 260.07 5.46875 260.07C4.60938 260.07 3.94792 260.385 3.48438 261.016C3.02604 261.641 2.79167 262.56 2.78125 263.773V264.781C2.78125 266.01 3 266.948 3.4375 267.594C3.88021 268.24 4.52604 268.562 5.375 268.562C6.15104 268.562 6.73438 268.388 7.125 268.039C7.51562 267.69 7.76302 267.109 7.86719 266.297H9.83594ZM17.5547 267.07C17.5547 266.57 17.3776 266.185 17.0234 265.914C16.6745 265.643 16.0417 265.37 15.125 265.094C14.2083 264.818 13.4792 264.51 12.9375 264.172C11.901 263.521 11.3828 262.672 11.3828 261.625C11.3828 260.708 11.7552 259.953 12.5 259.359C13.25 258.766 14.2214 258.469 15.4141 258.469C16.2057 258.469 16.9115 258.615 17.5312 258.906C18.151 259.198 18.638 259.615 18.9922 260.156C19.3464 260.693 19.5234 261.289 19.5234 261.945H17.5547C17.5547 261.352 17.3672 260.888 16.9922 260.555C16.6224 260.216 16.0911 260.047 15.3984 260.047C14.7526 260.047 14.25 260.185 13.8906 260.461C13.5365 260.737 13.3594 261.122 13.3594 261.617C13.3594 262.034 13.5521 262.383 13.9375 262.664C14.3229 262.94 14.9583 263.211 15.8438 263.477C16.7292 263.737 17.4401 264.036 17.9766 264.375C18.513 264.708 18.9062 265.094 19.1562 265.531C19.4062 265.964 19.5312 266.471 19.5312 267.055C19.5312 268.003 19.1667 268.758 18.4375 269.32C17.7135 269.878 16.7292 270.156 15.4844 270.156C14.6615 270.156 13.9036 270.005 13.2109 269.703C12.5234 269.396 11.987 268.974 11.6016 268.438C11.2214 267.901 11.0312 267.276 11.0312 266.562H13.0078C13.0078 267.208 13.2214 267.708 13.6484 268.062C14.0755 268.417 14.6875 268.594 15.4844 268.594C16.1719 268.594 16.6875 268.456 17.0312 268.18C17.3802 267.898 17.5547 267.529 17.5547 267.07ZM23.3516 270H21.3828V258.625H23.3516V270ZM38.4453 266.297C38.3307 267.51 37.8828 268.458 37.1016 269.141C36.3203 269.818 35.2812 270.156 33.9844 270.156C33.0781 270.156 32.2786 269.943 31.5859 269.516C30.8984 269.083 30.3672 268.471 29.9922 267.68C29.6172 266.888 29.4219 265.969 29.4062 264.922V263.859C29.4062 262.786 29.5964 261.841 29.9766 261.023C30.3568 260.206 30.901 259.576 31.6094 259.133C32.3229 258.69 33.1458 258.469 34.0781 258.469C35.3333 258.469 36.3438 258.81 37.1094 259.492C37.875 260.174 38.3203 261.138 38.4453 262.383H36.4766C36.3828 261.565 36.1432 260.977 35.7578 260.617C35.3776 260.253 34.8177 260.07 34.0781 260.07C33.2188 260.07 32.5573 260.385 32.0938 261.016C31.6354 261.641 31.401 262.56 31.3906 263.773V264.781C31.3906 266.01 31.6094 266.948 32.0469 267.594C32.4896 268.24 33.1354 268.562 33.9844 268.562C34.7604 268.562 35.3438 268.388 35.7344 268.039C36.125 267.69 36.3724 267.109 36.4766 266.297H38.4453ZM39.6797 265.695C39.6797 264.867 39.8438 264.122 40.1719 263.461C40.5 262.794 40.9609 262.284 41.5547 261.93C42.1484 261.57 42.8307 261.391 43.6016 261.391C44.7422 261.391 45.6667 261.758 46.375 262.492C47.0885 263.227 47.474 264.201 47.5312 265.414L47.5391 265.859C47.5391 266.693 47.3776 267.438 47.0547 268.094C46.737 268.75 46.2786 269.258 45.6797 269.617C45.0859 269.977 44.3984 270.156 43.6172 270.156C42.4245 270.156 41.4688 269.76 40.75 268.969C40.0365 268.172 39.6797 267.112 39.6797 265.789V265.695ZM41.5781 265.859C41.5781 266.729 41.7578 267.411 42.1172 267.906C42.4766 268.396 42.9766 268.641 43.6172 268.641C44.2578 268.641 44.7552 268.391 45.1094 267.891C45.4688 267.391 45.6484 266.659 45.6484 265.695C45.6484 264.841 45.4635 264.164 45.0938 263.664C44.7292 263.164 44.2318 262.914 43.6016 262.914C42.9818 262.914 42.4896 263.161 42.125 263.656C41.7604 264.146 41.5781 264.88 41.5781 265.859ZM48.7891 265.711C48.7891 264.409 49.0911 263.365 49.6953 262.578C50.2995 261.786 51.1094 261.391 52.125 261.391C53.0208 261.391 53.7448 261.703 54.2969 262.328V258H56.1953V270H54.4766L54.3828 269.125C53.8151 269.812 53.0573 270.156 52.1094 270.156C51.1198 270.156 50.3177 269.758 49.7031 268.961C49.0938 268.164 48.7891 267.081 48.7891 265.711ZM50.6875 265.875C50.6875 266.734 50.8516 267.406 51.1797 267.891C51.513 268.37 51.9844 268.609 52.5938 268.609C53.3698 268.609 53.9375 268.263 54.2969 267.57V263.961C53.9479 263.284 53.3854 262.945 52.6094 262.945C51.9948 262.945 51.5208 263.19 51.1875 263.68C50.8542 264.164 50.6875 264.896 50.6875 265.875ZM61.8984 270.156C60.6953 270.156 59.7188 269.779 58.9688 269.023C58.224 268.263 57.8516 267.253 57.8516 265.992V265.758C57.8516 264.914 58.013 264.161 58.3359 263.5C58.6641 262.833 59.1224 262.315 59.7109 261.945C60.2995 261.576 60.9557 261.391 61.6797 261.391C62.8307 261.391 63.7188 261.758 64.3438 262.492C64.974 263.227 65.2891 264.266 65.2891 265.609V266.375H59.7656C59.8229 267.073 60.0547 267.625 60.4609 268.031C60.8724 268.438 61.388 268.641 62.0078 268.641C62.8776 268.641 63.5859 268.289 64.1328 267.586L65.1562 268.562C64.8177 269.068 64.3646 269.461 63.7969 269.742C63.2344 270.018 62.6016 270.156 61.8984 270.156ZM61.6719 262.914C61.151 262.914 60.7292 263.096 60.4062 263.461C60.0885 263.826 59.8854 264.333 59.7969 264.984H63.4141V264.844C63.3724 264.208 63.2031 263.729 62.9062 263.406C62.6094 263.078 62.1979 262.914 61.6719 262.914Z" fill="#333333"/>
<path d="M5.33594 314.617H3.13281V319H1.15625V307.625H5.15625C6.46875 307.625 7.48177 307.919 8.19531 308.508C8.90885 309.096 9.26562 309.948 9.26562 311.062C9.26562 311.823 9.08073 312.461 8.71094 312.977C8.34635 313.487 7.83594 313.88 7.17969 314.156L9.73438 318.898V319H7.61719L5.33594 314.617ZM3.13281 313.031H5.16406C5.83073 313.031 6.35156 312.865 6.72656 312.531C7.10156 312.193 7.28906 311.732 7.28906 311.148C7.28906 310.539 7.11458 310.068 6.76562 309.734C6.42188 309.401 5.90625 309.229 5.21875 309.219H3.13281V313.031ZM14.6797 319.156C13.4766 319.156 12.5 318.779 11.75 318.023C11.0052 317.263 10.6328 316.253 10.6328 314.992V314.758C10.6328 313.914 10.7943 313.161 11.1172 312.5C11.4453 311.833 11.9036 311.315 12.4922 310.945C13.0807 310.576 13.737 310.391 14.4609 310.391C15.612 310.391 16.5 310.758 17.125 311.492C17.7552 312.227 18.0703 313.266 18.0703 314.609V315.375H12.5469C12.6042 316.073 12.8359 316.625 13.2422 317.031C13.6536 317.438 14.1693 317.641 14.7891 317.641C15.6589 317.641 16.3672 317.289 16.9141 316.586L17.9375 317.562C17.599 318.068 17.1458 318.461 16.5781 318.742C16.0156 319.018 15.3828 319.156 14.6797 319.156ZM14.4531 311.914C13.9323 311.914 13.5104 312.096 13.1875 312.461C12.8698 312.826 12.6667 313.333 12.5781 313.984H16.1953V313.844C16.1536 313.208 15.9844 312.729 15.6875 312.406C15.3906 312.078 14.9792 311.914 14.4531 311.914ZM22.4219 316.594L24.2109 310.547H26.1719L23.2422 319H21.5938L18.6406 310.547H20.6094L22.4219 316.594ZM29.3828 319H27.4844V310.547H29.3828V319ZM27.3672 308.352C27.3672 308.06 27.4583 307.818 27.6406 307.625C27.8281 307.432 28.0938 307.336 28.4375 307.336C28.7812 307.336 29.0469 307.432 29.2344 307.625C29.4219 307.818 29.5156 308.06 29.5156 308.352C29.5156 308.638 29.4219 308.878 29.2344 309.07C29.0469 309.258 28.7812 309.352 28.4375 309.352C28.0938 309.352 27.8281 309.258 27.6406 309.07C27.4583 308.878 27.3672 308.638 27.3672 308.352ZM36.1953 316.703C36.1953 316.365 36.0547 316.107 35.7734 315.93C35.4974 315.753 35.0365 315.596 34.3906 315.461C33.7448 315.326 33.2057 315.154 32.7734 314.945C31.8255 314.487 31.3516 313.823 31.3516 312.953C31.3516 312.224 31.6589 311.615 32.2734 311.125C32.888 310.635 33.6693 310.391 34.6172 310.391C35.6276 310.391 36.4427 310.641 37.0625 311.141C37.6875 311.641 38 312.289 38 313.086H36.1016C36.1016 312.721 35.9661 312.419 35.6953 312.18C35.4245 311.935 35.0651 311.812 34.6172 311.812C34.2005 311.812 33.8594 311.909 33.5938 312.102C33.3333 312.294 33.2031 312.552 33.2031 312.875C33.2031 313.167 33.3255 313.393 33.5703 313.555C33.8151 313.716 34.3099 313.88 35.0547 314.047C35.7995 314.208 36.3828 314.404 36.8047 314.633C37.2318 314.857 37.5469 315.128 37.75 315.445C37.9583 315.763 38.0625 316.148 38.0625 316.602C38.0625 317.362 37.7474 317.979 37.1172 318.453C36.487 318.922 35.6615 319.156 34.6406 319.156C33.9479 319.156 33.3307 319.031 32.7891 318.781C32.2474 318.531 31.8255 318.188 31.5234 317.75C31.2214 317.312 31.0703 316.841 31.0703 316.336H32.9141C32.9401 316.784 33.1094 317.13 33.4219 317.375C33.7344 317.615 34.1484 317.734 34.6641 317.734C35.1641 317.734 35.5443 317.641 35.8047 317.453C36.0651 317.26 36.1953 317.01 36.1953 316.703ZM41.7422 319H39.8438V310.547H41.7422V319ZM39.7266 308.352C39.7266 308.06 39.8177 307.818 40 307.625C40.1875 307.432 40.4531 307.336 40.7969 307.336C41.1406 307.336 41.4062 307.432 41.5938 307.625C41.7812 307.818 41.875 308.06 41.875 308.352C41.875 308.638 41.7812 308.878 41.5938 309.07C41.4062 309.258 41.1406 309.352 40.7969 309.352C40.4531 309.352 40.1875 309.258 40 309.07C39.8177 308.878 39.7266 308.638 39.7266 308.352ZM43.4609 314.695C43.4609 313.867 43.625 313.122 43.9531 312.461C44.2812 311.794 44.7422 311.284 45.3359 310.93C45.9297 310.57 46.612 310.391 47.3828 310.391C48.5234 310.391 49.4479 310.758 50.1562 311.492C50.8698 312.227 51.2552 313.201 51.3125 314.414L51.3203 314.859C51.3203 315.693 51.1589 316.438 50.8359 317.094C50.5182 317.75 50.0599 318.258 49.4609 318.617C48.8672 318.977 48.1797 319.156 47.3984 319.156C46.2057 319.156 45.25 318.76 44.5312 317.969C43.8177 317.172 43.4609 316.112 43.4609 314.789V314.695ZM45.3594 314.859C45.3594 315.729 45.5391 316.411 45.8984 316.906C46.2578 317.396 46.7578 317.641 47.3984 317.641C48.0391 317.641 48.5365 317.391 48.8906 316.891C49.25 316.391 49.4297 315.659 49.4297 314.695C49.4297 313.841 49.2448 313.164 48.875 312.664C48.5104 312.164 48.013 311.914 47.3828 311.914C46.763 311.914 46.2708 312.161 45.9062 312.656C45.5417 313.146 45.3594 313.88 45.3594 314.859ZM54.6875 310.547L54.7422 311.523C55.3672 310.768 56.1875 310.391 57.2031 310.391C58.9635 310.391 59.8594 311.398 59.8906 313.414V319H57.9922V313.523C57.9922 312.987 57.875 312.591 57.6406 312.336C57.4115 312.076 57.0339 311.945 56.5078 311.945C55.7422 311.945 55.1719 312.292 54.7969 312.984V319H52.8984V310.547H54.6875ZM70.1797 314.617H67.9766V319H66V307.625H70C71.3125 307.625 72.3255 307.919 73.0391 308.508C73.7526 309.096 74.1094 309.948 74.1094 311.062C74.1094 311.823 73.9245 312.461 73.5547 312.977C73.1901 313.487 72.6797 313.88 72.0234 314.156L74.5781 318.898V319H72.4609L70.1797 314.617ZM67.9766 313.031H70.0078C70.6745 313.031 71.1953 312.865 71.5703 312.531C71.9453 312.193 72.1328 311.732 72.1328 311.148C72.1328 310.539 71.9583 310.068 71.6094 309.734C71.2656 309.401 70.75 309.229 70.0625 309.219H67.9766V313.031ZM75.4453 314.695C75.4453 313.867 75.6094 313.122 75.9375 312.461C76.2656 311.794 76.7266 311.284 77.3203 310.93C77.9141 310.57 78.5964 310.391 79.3672 310.391C80.5078 310.391 81.4323 310.758 82.1406 311.492C82.8542 312.227 83.2396 313.201 83.2969 314.414L83.3047 314.859C83.3047 315.693 83.1432 316.438 82.8203 317.094C82.5026 317.75 82.0443 318.258 81.4453 318.617C80.8516 318.977 80.1641 319.156 79.3828 319.156C78.1901 319.156 77.2344 318.76 76.5156 317.969C75.8021 317.172 75.4453 316.112 75.4453 314.789V314.695ZM77.3438 314.859C77.3438 315.729 77.5234 316.411 77.8828 316.906C78.2422 317.396 78.7422 317.641 79.3828 317.641C80.0234 317.641 80.5208 317.391 80.875 316.891C81.2344 316.391 81.4141 315.659 81.4141 314.695C81.4141 313.841 81.2292 313.164 80.8594 312.664C80.4948 312.164 79.9974 311.914 79.3672 311.914C78.7474 311.914 78.2552 312.161 77.8906 312.656C77.526 313.146 77.3438 313.88 77.3438 314.859ZM90.0312 318.172C89.474 318.828 88.6823 319.156 87.6562 319.156C86.7396 319.156 86.0443 318.888 85.5703 318.352C85.1016 317.815 84.8672 317.039 84.8672 316.023V310.547H86.7656V316C86.7656 317.073 87.2109 317.609 88.1016 317.609C89.0234 317.609 89.6458 317.279 89.9688 316.617V310.547H91.8672V319H90.0781L90.0312 318.172ZM95.5625 310.547L95.6172 311.523C96.2422 310.768 97.0625 310.391 98.0781 310.391C99.8385 310.391 100.734 311.398 100.766 313.414V319H98.8672V313.523C98.8672 312.987 98.75 312.591 98.5156 312.336C98.2865 312.076 97.9089 311.945 97.3828 311.945C96.6172 311.945 96.0469 312.292 95.6719 312.984V319H93.7734V310.547H95.5625ZM102.352 314.711C102.352 313.409 102.654 312.365 103.258 311.578C103.862 310.786 104.672 310.391 105.688 310.391C106.583 310.391 107.307 310.703 107.859 311.328V307H109.758V319H108.039L107.945 318.125C107.378 318.812 106.62 319.156 105.672 319.156C104.682 319.156 103.88 318.758 103.266 317.961C102.656 317.164 102.352 316.081 102.352 314.711ZM104.25 314.875C104.25 315.734 104.414 316.406 104.742 316.891C105.076 317.37 105.547 317.609 106.156 317.609C106.932 317.609 107.5 317.263 107.859 316.57V312.961C107.51 312.284 106.948 311.945 106.172 311.945C105.557 311.945 105.083 312.19 104.75 312.68C104.417 313.164 104.25 313.896 104.25 314.875Z" fill="#333333"/>
<path d="M1.15625 368V356.625H5.05469C6.34115 356.625 7.32031 356.883 7.99219 357.398C8.66406 357.914 9 358.682 9 359.703C9 360.224 8.85938 360.693 8.57812 361.109C8.29688 361.526 7.88542 361.849 7.34375 362.078C7.95833 362.245 8.43229 362.56 8.76562 363.023C9.10417 363.482 9.27344 364.034 9.27344 364.68C9.27344 365.747 8.92969 366.568 8.24219 367.141C7.5599 367.714 6.58073 368 5.30469 368H1.15625ZM3.13281 362.867V366.422H5.32812C5.94792 366.422 6.43229 366.268 6.78125 365.961C7.13021 365.654 7.30469 365.227 7.30469 364.68C7.30469 363.497 6.70052 362.893 5.49219 362.867H3.13281ZM3.13281 361.414H5.07031C5.6849 361.414 6.16406 361.276 6.50781 361C6.85677 360.719 7.03125 360.323 7.03125 359.812C7.03125 359.25 6.86979 358.844 6.54688 358.594C6.22917 358.344 5.73177 358.219 5.05469 358.219H3.13281V361.414ZM13.0859 368H11.1875V359.547H13.0859V368ZM11.0703 357.352C11.0703 357.06 11.1615 356.818 11.3438 356.625C11.5312 356.432 11.7969 356.336 12.1406 356.336C12.4844 356.336 12.75 356.432 12.9375 356.625C13.125 356.818 13.2188 357.06 13.2188 357.352C13.2188 357.638 13.125 357.878 12.9375 358.07C12.75 358.258 12.4844 358.352 12.1406 358.352C11.7969 358.352 11.5312 358.258 11.3438 358.07C11.1615 357.878 11.0703 357.638 11.0703 357.352ZM14.8047 363.711C14.8047 362.409 15.1068 361.365 15.7109 360.578C16.3151 359.786 17.125 359.391 18.1406 359.391C19.0365 359.391 19.7604 359.703 20.3125 360.328V356H22.2109V368H20.4922L20.3984 367.125C19.8307 367.812 19.0729 368.156 18.125 368.156C17.1354 368.156 16.3333 367.758 15.7188 366.961C15.1094 366.164 14.8047 365.081 14.8047 363.711ZM16.7031 363.875C16.7031 364.734 16.8672 365.406 17.1953 365.891C17.5286 366.37 18 366.609 18.6094 366.609C19.3854 366.609 19.9531 366.263 20.3125 365.57V361.961C19.9635 361.284 19.401 360.945 18.625 360.945C18.0104 360.945 17.5365 361.19 17.2031 361.68C16.8698 362.164 16.7031 362.896 16.7031 363.875ZM30.3359 363.773V368H28.3594V356.625H32.7109C33.9818 356.625 34.9896 356.956 35.7344 357.617C36.4844 358.279 36.8594 359.154 36.8594 360.242C36.8594 361.357 36.4922 362.224 35.7578 362.844C35.0286 363.464 34.0052 363.773 32.6875 363.773H30.3359ZM30.3359 362.188H32.7109C33.4141 362.188 33.9505 362.023 34.3203 361.695C34.6901 361.362 34.875 360.883 34.875 360.258C34.875 359.643 34.6875 359.154 34.3125 358.789C33.9375 358.419 33.4219 358.229 32.7656 358.219H30.3359V362.188ZM43.3672 368C43.2839 367.839 43.2109 367.576 43.1484 367.211C42.5443 367.841 41.8047 368.156 40.9297 368.156C40.0807 368.156 39.388 367.914 38.8516 367.43C38.3151 366.945 38.0469 366.346 38.0469 365.633C38.0469 364.732 38.3802 364.042 39.0469 363.562C39.7188 363.078 40.6771 362.836 41.9219 362.836H43.0859V362.281C43.0859 361.844 42.9635 361.495 42.7188 361.234C42.474 360.969 42.1016 360.836 41.6016 360.836C41.1693 360.836 40.8151 360.945 40.5391 361.164C40.263 361.378 40.125 361.651 40.125 361.984H38.2266C38.2266 361.521 38.3802 361.089 38.6875 360.688C38.9948 360.281 39.4115 359.964 39.9375 359.734C40.4688 359.505 41.0599 359.391 41.7109 359.391C42.7005 359.391 43.4896 359.641 44.0781 360.141C44.6667 360.635 44.9688 361.333 44.9844 362.234V366.047C44.9844 366.807 45.0911 367.414 45.3047 367.867V368H43.3672ZM41.2812 366.633C41.6562 366.633 42.0078 366.542 42.3359 366.359C42.6693 366.177 42.9193 365.932 43.0859 365.625V364.031H42.0625C41.3594 364.031 40.8307 364.154 40.4766 364.398C40.1224 364.643 39.9453 364.99 39.9453 365.438C39.9453 365.802 40.0651 366.094 40.3047 366.312C40.5495 366.526 40.875 366.633 41.2812 366.633ZM50.4453 366.641C50.9193 366.641 51.3125 366.503 51.625 366.227C51.9375 365.951 52.1042 365.609 52.125 365.203H53.9141C53.8932 365.729 53.7292 366.221 53.4219 366.68C53.1146 367.133 52.6979 367.492 52.1719 367.758C51.6458 368.023 51.0781 368.156 50.4688 368.156C49.2865 368.156 48.349 367.773 47.6562 367.008C46.9635 366.242 46.6172 365.185 46.6172 363.836V363.641C46.6172 362.354 46.9609 361.326 47.6484 360.555C48.3359 359.779 49.2734 359.391 50.4609 359.391C51.4661 359.391 52.2839 359.685 52.9141 360.273C53.5495 360.857 53.8828 361.625 53.9141 362.578H52.125C52.1042 362.094 51.9375 361.695 51.625 361.383C51.3177 361.07 50.9245 360.914 50.4453 360.914C49.8307 360.914 49.3568 361.138 49.0234 361.586C48.6901 362.029 48.5208 362.703 48.5156 363.609V363.914C48.5156 364.831 48.6797 365.516 49.0078 365.969C49.3411 366.417 49.8203 366.641 50.4453 366.641ZM58.0938 364.375L57.25 365.242V368H55.3516V356H57.25V362.922L57.8438 362.18L60.1797 359.547H62.4609L59.3203 363.07L62.7969 368H60.6016L58.0938 364.375ZM68.7578 368C68.6745 367.839 68.6016 367.576 68.5391 367.211C67.9349 367.841 67.1953 368.156 66.3203 368.156C65.4714 368.156 64.7786 367.914 64.2422 367.43C63.7057 366.945 63.4375 366.346 63.4375 365.633C63.4375 364.732 63.7708 364.042 64.4375 363.562C65.1094 363.078 66.0677 362.836 67.3125 362.836H68.4766V362.281C68.4766 361.844 68.3542 361.495 68.1094 361.234C67.8646 360.969 67.4922 360.836 66.9922 360.836C66.5599 360.836 66.2057 360.945 65.9297 361.164C65.6536 361.378 65.5156 361.651 65.5156 361.984H63.6172C63.6172 361.521 63.7708 361.089 64.0781 360.688C64.3854 360.281 64.8021 359.964 65.3281 359.734C65.8594 359.505 66.4505 359.391 67.1016 359.391C68.0911 359.391 68.8802 359.641 69.4688 360.141C70.0573 360.635 70.3594 361.333 70.375 362.234V366.047C70.375 366.807 70.4818 367.414 70.6953 367.867V368H68.7578ZM66.6719 366.633C67.0469 366.633 67.3984 366.542 67.7266 366.359C68.0599 366.177 68.3099 365.932 68.4766 365.625V364.031H67.4531C66.75 364.031 66.2214 364.154 65.8672 364.398C65.513 364.643 65.3359 364.99 65.3359 365.438C65.3359 365.802 65.4557 366.094 65.6953 366.312C65.9401 366.526 66.2656 366.633 66.6719 366.633ZM72.0312 363.711C72.0312 362.398 72.3385 361.352 72.9531 360.57C73.5729 359.784 74.3932 359.391 75.4141 359.391C76.3776 359.391 77.1354 359.727 77.6875 360.398L77.7734 359.547H79.4844V367.742C79.4844 368.852 79.138 369.727 78.4453 370.367C77.7578 371.008 76.8281 371.328 75.6562 371.328C75.0365 371.328 74.4297 371.198 73.8359 370.938C73.2474 370.682 72.7995 370.346 72.4922 369.93L73.3906 368.789C73.974 369.482 74.6927 369.828 75.5469 369.828C76.1771 369.828 76.6745 369.656 77.0391 369.312C77.4036 368.974 77.5859 368.474 77.5859 367.812V367.242C77.0391 367.852 76.3099 368.156 75.3984 368.156C74.4089 368.156 73.599 367.763 72.9688 366.977C72.3438 366.19 72.0312 365.102 72.0312 363.711ZM73.9219 363.875C73.9219 364.724 74.0938 365.393 74.4375 365.883C74.7865 366.367 75.2682 366.609 75.8828 366.609C76.6484 366.609 77.2161 366.281 77.5859 365.625V361.906C77.2266 361.266 76.6641 360.945 75.8984 360.945C75.2734 360.945 74.7865 361.193 74.4375 361.688C74.0938 362.182 73.9219 362.911 73.9219 363.875ZM85.1641 368.156C83.9609 368.156 82.9844 367.779 82.2344 367.023C81.4896 366.263 81.1172 365.253 81.1172 363.992V363.758C81.1172 362.914 81.2786 362.161 81.6016 361.5C81.9297 360.833 82.388 360.315 82.9766 359.945C83.5651 359.576 84.2214 359.391 84.9453 359.391C86.0964 359.391 86.9844 359.758 87.6094 360.492C88.2396 361.227 88.5547 362.266 88.5547 363.609V364.375H83.0312C83.0885 365.073 83.3203 365.625 83.7266 366.031C84.138 366.438 84.6536 366.641 85.2734 366.641C86.1432 366.641 86.8516 366.289 87.3984 365.586L88.4219 366.562C88.0833 367.068 87.6302 367.461 87.0625 367.742C86.5 368.018 85.8672 368.156 85.1641 368.156ZM84.9375 360.914C84.4167 360.914 83.9948 361.096 83.6719 361.461C83.3542 361.826 83.151 362.333 83.0625 362.984H86.6797V362.844C86.638 362.208 86.4688 361.729 86.1719 361.406C85.875 361.078 85.4635 360.914 84.9375 360.914Z" fill="#333333"/>
<path d="M10.2344 454.609C10.2344 455.724 10.0417 456.703 9.65625 457.547C9.27083 458.385 8.71875 459.031 8 459.484C7.28646 459.932 6.46354 460.156 5.53125 460.156C4.60938 460.156 3.78646 459.932 3.0625 459.484C2.34375 459.031 1.78646 458.388 1.39062 457.555C1 456.721 0.802083 455.76 0.796875 454.672V454.031C0.796875 452.922 0.992188 451.943 1.38281 451.094C1.77865 450.245 2.33333 449.596 3.04688 449.148C3.76562 448.695 4.58854 448.469 5.51562 448.469C6.44271 448.469 7.26302 448.693 7.97656 449.141C8.69531 449.583 9.25 450.224 9.64062 451.062C10.0312 451.896 10.2292 452.867 10.2344 453.977V454.609ZM8.25781 454.016C8.25781 452.755 8.01823 451.789 7.53906 451.117C7.0651 450.445 6.39062 450.109 5.51562 450.109C4.66146 450.109 3.99219 450.445 3.50781 451.117C3.02865 451.784 2.78385 452.729 2.77344 453.953V454.609C2.77344 455.859 3.01562 456.826 3.5 457.508C3.98958 458.19 4.66667 458.531 5.53125 458.531C6.40625 458.531 7.07812 458.198 7.54688 457.531C8.02083 456.865 8.25781 455.891 8.25781 454.609V454.016ZM19.4219 455.859C19.4219 457.167 19.125 458.211 18.5312 458.992C17.9375 459.768 17.1406 460.156 16.1406 460.156C15.2135 460.156 14.4714 459.852 13.9141 459.242V463.25H12.0156V451.547H13.7656L13.8438 452.406C14.401 451.729 15.1589 451.391 16.1172 451.391C17.1484 451.391 17.9557 451.776 18.5391 452.547C19.1276 453.312 19.4219 454.378 19.4219 455.742V455.859ZM17.5312 455.695C17.5312 454.852 17.362 454.182 17.0234 453.688C16.6901 453.193 16.2109 452.945 15.5859 452.945C14.8099 452.945 14.2526 453.266 13.9141 453.906V457.656C14.2578 458.312 14.8203 458.641 15.6016 458.641C16.2057 458.641 16.6771 458.398 17.0156 457.914C17.3594 457.424 17.5312 456.685 17.5312 455.695ZM24.7578 460.156C23.5547 460.156 22.5781 459.779 21.8281 459.023C21.0833 458.263 20.7109 457.253 20.7109 455.992V455.758C20.7109 454.914 20.8724 454.161 21.1953 453.5C21.5234 452.833 21.9818 452.315 22.5703 451.945C23.1589 451.576 23.8151 451.391 24.5391 451.391C25.6901 451.391 26.5781 451.758 27.2031 452.492C27.8333 453.227 28.1484 454.266 28.1484 455.609V456.375H22.625C22.6823 457.073 22.9141 457.625 23.3203 458.031C23.7318 458.438 24.2474 458.641 24.8672 458.641C25.737 458.641 26.4453 458.289 26.9922 457.586L28.0156 458.562C27.6771 459.068 27.224 459.461 26.6562 459.742C26.0938 460.018 25.4609 460.156 24.7578 460.156ZM24.5312 452.914C24.0104 452.914 23.5885 453.096 23.2656 453.461C22.9479 453.826 22.7448 454.333 22.6562 454.984H26.2734V454.844C26.2318 454.208 26.0625 453.729 25.7656 453.406C25.4688 453.078 25.0573 452.914 24.5312 452.914ZM31.3906 451.547L31.4453 452.523C32.0703 451.768 32.8906 451.391 33.9062 451.391C35.6667 451.391 36.5625 452.398 36.5938 454.414V460H34.6953V454.523C34.6953 453.987 34.5781 453.591 34.3438 453.336C34.1146 453.076 33.737 452.945 33.2109 452.945C32.4453 452.945 31.875 453.292 31.5 453.984V460H29.6016V451.547H31.3906ZM42.7031 460V448.625H46.0625C47.0677 448.625 47.9583 448.849 48.7344 449.297C49.5156 449.745 50.1198 450.38 50.5469 451.203C50.974 452.026 51.1875 452.969 51.1875 454.031V454.602C51.1875 455.68 50.9714 456.628 50.5391 457.445C50.112 458.263 49.5 458.893 48.7031 459.336C47.9115 459.779 47.0026 460 45.9766 460H42.7031ZM44.6797 450.219V458.422H45.9688C47.0052 458.422 47.7995 458.099 48.3516 457.453C48.9089 456.802 49.1927 455.87 49.2031 454.656V454.023C49.2031 452.789 48.9349 451.846 48.3984 451.195C47.862 450.544 47.0833 450.219 46.0625 450.219H44.6797ZM58.0234 460C57.9401 459.839 57.8672 459.576 57.8047 459.211C57.2005 459.841 56.4609 460.156 55.5859 460.156C54.737 460.156 54.0443 459.914 53.5078 459.43C52.9714 458.945 52.7031 458.346 52.7031 457.633C52.7031 456.732 53.0365 456.042 53.7031 455.562C54.375 455.078 55.3333 454.836 56.5781 454.836H57.7422V454.281C57.7422 453.844 57.6198 453.495 57.375 453.234C57.1302 452.969 56.7578 452.836 56.2578 452.836C55.8255 452.836 55.4714 452.945 55.1953 453.164C54.9193 453.378 54.7812 453.651 54.7812 453.984H52.8828C52.8828 453.521 53.0365 453.089 53.3438 452.688C53.651 452.281 54.0677 451.964 54.5938 451.734C55.125 451.505 55.7161 451.391 56.3672 451.391C57.3568 451.391 58.1458 451.641 58.7344 452.141C59.3229 452.635 59.625 453.333 59.6406 454.234V458.047C59.6406 458.807 59.7474 459.414 59.9609 459.867V460H58.0234ZM55.9375 458.633C56.3125 458.633 56.6641 458.542 56.9922 458.359C57.3255 458.177 57.5755 457.932 57.7422 457.625V456.031H56.7188C56.0156 456.031 55.487 456.154 55.1328 456.398C54.7786 456.643 54.6016 456.99 54.6016 457.438C54.6016 457.802 54.7214 458.094 54.9609 458.312C55.2057 458.526 55.5312 458.633 55.9375 458.633ZM64.0078 449.492V451.547H65.5V452.953H64.0078V457.672C64.0078 457.995 64.0703 458.229 64.1953 458.375C64.3255 458.516 64.5547 458.586 64.8828 458.586C65.1016 458.586 65.3229 458.56 65.5469 458.508V459.977C65.1146 460.096 64.6979 460.156 64.2969 460.156C62.8385 460.156 62.1094 459.352 62.1094 457.742V452.953H60.7188V451.547H62.1094V449.492H64.0078ZM70.6797 460.156C69.4766 460.156 68.5 459.779 67.75 459.023C67.0052 458.263 66.6328 457.253 66.6328 455.992V455.758C66.6328 454.914 66.7943 454.161 67.1172 453.5C67.4453 452.833 67.9036 452.315 68.4922 451.945C69.0807 451.576 69.737 451.391 70.4609 451.391C71.612 451.391 72.5 451.758 73.125 452.492C73.7552 453.227 74.0703 454.266 74.0703 455.609V456.375H68.5469C68.6042 457.073 68.8359 457.625 69.2422 458.031C69.6536 458.438 70.1693 458.641 70.7891 458.641C71.6589 458.641 72.3672 458.289 72.9141 457.586L73.9375 458.562C73.599 459.068 73.1458 459.461 72.5781 459.742C72.0156 460.018 71.3828 460.156 70.6797 460.156ZM70.4531 452.914C69.9323 452.914 69.5104 453.096 69.1875 453.461C68.8698 453.826 68.6667 454.333 68.5781 454.984H72.1953V454.844C72.1536 454.208 71.9844 453.729 71.6875 453.406C71.3906 453.078 70.9792 452.914 70.4531 452.914Z" fill="#333333"/>
<path d="M9.375 407.219H5.82812V417H3.86719V407.219H0.351562V405.625H9.375V407.219ZM14.6016 410.281C14.3516 410.24 14.0938 410.219 13.8281 410.219C12.9583 410.219 12.3724 410.552 12.0703 411.219V417H10.1719V408.547H11.9844L12.0312 409.492C12.4896 408.758 13.125 408.391 13.9375 408.391C14.2083 408.391 14.4323 408.427 14.6094 408.5L14.6016 410.281ZM20.6172 417C20.5339 416.839 20.4609 416.576 20.3984 416.211C19.7943 416.841 19.0547 417.156 18.1797 417.156C17.3307 417.156 16.638 416.914 16.1016 416.43C15.5651 415.945 15.2969 415.346 15.2969 414.633C15.2969 413.732 15.6302 413.042 16.2969 412.562C16.9688 412.078 17.9271 411.836 19.1719 411.836H20.3359V411.281C20.3359 410.844 20.2135 410.495 19.9688 410.234C19.724 409.969 19.3516 409.836 18.8516 409.836C18.4193 409.836 18.0651 409.945 17.7891 410.164C17.513 410.378 17.375 410.651 17.375 410.984H15.4766C15.4766 410.521 15.6302 410.089 15.9375 409.688C16.2448 409.281 16.6615 408.964 17.1875 408.734C17.7188 408.505 18.3099 408.391 18.9609 408.391C19.9505 408.391 20.7396 408.641 21.3281 409.141C21.9167 409.635 22.2188 410.333 22.2344 411.234V415.047C22.2344 415.807 22.3411 416.414 22.5547 416.867V417H20.6172ZM18.5312 415.633C18.9062 415.633 19.2578 415.542 19.5859 415.359C19.9193 415.177 20.1693 414.932 20.3359 414.625V413.031H19.3125C18.6094 413.031 18.0807 413.154 17.7266 413.398C17.3724 413.643 17.1953 413.99 17.1953 414.438C17.1953 414.802 17.3151 415.094 17.5547 415.312C17.7995 415.526 18.125 415.633 18.5312 415.633ZM23.8672 412.711C23.8672 411.409 24.1693 410.365 24.7734 409.578C25.3776 408.786 26.1875 408.391 27.2031 408.391C28.099 408.391 28.8229 408.703 29.375 409.328V405H31.2734V417H29.5547L29.4609 416.125C28.8932 416.812 28.1354 417.156 27.1875 417.156C26.1979 417.156 25.3958 416.758 24.7812 415.961C24.1719 415.164 23.8672 414.081 23.8672 412.711ZM25.7656 412.875C25.7656 413.734 25.9297 414.406 26.2578 414.891C26.5911 415.37 27.0625 415.609 27.6719 415.609C28.4479 415.609 29.0156 415.263 29.375 414.57V410.961C29.026 410.284 28.4635 409.945 27.6875 409.945C27.0729 409.945 26.599 410.19 26.2656 410.68C25.9323 411.164 25.7656 411.896 25.7656 412.875ZM36.9766 417.156C35.7734 417.156 34.7969 416.779 34.0469 416.023C33.3021 415.263 32.9297 414.253 32.9297 412.992V412.758C32.9297 411.914 33.0911 411.161 33.4141 410.5C33.7422 409.833 34.2005 409.315 34.7891 408.945C35.3776 408.576 36.0339 408.391 36.7578 408.391C37.9089 408.391 38.7969 408.758 39.4219 409.492C40.0521 410.227 40.3672 411.266 40.3672 412.609V413.375H34.8438C34.901 414.073 35.1328 414.625 35.5391 415.031C35.9505 415.438 36.4661 415.641 37.0859 415.641C37.9557 415.641 38.6641 415.289 39.2109 414.586L40.2344 415.562C39.8958 416.068 39.4427 416.461 38.875 416.742C38.3125 417.018 37.6797 417.156 36.9766 417.156ZM36.75 409.914C36.2292 409.914 35.8073 410.096 35.4844 410.461C35.1667 410.826 34.9635 411.333 34.875 411.984H38.4922V411.844C38.4505 411.208 38.2812 410.729 37.9844 410.406C37.6875 410.078 37.276 409.914 36.75 409.914ZM54.6953 413.297C54.5807 414.51 54.1328 415.458 53.3516 416.141C52.5703 416.818 51.5312 417.156 50.2344 417.156C49.3281 417.156 48.5286 416.943 47.8359 416.516C47.1484 416.083 46.6172 415.471 46.2422 414.68C45.8672 413.888 45.6719 412.969 45.6562 411.922V410.859C45.6562 409.786 45.8464 408.841 46.2266 408.023C46.6068 407.206 47.151 406.576 47.8594 406.133C48.5729 405.69 49.3958 405.469 50.3281 405.469C51.5833 405.469 52.5938 405.81 53.3594 406.492C54.125 407.174 54.5703 408.138 54.6953 409.383H52.7266C52.6328 408.565 52.3932 407.977 52.0078 407.617C51.6276 407.253 51.0677 407.07 50.3281 407.07C49.4688 407.07 48.8073 407.385 48.3438 408.016C47.8854 408.641 47.651 409.56 47.6406 410.773V411.781C47.6406 413.01 47.8594 413.948 48.2969 414.594C48.7396 415.24 49.3854 415.562 50.2344 415.562C51.0104 415.562 51.5938 415.388 51.9844 415.039C52.375 414.69 52.6224 414.109 52.7266 413.297H54.6953ZM55.9297 412.695C55.9297 411.867 56.0938 411.122 56.4219 410.461C56.75 409.794 57.2109 409.284 57.8047 408.93C58.3984 408.57 59.0807 408.391 59.8516 408.391C60.9922 408.391 61.9167 408.758 62.625 409.492C63.3385 410.227 63.724 411.201 63.7812 412.414L63.7891 412.859C63.7891 413.693 63.6276 414.438 63.3047 415.094C62.987 415.75 62.5286 416.258 61.9297 416.617C61.3359 416.977 60.6484 417.156 59.8672 417.156C58.6745 417.156 57.7188 416.76 57 415.969C56.2865 415.172 55.9297 414.112 55.9297 412.789V412.695ZM57.8281 412.859C57.8281 413.729 58.0078 414.411 58.3672 414.906C58.7266 415.396 59.2266 415.641 59.8672 415.641C60.5078 415.641 61.0052 415.391 61.3594 414.891C61.7188 414.391 61.8984 413.659 61.8984 412.695C61.8984 411.841 61.7135 411.164 61.3438 410.664C60.9792 410.164 60.4818 409.914 59.8516 409.914C59.2318 409.914 58.7396 410.161 58.375 410.656C58.0104 411.146 57.8281 411.88 57.8281 412.859ZM67.1562 408.547L67.2109 409.523C67.8359 408.768 68.6562 408.391 69.6719 408.391C71.4323 408.391 72.3281 409.398 72.3594 411.414V417H70.4609V411.523C70.4609 410.987 70.3438 410.591 70.1094 410.336C69.8802 410.076 69.5026 409.945 68.9766 409.945C68.2109 409.945 67.6406 410.292 67.2656 410.984V417H65.3672V408.547H67.1562ZM76.6797 406.492V408.547H78.1719V409.953H76.6797V414.672C76.6797 414.995 76.7422 415.229 76.8672 415.375C76.9974 415.516 77.2266 415.586 77.5547 415.586C77.7734 415.586 77.9948 415.56 78.2188 415.508V416.977C77.7865 417.096 77.3698 417.156 76.9688 417.156C75.5104 417.156 74.7812 416.352 74.7812 414.742V409.953H73.3906V408.547H74.7812V406.492H76.6797ZM84.6797 417C84.5964 416.839 84.5234 416.576 84.4609 416.211C83.8568 416.841 83.1172 417.156 82.2422 417.156C81.3932 417.156 80.7005 416.914 80.1641 416.43C79.6276 415.945 79.3594 415.346 79.3594 414.633C79.3594 413.732 79.6927 413.042 80.3594 412.562C81.0312 412.078 81.9896 411.836 83.2344 411.836H84.3984V411.281C84.3984 410.844 84.276 410.495 84.0312 410.234C83.7865 409.969 83.4141 409.836 82.9141 409.836C82.4818 409.836 82.1276 409.945 81.8516 410.164C81.5755 410.378 81.4375 410.651 81.4375 410.984H79.5391C79.5391 410.521 79.6927 410.089 80 409.688C80.3073 409.281 80.724 408.964 81.25 408.734C81.7812 408.505 82.3724 408.391 83.0234 408.391C84.013 408.391 84.8021 408.641 85.3906 409.141C85.9792 409.635 86.2812 410.333 86.2969 411.234V415.047C86.2969 415.807 86.4036 416.414 86.6172 416.867V417H84.6797ZM82.5938 415.633C82.9688 415.633 83.3203 415.542 83.6484 415.359C83.9818 415.177 84.2318 414.932 84.3984 414.625V413.031H83.375C82.6719 413.031 82.1432 413.154 81.7891 413.398C81.4349 413.643 81.2578 413.99 81.2578 414.438C81.2578 414.802 81.3776 415.094 81.6172 415.312C81.862 415.526 82.1875 415.633 82.5938 415.633ZM91.7578 415.641C92.2318 415.641 92.625 415.503 92.9375 415.227C93.25 414.951 93.4167 414.609 93.4375 414.203H95.2266C95.2057 414.729 95.0417 415.221 94.7344 415.68C94.4271 416.133 94.0104 416.492 93.4844 416.758C92.9583 417.023 92.3906 417.156 91.7812 417.156C90.599 417.156 89.6615 416.773 88.9688 416.008C88.276 415.242 87.9297 414.185 87.9297 412.836V412.641C87.9297 411.354 88.2734 410.326 88.9609 409.555C89.6484 408.779 90.5859 408.391 91.7734 408.391C92.7786 408.391 93.5964 408.685 94.2266 409.273C94.862 409.857 95.1953 410.625 95.2266 411.578H93.4375C93.4167 411.094 93.25 410.695 92.9375 410.383C92.6302 410.07 92.237 409.914 91.7578 409.914C91.1432 409.914 90.6693 410.138 90.3359 410.586C90.0026 411.029 89.8333 411.703 89.8281 412.609V412.914C89.8281 413.831 89.9922 414.516 90.3203 414.969C90.6536 415.417 91.1328 415.641 91.7578 415.641ZM99.0391 406.492V408.547H100.531V409.953H99.0391V414.672C99.0391 414.995 99.1016 415.229 99.2266 415.375C99.3568 415.516 99.5859 415.586 99.9141 415.586C100.133 415.586 100.354 415.56 100.578 415.508V416.977C100.146 417.096 99.7292 417.156 99.3281 417.156C97.8698 417.156 97.1406 416.352 97.1406 414.742V409.953H95.75V408.547H97.1406V406.492H99.0391Z" fill="#333333"/>
<path d="M1.15625 169V157.625H4.51562C5.52083 157.625 6.41146 157.849 7.1875 158.297C7.96875 158.745 8.57292 159.38 9 160.203C9.42708 161.026 9.64062 161.969 9.64062 163.031V163.602C9.64062 164.68 9.42448 165.628 8.99219 166.445C8.5651 167.263 7.95312 167.893 7.15625 168.336C6.36458 168.779 5.45573 169 4.42969 169H1.15625ZM3.13281 159.219V167.422H4.42188C5.45833 167.422 6.2526 167.099 6.80469 166.453C7.36198 165.802 7.64583 164.87 7.65625 163.656V163.023C7.65625 161.789 7.38802 160.846 6.85156 160.195C6.3151 159.544 5.53646 159.219 4.51562 159.219H3.13281ZM16.5469 168.172C15.9896 168.828 15.1979 169.156 14.1719 169.156C13.2552 169.156 12.5599 168.888 12.0859 168.352C11.6172 167.815 11.3828 167.039 11.3828 166.023V160.547H13.2812V166C13.2812 167.073 13.7266 167.609 14.6172 167.609C15.5391 167.609 16.1615 167.279 16.4844 166.617V160.547H18.3828V169H16.5938L16.5469 168.172ZM24.0391 169.156C22.8359 169.156 21.8594 168.779 21.1094 168.023C20.3646 167.263 19.9922 166.253 19.9922 164.992V164.758C19.9922 163.914 20.1536 163.161 20.4766 162.5C20.8047 161.833 21.263 161.315 21.8516 160.945C22.4401 160.576 23.0964 160.391 23.8203 160.391C24.9714 160.391 25.8594 160.758 26.4844 161.492C27.1146 162.227 27.4297 163.266 27.4297 164.609V165.375H21.9062C21.9635 166.073 22.1953 166.625 22.6016 167.031C23.013 167.438 23.5286 167.641 24.1484 167.641C25.0182 167.641 25.7266 167.289 26.2734 166.586L27.2969 167.562C26.9583 168.068 26.5052 168.461 25.9375 168.742C25.375 169.018 24.7422 169.156 24.0391 169.156ZM23.8125 161.914C23.2917 161.914 22.8698 162.096 22.5469 162.461C22.2292 162.826 22.026 163.333 21.9375 163.984H25.5547V163.844C25.513 163.208 25.3438 162.729 25.0469 162.406C24.75 162.078 24.3385 161.914 23.8125 161.914ZM33.0781 169V157.625H36.4375C37.4427 157.625 38.3333 157.849 39.1094 158.297C39.8906 158.745 40.4948 159.38 40.9219 160.203C41.349 161.026 41.5625 161.969 41.5625 163.031V163.602C41.5625 164.68 41.3464 165.628 40.9141 166.445C40.487 167.263 39.875 167.893 39.0781 168.336C38.2865 168.779 37.3776 169 36.3516 169H33.0781ZM35.0547 159.219V167.422H36.3438C37.3802 167.422 38.1745 167.099 38.7266 166.453C39.2839 165.802 39.5677 164.87 39.5781 163.656V163.023C39.5781 161.789 39.3099 160.846 38.7734 160.195C38.237 159.544 37.4583 159.219 36.4375 159.219H35.0547ZM48.3984 169C48.3151 168.839 48.2422 168.576 48.1797 168.211C47.5755 168.841 46.8359 169.156 45.9609 169.156C45.112 169.156 44.4193 168.914 43.8828 168.43C43.3464 167.945 43.0781 167.346 43.0781 166.633C43.0781 165.732 43.4115 165.042 44.0781 164.562C44.75 164.078 45.7083 163.836 46.9531 163.836H48.1172V163.281C48.1172 162.844 47.9948 162.495 47.75 162.234C47.5052 161.969 47.1328 161.836 46.6328 161.836C46.2005 161.836 45.8464 161.945 45.5703 162.164C45.2943 162.378 45.1562 162.651 45.1562 162.984H43.2578C43.2578 162.521 43.4115 162.089 43.7188 161.688C44.026 161.281 44.4427 160.964 44.9688 160.734C45.5 160.505 46.0911 160.391 46.7422 160.391C47.7318 160.391 48.5208 160.641 49.1094 161.141C49.6979 161.635 50 162.333 50.0156 163.234V167.047C50.0156 167.807 50.1224 168.414 50.3359 168.867V169H48.3984ZM46.3125 167.633C46.6875 167.633 47.0391 167.542 47.3672 167.359C47.7005 167.177 47.9505 166.932 48.1172 166.625V165.031H47.0938C46.3906 165.031 45.862 165.154 45.5078 165.398C45.1536 165.643 44.9766 165.99 44.9766 166.438C44.9766 166.802 45.0964 167.094 45.3359 167.312C45.5807 167.526 45.9062 167.633 46.3125 167.633ZM54.3828 158.492V160.547H55.875V161.953H54.3828V166.672C54.3828 166.995 54.4453 167.229 54.5703 167.375C54.7005 167.516 54.9297 167.586 55.2578 167.586C55.4766 167.586 55.6979 167.56 55.9219 167.508V168.977C55.4896 169.096 55.0729 169.156 54.6719 169.156C53.2135 169.156 52.4844 168.352 52.4844 166.742V161.953H51.0938V160.547H52.4844V158.492H54.3828ZM61.0547 169.156C59.8516 169.156 58.875 168.779 58.125 168.023C57.3802 167.263 57.0078 166.253 57.0078 164.992V164.758C57.0078 163.914 57.1693 163.161 57.4922 162.5C57.8203 161.833 58.2786 161.315 58.8672 160.945C59.4557 160.576 60.112 160.391 60.8359 160.391C61.987 160.391 62.875 160.758 63.5 161.492C64.1302 162.227 64.4453 163.266 64.4453 164.609V165.375H58.9219C58.9792 166.073 59.2109 166.625 59.6172 167.031C60.0286 167.438 60.5443 167.641 61.1641 167.641C62.0339 167.641 62.7422 167.289 63.2891 166.586L64.3125 167.562C63.974 168.068 63.5208 168.461 62.9531 168.742C62.3906 169.018 61.7578 169.156 61.0547 169.156ZM60.8281 161.914C60.3073 161.914 59.8854 162.096 59.5625 162.461C59.2448 162.826 59.0417 163.333 58.9531 163.984H62.5703V163.844C62.5286 163.208 62.3594 162.729 62.0625 162.406C61.7656 162.078 61.3542 161.914 60.8281 161.914Z" fill="#333333"/>
<path d="M475.551 25H466.946V23.5322L471.209 18.8828C471.824 18.1973 472.261 17.626 472.519 17.1689C472.782 16.7061 472.914 16.2432 472.914 15.7803C472.914 15.1709 472.741 14.6787 472.396 14.3037C472.056 13.9287 471.596 13.7412 471.016 13.7412C470.324 13.7412 469.788 13.9521 469.407 14.374C469.026 14.7959 468.836 15.373 468.836 16.1055H466.7C466.7 15.3262 466.876 14.626 467.228 14.0049C467.585 13.3779 468.092 12.8916 468.748 12.5459C469.41 12.2002 470.172 12.0273 471.033 12.0273C472.275 12.0273 473.254 12.3408 473.969 12.9678C474.689 13.5889 475.05 14.4502 475.05 15.5518C475.05 16.1904 474.868 16.8613 474.505 17.5645C474.147 18.2617 473.559 19.0557 472.738 19.9463L469.609 23.2949H475.551V25ZM477.748 18.6543L478.442 12.2031H485.315V14.0488H480.218L479.866 17.1074C480.458 16.7676 481.126 16.5977 481.87 16.5977C483.089 16.5977 484.035 16.9873 484.709 17.7666C485.389 18.5459 485.729 19.5947 485.729 20.9131C485.729 22.2139 485.354 23.251 484.604 24.0244C483.854 24.792 482.825 25.1758 481.519 25.1758C480.347 25.1758 479.374 24.8447 478.601 24.1826C477.833 23.5146 477.417 22.6357 477.353 21.5459H479.418C479.5 22.167 479.723 22.6445 480.086 22.9785C480.449 23.3066 480.924 23.4707 481.51 23.4707C482.166 23.4707 482.676 23.2363 483.039 22.7676C483.408 22.2988 483.593 21.6602 483.593 20.8516C483.593 20.0723 483.391 19.457 482.986 19.0059C482.582 18.5488 482.025 18.3203 481.316 18.3203C480.93 18.3203 480.602 18.373 480.332 18.4785C480.062 18.5781 479.77 18.7773 479.453 19.0762L477.748 18.6543Z" fill="#3447D3"/>
<path d="M487.832 25.9766H486.59L491.34 13.625H492.574L487.832 25.9766ZM501.441 25H493.988V23.9609L497.926 19.5859C498.509 18.9245 498.91 18.388 499.129 17.9766C499.353 17.5599 499.465 17.1302 499.465 16.6875C499.465 16.0938 499.285 15.6068 498.926 15.2266C498.566 14.8464 498.087 14.6562 497.488 14.6562C496.77 14.6562 496.21 14.862 495.809 15.2734C495.413 15.6797 495.215 16.2474 495.215 16.9766H493.77C493.77 15.9297 494.105 15.0833 494.777 14.4375C495.454 13.7917 496.358 13.4688 497.488 13.4688C498.546 13.4688 499.382 13.7474 499.996 14.3047C500.611 14.8568 500.918 15.5938 500.918 16.5156C500.918 17.6354 500.204 18.9688 498.777 20.5156L495.73 23.8203H501.441V25ZM503.637 19.2969L504.215 13.625H510.043V14.9609H505.441L505.098 18.0625C505.655 17.7344 506.288 17.5703 506.996 17.5703C508.033 17.5703 508.855 17.9141 509.465 18.6016C510.074 19.2839 510.379 20.2083 510.379 21.375C510.379 22.5469 510.061 23.4714 509.426 24.1484C508.796 24.8203 507.913 25.1562 506.777 25.1562C505.772 25.1562 504.952 24.8776 504.316 24.3203C503.681 23.763 503.319 22.9922 503.23 22.0078H504.598C504.686 22.6589 504.918 23.151 505.293 23.4844C505.668 23.8125 506.163 23.9766 506.777 23.9766C507.449 23.9766 507.975 23.7474 508.355 23.2891C508.741 22.8307 508.934 22.1979 508.934 21.3906C508.934 20.6302 508.725 20.0208 508.309 19.5625C507.897 19.099 507.348 18.8672 506.66 18.8672C506.03 18.8672 505.535 19.0052 505.176 19.2812L504.793 19.5938L503.637 19.2969Z" fill="#333333"/>
<path d="M475.551 74H466.946V72.5322L471.209 67.8828C471.824 67.1973 472.261 66.626 472.519 66.1689C472.782 65.7061 472.914 65.2432 472.914 64.7803C472.914 64.1709 472.741 63.6787 472.396 63.3037C472.056 62.9287 471.596 62.7412 471.016 62.7412C470.324 62.7412 469.788 62.9521 469.407 63.374C469.026 63.7959 468.836 64.373 468.836 65.1055H466.7C466.7 64.3262 466.876 63.626 467.228 63.0049C467.585 62.3779 468.092 61.8916 468.748 61.5459C469.41 61.2002 470.172 61.0273 471.033 61.0273C472.275 61.0273 473.254 61.3408 473.969 61.9678C474.689 62.5889 475.05 63.4502 475.05 64.5518C475.05 65.1904 474.868 65.8613 474.505 66.5645C474.147 67.2617 473.559 68.0557 472.738 68.9463L469.609 72.2949H475.551V74ZM477.748 67.6543L478.442 61.2031H485.315V63.0488H480.218L479.866 66.1074C480.458 65.7676 481.126 65.5977 481.87 65.5977C483.089 65.5977 484.035 65.9873 484.709 66.7666C485.389 67.5459 485.729 68.5947 485.729 69.9131C485.729 71.2139 485.354 72.251 484.604 73.0244C483.854 73.792 482.825 74.1758 481.519 74.1758C480.347 74.1758 479.374 73.8447 478.601 73.1826C477.833 72.5146 477.417 71.6357 477.353 70.5459H479.418C479.5 71.167 479.723 71.6445 480.086 71.9785C480.449 72.3066 480.924 72.4707 481.51 72.4707C482.166 72.4707 482.676 72.2363 483.039 71.7676C483.408 71.2988 483.593 70.6602 483.593 69.8516C483.593 69.0723 483.391 68.457 482.986 68.0059C482.582 67.5488 482.025 67.3203 481.316 67.3203C480.93 67.3203 480.602 67.373 480.332 67.4785C480.062 67.5781 479.77 67.7773 479.453 68.0762L477.748 67.6543Z" fill="#3447D3"/>
<path d="M487.832 74.9766H486.59L491.34 62.625H492.574L487.832 74.9766ZM501.441 74H493.988V72.9609L497.926 68.5859C498.509 67.9245 498.91 67.388 499.129 66.9766C499.353 66.5599 499.465 66.1302 499.465 65.6875C499.465 65.0938 499.285 64.6068 498.926 64.2266C498.566 63.8464 498.087 63.6562 497.488 63.6562C496.77 63.6562 496.21 63.862 495.809 64.2734C495.413 64.6797 495.215 65.2474 495.215 65.9766H493.77C493.77 64.9297 494.105 64.0833 494.777 63.4375C495.454 62.7917 496.358 62.4688 497.488 62.4688C498.546 62.4688 499.382 62.7474 499.996 63.3047C500.611 63.8568 500.918 64.5938 500.918 65.5156C500.918 66.6354 500.204 67.9688 498.777 69.5156L495.73 72.8203H501.441V74ZM503.637 68.2969L504.215 62.625H510.043V63.9609H505.441L505.098 67.0625C505.655 66.7344 506.288 66.5703 506.996 66.5703C508.033 66.5703 508.855 66.9141 509.465 67.6016C510.074 68.2839 510.379 69.2083 510.379 70.375C510.379 71.5469 510.061 72.4714 509.426 73.1484C508.796 73.8203 507.913 74.1562 506.777 74.1562C505.772 74.1562 504.952 73.8776 504.316 73.3203C503.681 72.763 503.319 71.9922 503.23 71.0078H504.598C504.686 71.6589 504.918 72.151 505.293 72.4844C505.668 72.8125 506.163 72.9766 506.777 72.9766C507.449 72.9766 507.975 72.7474 508.355 72.2891C508.741 71.8307 508.934 71.1979 508.934 70.3906C508.934 69.6302 508.725 69.0208 508.309 68.5625C507.897 68.099 507.348 67.8672 506.66 67.8672C506.03 67.8672 505.535 68.0052 505.176 68.2812L504.793 68.5938L503.637 68.2969Z" fill="#333333"/>
<path d="M475.551 123H466.946V121.532L471.209 116.883C471.824 116.197 472.261 115.626 472.519 115.169C472.782 114.706 472.914 114.243 472.914 113.78C472.914 113.171 472.741 112.679 472.396 112.304C472.056 111.929 471.596 111.741 471.016 111.741C470.324 111.741 469.788 111.952 469.407 112.374C469.026 112.796 468.836 113.373 468.836 114.105H466.7C466.7 113.326 466.876 112.626 467.228 112.005C467.585 111.378 468.092 110.892 468.748 110.546C469.41 110.2 470.172 110.027 471.033 110.027C472.275 110.027 473.254 110.341 473.969 110.968C474.689 111.589 475.05 112.45 475.05 113.552C475.05 114.19 474.868 114.861 474.505 115.564C474.147 116.262 473.559 117.056 472.738 117.946L469.609 121.295H475.551V123ZM477.748 116.654L478.442 110.203H485.315V112.049H480.218L479.866 115.107C480.458 114.768 481.126 114.598 481.87 114.598C483.089 114.598 484.035 114.987 484.709 115.767C485.389 116.546 485.729 117.595 485.729 118.913C485.729 120.214 485.354 121.251 484.604 122.024C483.854 122.792 482.825 123.176 481.519 123.176C480.347 123.176 479.374 122.845 478.601 122.183C477.833 121.515 477.417 120.636 477.353 119.546H479.418C479.5 120.167 479.723 120.645 480.086 120.979C480.449 121.307 480.924 121.471 481.51 121.471C482.166 121.471 482.676 121.236 483.039 120.768C483.408 120.299 483.593 119.66 483.593 118.852C483.593 118.072 483.391 117.457 482.986 117.006C482.582 116.549 482.025 116.32 481.316 116.32C480.93 116.32 480.602 116.373 480.332 116.479C480.062 116.578 479.77 116.777 479.453 117.076L477.748 116.654Z" fill="#3447D3"/>
<path d="M487.832 123.977H486.59L491.34 111.625H492.574L487.832 123.977ZM501.441 123H493.988V121.961L497.926 117.586C498.509 116.924 498.91 116.388 499.129 115.977C499.353 115.56 499.465 115.13 499.465 114.688C499.465 114.094 499.285 113.607 498.926 113.227C498.566 112.846 498.087 112.656 497.488 112.656C496.77 112.656 496.21 112.862 495.809 113.273C495.413 113.68 495.215 114.247 495.215 114.977H493.77C493.77 113.93 494.105 113.083 494.777 112.438C495.454 111.792 496.358 111.469 497.488 111.469C498.546 111.469 499.382 111.747 499.996 112.305C500.611 112.857 500.918 113.594 500.918 114.516C500.918 115.635 500.204 116.969 498.777 118.516L495.73 121.82H501.441V123ZM503.637 117.297L504.215 111.625H510.043V112.961H505.441L505.098 116.062C505.655 115.734 506.288 115.57 506.996 115.57C508.033 115.57 508.855 115.914 509.465 116.602C510.074 117.284 510.379 118.208 510.379 119.375C510.379 120.547 510.061 121.471 509.426 122.148C508.796 122.82 507.913 123.156 506.777 123.156C505.772 123.156 504.952 122.878 504.316 122.32C503.681 121.763 503.319 120.992 503.23 120.008H504.598C504.686 120.659 504.918 121.151 505.293 121.484C505.668 121.812 506.163 121.977 506.777 121.977C507.449 121.977 507.975 121.747 508.355 121.289C508.741 120.831 508.934 120.198 508.934 119.391C508.934 118.63 508.725 118.021 508.309 117.562C507.897 117.099 507.348 116.867 506.66 116.867C506.03 116.867 505.535 117.005 505.176 117.281L504.793 117.594L503.637 117.297Z" fill="#333333"/>
<path d="M475.551 172H466.946V170.532L471.209 165.883C471.824 165.197 472.261 164.626 472.519 164.169C472.782 163.706 472.914 163.243 472.914 162.78C472.914 162.171 472.741 161.679 472.396 161.304C472.056 160.929 471.596 160.741 471.016 160.741C470.324 160.741 469.788 160.952 469.407 161.374C469.026 161.796 468.836 162.373 468.836 163.105H466.7C466.7 162.326 466.876 161.626 467.228 161.005C467.585 160.378 468.092 159.892 468.748 159.546C469.41 159.2 470.172 159.027 471.033 159.027C472.275 159.027 473.254 159.341 473.969 159.968C474.689 160.589 475.05 161.45 475.05 162.552C475.05 163.19 474.868 163.861 474.505 164.564C474.147 165.262 473.559 166.056 472.738 166.946L469.609 170.295H475.551V172ZM477.748 165.654L478.442 159.203H485.315V161.049H480.218L479.866 164.107C480.458 163.768 481.126 163.598 481.87 163.598C483.089 163.598 484.035 163.987 484.709 164.767C485.389 165.546 485.729 166.595 485.729 167.913C485.729 169.214 485.354 170.251 484.604 171.024C483.854 171.792 482.825 172.176 481.519 172.176C480.347 172.176 479.374 171.845 478.601 171.183C477.833 170.515 477.417 169.636 477.353 168.546H479.418C479.5 169.167 479.723 169.645 480.086 169.979C480.449 170.307 480.924 170.471 481.51 170.471C482.166 170.471 482.676 170.236 483.039 169.768C483.408 169.299 483.593 168.66 483.593 167.852C483.593 167.072 483.391 166.457 482.986 166.006C482.582 165.549 482.025 165.32 481.316 165.32C480.93 165.32 480.602 165.373 480.332 165.479C480.062 165.578 479.77 165.777 479.453 166.076L477.748 165.654Z" fill="#3447D3"/>
<path d="M487.832 172.977H486.59L491.34 160.625H492.574L487.832 172.977ZM501.441 172H493.988V170.961L497.926 166.586C498.509 165.924 498.91 165.388 499.129 164.977C499.353 164.56 499.465 164.13 499.465 163.688C499.465 163.094 499.285 162.607 498.926 162.227C498.566 161.846 498.087 161.656 497.488 161.656C496.77 161.656 496.21 161.862 495.809 162.273C495.413 162.68 495.215 163.247 495.215 163.977H493.77C493.77 162.93 494.105 162.083 494.777 161.438C495.454 160.792 496.358 160.469 497.488 160.469C498.546 160.469 499.382 160.747 499.996 161.305C500.611 161.857 500.918 162.594 500.918 163.516C500.918 164.635 500.204 165.969 498.777 167.516L495.73 170.82H501.441V172ZM503.637 166.297L504.215 160.625H510.043V161.961H505.441L505.098 165.062C505.655 164.734 506.288 164.57 506.996 164.57C508.033 164.57 508.855 164.914 509.465 165.602C510.074 166.284 510.379 167.208 510.379 168.375C510.379 169.547 510.061 170.471 509.426 171.148C508.796 171.82 507.913 172.156 506.777 172.156C505.772 172.156 504.952 171.878 504.316 171.32C503.681 170.763 503.319 169.992 503.23 169.008H504.598C504.686 169.659 504.918 170.151 505.293 170.484C505.668 170.812 506.163 170.977 506.777 170.977C507.449 170.977 507.975 170.747 508.355 170.289C508.741 169.831 508.934 169.198 508.934 168.391C508.934 167.63 508.725 167.021 508.309 166.562C507.897 166.099 507.348 165.867 506.66 165.867C506.03 165.867 505.535 166.005 505.176 166.281L504.793 166.594L503.637 166.297Z" fill="#333333"/>
<path d="M475.551 221H466.946V219.532L471.209 214.883C471.824 214.197 472.261 213.626 472.519 213.169C472.782 212.706 472.914 212.243 472.914 211.78C472.914 211.171 472.741 210.679 472.396 210.304C472.056 209.929 471.596 209.741 471.016 209.741C470.324 209.741 469.788 209.952 469.407 210.374C469.026 210.796 468.836 211.373 468.836 212.105H466.7C466.7 211.326 466.876 210.626 467.228 210.005C467.585 209.378 468.092 208.892 468.748 208.546C469.41 208.2 470.172 208.027 471.033 208.027C472.275 208.027 473.254 208.341 473.969 208.968C474.689 209.589 475.05 210.45 475.05 211.552C475.05 212.19 474.868 212.861 474.505 213.564C474.147 214.262 473.559 215.056 472.738 215.946L469.609 219.295H475.551V221ZM479.646 213.626H480.947C481.604 213.62 482.122 213.45 482.503 213.116C482.89 212.782 483.083 212.299 483.083 211.666C483.083 211.057 482.922 210.585 482.6 210.251C482.283 209.911 481.797 209.741 481.141 209.741C480.566 209.741 480.095 209.908 479.726 210.242C479.356 210.57 479.172 211.001 479.172 211.534H477.036C477.036 210.878 477.209 210.28 477.555 209.741C477.906 209.202 478.393 208.783 479.014 208.484C479.641 208.18 480.341 208.027 481.114 208.027C482.392 208.027 483.394 208.35 484.12 208.994C484.853 209.633 485.219 210.523 485.219 211.666C485.219 212.24 485.034 212.782 484.665 213.292C484.302 213.796 483.83 214.177 483.25 214.435C483.953 214.675 484.486 215.053 484.85 215.568C485.219 216.084 485.403 216.699 485.403 217.414C485.403 218.562 485.008 219.477 484.217 220.156C483.432 220.836 482.397 221.176 481.114 221.176C479.884 221.176 478.876 220.848 478.091 220.191C477.306 219.535 476.913 218.662 476.913 217.572H479.049C479.049 218.135 479.236 218.592 479.611 218.943C479.992 219.295 480.502 219.471 481.141 219.471C481.803 219.471 482.324 219.295 482.705 218.943C483.086 218.592 483.276 218.082 483.276 217.414C483.276 216.74 483.077 216.222 482.679 215.858C482.28 215.495 481.688 215.313 480.903 215.313H479.646V213.626Z" fill="#3447D3"/>
<path d="M487.832 221.977H486.59L491.34 209.625H492.574L487.832 221.977ZM501.441 221H493.988V219.961L497.926 215.586C498.509 214.924 498.91 214.388 499.129 213.977C499.353 213.56 499.465 213.13 499.465 212.688C499.465 212.094 499.285 211.607 498.926 211.227C498.566 210.846 498.087 210.656 497.488 210.656C496.77 210.656 496.21 210.862 495.809 211.273C495.413 211.68 495.215 212.247 495.215 212.977H493.77C493.77 211.93 494.105 211.083 494.777 210.438C495.454 209.792 496.358 209.469 497.488 209.469C498.546 209.469 499.382 209.747 499.996 210.305C500.611 210.857 500.918 211.594 500.918 212.516C500.918 213.635 500.204 214.969 498.777 216.516L495.73 219.82H501.441V221ZM503.637 215.297L504.215 209.625H510.043V210.961H505.441L505.098 214.062C505.655 213.734 506.288 213.57 506.996 213.57C508.033 213.57 508.855 213.914 509.465 214.602C510.074 215.284 510.379 216.208 510.379 217.375C510.379 218.547 510.061 219.471 509.426 220.148C508.796 220.82 507.913 221.156 506.777 221.156C505.772 221.156 504.952 220.878 504.316 220.32C503.681 219.763 503.319 218.992 503.23 218.008H504.598C504.686 218.659 504.918 219.151 505.293 219.484C505.668 219.812 506.163 219.977 506.777 219.977C507.449 219.977 507.975 219.747 508.355 219.289C508.741 218.831 508.934 218.198 508.934 217.391C508.934 216.63 508.725 216.021 508.309 215.562C507.897 215.099 507.348 214.867 506.66 214.867C506.03 214.867 505.535 215.005 505.176 215.281L504.793 215.594L503.637 215.297Z" fill="#333333"/>
<path d="M472.729 268H470.603V257.726L467.465 258.798V256.996L472.457 255.159H472.729V268ZM485.781 268H477.177V266.532L481.439 261.883C482.055 261.197 482.491 260.626 482.749 260.169C483.013 259.706 483.145 259.243 483.145 258.78C483.145 258.171 482.972 257.679 482.626 257.304C482.286 256.929 481.826 256.741 481.246 256.741C480.555 256.741 480.019 256.952 479.638 257.374C479.257 257.796 479.066 258.373 479.066 259.105H476.931C476.931 258.326 477.106 257.626 477.458 257.005C477.815 256.378 478.322 255.892 478.979 255.546C479.641 255.2 480.402 255.027 481.264 255.027C482.506 255.027 483.484 255.341 484.199 255.968C484.92 256.589 485.28 257.45 485.28 258.552C485.28 259.19 485.099 259.861 484.735 260.564C484.378 261.262 483.789 262.056 482.969 262.946L479.84 266.295H485.781V268Z" fill="#3447D3"/>
<path d="M487.832 268.977H486.59L491.34 256.625H492.574L487.832 268.977ZM501.441 268H493.988V266.961L497.926 262.586C498.509 261.924 498.91 261.388 499.129 260.977C499.353 260.56 499.465 260.13 499.465 259.688C499.465 259.094 499.285 258.607 498.926 258.227C498.566 257.846 498.087 257.656 497.488 257.656C496.77 257.656 496.21 257.862 495.809 258.273C495.413 258.68 495.215 259.247 495.215 259.977H493.77C493.77 258.93 494.105 258.083 494.777 257.438C495.454 256.792 496.358 256.469 497.488 256.469C498.546 256.469 499.382 256.747 499.996 257.305C500.611 257.857 500.918 258.594 500.918 259.516C500.918 260.635 500.204 261.969 498.777 263.516L495.73 266.82H501.441V268ZM503.637 262.297L504.215 256.625H510.043V257.961H505.441L505.098 261.062C505.655 260.734 506.288 260.57 506.996 260.57C508.033 260.57 508.855 260.914 509.465 261.602C510.074 262.284 510.379 263.208 510.379 264.375C510.379 265.547 510.061 266.471 509.426 267.148C508.796 267.82 507.913 268.156 506.777 268.156C505.772 268.156 504.952 267.878 504.316 267.32C503.681 266.763 503.319 265.992 503.23 265.008H504.598C504.686 265.659 504.918 266.151 505.293 266.484C505.668 266.812 506.163 266.977 506.777 266.977C507.449 266.977 507.975 266.747 508.355 266.289C508.741 265.831 508.934 265.198 508.934 264.391C508.934 263.63 508.725 263.021 508.309 262.562C507.897 262.099 507.348 261.867 506.66 261.867C506.03 261.867 505.535 262.005 505.176 262.281L504.793 262.594L503.637 262.297Z" fill="#333333"/>
<path d="M480.121 307.578C480.121 308.205 479.96 308.765 479.638 309.257C479.315 309.743 478.876 310.127 478.319 310.408C478.987 310.719 479.5 311.144 479.857 311.683C480.221 312.222 480.402 312.831 480.402 313.511C480.402 314.636 480.021 315.529 479.26 316.191C478.498 316.848 477.484 317.176 476.219 317.176C474.947 317.176 473.928 316.845 473.16 316.183C472.398 315.521 472.018 314.63 472.018 313.511C472.018 312.825 472.199 312.21 472.562 311.665C472.926 311.12 473.436 310.701 474.092 310.408C473.541 310.127 473.104 309.743 472.782 309.257C472.466 308.765 472.308 308.205 472.308 307.578C472.308 306.488 472.659 305.624 473.362 304.985C474.065 304.347 475.015 304.027 476.21 304.027C477.411 304.027 478.363 304.347 479.066 304.985C479.77 305.624 480.121 306.488 480.121 307.578ZM478.267 313.405C478.267 312.772 478.076 312.263 477.695 311.876C477.32 311.483 476.822 311.287 476.201 311.287C475.58 311.287 475.082 311.48 474.707 311.867C474.338 312.254 474.153 312.767 474.153 313.405C474.153 314.032 474.335 314.533 474.698 314.908C475.067 315.283 475.574 315.471 476.219 315.471C476.863 315.471 477.364 315.289 477.722 314.926C478.085 314.562 478.267 314.056 478.267 313.405ZM477.994 307.657C477.994 307.101 477.833 306.644 477.511 306.286C477.188 305.923 476.755 305.741 476.21 305.741C475.665 305.741 475.234 305.914 474.918 306.26C474.602 306.6 474.443 307.065 474.443 307.657C474.443 308.243 474.602 308.709 474.918 309.055C475.24 309.4 475.674 309.573 476.219 309.573C476.764 309.573 477.194 309.4 477.511 309.055C477.833 308.709 477.994 308.243 477.994 307.657Z" fill="#3447D3"/>
<path d="M482.717 317.977H481.475L486.225 305.625H487.459L482.717 317.977ZM496.326 317H488.873V315.961L492.811 311.586C493.394 310.924 493.795 310.388 494.014 309.977C494.238 309.56 494.35 309.13 494.35 308.688C494.35 308.094 494.17 307.607 493.811 307.227C493.451 306.846 492.972 306.656 492.373 306.656C491.654 306.656 491.094 306.862 490.693 307.273C490.298 307.68 490.1 308.247 490.1 308.977H488.654C488.654 307.93 488.99 307.083 489.662 306.438C490.339 305.792 491.243 305.469 492.373 305.469C493.43 305.469 494.266 305.747 494.881 306.305C495.495 306.857 495.803 307.594 495.803 308.516C495.803 309.635 495.089 310.969 493.662 312.516L490.615 315.82H496.326V317ZM498.521 311.297L499.1 305.625H504.928V306.961H500.326L499.982 310.062C500.54 309.734 501.173 309.57 501.881 309.57C502.917 309.57 503.74 309.914 504.35 310.602C504.959 311.284 505.264 312.208 505.264 313.375C505.264 314.547 504.946 315.471 504.311 316.148C503.68 316.82 502.798 317.156 501.662 317.156C500.657 317.156 499.837 316.878 499.201 316.32C498.566 315.763 498.204 314.992 498.115 314.008H499.482C499.571 314.659 499.803 315.151 500.178 315.484C500.553 315.812 501.048 315.977 501.662 315.977C502.334 315.977 502.86 315.747 503.24 315.289C503.626 314.831 503.818 314.198 503.818 313.391C503.818 312.63 503.61 312.021 503.193 311.562C502.782 311.099 502.232 310.867 501.545 310.867C500.915 310.867 500.42 311.005 500.061 311.281L499.678 311.594L498.521 311.297Z" fill="#333333"/>
<path d="M478.706 347.142V348.908H478.442C477.247 348.926 476.292 349.254 475.577 349.893C474.862 350.531 474.438 351.437 474.303 352.608C474.988 351.888 475.864 351.527 476.931 351.527C478.062 351.527 478.952 351.926 479.603 352.723C480.259 353.52 480.587 354.548 480.587 355.808C480.587 357.108 480.203 358.163 479.436 358.972C478.674 359.774 477.672 360.176 476.43 360.176C475.152 360.176 474.115 359.704 473.318 358.761C472.527 357.817 472.132 356.581 472.132 355.052V354.322C472.132 352.078 472.677 350.32 473.767 349.049C474.862 347.777 476.436 347.142 478.486 347.142H478.706ZM476.412 353.25C475.943 353.25 475.513 353.382 475.12 353.646C474.733 353.909 474.449 354.261 474.268 354.7V355.351C474.268 356.3 474.467 357.056 474.865 357.618C475.264 358.175 475.779 358.453 476.412 358.453C477.045 358.453 477.546 358.216 477.915 357.741C478.284 357.267 478.469 356.643 478.469 355.869C478.469 355.096 478.281 354.466 477.906 353.979C477.531 353.493 477.033 353.25 476.412 353.25Z" fill="#3447D3"/>
<path d="M482.717 360.977H481.475L486.225 348.625H487.459L482.717 360.977ZM496.326 360H488.873V358.961L492.811 354.586C493.394 353.924 493.795 353.388 494.014 352.977C494.238 352.56 494.35 352.13 494.35 351.688C494.35 351.094 494.17 350.607 493.811 350.227C493.451 349.846 492.972 349.656 492.373 349.656C491.654 349.656 491.094 349.862 490.693 350.273C490.298 350.68 490.1 351.247 490.1 351.977H488.654C488.654 350.93 488.99 350.083 489.662 349.438C490.339 348.792 491.243 348.469 492.373 348.469C493.43 348.469 494.266 348.747 494.881 349.305C495.495 349.857 495.803 350.594 495.803 351.516C495.803 352.635 495.089 353.969 493.662 355.516L490.615 358.82H496.326V360ZM498.521 354.297L499.1 348.625H504.928V349.961H500.326L499.982 353.062C500.54 352.734 501.173 352.57 501.881 352.57C502.917 352.57 503.74 352.914 504.35 353.602C504.959 354.284 505.264 355.208 505.264 356.375C505.264 357.547 504.946 358.471 504.311 359.148C503.68 359.82 502.798 360.156 501.662 360.156C500.657 360.156 499.837 359.878 499.201 359.32C498.566 358.763 498.204 357.992 498.115 357.008H499.482C499.571 357.659 499.803 358.151 500.178 358.484C500.553 358.812 501.048 358.977 501.662 358.977C502.334 358.977 502.86 358.747 503.24 358.289C503.626 357.831 503.818 357.198 503.818 356.391C503.818 355.63 503.61 355.021 503.193 354.562C502.782 354.099 502.232 353.867 501.545 353.867C500.915 353.867 500.42 354.005 500.061 354.281L499.678 354.594L498.521 354.297Z" fill="#333333"/>
<path d="M474.531 407.626H475.832C476.488 407.62 477.007 407.45 477.388 407.116C477.774 406.782 477.968 406.299 477.968 405.666C477.968 405.057 477.807 404.585 477.484 404.251C477.168 403.911 476.682 403.741 476.025 403.741C475.451 403.741 474.979 403.908 474.61 404.242C474.241 404.57 474.057 405.001 474.057 405.534H471.921C471.921 404.878 472.094 404.28 472.439 403.741C472.791 403.202 473.277 402.783 473.898 402.484C474.525 402.18 475.226 402.027 475.999 402.027C477.276 402.027 478.278 402.35 479.005 402.994C479.737 403.633 480.104 404.523 480.104 405.666C480.104 406.24 479.919 406.782 479.55 407.292C479.187 407.796 478.715 408.177 478.135 408.435C478.838 408.675 479.371 409.053 479.734 409.568C480.104 410.084 480.288 410.699 480.288 411.414C480.288 412.562 479.893 413.477 479.102 414.156C478.316 414.836 477.282 415.176 475.999 415.176C474.769 415.176 473.761 414.848 472.976 414.191C472.19 413.535 471.798 412.662 471.798 411.572H473.934C473.934 412.135 474.121 412.592 474.496 412.943C474.877 413.295 475.387 413.471 476.025 413.471C476.688 413.471 477.209 413.295 477.59 412.943C477.971 412.592 478.161 412.082 478.161 411.414C478.161 410.74 477.962 410.222 477.563 409.858C477.165 409.495 476.573 409.313 475.788 409.313H474.531V407.626Z" fill="#3447D3"/>
<path d="M482.717 415.977H481.475L486.225 403.625H487.459L482.717 415.977ZM496.326 415H488.873V413.961L492.811 409.586C493.394 408.924 493.795 408.388 494.014 407.977C494.238 407.56 494.35 407.13 494.35 406.688C494.35 406.094 494.17 405.607 493.811 405.227C493.451 404.846 492.972 404.656 492.373 404.656C491.654 404.656 491.094 404.862 490.693 405.273C490.298 405.68 490.1 406.247 490.1 406.977H488.654C488.654 405.93 488.99 405.083 489.662 404.438C490.339 403.792 491.243 403.469 492.373 403.469C493.43 403.469 494.266 403.747 494.881 404.305C495.495 404.857 495.803 405.594 495.803 406.516C495.803 407.635 495.089 408.969 493.662 410.516L490.615 413.82H496.326V415ZM498.521 409.297L499.1 403.625H504.928V404.961H500.326L499.982 408.062C500.54 407.734 501.173 407.57 501.881 407.57C502.917 407.57 503.74 407.914 504.35 408.602C504.959 409.284 505.264 410.208 505.264 411.375C505.264 412.547 504.946 413.471 504.311 414.148C503.68 414.82 502.798 415.156 501.662 415.156C500.657 415.156 499.837 414.878 499.201 414.32C498.566 413.763 498.204 412.992 498.115 412.008H499.482C499.571 412.659 499.803 413.151 500.178 413.484C500.553 413.812 501.048 413.977 501.662 413.977C502.334 413.977 502.86 413.747 503.24 413.289C503.626 412.831 503.818 412.198 503.818 411.391C503.818 410.63 503.61 410.021 503.193 409.562C502.782 409.099 502.232 408.867 501.545 408.867C500.915 408.867 500.42 409.005 500.061 409.281L499.678 409.594L498.521 409.297Z" fill="#333333"/>
<path d="M480.402 452.612C480.402 454.452 480.057 455.841 479.365 456.778C478.68 457.71 477.634 458.176 476.228 458.176C474.845 458.176 473.802 457.722 473.099 456.813C472.401 455.899 472.044 454.549 472.026 452.762V450.547C472.026 448.707 472.369 447.327 473.055 446.407C473.746 445.487 474.798 445.027 476.21 445.027C477.61 445.027 478.653 445.476 479.339 446.372C480.03 447.269 480.385 448.61 480.402 450.397V452.612ZM478.267 450.222C478.267 449.021 478.103 448.142 477.774 447.585C477.446 447.022 476.925 446.741 476.21 446.741C475.513 446.741 475 447.008 474.672 447.541C474.344 448.068 474.171 448.895 474.153 450.02V452.92C474.153 454.115 474.32 455.006 474.654 455.592C474.988 456.178 475.513 456.471 476.228 456.471C476.913 456.471 477.42 456.201 477.748 455.662C478.076 455.117 478.249 454.268 478.267 453.113V450.222Z" fill="#3447D3"/>
<path d="M482.717 458.977H481.475L486.225 446.625H487.459L482.717 458.977ZM496.326 458H488.873V456.961L492.811 452.586C493.394 451.924 493.795 451.388 494.014 450.977C494.238 450.56 494.35 450.13 494.35 449.688C494.35 449.094 494.17 448.607 493.811 448.227C493.451 447.846 492.972 447.656 492.373 447.656C491.654 447.656 491.094 447.862 490.693 448.273C490.298 448.68 490.1 449.247 490.1 449.977H488.654C488.654 448.93 488.99 448.083 489.662 447.438C490.339 446.792 491.243 446.469 492.373 446.469C493.43 446.469 494.266 446.747 494.881 447.305C495.495 447.857 495.803 448.594 495.803 449.516C495.803 450.635 495.089 451.969 493.662 453.516L490.615 456.82H496.326V458ZM498.521 452.297L499.1 446.625H504.928V447.961H500.326L499.982 451.062C500.54 450.734 501.173 450.57 501.881 450.57C502.917 450.57 503.74 450.914 504.35 451.602C504.959 452.284 505.264 453.208 505.264 454.375C505.264 455.547 504.946 456.471 504.311 457.148C503.68 457.82 502.798 458.156 501.662 458.156C500.657 458.156 499.837 457.878 499.201 457.32C498.566 456.763 498.204 455.992 498.115 455.008H499.482C499.571 455.659 499.803 456.151 500.178 456.484C500.553 456.812 501.048 456.977 501.662 456.977C502.334 456.977 502.86 456.747 503.24 456.289C503.626 455.831 503.818 455.198 503.818 454.391C503.818 453.63 503.61 453.021 503.193 452.562C502.782 452.099 502.232 451.867 501.545 451.867C500.915 451.867 500.42 452.005 500.061 452.281L499.678 452.594L498.521 452.297Z" fill="#333333"/>
</svg>
