<svg width="297" height="846" viewBox="0 0 297 846" fill="none" xmlns="http://www.w3.org/2000/svg">
<g filter="url(#filter0_d)">
<rect x="8" y="8" width="281" height="830" fill="white"/>
</g>
<path d="M36.5241 54.169C38.8757 54.169 40.2528 52.25 40.2528 48.9141C40.2528 45.603 38.8558 43.679 36.5241 43.679C34.1875 43.679 32.7955 45.598 32.7905 48.9141C32.7905 52.245 34.1676 54.1641 36.5241 54.169ZM36.5241 52.8416C35.147 52.8416 34.3168 51.4595 34.3168 48.9141C34.3217 46.3786 35.152 44.9815 36.5241 44.9815C37.8913 44.9815 38.7266 46.3786 38.7266 48.9141C38.7266 51.4595 37.8963 52.8416 36.5241 52.8416ZM45.3773 54.1392C47.4256 54.1392 48.8873 52.6925 48.8823 50.7088C48.8873 48.7401 47.5151 47.3082 45.6607 47.3082C44.905 47.3082 44.204 47.5966 43.8063 47.9844H43.7466L44.0698 45.1357H48.3901V43.8182H42.7921L42.2203 48.9489L43.6273 49.1577C44.0101 48.8146 44.6962 48.581 45.3127 48.581C46.5208 48.5909 47.3958 49.4957 47.3958 50.7386C47.3958 51.9616 46.5456 52.8466 45.3773 52.8466C44.3929 52.8466 43.6124 52.2202 43.5328 51.3452H42.0414C42.101 52.9659 43.508 54.1392 45.3773 54.1392ZM51.342 54.0945C51.8839 54.0945 52.3363 53.652 52.3363 53.1001C52.3363 52.5582 51.8839 52.1108 51.342 52.1108C50.7951 52.1108 50.3477 52.5582 50.3477 53.1001C50.3477 53.652 50.7951 54.0945 51.342 54.0945ZM56.94 43.8182H55.4435L52.9031 45.4787V46.9503L55.3391 45.3594H55.3988V54H56.94V43.8182ZM59.6942 54H66.396V52.6825H61.8121V52.608L63.8356 50.4901C65.6999 48.6058 66.2319 47.706 66.2319 46.5675C66.2319 44.9318 64.8995 43.679 62.9805 43.679C61.0763 43.679 59.6843 44.9119 59.6843 46.7713H61.1509C61.146 45.6776 61.8519 44.9616 62.9506 44.9616C63.9847 44.9616 64.7702 45.598 64.7702 46.6122C64.7702 47.5121 64.2333 48.1584 63.1396 49.3168L59.6942 52.8864V54ZM69.2795 54.0945C69.8214 54.0945 70.2738 53.652 70.2738 53.1001C70.2738 52.5582 69.8214 52.1108 69.2795 52.1108C68.7326 52.1108 68.2852 52.5582 68.2852 53.1001C68.2852 53.652 68.7326 54.0945 69.2795 54.0945ZM72.245 54H78.9467V52.6825H74.3629V52.608L76.3864 50.4901C78.2507 48.6058 78.7827 47.706 78.7827 46.5675C78.7827 44.9318 77.4503 43.679 75.5312 43.679C73.6271 43.679 72.2351 44.9119 72.2351 46.7713H73.7017C73.6967 45.6776 74.4027 44.9616 75.5014 44.9616C76.5355 44.9616 77.321 45.598 77.321 46.6122C77.321 47.5121 76.7841 48.1584 75.6903 49.3168L72.245 52.8864V54ZM84.3757 54.169C86.7273 54.169 88.1044 52.25 88.1044 48.9141C88.1044 45.603 86.7074 43.679 84.3757 43.679C82.0391 43.679 80.647 45.598 80.642 48.9141C80.642 52.245 82.0192 54.1641 84.3757 54.169ZM84.3757 52.8416C82.9986 52.8416 82.1683 51.4595 82.1683 48.9141C82.1733 46.3786 83.0036 44.9815 84.3757 44.9815C85.7429 44.9815 86.5781 46.3786 86.5781 48.9141C86.5781 51.4595 85.7479 52.8416 84.3757 52.8416ZM89.8681 54H96.5698V52.6825H91.986V52.608L94.0094 50.4901C95.8738 48.6058 96.4057 47.706 96.4057 46.5675C96.4057 44.9318 95.0733 43.679 93.1543 43.679C91.2502 43.679 89.8581 44.9119 89.8581 46.7713H91.3248C91.3198 45.6776 92.0257 44.9616 93.1245 44.9616C94.1586 44.9616 94.9441 45.598 94.9441 46.6122C94.9441 47.5121 94.4071 48.1584 93.3134 49.3168L89.8681 52.8864V54ZM101.999 54.169C104.35 54.169 105.727 52.25 105.727 48.9141C105.727 45.603 104.33 43.679 101.999 43.679C99.6621 43.679 98.2701 45.598 98.2651 48.9141C98.2651 52.245 99.6422 54.1641 101.999 54.169ZM101.999 52.8416C100.622 52.8416 99.7914 51.4595 99.7914 48.9141C99.7963 46.3786 100.627 44.9815 101.999 44.9815C103.366 44.9815 104.201 46.3786 104.201 48.9141C104.201 51.4595 103.371 52.8416 101.999 52.8416ZM114.781 46.3636H113.215V44.5341H111.728V46.3636H110.61V47.5568H111.728V52.0661C111.723 53.4531 112.782 54.1243 113.955 54.0994C114.428 54.0945 114.746 54.005 114.92 53.9403L114.651 52.7124C114.552 52.7322 114.368 52.777 114.129 52.777C113.647 52.777 113.215 52.6179 113.215 51.7578V47.5568H114.781V46.3636ZM118.647 54.169C119.91 54.169 120.621 53.5277 120.904 52.956H120.964V54H122.416V48.929C122.416 46.7067 120.666 46.2642 119.453 46.2642C118.071 46.2642 116.798 46.821 116.301 48.2131L117.698 48.5312C117.917 47.9893 118.473 47.4673 119.473 47.4673C120.432 47.4673 120.924 47.9695 120.924 48.8345V48.8693C120.924 49.4112 120.368 49.4013 118.995 49.5604C117.549 49.7294 116.067 50.1072 116.067 51.8423C116.067 53.3438 117.196 54.169 118.647 54.169ZM118.971 52.9759C118.13 52.9759 117.524 52.598 117.524 51.8622C117.524 51.0668 118.23 50.7834 119.09 50.669C119.572 50.6044 120.716 50.4751 120.929 50.2614V51.2457C120.929 52.1506 120.208 52.9759 118.971 52.9759ZM130.118 48.228C129.81 47.0398 128.88 46.2642 127.23 46.2642C125.504 46.2642 124.281 47.174 124.281 48.5263C124.281 49.6101 124.938 50.331 126.369 50.6491L127.662 50.9325C128.398 51.0966 128.741 51.4247 128.741 51.902C128.741 52.4936 128.11 52.956 127.135 52.956C126.245 52.956 125.673 52.5732 125.494 51.8224L124.058 52.0412C124.306 53.3935 125.43 54.1541 127.145 54.1541C128.99 54.1541 130.267 53.1747 130.267 51.7926C130.267 50.7138 129.581 50.0476 128.179 49.7244L126.966 49.446C126.126 49.2472 125.763 48.9638 125.768 48.4467C125.763 47.8601 126.399 47.4425 127.244 47.4425C128.169 47.4425 128.597 47.9545 128.771 48.4666L130.118 48.228ZM131.902 54H133.388V51.2905L134.129 50.5497L136.724 54H138.549L135.248 49.6399L138.34 46.3636H136.56L133.517 49.5952H133.388V43.8182H131.902V54Z" fill="#657FAB"/>
<path d="M245.556 122.463C246.42 122.463 247.111 123.146 247.111 124C247.111 124.854 246.42 125.537 245.556 125.537C244.691 125.537 244 124.854 244 124C244 123.146 244.691 122.463 245.556 122.463ZM244 118.537C244 119.39 244.691 120.073 245.556 120.073C246.42 120.073 247.111 119.39 247.111 118.537C247.111 117.683 246.42 117 245.556 117C244.691 117 244 117.683 244 118.537ZM244 129.463C244 130.317 244.691 131 245.556 131C246.42 131 247.111 130.317 247.111 129.463C247.111 128.61 246.42 127.927 245.556 127.927C244.691 127.927 244 128.61 244 129.463Z" fill="#657FAB"/>
<path d="M251 54L241 44" stroke="#657FAB" stroke-width="1.5" stroke-linecap="round" stroke-linejoin="round"/>
<path d="M251 44L241 54" stroke="#657FAB" stroke-width="1.5" stroke-linecap="round" stroke-linejoin="round"/>
<path d="M289 88L8 88" stroke="#D9E5F8" stroke-width="1.5"/>
<rect x="6" y="39" width="2" height="36" fill="#3447D3"/>
<path d="M154 48L159 52L164 48" stroke="#657FAB" stroke-width="1.5" stroke-linecap="round" stroke-linejoin="round"/>
<path d="M53.696 117L54.4972 114.69H57.9062L58.7031 117H60.1009L56.9602 108.273H55.4389L52.2983 117H53.696ZM54.8807 113.582L56.1676 109.858H56.2358L57.5227 113.582H54.8807ZM63.6037 117.128C64.7969 117.128 65.2656 116.399 65.4957 115.982H65.6023V117H66.8466V108.273H65.5724V111.516H65.4957C65.2656 111.111 64.831 110.369 63.6122 110.369C62.0312 110.369 60.8679 111.618 60.8679 113.74C60.8679 115.858 62.0142 117.128 63.6037 117.128ZM63.8849 116.041C62.7472 116.041 62.1548 115.04 62.1548 113.727C62.1548 112.428 62.7344 111.452 63.8849 111.452C64.9972 111.452 65.5938 112.359 65.5938 113.727C65.5938 115.104 64.9844 116.041 63.8849 116.041ZM71.1154 117.128C72.3086 117.128 72.7773 116.399 73.0075 115.982H73.114V117H74.3583V108.273H73.0842V111.516H73.0075C72.7773 111.111 72.3427 110.369 71.1239 110.369C69.543 110.369 68.3796 111.618 68.3796 113.74C68.3796 115.858 69.5259 117.128 71.1154 117.128ZM71.3967 116.041C70.2589 116.041 69.6665 115.04 69.6665 113.727C69.6665 112.428 70.2461 111.452 71.3967 111.452C72.5089 111.452 73.1055 112.359 73.1055 113.727C73.1055 115.104 72.4961 116.041 71.3967 116.041ZM81.2575 117.145C82.3398 117.145 82.9492 116.595 83.1921 116.105H83.2433V117H84.4876V112.653C84.4876 110.749 82.9876 110.369 81.9478 110.369C80.7631 110.369 79.6722 110.847 79.2461 112.04L80.4435 112.312C80.631 111.848 81.1083 111.401 81.9648 111.401C82.7873 111.401 83.2092 111.831 83.2092 112.572V112.602C83.2092 113.067 82.7319 113.058 81.5558 113.195C80.3157 113.339 79.0458 113.663 79.0458 115.151C79.0458 116.438 80.0131 117.145 81.2575 117.145ZM81.5344 116.122C80.8143 116.122 80.2944 115.798 80.2944 115.168C80.2944 114.486 80.8995 114.243 81.6367 114.145C82.0501 114.089 83.0302 113.979 83.2134 113.795V114.639C83.2134 115.415 82.5955 116.122 81.5344 116.122ZM92.4158 110.455H91.0735V108.886H89.7994V110.455H88.8406V111.477H89.7994V115.342C89.7951 116.531 90.7028 117.107 91.7085 117.085C92.1133 117.081 92.386 117.004 92.5352 116.949L92.305 115.896C92.2198 115.913 92.0621 115.952 91.8576 115.952C91.4442 115.952 91.0735 115.815 91.0735 115.078V111.477H92.4158V110.455ZM95.7301 117.145C96.8125 117.145 97.4219 116.595 97.6648 116.105H97.7159V117H98.9602V112.653C98.9602 110.749 97.4602 110.369 96.4205 110.369C95.2358 110.369 94.1449 110.847 93.7188 112.04L94.9162 112.312C95.1037 111.848 95.581 111.401 96.4375 111.401C97.2599 111.401 97.6818 111.831 97.6818 112.572V112.602C97.6818 113.067 97.2045 113.058 96.0284 113.195C94.7884 113.339 93.5185 113.663 93.5185 115.151C93.5185 116.438 94.4858 117.145 95.7301 117.145ZM96.0071 116.122C95.2869 116.122 94.767 115.798 94.767 115.168C94.767 114.486 95.3722 114.243 96.1094 114.145C96.5227 114.089 97.5028 113.979 97.6861 113.795V114.639C97.6861 115.415 97.0682 116.122 96.0071 116.122ZM105.562 112.053C105.298 111.034 104.501 110.369 103.086 110.369C101.608 110.369 100.559 111.149 100.559 112.308C100.559 113.237 101.122 113.855 102.349 114.128L103.457 114.371C104.088 114.511 104.382 114.793 104.382 115.202C104.382 115.709 103.841 116.105 103.005 116.105C102.243 116.105 101.752 115.777 101.599 115.134L100.368 115.321C100.581 116.48 101.544 117.132 103.014 117.132C104.595 117.132 105.69 116.293 105.69 115.108C105.69 114.183 105.102 113.612 103.9 113.335L102.86 113.097C102.14 112.926 101.829 112.683 101.833 112.24C101.829 111.737 102.375 111.379 103.099 111.379C103.892 111.379 104.258 111.818 104.407 112.257L105.562 112.053ZM107.091 117H108.365V114.678L109 114.043L111.224 117H112.788L109.959 113.263L112.609 110.455H111.084L108.476 113.224H108.365V108.273H107.091V117Z" fill="#657FAB"/>
<rect x="21" y="106" width="119" height="36" rx="18" fill="#F7FAFF"/>
<path d="M32 124H46" stroke="#657FAB" stroke-width="1.5" stroke-linecap="round" stroke-linejoin="round"/>
<path d="M39 117L39 131" stroke="#657FAB" stroke-width="1.5" stroke-linecap="round" stroke-linejoin="round"/>
<path d="M59.696 129L60.4972 126.69H63.9062L64.7031 129H66.1009L62.9602 120.273H61.4389L58.2983 129H59.696ZM60.8807 125.582L62.1676 121.858H62.2358L63.5227 125.582H60.8807ZM69.6037 129.128C70.7969 129.128 71.2656 128.399 71.4957 127.982H71.6023V129H72.8466V120.273H71.5724V123.516H71.4957C71.2656 123.111 70.831 122.369 69.6122 122.369C68.0312 122.369 66.8679 123.618 66.8679 125.74C66.8679 127.858 68.0142 129.128 69.6037 129.128ZM69.8849 128.041C68.7472 128.041 68.1548 127.04 68.1548 125.727C68.1548 124.428 68.7344 123.452 69.8849 123.452C70.9972 123.452 71.5938 124.359 71.5938 125.727C71.5938 127.104 70.9844 128.041 69.8849 128.041ZM77.1154 129.128C78.3086 129.128 78.7773 128.399 79.0075 127.982H79.114V129H80.3583V120.273H79.0842V123.516H79.0075C78.7773 123.111 78.3427 122.369 77.1239 122.369C75.543 122.369 74.3796 123.618 74.3796 125.74C74.3796 127.858 75.5259 129.128 77.1154 129.128ZM77.3967 128.041C76.2589 128.041 75.6665 127.04 75.6665 125.727C75.6665 124.428 76.2461 123.452 77.3967 123.452C78.5089 123.452 79.1055 124.359 79.1055 125.727C79.1055 127.104 78.4961 128.041 77.3967 128.041ZM87.2575 129.145C88.3398 129.145 88.9492 128.595 89.1921 128.105H89.2433V129H90.4876V124.653C90.4876 122.749 88.9876 122.369 87.9478 122.369C86.7631 122.369 85.6722 122.847 85.2461 124.04L86.4435 124.312C86.631 123.848 87.1083 123.401 87.9648 123.401C88.7873 123.401 89.2092 123.831 89.2092 124.572V124.602C89.2092 125.067 88.7319 125.058 87.5558 125.195C86.3157 125.339 85.0458 125.663 85.0458 127.151C85.0458 128.438 86.0131 129.145 87.2575 129.145ZM87.5344 128.122C86.8143 128.122 86.2944 127.798 86.2944 127.168C86.2944 126.486 86.8995 126.243 87.6367 126.145C88.0501 126.089 89.0302 125.979 89.2134 125.795V126.639C89.2134 127.415 88.5955 128.122 87.5344 128.122ZM98.4158 122.455H97.0735V120.886H95.7994V122.455H94.8406V123.477H95.7994V127.342C95.7951 128.531 96.7028 129.107 97.7085 129.085C98.1133 129.081 98.386 129.004 98.5352 128.949L98.305 127.896C98.2198 127.913 98.0621 127.952 97.8576 127.952C97.4442 127.952 97.0735 127.815 97.0735 127.078V123.477H98.4158V122.455ZM101.73 129.145C102.812 129.145 103.422 128.595 103.665 128.105H103.716V129H104.96V124.653C104.96 122.749 103.46 122.369 102.42 122.369C101.236 122.369 100.145 122.847 99.7188 124.04L100.916 124.312C101.104 123.848 101.581 123.401 102.438 123.401C103.26 123.401 103.682 123.831 103.682 124.572V124.602C103.682 125.067 103.205 125.058 102.028 125.195C100.788 125.339 99.5185 125.663 99.5185 127.151C99.5185 128.438 100.486 129.145 101.73 129.145ZM102.007 128.122C101.287 128.122 100.767 127.798 100.767 127.168C100.767 126.486 101.372 126.243 102.109 126.145C102.523 126.089 103.503 125.979 103.686 125.795V126.639C103.686 127.415 103.068 128.122 102.007 128.122ZM111.562 124.053C111.298 123.034 110.501 122.369 109.086 122.369C107.608 122.369 106.559 123.149 106.559 124.308C106.559 125.237 107.122 125.855 108.349 126.128L109.457 126.371C110.088 126.511 110.382 126.793 110.382 127.202C110.382 127.709 109.841 128.105 109.005 128.105C108.243 128.105 107.752 127.777 107.599 127.134L106.368 127.321C106.581 128.48 107.544 129.132 109.014 129.132C110.595 129.132 111.69 128.293 111.69 127.108C111.69 126.183 111.102 125.612 109.9 125.335L108.86 125.097C108.14 124.926 107.829 124.683 107.833 124.24C107.829 123.737 108.375 123.379 109.099 123.379C109.892 123.379 110.258 123.818 110.407 124.257L111.562 124.053ZM113.091 129H114.365V126.678L115 126.043L117.224 129H118.788L115.959 125.263L118.609 122.455H117.084L114.476 125.224H114.365V120.273H113.091V129Z" fill="#657FAB"/>
<path d="M64.8565 180H66.1307V175.964C66.1307 175.082 66.7486 174.469 67.473 174.469C68.1804 174.469 68.6705 174.938 68.6705 175.649V180H69.9403V175.828C69.9403 175.04 70.4219 174.469 71.2528 174.469C71.9261 174.469 72.4801 174.844 72.4801 175.73V180H73.7543V175.611C73.7543 174.115 72.919 173.369 71.7344 173.369C70.7926 173.369 70.0852 173.821 69.7699 174.52H69.7017C69.4162 173.804 68.8153 173.369 67.9418 173.369C67.0767 173.369 66.4332 173.8 66.1605 174.52H66.0795V173.455H64.8565V180ZM75.462 180H76.7362V173.455H75.462V180ZM76.1055 172.445C76.5444 172.445 76.9109 172.104 76.9109 171.686C76.9109 171.268 76.5444 170.923 76.1055 170.923C75.6623 170.923 75.3001 171.268 75.3001 171.686C75.3001 172.104 75.6623 172.445 76.1055 172.445ZM79.7244 171.273H78.4503V180H79.7244V171.273ZM82.7127 171.273H81.4386V180H82.7127V171.273ZM85.8459 180H87.1413L88.4709 175.274H88.5689L89.8984 180H91.1982L93.12 173.455H91.8033L90.5291 178.24H90.4652L89.1868 173.455H87.87L86.5831 178.261H86.5192L85.2365 173.455H83.9197L85.8459 180ZM96.8871 180.132C98.7322 180.132 99.9382 178.781 99.9382 176.757C99.9382 174.72 98.7322 173.369 96.8871 173.369C95.0419 173.369 93.8359 174.72 93.8359 176.757C93.8359 178.781 95.0419 180.132 96.8871 180.132ZM96.8913 179.062C95.6854 179.062 95.1229 178.01 95.1229 176.753C95.1229 175.5 95.6854 174.435 96.8913 174.435C98.0888 174.435 98.6513 175.5 98.6513 176.753C98.6513 178.01 98.0888 179.062 96.8913 179.062ZM101.36 180H102.635V176.003C102.635 175.146 103.295 174.528 104.199 174.528C104.463 174.528 104.761 174.575 104.863 174.605V173.386C104.735 173.369 104.484 173.357 104.322 173.357C103.555 173.357 102.899 173.791 102.66 174.494H102.592V173.455H101.36V180ZM105.966 180H107.24V177.678L107.875 177.043L110.099 180H111.663L108.834 176.263L111.484 173.455H109.959L107.351 176.224H107.24V171.273H105.966V180ZM120.726 175.053C120.462 174.034 119.665 173.369 118.25 173.369C116.772 173.369 115.723 174.149 115.723 175.308C115.723 176.237 116.286 176.855 117.513 177.128L118.621 177.371C119.252 177.511 119.546 177.793 119.546 178.202C119.546 178.709 119.005 179.105 118.169 179.105C117.407 179.105 116.917 178.777 116.763 178.134L115.532 178.321C115.745 179.48 116.708 180.132 118.178 180.132C119.759 180.132 120.854 179.293 120.854 178.108C120.854 177.183 120.266 176.612 119.064 176.335L118.025 176.097C117.304 175.926 116.993 175.683 116.998 175.24C116.993 174.737 117.539 174.379 118.263 174.379C119.056 174.379 119.422 174.818 119.571 175.257L120.726 175.053ZM126.401 177.286C126.406 178.398 125.579 178.926 124.863 178.926C124.075 178.926 123.529 178.355 123.529 177.464V173.455H122.255V177.618C122.255 179.241 123.146 180.085 124.403 180.085C125.387 180.085 126.056 179.565 126.359 178.866H126.427V180H127.68V173.455H126.401V177.286ZM129.494 180H130.738V178.982H130.845C131.075 179.399 131.544 180.128 132.737 180.128C134.322 180.128 135.473 178.858 135.473 176.74C135.473 174.618 134.305 173.369 132.724 173.369C131.51 173.369 131.071 174.111 130.845 174.516H130.768V171.273H129.494V180ZM130.743 176.727C130.743 175.359 131.339 174.452 132.451 174.452C133.606 174.452 134.186 175.428 134.186 176.727C134.186 178.04 133.589 179.041 132.451 179.041C131.356 179.041 130.743 178.104 130.743 176.727ZM136.903 180H138.178V175.964C138.178 175.082 138.795 174.469 139.52 174.469C140.227 174.469 140.717 174.938 140.717 175.649V180H141.987V175.828C141.987 175.04 142.469 174.469 143.3 174.469C143.973 174.469 144.527 174.844 144.527 175.73V180H145.801V175.611C145.801 174.115 144.966 173.369 143.781 173.369C142.839 173.369 142.132 173.821 141.817 174.52H141.749C141.463 173.804 140.862 173.369 139.989 173.369C139.124 173.369 138.48 173.8 138.207 174.52H138.126V173.455H136.903V180ZM147.509 180H148.783V173.455H147.509V180ZM148.152 172.445C148.591 172.445 148.958 172.104 148.958 171.686C148.958 171.268 148.591 170.923 148.152 170.923C147.709 170.923 147.347 171.268 147.347 171.686C147.347 172.104 147.709 172.445 148.152 172.445ZM153.553 173.455H152.21V171.886H150.936V173.455H149.977V174.477H150.936V178.342C150.932 179.531 151.839 180.107 152.845 180.085C153.25 180.081 153.523 180.004 153.672 179.949L153.442 178.896C153.357 178.913 153.199 178.952 152.994 178.952C152.581 178.952 152.21 178.815 152.21 178.078V174.477H153.553V173.455ZM158.017 173.455H156.675V171.886H155.401V173.455H154.442V174.477H155.401V178.342C155.397 179.531 156.304 180.107 157.31 180.085C157.715 180.081 157.988 180.004 158.137 179.949L157.907 178.896C157.821 178.913 157.664 178.952 157.459 178.952C157.046 178.952 156.675 178.815 156.675 178.078V174.477H158.017V173.455ZM161.332 180.145C162.414 180.145 163.023 179.595 163.266 179.105H163.317V180H164.562V175.653C164.562 173.749 163.062 173.369 162.022 173.369C160.837 173.369 159.746 173.847 159.32 175.04L160.518 175.312C160.705 174.848 161.183 174.401 162.039 174.401C162.862 174.401 163.283 174.831 163.283 175.572V175.602C163.283 176.067 162.806 176.058 161.63 176.195C160.39 176.339 159.12 176.663 159.12 178.151C159.12 179.438 160.087 180.145 161.332 180.145ZM161.609 179.122C160.888 179.122 160.369 178.798 160.369 178.168C160.369 177.486 160.974 177.243 161.711 177.145C162.124 177.089 163.104 176.979 163.288 176.795V177.639C163.288 178.415 162.67 179.122 161.609 179.122ZM167.533 171.273H166.259V180H167.533V171.273ZM174.152 175.053C173.888 174.034 173.091 173.369 171.676 173.369C170.197 173.369 169.149 174.149 169.149 175.308C169.149 176.237 169.712 176.855 170.939 177.128L172.047 177.371C172.678 177.511 172.972 177.793 172.972 178.202C172.972 178.709 172.43 179.105 171.595 179.105C170.832 179.105 170.342 178.777 170.189 178.134L168.957 178.321C169.17 179.48 170.134 180.132 171.604 180.132C173.185 180.132 174.28 179.293 174.28 178.108C174.28 177.183 173.692 176.612 172.49 176.335L171.45 176.097C170.73 175.926 170.419 175.683 170.423 175.24C170.419 174.737 170.964 174.379 171.689 174.379C172.482 174.379 172.848 174.818 172.997 175.257L174.152 175.053Z" fill="#657FAB"/>
<path d="M64.767 196H65.6051V192.591C65.6051 191.792 66.1875 191.227 66.8409 191.227C67.4766 191.227 67.9205 191.643 67.9205 192.264V196H68.7727V192.449C68.7727 191.746 69.2131 191.227 69.9801 191.227C70.5767 191.227 71.0881 191.543 71.0881 192.349V196H71.9261V192.349C71.9261 191.067 71.2372 190.474 70.2642 190.474C69.483 190.474 68.9112 190.833 68.6307 191.398H68.5739C68.304 190.815 67.8281 190.474 67.1108 190.474C66.4006 190.474 65.875 190.815 65.6477 191.398H65.5767V190.545H64.767V196ZM75.0636 196.128C76.0153 196.128 76.5124 195.616 76.6829 195.261H76.7255V196H77.5636V192.406C77.5636 190.673 76.2425 190.474 75.5465 190.474C74.7227 190.474 73.7852 190.759 73.359 191.753L74.1545 192.037C74.3391 191.639 74.7759 191.213 75.5749 191.213C76.3455 191.213 76.7255 191.621 76.7255 192.321V192.349C76.7255 192.754 76.3136 192.719 75.3192 192.847C74.3072 192.978 73.2028 193.202 73.2028 194.452C73.2028 195.517 74.0266 196.128 75.0636 196.128ZM75.1914 195.375C74.5238 195.375 74.0408 195.077 74.0408 194.494C74.0408 193.855 74.6232 193.656 75.2766 193.571C75.6317 193.528 76.5835 193.429 76.7255 193.259V194.026C76.7255 194.707 76.1857 195.375 75.1914 195.375ZM79.0932 190.545V196.398C79.0932 196.952 78.8659 197.264 78.3546 197.264H78.1983V198.045H78.3688C79.4199 198.045 79.9313 197.406 79.9313 196.398V190.545H79.0932ZM79.5051 189.636C79.8319 189.636 80.1017 189.381 80.1017 189.068C80.1017 188.756 79.8319 188.5 79.5051 188.5C79.1784 188.5 78.9086 188.756 78.9086 189.068C78.9086 189.381 79.1784 189.636 79.5051 189.636ZM83.6822 196.114C85.1594 196.114 86.1538 194.991 86.1538 193.301C86.1538 191.597 85.1594 190.474 83.6822 190.474C82.2049 190.474 81.2106 191.597 81.2106 193.301C81.2106 194.991 82.2049 196.114 83.6822 196.114ZM83.6822 195.361C82.56 195.361 82.0487 194.395 82.0487 193.301C82.0487 192.207 82.56 191.227 83.6822 191.227C84.8043 191.227 85.3157 192.207 85.3157 193.301C85.3157 194.395 84.8043 195.361 83.6822 195.361ZM87.4331 196H88.2711V192.548C88.2711 191.81 88.8535 191.27 89.649 191.27C89.8727 191.27 90.1035 191.312 90.1603 191.327V190.474C90.0645 190.467 89.8443 190.46 89.72 190.46C89.0666 190.46 88.4984 190.83 88.2995 191.369H88.2427V190.545H87.4331V196ZM97.8299 191.767C97.5671 190.993 96.9776 190.474 95.8981 190.474C94.7475 190.474 93.8952 191.128 93.8952 192.051C93.8952 192.804 94.3427 193.308 95.3441 193.543L96.2532 193.756C96.8036 193.884 97.0629 194.146 97.0629 194.523C97.0629 194.991 96.5657 195.375 95.7844 195.375C95.0991 195.375 94.6694 195.08 94.5202 194.494L93.7248 194.693C93.9201 195.62 94.6836 196.114 95.7987 196.114C97.0664 196.114 97.9293 195.421 97.9293 194.48C97.9293 193.72 97.4535 193.241 96.4805 193.003L95.6708 192.804C95.0245 192.644 94.7333 192.428 94.7333 192.009C94.7333 191.54 95.2305 191.199 95.8981 191.199C96.6296 191.199 96.9315 191.604 97.0771 191.98L97.8299 191.767ZM102.628 193.77C102.628 194.793 101.847 195.261 101.222 195.261C100.526 195.261 100.029 194.75 100.029 193.955V190.545H99.1909V194.011C99.1909 195.403 99.9295 196.071 100.952 196.071C101.776 196.071 102.316 195.631 102.572 195.077H102.628V196H103.466V190.545H102.628V193.77ZM105.115 196H105.925V195.162H106.024C106.209 195.46 106.564 196.114 107.615 196.114C108.979 196.114 109.93 195.02 109.93 193.287C109.93 191.568 108.979 190.474 107.601 190.474C106.536 190.474 106.209 191.128 106.024 191.412H105.953V188.727H105.115V196ZM105.939 193.273C105.939 192.051 106.479 191.227 107.501 191.227C108.567 191.227 109.092 192.122 109.092 193.273C109.092 194.438 108.553 195.361 107.501 195.361C106.493 195.361 105.939 194.509 105.939 193.273ZM111.212 196H112.05V192.591C112.05 191.792 112.633 191.227 113.286 191.227C113.922 191.227 114.366 191.643 114.366 192.264V196H115.218V192.449C115.218 191.746 115.658 191.227 116.425 191.227C117.022 191.227 117.533 191.543 117.533 192.349V196H118.371V192.349C118.371 191.067 117.683 190.474 116.71 190.474C115.928 190.474 115.357 190.833 115.076 191.398H115.019C114.749 190.815 114.273 190.474 113.556 190.474C112.846 190.474 112.32 190.815 112.093 191.398H112.022V190.545H111.212V196ZM119.904 196H120.742V190.545H119.904V196ZM120.33 189.636C120.657 189.636 120.926 189.381 120.926 189.068C120.926 188.756 120.657 188.5 120.33 188.5C120.003 188.5 119.733 188.756 119.733 189.068C119.733 189.381 120.003 189.636 120.33 189.636ZM124.649 190.545H123.484V189.239H122.646V190.545H121.822V191.256H122.646V194.665C122.646 195.616 123.413 196.071 124.123 196.071C124.436 196.071 124.635 196.014 124.748 195.972L124.578 195.219C124.507 195.233 124.393 195.261 124.209 195.261C123.839 195.261 123.484 195.148 123.484 194.438V191.256H124.649V190.545ZM128.282 190.545H127.117V189.239H126.279V190.545H125.455V191.256H126.279V194.665C126.279 195.616 127.046 196.071 127.756 196.071C128.069 196.071 128.268 196.014 128.381 195.972L128.211 195.219C128.14 195.233 128.026 195.261 127.841 195.261C127.472 195.261 127.117 195.148 127.117 194.438V191.256H128.282V190.545ZM131.148 196.128C132.099 196.128 132.596 195.616 132.767 195.261H132.809V196H133.648V192.406C133.648 190.673 132.327 190.474 131.631 190.474C130.807 190.474 129.869 190.759 129.443 191.753L130.238 192.037C130.423 191.639 130.86 191.213 131.659 191.213C132.43 191.213 132.809 191.621 132.809 192.321V192.349C132.809 192.754 132.398 192.719 131.403 192.847C130.391 192.978 129.287 193.202 129.287 194.452C129.287 195.517 130.111 196.128 131.148 196.128ZM131.275 195.375C130.608 195.375 130.125 195.077 130.125 194.494C130.125 193.855 130.707 193.656 131.361 193.571C131.716 193.528 132.667 193.429 132.809 193.259V194.026C132.809 194.707 132.27 195.375 131.275 195.375ZM136.015 188.727H135.177V196H136.015V188.727ZM141.414 191.767C141.151 190.993 140.562 190.474 139.482 190.474C138.331 190.474 137.479 191.128 137.479 192.051C137.479 192.804 137.927 193.308 138.928 193.543L139.837 193.756C140.388 193.884 140.647 194.146 140.647 194.523C140.647 194.991 140.15 195.375 139.368 195.375C138.683 195.375 138.253 195.08 138.104 194.494L137.309 194.693C137.504 195.62 138.268 196.114 139.383 196.114C140.65 196.114 141.513 195.421 141.513 194.48C141.513 193.72 141.037 193.241 140.064 193.003L139.255 192.804C138.608 192.644 138.317 192.428 138.317 192.009C138.317 191.54 138.814 191.199 139.482 191.199C140.214 191.199 140.515 191.604 140.661 191.98L141.414 191.767ZM148.016 190.545H146.795V189.991C146.795 189.452 147.022 189.168 147.576 189.168C147.817 189.168 147.96 189.224 148.045 189.253L148.286 188.528C148.158 188.472 147.903 188.386 147.491 188.386C146.71 188.386 145.957 188.855 145.957 189.793V190.545H145.076V191.256H145.957V196H146.795V191.256H148.016V190.545ZM151.182 196.114C152.659 196.114 153.654 194.991 153.654 193.301C153.654 191.597 152.659 190.474 151.182 190.474C149.705 190.474 148.711 191.597 148.711 193.301C148.711 194.991 149.705 196.114 151.182 196.114ZM151.182 195.361C150.06 195.361 149.549 194.395 149.549 193.301C149.549 192.207 150.06 191.227 151.182 191.227C152.304 191.227 152.816 192.207 152.816 193.301C152.816 194.395 152.304 195.361 151.182 195.361ZM154.933 196H155.771V192.548C155.771 191.81 156.354 191.27 157.149 191.27C157.373 191.27 157.604 191.312 157.66 191.327V190.474C157.564 190.467 157.344 190.46 157.22 190.46C156.567 190.46 155.998 190.83 155.8 191.369H155.743V190.545H154.933V196ZM161.466 196H162.304V193.958L162.89 193.415L164.932 196H165.998L163.522 192.875L165.827 190.545H164.79L162.404 192.974H162.304V188.727H161.466V196ZM166.906 196H167.744V190.545H166.906V196ZM167.332 189.636C167.659 189.636 167.928 189.381 167.928 189.068C167.928 188.756 167.659 188.5 167.332 188.5C167.005 188.5 166.735 188.756 166.735 189.068C166.735 189.381 167.005 189.636 167.332 189.636ZM171.651 190.545H170.486V189.239H169.648V190.545H168.824V191.256H169.648V194.665C169.648 195.616 170.415 196.071 171.125 196.071C171.438 196.071 171.637 196.014 171.75 195.972L171.58 195.219C171.509 195.233 171.395 195.261 171.211 195.261C170.841 195.261 170.486 195.148 170.486 194.438V191.256H171.651V190.545ZM175.069 196.114C176.276 196.114 177.072 195.375 177.214 194.409H176.376C176.219 195.006 175.722 195.361 175.069 195.361C174.075 195.361 173.435 194.537 173.435 193.273C173.435 192.037 174.089 191.227 175.069 191.227C175.808 191.227 176.248 191.682 176.376 192.179H177.214C177.072 191.156 176.205 190.474 175.055 190.474C173.577 190.474 172.597 191.639 172.597 193.301C172.597 194.935 173.535 196.114 175.069 196.114ZM179.277 192.719C179.277 191.767 179.884 191.227 180.712 191.227C181.5 191.227 181.976 191.724 181.976 192.591V196H182.814V192.534C182.814 191.131 182.068 190.474 180.953 190.474C180.094 190.474 179.604 190.833 179.348 191.398H179.277V188.727H178.439V196H179.277V192.719ZM186.634 196.114C187.742 196.114 188.552 195.56 188.807 194.736L187.998 194.509C187.785 195.077 187.291 195.361 186.634 195.361C185.65 195.361 184.972 194.725 184.933 193.557H188.893V193.202C188.893 191.17 187.685 190.474 186.549 190.474C185.072 190.474 184.091 191.639 184.091 193.315C184.091 194.991 185.057 196.114 186.634 196.114ZM184.933 192.832C184.99 191.984 185.59 191.227 186.549 191.227C187.458 191.227 188.04 191.909 188.04 192.832H184.933ZM191.006 192.719C191.006 191.767 191.595 191.227 192.398 191.227C193.175 191.227 193.648 191.735 193.648 192.591V196H194.486V192.534C194.486 191.142 193.743 190.474 192.639 190.474C191.815 190.474 191.304 190.844 191.048 191.398H190.977V190.545H190.167V196H191.006V192.719ZM66.983 208.114C68.1903 208.114 68.9858 207.375 69.1278 206.409H68.2898C68.1335 207.006 67.6364 207.361 66.983 207.361C65.9886 207.361 65.3494 206.537 65.3494 205.273C65.3494 204.037 66.0028 203.227 66.983 203.227C67.7216 203.227 68.1619 203.682 68.2898 204.179H69.1278C68.9858 203.156 68.1193 202.474 66.9688 202.474C65.4915 202.474 64.5114 203.639 64.5114 205.301C64.5114 206.935 65.4489 208.114 66.983 208.114ZM71.9581 208.128C72.9098 208.128 73.407 207.616 73.5774 207.261H73.62V208H74.4581V204.406C74.4581 202.673 73.1371 202.474 72.4411 202.474C71.6172 202.474 70.6797 202.759 70.2536 203.753L71.049 204.037C71.2337 203.639 71.6705 203.213 72.4695 203.213C73.2401 203.213 73.62 203.621 73.62 204.321V204.349C73.62 204.754 73.2081 204.719 72.2138 204.847C71.2017 204.978 70.0973 205.202 70.0973 206.452C70.0973 207.517 70.9212 208.128 71.9581 208.128ZM72.0859 207.375C71.4183 207.375 70.9354 207.077 70.9354 206.494C70.9354 205.855 71.5178 205.656 72.1712 205.571C72.5263 205.528 73.478 205.429 73.62 205.259V206.026C73.62 206.707 73.0803 207.375 72.0859 207.375ZM76.1014 208H76.911V207.162H77.0105C77.1951 207.46 77.5502 208.114 78.6014 208.114C79.965 208.114 80.9167 207.02 80.9167 205.287C80.9167 203.568 79.965 202.474 78.5872 202.474C77.5218 202.474 77.1951 203.128 77.0105 203.412H76.9395V200.727H76.1014V208ZM76.9252 205.273C76.9252 204.051 77.465 203.227 78.4877 203.227C79.5531 203.227 80.0787 204.122 80.0787 205.273C80.0787 206.438 79.5389 207.361 78.4877 207.361C77.4792 207.361 76.9252 206.509 76.9252 205.273ZM82.1987 208H83.0368V202.545H82.1987V208ZM82.6248 201.636C82.9515 201.636 83.2214 201.381 83.2214 201.068C83.2214 200.756 82.9515 200.5 82.6248 200.5C82.2981 200.5 82.0282 200.756 82.0282 201.068C82.0282 201.381 82.2981 201.636 82.6248 201.636ZM85.4098 204.719C85.4098 203.767 85.9993 203.227 86.8018 203.227C87.5795 203.227 88.0518 203.735 88.0518 204.591V208H88.8899V204.534C88.8899 203.142 88.1477 202.474 87.0433 202.474C86.2195 202.474 85.7081 202.844 85.4524 203.398H85.3814V202.545H84.5717V208H85.4098V204.719ZM92.7083 208.114C93.8162 208.114 94.6259 207.56 94.8816 206.736L94.0719 206.509C93.8588 207.077 93.3652 207.361 92.7083 207.361C91.7246 207.361 91.0463 206.725 91.0073 205.557H94.9668V205.202C94.9668 203.17 93.7594 202.474 92.623 202.474C91.1458 202.474 90.1657 203.639 90.1657 205.315C90.1657 206.991 91.1316 208.114 92.7083 208.114ZM91.0073 204.832C91.0641 203.984 91.6642 203.227 92.623 203.227C93.5321 203.227 94.1145 203.909 94.1145 204.832H91.0073ZM98.6138 202.545H97.449V201.239H96.611V202.545H95.7871V203.256H96.611V206.665C96.611 207.616 97.378 208.071 98.0882 208.071C98.4007 208.071 98.5996 208.014 98.7132 207.972L98.5428 207.219C98.4718 207.233 98.3581 207.261 98.1735 207.261C97.8042 207.261 97.449 207.148 97.449 206.438V203.256H98.6138V202.545ZM103.64 203.767C103.378 202.993 102.788 202.474 101.709 202.474C100.558 202.474 99.7058 203.128 99.7058 204.051C99.7058 204.804 100.153 205.308 101.155 205.543L102.064 205.756C102.614 205.884 102.873 206.146 102.873 206.523C102.873 206.991 102.376 207.375 101.595 207.375C100.91 207.375 100.48 207.08 100.331 206.494L99.5353 206.693C99.7306 207.62 100.494 208.114 101.609 208.114C102.877 208.114 103.74 207.421 103.74 206.48C103.74 205.72 103.264 205.241 102.291 205.003L101.481 204.804C100.835 204.644 100.544 204.428 100.544 204.009C100.544 203.54 101.041 203.199 101.709 203.199C102.44 203.199 102.742 203.604 102.888 203.98L103.64 203.767Z" fill="#657FAB"/>
<circle cx="39" cy="186" r="6.25" stroke="#657FAB" stroke-width="1.5"/>
<path d="M289 288L8 288" stroke="#D9E5F8"/>
<path d="M67.9716 237.455H66.5611V236.866C66.5611 236.287 66.7997 235.972 67.4219 235.972C67.6861 235.972 67.8736 236.031 67.9929 236.07L68.2912 235.038C68.1122 234.97 67.7415 234.864 67.2259 234.864C66.1903 234.864 65.2827 235.469 65.2827 236.696V237.455H64.2727V238.477H65.2827V244H66.5611V238.477H67.9716V237.455ZM69.2862 244H70.5604V237.455H69.2862V244ZM69.9297 236.445C70.3686 236.445 70.7351 236.104 70.7351 235.686C70.7351 235.268 70.3686 234.923 69.9297 234.923C69.4865 234.923 69.1243 235.268 69.1243 235.686C69.1243 236.104 69.4865 236.445 69.9297 236.445ZM73.5487 240.114C73.5487 239.07 74.1879 238.473 75.0742 238.473C75.9393 238.473 76.4634 239.04 76.4634 239.99V244H77.7376V239.837C77.7376 238.217 76.8469 237.369 75.5089 237.369C74.5245 237.369 73.881 237.825 73.5785 238.52H73.4975V237.455H72.2745V244H73.5487V240.114ZM79.4464 244H80.7205V237.455H79.4464V244ZM80.0898 236.445C80.5288 236.445 80.8952 236.104 80.8952 235.686C80.8952 235.268 80.5288 234.923 80.0898 234.923C79.6467 234.923 79.2844 235.268 79.2844 235.686C79.2844 236.104 79.6467 236.445 80.0898 236.445ZM87.3395 239.053C87.0753 238.034 86.2784 237.369 84.8636 237.369C83.3849 237.369 82.3366 238.149 82.3366 239.308C82.3366 240.237 82.8991 240.855 84.1264 241.128L85.2344 241.371C85.8651 241.511 86.1591 241.793 86.1591 242.202C86.1591 242.709 85.6179 243.105 84.7827 243.105C84.0199 243.105 83.5298 242.777 83.3764 242.134L82.1449 242.321C82.358 243.48 83.321 244.132 84.7912 244.132C86.3722 244.132 87.4673 243.293 87.4673 242.108C87.4673 241.183 86.8793 240.612 85.6776 240.335L84.6378 240.097C83.9176 239.926 83.6065 239.683 83.6108 239.24C83.6065 238.737 84.152 238.379 84.8764 238.379C85.669 238.379 86.0355 238.818 86.1847 239.257L87.3395 239.053ZM90.1424 240.114C90.1424 239.07 90.8029 238.473 91.7106 238.473C92.5884 238.473 93.1126 239.031 93.1126 239.99V244H94.3867V239.837C94.3867 238.205 93.4918 237.369 92.1452 237.369C91.1268 237.369 90.5131 237.812 90.2063 238.52H90.1254V235.273H88.8683V244H90.1424V240.114ZM101.713 244.128C102.906 244.128 103.375 243.399 103.605 242.982H103.712V244H104.956V235.273H103.682V238.516H103.605C103.375 238.111 102.94 237.369 101.722 237.369C100.141 237.369 98.9773 238.618 98.9773 240.74C98.9773 242.858 100.124 244.128 101.713 244.128ZM101.994 243.041C100.857 243.041 100.264 242.04 100.264 240.727C100.264 239.428 100.844 238.452 101.994 238.452C103.107 238.452 103.703 239.359 103.703 240.727C103.703 242.104 103.094 243.041 101.994 243.041ZM110.921 241.286C110.925 242.398 110.098 242.926 109.382 242.926C108.594 242.926 108.049 242.355 108.049 241.464V237.455H106.775V241.618C106.775 243.241 107.665 244.085 108.922 244.085C109.907 244.085 110.576 243.565 110.878 242.866H110.946V244H112.199V237.455H110.921V241.286ZM116.732 244.132C118.16 244.132 119.17 243.429 119.46 242.364L118.254 242.146C118.023 242.764 117.469 243.08 116.745 243.08C115.654 243.08 114.921 242.372 114.887 241.111H119.54V240.659C119.54 238.294 118.126 237.369 116.643 237.369C114.819 237.369 113.617 238.759 113.617 240.77C113.617 242.803 114.802 244.132 116.732 244.132ZM114.891 240.156C114.942 239.227 115.616 238.422 116.651 238.422C117.64 238.422 118.288 239.155 118.292 240.156H114.891ZM129.035 239.053C128.771 238.034 127.974 237.369 126.559 237.369C125.08 237.369 124.032 238.149 124.032 239.308C124.032 240.237 124.594 240.855 125.822 241.128L126.93 241.371C127.56 241.511 127.854 241.793 127.854 242.202C127.854 242.709 127.313 243.105 126.478 243.105C125.715 243.105 125.225 242.777 125.072 242.134L123.84 242.321C124.053 243.48 125.016 244.132 126.487 244.132C128.067 244.132 129.163 243.293 129.163 242.108C129.163 241.183 128.575 240.612 127.373 240.335L126.333 240.097C125.613 239.926 125.302 239.683 125.306 239.24C125.302 238.737 125.847 238.379 126.572 238.379C127.364 238.379 127.731 238.818 127.88 239.257L129.035 239.053ZM133.321 244.132C135.166 244.132 136.372 242.781 136.372 240.757C136.372 238.72 135.166 237.369 133.321 237.369C131.475 237.369 130.27 238.72 130.27 240.757C130.27 242.781 131.475 244.132 133.321 244.132ZM133.325 243.062C132.119 243.062 131.556 242.01 131.556 240.753C131.556 239.5 132.119 238.435 133.325 238.435C134.522 238.435 135.085 239.5 135.085 240.753C135.085 242.01 134.522 243.062 133.325 243.062ZM140.551 244.132C142.396 244.132 143.602 242.781 143.602 240.757C143.602 238.72 142.396 237.369 140.551 237.369C138.706 237.369 137.5 238.72 137.5 240.757C137.5 242.781 138.706 244.132 140.551 244.132ZM140.555 243.062C139.349 243.062 138.787 242.01 138.787 240.753C138.787 239.5 139.349 238.435 140.555 238.435C141.753 238.435 142.315 239.5 142.315 240.753C142.315 242.01 141.753 243.062 140.555 243.062ZM146.299 240.114C146.299 239.07 146.938 238.473 147.824 238.473C148.689 238.473 149.213 239.04 149.213 239.99V244H150.488V239.837C150.488 238.217 149.597 237.369 148.259 237.369C147.275 237.369 146.631 237.825 146.328 238.52H146.248V237.455H145.025V244H146.299V240.114ZM160.277 239.053C160.013 238.034 159.216 237.369 157.801 237.369C156.322 237.369 155.274 238.149 155.274 239.308C155.274 240.237 155.837 240.855 157.064 241.128L158.172 241.371C158.803 241.511 159.097 241.793 159.097 242.202C159.097 242.709 158.555 243.105 157.72 243.105C156.957 243.105 156.467 242.777 156.314 242.134L155.082 242.321C155.295 243.48 156.259 244.132 157.729 244.132C159.31 244.132 160.405 243.293 160.405 242.108C160.405 241.183 159.817 240.612 158.615 240.335L157.575 240.097C156.855 239.926 156.544 239.683 156.548 239.24C156.544 238.737 157.089 238.379 157.814 238.379C158.607 238.379 158.973 238.818 159.122 239.257L160.277 239.053ZM165.952 241.286C165.956 242.398 165.13 242.926 164.414 242.926C163.625 242.926 163.08 242.355 163.08 241.464V237.455H161.806V241.618C161.806 243.241 162.696 244.085 163.953 244.085C164.938 244.085 165.607 243.565 165.909 242.866H165.978V244H167.23V237.455H165.952V241.286ZM169.045 244H170.289V242.982H170.396C170.626 243.399 171.094 244.128 172.288 244.128C173.873 244.128 175.023 242.858 175.023 240.74C175.023 238.618 173.856 237.369 172.275 237.369C171.06 237.369 170.621 238.111 170.396 238.516H170.319V235.273H169.045V244ZM170.293 240.727C170.293 239.359 170.89 238.452 172.002 238.452C173.157 238.452 173.737 239.428 173.737 240.727C173.737 242.04 173.14 243.041 172.002 243.041C170.907 243.041 170.293 242.104 170.293 240.727ZM176.454 244H177.728V239.964C177.728 239.082 178.346 238.469 179.071 238.469C179.778 238.469 180.268 238.938 180.268 239.649V244H181.538V239.828C181.538 239.04 182.02 238.469 182.85 238.469C183.524 238.469 184.078 238.844 184.078 239.73V244H185.352V239.611C185.352 238.115 184.517 237.369 183.332 237.369C182.39 237.369 181.683 237.821 181.368 238.52H181.299C181.014 237.804 180.413 237.369 179.539 237.369C178.674 237.369 178.031 237.8 177.758 238.52H177.677V237.455H176.454V244ZM187.06 244H188.334V237.455H187.06V244ZM187.703 236.445C188.142 236.445 188.509 236.104 188.509 235.686C188.509 235.268 188.142 234.923 187.703 234.923C187.26 234.923 186.898 235.268 186.898 235.686C186.898 236.104 187.26 236.445 187.703 236.445ZM193.103 237.455H191.761V235.886H190.487V237.455H189.528V238.477H190.487V242.342C190.483 243.531 191.39 244.107 192.396 244.085C192.801 244.081 193.074 244.004 193.223 243.949L192.993 242.896C192.907 242.913 192.75 242.952 192.545 242.952C192.132 242.952 191.761 242.815 191.761 242.078V238.477H193.103V237.455ZM197.568 237.455H196.226V235.886H194.952V237.455H193.993V238.477H194.952V242.342C194.947 243.531 195.855 244.107 196.861 244.085C197.266 244.081 197.538 244.004 197.688 243.949L197.457 242.896C197.372 242.913 197.214 242.952 197.01 242.952C196.597 242.952 196.226 242.815 196.226 242.078V238.477H197.568V237.455ZM200.882 244.145C201.965 244.145 202.574 243.595 202.817 243.105H202.868V244H204.113V239.653C204.113 237.749 202.613 237.369 201.573 237.369C200.388 237.369 199.297 237.847 198.871 239.04L200.069 239.312C200.256 238.848 200.733 238.401 201.59 238.401C202.412 238.401 202.834 238.831 202.834 239.572V239.602C202.834 240.067 202.357 240.058 201.181 240.195C199.941 240.339 198.671 240.663 198.671 242.151C198.671 243.438 199.638 244.145 200.882 244.145ZM201.159 243.122C200.439 243.122 199.919 242.798 199.919 242.168C199.919 241.486 200.525 241.243 201.262 241.145C201.675 241.089 202.655 240.979 202.838 240.795V241.639C202.838 242.415 202.221 243.122 201.159 243.122ZM207.084 235.273H205.81V244H207.084V235.273ZM213.703 239.053C213.439 238.034 212.642 237.369 211.227 237.369C209.748 237.369 208.7 238.149 208.7 239.308C208.7 240.237 209.262 240.855 210.49 241.128L211.598 241.371C212.228 241.511 212.522 241.793 212.522 242.202C212.522 242.709 211.981 243.105 211.146 243.105C210.383 243.105 209.893 242.777 209.74 242.134L208.508 242.321C208.721 243.48 209.684 244.132 211.154 244.132C212.735 244.132 213.831 243.293 213.831 242.108C213.831 241.183 213.243 240.612 212.041 240.335L211.001 240.097C210.281 239.926 209.97 239.683 209.974 239.24C209.97 238.737 210.515 238.379 211.24 238.379C212.032 238.379 212.399 238.818 212.548 239.257L213.703 239.053Z" fill="#657FAB"/>
<rect x="64.25" y="252.25" width="56.5" height="23.5" rx="3.75" stroke="#657FAB" stroke-width="0.5"/>
<path d="M73.125 268C75.3409 268 76.5909 266.622 76.5909 264.349C76.5909 262.091 75.3409 260.727 73.2244 260.727H70.8807V268H73.125ZM71.7614 267.219V261.509H73.1676C74.8722 261.509 75.7386 262.588 75.7386 264.349C75.7386 266.125 74.8722 267.219 73.0682 267.219H71.7614ZM81.392 265.77C81.392 266.793 80.6108 267.261 79.9858 267.261C79.2898 267.261 78.7926 266.75 78.7926 265.955V262.545H77.9545V266.011C77.9545 267.403 78.6932 268.071 79.7159 268.071C80.5398 268.071 81.0795 267.631 81.3352 267.077H81.392V268H82.2301V262.545H81.392V265.77ZM86.052 268.114C87.16 268.114 87.9696 267.56 88.2253 266.736L87.4157 266.509C87.2026 267.077 86.709 267.361 86.052 267.361C85.0684 267.361 84.3901 266.725 84.351 265.557H88.3105V265.202C88.3105 263.17 87.1032 262.474 85.9668 262.474C84.4895 262.474 83.5094 263.639 83.5094 265.315C83.5094 266.991 84.4753 268.114 86.052 268.114ZM84.351 264.832C84.4078 263.984 85.008 263.227 85.9668 263.227C86.8759 263.227 87.4583 263.909 87.4583 264.832H84.351ZM96.2615 263.767C95.9988 262.993 95.4093 262.474 94.3297 262.474C93.1792 262.474 92.3269 263.128 92.3269 264.051C92.3269 264.804 92.7743 265.308 93.7757 265.543L94.6848 265.756C95.2353 265.884 95.4945 266.146 95.4945 266.523C95.4945 266.991 94.9973 267.375 94.2161 267.375C93.5307 267.375 93.101 267.08 92.9519 266.494L92.1564 266.693C92.3517 267.62 93.1152 268.114 94.2303 268.114C95.498 268.114 96.361 267.421 96.361 266.48C96.361 265.72 95.8851 265.241 94.9121 265.003L94.1025 264.804C93.4561 264.644 93.165 264.428 93.165 264.009C93.165 263.54 93.6621 263.199 94.3297 263.199C95.0613 263.199 95.3631 263.604 95.5087 263.98L96.2615 263.767ZM99.8384 268.114C101.316 268.114 102.31 266.991 102.31 265.301C102.31 263.597 101.316 262.474 99.8384 262.474C98.3612 262.474 97.3668 263.597 97.3668 265.301C97.3668 266.991 98.3612 268.114 99.8384 268.114ZM99.8384 267.361C98.7163 267.361 98.2049 266.395 98.2049 265.301C98.2049 264.207 98.7163 263.227 99.8384 263.227C100.961 263.227 101.472 264.207 101.472 265.301C101.472 266.395 100.961 267.361 99.8384 267.361ZM105.805 268.114C107.282 268.114 108.277 266.991 108.277 265.301C108.277 263.597 107.282 262.474 105.805 262.474C104.328 262.474 103.334 263.597 103.334 265.301C103.334 266.991 104.328 268.114 105.805 268.114ZM105.805 267.361C104.683 267.361 104.172 266.395 104.172 265.301C104.172 264.207 104.683 263.227 105.805 263.227C106.927 263.227 107.439 264.207 107.439 265.301C107.439 266.395 106.927 267.361 105.805 267.361ZM110.394 264.719C110.394 263.767 110.984 263.227 111.786 263.227C112.564 263.227 113.036 263.735 113.036 264.591V268H113.874V264.534C113.874 263.142 113.132 262.474 112.028 262.474C111.204 262.474 110.692 262.844 110.437 263.398H110.366V262.545H109.556V268H110.394V264.719Z" fill="#2C2D53"/>
<circle cx="39" cy="252" r="6.25" stroke="#657FAB" stroke-width="1.5"/>
<defs>
<filter id="filter0_d" x="0" y="0" width="297" height="846" filterUnits="userSpaceOnUse" color-interpolation-filters="sRGB">
<feFlood flood-opacity="0" result="BackgroundImageFix"/>
<feColorMatrix in="SourceAlpha" type="matrix" values="0 0 0 0 0 0 0 0 0 0 0 0 0 0 0 0 0 0 127 0"/>
<feOffset/>
<feGaussianBlur stdDeviation="4"/>
<feColorMatrix type="matrix" values="0 0 0 0 0.385 0 0 0 0 0.445978 0 0 0 0 0.55 0 0 0 0.19 0"/>
<feBlend mode="normal" in2="BackgroundImageFix" result="effect1_dropShadow"/>
<feBlend mode="normal" in="SourceGraphic" in2="effect1_dropShadow" result="shape"/>
</filter>
</defs>
</svg>
