<svg width="832" height="252" viewBox="0 0 832 252" fill="none" xmlns="http://www.w3.org/2000/svg">
<rect x="637" y="128" width="195" height="28" rx="14" fill="#D6D9F4"/>
<rect x="254" width="340" height="160" rx="14" fill="#F7FAFF"/>
<rect width="211" height="219" rx="14" fill="#F7FAFF"/>
<path d="M651.616 138.141H654.788V147H656.32V138.141H659.496V136.818H651.616V138.141ZM663.228 147.154C665.38 147.154 666.787 145.578 666.787 143.217C666.787 140.84 665.38 139.264 663.228 139.264C661.075 139.264 659.668 140.84 659.668 143.217C659.668 145.578 661.075 147.154 663.228 147.154ZM663.233 145.906C661.826 145.906 661.169 144.678 661.169 143.212C661.169 141.75 661.826 140.507 663.233 140.507C664.63 140.507 665.286 141.75 665.286 143.212C665.286 144.678 664.63 145.906 663.233 145.906ZM677.874 141.228C677.566 140.04 676.636 139.264 674.985 139.264C673.26 139.264 672.037 140.174 672.037 141.526C672.037 142.61 672.694 143.331 674.125 143.649L675.418 143.933C676.154 144.097 676.497 144.425 676.497 144.902C676.497 145.494 675.865 145.956 674.891 145.956C674.001 145.956 673.429 145.573 673.25 144.822L671.814 145.041C672.062 146.393 673.186 147.154 674.901 147.154C676.745 147.154 678.023 146.175 678.023 144.793C678.023 143.714 677.337 143.048 675.935 142.724L674.722 142.446C673.882 142.247 673.519 141.964 673.524 141.447C673.519 140.86 674.155 140.442 675 140.442C675.925 140.442 676.353 140.955 676.527 141.467L677.874 141.228ZM684.495 143.833C684.5 145.131 683.535 145.747 682.7 145.747C681.78 145.747 681.144 145.081 681.144 144.042V139.364H679.657V144.221C679.657 146.115 680.697 147.099 682.163 147.099C683.312 147.099 684.092 146.493 684.445 145.678H684.525V147H685.986V139.364H684.495V143.833ZM688.103 147H689.555V145.812H689.679C689.947 146.299 690.494 147.149 691.886 147.149C693.736 147.149 695.078 145.668 695.078 143.197C695.078 140.721 693.716 139.264 691.871 139.264C690.455 139.264 689.942 140.129 689.679 140.602H689.589V136.818H688.103V147ZM689.56 143.182C689.56 141.586 690.256 140.527 691.553 140.527C692.901 140.527 693.577 141.665 693.577 143.182C693.577 144.713 692.881 145.881 691.553 145.881C690.276 145.881 689.56 144.788 689.56 143.182ZM696.747 147H698.234V142.292C698.234 141.263 698.955 140.547 699.8 140.547C700.625 140.547 701.197 141.094 701.197 141.924V147H702.678V142.133C702.678 141.213 703.24 140.547 704.21 140.547C704.995 140.547 705.642 140.984 705.642 142.018V147H707.128V141.879C707.128 140.134 706.154 139.264 704.771 139.264C703.673 139.264 702.847 139.791 702.48 140.607H702.4C702.067 139.771 701.366 139.264 700.347 139.264C699.338 139.264 698.587 139.766 698.269 140.607H698.174V139.364H696.747V147ZM709.12 147H710.607V139.364H709.12V147ZM709.871 138.185C710.383 138.185 710.811 137.788 710.811 137.3C710.811 136.813 710.383 136.411 709.871 136.411C709.354 136.411 708.931 136.813 708.931 137.3C708.931 137.788 709.354 138.185 709.871 138.185ZM716.171 139.364H714.605V137.534H713.119V139.364H712V140.557H713.119V145.066C713.114 146.453 714.173 147.124 715.346 147.099C715.818 147.094 716.137 147.005 716.311 146.94L716.042 145.712C715.943 145.732 715.759 145.777 715.52 145.777C715.038 145.777 714.605 145.618 714.605 144.758V140.557H716.171V139.364ZM721.38 139.364H719.814V137.534H718.328V139.364H717.209V140.557H718.328V145.066C718.323 146.453 719.382 147.124 720.555 147.099C721.027 147.094 721.346 147.005 721.52 146.94L721.251 145.712C721.152 145.732 720.968 145.777 720.729 145.777C720.247 145.777 719.814 145.618 719.814 144.758V140.557H721.38V139.364ZM725.247 147.169C726.51 147.169 727.221 146.528 727.504 145.956H727.564V147H729.015V141.929C729.015 139.707 727.265 139.264 726.052 139.264C724.67 139.264 723.398 139.821 722.9 141.213L724.297 141.531C724.516 140.989 725.073 140.467 726.072 140.467C727.032 140.467 727.524 140.969 727.524 141.835V141.869C727.524 142.411 726.967 142.401 725.595 142.56C724.148 142.729 722.667 143.107 722.667 144.842C722.667 146.344 723.795 147.169 725.247 147.169ZM725.57 145.976C724.73 145.976 724.123 145.598 724.123 144.862C724.123 144.067 724.829 143.783 725.689 143.669C726.172 143.604 727.315 143.475 727.529 143.261V144.246C727.529 145.151 726.808 145.976 725.57 145.976ZM732.482 136.818H730.995V147H732.482V136.818ZM741.045 147.149C742.438 147.149 742.984 146.299 743.253 145.812H743.377V147H744.829V136.818H743.342V140.602H743.253C742.984 140.129 742.477 139.264 741.055 139.264C739.211 139.264 737.854 140.721 737.854 143.197C737.854 145.668 739.191 147.149 741.045 147.149ZM741.374 145.881C740.046 145.881 739.355 144.713 739.355 143.182C739.355 141.665 740.031 140.527 741.374 140.527C742.671 140.527 743.367 141.586 743.367 143.182C743.367 144.788 742.656 145.881 741.374 145.881ZM750.242 147.154C751.907 147.154 753.085 146.334 753.423 145.091L752.017 144.837C751.748 145.558 751.102 145.926 750.257 145.926C748.984 145.926 748.129 145.101 748.089 143.629H753.518V143.102C753.518 140.343 751.867 139.264 750.137 139.264C748.009 139.264 746.607 140.885 746.607 143.232C746.607 145.603 747.99 147.154 750.242 147.154ZM748.094 142.516C748.154 141.432 748.939 140.492 750.147 140.492C751.301 140.492 752.056 141.347 752.061 142.516H748.094ZM758.732 139.364H757.166V137.534H755.679V139.364H754.561V140.557H755.679V145.066C755.674 146.453 756.733 147.124 757.907 147.099C758.379 147.094 758.697 147.005 758.871 146.94L758.603 145.712C758.503 145.732 758.319 145.777 758.081 145.777C757.598 145.777 757.166 145.618 757.166 144.758V140.557H758.732V139.364ZM762.599 147.169C763.861 147.169 764.572 146.528 764.856 145.956H764.915V147H766.367V141.929C766.367 139.707 764.617 139.264 763.404 139.264C762.022 139.264 760.749 139.821 760.252 141.213L761.649 141.531C761.868 140.989 762.425 140.467 763.424 140.467C764.383 140.467 764.876 140.969 764.876 141.835V141.869C764.876 142.411 764.319 142.401 762.947 142.56C761.5 142.729 760.018 143.107 760.018 144.842C760.018 146.344 761.147 147.169 762.599 147.169ZM762.922 145.976C762.081 145.976 761.475 145.598 761.475 144.862C761.475 144.067 762.181 143.783 763.041 143.669C763.523 143.604 764.667 143.475 764.881 143.261V144.246C764.881 145.151 764.16 145.976 762.922 145.976ZM768.347 147H769.833V139.364H768.347V147ZM769.098 138.185C769.61 138.185 770.037 137.788 770.037 137.3C770.037 136.813 769.61 136.411 769.098 136.411C768.581 136.411 768.158 136.813 768.158 137.3C768.158 137.788 768.581 138.185 769.098 138.185ZM773.32 136.818H771.833V147H773.32V136.818ZM779.025 149.864H780.511V145.812H780.601C780.869 146.299 781.416 147.149 782.808 147.149C784.657 147.149 786 145.668 786 143.197C786 140.721 784.638 139.264 782.793 139.264C781.376 139.264 780.864 140.129 780.601 140.602H780.476V139.364H779.025V149.864ZM780.481 143.182C780.481 141.586 781.177 140.527 782.475 140.527C783.822 140.527 784.498 141.665 784.498 143.182C784.498 144.713 783.802 145.881 782.475 145.881C781.197 145.881 780.481 144.788 780.481 143.182ZM789.888 147.169C791.15 147.169 791.861 146.528 792.145 145.956H792.204V147H793.656V141.929C793.656 139.707 791.906 139.264 790.693 139.264C789.311 139.264 788.038 139.821 787.541 141.213L788.938 141.531C789.157 140.989 789.714 140.467 790.713 140.467C791.672 140.467 792.165 140.969 792.165 141.835V141.869C792.165 142.411 791.608 142.401 790.236 142.56C788.789 142.729 787.307 143.107 787.307 144.842C787.307 146.344 788.436 147.169 789.888 147.169ZM790.211 145.976C789.371 145.976 788.764 145.598 788.764 144.862C788.764 144.067 789.47 143.783 790.33 143.669C790.812 143.604 791.956 143.475 792.17 143.261V144.246C792.17 145.151 791.449 145.976 790.211 145.976ZM798.838 150.023C800.782 150.023 802.283 149.133 802.283 147.169V139.364H800.826V140.602H800.717C800.453 140.129 799.926 139.264 798.505 139.264C796.66 139.264 795.303 140.721 795.303 143.152C795.303 145.588 796.69 146.886 798.495 146.886C799.897 146.886 800.439 146.095 800.707 145.608H800.801V147.109C800.801 148.308 799.981 148.825 798.853 148.825C797.615 148.825 797.132 148.203 796.869 147.766L795.591 148.293C795.994 149.227 797.013 150.023 798.838 150.023ZM798.823 145.653C797.495 145.653 796.804 144.634 796.804 143.132C796.804 141.665 797.48 140.527 798.823 140.527C800.12 140.527 800.816 141.586 800.816 143.132C800.816 144.708 800.105 145.653 798.823 145.653ZM807.568 147.154C809.233 147.154 810.412 146.334 810.75 145.091L809.343 144.837C809.074 145.558 808.428 145.926 807.583 145.926C806.31 145.926 805.455 145.101 805.415 143.629H810.844V143.102C810.844 140.343 809.194 139.264 807.463 139.264C805.336 139.264 803.934 140.885 803.934 143.232C803.934 145.603 805.316 147.154 807.568 147.154ZM805.42 142.516C805.48 141.432 806.265 140.492 807.473 140.492C808.627 140.492 809.382 141.347 809.387 142.516H805.42ZM818.216 141.228C817.907 140.04 816.978 139.264 815.327 139.264C813.602 139.264 812.379 140.174 812.379 141.526C812.379 142.61 813.035 143.331 814.467 143.649L815.76 143.933C816.496 144.097 816.839 144.425 816.839 144.902C816.839 145.494 816.207 145.956 815.233 145.956C814.343 145.956 813.771 145.573 813.592 144.822L812.155 145.041C812.404 146.393 813.528 147.154 815.243 147.154C817.087 147.154 818.365 146.175 818.365 144.793C818.365 143.714 817.679 143.048 816.277 142.724L815.064 142.446C814.224 142.247 813.861 141.964 813.866 141.447C813.861 140.86 814.497 140.442 815.342 140.442C816.267 140.442 816.694 140.955 816.868 141.467L818.216 141.228Z" fill="#3447D3"/>
<path d="M299.337 32.8182H297.815V40.2955H297.721L292.54 32.8182H291.119V43H292.655V35.5327H292.749L297.925 43H299.337V32.8182ZM304.675 43.1541C306.828 43.1541 308.235 41.5781 308.235 39.2166C308.235 36.8402 306.828 35.2642 304.675 35.2642C302.522 35.2642 301.115 36.8402 301.115 39.2166C301.115 41.5781 302.522 43.1541 304.675 43.1541ZM304.68 41.9062C303.273 41.9062 302.617 40.6783 302.617 39.2116C302.617 37.75 303.273 36.5071 304.68 36.5071C306.077 36.5071 306.733 37.75 306.733 39.2116C306.733 40.6783 306.077 41.9062 304.68 41.9062ZM313.458 35.3636H311.892V33.5341H310.406V35.3636H309.287V36.5568H310.406V41.0661C310.401 42.4531 311.46 43.1243 312.633 43.0994C313.105 43.0945 313.424 43.005 313.598 42.9403L313.329 41.7124C313.23 41.7322 313.046 41.777 312.807 41.777C312.325 41.777 311.892 41.6179 311.892 40.7578V36.5568H313.458V35.3636ZM315.103 43H316.589V35.3636H315.103V43ZM315.854 34.1854C316.366 34.1854 316.793 33.7876 316.793 33.3004C316.793 32.8132 316.366 32.4105 315.854 32.4105C315.336 32.4105 314.914 32.8132 314.914 33.3004C314.914 33.7876 315.336 34.1854 315.854 34.1854ZM322.223 35.3636H320.578V34.6776C320.578 34.0014 320.856 33.6335 321.582 33.6335C321.89 33.6335 322.109 33.7031 322.248 33.7479L322.596 32.5447C322.387 32.4652 321.955 32.3409 321.353 32.3409C320.145 32.3409 319.086 33.0469 319.086 34.4787V35.3636H317.908V36.5568H319.086V43H320.578V36.5568H322.223V35.3636ZM323.757 43H325.244V35.3636H323.757V43ZM324.508 34.1854C325.02 34.1854 325.447 33.7876 325.447 33.3004C325.447 32.8132 325.02 32.4105 324.508 32.4105C323.991 32.4105 323.568 32.8132 323.568 33.3004C323.568 33.7876 323.991 34.1854 324.508 34.1854ZM330.46 43.1541C332.265 43.1541 333.433 42.0703 333.597 40.5838H332.15C331.961 41.4091 331.32 41.8963 330.47 41.8963C329.212 41.8963 328.402 40.8473 328.402 39.1818C328.402 37.5462 329.227 36.517 330.47 36.517C331.415 36.517 331.991 37.1136 332.15 37.8295H333.597C333.438 36.2884 332.18 35.2642 330.445 35.2642C328.292 35.2642 326.9 36.8849 326.9 39.2166C326.9 41.5185 328.243 43.1541 330.46 43.1541ZM337.409 43.169C338.672 43.169 339.383 42.5277 339.666 41.956H339.726V43H341.178V37.929C341.178 35.7067 339.428 35.2642 338.214 35.2642C336.832 35.2642 335.56 35.821 335.062 37.2131L336.46 37.5312C336.678 36.9893 337.235 36.4673 338.234 36.4673C339.194 36.4673 339.686 36.9695 339.686 37.8345V37.8693C339.686 38.4112 339.129 38.4013 337.757 38.5604C336.31 38.7294 334.829 39.1072 334.829 40.8423C334.829 42.3438 335.957 43.169 337.409 43.169ZM337.732 41.9759C336.892 41.9759 336.286 41.598 336.286 40.8622C336.286 40.0668 336.991 39.7834 337.852 39.669C338.334 39.6044 339.477 39.4751 339.691 39.2614V40.2457C339.691 41.1506 338.97 41.9759 337.732 41.9759ZM346.722 35.3636H345.156V33.5341H343.67V35.3636H342.551V36.5568H343.67V41.0661C343.665 42.4531 344.724 43.1243 345.897 43.0994C346.369 43.0945 346.687 43.005 346.861 42.9403L346.593 41.7124C346.493 41.7322 346.309 41.777 346.071 41.777C345.589 41.777 345.156 41.6179 345.156 40.7578V36.5568H346.722V35.3636ZM348.366 43H349.853V35.3636H348.366V43ZM349.117 34.1854C349.629 34.1854 350.057 33.7876 350.057 33.3004C350.057 32.8132 349.629 32.4105 349.117 32.4105C348.6 32.4105 348.178 32.8132 348.178 33.3004C348.178 33.7876 348.6 34.1854 349.117 34.1854ZM355.069 43.1541C357.222 43.1541 358.629 41.5781 358.629 39.2166C358.629 36.8402 357.222 35.2642 355.069 35.2642C352.917 35.2642 351.51 36.8402 351.51 39.2166C351.51 41.5781 352.917 43.1541 355.069 43.1541ZM355.074 41.9062C353.667 41.9062 353.011 40.6783 353.011 39.2116C353.011 37.75 353.667 36.5071 355.074 36.5071C356.471 36.5071 357.128 37.75 357.128 39.2116C357.128 40.6783 356.471 41.9062 355.074 41.9062ZM361.775 38.4659C361.775 37.2479 362.521 36.5518 363.555 36.5518C364.564 36.5518 365.175 37.2131 365.175 38.3217V43H366.662V38.1428C366.662 36.2536 365.623 35.2642 364.062 35.2642C362.913 35.2642 362.163 35.7962 361.81 36.6065H361.715V35.3636H360.288V43H361.775V38.4659ZM374.378 37.228C374.07 36.0398 373.14 35.2642 371.489 35.2642C369.764 35.2642 368.541 36.174 368.541 37.5263C368.541 38.6101 369.197 39.331 370.629 39.6491L371.922 39.9325C372.658 40.0966 373.001 40.4247 373.001 40.902C373.001 41.4936 372.369 41.956 371.395 41.956C370.505 41.956 369.933 41.5732 369.754 40.8224L368.317 41.0412C368.566 42.3935 369.69 43.1541 371.405 43.1541C373.249 43.1541 374.527 42.1747 374.527 40.7926C374.527 39.7138 373.841 39.0476 372.439 38.7244L371.226 38.446C370.386 38.2472 370.023 37.9638 370.028 37.4467C370.023 36.8601 370.659 36.4425 371.504 36.4425C372.429 36.4425 372.857 36.9545 373.031 37.4666L374.378 37.228Z" fill="#2C2D53"/>
<path d="M36.6165 34.1406H39.7884V43H41.3196V34.1406H44.4964V32.8182H36.6165V34.1406ZM47.3017 43.169C48.5645 43.169 49.2754 42.5277 49.5588 41.956H49.6184V43H51.0701V37.929C51.0701 35.7067 49.3201 35.2642 48.1071 35.2642C46.725 35.2642 45.4522 35.821 44.9551 37.2131L46.3521 37.5312C46.5708 36.9893 47.1277 36.4673 48.127 36.4673C49.0865 36.4673 49.5787 36.9695 49.5787 37.8345V37.8693C49.5787 38.4112 49.0218 38.4013 47.6497 38.5604C46.2029 38.7294 44.7214 39.1072 44.7214 40.8423C44.7214 42.3438 45.85 43.169 47.3017 43.169ZM47.6248 41.9759C46.7846 41.9759 46.1781 41.598 46.1781 40.8622C46.1781 40.0668 46.8841 39.7834 47.7441 39.669C48.2264 39.6044 49.3699 39.4751 49.5836 39.2614V40.2457C49.5836 41.1506 48.8627 41.9759 47.6248 41.9759ZM58.7724 37.228C58.4641 36.0398 57.5344 35.2642 55.8839 35.2642C54.1587 35.2642 52.9357 36.174 52.9357 37.5263C52.9357 38.6101 53.592 39.331 55.0238 39.6491L56.3164 39.9325C57.0522 40.0966 57.3952 40.4247 57.3952 40.902C57.3952 41.4936 56.7638 41.956 55.7894 41.956C54.8995 41.956 54.3278 41.5732 54.1488 40.8224L52.712 41.0412C52.9606 42.3935 54.0842 43.1541 55.7994 43.1541C57.6438 43.1541 58.9215 42.1747 58.9215 40.7926C58.9215 39.7138 58.2354 39.0476 56.8335 38.7244L55.6204 38.446C54.7802 38.2472 54.4173 37.9638 54.4222 37.4467C54.4173 36.8601 55.0536 36.4425 55.8988 36.4425C56.8235 36.4425 57.2511 36.9545 57.4251 37.4666L58.7724 37.228ZM60.5559 43H62.0424V40.2905L62.7832 39.5497L65.3784 43H67.2029L63.9018 38.6399L66.9941 35.3636H65.2143L62.1717 38.5952H62.0424V32.8182H60.5559V43Z" fill="#2C2D53"/>
<path d="M299.963 81.9091C299.963 78.6527 298.014 76.679 295.379 76.679C292.734 76.679 290.79 78.6527 290.79 81.9091C290.79 85.1605 292.734 87.1392 295.379 87.1392C298.014 87.1392 299.963 85.1655 299.963 81.9091ZM298.442 81.9091C298.442 84.3899 297.129 85.7372 295.379 85.7372C293.624 85.7372 292.317 84.3899 292.317 81.9091C292.317 79.4283 293.624 78.081 295.379 78.081C297.129 78.081 298.442 79.4283 298.442 81.9091ZM308.292 79.3636H306.696L304.767 85.2401H304.687L302.753 79.3636H301.157L303.932 87H305.523L308.292 79.3636ZM312.706 87.1541C314.372 87.1541 315.55 86.3338 315.888 85.0909L314.481 84.8374C314.213 85.5582 313.567 85.9261 312.721 85.9261C311.449 85.9261 310.594 85.1009 310.554 83.6293H315.983V83.1023C315.983 80.343 314.332 79.2642 312.602 79.2642C310.474 79.2642 309.072 80.8849 309.072 83.2315C309.072 85.603 310.454 87.1541 312.706 87.1541ZM310.559 82.5156C310.618 81.4318 311.404 80.4922 312.612 80.4922C313.765 80.4922 314.521 81.3473 314.526 82.5156H310.559ZM317.632 87H319.119V82.3366C319.119 81.3374 319.889 80.6165 320.943 80.6165C321.251 80.6165 321.599 80.6712 321.719 80.706V79.2841C321.57 79.2642 321.276 79.2493 321.087 79.2493C320.192 79.2493 319.427 79.7564 319.148 80.5767H319.069V79.3636H317.632V87ZM325.59 87.1491C326.982 87.1491 327.529 86.299 327.798 85.8118H327.922V87H329.374V76.8182H327.887V80.6016H327.798C327.529 80.1293 327.022 79.2642 325.6 79.2642C323.756 79.2642 322.399 80.7209 322.399 83.1967C322.399 85.6676 323.736 87.1491 325.59 87.1491ZM325.919 85.8814C324.591 85.8814 323.9 84.7131 323.9 83.1818C323.9 81.6655 324.576 80.527 325.919 80.527C327.216 80.527 327.912 81.5859 327.912 83.1818C327.912 84.7876 327.201 85.8814 325.919 85.8814ZM336.333 83.8331C336.338 85.1307 335.373 85.7472 334.538 85.7472C333.618 85.7472 332.982 85.081 332.982 84.0419V79.3636H331.495V84.2209C331.495 86.1151 332.534 87.0994 334.001 87.0994C335.15 87.0994 335.93 86.4929 336.283 85.6776H336.363V87H337.824V79.3636H336.333V83.8331ZM343.113 87.1541C344.778 87.1541 345.956 86.3338 346.295 85.0909L344.888 84.8374C344.619 85.5582 343.973 85.9261 343.128 85.9261C341.855 85.9261 341 85.1009 340.96 83.6293H346.389V83.1023C346.389 80.343 344.738 79.2642 343.008 79.2642C340.881 79.2642 339.479 80.8849 339.479 83.2315C339.479 85.603 340.861 87.1541 343.113 87.1541ZM340.965 82.5156C341.025 81.4318 341.81 80.4922 343.018 80.4922C344.172 80.4922 344.927 81.3473 344.932 82.5156H340.965ZM351.916 76.3409H350.589L347.308 88.5312H348.635L351.916 76.3409ZM360.3 87C363.402 87 365.197 85.076 365.197 81.8942C365.197 78.7273 363.402 76.8182 360.404 76.8182H357.003V87H360.3ZM358.54 85.6577V78.1605H360.309C362.537 78.1605 363.685 79.4929 363.685 81.8942C363.685 84.3054 362.537 85.6577 360.215 85.6577H358.54ZM371.825 83.8331C371.83 85.1307 370.865 85.7472 370.03 85.7472C369.11 85.7472 368.474 85.081 368.474 84.0419V79.3636H366.988V84.2209C366.988 86.1151 368.027 87.0994 369.493 87.0994C370.642 87.0994 371.422 86.4929 371.775 85.6776H371.855V87H373.316V79.3636H371.825V83.8331ZM378.605 87.1541C380.27 87.1541 381.449 86.3338 381.787 85.0909L380.38 84.8374C380.111 85.5582 379.465 85.9261 378.62 85.9261C377.347 85.9261 376.492 85.1009 376.452 83.6293H381.881V83.1023C381.881 80.343 380.231 79.2642 378.501 79.2642C376.373 79.2642 374.971 80.8849 374.971 83.2315C374.971 85.603 376.353 87.1541 378.605 87.1541ZM376.457 82.5156C376.517 81.4318 377.302 80.4922 378.51 80.4922C379.664 80.4922 380.42 81.3473 380.425 82.5156H376.457ZM392.958 81.228C392.65 80.0398 391.72 79.2642 390.069 79.2642C388.344 79.2642 387.121 80.174 387.121 81.5263C387.121 82.6101 387.778 83.331 389.209 83.6491L390.502 83.9325C391.238 84.0966 391.581 84.4247 391.581 84.902C391.581 85.4936 390.949 85.956 389.975 85.956C389.085 85.956 388.513 85.5732 388.334 84.8224L386.898 85.0412C387.146 86.3935 388.27 87.1541 389.985 87.1541C391.829 87.1541 393.107 86.1747 393.107 84.7926C393.107 83.7138 392.421 83.0476 391.019 82.7244L389.806 82.446C388.966 82.2472 388.603 81.9638 388.608 81.4467C388.603 80.8601 389.239 80.4425 390.084 80.4425C391.009 80.4425 391.437 80.9545 391.611 81.4666L392.958 81.228ZM397.958 87.1541C400.111 87.1541 401.518 85.5781 401.518 83.2166C401.518 80.8402 400.111 79.2642 397.958 79.2642C395.805 79.2642 394.398 80.8402 394.398 83.2166C394.398 85.5781 395.805 87.1541 397.958 87.1541ZM397.963 85.9062C396.556 85.9062 395.9 84.6783 395.9 83.2116C395.9 81.75 396.556 80.5071 397.963 80.5071C399.36 80.5071 400.016 81.75 400.016 83.2116C400.016 84.6783 399.36 85.9062 397.963 85.9062ZM406.394 87.1541C408.546 87.1541 409.953 85.5781 409.953 83.2166C409.953 80.8402 408.546 79.2642 406.394 79.2642C404.241 79.2642 402.834 80.8402 402.834 83.2166C402.834 85.5781 404.241 87.1541 406.394 87.1541ZM406.399 85.9062C404.992 85.9062 404.335 84.6783 404.335 83.2116C404.335 81.75 404.992 80.5071 406.399 80.5071C407.796 80.5071 408.452 81.75 408.452 83.2116C408.452 84.6783 407.796 85.9062 406.399 85.9062ZM413.099 82.4659C413.099 81.2479 413.845 80.5518 414.879 80.5518C415.888 80.5518 416.5 81.2131 416.5 82.3217V87H417.986V82.1428C417.986 80.2536 416.947 79.2642 415.386 79.2642C414.238 79.2642 413.487 79.7962 413.134 80.6065H413.039V79.3636H411.613V87H413.099V82.4659ZM423.858 76.3409H422.53L419.249 88.5312H420.576L423.858 76.3409ZM437.163 76.8182H435.642V84.2955H435.547L430.367 76.8182H428.945V87H430.481V79.5327H430.575L435.751 87H437.163V76.8182ZM442.576 87.1541C444.241 87.1541 445.419 86.3338 445.757 85.0909L444.35 84.8374C444.082 85.5582 443.436 85.9261 442.591 85.9261C441.318 85.9261 440.463 85.1009 440.423 83.6293H445.852V83.1023C445.852 80.343 444.201 79.2642 442.471 79.2642C440.343 79.2642 438.941 80.8849 438.941 83.2315C438.941 85.603 440.324 87.1541 442.576 87.1541ZM440.428 82.5156C440.488 81.4318 441.273 80.4922 442.481 80.4922C443.635 80.4922 444.39 81.3473 444.395 82.5156H440.428ZM449.143 87H450.654L452.206 81.4865H452.32L453.871 87H455.387L457.63 79.3636H456.093L454.607 84.9467H454.532L453.041 79.3636H451.505L450.003 84.9716H449.929L448.432 79.3636H446.896L449.143 87ZM468.418 79.4929H469.9C469.855 77.8622 468.413 76.679 466.345 76.679C464.301 76.679 462.735 77.8473 462.735 79.6023C462.735 81.0192 463.75 81.8494 465.385 82.2919L466.588 82.62C467.677 82.9084 468.517 83.2663 468.517 84.1712C468.517 85.1655 467.568 85.8217 466.26 85.8217C465.077 85.8217 464.093 85.2947 464.003 84.1861H462.462C462.561 86.0305 463.988 87.169 466.27 87.169C468.662 87.169 470.039 85.9112 470.039 84.1861C470.039 82.3516 468.403 81.6406 467.11 81.3224L466.116 81.0639C465.321 80.8601 464.262 80.4872 464.267 79.5128C464.267 78.6477 465.057 78.0064 466.31 78.0064C467.478 78.0064 468.309 78.5533 468.418 79.4929ZM476.593 83.8331C476.597 85.1307 475.633 85.7472 474.798 85.7472C473.878 85.7472 473.242 85.081 473.242 84.0419V79.3636H471.755V84.2209C471.755 86.1151 472.794 87.0994 474.261 87.0994C475.409 87.0994 476.19 86.4929 476.543 85.6776H476.622V87H478.084V79.3636H476.593V83.8331ZM480.201 87H481.652V85.8118H481.777C482.045 86.299 482.592 87.1491 483.984 87.1491C485.833 87.1491 487.176 85.6676 487.176 83.1967C487.176 80.7209 485.814 79.2642 483.969 79.2642C482.552 79.2642 482.04 80.1293 481.777 80.6016H481.687V76.8182H480.201V87ZM481.657 83.1818C481.657 81.5859 482.353 80.527 483.651 80.527C484.998 80.527 485.674 81.6655 485.674 83.1818C485.674 84.7131 484.978 85.8814 483.651 85.8814C482.373 85.8814 481.657 84.7876 481.657 83.1818ZM488.845 87H490.331V82.2919C490.331 81.2628 491.052 80.5469 491.898 80.5469C492.723 80.5469 493.295 81.0938 493.295 81.924V87H494.776V82.1328C494.776 81.2131 495.338 80.5469 496.307 80.5469C497.093 80.5469 497.739 80.9844 497.739 82.0185V87H499.226V81.8793C499.226 80.1342 498.251 79.2642 496.869 79.2642C495.77 79.2642 494.945 79.7912 494.577 80.6065H494.498C494.165 79.7713 493.464 79.2642 492.444 79.2642C491.435 79.2642 490.684 79.7663 490.366 80.6065H490.272V79.3636H488.845V87ZM501.218 87H502.705V79.3636H501.218V87ZM501.969 78.1854C502.481 78.1854 502.908 77.7876 502.908 77.3004C502.908 76.8132 502.481 76.4105 501.969 76.4105C501.452 76.4105 501.029 76.8132 501.029 77.3004C501.029 77.7876 501.452 78.1854 501.969 78.1854ZM508.269 79.3636H506.703V77.5341H505.216V79.3636H504.098V80.5568H505.216V85.0661C505.211 86.4531 506.27 87.1243 507.444 87.0994C507.916 87.0945 508.234 87.005 508.408 86.9403L508.14 85.7124C508.04 85.7322 507.856 85.777 507.618 85.777C507.135 85.777 506.703 85.6179 506.703 84.7578V80.5568H508.269V79.3636ZM513.478 79.3636H511.912V77.5341H510.425V79.3636H509.307V80.5568H510.425V85.0661C510.42 86.4531 511.479 87.1243 512.653 87.0994C513.125 87.0945 513.443 87.005 513.617 86.9403L513.349 85.7124C513.249 85.7322 513.065 85.777 512.827 85.777C512.344 85.777 511.912 85.6179 511.912 84.7578V80.5568H513.478V79.3636ZM517.345 87.169C518.607 87.169 519.318 86.5277 519.602 85.956H519.661V87H521.113V81.929C521.113 79.7067 519.363 79.2642 518.15 79.2642C516.768 79.2642 515.495 79.821 514.998 81.2131L516.395 81.5312C516.614 80.9893 517.171 80.4673 518.17 80.4673C519.129 80.4673 519.622 80.9695 519.622 81.8345V81.8693C519.622 82.4112 519.065 82.4013 517.693 82.5604C516.246 82.7294 514.764 83.1072 514.764 84.8423C514.764 86.3438 515.893 87.169 517.345 87.169ZM517.668 85.9759C516.828 85.9759 516.221 85.598 516.221 84.8622C516.221 84.0668 516.927 83.7834 517.787 83.669C518.269 83.6044 519.413 83.4751 519.627 83.2614V84.2457C519.627 85.1506 518.906 85.9759 517.668 85.9759ZM524.58 76.8182H523.093V87H524.58V76.8182ZM530.404 87H536.554V85.6776H531.94V76.8182H530.404V87ZM538.187 87H539.673V79.3636H538.187V87ZM538.938 78.1854C539.45 78.1854 539.877 77.7876 539.877 77.3004C539.877 76.8132 539.45 76.4105 538.938 76.4105C538.42 76.4105 537.998 76.8132 537.998 77.3004C537.998 77.7876 538.42 78.1854 538.938 78.1854ZM547.395 81.228C547.087 80.0398 546.157 79.2642 544.507 79.2642C542.782 79.2642 541.559 80.174 541.559 81.5263C541.559 82.6101 542.215 83.331 543.647 83.6491L544.939 83.9325C545.675 84.0966 546.018 84.4247 546.018 84.902C546.018 85.4936 545.387 85.956 544.412 85.956C543.523 85.956 542.951 85.5732 542.772 84.8224L541.335 85.0412C541.584 86.3935 542.707 87.1541 544.422 87.1541C546.267 87.1541 547.545 86.1747 547.545 84.7926C547.545 83.7138 546.858 83.0476 545.456 82.7244L544.243 82.446C543.403 82.2472 543.04 81.9638 543.045 81.4467C543.04 80.8601 543.677 80.4425 544.522 80.4425C545.447 80.4425 545.874 80.9545 546.048 81.4666L547.395 81.228ZM552.744 79.3636H551.178V77.5341H549.691V79.3636H548.572V80.5568H549.691V85.0661C549.686 86.4531 550.745 87.1243 551.918 87.0994C552.391 87.0945 552.709 87.005 552.883 86.9403L552.614 85.7124C552.515 85.7322 552.331 85.777 552.092 85.777C551.61 85.777 551.178 85.6179 551.178 84.7578V80.5568H552.744V79.3636Z" fill="#2C2D53"/>
<path d="M37.1186 87H43.5618V85.6776H38.6548V82.5604H43.169V81.2429H38.6548V78.1406H43.5021V76.8182H37.1186V87ZM46.6081 79.3636H44.9775L47.324 83.1818L44.9476 87H46.5783L48.2935 84.1463L50.0137 87H51.6394L49.2381 83.1818L51.6195 79.3636H49.9938L48.2935 82.3366L46.6081 79.3636ZM53.1458 87H54.6323V79.3636H53.1458V87ZM53.8965 78.1854C54.4086 78.1854 54.8361 77.7876 54.8361 77.3004C54.8361 76.8132 54.4086 76.4105 53.8965 76.4105C53.3794 76.4105 52.9569 76.8132 52.9569 77.3004C52.9569 77.7876 53.3794 78.1854 53.8965 78.1854ZM62.3544 81.228C62.0462 80.0398 61.1165 79.2642 59.4659 79.2642C57.7408 79.2642 56.5178 80.174 56.5178 81.5263C56.5178 82.6101 57.174 83.331 58.6058 83.6491L59.8984 83.9325C60.6342 84.0966 60.9773 84.4247 60.9773 84.902C60.9773 85.4936 60.3459 85.956 59.3714 85.956C58.4815 85.956 57.9098 85.5732 57.7308 84.8224L56.294 85.0412C56.5426 86.3935 57.6662 87.1541 59.3814 87.1541C61.2259 87.1541 62.5036 86.1747 62.5036 84.7926C62.5036 83.7138 61.8175 83.0476 60.4155 82.7244L59.2024 82.446C58.3622 82.2472 57.9993 81.9638 58.0043 81.4467C57.9993 80.8601 58.6357 80.4425 59.4808 80.4425C60.4055 80.4425 60.8331 80.9545 61.0071 81.4666L62.3544 81.228ZM67.7026 79.3636H66.1365V77.5341H64.65V79.3636H63.5314V80.5568H64.65V85.0661C64.6451 86.4531 65.704 87.1243 66.8773 87.0994C67.3496 87.0945 67.6678 87.005 67.8418 86.9403L67.5733 85.7124C67.4739 85.7322 67.29 85.777 67.0513 85.777C66.5691 85.777 66.1365 85.6179 66.1365 84.7578V80.5568H67.7026V79.3636ZM69.3469 87H70.8335V79.3636H69.3469V87ZM70.0977 78.1854C70.6097 78.1854 71.0373 77.7876 71.0373 77.3004C71.0373 76.8132 70.6097 76.4105 70.0977 76.4105C69.5806 76.4105 69.158 76.8132 69.158 77.3004C69.158 77.7876 69.5806 78.1854 70.0977 78.1854ZM74.3198 82.4659C74.3198 81.2479 75.0655 80.5518 76.0996 80.5518C77.1088 80.5518 77.7203 81.2131 77.7203 82.3217V87H79.2069V82.1428C79.2069 80.2536 78.1678 79.2642 76.6067 79.2642C75.4583 79.2642 74.7076 79.7962 74.3546 80.6065H74.2601V79.3636H72.8333V87H74.3198V82.4659ZM84.4022 90.0227C86.3461 90.0227 87.8475 89.1328 87.8475 87.169V79.3636H86.3908V80.6016H86.2814C86.0179 80.1293 85.4909 79.2642 84.0691 79.2642C82.2246 79.2642 80.8674 80.7209 80.8674 83.152C80.8674 85.5881 82.2544 86.8857 84.0591 86.8857C85.4611 86.8857 86.003 86.0952 86.2715 85.608H86.3659V87.1094C86.3659 88.3075 85.5456 88.8246 84.4171 88.8246C83.1792 88.8246 82.6969 88.2031 82.4334 87.7656L81.1557 88.2926C81.5584 89.2273 82.5776 90.0227 84.4022 90.0227ZM84.3873 85.6527C83.0598 85.6527 82.3688 84.6335 82.3688 83.1321C82.3688 81.6655 83.0449 80.527 84.3873 80.527C85.6848 80.527 86.3809 81.5859 86.3809 83.1321C86.3809 84.7081 85.6699 85.6527 84.3873 85.6527ZM97.1108 79.3636H95.5447V77.5341H94.0582V79.3636H92.9396V80.5568H94.0582V85.0661C94.0533 86.4531 95.1122 87.1243 96.2855 87.0994C96.7578 87.0945 97.076 87.005 97.25 86.9403L96.9815 85.7124C96.8821 85.7322 96.6982 85.777 96.4595 85.777C95.9773 85.777 95.5447 85.6179 95.5447 84.7578V80.5568H97.1108V79.3636ZM100.977 87.169C102.24 87.169 102.951 86.5277 103.235 85.956H103.294V87H104.746V81.929C104.746 79.7067 102.996 79.2642 101.783 79.2642C100.401 79.2642 99.128 79.821 98.6309 81.2131L100.028 81.5312C100.247 80.9893 100.803 80.4673 101.803 80.4673C102.762 80.4673 103.254 80.9695 103.254 81.8345V81.8693C103.254 82.4112 102.698 82.4013 101.325 82.5604C99.8787 82.7294 98.3972 83.1072 98.3972 84.8423C98.3972 86.3438 99.5257 87.169 100.977 87.169ZM101.301 85.9759C100.46 85.9759 99.8539 85.598 99.8539 84.8622C99.8539 84.0668 100.56 83.7834 101.42 83.669C101.902 83.6044 103.046 83.4751 103.259 83.2614V84.2457C103.259 85.1506 102.539 85.9759 101.301 85.9759ZM112.448 81.228C112.14 80.0398 111.21 79.2642 109.56 79.2642C107.835 79.2642 106.612 80.174 106.612 81.5263C106.612 82.6101 107.268 83.331 108.7 83.6491L109.992 83.9325C110.728 84.0966 111.071 84.4247 111.071 84.902C111.071 85.4936 110.44 85.956 109.465 85.956C108.575 85.956 108.004 85.5732 107.825 84.8224L106.388 85.0412C106.636 86.3935 107.76 87.1541 109.475 87.1541C111.32 87.1541 112.597 86.1747 112.597 84.7926C112.597 83.7138 111.911 83.0476 110.509 82.7244L109.296 82.446C108.456 82.2472 108.093 81.9638 108.098 81.4467C108.093 80.8601 108.729 80.4425 109.575 80.4425C110.499 80.4425 110.927 80.9545 111.101 81.4666L112.448 81.228ZM114.232 87H115.718V84.2905L116.459 83.5497L119.054 87H120.879L117.578 82.6399L120.67 79.3636H118.89L115.847 82.5952H115.718V76.8182H114.232V87Z" fill="#2C2D53"/>
<path d="M45.5753 146.129C45.2273 143.952 43.522 142.679 41.3693 142.679C38.7344 142.679 36.7905 144.653 36.7905 147.909C36.7905 151.165 38.7244 153.139 41.3693 153.139C43.6065 153.139 45.2422 151.737 45.5753 149.724L44.0241 149.719C43.7607 151.021 42.6669 151.737 41.3793 151.737C39.6342 151.737 38.3168 150.4 38.3168 147.909C38.3168 145.438 39.6293 144.081 41.3842 144.081C42.6818 144.081 43.7706 144.812 44.0241 146.129H45.5753ZM47.2942 153H48.7807V148.337C48.7807 147.337 49.5513 146.616 50.6053 146.616C50.9135 146.616 51.2615 146.671 51.3809 146.706V145.284C51.2317 145.264 50.9384 145.249 50.7495 145.249C49.8546 145.249 49.089 145.756 48.8105 146.577H48.731V145.364H47.2942V153ZM55.685 153.154C57.3505 153.154 58.5288 152.334 58.8668 151.091L57.4599 150.837C57.1914 151.558 56.5451 151.926 55.6999 151.926C54.4272 151.926 53.5721 151.101 53.5323 149.629H58.9613V149.102C58.9613 146.343 57.3107 145.264 55.5806 145.264C53.4528 145.264 52.0508 146.885 52.0508 149.232C52.0508 151.603 53.4329 153.154 55.685 153.154ZM53.5373 148.516C53.5969 147.432 54.3825 146.492 55.5906 146.492C56.744 146.492 57.4996 147.347 57.5046 148.516H53.5373ZM62.8329 153.169C64.0957 153.169 64.8066 152.528 65.09 151.956H65.1497V153H66.6014V147.929C66.6014 145.707 64.8514 145.264 63.6383 145.264C62.2562 145.264 60.9835 145.821 60.4863 147.213L61.8833 147.531C62.1021 146.989 62.6589 146.467 63.6582 146.467C64.6177 146.467 65.1099 146.969 65.1099 147.835V147.869C65.1099 148.411 64.5531 148.401 63.1809 148.56C61.7342 148.729 60.2527 149.107 60.2527 150.842C60.2527 152.344 61.3812 153.169 62.8329 153.169ZM63.1561 151.976C62.3159 151.976 61.7093 151.598 61.7093 150.862C61.7093 150.067 62.4153 149.783 63.2754 149.669C63.7576 149.604 64.9011 149.475 65.1149 149.261V150.246C65.1149 151.151 64.394 151.976 63.1561 151.976ZM72.146 145.364H70.5799V143.534H69.0934V145.364H67.9748V146.557H69.0934V151.066C69.0884 152.453 70.1474 153.124 71.3207 153.099C71.793 153.094 72.1112 153.005 72.2852 152.94L72.0167 151.712C71.9173 151.732 71.7333 151.777 71.4947 151.777C71.0124 151.777 70.5799 151.618 70.5799 150.758V146.557H72.146V145.364ZM76.9995 153.154C78.665 153.154 79.8432 152.334 80.1813 151.091L78.7743 150.837C78.5059 151.558 77.8596 151.926 77.0144 151.926C75.7417 151.926 74.8865 151.101 74.8468 149.629H80.2757V149.102C80.2757 146.343 78.6252 145.264 76.8951 145.264C74.7672 145.264 73.3652 146.885 73.3652 149.232C73.3652 151.603 74.7473 153.154 76.9995 153.154ZM74.8517 148.516C74.9114 147.432 75.6969 146.492 76.905 146.492C78.0584 146.492 78.8141 147.347 78.8191 148.516H74.8517ZM87.1167 148.466C87.1167 147.248 87.8624 146.552 88.8965 146.552C89.9057 146.552 90.5172 147.213 90.5172 148.322V153H92.0037V148.143C92.0037 146.254 90.9647 145.264 89.4036 145.264C88.2551 145.264 87.5044 145.796 87.1515 146.607H87.057V145.364H85.6301V153H87.1167V148.466ZM97.2885 153.154C98.954 153.154 100.132 152.334 100.47 151.091L99.0634 150.837C98.7949 151.558 98.1486 151.926 97.3034 151.926C96.0307 151.926 95.1756 151.101 95.1358 149.629H100.565V149.102C100.565 146.343 98.9142 145.264 97.1841 145.264C95.0563 145.264 93.6543 146.885 93.6543 149.232C93.6543 151.603 95.0364 153.154 97.2885 153.154ZM95.1408 148.516C95.2005 147.432 95.986 146.492 97.1941 146.492C98.3475 146.492 99.1032 147.347 99.1081 148.516H95.1408ZM103.856 153H105.367L106.919 147.487H107.033L108.584 153H110.1L112.343 145.364H110.806L109.32 150.947H109.245L107.754 145.364H106.218L104.716 150.972H104.642L103.145 145.364H101.609L103.856 153ZM121.023 145.364H119.457V143.534H117.97V145.364H116.852V146.557H117.97V151.066C117.965 152.453 119.024 153.124 120.198 153.099C120.67 153.094 120.988 153.005 121.162 152.94L120.894 151.712C120.794 151.732 120.61 151.777 120.372 151.777C119.889 151.777 119.457 151.618 119.457 150.758V146.557H121.023V145.364ZM124.89 153.169C126.152 153.169 126.863 152.528 127.147 151.956H127.206V153H128.658V147.929C128.658 145.707 126.908 145.264 125.695 145.264C124.313 145.264 123.04 145.821 122.543 147.213L123.94 147.531C124.159 146.989 124.716 146.467 125.715 146.467C126.674 146.467 127.167 146.969 127.167 147.835V147.869C127.167 148.411 126.61 148.401 125.238 148.56C123.791 148.729 122.309 149.107 122.309 150.842C122.309 152.344 123.438 153.169 124.89 153.169ZM125.213 151.976C124.373 151.976 123.766 151.598 123.766 150.862C123.766 150.067 124.472 149.783 125.332 149.669C125.814 149.604 126.958 149.475 127.172 149.261V150.246C127.172 151.151 126.451 151.976 125.213 151.976ZM136.36 147.228C136.052 146.04 135.122 145.264 133.472 145.264C131.747 145.264 130.524 146.174 130.524 147.526C130.524 148.61 131.18 149.331 132.612 149.649L133.904 149.933C134.64 150.097 134.983 150.425 134.983 150.902C134.983 151.494 134.352 151.956 133.377 151.956C132.487 151.956 131.916 151.573 131.737 150.822L130.3 151.041C130.548 152.393 131.672 153.154 133.387 153.154C135.232 153.154 136.509 152.175 136.509 150.793C136.509 149.714 135.823 149.048 134.421 148.724L133.208 148.446C132.368 148.247 132.005 147.964 132.01 147.447C132.005 146.86 132.642 146.442 133.487 146.442C134.411 146.442 134.839 146.955 135.013 147.467L136.36 147.228ZM138.144 153H139.63V150.29L140.371 149.55L142.966 153H144.791L141.49 148.64L144.582 145.364H142.802L139.76 148.595H139.63V142.818H138.144V153Z" fill="#2C2D53"/>
<path d="M387.119 125H388.655V121.147H390.743C390.778 121.147 390.808 121.147 390.842 121.147L392.911 125H394.661L392.403 120.879C393.651 120.416 394.273 119.377 394.273 118.01C394.273 116.136 393.109 114.818 390.748 114.818H387.119V125ZM388.655 119.825V116.136H390.584C392.1 116.136 392.727 116.857 392.727 118.01C392.727 119.158 392.1 119.825 390.604 119.825H388.655ZM399.218 125.154C400.884 125.154 402.062 124.334 402.4 123.091L400.993 122.837C400.725 123.558 400.078 123.926 399.233 123.926C397.96 123.926 397.105 123.101 397.066 121.629H402.494V121.102C402.494 118.343 400.844 117.264 399.114 117.264C396.986 117.264 395.584 118.885 395.584 121.232C395.584 123.603 396.966 125.154 399.218 125.154ZM397.07 120.516C397.13 119.432 397.916 118.492 399.124 118.492C400.277 118.492 401.033 119.347 401.038 120.516H397.07ZM410.444 117.364H408.848L406.919 123.24H406.84L404.906 117.364H403.31L406.084 125H407.675L410.444 117.364ZM411.841 125H413.328V117.364H411.841V125ZM412.592 116.185C413.104 116.185 413.531 115.788 413.531 115.3C413.531 114.813 413.104 114.411 412.592 114.411C412.075 114.411 411.652 114.813 411.652 115.3C411.652 115.788 412.075 116.185 412.592 116.185ZM418.619 125.154C420.284 125.154 421.462 124.334 421.8 123.091L420.393 122.837C420.125 123.558 419.479 123.926 418.634 123.926C417.361 123.926 416.506 123.101 416.466 121.629H421.895V121.102C421.895 118.343 420.244 117.264 418.514 117.264C416.386 117.264 414.984 118.885 414.984 121.232C414.984 123.603 416.366 125.154 418.619 125.154ZM416.471 120.516C416.531 119.432 417.316 118.492 418.524 118.492C419.678 118.492 420.433 119.347 420.438 120.516H416.471ZM425.186 125H426.697L428.249 119.487H428.363L429.914 125H431.43L433.673 117.364H432.136L430.65 122.947H430.575L429.084 117.364H427.548L426.046 122.972H425.972L424.475 117.364H422.939L425.186 125Z" fill="#3447D3"/>
<path d="M37.1186 172H38.6548V168.147H40.7429C40.7777 168.147 40.8075 168.147 40.8423 168.147L42.9105 172H44.6605L42.4034 167.879C43.6513 167.416 44.2727 166.377 44.2727 165.01C44.2727 163.136 43.1094 161.818 40.7479 161.818H37.1186V172ZM38.6548 166.825V163.136H40.5838C42.1001 163.136 42.7266 163.857 42.7266 165.01C42.7266 166.158 42.1001 166.825 40.6037 166.825H38.6548ZM49.2182 172.154C50.8837 172.154 52.062 171.334 52.4 170.091L50.9931 169.837C50.7246 170.558 50.0783 170.926 49.2331 170.926C47.9604 170.926 47.1053 170.101 47.0655 168.629H52.4945V168.102C52.4945 165.343 50.8439 164.264 49.1138 164.264C46.986 164.264 45.584 165.885 45.584 168.232C45.584 170.603 46.9661 172.154 49.2182 172.154ZM47.0705 167.516C47.1301 166.432 47.9157 165.492 49.1238 165.492C50.2772 165.492 51.0328 166.347 51.0378 167.516H47.0705ZM55.6303 161.818H54.1438V172H55.6303V161.818ZM59.8525 172.169C61.1152 172.169 61.8262 171.528 62.1096 170.956H62.1692V172H63.6209V166.929C63.6209 164.707 61.8709 164.264 60.6578 164.264C59.2757 164.264 58.003 164.821 57.5059 166.213L58.9029 166.531C59.1216 165.989 59.6784 165.467 60.6777 165.467C61.6373 165.467 62.1294 165.969 62.1294 166.835V166.869C62.1294 167.411 61.5726 167.401 60.2005 167.56C58.7537 167.729 57.2722 168.107 57.2722 169.842C57.2722 171.344 58.4007 172.169 59.8525 172.169ZM60.1756 170.976C59.3354 170.976 58.7289 170.598 58.7289 169.862C58.7289 169.067 59.4348 168.783 60.2949 168.669C60.7772 168.604 61.9206 168.475 62.1344 168.261V169.246C62.1344 170.151 61.4135 170.976 60.1756 170.976ZM69.1655 164.364H67.5994V162.534H66.1129V164.364H64.9943V165.557H66.1129V170.066C66.108 171.453 67.1669 172.124 68.3402 172.099C68.8125 172.094 69.1307 172.005 69.3047 171.94L69.0362 170.712C68.9368 170.732 68.7528 170.777 68.5142 170.777C68.032 170.777 67.5994 170.618 67.5994 169.758V165.557H69.1655V164.364ZM74.019 172.154C75.6845 172.154 76.8627 171.334 77.2008 170.091L75.7939 169.837C75.5254 170.558 74.8791 170.926 74.0339 170.926C72.7612 170.926 71.9061 170.101 71.8663 168.629H77.2953V168.102C77.2953 165.343 75.6447 164.264 73.9146 164.264C71.7868 164.264 70.3848 165.885 70.3848 168.232C70.3848 170.603 71.7669 172.154 74.019 172.154ZM71.8713 167.516C71.9309 166.432 72.7164 165.492 73.9245 165.492C75.0779 165.492 75.8336 166.347 75.8386 167.516H71.8713ZM81.8033 172.149C83.1953 172.149 83.7422 171.299 84.0107 170.812H84.1349V172H85.5866V161.818H84.1001V165.602H84.0107C83.7422 165.129 83.2351 164.264 81.8132 164.264C79.9688 164.264 78.6115 165.721 78.6115 168.197C78.6115 170.668 79.9489 172.149 81.8033 172.149ZM82.1314 170.881C80.804 170.881 80.1129 169.713 80.1129 168.182C80.1129 166.665 80.7891 165.527 82.1314 165.527C83.429 165.527 84.125 166.586 84.125 168.182C84.125 169.788 83.4141 170.881 82.1314 170.881ZM97.1357 166.228C96.8274 165.04 95.8977 164.264 94.2472 164.264C92.522 164.264 91.299 165.174 91.299 166.526C91.299 167.61 91.9553 168.331 93.3871 168.649L94.6797 168.933C95.4155 169.097 95.7585 169.425 95.7585 169.902C95.7585 170.494 95.1271 170.956 94.1527 170.956C93.2628 170.956 92.6911 170.573 92.5121 169.822L91.0753 170.041C91.3239 171.393 92.4474 172.154 94.1626 172.154C96.0071 172.154 97.2848 171.175 97.2848 169.793C97.2848 168.714 96.5987 168.048 95.1967 167.724L93.9837 167.446C93.1435 167.247 92.7805 166.964 92.7855 166.447C92.7805 165.86 93.4169 165.442 94.2621 165.442C95.1868 165.442 95.6143 165.955 95.7884 166.467L97.1357 166.228ZM103.757 168.833C103.762 170.131 102.797 170.747 101.962 170.747C101.042 170.747 100.406 170.081 100.406 169.042V164.364H98.9192V169.221C98.9192 171.115 99.9583 172.099 101.425 172.099C102.573 172.099 103.354 171.493 103.707 170.678H103.786V172H105.248V164.364H103.757V168.833ZM107.365 172H108.816V170.812H108.941C109.209 171.299 109.756 172.149 111.148 172.149C112.998 172.149 114.34 170.668 114.34 168.197C114.34 165.721 112.978 164.264 111.133 164.264C109.716 164.264 109.204 165.129 108.941 165.602H108.851V161.818H107.365V172ZM108.821 168.182C108.821 166.586 109.517 165.527 110.815 165.527C112.162 165.527 112.838 166.665 112.838 168.182C112.838 169.713 112.142 170.881 110.815 170.881C109.537 170.881 108.821 169.788 108.821 168.182ZM116.009 172H117.496V167.292C117.496 166.263 118.216 165.547 119.062 165.547C119.887 165.547 120.459 166.094 120.459 166.924V172H121.94V167.133C121.94 166.213 122.502 165.547 123.471 165.547C124.257 165.547 124.903 165.984 124.903 167.018V172H126.39V166.879C126.39 165.134 125.415 164.264 124.033 164.264C122.934 164.264 122.109 164.791 121.741 165.607H121.662C121.329 164.771 120.628 164.264 119.608 164.264C118.599 164.264 117.849 164.766 117.53 165.607H117.436V164.364H116.009V172ZM128.382 172H129.869V164.364H128.382V172ZM129.133 163.185C129.645 163.185 130.072 162.788 130.072 162.3C130.072 161.813 129.645 161.411 129.133 161.411C128.616 161.411 128.193 161.813 128.193 162.3C128.193 162.788 128.616 163.185 129.133 163.185ZM135.433 164.364H133.867V162.534H132.381V164.364H131.262V165.557H132.381V170.066C132.376 171.453 133.434 172.124 134.608 172.099C135.08 172.094 135.398 172.005 135.572 171.94L135.304 170.712C135.204 170.732 135.02 170.777 134.782 170.777C134.3 170.777 133.867 170.618 133.867 169.758V165.557H135.433V164.364ZM140.642 164.364H139.076V162.534H137.589V164.364H136.471V165.557H137.589V170.066C137.585 171.453 138.643 172.124 139.817 172.099C140.289 172.094 140.607 172.005 140.781 171.94L140.513 170.712C140.413 170.732 140.229 170.777 139.991 170.777C139.509 170.777 139.076 170.618 139.076 169.758V165.557H140.642V164.364ZM144.509 172.169C145.771 172.169 146.482 171.528 146.766 170.956H146.825V172H148.277V166.929C148.277 164.707 146.527 164.264 145.314 164.264C143.932 164.264 142.659 164.821 142.162 166.213L143.559 166.531C143.778 165.989 144.335 165.467 145.334 165.467C146.294 165.467 146.786 165.969 146.786 166.835V166.869C146.786 167.411 146.229 167.401 144.857 167.56C143.41 167.729 141.928 168.107 141.928 169.842C141.928 171.344 143.057 172.169 144.509 172.169ZM144.832 170.976C143.992 170.976 143.385 170.598 143.385 169.862C143.385 169.067 144.091 168.783 144.951 168.669C145.433 168.604 146.577 168.475 146.791 168.261V169.246C146.791 170.151 146.07 170.976 144.832 170.976ZM151.744 161.818H150.257V172H151.744V161.818ZM159.466 166.228C159.157 165.04 158.228 164.264 156.577 164.264C154.852 164.264 153.629 165.174 153.629 166.526C153.629 167.61 154.285 168.331 155.717 168.649L157.01 168.933C157.746 169.097 158.089 169.425 158.089 169.902C158.089 170.494 157.457 170.956 156.483 170.956C155.593 170.956 155.021 170.573 154.842 169.822L153.405 170.041C153.654 171.393 154.778 172.154 156.493 172.154C158.337 172.154 159.615 171.175 159.615 169.793C159.615 168.714 158.929 168.048 157.527 167.724L156.314 167.446C155.474 167.247 155.111 166.964 155.116 166.447C155.111 165.86 155.747 165.442 156.592 165.442C157.517 165.442 157.944 165.955 158.118 166.467L159.466 166.228Z" fill="#3447D3"/>
<path d="M37.1186 109H38.6548V105.147H40.7429C40.7777 105.147 40.8075 105.147 40.8423 105.147L42.9105 109H44.6605L42.4034 104.879C43.6513 104.416 44.2727 103.377 44.2727 102.01C44.2727 100.136 43.1094 98.8182 40.7479 98.8182H37.1186V109ZM38.6548 103.825V100.136H40.5838C42.1001 100.136 42.7266 100.857 42.7266 102.01C42.7266 103.158 42.1001 103.825 40.6037 103.825H38.6548ZM49.2182 109.154C50.8837 109.154 52.062 108.334 52.4 107.091L50.9931 106.837C50.7246 107.558 50.0783 107.926 49.2331 107.926C47.9604 107.926 47.1053 107.101 47.0655 105.629H52.4945V105.102C52.4945 102.343 50.8439 101.264 49.1138 101.264C46.986 101.264 45.584 102.885 45.584 105.232C45.584 107.603 46.9661 109.154 49.2182 109.154ZM47.0705 104.516C47.1301 103.432 47.9157 102.492 49.1238 102.492C50.2772 102.492 51.0328 103.347 51.0378 104.516H47.0705ZM55.6303 98.8182H54.1438V109H55.6303V98.8182ZM59.8525 109.169C61.1152 109.169 61.8262 108.528 62.1096 107.956H62.1692V109H63.6209V103.929C63.6209 101.707 61.8709 101.264 60.6578 101.264C59.2757 101.264 58.003 101.821 57.5059 103.213L58.9029 103.531C59.1216 102.989 59.6784 102.467 60.6777 102.467C61.6373 102.467 62.1294 102.969 62.1294 103.835V103.869C62.1294 104.411 61.5726 104.401 60.2005 104.56C58.7537 104.729 57.2722 105.107 57.2722 106.842C57.2722 108.344 58.4007 109.169 59.8525 109.169ZM60.1756 107.976C59.3354 107.976 58.7289 107.598 58.7289 106.862C58.7289 106.067 59.4348 105.783 60.2949 105.669C60.7772 105.604 61.9206 105.475 62.1344 105.261V106.246C62.1344 107.151 61.4135 107.976 60.1756 107.976ZM69.1655 101.364H67.5994V99.5341H66.1129V101.364H64.9943V102.557H66.1129V107.066C66.108 108.453 67.1669 109.124 68.3402 109.099C68.8125 109.094 69.1307 109.005 69.3047 108.94L69.0362 107.712C68.9368 107.732 68.7528 107.777 68.5142 107.777C68.032 107.777 67.5994 107.618 67.5994 106.758V102.557H69.1655V101.364ZM74.019 109.154C75.6845 109.154 76.8627 108.334 77.2008 107.091L75.7939 106.837C75.5254 107.558 74.8791 107.926 74.0339 107.926C72.7612 107.926 71.9061 107.101 71.8663 105.629H77.2953V105.102C77.2953 102.343 75.6447 101.264 73.9146 101.264C71.7868 101.264 70.3848 102.885 70.3848 105.232C70.3848 107.603 71.7669 109.154 74.019 109.154ZM71.8713 104.516C71.9309 103.432 72.7164 102.492 73.9245 102.492C75.0779 102.492 75.8336 103.347 75.8386 104.516H71.8713ZM81.8033 109.149C83.1953 109.149 83.7422 108.299 84.0107 107.812H84.1349V109H85.5866V98.8182H84.1001V102.602H84.0107C83.7422 102.129 83.2351 101.264 81.8132 101.264C79.9688 101.264 78.6115 102.721 78.6115 105.197C78.6115 107.668 79.9489 109.149 81.8033 109.149ZM82.1314 107.881C80.804 107.881 80.1129 106.713 80.1129 105.182C80.1129 103.665 80.7891 102.527 82.1314 102.527C83.429 102.527 84.125 103.586 84.125 105.182C84.125 106.788 83.4141 107.881 82.1314 107.881ZM97.1357 103.228C96.8274 102.04 95.8977 101.264 94.2472 101.264C92.522 101.264 91.299 102.174 91.299 103.526C91.299 104.61 91.9553 105.331 93.3871 105.649L94.6797 105.933C95.4155 106.097 95.7585 106.425 95.7585 106.902C95.7585 107.494 95.1271 107.956 94.1527 107.956C93.2628 107.956 92.6911 107.573 92.5121 106.822L91.0753 107.041C91.3239 108.393 92.4474 109.154 94.1626 109.154C96.0071 109.154 97.2848 108.175 97.2848 106.793C97.2848 105.714 96.5987 105.048 95.1967 104.724L93.9837 104.446C93.1435 104.247 92.7805 103.964 92.7855 103.447C92.7805 102.86 93.4169 102.442 94.2621 102.442C95.1868 102.442 95.6143 102.955 95.7884 103.467L97.1357 103.228ZM103.757 105.833C103.762 107.131 102.797 107.747 101.962 107.747C101.042 107.747 100.406 107.081 100.406 106.042V101.364H98.9192V106.221C98.9192 108.115 99.9583 109.099 101.425 109.099C102.573 109.099 103.354 108.493 103.707 107.678H103.786V109H105.248V101.364H103.757V105.833ZM107.365 109H108.816V107.812H108.941C109.209 108.299 109.756 109.149 111.148 109.149C112.998 109.149 114.34 107.668 114.34 105.197C114.34 102.721 112.978 101.264 111.133 101.264C109.716 101.264 109.204 102.129 108.941 102.602H108.851V98.8182H107.365V109ZM108.821 105.182C108.821 103.586 109.517 102.527 110.815 102.527C112.162 102.527 112.838 103.665 112.838 105.182C112.838 106.713 112.142 107.881 110.815 107.881C109.537 107.881 108.821 106.788 108.821 105.182ZM116.009 109H117.496V104.292C117.496 103.263 118.216 102.547 119.062 102.547C119.887 102.547 120.459 103.094 120.459 103.924V109H121.94V104.133C121.94 103.213 122.502 102.547 123.471 102.547C124.257 102.547 124.903 102.984 124.903 104.018V109H126.39V103.879C126.39 102.134 125.415 101.264 124.033 101.264C122.934 101.264 122.109 101.791 121.741 102.607H121.662C121.329 101.771 120.628 101.264 119.608 101.264C118.599 101.264 117.849 101.766 117.53 102.607H117.436V101.364H116.009V109ZM128.382 109H129.869V101.364H128.382V109ZM129.133 100.185C129.645 100.185 130.072 99.7876 130.072 99.3004C130.072 98.8132 129.645 98.4105 129.133 98.4105C128.616 98.4105 128.193 98.8132 128.193 99.3004C128.193 99.7876 128.616 100.185 129.133 100.185ZM135.433 101.364H133.867V99.5341H132.381V101.364H131.262V102.557H132.381V107.066C132.376 108.453 133.434 109.124 134.608 109.099C135.08 109.094 135.398 109.005 135.572 108.94L135.304 107.712C135.204 107.732 135.02 107.777 134.782 107.777C134.3 107.777 133.867 107.618 133.867 106.758V102.557H135.433V101.364ZM140.642 101.364H139.076V99.5341H137.589V101.364H136.471V102.557H137.589V107.066C137.585 108.453 138.643 109.124 139.817 109.099C140.289 109.094 140.607 109.005 140.781 108.94L140.513 107.712C140.413 107.732 140.229 107.777 139.991 107.777C139.509 107.777 139.076 107.618 139.076 106.758V102.557H140.642V101.364ZM144.509 109.169C145.771 109.169 146.482 108.528 146.766 107.956H146.825V109H148.277V103.929C148.277 101.707 146.527 101.264 145.314 101.264C143.932 101.264 142.659 101.821 142.162 103.213L143.559 103.531C143.778 102.989 144.335 102.467 145.334 102.467C146.294 102.467 146.786 102.969 146.786 103.835V103.869C146.786 104.411 146.229 104.401 144.857 104.56C143.41 104.729 141.928 105.107 141.928 106.842C141.928 108.344 143.057 109.169 144.509 109.169ZM144.832 107.976C143.992 107.976 143.385 107.598 143.385 106.862C143.385 106.067 144.091 105.783 144.951 105.669C145.433 105.604 146.577 105.475 146.791 105.261V106.246C146.791 107.151 146.07 107.976 144.832 107.976ZM151.744 98.8182H150.257V109H151.744V98.8182ZM159.466 103.228C159.157 102.04 158.228 101.264 156.577 101.264C154.852 101.264 153.629 102.174 153.629 103.526C153.629 104.61 154.285 105.331 155.717 105.649L157.01 105.933C157.746 106.097 158.089 106.425 158.089 106.902C158.089 107.494 157.457 107.956 156.483 107.956C155.593 107.956 155.021 107.573 154.842 106.822L153.405 107.041C153.654 108.393 154.778 109.154 156.493 109.154C158.337 109.154 159.615 108.175 159.615 106.793C159.615 105.714 158.929 105.048 157.527 104.724L156.314 104.446C155.474 104.247 155.111 103.964 155.116 103.447C155.111 102.86 155.747 102.442 156.592 102.442C157.517 102.442 157.944 102.955 158.118 103.467L159.466 103.228Z" fill="#3447D3"/>
<path d="M478.979 125L479.913 122.305H483.891L484.82 125H486.451L482.787 114.818H481.012L477.348 125H478.979ZM480.361 121.013L481.862 116.668H481.942L483.443 121.013H480.361ZM490.538 125.149C491.93 125.149 492.477 124.299 492.745 123.812H492.869V125H494.321V114.818H492.835V118.602H492.745C492.477 118.129 491.969 117.264 490.548 117.264C488.703 117.264 487.346 118.721 487.346 121.197C487.346 123.668 488.683 125.149 490.538 125.149ZM490.866 123.881C489.538 123.881 488.847 122.713 488.847 121.182C488.847 119.665 489.523 118.527 490.866 118.527C492.163 118.527 492.859 119.586 492.859 121.182C492.859 122.788 492.148 123.881 490.866 123.881ZM499.301 125.149C500.693 125.149 501.24 124.299 501.509 123.812H501.633V125H503.085V114.818H501.598V118.602H501.509C501.24 118.129 500.733 117.264 499.311 117.264C497.467 117.264 496.11 118.721 496.11 121.197C496.11 123.668 497.447 125.149 499.301 125.149ZM499.629 123.881C498.302 123.881 497.611 122.713 497.611 121.182C497.611 119.665 498.287 118.527 499.629 118.527C500.927 118.527 501.623 119.586 501.623 121.182C501.623 122.788 500.912 123.881 499.629 123.881ZM512.476 117.364H510.91V115.534H509.423V117.364H508.305V118.557H509.423V123.066C509.419 124.453 510.477 125.124 511.651 125.099C512.123 125.094 512.441 125.005 512.615 124.94L512.347 123.712C512.247 123.732 512.063 123.777 511.825 123.777C511.343 123.777 510.91 123.618 510.91 122.758V118.557H512.476V117.364ZM517.255 125.154C519.408 125.154 520.815 123.578 520.815 121.217C520.815 118.84 519.408 117.264 517.255 117.264C515.102 117.264 513.695 118.84 513.695 121.217C513.695 123.578 515.102 125.154 517.255 125.154ZM517.26 123.906C515.853 123.906 515.197 122.678 515.197 121.212C515.197 119.75 515.853 118.507 517.26 118.507C518.657 118.507 519.313 119.75 519.313 121.212C519.313 122.678 518.657 123.906 517.26 123.906ZM529.744 117.364H528.178V115.534H526.691V117.364H525.572V118.557H526.691V123.066C526.686 124.453 527.745 125.124 528.918 125.099C529.391 125.094 529.709 125.005 529.883 124.94L529.614 123.712C529.515 123.732 529.331 123.777 529.092 123.777C528.61 123.777 528.178 123.618 528.178 122.758V118.557H529.744V117.364ZM533.61 125.169C534.873 125.169 535.584 124.528 535.867 123.956H535.927V125H537.379V119.929C537.379 117.707 535.629 117.264 534.416 117.264C533.034 117.264 531.761 117.821 531.264 119.213L532.661 119.531C532.879 118.989 533.436 118.467 534.436 118.467C535.395 118.467 535.887 118.969 535.887 119.835V119.869C535.887 120.411 535.33 120.401 533.958 120.56C532.512 120.729 531.03 121.107 531.03 122.842C531.03 124.344 532.159 125.169 533.61 125.169ZM533.933 123.976C533.093 123.976 532.487 123.598 532.487 122.862C532.487 122.067 533.193 121.783 534.053 121.669C534.535 121.604 535.678 121.475 535.892 121.261V122.246C535.892 123.151 535.171 123.976 533.933 123.976ZM545.081 119.228C544.773 118.04 543.843 117.264 542.192 117.264C540.467 117.264 539.244 118.174 539.244 119.526C539.244 120.61 539.901 121.331 541.332 121.649L542.625 121.933C543.361 122.097 543.704 122.425 543.704 122.902C543.704 123.494 543.072 123.956 542.098 123.956C541.208 123.956 540.636 123.573 540.457 122.822L539.021 123.041C539.269 124.393 540.393 125.154 542.108 125.154C543.952 125.154 545.23 124.175 545.23 122.793C545.23 121.714 544.544 121.048 543.142 120.724L541.929 120.446C541.089 120.247 540.726 119.964 540.731 119.447C540.726 118.86 541.362 118.442 542.207 118.442C543.132 118.442 543.56 118.955 543.734 119.467L545.081 119.228ZM546.865 125H548.351V122.29L549.092 121.55L551.687 125H553.512L550.21 120.64L553.303 117.364H551.523L548.48 120.595H548.351V114.818H546.865V125Z" fill="#3447D3"/>
<path d="M152.646 147.146C152.451 147.342 152.451 147.658 152.646 147.854L155.828 151.036C156.024 151.231 156.34 151.231 156.536 151.036C156.731 150.84 156.731 150.524 156.536 150.328L153.707 147.5L156.536 144.672C156.731 144.476 156.731 144.16 156.536 143.964C156.34 143.769 156.024 143.769 155.828 143.964L152.646 147.146ZM510 133.5V193.5H511V133.5H510ZM291 147H153V148H291V147ZM490.5 213H331V214H490.5V213ZM311.5 193.5V167.5H310.5V193.5H311.5ZM331 213C320.23 213 311.5 204.27 311.5 193.5H310.5C310.5 204.822 319.678 214 331 214V213ZM291 148C301.77 148 310.5 156.73 310.5 167.5H311.5C311.5 156.178 302.322 147 291 147V148ZM510 193.5C510 204.27 501.27 213 490.5 213V214C501.822 214 511 204.822 511 193.5H510Z" fill="#3447D3"/>
<circle cx="510.5" cy="131.5" r="2" stroke="#3447D3"/>
<circle cx="410.5" cy="110.5" r="2" stroke="#3447D3"/>
<circle cx="132.5" cy="179.5" r="2" stroke="#3447D3"/>
<path d="M733.354 159.646C733.158 159.451 732.842 159.451 732.646 159.646L729.464 162.828C729.269 163.024 729.269 163.34 729.464 163.536C729.66 163.731 729.976 163.731 730.172 163.536L733 160.707L735.828 163.536C736.024 163.731 736.34 163.731 736.536 163.536C736.731 163.34 736.731 163.024 736.536 162.828L733.354 159.646ZM132.5 184.556V231H133.5V184.556H132.5ZM153 251.5H411.71V250.5H153V251.5ZM411.71 251.5H713V250.5H411.71V251.5ZM733.5 231V160H732.5V231H733.5ZM713 251.5C724.322 251.5 733.5 242.322 733.5 231H732.5C732.5 241.77 723.77 250.5 713 250.5V251.5ZM132.5 231C132.5 242.322 141.678 251.5 153 251.5V250.5C142.23 250.5 133.5 241.77 133.5 231H132.5Z" fill="#3447D3"/>
<path d="M733.354 124.354C733.158 124.549 732.842 124.549 732.646 124.354L729.464 121.172C729.269 120.976 729.269 120.66 729.464 120.464C729.66 120.269 729.976 120.269 730.172 120.464L733 123.293L735.828 120.464C736.024 120.269 736.34 120.269 736.536 120.464C736.731 120.66 736.731 120.976 736.536 121.172L733.354 124.354ZM424.143 94.5H560.826V95.5H424.143V94.5ZM560.826 94.5H715V95.5H560.826V94.5ZM733.5 113V124H732.5V113H733.5ZM715 94.5C725.217 94.5 733.5 102.783 733.5 113H732.5C732.5 103.335 724.665 95.5 715 95.5V94.5ZM410.5 108.143C410.5 100.608 416.608 94.5 424.143 94.5V95.5C417.16 95.5 411.5 101.16 411.5 108.143H410.5Z" fill="#3447D3"/>
</svg>
