<svg width="70" height="71" viewBox="0 0 70 71" fill="none" xmlns="http://www.w3.org/2000/svg">
<path d="M35 71C54.33 71 70 55.1061 70 35.5C70 15.8939 54.33 0 35 0C15.67 0 0 15.8939 0 35.5C0 55.1061 15.67 71 35 71Z" fill="#F48C51"/>
<path fill-rule="evenodd" clip-rule="evenodd" d="M46.6544 50.2975H22.3472C22.0461 50.3058 21.7475 50.2403 21.4777 50.1066C21.2078 49.973 20.9748 49.7753 20.7991 49.5309C20.6233 49.2864 20.5103 49.0027 20.4698 48.7045C20.4293 48.4063 20.4625 48.1027 20.5667 47.8203C22.8561 42.3363 28.2345 39.1938 34.4996 39.1938C40.7648 39.1938 46.1455 42.3351 48.4326 47.8203C48.5367 48.1025 48.57 48.4058 48.5296 48.7039C48.4892 49.0019 48.3763 49.2855 48.2009 49.5299C48.0255 49.7742 47.7928 49.972 47.5232 50.1058C47.2536 50.2396 46.9553 50.3054 46.6544 50.2975ZM26.938 28.0936C26.9808 26.1183 27.7964 24.2382 29.2099 22.8563C30.6234 21.4744 32.5225 20.7005 34.5002 20.7005C36.478 20.7005 38.3771 21.4744 39.7906 22.8563C41.2041 24.2382 42.0196 26.1183 42.0624 28.0936C42.0196 30.069 41.2041 31.949 39.7906 33.3309C38.3771 34.7128 36.478 35.4867 34.5002 35.4867C32.5225 35.4867 30.6234 34.7128 29.2099 33.3309C27.7964 31.949 26.9808 30.069 26.938 28.0936ZM52.9373 49.6239C52.3039 46.6892 50.93 43.9649 48.946 41.71C46.9621 39.455 44.434 37.7443 41.6019 36.7402C43.151 35.5363 44.3492 33.9399 45.0718 32.1169C45.7944 30.2939 46.0151 28.3108 45.711 26.3738C45.2193 23.6001 43.7131 21.1081 41.485 19.3818C39.2569 17.6556 36.4661 16.8185 33.6547 17.033C30.8433 17.2475 28.2121 18.4985 26.2724 20.5428C24.3326 22.5871 23.2227 25.2787 23.1584 28.0948C23.1617 29.7629 23.5452 31.4084 24.2796 32.9065C25.014 34.4047 26.0802 35.7161 27.3974 36.7414C24.5654 37.7456 22.0375 39.4565 20.0535 41.7114C18.0696 43.9663 16.6956 46.6904 16.062 49.6251C15.9617 50.1658 15.9833 50.722 16.1252 51.2533C16.267 51.7847 16.5257 52.2777 16.8822 52.6967C17.2388 53.1156 17.6844 53.4499 18.1865 53.6752C18.6886 53.9005 19.2347 54.0111 19.785 53.9991H49.2167C49.767 54.0112 50.3132 53.9006 50.8153 53.6752C51.3175 53.4498 51.763 53.1154 52.1194 52.6962C52.4758 52.2771 52.7342 51.7838 52.8757 51.2524C53.0171 50.7209 53.0382 50.1646 52.9373 49.6239Z" fill="white"/>
</svg>
