<?xml version="1.0" encoding="utf-8"?>
<!-- Generator: Adobe Illustrator 21.0.0, SVG Export Plug-In . SVG Version: 6.00 Build 0)  -->
<svg version="1.1" id="Layer_1" xmlns="http://www.w3.org/2000/svg" xmlns:xlink="http://www.w3.org/1999/xlink" x="0px" y="0px"
	 viewBox="0 0 1920.2 312.3" style="enable-background:new 0 0 1920.2 312.3;" xml:space="preserve">
<style type="text/css">
	.st0{fill:#FFFFFF;}
	.st1{opacity:0.5;fill:#FFFFFF;}
	.st2{opacity:0.54;fill:#FFFFFF;}
</style>
<g transform="translate(6.877 -491.647)">
	<path class="st0" d="M1602,624.1c-239.2,9.1-425.6,91.5-592,90.4s-319.7-117.8-605.3-90.4S179.7,804.2-6.3,803.9
		c-1.2-261.3,0-312.3,0-312.3h1919.6v222.9C1913.3,714.5,1841.2,615,1602,624.1z"/>
	<path class="st1" d="M1906.5,582.8c0,0-244.6,131.4-507.6,122.4s-412.7-161.7-741-122.4S276.5,805.5-1,729.9V512.1h1907.5V582.8z"
		/>
	<path class="st2" d="M-0.8,590c0,0,161.4,131.4,565.6,121.6s487-88,821.7-71.8s333.5,82.3,518.9,7.8c1.7-119.8,0-127.8,0-127.8
		H-0.8L-0.8,590z"/>
</g>
</svg>
