<svg width="89" height="85" viewBox="0 0 89 85" fill="none" xmlns="http://www.w3.org/2000/svg">
<path d="M52 0H37C16.5655 0 0 16.5655 0 37V38C0 57.8822 16.1178 74 36 74L33 85L49 74H52C72.4345 74 89 57.4345 89 37C89 16.5655 72.4345 0 52 0Z" fill="#3447D3" fill-opacity="0.1"/>
<path d="M24.4062 17.8906C24.4688 17.7656 24.5625 17.6615 24.6875 17.5781C24.8229 17.4844 24.9635 17.4375 25.1094 17.4375C25.3073 17.4375 25.474 17.5052 25.6094 17.6406C25.7552 17.7656 25.8854 17.9375 26 18.1562C26.1146 18.3646 26.224 18.599 26.3281 18.8594C26.4323 19.1094 26.5469 19.3594 26.6719 19.6094C26.8177 19.9115 26.9635 20.2083 27.1094 20.5C27.2656 20.7917 27.4167 21.0469 27.5625 21.2656C27.625 20.4531 27.724 19.5365 27.8594 18.5156C28.0052 17.4844 28.1354 16.401 28.25 15.2656C28.25 15.0885 28.3021 14.9635 28.4062 14.8906C28.5104 14.8177 28.6198 14.7812 28.7344 14.7812C28.849 14.8021 28.9531 14.8646 29.0469 14.9688C29.1406 15.0625 29.1875 15.2031 29.1875 15.3906C29.1562 15.9635 29.1094 16.5677 29.0469 17.2031C28.9844 17.8281 28.9115 18.4635 28.8281 19.1094C28.7552 19.7448 28.6719 20.375 28.5781 21C28.4844 21.625 28.3958 22.2135 28.3125 22.7656C28.2917 22.9115 28.2344 23.0208 28.1406 23.0938C28.0573 23.1771 27.9635 23.2188 27.8594 23.2188C27.7656 23.2188 27.6771 23.1875 27.5938 23.125C27.5104 23.0729 27.4479 22.974 27.4062 22.8281C27.3854 22.8073 27.3333 22.7292 27.25 22.5938C27.1667 22.4479 27.0573 22.2656 26.9219 22.0469C26.7969 21.8177 26.6562 21.5625 26.5 21.2812C26.3542 21 26.2083 20.7188 26.0625 20.4375C25.9167 20.1458 25.776 19.8698 25.6406 19.6094C25.5052 19.3385 25.3958 19.099 25.3125 18.8906C25.2917 18.849 25.2656 18.8073 25.2344 18.7656C25.2031 18.724 25.1667 18.7031 25.125 18.7031C25.0833 18.7031 24.9896 18.8385 24.8438 19.1094C24.7083 19.3698 24.5469 19.6979 24.3594 20.0938C24.1719 20.4792 23.9688 20.8906 23.75 21.3281C23.5417 21.7552 23.3438 22.1406 23.1562 22.4844C23.0833 22.6094 22.9948 22.6927 22.8906 22.7344C22.7969 22.776 22.6927 22.7969 22.5781 22.7969C22.3177 22.7969 22.1562 22.651 22.0938 22.3594C22.0208 21.9844 21.9479 21.5573 21.875 21.0781C21.8125 20.5885 21.7552 20.0833 21.7031 19.5625C21.651 19.0417 21.6094 18.5208 21.5781 18C21.5469 17.4688 21.5312 16.974 21.5312 16.5156C21.5312 16.3177 21.5312 16.1302 21.5312 15.9531C21.5312 15.7656 21.5469 15.6094 21.5781 15.4844C21.6094 15.349 21.6615 15.2448 21.7344 15.1719C21.8177 15.0885 21.9375 15.0469 22.0938 15.0469C22.2292 15.0469 22.3385 15.1042 22.4219 15.2188C22.5156 15.3229 22.5625 15.4635 22.5625 15.6406C22.5625 15.7656 22.5573 15.8958 22.5469 16.0312C22.5365 16.1562 22.5312 16.2917 22.5312 16.4375C22.5312 16.8021 22.5417 17.1823 22.5625 17.5781C22.5833 17.974 22.6094 18.375 22.6406 18.7812C22.6823 19.1771 22.7292 19.5677 22.7812 19.9531C22.8333 20.3281 22.8854 20.6719 22.9375 20.9844C23.0625 20.7552 23.1927 20.5 23.3281 20.2188C23.4635 19.9375 23.5938 19.6562 23.7188 19.375C23.8438 19.0938 23.9635 18.8229 24.0781 18.5625C24.2031 18.3021 24.3125 18.0781 24.4062 17.8906ZM31.7969 22.1406C31.8802 21.6198 31.9427 21.0469 31.9844 20.4219C32.0365 19.7969 32.0625 19.1719 32.0625 18.5469C32.0625 18.0469 32.0417 17.5781 32 17.1406C31.9583 16.7031 31.8854 16.349 31.7812 16.0781C31.75 15.9635 31.6615 15.901 31.5156 15.8906C31.3698 15.8802 31.2135 15.875 31.0469 15.875C30.8906 15.875 30.7448 15.849 30.6094 15.7969C30.474 15.7344 30.4062 15.599 30.4062 15.3906C30.4062 15.2865 30.4479 15.1927 30.5312 15.1094C30.625 15.026 30.75 14.9844 30.9062 14.9844C31.1146 15.0052 31.3073 15.0208 31.4844 15.0312C31.6719 15.0417 31.849 15.0469 32.0156 15.0469C32.2552 15.0469 32.5208 15.0208 32.8125 14.9688C33.1146 14.9167 33.4479 14.8906 33.8125 14.8906C33.9375 14.8906 34.0417 14.9323 34.125 15.0156C34.2083 15.0885 34.25 15.1771 34.25 15.2812C34.25 15.4167 34.1927 15.526 34.0781 15.6094C33.974 15.6927 33.8438 15.7552 33.6875 15.7969C33.5312 15.8385 33.3646 15.8646 33.1875 15.875C33.0104 15.8854 32.8542 15.8906 32.7188 15.8906C32.8229 16.2656 32.8906 16.7344 32.9219 17.2969C32.9635 17.8594 32.9844 18.4375 32.9844 19.0312C32.9844 19.625 32.9583 20.2031 32.9062 20.7656C32.8646 21.3177 32.8229 21.7708 32.7812 22.125C32.9375 22.125 33.0938 22.1146 33.25 22.0938C33.4167 22.0625 33.6042 22.0469 33.8125 22.0469C33.9375 22.0469 34.0417 22.0885 34.125 22.1719C34.2083 22.2448 34.25 22.3229 34.25 22.4062C34.25 22.5625 34.1719 22.6823 34.0156 22.7656C33.8594 22.849 33.6719 22.9115 33.4531 22.9531C33.2344 22.9948 33.0052 23.0156 32.7656 23.0156C32.526 23.026 32.3229 23.0312 32.1562 23.0312C31.9792 23.0312 31.7865 23.0312 31.5781 23.0312C31.3802 23.0312 31.1927 23.0156 31.0156 22.9844C30.8385 22.9531 30.6927 22.901 30.5781 22.8281C30.4635 22.7552 30.4062 22.6458 30.4062 22.5C30.4062 22.3958 30.4479 22.3073 30.5312 22.2344C30.625 22.151 30.75 22.1094 30.9062 22.1094C30.9792 22.1198 31.0521 22.1302 31.125 22.1406C31.2083 22.1406 31.2917 22.1406 31.375 22.1406H31.7969ZM40.625 15.6094C40.6146 15.5781 40.6094 15.5312 40.6094 15.4688C40.6094 15.3229 40.651 15.2031 40.7344 15.1094C40.8177 15.0156 40.9167 14.9688 41.0312 14.9688C41.1458 14.9688 41.2552 15.0052 41.3594 15.0781C41.4635 15.151 41.5312 15.276 41.5625 15.4531C41.6354 15.8906 41.6875 16.3438 41.7188 16.8125C41.75 17.2812 41.7656 17.7656 41.7656 18.2656C41.7656 19.0781 41.724 19.8958 41.6406 20.7188C41.5573 21.5312 41.4375 22.276 41.2812 22.9531C41.25 23.099 41.1927 23.2031 41.1094 23.2656C41.0365 23.3281 40.9531 23.3594 40.8594 23.3594C40.7448 23.3594 40.625 23.3021 40.5 23.1875C40.375 23.0833 40.1979 22.849 39.9688 22.4844C39.7396 22.1198 39.4323 21.5885 39.0469 20.8906C38.6719 20.1927 38.1823 19.25 37.5781 18.0625C37.3594 17.625 37.1927 17.2969 37.0781 17.0781C36.9635 16.8594 36.9115 16.7083 36.9219 16.625C36.9219 16.5104 36.9688 16.4062 37.0625 16.3125C37.1562 16.2083 37.2604 16.1562 37.375 16.1562C37.4583 16.1562 37.5208 16.1667 37.5625 16.1875C37.6146 16.1979 37.6615 16.2448 37.7031 16.3281C37.7552 16.401 37.8177 16.5208 37.8906 16.6875C37.9635 16.8438 38.0781 17.0625 38.2344 17.3438L39.9375 20.5781C40.0833 20.8385 40.2083 21.0573 40.3125 21.2344C40.4167 21.4115 40.5 21.5469 40.5625 21.6406C40.75 20.5156 40.8438 19.4271 40.8438 18.375C40.8438 17.8646 40.8229 17.3802 40.7812 16.9219C40.7396 16.4531 40.6875 16.0156 40.625 15.6094ZM36.7188 15.5156C36.6667 15.9219 36.6302 16.4271 36.6094 17.0312C36.5885 17.625 36.5781 18.2396 36.5781 18.875C36.5781 19.5417 36.599 20.1927 36.6406 20.8281C36.6927 21.4531 36.7188 22 36.7188 22.4688C36.7188 22.6667 36.6719 22.8229 36.5781 22.9375C36.4844 23.0417 36.3698 23.0938 36.2344 23.0938C36.151 23.0938 36.0677 23.0573 35.9844 22.9844C35.9115 22.901 35.8646 22.776 35.8438 22.6094C35.7708 22.0156 35.7188 21.349 35.6875 20.6094C35.6667 19.8698 35.6562 19.125 35.6562 18.375C35.6562 17.8229 35.6615 17.2969 35.6719 16.7969C35.6927 16.2865 35.7292 15.8177 35.7812 15.3906C35.7917 15.2031 35.849 15.0729 35.9531 15C36.0677 14.9271 36.1823 14.8906 36.2969 14.8906C36.4115 14.9115 36.5104 14.9688 36.5938 15.0625C36.6771 15.1458 36.7188 15.2656 36.7188 15.4219V15.5156ZM48.25 15.6094C48.2396 15.5781 48.2344 15.5312 48.2344 15.4688C48.2344 15.3229 48.276 15.2031 48.3594 15.1094C48.4427 15.0156 48.5417 14.9688 48.6562 14.9688C48.7708 14.9688 48.8802 15.0052 48.9844 15.0781C49.0885 15.151 49.1562 15.276 49.1875 15.4531C49.2604 15.8906 49.3125 16.3438 49.3438 16.8125C49.375 17.2812 49.3906 17.7656 49.3906 18.2656C49.3906 19.0781 49.349 19.8958 49.2656 20.7188C49.1823 21.5312 49.0625 22.276 48.9062 22.9531C48.875 23.099 48.8177 23.2031 48.7344 23.2656C48.6615 23.3281 48.5781 23.3594 48.4844 23.3594C48.3698 23.3594 48.25 23.3021 48.125 23.1875C48 23.0833 47.8229 22.849 47.5938 22.4844C47.3646 22.1198 47.0573 21.5885 46.6719 20.8906C46.2969 20.1927 45.8073 19.25 45.2031 18.0625C44.9844 17.625 44.8177 17.2969 44.7031 17.0781C44.5885 16.8594 44.5365 16.7083 44.5469 16.625C44.5469 16.5104 44.5938 16.4062 44.6875 16.3125C44.7812 16.2083 44.8854 16.1562 45 16.1562C45.0833 16.1562 45.1458 16.1667 45.1875 16.1875C45.2396 16.1979 45.2865 16.2448 45.3281 16.3281C45.3802 16.401 45.4427 16.5208 45.5156 16.6875C45.5885 16.8438 45.7031 17.0625 45.8594 17.3438L47.5625 20.5781C47.7083 20.8385 47.8333 21.0573 47.9375 21.2344C48.0417 21.4115 48.125 21.5469 48.1875 21.6406C48.375 20.5156 48.4688 19.4271 48.4688 18.375C48.4688 17.8646 48.4479 17.3802 48.4062 16.9219C48.3646 16.4531 48.3125 16.0156 48.25 15.6094ZM44.3438 15.5156C44.2917 15.9219 44.2552 16.4271 44.2344 17.0312C44.2135 17.625 44.2031 18.2396 44.2031 18.875C44.2031 19.5417 44.224 20.1927 44.2656 20.8281C44.3177 21.4531 44.3438 22 44.3438 22.4688C44.3438 22.6667 44.2969 22.8229 44.2031 22.9375C44.1094 23.0417 43.9948 23.0938 43.8594 23.0938C43.776 23.0938 43.6927 23.0573 43.6094 22.9844C43.5365 22.901 43.4896 22.776 43.4688 22.6094C43.3958 22.0156 43.3438 21.349 43.3125 20.6094C43.2917 19.8698 43.2812 19.125 43.2812 18.375C43.2812 17.8229 43.2865 17.2969 43.2969 16.7969C43.3177 16.2865 43.3542 15.8177 43.4062 15.3906C43.4167 15.2031 43.474 15.0729 43.5781 15C43.6927 14.9271 43.8073 14.8906 43.9219 14.8906C44.0365 14.9115 44.1354 14.9688 44.2188 15.0625C44.3021 15.1458 44.3438 15.2656 44.3438 15.4219V15.5156ZM51.125 15.8906C50.9583 15.8594 50.8333 15.8021 50.75 15.7188C50.6667 15.625 50.625 15.5312 50.625 15.4375C50.625 15.3229 50.6719 15.2188 50.7656 15.125C50.8594 15.0312 51 14.9844 51.1875 14.9844C51.4062 15.0052 51.6302 15.0208 51.8594 15.0312C52.0885 15.0417 52.3177 15.0469 52.5469 15.0469C52.9427 15.0469 53.3229 15.0365 53.6875 15.0156C54.0625 14.9948 54.4062 14.9635 54.7188 14.9219C54.8958 14.9219 55.0312 14.9688 55.125 15.0625C55.2292 15.1458 55.2812 15.2448 55.2812 15.3594C55.2812 15.651 55.0365 15.8281 54.5469 15.8906C54.0677 15.9531 53.3021 15.9844 52.25 15.9844C52.1667 16.4531 52.1042 16.9479 52.0625 17.4688C52.0208 17.9792 52 18.526 52 19.1094C52 19.4844 52.0052 19.8438 52.0156 20.1875C52.026 20.5312 52.0417 20.8698 52.0625 21.2031C52.0833 21.4115 52.1198 21.5781 52.1719 21.7031C52.2344 21.8177 52.3177 21.9062 52.4219 21.9688C52.5365 22.0208 52.6771 22.0521 52.8438 22.0625C53.0208 22.0729 53.2396 22.0781 53.5 22.0781C53.8333 22.0781 54.1615 22.0573 54.4844 22.0156C54.8177 21.9635 55.1354 21.8802 55.4375 21.7656C55.5312 21.7344 55.6198 21.7188 55.7031 21.7188C55.8385 21.7188 55.9323 21.7552 55.9844 21.8281C56.0469 21.901 56.0781 21.9844 56.0781 22.0781C56.0781 22.276 55.9844 22.4375 55.7969 22.5625C55.6094 22.6875 55.3854 22.7865 55.125 22.8594C54.875 22.9323 54.6094 22.9792 54.3281 23C54.0469 23.0312 53.8125 23.0469 53.625 23.0469C53.4271 23.0469 53.2031 23.0417 52.9531 23.0312C52.7135 23.0312 52.474 23 52.2344 22.9375C52.0052 22.8646 51.7969 22.75 51.6094 22.5938C51.4219 22.4375 51.2917 22.2135 51.2188 21.9219C51.1458 21.651 51.0938 21.3177 51.0625 20.9219C51.0312 20.5156 51.0156 20.0833 51.0156 19.625C51.0156 19.25 51.0208 18.8802 51.0312 18.5156C51.0521 18.1406 51.0729 17.7865 51.0938 17.4531C51.1146 17.1198 51.1406 16.8229 51.1719 16.5625C51.2031 16.2917 51.2292 16.0781 51.25 15.9219C51.1979 15.9219 51.1667 15.9167 51.1562 15.9062C51.1562 15.8958 51.1458 15.8906 51.125 15.8906ZM53.0312 19.5781C52.8646 19.5677 52.75 19.5156 52.6875 19.4219C52.6354 19.3281 52.6094 19.224 52.6094 19.1094C52.6094 19.0052 52.651 18.9115 52.7344 18.8281C52.8281 18.7448 52.9479 18.7031 53.0938 18.7031C53.2708 18.7031 53.4479 18.7083 53.625 18.7188C53.8125 18.7292 53.9948 18.7344 54.1719 18.7344C54.7448 18.7344 55.3125 18.7031 55.875 18.6406C56.0417 18.651 56.1667 18.6979 56.25 18.7812C56.3438 18.8646 56.3958 18.9531 56.4062 19.0469C56.4062 19.2031 56.3281 19.3229 56.1719 19.4062C56.0156 19.4792 55.8281 19.5365 55.6094 19.5781C55.3906 19.6198 55.1615 19.6458 54.9219 19.6562C54.6823 19.6562 54.474 19.6562 54.2969 19.6562C54.0781 19.6562 53.8646 19.651 53.6562 19.6406C53.4479 19.6198 53.2396 19.599 53.0312 19.5781ZM62.75 22.3594C62.8229 22.4635 62.8594 22.5677 62.8594 22.6719C62.8594 22.8073 62.8073 22.9219 62.7031 23.0156C62.599 23.1094 62.4792 23.1562 62.3438 23.1562C62.1979 23.1562 62.0156 23.0156 61.7969 22.7344C61.5781 22.4531 61.349 22.1094 61.1094 21.7031C60.8698 21.2969 60.6406 20.875 60.4219 20.4375C60.2031 19.9896 60.0312 19.599 59.9062 19.2656C59.8854 19.224 59.8594 19.1719 59.8281 19.1094C59.8073 19.0365 59.7969 18.9583 59.7969 18.875C59.7969 18.7708 59.8281 18.6406 59.8906 18.4844C59.9635 18.3281 60.125 18.1927 60.375 18.0781C60.6979 17.9219 60.9583 17.7812 61.1562 17.6562C61.3646 17.5312 61.5208 17.4167 61.625 17.3125C61.7292 17.1979 61.7969 17.0938 61.8281 17C61.8698 16.9062 61.8906 16.8177 61.8906 16.7344C61.8906 16.4115 61.7188 16.1771 61.375 16.0312C61.0417 15.875 60.6198 15.7969 60.1094 15.7969C59.901 15.7969 59.6771 15.8073 59.4375 15.8281C59.2083 15.849 58.9583 15.8802 58.6875 15.9219C58.7708 16.2656 58.8281 16.6719 58.8594 17.1406C58.901 17.6094 58.9219 18.1094 58.9219 18.6406C58.9219 19.0365 58.9115 19.4323 58.8906 19.8281C58.8802 20.224 58.8646 20.599 58.8438 20.9531C58.8229 21.3073 58.7917 21.6302 58.75 21.9219C58.7188 22.2135 58.6875 22.4531 58.6562 22.6406C58.6354 22.7865 58.5729 22.8958 58.4688 22.9688C58.375 23.0417 58.276 23.0781 58.1719 23.0781C58.0573 23.0781 57.9479 23.0417 57.8438 22.9688C57.75 22.8958 57.7031 22.7865 57.7031 22.6406C57.7031 22.5885 57.7083 22.5469 57.7188 22.5156C57.7917 22.0052 57.8542 21.4062 57.9062 20.7188C57.9583 20.0312 57.9844 19.3438 57.9844 18.6562C57.9844 18.0833 57.9635 17.5521 57.9219 17.0625C57.8802 16.5729 57.8125 16.1823 57.7188 15.8906C57.6667 15.7344 57.6406 15.6146 57.6406 15.5312C57.6406 15.375 57.6771 15.2552 57.75 15.1719C57.8229 15.0781 57.9167 15.0312 58.0312 15.0312C58.0938 15.0312 58.1562 15.0469 58.2188 15.0781H58.25C58.5729 15.0469 58.8802 15.0208 59.1719 15C59.474 14.9792 59.7604 14.9688 60.0312 14.9688C60.4062 14.9688 60.7656 14.9948 61.1094 15.0469C61.4635 15.099 61.7708 15.1927 62.0312 15.3281C62.2917 15.4635 62.5 15.6406 62.6562 15.8594C62.8125 16.0781 62.8906 16.349 62.8906 16.6719C62.8906 17.026 62.7292 17.3906 62.4062 17.7656C62.0833 18.1302 61.5417 18.5052 60.7812 18.8906C60.875 19.1302 61 19.4167 61.1562 19.75C61.3229 20.0833 61.5 20.4167 61.6875 20.75C61.8854 21.0833 62.0781 21.3958 62.2656 21.6875C62.4531 21.9792 62.6146 22.2031 62.75 22.3594ZM65.125 20.5156C65.1771 20.0156 65.2344 19.4531 65.2969 18.8281C65.3698 18.1927 65.4062 17.5625 65.4062 16.9375C65.4062 16.5312 65.3854 16.1406 65.3438 15.7656C65.3021 15.3802 65.2292 15.026 65.125 14.7031C65.0625 14.5469 65.0312 14.4115 65.0312 14.2969C65.0312 14.151 65.0625 14.0312 65.125 13.9375C65.1979 13.8438 65.2917 13.7969 65.4062 13.7969C65.625 13.7969 65.7969 13.9219 65.9219 14.1719C66.0469 14.4219 66.1458 14.7292 66.2188 15.0938C66.2917 15.4583 66.3385 15.8542 66.3594 16.2812C66.3802 16.7083 66.3906 17.0938 66.3906 17.4375C66.3906 18.0312 66.3594 18.6042 66.2969 19.1562C66.2344 19.7083 66.1667 20.2031 66.0938 20.6406C66.0625 20.8073 65.9948 20.9323 65.8906 21.0156C65.7969 21.0885 65.6979 21.125 65.5938 21.125C65.4688 21.125 65.3542 21.0885 65.25 21.0156C65.1562 20.9427 65.1094 20.8177 65.1094 20.6406C65.1094 20.5885 65.1146 20.5469 65.125 20.5156ZM65.0625 22.0469C65.125 22.026 65.1719 22.0156 65.2031 22.0156C65.2552 22.0156 65.2969 22.0208 65.3281 22.0312C65.3594 22.0417 65.3854 22.0469 65.4062 22.0469C65.4479 22.0469 65.4844 22.0469 65.5156 22.0469C65.5573 22.0365 65.5938 22.0312 65.625 22.0312C65.8542 22.0312 66.0469 22.0729 66.2031 22.1562C66.3594 22.2292 66.4844 22.3281 66.5781 22.4531C66.6719 22.5677 66.7396 22.7031 66.7812 22.8594C66.8229 23.0052 66.8438 23.151 66.8438 23.2969C66.8438 23.4531 66.8125 23.6042 66.75 23.75C66.6979 23.9062 66.6198 24.0417 66.5156 24.1562C66.4219 24.2812 66.3021 24.3802 66.1562 24.4531C66.0104 24.5365 65.8542 24.5781 65.6875 24.5781C65.5104 24.5781 65.3333 24.5469 65.1562 24.4844C64.9896 24.4219 64.8385 24.3281 64.7031 24.2031C64.5781 24.0885 64.474 23.9427 64.3906 23.7656C64.3073 23.5885 64.2656 23.3906 64.2656 23.1719C64.2656 22.9115 64.3385 22.6771 64.4844 22.4688C64.6406 22.25 64.8333 22.1094 65.0625 22.0469ZM65.4375 22.8594H65.2812C65.2292 22.9115 65.1875 22.9792 65.1562 23.0625C65.1354 23.1458 65.125 23.224 65.125 23.2969C65.125 23.4427 65.1771 23.5469 65.2812 23.6094C65.3958 23.6719 65.5104 23.7031 65.625 23.7031C65.7604 23.7031 65.8646 23.6615 65.9375 23.5781C66.0208 23.5052 66.0625 23.4115 66.0625 23.2969C66.0625 23.1615 66.026 23.0521 65.9531 22.9688C65.8802 22.875 65.75 22.8281 65.5625 22.8281C65.5 22.8281 65.4583 22.8385 65.4375 22.8594Z" fill="#7490FF"/>
<path d="M56.0625 33.8125L54.375 34.375L52.125 41.6875V43.375V44.5L51.7954 45.1593C52.0052 44.6035 52.125 44.0039 52.125 43.375C52.125 43.2276 52.1154 43.0825 52.1031 42.9379C52.0901 42.8024 52.0721 42.6679 52.0496 42.5352C51.6486 40.1395 49.5718 38.3125 47.0625 38.3125C44.2663 38.3125 42 40.5788 42 43.375C42 44.2609 42.2289 45.0929 42.6283 45.8168C42.7211 45.9844 42.8241 46.1453 42.9354 46.3C42.9411 46.3079 42.9467 46.3146 42.9523 46.3225C43.0592 46.4716 43.1745 46.6139 43.2971 46.75C43.3506 46.8096 43.4102 46.8636 43.4664 46.9204C43.5306 46.9851 43.5913 47.0526 43.6588 47.1139C43.5919 47.0526 43.5306 46.9851 43.4664 46.9204L43.2195 46.7967L43.2966 46.75L41.3486 47.9228L41.5253 47.8165L39.75 49L38.7994 50.4259C38.7971 50.4327 38.7932 50.4389 38.7909 50.4456C38.6863 50.773 38.625 51.1167 38.625 51.4699V58C38.625 58.9321 39.3804 59.6875 40.3125 59.6875H42V65.3125V65.875H54.9375V46.75L58.3125 36.0625L57.75 34.375L56.0625 33.8125ZM51.3274 46.0953L51 46.75L50.5028 47.0813C50.8178 46.7894 51.0951 46.4586 51.3274 46.0953ZM45.8565 48.2868C45.7322 48.2558 45.6084 48.2237 45.4875 48.1844C45.6079 48.2243 45.7322 48.2564 45.8565 48.2868ZM47.0625 48.4375C46.8808 48.4375 46.7014 48.4268 46.5242 48.4082C46.7014 48.4268 46.8808 48.4375 47.0625 48.4375ZM47.3899 48.4212C47.5311 48.4122 47.67 48.397 47.8078 48.3768L47.625 48.4375L47.3899 48.4212ZM46.3807 48.3863C46.2519 48.3689 46.1243 48.3503 45.9988 48.3233C46.1237 48.3503 46.2519 48.3689 46.3807 48.3863ZM43.6689 47.1241C43.7904 47.2343 43.9176 47.3378 44.0492 47.4362C43.9176 47.3378 43.7904 47.2343 43.6689 47.1241ZM44.5234 47.7501C44.6471 47.8227 44.7754 47.8885 44.9059 47.9504C44.7759 47.8879 44.6477 47.8227 44.5234 47.7501ZM44.9942 47.9926C45.1163 48.0477 45.2417 48.0955 45.3682 48.1411C45.2417 48.0955 45.1163 48.0477 44.9942 47.9926ZM52.125 59.125H48.3118C48.3793 59.0502 48.4401 58.9709 48.4935 58.8848C48.4941 58.8837 48.4946 58.8826 48.4952 58.8814C48.5464 58.7982 48.5925 58.711 48.6291 58.6187C48.6392 58.594 48.6442 58.567 48.6532 58.5417C48.6774 58.4703 48.7028 58.3994 48.7174 58.324C48.7382 58.2194 48.75 58.1114 48.75 58C48.75 57.0679 47.9946 56.3125 47.0625 56.3125H45.375V53.5C45.375 54.1216 45.8784 54.625 46.5 54.625H52.125V59.125Z" fill="#F9F5EF"/>
<path d="M45.375 53.5V56.3125H47.0625C47.9946 56.3125 48.75 57.0679 48.75 58C48.75 58.1114 48.7382 58.2194 48.7174 58.324C48.7028 58.3994 48.6774 58.4703 48.6532 58.5417C48.6442 58.567 48.6392 58.594 48.6291 58.6187C48.5925 58.711 48.5469 58.7982 48.4952 58.8814C48.4946 58.8826 48.4941 58.8837 48.4935 58.8848C48.4401 58.9709 48.3793 59.0502 48.3118 59.125H52.125V54.625H46.5C45.8784 54.625 45.375 54.1216 45.375 53.5Z" fill="#06AAE9"/>
<path d="M30.1875 34.9375C28.9449 34.9375 27.9375 33.9301 27.9375 32.6875C27.9375 33.9301 26.9301 34.9375 25.6875 34.9375C26.9301 34.9375 27.9375 35.9449 27.9375 37.1875C27.9375 35.9449 28.9449 34.9375 30.1875 34.9375Z" fill="#F8CF26"/>
<path d="M36.9375 41.125C35.6949 41.125 34.6875 40.1176 34.6875 38.875C34.6875 40.1176 33.6801 41.125 32.4375 41.125C33.6801 41.125 34.6875 42.1324 34.6875 43.375C34.6875 42.1324 35.6949 41.125 36.9375 41.125Z" fill="#F8CF26"/>
<path d="M40.3125 59.6874C39.3804 59.6874 38.625 58.932 38.625 57.9999V51.4699C38.625 51.1166 38.6863 50.7729 38.7909 50.4455C38.7932 50.4388 38.7971 50.4326 38.7994 50.4259C39.0474 49.6654 39.5543 49.0027 40.2596 48.5786L41.3492 47.9227L43.2966 46.7499C43.1745 46.6138 43.0592 46.4715 42.9518 46.3224C42.9461 46.3151 42.9405 46.3078 42.9349 46.2999C42.8235 46.1452 42.7206 45.9844 42.6278 45.8167C38.229 45.5563 33.8494 47.2168 30.7179 50.513L25.6875 54.6249L29.9304 59.3021C31.9223 62.2895 35.1094 64.3202 38.625 64.7499L42 65.3124V59.6874H40.3125Z" fill="#F4462D"/>
<path d="M41.3481 47.9229L40.2585 48.5787L41.3481 47.9229Z" fill="#F9F5EF"/>
<path d="M30.1875 34.375C29.2571 34.375 28.5 33.6179 28.5 32.6875C28.5 32.3764 28.248 32.125 27.9375 32.125C27.627 32.125 27.375 32.3764 27.375 32.6875C27.375 33.6179 26.6179 34.375 25.6875 34.375C25.377 34.375 25.125 34.6264 25.125 34.9375C25.125 35.2486 25.377 35.5 25.6875 35.5C26.6179 35.5 27.375 36.2571 27.375 37.1875C27.375 37.4986 27.627 37.75 27.9375 37.75C28.248 37.75 28.5 37.4986 28.5 37.1875C28.5 36.2571 29.2571 35.5 30.1875 35.5C30.498 35.5 30.75 35.2486 30.75 34.9375C30.75 34.6264 30.498 34.375 30.1875 34.375ZM27.9375 35.5017C27.7772 35.2879 27.5865 35.0978 27.3733 34.9375C27.5865 34.7772 27.7772 34.5871 27.9375 34.3733C28.0978 34.5871 28.2885 34.7772 28.5017 34.9375C28.2885 35.0978 28.0978 35.2879 27.9375 35.5017Z" fill="black"/>
<path d="M32.4375 40.5625C32.127 40.5625 31.875 40.8139 31.875 41.125C31.875 41.4361 32.127 41.6875 32.4375 41.6875C33.3679 41.6875 34.125 42.4446 34.125 43.375C34.125 43.6861 34.377 43.9375 34.6875 43.9375C34.998 43.9375 35.25 43.6861 35.25 43.375C35.25 42.4446 36.0071 41.6875 36.9375 41.6875C37.248 41.6875 37.5 41.4361 37.5 41.125C37.5 40.8139 37.248 40.5625 36.9375 40.5625C36.0071 40.5625 35.25 39.8054 35.25 38.875C35.25 38.5639 34.998 38.3125 34.6875 38.3125C34.377 38.3125 34.125 38.5639 34.125 38.875C34.125 39.8054 33.3679 40.5625 32.4375 40.5625ZM34.6875 40.5608C34.8478 40.7746 35.0385 40.9647 35.2517 41.125C35.0385 41.2853 34.8478 41.4754 34.6875 41.6892C34.5272 41.4754 34.3365 41.2853 34.1233 41.125C34.3365 40.9647 34.5272 40.7746 34.6875 40.5608Z" fill="black"/>
<path d="M35.25 32.6875H34.125V33.8125H35.25V32.6875Z" fill="black"/>
<path d="M41.4375 36.0625H40.3125V37.1875H41.4375V36.0625Z" fill="black"/>
<path d="M27.375 45.625H26.25V46.75H27.375V45.625Z" fill="black"/>
<path d="M29.0625 40H27.9375V41.125H29.0625V40Z" fill="black"/>
<path d="M50.4375 32.6875H49.3125V33.8125H50.4375V32.6875Z" fill="black"/>
<path d="M25.3315 54.1896C25.2122 54.2874 25.138 54.4297 25.1267 54.5833C25.1149 54.7369 25.1672 54.8887 25.2707 55.0029L29.4861 59.6497C31.6011 62.8009 34.9046 64.8624 38.5322 65.3051L41.9072 65.8676C41.9381 65.8721 41.9691 65.8749 42 65.8749C42.1322 65.8749 42.261 65.8282 42.3634 65.7416C42.49 65.6347 42.5625 65.4778 42.5625 65.3124V60.2499H47.0625C47.6278 60.2499 48.1391 60.0334 48.5351 59.6874H52.125C52.4355 59.6874 52.6875 59.436 52.6875 59.1249V54.6249V52.3749C52.6875 52.0639 52.4355 51.8124 52.125 51.8124H46.5C45.5696 51.8124 44.8125 52.5696 44.8125 53.4999V55.7499H43.125V53.4999H42V56.3124C42 56.6235 42.252 56.8749 42.5625 56.8749H45.375H47.0625C47.683 56.8749 48.1875 57.3795 48.1875 57.9999C48.1875 58.0714 48.1791 58.1411 48.1661 58.2092C48.1549 58.2649 48.138 58.32 48.1183 58.3734C48.115 58.3824 48.1133 58.3914 48.1099 58.4004C48.0604 58.5259 47.9873 58.644 47.8939 58.7486C47.8911 58.752 47.8894 58.7565 47.8866 58.7599C47.6813 58.9826 47.3893 59.1249 47.0625 59.1249H42H40.3125C39.6921 59.1249 39.1875 58.6204 39.1875 57.9999V51.4704C39.1875 50.49 39.7095 49.5664 40.5493 49.0607L43.2055 47.4615C43.2246 47.4795 43.2454 47.4947 43.2645 47.5121C43.3697 47.6089 43.4771 47.7028 43.5896 47.7911C43.6155 47.8114 43.642 47.8299 43.6684 47.8502C43.7854 47.9391 43.9046 48.0246 44.0284 48.1044C44.0509 48.1191 44.074 48.132 44.0965 48.1461C44.2253 48.2265 44.3563 48.303 44.4913 48.3727C44.5116 48.3829 44.5324 48.3919 44.5526 48.402C44.6905 48.4712 44.83 48.5359 44.974 48.5938C44.9959 48.6028 45.019 48.6101 45.0415 48.6186C45.1832 48.6731 45.3261 48.7243 45.4729 48.7682C45.5061 48.7783 45.5404 48.7851 45.5741 48.7941C45.7097 48.8312 45.8458 48.8672 45.9853 48.8942C46.0511 48.9071 46.1175 48.9139 46.1839 48.9246C46.2936 48.942 46.4021 48.9617 46.5141 48.9724C46.6958 48.9904 46.8786 48.9999 47.0625 48.9999C50.1641 48.9999 52.6875 46.4766 52.6875 43.3749C52.6875 43.2247 52.6785 43.0701 52.6639 42.9114C52.6549 42.7984 52.6397 42.6876 52.624 42.5767C52.6217 42.5621 52.6211 42.5492 52.6189 42.5346C52.6566 42.2882 52.678 42.0514 52.6841 41.8157L54.8419 34.8609C55.6091 34.3024 56.4264 34.2208 57.0519 34.6461C57.6341 35.0426 57.8856 35.7598 57.6774 36.4314L54.4003 46.9907C54.3834 47.0447 54.375 47.1009 54.375 47.1577V65.8749H55.5V47.2427L58.7518 36.765C59.1079 35.6186 58.6793 34.3935 57.6853 33.7168C56.8438 33.1431 55.4365 32.9377 54.0038 34.0864C53.9205 34.1561 53.8519 34.2585 53.8198 34.3614L51.9056 40.5287C50.9263 38.8693 49.1252 37.7499 47.0625 37.7499C43.9609 37.7499 41.4375 40.2733 41.4375 43.3749C41.4375 44.0252 41.554 44.6473 41.7581 45.2284C37.4505 45.2194 33.3274 46.9648 30.336 50.1002L25.3315 54.1896ZM46.5 52.9374H51.5625V54.0624H46.5C46.1901 54.0624 45.9375 53.8104 45.9375 53.4999C45.9375 53.1894 46.1901 52.9374 46.5 52.9374ZM47.0625 55.7499H45.9375V55.0912C45.9859 55.1081 46.0376 55.1177 46.0877 55.1306C46.1198 55.1385 46.1501 55.1492 46.1828 55.1554C46.2857 55.1751 46.3915 55.1874 46.5 55.1874H51.5625V58.5624H49.24C49.245 58.5422 49.2473 58.5214 49.2518 58.5011C49.2596 58.4657 49.2664 58.4302 49.2726 58.3948C49.2962 58.2649 49.3125 58.1332 49.3125 57.9999C49.3125 56.7591 48.3034 55.7499 47.0625 55.7499ZM47.0625 38.8749C49.2878 38.8749 51.1356 40.5 51.4945 42.6246C51.4945 42.6257 51.4945 42.6262 51.4945 42.6274C51.5164 42.7579 51.5321 42.8811 51.5434 43.0003C51.5535 43.1241 51.5625 43.2484 51.5625 43.3749C51.5625 45.8561 49.5437 47.8749 47.0625 47.8749C46.9039 47.8749 46.7464 47.8665 46.59 47.8496C46.585 47.8491 46.5799 47.8479 46.5748 47.8474C45.955 47.7787 45.3576 47.5813 44.821 47.2708C44.8148 47.2674 44.8091 47.2635 44.803 47.2596C44.677 47.1859 44.5538 47.106 44.4351 47.0199C44.4233 47.0109 44.4115 47.0019 44.3991 46.9929C44.2871 46.9102 44.1786 46.8225 44.074 46.7291C44.0593 46.7162 44.0453 46.7032 44.0312 46.6903C43.93 46.5975 43.8321 46.4996 43.7393 46.3972C43.7303 46.3877 43.7213 46.3781 43.7128 46.368C43.6093 46.2521 43.5143 46.1329 43.4248 46.0114C43.4102 45.9917 43.3945 45.9726 43.3804 45.9523C43.3011 45.8404 43.2302 45.7262 43.1638 45.6103C42.783 44.9516 42.5625 44.1894 42.5625 43.3749C42.5625 40.8937 44.5813 38.8749 47.0625 38.8749ZM31.1263 50.9006C34.0311 47.8423 38.0951 46.1947 42.2987 46.3641C42.3212 46.4001 42.3465 46.4349 42.3701 46.4704C42.3893 46.4996 42.4084 46.5283 42.4286 46.557C42.4382 46.5711 42.4472 46.5851 42.4568 46.5986L39.9688 48.0966C39.2516 48.528 38.7038 49.1782 38.3826 49.9297C36.8621 50.1266 35.4812 50.8652 34.4805 52.0335L32.5731 54.2587L33.4275 54.9906L35.335 52.7653C36.0555 51.9244 37.0174 51.3557 38.0861 51.1206C38.0749 51.237 38.0625 51.3529 38.0625 51.4704V57.9999C38.0625 59.2408 39.0716 60.2499 40.3125 60.2499H41.4375V64.6481L38.6931 64.1914C35.3535 63.783 32.3301 61.8874 30.3985 58.9899C30.3833 58.9669 30.3658 58.9449 30.3473 58.9241L26.502 54.6857L31.0746 50.9484C31.0931 50.9338 31.1106 50.9175 31.1263 50.9006Z" fill="black"/>
</svg>
